<svg xmlns="http://www.w3.org/2000/svg" viewBox="0 0 511 444.84"><g data-name="Layer 2"><path d="M491.66 353.47a19.34 19.34 0 007.69-37.08v.15l-271.43.29 1.6-2 17.43-25.43a19.19 19.19 0 002.28-4.52l169.59-20.25 32.18-3.88a48.36 48.36 0 0042.59-48V101.49a20.17 20.17 0 00-19.1-20.15L256.64 69.8h-.27L148 64.05l-1.68-7.57a30.81 30.81 0 00-24.55-23.68l-24.11-4.42 1.12-6.32A8.86 8.86 0 0091.6 11.8L26.66.35a22.72 22.72 0 00-7.89 44.74l64.94 11.45a9 9 0 001.54.13A8.88 8.88 0 0094 49.36l1.09-6.24 24 4.4a15.87 15.87 0 0112.66 12.2l41.66 187.88 6.4 28.89a18.27 18.27 0 0017.85 14.36c.46 0 .92 0 1.39-.06l-3.47 5.06A36.8 36.8 0 00226 353.46h8.41v3.91a44.06 44.06 0 1040.32 14.05 7.48 7.48 0 10-11.15 10 29.09 29.09 0 11-29.17-8.72v8.43a21.08 21.08 0 1015 0v-27.66H446v3.91a44 44 0 1040.33 14 7.49 7.49 0 00-11.16 10 29.08 29.08 0 11-29.17-8.7v8.43a21.08 21.08 0 1015 0v-27.64z" fill="#5022ed" data-name="Layer 1"/></g></svg>