<svg width="106" height="85" viewBox="0 0 106 85" fill="none" xmlns="http://www.w3.org/2000/svg">
<path d="M55.16 80.9506H0L31.0033 41.5249L0 2.76099L55.16 2.76099L55.16 80.9506Z" fill="#16DFB5"/>
<path d="M63.0443 84.6725C86.4259 84.6725 105.38 65.7179 105.38 42.3362C105.38 18.9546 86.4259 0 63.0443 0C39.6626 0 20.708 18.9546 20.708 42.3362C20.708 65.7179 39.6626 84.6725 63.0443 84.6725Z" fill="#E8AE38"/>
<path d="M63.0442 72.7105C79.8195 72.7105 93.4185 59.1115 93.4185 42.3362C93.4185 25.5609 79.8195 11.9619 63.0442 11.9619C46.2689 11.9619 32.6699 25.5609 32.6699 42.3362C32.6699 59.1115 46.2689 72.7105 63.0442 72.7105Z" fill="#F1C751"/>
<path d="M71.0496 41.9672C70.9033 41.9595 75.137 41.3668 75.4911 35.9477C75.7836 31.437 70.9495 30.1592 69.7025 30.0745L70.0489 24.7479L65.9693 24.4784L65.6229 29.8051L62.4592 29.5973L62.8056 24.2706L59.1108 24.032L58.7567 29.451L51.3748 28.8737L51.1362 32.5685L54.7386 32.7994L53.5763 50.6499L49.9739 50.419L49.7352 54.0676L57.2172 54.5526L56.8631 59.9254L60.2731 60.1486L60.6118 54.8682L64.3066 55.1068L63.9679 60.3873L67.4703 60.6105L67.8166 55.2376C67.8166 55.2376 75.8913 55.5225 76.3378 48.664C76.7073 43.1526 71.1958 41.9749 71.0496 41.9672ZM62.0974 33.3691L66.0693 33.6308C67.4318 34.0079 68.3016 35.355 68.0707 36.7483C67.8859 39.5963 65.8076 39.5886 65.8076 39.5886L61.7125 39.3192L62.0974 33.3691ZM65.8307 51.081L60.9582 50.7654L61.42 43.6914L66.1386 43.9993C67.7628 44.4458 68.7865 46.0468 68.5248 47.7095C68.3016 51.0964 65.8307 51.0887 65.8307 51.081Z" fill="#E8AE38"/>
</svg>
