<svg width="389" height="336" viewBox="0 0 389 336" fill="none" xmlns="http://www.w3.org/2000/svg">
<g clip-path="url(#clip0)">
<path d="M201.619 284.349C261.647 284.349 310.309 236.272 310.309 176.966C310.309 117.661 261.647 69.5839 201.619 69.5839C141.592 69.5839 92.9296 117.661 92.9296 176.966C92.9296 236.272 141.592 284.349 201.619 284.349Z" fill="#5022ED"/>
<path d="M249.008 148.079L241.834 158.281C239.443 157.314 236.943 156.885 234.335 156.885C232.813 156.885 231.291 157.1 229.879 157.422C229.661 157.422 229.444 157.529 229.226 157.529C226.944 158.066 224.879 159.032 223.031 160.321C222.814 160.428 222.596 160.643 222.379 160.751C220.749 161.932 219.227 163.435 218.031 165.046C213.358 170.845 209.771 179.22 203.576 187.918C202.924 188.777 202.271 189.744 201.619 190.603C196.837 197.153 190.424 202.522 183.033 206.066C182.599 206.281 182.272 206.496 181.838 206.603C180.751 207.032 179.664 207.462 178.577 207.784C177.925 207.999 177.164 208.214 176.403 208.321C174.338 208.858 172.273 209.073 170.208 209.18C169.773 209.18 169.338 209.18 168.904 209.18C150.861 209.18 136.188 194.683 136.188 176.858C136.188 159.032 150.861 144.536 168.904 144.536C177.381 144.536 185.533 147.757 191.62 153.556L184.446 163.865C177.164 155.381 164.339 154.415 155.752 161.61C147.166 168.804 146.188 181.475 153.47 189.959C157.383 194.469 163.034 197.046 168.904 197.046C169.338 197.046 169.773 197.046 170.208 197.046C172.925 196.939 175.642 196.187 178.034 194.898H178.142C185.098 191.677 190.75 184.59 200.315 168.267C200.75 167.623 201.184 166.871 201.511 166.12C204.663 160.321 209.119 155.381 214.336 151.301C214.553 151.194 214.771 150.979 214.879 150.871C215.097 150.657 215.423 150.549 215.64 150.334C216.292 149.905 216.944 149.475 217.488 149.153C218.249 148.724 219.01 148.294 219.77 147.865L220.531 147.543C220.857 147.328 221.292 147.22 221.618 147.006C222.053 146.791 222.596 146.576 223.031 146.469C231.835 143.569 241.074 144.106 249.008 148.079Z" fill="white"/>
<path d="M267.159 170.845V176.965C267.159 178.039 267.159 179.22 266.942 180.294C266.833 181.261 266.724 182.12 266.507 183.086C263.138 200.589 245.965 212.079 228.248 208.751C222.27 207.677 216.727 204.885 212.271 200.804L219.444 190.496C227.053 198.657 239.878 199.194 248.138 191.784C250.747 189.422 252.703 186.415 253.79 183.086H233.465L241.943 170.845H267.159Z" fill="white"/>
<path d="M100.32 273.826L66.6267 280.913C53.8014 281.45 43.5845 291.973 43.9106 304.752C44.128 317.638 54.9969 327.946 68.1484 327.732C80.1042 327.517 89.7776 318.604 91.1906 307.222L100.32 273.826Z" fill="#F8C145"/>
<path d="M87.9294 76.456L70.3216 28.6707C66.8436 9.98618 48.8011 -2.57758 29.7804 0.429129C10.4337 3.54322 -2.71774 21.5835 0.434259 40.5902C3.36888 57.9862 18.6941 70.3352 35.9757 70.013L87.9294 76.456Z" fill="#E9F6FF"/>
<path d="M266.181 111.463L290.419 105.772C299.766 105.128 306.831 97.2886 306.396 88.0537C305.961 78.7114 297.918 71.5168 288.462 71.9463C279.876 72.3758 273.028 79.0336 272.159 87.1946L266.181 111.463Z" fill="#16DFB5"/>
<path d="M310.309 264.913L324.873 308.832C327.482 325.906 343.459 337.933 360.849 335.678C378.457 333.423 390.956 317.53 388.674 300.027C386.609 284.134 373.023 272.537 357.263 272.215L310.309 264.913Z" fill="#E9F6FF"/>
</g>
<defs>
<clipPath id="clip0">
<rect width="389" height="336" fill="white"/>
</clipPath>
</defs>
</svg>
