<svg width="67" height="34" viewBox="0 0 67 34" fill="none" xmlns="http://www.w3.org/2000/svg">
<path d="M57.7564 1.90865L54.0633 7.24317C52.9348 6.73023 51.6012 6.42247 50.2676 6.42247C49.4469 6.42247 48.7287 6.52506 48.0106 6.73023C47.9081 6.73023 47.8055 6.73023 47.7029 6.83282C46.5744 7.14058 45.446 7.55093 44.5227 8.26903C44.4201 8.37162 44.3175 8.37162 44.2149 8.47421C43.3942 9.08973 42.5735 9.80784 41.958 10.7311C39.5985 13.7061 37.752 18.0148 34.5718 22.6312C34.264 23.0415 33.9562 23.5545 33.5459 23.9648C31.0838 27.3502 27.801 30.12 24.0053 31.9666C23.8001 32.0692 23.595 32.1718 23.3898 32.2744C22.8769 32.4795 22.2613 32.6847 21.7484 32.8899C21.3381 32.9925 21.0303 33.095 20.62 33.1976C19.5941 33.4028 18.4656 33.608 17.4398 33.608C17.2346 33.608 17.0294 33.608 16.7217 33.608C7.48884 33.608 0 26.1191 0 16.8863C0 7.65351 7.48884 0.164675 16.7217 0.164675C21.0303 0.164675 25.2364 1.80606 28.314 4.88367L24.6208 10.2182C20.9277 5.70436 14.3622 5.19143 10.0535 8.98714C5.64228 12.6803 5.12934 19.2458 8.82247 23.6571C10.7716 26.0166 13.7466 27.3502 16.7217 27.3502C16.9268 27.3502 17.132 27.3502 17.4398 27.3502C18.876 27.2476 20.2096 26.9398 21.4406 26.2217C21.4406 26.2217 21.4406 26.2217 21.5432 26.2217C25.1338 24.5803 28.0062 20.8872 32.9304 12.3725C33.1355 12.0647 33.3407 11.6544 33.5459 11.2441C35.1873 8.26903 37.4442 5.70436 40.1115 3.55004C40.214 3.44745 40.3166 3.44745 40.4192 3.34487C40.5218 3.24228 40.727 3.13969 40.8296 3.03711C41.1373 2.83193 41.4451 2.62676 41.7528 2.42159C42.1632 2.21641 42.5735 2.01124 42.9839 1.80606L43.2916 1.60089C43.4968 1.4983 43.702 1.39572 43.8046 1.39572C44.0098 1.29313 44.3175 1.19054 44.5227 1.08796C48.9339 -0.450846 53.6529 -0.143085 57.7564 1.90865Z" fill="#5022ED"/>
<path d="M66.9892 13.7061V16.8862C66.9892 17.5018 66.9892 18.0147 66.8866 18.6302C66.784 19.1432 66.784 19.5535 66.6814 20.0664C64.9374 29.1967 56.2175 35.1467 47.0873 33.4027C44.0097 32.7872 41.2399 31.351 38.8804 29.2993L42.5735 23.9647C46.4718 28.1708 53.0374 28.4786 57.2434 24.5803C58.577 23.3492 59.6029 21.8104 60.1158 20.0664H49.7546L54.1658 13.7061H66.9892Z" fill="#5022ED"/>
</svg>
