<svg width="141" height="35" viewBox="0 0 141 35" fill="none" xmlns="http://www.w3.org/2000/svg">
<path d="M13.2795 14.4649C12.3562 13.5416 11.1253 13.0288 9.58653 13.0288C6.61151 13.0288 5.07256 15.183 5.07256 17.5425C5.07256 20.2097 7.02181 22.0563 9.79165 22.0563C10.8175 22.0563 12.1512 21.7485 13.3822 20.6201V25.0314C12.4589 25.4417 11.1253 26.0572 9.27872 26.0572C6.71405 26.0572 4.55972 25.1339 3.12351 23.6977C1.89247 22.5692 0.558838 20.5175 0.558838 17.5425C0.558838 14.7726 1.68724 12.4132 3.32863 10.977C5.27778 9.23305 7.53479 8.92529 9.0736 8.92529C10.715 8.92529 12.1512 9.23295 13.3822 9.84847V14.4649H13.2795Z" fill="#5022ED"/>
<path d="M32.4633 11.2846C34.1047 12.7208 35.1306 14.9777 35.1306 17.5423C35.1306 20.107 34.0021 22.364 32.4633 23.8002C31.1296 25.0313 28.9755 26.0571 26.0005 26.0571C22.9229 26.0571 20.8711 25.0313 19.5375 23.8002C17.8961 22.364 16.8701 20.107 16.8701 17.5423C16.8701 14.8751 17.9987 12.7208 19.5375 11.2846C20.8711 10.0535 23.0255 9.02771 26.0005 9.02771C29.0781 9.02771 31.1296 10.0535 32.4633 11.2846ZM30.5142 17.5423C30.5142 14.9777 28.5652 13.0286 26.0005 13.0286C23.4358 13.0286 21.4865 15.0803 21.4865 17.5423C21.4865 20.0044 23.3332 22.0562 26.0005 22.0562C28.6678 22.0562 30.5142 20.0044 30.5142 17.5423Z" fill="#5022ED"/>
<path d="M41.9014 0C43.3376 0 44.5685 1.23102 44.5685 2.66723C44.5685 4.10345 43.3376 5.33459 41.9014 5.33459C40.4651 5.33459 39.234 4.10345 39.234 2.66723C39.1314 1.23102 40.3626 0 41.9014 0ZM44.1582 9.54063V25.6467H39.6443V9.54063H44.1582Z" fill="#5022ED"/>
<path d="M49.39 9.54064H53.904V11.5924C54.7247 10.3613 56.2636 9.02771 58.8282 9.02771C60.2644 9.02771 62.316 9.43808 63.5471 10.9769C64.6755 12.3105 64.7781 13.9518 64.7781 15.4906V25.5442H60.2643V16.8243C60.2643 15.901 60.2643 14.5674 59.4436 13.6441C58.7255 12.926 57.8024 12.8234 57.2894 12.8234C56.0584 12.8234 55.1349 13.2337 54.5194 14.2596C53.8013 15.2855 53.8013 16.4139 53.8013 17.3372V25.5442H49.2876V9.54064H49.39Z" fill="#5022ED"/>
<path d="M82.3206 9.54079H86.8343V24.8263C86.8343 27.2883 86.6292 29.8529 84.5775 31.8021C83.449 32.9305 81.4999 34.0591 78.2171 34.0591C75.1395 34.0591 73.2931 33.1357 72.1646 32.2125C70.9336 31.1866 69.9077 29.2375 69.5999 27.3909H74.5239C74.7291 28.109 75.1395 28.827 75.6524 29.34C76.5757 30.1607 77.8067 30.1607 78.4222 30.1607C79.7559 30.1607 80.5765 29.7504 81.192 29.1349C82.2179 28.109 82.3206 26.8779 82.3206 25.5443V23.2875C80.7818 25.6469 78.6274 25.9547 77.3964 25.9547C75.2421 25.9547 73.3956 25.2366 71.8568 23.8004C70.6257 22.5693 69.2921 20.5175 69.2921 17.4399C69.2921 14.8753 70.2153 12.6184 71.7541 11.0796C73.1903 9.74596 75.1396 8.92529 77.2939 8.92529C80.269 8.92529 81.7051 10.5667 82.3206 11.49V9.54079ZM75.4473 14.1572C74.7292 14.8753 74.011 15.9011 74.011 17.5425C74.011 18.9787 74.5241 20.0047 75.2422 20.7228C76.1655 21.7486 77.3965 22.1589 78.5249 22.1589C79.6534 22.1589 80.7817 21.7486 81.4998 21.0305C82.4231 20.2098 82.9362 18.8761 82.9362 17.5425C82.9362 16.0037 82.2181 14.9778 81.6025 14.3623C80.6793 13.439 79.6533 13.0288 78.4222 13.0288C76.986 13.0288 75.9603 13.6443 75.4473 14.1572Z" fill="#5022ED"/>
<path d="M104.377 9.54064H108.89V25.6467H104.377V23.595C102.735 25.9545 100.581 26.1597 99.4526 26.1597C94.5284 26.1597 91.2456 22.2613 91.2456 17.5423C91.2456 12.8233 94.4258 9.02771 99.2474 9.02771C100.478 9.02771 102.838 9.23288 104.377 11.5924V9.54064ZM95.9647 17.5423C95.9647 20.107 97.8113 22.0562 100.376 22.0562C102.941 22.0562 104.787 20.0044 104.787 17.5423C104.787 15.0803 102.941 13.0286 100.376 13.0286C97.8113 13.0286 95.9647 14.9777 95.9647 17.5423Z" fill="#5022ED"/>
<path d="M118.739 13.4387V25.6465H114.225V13.4387H112.481V9.54045H114.225V4.00073H118.739V9.54045H121.816V13.4387H118.739Z" fill="#5022ED"/>
<path d="M140.898 21.1327C140.385 22.3638 138.64 26.1595 132.998 26.1595C130.434 26.1595 128.484 25.4415 126.843 23.9027C125.099 22.2613 124.278 20.107 124.278 17.6449C124.278 14.4647 125.612 12.5154 126.741 11.387C128.587 9.54042 130.844 9.13013 132.793 9.13013C136.076 9.13013 137.923 10.4637 139.051 11.7974C140.795 13.8491 141 16.3112 141 18.0551V18.4655H128.997C128.997 19.3888 129.305 20.5172 129.818 21.1327C130.331 21.8508 131.254 22.6715 132.998 22.6715C134.742 22.6715 135.973 21.8509 136.794 20.5172L140.898 21.1327ZM136.691 15.3879C136.281 13.2336 134.537 12.2077 132.896 12.2077C131.254 12.2077 129.51 13.2336 129.1 15.3879H136.691Z" fill="#5022ED"/>
</svg>
