<svg width="297" height="45" viewBox="0 0 297 45" fill="none" xmlns="http://www.w3.org/2000/svg">
<path d="M73.7077 3.6138L69.0328 10.3924C67.4745 9.76906 65.8382 9.45744 64.1241 9.45744C63.1112 9.45744 62.1762 9.53532 61.1633 9.76907C61.0075 9.76907 60.8517 9.84701 60.7738 9.84701C59.2934 10.1587 57.8909 10.782 56.7222 11.7169C56.5664 11.7949 56.4105 11.8728 56.3326 12.0286C55.2418 12.8078 54.3068 13.8207 53.4498 14.9115C50.4111 18.8072 48.0736 24.2613 44.022 30.027C43.6324 30.5724 43.165 31.1957 42.7754 31.819C39.6588 36.1823 35.4514 39.6885 30.6206 42.1038C30.3869 42.2597 30.0752 42.3376 29.8415 42.4934C29.1402 42.8051 28.439 43.0388 27.7378 43.2726C27.2703 43.4284 26.8028 43.5063 26.3353 43.6621C25.0107 43.9738 23.6083 44.2075 22.2837 44.2075C21.9721 44.2075 21.7383 44.2075 21.4266 44.2075C9.58356 44.2075 0 34.624 0 22.7809C0 10.9378 9.58356 1.35425 21.4266 1.35425C26.9586 1.35425 32.2569 3.45796 36.3084 7.35372L31.6335 14.2102C26.8807 8.60035 18.4659 7.97701 12.856 12.7298C7.2461 17.4827 6.62279 25.8975 11.3756 31.5074C13.8689 34.4682 17.6088 36.1823 21.5046 36.1823C21.8162 36.1823 22.05 36.1823 22.3616 36.1823C24.1537 36.1044 25.8678 35.559 27.504 34.7798H27.5819C32.1789 32.6761 35.8409 27.9233 42.0741 17.171C42.3079 16.7035 42.6196 16.236 42.8533 15.7685C44.957 11.9507 47.8399 8.60037 51.2681 5.95126C51.424 5.87334 51.5019 5.79541 51.6577 5.63958C51.8135 5.48375 51.9694 5.40583 52.2031 5.25C52.5927 4.93834 53.0602 4.7046 53.4498 4.47085C53.9952 4.15919 54.4626 3.92546 54.9301 3.6138L55.3976 3.38002C55.6314 3.30211 55.8651 3.1463 56.0989 3.06839C56.4105 2.91256 56.7222 2.83464 57.0338 2.67881C62.41 0.653022 68.4874 1.04261 73.7077 3.6138Z" fill="white"/>
<path d="M85.5508 18.6514V22.703C85.5508 23.4042 85.5508 24.1833 85.4729 24.8846C85.3949 25.5079 85.317 26.1312 85.1612 26.7545C82.9796 38.3639 71.7598 45.9996 60.1505 43.74C56.2547 42.9609 52.5927 41.1688 49.7098 38.5197L54.3847 31.7411C59.3713 37.1172 67.7082 37.5068 73.1623 32.5981C74.8764 31.0398 76.123 29.0141 76.8243 26.8325H63.5008L69.1107 18.7293L85.5508 18.6514Z" fill="white"/>
<path d="M133.118 18.3904C131.871 17.2217 130.391 16.5983 128.365 16.5983C124.547 16.5983 122.599 19.4034 122.599 22.3642C122.599 25.7145 125.093 28.2078 128.599 28.2078C129.846 28.2078 131.56 27.8182 133.118 26.4157V32.0256C131.949 32.571 130.157 33.2723 127.82 33.2723C124.625 33.2723 121.742 32.0256 119.872 30.3115C118.314 28.8311 116.6 26.2598 116.6 22.442C116.6 18.8579 118.08 15.9751 120.184 14.1051C122.677 11.8456 125.56 11.4561 127.586 11.4561C129.69 11.4561 131.482 11.8455 133.118 12.7026V18.3904Z" fill="white"/>
<path d="M157.661 14.3389C159.687 16.2088 161.089 19.0138 161.089 22.3642C161.089 25.7145 159.687 28.5193 157.661 30.3893C155.869 32.0255 153.22 33.2723 149.402 33.2723C145.506 33.2723 142.857 32.0255 141.143 30.3893C139.117 28.5193 137.715 25.7145 137.715 22.3642C137.715 19.0138 139.117 16.1309 141.143 14.3389C142.935 12.7027 145.584 11.4561 149.402 11.4561C153.298 11.4561 155.947 12.7027 157.661 14.3389ZM155.168 22.442C155.168 19.2474 152.675 16.5983 149.402 16.5983C146.052 16.5983 143.636 19.1695 143.636 22.442C143.636 25.5586 146.052 28.2078 149.402 28.2078C152.752 28.2078 155.168 25.5586 155.168 22.442Z" fill="white"/>
<path d="M169.66 0.00244141C171.53 0.00244141 173.088 1.56086 173.088 3.43082C173.088 5.30078 171.53 6.85901 169.66 6.85901C167.79 6.85901 166.232 5.30078 166.232 3.43082C166.232 1.56086 167.79 0.00244141 169.66 0.00244141ZM172.543 12.1573V32.649H166.777V12.1573H172.543Z" fill="white"/>
<path d="M179.244 12.1572H185.009V14.8063C186.1 13.3259 188.048 11.4561 191.398 11.4561C193.19 11.4561 195.839 12.0014 197.476 13.9493C198.878 15.7413 199.112 17.7671 199.112 19.7149V32.6489H193.346V21.429C193.346 20.2603 193.268 18.4683 192.255 17.3775C191.32 16.4425 190.152 16.3646 189.528 16.3646C188.048 16.3646 186.801 16.91 185.944 18.1566C185.087 19.4812 185.009 20.9617 185.009 22.1304V32.5709H179.244V12.1572Z" fill="white"/>
<path d="M221.396 12.1572H227.162V31.7139C227.162 34.8305 226.85 38.103 224.279 40.6742C222.876 42.0767 220.383 43.557 216.175 43.557C212.202 43.557 209.786 42.3883 208.462 41.2195C206.826 39.8171 205.579 37.4017 205.112 35.1421H211.345C211.578 36.0771 212.124 37.0121 212.747 37.6354C213.916 38.6483 215.474 38.7263 216.253 38.7263C217.89 38.7263 218.98 38.1808 219.76 37.4796C221.084 36.2329 221.24 34.5967 221.24 32.9605V30.0777C219.214 33.1163 216.487 33.5058 214.929 33.5058C212.202 33.5058 209.786 32.6489 207.839 30.701C206.358 29.2206 204.566 26.4936 204.566 22.5199C204.566 19.3254 205.735 16.2867 207.761 14.3388C209.553 12.5468 212.046 11.6118 214.851 11.6118C218.669 11.6118 220.461 13.7156 221.318 14.9622V12.1572H221.396ZM212.513 18.0008C211.578 18.8579 210.644 20.2604 210.644 22.3641C210.644 24.1562 211.345 25.4807 212.124 26.4157C213.371 27.7402 214.929 28.2078 216.331 28.2078C217.734 28.2078 219.214 27.6623 220.149 26.8053C221.318 25.7144 222.019 24.0783 222.019 22.3641C222.019 20.4163 221.162 19.0917 220.383 18.2346C219.214 17.0659 217.89 16.5983 216.331 16.5983C214.539 16.5983 213.215 17.2996 212.513 18.0008Z" fill="white"/>
<path d="M249.601 12.1572H255.367V32.6489H249.601V29.9997C247.497 32.9605 244.77 33.3501 243.29 33.3501C236.979 33.3501 232.849 28.4415 232.849 22.3642C232.849 16.2868 236.979 11.4561 243.056 11.4561C244.614 11.4561 247.731 11.7676 249.679 14.8063V12.1572H249.601ZM238.771 22.3642C238.771 25.6366 241.108 28.2078 244.459 28.2078C247.809 28.2078 250.146 25.6366 250.146 22.3642C250.146 19.0917 247.809 16.5983 244.459 16.5983C241.186 16.5983 238.771 19.0917 238.771 22.3642Z" fill="white"/>
<path d="M267.833 17.0658V32.6488H262.068V17.0658H259.808V12.1571H262.068V5.14478H267.833V12.1571H271.807V17.0658H267.833Z" fill="white"/>
<path d="M296.194 26.8831C295.571 28.3635 293.233 33.2723 286.065 33.2723C282.715 33.2723 280.222 32.3371 278.196 30.3893C275.936 28.2856 275.001 25.6366 275.001 22.3642C275.001 18.3126 276.637 15.7413 278.118 14.3389C280.533 12.0014 283.416 11.4561 285.832 11.4561C290.039 11.4561 292.454 13.0921 293.857 14.8063C296.038 17.3774 296.35 20.6499 296.35 22.8315V23.2991H281.001C281.001 24.5458 281.312 25.8702 282.014 26.7273C282.637 27.5844 283.884 28.6752 286.143 28.6752C288.325 28.6752 289.961 27.6623 290.896 25.9481L296.194 26.8831ZM290.896 19.6371C290.429 16.8322 288.169 15.5076 285.987 15.5076C283.884 15.5076 281.624 16.9101 281.157 19.6371H290.896Z" fill="white"/>
</svg>
