<svg width="261" height="153" viewBox="0 0 261 153" fill="none" xmlns="http://www.w3.org/2000/svg">
<g clip-path="url(#clip0)">
<path d="M252.973 133.827L242.555 139.877C240.677 140.942 238.755 142.008 236.706 142.945C234.955 143.754 233.162 144.564 231.284 145.246C200.116 157.516 158.829 154.832 132.998 139.92C129.582 137.96 126.422 135.787 123.604 133.401C115.45 126.499 110.796 118.446 110.155 110.138L139.487 106.985C138.932 115.08 144.397 122.579 153.662 127.862C161.903 132.591 173.089 135.659 185.599 135.957C194.01 136.17 202.378 135.105 209.85 132.847L175.693 113.163L210.704 109.414L252.973 133.827Z" fill="#A6DFE8"/>
<path d="M220.482 67.7019C228.594 69.9174 235.895 72.8998 242.129 76.5214C250.583 81.3785 257.115 87.3861 261 94.0327L231.711 97.1856C229.32 93.9475 225.862 91.0076 221.549 88.5364C218.988 87.0452 216.212 85.767 213.181 84.7019C212.754 84.5314 212.327 84.361 211.857 84.2332C207.204 82.5715 202.037 81.4212 196.658 80.9099C196.06 80.8247 195.462 80.7821 194.822 80.7394C189.997 80.3134 185.044 80.3134 180.22 80.7394C162.458 81.8898 142.477 86.5765 117.329 89.1755C114.81 89.4738 112.248 89.6868 109.558 89.8998C90.3449 91.7319 70.6194 90.7946 52.1748 87.1304C51.1928 86.9174 50.1681 86.7044 49.1434 86.4913C46.6243 85.8948 44.148 85.2557 41.757 84.5314C40.2199 84.0628 38.6829 83.5515 37.1885 82.9976C32.9189 81.5064 28.9055 79.7595 25.2337 77.7996C24.5078 77.3735 23.7393 76.9901 22.9708 76.5214C-7.42868 59.0101 -7.59946 30.6768 22.5438 13.1655C52.6871 -4.34575 101.787 -4.38836 132.187 13.1229C146.447 21.346 154.645 32.3811 155.115 43.9274L125.612 47.0803C126.722 38.6016 121.171 30.7194 111.522 25.1806C103.709 20.6643 93.1628 17.6818 81.2934 17.1279C54.6938 15.8923 31.5527 27.3109 29.546 42.6066C28.4786 50.7445 33.6021 58.7545 43.5929 64.5064C44.3614 64.9324 45.0873 65.3585 45.9412 65.742C50.8085 68.2131 56.5298 70.1304 62.7207 71.2382C80.1406 74.9024 101.617 73.4111 145.295 66.6793C147.13 66.4237 149.052 66.1254 150.93 65.8272C166.002 63.2708 181.885 62.5891 197.469 63.7821C198.067 63.8247 198.622 63.9099 199.219 63.9525C199.988 63.9951 200.714 64.1229 201.482 64.1655C203.276 64.3785 204.983 64.5916 206.606 64.8472C208.698 65.1455 210.662 65.5289 212.583 65.8698L214.462 66.2532C215.358 66.4237 216.255 66.6367 217.109 66.8497C218.219 67.1054 219.372 67.4036 220.482 67.7019Z" fill="#A6DFE8"/>
</g>
<defs>
<clipPath id="clip0">
<rect width="261" height="153" fill="white"/>
</clipPath>
</defs>
</svg>
