<svg width="631" height="422" viewBox="0 0 631 422" fill="none" xmlns="http://www.w3.org/2000/svg">
<g clip-path="url(#clip0)">
<path d="M134.319 393.598C112.294 365.427 203.988 257 338.971 151.427C473.954 45.8537 601.34 -17.0448 623.353 11.1006" stroke="#A6DFE8" stroke-width="7" stroke-miterlimit="10"/>
<path d="M30.2853 280.503C32.672 276.874 36.1075 274.059 40.1343 272.431L64.9383 262.419L64.6004 262.282C66.5654 258.671 69.4548 255.648 72.9727 253.521C76.1815 251.611 79.645 250.166 83.2597 249.229C87.3145 248.278 95.6993 246.901 95.6993 246.901L100.28 246.113V240.318C96.3631 234.188 93.2902 227.559 91.1439 220.608C89.6797 216.103 88.4783 211.848 87.5397 207.843C84.0553 203.595 81.7966 198.476 81.0071 193.038C80.0891 187.628 79.6702 182.144 79.7556 176.657C79.7682 172.76 80.2174 168.877 81.0947 165.081C71.6211 159.349 57.3169 145.232 78.3039 118.388C78.3039 118.388 87.2769 134.144 94.2476 134.144C94.2476 134.144 84.3109 116.411 107.463 104.197C107.801 107.268 108.515 110.286 109.59 113.182C113.345 123.532 122.23 131.429 133.256 135.596C140.677 138.412 149.65 148.111 154.43 163.416C154.43 163.541 154.518 163.679 154.556 163.817C155.66 167.977 156.219 172.264 156.22 176.569C156.22 178.021 156.22 179.372 156.22 180.649C156.846 191.912 151.502 205.09 151.502 205.09C150.401 219.419 146.696 235.125 136.872 245.074V245.812C138.624 246.1 140.852 246.476 142.954 246.851C142.954 246.851 151.339 248.228 155.394 249.179C159.012 250.119 162.479 251.564 165.694 253.471C169.206 255.6 172.091 258.623 174.053 262.232L199.158 272.368C203.181 273.996 206.613 276.812 208.994 280.44C211.122 283.694 214 288.174 217.304 293.393V97.9145C217.304 96.255 216.645 94.6634 215.471 93.49C214.298 92.3165 212.706 91.6572 211.047 91.6572H21.8755C20.2159 91.6572 18.6244 92.3165 17.4509 93.49C16.2774 94.6634 15.6182 96.255 15.6182 97.9145V303.793C21.4375 294.169 26.8563 285.734 30.2853 280.503Z" fill="#E9F6FF"/>
<path d="M143.918 266.825C147.96 260.467 148.048 255.699 146.984 252.433L137.235 249.629L137.586 254.573C137.799 258.027 140.577 264.121 143.918 266.825Z" fill="#2A2A66"/>
<path d="M93.9224 265.31C97.3014 262.244 100.28 257.426 100.28 254.16V249.517L91.9076 252.02C90.8063 255.086 90.6686 259.453 93.9224 265.31Z" fill="#2A2A66"/>
<path d="M137.548 254.573L137.198 249.629L136.935 245.875V245.137L136.284 245.775L136.009 246.038C135.093 246.885 134.132 247.683 133.13 248.428L132.442 248.929C121.629 256.537 112.932 253.772 106.374 247.677C104.084 245.487 102.056 243.038 100.33 240.381V254.147C100.33 257.414 97.3511 262.232 93.9722 265.298C94.8434 266.851 95.8307 268.336 96.9256 269.74C100.064 273.764 103.875 277.214 108.189 279.94L119.114 286.986L119.402 287.173L119.677 286.986L130.602 279.94C134.917 277.214 138.727 273.764 141.866 269.74C142.642 268.727 143.317 267.763 143.906 266.825C140.577 264.121 137.798 258.027 137.548 254.573Z" fill="#CEA38E"/>
<path d="M151.777 188.208C150.04 181.902 147.697 175.779 144.782 169.924C143.843 168.009 143.042 166.52 142.542 165.606L135.421 166.545C135.421 166.545 105.498 171.15 91.6197 169.198C90.7561 170.925 89.7425 173.077 88.7037 175.455C87.0756 179.192 85.7001 183.035 84.5864 186.956C84.8672 194.012 85.8779 201.02 87.6025 207.868C88.5411 211.885 89.7425 216.128 91.2067 220.633C93.3529 227.584 96.4258 234.213 100.342 240.344C102.065 243 104.089 245.449 106.374 247.64C112.932 253.784 121.63 256.55 132.442 248.891L133.131 248.39C134.132 247.645 135.093 246.848 136.009 246L136.134 245.712H136.284L136.935 245.074C146.759 235.15 150.463 219.419 151.565 205.09C151.957 199.471 152.028 193.834 151.777 188.208Z" fill="#DEB499"/>
<path d="M154.468 163.441C154.468 163.579 154.556 163.704 154.593 163.842C154.556 163.704 154.506 163.566 154.468 163.441Z" fill="#2A2A66"/>
<path d="M156.283 176.644C156.278 172.356 155.718 168.086 154.618 163.942C154.618 163.804 154.531 163.679 154.493 163.541C149.713 148.198 140.727 138.512 133.318 135.721C122.293 131.554 113.295 123.657 109.653 113.308C108.578 110.411 107.864 107.393 107.526 104.322C84.3487 116.386 94.2853 134.169 94.2853 134.169C87.3147 134.169 78.3417 118.413 78.3417 118.413C57.3422 145.257 71.6589 159.374 81.1325 165.106C80.2551 168.902 79.806 172.785 79.7934 176.682C79.708 182.169 80.1269 187.653 81.0449 193.063C81.8417 198.503 84.1091 203.622 87.6025 207.868C85.9194 201.033 84.9464 194.042 84.6992 187.006C85.8128 183.085 87.1883 179.242 88.8165 175.505C89.8552 173.077 90.8689 170.925 91.7324 169.248C105.498 171.2 135.534 166.595 135.534 166.595L142.654 165.656C143.155 166.57 143.906 168.059 144.894 169.974C147.81 175.829 150.152 181.952 151.89 188.258C152.127 193.91 152.039 199.572 151.627 205.215C151.627 205.215 156.971 191.987 156.345 180.774C156.27 179.447 156.283 178.096 156.283 176.644Z" fill="#2A2A66"/>
<path d="M119.077 286.986L108.151 279.94C103.837 277.214 100.027 273.764 96.8881 269.74C95.7895 268.34 94.798 266.859 93.9222 265.31C90.6684 259.466 90.806 255.098 91.9073 252.082L100.28 249.579V246.213L95.6993 247.001C95.6993 247.001 87.3145 248.378 83.2597 249.329C79.645 250.266 76.1815 251.711 72.9727 253.622C69.4548 255.748 66.5654 258.771 64.6004 262.382C64.6004 262.382 42.9126 271.142 40.1343 272.544C36.1075 274.171 32.672 276.987 30.2853 280.616C26.8563 285.847 21.4375 294.282 15.6182 303.905V317.371C15.6182 319.031 16.2774 320.622 17.4509 321.796C18.6244 322.969 20.2159 323.628 21.8755 323.628H211.047C212.706 323.628 214.298 322.969 215.471 321.796C216.645 320.622 217.304 319.031 217.304 317.371V293.456C214.025 288.237 211.122 283.757 208.994 280.503C206.613 276.875 203.181 274.059 199.158 272.431L174.053 262.294C172.091 258.686 169.206 255.663 165.694 253.534C162.479 251.627 159.012 250.182 155.394 249.241C151.339 248.29 142.954 246.914 142.954 246.914C140.852 246.538 138.624 246.163 136.872 245.875L137.135 249.629L146.884 252.433C147.948 255.699 147.86 260.467 143.818 266.824C143.23 267.763 142.567 268.727 141.778 269.74C138.64 273.764 134.829 277.214 130.515 279.94L119.59 286.986" fill="#5022ED"/>
<path d="M373.649 413.508C482.079 413.508 569.979 325.609 569.979 217.179C569.979 108.749 482.079 20.8494 373.649 20.8494C265.22 20.8494 177.32 108.749 177.32 217.179C177.32 325.609 265.22 413.508 373.649 413.508Z" fill="#E9F6FF"/>
<path d="M373.649 395.174C471.954 395.174 551.645 315.483 551.645 217.179C551.645 118.875 471.954 39.1833 373.649 39.1833C275.345 39.1833 195.654 118.875 195.654 217.179C195.654 315.483 275.345 395.174 373.649 395.174Z" fill="#E9F6FF"/>
<path d="M373.486 395.149C275.66 395.387 193.664 314.893 195.691 213.274C196.762 166.079 216.537 121.241 250.666 88.6256C284.795 56.01 330.483 38.2882 377.679 39.3586C424.875 40.429 469.712 60.204 502.328 94.3333C534.943 128.463 552.665 174.151 551.595 221.346C549.567 316.945 471.213 395.337 373.486 395.149ZM492.375 100.83L494.978 101.381C495.776 101.602 496.587 101.774 497.406 101.894C497.891 101.916 498.367 101.761 498.745 101.456C498.883 101.356 498.745 100.593 498.457 100.317C493.301 94.3353 487.582 89.0541 479.836 86.7264C477.67 86.1318 475.417 85.9159 473.178 86.0882C469.424 86.3134 466.42 88.516 463.567 90.8187C456.796 96.2501 452.003 103.333 447.16 110.404C446.151 111.824 445.629 113.531 445.671 115.272C445.962 117.556 446.662 119.769 447.736 121.805C447.936 122.243 449.913 121.993 451.027 121.805C455.933 120.854 456.934 121.53 457.547 126.473C457.547 126.773 457.547 127.074 457.547 127.374C457.735 129.589 456.571 130.478 454.331 130.628C454.243 128.926 454.156 127.349 454.056 125.234C449.976 130.127 446.772 135.02 442.542 138.775C438.312 142.529 433.131 145.032 428.25 148.198C429.227 149.75 430.453 151.565 431.529 153.467C432.201 154.552 432.691 155.74 432.981 156.984C433.494 159.749 431.942 161.188 429.227 160.65C428.2 160.45 427.212 160.012 426.185 159.762C421.868 158.66 419.077 160.575 418.502 164.955C418.201 167.346 417.826 169.736 417.4 172.101C416.85 175.255 418.451 177.595 421.618 177.758C424.639 177.933 427.669 177.933 430.691 177.758C434.245 177.508 435.984 175.705 436.535 172.226C436.585 171.323 436.741 170.428 436.998 169.561C437.276 168.56 437.842 167.664 438.625 166.983C441.991 164.955 445.445 163.078 448.95 161.301C450.702 160.413 452.266 161.414 452.604 163.341C452.691 163.904 452.804 164.467 452.917 165.118C454.531 164.983 456.155 165.186 457.685 165.717C459.216 166.247 460.618 167.092 461.802 168.197C465.169 171.037 462.841 174.116 462.09 176.957C464.242 178.471 465.519 177.257 466.72 175.906C467.624 174.703 468.606 173.561 469.661 172.489C470.913 171.425 472.277 171.413 473.128 173.24C473.766 174.617 474.542 175.918 475.268 177.245C475.869 178.346 476.231 179.748 478.021 179.322C478.819 179.233 479.56 178.865 480.114 178.284C480.667 177.702 480.999 176.945 481.05 176.143C481.137 175.33 481.05 174.504 481.05 173.641C481.05 170.887 482.301 169.686 485.204 169.886C485.054 171.213 484.892 172.539 484.766 173.866C484.416 177.37 485.417 178.959 488.721 179.948C490.16 180.373 491.687 180.499 493.126 180.949C495.148 181.489 497.114 182.223 498.996 183.139C500.935 184.19 501.161 186.255 500.535 188.145C500.072 189.534 499.909 191.511 497.819 191.612C493.364 191.837 488.896 191.974 484.441 192.075C483.414 192.079 482.401 191.84 481.483 191.379C480.566 190.918 479.77 190.248 479.16 189.421C477.408 187.319 475.818 187.231 473.866 189.184C472.815 190.222 471.876 191.386 470.975 192.412C466.883 190.097 462.941 188.032 459.187 185.642C458.698 185.223 458.302 184.705 458.026 184.123C457.75 183.541 457.6 182.907 457.585 182.263C457.585 179.572 457.109 178.509 454.581 178.071C444.569 176.331 434.833 176.819 425.56 181.237C420.241 183.74 416.462 187.682 415.661 193.864C415.562 194.813 415.208 195.718 414.634 196.481C414.061 197.243 413.291 197.836 412.407 198.194C407.113 200.572 404.635 204.952 403.934 210.459C403.109 216.979 402.32 223.499 401.782 230.031C401.607 232.284 401.557 235.037 402.645 236.777C405.371 240.961 408.395 244.943 411.694 248.691C412.902 250.265 414.497 251.5 416.323 252.276C418.15 253.053 420.146 253.344 422.118 253.121C428.376 252.458 434.708 251.619 441.028 251.056C442.572 250.989 444.111 251.285 445.521 251.919C447.075 252.533 448.498 253.438 449.713 254.585C450.992 255.683 451.959 257.099 452.516 258.69C454.731 267.55 456.746 276.448 458.774 285.359C459.559 288.448 459.371 291.704 458.235 294.682C456.691 298.829 456.563 303.37 457.873 307.597C458.461 309.712 459.312 311.752 459.762 313.854C461.377 321.363 462.866 328.872 464.393 336.456C465.006 339.459 466.182 340.448 469.248 340.31C476.019 340.022 481.7 337.807 485.605 331.775C492.651 321.013 499.947 310.413 506.88 299.613C508.343 297.33 509.236 294.729 509.483 292.029C509.649 288.024 509.465 284.013 508.932 280.04C508.357 274.558 509.408 269.653 513.312 265.598C515.252 263.583 517.292 261.656 519.294 259.704C523.764 255.575 527.063 250.338 528.855 244.523C529.24 242.493 529.441 240.432 529.456 238.366C527.404 238.429 525.364 238.366 523.324 238.591C521.284 238.817 519.144 239.455 517.292 237.265C518.543 236.439 519.795 235.688 520.959 234.912C525.965 231.633 531.096 228.555 535.864 224.988C537.698 223.734 539.095 221.938 539.86 219.852C540.625 217.765 540.72 215.492 540.131 213.349C539.743 211.697 539.418 210.021 539.055 208.281L544.749 207.768C543.585 199.646 542.784 191.762 541.27 183.99C535.782 155.479 522.978 128.884 504.114 106.812C502.687 105.123 501.524 104.41 499.196 105.348C495.216 107.063 493.389 105.749 492.363 100.83H492.375ZM288.162 89.4546C285.509 86.6138 282.968 83.7104 280.215 81.0323C279.798 80.7153 279.313 80.4986 278.799 80.3988C278.285 80.2989 277.754 80.3187 277.249 80.4566C276.853 80.7279 276.525 81.087 276.29 81.506C276.056 81.9249 275.921 82.3924 275.897 82.8719C275.989 84.352 276.228 85.8193 276.611 87.252C273.169 86.2759 272.481 86.4636 269.577 88.1656C268.126 89.11 266.508 89.7684 264.809 90.1054C259.804 90.7812 255.949 93.2966 252.395 96.8633C236.314 113.02 224.375 131.904 215.289 152.666C211.327 161.238 210.256 170.865 212.235 180.098C214.188 188.933 216.816 197.506 222.447 204.827C223.624 206.341 224.95 207.755 226.202 209.207L226.802 208.882L223.937 199.521C228.592 202.574 230.982 206.629 231.133 211.497C231.283 215.84 233.485 217.905 236.902 219.819C246.088 224.925 255.298 230.019 264.146 235.688C269.84 239.342 274.971 243.898 280.202 248.203C282.48 250.105 282.455 251.732 280.741 254.185C279.564 255.849 278.325 257.476 276.986 259.04C273.857 262.795 273.319 267 274.27 271.555C275.747 278.801 279.577 284.633 284.783 289.714C294.482 299.187 299.525 310.638 298.962 324.279C298.749 329.623 297.873 334.942 297.435 340.273C296.822 347.494 296.108 354.715 295.883 361.961C295.771 365.865 296.897 369.782 300.726 371.847C303.691 373.257 306.728 374.51 309.825 375.602C310.113 374.885 310.351 374.149 310.538 373.399C311.063 370.195 311.514 366.979 312.027 363.775C312.256 361.829 312.62 359.902 313.116 358.006C314.492 353.513 317.721 350.923 322.101 349.484C325.643 348.32 326.081 347.319 325.255 343.702C325.017 342.663 324.88 341.599 324.679 340.398C332.989 340.022 337.282 335.267 339.034 328.084C339.728 324.902 341.222 321.95 343.375 319.506C345.527 317.063 348.267 315.208 351.335 314.117C352.252 313.76 353.054 313.159 353.652 312.377C354.25 311.596 354.622 310.665 354.727 309.687C355.249 306.341 356.01 303.037 357.005 299.8C359.783 291.979 362.824 284.245 365.903 276.536C366.703 274.508 366.253 273.682 364.288 272.869C355.403 269.227 346.605 265.36 337.745 261.706C335.93 260.943 334.929 260.067 335.505 257.776C335.834 256.511 335.748 255.174 335.259 253.961C334.77 252.749 333.904 251.726 332.789 251.043C331.205 250.016 329.529 249.136 327.783 248.415C322.851 246.448 318.504 243.251 315.156 239.13C313.965 237.791 312.362 236.888 310.6 236.564C305.282 235.563 299.85 235.238 294.744 233.047C292.241 231.971 289.851 232.822 288.024 234.95C287.486 235.588 286.96 236.201 286.372 236.814C282.906 240.231 275.71 239.705 272.819 235.751C272.317 235.012 272.047 234.141 272.043 233.248C272.043 230.907 272.231 228.567 272.443 226.227C272.606 224.538 272.13 223.624 270.241 223.812C269.184 223.912 268.119 223.912 267.062 223.812C266.624 223.824 266.19 223.726 265.799 223.528C265.409 223.33 265.074 223.037 264.825 222.677C264.576 222.316 264.422 221.899 264.375 221.463C264.329 221.028 264.392 220.587 264.559 220.182C265.043 218.759 265.633 217.375 266.324 216.04C267.638 213.224 267.4 212.511 264.471 211.572C263.642 211.334 262.754 211.401 261.969 211.76C260.392 212.636 258.99 213.812 257.463 214.801C256.925 215.152 256.212 215.64 255.674 215.527C248.615 213.888 243.159 208.869 248.34 200.897C250.13 198.027 252.552 195.603 255.422 193.812C258.291 192.02 261.532 190.908 264.897 190.56C269.79 189.922 271.48 191.011 273.595 195.566C274.713 197.806 275.967 199.975 277.349 202.061C277.712 202.624 278.776 203.313 279.164 203.175C279.528 202.985 279.846 202.718 280.094 202.391C280.343 202.064 280.517 201.687 280.603 201.285C280.891 199.335 280.891 197.354 280.603 195.403C279.464 189.672 281.579 185.742 286.597 183.026C287.737 182.442 288.627 181.464 289.1 180.273C291.415 171.801 297.235 166.269 304.393 161.902C308.323 159.511 312.44 157.409 316.407 155.069C317.529 154.268 318.58 153.372 319.548 152.391C317.609 150.764 315.056 149.662 314.743 148.098C314.392 146.334 315.994 144.169 316.895 142.004C323.027 145.257 326.381 139.426 331.162 138.487C329.91 139.964 328.309 140.99 327.295 142.529C326.366 143.905 325.866 145.525 325.856 147.185C325.856 147.81 327.846 148.636 329.034 148.937C331.988 149.662 335.016 150.188 338.646 150.851C338.52 149.365 338.234 147.897 337.795 146.471C333.102 136.159 328.321 125.885 323.541 115.61C322.477 113.345 320.712 113.232 319.073 115.047C318.411 115.732 317.52 116.146 316.57 116.211C314.067 116.324 312.903 114.959 312.54 112.006C312.152 108.877 310.963 107.3 308.786 106.7C306.608 106.099 304.193 105.336 301.928 104.56C299.663 103.784 298.499 104.347 298.611 106.8C298.999 115.222 296.271 122.693 291.854 129.689C290.915 131.166 289.939 132.63 288.737 134.482C288.275 132.93 287.891 131.355 287.586 129.764C287.477 128.759 287.088 127.804 286.465 127.008C285.841 126.212 285.007 125.606 284.057 125.259C280.165 123.432 276.373 121.367 272.631 119.239C270.316 117.988 269.527 115.485 270.854 113.72C272.978 110.781 275.307 107.996 277.825 105.386C279.727 103.509 282.255 102.257 284.72 100.593C286.059 103.959 287.548 106.199 290.977 105.849C291.466 102.382 291.453 102.395 295.007 102.758C295.771 102.845 296.559 102.758 297.848 102.758L292.579 96.5004C295.082 92.8711 300.864 90.8187 298.036 84.674C299.306 84.7837 300.583 84.7837 301.853 84.674C305.219 84.0233 306.859 85.6001 308.11 88.6036C309.649 92.4832 309.449 93.8472 306.02 96.2751C304.769 97.1761 303.517 98.0397 301.815 99.191L318.435 108.777C318.435 104.773 320.462 104.134 323.791 105.298C322.539 101.894 321.588 99.0408 320.362 95.6243C323.966 98.4026 327.082 99.3787 329.585 94.9986C329.492 94.7037 329.362 94.4219 329.197 94.1601C326.306 90.1805 323.478 86.1507 320.437 82.2712C319.137 80.4561 317.442 78.9591 315.481 77.8927C313.519 76.8263 311.341 76.2182 309.111 76.114C307.634 76.0389 306.17 75.7511 304.706 75.5509V75.1754L309.975 74.387C308.16 72.5348 306.471 71.6463 304.243 71.9467C302.453 72.2095 300.639 72.2971 298.849 72.5724C296.246 72.9729 293.618 73.3358 291.065 73.974C289.919 74.2767 288.89 74.915 288.109 75.807C287.329 76.6989 286.833 77.8039 286.685 78.9799C286.284 80.8946 287.386 82.071 288.888 83.0596C293.13 85.8754 293.105 86.4386 288.888 89.1418C288.654 89.2643 288.411 89.3689 288.162 89.4546ZM319.711 57.1669C323.05 60.8673 327.219 63.7237 331.875 65.5016C334.204 66.3817 336.485 67.3843 338.708 68.5051C342.588 70.5325 344.715 73.7237 344.415 78.2415C344.215 81.3827 343.351 84.4988 344.803 87.615C344.991 88.0154 344.715 88.6412 344.628 89.1543C343.126 97.6392 344.978 105.211 350.822 111.681C354.689 115.948 357.493 115.685 360.384 110.78C360.659 110.329 360.909 109.866 361.147 109.39C365.602 100.305 372.936 94.5731 382.334 91.3568C387.615 89.5672 392.847 87.6025 398.128 85.7878C398.421 85.7428 398.7 85.6357 398.948 85.4736C399.196 85.3116 399.407 85.0983 399.566 84.8482C399.724 84.5982 399.828 84.317 399.869 84.0236C399.91 83.7302 399.888 83.4314 399.805 83.1472C399.542 81.0323 399.091 78.5794 399.805 76.7523C401.419 72.8853 403.396 69.2435 401.594 64.563H406.412C405.729 63.1939 405.16 61.7707 404.71 60.308C403.96 56.7664 405.849 54.4262 408.577 52.524C409.191 51.9738 409.741 51.3568 410.217 50.6843C409.453 50.3214 408.703 49.9459 407.939 49.5955C407.725 49.5191 407.502 49.4687 407.276 49.4453C393.41 47.4305 379.506 45.8036 365.427 46.542C354.797 47.0541 344.236 48.5413 333.878 50.9847C332.213 51.3851 330.786 51.8607 329.961 53.6503C329.35 54.474 328.46 55.0478 327.458 55.2647C325.017 55.978 322.589 56.4661 319.711 57.1669ZM373.023 127.424C378.204 124.233 382.697 121.517 387.127 118.664C388.408 117.887 389.391 116.702 389.917 115.299C390.444 113.897 390.484 112.358 390.031 110.93C389.267 107.651 387.691 104.773 384.061 103.884C374.613 101.569 365.915 111.218 367.592 120.391C367.698 120.804 367.896 121.187 368.171 121.512C368.446 121.837 368.792 122.096 369.181 122.268C371.684 122.869 373.612 123.657 373.023 127.424ZM426.611 119.915C425.92 123.367 425.984 126.928 426.799 130.352C428.047 134.282 427.779 138.537 426.048 142.279C425.907 142.751 425.823 143.238 425.798 143.731C429.79 142.804 433.519 141.953 437.248 141.052C440.177 140.339 440.627 139.451 439.213 136.722C436.923 132.292 434.545 127.962 432.155 123.532C431.633 122.492 430.846 121.608 429.872 120.971C428.898 120.333 427.773 119.965 426.611 119.903V119.915ZM301.602 65.5016V65.8771C301.139 65.9772 300.689 66.1148 300.213 66.1899C297.11 66.7531 293.956 67.2537 290.915 67.9169C290.289 68.0546 289.789 68.793 289.238 69.256C289.807 69.6431 290.444 69.9191 291.115 70.0695C295.408 70.1445 299.725 70.2447 304.018 70.0695C305.388 69.8849 306.641 69.1981 307.534 68.1422C310.187 64.9635 312.54 61.572 315.043 58.2431C315.351 57.7784 315.635 57.2981 315.894 56.804L315.581 56.391L298.061 63.8372L298.261 64.5881L301.602 65.5016ZM394.761 96.1875L394.386 96.9133C395.41 98.8205 396.568 100.652 397.852 102.395C400.856 105.949 407.501 106.062 410.755 102.858C412.344 101.306 412.244 99.4037 411.844 97.5891C411.68 97.1526 411.41 96.7637 411.058 96.4578C410.707 96.1519 410.284 95.9385 409.829 95.8371C404.773 95.8246 399.742 96.0498 394.724 96.1875H394.761ZM511.798 314.405C517.88 311.577 524.826 293.33 521.647 288.675C519.795 291.528 517.893 294.319 516.153 297.197C514.572 299.674 513.175 302.263 511.973 304.944C510.708 307.957 510.632 311.338 511.76 314.405H511.798ZM426.561 138.975C425.66 135.884 424.997 133.331 424.058 130.878C423.876 130.538 423.615 130.247 423.297 130.029C422.979 129.811 422.613 129.673 422.231 129.627C418.627 129.627 415.36 135.258 417.225 138.299C417.358 138.472 417.526 138.615 417.718 138.718C417.91 138.822 418.121 138.884 418.339 138.9C420.904 139 423.457 138.975 426.561 138.975ZM272.093 208.994L288.262 216.315C285.471 209.545 276.461 205.478 272.093 208.994ZM290.665 219.294C292.41 219.94 294.2 220.458 296.021 220.846C296.903 220.901 297.772 220.609 298.441 220.031C299.11 219.453 299.526 218.636 299.6 217.755C299.586 217.454 299.499 217.161 299.346 216.902C299.194 216.642 298.98 216.424 298.724 216.265C296.146 215.252 292.98 216.315 290.665 219.269V219.294ZM279.99 78.4918L288.55 73.0354C284.295 70.4699 280.503 72.8227 279.99 78.4918Z" fill="#E9F6FF"/>
<path d="M454.882 192.525H279.902C267.205 192.525 256.913 202.818 256.913 215.515V219.907C256.913 232.604 267.205 242.897 279.902 242.897H454.882C467.578 242.897 477.871 232.604 477.871 219.907V215.515C477.871 202.818 467.578 192.525 454.882 192.525Z" fill="#16DFB5"/>
<path d="M313.799 221H311.259V211.209L308.227 212.149V210.084L313.526 208.186H313.799V221ZM326.578 215.709C326.578 217.479 326.212 218.832 325.479 219.77C324.747 220.707 323.675 221.176 322.263 221.176C320.868 221.176 319.802 220.716 319.063 219.796C318.325 218.876 317.947 217.558 317.93 215.841V213.485C317.93 211.698 318.299 210.342 319.037 209.416C319.781 208.49 320.851 208.027 322.245 208.027C323.64 208.027 324.706 208.487 325.444 209.407C326.183 210.321 326.561 211.637 326.578 213.354V215.709ZM324.038 213.125C324.038 212.064 323.892 211.294 323.599 210.813C323.312 210.327 322.86 210.084 322.245 210.084C321.647 210.084 321.205 210.315 320.918 210.778C320.637 211.235 320.487 211.953 320.47 212.932V216.043C320.47 217.086 320.61 217.862 320.892 218.372C321.179 218.876 321.636 219.128 322.263 219.128C322.884 219.128 323.332 218.885 323.607 218.398C323.883 217.912 324.026 217.168 324.038 216.166V213.125ZM336.914 215.709C336.914 217.479 336.548 218.832 335.815 219.77C335.083 220.707 334.011 221.176 332.599 221.176C331.204 221.176 330.138 220.716 329.399 219.796C328.661 218.876 328.283 217.558 328.266 215.841V213.485C328.266 211.698 328.635 210.342 329.373 209.416C330.117 208.49 331.187 208.027 332.581 208.027C333.976 208.027 335.042 208.487 335.78 209.407C336.519 210.321 336.896 211.637 336.914 213.354V215.709ZM334.374 213.125C334.374 212.064 334.228 211.294 333.935 210.813C333.647 210.327 333.196 210.084 332.581 210.084C331.983 210.084 331.541 210.315 331.254 210.778C330.973 211.235 330.823 211.953 330.806 212.932V216.043C330.806 217.086 330.946 217.862 331.228 218.372C331.515 218.876 331.972 219.128 332.599 219.128C333.22 219.128 333.668 218.885 333.943 218.398C334.219 217.912 334.362 217.168 334.374 216.166V213.125ZM343.866 213.837H347.039V216.131H343.866V219.717H341.449V216.131H338.268V213.837H341.449V210.4H343.866V213.837ZM357.006 219.128C357.475 219.128 357.855 218.999 358.148 218.741C358.441 218.483 358.594 218.141 358.605 217.713H360.987C360.981 218.357 360.806 218.949 360.46 219.488C360.114 220.021 359.64 220.438 359.036 220.736C358.438 221.029 357.776 221.176 357.05 221.176C355.69 221.176 354.618 220.745 353.833 219.884C353.048 219.017 352.655 217.821 352.655 216.298V216.131C352.655 214.666 353.045 213.497 353.824 212.624C354.604 211.751 355.673 211.314 357.032 211.314C358.222 211.314 359.174 211.654 359.889 212.334C360.609 213.008 360.976 213.907 360.987 215.032H358.605C358.594 214.54 358.441 214.142 358.148 213.837C357.855 213.526 357.469 213.371 356.988 213.371C356.396 213.371 355.948 213.588 355.644 214.021C355.345 214.449 355.195 215.146 355.195 216.113V216.377C355.195 217.355 355.345 218.059 355.644 218.486C355.942 218.914 356.396 219.128 357.006 219.128ZM362.042 216.157C362.042 215.214 362.224 214.373 362.587 213.635C362.95 212.896 363.472 212.325 364.151 211.921C364.837 211.517 365.631 211.314 366.533 211.314C367.816 211.314 368.862 211.707 369.671 212.492C370.485 213.277 370.939 214.344 371.033 215.691L371.051 216.342C371.051 217.801 370.644 218.973 369.829 219.857C369.015 220.736 367.922 221.176 366.551 221.176C365.18 221.176 364.084 220.736 363.264 219.857C362.449 218.979 362.042 217.783 362.042 216.271V216.157ZM364.582 216.342C364.582 217.244 364.752 217.936 365.092 218.416C365.432 218.891 365.918 219.128 366.551 219.128C367.166 219.128 367.646 218.894 367.992 218.425C368.338 217.95 368.511 217.194 368.511 216.157C368.511 215.272 368.338 214.587 367.992 214.101C367.646 213.614 367.16 213.371 366.533 213.371C365.912 213.371 365.432 213.614 365.092 214.101C364.752 214.581 364.582 215.328 364.582 216.342ZM378.311 220.033C377.684 220.795 376.816 221.176 375.709 221.176C374.689 221.176 373.91 220.883 373.371 220.297C372.838 219.711 372.565 218.853 372.554 217.722V211.49H375.094V217.634C375.094 218.624 375.545 219.119 376.447 219.119C377.309 219.119 377.9 218.82 378.223 218.223V211.49H380.771V221H378.381L378.311 220.033ZM385.025 211.49L385.104 212.589C385.784 211.739 386.695 211.314 387.838 211.314C388.846 211.314 389.596 211.61 390.088 212.202C390.58 212.794 390.832 213.679 390.844 214.856V221H388.304V214.918C388.304 214.379 388.187 213.989 387.952 213.749C387.718 213.503 387.328 213.38 386.783 213.38C386.068 213.38 385.532 213.685 385.175 214.294V221H382.635V211.49H385.025ZM395.818 209.152V211.49H397.444V213.354H395.818V218.1C395.818 218.451 395.886 218.703 396.021 218.855C396.155 219.008 396.413 219.084 396.794 219.084C397.075 219.084 397.324 219.063 397.541 219.022V220.947C397.043 221.1 396.53 221.176 396.003 221.176C394.222 221.176 393.313 220.276 393.278 218.478V213.354H391.89V211.49H393.278V209.152H395.818ZM404.203 213.872C403.857 213.825 403.553 213.802 403.289 213.802C402.328 213.802 401.698 214.127 401.399 214.777V221H398.859V211.49H401.259L401.329 212.624C401.839 211.751 402.545 211.314 403.447 211.314C403.729 211.314 403.992 211.353 404.238 211.429L404.203 213.872ZM408.114 221H405.565V211.49H408.114V221ZM405.416 209.029C405.416 208.648 405.542 208.335 405.794 208.089C406.052 207.843 406.4 207.72 406.84 207.72C407.273 207.72 407.619 207.843 407.877 208.089C408.135 208.335 408.264 208.648 408.264 209.029C408.264 209.416 408.132 209.732 407.868 209.979C407.61 210.225 407.268 210.348 406.84 210.348C406.412 210.348 406.066 210.225 405.803 209.979C405.545 209.732 405.416 209.416 405.416 209.029ZM414.592 221.176C413.197 221.176 412.061 220.748 411.182 219.893C410.309 219.037 409.872 217.897 409.872 216.474V216.228C409.872 215.272 410.057 214.42 410.426 213.67C410.795 212.914 411.316 212.334 411.99 211.93C412.67 211.52 413.443 211.314 414.311 211.314C415.611 211.314 416.634 211.725 417.378 212.545C418.128 213.365 418.503 214.528 418.503 216.034V217.071H412.447C412.529 217.692 412.775 218.19 413.186 218.565C413.602 218.94 414.126 219.128 414.759 219.128C415.737 219.128 416.502 218.773 417.053 218.064L418.301 219.462C417.92 220.001 417.404 220.423 416.754 220.728C416.104 221.026 415.383 221.176 414.592 221.176ZM414.302 213.371C413.798 213.371 413.388 213.541 413.071 213.881C412.761 214.221 412.562 214.707 412.474 215.34H416.007V215.138C415.995 214.575 415.843 214.142 415.55 213.837C415.257 213.526 414.841 213.371 414.302 213.371ZM425.104 218.372C425.104 218.062 424.948 217.818 424.638 217.643C424.333 217.461 423.841 217.3 423.161 217.159C420.899 216.685 419.769 215.724 419.769 214.276C419.769 213.433 420.117 212.729 420.814 212.167C421.518 211.599 422.435 211.314 423.565 211.314C424.772 211.314 425.736 211.599 426.457 212.167C427.184 212.735 427.547 213.474 427.547 214.382H425.007C425.007 214.019 424.89 213.72 424.655 213.485C424.421 213.245 424.055 213.125 423.557 213.125C423.129 213.125 422.798 213.222 422.563 213.415C422.329 213.608 422.212 213.854 422.212 214.153C422.212 214.435 422.344 214.663 422.607 214.839C422.877 215.009 423.328 215.158 423.961 215.287C424.594 215.41 425.127 215.551 425.561 215.709C426.902 216.201 427.573 217.054 427.573 218.267C427.573 219.134 427.201 219.837 426.457 220.376C425.713 220.909 424.752 221.176 423.574 221.176C422.777 221.176 422.068 221.035 421.447 220.754C420.832 220.467 420.349 220.077 419.997 219.585C419.646 219.087 419.47 218.551 419.47 217.977H421.878C421.901 218.428 422.068 218.773 422.379 219.014C422.689 219.254 423.105 219.374 423.627 219.374C424.113 219.374 424.479 219.283 424.726 219.102C424.978 218.914 425.104 218.671 425.104 218.372Z" fill="white"/>
<path d="M623.353 11.1006C645.379 39.2585 553.747 147.673 418.702 253.321C283.656 358.97 156.333 421.743 134.319 393.598" stroke="#A6DFE8" stroke-width="7" stroke-miterlimit="10"/>
<path d="M30.2103 348.645C46.895 348.645 60.4206 335.12 60.4206 318.435C60.4206 301.75 46.895 288.225 30.2103 288.225C13.5256 288.225 0 301.75 0 318.435C0 335.12 13.5256 348.645 30.2103 348.645Z" fill="#16DFB5"/>
<path d="M44.8026 308.786L27.6325 330.324L15.606 317.997" stroke="white" stroke-width="4" stroke-linecap="round" stroke-linejoin="round"/>
<path d="M427.325 273.645L438.8 237.265L401.407 244.786" stroke="#A6DFE8" stroke-width="7" stroke-linecap="round" stroke-linejoin="round"/>
<path d="M615.319 363.475V383.035C614.969 392.709 608.411 402.307 595.821 409.629C595.083 410.054 594.332 410.467 593.569 410.88C590.399 412.537 587.121 413.98 583.757 415.198V395.637C587.122 394.432 590.396 392.989 593.556 391.32C594.332 390.907 595.083 390.494 595.809 390.068C608.411 382.747 614.969 373.161 615.319 363.475Z" fill="#2D1C8D"/>
<path d="M583.757 395.637V415.198C578.895 416.942 573.897 418.281 568.815 419.202V399.655C573.896 398.723 578.894 397.379 583.757 395.637Z" fill="#2E1D90"/>
<path d="M568.815 399.655V419.202C563.64 420.158 558.404 420.748 553.146 420.967V401.407C558.403 401.185 563.639 400.6 568.815 399.655Z" fill="#321D98"/>
<path d="M553.146 401.407V420.967C550.981 421.055 548.829 421.08 546.664 421.055C541.781 420.985 536.907 420.604 532.072 419.916V400.368C536.911 401.052 541.789 401.428 546.676 401.494C548.829 401.494 550.994 401.494 553.159 401.407" fill="#3818A6"/>
<path d="M532.059 400.368V419.916C521.175 418.533 510.642 415.138 500.998 409.904V390.344C510.641 395.592 521.172 399.008 532.059 400.418" fill="#3F1AB9"/>
<path d="M500.998 390.294V409.854C500.16 409.378 499.321 408.878 498.495 408.377C494.754 406.062 491.347 403.245 488.371 400.005V380.445C491.345 383.682 494.747 386.499 498.483 388.817C499.196 389.255 499.922 389.693 500.66 390.068L500.961 390.244" fill="#3F1AB9"/>
<path d="M488.408 380.445V400.005C486.074 397.464 484.176 394.554 482.789 391.395V371.834C484.176 374.994 486.074 377.903 488.408 380.445Z" fill="#3818A6"/>
<path d="M482.789 371.835V391.395C481.463 388.291 480.812 382.297 480.812 379.131V362.386C480.818 365.638 481.491 368.853 482.789 371.835Z" fill="#321D98"/>
<path d="M615.319 363.475C614.969 373.161 608.411 382.747 595.809 390.068C595.083 390.494 594.332 390.907 593.556 391.32C580.266 398.366 563.371 401.732 546.664 401.494C529.957 401.257 513.362 397.44 500.698 390.119C499.959 389.693 499.233 389.255 498.52 388.867C486.331 381.146 480.474 371.347 480.824 361.673C481.175 351.999 487.745 342.388 500.335 335.067C501.061 334.654 501.811 334.228 502.587 333.815C515.878 326.769 532.773 323.403 549.492 323.628C566.212 323.854 582.781 327.696 595.458 335.004C596.197 335.43 596.91 335.868 597.623 336.256C609.825 343.99 615.72 353.789 615.319 363.475Z" fill="#5A3AF8"/>
<path d="M560.48 342.363C560.673 342.472 560.85 342.606 561.006 342.763L565.624 347.519L565.736 347.631L566.888 348.883L569.916 351.999L573.996 356.204L576.499 358.794C576.674 358.97 576.824 359.145 576.975 359.32C577.55 359.959 577.964 360.726 578.181 361.558C578.399 362.39 578.414 363.262 578.226 364.101C577.897 365.121 577.367 366.067 576.669 366.881C575.971 367.695 575.117 368.362 574.159 368.844C573.148 369.412 572.083 369.877 570.98 370.233L565.974 371.86C563.593 372.604 561.088 372.872 558.603 372.648L557.677 372.548C555.696 372.319 553.779 371.707 552.033 370.746C551.322 370.344 550.67 369.847 550.093 369.269L547.265 366.366L539.381 358.169L537.866 356.667C537.053 355.828 537.541 354.765 538.955 354.264C540.195 353.864 541.541 353.963 542.709 354.539C542.9 354.641 543.073 354.772 543.223 354.927L544.737 356.479L555.462 367.53C555.732 367.802 556.039 368.034 556.375 368.218C557.333 368.738 558.392 369.045 559.479 369.119C560.648 369.227 561.827 369.1 562.946 368.743L567.951 367.117C568.592 366.917 569.209 366.649 569.791 366.316C570.344 366.041 570.836 365.658 571.238 365.189C571.64 364.721 571.944 364.176 572.131 363.587C572.251 363.035 572.221 362.462 572.045 361.925C571.869 361.388 571.553 360.908 571.13 360.534L570.167 359.545L570.079 359.445L561.807 350.935L558.791 347.819L555.625 344.565C554.786 343.702 555.312 342.613 556.788 342.137C558.001 341.723 559.327 341.803 560.48 342.363Z" fill="#2D1C8D"/>
<path d="M558.803 347.757L561.819 350.873L544.749 356.417L543.235 354.865C543.085 354.709 542.912 354.578 542.722 354.477C541.611 353.911 540.324 353.795 539.13 354.152L558.803 347.757Z" fill="#2D1C8D"/>
<path d="M585.059 354.589C585.885 355.453 585.359 356.542 583.882 357.017L576.987 359.257C576.837 359.082 576.686 358.907 576.511 358.732L574.008 356.141L580.866 353.901C582.089 353.514 583.414 353.621 584.558 354.201C584.74 354.31 584.908 354.44 585.059 354.589Z" fill="#2D1C8D"/>
<path d="M547.277 366.303L550.105 369.207C550.682 369.784 551.335 370.281 552.045 370.683C553.792 371.645 555.709 372.257 557.689 372.485C557.689 372.485 557.689 372.561 557.689 372.598C557.419 373.41 556.991 374.16 556.428 374.805C555.865 375.45 555.179 375.976 554.411 376.352C553.616 376.811 552.778 377.189 551.908 377.479L544.399 379.919C542.021 380.662 539.521 380.93 537.04 380.708C534.734 380.56 532.487 379.91 530.457 378.805C529.747 378.403 529.094 377.906 528.518 377.329L526.791 375.539L523.762 372.435L519.682 368.23L516.654 365.114L515.465 363.863L510.772 359.032C509.934 358.181 510.459 357.092 511.936 356.604C513.16 356.229 514.481 356.336 515.628 356.905C515.809 357.014 515.978 357.144 516.128 357.293L519.294 360.559L522.323 363.675L523.499 364.927L523.574 365.002L533.886 375.614C534.162 375.884 534.468 376.119 534.8 376.315C535.762 376.823 536.819 377.126 537.904 377.203C539.073 377.312 540.252 377.184 541.37 376.828L548.879 374.388C549.315 374.261 549.735 374.084 550.13 373.862C550.495 373.678 550.82 373.425 551.086 373.116C551.352 372.806 551.555 372.448 551.682 372.06C551.759 371.695 551.738 371.317 551.622 370.963C551.505 370.61 551.297 370.293 551.019 370.045L547.603 366.528C547.487 366.464 547.378 366.389 547.277 366.303Z" fill="#2D1C8D"/>
<path d="M538.955 354.164C537.541 354.665 537.053 355.728 537.866 356.567L539.381 358.169L522.236 363.738L519.207 360.622L538.955 354.164Z" fill="#2D1C8D"/>
<path d="M516.566 365.165L519.595 368.281L512.737 370.508C511.516 370.9 510.19 370.796 509.045 370.22C508.859 370.107 508.687 369.973 508.532 369.82C507.706 368.969 508.232 367.88 509.708 367.392L516.566 365.165Z" fill="#2D1C8D"/>
<path d="M523.675 372.485L526.703 375.589L519.833 377.829C518.614 378.211 517.294 378.103 516.153 377.529C515.968 377.42 515.796 377.29 515.64 377.141C514.802 376.277 515.327 375.189 516.817 374.713L523.675 372.485Z" fill="#2D1C8D"/>
<path d="M577.437 346.881C577.621 346.997 577.793 347.131 577.951 347.281C578.776 348.132 578.263 349.221 576.787 349.709L569.916 351.936L566.913 348.82L573.783 346.593C574.992 346.208 576.304 346.311 577.437 346.881Z" fill="#2D1C8D"/>
<path d="M615.319 337.52V357.068C614.969 366.754 608.411 376.353 595.821 383.661C595.083 384.087 594.332 384.512 593.569 384.913C590.404 386.58 587.125 388.023 583.757 389.23V369.67C587.122 368.465 590.396 367.022 593.556 365.352C594.332 364.952 595.083 364.526 595.809 364.101C608.411 356.78 614.969 347.181 615.319 337.507" fill="#2D1C8D"/>
<path d="M583.757 369.67V389.23C578.894 390.972 573.896 392.316 568.815 393.247V373.687C573.896 372.755 578.894 371.412 583.757 369.67Z" fill="#2E1D90"/>
<path d="M568.815 373.687V393.247C563.641 394.205 558.404 394.79 553.146 394.999V375.439C558.404 375.23 563.641 374.645 568.815 373.687Z" fill="#321D98"/>
<path d="M553.146 375.439V394.999C550.981 395.087 548.829 395.125 546.664 395.087C541.781 395.028 536.906 394.652 532.072 393.961V374.4C536.911 375.089 541.789 375.469 546.676 375.539C548.829 375.539 550.994 375.539 553.159 375.439" fill="#3818A6"/>
<path d="M532.059 374.4V393.961C521.175 392.577 510.642 389.183 500.998 383.949V364.389C510.643 369.62 521.175 373.015 532.059 374.4Z" fill="#3F1AB9"/>
<path d="M500.998 364.339V383.899C500.16 383.423 499.321 382.923 498.495 382.41C494.751 380.103 491.344 377.29 488.371 374.05V354.49C491.343 357.726 494.745 360.539 498.483 362.849C499.2 363.3 499.926 363.738 500.66 364.163L500.961 364.339" fill="#3F1AB9"/>
<path d="M488.408 354.49V374.05C486.072 371.506 484.173 368.592 482.789 365.427V345.867C484.173 349.032 486.072 351.945 488.408 354.49Z" fill="#3818A6"/>
<path d="M482.789 345.867V365.427C481.463 362.324 480.812 356.329 480.812 353.163V336.431C480.816 339.679 481.489 342.891 482.789 345.867Z" fill="#321D98"/>
<path d="M615.319 337.52C614.969 347.193 608.411 356.792 595.809 364.113C595.083 364.526 594.332 364.952 593.556 365.365C580.266 372.41 563.371 375.777 546.664 375.552C529.957 375.326 513.362 371.484 500.698 364.176C499.963 363.75 499.238 363.312 498.52 362.862C486.331 355.153 480.474 345.341 480.824 335.667C481.175 325.994 487.745 316.395 500.335 309.074C501.061 308.648 501.811 308.235 502.587 307.822C515.878 300.777 532.773 297.41 549.492 297.648C566.212 297.886 582.781 301.703 595.458 309.024C596.197 309.449 596.91 309.887 597.623 310.275C609.825 318.034 615.72 327.883 615.319 337.52Z" fill="#5A3AF8"/>
<path d="M560.48 316.407C560.672 316.512 560.849 316.642 561.006 316.795L565.624 321.551L565.736 321.676L566.888 322.865L569.916 325.969L573.996 330.173L576.499 332.764C576.667 332.934 576.826 333.114 576.975 333.302C577.55 333.941 577.964 334.709 578.181 335.54C578.399 336.372 578.414 337.244 578.226 338.083C577.896 339.102 577.367 340.045 576.669 340.857C575.97 341.67 575.117 342.335 574.159 342.813C573.151 343.391 572.086 343.861 570.98 344.215L565.974 345.842C563.591 346.579 561.088 346.847 558.603 346.63L557.677 346.53C555.699 346.29 553.784 345.678 552.033 344.728C551.322 344.322 550.669 343.821 550.093 343.239L547.277 340.398L539.381 332.263L537.866 330.712C537.053 329.861 537.541 328.809 538.955 328.309C540.193 327.905 541.54 327.999 542.709 328.572C542.897 328.677 543.07 328.808 543.223 328.96L544.737 330.524L555.462 341.562C555.731 341.838 556.039 342.074 556.375 342.263C557.333 342.782 558.392 343.09 559.479 343.164C560.648 343.259 561.824 343.132 562.946 342.788L567.951 341.161C568.59 340.957 569.206 340.688 569.791 340.36C570.342 340.083 570.833 339.699 571.234 339.231C571.636 338.762 571.941 338.219 572.131 337.632C572.251 337.078 572.221 336.503 572.045 335.964C571.869 335.425 571.553 334.943 571.13 334.566L570.167 333.577L570.079 333.49L561.807 324.98L558.791 321.864L555.65 318.535C554.811 317.684 555.337 316.595 556.813 316.107C558.029 315.729 559.343 315.837 560.48 316.407Z" fill="#2D1C8D"/>
<path d="M558.803 321.801L561.819 324.917L544.749 330.461L543.235 328.897C543.082 328.745 542.909 328.615 542.722 328.509C541.611 327.944 540.324 327.827 539.13 328.184L558.803 321.801Z" fill="#2D1C8D"/>
<path d="M585.059 328.634C585.885 329.485 585.359 330.574 583.882 331.062L576.987 333.302C576.838 333.114 576.68 332.934 576.511 332.764L574.008 330.174L580.866 327.946C582.087 327.555 583.413 327.658 584.558 328.234C584.74 328.347 584.908 328.481 585.059 328.634Z" fill="#2D1C8D"/>
<path d="M547.277 340.398L550.106 343.301C550.682 343.883 551.334 344.384 552.045 344.791C553.797 345.741 555.712 346.352 557.69 346.593C557.69 346.593 557.69 346.668 557.69 346.705C557.418 347.517 556.988 348.266 556.425 348.91C555.863 349.555 555.178 350.081 554.411 350.46C553.616 350.914 552.777 351.287 551.908 351.574L544.399 354.076C542.02 354.813 539.521 355.081 537.04 354.865C534.702 354.702 532.427 354.036 530.37 352.913C529.659 352.506 529.007 352.005 528.43 351.423L526.703 349.646L523.675 346.53L519.595 342.325L516.566 339.222L515.378 337.97L510.685 333.14C509.846 332.276 510.372 331.2 511.848 330.712C513.071 330.324 514.397 330.432 515.54 331.012C515.725 331.117 515.893 331.247 516.041 331.4L519.207 334.654L522.236 337.77L523.412 339.021L523.487 339.096L533.799 349.709C534.068 349.986 534.375 350.222 534.713 350.41C535.671 350.928 536.729 351.235 537.816 351.311C538.985 351.413 540.163 351.285 541.283 350.935L548.792 348.432C549.229 348.311 549.65 348.134 550.043 347.907C550.407 347.726 550.732 347.474 550.998 347.167C551.264 346.86 551.467 346.503 551.595 346.117C551.673 345.753 551.653 345.374 551.536 345.02C551.419 344.666 551.211 344.349 550.932 344.102L547.515 340.586L547.277 340.398Z" fill="#2D1C8D"/>
<path d="M538.955 328.246C537.541 328.747 537.053 329.798 537.866 330.649L539.381 332.201L522.236 337.77L519.207 334.654L538.955 328.246Z" fill="#2D1C8D"/>
<path d="M516.566 339.209L519.595 342.313L512.737 344.553C511.513 344.928 510.192 344.821 509.045 344.252C508.857 344.148 508.684 344.017 508.532 343.864C507.706 343.001 508.232 341.912 509.708 341.437L516.566 339.209Z" fill="#2D1C8D"/>
<path d="M523.675 346.518L526.703 349.634L519.833 351.861C518.616 352.253 517.294 352.15 516.153 351.573C515.967 351.46 515.795 351.326 515.64 351.173C514.802 350.322 515.327 349.233 516.817 348.745L523.675 346.518Z" fill="#2D1C8D"/>
<path d="M577.437 320.925C577.621 321.037 577.793 321.167 577.951 321.313C578.776 322.177 578.263 323.265 576.787 323.741L569.916 325.969L566.913 322.877L573.783 320.637C574.993 320.259 576.302 320.362 577.437 320.925Z" fill="#2D1C8D"/>
<path d="M615.319 279.477V299.037C614.969 308.711 608.411 318.31 595.821 325.631C595.083 326.056 594.332 326.469 593.569 326.882C590.404 328.55 587.125 329.992 583.757 331.2V311.64C587.122 310.435 590.396 308.992 593.556 307.322C594.332 306.909 595.083 306.496 595.809 306.071C608.411 298.75 614.969 289.163 615.319 279.477Z" fill="#2D1C8D"/>
<path d="M583.757 311.615V331.175C578.894 332.917 573.896 334.26 568.815 335.192V315.632C573.896 314.7 578.894 313.356 583.757 311.615Z" fill="#2E1D90"/>
<path d="M568.815 315.657V335.217C563.639 336.162 558.403 336.748 553.146 336.969V317.409C558.404 317.194 563.64 316.608 568.815 315.657Z" fill="#321D98"/>
<path d="M553.146 317.409V336.969C550.981 337.057 548.829 337.082 546.664 337.057C541.781 336.991 536.907 336.615 532.072 335.93V316.37C536.911 317.061 541.789 317.437 546.676 317.496C548.829 317.496 550.994 317.496 553.159 317.409" fill="#3818A6"/>
<path d="M532.059 316.37V335.93C521.172 334.52 510.641 331.104 500.998 325.856V306.308C510.643 311.54 521.175 314.935 532.059 316.32" fill="#3F1AB9"/>
<path d="M500.998 306.308V325.856C500.16 325.381 499.321 324.88 498.495 324.379C494.754 322.065 491.347 319.248 488.371 316.007V296.447C491.345 299.684 494.747 302.501 498.483 304.819C499.196 305.27 499.922 305.695 500.66 306.071L500.961 306.258" fill="#3F1AB9"/>
<path d="M488.408 296.447V316.007C486.074 313.466 484.176 310.557 482.789 307.397V287.837C484.173 290.998 486.071 293.908 488.408 296.447Z" fill="#3818A6"/>
<path d="M482.789 287.837V307.397C481.463 304.293 480.812 298.299 480.812 295.133V278.388C480.818 281.64 481.491 284.856 482.789 287.837Z" fill="#321D98"/>
<path d="M615.319 279.477C614.969 289.163 608.411 298.749 595.809 306.07C595.083 306.496 594.332 306.909 593.556 307.322C580.266 314.368 563.371 317.734 546.664 317.496C529.957 317.259 513.362 313.442 500.698 306.121C499.959 305.695 499.233 305.27 498.52 304.869C486.331 297.148 480.474 287.349 480.824 277.675C481.175 268.001 487.745 258.39 500.335 251.081C501.061 250.656 501.811 250.243 502.587 249.83C515.878 242.784 532.773 239.418 549.492 239.655C566.212 239.893 582.781 243.71 595.458 251.019C596.197 251.444 596.91 251.882 597.623 252.333C609.825 259.992 615.72 269.791 615.319 279.477Z" fill="#5A3AF8"/>
<path d="M560.48 258.365C560.67 258.478 560.846 258.612 561.006 258.765L565.624 263.521L565.736 263.633L566.888 264.885L569.916 268.001L573.996 272.206L576.499 274.796C576.674 274.972 576.824 275.147 576.974 275.322C577.55 275.961 577.963 276.728 578.181 277.56C578.399 278.392 578.414 279.264 578.226 280.103C577.896 281.123 577.367 282.069 576.669 282.883C575.971 283.697 575.117 284.364 574.158 284.846C573.151 285.419 572.085 285.884 570.98 286.235L565.974 287.862C563.592 288.606 561.088 288.874 558.603 288.65C558.29 288.65 557.99 288.65 557.677 288.55C555.696 288.321 553.779 287.709 552.033 286.748C551.322 286.346 550.67 285.849 550.093 285.271L547.265 282.368L539.368 274.233L537.854 272.669C537.04 271.83 537.528 270.767 538.942 270.266C540.182 269.866 541.529 269.965 542.697 270.541C542.887 270.643 543.06 270.774 543.21 270.929L544.724 272.481L555.449 283.532C555.719 283.804 556.027 284.036 556.363 284.22C557.318 284.745 558.378 285.053 559.466 285.121C560.635 285.229 561.814 285.102 562.933 284.746L567.939 283.119C568.579 282.919 569.196 282.651 569.778 282.318C570.331 282.043 570.824 281.66 571.226 281.191C571.628 280.723 571.931 280.178 572.119 279.589C572.238 279.037 572.208 278.464 572.032 277.927C571.856 277.39 571.541 276.91 571.117 276.536L570.154 275.547L570.066 275.447L561.794 266.937L558.778 263.821L555.612 260.567C554.773 259.704 555.299 258.615 556.776 258.139C557.992 257.721 559.324 257.802 560.48 258.365Z" fill="#2D1C8D"/>
<path d="M558.803 263.758L561.819 266.874L544.749 272.418L543.235 270.867C543.085 270.711 542.912 270.58 542.722 270.479C541.611 269.913 540.324 269.797 539.13 270.153L558.803 263.758Z" fill="#2D1C8D"/>
<path d="M585.059 270.591C585.885 271.455 585.359 272.544 583.882 273.019L576.987 275.322C576.837 275.147 576.686 274.972 576.511 274.796L574.008 272.206L580.866 269.966C582.09 269.59 583.411 269.698 584.558 270.266C584.737 270.355 584.905 270.464 585.059 270.591Z" fill="#2D1C8D"/>
<path d="M547.277 282.305L550.106 285.208C550.682 285.786 551.335 286.283 552.045 286.685C553.792 287.647 555.709 288.259 557.69 288.487C557.69 288.487 557.69 288.562 557.69 288.6C557.421 289.413 556.992 290.163 556.429 290.808C555.866 291.453 555.18 291.979 554.411 292.354C553.619 292.818 552.78 293.196 551.908 293.481L544.399 295.921C542.021 296.662 539.522 296.934 537.04 296.722C534.734 296.564 532.489 295.911 530.458 294.807C529.747 294.405 529.095 293.908 528.518 293.33L526.703 291.591L523.675 288.487L519.595 284.282L516.566 281.166L515.378 279.915L510.685 275.084C509.846 274.221 510.372 273.132 511.848 272.656C513.069 272.265 514.395 272.368 515.54 272.944C515.722 273.053 515.89 273.183 516.041 273.332L519.207 276.598L522.236 279.714L523.412 280.966L523.487 281.041L533.799 291.653C534.071 291.927 534.378 292.163 534.713 292.354C535.672 292.868 536.73 293.171 537.816 293.243C538.985 293.351 540.164 293.224 541.283 292.867L548.792 290.427C549.227 290.3 549.647 290.124 550.043 289.901C550.409 289.719 550.734 289.466 551.001 289.157C551.267 288.847 551.469 288.488 551.595 288.099C551.672 287.737 551.651 287.36 551.534 287.008C551.418 286.656 551.21 286.342 550.932 286.097L547.515 282.58L547.277 282.305Z" fill="#2D1C8D"/>
<path d="M538.955 270.203C537.541 270.704 537.053 271.768 537.866 272.606L539.381 274.171L522.236 279.74L519.207 276.573L538.955 270.203Z" fill="#2D1C8D"/>
<path d="M516.566 281.166L519.595 284.282L512.737 286.51C511.516 286.901 510.19 286.798 509.045 286.222C508.856 286.113 508.684 285.978 508.532 285.822C507.706 284.971 508.232 283.882 509.708 283.394L516.566 281.166Z" fill="#2D1C8D"/>
<path d="M523.675 288.487L526.703 291.591L519.833 293.831C518.615 294.219 517.292 294.111 516.153 293.531C515.965 293.426 515.792 293.295 515.64 293.143C514.802 292.279 515.327 291.19 516.817 290.715L523.675 288.487Z" fill="#2D1C8D"/>
<path d="M577.437 262.895C577.624 263.003 577.796 263.133 577.951 263.283C578.776 264.134 578.263 265.223 576.787 265.711L569.916 267.938L566.913 264.822L573.783 262.594C574.994 262.213 576.305 262.321 577.437 262.895Z" fill="#2D1C8D"/>
</g>
<defs>
<clipPath id="clip0">
<rect width="631" height="421.067" fill="white"/>
</clipPath>
</defs>
</svg>
