<svg width="186" height="110" viewBox="0 0 186 110" fill="none" xmlns="http://www.w3.org/2000/svg">
<path d="M185.8 13.7C185.8 7.8 181.4 3 176 3H12.8C7.4 3 3 7.8 3 13.7V74.6H185.8V13.7Z" fill="#3F1ABA"/>
<path d="M3 74.5V79.2V99.2C3 105.1 7.4 109.9 12.8 109.9H176C181.4 109.9 185.8 105.1 185.8 99.2V79.2V74.5H3Z" fill="#3F1ABA"/>
<path d="M86 34.2C85.1 34.7 84.3 34.8 83.6 34.8C81.6 34.8 80.3 34.1 79.4 33.2C78.4 32.3 77.7 30.9 77.7 29.2C77.7 27.5 78.4 26.1 79.4 25.2C80.3 24.3 81.7 23.7 83.4 23.7C84.1 23.7 84.9 23.8 86 24.3V27.1C85.5 26.5 84.6 26 83.5 26C82.6 26 81.9 26.3 81.3 26.8C80.7 27.4 80.3 28.2 80.3 29.3C80.3 30.4 80.7 31.2 81.2 31.7C81.4 31.9 82.2 32.6 83.5 32.6C84.1 32.6 85 32.4 85.9 31.5V34.2H86Z" fill="#3F1ABA"/>
<path d="M91.7 23.8C93.1 23.8 93.9 24.2 94.4 24.7C94.8 25.1 95.3 25.9 95.3 27.1C95.3 27.8 95.2 28.6 94.5 29.3C94.1 29.7 93.6 30 93 30.1L96.3 34.5H93.3L90.4 30.3V34.5H88V23.8H91.7ZM90.4 28.7H91C91.4 28.7 92.1 28.7 92.5 28.2C92.7 28 92.9 27.7 92.9 27.2C92.9 26.6 92.6 26.3 92.4 26.1C92 25.8 91.4 25.8 91 25.8H90.4V28.7Z" fill="#3F1ABA"/>
<path d="M100 29.5L96.2 23.8H99.1L101.2 27.1L103.3 23.8H106.2L102.4 29.5V34.5H100V29.5Z" fill="#3F1ABA"/>
<path d="M111.2 23.8C112.1 23.8 113.2 23.9 114 24.7C114.9 25.5 115 26.6 115 27.3C115 28.6 114.5 29.4 114.1 29.8C113.3 30.7 112.1 30.7 111.4 30.7H109.9V34.4H107.4V23.8H111.2ZM109.9 28.7H110.8C111.1 28.7 111.7 28.7 112.1 28.3C112.3 28.1 112.5 27.7 112.5 27.2C112.5 26.8 112.3 26.4 112.1 26.2C111.7 25.8 111.2 25.8 110.7 25.8H109.9V28.7Z" fill="#3F1ABA"/>
<path d="M120.8 25.9V34.5H118.3V25.9H116V23.8H123.1V25.9H120.8Z" fill="#3F1ABA"/>
<path d="M133.6 25.1C134.6 26.1 135.3 27.5 135.3 29.1C135.3 30.5 134.8 32 133.6 33.1C132.6 34.1 131.3 34.7 129.5 34.7C127.5 34.7 126.1 33.9 125.3 33.1C124.3 32.1 123.6 30.7 123.6 29.1C123.6 27.6 124.3 26 125.3 25.1C126 24.4 127.3 23.5 129.5 23.5C131.1 23.6 132.5 24.1 133.6 25.1ZM127.1 26.8C126.6 27.2 126.2 28 126.2 29.2C126.2 30.2 126.5 31 127.2 31.6C127.9 32.3 128.7 32.5 129.5 32.5C130.6 32.5 131.4 32.1 131.9 31.6C132.3 31.2 132.8 30.4 132.8 29.2C132.8 28.1 132.4 27.3 131.9 26.8C131.4 26.3 130.5 25.9 129.5 25.9C128.5 25.9 127.7 26.2 127.1 26.8Z" fill="#3F1ABA"/>
<path d="M84.6 51.7H80.6L79.8 53.7H77.2L81.5 43H83.8L88 53.7H85.4L84.6 51.7ZM83.9 49.8L82.6 46.2L81.3 49.8H83.9Z" fill="#3F1ABA"/>
<path d="M96.5 53.4C95.6 53.9 94.8 54 94.1 54C92.1 54 90.8 53.3 89.9 52.4C88.9 51.5 88.2 50.1 88.2 48.4C88.2 46.7 88.9 45.3 89.9 44.4C90.8 43.5 92.2 42.9 93.9 42.9C94.6 42.9 95.4 43 96.5 43.5V46.3C96 45.7 95.1 45.2 94 45.2C93.1 45.2 92.4 45.5 91.8 46C91.2 46.6 90.8 47.4 90.8 48.5C90.8 49.6 91.2 50.4 91.7 50.9C91.9 51.1 92.7 51.8 94 51.8C94.6 51.8 95.5 51.6 96.4 50.7V53.4H96.5Z" fill="#3F1ABA"/>
<path d="M106 53.4C105.1 53.9 104.3 54 103.6 54C101.6 54 100.3 53.3 99.4 52.4C98.4 51.5 97.7 50.1 97.7 48.4C97.7 46.7 98.4 45.3 99.4 44.4C100.3 43.5 101.7 42.9 103.4 42.9C104.1 42.9 104.9 43 106 43.5V46.3C105.5 45.7 104.6 45.2 103.5 45.2C102.6 45.2 101.9 45.5 101.3 46C100.7 46.6 100.3 47.4 100.3 48.5C100.3 49.6 100.7 50.4 101.2 50.9C101.4 51.1 102.2 51.8 103.5 51.8C104.1 51.8 105 51.6 105.9 50.7V53.4H106Z" fill="#3F1ABA"/>
<path d="M114 45.1H110.4V47.2H113.8V49.3H110.4V51.7H114V53.8H108V43H114V45.1Z" fill="#3F1ABA"/>
<path d="M119.8 43C120.7 43 121.8 43.1 122.6 43.9C123.5 44.7 123.6 45.8 123.6 46.5C123.6 47.8 123.1 48.6 122.7 49C121.9 49.9 120.7 49.9 120 49.9H118.5V53.6H116V43H119.8ZM118.5 47.9H119.4C119.7 47.9 120.3 47.9 120.7 47.5C120.9 47.3 121.1 46.9 121.1 46.4C121.1 46 120.9 45.6 120.7 45.4C120.3 45 119.8 45 119.3 45H118.5V47.9Z" fill="#3F1ABA"/>
<path d="M129.4 45.1V53.7H127V45.1H124.7V43H131.8V45.1H129.4Z" fill="#3F1ABA"/>
<path d="M139.1 45.1H135.5V47.2H138.9V49.3H135.5V51.7H139.1V53.8H133.1V43H139.1V45.1Z" fill="#3F1ABA"/>
<path d="M144.4 43C145.8 43 147.3 43.2 148.6 44.5C149.5 45.4 150.1 46.7 150.1 48.3C150.1 50 149.5 51.2 148.6 52.1C147.1 53.6 145.3 53.7 144.4 53.7H140.9V43H144.4ZM143.5 51.6H144.2C144.7 51.6 145.8 51.6 146.6 50.9C147.2 50.4 147.6 49.5 147.6 48.3C147.6 47.1 147.1 46.4 146.7 46C145.9 45.2 144.9 45.1 144.1 45.1H143.4V51.6H143.5Z" fill="#3F1ABA"/>
<path d="M100.1 85.8L98.6 88C98.1 87.8 97.6 87.7 97 87.7C96.7 87.7 96.4 87.7 96.1 87.8H96C95.5 87.9 95.1 88.1 94.7 88.4L94.6 88.5C94.2 88.8 93.9 89.1 93.7 89.4C92.7 90.7 91.9 92.4 90.6 94.3C90.5 94.5 90.3 94.7 90.2 94.9C89.2 96.3 87.8 97.5 86.3 98.2C86.2 98.2 86.1 98.3 86 98.3C85.8 98.4 85.5 98.5 85.3 98.6C85.2 98.6 85 98.7 84.8 98.7C84.4 98.8 83.9 98.9 83.5 98.9C83.4 98.9 83.3 98.9 83.2 98.9C79.4 98.9 76.3 95.8 76.3 92C76.3 88.2 79.4 85.1 83.2 85.1C85 85.1 86.7 85.8 88 87L86.5 89.2C85 87.4 82.2 87.2 80.4 88.7C78.6 90.2 78.4 93 79.9 94.8C80.7 95.8 81.9 96.3 83.2 96.3C83.3 96.3 83.4 96.3 83.5 96.3C84.1 96.3 84.6 96.1 85.2 95.8C86.7 95.1 87.9 93.6 89.9 90.1C90 90 90.1 89.8 90.2 89.6C90.9 88.4 91.8 87.3 92.9 86.4L93 86.3C93.1 86.3 93.1 86.2 93.2 86.2C93.3 86.1 93.5 86 93.6 85.9C93.8 85.8 93.9 85.7 94.1 85.6L94.3 85.5C94.4 85.5 94.5 85.4 94.5 85.4C94.6 85.4 94.7 85.3 94.8 85.3C96.4 84.9 98.4 85 100.1 85.8Z" fill="#3F1ABA"/>
<path d="M103.9 90.7V92C103.9 92.2 103.9 92.5 103.9 92.7C103.9 92.9 103.9 93.1 103.8 93.3C103.1 97.1 99.5 99.5 95.7 98.8C94.4 98.6 93.3 98 92.3 97.1L93.8 94.9C95.4 96.7 98.1 96.8 99.9 95.2C100.5 94.7 100.9 94 101.1 93.3H96.8L98.6 90.7H103.9Z" fill="#3F1ABA"/>
<path d="M119.3 90.6C118.9 90.2 118.4 90 117.8 90C116.6 90 115.9 90.9 115.9 91.9C115.9 93 116.7 93.8 117.8 93.8C118.2 93.8 118.8 93.7 119.3 93.2V95C118.9 95.2 118.3 95.4 117.6 95.4C116.6 95.4 115.6 95 115 94.4C114.5 93.9 113.9 93.1 113.9 91.8C113.9 90.6 114.4 89.7 115.1 89.1C115.9 88.4 116.9 88.2 117.5 88.2C118.2 88.2 118.8 88.3 119.3 88.6V90.6V90.6Z" fill="#3F1ABA"/>
<path d="M127.3 89.3C128 89.9 128.4 90.8 128.4 91.9C128.4 93 127.9 93.9 127.3 94.5C126.7 95 125.9 95.4 124.6 95.4C123.3 95.4 122.5 95 121.9 94.5C121.2 93.9 120.8 93 120.8 91.9C120.8 90.8 121.3 89.9 121.9 89.3C122.5 88.8 123.3 88.4 124.6 88.4C125.9 88.4 126.7 88.8 127.3 89.3ZM126.5 91.9C126.5 90.9 125.7 90 124.6 90C123.5 90 122.7 90.8 122.7 91.9C122.7 92.9 123.5 93.8 124.6 93.8C125.7 93.8 126.5 92.9 126.5 91.9Z" fill="#3F1ABA"/>
<path d="M131.2 84.7C131.8 84.7 132.3 85.2 132.3 85.8C132.3 86.4 131.8 86.9 131.2 86.9C130.6 86.9 130.1 86.4 130.1 85.8C130.1 85.2 130.6 84.7 131.2 84.7ZM132.1 88.6V95.3H130.2V88.6H132.1Z" fill="#3F1ABA"/>
<path d="M134.3 88.6H136.2V89.5C136.6 89 137.2 88.4 138.3 88.4C138.9 88.4 139.7 88.6 140.3 89.2C140.8 89.8 140.8 90.4 140.8 91.1V95.3H138.9V91.7C138.9 91.3 138.9 90.7 138.5 90.4C138.2 90.1 137.8 90.1 137.6 90.1C137.1 90.1 136.7 90.3 136.4 90.7C136.1 91.1 136.1 91.6 136.1 92V95.4H134.2V88.6H134.3Z" fill="#3F1ABA"/>
<path d="M147.9 88.6H149.8V94.9C149.8 95.9 149.7 97 148.9 97.8C148.4 98.3 147.6 98.7 146.3 98.7C145 98.7 144.2 98.3 143.8 97.9C143.3 97.5 142.9 96.7 142.7 95.9H144.7C144.8 96.2 144.9 96.5 145.2 96.7C145.6 97 146.1 97.1 146.3 97.1C146.8 97.1 147.2 96.9 147.4 96.7C147.8 96.3 147.9 95.8 147.9 95.2V94.3C147.3 95.3 146.4 95.4 145.9 95.4C145 95.4 144.2 95.1 143.6 94.5C143.1 94 142.5 93.1 142.5 91.9C142.5 90.9 142.9 89.9 143.5 89.3C144.1 88.7 144.9 88.4 145.8 88.4C147 88.4 147.6 89.1 147.9 89.5V88.6ZM145.1 90.5C144.8 90.8 144.5 91.2 144.5 91.9C144.5 92.5 144.7 92.9 145 93.2C145.4 93.6 145.9 93.8 146.4 93.8C146.9 93.8 147.3 93.6 147.6 93.3C148 92.9 148.2 92.4 148.2 91.9C148.2 91.3 147.9 90.8 147.7 90.6C147.3 90.2 146.9 90.1 146.4 90.1C145.7 90 145.3 90.3 145.1 90.5Z" fill="#3F1ABA"/>
<path d="M157.1 88.6H159V95.3H157.1V94.4C156.4 95.4 155.5 95.5 155.1 95.5C153.1 95.5 151.7 93.9 151.7 92C151.7 90 153 88.5 155 88.5C155.5 88.5 156.5 88.6 157.1 89.6V88.6ZM153.6 91.9C153.6 93 154.4 93.8 155.4 93.8C156.4 93.8 157.2 93 157.2 91.9C157.2 90.8 156.4 90 155.4 90C154.4 90 153.6 90.8 153.6 91.9Z" fill="#3F1ABA"/>
<path d="M163 90.2V95.3H161.1V90.2H160.4V88.6H161.1V86.3H163V88.6H164.3V90.2H163V90.2Z" fill="#3F1ABA"/>
<path d="M172.2 93.4C172 93.9 171.2 95.5 168.9 95.5C167.8 95.5 167 95.2 166.3 94.6C165.6 93.9 165.3 93 165.3 92C165.3 90.7 165.8 89.9 166.3 89.4C167.1 88.6 168 88.5 168.8 88.5C170.2 88.5 170.9 89 171.4 89.6C172.1 90.4 172.2 91.5 172.2 92.2V92.4H167.2C167.2 92.8 167.3 93.2 167.5 93.5C167.7 93.8 168.1 94.1 168.8 94.1C169.5 94.1 170 93.8 170.4 93.2L172.2 93.4ZM170.5 91C170.3 90.1 169.6 89.7 168.9 89.7C168.2 89.7 167.5 90.1 167.3 91H170.5Z" fill="#3F1ABA"/>
<path d="M21.1 92.2C21 92.7 20.9 93.2 20.7 93.7C20.5 94.2 20.2 94.5 19.9 94.7C19.6 94.9 19.2 95 18.8 95C18.2 95 17.7 94.8 17.4 94.4L16.9 96.9H16L17.3 89.6H18.1L18 90.2C18.4 89.7 19 89.5 19.6 89.5C20.1 89.5 20.5 89.7 20.8 90.1C21.1 90.5 21.2 91 21.2 91.6C21.2 91.8 21.2 92 21.2 92.2H21.1ZM20.3 92.1V91.7C20.3 91.2 20.2 90.9 20 90.6C19.8 90.3 19.6 90.2 19.2 90.2C18.7 90.2 18.2 90.4 17.9 90.9L17.5 93.4C17.7 93.9 18.1 94.1 18.6 94.1C19 94.1 19.4 93.9 19.7 93.6C20 93.3 20.2 92.8 20.3 92.1Z" fill="#3F1ABA"/>
<path d="M24.8001 89.4C25.2001 89.4 25.6001 89.5 25.9001 89.8C26.2001 90 26.5001 90.4 26.6001 90.8C26.8001 91.2 26.8001 91.7 26.8001 92.2V92.3C26.7001 92.8 26.6001 93.3 26.3001 93.7C26.0001 94.1 25.7001 94.4 25.4001 94.7C25.0001 94.9 24.6001 95 24.1001 95C23.7001 95 23.3001 94.9 23.0001 94.6C22.7001 94.4 22.5001 94 22.3001 93.6C22.1001 93.2 22.1001 92.8 22.1001 92.3C22.1001 91.8 22.3001 91.3 22.5001 90.8C22.7001 90.4 23.1001 90 23.5001 89.8C23.9001 89.6 24.3001 89.4 24.8001 89.4ZM23.0001 92.3C23.0001 92.5 23.0001 92.7 23.0001 92.9C23.0001 93.3 23.1001 93.6 23.3001 93.8C23.5001 94 23.8001 94.1 24.1001 94.2C24.4001 94.2 24.7001 94.1 24.9001 94C25.1001 93.8 25.4001 93.6 25.5001 93.3C25.7001 93 25.8001 92.6 25.8001 92.3C25.8001 92 25.8001 91.7 25.8001 91.5C25.8001 91.1 25.6001 90.8 25.4001 90.6C25.2001 90.4 24.9001 90.3 24.6001 90.2C24.1001 90.2 23.8001 90.4 23.4001 90.7C23.1001 91.1 22.9001 91.5 22.8001 92.1L23.0001 92.3Z" fill="#3F1ABA"/>
<path d="M32.2 93.6L33.9 89.6H34.8L32.4 94.9H31.7L31.2 90.9L29.3 94.9H28.6L28 89.6H28.8L29.1 93.5L31 89.6H31.7L32.2 93.6Z" fill="#3F1ABA"/>
<path d="M37.1001 94.9C36.4001 94.9 35.9001 94.6 35.6001 94.2C35.3001 93.8 35.1001 93.1 35.1001 92.4V92.2C35.2001 91.7 35.3001 91.2 35.6001 90.8C35.9001 90.4 36.2001 90 36.5001 89.8C36.9001 89.6 37.3001 89.5 37.7001 89.5C38.2001 89.5 38.7001 89.7 39.0001 90C39.3001 90.3 39.5001 90.8 39.5001 91.4C39.5001 91.6 39.5001 91.8 39.5001 92L39.4001 92.4H35.9001C35.8001 92.9 35.9001 93.3 36.1001 93.6C36.3001 93.9 36.6001 94.1 37.1001 94.1C37.6001 94.1 38.1001 93.9 38.5001 93.4L39.0001 93.8C38.8001 94.1 38.5001 94.4 38.1001 94.5C37.7001 94.6 37.5001 94.9 37.1001 94.9ZM37.6001 90.2C37.2001 90.2 36.9001 90.3 36.6001 90.6C36.3001 90.9 36.1001 91.2 36.0001 91.7H38.6001V91.6C38.7001 91.2 38.6001 90.8 38.4001 90.6C38.2001 90.3 38.0001 90.2 37.6001 90.2Z" fill="#3F1ABA"/>
<path d="M43.2 90.3H42.8C42.2 90.3 41.8 90.6 41.5 91.1L40.9 94.9H40L40.9 89.6H41.8L41.7 90.2C42.1 89.7 42.5 89.5 43 89.5C43.1 89.5 43.2 89.5 43.4 89.6L43.2 90.3Z" fill="#3F1ABA"/>
<path d="M45.5 94.9C44.8 94.9 44.3 94.6 44 94.2C43.7 93.8 43.5 93.1 43.5 92.4V92.2C43.6 91.7 43.7 91.2 44 90.8C44.3 90.4 44.6 90 44.9 89.8C45.3 89.6 45.7 89.5 46.1 89.5C46.6 89.5 47.1 89.7 47.4 90C47.7 90.3 47.9 90.8 47.9 91.4C47.9 91.6 47.9 91.8 47.9 92L47.8 92.4H44.3C44.2 92.9 44.3 93.3 44.5 93.6C44.7 93.9 45 94.1 45.5 94.1C46 94.1 46.5 93.9 46.9 93.4L47.4 93.8C47.2 94.1 46.9 94.4 46.5 94.5C46.3 94.8 45.9 94.9 45.5 94.9ZM46 90.2C45.6 90.2 45.3 90.3 45 90.6C44.7 90.9 44.5 91.2 44.4 91.7H47V91.6C47.1 91.2 47 90.8 46.8 90.6C46.6 90.4 46.4 90.2 46 90.2Z" fill="#3F1ABA"/>
<path d="M48.6001 92.2C48.7001 91.7 48.8001 91.2 49.0001 90.7C49.2001 90.3 49.5001 89.9 49.9001 89.7C50.2001 89.5 50.6001 89.4 51.0001 89.4C51.6001 89.4 52.0001 89.6 52.4001 90L52.9001 87.2H53.8001L52.5001 94.7H51.7001L51.8001 94.1C51.4001 94.6 50.9001 94.8 50.3001 94.8C49.8001 94.8 49.4001 94.6 49.1001 94.2C48.8001 93.8 48.7001 93.3 48.6001 92.7C48.6001 92.7 48.6001 92.4 48.6001 92.2ZM49.5001 92.7C49.5001 93.2 49.6001 93.5 49.7001 93.8C49.8001 94.1 50.1001 94.2 50.5001 94.2C51.0001 94.2 51.5001 94 51.9001 93.4L52.3001 91C52.1001 90.5 51.7001 90.3 51.2001 90.3C50.9001 90.3 50.5001 90.4 50.3001 90.6C50.0001 90.8 49.8001 91.1 49.7001 91.5C49.6001 91.8 49.5001 92.2 49.5001 92.7Z" fill="#3F1ABA"/>
<path d="M61.0999 92.2C60.9999 92.7 60.8999 93.2 60.6999 93.7C60.4999 94.1 60.1999 94.5 59.8999 94.7C59.5999 94.9 59.1999 95 58.7999 95C58.1999 95 57.6999 94.7 57.3999 94.3L57.1999 94.9H56.3999L57.6999 87.4H58.5999L58.0999 90.2C58.4999 89.7 58.9999 89.5 59.5999 89.5C60.0999 89.5 60.4999 89.7 60.7999 90.1C61.0999 90.5 61.1999 91 61.1999 91.6C61.1999 91.8 61.1999 92 61.1999 92.2H61.0999ZM60.2999 91.7C60.2999 91.2 60.1999 90.9 60.0999 90.6C59.8999 90.3 59.6999 90.2 59.2999 90.2C58.6999 90.2 58.2999 90.5 57.8999 91L57.4999 93.3C57.6999 93.8 58.0999 94.1 58.5999 94.1C58.8999 94.1 59.1999 94 59.4999 93.8C59.7999 93.6 59.9999 93.3 60.0999 92.9C60.1999 92.5 60.2999 92.1 60.2999 91.7Z" fill="#3F1ABA"/>
<path d="M63.7001 93.5L65.6 89.5H66.6L63.5 95.7C63.1 96.6 62.5 97 61.8 97C61.7 97 61.5 97 61.3 96.9L61.4001 96.2H61.6C61.9 96.2 62.1 96.2 62.3 96C62.5 95.9 62.7 95.6 62.8 95.3L63.1 94.7L62.2001 89.5H63.1L63.7001 93.5Z" fill="#3F1ABA"/>
<path d="M42.2 61.4C54.3502 61.4 64.1999 51.5503 64.1999 39.4C64.1999 27.2497 54.3502 17.4 42.2 17.4C30.0497 17.4 20.2 27.2497 20.2 39.4C20.2 51.5503 30.0497 61.4 42.2 61.4Z" fill="#3F1ABA"/>
<path d="M42.1999 55.2C50.926 55.2 57.9999 48.1261 57.9999 39.4C57.9999 30.6739 50.926 23.6 42.1999 23.6C33.4738 23.6 26.3999 30.6739 26.3999 39.4C26.3999 48.1261 33.4738 55.2 42.1999 55.2Z" fill="#3F1ABA"/>
<path d="M46.4001 39.2C47.8001 38.8 48.8001 37.5 48.7001 36.1C48.9001 33.8 46.3001 33.1 45.7001 33L45.9001 30.2L43.8 30.1L43.6 32.9L42 32.8L42.2001 30L40.3 29.9L40 32.7L36.2001 32.4L36 34.3L37.9001 34.4L37.3 43.7L35.4001 43.6L35.3 45.5L39.2001 45.8L39 48.5L40.8 48.6L41 45.9L42.9001 46L42.7001 48.7L44.5 48.8L44.7001 46C44.7001 46 48.9 46.1 49.1 42.6C49.2 41 48.0001 39.5 46.4001 39.2ZM41.7001 34.8L43.8 34.9C44.5 35.1 45 35.8 44.8 36.5C44.7 38 43.6 38 43.6 38L41.5 37.9L41.7001 34.8ZM43.7001 44L41.2001 43.8L41.4001 40.1L43.8 40.3C44.6 40.5 45.2 41.4 45 42.2C44.9 44 43.7001 44 43.7001 44Z" fill="#3F1ABA"/>
<path d="M182.8 10.7C182.8 4.8 178.4 0 173 0H9.8C4.4 0 0 4.8 0 10.7V71.6H182.8V10.7Z" fill="white"/>
<path d="M0 71.5V76.2V96.2C0 102.1 4.4 106.9 9.8 106.9H173C178.4 106.9 182.8 102.1 182.8 96.2V76.2V71.5H0V71.5Z" fill="#5022ED"/>
<path d="M83 31.2C82.1 31.7 81.3 31.8 80.6 31.8C78.6 31.8 77.3 31.1 76.4 30.2C75.4 29.3 74.7 27.9 74.7 26.2C74.7 24.5 75.4 23.1 76.4 22.2C77.3 21.3 78.7 20.7 80.4 20.7C81.1 20.7 81.9 20.8 83 21.3V24.1C82.5 23.5 81.6 23 80.5 23C79.6 23 78.9 23.3 78.3 23.8C77.7 24.4 77.3 25.2 77.3 26.3C77.3 27.4 77.7 28.2 78.2 28.7C78.4 28.9 79.2 29.6 80.5 29.6C81.1 29.6 82 29.4 82.9 28.5V31.2H83Z" fill="black"/>
<path d="M88.7 20.8C90.1 20.8 90.9 21.2 91.4 21.7C91.8 22.1 92.3 22.9 92.3 24.1C92.3 24.8 92.2 25.6 91.5 26.3C91.1 26.7 90.6 27 90 27.1L93.3 31.5H90.3L87.4 27.3V31.5H85V20.8H88.7ZM87.4 25.7H88C88.4 25.7 89.1 25.7 89.5 25.2C89.7 25 89.9 24.7 89.9 24.2C89.9 23.6 89.6 23.3 89.4 23.1C89 22.8 88.4 22.8 88 22.8H87.4V25.7Z" fill="black"/>
<path d="M97 26.5L93.2 20.8H96.1L98.2 24.1L100.3 20.8H103.2L99.4 26.5V31.5H97V26.5Z" fill="black"/>
<path d="M108.2 20.8C109.1 20.8 110.2 20.9 111 21.7C111.9 22.5 112 23.6 112 24.3C112 25.6 111.5 26.4 111.1 26.8C110.3 27.7 109.1 27.7 108.4 27.7H106.9V31.4H104.4V20.8H108.2ZM106.9 25.7H107.8C108.1 25.7 108.7 25.7 109.1 25.3C109.3 25.1 109.5 24.7 109.5 24.2C109.5 23.8 109.3 23.4 109.1 23.2C108.7 22.8 108.2 22.8 107.7 22.8H106.9V25.7Z" fill="black"/>
<path d="M117.8 22.9V31.5H115.3V22.9H113V20.8H120.1V22.9H117.8Z" fill="black"/>
<path d="M130.6 22.1C131.6 23.1 132.3 24.5 132.3 26.1C132.3 27.5 131.8 29 130.6 30.1C129.6 31.1 128.3 31.7 126.5 31.7C124.5 31.7 123.1 30.9 122.3 30.1C121.3 29.1 120.6 27.7 120.6 26.1C120.6 24.6 121.3 23 122.3 22.1C123 21.4 124.3 20.5 126.5 20.5C128.1 20.6 129.5 21.1 130.6 22.1ZM124.1 23.8C123.6 24.2 123.2 25 123.2 26.2C123.2 27.2 123.5 28 124.2 28.6C124.9 29.3 125.7 29.5 126.5 29.5C127.6 29.5 128.4 29.1 128.9 28.6C129.3 28.2 129.8 27.4 129.8 26.2C129.8 25.1 129.4 24.3 128.9 23.8C128.4 23.3 127.5 22.9 126.5 22.9C125.5 22.9 124.7 23.2 124.1 23.8Z" fill="black"/>
<path d="M81.6 48.7H77.6L76.8 50.7H74.2L78.5 40H80.8L85 50.7H82.4L81.6 48.7ZM80.9 46.8L79.6 43.2L78.3 46.8H80.9Z" fill="black"/>
<path d="M93.5 50.4C92.6 50.9 91.8 51 91.1 51C89.1 51 87.8 50.3 86.9 49.4C85.9 48.5 85.2 47.1 85.2 45.4C85.2 43.7 85.9 42.3 86.9 41.4C87.8 40.5 89.2 39.9 90.9 39.9C91.6 39.9 92.4 40 93.5 40.5V43.3C93 42.7 92.1 42.2 91 42.2C90.1 42.2 89.4 42.5 88.8 43C88.2 43.6 87.8 44.4 87.8 45.5C87.8 46.6 88.2 47.4 88.7 47.9C88.9 48.1 89.7 48.8 91 48.8C91.6 48.8 92.5 48.6 93.4 47.7V50.4H93.5Z" fill="black"/>
<path d="M103 50.4C102.1 50.9 101.3 51 100.6 51C98.6 51 97.3 50.3 96.4 49.4C95.4 48.5 94.7 47.1 94.7 45.4C94.7 43.7 95.4 42.3 96.4 41.4C97.3 40.5 98.7 39.9 100.4 39.9C101.1 39.9 101.9 40 103 40.5V43.3C102.5 42.7 101.6 42.2 100.5 42.2C99.6 42.2 98.9 42.5 98.3 43C97.7 43.6 97.3 44.4 97.3 45.5C97.3 46.6 97.7 47.4 98.2 47.9C98.4 48.1 99.2 48.8 100.5 48.8C101.1 48.8 102 48.6 102.9 47.7V50.4H103Z" fill="black"/>
<path d="M111 42.1H107.4V44.2H110.8V46.3H107.4V48.7H111V50.8H105V40H111V42.1Z" fill="black"/>
<path d="M116.8 40C117.7 40 118.8 40.1 119.6 40.9C120.5 41.7 120.6 42.8 120.6 43.5C120.6 44.8 120.1 45.6 119.7 46C118.9 46.9 117.7 46.9 117 46.9H115.5V50.6H113V40H116.8ZM115.5 44.9H116.4C116.7 44.9 117.3 44.9 117.7 44.5C117.9 44.3 118.1 43.9 118.1 43.4C118.1 43 117.9 42.6 117.7 42.4C117.3 42 116.8 42 116.3 42H115.5V44.9Z" fill="black"/>
<path d="M126.4 42.1V50.7H124V42.1H121.7V40H128.8V42.1H126.4Z" fill="black"/>
<path d="M136.1 42.1H132.5V44.2H135.9V46.3H132.5V48.7H136.1V50.8H130.1V40H136.1V42.1Z" fill="black"/>
<path d="M141.4 40C142.8 40 144.3 40.2 145.6 41.5C146.5 42.4 147.1 43.7 147.1 45.3C147.1 47 146.5 48.2 145.6 49.1C144.1 50.6 142.3 50.7 141.4 50.7H137.9V40H141.4ZM140.5 48.6H141.2C141.7 48.6 142.8 48.6 143.6 47.9C144.2 47.4 144.6 46.5 144.6 45.3C144.6 44.1 144.1 43.4 143.7 43C142.9 42.2 141.9 42.1 141.1 42.1H140.4V48.6H140.5Z" fill="black"/>
<path d="M97.1 82.799L95.6 84.999C95.1 84.799 94.6 84.699 94 84.699C93.7 84.699 93.4 84.699 93.1 84.799H93C92.5 84.899 92.1 85.099 91.7 85.399L91.6 85.499C91.2 85.799 90.9 86.099 90.7 86.399C89.7 87.699 88.9 89.399 87.6 91.299C87.5 91.499 87.3 91.699 87.2 91.899C86.2 93.299 84.8 94.499 83.3 95.199C83.2 95.199 83.1 95.299 83 95.299C82.8 95.399 82.5 95.499 82.3 95.599C82.2 95.599 82 95.699 81.8 95.699C81.4 95.799 80.9 95.899 80.5 95.899C80.4 95.899 80.3 95.899 80.2 95.899C76.4 95.899 73.3 92.799 73.3 88.999C73.3 85.199 76.4 82.099 80.2 82.099C82 82.099 83.7 82.799 85 83.999L83.5 86.199C82 84.399 79.2 84.199 77.4 85.699C75.6 87.199 75.4 89.999 76.9 91.799C77.7 92.799 78.9 93.299 80.2 93.299C80.3 93.299 80.4 93.299 80.5 93.299C81.1 93.299 81.6 93.099 82.2 92.799C83.7 92.099 84.9 90.599 86.9 87.099C87 86.999 87.1 86.799 87.2 86.599C87.9 85.399 88.8 84.299 89.9 83.399L90 83.299C90.1 83.299 90.1 83.199 90.2 83.199C90.3 83.099 90.5 82.999 90.6 82.899C90.8 82.799 90.9 82.699 91.1 82.599L91.3 82.499C91.4 82.499 91.5 82.399 91.5 82.399C91.6 82.399 91.7 82.299 91.8 82.299C93.4 81.899 95.4 81.999 97.1 82.799Z" fill="#F7F7F7"/>
<path d="M100.9 87.699V88.999C100.9 89.199 100.9 89.499 100.9 89.699C100.9 89.899 100.9 90.099 100.8 90.299C100.1 94.099 96.5 96.499 92.7 95.799C91.4 95.599 90.3 94.999 89.3 94.099L90.8 91.899C92.4 93.699 95.1 93.799 96.9 92.199C97.5 91.699 97.9 90.999 98.1 90.299H93.8L95.6 87.699H100.9Z" fill="#F7F7F7"/>
<path d="M116.35 87.564C115.95 87.164 115.45 86.9641 114.85 86.9641C113.65 86.9641 112.95 87.864 112.95 88.864C112.95 89.964 113.75 90.764 114.85 90.764C115.25 90.764 115.85 90.664 116.35 90.164V91.9641C115.95 92.1641 115.35 92.364 114.65 92.364C113.65 92.364 112.65 91.964 112.05 91.364C111.55 90.864 110.95 90.064 110.95 88.764C110.95 87.564 111.45 86.664 112.15 86.064C112.95 85.364 113.95 85.164 114.55 85.164C115.25 85.164 115.85 85.264 116.35 85.564V87.564V87.564Z" fill="#F7F7F7"/>
<path d="M124.25 86.264C124.95 86.864 125.35 87.764 125.35 88.864C125.35 89.964 124.85 90.8641 124.25 91.4641C123.65 91.9641 122.85 92.364 121.55 92.364C120.25 92.364 119.45 91.9641 118.85 91.4641C118.15 90.8641 117.75 89.964 117.75 88.864C117.75 87.764 118.25 86.864 118.85 86.264C119.45 85.764 120.25 85.364 121.55 85.364C122.85 85.364 123.75 85.764 124.25 86.264ZM123.45 88.9641C123.45 87.9641 122.65 87.064 121.55 87.064C120.45 87.064 119.65 87.8641 119.65 88.9641C119.65 89.9641 120.45 90.864 121.55 90.864C122.65 90.864 123.45 89.9641 123.45 88.9641Z" fill="#F7F7F7"/>
<path d="M128.15 81.664C128.75 81.664 129.25 82.164 129.25 82.764C129.25 83.364 128.75 83.864 128.15 83.864C127.55 83.864 127.05 83.364 127.05 82.764C127.05 82.164 127.55 81.664 128.15 81.664ZM129.15 85.564V92.264H127.25V85.564H129.15Z" fill="#F7F7F7"/>
<path d="M131.25 85.564H133.15V86.4641C133.55 85.9641 134.15 85.364 135.25 85.364C135.85 85.364 136.65 85.564 137.25 86.164C137.75 86.764 137.75 87.364 137.75 88.064V92.264H135.85V88.664C135.85 88.264 135.85 87.664 135.45 87.364C135.15 87.064 134.75 87.064 134.55 87.064C134.05 87.064 133.65 87.264 133.35 87.664C133.05 88.064 133.05 88.5641 133.05 88.9641V92.364H131.15V85.564H131.25Z" fill="#F7F7F7"/>
<path d="M144.95 85.564H146.85V91.864C146.85 92.864 146.75 93.964 145.95 94.764C145.45 95.264 144.65 95.664 143.35 95.664C142.05 95.664 141.25 95.264 140.85 94.864C140.35 94.464 139.95 93.664 139.75 92.864H141.75C141.85 93.164 141.95 93.464 142.25 93.664C142.65 93.964 143.15 94.064 143.35 94.064C143.85 94.064 144.25 93.864 144.45 93.664C144.85 93.264 144.95 92.764 144.95 92.164V91.264C144.35 92.264 143.45 92.364 142.95 92.364C142.05 92.364 141.25 92.0641 140.65 91.4641C140.15 90.9641 139.55 90.064 139.55 88.864C139.55 87.864 139.95 86.864 140.55 86.264C141.15 85.664 141.95 85.364 142.85 85.364C144.05 85.364 144.65 86.0641 144.95 86.4641V85.564ZM142.05 87.4641C141.75 87.7641 141.45 88.164 141.45 88.864C141.45 89.464 141.65 89.864 141.95 90.164C142.35 90.564 142.85 90.764 143.35 90.764C143.85 90.764 144.25 90.564 144.55 90.264C144.95 89.864 145.15 89.364 145.15 88.864C145.15 88.264 144.85 87.764 144.65 87.564C144.25 87.164 143.85 87.064 143.35 87.064C142.75 87.064 142.25 87.2641 142.05 87.4641Z" fill="#F7F7F7"/>
<path d="M154.05 85.564H155.95V92.264H154.05V91.364C153.35 92.364 152.45 92.4641 152.05 92.4641C150.05 92.4641 148.65 90.8641 148.65 88.9641C148.65 86.9641 149.95 85.4641 151.95 85.4641C152.45 85.4641 153.45 85.564 154.05 86.564V85.564ZM150.55 88.864C150.55 89.964 151.35 90.764 152.35 90.764C153.35 90.764 154.15 89.964 154.15 88.864C154.15 87.764 153.35 86.9641 152.35 86.9641C151.35 86.9641 150.55 87.864 150.55 88.864Z" fill="#F7F7F7"/>
<path d="M159.95 87.164V92.264H158.05V87.164H157.35V85.564H158.05V83.264H159.95V85.564H161.25V87.164H159.95Z" fill="#F7F7F7"/>
<path d="M169.15 90.364C168.95 90.864 168.15 92.4641 165.85 92.4641C164.75 92.4641 163.95 92.164 163.25 91.564C162.55 90.864 162.25 89.9641 162.25 88.9641C162.25 87.6641 162.75 86.864 163.25 86.364C164.05 85.564 164.95 85.4641 165.75 85.4641C167.15 85.4641 167.85 85.964 168.35 86.564C169.05 87.364 169.15 88.464 169.15 89.164V89.364H164.15C164.15 89.764 164.25 90.1641 164.45 90.4641C164.65 90.7641 165.05 91.064 165.75 91.064C166.45 91.064 166.95 90.764 167.35 90.164L169.15 90.364ZM167.45 88.064C167.25 87.164 166.55 86.764 165.85 86.764C165.15 86.764 164.45 87.164 164.25 88.064H167.45Z" fill="#F7F7F7"/>
<path d="M18.1 89.2C18 89.7 17.9 90.2 17.7 90.7C17.5 91.2 17.2 91.5 16.9 91.7C16.6 91.9 16.2 92 15.8 92C15.2 92 14.7 91.8 14.4 91.4L13.9 93.9H13L14.3 86.6H15.1L15 87.2C15.4 86.7 16 86.5 16.6 86.5C17.1 86.5 17.5 86.7 17.8 87.1C18.1 87.5 18.2 88 18.2 88.6C18.2 88.8 18.2 89 18.2 89.2H18.1ZM17.3 89.1V88.7C17.3 88.2 17.2 87.9 17 87.6C16.8 87.3 16.6 87.2 16.2 87.2C15.7 87.2 15.2 87.4 14.9 87.9L14.5 90.4C14.7 90.9 15.1 91.1 15.6 91.1C16 91.1 16.4 90.9 16.7 90.6C17 90.3 17.2 89.8 17.3 89.1Z" fill="#F7F7F7"/>
<path d="M21.8001 86.4C22.2001 86.4 22.6001 86.5 22.9001 86.8C23.2001 87 23.5001 87.4 23.6001 87.8C23.8001 88.2 23.8001 88.7 23.8001 89.2V89.3C23.7001 89.8 23.6001 90.3 23.3001 90.7C23.0001 91.1 22.7001 91.4 22.4001 91.7C22.0001 91.9 21.6001 92 21.1001 92C20.7001 92 20.3001 91.9 20.0001 91.6C19.7001 91.4 19.5001 91 19.3001 90.6C19.1001 90.2 19.1001 89.8 19.1001 89.3C19.1001 88.8 19.3001 88.3 19.5001 87.8C19.7001 87.4 20.1001 87 20.5001 86.8C20.9001 86.6 21.3001 86.4 21.8001 86.4ZM20.0001 89.3C20.0001 89.5 20.0001 89.7 20.0001 89.9C20.0001 90.3 20.1001 90.6 20.3001 90.8C20.5001 91 20.8001 91.1 21.1001 91.2C21.4001 91.2 21.7001 91.1 21.9001 91C22.1001 90.8 22.4001 90.6 22.5001 90.3C22.7001 90 22.8001 89.6 22.8001 89.3C22.8001 89 22.8001 88.7 22.8001 88.5C22.8001 88.1 22.6001 87.8 22.4001 87.6C22.2001 87.4 21.9001 87.3 21.6001 87.2C21.1001 87.2 20.8001 87.4 20.4001 87.7C20.1001 88.1 19.9001 88.5 19.8001 89.1L20.0001 89.3Z" fill="#F7F7F7"/>
<path d="M29.2 90.6L30.9 86.6H31.8L29.4 91.9H28.7L28.2 87.9L26.3 91.9H25.6L25 86.6H25.8L26.1 90.5L28 86.6H28.7L29.2 90.6Z" fill="#F7F7F7"/>
<path d="M34.1001 91.9C33.4001 91.9 32.9001 91.6 32.6001 91.2C32.3001 90.8 32.1001 90.1 32.1001 89.4V89.2C32.2001 88.7 32.3001 88.2 32.6001 87.8C32.9001 87.4 33.2001 87 33.5001 86.8C33.9001 86.6 34.3001 86.5 34.7001 86.5C35.2001 86.5 35.7001 86.7 36.0001 87C36.3001 87.3 36.5001 87.8 36.5001 88.4C36.5001 88.6 36.5001 88.8 36.5001 89L36.4001 89.4H32.9001C32.8001 89.9 32.9001 90.3 33.1001 90.6C33.3001 90.9 33.6001 91.1 34.1001 91.1C34.6001 91.1 35.1001 90.9 35.5001 90.4L36.0001 90.8C35.8001 91.1 35.5001 91.4 35.1001 91.5C34.7001 91.6 34.5001 91.9 34.1001 91.9ZM34.6001 87.2C34.2001 87.2 33.9001 87.3 33.6001 87.6C33.3001 87.9 33.1001 88.2 33.0001 88.7H35.6001V88.6C35.7001 88.2 35.6001 87.8 35.4001 87.6C35.2001 87.3 35.0001 87.2 34.6001 87.2Z" fill="#F7F7F7"/>
<path d="M40.2 87.3H39.8C39.2 87.3 38.8 87.6 38.5 88.1L37.9 91.9H37L37.9 86.6H38.8L38.7 87.2C39.1 86.7 39.5 86.5 40 86.5C40.1 86.5 40.2 86.5 40.4 86.6L40.2 87.3Z" fill="#F7F7F7"/>
<path d="M42.5 91.9C41.8 91.9 41.3 91.6 41 91.2C40.7 90.8 40.5 90.1 40.5 89.4V89.2C40.6 88.7 40.7 88.2 41 87.8C41.3 87.4 41.6 87 41.9 86.8C42.3 86.6 42.7 86.5 43.1 86.5C43.6 86.5 44.1 86.7 44.4 87C44.7 87.3 44.9 87.8 44.9 88.4C44.9 88.6 44.9 88.8 44.9 89L44.8 89.4H41.3C41.2 89.9 41.3 90.3 41.5 90.6C41.7 90.9 42 91.1 42.5 91.1C43 91.1 43.5 90.9 43.9 90.4L44.4 90.8C44.2 91.1 43.9 91.4 43.5 91.5C43.3 91.8 42.9 91.9 42.5 91.9ZM43 87.2C42.6 87.2 42.3 87.3 42 87.6C41.7 87.9 41.5 88.2 41.4 88.7H44V88.6C44.1 88.2 44 87.8 43.8 87.6C43.6 87.4 43.4 87.2 43 87.2Z" fill="#F7F7F7"/>
<path d="M45.6001 89.2C45.7001 88.7 45.8001 88.2 46.0001 87.7C46.2001 87.3 46.5001 86.9 46.9001 86.7C47.2001 86.5 47.6001 86.4 48.0001 86.4C48.6001 86.4 49.0001 86.6 49.4001 87L49.9001 84.2H50.8001L49.5001 91.7H48.7001L48.8001 91.1C48.4001 91.6 47.9001 91.8 47.3001 91.8C46.8001 91.8 46.4001 91.6 46.1001 91.2C45.8001 90.8 45.7001 90.3 45.6001 89.7C45.6001 89.7 45.6001 89.4 45.6001 89.2ZM46.5001 89.7C46.5001 90.2 46.6001 90.5 46.7001 90.8C46.8001 91.1 47.1001 91.2 47.5001 91.2C48.0001 91.2 48.5001 91 48.9001 90.4L49.3001 88C49.1001 87.5 48.7001 87.3 48.2001 87.3C47.9001 87.3 47.5001 87.4 47.3001 87.6C47.0001 87.8 46.8001 88.1 46.7001 88.5C46.6001 88.8 46.5001 89.2 46.5001 89.7Z" fill="#F7F7F7"/>
<path d="M58.0999 89.2C57.9999 89.7 57.8999 90.2 57.6999 90.7C57.4999 91.1 57.1999 91.5 56.8999 91.7C56.5999 91.9 56.1999 92 55.7999 92C55.1999 92 54.6999 91.7 54.3999 91.3L54.1999 91.9H53.3999L54.6999 84.4H55.5999L55.0999 87.2C55.4999 86.7 55.9999 86.5 56.5999 86.5C57.0999 86.5 57.4999 86.7 57.7999 87.1C58.0999 87.5 58.1999 88 58.1999 88.6C58.1999 88.8 58.1999 89 58.1999 89.2H58.0999ZM57.2999 88.7C57.2999 88.2 57.1999 87.9 57.0999 87.6C56.8999 87.3 56.6999 87.2 56.2999 87.2C55.6999 87.2 55.2999 87.5 54.8999 88L54.4999 90.3C54.6999 90.8 55.0999 91.1 55.5999 91.1C55.8999 91.1 56.1999 91 56.4999 90.8C56.7999 90.6 56.9999 90.3 57.0999 89.9C57.1999 89.5 57.2999 89.1 57.2999 88.7Z" fill="#F7F7F7"/>
<path d="M60.7001 90.5L62.6 86.5H63.6L60.5 92.7C60.1 93.6 59.5 94 58.8 94C58.7 94 58.5 94 58.3 93.9L58.4001 93.2H58.6C58.9 93.2 59.1 93.2 59.3 93C59.5 92.9 59.7 92.6 59.8 92.3L60.1 91.7L59.2001 86.5H60.1L60.7001 90.5Z" fill="#F7F7F7"/>
<path d="M39.1899 58.44C51.3402 58.44 61.1899 48.5903 61.1899 36.44C61.1899 24.2897 51.3402 14.44 39.1899 14.44C27.0397 14.44 17.1899 24.2897 17.1899 36.44C17.1899 48.5903 27.0397 58.44 39.1899 58.44Z" fill="#E8AE38"/>
<path d="M39.1999 52.2C47.926 52.2 54.9999 45.1261 54.9999 36.4C54.9999 27.6739 47.926 20.6 39.1999 20.6C30.4738 20.6 23.3999 27.6739 23.3999 36.4C23.3999 45.1261 30.4738 52.2 39.1999 52.2Z" fill="#F1C751"/>
<path d="M43.4001 36.2C44.8001 35.8 45.8001 34.5 45.7001 33.1C45.9001 30.8 43.3001 30.1 42.7001 30L42.9001 27.2L40.8 27.1L40.6 29.9L39 29.8L39.2001 27L37.3 26.9L37 29.7L33.2001 29.4L33 31.3L34.9001 31.4L34.3 40.7L32.4001 40.6L32.3 42.5L36.2001 42.8L36 45.5L37.8 45.6L38 42.9L39.9001 43L39.7001 45.7L41.5 45.8L41.7001 43C41.7001 43 45.9 43.1 46.1 39.6C46.2 38 45.0001 36.5 43.4001 36.2ZM38.7001 31.8L40.8 31.9C41.5 32.1 42 32.8 41.8 33.5C41.7 35 40.6 35 40.6 35L38.5 34.9L38.7001 31.8ZM40.7001 41L38.2001 40.8L38.4001 37.1L40.8 37.3C41.6 37.5 42.2 38.4 42 39.2C41.9 41 40.7001 41 40.7001 41Z" fill="white"/>
</svg>
