<svg width="714" height="666" viewBox="0 0 714 666" fill="none" xmlns="http://www.w3.org/2000/svg">
<circle cx="333" cy="333" r="333" fill="#E9F6FF"/>
<g clip-path="url(#clip0)">
<path d="M713.991 55.2359C714.257 48.1447 709.963 40.9619 701.019 35.3018C700.496 34.9715 699.973 34.6596 699.432 34.3844C690.139 28.9812 677.984 26.1741 665.738 25.9998C653.491 25.8255 641.107 28.3024 631.355 33.4671C630.787 33.7698 630.236 34.0725 629.704 34.3844C620.476 39.7601 615.669 46.7779 615.421 53.8782C615.421 54.1626 615.421 54.4378 615.421 54.7222C615.421 54.6304 615.421 54.5387 615.421 54.447V66.712C615.421 67.0698 615.421 75.7388 615.421 90.1504V419.903C615.43 422.267 615.92 424.605 616.861 426.774V426.819C616.902 426.917 616.947 427.012 616.999 427.104C617.155 427.452 617.32 427.801 617.494 428.14L617.742 428.617C617.971 429.03 618.219 429.443 618.476 429.856C618.522 429.92 618.558 429.993 618.604 430.067C618.916 430.544 619.255 430.984 619.613 431.489L619.934 431.883C620.21 432.223 620.485 432.562 620.787 432.902L620.98 433.14L621.182 433.351C621.558 433.755 621.943 434.149 622.347 434.544L622.604 434.8C623.099 435.277 623.622 435.718 624.172 436.195L624.604 436.543C625.038 436.892 625.487 437.241 625.952 437.589L626.475 437.965C627.09 438.415 627.732 438.883 628.401 439.268C628.915 439.598 629.447 439.919 629.988 440.231L630.218 440.36L630.53 440.525C631.135 440.864 631.759 441.194 632.364 441.516L633.025 441.846C633.695 442.176 634.383 442.497 635.089 442.763L635.383 442.901C636.181 443.24 636.988 443.561 637.814 443.873C638.034 443.965 638.263 444.038 638.483 444.121C639.131 444.359 639.792 444.589 640.465 444.809L641.116 445.029C641.969 445.295 642.831 445.552 643.712 445.79L644.143 445.9C644.886 446.102 645.648 446.295 646.409 446.469L647.18 446.643C647.959 446.818 648.739 446.974 649.528 447.13L649.932 447.203C650.849 447.377 651.766 447.524 652.684 447.653L652.95 447.698L653.555 447.772C654.078 447.845 654.61 447.919 655.133 447.974L656.096 448.084L657.674 448.23L658.592 448.304C659.151 448.35 659.72 448.377 660.289 448.414H661.105C661.94 448.414 662.784 448.478 663.619 448.487C664.453 448.497 665.178 448.487 665.958 448.487H666.738C667.251 448.487 667.774 448.487 668.297 448.441H668.371H668.719C669.462 448.441 670.214 448.368 670.958 448.313L671.811 448.24C672.425 448.194 673.04 448.13 673.645 448.065L674.563 447.974C675.242 447.891 675.911 447.809 676.581 447.708L677.186 447.625C678.049 447.497 678.902 447.359 679.755 447.203H679.893L680.36 447.111L682.342 446.699L683.177 446.506C683.782 446.368 684.378 446.222 685.011 446.066L685.782 445.864C686.598 445.644 687.415 445.414 688.213 445.157C689.029 444.91 689.828 444.634 690.616 444.35L690.855 444.268L691.671 443.956C691.947 443.855 692.231 443.754 692.497 443.644C692.763 443.534 693.268 443.332 693.644 443.176L694.405 442.855L695.625 442.295L696.249 442.011C696.854 441.717 697.46 441.415 698.084 441.094C698.707 440.772 699.194 440.488 699.735 440.176C708.964 434.819 713.77 427.783 714.027 420.682C714.027 420.499 714.027 420.306 714.027 420.114V54.658C714 54.8598 714 55.0524 713.991 55.2359Z" fill="#5A3AF8"/>
<path d="M684.92 45.4842V57.7493C684.789 57.6039 684.634 57.4828 684.461 57.3915V45.1265C684.627 45.2285 684.781 45.3485 684.92 45.4842Z" fill="#331697"/>
<path d="M684.425 45.0991V57.3641C684.045 57.1607 683.632 57.0271 683.205 56.9696V44.7046C683.63 44.7563 684.041 44.8902 684.415 45.0991" fill="#3617A0"/>
<path d="M683.214 44.7046V56.9697C682.939 56.942 682.663 56.942 682.388 56.9697V44.6955C682.664 44.6833 682.941 44.6986 683.214 44.7413" fill="#331697"/>
<path d="M682.388 44.6587V56.9329C682.182 56.9356 681.976 56.9571 681.773 56.9971V44.7321C681.976 44.689 682.181 44.6645 682.388 44.6587Z" fill="#31158F"/>
<path d="M681.773 44.7319V56.997C681.625 57.025 681.478 57.0617 681.333 57.107V44.8328C681.478 44.7905 681.625 44.7568 681.773 44.7319Z" fill="#2E1386"/>
<path d="M684.92 45.4842V57.7493C684.789 57.6039 684.634 57.4828 684.461 57.3915V45.1265C684.626 45.2285 684.78 45.3485 684.92 45.4842Z" fill="#331697"/>
<path d="M685.213 46.1812V58.4462C685.21 58.3295 685.185 58.2143 685.14 58.1068V45.8418C685.195 45.9557 685.221 46.0821 685.213 46.2087" fill="#2E1386"/>
<path d="M685.14 45.8235V58.1069C685.088 57.9808 685.014 57.8656 684.919 57.7675V45.5024C685.014 45.6006 685.088 45.7158 685.14 45.8419" fill="#31158F"/>
<path d="M684.92 45.4842V57.7493C684.789 57.6039 684.634 57.4828 684.461 57.3915V45.1265C684.626 45.2285 684.78 45.3485 684.92 45.4842Z" fill="#331697"/>
<path d="M685.214 46.1816V58.4467C685.214 58.9604 684.764 59.4558 683.975 59.7401V47.4659C684.764 47.1816 685.204 46.6862 685.204 46.1816" fill="#180F4C"/>
<path d="M683.984 47.4751V59.7493L683.837 59.7952V47.5301L683.984 47.4751Z" fill="#1A1051"/>
<path d="M652.271 48.3283V60.5933L651.904 60.5199V48.2549C652.028 48.2705 652.151 48.295 652.271 48.3283Z" fill="#3617A0"/>
<path d="M651.904 48.2547V60.5198C651.63 60.4969 651.353 60.4969 651.079 60.5198V48.2455C651.355 48.2379 651.631 48.2533 651.904 48.2914" fill="#331697"/>
<path d="M651.079 48.209V60.4832C650.873 60.4905 650.668 60.5119 650.464 60.5474V48.2824C650.667 48.2438 650.873 48.2193 651.079 48.209Z" fill="#31158F"/>
<path d="M650.464 48.2822V60.5473C650.262 60.5871 650.062 60.6423 649.868 60.7124V48.4382C650.062 48.37 650.262 48.3178 650.464 48.2822Z" fill="#2E1386"/>
<path d="M649.868 48.4385V60.7127C649.464 60.8423 649.106 61.0879 648.84 61.419C648.713 61.5852 648.643 61.7877 648.639 61.997V49.7228C648.64 49.5159 648.711 49.3154 648.84 49.154C649.101 48.8153 649.46 48.5654 649.868 48.4385Z" fill="#2B127F"/>
<path d="M681.333 44.833L681.296 57.1072L662.298 62.9966L662.335 50.7316L681.333 44.833Z" fill="#311590"/>
<path d="M662.334 50.7316L662.298 62.9966L652.234 60.5932L652.271 48.3281L662.334 50.7316Z" fill="#3A19AA"/>
<path d="M650.281 51.1443V63.4093C649.982 63.3463 649.694 63.238 649.428 63.0883V50.8232C649.698 50.9653 649.984 51.0732 650.281 51.1443Z" fill="#1E1360"/>
<path d="M649.428 50.8234V63.0884C649.251 62.9879 649.09 62.8611 648.951 62.7123V50.4473C649.088 50.5983 649.249 50.7254 649.428 50.8234Z" fill="#1D125B"/>
<path d="M648.941 50.4381V62.7031C648.847 62.6049 648.772 62.4897 648.721 62.3637V50.0986C648.772 50.2247 648.847 50.3399 648.941 50.4381Z" fill="#1B1156"/>
<path d="M648.721 50.0988V62.3638C648.669 62.2485 648.641 62.1236 648.639 61.9969V49.7227C648.639 49.8525 648.667 49.9807 648.721 50.0988Z" fill="#1A1051"/>
<path d="M683.837 47.5303L683.801 59.7953L668.609 64.5105L668.646 52.2363L683.837 47.5303Z" fill="#1B1157"/>
<path d="M668.646 52.2359L668.609 64.5101L662.298 62.9965L662.335 50.7314L668.646 52.2359Z" fill="#211467"/>
<path d="M656.335 52.594L656.298 64.859L650.244 63.4096L650.28 51.1445L656.335 52.594Z" fill="#211467"/>
<path d="M674.838 53.7224L674.811 65.9875L668.609 64.5105L668.646 52.2363L674.838 53.7224Z" fill="#3A19AA"/>
<path d="M676.177 54.4376V66.7027C676.04 66.5517 675.879 66.4245 675.7 66.3266V54.0615C675.879 54.1595 676.04 54.2866 676.177 54.4376Z" fill="#331697"/>
<path d="M675.691 54.0432V66.3083C675.424 66.1678 675.14 66.06 674.847 65.9872V53.7222C675.146 53.7852 675.434 53.8935 675.7 54.0432" fill="#3617A0"/>
<path d="M662.646 54.0982L662.61 66.3724L656.298 64.8588L656.335 52.5938L662.646 54.0982Z" fill="#211467"/>
<path d="M676.48 55.135V67.4092C676.478 67.2805 676.453 67.1532 676.407 67.0331V54.7681C676.453 54.885 676.478 55.0093 676.48 55.135Z" fill="#2E1386"/>
<path d="M676.407 54.7681V67.0332C676.346 66.9099 676.269 66.7957 676.177 66.6937V54.4287C676.271 54.529 676.349 54.6436 676.407 54.7681Z" fill="#31158F"/>
<path d="M676.177 54.4376V66.7027C676.04 66.5517 675.879 66.4245 675.7 66.3266V54.0615C675.879 54.1595 676.04 54.2866 676.177 54.4376Z" fill="#331697"/>
<path d="M672.848 56.5383L672.811 68.8033L662.61 66.3723L662.647 54.0981L672.848 56.5383Z" fill="#211467"/>
<path d="M656.335 52.5938L656.298 64.8588L642.914 69.0144L642.942 56.7402L656.335 52.5938Z" fill="#311590"/>
<path d="M676.48 55.1348V67.409C676.476 67.6139 676.409 67.8126 676.288 67.9777C676.021 68.3145 675.66 68.5638 675.251 68.6933V56.4191C675.658 56.2952 676.017 56.0484 676.278 55.7127C676.406 55.5465 676.476 55.344 676.48 55.1348Z" fill="#180F4C"/>
<path d="M675.251 56.4189V68.6931C675.057 68.7613 674.857 68.8135 674.655 68.8491V56.5841C674.857 56.5443 675.057 56.4891 675.251 56.4189Z" fill="#1A1051"/>
<path d="M674.655 56.584V68.849C674.452 68.8875 674.246 68.9121 674.04 68.9224V56.6482C674.246 56.6409 674.452 56.6195 674.655 56.584Z" fill="#1B1156"/>
<path d="M674.04 56.6484V68.9226C673.768 68.9452 673.495 68.9452 673.224 68.9226V56.6576C673.495 56.6807 673.768 56.6807 674.04 56.6576" fill="#1D125B"/>
<path d="M673.215 56.612V68.877C673.088 68.8613 672.962 68.8368 672.838 68.8036V56.5386L673.215 56.612Z" fill="#1E1360"/>
<path d="M642.942 56.7402V69.0144H642.795V56.7494L642.942 56.6943" fill="#2E1386"/>
<path d="M642.795 56.7954V69.0604C642.522 69.1295 642.269 69.2631 642.059 69.4498C641.848 69.6365 641.685 69.8711 641.584 70.1337C641.575 70.2069 641.575 70.2808 641.584 70.3539V58.0889C641.575 58.0158 641.575 57.9418 641.584 57.8687C641.683 57.6063 641.844 57.3717 642.053 57.1849C642.262 56.998 642.514 56.8644 642.786 56.7954" fill="#2B127F"/>
<path d="M642.336 59.1715V71.4366C642.155 71.3384 641.991 71.2114 641.85 71.0604V58.7954C641.987 58.9464 642.148 59.0735 642.327 59.1715" fill="#1D125B"/>
<path d="M641.859 58.7955V71.0605C641.771 70.9576 641.697 70.8435 641.639 70.7211V58.4561C641.69 58.5821 641.765 58.6973 641.859 58.7955Z" fill="#1B1156"/>
<path d="M641.639 58.4558V70.7208C641.592 70.6042 641.567 70.4797 641.566 70.3539V58.0889C641.559 58.2154 641.584 58.3416 641.639 58.4558Z" fill="#1A1051"/>
<path d="M642.795 56.7954V69.0604C642.522 69.1295 642.269 69.2631 642.059 69.4498C641.848 69.6366 641.685 69.8711 641.584 70.1337C641.575 70.2069 641.575 70.2808 641.584 70.3539V58.0889C641.575 58.0158 641.575 57.9418 641.584 57.8687C641.683 57.6063 641.844 57.3717 642.053 57.1849C642.262 56.998 642.514 56.8644 642.786 56.7954" fill="#2B127F"/>
<path d="M642.795 56.7954V69.0604C642.522 69.1295 642.269 69.2631 642.059 69.4498C641.848 69.6366 641.685 69.8711 641.584 70.1337C641.575 70.2069 641.575 70.2808 641.584 70.3539V58.0889C641.575 58.0158 641.575 57.9418 641.584 57.8687C641.683 57.6063 641.844 57.3717 642.053 57.1849C642.262 56.998 642.514 56.8644 642.786 56.7954" fill="#2B127F"/>
<path d="M662.646 54.0981L662.61 66.3723L648.538 70.739L648.574 58.4648L662.646 54.0981Z" fill="#1B1157"/>
<path d="M662.738 66.6385L662.702 78.9127L648.538 70.739L648.574 58.4648L662.738 66.6385Z" fill="#3918A8"/>
<path d="M663.509 67.7306V79.9956C663.507 79.8689 663.479 79.744 663.426 79.6287V67.3545C663.477 67.4733 663.502 67.6015 663.5 67.7306" fill="#2E1386"/>
<path d="M663.435 67.3542V79.6284C663.384 79.5023 663.31 79.3871 663.215 79.289V67.0239C663.309 67.1188 663.384 67.2309 663.435 67.3542Z" fill="#31158F"/>
<path d="M663.215 67.0241V79.2891C663.078 79.1381 662.917 79.011 662.738 78.913V66.6479C662.917 66.7459 663.078 66.8731 663.215 67.0241Z" fill="#331697"/>
<path d="M659.023 68.8036L658.986 81.0686L642.309 71.4364L642.336 59.1714L659.023 68.8036Z" fill="#201465"/>
<path d="M663.509 67.7305V79.9955C663.489 80.2271 663.407 80.4491 663.271 80.638C663.135 80.8268 662.951 80.9757 662.738 81.0688C662.588 81.1531 662.431 81.2267 662.271 81.289V69.0148C662.433 68.9595 662.589 68.8888 662.738 68.8038C662.949 68.7078 663.13 68.558 663.263 68.3695C663.397 68.181 663.479 67.9606 663.5 67.7305" fill="#180F4C"/>
<path d="M662.279 69.0146V81.2888C662.088 81.3559 661.892 81.408 661.692 81.4448V69.1798C661.892 69.14 662.088 69.0848 662.279 69.0146Z" fill="#1A1051"/>
<path d="M661.693 69.1797V81.4447C661.49 81.4832 661.284 81.5078 661.078 81.5181V69.2439C661.284 69.2366 661.49 69.2152 661.693 69.1797Z" fill="#1B1156"/>
<path d="M661.078 69.2442V81.5184C660.802 81.5263 660.526 81.5109 660.252 81.4725V69.2075C660.527 69.2306 660.803 69.2306 661.078 69.2075" fill="#1D125B"/>
<path d="M660.252 69.2075V81.4725C659.828 81.4179 659.417 81.2841 659.042 81.078V68.813C659.421 69.0163 659.835 69.1499 660.262 69.2075" fill="#1E1360"/>
<path d="M713.991 55.2358V420.691C713.734 427.792 708.927 434.828 699.698 440.185C699.157 440.497 698.607 440.809 698.047 441.103C695.727 442.325 693.324 443.382 690.855 444.267V78.8118C693.321 77.9285 695.722 76.8709 698.038 75.647C698.607 75.3534 699.157 75.0415 699.698 74.7296C708.927 69.3723 713.734 62.3362 713.991 55.2358Z" fill="#2D1C8D"/>
<path d="M690.855 78.812V444.268C687.29 445.545 683.627 446.529 679.902 447.212V81.7567C683.627 81.0737 687.29 80.0889 690.855 78.812Z" fill="#2E1D90"/>
<path d="M679.902 81.7568V447.212C676.109 447.914 672.271 448.344 668.417 448.497V83.0411C672.271 82.888 676.109 82.4588 679.902 81.7568Z" fill="#321D98"/>
<path d="M668.417 83.0412V448.497C666.829 448.561 665.252 448.589 663.665 448.561C660.085 448.518 656.512 448.242 652.968 447.735V82.2798C656.515 82.7859 660.091 83.0616 663.674 83.1054C665.252 83.1054 666.839 83.1054 668.426 83.0412" fill="#3818A6"/>
<path d="M652.959 82.2798V447.735C644.98 446.721 637.26 444.233 630.19 440.397V74.9409C637.256 78.7772 644.974 81.2657 652.95 82.2798" fill="#3F1AB9"/>
<path d="M630.2 74.9042V440.36L629.97 440.231C629.429 439.919 628.897 439.598 628.383 439.268C625.641 437.575 623.143 435.513 620.962 433.14V67.6846C623.141 70.0595 625.639 72.1217 628.383 73.8125C628.897 74.1427 629.429 74.4638 629.97 74.7757L630.2 74.9042Z" fill="#3F1AB9"/>
<path d="M620.925 67.6848V433.14C619.213 431.275 617.821 429.14 616.806 426.82V61.3643C617.821 63.684 619.213 65.8198 620.925 67.6848Z" fill="#3818A6"/>
<path d="M616.843 61.364V426.82C615.871 424.545 615.394 69.0514 615.394 66.7122L615.421 54.438C615.424 56.8187 615.918 59.1732 616.87 61.3548" fill="#321D98"/>
<path d="M683.837 47.5302L668.628 52.2362L662.334 50.7685L681.333 44.8699C682.365 44.5579 683.478 44.653 684.443 45.1359C684.608 45.238 684.762 45.358 684.901 45.4937C685.589 46.1817 685.14 47.0991 683.837 47.5302Z" fill="#2D1C8D"/>
<path d="M662.738 66.6477C662.964 66.7238 663.16 66.8687 663.299 67.0621C663.438 67.2555 663.512 67.4875 663.512 67.7256C663.512 67.9637 663.438 68.1958 663.299 68.3891C663.16 68.5825 662.964 68.7274 662.738 68.8035C662.162 69.0975 661.523 69.2507 660.876 69.2507C660.229 69.2507 659.591 69.0975 659.014 68.8035L642.327 59.1713C641.74 58.8227 641.456 58.3457 641.584 57.8686C641.697 57.5816 641.881 57.3277 642.118 57.1304C642.356 56.9332 642.639 56.799 642.942 56.7403L656.335 52.603L662.647 54.1075L648.574 58.4741L662.738 66.6477Z" fill="#2D1C8D"/>
<path d="M675.7 54.0523C676.434 54.4743 676.7 55.1257 676.278 55.7128C675.728 56.4925 674.187 56.8595 672.847 56.5384L662.646 54.0982L656.335 52.6029L650.28 51.1443C649.979 51.0742 649.689 50.963 649.418 50.8141C648.684 50.3921 648.418 49.7408 648.84 49.1537C649.391 48.3739 650.923 48.007 652.271 48.3281L662.362 50.7315L668.627 52.236L674.82 53.7221C675.129 53.7846 675.426 53.8961 675.7 54.0523Z" fill="#2D1C8D"/>
<path d="M701.02 35.3018C700.497 34.9715 699.974 34.6596 699.433 34.3844C690.14 28.9812 677.985 26.1741 665.738 25.9998C653.491 25.8255 641.107 28.3024 631.356 33.4671C630.787 33.7698 630.237 34.0725 629.704 34.3844C620.476 39.7601 615.669 46.7779 615.421 53.8782C615.174 60.9785 619.458 68.1522 628.402 73.8123C628.916 74.1426 629.448 74.4636 629.989 74.7755C639.272 80.1329 651.427 82.94 663.683 83.1051C675.939 83.2702 688.323 80.8117 698.057 75.647C698.625 75.3535 699.176 75.0416 699.717 74.7297C708.946 69.3723 713.752 62.3362 714.009 55.2359C714.266 48.1356 709.964 40.9619 701.02 35.3018ZM672.848 56.5385L662.647 54.0984L648.574 58.465L662.738 66.6478C662.964 66.7238 663.16 66.8688 663.299 67.0622C663.438 67.2555 663.512 67.4876 663.512 67.7257C663.512 67.9637 663.438 68.1958 663.299 68.3892C663.16 68.5826 662.964 68.7275 662.738 68.8036C662.162 69.0975 661.524 69.2508 660.876 69.2508C660.229 69.2508 659.591 69.0975 659.014 68.8036L642.327 59.1713C641.74 58.8227 641.456 58.3457 641.584 57.8687C641.697 57.5816 641.881 57.3277 642.118 57.1305C642.356 56.9333 642.639 56.7991 642.942 56.7404L656.335 52.6031L650.281 51.1445C649.98 51.0743 649.689 50.9632 649.418 50.8142C648.685 50.3923 648.419 49.7409 648.84 49.1538C649.391 48.3741 650.923 48.0071 652.271 48.3282L662.362 50.7317L681.361 44.8331C682.393 44.5211 683.506 44.6163 684.471 45.0991C684.636 45.2012 684.79 45.3212 684.929 45.4569C685.617 46.2091 685.14 47.1265 683.865 47.5301L668.628 52.2361L674.82 53.7223C675.123 53.7866 675.414 53.898 675.682 54.0525C676.416 54.4745 676.682 55.1258 676.26 55.7129C675.728 56.4927 674.187 56.8596 672.848 56.5385Z" fill="#5A3AF8"/>
<path d="M551.637 143.503V155.796C551.499 155.848 551.364 155.909 551.234 155.979C551.055 156.062 550.9 156.19 550.786 156.351C550.671 156.512 550.601 156.7 550.583 156.897V144.604C550.6 144.407 550.669 144.218 550.783 144.057C550.898 143.896 551.053 143.768 551.234 143.687C551.365 143.619 551.5 143.557 551.637 143.503Z" fill="#2B127F"/>
<path d="M554.426 143.687V155.98C554.102 155.801 553.747 155.686 553.38 155.64V143.348C553.747 143.394 554.102 143.509 554.426 143.687Z" fill="#3617A0"/>
<path d="M553.38 143.348V155.64C553.145 155.617 552.909 155.617 552.674 155.64V143.348C552.912 143.324 553.151 143.324 553.389 143.348" fill="#331697"/>
<path d="M552.665 143.311V155.604C552.487 155.612 552.309 155.631 552.133 155.659V143.366C552.306 143.339 552.481 143.32 552.656 143.311" fill="#31158F"/>
<path d="M552.124 143.366V155.659C551.953 155.695 551.785 155.741 551.619 155.796V143.504C551.784 143.447 551.953 143.401 552.124 143.366Z" fill="#2E1386"/>
<path d="M551.637 143.504V155.796C551.499 155.848 551.364 155.91 551.234 155.98C551.055 156.062 550.9 156.191 550.786 156.352C550.671 156.513 550.601 156.701 550.583 156.897V144.605C550.6 144.408 550.669 144.219 550.783 144.057C550.898 143.896 551.053 143.768 551.234 143.687C551.365 143.619 551.5 143.558 551.637 143.504Z" fill="#2B127F"/>
<path d="M551.206 145.549V157.832C551.054 157.75 550.917 157.642 550.803 157.511V145.219C550.924 145.347 551.063 145.459 551.216 145.549" fill="#1D125B"/>
<path d="M550.83 145.256V157.548C550.752 157.461 550.687 157.362 550.638 157.255V144.971C550.682 145.076 550.744 145.172 550.821 145.256" fill="#1B1156"/>
<path d="M550.647 144.934V157.218C550.604 157.119 550.582 157.013 550.583 156.906V144.613C550.583 144.723 550.604 144.833 550.647 144.934Z" fill="#1A1051"/>
<path d="M564.838 149.696L564.802 161.988L554.399 155.98L554.436 143.687L564.838 149.696Z" fill="#3918A8"/>
<path d="M555.491 147.999L555.454 160.282L551.207 157.833L551.243 145.54L555.491 147.999Z" fill="#201465"/>
<path d="M570.425 152.925L570.388 165.208L564.802 161.988L564.838 149.696L570.425 152.925Z" fill="#3918A8"/>
<path d="M565.508 150.632V162.924C565.51 162.814 565.488 162.704 565.444 162.603V150.311C565.484 150.413 565.506 150.522 565.508 150.632Z" fill="#1A1051"/>
<path d="M565.444 150.311V162.603C565.395 162.496 565.33 162.397 565.251 162.31V150.017C565.328 150.106 565.393 150.205 565.444 150.311Z" fill="#1B1156"/>
<path d="M565.251 150.017V162.309C565.13 162.182 564.991 162.074 564.838 161.988V149.696C564.991 149.781 565.13 149.89 565.251 150.017Z" fill="#1D125B"/>
<path d="M561.646 151.549L561.619 163.841L555.454 160.282L555.491 147.999L561.646 151.549Z" fill="#201465"/>
<path d="M565.508 150.631V162.924C565.49 163.122 565.419 163.311 565.303 163.472C565.186 163.633 565.03 163.761 564.848 163.841C564.721 163.918 564.586 163.98 564.444 164.025V151.732C564.585 151.686 564.721 151.625 564.848 151.549C565.03 151.468 565.186 151.341 565.303 151.18C565.419 151.018 565.49 150.829 565.508 150.631Z" fill="#180F4C"/>
<path d="M564.444 151.732V164.024C564.282 164.09 564.112 164.136 563.939 164.162V151.87C564.112 151.843 564.282 151.797 564.444 151.732Z" fill="#1A1051"/>
<path d="M563.939 151.87V164.162C563.767 164.198 563.592 164.219 563.417 164.226V151.934C563.592 151.926 563.767 151.905 563.939 151.87Z" fill="#1B1156"/>
<path d="M563.417 151.934V164.227C563.179 164.245 562.939 164.245 562.701 164.227V151.934C562.939 151.953 563.179 151.953 563.417 151.934Z" fill="#1D125B"/>
<path d="M562.701 151.898V164.19C562.338 164.138 561.988 164.023 561.665 163.851V151.558C561.985 151.736 562.337 151.851 562.701 151.898Z" fill="#1E1360"/>
<path d="M567.233 154.778L567.196 167.07L558.665 162.144L558.701 149.852L567.233 154.778Z" fill="#201465"/>
<path d="M523.41 159.933V172.226L523.007 172.41C522.827 172.492 522.673 172.62 522.559 172.781C522.444 172.942 522.374 173.13 522.355 173.327V161.034C522.372 160.837 522.442 160.648 522.556 160.487C522.671 160.326 522.826 160.198 523.007 160.117C523.137 160.044 523.272 159.979 523.41 159.924" fill="#2B127F"/>
<path d="M526.199 160.089V172.382C525.875 172.204 525.52 172.089 525.153 172.043V159.75C525.52 159.796 525.875 159.911 526.199 160.089Z" fill="#3617A0"/>
<path d="M525.154 159.75V172.042C524.919 172.019 524.682 172.019 524.447 172.042V159.75C524.682 159.727 524.919 159.727 525.154 159.75Z" fill="#331697"/>
<path d="M524.447 159.713V172.006C524.269 172.015 524.091 172.033 523.915 172.061V159.778C524.09 159.742 524.268 159.721 524.447 159.713Z" fill="#31158F"/>
<path d="M523.915 159.778V172.061C523.744 172.097 523.576 172.143 523.411 172.199V159.906C523.575 159.85 523.744 159.807 523.915 159.778Z" fill="#2E1386"/>
<path d="M523.41 159.933V172.226L523.007 172.41C522.827 172.492 522.673 172.62 522.559 172.781C522.444 172.942 522.374 173.13 522.355 173.327V161.034C522.372 160.837 522.442 160.648 522.556 160.487C522.671 160.326 522.826 160.198 523.007 160.117C523.137 160.044 523.272 159.979 523.41 159.924" fill="#2B127F"/>
<path d="M576.984 162.089V174.382C576.982 173.309 576.76 172.247 576.333 171.263V158.97C576.758 159.955 576.98 161.016 576.984 162.089Z" fill="#2E1386"/>
<path d="M576.333 159.016V171.308C575.885 170.259 575.265 169.291 574.499 168.446V156.154C575.262 157.001 575.882 157.968 576.333 159.016Z" fill="#31158F"/>
<path d="M574.462 156.108V168.401C573.295 167.131 571.932 166.056 570.425 165.217V152.925C571.931 153.766 573.293 154.84 574.462 156.108Z" fill="#331697"/>
<path d="M572.461 162.08V174.372C572.463 173.517 572.288 172.671 571.948 171.886V159.594C572.283 160.38 572.457 161.225 572.461 162.08Z" fill="#1A1051"/>
<path d="M571.948 159.594V171.886C571.577 171.049 571.072 170.277 570.453 169.602V157.319C571.072 157.991 571.577 158.759 571.948 159.594Z" fill="#1B1156"/>
<path d="M570.471 157.319V169.602C569.54 168.591 568.453 167.737 567.251 167.07V154.778C568.452 155.449 569.539 156.307 570.471 157.319Z" fill="#1D125B"/>
<path d="M523.025 161.942V174.235C522.868 174.155 522.728 174.046 522.612 173.914V161.621C522.728 161.754 522.868 161.863 523.025 161.942Z" fill="#1D125B"/>
<path d="M522.613 161.621V173.914C522.534 173.826 522.469 173.727 522.42 173.62V161.328C522.469 161.435 522.534 161.534 522.613 161.621Z" fill="#1B1156"/>
<path d="M522.42 161.328V173.62C522.377 173.522 522.355 173.416 522.355 173.308V161.016C522.355 161.123 522.377 161.229 522.42 161.328Z" fill="#1A1051"/>
<path d="M555.491 147.999L555.454 160.282L530.419 174.84L530.456 162.548L555.491 147.999Z" fill="#2C1382"/>
<path d="M530.456 162.548L530.419 174.841L526.172 172.382L526.209 160.099L530.456 162.548Z" fill="#3918A8"/>
<path d="M572.462 162.08V174.373C572.463 174.658 572.442 174.944 572.398 175.226C572.04 177.703 570.168 179.913 567.315 181.574C566.309 182.151 565.253 182.636 564.16 183.023V170.74C565.251 170.344 566.307 169.856 567.315 169.281C570.168 167.621 572.031 165.41 572.398 162.933C572.442 162.651 572.463 162.366 572.462 162.08Z" fill="#2B127F"/>
<path d="M572.462 162.08V174.373C572.463 174.658 572.442 174.944 572.398 175.226C572.04 177.703 570.168 179.913 567.315 181.574C566.309 182.151 565.253 182.636 564.16 183.023V170.74C565.251 170.344 566.307 169.856 567.315 169.281C570.168 167.621 572.031 165.41 572.398 162.933C572.442 162.651 572.463 162.366 572.462 162.08Z" fill="#2B127F"/>
<path d="M533.667 164.401L533.63 176.684L530.419 174.84L530.456 162.548L533.667 164.401Z" fill="#201465"/>
<path d="M558.701 149.852L558.664 162.144L533.63 176.684L533.667 164.401L558.701 149.852Z" fill="#19104F"/>
<path d="M572.462 162.08V174.373C572.463 174.658 572.442 174.944 572.398 175.226C572.04 177.703 570.168 179.913 567.315 181.574C566.309 182.151 565.253 182.636 564.16 183.023V170.74C565.251 170.344 566.307 169.856 567.315 169.281C570.168 167.621 572.031 165.41 572.398 162.933C572.442 162.651 572.463 162.366 572.462 162.08Z" fill="#2B127F"/>
<path d="M528.869 165.327L528.832 177.611L522.989 174.235L523.025 161.942L528.869 165.327Z" fill="#201465"/>
<path d="M536.611 166.098L536.575 178.391L533.63 176.684L533.667 164.401L536.611 166.098Z" fill="#3918A8"/>
<path d="M572.462 162.08V174.373C572.463 174.658 572.442 174.944 572.398 175.226C572.04 177.703 570.168 179.913 567.315 181.574C566.309 182.151 565.253 182.636 564.16 183.023V170.74C565.251 170.344 566.307 169.856 567.315 169.281C570.168 167.621 572.031 165.41 572.398 162.933C572.442 162.651 572.463 162.366 572.462 162.08Z" fill="#2B127F"/>
<path d="M542.134 169.291L542.097 181.574L536.575 178.391L536.611 166.098L542.134 169.291Z" fill="#3918A8"/>
<path d="M537.281 167.034V179.327C537.283 179.216 537.261 179.107 537.217 179.005V166.713C537.26 166.814 537.282 166.924 537.281 167.034Z" fill="#1A1051"/>
<path d="M537.217 166.713V179.005C537.168 178.901 537.103 178.805 537.024 178.721V166.428C537.103 166.512 537.168 166.608 537.217 166.713Z" fill="#1B1156"/>
<path d="M537.024 166.428V178.721C536.906 178.588 536.767 178.476 536.611 178.391V166.098C536.767 166.184 536.906 166.295 537.024 166.428Z" fill="#1D125B"/>
<path d="M572.462 162.08V174.373C572.463 174.658 572.442 174.944 572.398 175.226C572.04 177.703 570.168 179.913 567.315 181.574C566.309 182.151 565.253 182.636 564.16 183.023V170.74C565.251 170.344 566.307 169.856 567.315 169.281C570.168 167.621 572.031 165.41 572.398 162.933C572.442 162.651 572.463 162.366 572.462 162.08Z" fill="#2B127F"/>
<path d="M572.462 162.08V174.373C572.463 174.658 572.442 174.944 572.398 175.226C572.04 177.703 570.168 179.913 567.315 181.574C566.309 182.151 565.253 182.636 564.16 183.023V170.74C565.251 170.344 566.307 169.856 567.315 169.281C570.168 167.621 572.031 165.41 572.398 162.933C572.442 162.651 572.463 162.366 572.462 162.08Z" fill="#2B127F"/>
<path d="M533.428 167.951L533.391 180.243L528.832 177.611L528.869 165.327L533.428 167.951Z" fill="#201465"/>
<path d="M537.281 167.034V179.326C537.263 179.524 537.192 179.713 537.075 179.874C536.959 180.036 536.803 180.163 536.621 180.244C536.494 180.321 536.359 180.382 536.217 180.427V168.144C536.358 168.092 536.493 168.028 536.621 167.951C536.803 167.871 536.961 167.744 537.077 167.583C537.193 167.421 537.264 167.232 537.281 167.034Z" fill="#180F4C"/>
<path d="M536.217 168.189V180.473C536.058 180.538 535.892 180.584 535.722 180.61V168.318C535.893 168.29 536.062 168.247 536.226 168.189" fill="#1A1051"/>
<path d="M535.713 168.272V180.565C535.537 180.6 535.359 180.621 535.181 180.629V168.336C535.356 168.329 535.531 168.307 535.704 168.272" fill="#1B1156"/>
<path d="M535.19 168.336V180.629C534.955 180.647 534.718 180.647 534.483 180.629V168.336C534.718 168.359 534.955 168.359 535.19 168.336Z" fill="#1D125B"/>
<path d="M534.483 168.3V180.592C534.117 180.542 533.763 180.427 533.438 180.253V167.96C533.762 168.139 534.116 168.254 534.483 168.3Z" fill="#1E1360"/>
<path d="M538.941 171.143L538.914 183.436L528.832 177.611L528.869 165.327L538.941 171.143Z" fill="#201465"/>
<path d="M572.462 162.08V174.373C572.463 174.658 572.442 174.944 572.398 175.226C572.04 177.703 570.168 179.913 567.315 181.574C566.309 182.151 565.253 182.636 564.16 183.023V170.74C565.251 170.344 566.307 169.856 567.315 169.281C570.168 167.621 572.031 165.41 572.398 162.933C572.442 162.651 572.463 162.366 572.462 162.08Z" fill="#2B127F"/>
<path d="M564.16 170.74V183.023C562.878 183.482 561.562 183.837 560.224 184.087V171.795C561.563 171.551 562.879 171.198 564.16 170.74Z" fill="#2E1386"/>
<path d="M560.224 171.795V184.087C558.996 184.312 557.755 184.459 556.509 184.528V172.235C557.755 172.167 558.996 172.02 560.224 171.795Z" fill="#31158F"/>
<path d="M556.509 172.235L556.472 184.527L556.325 184.537L556.362 172.244L556.509 172.235Z" fill="#36179F"/>
<path d="M556.362 172.245V184.537H555.94V172.245H556.362Z" fill="#31158F"/>
<path d="M555.94 172.263V184.556C554.101 184.634 552.258 184.542 550.436 184.28V171.988C552.258 172.249 554.101 172.341 555.94 172.263Z" fill="#331697"/>
<path d="M550.408 171.988V184.28C547.534 183.911 544.753 183.012 542.207 181.629V169.336C544.748 170.723 547.527 171.623 550.399 171.988" fill="#3617A0"/>
<path d="M542.216 169.336V181.629L542.134 181.583V169.291L542.216 169.336Z" fill="#331697"/>
<path d="M576.984 162.089V174.382C576.984 174.741 576.957 175.1 576.902 175.455C576.452 178.556 574.104 181.345 570.48 183.427C569.218 184.153 567.895 184.767 566.526 185.262V172.969C567.898 172.474 569.224 171.86 570.489 171.134C574.058 169.061 576.415 166.263 576.865 163.163C576.92 162.808 576.947 162.449 576.948 162.089" fill="#180F4C"/>
<path d="M566.563 172.96V185.253C564.949 185.824 563.293 186.269 561.609 186.583V174.29C563.29 173.978 564.943 173.533 566.554 172.96" fill="#1A1051"/>
<path d="M561.619 174.29V186.583C560.078 186.863 558.522 187.047 556.958 187.133V174.84C558.522 174.759 560.079 174.575 561.619 174.29Z" fill="#1B1156"/>
<path d="M556.958 174.84L556.922 187.133L556.784 187.142L556.812 174.85L556.958 174.84Z" fill="#1E1360"/>
<path d="M556.812 174.85V187.142H556.271V174.85H556.812Z" fill="#1B1156"/>
<path d="M556.271 174.877V187.17C553.95 187.267 551.625 187.15 549.326 186.821V174.538C551.623 174.863 553.944 174.977 556.261 174.877" fill="#1D125B"/>
<path d="M549.372 174.538V186.821C545.768 186.356 542.281 185.226 539.088 183.491V171.199C542.281 172.937 545.767 174.069 549.372 174.538Z" fill="#1E1360"/>
<path d="M539.052 171.199V183.491L538.951 183.427V171.144L539.061 171.199" fill="#1D125B"/>
<path d="M600.955 161.392V420.645C600.698 427.755 595.882 434.8 586.625 440.176C586.093 440.487 585.543 440.79 584.974 441.093C582.652 442.317 580.245 443.375 577.773 444.258V185.004C580.245 184.118 582.652 183.057 584.974 181.83C585.543 181.537 586.093 181.225 586.625 180.913C595.882 175.528 600.744 168.492 600.955 161.392Z" fill="#2D1C8D"/>
<path d="M577.81 185.004V444.258C574.228 445.544 570.546 446.532 566.802 447.212V187.949C570.545 187.267 574.226 186.282 577.81 185.004Z" fill="#2E1D90"/>
<path d="M566.801 187.949V447.212C562.999 447.914 559.152 448.344 555.289 448.496V189.243C559.152 189.082 562.999 188.65 566.801 187.949Z" fill="#321D98"/>
<path d="M555.298 189.289V448.542C553.72 448.606 552.133 448.634 550.546 448.606C546.957 448.563 543.375 448.287 539.822 447.781V188.518C543.375 189.028 546.957 189.306 550.546 189.353C552.124 189.353 553.72 189.353 555.298 189.289Z" fill="#3818A6"/>
<path d="M539.822 188.472V447.735C531.827 446.706 524.094 444.199 517.017 440.341V181.087C524.093 184.945 531.827 187.449 539.822 188.472Z" fill="#3F1AB9"/>
<path d="M517.017 181.088V440.341L516.788 440.213C516.246 439.901 515.714 439.58 515.2 439.295C512.452 437.599 509.949 435.534 507.761 433.158V173.896C509.947 176.272 512.447 178.34 515.191 180.042C515.717 180.372 516.249 180.678 516.788 180.959L517.017 181.088Z" fill="#3F1AB9"/>
<path d="M507.761 173.849V433.112C506.05 431.242 504.659 429.104 503.642 426.782V167.529C504.665 169.846 506.059 171.981 507.77 173.849" fill="#3818A6"/>
<path d="M503.633 167.529V426.782C502.675 424.592 502.182 422.228 502.183 419.838V160.584C502.191 162.974 502.684 165.336 503.633 167.529Z" fill="#321D98"/>
<path d="M567.232 154.778L558.701 149.852L533.667 164.401L536.611 166.098L542.115 169.29C545.867 171.455 551.087 172.538 556.343 172.244H556.49C560.272 172.105 563.97 171.094 567.297 169.29C570.15 167.63 572.012 165.419 572.379 162.942C572.847 159.933 570.948 156.924 567.232 154.778Z" fill="#5A3AF8"/>
<path d="M587.966 141.412C587.443 141.091 586.911 140.77 586.37 140.495C577.068 135.119 564.894 132.312 552.62 132.137C540.346 131.963 527.934 134.44 518.173 139.614C517.614 139.917 517.063 140.219 516.522 140.531C507.275 145.907 502.459 152.952 502.202 160.062C501.945 167.171 506.239 174.363 515.192 180.033C515.718 180.363 516.25 180.669 516.788 180.95C526.09 186.316 538.263 189.133 550.547 189.298C562.83 189.463 575.224 186.995 584.984 181.821C585.553 181.528 586.104 181.216 586.636 180.904C595.882 175.528 600.744 168.492 600.955 161.392C601.166 154.292 596.919 147.09 587.966 141.412ZM570.536 171.134C566.357 173.388 561.713 174.644 556.968 174.804H556.822C550.217 175.171 543.667 173.813 538.952 171.134L528.861 165.318L523.017 161.933C522.1 161.429 522.1 160.594 523.017 160.098C523.513 159.846 524.061 159.714 524.618 159.714C525.174 159.714 525.723 159.846 526.219 160.098L530.466 162.548L555.491 148.008L551.207 145.549C551.025 145.475 550.869 145.348 550.759 145.185C550.649 145.021 550.591 144.829 550.591 144.632C550.591 144.435 550.649 144.243 550.759 144.079C550.869 143.916 551.025 143.789 551.207 143.715C551.704 143.466 552.252 143.336 552.808 143.336C553.364 143.336 553.912 143.466 554.409 143.715L564.812 149.723L570.398 152.952C575.068 155.649 577.435 159.374 576.875 163.19C576.444 166.263 574.141 169.107 570.527 171.134H570.536Z" fill="#5A3AF8"/>
<path d="M564.838 149.696C565.024 149.766 565.184 149.892 565.297 150.056C565.41 150.22 565.471 150.414 565.471 150.613C565.471 150.812 565.41 151.006 565.297 151.17C565.184 151.334 565.024 151.46 564.838 151.53C564.343 151.783 563.794 151.915 563.238 151.915C562.681 151.915 562.132 151.783 561.637 151.53L555.49 148.008L551.206 145.549C551.024 145.475 550.868 145.348 550.758 145.185C550.649 145.021 550.59 144.829 550.59 144.632C550.59 144.435 550.649 144.243 550.758 144.079C550.868 143.916 551.024 143.789 551.206 143.715C551.703 143.466 552.251 143.336 552.807 143.336C553.363 143.336 553.911 143.466 554.408 143.715L564.838 149.696Z" fill="#2D1C8D"/>
<path d="M536.611 166.098C536.797 166.169 536.958 166.294 537.07 166.458C537.183 166.622 537.244 166.816 537.244 167.015C537.244 167.214 537.183 167.409 537.07 167.572C536.958 167.736 536.797 167.862 536.611 167.933C536.118 168.186 535.57 168.318 535.015 168.318C534.46 168.318 533.913 168.186 533.419 167.933L528.832 165.309L522.989 161.924C522.071 161.419 522.071 160.585 522.989 160.089C523.485 159.836 524.033 159.705 524.59 159.705C525.146 159.705 525.695 159.836 526.19 160.089L530.438 162.539L533.648 164.373L536.611 166.098Z" fill="#2D1C8D"/>
<path d="M570.471 152.925C575.14 155.622 577.507 159.346 576.947 163.163C576.498 166.263 574.14 169.061 570.572 171.134C566.393 173.388 561.749 174.644 557.004 174.804H556.857C550.252 175.171 543.703 173.813 538.987 171.134L528.896 165.318L533.483 167.942C533.977 168.195 534.524 168.328 535.079 168.328C535.635 168.328 536.182 168.195 536.676 167.942C536.862 167.871 537.022 167.745 537.135 167.582C537.248 167.418 537.308 167.224 537.308 167.025C537.308 166.826 537.248 166.631 537.135 166.467C537.022 166.304 536.862 166.178 536.676 166.107L542.18 169.3C545.932 171.465 551.152 172.547 556.408 172.253H556.555C560.336 172.114 564.034 171.103 567.361 169.3C570.214 167.639 572.076 165.428 572.443 162.952C572.893 159.924 570.994 156.943 567.279 154.796L558.747 149.87L533.713 164.419L530.502 162.585L555.491 148.008L561.646 151.558C562.142 151.811 562.69 151.943 563.247 151.943C563.803 151.943 564.352 151.811 564.848 151.558C565.034 151.487 565.194 151.362 565.307 151.198C565.419 151.034 565.48 150.84 565.48 150.641C565.48 150.442 565.419 150.247 565.307 150.084C565.194 149.92 565.034 149.794 564.848 149.723L570.471 152.925Z" fill="#2D1C8D"/>
<path d="M459.664 94.4435V106.718C459.542 106.589 459.403 106.478 459.251 106.387V94.1133C459.405 94.1977 459.544 94.3061 459.664 94.4344" fill="#331697"/>
<path d="M459.242 94.1133V106.388C458.918 106.208 458.563 106.093 458.196 106.048V93.7739C458.562 93.8227 458.916 93.9377 459.242 94.1133Z" fill="#3617A0"/>
<path d="M458.196 93.7742V106.048C457.961 106.025 457.725 106.025 457.49 106.048V93.7834C457.725 93.7603 457.961 93.7603 458.196 93.7834" fill="#331697"/>
<path d="M457.49 93.7465V106.012H457.086V93.7465C457.22 93.7375 457.355 93.7375 457.49 93.7465Z" fill="#31158F"/>
<path d="M459.663 94.444V106.718C459.542 106.59 459.403 106.478 459.25 106.388V94.1138C459.404 94.1982 459.544 94.3066 459.663 94.4348" fill="#331697"/>
<path d="M459.92 95.0497V107.324C459.917 107.214 459.895 107.106 459.856 107.003V94.7378C459.902 94.8355 459.927 94.9417 459.929 95.0497" fill="#2E1386"/>
<path d="M459.847 94.7374V107.002C459.798 106.898 459.733 106.802 459.654 106.718V94.4438C459.734 94.5292 459.796 94.6288 459.838 94.7374" fill="#31158F"/>
<path d="M459.663 94.444V106.718C459.542 106.59 459.403 106.478 459.25 106.388V94.1138C459.404 94.1982 459.544 94.3066 459.663 94.4348" fill="#331697"/>
<path d="M459.921 95.0493V107.324C459.917 107.434 459.892 107.543 459.847 107.645V95.3704C459.894 95.2698 459.919 95.1603 459.921 95.0493Z" fill="#180F4C"/>
<path d="M457.086 93.7832L457.049 106.048L422.786 111.176L422.822 98.902L457.086 93.7832Z" fill="#34169A"/>
<path d="M422.823 98.9023V111.177H422.639V98.9115H422.823" fill="#31158F"/>
<path d="M422.639 98.939V111.204C422.521 111.223 422.405 111.25 422.291 111.287L422.135 111.342V99.0674L422.291 99.0215C422.404 98.9843 422.521 98.9567 422.639 98.939Z" fill="#2E1386"/>
<path d="M425.336 99.5808V111.855C425.219 111.721 425.08 111.609 424.923 111.525V99.2598C425.077 99.3442 425.216 99.4526 425.336 99.5808Z" fill="#1D125B"/>
<path d="M424.914 99.2505V111.516C424.588 111.344 424.234 111.229 423.869 111.176V98.9111C424.235 98.9599 424.589 99.0749 424.914 99.2505Z" fill="#1E1360"/>
<path d="M423.868 98.9112V111.176C423.633 111.158 423.397 111.158 423.162 111.176V98.9021C423.397 98.879 423.634 98.879 423.868 98.9021" fill="#1D125B"/>
<path d="M423.162 98.8745V111.149C423.049 111.14 422.936 111.14 422.823 111.149V98.8745H423.162Z" fill="#1B1156"/>
<path d="M422.639 98.939V111.204C422.521 111.223 422.405 111.25 422.291 111.287L422.135 111.342V99.0674L422.291 99.0215C422.404 98.9843 422.521 98.9567 422.639 98.939Z" fill="#2E1386"/>
<path d="M422.135 99.0674V111.342C421.862 111.431 421.612 111.578 421.401 111.773V99.4985C421.613 99.3056 421.863 99.1588 422.135 99.0674Z" fill="#2B127F"/>
<path d="M422.135 99.0674V111.342C421.862 111.431 421.612 111.578 421.401 111.773V99.4985C421.613 99.3056 421.863 99.1588 422.135 99.0674Z" fill="#2B127F"/>
<path d="M425.336 99.5811L425.299 111.855V111.846L425.336 99.5811Z" fill="#1B1156"/>
<path d="M425.336 99.5808V111.855C425.219 111.721 425.08 111.609 424.923 111.525V99.2598C425.077 99.3442 425.216 99.4526 425.336 99.5808Z" fill="#1D125B"/>
<path d="M421.401 99.4985V111.773C421.135 112.121 421.107 112.213 421.089 112.314V100.04C421.089 99.948 421.135 99.8563 421.401 99.4985Z" fill="#2B127F"/>
<path d="M421.401 99.4985V111.773C421.135 112.121 421.107 112.213 421.089 112.314V100.04C421.089 99.948 421.135 99.8563 421.401 99.4985Z" fill="#2B127F"/>
<path d="M421.089 100.04L421.052 112.314L416.988 129.45L417.025 117.176L421.089 100.04Z" fill="#281177"/>
<path d="M421.089 100.04V112.314C421.084 112.356 421.084 112.4 421.089 112.442V100.177C421.084 100.131 421.084 100.085 421.089 100.04Z" fill="#180F4C"/>
<path d="M421.328 100.783V113.048C421.25 112.964 421.188 112.868 421.144 112.763V100.489C421.195 100.595 421.26 100.694 421.337 100.783" fill="#1B1156"/>
<path d="M421.135 100.489V112.763C421.087 112.663 421.065 112.553 421.071 112.442V100.177C421.074 100.284 421.095 100.39 421.135 100.489Z" fill="#1A1051"/>
<path d="M454.526 96.8657L454.49 109.14L426.602 113.305L426.639 101.04L454.526 96.8657Z" fill="#1D125D"/>
<path d="M426.639 101.04L426.602 113.305L425.299 111.855L425.336 99.5811L426.639 101.04Z" fill="#1E135E"/>
<path d="M424.602 104.452L424.565 116.717L421.291 113.048L421.327 100.783L424.602 104.452Z" fill="#1E135E"/>
<path d="M433.712 108.965L433.675 121.231L426.602 113.305L426.639 101.04L433.712 108.965Z" fill="#35179C"/>
<path d="M430.033 110.534L429.996 122.799L424.565 116.717L424.602 104.452L430.033 110.534Z" fill="#1E135E"/>
<path d="M431.033 111.103V123.368C430.839 123.311 430.651 123.235 430.473 123.138V110.864C430.651 110.963 430.838 111.043 431.033 111.103Z" fill="#1E1360"/>
<path d="M430.455 110.865V123.139C430.302 123.057 430.166 122.948 430.051 122.818V110.553C430.173 110.678 430.312 110.786 430.464 110.874" fill="#1D125B"/>
<path d="M430.033 110.543L430.005 122.808L429.996 122.799L430.033 110.534V110.543Z" fill="#1B1156"/>
<path d="M447.417 113.039L447.38 125.304L433.675 121.231L433.711 108.966L447.417 113.039Z" fill="#3A19AB"/>
<path d="M454.527 96.8657L454.49 109.14L447.38 125.304L447.417 113.039L454.527 96.8657Z" fill="#281177"/>
<path d="M449.931 113.782L449.903 126.056L447.38 125.304L447.417 113.039L449.931 113.782Z" fill="#211467"/>
<path d="M450.912 114.341V126.615C450.792 126.487 450.653 126.379 450.499 126.294V114.029C450.649 114.12 450.787 114.227 450.912 114.35" fill="#1D125B"/>
<path d="M450.49 114.066V126.331C450.316 126.233 450.131 126.157 449.939 126.102V113.828C450.131 113.887 450.316 113.967 450.49 114.066Z" fill="#1E1360"/>
<path d="M441.537 114.222L441.509 126.496L430.978 123.368L431.015 111.103L441.537 114.222Z" fill="#211467"/>
<path d="M451.215 114.983V127.248C451.212 127.141 451.19 127.036 451.15 126.936V114.662C451.193 114.764 451.215 114.873 451.215 114.983Z" fill="#1A1051"/>
<path d="M451.095 114.635V126.909C451.047 126.802 450.982 126.703 450.903 126.616V114.341C450.98 114.428 451.042 114.527 451.086 114.635" fill="#1B1156"/>
<path d="M450.912 114.341V126.615C450.792 126.487 450.653 126.379 450.499 126.294V114.029C450.649 114.12 450.787 114.227 450.912 114.35" fill="#1D125B"/>
<path d="M459.847 95.3706L459.81 107.645L451.068 127.542L451.095 115.277L459.847 95.3706Z" fill="#170E47"/>
<path d="M451.215 114.983V127.248C451.207 127.471 451.119 127.683 450.967 127.845C450.892 127.923 450.812 127.996 450.729 128.065V115.791C450.819 115.727 450.903 115.653 450.976 115.571C451.123 115.409 451.207 115.201 451.215 114.983Z" fill="#180F4C"/>
<path d="M451.095 115.277V127.542C451.005 127.741 450.862 127.912 450.683 128.037V115.763C450.866 115.643 451.012 115.475 451.105 115.277" fill="#180F4C"/>
<path d="M451.095 115.277V127.542C451.005 127.741 450.862 127.912 450.683 128.037V115.763C450.866 115.643 451.012 115.475 451.105 115.277" fill="#180F4C"/>
<path d="M424.602 104.452L424.566 116.717L421.869 128.092L421.905 115.827L424.602 104.452Z" fill="#170E47"/>
<path d="M441.537 114.222L441.509 126.496L421.869 128.093L421.905 115.828L441.537 114.222Z" fill="#36179E"/>
<path d="M447.885 116.112L447.848 128.377L441.509 126.496L441.537 114.222L447.885 116.112Z" fill="#211467"/>
<path d="M449.178 116.25L449.151 128.515L419.548 130.927L419.585 118.653L449.178 116.25Z" fill="#1E135F"/>
<path d="M450.673 115.763V128.037C450.483 128.157 450.28 128.256 450.068 128.331V116.066C450.279 115.991 450.479 115.889 450.664 115.763" fill="#180F4C"/>
<path d="M450.077 116.066V128.331C449.918 128.386 449.755 128.432 449.591 128.469V116.194C449.76 116.167 449.925 116.124 450.086 116.066" fill="#1A1051"/>
<path d="M449.582 116.194V128.468H449.169H449.068V116.194H449.169C449.304 116.185 449.439 116.167 449.572 116.139" fill="#1B1156"/>
<path d="M449.077 116.25V128.524C448.845 128.547 448.612 128.547 448.38 128.524V116.259C448.615 116.277 448.851 116.277 449.086 116.259" fill="#1D125B"/>
<path d="M448.371 116.222V128.487C448.203 128.466 448.037 128.429 447.875 128.377V116.112C448.035 116.158 448.198 116.195 448.362 116.222" fill="#1E1360"/>
<path d="M417.025 117.176V129.45C417.02 129.508 417.02 129.566 417.025 129.624V117.359C417.016 117.298 417.016 117.237 417.025 117.176Z" fill="#2B127F"/>
<path d="M419.584 118.653V130.918H419.438V118.653H419.593" fill="#1B1156"/>
<path d="M419.428 118.653V130.918C419.193 130.941 418.957 130.941 418.722 130.918V118.653C418.954 118.672 419.187 118.672 419.419 118.653" fill="#1D125B"/>
<path d="M418.731 118.653V130.918C418.364 130.87 418.01 130.755 417.685 130.579V118.313C418.013 118.489 418.371 118.604 418.74 118.653" fill="#1E1360"/>
<path d="M417.676 118.295V130.56C417.523 130.478 417.387 130.369 417.272 130.239V117.974C417.392 118.102 417.531 118.211 417.685 118.295" fill="#1D125B"/>
<path d="M417.272 117.965V130.23C417.193 130.143 417.128 130.044 417.08 129.936V117.671C417.122 117.78 417.184 117.88 417.263 117.965" fill="#1B1156"/>
<path d="M417.071 117.671V129.936C417.027 129.838 417.005 129.732 417.006 129.624V117.359C417.006 117.467 417.027 117.573 417.071 117.671Z" fill="#1A1051"/>
<path d="M487.753 106.883V420.691C487.496 427.792 482.689 434.828 473.46 440.185C472.919 440.497 472.369 440.809 471.8 441.103C469.484 442.327 467.083 443.384 464.617 444.267V130.459C467.083 129.574 469.483 128.516 471.8 127.294C472.369 127 472.919 126.688 473.451 126.377C482.689 121.01 487.496 113.983 487.753 106.883Z" fill="#2D1C8D"/>
<path d="M464.617 130.459V444.268C461.052 445.544 457.389 446.529 453.664 447.212V133.404C457.407 132.723 461.089 131.738 464.672 130.459" fill="#2E1D90"/>
<path d="M453.655 133.404V447.212C449.862 447.914 446.024 448.344 442.169 448.497V134.688C446.023 134.531 449.861 134.102 453.655 133.404Z" fill="#321D98"/>
<path d="M442.169 134.688V448.497C440.582 448.561 438.995 448.588 437.417 448.561C433.835 448.517 430.259 448.241 426.712 447.735V133.927C430.259 134.433 433.835 134.709 437.417 134.752C438.995 134.752 440.582 134.752 442.16 134.688" fill="#3818A6"/>
<path d="M426.721 133.927V447.735C418.746 446.721 411.028 444.233 403.962 440.397V126.588C411.032 130.423 418.752 132.911 426.731 133.927" fill="#3F1ABA"/>
<path d="M403.953 126.551V440.36L403.723 440.231C403.182 439.919 402.65 439.598 402.136 439.268C399.392 437.577 396.894 435.515 394.715 433.14V119.332C396.893 121.704 399.387 123.766 402.127 125.459C402.65 125.79 403.182 126.111 403.723 126.377L403.943 126.514" fill="#3F1AB9"/>
<path d="M394.724 119.332V433.14C393.011 431.275 391.62 429.14 390.605 426.82V113.011C391.625 115.33 393.019 117.466 394.733 119.332" fill="#3818A6"/>
<path d="M390.596 113.011V426.82C389.643 424.638 389.15 422.283 389.146 419.903V106.085C389.151 108.468 389.641 110.824 390.587 113.011" fill="#321D98"/>
<path d="M474.773 86.9491C474.259 86.6188 473.737 86.2977 473.195 86.0317C463.903 80.6744 451.748 77.8673 439.501 77.7021C427.254 77.537 414.852 79.9955 405.118 85.1602C404.55 85.4629 403.999 85.7657 403.467 86.0776C394.229 91.3982 389.423 98.471 389.166 105.525C388.909 112.58 393.202 119.8 402.137 125.46C402.66 125.79 403.192 126.111 403.733 126.377C413.017 131.743 425.172 134.551 437.428 134.716C449.684 134.881 462.059 132.422 471.801 127.258C472.37 126.964 472.92 126.652 473.452 126.34C482.69 120.974 487.497 113.947 487.754 106.846C488.011 99.7461 483.727 92.6091 474.773 86.9491ZM459.848 95.3704L451.096 115.277C450.983 115.504 450.808 115.695 450.592 115.827C450.162 116.082 449.677 116.227 449.179 116.249L419.585 118.653C418.923 118.718 418.256 118.587 417.668 118.277C417.163 117.983 416.925 117.58 417.026 117.167L421.09 100.031C421.09 99.9388 421.135 99.8471 421.401 99.4893C421.663 99.2563 421.978 99.0924 422.319 99.0123C422.493 98.9585 422.671 98.9186 422.851 98.893L457.114 93.7742C457.853 93.649 458.613 93.7681 459.279 94.1136C459.82 94.453 460.05 94.93 459.848 95.3704Z" fill="#5A3AF8"/>
<path d="M426.639 101.04L454.526 96.8657L447.417 113.039L433.711 108.966L426.639 101.04Z" fill="#5A3AF8"/>
<path d="M430.446 110.864C430.627 110.964 430.817 111.043 431.015 111.103L441.537 114.231L421.905 115.827L424.611 104.443L430.042 110.534C430.161 110.662 430.297 110.773 430.446 110.864Z" fill="#5A3AF8"/>
<path d="M447.885 116.112C448.305 116.231 448.742 116.278 449.178 116.25L419.584 118.653C418.922 118.718 418.255 118.587 417.667 118.277C417.162 117.983 416.924 117.58 417.025 117.167L421.089 100.031C421.067 100.165 421.078 100.302 421.119 100.431C421.16 100.56 421.232 100.677 421.327 100.774L424.602 104.443L421.905 115.828L441.536 114.231L447.885 116.112Z" fill="#2D1C8D"/>
<path d="M459.847 95.3703L451.096 115.277C451.003 115.475 450.857 115.644 450.674 115.763C450.764 115.7 450.848 115.626 450.921 115.543C451.38 115.029 451.178 114.415 450.499 114.02C450.322 113.921 450.134 113.841 449.94 113.782L447.417 113.039L454.527 96.8656L426.639 101.04L425.336 99.581C425.217 99.4527 425.077 99.3443 424.923 99.2599C424.279 98.9213 423.543 98.796 422.823 98.9021L457.086 93.7833C457.825 93.6581 458.585 93.7772 459.251 94.1227C459.82 94.453 460.049 94.93 459.847 95.3703Z" fill="#2D1C8D"/>
<path d="M450.499 114.066C451.178 114.46 451.416 115.075 450.921 115.589C450.847 115.672 450.764 115.745 450.673 115.809C450.227 116.101 449.711 116.268 449.178 116.295C448.742 116.323 448.305 116.277 447.885 116.157L441.536 114.323L431.033 111.103C430.835 111.043 430.645 110.964 430.464 110.864C430.312 110.774 430.173 110.663 430.051 110.534L424.611 104.443L421.336 100.773C421.241 100.677 421.17 100.56 421.128 100.43C421.087 100.301 421.076 100.164 421.098 100.03C421.115 99.9334 421.149 99.8403 421.199 99.7552C421.478 99.3974 421.863 99.1372 422.3 99.0121C423.174 98.7429 424.12 98.8286 424.932 99.2506C425.086 99.3351 425.225 99.4434 425.345 99.5717L426.648 101.03L433.721 108.956L447.426 113.029L449.949 113.772C450.142 113.85 450.327 113.948 450.499 114.066Z" fill="#2D1C8D"/>
<path d="M374.634 227.267V420.691C374.34 427.801 369.57 434.828 360.296 440.185C359.763 440.497 359.213 440.809 358.644 441.102C356.329 442.342 353.929 443.415 351.461 444.313V250.889C353.927 250.004 356.327 248.946 358.644 247.724C359.213 247.421 359.763 247.119 360.296 246.807C369.533 241.44 374.34 234.413 374.597 227.313" fill="#2D1C8D"/>
<path d="M351.498 250.843V444.267C347.933 445.544 344.27 446.529 340.545 447.212V253.788C344.288 253.107 347.97 252.123 351.553 250.843" fill="#2E1D90"/>
<path d="M340.536 253.788V447.212C336.743 447.914 332.905 448.343 329.051 448.497V255.072C332.905 254.915 336.743 254.486 340.536 253.788Z" fill="#321D98"/>
<path d="M329.051 255.072V448.497C327.464 448.561 325.877 448.588 324.299 448.561C320.716 448.517 317.14 448.242 313.593 447.735V254.311C317.14 254.817 320.716 255.093 324.299 255.137C325.877 255.137 327.464 255.137 329.042 255.072" fill="#3818A6"/>
<path d="M313.612 254.311V447.735C305.633 446.72 297.912 444.231 290.843 440.396V246.972C297.912 250.807 305.633 253.296 313.612 254.311Z" fill="#3F1AB9"/>
<path d="M290.834 246.935V440.359C290.219 440.011 289.614 439.644 288.999 439.268C286.259 437.575 283.765 435.513 281.587 433.14L281.596 239.743C283.782 242.114 286.278 244.178 289.017 245.88C289.54 246.211 290.072 246.522 290.605 246.798L290.834 246.935Z" fill="#3F1AB9"/>
<path d="M281.596 239.744V433.177C279.884 431.312 278.492 429.176 277.477 426.856V233.432C278.495 235.748 279.886 237.88 281.596 239.744Z" fill="#3818A6"/>
<path d="M277.477 233.395V426.819C276.477 424.544 276 241.064 276 238.743V226.469C276 228.852 276.49 231.21 277.44 233.395" fill="#321D98"/>
<path d="M374.634 227.267C374.377 234.368 369.57 241.394 360.332 246.761C359.8 247.073 359.25 247.376 358.681 247.678C348.939 252.843 336.545 255.338 324.308 255.136C312.07 254.935 299.897 252.164 290.604 246.798C290.072 246.486 289.54 246.174 289.017 245.88C280.073 240.22 275.78 233.037 276.046 225.946C276.312 218.855 281.11 211.81 290.347 206.452C290.879 206.141 291.43 205.838 291.999 205.535C301.732 200.37 314.125 197.903 326.372 198.077C338.619 198.251 350.783 201.049 360.066 206.407C360.608 206.718 361.14 207.04 361.653 207.324C370.598 212.984 374.891 220.167 374.634 227.267Z" fill="#5A3AF8"/>
<path d="M334.436 211.792C334.574 211.872 334.7 211.971 334.812 212.085L338.197 215.571L338.289 215.654L339.132 216.525L341.352 218.809L344.343 221.892L346.178 223.791L346.526 224.176C346.948 224.644 347.251 225.207 347.411 225.816C347.571 226.426 347.582 227.065 347.444 227.68C347.202 228.43 346.813 229.124 346.3 229.721C345.786 230.318 345.158 230.806 344.453 231.157C343.718 231.579 342.94 231.92 342.132 232.175L338.463 233.368C336.717 233.913 334.881 234.11 333.06 233.946C332.83 233.946 332.601 233.946 332.381 233.872C330.945 233.699 329.556 233.25 328.289 232.551C327.755 232.267 327.264 231.909 326.831 231.487L324.758 229.359L318.969 223.396L317.859 222.249C317.254 221.635 317.611 220.855 318.657 220.488C319.566 220.195 320.553 220.267 321.409 220.69C321.547 220.767 321.674 220.862 321.785 220.974L322.895 222.112L330.757 230.212C330.957 230.412 331.182 230.585 331.427 230.726C332.13 231.104 332.905 231.326 333.702 231.377C334.559 231.457 335.423 231.363 336.243 231.102L339.912 229.909C340.38 229.765 340.829 229.568 341.252 229.322C341.66 229.121 342.023 228.838 342.318 228.491C342.613 228.143 342.834 227.74 342.967 227.304C343.056 226.9 343.035 226.48 342.908 226.087C342.781 225.693 342.551 225.341 342.242 225.066L341.536 224.341L341.472 224.268L335.408 218.03L333.188 215.745L330.867 213.36C330.262 212.727 330.647 211.929 331.729 211.581C332.624 211.291 333.597 211.367 334.436 211.792Z" fill="#2D1C8D"/>
<path d="M333.197 215.746L335.417 218.03L322.905 222.094L321.795 220.956C321.683 220.844 321.557 220.749 321.418 220.672C320.604 220.258 319.661 220.173 318.786 220.433L333.197 215.746Z" fill="#2D1C8D"/>
<path d="M352.443 220.754C353.058 221.387 352.672 222.185 351.59 222.534L346.535 224.148L346.187 223.763L344.352 221.864L349.388 220.249C350.282 219.97 351.249 220.049 352.085 220.47C352.218 220.546 352.339 220.642 352.443 220.754Z" fill="#2D1C8D"/>
<path d="M324.758 229.341L326.831 231.487C327.264 231.909 327.755 232.267 328.289 232.551C329.57 233.256 330.975 233.705 332.427 233.872C332.422 233.9 332.422 233.928 332.427 233.955C332.23 234.551 331.916 235.101 331.503 235.574C331.09 236.046 330.587 236.432 330.023 236.707C329.443 237.047 328.828 237.324 328.188 237.533L322.684 239.367C320.938 239.911 319.103 240.11 317.281 239.954C315.594 239.837 313.951 239.359 312.465 238.551C311.943 238.258 311.464 237.894 311.043 237.468L309.768 236.157L307.557 233.881L304.438 230.79L302.218 228.506L301.301 227.588L297.861 224.047C297.255 223.414 297.631 222.616 298.723 222.268C299.615 221.98 300.584 222.056 301.42 222.479C301.558 222.556 301.684 222.652 301.796 222.763L304.117 225.157L306.337 227.442L307.199 228.359L307.254 228.414L314.813 236.193C315.011 236.396 315.236 236.569 315.483 236.707C316.184 237.089 316.961 237.311 317.758 237.358C318.615 237.438 319.479 237.344 320.299 237.083L325.803 235.248C326.123 235.155 326.431 235.026 326.721 234.863C326.989 234.731 327.227 234.546 327.421 234.319C327.615 234.091 327.76 233.827 327.849 233.542C327.907 233.277 327.894 233.001 327.81 232.743C327.726 232.485 327.575 232.254 327.372 232.074L324.868 229.497C324.828 229.447 324.791 229.395 324.758 229.341Z" fill="#2D1C8D"/>
<path d="M318.657 220.479C317.611 220.846 317.253 221.626 317.859 222.24L318.969 223.387L306.401 227.469L304.181 225.185L318.657 220.479Z" fill="#2D1C8D"/>
<path d="M302.245 228.506L304.438 230.79L299.429 232.405C298.537 232.692 297.568 232.616 296.732 232.194C296.592 232.116 296.465 232.017 296.356 231.9C295.741 231.276 296.127 230.478 297.218 230.12L302.245 228.506Z" fill="#2D1C8D"/>
<path d="M307.456 233.872L309.667 236.147L304.64 237.789C303.747 238.074 302.778 237.995 301.943 237.569C301.803 237.495 301.676 237.399 301.567 237.285C300.952 236.652 301.337 235.854 302.42 235.505L307.456 233.872Z" fill="#2D1C8D"/>
<path d="M346.866 215.112C347.002 215.191 347.128 215.287 347.242 215.397C347.847 216.021 347.471 216.819 346.379 217.177L341.352 218.809L339.132 216.525L344.159 214.892C345.055 214.608 346.027 214.687 346.866 215.112Z" fill="#2D1C8D"/>
</g>
<defs>
<clipPath id="clip0">
<rect width="438" height="422.57" fill="white" transform="translate(276 26)"/>
</clipPath>
</defs>
</svg>
