<svg width="178" height="27" viewBox="0 0 178 27" fill="none" xmlns="http://www.w3.org/2000/svg">
<path d="M8.15645 11.2161L13.3428 6.0297L18.5292 11.2161L21.5441 8.20123L13.3428 0L5.1416 8.20123L8.15645 11.2161Z" fill="#0C0E12"/>
<path d="M3.01135 10.3411L0 13.3524L3.01135 16.3638L6.02271 13.3524L3.01135 10.3411Z" fill="#0C0E12"/>
<path d="M8.15645 15.4749L13.3428 20.6612L18.5292 15.4749L21.5652 18.4897H21.5441L13.3428 26.6909L5.1416 18.4897L8.15645 15.4749Z" fill="#0C0E12"/>
<path d="M23.6713 10.3413L20.6599 13.3527L23.6713 16.364L26.6826 13.3527L23.6713 10.3413Z" fill="#0C0E12"/>
<path d="M16.3999 13.3455H16.421L13.3429 10.2885L11.087 12.5443L10.834 12.8184L10.2859 13.3455L13.3429 16.4025L16.421 13.3455H16.3999Z" fill="#0C0E12"/>
<path d="M31.3897 6.47241H37.9465C39.5699 6.47241 40.8138 6.89407 41.636 7.7163C42.2896 8.36987 42.6058 9.17102 42.6058 10.1197V10.1619C42.6058 10.5625 42.5636 10.9209 42.4582 11.2371C42.3528 11.5534 42.2263 11.8275 42.0577 12.0805C41.889 12.3334 41.6993 12.5443 41.4673 12.734C41.2565 12.9238 41.0035 13.0924 40.7505 13.2189C41.5728 13.5352 42.2052 13.9568 42.6901 14.4839C43.154 15.011 43.3859 15.7489 43.3859 16.6976V16.7398C43.3859 17.3933 43.2594 17.9626 43.0064 18.4475C42.7534 18.9324 42.395 19.333 41.9312 19.6703C41.4673 20.0076 40.8981 20.2395 40.2656 20.4082C39.6121 20.5768 38.8952 20.6401 38.0941 20.6401H31.3687V6.47241H31.3897ZM37.314 12.1859C38.0098 12.1859 38.5579 12.0594 38.9585 11.8275C39.3591 11.5955 39.5699 11.2161 39.5699 10.689V10.6468C39.5699 10.183 39.4012 9.82459 39.0428 9.57159C38.6844 9.3186 38.1784 9.1921 37.5248 9.1921H34.4467V12.1859H37.314ZM38.1362 17.8993C38.832 17.8993 39.3591 17.7728 39.7596 17.5198C40.1602 17.2668 40.3499 16.8873 40.3499 16.3603V16.3181C40.3499 15.8543 40.1602 15.4748 39.8018 15.2007C39.4434 14.9266 38.8531 14.7791 38.0519 14.7791H34.4467V17.8993H38.1362Z" fill="#0C0E12"/>
<path d="M47.3284 6.47241H50.4486V20.619H47.3284V6.47241Z" fill="#0C0E12"/>
<path d="M55.1501 6.47241H58.0174L64.6585 15.1796V6.47241H67.7366V20.619H65.0802L58.2282 11.6166V20.619H55.1501V6.47241Z" fill="#0C0E12"/>
<path d="M77.1606 6.36707H80.0279L86.0998 20.6191H82.853L81.567 17.4356H75.5794L74.2934 20.6191H71.1099L77.1606 6.36707ZM80.4285 14.6948L78.5521 10.0987L76.6757 14.6948H80.4285Z" fill="#0C0E12"/>
<path d="M89.4519 6.47241H92.3192L98.9603 15.1796V6.47241H102.038V20.619H99.3819L92.53 11.6166V20.619H89.4519V6.47241Z" fill="#0C0E12"/>
<path d="M113.233 20.872C112.2 20.872 111.231 20.6822 110.345 20.3027C109.46 19.9233 108.68 19.4173 108.047 18.7637C107.394 18.1101 106.888 17.3301 106.529 16.4446C106.171 15.5591 105.981 14.6104 105.981 13.5984V13.5562C105.981 12.5443 106.171 11.5955 106.529 10.71C106.888 9.82456 107.394 9.0445 108.047 8.39093C108.701 7.71628 109.46 7.18921 110.366 6.80972C111.273 6.43022 112.264 6.24048 113.36 6.24048C114.014 6.24048 114.625 6.30373 115.173 6.40914C115.721 6.51456 116.206 6.66214 116.67 6.85188C117.113 7.04163 117.534 7.27354 117.914 7.54762C118.293 7.82169 118.652 8.11685 118.968 8.4331L116.986 10.71C116.438 10.2041 115.869 9.82456 115.3 9.5294C114.73 9.25533 114.077 9.10775 113.36 9.10775C112.77 9.10775 112.221 9.21316 111.715 9.44507C111.21 9.67698 110.767 9.99323 110.408 10.3938C110.05 10.7944 109.755 11.2582 109.565 11.8064C109.354 12.3334 109.27 12.9027 109.27 13.5141V13.5562C109.27 14.1676 109.375 14.7369 109.565 15.285C109.776 15.8332 110.05 16.297 110.408 16.6976C110.767 17.0982 111.188 17.4144 111.694 17.6674C112.2 17.8993 112.749 18.0258 113.36 18.0258C114.161 18.0258 114.857 17.8782 115.405 17.5831C115.974 17.2879 116.522 16.8873 117.071 16.3603L119.052 18.3631C118.694 18.7637 118.314 19.101 117.914 19.4173C117.513 19.7335 117.092 19.9865 116.628 20.2184C116.164 20.4503 115.658 20.619 115.11 20.7244C114.541 20.8087 113.929 20.872 113.233 20.872Z" fill="#0C0E12"/>
<path d="M122.7 6.47241H133.346V9.23427H125.757V12.1015H132.44V14.8634H125.757V17.8361H133.431V20.5979H122.678V6.47241H122.7Z" fill="#0C0E12"/>
<path d="M142.349 20.6191V6.47253H148.421C149.285 6.47253 150.044 6.59903 150.677 6.85203C151.309 7.10502 151.815 7.44235 152.173 7.88509C152.532 8.30674 152.806 8.79165 152.975 9.29764C153.143 9.80363 153.228 10.3518 153.228 10.9421C153.228 12.1227 152.827 13.1558 152.005 14.0624C151.183 14.9689 149.981 15.4117 148.4 15.4117H145.069V20.6402H142.349V20.6191ZM148.526 12.8185C149.159 12.8185 149.622 12.6287 149.939 12.2703C150.255 11.8908 150.403 11.4481 150.403 10.9421C150.403 10.4361 150.255 10.0145 149.96 9.63496C149.665 9.25547 149.18 9.06573 148.526 9.06573H145.069V12.8185H148.526Z" fill="#0C0E12"/>
<path d="M162.862 20.6191L161.766 17.6886H156.306L155.209 20.6191H152.279L157.697 6.47253H160.375L165.793 20.6402H162.862V20.6191ZM160.881 15.2008L159.489 11.5113C159.278 10.9632 159.131 10.5415 159.046 10.2464C158.962 10.5626 158.814 10.9843 158.604 11.5113L157.212 15.2008H160.881Z" fill="#0C0E12"/>
<path d="M170.052 20.6191V15.0954L164.823 6.45142H167.922L171.401 12.2492L174.901 6.4725H178L172.771 15.1165V20.6402H170.052V20.6191Z" fill="#0C0E12"/>
</svg>
