<svg width="95" height="113" viewBox="0 0 95 113" fill="none" xmlns="http://www.w3.org/2000/svg">
<g clip-path="url(#clip0_508_2338)">
<path d="M50.198 1.14103C49.8447 0.784658 49.4245 0.5018 48.9614 0.308769C48.4983 0.115739 48.0016 0.0163574 47.5 0.0163574C46.9984 0.0163574 46.5017 0.115739 46.0386 0.308769C45.5755 0.5018 45.1553 0.784658 44.802 1.14103L0 46.5007L47.5 94.598L95 46.5007L50.198 1.14103Z" fill="#AADCE0"/>
<path d="M76.19 41.3295H19.874C17.7753 41.3295 16.074 43.0317 16.074 45.1316V99.5024C16.074 101.602 17.7753 103.305 19.874 103.305H76.19C78.2887 103.305 79.99 101.602 79.99 99.5024V45.1316C79.99 43.0317 78.2887 41.3295 76.19 41.3295Z" fill="#E9F6FF"/>
<path d="M91.2 113H3.8C2.79218 113 1.82563 112.599 1.11299 111.886C0.400356 111.173 0 110.206 0 109.198V46.5004L44.802 91.8601C45.1553 92.2164 45.5755 92.4993 46.0386 92.6923C46.5017 92.8853 46.9984 92.9847 47.5 92.9847C48.0016 92.9847 48.4983 92.8853 48.9614 92.6923C49.4245 92.4993 49.8447 92.2164 50.198 91.8601L95 46.5004V109.198C95 110.206 94.5996 111.173 93.887 111.886C93.1744 112.599 92.2078 113 91.2 113Z" fill="#C9ECF4"/>
<path d="M0 113L32.832 79.8452L44.802 91.9741C45.1553 92.3305 45.5755 92.6133 46.0386 92.8063C46.5017 92.9994 46.9984 93.0988 47.5 93.0988C48.0016 93.0988 48.4983 92.9994 48.9614 92.8063C49.4245 92.6133 49.8447 92.3305 50.198 91.9741L62.168 79.8452L95 113H0Z" fill="#BBE4EA"/>
<path d="M60.7999 52.2036C60.6266 52.0265 60.4196 51.8859 60.1913 51.7898C59.9629 51.6938 59.7176 51.6444 59.4699 51.6444C59.2222 51.6444 58.977 51.6938 58.7486 51.7898C58.5202 51.8859 58.3133 52.0265 58.1399 52.2036L49.9319 61.6329V26.6151C49.9319 26.1109 49.7318 25.6273 49.3754 25.2708C49.0191 24.9143 48.5358 24.714 48.0319 24.714C47.528 24.714 47.0447 24.9143 46.6884 25.2708C46.3321 25.6273 46.1319 26.1109 46.1319 26.6151V61.861L37.9999 52.3937C37.6674 52.0105 37.1963 51.7752 36.6903 51.7395C36.1843 51.7039 35.6849 51.8708 35.3019 52.2036C34.919 52.5363 34.6838 53.0077 34.6482 53.514C34.6125 54.0202 34.7794 54.5199 35.1119 54.9031L46.5119 68.1346L46.9679 68.4768C47.2087 68.5772 47.4671 68.6289 47.7279 68.6289C47.9888 68.6289 48.2471 68.5772 48.4879 68.4768C48.6611 68.3942 48.8162 68.2778 48.9439 68.1346L60.3439 54.9031C60.7615 54.6051 61.0439 54.1536 61.1294 53.6476C61.2149 53.1416 61.0964 52.6223 60.7999 52.2036Z" fill="#5A3AF9"/>
</g>
<defs>
<clipPath id="clip0_508_2338">
<rect width="95" height="113" fill="white"/>
</clipPath>
</defs>
</svg>
