<svg width="109" height="122" viewBox="0 0 109 122" fill="none" xmlns="http://www.w3.org/2000/svg">
<path d="M108.6 51.3001L58.4 4.3001C56.1 2.2001 52.6 2.2001 50.3 4.3001L0.0999756 51.3001V117.9C0.0999756 119.8 1.6 121.3 3.5 121.3H105.3C107.2 121.3 108.7 119.8 108.7 117.9L108.6 51.3001Z" fill="#C9ECF4"/>
<path d="M31.1 75.7L0 51.3L54.3 0L108.6 51.3L79.2 75.7H31.1Z" fill="#A6DFE8"/>
<path d="M0 51.2998H108.6L73.9 79.4998H35.6L0 51.2998Z" fill="#99D0D6"/>
<path d="M49.6 91.1L22.7 68.7C21.7 67.8 21.1 66.6 21.1 65.2V49.1C21.1 46.6 23.1 44.5 25.7 44.5H85.3C87.8 44.5 89.9 46.6 89.9 49.1L89.7 64.8C89.7 66.2 89.1 67.5 88 68.3L59.2 91.2C56.3 93.5 52.3 93.4 49.6 91.1Z" fill="#448EE0"/>
</svg>
