<svg data-name="Component 57 – 1" xmlns="http://www.w3.org/2000/svg" width="157.664" height="33"><g data-name="Group 1302" fill="#5022ed"><path data-name="Path 3283" d="m38.925 9.69-2.463 3.581a6.966 6.966 0 0 0-2.585-.5 6.819 6.819 0 0 0-1.546.174 1.663 1.663 0 0 0-.218.054 6.082 6.082 0 0 0-2.156.97 1.908 1.908 0 0 0-.219.156 6.948 6.948 0 0 0-1.506 1.506c-1.621 2.036-2.85 4.935-4.98 7.987-.208.308-.432.619-.667.931a17.217 17.217 0 0 1-6.4 5.417c-.137.066-.28.133-.426.2a11.626 11.626 0 0 1-1.11.41q-.365.113-.74.2a11.209 11.209 0 0 1-2.156.3c-.151 0-.3.008-.459.008a11.292 11.292 0 1 1 7.814-19.435l-2.477 3.6a7.013 7.013 0 1 0-5.337 11.56c.156 0 .308 0 .459-.017a6.777 6.777 0 0 0 2.708-.744.181.181 0 0 0 .041-.017c2.406-1.122 4.352-3.6 7.658-9.3q.214-.359.428-.735a16.567 16.567 0 0 1 4.427-5.163c.072-.054.139-.1.206-.151.089-.067.182-.129.272-.192q.327-.22.647-.408c.271-.16.538-.3.8-.433l.258-.125c.125-.058.254-.116.375-.169.164-.067.333-.133.5-.2a11.334 11.334 0 0 1 8.851.537z"/><path data-name="Path 3284" d="M45.169 17.637v2.151a10.941 10.941 0 0 1-.058 1.154c-.036.33-.08.655-.147.971a11.283 11.283 0 0 1-18.713 6.2l2.463-3.582a7.007 7.007 0 0 0 11.849-2.615h-7.009l2.94-4.276z"/></g><text transform="translate(60.664 25)" fill="#5022ed" font-size="25" font-family="FuturaPT-Demi, Futura PT" font-weight="300" letter-spacing=".025em"><tspan x="0" y="0">coingate</tspan></text></svg>