<svg width="227" height="61" viewBox="0 0 227 61" fill="none" xmlns="http://www.w3.org/2000/svg">
<path d="M56.3 3.79906L52.7 8.99906C51.6 8.49906 50.3 8.19906 49 8.19906C48.2 8.19906 47.5 8.29906 46.8 8.49906C46.7 8.49906 46.6 8.49906 46.5 8.59906C45.4 8.89906 44.3 9.29906 43.4 9.99906C43.3 10.0991 43.2 10.0991 43.1 10.1991C42.3 10.7991 41.5 11.4991 40.9 12.3991C38.6 15.2991 36.8 19.4991 33.7 23.9991C33.4 24.3991 33.1 24.8991 32.7 25.2991C30.3 28.5991 27.1 31.2991 23.4 33.0991C23.2 33.1991 23 33.2991 22.8 33.3991C22.3 33.5991 21.7 33.7991 21.2 33.9991C20.8 34.0991 20.5 34.1991 20.1 34.2991C19.1 34.4991 18 34.6991 17 34.6991C16.8 34.6991 16.6 34.6991 16.3 34.6991C7.3 34.6991 0 27.3991 0 18.3991C0 9.39906 7.3 2.09906 16.3 2.09906C20.5 2.09906 24.6 3.69906 27.6 6.69906L24 11.8991C20.4 7.49906 14 6.99906 9.8 10.6991C5.5 14.2991 5 20.6991 8.6 24.9991C10.5 27.2991 13.4 28.5991 16.3 28.5991C16.5 28.5991 16.7 28.5991 17 28.5991C18.4 28.4991 19.7 28.1991 20.9 27.4991C20.9 27.4991 20.9 27.4991 21 27.4991C24.5 25.8991 27.3 22.2991 32.1 13.9991C32.3 13.6991 32.5 13.2991 32.7 12.8991C34.3 9.99906 36.5 7.49906 39.1 5.39906C39.2 5.29906 39.3 5.29906 39.4 5.19906C39.5 5.09906 39.7 4.99906 39.8 4.89906C40.1 4.69906 40.4 4.49906 40.7 4.29906C41.1 4.09906 41.5 3.89906 41.9 3.69906L42.2 3.49906C42.4 3.39906 42.6 3.29906 42.7 3.29906C42.9 3.19906 43.2 3.09906 43.4 2.99906C47.7 1.49906 52.3 1.79906 56.3 3.79906Z" fill="#5022ED"/>
<path d="M65.3 15.2991V18.3991C65.3 18.9991 65.3 19.4991 65.2 20.0991C65.1 20.5991 65.1 20.9991 65 21.4991C63.3 30.3991 54.8 36.1991 45.9 34.4991C42.9 33.8991 40.2 32.4991 37.9 30.4991L41.5 25.2991C45.3 29.3991 51.7 29.6991 55.8 25.8991C57.1 24.6991 58.1 23.1991 58.6 21.4991H48.5L52.8 15.2991H65.3Z" fill="#5022ED"/>
<path d="M101.65 15.064C100.75 14.164 99.55 13.6641 98.05 13.6641C95.15 13.6641 93.6499 15.764 93.6499 18.064C93.6499 20.664 95.55 22.464 98.25 22.464C99.25 22.464 100.55 22.164 101.75 21.064V25.364C100.85 25.764 99.55 26.364 97.75 26.364C95.25 26.364 93.15 25.464 91.75 24.064C90.55 22.964 89.25 20.964 89.25 18.064C89.25 15.364 90.35 13.0641 91.95 11.6641C93.85 9.96406 96.05 9.66406 97.55 9.66406C99.15 9.66406 100.55 9.96396 101.75 10.564V15.064H101.65Z" fill="#5022ED"/>
<path d="M120.35 11.964C121.95 13.364 122.95 15.564 122.95 18.064C122.95 20.564 121.85 22.7641 120.35 24.1641C119.05 25.3641 116.95 26.364 114.05 26.364C111.05 26.364 109.05 25.3641 107.75 24.1641C106.15 22.7641 105.15 20.564 105.15 18.064C105.15 15.464 106.25 13.364 107.75 11.964C109.05 10.764 111.15 9.76404 114.05 9.76404C117.05 9.76404 119.05 10.764 120.35 11.964ZM118.45 18.064C118.45 15.564 116.55 13.6641 114.05 13.6641C111.55 13.6641 109.65 15.664 109.65 18.064C109.65 20.464 111.45 22.464 114.05 22.464C116.65 22.464 118.45 20.464 118.45 18.064Z" fill="#5022ED"/>
<path d="M129.55 0.963989C130.95 0.963989 132.15 2.16396 132.15 3.56396C132.15 4.96396 130.95 6.16406 129.55 6.16406C128.15 6.16406 126.95 4.96396 126.95 3.56396C126.85 2.16396 128.05 0.963989 129.55 0.963989ZM131.75 10.264V25.964H127.35V10.264H131.75Z" fill="#5022ED"/>
<path d="M136.85 10.264H141.25V12.264C142.05 11.064 143.55 9.76404 146.05 9.76404C147.45 9.76404 149.45 10.1641 150.65 11.6641C151.75 12.9641 151.85 14.564 151.85 16.064V25.864H147.45V17.364C147.45 16.464 147.45 15.164 146.65 14.264C145.95 13.564 145.05 13.464 144.55 13.464C143.35 13.464 142.45 13.864 141.85 14.864C141.15 15.864 141.15 16.964 141.15 17.864V25.864H136.75V10.264H136.85Z" fill="#5022ED"/>
<path d="M168.95 10.264H173.35V25.1641C173.35 27.5641 173.15 30.064 171.15 31.964C170.05 33.064 168.15 34.1641 164.95 34.1641C161.95 34.1641 160.15 33.264 159.05 32.364C157.85 31.364 156.85 29.4641 156.55 27.6641H161.35C161.55 28.3641 161.95 29.064 162.45 29.564C163.35 30.364 164.55 30.364 165.15 30.364C166.45 30.364 167.25 29.964 167.85 29.364C168.85 28.364 168.95 27.164 168.95 25.864V23.6641C167.45 25.9641 165.35 26.264 164.15 26.264C162.05 26.264 160.25 25.5641 158.75 24.1641C157.55 22.9641 156.25 20.964 156.25 17.964C156.25 15.464 157.15 13.264 158.65 11.764C160.05 10.464 161.95 9.66406 164.05 9.66406C166.95 9.66406 168.35 11.2641 168.95 12.1641V10.264ZM162.25 14.764C161.55 15.464 160.85 16.464 160.85 18.064C160.85 19.464 161.35 20.4641 162.05 21.1641C162.95 22.1641 164.15 22.564 165.25 22.564C166.35 22.564 167.45 22.164 168.15 21.464C169.05 20.664 169.55 19.364 169.55 18.064C169.55 16.564 168.85 15.564 168.25 14.964C167.35 14.064 166.35 13.6641 165.15 13.6641C163.75 13.6641 162.75 14.264 162.25 14.764Z" fill="#5022ED"/>
<path d="M190.45 10.264H194.85V25.964H190.45V23.964C188.85 26.264 186.75 26.464 185.65 26.464C180.85 26.464 177.65 22.664 177.65 18.064C177.65 13.464 180.75 9.76404 185.45 9.76404C186.65 9.76404 188.95 9.96404 190.45 12.264V10.264ZM182.25 18.064C182.25 20.564 184.05 22.464 186.55 22.464C189.05 22.464 190.85 20.464 190.85 18.064C190.85 15.664 189.05 13.6641 186.55 13.6641C184.05 13.6641 182.25 15.564 182.25 18.064Z" fill="#5022ED"/>
<path d="M204.45 14.064V25.964H200.05V14.064H198.35V10.264H200.05V4.86401H204.45V10.264H207.45V14.064H204.45Z" fill="#5022ED"/>
<path d="M226.05 21.564C225.55 22.764 223.85 26.464 218.35 26.464C215.85 26.464 213.95 25.764 212.35 24.264C210.65 22.664 209.85 20.5641 209.85 18.1641C209.85 15.0641 211.15 13.164 212.25 12.064C214.05 10.264 216.25 9.86401 218.15 9.86401C221.35 9.86401 223.15 11.164 224.25 12.464C225.95 14.464 226.15 16.864 226.15 18.564V18.964H214.45C214.45 19.864 214.75 20.964 215.25 21.564C215.75 22.264 216.65 23.064 218.35 23.064C220.05 23.064 221.25 22.264 222.05 20.964L226.05 21.564ZM221.95 15.964C221.55 13.864 219.85 12.864 218.25 12.864C216.65 12.864 214.95 13.864 214.55 15.964H221.95Z" fill="#5022ED"/>
<path d="M102.1 58.1C101.6 58.8 100.9 59.4 99.9 59.8C99 60.2 97.9 60.4 96.7 60.4C95.5 60.4 94.3 60.1 93.4 59.5C92.5 58.9 91.7 58.1 91.2 57C90.7 55.9 90.4 54.7 90.4 53.2V51.9C90.4 49.6 90.9 47.8 92 46.5C93.1 45.2 94.6 44.6 96.5 44.6C98.1 44.6 99.4 45 100.4 45.8C101.4 46.6 102 47.8 102.2 49.3H100.2C99.8 47.3 98.6 46.3 96.6 46.3C95.2 46.3 94.2 46.8 93.5 47.7C92.8 48.6 92.5 50 92.4 51.8V53C92.4 54.7 92.8 56.1 93.6 57.1C94.4 58.1 95.4 58.6 96.8 58.6C97.6 58.6 98.2 58.5 98.8 58.3C99.4 58.1 99.8 57.8 100.2 57.5V54.1H96.7V52.4H102.2V58.1H102.1Z" fill="#7F88A0"/>
<path d="M105.2 45.7C105.2 45.4 105.3 45.1 105.5 44.9C105.7 44.7 106 44.6 106.4 44.6C106.8 44.6 107.1 44.7 107.3 44.9C107.5 45.1 107.6 45.4 107.6 45.7C107.6 46 107.5 46.3 107.3 46.5C107.1 46.7 106.8 46.8 106.4 46.8C106 46.8 105.7 46.7 105.5 46.5C105.3 46.3 105.2 46 105.2 45.7ZM107.3 60.1H105.4V48.7H107.3V60.1Z" fill="#7F88A0"/>
<path d="M111.4 60.1V50.2H109.6V48.7H111.4V47.5C111.4 46.3 111.7 45.3 112.4 44.7C113.1 44 114 43.7 115.2 43.7C115.6 43.7 116.1 43.8 116.5 43.9L116.4 45.5C116.1 45.4 115.7 45.4 115.3 45.4C114.7 45.4 114.2 45.6 113.8 46C113.5 46.4 113.3 46.9 113.3 47.6V48.8H115.7V50.3H113.3V60.2H111.4V60.1Z" fill="#7F88A0"/>
<path d="M120.5 45.9V48.7H122.6V50.2H120.5V57.3C120.5 57.8 120.6 58.1 120.8 58.3C121 58.5 121.3 58.6 121.8 58.6C122 58.6 122.3 58.6 122.7 58.5V60.1C122.2 60.2 121.7 60.3 121.2 60.3C120.3 60.3 119.7 60 119.2 59.5C118.7 59 118.5 58.2 118.5 57.3V50.2H116.4V48.7H118.5V45.9H120.5Z" fill="#7F88A0"/>
<path d="M141.8 55.2C141.6 56.8 141 58.1 140 58.9C139 59.8 137.7 60.2 136 60.2C134.2 60.2 132.7 59.6 131.7 58.3C130.6 57 130.1 55.3 130.1 53.1V51.6C130.1 50.2 130.4 48.9 130.9 47.8C131.4 46.7 132.1 45.9 133.1 45.3C134 44.7 135.1 44.4 136.3 44.4C137.9 44.4 139.2 44.9 140.2 45.8C141.2 46.7 141.8 48 141.9 49.6H139.9C139.7 48.4 139.3 47.5 138.8 46.9C138.3 46.3 137.4 46.1 136.3 46.1C135 46.1 134 46.6 133.3 47.5C132.6 48.5 132.2 49.8 132.2 51.6V53.1C132.2 54.8 132.5 56.1 133.2 57.1C133.9 58.1 134.9 58.6 136.1 58.6C137.2 58.6 138.1 58.3 138.7 57.8C139.3 57.3 139.7 56.4 139.9 55.1H141.8V55.2Z" fill="#7F88A0"/>
<path d="M151.3 60.1C151.2 59.9 151.1 59.5 151 58.9C150.1 59.8 149 60.3 147.8 60.3C146.7 60.3 145.8 60 145 59.3C144.3 58.7 143.9 57.9 143.9 56.9C143.9 55.7 144.4 54.8 145.3 54.1C146.2 53.4 147.5 53.1 149.1 53.1H151V52.2C151 51.5 150.8 51 150.4 50.6C150 50.2 149.4 50 148.6 50C147.9 50 147.3 50.2 146.9 50.5C146.4 50.9 146.2 51.3 146.2 51.8H144.2C144.2 51.2 144.4 50.7 144.8 50.2C145.2 49.7 145.7 49.3 146.4 48.9C147.1 48.5 147.8 48.4 148.7 48.4C150 48.4 151 48.7 151.8 49.4C152.5 50.1 152.9 51 153 52.1V57.3C153 58.3 153.1 59.2 153.4 59.8V60H151.3V60.1ZM148 58.6C148.6 58.6 149.2 58.4 149.7 58.1C150.2 57.8 150.6 57.4 150.9 56.9V54.6H149.4C147 54.6 145.8 55.3 145.8 56.7C145.8 57.3 146 57.8 146.4 58.1C146.9 58.4 147.4 58.6 148 58.6Z" fill="#7F88A0"/>
<path d="M161.4 50.4C161.1 50.4 160.8 50.3 160.4 50.3C159.1 50.3 158.3 50.8 157.8 51.9V60H156V48.7H157.9V50C158.5 49 159.4 48.5 160.6 48.5C161 48.5 161.3 48.5 161.5 48.6V50.4H161.4Z" fill="#7F88A0"/>
<path d="M162.6 54.3C162.6 52.6 163 51.2 163.8 50.1C164.6 49 165.7 48.5 167 48.5C168.3 48.5 169.4 49 170.2 49.9V44H172.1V60.1H170.3L170.2 58.9C169.4 59.9 168.3 60.3 167 60.3C165.7 60.3 164.6 59.8 163.8 58.7C163 57.6 162.6 56.2 162.6 54.5V54.3ZM164.5 54.5C164.5 55.8 164.8 56.8 165.3 57.5C165.8 58.2 166.6 58.6 167.5 58.6C168.7 58.6 169.6 58 170.2 56.9V51.7C169.6 50.6 168.7 50.1 167.5 50.1C166.5 50.1 165.8 50.5 165.3 51.2C164.8 51.9 164.5 53.1 164.5 54.5Z" fill="#7F88A0"/>
<path d="M181.8 57C181.8 56.5 181.6 56.1 181.2 55.8C180.8 55.5 180.1 55.3 179.1 55C178.1 54.8 177.3 54.5 176.8 54.2C176.2 53.9 175.8 53.6 175.5 53.1C175.2 52.7 175.1 52.2 175.1 51.6C175.1 50.7 175.5 49.9 176.3 49.2C177.1 48.6 178.1 48.2 179.3 48.2C180.6 48.2 181.6 48.5 182.4 49.2C183.2 49.9 183.6 50.7 183.6 51.8H181.6C181.6 51.3 181.4 50.8 180.9 50.4C180.4 50 179.9 49.8 179.2 49.8C178.5 49.8 177.9 50 177.5 50.3C177.1 50.6 176.9 51 176.9 51.5C176.9 52 177.1 52.3 177.5 52.6C177.9 52.8 178.5 53.1 179.5 53.3C180.5 53.5 181.3 53.8 181.9 54.1C182.5 54.4 182.9 54.8 183.2 55.2C183.5 55.6 183.6 56.1 183.6 56.8C183.6 57.8 183.2 58.6 182.4 59.2C181.6 59.8 180.5 60.1 179.2 60.1C178.3 60.1 177.5 59.9 176.8 59.6C176.1 59.3 175.6 58.8 175.2 58.2C174.8 57.6 174.6 57 174.6 56.3H176.5C176.5 57 176.8 57.5 177.3 57.8C177.8 58.2 178.4 58.4 179.2 58.4C179.9 58.4 180.5 58.3 181 58C181.6 57.9 181.8 57.5 181.8 57Z" fill="#7F88A0"/>
</svg>
