<svg xmlns="http://www.w3.org/2000/svg" viewBox="0 0 700 444"><filter id="a"><feGaussianBlur stdDeviation="12"/></filter><rect width="100%" height="100%" fill="#28197f"/><g filter="url(#a)"><g fill-opacity=".5" transform="translate(1.4 1.4) scale(2.73438)"><circle cx="136" cy="79" r="168" fill="#7a2fff"/><circle cx="161" cy="81" r="189" fill="#5224ff"/><circle cx="174" cy="99" r="200" fill="#5224fb"/><circle cx="163" cy="82" r="9" fill="#eeedff"/><circle cx="188" cy="79" r="8" fill="#eeebff"/><circle cx="81" cy="82" r="19" fill="#2b1a8b"/><circle cx="136" cy="81" r="11" fill="#bcacfa"/><circle cx="174" cy="80" r="6" fill="#fff"/><circle cx="148" cy="80" r="5" fill="#fff"/><circle cx="121" cy="81" r="6" fill="#ebe8ff"/><circle cx="138" cy="106" r="22" fill="#4c1cef"/><circle cx="72" cy="81" r="10" fill="#221b6c"/><circle cx="79" cy="121" r="32" fill="#5020f3"/><circle cx="72" cy="80" r="6" fill="#6a26ff"/><circle cx="91" cy="80" r="10" fill="#231c71"/><circle cx="188" cy="73" r="4" fill="#2200ea"/><circle cx="82" cy="46" r="26" fill="#5020f3"/><circle cx="192" cy="81" r="5" fill="#f2f0ff"/><circle cx="182" cy="116" r="32" fill="#4f1fef"/><circle cx="167" cy="49" r="27" fill="#4e1fef"/></g></g></svg>