<svg width="26" height="26" viewBox="0 0 26 26" fill="none" xmlns="http://www.w3.org/2000/svg">
<g clip-path="url(#clip0_58_498)">
<path d="M23.2724 12.1955H2.72754V25.2642H23.2724V12.1955Z" stroke="#5022ED" stroke-width="1.5" stroke-linecap="round" stroke-linejoin="round"/>
<path d="M15.7668 6.39697H10.2234V25.2151H15.7668V6.39697Z" stroke="#5022ED" stroke-width="1.5" stroke-linecap="round" stroke-linejoin="round"/>
<path d="M25.2641 6.39697H0.73584V12.1955H25.2641V6.39697Z" stroke="#5022ED" stroke-width="1.5" stroke-linecap="round" stroke-linejoin="round"/>
<path d="M7.9276 1.5698C7.41741 1.0498 6.66194 0.73584 5.91628 0.73584C4.34647 0.73584 3.08081 2.0015 3.08081 3.57131C3.08081 5.14112 4.34647 6.40678 5.91628 6.40678H13.0001L7.9276 1.5698Z" stroke="#5022ED" stroke-width="1.5" stroke-linecap="round" stroke-linejoin="round"/>
<path d="M18.0725 1.5698C18.5826 1.0498 19.3381 0.73584 20.0838 0.73584C21.6536 0.73584 22.9192 2.0015 22.9192 3.57131C22.9192 5.13131 21.6536 6.40678 20.0838 6.40678H13L18.0725 1.5698Z" stroke="#5022ED" stroke-width="1.5" stroke-linecap="round" stroke-linejoin="round"/>
</g>
<defs>
<clipPath id="clip0_58_498">
<rect width="26" height="26" fill="white"/>
</clipPath>
</defs>
</svg>
