<svg xmlns="http://www.w3.org/2000/svg" width="9544" height="970" viewBox="0 730 2386 970" fill="none"><path d="M4507.05 31.977c-106.85 20.667-190.14 51.862-360.56 105.284-267.95 84.227-569.88 88.126-569.88 88.126-584.67-39.384-700.29-318.19-1341.95-193.41-106.85 20.667-190.14 51.862-360.56 105.284-267.95 84.227-569.87 88.126-569.87 88.126C720.101 186.003 603.934-92.803-37.726 31.977-144.578 52.644-227.868 83.839-398.284 137.26c-267.952 84.227-569.877 88.126-569.877 88.126-584.129-39.384-699.739-318.19-1341.409-193.41-106.85 20.667-190.14 51.862-360.55 105.284-267.95 84.227-569.88 88.126-569.88 88.126v743.615s301.93-3.9 569.88-88.127c170.41-53.421 253.15-84.617 360.55-105.283 641.67-124.391 757.28 154.416 1341.957 193.41 0 0 301.925-3.9 569.877-88.127 170.416-53.421 253.158-84.617 360.558-105.283 641.66-124.391 757.28 154.416 1341.948 193.41 0 0 301.93-3.9 569.88-88.127 170.42-53.421 253.16-84.617 360.56-105.283 641.66-124.391 757.28 154.416 1341.95 193.41 0 0 301.93-3.9 569.88-88.127 170.41-53.421 253.16-84.617 360.56-105.283 641.66-124.391 757.28 154.416 1341.95 193.41V225.387c-585.22-39.384-700.84-318.19-1342.5-193.41z" fill="#E9F6FF"/></svg>
