<svg width="1264" height="167" fill="none" xmlns="http://www.w3.org/2000/svg"><g opacity=".46" stroke="#D2E8F8" stroke-miterlimit="10"><path opacity=".46" d="M957.636 920.031c-199.602-6.922-349.196-88.727-434.135-169.707-84.938-80.979-119.015-170.491-182.81-255.256-63.796-84.766-167.444-169.537-343.025-212.503-71.23-17.43-160.716-26.771-232.76-10.022-79.804 18.553-111.922 63.173-109.043 103.339 2.88 40.167 32.568 78.995 42.429 118.939 10.002 40.517-2.298 83.797-55.227 117.001-52.93 33.204-152.839 53.209-239.118 39.945-97.119-14.932-146.111-65.178-147.051-111.055-.941-45.704 24.88-101.613-57.325-128.827-85.433-28.285-202.941 2.63-287.151 31.635-88.58 30.51-181.01 60.201-286.6 76.682-105.59 16.481-304.08-3.593-402.14-27.639-98.05-24.046-155.92-77.015-130.93-125.72 27.32-53.257 186.28-63.025 186.28-63.025 258.33-13.474 421.63-25.676 517.06-97.14 23.9-17.929 36.42-38.424 36.22-59.289-.09-23.289-14.8-46.099-42.46-65.839-67.33-48.461-141.77-94.881-222.82-138.955-95.71-52.048-207.66-110.372-187.46-177.123 15.35-50.688 104.09-89.905 190.01-123.718 99.12-39.014 203.76-77.116 327.17-98.183 123.404-21.067 270.06-22.785 381.576 8.86 113.603 32.234 170.337 91.356 228.866 145.491 67.562 62.492 65.385 131.031 186.598 174.438 157.89 56.54 324.725 15.604 324.725 15.604 179.629-30.739 354.637-78.403 541.82-98.208 187.184-19.805 387.972 18.115 531.845 75.156 169.62 67.248 189.49 186.545 111.08 281.61-38.82 47.072-98.94 92.911-96.06 143.06 4.36 75.786 148.3 134.102 208.44 204.991 0 0 308.4 242.908-46.99 373.403.01 0-136.3 58.117-311.014 52.055v0z"/><path opacity=".46" d="M939.406 905.428c-195.604-6.783-342.209-86.952-425.448-166.311-83.24-79.36-116.631-167.081-179.153-250.15-62.522-83.07-164.091-166.149-336.158-208.253-69.805-17.082-157.498-26.236-228.103-9.821-78.207 18.182-109.681 61.908-106.862 101.271 2.819 39.364 31.926 77.417 41.584 116.56 9.8 39.705-2.254 82.119-54.122 114.659-51.868 32.541-149.783 52.145-234.342 39.145-95.173-14.633-143.186-63.874-144.11-108.834-.919-44.789 24.383-99.579-56.176-126.249-83.722-27.718-198.879 2.577-281.406 31.004-86.81 29.901-177.38 58.999-280.87 75.149-103.48 16.15-298-3.521-394.09-27.086-96.09-23.564-152.8-75.475-128.31-123.204 26.77-52.193 182.56-61.765 182.56-61.765 253.16-13.208 413.18-25.166 506.72-95.203 23.42-17.571 35.68-37.656 35.49-58.104-.08-22.822-14.5-45.176-41.61-64.52-65.98-47.493-138.93-92.983-218.36-136.174-93.8-51.008-203.51-108.165-183.71-173.581 15.04-49.674 102.01-88.106 186.2-121.241 97.15-38.233 199.69-75.572 320.63-96.218 120.929-20.646 264.659-22.329 373.944 8.681 111.329 31.589 166.937 89.529 224.288 142.581 66.209 61.237 64.077 128.407 182.864 170.945C-144.416-65.884 19.08-105.999 19.08-105.999c176.044-30.123 347.543-76.833 530.98-96.244s380.208 17.751 521.2 73.653c166.23 65.907 185.71 182.819 108.86 275.98-38.05 46.13-96.95 91.054-94.13 140.198 4.27 74.268 145.32 131.419 204.26 200.893 0 0 302.24 238.048-46.04 365.932 0-.003-133.58 56.952-304.804 51.015v0z"/><path opacity=".46" d="M921.182 890.821c-191.616-6.646-335.222-85.177-416.764-162.916-81.541-77.739-114.252-163.669-175.495-245.044-61.243-81.374-160.74-162.755-329.292-204-68.38-16.732-154.286-25.698-223.448-9.619-76.612 17.812-107.443 60.644-104.681 99.203 2.763 38.56 31.267 75.834 40.733 114.182 9.598 38.894-2.207 80.442-53.02 112.319-50.812 31.877-146.722 51.08-229.553 38.346-93.231-14.334-140.263-62.57-141.166-106.612-.902-43.875 23.883-97.546-55.03-123.672-82.015-27.152-194.82 2.525-275.656 30.37-85.04 29.29-173.76 57.795-275.13 73.614-101.38 15.82-291.92-3.452-386.06-26.533-94.13-23.081-149.68-73.934-125.69-120.69 26.23-51.127 178.83-60.505 178.83-60.505 247.98-12.937 404.75-24.649 496.37-93.256 22.94-17.212 34.96-36.888 34.77-56.919-.09-22.356-14.21-44.254-40.76-63.203-64.64-46.523-136.1-91.086-213.9-133.396-91.89-49.965-199.36-105.956-179.96-170.037 14.73-48.66 99.92-86.306 182.39-118.768 95.17-37.452 195.62-74.029 314.09-94.254 118.468-20.224 259.264-21.876 366.314 8.504 109.054 30.948 163.522 87.701 219.713 139.671 64.859 59.99 62.769 125.788 179.132 167.458C-140.514-60.661 19.646-99.957 19.646-99.957c172.44-29.509 340.443-75.264 520.139-94.279 179.695-19.015 372.451 17.39 510.565 72.148 162.83 64.563 181.91 179.087 106.64 270.348-37.28 45.188-94.99 89.194-92.22 137.335 4.18 72.752 142.36 128.737 200.09 196.79 0 0 296.07 233.188-45.1 358.459 0 .004-130.85 55.795-298.579 49.977h.001z"/><path opacity=".46" d="M902.954 876.214c-187.621-6.506-328.237-83.402-408.079-159.521-79.843-76.119-111.867-160.261-171.838-239.936-59.971-79.675-157.39-159.364-322.43-199.75-66.955-16.384-151.068-25.165-218.792-9.421-75.014 17.44-105.205 59.38-102.499 97.136 2.706 37.757 30.615 74.254 39.883 111.801 9.402 38.085-2.162 78.767-51.913 109.979-49.75 31.211-143.667 50.015-224.772 37.546-91.288-14.036-137.34-61.265-138.225-104.39-.881-42.961 23.386-95.514-53.883-121.096-80.304-26.585-190.759 2.473-269.916 29.737-83.27 28.679-170.14 56.589-269.4 72.081-99.25 15.491-285.83-3.378-378-25.98-92.17-22.602-146.57-72.393-123.08-118.175 25.69-50.061 175.11-59.243 175.11-59.243 242.83-12.666 396.32-24.137 486.03-91.313 22.46-16.852 34.23-36.118 34.04-55.731-.08-21.891-13.91-43.332-39.91-61.886-63.29-45.554-133.26-89.187-209.44-130.615-89.97-48.926-195.2-103.748-176.21-166.491 14.42-47.645 97.84-84.508 178.6-116.292 93.18-36.673 191.54-72.488 307.54-92.289 116-19.8 253.855-21.417 358.676 8.327 106.785 30.3 160.116 85.872 215.131 136.759 63.514 58.742 61.46 123.167 175.398 163.967C-136.614-55.436 20.208-93.913 20.208-93.913c168.853-28.894 333.348-73.696 509.301-92.315 175.953-18.618 364.689 17.028 499.921 70.646 159.44 63.214 178.12 175.352 104.42 264.711-36.5 44.244-93.01 87.334-90.3 134.473 4.1 71.235 139.4 126.053 195.93 192.688 0 0 289.89 228.328-44.17 350.99.01.002-128.12 54.631-292.356 48.934v0z"/><path opacity=".46" d="M884.734 861.608c-183.625-6.368-321.25-81.626-399.394-156.125-78.143-74.5-109.487-156.848-168.186-234.832-58.699-77.984-154.037-155.972-315.561-195.497-65.531-16.035-147.854-24.629-214.133-9.22-73.419 17.069-102.965 58.118-100.317 95.069 2.648 36.952 29.965 72.671 39.034 109.422 9.2 37.273-2.116 77.09-50.808 107.637-48.692 30.547-140.608 48.951-219.988 36.747-89.347-13.733-134.416-59.962-135.282-102.168-.867-42.043 22.888-93.48-52.738-118.517-78.592-26.019-186.7 2.421-264.171 29.104-81.5 28.069-166.52 55.385-263.66 70.546-97.15 15.162-279.75-3.306-369.96-25.427-90.21-22.122-143.45-70.852-120.46-115.659 25.14-48.995 171.38-57.981 171.38-57.981 237.66-12.397 387.88-23.623 475.68-89.37 21.99-16.494 33.51-35.35 33.32-54.545-.08-21.425-13.61-42.409-39.06-60.569-61.94-44.583-130.42-87.288-204.98-127.835-88.06-47.883-191.05-101.542-172.46-162.949 14.12-46.632 95.76-82.709 174.8-113.818 91.19-35.892 187.45-70.943 300.99-90.325 113.544-19.382 248.454-20.961 351.046 8.149 104.513 29.655 156.707 84.045 210.553 133.849 62.148 57.49 60.144 120.543 171.659 160.477 145.25 52.013 298.733 14.355 298.733 14.355 165.262-28.278 326.258-72.128 498.461-90.35 172.203-18.222 356.926 16.666 489.278 69.143 156.05 61.87 174.34 171.621 102.2 259.078-35.73 43.306-91.03 85.476-88.37 131.612 4 69.719 136.42 123.37 191.75 188.587 0 0 283.73 223.468-43.22 343.521 0 0-125.4 53.466-286.136 47.891v0z"/><path opacity=".46" d="M866.51 847.003c-179.632-6.23-314.265-79.852-390.707-152.731-76.442-72.878-107.108-153.438-164.524-229.723C253.863 388.264 160.593 311.97 2.574 273.302c-64.105-15.687-144.639-24.097-209.475-9.02-71.821 16.699-100.727 56.853-98.134 93.003 2.593 36.149 29.31 71.092 38.184 107.041 9.002 36.463-2.07 75.414-49.702 105.297-47.633 29.884-137.551 47.887-215.204 35.948-87.41-13.44-131.495-58.658-132.343-99.946-.845-41.132 22.391-91.447-51.589-115.94-76.886-25.455-182.639 2.367-258.426 28.471-79.725 27.459-162.895 54.179-257.935 69.012-95.03 14.833-273.66-3.234-361.91-24.874-88.24-21.641-140.32-69.311-117.83-113.144 24.59-47.93 167.65-56.721 167.65-56.721 232.49-12.127 379.44-23.109 465.34-87.426 21.5-16.135 32.77-34.58 32.59-53.358-.07-20.959-13.31-41.488-38.21-59.253-60.6-43.613-127.58-85.39-200.52-125.054-86.15-46.842-186.9-99.331-168.71-159.405 13.81-45.618 93.67-80.911 170.99-111.342 89.21-35.112 183.38-69.401 294.444-88.362 111.065-18.961 243.049-20.505 343.409 7.973 102.237 29.01 153.299 82.216 205.973 130.937 60.804 56.239 58.843 117.924 167.932 156.988C-128.808-44.99 21.339-81.831 21.339-81.831c161.664-27.665 319.158-70.56 487.62-88.385 168.461-17.826 349.165 16.302 478.641 67.638 152.66 60.526 170.54 167.889 99.97 253.444-34.94 42.363-89.045 83.617-86.45 128.749 3.92 68.204 133.46 120.688 187.58 184.487 0 0 277.56 218.608-42.28 336.05 0-.002-122.67 52.303-279.91 46.851v0z"/><path opacity=".46" d="M848.285 832.396c-175.639-6.091-307.28-78.076-382.023-149.336-74.742-71.26-104.725-150.025-160.866-224.616-56.14-74.591-147.338-149.188-301.842-186.994-62.682-15.338-141.424-23.558-204.82-8.819-70.225 16.327-98.49 55.592-95.95 90.935 2.539 35.342 28.657 69.512 37.335 104.662 8.8 35.652-2.024 73.738-48.6 102.956-46.575 29.219-134.492 46.823-210.423 35.15-85.46-13.139-128.57-57.353-129.4-97.724-.826-40.217 21.894-89.414-50.44-113.362-75.177-24.889-178.579 2.311-252.682 27.838-77.954 26.848-159.274 52.976-252.194 67.478-92.92 14.502-267.58-3.163-353.87-24.321-86.29-21.157-137.21-67.771-115.22-110.628 24.05-46.865 163.93-55.46 163.93-55.46 227.32-11.856 371.01-22.596 454.99-85.482 21.03-15.778 32.05-33.815 31.87-52.177-.07-20.492-13.01-40.565-37.36-57.935-59.25-42.645-124.74-83.493-196.06-122.276-84.23-45.8-182.75-97.12-164.96-155.862 13.51-44.604 91.59-79.112 167.2-108.868 87.22-34.328 179.3-67.859 287.896-86.396 108.597-18.538 237.647-20.05 335.777 7.794 99.968 28.365 149.892 80.39 201.396 128.027 59.458 54.99 57.533 115.302 164.198 153.496C-124.908-39.769 21.901-75.79 21.901-75.79c158.068-27.046 312.062-68.986 476.78-86.418 164.718-17.432 341.403 15.939 468.001 66.134 149.268 59.179 166.748 164.157 97.748 247.81-34.17 41.421-87.067 81.758-84.529 125.887 3.834 66.688 130.499 118.005 183.419 180.385 0 0 271.38 213.749-41.35 328.581 0 0-119.94 51.14-273.685 45.808v0z"/><path opacity=".46" d="M830.061 817.789c-171.646-5.953-300.293-76.3-373.336-145.941-73.043-69.64-102.35-146.614-157.209-219.508C244.658 379.446 155.53 306.544 4.535 269.596c-61.255-14.99-138.207-23.022-200.16-8.618-68.629 15.955-96.249 54.324-93.773 88.866 2.476 34.541 28.011 67.93 36.488 102.282 8.6 34.842-1.978 72.061-47.493 100.616-45.515 28.555-131.433 45.757-205.634 34.349-83.518-12.84-125.647-56.05-126.458-95.502-.808-39.303 21.397-87.384-49.295-110.785-73.467-24.323-174.519 2.261-246.936 27.204-76.174 26.238-155.654 51.773-246.464 65.944-90.81 14.172-261.5-3.09-345.82-23.768-84.32-20.677-134.09-66.23-112.6-108.113 23.51-45.798 160.2-54.199 160.2-54.199 222.15-11.588 362.57-22.082 444.65-83.539 20.55-15.418 31.312-33.043 31.142-50.987-.074-20.026-12.722-39.641-36.512-56.616-57.9-41.675-121.91-81.594-191.61-119.496-82.31-44.759-178.59-94.915-161.21-152.317 13.2-43.591 89.51-77.314 163.4-106.392 85.24-33.55 175.22-66.315 281.346-84.433 106.121-18.118 232.241-19.595 328.144 7.618 97.694 27.72 146.485 78.561 196.817 125.116 58.1 53.738 56.225 112.68 160.466 150.007 135.776 48.621 279.246 13.42 279.246 13.42 154.475-26.435 304.965-67.422 465.937-84.456 160.971-17.033 333.641 15.577 457.359 64.63 145.865 57.836 162.955 160.425 95.525 242.176-33.39 40.48-85.084 79.9-82.605 123.025 3.745 65.171 127.525 115.321 179.245 176.283 0 0 265.21 208.889-40.41 321.109 0 .003-117.208 49.979-267.459 44.768v.001z"/><path opacity=".46" d="M811.836 803.183c-167.646-5.812-293.306-74.525-364.65-142.544S347.22 517.434 293.633 446.235c-53.586-71.2-140.634-142.401-288.114-178.494-59.829-14.639-134.994-22.485-195.507-8.415-67.033 15.585-94.009 53.061-91.591 86.798 2.418 33.737 27.357 66.351 35.638 99.904 8.4 34.031-1.932 70.383-46.388 98.274-44.455 27.89-128.376 44.692-200.856 33.55-81.572-12.541-122.724-54.746-123.514-93.28-.788-38.389 20.895-85.347-48.149-108.208-71.756-23.757-170.458 2.209-241.192 26.571-74.405 25.628-152.03 50.568-240.73 64.41-88.7 13.841-255.41-3.019-337.77-23.216-82.36-20.196-130.97-64.689-109.98-105.598 22.95-44.736 156.47-52.938 156.47-52.938 216.98-11.318 354.14-21.568 434.3-81.595 20.074-15.059 30.59-32.275 30.425-49.801-.072-19.561-12.429-38.72-35.665-55.3-56.55-40.706-119.07-79.697-187.15-116.717-80.39-43.717-174.43-92.707-157.45-148.775 12.89-42.574 87.43-75.517 159.59-103.917 83.26-32.769 171.15-64.773 274.805-82.468 103.654-17.694 226.84-19.137 320.507 7.44 95.422 27.076 143.077 76.735 192.237 122.207 56.747 52.488 54.918 110.058 156.729 146.516 132.615 47.49 272.75 13.107 272.75 13.107 150.886-25.815 297.876-65.85 455.104-82.487 157.228-16.636 325.876 15.216 446.718 63.126 142.47 56.488 159.17 156.69 93.3 236.542-32.608 39.537-83.096 78.041-80.681 120.162 3.658 63.658 124.561 112.642 175.071 172.185 0 0 259.05 204.029-39.46 313.639 0 0-114.49 48.816-261.246 43.726h.002z"/><path opacity=".46" d="M793.61 788.576c-163.659-5.675-286.319-72.751-355.965-139.15-69.646-66.4-97.584-139.792-149.893-209.295-52.31-69.503-137.283-139.011-281.253-174.244-58.404-14.293-131.778-21.951-190.847-8.217-65.435 15.212-91.771 51.798-89.414 84.731 2.356 32.932 26.704 64.77 34.782 97.522 8.2 33.221-1.887 68.71-45.284 95.934-43.397 27.224-125.319 43.628-196.066 32.75-79.632-12.242-119.803-53.441-120.574-91.058-.76-37.469 20.409-83.306-46.989-105.624-70.05-23.191-166.398 2.156-235.447 25.939-72.633 25.017-148.41 49.362-234.99 62.875-86.58 13.513-249.34-2.947-329.73-22.662-80.39-19.715-127.85-63.148-107.37-103.084 22.41-43.668 152.75-51.677 152.75-51.677 211.81-11.049 345.7-21.054 423.963-79.652 19.593-14.701 29.859-31.506 29.697-48.614-.071-19.095-12.132-37.798-34.814-53.983-55.206-39.736-116.236-77.798-182.696-113.935-78.49-42.674-170.28-90.499-153.71-145.23 12.58-41.563 85.35-73.717 155.79-101.443 81.28-31.988 167.074-63.23 268.262-80.504 101.188-17.274 221.433-18.683 312.869 7.262 93.149 26.431 139.669 74.907 187.658 119.295 55.402 51.239 53.61 107.438 153 143.028 129.459 46.358 266.25 12.795 266.25 12.795 147.294-25.204 290.779-64.285 444.266-80.524 153.486-16.24 318.115 14.852 436.078 61.622 139.077 55.144 155.377 152.96 91.081 230.906-31.835 38.597-81.126 76.182-78.763 117.301 3.573 62.139 121.599 109.956 170.909 168.081 0 0 252.87 199.17-38.53 306.167 0 .002-111.759 47.656-255.02 42.687v.001z"/><path opacity=".46" d="M775.386 773.97c-159.667-5.537-279.327-70.974-347.275-135.753-67.949-64.779-95.208-136.383-146.241-204.19-51.032-67.808-133.94-135.621-274.391-169.99-56.979-13.943-128.564-21.415-186.193-8.017-63.84 14.843-89.531 50.534-87.229 82.665 2.301 32.13 26.057 63.189 33.938 95.145 8.004 32.41-1.837 67.031-44.176 93.592-42.34 26.561-122.262 42.565-191.29 31.951-77.688-11.944-116.879-52.138-117.628-88.839-.751-36.56 19.897-81.284-45.854-103.054-68.333-22.624-162.339 2.103-229.701 25.306-70.861 24.406-144.786 48.158-229.266 61.34-84.48 13.182-243.25-2.874-321.68-22.11-78.44-19.236-124.73-61.604-104.74-100.566 21.86-42.604 149.02-50.417 149.02-50.417 206.64-10.779 337.26-20.54 413.612-77.708 19.115-14.342 29.13-30.737 28.973-47.429-.07-18.628-11.836-36.874-33.963-52.665C-1012.56 64.465-1072.1 27.333-1136.93-7.923c-76.57-41.635-166.13-88.291-149.96-141.688 12.27-40.547 83.26-71.915 151.99-98.966 79.29-31.208 162.996-61.687 261.711-78.54 98.715-16.854 216.034-18.227 305.239 7.086 90.87 25.784 136.261 73.077 183.079 116.384 54.045 49.988 52.302 104.816 149.265 139.537 126.3 45.227 259.755 12.483 259.755 12.483 143.703-24.583 283.691-62.711 433.427-78.555 149.736-15.844 310.355 14.489 425.439 60.12C1018.7-16.263 1034.6 79.167 971.874 155.212c-31.058 37.655-79.149 74.323-76.842 114.439 3.486 60.622 118.628 107.274 166.738 163.978 0 0 246.7 194.31-37.59 298.697 0 0-109.028 46.491-248.794 41.644v0z"/><path opacity=".46" d="M757.162 759.363c-155.671-5.399-272.346-69.2-338.594-132.359-66.247-63.159-92.822-132.971-142.577-199.082C226.235 361.811 145.4 295.693 8.46 262.184c-55.557-13.594-125.347-20.88-181.536-7.816-62.242 14.47-87.294 49.271-85.045 80.596 2.248 31.325 25.401 61.61 33.093 92.761 7.801 31.6-1.791 65.355-43.071 91.252-41.28 25.898-119.205 41.501-186.498 31.153-75.746-11.645-113.954-50.835-114.692-86.615-.736-35.644 19.4-79.247-44.717-100.474-66.631-22.059-158.28 2.052-223.956 24.674-69.092 23.796-141.167 46.954-223.528 59.807-82.36 12.854-237.16-2.803-313.64-21.556-76.47-18.753-121.61-60.067-102.12-98.053 21.31-41.536 145.3-49.155 145.3-49.155 201.47-10.508 328.83-20.027 403.258-75.765 18.636-13.983 28.4-29.968 28.247-46.242-.067-18.163-11.54-35.953-33.114-51.349C-986.071 67.606-1044.12 31.403-1107.33-2.97c-74.65-40.594-161.97-86.082-146.21-138.144 11.97-39.532 81.19-70.118 148.19-96.491 77.31-30.428 158.92-60.145 255.17-76.576 96.25-16.431 210.638-17.769 297.606 6.909 88.603 25.139 132.852 71.251 178.504 113.473 52.692 48.738 50.994 102.195 145.532 136.049C-105.396-13.654 24.718-45.581 24.718-45.581 164.82-69.551 301.31-106.728 447.3-122.177c145.992-15.449 302.592 14.129 414.798 58.616 132.296 52.454 147.792 145.495 86.638 219.64-30.281 36.711-77.167 72.464-74.919 111.576 3.399 59.107 115.659 104.59 162.563 159.879 0 0 240.54 189.451-36.642 291.227 0 0-106.305 45.329-242.576 40.602v0z"/><path opacity=".46" d="M738.94 744.757c-151.68-5.26-265.364-67.424-329.909-128.963-64.545-61.54-90.44-129.56-138.924-193.973C221.624 357.407 142.871 292.98 9.442 260.332c-54.13-13.246-122.132-20.344-176.879-7.616-60.646 14.099-85.052 48.006-82.864 78.53 2.188 30.524 24.749 60.029 32.241 90.384 7.597 30.791-1.748 63.679-41.966 88.912-40.219 25.233-116.148 40.435-181.719 30.355-73.8-11.347-111.029-49.53-111.746-84.393-.714-34.731 18.906-77.218-43.561-97.898-64.922-21.494-154.219 1.997-218.214 24.04-67.315 23.185-137.544 45.749-217.794 58.273-80.24 12.523-231.08-2.731-305.59-21.003-74.51-18.273-118.49-58.526-99.5-95.537 20.76-40.472 141.56-47.895 141.56-47.895 196.31-10.242 320.4-19.515 392.922-73.824 18.159-13.624 27.674-29.2 27.525-45.056-.067-17.697-11.246-35.031-32.267-50.032-51.167-36.827-107.73-72.102-169.32-105.595-72.74-39.552-157.81-83.874-142.46-134.599 11.66-38.516 79.1-68.321 144.39-94.016 75.33-29.647 154.841-58.602 248.621-74.612 93.781-16.009 205.225-17.314 289.971 6.732 86.329 24.496 129.441 69.426 173.922 110.56 51.35 47.486 49.688 99.574 141.801 132.56C-101.499-8.435 25.278-39.542 25.278-39.542c136.507-23.359 269.494-59.58 411.741-74.63 142.246-15.051 294.83 13.764 404.157 57.112C970.077-5.95 985.175 84.705 925.589 156.947c-29.504 35.771-75.187 70.605-72.998 108.714 3.312 57.59 112.694 101.906 158.399 155.778 0 0 234.36 184.59-35.706 283.755.004.005-103.571 44.168-236.344 39.563v0z"/><path opacity=".46" d="M720.713 730.151c-147.687-5.122-258.374-65.651-321.224-125.57-62.851-59.918-88.058-126.15-135.263-188.866-47.205-62.717-123.891-125.446-253.808-157.234-52.705-12.897-118.915-19.808-172.223-7.414-59.047 13.728-82.812 46.742-80.684 76.463 2.128 29.721 24.1 58.448 31.393 88.005 7.401 29.979-1.7 62.002-40.862 86.571-39.163 24.568-113.089 39.37-176.931 29.554-71.862-11.046-108.11-48.225-108.808-82.171-.693-33.816 18.41-75.183-42.413-95.32-63.213-20.928-150.162 1.948-212.468 23.407-65.549 22.574-133.921 44.545-212.052 56.738-78.14 12.194-225-2.659-297.55-20.45-72.55-17.79-115.37-56.985-96.88-93.021 20.21-39.406 137.83-46.635 137.83-46.635 191.15-9.969 311.964-18.999 382.587-71.878 17.679-13.265 26.942-28.43 26.796-43.869-.064-17.231-10.949-34.109-31.417-48.714-49.818-35.858-104.891-70.204-164.856-102.814-70.82-38.511-153.66-81.666-138.71-131.055 11.36-37.505 77.02-66.523 140.59-91.542 73.345-28.867 150.766-57.059 242.077-72.647 91.311-15.589 199.824-16.859 282.336 6.554 84.057 23.851 126.038 67.595 169.342 107.651 49.991 46.239 48.38 96.952 138.068 129.07C-97.592-3.206 25.848-33.491 25.848-33.491c132.914-22.75 262.397-58.016 400.9-72.672 138.503-14.655 287.07 13.403 393.518 55.608C945.774-.793 960.473 87.477 902.457 157.817c-28.727 34.829-73.21 68.746-71.075 105.852 3.228 56.075 109.726 99.224 154.224 151.677 0 0 228.194 179.731-34.764 276.285 0 0-100.853 43.001-230.129 38.52v0z"/><path opacity=".46" d="M702.488 715.545c-143.693-4.984-251.389-63.875-312.538-122.174-61.15-58.299-85.677-122.737-131.605-183.761-45.928-61.024-120.541-122.054-246.943-152.984-51.28-12.548-115.699-19.273-167.565-7.215-57.453 13.358-80.574 45.479-78.501 74.394 2.074 28.915 23.447 56.869 30.543 85.626 7.202 29.168-1.654 60.326-39.758 84.23-38.105 23.904-110.03 38.305-172.147 28.756-69.916-10.749-105.185-46.922-105.865-79.95-.667-32.901 17.914-73.151-41.265-92.743-61.503-20.362-146.097 1.894-206.723 22.774-63.772 21.965-130.301 43.34-206.319 55.205-76.022 11.865-218.912-2.587-289.502-19.897-70.6-17.311-112.25-55.444-94.26-90.506 19.67-38.342 134.11-45.374 134.11-45.374 185.97-9.703 303.523-18.486 372.233-69.933 17.201-12.908 26.213-27.663 26.069-42.685-.063-16.765-10.653-33.186-30.567-47.397-48.473-34.889-102.058-68.307-160.405-100.037-68.91-37.47-149.5-79.458-134.95-127.513 11.04-36.491 74.93-64.723 136.78-89.066 71.362-28.086 146.689-55.515 235.532-70.682 88.842-15.168 194.421-16.403 274.702 6.376 81.785 23.207 122.629 65.769 164.763 104.741 48.638 44.987 47.071 94.331 134.334 125.579C-93.691 2.014 26.413-27.454 26.413-27.454c129.32-22.13 255.305-56.443 390.065-70.7 134.759-14.258 279.302 13.037 382.874 54.103 122.112 48.416 136.414 134.3 79.965 202.737-27.951 33.888-71.228 66.887-69.153 102.99 3.14 54.558 106.761 96.541 150.057 147.575 0 0 222.019 174.871-33.825 268.815 0 0-98.123 41.841-223.908 37.479v0z"/><path opacity=".46" d="M684.262 700.938c-139.698-4.845-244.401-62.101-303.85-118.778-59.448-56.678-83.298-119.327-127.949-178.654-44.651-59.327-117.191-118.662-240.082-148.734-49.848-12.198-112.485-18.736-162.905-7.012-55.856 12.985-78.336 44.214-76.32 72.326 2.017 28.113 22.796 55.289 29.699 83.247 7.001 28.358-1.607 58.65-38.652 81.889-37.044 23.24-106.972 37.241-167.362 27.957-67.975-10.451-102.263-45.618-102.923-77.728-.657-31.988 17.414-71.118-40.121-90.165-59.794-19.797-142.036 1.84-200.976 22.141-62 21.354-126.68 42.136-200.591 53.67-73.91 11.535-212.83-2.515-281.46-19.344-68.63-16.83-109.13-53.904-91.64-87.991 19.12-37.275 130.38-44.113 130.38-44.113 180.81-9.431 295.094-17.971 361.895-67.99 16.724-12.549 25.487-26.894 25.35-41.497-.061-16.3-10.358-32.265-29.72-46.08-47.127-33.918-99.223-66.406-155.949-97.252-66.996-36.431-145.346-77.25-131.206-123.969 10.74-35.478 72.85-62.924 132.984-86.59 69.38-27.305 142.611-53.974 228.984-68.718 86.372-14.745 189.019-15.947 267.069 6.199 79.511 22.561 119.219 63.94 160.185 101.83 47.289 43.738 45.762 91.708 130.6 122.09C-89.794 7.236 26.972-21.412 26.972-21.412 152.7-42.924 275.184-76.284 406.195-90.147c131.01-13.863 271.546 12.676 372.238 52.6C897.161 9.525 911.061 93.02 856.179 159.556c-27.168 32.946-69.244 65.029-67.229 100.127 3.047 53.041 103.797 93.859 145.886 143.474 0 0 215.854 170.011-32.887 261.345 0 0-95.397 40.677-217.687 36.436v0z"/><path opacity=".46" d="M666.041 686.332c-135.706-4.707-237.417-60.325-295.166-115.383-57.749-55.058-80.917-115.917-124.296-173.548-43.379-57.632-113.838-115.269-233.214-144.48-48.427-11.847-109.27-18.202-158.252-6.814-54.259 12.614-76.098 42.951-74.14 70.259 1.959 27.308 22.147 53.706 28.849 80.866 6.799 27.547-1.563 56.973-37.548 79.55-35.984 22.576-103.913 36.177-162.58 27.156-66.03-10.152-99.333-44.313-99.98-75.506-.638-31.073 16.915-69.085-38.974-87.588-58.087-19.229-137.978 1.788-195.232 21.509-60.229 20.744-123.061 40.931-194.858 52.136-71.798 11.205-206.75-2.443-273.41-18.791-66.66-16.347-106.01-52.363-89.02-85.476 18.58-36.209 126.66-42.851 126.66-42.851 175.633-9.161 286.652-17.456 351.543-66.046 16.247-12.19 24.76-26.125 24.626-40.312-.059-15.833-10.061-31.342-28.87-44.763-45.778-32.949-96.385-64.509-151.489-94.474-65.08-35.388-141.2-75.042-127.46-120.427 10.43-34.462 70.77-61.125 129.182-84.116 67.392-26.524 138.535-52.43 222.435-66.754 83.9-14.324 183.615-15.491 259.436 6.022 77.238 21.916 115.812 62.112 155.604 98.919 45.937 42.487 44.459 89.086 126.87 118.599C-85.9 12.46 27.533-15.371 27.533-15.371 149.665-36.27 268.648-68.677 395.915-82.144c127.268-13.467 263.789 12.317 361.603 51.1C872.843 14.681 886.35 95.792 833.042 160.424c-26.396 32.005-67.27 63.17-65.31 97.265 2.962 51.522 100.825 91.175 141.715 139.372 0 0 209.683 165.154-31.946 253.874 0 0-92.669 39.516-211.46 35.396z"/><path opacity=".46" d="M647.812 671.725c-131.713-4.568-230.428-58.549-286.479-111.988-56.052-53.438-78.535-112.504-120.634-168.441C198.6 335.36 130.208 279.419 14.344 251.067c-47-11.501-106.05-17.664-153.594-6.613-52.661 12.244-73.855 41.687-71.956 68.192 1.898 26.505 21.493 52.128 27.999 78.486 6.598 26.736-1.518 55.297-36.444 77.208s-100.858 35.112-157.796 26.358c-64.087-9.853-96.417-43.01-97.038-73.284-.619-30.159 16.419-67.053-37.827-85.011-56.375-18.665-133.917 1.735-189.486 20.875-58.457 20.134-119.441 39.727-189.124 50.602-69.684 10.875-200.658-2.371-265.368-18.238-64.7-15.868-102.89-50.822-86.4-82.961 18.03-35.145 122.93-41.59 122.93-41.59 170.467-8.893 278.219-16.945 341.201-64.104 15.768-11.831 24.029-25.356 23.899-39.125-.057-15.367-9.764-30.42-28.018-43.446-44.432-31.98-93.55-62.61-147.034-91.694C-992.876-7.625-1066.75-46.115-1053.41-90.16c10.13-33.448 68.683-59.327 125.377-81.64 65.412-25.744 134.463-50.891 215.893-64.79 81.43-13.898 178.213-15.035 251.806 5.842 74.966 21.272 112.404 60.285 151.026 96.009 44.588 41.234 43.145 86.465 123.134 115.108C-81.987 17.68 28.106-9.333 28.106-9.333 146.647-29.617 262.127-61.07 385.646-74.14c123.52-13.07 256.021 11.955 350.95 49.594C848.529 19.834 861.64 98.557 809.897 161.29c-25.62 31.062-65.289 61.31-63.388 94.402 2.881 50.015 97.858 88.498 137.55 135.277 0 0 203.511 160.292-31.005 246.404-.003.002-89.943 38.352-205.24 34.353h-.002z"/><path opacity=".46" d="M629.59 657.118c-127.719-4.43-223.444-56.774-277.795-108.591-54.35-51.817-76.147-109.095-116.977-163.335-40.83-54.241-107.141-108.485-219.493-135.978-45.575-11.152-102.839-17.129-148.938-6.412-51.065 11.872-71.616 40.422-69.776 66.124 1.84 25.702 20.839 50.547 27.151 76.107 6.402 25.927-1.471 53.62-35.339 74.867-33.867 21.247-97.797 34.046-153.012 25.559-62.144-9.554-93.494-41.707-94.096-71.062-.602-29.242 15.921-65.02-36.68-82.434-54.666-18.099-129.857 1.683-183.743 20.242-56.682 19.524-115.815 38.524-183.388 49.069-67.573 10.545-194.574-2.3-257.324-17.686-62.75-15.387-99.77-49.282-83.78-80.447 17.49-34.077 119.21-40.328 119.21-40.328 165.297-8.621 269.782-16.429 330.857-62.161 15.29-11.472 23.302-24.587 23.176-37.938-.055-14.902-9.468-29.497-27.169-42.128-43.084-31.01-90.712-60.713-142.571-88.914-61.249-33.304-132.883-70.625-119.953-113.338 9.82-32.434 66.602-57.529 121.581-79.166 63.43-24.963 130.381-49.344 209.346-62.823 78.965-13.48 172.801-14.581 244.158 5.666 72.69 20.63 108.998 58.457 146.449 93.097 43.233 39.987 41.838 83.845 119.408 111.62C-78.08 22.908 28.669-3.286 28.669-3.286c114.945-19.67 226.925-50.173 346.7-62.844C495.145-78.8 623.626-54.538 715.685-18.038c108.542 43.032 121.25 119.37 71.073 180.199-24.844 30.12-63.313 59.451-61.468 91.54 2.787 48.494 94.893 85.81 133.374 131.171 0 0 197.346 155.432-30.062 238.933.008.002-87.21 37.191-199.012 33.313v0z"/><path opacity=".46" d="M611.366 642.512c-123.726-4.29-216.459-54.999-269.11-105.196-52.651-50.198-73.777-105.684-113.318-158.229-39.542-52.545-103.794-105.093-212.63-131.725-44.152-10.805-99.624-16.595-144.281-6.212-49.469 11.501-69.378 39.158-67.593 64.057 1.785 24.899 20.19 48.965 26.3 73.728 6.202 25.115-1.424 51.945-34.23 72.525-32.806 20.58-94.743 32.983-148.23 24.761-60.201-9.256-90.567-40.402-91.152-68.841-.582-28.33 15.423-62.987-35.534-79.857-52.957-17.531-125.796 1.631-177.996 19.61-54.912 18.914-112.198 37.319-177.656 47.534-65.457 10.215-188.496-2.227-249.276-17.13-60.79-14.904-96.66-47.741-81.16-77.932 16.93-33.012 115.47-39.068 115.47-39.068 160.132-8.354 261.349-15.917 320.513-60.216 14.811-11.114 22.572-23.819 22.449-36.753-.053-14.436-9.171-28.575-26.319-40.811-41.738-30.04-87.877-58.815-138.117-86.135C-929.838 4.36-999.235-31.793-986.708-73.172c9.513-31.42 64.522-55.73 117.778-76.69 61.446-24.182 126.305-47.802 202.807-60.861 76.502-13.06 167.405-14.125 236.526 5.489 70.42 19.982 105.59 56.629 141.871 90.187 41.883 38.735 40.532 81.222 115.668 108.127 97.87 35.047 201.285 9.673 201.285 9.673 111.36-19.05 219.833-48.598 335.87-60.878 116.037-12.28 240.495 11.228 329.676 46.586 105.143 41.693 117.456 115.643 68.854 174.57-24.066 29.18-61.33 57.594-59.544 88.679 2.7 46.977 91.924 83.127 129.203 127.07 0 0 191.174 150.571-29.123 231.462 0 .001-84.489 36.027-192.795 32.271l-.002-.001z"/><path opacity=".46" d="M593.141 627.905c-119.733-4.152-209.471-53.225-260.423-101.802-50.951-48.576-71.394-102.272-109.662-153.121-38.268-50.848-100.443-101.701-205.768-127.474-42.727-10.456-96.409-16.059-139.626-6.012-47.876 11.133-67.139 37.895-65.411 61.99 1.729 24.095 19.538 47.386 25.452 71.347 6.004 24.302-1.382 50.267-33.129 70.186-31.748 19.919-91.683 31.918-143.443 23.961-58.257-8.957-87.646-39.098-88.211-66.62-.565-27.414 14.925-60.953-34.387-77.279-51.248-16.966-121.736 1.578-172.25 18.977-53.143 18.302-108.578 36.114-171.924 46.001-63.345 9.886-182.41-2.156-241.229-16.58-58.82-14.425-93.53-46.199-78.54-75.415 16.39-31.948 111.74-37.808 111.74-37.808 154.966-8.082 252.926-15.401 310.172-58.273 14.333-10.754 21.842-23.048 21.725-35.563-.054-13.971-8.879-27.654-25.475-39.496-40.391-29.07-85.042-56.916-133.66-83.355C-898.327 10.347-965.482-24.64-953.362-64.68c9.206-30.406 62.435-53.931 113.975-74.215 59.467-23.402 122.23-46.259 196.259-58.896 74.029-12.637 162.004-13.668 228.899 5.314 68.147 19.336 102.18 54.801 137.293 87.276 40.529 37.486 39.223 78.6 111.933 104.641 94.713 33.916 194.79 9.361 194.79 9.361 107.758-18.439 212.736-47.03 325.021-58.913C467.094-61.994 587.54-39.246 673.845-5.029c101.759 40.339 113.672 111.9 66.642 168.927-23.291 28.238-59.354 55.735-57.624 85.817 2.613 45.461 88.955 80.447 125.034 122.968 0 0 185.002 145.712-28.184 223.993 0 0-81.763 34.863-186.573 31.228l.001.001z"/><path opacity=".46" d="M574.918 613.299c-115.741-4.014-202.486-51.449-251.74-98.406-49.254-46.956-69.012-98.862-106.003-148.015-36.991-49.153-97.09-98.311-198.903-123.224-41.302-10.107-93.19-15.527-134.968-5.812-46.276 10.758-64.899 36.631-63.229 59.922 1.67 23.292 18.886 45.806 24.604 68.969 5.798 23.494-1.334 48.591-32.024 67.843-30.691 19.253-88.626 30.856-138.658 23.162-56.316-8.658-84.724-37.794-85.269-64.396-.544-26.502 14.426-58.921-33.24-74.703-49.54-16.4-117.677 1.524-166.508 18.344-51.366 17.692-104.952 34.911-166.189 44.466-61.237 9.555-176.323-2.084-233.181-16.028-56.87-13.944-90.42-44.658-75.93-72.9 15.85-30.882 108.023-36.545 108.023-36.545 149.795-7.814 244.481-14.89 299.824-56.33 13.855-10.396 21.115-22.281 21.001-34.38-.05-13.504-8.579-26.731-24.62-38.177-39.044-28.101-82.205-55.018-129.202-80.575-55.504-30.18-120.42-64-108.702-102.707 8.898-29.392 60.358-52.131 110.175-71.739 57.481-22.623 118.153-44.718 189.713-56.933 71.561-12.216 156.6-13.212 221.263 5.136 65.876 18.692 98.774 52.974 132.712 84.365 39.176 36.236 37.914 75.98 108.201 101.149 91.552 32.786 188.294 9.05 188.294 9.05C134.525-2.988 236.004-30.626 344.536-42.114 453.069-53.6 569.512-31.609 652.938 1.468c98.359 38.998 109.88 108.174 64.414 163.298-22.516 27.295-57.376 53.877-55.702 82.955 2.526 43.944 85.991 77.76 120.865 118.866 0 0 178.834 140.854-27.243 216.522-.005.004-79.042 33.704-180.356 30.191l.002-.001z"/><path opacity=".46" d="M556.692 598.693c-111.746-3.876-195.5-49.675-243.052-95.012-47.551-45.336-66.631-95.45-102.35-142.907-35.719-47.457-93.738-94.918-192.037-118.971-39.878-9.758-89.979-14.989-130.312-5.612-44.678 10.388-62.659 35.368-61.047 57.856 1.612 22.489 18.235 44.223 23.754 66.589 5.599 22.683-1.287 46.914-30.921 65.503-29.633 18.589-85.566 29.789-133.874 22.361-54.369-8.36-81.795-36.489-82.326-62.175-.526-25.586 13.93-56.888-32.094-72.125-47.826-15.834-113.609 1.474-160.763 17.712-49.592 17.082-101.332 33.704-160.453 42.931-59.122 9.227-170.244-2.012-225.141-15.473-54.896-13.462-87.296-43.118-73.306-70.386 15.3-29.816 104.297-35.286 104.297-35.286 144.627-7.543 236.045-14.375 289.478-54.387 13.376-10.037 20.385-21.512 20.275-33.193-.05-13.037-8.287-25.807-23.775-36.857-37.695-27.132-79.367-53.12-124.742-77.795-53.588-29.14-116.264-61.792-104.951-99.163 8.591-28.378 58.273-50.334 106.373-69.264 55.497-21.842 114.074-43.175 183.167-54.968 69.093-11.793 151.198-12.756 213.631 4.959 63.601 18.046 95.358 51.144 128.131 81.454 37.828 34.983 36.606 73.358 104.47 97.66C-62.488 43.796 30.92 20.88 30.92 20.88 131.495 3.67 229.475-23.014 334.266-34.103c104.79-11.09 217.21 10.142 297.753 42.078 94.967 37.65 106.092 104.44 62.192 157.663-21.737 26.353-55.391 52.017-53.787 80.091 2.441 42.428 83.019 75.077 116.691 114.768 0 0 172.665 135.993-26.304 209.053.008-.002-76.298 32.534-174.117 29.143h-.002z"/><path opacity=".46" d="M538.469 584.087c-107.752-3.738-188.512-47.9-234.366-91.616-45.853-43.716-64.252-92.04-98.692-137.8-34.441-45.761-90.392-91.527-185.18-114.722-38.454-9.41-86.755-14.452-125.656-5.41-43.081 10.016-60.419 34.103-58.866 55.787 1.554 21.685 17.583 42.645 22.906 64.209 5.401 21.873-1.24 45.238-29.815 63.163-28.575 17.926-82.509 28.725-129.091 21.564-52.428-8.061-78.876-35.185-79.385-59.953-.506-24.673 13.433-54.855-30.952-69.548-46.123-15.267-109.557 1.42-155.019 17.078-47.82 16.471-97.71 32.5-154.72 41.396-57.009 8.897-164.156-1.942-217.09-14.924-52.935-12.981-84.173-41.576-70.683-67.869 14.749-28.752 100.565-34.025 100.565-34.025 139.458-7.274 227.609-13.862 279.136-52.442 12.9-9.679 19.659-20.744 19.552-32.008-.046-12.572-7.987-24.886-22.92-35.543-36.349-26.162-76.532-51.221-120.286-75.014-51.673-28.098-112.103-59.583-101.199-95.622 8.285-27.364 56.192-48.535 102.573-66.789 53.514-21.062 110.001-41.632 176.62-53.005 66.62-11.374 145.796-12.3 205.998 4.782 61.331 17.403 91.957 49.319 123.555 78.544 36.473 33.735 35.297 70.737 100.735 94.17C-58.576 49.012 31.49 26.914 31.49 26.914c96.97-16.595 191.45-42.327 292.501-53.019 101.05-10.691 209.448 9.78 287.115 40.573 91.571 36.308 102.292 100.709 59.967 152.031-20.959 25.411-53.414 50.157-51.858 77.23 2.353 40.911 80.057 72.396 112.525 110.665 0 0 166.493 131.133-25.363 201.58-.005.008-73.587 31.383-167.909 28.112l.001.001z"/><path opacity=".46" d="M520.242 569.48c-103.761-3.596-181.524-46.127-225.681-88.221-44.158-42.094-61.87-88.629-95.037-132.695-33.166-44.065-87.043-88.134-178.311-110.467-37.03-9.061-83.547-13.917-121-5.21-41.485 9.645-58.182 32.84-56.684 53.72 1.499 20.88 16.931 41.064 22.057 61.83 5.2 21.062-1.196 43.561-28.71 60.822-27.513 17.262-79.454 27.66-124.307 20.765-50.486-7.762-75.954-33.883-76.444-57.732-.486-23.759 12.935-52.823-29.8-66.97-44.412-14.704-105.497 1.367-149.277 16.448-46.051 15.861-94.088 31.297-148.985 39.863-54.898 8.566-158.078-1.868-209.051-14.368-50.972-12.501-81.054-40.036-68.065-65.354 14.205-27.686 96.84-32.764 96.84-32.764 134.291-7.004 219.175-13.348 268.79-50.499 12.423-9.32 18.932-19.975 18.829-30.822-.046-12.105-7.694-23.963-22.074-34.224-35.003-25.192-73.697-49.323-115.829-72.235-49.758-27.057-107.954-57.376-97.449-92.076 7.976-26.348 54.109-46.736 98.772-64.314 51.531-20.28 105.922-40.088 170.075-51.04 64.153-10.952 140.391-11.844 198.362 4.605 59.055 16.757 88.546 47.49 118.975 75.633 35.118 32.485 33.987 68.115 96.999 90.68 82.078 29.391 168.805 8.111 168.805 8.111C125.426 16.988 216.398-7.79 313.705-18.088c97.307-10.298 201.693 9.416 276.481 39.068 88.177 34.962 98.506 96.976 57.746 146.396-20.182 24.47-51.434 48.298-49.935 74.368 2.262 39.397 77.089 69.71 108.353 106.564 0 0 160.322 126.274-24.423 194.11-.001 0-70.857 30.212-161.685 27.062v0z"/><path opacity=".46" d="M502.019 554.873c-99.767-3.461-174.543-44.348-216.997-84.826-42.455-40.478-59.486-85.217-91.381-127.587-31.894-42.37-83.691-84.741-171.454-106.216-35.605-8.714-80.33-13.381-116.341-5.01-39.891 9.273-55.943 31.576-54.496 51.655 1.447 20.078 16.276 39.481 21.206 59.45 4.999 20.251-1.149 41.885-27.604 58.481-26.455 16.597-76.397 26.596-119.525 19.965-48.543-7.464-73.03-32.577-73.501-55.509-.47-22.844 12.433-50.786-28.651-64.392-42.701-14.137-101.436 1.316-143.528 15.812-44.281 15.252-90.471 30.092-143.258 38.328-52.787 8.236-151.988-1.795-201.005-13.816-49.018-12.02-77.936-38.494-65.453-62.839 13.658-26.621 93.114-31.503 93.114-31.503 129.122-6.735 210.738-12.835 258.445-48.556 11.944-8.962 18.202-19.207 18.104-29.636-.044-11.641-7.397-23.042-21.223-32.909-33.656-24.223-70.861-47.425-111.373-69.454-47.844-26.016-103.8-55.168-93.699-88.534 7.669-25.335 52.024-44.938 94.97-61.839 49.55-19.5 101.84-38.544 163.535-49.074 61.695-10.53 134.987-11.389 190.728 4.427 56.783 16.112 85.144 45.66 114.396 72.721 33.77 31.236 32.689 65.496 93.267 87.19 78.919 28.26 162.3 7.8 162.3 7.8C122.386 23.636 209.856-.188 303.418-10.088c93.562-9.9 193.925 9.055 265.834 37.565 84.785 33.616 94.716 93.246 55.522 140.762-19.405 23.528-49.453 46.44-48.013 71.506 2.179 37.88 74.125 67.029 104.184 102.462 0 0 154.153 121.414-23.484 186.64.017.004-68.11 29.053-155.442 26.025v0z"/><path opacity=".46" d="M483.788 540.266c-95.772-3.322-167.553-42.574-208.315-81.431s-57.107-81.807-87.72-122.48c-30.612-40.672-80.337-81.35-164.587-101.966-34.181-8.364-77.117-12.845-111.685-4.807-38.292 8.902-53.704 30.311-52.322 49.584 1.382 19.273 15.627 37.904 20.36 57.07 4.797 19.44-1.101 40.208-26.501 56.14-25.399 15.931-73.336 25.531-114.737 19.165-46.601-7.165-70.108-31.273-70.562-53.285-.449-21.93 11.939-48.755-27.499-61.814-40.992-13.571-97.377 1.263-137.784 15.18-42.505 14.64-86.847 28.887-137.517 36.795-50.671 7.907-145.909-1.725-192.959-13.263-47.049-11.537-74.817-36.953-62.823-60.322 13.111-25.555 89.387-30.242 89.387-30.242 123.953-6.465 202.304-12.321 248.101-46.613 11.464-8.603 17.469-18.438 17.373-28.45-.042-11.174-7.1-22.119-20.373-31.591-32.308-23.253-68.024-45.527-106.913-66.675-45.928-24.974-99.645-52.96-89.949-84.989 7.364-24.32 49.945-43.138 91.168-59.364 47.564-18.72 97.77-37.002 156.985-47.11 59.216-10.109 129.584-10.934 183.094 4.249 54.509 15.467 81.736 43.836 109.816 69.812 32.421 29.984 31.373 62.871 89.537 83.7 75.759 27.128 155.813 7.484 155.813 7.484C119.371 30.293 203.34 7.425 293.157-2.08c89.819-9.505 186.161 8.693 255.192 36.062 81.395 32.27 90.924 89.512 53.301 135.127-18.629 22.586-47.476 44.581-46.097 68.643 2.091 36.363 71.158 64.346 100.015 98.36 0 0 147.975 116.553-22.545 179.17.01.006-65.391 27.892-149.233 24.984h-.002z"/><path opacity=".46" d="M465.569 525.659c-91.784-3.183-160.568-40.797-199.624-78.034-39.056-37.238-54.729-78.398-84.06-117.374-29.331-38.976-76.993-77.958-157.727-97.713-32.755-8.018-73.9-12.31-107.029-4.609-36.694 8.53-51.464 29.048-50.139 47.518 1.326 18.47 14.976 36.324 19.511 54.691 4.599 18.631-1.057 38.532-25.394 53.8-24.336 15.268-70.272 24.468-109.956 18.366-44.656-6.866-67.183-29.969-67.62-51.066-.432-21.016 11.44-46.723-26.36-59.238-39.284-13.006-93.317 1.209-132.04 14.547-40.735 14.028-83.223 27.685-131.785 35.261-48.561 7.575-139.825-1.653-184.913-12.71-45.088-11.056-71.696-35.413-60.206-57.808 12.561-24.487 85.66-28.981 85.66-28.981 118.785-6.196 193.869-11.807 237.758-44.671 10.987-8.244 16.744-17.668 16.653-27.263-.039-10.708-6.803-21.197-19.523-30.274-30.961-22.282-65.187-43.626-102.455-63.89-44.013-23.934-95.491-50.753-86.198-81.446 7.056-23.308 47.862-41.34 87.368-56.889 45.582-17.939 93.693-35.46 150.439-45.146 56.745-9.687 124.181-10.477 175.46 4.073 52.239 14.821 78.324 42.009 105.238 66.9 31.066 28.733 30.066 60.25 85.804 80.211 72.6 25.997 149.313 7.175 149.313 7.175 82.602-14.137 163.069-36.05 249.143-45.158 86.073-9.108 178.405 8.33 244.55 34.558 77.998 30.925 87.132 85.781 51.077 129.495-17.853 21.645-45.498 42.722-44.169 65.781 2.002 34.849 68.19 61.663 95.844 94.26 0 0 141.812 111.693-21.606 171.701.001-.002-62.673 26.72-143.014 23.933v0z"/><path opacity=".46" d="M447.343 511.053c-87.784-3.043-153.582-39.023-190.94-74.636-37.359-35.614-52.344-74.985-80.401-112.268-28.057-37.283-73.642-74.567-150.868-93.463-31.333-7.667-70.685-11.775-102.372-4.408-35.099 8.16-49.225 27.784-47.958 45.45 1.267 17.666 14.327 34.741 18.661 52.311 4.402 17.82-1.01 36.855-24.29 51.459-23.279 14.603-67.22 23.402-105.171 17.567-42.714-6.566-64.26-28.666-64.676-48.843-.409-20.103 10.946-44.691-25.212-56.66-37.575-12.44-89.257 1.157-126.293 13.913-38.961 13.42-79.606 26.478-126.052 33.729-46.446 7.25-133.741-1.58-176.868-12.156-43.126-10.576-68.576-33.872-57.587-55.295 12.019-23.423 81.935-27.72 81.935-27.72 113.619-5.925 185.434-11.292 227.41-42.724 10.51-7.885 16.017-16.9 15.93-26.077-.036-10.243-6.505-20.276-18.672-28.958-29.614-21.315-62.351-41.731-97.998-61.115-42.098-22.892-91.336-48.543-82.448-77.901 6.749-22.294 45.779-39.542 83.567-54.414 43.596-17.158 89.613-33.918 143.895-43.182 54.282-9.265 118.777-10.022 167.824 3.896 49.964 14.177 74.917 40.179 100.66 63.989 29.715 27.485 28.755 57.632 82.068 76.72C-39.071 75.134 34.304 57.13 34.304 57.13c79.008-13.519 155.976-34.482 238.303-43.194 82.326-8.711 170.639 7.967 233.916 33.056 74.603 29.579 83.336 82.046 48.857 123.859-17.078 20.703-43.517 40.863-42.249 62.92 1.916 33.331 65.224 58.98 91.673 90.158 0 0 135.641 106.834-20.664 164.229.003.001-59.949 25.561-136.796 22.895h-.001z"/><path opacity=".46" d="M429.129 496.448c-83.795-2.906-146.59-37.247-182.256-71.244-35.665-33.996-49.971-71.575-76.753-107.16-26.782-35.585-70.293-71.174-144.002-89.211-29.908-7.319-67.47-11.24-97.715-4.208-33.501 7.789-46.983 26.521-45.777 43.383 1.206 16.863 13.673 33.162 17.813 49.932 4.198 17.009-.968 35.181-23.183 49.118-22.215 13.937-64.165 22.338-100.387 16.769-40.772-6.268-61.339-27.362-61.732-46.623-.395-19.187 10.45-42.656-24.066-54.083-35.863-11.873-85.195 1.104-120.548 13.281-37.187 12.808-75.984 25.274-120.313 32.193-44.329 6.918-127.656-1.508-168.819-11.603-41.164-10.094-65.459-32.332-54.969-52.778 11.477-22.357 78.205-26.459 78.205-26.459 108.446-5.655 176.995-10.777 217.066-40.782 10.031-7.527 15.287-16.131 15.204-24.891-.036-9.777-6.212-19.353-17.826-27.64-28.266-20.345-59.514-39.832-93.539-58.334-40.184-21.85-87.18-46.335-78.698-74.359 6.441-21.279 43.696-37.742 79.76-51.938 41.615-16.38 85.541-32.374 137.347-41.217 51.806-8.842 113.375-9.565 160.193 3.719 47.689 13.532 71.509 38.352 96.083 61.08 28.364 26.234 27.449 55.007 78.336 73.23 66.283 23.736 136.321 6.55 136.321 6.55C110.288 50.27 183.752 30.26 262.339 21.947c78.586-8.314 162.876 7.604 223.273 31.552 71.211 28.234 79.551 78.316 46.635 118.224-16.299 19.761-41.535 39.005-40.326 60.057 1.829 31.817 62.255 56.298 87.502 86.059 0 0 129.472 101.974-19.724 156.757-.011-.002-57.229 24.397-130.572 21.854l.002-.001z"/><path opacity=".46" d="M410.897 481.842c-79.799-2.767-139.61-35.474-173.569-67.85-33.96-32.375-47.582-68.163-73.089-102.053-25.507-33.889-66.942-67.782-137.14-84.959-28.484-6.97-64.255-10.703-93.06-4.007-31.904 7.418-44.747 25.256-43.594 41.315 1.152 16.059 13.022 31.583 16.963 47.552 3.997 16.199-.92 33.503-22.081 46.778-21.161 13.274-61.106 21.274-95.601 15.97-38.826-5.97-58.414-26.059-58.793-44.401-.372-18.276 9.95-40.624-22.917-51.505-34.154-11.307-81.134 1.052-114.802 12.648-35.415 12.197-72.356 24.07-114.582 30.658-42.227 6.587-121.574-1.437-160.776-11.051-39.202-9.613-62.339-30.79-52.347-50.262 10.925-21.292 74.479-25.198 74.479-25.198 103.281-5.387 168.564-10.266 206.722-38.837 9.553-7.169 14.557-15.365 14.475-23.709-.033-9.311-5.913-18.432-16.973-26.325-26.92-19.375-56.679-37.934-89.082-55.555-38.269-20.808-83.024-44.13-74.946-70.814 6.134-20.265 41.613-35.944 75.963-49.463 39.63-15.598 81.462-30.831 130.802-39.253 49.339-8.423 107.972-9.11 152.55 3.54 45.419 12.887 68.103 36.524 91.502 58.168 27.007 24.982 26.141 52.387 74.602 69.74 63.124 22.604 129.825 6.24 129.825 6.24 71.818-12.29 141.789-31.345 216.621-39.265 74.832-7.92 155.113 7.242 212.63 30.047 67.818 26.889 75.761 74.584 44.414 112.591-15.523 18.819-39.558 37.146-38.406 57.196 1.741 30.298 59.288 53.613 83.333 81.955 0 0 123.301 97.116-18.785 149.288 0 .005-54.486 23.243-124.338 20.821v0z"/><path opacity=".46" d="M392.67 467.235c-75.807-2.63-132.624-33.699-164.883-64.454-32.259-30.754-45.2-64.752-69.431-96.946-24.231-32.195-63.593-64.389-130.276-80.709-27.054-6.62-61.04-10.168-88.4-3.806-30.31 7.047-42.516 23.99-41.42 39.245 1.096 15.254 12.373 29.999 16.116 45.172 3.796 15.388-.873 31.825-20.974 44.436-20.101 12.61-58.054 20.207-90.821 15.17-36.882-5.673-55.491-24.754-55.849-42.178-.356-17.358 9.45-38.591-21.773-48.927-32.446-10.743-77.074.998-109.058 12.014-33.646 11.588-68.742 22.865-108.85 29.124-40.108 6.259-115.49-1.365-152.73-10.497-37.24-9.132-59.219-29.25-49.728-47.748 10.379-20.228 70.751-23.937 70.751-23.937 98.11-5.118 160.129-9.753 196.378-36.895 9.078-6.809 13.835-14.593 13.762-22.517-.033-8.845-5.619-17.508-16.124-25.005-25.573-18.405-53.843-36.036-84.625-52.775-36.355-19.767-78.867-41.917-71.197-67.27 5.828-19.252 39.527-34.147 72.166-46.987 37.648-14.818 77.381-29.29 124.259-37.29s102.568-8.653 144.928 3.366c43.147 12.242 64.694 34.696 86.923 55.256 25.659 23.735 24.833 49.766 70.87 66.25C-27.353 90.803 36.01 75.255 36.01 75.255c68.227-11.676 134.691-29.776 205.783-37.299 71.091-7.523 147.351 6.88 201.992 28.544 64.424 25.542 71.969 70.851 42.19 106.956-14.749 17.88-37.58 35.287-36.485 54.334 1.654 28.782 56.327 50.928 79.165 77.854 0 0 117.131 92.256-17.845 141.817-.017.003-51.782 22.076-118.14 19.775v0z"/><path opacity=".46" d="M374.447 452.628c-71.814-2.491-125.637-31.922-156.199-61.057-30.563-29.135-42.821-61.342-65.78-91.841-22.959-30.498-60.241-60.998-123.412-76.457-25.628-6.271-57.824-9.631-83.746-3.606-28.711 6.675-40.267 22.73-39.231 37.181 1.036 14.451 11.71 28.419 15.265 42.793 3.6 14.577-.82 30.15-19.87 42.095-19.049 11.944-54.989 19.145-86.033 14.372-34.942-5.372-52.57-23.45-52.906-39.957-.34-16.444 8.95-36.559-20.626-46.35-30.739-10.177-73.016.947-103.313 11.382-31.872 10.977-65.122 21.66-103.115 27.589-37.993 5.929-109.407-1.292-144.689-9.941-35.282-8.648-56.1-27.71-47.109-45.232 9.83-19.162 67.024-22.677 67.024-22.677 92.946-4.848 151.696-9.241 186.035-34.951 8.597-6.45 13.101-13.824 13.03-21.332-.032-8.378-5.325-16.585-15.277-23.687-24.226-17.436-51.007-34.138-80.167-49.995-34.439-18.726-74.717-39.708-67.447-63.727 5.52-18.237 37.451-32.347 68.361-44.512 35.664-14.037 73.311-27.746 117.712-35.325 44.402-7.58 97.167-8.198 137.289 3.187 40.879 11.598 61.284 32.868 82.345 52.346 24.309 22.482 23.52 47.143 67.134 62.76C-23.47 96.03 36.554 81.302 36.554 81.302c64.632-11.059 127.593-28.208 194.941-35.335 67.348-7.126 139.59 6.518 191.351 27.04 61.038 24.195 68.186 67.117 39.985 101.319-13.97 16.936-35.598 33.429-34.562 51.472 1.569 27.266 53.355 48.248 74.994 73.753 0 0 110.955 87.396-16.905 134.347-.009.002-49.043 20.912-111.911 18.731v0z"/><path opacity=".46" d="M356.221 438.021c-67.819-2.351-118.649-30.147-147.512-57.662-28.863-27.516-40.438-57.93-62.116-86.732-21.677-28.802-56.888-57.609-116.55-72.206-24.204-5.921-54.608-9.096-79.088-3.405-27.115 6.304-38.028 21.464-37.051 35.113.978 13.649 11.065 26.841 14.417 40.416 3.399 13.767-.782 28.474-18.766 39.755-17.984 11.282-51.932 18.082-81.25 13.573-33-5.074-49.646-22.146-49.966-37.735-.319-15.529 8.453-34.526-19.477-43.773-29.028-9.61-68.955.894-97.567 10.747-30.1 10.367-61.501 20.456-97.381 26.056-35.881 5.6-103.325-1.22-136.644-9.391-33.318-8.171-52.979-26.168-44.487-42.718 9.283-18.095 63.297-21.415 63.297-21.415 87.776-4.579 143.261-8.725 175.691-33.008 8.119-6.091 12.373-13.056 12.305-20.145-.029-7.913-5.026-15.664-14.425-22.371-22.878-16.467-48.17-32.24-75.711-47.215-32.524-17.685-70.564-37.503-63.696-60.184 5.214-17.223 35.367-30.548 64.559-42.038 33.681-13.255 69.235-26.202 111.167-33.36 41.932-7.16 91.766-7.742 129.653 3.009 38.602 10.953 57.881 31.042 77.766 49.436 22.95 21.232 22.217 44.522 63.403 59.27 53.646 19.212 110.335 5.303 110.335 5.303C98.165 76.897 157.625 60.7 221.228 53.97c63.603-6.73 131.826 6.156 180.714 25.533 57.634 22.852 64.385 63.387 37.742 95.688-13.19 15.994-33.618 31.57-32.639 48.61 1.481 25.749 50.389 45.565 70.823 69.652 0 0 104.794 82.535-15.964 126.875-.003.004-46.315 19.751-105.683 17.692v0z"/><path opacity=".46" d="M337.998 423.416c-63.828-2.214-111.664-28.373-138.827-54.269-27.162-25.895-38.056-54.519-58.458-81.625s-53.54-54.214-109.69-67.952c-22.779-5.574-51.396-8.559-74.433-3.204-25.518 5.932-35.788 20.201-34.867 33.045.92 12.845 10.416 25.259 13.567 38.034 3.198 12.956-.735 26.796-17.66 37.413-16.926 10.618-48.874 17.016-76.467 12.774-31.056-4.774-46.719-20.846-47.023-35.513-.3-14.615 7.956-32.493-18.331-41.196-27.319-9.044-64.896.841-91.824 10.117-28.327 9.756-57.878 19.252-91.648 24.521-33.771 5.27-97.239-1.149-128.595-8.839-31.356-7.689-49.859-24.627-41.869-40.201 8.738-17.031 59.57-20.154 59.57-20.154 82.6-4.31 134.822-8.211 165.343-31.065 7.641-5.733 11.645-12.287 11.583-18.959-.028-7.447-4.733-14.742-13.579-21.054-21.531-15.497-45.333-30.341-71.25-44.434-30.611-16.644-66.409-35.294-59.942-56.64 4.907-16.208 33.285-28.749 60.758-39.562 31.698-12.475 65.15-24.66 104.62-31.396 39.471-6.736 86.36-7.287 122.022 2.832 36.325 10.31 54.471 29.214 73.185 46.527 21.606 19.983 20.908 41.9 59.668 55.78 50.489 18.081 103.84 4.991 103.84 4.991 57.442-9.83 113.403-25.071 173.261-31.405 59.858-6.333 124.065 5.793 170.07 24.033 54.242 21.506 60.595 59.655 35.523 90.054-12.415 15.052-31.642 29.714-30.718 45.748 1.395 24.233 47.422 42.882 66.649 65.55 0 0 98.621 77.676-15.019 119.405-.001-.004-43.588 18.58-99.459 16.644v0z"/><path opacity=".46" d="M319.773 408.809c-59.834-2.075-104.681-26.596-130.141-50.874-25.459-24.277-35.676-51.107-54.8-76.517-19.123-25.41-50.194-50.823-102.827-63.703-21.352-5.225-48.176-8.025-69.774-3.003-23.921 5.561-33.55 18.936-32.686 30.977.864 12.041 9.762 23.68 12.717 35.655 2.998 12.145-.688 25.119-16.555 35.074-15.867 9.954-45.818 15.95-71.68 11.973-29.113-4.477-43.8-19.538-44.083-33.292-.282-13.7 7.457-30.459-17.183-38.618-25.61-8.479-60.842.787-86.08 9.484-26.556 9.145-54.258 18.047-85.915 22.986-31.657 4.94-91.155-1.077-120.548-8.285-29.392-7.207-46.74-23.087-39.248-37.687 8.189-15.965 55.842-18.893 55.842-18.893 77.441-4.04 126.389-7.697 154.998-29.121 7.163-5.374 10.917-11.518 10.858-17.773-.026-6.981-4.435-13.819-12.727-19.736-20.184-14.528-42.497-28.443-66.793-41.655-28.698-15.599-62.255-33.087-56.197-53.096 4.601-15.195 31.203-26.952 56.956-37.087 29.716-11.695 61.081-23.117 98.074-29.433 36.993-6.315 80.957-6.83 114.388 2.656 34.053 9.662 51.062 27.385 68.605 43.614 20.255 18.732 19.6 39.28 55.938 52.29 47.329 16.949 97.341 4.678 97.341 4.678 53.85-9.214 106.309-23.503 162.422-29.44 56.113-5.937 116.298 5.43 159.432 22.528 50.847 20.163 56.804 55.923 33.3 84.42-11.64 14.111-29.661 27.852-28.797 42.885 1.306 22.717 44.453 40.2 62.483 61.45 0 0 92.451 72.815-14.084 111.935 0 .003-40.861 17.425-93.236 15.608v0z"/><path opacity=".46" d="M301.547 394.202c-55.839-1.937-97.692-24.823-121.454-47.478s-33.299-47.694-51.142-71.412c-17.844-23.718-46.843-47.43-95.966-59.451-19.927-4.875-44.96-7.489-65.116-2.803-22.326 5.191-31.31 17.672-30.506 28.91.805 11.238 9.112 22.101 11.87 33.276 2.8 11.336-.644 23.444-15.45 32.733-14.805 9.29-42.759 14.886-66.898 11.175-27.17-4.177-40.875-18.235-41.137-31.069-.263-12.786 6.959-28.427-16.036-36.04-23.901-7.913-56.776.737-80.334 8.85-24.783 8.536-50.638 16.842-80.178 21.453-29.539 4.612-85.073-1.006-112.504-7.735-27.431-6.728-43.621-21.545-36.63-35.171 7.644-14.9 52.12-17.632 52.12-17.632 72.272-3.77 117.954-7.183 144.658-27.179 6.685-5.016 10.187-10.75 10.131-16.588-.023-6.515-4.139-12.897-11.879-18.419-18.837-13.558-39.66-26.544-62.334-38.874-26.779-14.561-58.099-30.878-52.444-49.553 4.294-14.182 29.117-25.15 53.158-34.614 27.732-10.915 57.004-21.574 91.529-27.468 34.524-5.895 75.553-6.375 106.755 2.476 31.781 9.018 47.653 25.558 64.029 40.703 18.893 17.48 18.291 36.657 52.203 48.801 44.172 15.818 90.846 4.365 90.846 4.365 50.259-8.602 99.215-21.934 151.576-27.476 52.361-5.543 108.541 5.067 148.79 21.026 47.455 18.815 53.013 52.189 31.077 78.786-10.863 13.169-27.679 25.991-26.873 40.022 1.219 21.202 41.487 37.517 58.313 57.35 0 0 86.278 67.957-13.147 104.464-.015.007-38.147 16.266-87.025 14.572h-.002z"/></g></svg>