<svg width="2386" height="1587" viewBox="0 0 2386 1587" fill="none" xmlns="http://www.w3.org/2000/svg">
<path d="M-3098.74 153.663C-2981.76 179.048 -2891.54 209.784 -2706.28 265.119C-2415 352.292 -2081 384.472 -2081 384.472C-1431.2 412.728 -1285.44 221.635 -583.017 374.567C-466.04 399.952 -375.819 430.687 -190.56 486.023C100.719 573.195 434.727 605.376 434.727 605.376C1083.91 633.579 1230.29 442.538 1932.7 595.47C2049.68 620.856 2139.9 651.591 2325.16 706.926C2616.44 794.099 2950.45 826.28 2950.45 826.28C3599.63 854.482 3745.4 663.389 4447.82 816.32C4564.8 841.706 4655.02 872.441 4840.28 927.777C5131.56 1014.95 5465.56 1047.13 5465.56 1047.13L5418.18 1586.78C5418.18 1586.78 5084.17 1554.6 4792.89 1467.43C4607.63 1412.09 4518.02 1381.41 4400.43 1355.97C3697.99 1203.32 3552.22 1394.42 2902.46 1365.88C2902.46 1365.88 2568.45 1333.7 2277.17 1246.52C2091.91 1191.19 2002.3 1160.51 1884.71 1135.07C1182.27 982.418 1036.5 1173.51 386.734 1144.97C386.734 1144.97 52.7256 1112.79 -238.552 1025.62C-423.812 970.284 -513.426 939.602 -631.01 914.163C-1333.45 761.514 -1479.22 952.608 -2128.99 924.069C-2128.99 924.069 -2463 891.888 -2754.27 804.716C-2939.53 749.38 -3029.15 718.698 -3146.73 693.259C-3849.18 540.61 -3994.94 731.704 -4644.71 703.165L-4597.32 163.515C-3946.93 191.825 -3801.16 0.731014 -3098.74 153.663Z" fill="#E9F6FF"/>
</svg>
