<svg xmlns="http://www.w3.org/2000/svg" width="375" height="239"><defs><clipPath id="a"><path data-name="Rectangle 1946" fill="#fff" stroke="#707070" d="M0 0h375v239H0z"/></clipPath></defs><g data-name="Mask Group 28"><g data-name="Group 3917" opacity=".27" clip-path="url(#a)"><g data-name="Group 3736" opacity=".46" fill="none" stroke="#d2e8f8" stroke-miterlimit="10"><path data-name="Path 6681" d="M27.775 1127.368C2.968 1053.486 45.837 972.022 97.88 914.012s118.667-100.703 176.963-152.426 110.538-117.734 118.298-195.28c3.15-31.46-2.97-66.708-27.365-86.82-27.023-22.276-67.702-18.595-99.486-3.887s-58.416 38.57-88.96 55.705c-30.981 17.381-67.571 27.71-102.258 20.052S9.14 514.706 6.657 479.269c-2.795-39.886 30.061-74.55 66.722-90.51 36.522-15.9 85.298-25.686 94.626-64.41 9.695-40.245-32.978-71.825-69.056-92.125C61 210.87 23.123 187.864-6.16 155.636s-43.372-110.19-39-153.515 38.065-82.098 80.937-89.73c46.88-8.343 78.895 45.293 78.895 45.293 50.103 87.982 84.729 142.34 156.578 152.205a100.184 100.184 0 0053.072-7.21 108.473 108.473 0 0046.357-37.634 1127.437 1127.437 0 0077.583-127.158c27.194-52.023 56.954-112 113.577-127.488 42.996-11.763 87.953 6.687 128.148 25.955 46.376 22.236 92.855 46.756 128.528 83.804S877.871 9.175 869.45 59.911c-8.58 51.685-47.376 92.147-81.902 131.554-39.855 45.494-95.17 68.049-111.553 126.266-21.34 75.828 36.875 121.674 36.875 121.674 51.982 53.904 116.837 100.383 161.198 160.715s44.481 145.198 20.605 216.172c-28.15 83.686-120.83 131.431-209.017 135.7-43.668 2.117-89.584-3.816-129.375 14.293-60.133 27.368-85.021 98.804-132.742 144.495 0 0-147.952 193.228-306.693 110.314 0 0-67.36-29.052-89.07-93.726z"/><path data-name="Path 6682" d="M36.72 1115.864c-24.31-72.403 17.7-152.236 68.703-209.087s116.293-98.69 173.422-149.38 108.327-115.375 115.932-191.371c3.085-30.831-2.91-65.373-26.82-85.081-26.481-21.834-66.347-18.223-97.495-3.809s-57.247 37.8-87.18 54.587c-30.363 17.033-66.22 27.156-100.214 19.654S18.454 515.46 16.02 480.733c-2.739-39.087 29.46-73.06 65.387-88.7 35.79-15.578 83.592-25.17 92.733-63.12 9.501-39.44-32.318-70.389-67.674-90.282-37.192-20.926-74.31-43.471-103.006-75.055S-39.042 55.59-34.755 13.133 2.55-67.328 44.563-74.797c45.942-8.176 77.317 44.388 77.317 44.388 49.103 86.221 83.035 139.491 153.445 149.16a98.179 98.179 0 0052.01-7.067 106.3 106.3 0 0045.43-36.88 1104.756 1104.756 0 0076.026-124.626c26.654-50.982 55.819-109.76 111.308-124.936 42.136-11.525 86.2 6.551 125.586 25.438 45.446 21.796 90.998 45.82 125.955 82.128s58.17 87.236 49.918 136.956c-8.407 50.651-46.43 90.304-80.262 128.92-39.056 44.579-93.265 66.682-109.32 123.737-20.918 74.317 36.132 119.243 36.132 119.243 50.943 52.826 114.5 98.375 157.975 157.5s43.591 142.29 20.193 211.848c-27.587 82.01-118.413 128.798-204.837 132.985-42.794 2.074-87.792-3.74-126.787 14.007-58.929 26.82-83.32 96.827-130.086 141.603 0 0-144.992 189.362-300.558 108.107 0 0-66.007-28.47-87.288-91.85z"/><path data-name="Path 6683" d="M45.665 1104.36c-23.814-70.927 17.34-149.128 67.301-204.819s113.919-96.673 169.88-146.328S388.962 640.19 396.41 565.746c3.021-30.2-2.852-64.037-26.27-83.345-25.942-21.388-64.993-17.851-95.505-3.73s-56.079 37.026-85.401 53.476c-29.742 16.684-64.867 26.601-98.168 19.248s-63.296-35.183-65.678-69.202c-2.683-38.29 28.858-71.568 64.052-86.89 35.06-15.263 81.886-24.656 90.84-61.831 9.307-38.635-31.658-68.952-66.292-88.44-36.432-20.499-72.792-42.584-100.903-73.523S-28.55 65.73-24.35 24.133s36.543-78.813 77.7-86.138c45.003-8.01 75.738 43.48 75.738 43.48 48.098 84.462 81.34 136.641 150.312 146.115a96.175 96.175 0 0050.948-6.923 104.132 104.132 0 0044.503-36.128 1082.317 1082.317 0 0074.476-122.072c26.105-49.942 54.674-107.518 109.031-122.387 41.276-11.291 84.435 6.418 123.021 24.919 44.52 21.346 89.14 44.885 123.385 80.451s56.981 85.456 48.897 134.161c-8.235 49.617-45.481 88.46-78.625 126.291-38.257 43.673-91.36 65.329-107.088 121.219-20.487 72.793 35.398 116.803 35.398 116.803 49.904 51.747 112.162 96.366 154.748 154.285s42.702 139.385 19.78 207.522C850.853 886.072 761.882 931.9 677.222 936.002c-41.92 2.032-86-3.664-124.199 13.72-57.726 26.273-81.618 94.852-127.43 138.713 0 0-142.032 185.497-294.42 105.9 0 0-64.66-27.89-85.507-89.975z"/><path data-name="Path 6684" d="M54.61 1092.852c-23.318-69.447 16.98-146.02 65.899-200.55s111.544-94.657 166.342-143.277 103.903-110.666 111.197-183.56c2.96-29.571-2.792-62.703-25.723-81.608-25.401-20.946-63.637-17.479-93.514-3.652s-54.91 36.254-83.622 52.361c-29.122 16.337-63.516 26.047-96.122 18.848s-61.974-34.455-64.31-67.76c-2.626-37.492 28.259-70.077 62.718-85.079 34.329-14.945 80.178-24.143 88.948-60.542 9.113-37.83-31-67.516-64.912-86.596-35.67-20.071-71.27-41.696-98.8-71.992S-18.055 75.87-13.942 35.145s35.78-77.172 76.083-84.343c44.067-7.843 74.161 42.574 74.161 42.574 47.092 82.7 79.64 133.796 147.175 143.07a94.169 94.169 0 0049.887-6.779 101.965 101.965 0 0043.575-35.375A1059.67 1059.67 0 00449.86-25.236c25.557-48.9 53.536-105.282 106.759-119.837 40.416-11.055 82.676 6.284 120.457 24.4 43.591 20.902 87.284 43.95 120.814 78.775s55.794 83.674 47.879 131.365c-8.065 48.583-44.534 86.617-76.987 123.66-37.462 42.759-89.457 63.964-104.858 118.687-20.059 71.276 34.662 114.369 34.662 114.369C747.449 496.85 808.412 540.54 850.11 597.25s41.814 136.483 19.369 203.2c-26.461 78.661-113.574 123.537-196.473 127.556-41.046 1.988-84.208-3.589-121.61 13.434-56.523 25.725-79.918 92.875-124.775 135.822 0 0-139.07 181.632-288.285 103.694 0-.001-63.313-27.31-83.725-88.104z"/><path data-name="Path 6685" d="M63.556 1081.35c-22.818-67.968 16.616-142.911 64.495-196.282s109.17-92.644 162.801-140.226S392.544 636.53 399.683 565.187c2.896-28.942-2.73-61.368-25.175-79.871-24.86-20.496-62.284-17.107-91.523-3.575s-53.742 35.483-81.842 51.247c-28.502 15.99-62.165 25.492-94.076 18.446s-60.656-33.717-62.94-66.317c-2.572-36.694 27.656-68.585 61.382-83.268 33.598-14.627 78.472-23.634 87.054-59.255 8.92-37.024-30.339-66.078-63.53-84.753-34.914-19.645-69.759-40.809-96.698-70.459S-7.565 86.011-3.541 46.152s35.024-75.527 74.46-82.547c43.129-7.676 72.584 41.673 72.584 41.673 46.094 80.94 77.948 130.948 144.047 140.024a92.165 92.165 0 0048.823-6.634 99.79 99.79 0 0042.648-34.622 1037.17 1037.17 0 0071.372-116.984c25.018-47.86 52.396-103.037 104.486-117.286 39.556-10.82 80.916 6.15 117.894 23.88 42.664 20.453 85.426 43.01 118.243 77.097s54.606 81.893 46.863 128.569c-7.892 47.548-43.586 84.773-75.347 121.027-36.67 41.845-87.558 62.599-102.63 116.157-19.632 69.76 33.923 111.936 33.923 111.936 47.823 49.59 107.487 92.35 148.299 147.853s40.922 133.58 18.957 198.875c-25.899 76.991-111.16 120.91-192.292 124.84-40.174 1.947-82.415-3.512-119.022 13.148-55.32 25.178-78.217 90.898-122.119 132.931 0 0-136.11 177.766-282.15 101.486 0 0-61.965-26.727-81.942-86.225z"/><path data-name="Path 6686" d="M72.5 1069.847c-22.324-66.49 16.256-139.805 63.093-192.014s106.797-90.63 159.259-137.18 99.483-105.955 106.467-175.745c2.834-28.313-2.672-60.034-24.627-78.135-24.32-20.05-60.93-16.735-89.533-3.497s-52.573 34.712-80.063 50.133c-27.877 15.642-60.812 24.943-92.029 18.045s-59.333-32.984-61.57-64.876c-2.516-35.896 27.054-67.094 60.047-81.456 32.868-14.309 76.766-23.116 85.16-57.967 8.726-36.219-29.676-64.64-62.147-82.91-34.154-19.217-68.241-39.921-94.594-68.926S2.93 96.15 6.869 57.16 41.126-16.726 79.71-23.593c42.19-7.509 71 40.762 71 40.762 45.09 79.18 76.253 128.1 140.913 136.98a90.167 90.167 0 0047.763-6.489 97.626 97.626 0 0041.72-33.869A1014.641 1014.641 0 00450.923-.649c24.474-46.82 51.256-100.797 102.218-114.733 38.69-10.586 79.156 6.015 115.33 23.36 41.734 20.01 83.566 42.077 115.67 75.42s53.418 80.112 45.84 125.776c-7.722 46.516-42.639 82.93-73.71 118.395-35.867 40.94-85.65 61.242-100.399 113.634-19.2 68.243 33.191 109.5 33.191 109.5 46.783 48.51 105.148 90.34 145.073 144.638s40.033 130.67 18.54 194.547c-25.334 75.313-108.742 118.28-188.11 122.126-39.298 1.904-80.622-3.436-116.433 12.863-54.117 24.629-76.516 88.92-119.462 130.04 0 0-133.156 173.902-276.014 99.279.005 0-60.613-26.145-80.157-84.35z"/><path data-name="Path 6687" d="M81.445 1058.342c-21.83-65.013 15.894-136.697 61.686-187.745s104.428-88.614 155.727-134.13 97.268-103.6 104.096-171.838c2.77-27.684-2.614-58.7-24.08-76.398-23.78-19.605-59.574-16.363-87.544-3.42s-51.4 33.941-78.281 49.02c-27.262 15.293-59.46 24.383-89.985 17.642s-58.018-32.25-60.202-63.433c-2.459-35.097 26.45-65.602 58.713-79.646 32.137-13.99 75.06-22.602 83.268-56.678 8.531-35.414-29.02-63.204-60.766-81.067-33.396-18.785-66.73-39.033-92.492-67.394S13.42 106.292 17.27 68.168 50.767-4.075 88.492-10.79c41.252-7.342 69.425 39.857 69.425 39.857 44.088 77.42 74.558 125.252 137.783 133.935a88.159 88.159 0 0046.701-6.346 95.455 95.455 0 0040.793-33.116 992.049 992.049 0 0068.264-111.896c23.93-45.778 50.116-98.555 99.942-112.184 37.835-10.35 77.396 5.882 112.765 22.841 40.81 19.566 81.713 41.143 113.101 73.745s52.232 78.335 44.821 122.976c-7.549 45.481-41.69 81.085-72.07 115.76-35.07 40.03-83.745 59.884-98.162 111.11-18.779 66.728 32.447 107.07 32.447 107.07 45.743 47.434 102.813 88.333 141.853 141.424s39.139 127.765 18.128 190.223c-24.77 73.638-106.325 115.65-183.927 119.41-38.425 1.863-78.83-3.36-113.844 12.577-52.915 24.08-74.815 86.944-116.808 127.15 0 0-130.188 170.034-269.879 97.072 0-.001-59.27-25.566-78.38-82.476z"/><path data-name="Path 6688" d="M90.392 1046.839c-21.333-63.535 15.534-133.589 60.287-183.476s102.048-86.601 152.18-131.082 95.062-101.244 101.726-167.931c2.707-27.057-2.554-57.366-23.532-74.662-23.238-19.159-58.22-15.991-85.555-3.341s-50.235 33.168-76.501 47.904c-26.643 14.946-58.11 23.83-87.939 17.243s-56.698-31.517-58.834-61.991c-2.402-34.3 25.852-64.111 57.377-77.836 31.407-13.673 73.353-22.088 81.38-55.388 8.337-34.609-28.36-61.767-59.385-79.223-32.636-18.364-65.207-38.144-90.39-65.863S23.91 116.435 27.673 79.178 60.41 8.576 97.275 2.016c40.314-7.176 67.847 38.95 67.847 38.95 43.086 75.663 72.863 122.405 134.65 130.89a86.151 86.151 0 0045.639-6.205 93.28 93.28 0 0039.865-32.363 969.45 969.45 0 0066.718-109.352c23.385-44.738 48.978-96.315 97.67-109.634 36.976-10.115 75.638 5.747 110.203 22.326 39.877 19.12 79.85 40.205 110.525 72.065s51.044 76.55 43.802 120.183c-7.377 44.447-40.742 79.242-70.432 113.13-34.272 39.119-81.84 58.518-95.93 108.582-18.352 65.209 31.71 104.634 31.71 104.634 44.698 46.355 100.475 86.324 138.623 138.207s38.253 124.862 17.72 185.898c-24.208 71.965-103.908 113.021-179.75 116.696-37.551 1.82-77.038-3.283-111.256 12.291-51.71 23.535-73.114 84.967-114.152 124.26 0 0-127.232 166.167-263.742 94.864.004 0-57.919-24.984-76.593-80.6z"/><path data-name="Path 6689" d="M99.338 1035.333c-20.837-62.056 15.172-130.481 58.889-179.21s99.67-84.583 148.636-128.025 92.846-98.895 99.364-164.028c2.643-26.425-2.495-56.03-22.985-72.924-22.698-18.713-56.865-15.619-83.563-3.259s-49.066 32.397-74.722 46.79c-26.023 14.598-56.757 23.274-85.893 16.84s-55.38-30.784-57.465-60.549c-2.348-33.502 25.25-62.618 56.042-76.024 30.676-13.355 71.647-21.574 79.482-54.1 8.143-33.803-27.7-60.33-58.004-77.38-31.877-17.936-63.69-37.258-88.29-64.33s-36.43-92.55-32.755-128.944 31.973-68.959 67.984-75.367c39.376-7.009 66.268 38.043 66.268 38.043 42.083 73.9 71.168 119.56 131.517 127.844a84.148 84.148 0 0044.577-6.057 91.111 91.111 0 0038.938-31.61 946.966 946.966 0 0065.168-106.808c22.84-43.697 47.838-94.075 95.397-107.084 36.115-9.878 73.877 5.616 107.636 21.803 38.955 18.672 77.997 39.268 107.959 70.386s49.857 74.77 42.783 117.385c-7.206 43.412-39.794 77.398-68.794 110.499-33.472 38.208-79.937 57.156-93.698 106.056-17.925 63.697 30.973 102.2 30.973 102.2 43.662 45.277 98.136 84.317 135.397 134.992s37.364 121.96 17.31 181.574c-23.646 70.29-101.492 110.39-175.566 113.981-36.678 1.778-75.245-3.206-108.668 12.006-50.509 22.987-71.413 82.99-111.496 121.372 0 0-124.272 162.302-257.606 92.659 0-.006-56.575-24.408-74.815-78.731z"/><path data-name="Path 6690" d="M108.283 1023.83c-20.34-60.579 14.81-127.374 57.483-174.94s97.3-82.57 145.104-124.982 90.634-96.533 96.997-160.117c2.581-25.795-2.435-54.696-22.438-71.187-22.157-18.267-55.512-15.247-81.573-3.186s-47.897 31.625-72.942 45.675c-25.403 14.25-55.405 22.72-83.847 16.44s-54.06-30.049-56.096-59.107c-2.292-32.704 24.649-61.128 54.703-74.213 29.946-13.035 69.942-21.06 77.589-52.81 7.95-32.998-27.04-58.892-56.621-75.537-31.118-17.509-62.175-36.372-86.184-62.798S44.897 136.72 48.484 101.191s31.212-67.316 66.365-73.573c38.439-6.841 64.69 37.135 64.69 37.135 41.08 72.139 69.473 116.71 128.383 124.798a82.143 82.143 0 0043.516-5.912 88.943 88.943 0 0038.01-30.857 924.4 924.4 0 0063.61-104.264c22.298-42.656 46.7-91.834 93.126-104.534 35.255-9.643 72.115 5.482 105.074 21.284 38.025 18.233 76.137 38.335 105.385 68.715s48.67 72.995 41.764 114.594c-7.035 42.384-38.847 75.556-67.155 107.868-32.678 37.298-78.033 55.795-91.467 103.53-17.498 62.175 30.235 99.765 30.235 99.765 42.623 44.198 95.799 82.309 132.173 131.777s36.474 119.052 16.896 177.247c-23.081 68.617-99.073 107.764-171.382 111.268-35.805 1.735-73.456-3.13-106.08 11.718-49.305 22.443-69.712 81.014-108.84 118.477 0 0-121.311 158.436-251.47 90.45 0 .002-55.228-23.82-73.034-76.848z"/><path data-name="Path 6691" d="M117.228 1012.325c-19.844-59.1 14.45-124.267 56.08-170.672s94.925-80.555 141.56-121.932 88.422-94.177 94.63-156.21c2.517-25.166-2.376-53.361-21.891-69.45-21.617-17.822-54.157-14.875-79.582-3.109s-46.729 30.853-71.163 44.565c-24.783 13.904-54.053 22.166-81.8 16.04s-52.743-29.318-54.728-57.664c-2.236-31.906 24.044-59.637 53.372-72.403 29.214-12.718 68.232-20.546 75.694-51.522 7.755-32.194-26.38-57.457-55.24-73.695-30.358-17.081-60.656-35.484-84.08-61.266s-34.695-88.144-31.194-122.802 30.45-65.673 64.744-71.78c37.502-6.675 63.112 36.231 63.112 36.231 40.078 70.38 67.778 113.863 125.25 121.754a80.144 80.144 0 0042.455-5.768 86.778 86.778 0 0037.083-30.105 901.873 901.873 0 0062.062-101.72c21.753-41.617 45.56-89.593 90.852-101.984 34.395-9.408 70.358 5.348 102.51 20.765C684.05-2.614 721.235 17 749.769 46.637s47.48 71.206 40.746 111.792c-6.863 41.35-37.899 73.713-65.521 105.236-31.881 36.388-76.129 54.433-89.234 101.003-17.072 60.659 29.496 97.33 29.496 97.33 41.586 43.12 93.466 80.298 128.952 128.562s35.579 116.147 16.485 172.924c-22.52 66.943-96.659 105.133-167.202 108.55-34.935 1.691-71.658-3.05-103.491 11.433-48.103 21.894-68.011 79.039-106.185 115.588 0 0-118.351 154.57-245.334 88.244 0 0-53.88-23.24-71.252-74.974z"/><path data-name="Path 6692" d="M126.174 1000.821C106.825 943.2 140.26 879.663 180.85 834.418s92.553-78.54 138.019-118.882 86.215-91.822 92.264-152.304c2.456-24.537-2.316-52.027-21.343-67.713-21.075-17.377-52.801-14.503-77.591-3.03s-45.56 30.08-69.383 43.445c-24.163 13.555-52.701 21.612-79.755 15.638s-51.423-28.584-53.36-56.221c-2.179-31.108 23.447-58.145 52.04-70.592 28.485-12.405 66.527-20.033 73.803-50.235 7.56-31.387-25.72-56.019-53.855-71.85-29.598-16.654-59.139-34.597-81.978-59.733S65.886 157 69.297 123.21s29.69-64.032 63.125-69.982c36.563-6.508 61.533 35.325 61.533 35.325 39.077 68.618 66.083 111.014 122.119 118.708a78.136 78.136 0 0041.392-5.624 84.606 84.606 0 0036.151-29.35 879.293 879.293 0 0060.506-99.177c21.212-40.574 44.42-87.352 88.581-99.432 33.534-9.173 68.599 5.214 99.947 20.247 36.169 17.343 72.422 36.47 100.243 65.36s46.295 69.426 39.725 108.997c-6.69 40.311-36.95 71.866-63.877 102.6-31.083 35.479-74.225 53.072-87.003 98.477-16.644 59.142 28.76 94.898 28.76 94.898 40.542 42.046 91.124 78.293 125.722 125.345s34.692 113.245 16.072 168.606c-21.956 65.263-94.24 102.499-163.021 105.832-34.057 1.65-69.869-2.977-100.903 11.147-46.899 21.344-66.31 77.06-103.529 112.695 0 0-115.391 150.704-239.198 86.039 0-.002-52.532-22.66-69.468-73.1z"/><path data-name="Path 6693" d="M135.119 989.32c-18.851-56.148 13.722-118.054 53.274-162.139s90.178-76.525 134.479-115.832 84-89.467 89.896-148.397c2.393-23.907-2.257-50.692-20.795-65.973-20.534-16.93-51.447-14.13-75.6-2.953s-44.392 29.311-67.604 42.327c-23.544 13.208-51.349 21.058-77.708 15.237s-50.104-27.85-51.99-54.779c-2.123-30.31 22.845-56.653 50.709-68.781 27.753-12.083 64.82-19.519 71.909-48.946 7.368-30.583-25.06-54.581-52.476-70.007-28.84-16.227-57.62-33.71-79.875-58.203S76.38 167.138 79.705 134.215s28.927-62.389 61.506-68.187c35.625-6.34 59.955 34.419 59.955 34.419 38.074 66.86 64.388 108.167 118.986 115.664a76.134 76.134 0 0040.331-5.48 82.439 82.439 0 0035.224-28.597 856.736 856.736 0 0058.955-96.631C475.327 45.869 497.942.29 540.966-11.48c32.674-8.938 66.838 5.08 97.383 19.726 35.24 16.897 70.563 35.53 97.67 63.685s45.107 67.645 38.707 106.2c-6.52 39.277-36.002 70.025-62.239 99.972-30.286 34.568-72.321 51.711-84.771 95.95-16.218 57.626 28.021 92.464 28.021 92.464 39.502 40.962 88.782 76.283 122.498 122.13s33.803 110.341 15.659 164.275c-21.392 63.594-91.821 99.87-158.837 103.121-33.184 1.608-68.077-2.9-98.315 10.861-45.696 20.797-64.609 75.084-100.872 109.804 0 0-112.432 146.84-233.063 83.83-.001 0-51.183-22.076-67.688-71.22z"/><path data-name="Path 6694" d="M144.064 977.812c-18.355-54.667 13.365-114.941 51.873-157.866s87.804-74.51 130.937-112.783 81.788-87.11 87.535-144.494c2.33-23.278-2.197-49.358-20.248-64.24-19.994-16.484-50.093-13.758-73.61-2.875s-43.224 28.538-65.824 41.218c-22.928 12.86-49.998 20.503-75.663 14.836s-48.785-27.119-50.622-53.338c-2.068-29.512 22.243-55.162 49.368-66.97 27.022-11.765 63.113-19.002 70.015-47.658 7.174-29.78-24.4-53.145-51.095-68.165-28.08-15.8-56.104-32.821-77.772-56.666s-32.09-81.53-28.854-113.588 28.165-60.745 59.887-66.392c34.687-6.173 58.376 33.513 58.376 33.513 37.068 65.097 62.69 105.32 115.85 112.62a74.128 74.128 0 0039.268-5.335 80.263 80.263 0 0034.3-27.846 834.111 834.111 0 0057.402-94.088c20.121-38.493 42.141-82.87 84.037-94.331 31.813-8.702 65.078 4.946 94.819 19.206 34.318 16.453 68.706 34.596 95.1 62.009s43.92 65.866 37.687 103.405c-6.347 38.242-35.054 68.182-60.6 97.34-29.493 33.657-70.417 50.35-82.544 93.424-15.79 56.108 27.283 90.029 27.283 90.029 38.47 39.885 86.46 74.275 119.28 118.916s32.913 107.433 15.247 159.95c-20.83 61.918-89.404 97.244-154.656 100.406-32.31 1.566-66.285-2.824-95.726 10.575-44.494 20.249-62.909 73.107-98.218 106.914 0 0-109.472 142.973-226.927 81.623 0-.001-49.837-21.497-65.905-69.35z"/><path data-name="Path 6695" d="M153.009 966.307c-17.86-53.188 13.004-111.829 50.47-153.596s85.43-72.497 127.398-109.734 79.577-84.756 85.166-140.583c2.267-22.649-2.138-48.022-19.7-62.502-19.454-16.042-48.739-13.387-71.62-2.797s-42.054 27.77-64.044 40.102c-22.303 12.513-48.645 19.949-73.617 14.434s-47.464-26.384-49.252-51.895c-2.013-28.714 21.64-53.67 48.033-65.16 26.293-11.443 61.407-18.49 68.12-46.368 6.98-28.973-23.742-51.708-49.713-66.322-27.321-15.372-54.588-31.934-75.67-55.136s-31.22-79.326-28.075-110.517 27.403-59.103 58.267-64.592c33.75-6.007 56.798 32.606 56.798 32.606 36.069 63.339 60.997 102.47 112.72 109.574a72.121 72.121 0 0038.207-5.191 78.1 78.1 0 0033.378-27.093 811.688 811.688 0 0055.85-91.54c19.576-37.451 41.001-80.629 81.764-91.78 30.953-8.466 63.32 4.813 92.256 18.688 33.386 16.008 66.848 33.66 92.528 60.332s42.728 64.074 36.665 100.599c-6.176 37.209-34.107 66.338-58.962 94.707-28.687 32.749-68.512 48.99-80.31 90.9-15.363 54.59 26.547 87.594 26.547 87.594 37.422 38.806 84.111 72.267 116.048 115.7s32.025 104.527 14.836 155.625c-20.265 60.244-86.985 94.615-150.473 97.689-31.432 1.523-64.492-2.748-93.138 10.289-43.29 19.701-61.207 71.13-95.562 104.022 0 0-106.511 139.106-220.79 79.416-.002.003-48.491-20.912-64.125-67.47z"/><path data-name="Path 6696" d="M161.955 954.804c-17.36-51.71 12.64-108.726 49.067-149.328s83.054-70.482 123.857-106.684 77.365-82.4 82.797-136.675c2.204-22.02-2.078-46.689-19.152-60.766-18.913-15.593-47.38-13.014-69.63-2.715s-40.885 26.99-62.264 38.988c-21.684 12.164-47.294 19.394-71.572 14.034s-46.146-25.651-47.884-50.454c-1.956-27.916 21.041-52.178 46.699-63.348 25.562-11.128 59.7-17.977 66.23-45.08 6.785-28.168-23.081-50.272-48.332-64.48-26.561-14.945-53.066-31.046-73.566-53.604s-30.359-77.121-27.293-107.444 26.642-57.461 56.649-62.802c32.807-5.84 55.219 31.7 55.219 31.7 35.067 61.579 59.302 99.625 109.588 106.53a70.12 70.12 0 0037.145-5.047 75.92 75.92 0 0032.446-26.338 789.075 789.075 0 0054.298-89c19.034-36.411 39.862-78.39 79.493-89.226 30.093-8.232 61.56 4.675 89.691 18.168 32.458 15.563 64.99 32.724 89.957 58.655s41.544 62.302 35.65 97.813c-6.005 36.175-33.16 64.494-57.324 92.075-27.894 31.838-66.608 47.627-78.076 88.373-14.936 53.074 25.808 85.164 25.808 85.164 36.382 37.727 81.775 70.258 112.823 112.486s31.132 101.623 14.422 151.3c-19.702 58.57-84.568 91.986-146.292 94.976-30.562 1.48-62.7-2.672-90.55 10.003-42.086 19.154-59.505 69.153-92.905 101.132 0 0-103.552 135.24-214.655 77.209-.003-.017-47.146-20.35-62.344-65.615z"/><path data-name="Path 6697" d="M170.9 943.299c-16.867-50.232 12.28-105.618 47.664-145.06s80.681-68.468 120.316-103.635 75.155-80.046 80.43-132.77c2.14-21.39-2.02-45.354-18.605-59.029-18.372-15.147-46.03-12.642-67.64-2.641s-39.716 26.223-60.483 37.873c-21.064 11.817-45.942 18.84-69.526 13.632s-44.827-24.918-46.515-49.01c-1.9-27.12 20.44-50.688 45.364-61.538 24.83-10.81 57.995-17.463 64.336-43.792 6.592-27.362-22.42-48.834-46.95-62.636-25.802-14.519-51.554-30.16-71.463-52.072s-29.488-74.917-26.513-104.379 25.878-55.819 55.029-61.006c31.874-5.673 53.64 30.795 53.64 30.795 34.062 59.818 57.607 96.776 106.457 103.484a68.114 68.114 0 0036.084-4.903 73.75 73.75 0 0031.518-25.587 766.516 766.516 0 0052.746-86.456c18.49-35.37 38.723-76.149 77.225-86.678 29.233-7.996 59.8 4.544 87.128 17.648 31.53 15.118 63.133 31.789 87.385 56.979s40.356 60.521 34.63 95.019c-5.832 35.14-32.21 62.647-55.685 89.441-27.096 30.932-64.704 46.266-75.843 85.847-14.51 51.554 25.07 82.726 25.07 82.726 35.343 36.65 79.438 68.25 109.598 109.27s30.236 98.726 14.003 146.98c-19.139 56.896-82.15 89.356-142.11 92.261-29.69 1.44-60.908-2.595-87.962 9.717-40.884 18.608-57.805 67.177-90.25 98.24 0 0-100.592 131.376-208.519 75.001 0 .002-45.795-19.75-60.559-63.721z"/><path data-name="Path 6698" d="M179.846 931.79C163.475 883.037 191.764 829.283 226.11 791s78.306-66.453 116.773-100.586 72.943-77.689 78.06-128.857c2.078-20.76-1.96-44.02-18.057-57.292-17.832-14.702-44.675-12.27-65.65-2.564s-38.55 25.452-58.704 36.759c-20.444 11.469-44.59 18.285-67.48 13.231s-43.508-24.185-45.146-47.57c-1.84-26.32 19.838-49.194 44.03-59.727 24.1-10.492 56.287-16.95 62.443-42.503 6.397-26.556-21.762-47.397-45.57-60.791-25.042-14.091-50.036-29.272-69.36-50.54s-28.62-72.71-25.736-101.303 25.128-54.177 53.42-59.212c30.936-5.506 52.062 29.889 52.062 29.889 33.063 58.057 55.912 93.928 103.324 100.438a66.111 66.111 0 0035.021-4.758 71.582 71.582 0 0030.591-24.834 743.887 743.887 0 0051.194-83.912c17.944-34.33 37.583-73.907 74.947-84.127 28.373-7.761 58.04 4.413 84.564 17.128 30.603 14.673 61.271 30.854 84.814 55.302s39.169 58.741 33.612 92.22c-5.662 34.107-31.266 60.808-54.047 86.811-26.299 30.019-62.801 44.904-73.612 83.321-14.087 50.04 24.328 80.288 24.328 80.288 34.303 35.57 77.1 66.242 106.374 106.054s29.353 95.813 13.597 142.65c-18.575 55.222-79.734 86.726-137.929 89.546-28.814 1.398-59.115-2.519-85.377 9.432-39.677 18.063-56.1 65.204-87.59 95.353 0 0-97.632 127.51-202.384 72.795 0 .001-44.447-19.17-58.776-61.85z"/><path data-name="Path 6699" d="M188.79 920.29c-15.877-47.276 11.558-99.402 44.86-136.523s75.936-64.438 113.236-97.539 70.73-75.334 75.692-124.955c2.015-20.13-1.9-42.685-17.51-55.554-17.288-14.254-43.317-11.9-63.655-2.484s-37.38 24.681-56.924 35.642c-19.824 11.121-43.238 17.73-65.434 12.83s-42.19-23.452-43.778-46.127c-1.788-25.522 19.236-47.705 42.694-57.916 23.37-10.174 54.582-16.435 60.551-41.215 6.203-25.751-21.101-45.96-44.187-58.949-24.284-13.664-48.52-28.384-67.255-49.007s-27.752-70.508-24.952-98.231 24.357-52.534 51.79-57.416c29.997-5.34 50.483 28.985 50.483 28.985 32.06 56.298 54.22 91.08 100.191 97.394a64.1 64.1 0 0033.96-4.614 69.409 69.409 0 0029.656-24.082 721.418 721.418 0 0049.642-81.368c17.4-33.288 36.443-71.666 72.675-81.577 27.512-7.52 56.28 4.277 82 16.61 29.675 14.229 59.417 29.919 82.243 53.625s37.982 56.961 32.592 89.426c-5.489 33.072-30.315 58.964-52.407 84.18-25.502 29.106-60.897 43.543-71.38 80.794-13.656 48.522 23.594 77.856 23.594 77.856 33.262 34.493 74.763 64.234 103.148 102.84s28.463 92.91 13.188 138.324c-18.013 53.548-77.316 84.098-133.747 86.832-27.942 1.354-57.323-2.442-82.784 9.146-38.478 17.512-54.404 63.223-84.94 92.459 0 0-94.672 123.643-196.246 70.585 0 .002-43.1-18.588-56.995-59.971z"/><path data-name="Path 6700" d="M197.736 908.786c-15.378-45.797 11.196-96.294 43.457-132.255s73.558-62.425 109.694-94.486 68.52-72.978 73.33-121.048c1.952-19.501-1.842-41.35-16.963-53.818-16.75-13.81-41.967-11.526-61.668-2.408s-36.21 23.907-55.14 34.53c-19.205 10.773-41.886 17.176-63.388 12.43s-40.87-22.717-42.409-44.686c-1.732-24.724 18.634-46.211 41.36-56.104 22.638-9.856 52.873-15.922 58.656-39.927 6.01-24.947-20.442-44.522-42.81-57.106-23.524-13.236-47.003-27.496-65.154-47.475s-26.885-68.303-24.173-95.16 23.592-50.89 50.171-55.62c29.06-5.172 48.906 28.076 48.906 28.076 31.053 54.537 52.522 88.23 97.058 94.348a62.1 62.1 0 0032.898-4.47 67.237 67.237 0 0028.736-23.329 698.794 698.794 0 0048.09-78.823c16.856-32.25 35.304-69.427 70.403-79.028 26.652-7.29 54.52 4.143 79.436 16.09 28.747 13.783 57.559 28.982 79.671 51.947s36.794 55.179 31.574 86.63c-5.318 32.038-29.367 57.12-50.77 81.547-24.704 28.198-58.993 42.177-69.148 78.268-13.228 47.005 22.857 75.423 22.857 75.423 32.222 33.414 72.425 62.225 99.923 99.623s27.573 90.003 12.773 133.999c-17.45 51.873-74.9 81.468-129.565 84.118-27.068 1.311-55.53-2.37-80.196 8.86-37.274 16.963-52.703 61.246-82.283 89.568 0 0-91.712 119.778-190.112 68.38 0 .003-41.753-18.005-55.214-58.094z"/><path data-name="Path 6701" d="M206.682 897.281c-14.882-44.32 10.835-93.186 42.054-127.985s71.185-60.409 106.155-91.437 66.308-70.624 70.963-117.142c1.889-18.87-1.782-40.015-16.415-52.08-16.21-13.365-40.612-11.155-59.679-2.331s-35.042 23.137-53.364 33.419c-18.585 10.426-40.535 16.623-61.343 12.03s-39.55-21.984-41.04-43.242c-1.676-23.926 18.033-44.721 40.025-54.295 21.907-9.537 51.167-15.41 56.764-38.637 5.815-24.141-19.784-43.086-41.424-55.263-22.765-12.81-45.487-26.61-63.052-45.943s-26.016-66.099-23.397-92.088 22.835-49.248 48.552-53.825c28.122-5.01 47.327 27.17 47.327 27.17 30.056 52.778 50.827 85.385 93.921 91.303a60.1 60.1 0 0031.836-4.325 65.075 65.075 0 0027.809-22.575 676.264 676.264 0 0046.538-76.28c16.313-31.206 34.165-67.184 68.131-76.476 25.792-7.05 52.761 4.01 76.872 15.571 27.819 13.339 55.701 28.047 77.1 50.272s35.614 53.389 30.561 83.825c-5.142 31.004-28.42 55.277-49.13 78.916-23.907 27.287-57.09 40.82-66.918 75.744-12.8 45.483 22.12 72.989 22.12 72.989 31.182 32.335 70.087 60.216 96.698 96.408s26.684 87.098 12.36 129.676c-16.886 50.199-72.481 78.839-125.383 81.402-26.195 1.269-53.738-2.29-77.608 8.573-36.071 16.417-51.002 59.27-79.625 86.677 0 0-88.752 115.912-183.976 66.174-.001-.002-40.405-17.428-53.432-56.225z"/><path data-name="Path 6702" d="M215.629 885.777c-14.385-42.842 10.474-90.078 40.651-123.718s68.809-58.39 102.614-88.387 64.1-68.268 68.596-113.235c1.826-18.243-1.725-38.681-15.868-50.344-15.668-12.918-39.257-10.787-57.688-2.253s-33.872 22.365-51.585 32.305c-17.964 10.078-39.186 16.068-59.296 11.626s-38.235-21.251-39.676-41.798c-1.62-23.132 17.43-43.23 38.689-52.484 21.177-9.22 49.461-14.894 54.87-37.348 5.623-23.337-19.122-41.65-40.042-53.42-22.006-12.386-43.969-25.722-60.95-44.41s-25.148-63.895-22.611-89.018 22.072-47.606 46.932-52.03c27.189-4.839 45.749 26.263 45.749 26.263 29.053 51.015 49.13 82.537 90.793 88.258a58.093 58.093 0 0030.778-4.182 62.9 62.9 0 0026.885-21.822 653.742 653.742 0 0044.983-73.743c15.769-30.166 33.025-64.945 65.858-73.926 24.932-6.82 51.001 3.876 74.309 15.052 26.89 12.895 53.844 27.112 74.528 48.595s34.42 51.618 29.535 81.037c-4.975 29.97-27.472 53.429-47.491 76.283-23.11 26.378-55.186 39.459-64.688 73.216-12.374 43.97 21.382 70.554 21.382 70.554 30.143 31.257 67.75 58.208 93.473 93.193s25.793 84.193 11.948 125.35c-16.324 48.522-70.065 76.209-121.202 78.687-25.325 1.227-51.946-2.214-75.02 8.292-34.868 15.87-49.3 57.293-76.974 83.787 0 0-85.792 112.046-177.844 63.967.01 0-39.048-16.846-51.638-54.347z"/><path data-name="Path 6703" d="M224.573 874.272c-13.89-41.36 10.113-86.97 39.249-119.444s66.436-56.38 99.073-85.338 61.886-65.916 66.23-109.332c1.762-17.613-1.663-37.347-15.32-48.607-15.13-12.473-37.904-10.41-55.698-2.172s-32.705 21.594-49.805 31.187c-17.345 9.73-37.83 15.514-57.25 11.225s-36.913-20.518-38.302-40.358c-1.565-22.33 16.83-41.737 37.354-50.672 20.446-8.9 47.758-14.38 52.977-36.06 5.427-22.53-18.463-40.213-38.66-51.577-21.247-11.954-42.453-24.834-58.846-42.878s-24.281-61.69-21.833-85.946 21.312-45.964 45.314-50.235c26.246-4.672 44.17 25.357 44.17 25.357 28.05 49.258 47.437 79.69 87.661 85.213a56.089 56.089 0 0029.712-4.037 60.731 60.731 0 0025.953-21.077 631.126 631.126 0 0043.433-71.19c15.225-29.127 31.886-62.705 63.586-71.376 24.071-6.58 49.242 3.742 71.745 14.532 25.963 12.45 51.986 26.178 71.957 46.92s33.235 49.836 28.517 78.24c-4.806 28.937-26.524 51.59-45.853 73.652-22.313 25.467-53.281 38.097-62.454 70.69-11.942 42.454 20.645 68.12 20.645 68.12 29.102 30.178 65.412 56.2 90.243 89.977s24.907 81.292 11.544 121.029c-15.76 46.851-67.648 73.58-117.02 75.97-24.448 1.184-50.154-2.138-72.432 8-33.665 15.322-47.6 55.317-74.316 80.897 0 0-82.832 108.18-171.704 61.76-.004.002-37.713-16.263-49.87-52.47z"/><path data-name="Path 6704" d="M233.518 862.768c-13.392-39.884 9.751-83.862 37.846-115.18s64.059-54.364 95.534-82.288 59.674-63.557 63.863-105.421c1.697-16.984-1.603-36.012-14.773-46.865-14.592-12.028-36.548-10.04-53.707-2.098s-31.537 20.822-48.026 30.073c-16.725 9.382-36.478 14.96-55.204 10.824s-35.594-19.786-36.934-38.916c-1.509-21.53 16.229-40.246 36.02-48.862 19.716-8.583 46.049-13.865 51.085-34.77 5.233-21.726-17.803-38.775-37.28-49.735-20.487-11.527-40.934-23.947-56.743-41.345s-23.414-59.486-21.057-82.875 20.55-44.321 43.694-48.445c25.309-4.504 42.592 24.447 42.592 24.447 27.048 47.496 45.74 76.842 84.528 82.168a54.082 54.082 0 0028.65-3.893 58.561 58.561 0 0025.026-20.316 608.591 608.591 0 0041.883-68.644c14.68-28.084 30.747-60.462 61.31-68.824 23.215-6.349 47.483 3.609 69.181 14.01 25.036 12.003 50.128 25.241 69.386 45.241s32.044 48.056 27.498 75.446c-4.632 27.902-25.572 49.746-44.215 71.02-21.515 24.557-51.377 36.736-60.221 68.16-11.516 40.936 19.907 65.685 19.907 65.685 28.062 29.1 63.073 54.192 87.023 86.761s24.013 78.385 11.124 116.701c-15.197 45.177-65.23 70.95-112.84 73.258-23.573 1.143-48.36-2.06-69.844 7.715-32.463 14.775-45.898 53.34-71.66 78.006 0 0-79.872 104.314-165.565 59.552.004.007-36.358-15.676-48.08-50.59z"/><path data-name="Path 6705" d="M242.463 851.264c-12.895-38.407 9.39-80.755 36.442-110.912s61.688-52.35 91.997-79.239 57.458-61.197 61.494-101.513c1.636-16.355-1.544-34.677-14.226-45.133-14.047-11.582-35.194-9.667-51.717-2.02s-30.367 20.05-46.245 28.957c-16.105 9.036-35.127 14.406-53.159 10.424s-34.273-19.052-35.565-37.473c-1.453-20.735 15.627-38.755 34.685-47.05 18.985-8.27 44.34-13.353 49.192-33.484 5.04-20.92-17.143-37.337-35.898-47.89-19.728-11.101-39.417-23.06-54.64-39.814s-22.546-57.281-20.272-79.804 19.788-42.678 42.075-46.645c24.37-4.337 41.013 23.546 41.013 23.546 26.046 45.736 44.047 73.994 81.396 79.122a52.072 52.072 0 0027.59-3.749 56.388 56.388 0 0024.098-19.563 586.11 586.11 0 0040.328-66.106c14.137-27.045 29.607-58.223 59.042-66.274 22.351-6.111 45.722 3.475 66.618 13.494 24.107 11.559 48.27 24.306 66.814 43.564s30.856 46.275 26.478 72.65c-4.46 26.868-24.63 47.9-42.576 68.387-20.716 23.647-49.473 35.374-57.99 65.638-11.09 39.42 19.17 63.252 19.17 63.252 27.022 28.022 60.736 52.184 83.797 83.546s23.121 75.486 10.71 112.375c-14.633 43.503-62.812 68.321-108.656 70.543-22.7 1.104-46.573-1.985-67.255 7.427-31.26 14.227-44.197 51.362-69.005 75.114 0 0-76.911 100.448-159.432 57.346 0 .006-35.014-15.096-46.303-48.716z"/><path data-name="Path 6706" d="M251.409 839.76c-12.4-36.929 9.027-77.646 35.04-106.643s59.315-50.334 88.452-76.188 55.25-58.845 59.13-97.607c1.574-15.725-1.485-33.343-13.678-43.396-13.508-11.137-33.843-9.292-49.726-1.942s-29.199 19.279-44.465 27.843c-15.487 8.686-33.78 13.85-51.116 10.026s-32.955-18.32-34.197-36.031c-1.396-19.937 15.026-37.264 33.351-45.241 18.255-7.947 42.63-12.838 47.298-32.194 4.846-20.118-16.484-35.9-34.516-46.047-18.97-10.674-37.901-22.173-52.54-38.28s-21.678-55.078-19.492-76.733 19.032-41.039 40.46-44.855c23.432-4.171 39.435 22.638 39.435 22.638 25.043 43.976 42.35 71.15 78.263 76.078a50.074 50.074 0 0026.528-3.605 54.225 54.225 0 0023.175-18.81 563.479 563.479 0 0038.777-63.56c13.593-26.002 28.467-55.98 56.77-63.718 21.49-5.879 43.962 3.34 64.053 12.974 23.18 11.114 46.413 23.37 64.243 41.888s29.669 44.494 25.458 69.855c-4.287 25.83-23.68 46.059-40.937 65.756-19.925 22.728-47.574 34.008-55.763 63.11-10.664 37.902 18.43 60.816 18.43 60.816 25.983 26.944 58.4 50.175 80.573 80.332s22.237 72.574 10.3 108.05c-14.071 41.83-60.395 65.693-104.475 67.829-21.821 1.058-44.773-1.908-64.666 7.144-30.056 13.678-42.496 49.386-66.35 72.223 0 0-73.95 96.583-153.295 55.14 0-.005-33.666-14.526-44.52-46.852z"/><path data-name="Path 6707" d="M260.354 828.258c-11.903-35.45 8.667-74.539 33.638-102.375s56.94-48.32 84.912-73.14 53.039-56.49 56.763-93.7c1.51-15.096-1.425-32.008-13.131-41.658-12.967-10.691-32.485-8.923-47.736-1.866s-28.027 18.508-42.686 26.73c-14.866 8.341-32.423 13.296-49.066 9.62s-31.636-17.585-32.828-34.589c-1.34-19.138 14.427-35.771 32.015-43.43 17.524-7.628 40.929-12.324 45.405-30.905 4.651-19.31-15.824-34.464-33.134-44.204-18.21-10.246-36.384-21.284-50.434-36.749s-20.81-52.87-18.712-73.66 18.266-39.394 38.837-43.055c22.494-4.008 37.856 21.733 37.856 21.733 24.041 42.216 40.655 68.298 75.131 73.032a48.07 48.07 0 0025.464-3.456 52.049 52.049 0 0022.243-18.065 540.98 540.98 0 0037.224-61.014c13.049-24.962 27.328-53.741 54.497-61.172 20.63-5.641 42.204 3.207 61.492 12.455 22.252 10.67 44.556 22.435 61.67 40.212s28.482 42.713 24.441 67.057c-4.116 24.8-22.733 44.215-39.3 63.124-19.122 21.827-45.664 32.65-53.525 60.585-10.236 36.386 17.693 58.382 17.693 58.382 24.942 25.865 56.062 48.167 77.348 77.116s21.343 69.67 9.891 103.725c-13.503 40.155-57.977 63.063-100.293 65.113-20.952 1.015-42.984-1.831-62.078 6.859-28.857 13.131-40.8 47.404-63.693 69.333 0 0-70.992 92.716-147.16 52.931-.006 0-32.324-13.94-42.744-44.97z"/><path data-name="Path 6708" d="M269.299 816.75c-11.409-33.971 8.305-71.43 32.236-98.105s54.566-46.306 81.372-70.091 50.827-54.135 54.396-89.793c1.448-14.466-1.365-30.674-12.583-39.926-12.423-10.244-31.13-8.55-45.746-1.787s-26.861 17.734-40.906 25.615c-14.242 7.993-31.071 12.742-47.021 9.22s-30.318-16.853-31.459-33.147c-1.28-18.34 13.824-34.28 30.68-41.619 16.794-7.308 39.223-11.81 43.512-29.617 4.458-18.505-15.164-33.027-31.753-42.36-17.45-9.819-34.866-20.397-48.331-35.217s-19.943-50.668-17.931-70.59 17.503-37.75 37.217-41.257c21.556-3.836 36.278 20.827 36.278 20.827 23.038 40.457 38.963 65.451 71.997 69.988a46.068 46.068 0 0024.404-3.316 49.88 49.88 0 0021.316-17.305A518.361 518.361 0 00462.65 269.8c12.504-23.921 26.189-51.5 52.225-58.622 19.77-5.408 40.444 3.073 58.926 11.936 21.324 10.225 42.697 21.5 59.1 38.537s27.29 40.932 23.421 64.262c-3.944 23.765-21.785 42.37-37.661 60.492-18.326 20.916-43.761 31.29-51.294 58.06-9.81 34.867 16.956 55.948 16.956 55.948 23.903 24.786 53.724 46.158 74.121 73.904s20.453 66.768 9.475 99.401c-12.945 38.48-55.563 60.433-96.112 62.398-20.079.973-41.192-1.755-59.49 6.572-27.65 12.584-39.098 45.432-61.037 66.445 0 0-68.031 88.851-141.024 50.725 0-.009-30.972-13.368-40.957-43.106z"/><path data-name="Path 6709" d="M278.245 805.246c-10.91-32.495 7.944-68.322 30.833-93.837s52.192-44.29 77.831-67.04 48.616-51.78 52.03-85.887c1.384-13.837-1.307-29.34-12.036-38.185-11.885-9.799-29.776-8.178-43.755-1.709s-25.695 16.96-39.129 24.5c-13.626 7.645-29.717 12.183-44.975 8.817s-28.998-16.12-30.09-31.705c-1.23-17.542 13.22-32.79 29.345-39.808 16.062-6.993 37.515-11.297 41.618-28.328 4.264-17.7-14.504-31.59-30.371-40.518-16.692-9.393-33.35-19.51-46.23-33.684s-19.074-48.464-17.15-67.518 16.742-36.108 35.595-39.465c20.618-3.67 34.7 19.92 34.7 19.92 22.035 38.691 37.264 62.604 68.864 66.943a44.062 44.062 0 0023.342-3.171 47.709 47.709 0 0020.392-16.552 495.831 495.831 0 0034.12-55.927c11.96-22.88 25.05-49.26 49.953-56.07 18.91-5.171 38.684 2.939 56.362 11.416 20.396 9.78 40.84 20.564 56.528 36.859s26.106 39.15 22.402 61.465c-3.773 22.732-20.837 40.528-36.021 57.86-17.53 20.008-41.857 29.929-49.063 55.534-9.383 33.351 16.218 53.514 16.218 53.514 22.862 23.707 51.386 44.15 70.897 70.685s19.571 63.863 9.066 95.076c-12.381 36.805-53.143 57.803-91.93 59.683-19.205.93-39.4-1.679-56.9 6.286-26.447 12.04-37.394 43.454-58.382 63.551 0 0-65.071 84.985-134.888 48.518 0 0-29.626-12.778-39.176-41.223z"/><path data-name="Path 6710" d="M287.19 793.743c-10.414-31.017 7.582-65.215 29.43-89.57s49.818-42.275 74.292-63.99 46.405-49.425 49.662-81.98c1.322-13.207-1.246-28.004-11.488-36.447-11.345-9.353-28.423-7.807-41.765-1.63s-24.524 16.192-37.347 23.386c-13.006 7.296-28.368 11.633-42.93 8.418s-27.678-15.385-28.72-30.263c-1.174-16.744 12.62-31.297 28.01-37.996 15.331-6.675 35.81-10.783 39.725-27.04 4.07-16.895-13.845-30.154-28.99-38.675-15.933-8.965-31.834-18.623-44.127-32.152s-18.206-46.259-16.37-64.45 15.98-34.467 33.98-37.67c19.68-3.502 33.12 19.016 33.12 19.016 21.034 36.934 35.571 59.754 65.733 63.896a42.057 42.057 0 0022.28-3.027 45.539 45.539 0 0019.462-15.799 473.272 473.272 0 0032.567-53.385c11.417-21.84 23.91-47.019 47.68-53.52 18.05-4.938 36.924 2.805 53.798 10.896 19.47 9.335 38.983 19.628 53.958 35.182s24.918 37.37 21.379 58.669c-3.602 21.697-19.89 38.684-34.383 55.227-16.736 19.097-39.953 28.567-46.832 53.007-8.957 31.835 15.48 51.078 15.48 51.078 21.823 22.63 49.05 42.141 67.672 67.47s18.674 60.954 8.65 90.75c-11.814 35.132-50.725 55.174-87.747 56.968-18.332.889-37.608-1.602-54.313 6-25.244 11.49-35.693 41.484-55.726 60.66 0 0-62.111 81.12-128.753 46.311.005.006-28.271-12.19-37.387-39.34z"/><path data-name="Path 6711" d="M296.135 782.238c-9.918-29.539 7.221-62.107 28.03-85.3s47.442-40.262 70.75-60.942 44.193-47.07 47.295-78.073c1.26-12.58-1.187-26.67-10.94-34.71-10.805-8.907-27.068-7.435-39.78-1.554s-23.354 15.421-35.566 22.271c-12.387 6.949-27.015 11.078-40.884 8.016s-26.36-14.652-27.352-28.82c-1.122-15.946 12.022-29.806 26.676-36.187 14.602-6.356 34.102-10.268 37.832-25.75 3.876-16.09-13.185-28.717-27.609-36.832-15.172-8.537-30.315-17.732-42.023-30.62s-17.34-44.054-15.59-61.375 15.226-32.824 32.362-35.874c18.742-3.337 31.543 18.108 31.543 18.108 20.031 35.175 33.875 56.907 62.6 60.852a40.052 40.052 0 0021.218-2.883 43.368 43.368 0 0018.535-15.046 450.769 450.769 0 0031.017-50.838c10.871-20.8 22.77-44.778 45.407-50.97 17.19-4.701 35.165 2.672 51.235 10.377 18.54 8.89 37.124 18.694 51.385 33.502s23.731 35.588 20.364 55.873c-3.43 20.664-18.946 36.84-32.745 52.596-15.934 18.187-38.049 27.206-44.599 50.48-8.53 30.318 14.742 48.646 14.742 48.646 20.783 21.551 46.712 40.134 64.448 64.255s17.784 58.05 8.239 86.426c-11.255 33.458-48.308 52.545-83.566 54.25-17.458.845-35.816-1.526-51.724 5.714-24.041 10.941-33.995 39.502-53.07 57.77 0 0-59.152 77.253-122.617 44.103-.002.006-26.932-11.609-35.613-37.465z"/><path data-name="Path 6712" d="M305.08 770.728c-9.421-28.06 6.86-58.999 26.626-81.031s45.074-38.246 67.21-57.892 41.982-44.713 44.93-74.166c1.195-11.95-1.128-25.336-10.394-32.974-10.262-8.461-25.712-7.063-37.78-1.476s-22.186 14.649-33.786 21.156c-11.767 6.6-25.663 10.525-38.839 7.616s-25.04-13.92-25.984-27.379c-1.06-15.149 11.417-28.314 25.34-34.376 13.871-6.039 32.397-9.755 35.94-24.463 3.682-15.285-12.526-27.278-26.227-34.989-14.414-8.11-28.798-16.847-39.92-29.088s-16.473-41.85-14.811-58.304 14.457-31.182 30.74-34.079c17.804-3.169 29.964 17.203 29.964 17.203 19.028 33.415 32.18 54.06 59.467 57.806a38.042 38.042 0 0020.157-2.738 41.2 41.2 0 0017.606-14.295 428.182 428.182 0 0029.464-48.293c10.322-19.752 21.628-42.531 43.128-48.414 16.33-4.467 33.404 2.538 48.67 9.858 17.62 8.442 35.271 17.76 48.817 31.83s22.543 33.808 19.345 53.077c-3.258 19.63-17.994 34.998-31.106 49.965-15.137 17.277-36.146 25.844-42.368 47.955-8.103 28.8 14.005 46.212 14.005 46.212 19.746 20.472 44.374 38.125 61.222 61.038s16.894 55.146 7.826 82.102c-10.69 31.784-45.89 49.915-79.383 51.539-16.585.804-34.024-1.45-49.136 5.428-22.838 10.394-32.291 37.526-50.415 54.879 0 0-56.19 73.387-116.48 41.896.001-.002-25.585-11.035-33.827-35.603z"/><path data-name="Path 6713" d="M314.023 759.229c-8.926-26.582 6.498-55.895 25.223-76.764s42.695-36.232 63.667-54.842 39.77-42.358 42.563-70.26c1.132-11.319-1.069-24-9.846-31.236-9.722-8.016-24.358-6.69-35.794-1.398s-21.017 13.876-32.007 20.044c-11.147 6.253-24.312 9.97-36.792 7.214s-23.722-13.186-24.615-25.933c-1.006-14.351 10.816-26.824 24.006-32.565 13.14-5.721 30.689-9.242 34.045-23.174 3.489-14.48-11.864-25.842-24.845-33.145-13.654-7.683-27.281-15.96-37.818-27.556s-15.598-39.649-14.026-55.237 13.696-29.538 29.12-32.284c16.867-3.006 28.386 16.298 28.386 16.298 18.032 31.653 30.487 51.21 56.335 54.76a36.044 36.044 0 0019.095-2.594 39.034 39.034 0 0016.679-13.54 405.659 405.659 0 0027.916-45.752c9.784-18.717 20.491-40.297 40.863-45.869 15.47-4.23 31.645 2.406 46.107 9.34 16.685 8 33.412 16.822 46.243 30.15s21.356 32.027 18.325 50.282c-3.086 18.596-17.045 33.154-29.467 47.332-14.339 16.366-34.24 24.483-40.135 45.429-7.677 27.283 13.267 43.777 13.267 43.777 18.702 19.394 42.037 36.116 58 57.821s16 52.248 7.405 77.78c-10.127 30.109-43.473 47.287-75.202 48.824-15.716.76-32.231-1.374-46.548 5.142-21.634 9.846-30.59 35.549-47.759 51.988 0 0-53.231 69.521-110.344 39.69.003 0-24.231-10.453-32.047-33.722z"/><path data-name="Path 6714" d="M322.972 747.725c-8.43-25.104 6.137-52.783 23.82-72.495s40.322-34.218 60.13-51.793 37.56-40.002 40.195-66.352c1.07-10.69-1.005-22.666-9.298-29.5-9.181-7.57-23.003-6.318-33.803-1.32s-19.849 13.105-30.227 18.927c-10.527 5.905-22.96 9.416-34.746 6.813s-22.403-12.453-23.246-24.494c-.95-13.552 10.215-25.331 22.671-30.754 12.41-5.402 28.983-8.727 32.153-21.885 3.294-13.674-11.206-24.405-23.464-31.303-12.896-7.255-25.765-15.072-35.715-26.027s-14.734-37.436-13.251-52.156 12.933-27.895 27.5-30.488c15.93-2.836 26.808 15.39 26.808 15.39 17.024 29.895 28.79 48.365 53.206 51.716a34.038 34.038 0 0018.032-2.45 36.854 36.854 0 0015.752-12.787 382.934 382.934 0 0026.358-43.207c9.24-17.676 19.352-38.055 38.591-43.318 14.61-3.996 29.886 2.272 43.543 8.82 15.756 7.555 31.55 15.887 43.671 28.476s20.169 30.246 17.307 47.485c-2.915 17.562-16.098 31.31-27.83 44.7-13.54 15.457-32.336 23.121-37.903 42.903-7.25 25.766 12.53 41.343 12.53 41.343 17.663 18.311 39.699 34.108 54.772 54.608s15.114 49.336 7.001 73.453c-9.565 28.437-41.055 44.656-71.02 46.108-14.838.72-30.44-1.297-43.96 4.857-20.432 9.299-28.89 33.572-45.103 49.096 0 0-50.272 65.656-104.21 37.487 0-.007-22.886-9.879-30.264-31.853z"/><path data-name="Path 6715" d="M331.917 736.22c-7.933-23.626 5.776-49.675 22.418-68.226s37.947-32.204 56.586-48.743 35.348-37.647 37.829-62.449c1.007-10.06-.95-21.332-8.75-27.763-8.642-7.124-21.65-5.947-31.814-1.242s-18.68 12.334-28.447 17.813c-9.908 5.558-21.608 8.861-32.7 6.412s-21.084-11.72-21.878-23.051c-.894-12.755 9.617-23.836 21.336-28.943 11.679-5.084 27.277-8.213 30.264-20.596 3.1-12.87-10.545-22.969-22.082-29.46-12.136-6.828-24.247-14.185-33.612-24.49s-13.869-35.237-12.47-49.09 12.172-26.253 25.882-28.693c14.99-2.668 25.229 14.484 25.229 14.484 16.021 28.134 27.095 45.516 50.07 48.67a32.038 32.038 0 0016.97-2.303 34.689 34.689 0 0014.823-12.037 360.539 360.539 0 0024.809-40.662c8.691-16.637 18.212-35.815 36.317-40.772 13.749-3.76 28.126 2.137 40.978 8.3 14.83 7.111 29.694 14.952 41.1 26.799s18.98 28.465 16.287 44.69c-2.743 16.528-15.15 29.467-26.19 42.069-12.745 14.547-30.432 21.76-35.672 40.377-6.824 24.248 11.792 38.911 11.792 38.911 16.622 17.238 37.362 32.101 51.548 51.394s14.224 46.43 6.59 69.125c-9.002 26.76-38.64 42.032-66.84 43.393-13.963.677-28.646-1.22-41.37 4.571-19.23 8.752-27.188 31.595-42.448 46.206 0 0-47.312 61.79-98.073 35.276.001.001-21.538-9.288-28.482-29.97z"/><path data-name="Path 6716" d="M340.862 724.716c-7.437-22.147 5.414-46.568 21.02-63.958s35.573-30.184 53.048-45.693 33.132-35.291 35.462-58.54c.944-9.43-.89-19.996-8.203-26.025-8.1-6.679-20.295-5.574-29.822-1.165s-17.512 11.562-26.669 16.698c-9.287 5.21-20.256 8.307-30.654 6.011s-19.765-10.987-20.51-21.61c-.837-11.956 9.012-22.345 20.002-27.131 10.948-4.767 25.57-7.7 28.367-19.308 2.91-12.065-9.886-21.532-20.702-27.617-11.376-6.4-22.73-13.298-31.504-22.959s-13.001-33.032-11.69-46.019 11.412-24.61 24.263-26.899c14.053-2.5 23.65 13.577 23.65 13.577 15.02 26.374 25.4 42.669 46.938 45.626a30.031 30.031 0 0015.91-2.161 32.518 32.518 0 0013.898-11.281 337.948 337.948 0 0023.256-38.12c8.152-15.595 17.073-33.574 34.047-38.217 12.889-3.526 26.37 2.003 38.415 7.78 13.902 6.666 27.836 14.017 38.529 25.123s17.793 26.684 15.271 41.894c-2.57 15.493-14.202 27.622-24.552 39.436-11.947 13.637-28.528 20.398-33.44 37.85-6.397 22.732 11.055 36.475 11.055 36.475 15.582 16.16 35.024 30.092 48.322 48.178s13.334 43.525 6.177 64.801c-8.439 25.087-36.221 39.398-62.657 40.679-13.09.635-26.855-1.144-38.781 4.285-18.026 8.204-25.487 29.618-39.792 43.312 0 0-44.35 57.924-91.937 33.068-.016.006-20.207-8.704-26.717-28.09z"/><path data-name="Path 6717" d="M349.812 713.211c-6.94-20.669 5.053-43.46 19.613-59.69s33.197-28.172 49.508-42.642 30.924-32.937 33.095-54.63c.88-8.802-.831-18.663-7.655-24.289-7.56-6.233-18.94-5.202-27.832-1.086s-16.343 10.79-24.888 15.584c-8.667 4.863-18.904 7.752-28.609 5.61s-18.445-10.254-19.14-20.167c-.78-11.159 8.41-20.857 18.666-25.323 10.217-4.447 23.864-7.184 26.474-18.02 2.712-11.254-9.226-20.093-19.32-25.772-10.617-5.975-21.213-12.41-29.405-21.427s-12.134-30.827-10.91-42.948 10.65-22.968 22.642-25.102c13.115-2.335 22.072 12.67 22.072 12.67 14.016 24.615 23.708 39.82 43.804 42.582a28.026 28.026 0 0014.848-2.017 30.342 30.342 0 0012.969-10.53 315.376 315.376 0 0021.704-35.574c7.608-14.555 15.934-31.334 31.774-35.667 12.028-3.29 24.606 1.87 35.852 7.262 12.973 6.22 25.975 13.08 35.957 23.445s16.606 24.903 14.25 39.097c-2.4 14.46-13.252 25.78-22.914 36.806-11.15 12.726-26.624 19.038-31.208 35.324-5.971 21.214 10.316 34.04 10.316 34.04 14.54 15.08 32.687 28.084 45.097 44.962s12.445 40.623 5.766 60.477c-7.876 23.412-33.804 36.768-58.472 37.963-12.212.592-25.062-1.068-36.194 3.999-16.823 7.655-23.786 27.641-37.136 40.424 0 0-41.392 54.058-85.802 30.861-.008 0-18.852-8.125-24.922-26.222z"/></g></g></g></svg>