<svg xmlns="http://www.w3.org/2000/svg" width="466" height="1317"><defs><clipPath id="a"><path transform="translate(2080 3348)" fill="#fff" stroke="#707070" d="M0 0h466v1317H0z"/></clipPath></defs><g transform="translate(-2080 -3348)" clip-path="url(#a)"><g opacity=".46" fill="rgba(0,0,0,0)" stroke="#d2e8f8"><path d="M3023.757 3187.642c94.146 80.235 102.417 226.105 79.037 347.573s-79.12 234.01-116.146 352.034-54.136 250.529-1.3 362.376c21.436 45.373 58.572 88.324 108.202 95.745 54.975 8.22 107.306-30.047 138.523-76.04s47.943-100.227 75.49-148.508c27.94-48.972 69.277-92.937 122.73-110.872s119.658-4.037 152.003 42.14c36.407 51.979 20.045 125.998-16.783 177.68-36.688 51.486-95.049 104.672-76.083 164.981 19.709 62.678 103.58 70.757 169.256 68.883 69.086-1.973 139.424-1.634 205.607 18.27s149.08 114.456 178.546 176.975 15.326 142.81-36.761 188.236c-56.958 49.675-144.36 2.876-144.36 2.876-140.085-78.739-231.63-124.387-337.438-79.075a159.01 159.01 0 00-66.307 53.195 172.166 172.166 0 00-32.303 89.096 1789.45 1789.45 0 00-1.594 236.416c5.531 93.006 14.074 198.93-50.298 266.288-48.88 51.15-125.123 62.806-195.56 69.443-81.267 7.662-164.55 12.297-243.366-8.945s-153.521-72.58-183.536-148.491c-30.579-77.329-10.873-164.092 3.883-245.928 17.034-94.467 73.847-170.375 48.546-262.97-32.957-120.61-149.632-135.39-149.632-135.39-114.783-30.837-241.016-41.056-350.684-86.872s-179.21-161.17-204.75-277.25c-30.118-136.858 56.94-277.572 173.425-355.477 57.678-38.576 124.996-68.04 164.326-125.205 59.434-86.391 34.898-203.922 62.47-305.092 0 0 43.325-383.827 327.066-400.79 0-.001 115.384-15.537 197.791 54.698z" stroke-width=".99998"/><path d="M3020.997 3210.604c92.262 78.628 100.367 221.581 77.456 340.619s-77.539 229.327-113.823 344.991-53.057 245.52-1.278 355.125c21.007 44.467 57.4 86.558 106.037 93.83 53.877 8.056 105.16-29.445 135.752-74.518s46.983-98.228 73.978-145.538c27.383-47.991 67.891-91.076 120.274-108.654s117.266-3.956 148.965 41.3c35.678 50.94 19.644 123.48-16.447 174.126-35.955 50.456-93.147 102.579-74.561 161.68 19.315 61.423 101.508 69.342 165.873 67.503 67.703-1.933 136.632-1.605 201.492 17.905s146.099 112.166 174.975 173.432 15.02 139.954-36.027 184.471c-55.818 48.681-141.473 2.818-141.473 2.818-137.285-77.16-226.997-121.893-330.694-77.487a155.826 155.826 0 00-64.98 52.131 168.718 168.718 0 00-31.657 87.313 1753.461 1753.461 0 00-1.562 231.684c5.42 91.146 13.792 194.951-49.291 260.962-47.903 50.125-122.62 61.55-191.646 68.053-79.643 7.504-161.26 12.047-238.496-8.768s-150.45-71.129-179.867-145.519c-29.968-75.781-10.659-160.814 3.805-241.009 16.692-92.572 72.367-166.963 47.572-257.705-32.296-118.195-146.637-132.681-146.637-132.681-112.49-30.223-236.192-40.236-343.669-85.133s-175.622-157.943-200.652-271.704c-29.51-134.124 55.805-272.026 169.96-348.37 56.523-37.803 122.493-66.682 161.038-122.7 58.247-84.66 34.2-199.841 61.225-298.99 0 0 42.457-376.148 320.523-392.772-.004.002 113.072-15.224 193.835 53.605z" stroke-width=".99998"/><path d="M3018.23 3233.568c90.381 77.026 98.319 217.058 75.875 333.665s-75.954 224.646-111.498 337.948-51.974 240.507-1.253 347.875c20.577 43.557 56.23 84.79 103.874 91.913 52.777 7.892 103.012-28.843 132.98-72.997s46.025-96.215 72.47-142.566c26.824-47.01 66.505-89.217 117.82-106.435s114.87-3.877 145.922 40.455c34.95 49.899 19.243 120.957-16.112 170.57-35.22 49.425-91.244 100.485-73.039 158.38 18.921 60.17 99.437 67.926 162.485 66.125 66.322-1.894 133.844-1.572 197.379 17.54s143.112 109.877 171.402 169.892 14.713 137.096-35.291 180.705c-54.68 47.688-138.583 2.765-138.583 2.765-134.478-75.583-222.363-119.41-323.939-75.908a152.646 152.646 0 00-63.653 51.07 165.274 165.274 0 00-31.01 85.529 1717.82 1717.82 0 00-1.531 226.957c5.31 89.284 13.51 190.97-48.285 255.633-46.925 49.104-120.116 60.293-187.736 66.666-78.02 7.349-157.97 11.801-233.63-8.591s-147.384-69.675-176.196-142.549c-29.351-74.236-10.438-157.526 3.726-236.09 16.352-90.686 70.892-163.558 46.603-252.447-31.637-115.78-143.644-129.97-143.644-129.97-110.19-29.604-231.369-39.415-336.652-83.396s-172.039-154.722-196.556-266.157c-28.907-131.385 54.668-266.47 166.49-341.258 55.37-37.032 119.995-65.317 157.752-120.195 57.057-82.931 33.503-195.763 59.97-292.884 0 0 41.592-368.469 313.976-384.753.007-.002 110.771-14.916 189.885 52.508z" stroke-width=".99998"/><path d="M3015.467 3256.534c88.496 75.419 96.269 212.535 74.294 326.712s-74.376 219.966-109.175 330.906-50.89 235.493-1.227 340.625c20.148 42.65 55.056 83.022 101.708 90 51.677 7.726 100.866-28.242 130.209-71.476s45.065-94.21 70.96-139.595c26.263-46.032 65.118-87.359 115.363-104.218s112.478-3.794 142.882 39.614c34.22 48.86 18.844 118.435-15.776 167.016-34.487 48.396-89.343 98.39-71.518 155.08 18.527 58.914 97.365 66.51 159.1 64.747 64.94-1.854 131.056-1.536 193.265 17.175s140.134 107.585 167.83 166.35 14.407 134.239-34.556 176.94c-53.54 46.693-135.696 2.703-135.696 2.703-131.678-74.012-217.729-116.918-317.188-74.326a149.464 149.464 0 00-62.328 50.003 161.836 161.836 0 00-30.364 83.747 1681.908 1681.908 0 00-1.499 222.227c5.2 87.423 13.23 186.99-47.275 250.304-45.947 48.079-117.614 59.035-183.824 65.276-76.394 7.196-154.677 11.556-228.761-8.415s-144.308-68.224-172.523-139.577c-28.744-72.687-10.22-154.244 3.65-231.167 16.01-88.801 69.415-160.15 45.631-247.186-30.978-113.37-140.65-127.265-140.65-127.265-107.896-28.99-226.546-38.592-329.637-81.657s-168.453-151.498-192.46-260.61c-28.306-128.645 53.527-260.914 163.02-334.143 54.213-36.259 117.494-63.955 154.463-117.69 55.869-81.203 32.804-191.681 58.722-286.78 0 0 40.723-360.79 307.435-376.736-.002-.004 108.459-14.605 185.925 51.416z" stroke-width=".99998"/><path d="M3012.7 3279.496c86.61 73.813 94.22 208.01 72.711 319.758s-72.788 215.281-106.848 323.865-49.81 230.482-1.203 333.373c19.72 41.742 53.884 81.256 99.543 88.083 50.576 7.562 98.718-27.642 127.437-69.955s44.104-92.205 69.45-136.623c25.704-45.052 63.732-85.5 112.908-102s110.082-3.714 139.84 38.77c33.497 47.817 18.44 115.916-15.44 163.462-33.748 47.362-87.441 96.295-69.994 151.777 18.13 57.659 95.293 65.095 155.713 63.371 63.556-1.815 128.264-1.507 189.151 16.809s137.151 105.295 164.259 162.81 14.1 131.381-33.82 173.173c-52.4 45.699-132.807 2.645-132.807 2.645-128.875-72.436-213.093-114.428-310.437-72.743a146.28 146.28 0 00-61.002 48.938 158.385 158.385 0 00-29.718 81.965 1646.147 1646.147 0 00-1.466 217.496c5.088 85.564 12.944 183.013-46.272 244.979-44.97 47.056-115.11 57.78-179.911 63.887-74.766 7.046-151.381 11.31-223.894-8.234s-141.235-66.773-168.851-136.607c-28.132-71.14-10.003-150.96 3.572-226.248 15.675-86.903 67.94-156.736 44.663-241.921-30.319-110.958-137.657-124.555-137.657-124.555-105.6-28.372-221.726-37.772-322.62-79.919s-164.867-148.272-188.364-255.062c-27.702-125.91 52.389-255.365 159.551-327.036 53.065-35.487 114.993-62.593 151.176-115.185 54.679-79.474 32.105-187.603 57.471-280.677 0 0 39.856-353.11 300.893-368.717 0 0 106.15-14.292 181.966 50.321z" stroke-width=".99998"/><path d="M3009.935 3302.458c84.728 72.208 92.171 203.489 71.13 312.804s-71.206 210.602-104.527 316.82-48.725 225.468-1.174 326.126c19.29 40.835 52.71 79.493 97.377 86.167 49.477 7.398 96.572-27.04 124.666-68.434s43.147-90.2 67.94-133.652c25.145-44.073 62.346-83.64 110.452-99.782s107.689-3.634 136.8 37.928c32.766 46.783 18.04 113.395-15.104 159.907-33.019 46.335-85.54 94.201-68.473 148.477 17.738 56.407 93.22 63.68 152.326 61.992 62.175-1.776 125.473-1.472 185.039 16.443s134.168 103.005 160.686 159.27 13.79 128.521-33.084 169.407c-51.26 44.705-129.92 2.587-129.92 2.587-126.073-70.86-208.46-111.94-303.687-71.162a143.11 143.11 0 00-59.674 47.874 154.95 154.95 0 00-29.071 80.183 1610.41 1610.41 0 00-1.435 212.765c4.978 83.703 12.666 179.031-45.266 239.652-43.99 46.032-112.607 56.523-175.998 62.497-73.138 6.894-148.089 11.067-219.02-8.05s-138.165-65.322-165.18-133.637c-27.52-69.593-9.786-147.678 3.495-221.328 15.33-85.016 66.46-153.331 43.69-236.663-29.66-108.544-134.666-121.846-134.666-121.846-103.303-27.753-216.904-36.948-315.605-78.18s-161.283-145.048-184.267-249.516c-27.1-123.17 51.25-249.81 156.082-319.922 51.908-34.716 112.492-61.233 147.889-112.68 53.49-77.747 31.407-183.523 56.22-274.573 0 0 38.991-345.432 294.349-360.701.002.006 103.841-13.98 178.01 49.227z" stroke-width=".99998"/><path d="M3007.17 3325.423c82.844 70.603 90.122 198.964 69.549 305.851s-69.623 205.918-102.204 309.776-47.642 220.457-1.147 318.875c18.862 39.927 51.54 77.722 95.214 84.252 48.377 7.233 94.428-26.442 121.893-66.914s42.189-88.195 66.429-130.68c24.587-43.094 60.961-81.781 107.998-97.564s105.296-3.553 133.762 37.084c32.036 45.74 17.64 110.874-14.768 156.352-32.285 45.305-83.64 92.107-66.951 145.175 17.343 55.154 91.145 62.267 148.94 60.614 60.793-1.735 122.686-1.439 180.925 16.078s131.185 100.716 157.115 155.73 13.486 125.666-32.35 165.64c-50.12 43.712-127.03 2.53-127.03 2.53-123.27-69.287-203.826-109.453-296.936-69.58a139.923 139.923 0 00-58.352 46.813 151.503 151.503 0 00-28.426 78.4 1574.565 1574.565 0 00-1.404 208.037c4.868 81.842 12.388 175.049-44.263 234.323-43.012 45.009-110.103 55.267-172.085 61.108-71.511 6.737-144.798 10.821-214.154-7.874s-135.092-63.869-161.507-130.665c-26.91-68.046-9.568-144.395 3.416-216.407 14.987-83.13 64.983-149.923 42.717-231.401-28.993-106.13-131.664-119.136-131.664-119.136-101.002-27.14-212.078-36.132-308.588-76.445s-157.697-141.823-180.17-243.97c-26.5-120.43 50.11-244.255 152.611-312.808 50.754-33.945 109.992-59.872 144.6-110.176 52.302-76.018 30.71-179.444 54.971-268.469 0 0 38.124-337.752 287.807-352.682 0 .001 101.533-13.67 174.051 48.133z" stroke-width=".99998"/><path d="M3004.404 3348.387c80.96 68.998 88.073 194.44 67.967 298.896s-68.038 201.238-99.88 302.734-46.559 215.442-1.12 311.626c18.432 39.02 50.368 75.955 93.047 82.336 47.277 7.068 92.278-25.838 119.123-65.391s41.226-86.19 64.918-127.71c24.028-42.113 59.574-79.92 105.541-95.345s102.902-3.471 130.717 36.241c31.309 44.7 17.238 108.353-14.432 152.796-31.55 44.276-81.74 90.016-65.429 141.876 16.95 53.9 89.076 60.849 145.554 59.236 59.41-1.696 119.896-1.409 176.811 15.712s128.203 98.426 153.542 152.19 13.18 122.81-31.613 161.873c-48.983 42.715-124.144 2.473-124.144 2.473-120.464-67.71-199.188-106.961-290.181-67.997a136.735 136.735 0 00-57.021 45.746 148.053 148.053 0 00-27.78 76.617 1538.692 1538.692 0 00-1.371 203.307c4.756 79.98 12.102 171.07-43.254 228.995-42.037 43.987-107.6 54.01-168.173 59.718-69.888 6.586-141.506 10.573-209.283-7.692s-132.02-62.415-157.836-127.696c-26.297-66.5-9.351-141.112 3.338-211.488 14.648-81.235 63.505-146.514 41.746-226.14-28.34-103.719-128.676-116.43-128.676-116.43-98.708-26.518-207.257-35.304-301.57-74.703s-154.112-138.598-176.074-238.422c-25.895-117.695 48.97-238.703 149.142-305.697 49.6-33.173 107.49-58.511 141.313-107.67 51.112-74.29 30.01-175.364 53.721-262.365 0 0 37.257-330.074 281.262-344.662.004-.002 99.225-13.361 170.095 47.036z" stroke-width=".99998"/><path d="M3001.639 3371.35c79.075 67.388 86.024 189.916 66.387 291.943s-66.457 196.556-97.558 295.692-45.474 210.427-1.097 304.376c18.005 38.11 49.197 74.187 90.887 80.418 46.177 6.905 90.13-25.237 116.35-63.869s40.27-84.184 63.41-124.737c23.469-41.134 58.188-78.062 103.085-93.128s100.507-3.391 127.678 35.4c30.58 43.659 16.837 105.833-14.097 149.242-30.816 43.245-79.833 87.918-63.906 138.575 16.554 52.645 87.003 59.432 142.167 57.858 58.028-1.657 117.107-1.376 172.698 15.347s125.22 96.136 149.97 148.647 12.872 119.954-30.879 158.11c-47.845 41.726-121.255 2.416-121.255 2.416-117.664-66.135-194.556-104.477-283.432-66.416a133.558 133.558 0 00-55.694 44.68 144.61 144.61 0 00-27.133 74.837 1503.015 1503.015 0 00-1.344 198.576c4.646 78.12 11.821 167.09-42.248 223.668-41.057 42.962-105.1 52.756-164.261 58.33-68.261 6.432-138.213 10.328-204.414-7.515s-128.95-60.964-154.163-124.723c-25.685-64.952-9.133-137.83 3.262-206.567 14.308-79.347 62.027-143.106 40.776-220.879-27.681-101.304-125.683-113.72-125.683-113.72-96.41-25.909-202.436-34.49-294.554-72.972s-150.527-135.375-171.98-232.873c-25.29-114.954 47.828-233.148 145.671-298.587 48.447-32.4 104.987-57.152 138.026-105.165 49.926-72.564 29.316-171.286 52.475-256.263 0 0 36.39-322.394 274.719-336.644 0 0 96.916-13.049 166.137 45.943z" stroke-width=".99998"/><path d="M2998.874 3394.315c77.194 65.787 83.975 185.393 64.805 284.99s-64.874 191.872-95.233 288.646-44.394 205.417-1.073 297.129c17.576 37.204 48.026 72.42 88.718 78.505 45.077 6.74 87.986-24.636 113.583-62.346s39.31-82.18 61.9-121.763c22.91-40.155 56.806-76.205 100.631-90.91s98.113-3.31 124.635 34.556c29.852 42.62 16.437 103.312-13.76 145.687-30.083 42.206-77.932 85.812-62.387 135.263 16.162 51.39 84.93 58.017 138.782 56.48 56.645-1.618 114.317-1.341 168.584 14.98s122.24 93.85 146.398 145.107 12.567 117.096-30.14 154.347c-46.703 40.73-118.368 2.358-118.368 2.358-114.862-64.56-189.922-101.987-276.685-64.837a130.375 130.375 0 00-54.369 43.617 141.167 141.167 0 00-26.486 73.053 1467.185 1467.185 0 00-1.306 193.847c4.538 76.258 11.54 163.111-41.24 218.341-40.08 41.94-102.594 51.498-160.349 56.94-66.635 6.279-134.92 10.083-199.545-7.335s-125.878-59.51-150.49-121.75c-25.073-63.405-8.916-134.546 3.184-201.647 13.965-77.459 60.55-139.697 39.804-215.62-27.022-98.891-122.689-111.01-122.689-111.01-94.117-25.288-197.615-33.664-287.54-71.232s-146.942-132.15-167.882-227.328c-24.69-112.218 46.692-227.596 142.2-291.472 47.292-31.63 102.49-55.789 134.738-102.66 48.734-70.835 28.613-167.207 51.222-250.159 0 0 35.523-314.715 268.174-328.625.003 0 94.611-12.74 162.184 44.848z" stroke-width=".99998"/><path d="M2996.109 3417.279c75.31 64.181 81.924 180.865 63.223 278.033s-63.29 187.193-92.909 281.606-43.308 200.409-1.043 289.877c17.145 36.296 46.854 70.653 86.554 76.59 43.98 6.574 85.838-24.036 110.81-60.827s38.349-80.174 60.389-118.797c22.35-39.175 55.416-74.344 98.175-88.691s95.72-3.23 121.596 33.716c29.123 41.58 16.036 100.79-13.429 142.134-29.348 41.185-76.031 83.734-60.863 131.974 15.765 50.134 82.858 56.602 135.395 55.102 55.263-1.578 111.527-1.31 164.472 14.618s119.256 91.556 142.825 141.567 12.263 114.236-29.407 150.576c-45.563 39.735-115.48 2.3-115.48 2.3-112.058-62.985-185.287-99.499-269.93-63.252a127.197 127.197 0 00-53.042 42.553 137.732 137.732 0 00-25.841 71.268 1431.436 1431.436 0 00-1.275 189.117c4.425 74.4 11.258 159.131-40.235 213.014-39.101 40.915-100.087 50.239-156.436 55.55-65.008 6.126-131.63 9.835-194.676-7.155s-122.806-58.06-146.818-118.782c-24.46-61.856-8.7-131.262 3.106-196.727 13.625-75.566 59.072-136.288 38.833-210.357-26.364-96.48-119.695-108.304-119.695-108.304-91.82-24.677-192.793-32.85-280.523-69.498S2276.528 4415.559 2256.1 4322.7c-24.087-109.48 45.553-222.043 138.732-284.363 46.138-30.858 99.989-54.427 131.45-100.155 47.544-69.104 27.919-163.124 49.97-244.052 0 0 34.657-307.036 261.632-320.606 0 0 92.3-12.43 158.224 43.754z" stroke-width=".99998"/><path d="M2993.342 3440.242c73.426 62.576 79.877 176.345 61.643 271.082s-61.708 182.51-90.585 274.561-42.226 195.396-1.017 282.627c16.717 35.388 45.681 68.886 84.39 74.674 42.877 6.41 83.693-23.435 108.037-59.306s37.392-78.169 58.873-115.823c21.792-38.195 54.03-72.484 95.72-86.473s93.327-3.15 118.552 32.869c28.395 40.54 15.632 98.271-13.089 138.577-28.61 40.155-74.126 81.636-59.332 128.676 15.371 48.883 80.786 55.186 132.007 53.723 53.883-1.539 108.74-1.277 160.358 14.25s116.274 89.266 139.254 138.025 11.953 111.381-28.671 146.81c-44.423 38.743-112.592 2.244-112.592 2.244-109.256-61.41-180.655-97.01-263.177-61.667a124.015 124.015 0 00-51.715 41.488 134.284 134.284 0 00-25.195 69.488 1395.6 1395.6 0 00-1.245 184.38c4.313 72.54 10.976 155.152-39.229 207.687-38.123 39.892-97.587 48.984-152.523 54.161-63.383 5.974-128.337 9.591-189.808-6.976s-119.737-56.613-143.147-115.812c-23.852-60.31-8.48-127.98 3.027-191.808 13.285-73.676 57.595-132.88 37.862-205.097-25.704-94.066-116.701-105.593-116.701-105.593-89.52-24.055-187.973-32.022-273.509-67.752s-139.77-125.701-159.689-216.235c-23.485-106.743 44.411-216.488 135.262-277.25 44.983-30.085 97.488-53.067 128.163-97.651 46.356-67.377 27.218-159.045 48.722-237.95 0 0 33.79-299.358 255.089-312.589-.001.001 89.991-12.117 154.265 42.66z" stroke-width=".99998"/><path d="M2990.577 3463.205c71.543 60.972 77.829 171.822 60.062 264.128s-60.126 177.828-88.26 267.517-41.146 190.386-.992 275.378c16.289 34.48 44.509 67.12 82.224 72.76 41.777 6.247 81.544-22.833 105.267-57.786s36.433-76.164 57.366-112.853c21.236-37.216 52.646-70.625 93.265-84.256s90.932-3.068 115.513 32.026c27.666 39.5 15.233 95.749-12.754 135.023-27.88 39.124-72.228 79.542-57.817 125.372 14.977 47.63 78.713 53.77 128.622 52.345 52.5-1.499 105.95-1.244 156.244 13.884s113.29 86.977 135.682 134.485 11.646 108.524-27.936 143.045c-43.284 37.75-109.703 2.186-109.703 2.186-106.456-59.833-176.022-94.52-256.427-60.083a120.837 120.837 0 00-50.39 40.424 130.845 130.845 0 00-24.547 67.706 1359.791 1359.791 0 00-1.211 179.657c4.203 70.677 10.695 151.171-38.222 202.358-37.141 38.867-95.083 47.728-148.611 52.772-61.757 5.82-125.045 9.345-184.938-6.798s-116.662-55.154-139.475-112.84c-23.238-58.764-8.259-124.7 2.949-186.885 12.938-71.786 56.117-129.472 36.89-199.836-25.046-91.655-113.708-102.885-113.708-102.885-87.228-23.436-183.151-31.2-266.492-66.016s-136.185-122.477-155.593-210.689c-22.882-104.004 43.275-210.935 131.794-270.138 43.83-29.314 94.987-51.704 124.875-95.145 45.166-65.648 26.52-154.964 47.473-231.846 0 0 32.922-291.679 248.544-304.57 0-.006 87.68-11.811 150.306 41.56z" stroke-width=".99998"/><path d="M2987.812 3486.17c69.66 59.366 75.778 167.299 58.48 257.175s-58.544 173.148-85.938 260.475-40.058 185.37-.96 268.124c15.86 33.573 43.337 65.353 80.06 70.843 40.677 6.082 79.398-22.232 102.497-56.264s35.471-74.158 55.857-109.883c20.673-36.235 51.259-68.765 90.809-82.036s88.538-2.987 112.47 31.182c26.94 38.46 14.833 93.229-12.417 131.468-27.146 38.095-70.327 77.448-56.295 122.072 14.584 46.375 76.645 52.353 125.236 50.967 51.12-1.456 103.159-1.213 152.13 13.518s110.308 84.689 132.11 130.945 11.339 105.668-27.201 139.28c-42.144 36.754-106.816 2.127-106.816 2.127-103.65-58.26-171.385-92.032-249.677-58.506a117.653 117.653 0 00-49.062 39.36 127.391 127.391 0 00-23.9 65.923 1323.87 1323.87 0 00-1.182 174.924c4.092 68.816 10.413 147.191-37.216 197.03-36.168 37.845-92.581 46.47-144.699 51.383-60.132 5.666-121.753 9.098-180.07-6.619s-113.592-53.704-135.803-109.87c-22.626-57.216-8.046-121.415 2.873-181.966 12.604-69.896 54.64-126.062 35.92-194.575-24.388-89.238-110.714-100.177-110.714-100.177-84.936-22.811-178.334-30.37-259.481-64.27s-132.601-119.252-151.497-205.14c-22.281-101.266 42.136-205.382 128.323-263.026 42.676-28.543 92.488-50.343 121.588-92.641 43.976-63.924 25.821-150.885 46.223-225.742 0 0 32.056-284 242-296.552 0 0 85.374-11.492 146.352 40.47z" stroke-width=".99998"/><path d="M2985.047 3509.134c67.776 57.761 73.73 162.775 56.9 250.22s-56.96 168.465-83.615 253.432-38.977 180.36-.939 260.877c15.432 32.665 42.166 63.585 77.895 68.927 39.578 5.918 77.251-21.63 99.724-54.74s34.514-72.154 54.346-106.912c20.114-35.255 49.873-66.906 88.355-79.818s86.142-2.906 109.43 30.34c26.209 37.419 14.43 90.707-12.082 127.912-26.416 37.061-68.428 75.355-54.775 118.77 14.189 45.123 74.569 50.939 121.85 49.59 49.736-1.42 100.37-1.179 148.015 13.151s107.325 82.397 128.538 127.405 11.033 102.81-26.465 135.513c-41.005 35.761-103.926 2.07-103.926 2.07-100.852-56.682-166.753-89.544-242.927-56.925a114.47 114.47 0 00-47.733 38.298 123.951 123.951 0 00-23.256 64.141 1288.297 1288.297 0 00-1.15 170.2c3.983 66.956 10.132 143.211-36.21 191.703-35.19 36.822-90.077 45.215-140.785 49.993-58.506 5.514-118.46 8.853-175.2-6.44s-110.521-52.252-132.132-106.898c-22.014-55.67-7.828-118.132 2.796-177.047 12.262-68.005 53.162-122.654 34.947-189.313-23.724-86.83-107.72-97.472-107.72-97.472-82.633-22.202-173.507-29.556-252.46-62.542s-129.015-116.023-147.4-199.591c-21.677-98.528 40.997-199.829 124.855-255.913 41.523-27.77 89.986-48.982 118.3-90.136 42.787-62.193 25.122-146.806 44.972-219.64 0 0 31.19-276.32 235.457-288.531 0 0 83.066-11.187 142.395 39.376z" stroke-width=".99998"/><path d="M2982.282 3532.097c65.892 56.156 71.681 158.252 55.317 243.267s-55.376 163.783-81.29 246.389-37.892 175.347-.912 253.628c15 31.753 40.994 61.818 75.73 67.01 38.477 5.753 75.103-21.03 96.951-53.22s33.556-70.15 52.835-103.944c19.556-34.276 48.487-65.047 85.898-77.6s83.75-2.825 106.388 29.496c25.482 36.38 14.03 88.187-11.745 124.358-25.679 36.035-66.525 73.26-53.251 115.47 13.795 43.868 72.496 49.524 118.463 48.212 48.353-1.381 97.581-1.147 143.904 12.787s104.342 80.107 124.965 123.864 10.727 99.953-25.73 131.747c-39.864 34.767-101.038 2.014-101.038 2.014-98.045-55.11-162.118-87.057-236.175-55.343a111.292 111.292 0 00-46.409 37.23 120.497 120.497 0 00-22.608 62.359 1252.395 1252.395 0 00-1.113 165.465c3.869 65.098 9.85 139.232-35.202 186.377-34.21 35.801-87.574 43.957-136.874 48.602-56.88 5.36-115.168 8.608-170.33-6.26s-107.45-50.8-128.46-103.928c-21.402-54.123-7.61-114.848 2.718-172.126 11.92-66.119 51.685-119.245 33.977-184.053-23.07-84.407-104.728-94.755-104.728-94.755-80.338-21.585-168.685-28.736-245.445-60.801s-125.432-112.802-143.307-194.046c-21.077-95.794 39.857-194.276 121.385-248.802 40.367-27.002 87.484-47.624 115.012-87.631 41.599-60.463 24.422-142.728 43.722-213.535 0 0 30.323-268.64 228.914-280.514 0 0 80.757-10.874 138.438 38.283z" stroke-width=".99998"/><path d="M2979.515 3555.06c64.01 54.55 69.633 153.728 53.738 236.313s-53.794 159.102-78.966 239.348-36.81 170.334-.888 246.376c14.576 30.844 39.823 60.051 73.566 65.097 37.378 5.588 72.959-20.43 94.181-51.7s32.594-68.141 51.326-100.97c18.996-33.294 47.1-63.186 83.443-75.381s81.355-2.747 103.347 28.654c24.753 35.34 13.627 85.662-11.41 120.803-24.944 35.005-64.623 71.167-51.728 112.17 13.403 42.613 70.424 48.108 115.077 46.832 46.97-1.34 94.792-1.113 139.79 12.423s101.36 77.818 121.392 120.32 10.42 97.097-24.994 127.981c-38.726 33.773-98.15 1.955-98.15 1.955-95.244-53.533-157.482-84.568-229.424-53.76a108.109 108.109 0 00-45.083 36.167 117.054 117.054 0 00-21.962 60.575 1216.583 1216.583 0 00-1.084 160.738c3.76 63.235 9.569 135.252-34.195 181.052-33.233 34.776-85.07 42.702-132.961 47.215-55.253 5.207-111.877 8.36-165.461-6.08s-104.378-49.348-124.788-100.957c-20.79-52.576-7.392-111.567 2.64-167.206 11.581-64.227 50.206-115.836 33.006-178.791-22.405-82.003-101.734-92.051-101.734-92.051-78.04-20.97-163.864-27.915-238.429-59.064s-121.847-109.583-139.21-188.504c-20.47-93.053 38.72-188.724 117.915-241.69 39.214-26.228 84.983-46.26 111.723-85.127 40.408-58.73 23.727-138.645 42.473-207.43 0 0 29.459-260.963 222.37-272.494.001 0 78.45-10.566 134.48 37.186z" stroke-width=".99998"/><path d="M2976.752 3578.026c62.126 52.945 67.583 149.203 52.155 229.359s-52.211 154.42-76.643 232.303-35.727 165.322-.861 239.127c14.143 29.938 38.65 58.281 71.4 63.18 36.278 5.424 70.81-19.827 91.41-50.177s31.637-66.139 49.815-97.998c18.438-32.315 45.715-61.328 80.987-73.163s78.962-2.664 100.307 27.81c24.024 34.3 13.229 83.145-11.074 117.249-24.21 33.974-62.722 69.072-50.207 108.869 13.006 41.36 68.352 46.691 111.69 45.454 45.589-1.3 92.003-1.08 135.678 12.058s98.376 75.527 117.82 116.782 10.114 94.238-24.258 124.215c-37.586 32.78-95.262 1.897-95.262 1.897-92.442-51.957-152.85-82.078-222.674-52.178a104.93 104.93 0 00-43.756 35.103 113.615 113.615 0 00-21.316 58.793 1180.687 1180.687 0 00-1.052 156.008c3.65 61.374 9.284 131.274-33.191 175.72-32.257 33.751-82.567 41.446-129.048 45.825-53.628 5.054-108.589 8.117-160.593-5.903s-101.307-47.895-121.12-97.984c-20.179-51.03-7.175-108.283 2.562-162.285 11.236-62.335 48.73-112.428 32.034-173.53-21.747-79.588-98.74-89.343-98.74-89.343-75.746-20.352-159.042-27.093-231.412-57.325s-118.257-106.355-135.108-182.951c-19.87-90.313 37.578-183.17 114.445-234.578 38.06-25.455 82.483-44.898 108.436-82.62 39.223-57.015 23.033-134.571 41.225-201.334 0 0 28.59-253.283 215.828-264.477.002-.002 76.14-10.254 130.523 36.094z" stroke-width=".99998"/><path d="M2973.985 3600.989c60.242 51.34 65.535 144.68 50.575 222.405s-50.63 149.736-74.32 225.261-34.644 160.31-.834 231.877c13.715 29.032 37.48 56.516 69.236 61.266 35.179 5.26 68.663-19.227 88.639-48.657s30.679-64.131 48.304-95.027c17.879-31.338 44.329-59.469 78.533-70.945s76.565-2.582 97.265 26.967c23.297 33.26 12.827 80.625-10.739 113.694-23.472 32.942-60.82 66.978-48.684 105.568 12.611 40.106 66.28 45.277 108.305 44.077 44.207-1.262 89.213-1.049 131.563 11.69s95.394 73.239 114.25 113.244 9.806 91.382-23.524 120.45c-36.448 31.782-92.376 1.836-92.376 1.836-89.638-50.384-148.216-79.591-215.925-50.596a101.74 101.74 0 00-42.429 34.038 110.166 110.166 0 00-20.67 57.01 1145.038 1145.038 0 00-1.021 151.276c3.54 59.512 9.005 127.291-32.184 170.393-31.278 32.729-80.065 40.189-125.137 44.436-52.003 4.9-105.292 7.868-155.724-5.725s-98.23-46.44-117.439-95.012c-19.564-49.483-6.958-105 2.484-157.365 10.899-60.447 47.253-109.02 31.06-168.273-21.087-77.175-95.743-86.631-95.743-86.631-73.449-19.732-154.223-26.267-224.396-55.585s-114.672-103.13-131.015-177.408c-19.27-87.574 36.44-177.614 110.976-227.462 36.908-24.683 79.983-43.536 105.15-80.115 38.033-55.279 22.33-130.486 39.974-195.222 0 0 27.722-245.604 209.283-256.46-.003-.005 73.83-9.947 126.563 34.995z" stroke-width=".99998"/><path d="M2971.22 3623.952c58.359 49.735 63.486 140.157 48.994 215.452s-49.044 145.058-71.998 218.219-33.559 155.297-.807 224.626c13.285 28.124 36.307 54.75 67.07 59.35 34.08 5.095 66.517-18.625 85.868-47.137s29.716-62.126 46.794-92.056c17.32-30.357 42.946-57.612 76.076-68.727s74.175-2.502 94.225 26.124c22.567 32.22 12.426 78.102-10.404 110.138-22.742 31.915-58.918 64.885-47.162 102.269 12.218 38.85 64.207 43.86 104.918 42.698 42.825-1.223 86.424-1.015 127.45 11.325s92.412 70.948 110.68 109.7 9.5 88.525-22.789 116.684c-35.306 30.792-89.485 1.783-89.485 1.783-86.837-48.807-143.582-77.101-209.171-49.015a98.565 98.565 0 00-41.102 32.975 106.718 106.718 0 00-20.025 55.228 1109.11 1109.11 0 00-.988 146.548c3.43 57.652 8.728 123.31-31.177 165.065-30.3 31.707-77.56 38.933-121.224 43.048-50.375 4.746-101.999 7.623-150.856-5.546s-95.164-44.99-113.77-92.042c-18.956-47.934-6.741-101.717 2.406-152.445 10.557-58.559 45.773-105.612 30.09-163.007-20.429-74.762-92.752-83.924-92.752-83.924-71.154-19.123-149.398-25.454-217.385-53.85s-111.088-99.906-126.92-171.861c-18.661-84.84 35.305-172.064 107.51-220.356 35.753-23.912 77.482-42.176 101.861-77.611 36.843-53.55 21.633-126.407 38.724-189.119 0 0 26.855-237.924 202.74-248.44.001 0 71.524-9.631 122.609 33.904z" stroke-width=".99998"/><path d="M2968.454 3646.917c56.476 48.13 61.436 135.634 47.412 208.498s-47.461 140.375-69.673 211.174-32.476 150.286-.78 217.378c12.856 27.218 35.135 52.982 64.906 57.434 32.983 4.93 64.37-18.023 83.096-45.614s28.759-60.122 45.283-89.085c16.757-29.375 41.557-55.747 73.622-66.509s71.78-2.422 91.183 25.28c21.84 31.181 12.024 75.583-10.068 106.586-22.006 30.882-57.016 62.789-45.64 98.967 11.823 37.598 62.135 42.445 101.532 41.32 41.443-1.181 83.635-.982 123.337 10.96s89.43 68.658 107.104 106.16 9.194 85.667-22.052 112.917c-34.168 29.798-86.597 1.726-86.597 1.726-84.033-47.233-138.95-74.619-202.42-47.433a95.383 95.383 0 00-39.774 31.908 103.285 103.285 0 00-19.376 53.448 1073.388 1073.388 0 00-.956 141.819c3.318 55.792 8.443 119.331-30.17 159.737-29.321 30.682-75.055 37.677-117.31 41.657-48.75 4.592-98.707 7.376-145.987-5.366s-92.092-43.54-110.099-89.075c-18.344-46.387-6.523-98.433 2.327-147.526 10.218-56.668 44.298-102.202 29.124-157.749-19.77-72.35-89.76-81.216-89.76-81.216-68.855-18.5-144.575-24.63-210.364-52.111s-107.501-96.68-122.823-166.314c-18.07-82.096 34.154-166.503 104.028-213.239 34.6-23.14 74.982-40.814 98.574-75.106 35.654-51.821 20.938-122.328 37.474-183.014 0 0 25.99-230.245 196.197-240.422 0-.001 69.214-9.32 118.65 32.81z" stroke-width=".99998"/><path d="M2965.69 3669.88c54.591 46.524 59.387 131.11 45.83 201.543s-45.878 135.695-67.35 204.134-31.395 145.272-.757 210.127c12.429 26.31 33.96 51.218 62.742 55.519 31.878 4.767 62.224-17.423 80.324-44.093s27.8-58.118 43.773-86.114c16.202-28.397 40.172-53.891 71.165-64.29s69.387-2.342 88.143 24.437c21.11 30.14 11.623 73.061-9.732 103.029-21.276 29.854-55.115 60.696-44.119 95.667 11.429 36.344 60.062 41.03 98.146 39.943 40.06-1.145 80.844-.952 119.223 10.595s86.445 66.366 103.532 102.62 8.887 82.81-21.316 109.152c-33.028 28.804-83.709 1.666-83.709 1.666-81.23-45.657-134.313-72.126-195.67-45.85a92.203 92.203 0 00-38.449 30.845 99.828 99.828 0 00-18.731 51.663 1037.622 1037.622 0 00-.925 137.09c3.208 53.93 8.161 115.352-29.165 154.41-28.343 29.66-72.554 36.418-113.398 40.268-47.125 4.44-95.416 7.131-141.118-5.187s-89.022-42.087-106.428-86.103c-17.732-44.841-6.305-95.151 2.251-142.605 9.878-54.777 42.822-98.794 28.15-152.485-19.11-69.937-86.765-78.508-86.765-78.508-66.56-17.884-139.755-23.809-203.347-50.37s-103.918-93.458-118.728-160.77c-17.46-79.36 33.02-160.956 100.566-206.13 33.445-22.369 72.482-39.455 95.287-72.602 34.464-50.093 20.235-118.247 36.222-176.912 0 0 25.122-222.567 189.653-232.404.005-.001 66.913-9.01 114.7 31.715z" stroke-width=".99998"/><path d="M2962.924 3692.844c52.707 44.92 57.338 126.587 44.249 194.59s-44.296 131.011-65.024 197.089-30.312 140.261-.73 202.877c12 25.403 32.79 49.45 60.576 53.604 30.778 4.602 60.076-16.821 77.553-42.572s26.84-56.11 42.264-83.143c15.642-27.417 38.785-52.031 68.711-62.072s66.991-2.26 85.098 23.596c20.382 29.1 11.222 70.538-9.396 99.475-20.539 28.823-53.213 58.601-42.596 92.365 11.035 35.09 57.989 39.611 94.76 38.564 38.678-1.104 78.055-.916 115.11 10.23s83.464 64.078 99.96 99.079 8.58 79.953-20.581 105.386c-31.888 27.81-80.822 1.61-80.822 1.61-78.427-44.082-129.679-69.636-188.917-44.267a89.025 89.025 0 00-37.123 29.781 96.39 96.39 0 00-18.081 49.88 1001.708 1001.708 0 00-.893 132.358c3.097 52.07 7.88 111.372-28.159 149.082-27.366 28.637-70.05 35.163-109.485 38.879-45.499 4.287-92.123 6.885-136.25-5.009s-85.95-40.635-102.755-83.132c-17.12-43.294-6.085-91.864 2.174-137.685 9.533-52.885 41.344-95.385 27.178-147.225-18.45-67.52-83.771-75.799-83.771-75.799-64.266-17.266-134.938-22.989-196.336-48.636s-100.33-90.232-114.627-155.222c-16.86-76.62 31.878-155.401 97.094-199.017 32.291-21.596 69.979-38.094 92.002-70.092 33.274-48.365 19.539-114.164 34.977-170.81 0 0 24.255-214.887 183.11-224.385-.004-.002 64.591-8.699 110.73 30.621z" stroke-width=".99998"/><path d="M2960.158 3715.807c50.824 43.315 55.29 122.063 42.668 187.636s-42.711 126.33-62.7 190.047-29.228 135.249-.705 195.628c11.572 24.495 31.617 47.678 58.412 51.688 29.68 4.437 57.93-16.22 74.782-41.051s25.882-54.107 40.753-80.171c15.083-26.438 37.399-50.173 66.255-59.855s64.598-2.179 82.061 22.75c19.654 28.062 10.821 68.021-9.06 95.921-19.807 27.794-51.313 56.507-41.072 89.069 10.643 33.834 55.919 38.198 91.373 37.186 37.296-1.065 75.266-.884 110.996 9.865s80.477 61.79 96.384 95.54 8.274 77.096-19.846 101.62c-30.75 26.817-77.933 1.552-77.933 1.552-75.625-42.506-125.045-67.148-182.168-42.686a85.837 85.837 0 00-35.796 28.717 92.946 92.946 0 00-17.44 48.098 965.955 965.955 0 00-.86 127.627c2.986 50.21 7.595 107.389-27.156 143.758-26.388 27.613-67.548 33.906-105.573 37.49-43.873 4.133-88.833 6.638-131.38-4.83s-82.879-39.183-99.084-80.162c-16.51-41.747-5.87-88.585 2.095-132.765 9.195-50.997 39.867-91.976 26.207-141.963-17.79-65.11-80.778-73.09-80.778-73.09-61.965-16.647-130.112-22.164-189.317-46.898s-96.746-87.007-110.533-149.673c-16.255-73.885 30.744-149.847 93.626-191.906 31.137-20.826 67.48-36.732 88.712-67.592 32.085-46.637 18.84-110.088 33.724-164.704 0 0 23.388-207.209 176.565-216.366.009-.007 62.299-8.396 106.788 29.52z" stroke-width=".99998"/><path d="M2957.394 3738.772c48.943 41.707 53.237 117.541 41.087 180.683s-41.13 121.648-60.377 183.005-28.144 130.236-.68 188.375c11.144 23.588 30.448 45.916 56.248 49.773 28.58 4.273 55.783-15.62 72.01-39.53s24.923-52.1 39.244-77.2c14.524-25.457 36.013-48.312 63.8-57.636s62.204-2.099 79.019 21.907c18.926 27.02 10.42 65.5-8.725 92.367-19.073 26.763-49.411 54.413-39.55 85.765 10.245 32.583 53.845 36.783 87.99 35.806 35.915-1.025 72.477-.854 106.883 9.498s77.5 59.498 92.816 91.998 7.967 74.239-19.11 97.853c-29.61 25.823-75.045 1.496-75.045 1.496-72.822-40.932-120.41-64.66-175.416-41.105a82.647 82.647 0 00-34.47 27.653 89.498 89.498 0 00-16.79 46.314 930.24 930.24 0 00-.83 122.9c2.876 48.348 7.317 103.411-26.146 138.427-25.41 26.59-65.045 32.65-101.661 36.1-42.247 3.98-85.54 6.393-126.511-4.65s-79.807-37.73-95.412-77.191c-15.897-40.199-5.652-85.301 2.019-127.844 8.856-49.106 38.389-88.568 25.236-136.702-17.132-62.698-77.785-70.381-77.785-70.381-59.67-16.033-125.289-21.343-182.302-45.16s-93.165-83.783-106.442-144.126c-15.652-71.148 29.603-144.296 90.156-184.795 29.984-20.054 64.978-35.37 85.424-65.087 30.899-44.909 18.14-106.005 32.475-158.6 0 0 22.522-199.53 170.023-208.348 0 .001 59.98-8.076 102.822 28.435z" stroke-width=".99998"/><path d="M2954.628 3761.736c47.057 40.104 51.192 113.016 39.506 173.73s-39.548 116.965-58.052 175.962-27.062 125.223-.652 181.128c10.714 22.681 29.276 44.147 54.083 47.856 27.48 4.11 53.636-15.018 69.236-38.012s23.963-50.092 37.734-74.23c13.966-24.476 34.627-46.452 61.345-55.417s59.81-2.017 75.978 21.065c18.197 25.982 10.02 62.979-8.388 88.811-18.339 25.734-47.505 52.317-38.03 82.463 9.851 31.327 51.774 35.366 84.601 34.43 34.533-.987 69.688-.818 102.77 9.136s74.514 57.205 89.245 88.458 7.66 71.38-18.372 94.09c-28.47 24.83-72.157 1.438-72.157 1.438-70.02-39.355-115.776-62.17-168.665-39.522a79.476 79.476 0 00-33.144 26.59 86.064 86.064 0 00-16.147 44.533 894.353 894.353 0 00-.796 118.17c2.765 46.488 7.035 99.432-25.14 133.1-24.432 25.567-62.541 31.394-97.748 34.712-40.623 3.825-82.244 6.147-121.645-4.475s-76.735-36.278-91.74-74.22c-15.284-38.651-5.438-82.017 1.941-122.924 8.514-47.217 36.909-85.164 24.265-131.441-16.472-60.285-74.788-67.67-74.788-67.67-57.375-15.414-120.468-20.52-175.286-43.42s-89.575-80.56-102.34-138.58c-15.051-68.409 28.464-138.742 86.687-177.682 28.829-19.281 62.477-34.01 82.135-62.582 29.708-43.18 17.444-101.928 31.225-152.496 0 0 21.654-191.85 163.479-200.33-.006-.01 57.667-7.777 98.86 27.329z" stroke-width=".99998"/><path d="M2951.865 3784.702c45.173 38.499 49.142 108.492 37.926 166.778s-37.964 112.285-55.73 168.917-25.979 120.211-.626 173.878c10.286 21.773 28.104 42.38 51.919 45.94 26.379 3.945 51.489-14.416 66.467-36.485s23.005-48.092 36.222-71.258c13.407-23.497 33.24-44.594 58.888-53.199s57.416-1.937 72.936 20.222c17.47 24.94 9.619 60.457-8.05 85.253-17.605 24.705-45.607 50.225-36.509 79.16 9.457 30.075 49.702 33.952 81.214 33.052 33.15-.946 66.9-.786 98.656 8.766s71.533 54.92 85.672 84.917 7.354 68.525-17.64 90.32c-27.33 23.835-69.269 1.38-69.269 1.38-67.216-37.78-111.142-59.683-161.914-37.941a76.298 76.298 0 00-31.815 25.528 82.611 82.611 0 00-15.5 42.75 858.63 858.63 0 00-.766 113.44c2.654 44.627 6.753 95.452-24.133 127.772-23.455 24.543-60.038 30.137-93.836 33.322-38.995 3.675-78.955 5.901-116.774-4.292s-73.664-34.826-88.067-71.25c-14.673-37.104-5.219-78.738 1.863-118.003 8.172-45.327 35.434-81.75 23.292-126.18-15.813-57.872-71.8-64.962-71.8-64.962-55.078-14.798-115.644-19.702-168.269-41.684s-85.988-77.334-98.244-133.032c-14.45-65.672 27.324-133.189 83.217-170.57 27.675-18.51 59.976-32.647 78.85-60.074 28.519-41.451 16.745-97.848 29.974-146.392 0 0 20.79-184.167 156.937-192.311 0-.01 55.363-7.465 94.909 26.238z" stroke-width=".99998"/><path d="M2949.097 3807.663c43.292 36.896 47.095 103.967 36.343 159.822s-36.38 107.606-53.407 161.874-24.895 115.199-.6 166.627c9.854 20.868 26.932 40.613 49.754 44.026 25.277 3.782 49.341-13.816 63.695-34.965s22.046-46.086 34.712-68.288c12.848-22.519 31.855-42.735 56.434-50.981s55.02-1.86 69.895 19.378c16.74 23.9 9.217 57.937-7.716 81.704-16.87 23.673-43.705 48.13-34.985 75.863 9.063 28.82 47.63 32.536 77.829 31.674 31.768-.906 64.11-.758 94.543 8.4s68.55 52.63 82.1 81.377 7.047 65.667-16.905 86.556c-26.187 22.84-66.38 1.322-66.38 1.322-64.415-36.206-106.509-57.195-155.166-36.358a73.117 73.117 0 00-30.49 24.46 79.17 79.17 0 00-14.853 40.97 822.757 822.757 0 00-.73 108.704c2.542 42.766 6.47 91.473-23.128 122.445-22.477 23.52-57.536 28.88-89.924 31.932-37.37 3.52-75.664 5.654-111.905-4.114s-70.592-33.373-84.395-68.28c-14.063-35.556-4.998-75.453 1.785-113.083 7.831-43.434 33.956-78.341 22.322-120.919-15.154-55.459-68.804-62.255-68.804-62.255-52.783-14.179-110.823-18.88-161.252-39.945s-82.407-74.114-94.148-127.486c-13.846-62.932 26.187-127.636 79.75-163.46 26.522-17.737 57.476-31.285 75.56-57.572 27.33-39.723 16.046-93.768 28.725-140.287 0 0 19.919-176.491 150.395-184.296-.003.002 53.051-7.14 90.946 25.155z" stroke-width=".99998"/><path d="M2946.332 3830.628c41.407 35.287 45.045 99.444 34.765 152.865s-34.798 102.921-51.086 154.833-23.811 110.187-.573 159.378c9.43 19.959 25.76 38.847 47.59 42.11 24.178 3.616 47.194-13.214 60.924-33.443s21.083-44.08 33.2-65.316c12.289-21.54 30.47-40.876 53.98-48.763s52.627-1.776 66.853 18.535c16.013 22.86 8.816 55.416-7.38 78.146-16.14 22.646-41.806 46.037-33.463 72.562 8.67 27.566 45.557 31.12 74.442 30.296 30.386-.868 61.32-.72 90.431 8.033s65.569 50.34 78.528 77.836 6.74 62.81-16.17 82.79c-25.05 21.848-63.492 1.265-63.492 1.265-61.612-34.632-101.874-54.706-148.411-34.777a69.934 69.934 0 00-29.164 23.395 75.722 75.722 0 00-14.21 39.187 786.977 786.977 0 00-.701 103.98c2.432 40.906 6.19 87.492-22.121 117.117-21.499 22.497-55.032 27.624-86.011 30.543-35.743 3.369-72.37 5.412-107.036-3.934s-67.522-31.923-80.724-65.309c-13.448-34.01-4.782-72.17 1.708-108.163 7.491-41.548 32.482-74.935 21.35-115.658-14.494-53.045-65.81-59.546-65.81-59.546-50.484-13.564-106.002-18.058-154.236-38.208s-78.82-70.884-90.052-121.939c-13.244-60.194 25.048-122.079 76.277-156.347 25.368-16.965 54.976-29.925 72.273-55.067 26.142-37.995 15.349-89.69 27.476-134.184 0 0 19.054-168.813 143.849-176.275 0-.002 50.749-6.833 86.994 24.058z" stroke-width=".99998"/><path d="M2943.563 3853.587c39.524 33.683 42.994 94.918 33.181 145.914s-33.213 98.244-48.756 147.791-22.728 105.175-.548 152.129c9.001 19.051 24.589 37.08 45.424 40.194 23.08 3.45 45.047-12.614 58.154-31.922s20.127-42.076 31.691-62.345c11.73-20.559 29.087-39.018 51.522-46.546s50.235-1.694 63.813 17.692c15.285 21.82 8.415 52.895-7.046 74.592-15.402 21.614-39.904 43.94-31.941 69.26 8.274 26.312 43.484 29.706 71.056 28.918 29.002-.828 58.53-.688 86.314 7.668s62.586 48.049 74.955 74.295 6.434 59.953-15.433 79.023c-23.913 20.851-60.604 1.207-60.604 1.207-58.806-33.055-97.236-52.218-141.66-33.194a66.753 66.753 0 00-27.837 22.333 72.277 72.277 0 00-13.561 37.403 751.16 751.16 0 00-.669 99.25c2.322 39.045 5.908 83.512-21.116 111.79-20.52 21.473-52.527 26.367-82.096 29.156-34.118 3.215-69.08 5.163-102.165-3.757s-64.449-30.47-77.052-62.337c-12.836-32.463-4.564-68.888 1.63-103.245 7.15-39.659 31-71.525 20.379-110.397-13.835-50.633-62.817-56.839-62.817-56.839-48.188-12.947-101.179-17.235-147.222-36.472s-75.234-67.66-85.955-116.392c-12.642-57.456 23.906-116.53 72.807-149.235 24.213-16.193 52.473-28.564 68.985-52.561 24.952-36.267 14.65-85.608 26.226-128.08 0 0 18.188-161.135 137.306-168.256.003.006 48.441-6.517 83.035 22.963z" stroke-width=".99998"/><path d="M2940.801 3876.554c37.64 32.077 40.946 90.398 31.6 138.96s-31.632 93.559-46.435 140.746-21.646 100.162-.522 144.878c8.572 18.144 23.417 35.312 43.26 38.279 21.98 3.286 42.901-12.012 55.382-30.4s19.167-40.072 30.18-59.375c11.172-19.579 27.698-37.156 49.068-44.327s47.84-1.614 60.772 16.85c14.556 20.78 8.014 50.373-6.71 71.036-14.671 20.586-38 41.848-30.418 65.96 7.88 25.057 41.411 28.288 67.669 27.539 27.62-.789 55.738-.659 82.202 7.305s59.603 45.759 71.383 70.754 6.127 57.096-14.698 75.257c-22.771 19.86-57.716 1.149-57.716 1.149-56.006-31.48-92.606-49.729-134.91-31.614a63.57 63.57 0 00-26.51 21.274 68.833 68.833 0 00-12.919 35.623 715.433 715.433 0 00-.637 94.52c2.212 37.184 5.622 79.535-20.11 106.463-19.542 20.449-50.024 25.11-78.185 27.763-32.491 3.062-65.787 4.917-97.298-3.577s-61.377-29.018-73.377-59.362c-12.225-30.916-4.347-65.605 1.553-98.323 6.811-37.764 29.524-68.116 19.409-105.136-13.177-48.22-59.823-54.13-59.823-54.13-45.891-12.33-96.36-16.417-140.205-34.73s-71.649-64.437-81.859-110.845c-12.039-54.719 22.767-110.976 69.337-142.123 23.06-15.423 49.974-27.202 65.699-50.057 23.762-34.538 13.952-81.528 24.976-121.976 0 0 17.32-153.455 130.762-160.237.004-.007 46.132-6.223 79.08 21.856z" stroke-width=".99998"/><path d="M2938.037 3899.519c35.756 30.472 38.897 85.874 30.018 132.006s-30.05 88.875-44.112 133.702-20.561 95.149-.496 137.629c8.141 17.232 22.245 33.545 41.094 36.363 20.88 3.122 40.756-11.407 52.61-28.874s18.206-38.065 28.67-56.403c10.614-18.598 26.311-35.297 46.612-42.109s45.448-1.53 57.732 16.007c13.824 19.743 7.613 47.853-6.374 67.481-13.934 19.554-36.099 39.754-28.896 62.66 7.486 23.805 39.34 26.873 64.283 26.162 26.24-.75 52.952-.622 78.09 6.94s56.62 43.468 67.81 67.213 5.82 54.239-13.963 71.491c-21.632 18.866-54.827 1.092-54.827 1.092-53.204-29.903-87.973-47.24-128.159-30.03a60.382 60.382 0 00-25.186 20.199 65.39 65.39 0 00-12.269 33.838 679.61 679.61 0 00-.605 89.79c2.101 35.323 5.343 75.549-19.103 101.135-18.564 19.426-47.52 23.857-74.274 26.372-30.866 2.909-62.493 4.673-92.43-3.398s-58.307-27.566-69.71-56.399c-11.613-29.369-4.129-62.322 1.475-93.402 6.47-35.878 28.046-64.709 18.437-99.875-12.516-45.807-56.83-51.42-56.83-51.42-43.596-11.712-91.535-15.594-133.188-32.994s-68.063-61.212-77.763-105.299c-11.437-51.98 21.628-105.422 65.868-135.01 21.908-14.653 47.473-25.84 62.41-47.552 22.574-32.81 13.25-77.447 23.726-115.873 0 0 16.455-145.776 124.219-152.218.01.002 43.831-5.898 75.13 20.776z" stroke-width=".99998"/><path d="M2935.27 3922.482c33.873 28.868 36.848 81.35 28.439 125.052s-28.466 84.195-41.786 126.662-19.48 90.138-.47 130.38c7.711 16.324 21.073 31.777 38.93 34.448 19.779 2.957 38.607-10.81 49.838-27.358s17.252-36.056 27.16-53.432c10.053-17.62 24.924-33.442 44.157-39.89s43.053-1.454 54.69 15.161c13.1 18.701 7.212 45.334-6.038 63.927-13.2 18.525-34.198 37.66-27.374 59.358 7.091 22.552 37.268 25.458 60.896 24.784 24.857-.71 50.163-.59 73.975 6.574s53.638 41.179 64.243 63.67 5.514 51.382-13.226 67.726c-20.493 17.872-51.94 1.035-51.94 1.035-50.401-28.33-83.341-44.75-121.408-28.45a57.206 57.206 0 00-23.857 19.14 61.954 61.954 0 00-11.622 32.055 643.892 643.892 0 00-.573 85.06c1.99 33.463 5.066 71.571-18.096 95.808-17.587 18.403-45.019 22.598-70.36 24.985-29.24 2.755-59.203 4.424-87.561-3.22s-55.235-26.113-66.035-53.424c-11.004-27.825-3.912-59.038 1.397-88.483 6.127-33.986 26.57-61.297 17.466-94.613-11.857-43.394-53.836-48.712-53.836-48.712-41.299-11.096-86.713-14.771-126.173-31.255s-64.477-57.987-73.666-99.751c-10.84-49.242 20.482-99.87 62.386-127.901 20.752-13.88 44.972-24.48 59.124-45.048 21.384-31.082 12.555-73.37 22.476-109.769 0 0 15.589-138.094 117.674-144.2.008 0 41.518-5.59 71.17 19.681z" stroke-width=".99998"/><path d="M2932.505 3945.446c31.99 27.262 34.8 76.827 26.856 118.1s-26.883 79.511-39.464 119.614-18.4 85.128-.444 123.128c7.285 15.417 19.901 30.012 36.765 32.533 18.68 2.793 36.461-10.209 47.069-25.837s16.29-34.055 25.652-50.464c9.494-16.64 23.54-31.579 41.701-37.672s40.66-1.373 51.65 14.32c12.37 17.66 6.811 42.812-5.703 60.372-12.466 17.494-32.295 35.566-25.852 56.057 6.698 21.296 35.195 24.043 57.508 23.408 23.474-.67 47.374-.558 69.863 6.207s50.655 38.89 60.668 60.133 5.207 48.524-12.492 63.96c-19.353 16.878-49.052.977-49.052.977-47.599-26.754-78.704-42.264-114.657-26.868a54.025 54.025 0 00-22.53 18.075 58.499 58.499 0 00-10.977 30.273 607.804 607.804 0 00-.54 80.331c1.879 31.602 4.78 67.593-17.09 90.48-16.61 17.38-42.517 21.341-66.45 23.597-27.613 2.601-55.91 4.178-82.691-3.04s-52.164-24.663-62.364-50.454c-10.39-26.275-3.694-55.757 1.32-83.562 5.79-32.094 25.092-57.89 16.495-89.353-11.198-40.98-50.842-46.003-50.842-46.003-39.003-10.479-81.892-13.95-119.157-29.517s-60.89-54.764-69.574-94.202c-10.232-46.502 19.35-94.315 58.928-120.786 19.598-13.107 42.472-23.12 55.836-42.542 20.195-29.354 11.857-69.29 21.226-103.665 0 0 14.72-130.418 111.132-136.181.004-.004 39.209-5.283 67.21 18.58z" stroke-width=".99998"/><path d="M2929.74 3968.409c30.105 25.658 32.75 72.304 25.274 111.146s-25.301 74.83-37.14 112.572-17.314 80.113-.415 115.877c6.854 14.51 18.732 28.244 34.6 30.617 17.58 2.63 34.314-9.608 44.297-24.316s15.328-32.048 24.14-47.488c8.934-15.66 22.152-29.72 39.245-35.455s38.264-1.29 48.608 13.477c11.642 16.62 6.406 40.294-5.367 56.818-11.732 16.464-30.394 33.471-24.33 52.756 6.303 20.043 33.123 22.627 54.125 22.028 22.092-.631 44.584-.524 65.748 5.843s47.673 36.6 57.095 56.591 4.901 45.667-11.755 60.193c-18.214 15.885-46.163.92-46.163.92-44.793-25.174-74.07-39.774-107.905-25.285a50.852 50.852 0 00-21.204 17.01 55.057 55.057 0 00-10.33 28.491 572.256 572.256 0 00-.51 75.6c1.77 29.742 4.501 63.614-16.085 85.15-15.63 16.357-40.012 20.085-62.536 22.208-25.987 2.449-52.616 3.936-77.822-2.86s-49.093-23.21-58.692-47.485c-9.775-24.73-3.477-52.472 1.244-78.643 5.447-30.208 23.614-54.482 15.524-84.091-10.539-38.568-47.848-43.295-47.848-43.295-36.706-9.862-77.071-13.13-112.141-27.78s-57.308-51.537-65.475-88.657c-9.629-43.765 18.21-88.763 55.459-113.675 18.444-12.336 39.975-21.76 52.547-40.038 19.006-27.626 11.16-65.21 19.978-97.559 0 0 13.854-122.739 104.587-128.165-.003.005 36.893-4.963 63.247 17.495z" stroke-width=".99998"/><path d="M2926.975 3991.374c28.222 24.051 30.703 67.778 23.693 104.192s-23.719 70.149-34.817 105.529-16.23 75.102-.391 108.628c6.425 13.602 17.557 26.477 32.435 28.702 16.48 2.464 32.167-9.007 41.524-22.795s14.373-30.044 22.63-44.518c8.376-14.68 20.767-27.86 36.791-33.237s35.87-1.21 45.566 12.634c10.913 15.581 6.009 37.77-5.03 53.264-10.999 15.433-28.493 31.377-22.81 49.456 5.91 18.79 31.054 21.214 50.74 20.648 20.71-.59 41.794-.49 61.635 5.478s44.69 34.31 53.522 53.05 4.594 42.81-11.02 56.428c-17.075 14.892-43.276.862-43.276.862-41.993-23.603-69.435-37.286-101.154-23.702a47.664 47.664 0 00-19.877 15.945 51.61 51.61 0 00-9.683 26.708 536.361 536.361 0 00-.478 70.871c1.662 27.879 4.22 59.634-15.078 79.826-14.653 15.333-37.51 18.828-58.623 20.817-24.362 2.295-49.326 3.687-72.952-2.681s-46.021-21.757-55.02-44.513c-9.167-23.18-3.26-49.19 1.164-73.722 5.106-28.317 22.137-51.073 14.552-78.83-9.879-36.154-44.855-40.586-44.855-40.586-34.41-9.245-72.248-12.307-105.125-26.04s-53.72-48.311-61.379-83.11c-9.024-41.03 17.07-83.21 51.989-106.563 17.29-11.564 37.47-20.396 49.26-37.532 17.817-25.897 10.462-61.13 18.727-91.458 0 0 12.987-115.06 98.044-120.145.003-.003 34.592-4.66 59.296 16.394z" stroke-width=".99998"/><path d="M2924.209 4014.338c26.339 22.446 28.652 63.256 22.112 97.238s-22.131 65.465-32.494 98.486-15.147 70.09-.365 101.38c5.998 12.693 16.387 24.709 30.27 26.785 15.38 2.3 30.02-8.405 38.755-21.274s13.413-28.04 21.12-41.547c7.816-13.7 19.381-26 34.335-31.019s33.477-1.13 42.525 11.79c10.186 14.542 5.608 35.25-4.696 49.707-10.264 14.404-26.591 29.284-21.285 46.155 5.514 17.535 28.98 19.794 47.352 19.27 19.327-.55 39.004-.457 57.52 5.112s41.707 32.02 49.949 49.512 4.287 39.953-10.285 52.662c-15.935 13.897-40.389.802-40.389.802-39.19-22.028-64.8-34.799-94.407-22.12a44.482 44.482 0 00-18.55 14.882 48.158 48.158 0 00-9.037 24.926 500.529 500.529 0 00-.446 66.14c1.548 26.02 3.938 55.654-14.071 74.499-13.677 14.31-35.004 17.57-54.714 19.43-22.736 2.142-46.035 3.44-68.085-2.502s-42.95-20.306-51.35-41.541c-8.555-21.635-3.042-45.907 1.086-68.802 4.768-26.424 20.659-47.664 13.58-73.57-9.22-33.741-41.862-37.876-41.862-37.876-32.115-8.626-67.426-11.486-98.106-24.3s-50.136-45.09-57.281-77.565c-8.424-38.29 15.932-77.655 48.52-99.45 16.136-10.793 34.967-19.035 45.971-35.03 16.628-24.167 9.764-57.048 17.478-85.352 0 0 12.12-107.38 91.501-112.127.014-.003 32.293-4.35 55.349 15.3z" stroke-width=".99998"/></g></g></svg>