<svg xmlns="http://www.w3.org/2000/svg" width="561" height="976"><defs><clipPath id="a"><path transform="translate(1985 1505)" fill="#fff" stroke="#707070" d="M0 0h561v976H0z"/></clipPath></defs><g transform="translate(-1985 -1505)" clip-path="url(#a)"><g opacity=".46" fill="none" stroke="#d2e8f8" stroke-miterlimit="10"><path d="M2178.506 1678.878c110.693-55.346 248.27-5.947 351 63.062s184.593 164.335 278.819 244.567 209.571 147.78 333.232 142.836c50.166-2.006 104.238-19.42 130.471-62.228 29.059-47.417 14.27-110.57-15.887-157.298s-73.567-83.33-107.267-127.57c-34.18-44.875-58.515-100.129-54.14-156.368s43.053-111.781 98.223-123.521c62.102-13.213 123.878 30.787 157.08 84.905 33.077 53.914 59.25 128.451 122.206 134.557 65.428 6.347 105.652-67.74 129.596-128.958 25.187-64.397 52.991-129.044 97.192-182.217s163.68-92.564 232.776-95.265 137.515 41.705 158.994 107.432c23.486 71.873-53.777 134.076-53.777 134.076-127.271 98.24-205.094 164.709-204.72 279.866a159.088 159.088 0 0023.075 81.859 172.25 172.25 0 0069.43 64.575 1790.324 1790.324 0 00217.11 93.874c87.819 31.26 188.712 64.794 225.586 150.407 28.002 65.01 8.937 139.784-12.482 207.25-24.708 77.84-52.991 156.353-103.361 220.638s-126.852 113.02-208.495 110.992c-83.17-2.062-155.376-54.124-224.977-99.7-80.344-52.612-128.048-134.605-223.215-147.496-123.961-16.79-183.177 84.889-183.177 84.889-73.265 93.66-132.016 205.923-217.077 289.017s-218.481 102.052-335.37 80.202c-137.816-25.754-233.383-160.932-259.602-298.663-12.984-68.198-13.807-141.714-51.081-200.28-56.334-88.505-174.168-111.846-256.566-176.783 0 0-336.563-189.926-241.281-457.876-.001 0 30.79-112.338 127.685-160.781z" stroke-width="1.00047"/><path d="M2198.574 1690.395c108.478-54.239 243.302-5.827 343.978 61.8s180.898 161.048 273.24 239.674 205.381 144.83 326.564 139.983c49.163-1.966 102.153-19.031 127.861-60.983 28.478-46.47 13.985-108.358-15.569-154.151s-72.101-81.664-105.121-125.018c-33.497-43.977-57.344-98.125-53.057-153.239s42.191-109.546 96.261-121.05c60.86-12.949 121.4 30.171 153.938 83.206 32.415 52.835 58.064 125.882 119.76 131.865 64.119 6.22 103.539-66.384 127.003-126.381 24.683-63.109 51.927-126.463 95.247-178.572s160.406-90.712 228.118-93.36 134.765 40.87 155.813 105.284c23.016 70.435-52.703 131.395-52.703 131.395-124.722 96.277-200.985 161.416-200.62 274.276a155.902 155.902 0 0022.613 80.221 168.8 168.8 0 0068.04 63.283 1754.318 1754.318 0 00212.766 91.996c86.062 30.634 184.936 63.497 221.074 147.397 27.44 63.71 8.758 136.988-12.233 203.1-24.218 76.283-51.936 153.226-101.294 216.224s-124.315 110.759-204.325 108.775c-81.506-2.02-152.271-53.04-220.476-97.706-78.733-51.556-125.484-131.909-218.746-144.542-121.48-16.453-179.512 83.19-179.512 83.19-71.804 91.787-129.376 201.8-212.734 283.236s-214.107 100.01-328.662 78.596c-135.06-25.246-228.718-157.72-254.41-292.695-12.723-66.833-13.534-138.877-50.06-196.272-55.203-86.734-170.68-109.609-251.432-173.25 0 0-329.83-186.126-236.453-448.716 0 .004 30.175-110.088 125.131-157.566z" stroke-width="1.00047"/><path d="M2218.643 1701.918c106.266-53.131 238.335-5.708 336.955 60.54s177.206 157.758 267.662 234.78 201.187 141.872 319.896 137.125c48.158-1.926 100.067-18.644 125.25-59.74 27.897-45.522 13.7-106.146-15.25-151.004s-70.624-79.995-102.975-122.467c-32.81-43.08-56.173-96.121-51.973-150.11s41.329-107.31 94.294-118.58c59.616-12.684 118.92 29.556 150.794 81.508 31.753 51.756 56.88 123.31 117.316 129.173 62.81 6.092 101.425-65.03 124.41-123.8 24.178-61.82 50.866-123.88 93.302-174.925s157.132-88.856 223.462-91.453 132.013 40.036 152.632 103.134c22.546 68.999-51.621 128.712-51.621 128.712-122.174 94.309-196.888 158.12-196.527 268.671a152.72 152.72 0 0022.154 78.585 165.355 165.355 0 0066.65 61.99 1718.658 1718.658 0 00208.425 90.12c84.304 30.007 181.16 62.2 216.56 144.387 26.882 62.41 8.579 134.191-11.982 198.959-23.728 74.727-50.876 150.098-99.23 211.81s-121.777 108.503-200.153 106.555c-79.843-1.984-149.158-51.958-215.978-95.711-77.128-50.506-122.924-129.219-214.282-141.593-118.998-16.118-175.846 81.492-175.846 81.492-70.334 89.911-126.734 197.68-208.391 277.453s-209.74 97.969-321.952 76.992c-132.302-24.73-224.045-154.501-249.216-286.72-12.464-65.469-13.254-136.043-49.037-192.266-54.077-84.963-167.199-107.372-246.3-169.71 0 0-323.095-182.325-231.627-439.55 0-.008 29.56-107.849 122.578-154.357z" stroke-width="1.00047"/><path d="M2238.714 1713.44c104.049-52.024 233.369-5.589 329.933 59.278s173.514 154.475 262.085 229.887 196.993 138.915 313.229 134.268c47.155-1.886 97.981-18.254 122.642-58.493 27.315-44.574 13.414-103.934-14.934-147.857s-69.151-78.328-100.828-119.915c-32.129-42.18-55.003-94.118-50.89-146.983s40.468-105.072 92.33-116.107c58.374-12.42 116.442 28.937 147.652 79.81 31.092 50.678 55.694 120.74 114.871 126.481 61.5 5.966 99.311-63.674 121.819-121.22 23.674-60.532 49.81-121.299 91.357-171.28s153.857-87.008 218.805-89.546 129.261 39.2 149.45 100.984c22.077 67.56-50.55 126.03-50.55 126.03-119.631 92.344-192.78 154.825-192.43 263.072a149.537 149.537 0 0021.69 76.947 161.915 161.915 0 0065.261 60.699 1682.73 1682.73 0 00204.08 88.24c82.548 29.383 177.384 60.905 212.046 141.376 26.321 61.108 8.4 131.394-11.732 194.812-23.232 73.17-49.815 146.97-97.164 207.394s-119.238 106.238-195.98 104.335c-78.18-1.939-146.051-50.876-211.474-93.717-75.527-49.454-120.363-126.527-209.818-138.642-116.519-15.782-172.183 79.793-172.183 79.793-68.871 88.038-124.091 193.559-204.048 271.67s-205.369 95.928-315.243 75.389c-129.542-24.214-219.373-151.28-244.02-280.742-12.202-64.102-12.975-133.208-48.015-188.26-52.949-83.192-163.712-105.132-241.166-166.172 0 0-316.362-178.526-226.8-430.395-.004 0 28.942-105.596 120.025-151.136z" stroke-width="1.00047"/><path d="M2258.78 1724.964c101.833-50.916 228.4-5.47 322.91 58.016s169.82 151.183 256.51 224.993 192.8 135.96 306.56 131.412c46.15-1.846 95.895-17.867 120.03-57.248 26.732-43.624 13.127-101.723-14.616-144.71s-67.68-76.659-98.682-117.363c-31.445-41.282-53.833-92.116-49.808-143.854s39.607-102.836 90.366-113.636c57.13-12.16 113.963 28.324 144.509 78.111 30.429 49.593 54.508 118.17 112.426 123.787 60.188 5.84 97.197-62.319 119.225-118.638 23.17-59.244 48.746-118.717 89.413-167.635s150.582-85.157 214.148-87.641 126.51 38.366 146.27 98.834c21.606 66.121-49.474 123.347-49.474 123.347-117.085 90.378-188.677 151.528-188.334 257.473a146.351 146.351 0 0021.228 75.31 158.462 158.462 0 0063.872 59.406 1646.95 1646.95 0 00199.736 86.362c80.792 28.758 173.61 59.612 207.534 138.37 25.761 59.807 8.222 128.597-11.482 190.665-22.735 71.612-48.753 143.84-95.096 202.983s-116.7 103.975-191.81 102.113c-76.515-1.897-142.941-49.792-206.973-91.722-73.91-48.404-117.795-123.834-205.348-135.692-114.04-15.447-168.517 78.095-168.517 78.095-67.406 86.164-121.452 189.44-199.704 265.888s-200.997 93.885-308.532 73.784c-126.789-23.7-214.709-148.062-238.83-274.77-11.942-62.742-12.701-130.371-46.994-184.251-51.822-81.422-160.23-102.896-236.034-162.637 0 0-309.629-174.725-221.972-421.234 0 0 28.328-103.349 117.469-147.918z" stroke-width="1.00047"/><path d="M2278.847 1736.485c99.619-49.809 223.435-5.351 315.888 56.754s166.128 147.897 250.929 220.102 188.606 133.003 299.895 128.553c45.148-1.805 93.814-17.473 117.42-56.003 26.152-42.676 12.843-99.51-14.299-141.563s-66.207-74.994-96.536-114.81c-30.761-40.385-52.66-90.112-48.725-140.726s38.746-100.6 88.402-111.165c55.893-11.892 111.485 27.707 141.367 76.412 29.767 48.52 53.322 115.6 109.98 121.097 58.883 5.71 95.084-60.964 116.633-116.06 22.666-57.955 47.687-116.132 87.469-163.988s147.307-83.305 209.49-85.736 123.756 37.534 143.089 96.685c21.136 64.684-48.398 120.666-48.398 120.666-114.539 88.412-184.575 148.231-184.24 251.873a143.18 143.18 0 0020.766 73.67 155.025 155.025 0 0062.484 58.116 1611.196 1611.196 0 00195.392 84.484c79.034 28.131 169.835 58.311 203.02 135.36 25.202 58.507 8.044 125.802-11.232 186.518-22.238 70.053-47.69 140.712-93.022 198.567s-114.163 101.714-187.639 99.892c-74.85-1.856-139.833-48.709-202.472-89.727-72.306-47.348-115.239-121.14-200.885-132.741-111.56-15.11-164.854 76.399-164.854 76.399-65.937 84.292-118.808 185.322-195.36 260.107s-196.627 91.844-301.823 72.18c-124.03-23.186-210.037-144.843-233.634-268.795-11.685-61.376-12.426-127.537-45.972-180.245-50.695-79.653-156.744-100.658-230.901-159.1 0 0-302.895-170.927-217.147-412.073.006 0 27.713-101.1 114.915-144.703z" stroke-width="1.00047"/><path d="M2298.916 1748.008c97.405-48.702 218.468-5.232 308.867 55.494s162.433 144.606 245.35 215.207 184.414 130.047 293.227 125.694c44.145-1.766 91.727-17.088 114.81-54.759 25.57-41.727 12.557-97.301-13.982-138.415s-64.735-73.327-94.39-112.258c-30.077-39.488-51.49-88.11-47.64-137.598s37.884-98.364 86.436-108.697c54.647-11.627 109.007 27.091 138.224 74.714 29.106 47.44 52.137 113.03 107.535 118.404 57.574 5.585 92.972-59.605 114.04-113.478 22.163-56.668 46.628-113.555 85.525-160.344s144.032-81.453 204.833-83.831 121.008 36.698 139.908 94.536c20.667 63.245-47.323 117.982-47.323 117.982-111.993 86.447-180.471 144.938-180.143 246.274a139.991 139.991 0 0020.306 72.039 151.577 151.577 0 0061.095 56.824 1575.334 1575.334 0 00191.048 82.607c77.278 27.506 166.059 57.012 198.506 132.354 24.64 57.206 7.864 123.005-10.983 182.372-21.746 68.494-46.63 137.585-90.957 194.153s-111.625 99.453-183.467 97.673c-73.187-1.814-136.725-47.627-197.971-87.733-70.703-46.295-112.676-118.447-196.42-129.788-109.075-14.78-161.184 74.695-161.184 74.695-64.474 82.411-116.17 181.195-191.02 254.322s-192.254 89.802-295.113 70.575c-121.272-22.668-205.368-141.622-228.44-262.819-11.425-60.01-12.148-124.701-44.95-176.238-49.568-77.881-153.26-98.42-225.768-155.562 0 0-296.162-167.126-212.319-402.914.001 0 27.096-98.853 112.36-141.485z" stroke-width="1.00047"/><path d="M2318.984 1759.532c95.19-47.595 213.5-5.115 301.844 54.23s158.742 141.32 239.772 210.316 180.218 127.089 286.562 122.836c43.14-1.725 89.64-16.7 112.199-53.512 24.988-40.778 12.271-95.086-13.663-135.27s-63.264-71.656-92.244-109.704c-29.393-38.59-50.32-86.105-46.559-134.47s37.024-96.126 84.471-106.22c53.404-11.364 106.528 26.475 135.081 73.013 28.444 46.364 50.953 110.465 105.09 115.713 56.266 5.458 90.858-58.253 111.447-110.898 21.66-55.38 45.566-110.973 83.58-156.699s140.758-79.6 200.177-81.923 118.257 35.865 136.726 92.386c20.194 61.808-46.245 115.301-46.245 115.301-109.445 84.48-176.365 141.64-176.046 240.673a136.802 136.802 0 0019.843 70.395 148.125 148.125 0 0059.705 55.531 1539.444 1539.444 0 00186.705 80.73c75.52 26.88 162.282 55.719 193.993 129.341 24.08 55.908 7.686 120.208-10.734 178.226-21.251 66.939-45.572 134.456-88.886 189.738s-109.085 97.192-179.297 95.452c-71.523-1.773-133.616-46.544-193.471-85.738-69.091-45.242-110.115-115.754-191.954-126.837-106.6-14.439-157.524 73-157.524 73-63.004 80.542-113.524 177.08-186.673 248.54s-187.883 87.76-288.403 68.97c-118.516-22.154-200.699-138.402-223.246-256.843-11.165-58.647-11.873-121.867-43.928-172.231-48.442-76.11-149.776-96.183-220.634-152.026 0 0-289.428-163.327-207.49-393.752-.001-.004 26.477-96.606 109.802-138.268z" stroke-width="1.00047"/><path d="M2339.052 1771.053c92.97-46.487 208.533-4.995 294.822 52.969s155.048 138.033 234.193 205.425 176.025 124.129 279.895 119.98c42.137-1.686 87.555-16.312 109.589-52.272 24.408-39.83 11.986-92.873-13.345-132.12s-61.791-69.993-90.096-107.154c-28.71-37.693-49.15-84.102-45.476-131.34s36.161-93.891 82.508-103.752c52.16-11.099 104.05 25.86 131.938 71.316 27.783 45.284 49.767 107.889 102.646 113.02 54.955 5.331 88.742-56.897 108.854-108.318 21.155-54.09 44.506-108.39 81.636-153.053s137.483-77.748 195.519-80.017 115.506 35.03 133.546 90.238c19.728 60.374-45.17 112.617-45.17 112.617-106.899 82.517-172.265 138.346-171.95 235.076a133.623 133.623 0 0019.38 68.757 144.68 144.68 0 0058.318 54.24 1503.749 1503.749 0 00182.358 78.854c73.763 26.256 158.508 54.423 189.481 126.333 23.52 54.605 7.507 117.416-10.484 174.08-20.756 65.382-44.51 131.329-86.819 185.324s-106.548 94.93-175.124 93.23c-69.859-1.731-130.507-45.46-188.969-83.743-67.484-44.191-107.553-113.061-187.486-123.888-104.12-14.102-153.859 71.302-153.859 71.302-61.545 78.665-110.89 172.958-182.337 242.756s-183.513 85.719-281.693 67.368c-115.755-21.64-196.03-135.178-218.053-250.867-10.904-57.283-11.6-119.03-42.905-168.224-47.316-74.344-146.293-93.95-215.503-148.493 0 0-282.694-159.527-202.663-384.593 0 0 25.863-94.358 107.249-135.051z" stroke-width="1.00047"/><path d="M2359.121 1782.576c90.761-45.38 203.566-4.875 287.8 51.708s151.354 134.744 228.615 200.53 171.831 121.176 273.229 117.125c41.134-1.645 85.47-15.924 106.978-51.023 23.827-38.88 11.701-90.662-13.024-128.976s-60.32-68.325-87.946-104.601c-28.027-36.795-47.98-82.103-44.392-128.213s35.3-91.654 80.54-101.279c50.92-10.834 101.572 25.243 128.796 69.617 27.112 44.202 48.57 105.314 100.19 110.326 53.646 5.202 86.629-55.542 106.26-105.739 20.652-52.801 43.449-105.808 79.692-149.407s134.213-75.898 190.862-78.112 112.754 34.195 130.37 88.087c19.256 58.932-44.095 109.936-44.095 109.936-104.354 80.55-168.162 135.05-167.86 229.479a130.439 130.439 0 0018.92 67.12 141.236 141.236 0 0056.927 52.947 1467.901 1467.901 0 00178.018 76.971c72.006 25.627 154.733 53.127 184.968 123.324 22.96 53.305 7.329 114.615-10.234 169.933-20.262 63.824-43.45 128.2-84.75 180.91s-104.008 92.67-170.95 91.01c-68.196-1.69-127.4-44.378-184.468-81.75-65.88-43.136-104.992-110.367-183.024-120.936-101.64-13.766-150.193 69.603-150.193 69.603-60.077 76.797-108.245 168.842-177.993 236.978s-179.14 83.676-274.983 65.76c-113.001-21.123-191.36-131.961-212.859-244.89-10.645-55.918-11.32-116.196-41.883-164.216-46.189-72.57-142.81-91.708-210.37-144.953 0 0-275.96-155.728-197.836-375.431 0-.002 25.246-92.114 104.695-131.838z" stroke-width="1.00047"/><path d="M2379.19 1794.098c88.546-44.273 198.594-4.756 280.774 50.447s147.664 131.455 223.04 195.637 167.643 118.218 266.56 114.263c40.13-1.604 83.385-15.535 104.37-49.779 23.244-37.933 11.414-88.449-12.709-125.828s-58.849-66.655-85.805-102.05c-27.343-35.897-46.809-80.096-43.31-125.084s34.44-89.418 78.58-98.809c49.677-10.57 99.094 24.627 125.654 67.923 26.459 43.127 47.4 102.752 97.756 107.638 52.333 5.077 84.515-54.186 103.668-103.158 20.148-51.513 42.386-103.226 77.75-145.762s130.933-74.046 186.205-76.205 110.003 33.357 127.183 85.939c18.787 57.493-43.018 107.252-43.018 107.252-101.808 78.586-164.06 131.756-163.76 223.877a127.26 127.26 0 0018.457 65.484 137.8 137.8 0 0055.536 51.655 1432.135 1432.135 0 00173.675 75.094c70.25 25.004 150.956 51.83 180.455 120.314 22.399 52.004 7.148 111.815-9.985 165.787-19.768 62.266-42.392 125.072-82.682 176.496s-101.473 90.408-166.782 88.789c-66.528-1.65-124.29-43.294-179.967-79.755-64.27-42.085-102.43-107.674-178.556-117.985-99.16-13.43-146.53 67.904-146.53 67.904-58.616 74.918-105.61 164.718-173.653 231.191s-174.77 81.636-268.275 64.155c-110.244-20.609-186.692-128.743-207.667-238.917-10.385-54.554-11.043-113.362-40.86-160.21-45.061-70.797-139.322-89.472-205.236-141.413 0 0-269.227-151.928-193.009-366.27 0-.002 24.63-89.865 102.14-128.62z" stroke-width="1.00047"/><path d="M2399.257 1805.622c86.331-43.165 193.632-4.638 273.755 49.185s143.968 128.168 217.459 190.743 163.45 115.262 259.895 111.405c39.126-1.564 81.298-15.146 101.758-48.533 22.663-36.984 11.13-86.24-12.391-122.681s-57.376-64.99-83.659-99.492c-26.66-34.999-45.638-78.092-42.226-121.955s33.577-87.183 76.609-96.337c48.435-10.305 96.615 24.014 122.511 66.22 25.8 42.044 46.211 100.177 95.316 104.939 51.029 4.95 82.402-52.833 101.075-100.578 19.644-50.227 41.326-100.646 75.802-142.117s127.66-72.194 181.547-74.3 107.253 32.526 124.004 83.789c18.318 56.056-41.943 104.571-41.943 104.571-99.26 76.62-159.955 128.461-159.66 218.277a124.076 124.076 0 0017.996 63.845 134.35 134.35 0 0054.15 50.364 1396.282 1396.282 0 00169.323 73.215c68.493 24.38 147.181 50.534 175.942 117.306 21.839 50.703 6.969 109.022-9.735 161.64-19.273 60.71-41.33 121.944-80.614 172.082s-98.94 88.148-162.612 86.57c-64.866-1.607-121.181-42.214-175.468-77.76-62.661-41.032-99.867-104.981-174.091-115.035-96.68-13.094-142.863 66.207-142.863 66.207-57.144 73.044-102.963 160.602-169.304 225.413s-170.399 79.593-261.564 62.552c-107.487-20.093-182.022-125.52-202.473-232.942-10.125-53.187-10.767-110.525-39.84-156.203-43.933-69.028-135.837-87.232-200.103-137.879 0 0-262.494-148.127-188.181-357.11 0 0 24.014-87.617 99.585-125.401z" stroke-width="1.00047"/><path d="M2419.325 1817.144c84.117-42.058 188.665-4.52 266.732 47.923s140.275 124.881 211.88 185.848 159.259 112.31 253.23 108.55c38.122-1.525 79.213-14.757 99.147-47.288 22.083-36.034 10.845-84.025-12.073-119.535s-55.905-63.323-81.513-96.944c-25.975-34.104-44.467-76.09-41.144-118.827s32.717-84.946 74.645-93.867c47.192-10.041 94.137 23.396 119.368 64.521 25.136 40.97 45.026 97.612 92.866 102.253 49.72 4.823 80.289-51.476 98.483-97.999 19.14-48.937 40.267-98.063 73.858-138.47s124.384-70.342 176.891-72.395 104.5 31.692 120.822 81.64c17.848 54.618-40.866 101.888-40.866 101.888-96.715 74.657-155.852 125.168-155.564 212.68a120.896 120.896 0 0017.534 62.208 130.909 130.909 0 0052.762 49.072 1360.455 1360.455 0 00164.986 71.337c66.736 23.754 143.406 49.238 171.428 114.296 21.279 49.398 6.792 106.225-9.485 157.494-18.779 59.152-40.269 118.816-78.546 167.667s-96.396 85.886-158.44 84.348c-63.203-1.567-118.073-41.135-170.964-75.763-61.056-39.974-97.307-102.289-169.626-112.084-94.202-12.758-139.2 64.509-139.2 64.509-55.678 71.175-100.322 156.483-164.961 219.63s-166.028 77.551-254.855 60.947c-104.73-19.577-177.353-122.303-197.278-226.967-9.866-51.825-10.491-107.69-38.817-152.197-42.807-67.256-132.354-84.993-194.97-134.341 0 0-255.762-144.328-183.355-347.95-.006-.003 23.393-85.367 97.025-122.184z" stroke-width="1.00047"/><path d="M2439.394 1828.666c81.903-40.95 183.698-4.398 259.711 46.662s136.583 121.596 206.301 180.958 155.066 109.348 246.561 105.685c37.12-1.484 77.128-14.369 96.538-46.044 21.501-35.085 10.559-81.813-11.755-116.39s-54.433-61.653-79.367-94.392c-25.292-33.202-43.297-74.086-40.06-115.698s31.855-82.71 72.68-91.395c45.95-9.778 91.658 22.78 116.225 62.823 24.474 39.89 43.84 95.042 90.421 99.56 48.411 4.695 78.174-50.126 95.89-95.418 18.64-47.65 39.205-95.481 71.913-134.825s121.112-68.49 172.234-70.489 101.75 30.86 117.642 79.492c17.377 53.179-39.79 99.206-39.79 99.206-94.17 72.689-151.75 121.87-151.474 207.08a117.71 117.71 0 0017.073 60.569 127.453 127.453 0 0051.371 47.779 1324.517 1324.517 0 00160.64 69.46c64.978 23.129 139.63 47.942 166.914 111.287 20.718 48.102 6.612 103.429-9.235 153.348-18.285 57.595-39.21 115.688-76.479 163.254s-93.86 83.625-154.268 82.127c-61.54-1.526-114.966-40.047-166.464-73.77-59.447-38.928-94.745-99.596-165.16-109.135-91.719-12.419-135.535 62.81-135.535 62.81-54.208 69.309-97.675 152.371-160.614 213.856s-161.657 75.511-248.144 59.343c-101.973-19.06-172.683-119.083-192.084-220.99-9.607-50.46-10.215-104.857-37.796-148.19-41.684-65.487-128.87-82.757-189.837-130.806 0 0-249.028-140.528-178.528-338.789 0 0 22.786-83.119 94.476-118.968z" stroke-width="1.00047"/><path d="M2459.463 1840.188c79.688-39.842 178.73-4.28 252.688 45.4s132.888 118.305 200.723 176.065 150.872 106.393 239.895 102.832c36.115-1.444 75.042-13.98 93.927-44.798 20.92-34.138 10.273-79.601-11.437-113.24s-52.961-59.989-77.22-91.84c-24.608-32.304-42.127-72.082-38.977-112.57s30.994-80.472 70.714-88.924c44.707-9.512 89.18 22.164 113.084 61.123 23.806 38.815 42.653 92.474 87.975 96.87 47.102 4.57 76.059-48.766 93.298-92.839 18.132-46.36 38.145-92.9 69.965-131.178s117.835-66.638 167.578-68.582 98.998 30.023 114.46 77.34c16.909 51.743-38.714 96.524-38.714 96.524-91.622 70.728-147.646 118.575-147.378 201.48a114.525 114.525 0 0016.614 58.93 124.012 124.012 0 0049.983 46.489 1288.926 1288.926 0 00156.3 67.585c63.222 22.502 135.855 46.645 162.402 108.277 20.158 46.802 6.434 100.633-8.986 149.202-17.79 56.038-38.149 112.56-74.41 158.839s-91.322 81.363-150.097 79.907c-59.876-1.485-111.857-38.964-161.963-71.776-57.84-37.874-92.183-96.903-160.694-106.182-89.242-12.09-131.874 61.109-131.874 61.109-52.746 67.426-95.038 148.245-156.278 208.066s-157.282 73.47-241.432 57.738c-99.215-18.546-168.014-115.863-186.889-215.016-9.346-49.096-9.94-102.02-36.774-144.183-40.555-63.715-125.386-80.518-184.705-127.267 0 0-242.294-136.729-173.7-329.628 0-.001 22.165-80.875 91.922-115.753z" stroke-width="1.00047"/><path d="M2479.531 1851.71c77.473-38.735 173.764-4.16 245.665 44.14s129.196 115.017 195.145 171.17 146.68 103.436 233.23 99.975c35.107-1.403 72.956-13.592 91.314-43.553 20.338-33.189 9.988-77.389-11.12-110.093s-51.49-58.322-75.077-89.287c-23.924-31.408-40.956-70.08-37.894-109.441s30.133-78.236 68.748-86.453c43.466-9.248 86.703 21.548 109.94 59.425 23.152 37.734 41.47 89.903 85.532 94.176 45.794 4.442 73.947-47.41 90.705-90.258 17.628-45.072 37.086-90.318 68.025-127.534s114.56-64.786 162.92-66.676 96.248 29.189 111.28 75.191c16.437 50.304-37.639 93.841-37.639 93.841-89.076 68.758-143.543 115.28-143.282 195.881a111.346 111.346 0 0016.15 57.294 120.556 120.556 0 0048.593 45.195 1253.007 1253.007 0 00151.955 65.7c61.465 21.881 132.08 45.348 157.89 105.268 19.6 45.5 6.254 97.835-8.738 145.055-17.296 54.48-37.087 109.432-72.342 154.424s-88.784 79.103-145.925 77.686c-58.212-1.443-108.748-37.881-157.463-69.78-56.234-36.823-89.62-94.21-156.228-103.232-86.755-11.745-128.202 59.416-128.202 59.416-51.28 65.553-92.398 144.123-151.932 202.283s-152.915 71.43-234.726 56.137c-96.462-18.03-163.345-112.642-181.696-209.04-9.09-47.732-9.666-99.185-35.752-140.176-39.426-61.944-121.904-78.28-179.571-123.73 0 0-235.56-132.929-168.874-320.469 0 0 21.55-78.625 89.37-112.534z" stroke-width="1.00047"/><path d="M2499.598 1863.234c75.259-37.63 168.797-4.043 238.643 42.876s125.503 111.73 189.57 166.279 142.485 100.479 226.56 97.117c34.103-1.368 70.871-13.204 88.707-42.309 19.756-32.24 9.702-75.178-10.802-106.946s-50.018-56.652-72.93-86.735c-23.239-30.51-39.784-68.077-36.81-106.314s29.269-76 66.784-83.98c42.223-8.984 84.22 20.932 106.798 57.726 22.489 36.655 40.284 87.333 83.087 91.484 44.484 4.312 71.833-46.056 88.112-87.679 17.124-43.783 36.025-87.736 66.08-123.888s111.286-62.934 158.26-64.77 93.497 28.355 108.098 73.042c15.968 48.866-36.563 91.158-36.563 91.158-86.53 66.793-139.44 111.983-139.186 190.282a108.161 108.161 0 0015.688 55.657 117.112 117.112 0 0047.205 43.903 1217.177 1217.177 0 00147.612 63.825c59.708 21.253 128.304 44.053 153.38 102.26 19.038 44.2 6.076 95.039-8.487 140.909-16.8 52.922-36.028 106.304-70.273 150.01s-86.245 76.84-141.754 75.465c-56.547-1.402-105.64-36.798-152.96-67.786-54.626-35.77-87.06-91.514-151.763-100.28-84.28-11.418-124.541 57.715-124.541 57.715-49.816 63.677-89.758 140.004-147.59 196.502s-148.55 69.386-228.021 54.53c-93.7-17.519-158.676-109.427-176.503-203.066-8.827-46.367-9.387-96.35-34.73-136.168-38.296-60.17-118.415-76.043-174.437-120.193 0 0-228.828-129.132-164.045-311.307 0-.001 20.932-76.381 86.81-109.319z" stroke-width="1.00047"/><path d="M2519.668 1874.756c73.045-36.522 163.83-3.924 231.621 41.615s121.81 108.442 183.99 161.386 138.293 97.522 219.893 94.259c33.1-1.324 68.783-12.815 86.096-41.063 19.175-31.292 9.417-72.964-10.484-103.8s-48.546-54.988-70.782-84.182c-22.555-29.612-38.614-66.073-35.727-103.184s28.41-73.764 64.819-81.51c40.98-8.72 81.746 20.315 103.655 56.027 21.826 35.577 39.099 84.763 80.642 88.793 43.175 4.188 69.718-44.701 85.518-85.098 16.622-42.495 34.966-85.155 64.137-120.244s108.01-61.08 153.606-62.863 90.744 27.52 104.917 70.893c15.499 47.427-35.487 88.475-35.487 88.475-83.984 64.828-135.337 108.69-135.09 184.684a104.98 104.98 0 0015.225 54.018 113.67 113.67 0 0045.816 42.612 1181.264 1181.264 0 00143.27 61.947c57.95 20.627 124.528 42.76 148.86 99.251 18.476 42.9 5.898 92.242-8.236 136.762-16.307 51.366-34.968 103.18-68.207 145.595s-83.708 74.581-137.583 73.25c-54.884-1.36-102.531-35.715-148.46-65.79-53.017-34.714-84.496-88.825-147.296-97.33-81.8-11.08-120.877 56.015-120.877 56.015-48.35 61.807-87.116 135.886-143.246 190.72s-144.174 67.342-221.303 52.923c-90.943-17-154.007-106.203-171.309-197.09-8.567-45.002-9.11-93.514-33.707-132.16-37.178-58.41-114.934-73.813-169.31-116.663 0 0-222.095-125.329-159.22-302.147 0-.003 20.318-74.13 84.26-106.1z" stroke-width="1.00047"/><path d="M2539.736 1886.28c70.83-35.414 158.863-3.806 224.598 40.352s118.114 105.156 178.412 156.493 134.1 94.566 213.227 91.401c32.098-1.283 66.7-12.428 83.487-39.818 18.594-30.343 9.13-70.752-10.166-100.653s-47.072-53.321-68.638-81.63c-21.873-28.714-37.443-64.07-34.643-100.056s27.549-71.525 62.854-79.04c39.737-8.455 79.267 19.7 100.512 54.33 21.164 34.493 37.913 82.193 78.197 86.1 41.866 4.061 67.605-43.345 82.927-82.519 16.116-41.207 33.904-82.573 62.19-116.597s104.737-59.23 148.95-60.958 87.995 26.686 101.738 68.744c15.025 45.99-34.416 85.794-34.416 85.794-81.438 62.862-131.234 105.394-130.995 179.086a101.79 101.79 0 0014.765 52.38 110.22 110.22 0 0044.425 41.32 1145.597 1145.597 0 00138.923 60.07c56.193 20 120.752 41.46 144.348 96.241 17.918 41.599 5.719 89.446-7.987 132.617-15.813 49.808-33.908 100.047-66.14 141.18s-81.164 72.317-133.406 71.023c-53.22-1.324-99.422-34.633-143.959-63.796-51.41-33.665-81.935-86.131-142.835-94.379-79.32-10.744-117.209 54.317-117.209 54.317-46.881 59.932-84.471 131.77-138.901 184.938s-139.802 65.3-214.598 51.319c-88.186-16.482-149.336-102.983-166.11-191.114-8.307-43.638-8.834-90.68-32.686-128.155-36.044-56.633-111.446-71.568-164.17-113.12 0 0-215.36-121.53-154.392-292.986-.007 0 19.696-71.885 81.698-102.884z" stroke-width="1.00047"/><path d="M2559.803 1897.802c68.615-34.308 153.897-3.687 217.577 39.09s114.426 101.866 172.833 151.603 129.909 91.607 206.56 88.542c31.096-1.243 64.615-12.039 80.876-38.574 18.013-29.394 8.846-68.54-9.849-97.505s-45.602-51.651-66.491-79.078c-21.189-27.817-36.273-62.071-33.561-96.928s26.688-69.291 60.889-76.568c38.495-8.19 76.787 19.083 97.368 52.63 20.504 33.42 36.728 79.624 75.753 83.41 40.557 3.932 65.491-41.99 80.333-79.938 15.613-39.92 32.846-79.992 60.247-112.953s101.461-57.378 144.291-59.055 85.243 25.852 98.556 66.595c14.559 44.552-33.334 83.11-33.334 83.11-78.891 60.9-127.13 102.1-126.9 173.485a98.613 98.613 0 0014.304 50.743 106.77 106.77 0 0043.037 40.028 1109.652 1109.652 0 00134.581 58.191c54.438 19.376 116.978 40.16 139.836 93.232 17.358 40.299 5.54 86.65-7.736 128.47-15.319 48.25-32.848 96.919-64.072 136.768s-78.632 70.059-129.238 68.804c-51.555-1.278-96.314-33.55-139.458-61.802-49.805-32.61-79.375-83.436-138.364-91.426-76.84-10.407-113.547 52.62-113.547 52.62-45.423 58.057-81.836 127.644-134.563 179.159s-135.431 63.26-207.888 49.715c-85.43-15.974-144.668-99.768-160.922-185.143-8.047-42.274-8.558-87.844-31.664-124.147-34.917-54.863-107.962-69.332-159.038-109.584 0 0-208.626-117.73-149.564-283.826 0-.001 19.086-69.636 79.148-99.668z" stroke-width="1.00047"/><path d="M2579.873 1909.325c66.4-33.2 148.929-3.567 210.554 37.83s110.73 98.578 167.254 146.707 125.716 88.652 199.895 85.685c30.092-1.203 62.529-11.65 78.265-37.329 17.432-28.45 8.56-66.328-9.53-94.358s-44.13-49.986-64.346-76.526c-20.504-26.914-35.099-60.063-32.477-93.8s25.826-67.054 58.923-74.096c37.253-7.926 74.31 18.468 94.228 50.933 19.84 32.338 35.541 77.053 73.307 80.717 39.248 3.806 63.377-40.635 77.74-77.359 15.111-38.63 31.786-77.41 58.302-109.307s98.187-55.526 139.635-57.146 82.49 25.017 95.374 64.445c14.09 43.114-32.258 80.428-32.258 80.428-76.345 58.93-123.032 98.804-122.804 167.885a95.43 95.43 0 0013.84 49.102 103.335 103.335 0 0041.652 38.736 1073.913 1073.913 0 00130.238 56.312c52.68 18.752 113.202 38.868 135.323 90.222 16.796 38.997 5.362 83.851-7.488 124.322-14.826 46.694-31.788 93.791-62.003 132.354s-76.094 67.797-125.07 66.583c-49.892-1.237-93.205-32.467-134.959-59.807-48.195-31.56-76.811-80.744-133.9-88.48-74.36-10.072-109.882 50.921-109.882 50.921-43.951 56.184-79.193 123.525-130.217 173.373s-131.06 61.218-201.178 48.111c-82.672-15.445-139.996-96.535-155.728-179.154-7.788-40.91-8.281-85.01-30.642-120.142-33.79-53.09-104.478-67.097-153.905-106.046 0 0-201.893-113.93-144.737-274.666-.001 0 18.47-67.388 76.594-96.45z" stroke-width="1.00047"/><path d="M2599.94 1920.846c64.186-32.092 143.962-3.448 203.531 36.568s107.04 95.291 161.677 141.817 121.523 85.696 193.227 82.828c29.09-1.163 60.444-11.256 75.656-36.083 16.85-27.496 8.275-64.117-9.213-91.211s-42.659-48.32-62.2-73.973c-19.82-26.022-33.93-58.062-31.394-90.671s24.964-64.819 56.958-71.625c36.01-7.662 71.832 17.852 91.084 49.233 19.18 31.263 34.357 74.484 70.863 78.025 37.94 3.68 61.264-39.278 75.148-74.778 14.604-37.342 30.723-74.828 56.358-105.66s94.91-53.674 134.978-55.24 79.74 24.182 92.195 62.295c13.618 41.676-31.184 77.745-31.184 77.745-73.8 56.966-118.925 95.508-118.708 162.286a92.248 92.248 0 0013.38 47.467 99.877 99.877 0 0040.259 37.445 1038.129 1038.129 0 00125.894 54.435c50.923 18.126 109.427 37.571 130.81 87.214 16.237 37.697 5.181 81.056-7.238 120.177-14.33 45.136-30.727 90.664-59.935 127.94s-73.557 65.536-120.898 64.362c-48.228-1.196-90.097-31.384-130.456-57.812-46.587-30.508-74.25-78.053-129.433-85.527-71.88-9.736-106.217 49.223-106.217 49.223-42.486 54.31-76.553 119.406-125.87 167.59s-126.692 59.177-194.474 46.507c-79.914-14.94-135.33-93.324-150.534-173.189-7.528-39.545-8.006-82.175-29.62-116.134-32.664-51.32-100.993-64.855-148.774-102.509 0 0-195.16-110.13-139.91-265.505 0-.005 17.855-65.147 74.04-93.24z" stroke-width="1.00047"/><path d="M2620.009 1932.37c61.971-30.985 138.996-3.33 196.509 35.306s103.345 92.003 156.099 136.92 117.33 82.74 186.56 79.971c28.085-1.123 58.359-10.872 73.045-34.838 16.268-26.547 7.99-61.903-8.895-88.065s-41.187-46.65-60.053-71.421c-19.137-25.123-32.76-56.057-30.311-87.544s24.103-62.58 54.993-69.15c34.768-7.397 69.35 17.236 87.942 47.534 18.518 30.182 33.171 71.914 68.417 75.333 36.63 3.553 59.147-37.923 72.555-72.198 14.1-36.054 29.666-72.246 54.414-102.015s91.637-51.823 130.32-53.335 76.99 23.348 89.014 60.146c13.149 40.238-30.107 75.065-30.107 75.065-71.253 55-114.82 92.212-114.61 156.686a89.069 89.069 0 0012.918 45.83 96.438 96.438 0 0038.87 36.148 1002.197 1002.197 0 00121.55 52.556c49.166 17.5 105.65 36.276 126.295 84.205 15.678 36.397 5.004 78.26-6.988 116.03-13.835 43.58-29.665 87.535-57.867 123.526s-71.019 63.274-116.727 62.142c-46.564-1.155-86.983-30.302-125.955-55.819-44.98-29.45-71.687-75.36-124.968-82.575-69.396-9.4-102.552 47.524-102.552 47.524-41.022 52.439-73.915 115.29-121.534 161.811s-122.318 57.134-187.76 44.898c-77.156-14.42-130.661-90.1-145.34-167.21-7.267-38.18-7.73-79.339-28.593-112.129-31.537-49.548-97.505-62.617-143.64-98.976 0 0-188.427-106.33-135.083-256.345-.003.003 17.235-62.887 71.482-90.011z" stroke-width="1.00047"/><path d="M2640.076 1943.892c59.757-29.877 134.028-3.21 189.487 34.044s99.653 88.715 150.521 132.029 113.137 79.782 179.894 77.114c27.083-1.084 56.268-10.484 70.435-33.595 15.687-25.599 7.703-59.69-8.578-84.917s-39.715-44.985-57.907-68.869c-18.453-24.225-31.59-54.054-29.227-84.415s23.241-60.345 53.027-66.683c33.525-7.133 66.875 16.62 84.799 45.836 17.856 29.105 31.985 69.344 65.977 72.64 35.32 3.422 57.036-36.57 69.963-69.618 13.596-34.765 28.604-69.664 52.469-98.37s88.363-49.965 125.664-51.423 74.237 22.514 85.832 57.997c12.679 38.802-29.032 72.382-29.032 72.382-68.706 53.034-110.717 88.917-110.516 151.088a85.879 85.879 0 0012.456 44.192 92.991 92.991 0 0037.481 34.86 966.427 966.427 0 00117.206 50.678c47.409 16.876 101.87 34.98 121.783 81.2 15.117 35.096 4.825 75.463-6.738 111.884-13.34 42.022-28.607 84.408-55.8 119.111s-68.48 61.014-112.556 59.921c-44.9-1.113-83.879-29.218-121.454-53.823-43.373-28.401-69.125-72.666-120.502-79.624-66.919-9.064-98.888 45.826-98.888 45.826-39.55 50.563-71.268 111.168-117.188 156.026s-117.947 55.093-181.05 43.297c-74.4-13.908-125.988-86.884-140.146-161.237-7.01-36.816-7.454-76.504-27.576-108.12-30.41-47.78-94.025-60.38-138.507-95.437 0 0-181.693-102.53-130.256-247.183-.003-.01 16.619-60.657 68.927-86.811z" stroke-width="1.00047"/><path d="M2660.146 1955.414c57.542-28.773 129.061-3.087 182.465 32.783s95.959 85.428 144.945 127.136 108.943 76.825 173.223 74.255c26.08-1.043 54.188-10.095 67.825-32.348 15.106-24.651 7.419-57.48-8.26-81.77s-38.242-43.319-55.76-66.318c-17.77-23.327-30.419-52.05-28.145-81.287s22.38-58.11 51.062-64.211c32.283-6.87 64.397 16.004 81.657 44.137 17.194 28.027 30.801 66.775 63.53 69.949 34.012 3.299 54.921-35.214 67.369-67.043 13.093-33.477 27.541-67.083 50.523-94.724s85.089-48.12 121.007-49.523 71.486 21.68 82.652 55.848c12.208 37.362-27.956 69.699-27.956 69.699-66.16 51.068-106.615 85.622-106.42 145.488a82.688 82.688 0 0011.995 42.554 89.542 89.542 0 0036.091 33.567 930.694 930.694 0 00112.864 48.8c45.652 16.25 98.1 33.682 117.27 78.188 14.555 33.793 4.645 72.666-6.49 107.737-12.846 40.464-27.546 81.28-53.732 114.697s-65.942 58.753-108.384 57.7c-43.235-1.071-80.77-28.136-116.952-51.829-41.764-27.35-66.564-69.973-116.036-76.674-64.44-8.728-95.223 44.13-95.223 44.13-38.088 48.687-68.627 107.045-112.846 150.244s-113.578 53.055-174.342 41.697c-71.643-13.394-121.322-83.664-134.953-155.262-6.75-35.452-7.177-73.668-26.554-104.113-29.284-46.01-90.538-58.14-133.374-91.9 0 0-174.96-98.732-125.429-238.024.001.001 16.007-58.398 66.378-83.583z" stroke-width="1.00047"/><path d="M2680.214 1966.937c55.328-27.663 124.095-2.973 175.443 31.521s92.265 82.14 139.367 122.242 104.75 73.869 166.56 71.398c25.077-1.003 52.102-9.708 65.214-31.105 14.526-23.701 7.133-55.267-7.946-78.622s-36.768-41.649-53.615-63.766c-17.084-22.43-29.248-50.047-27.06-78.158s21.519-55.873 49.097-61.74c31.041-6.604 61.918 15.387 78.514 42.438 16.532 26.948 29.615 64.2 61.082 67.256 32.702 3.172 52.808-33.859 64.776-64.458 12.59-32.19 26.486-64.5 48.584-91.079s81.81-46.266 116.35-47.617 68.735 20.846 79.475 53.698c11.74 35.925-26.88 67.016-26.88 67.016-63.613 49.104-102.51 82.328-102.324 139.89a79.515 79.515 0 0011.534 40.918 86.106 86.106 0 0034.703 32.277 894.79 894.79 0 00108.52 46.921c43.896 15.625 94.325 32.386 112.757 75.179 13.997 32.494 4.468 69.869-6.238 103.591-12.355 38.907-26.484 78.148-51.667 110.283s-63.405 56.492-104.214 55.48c-41.571-1.03-77.661-27.049-112.451-49.834-40.159-26.297-64.008-67.28-111.57-73.724-61.96-8.392-91.554 42.43-91.554 42.43-36.622 46.816-65.987 102.927-108.503 144.462s-109.206 51.009-167.63 40.087c-68.886-12.876-116.653-80.444-129.76-149.286-6.488-34.087-6.9-70.833-25.532-100.106-28.156-44.238-87.055-55.905-128.24-88.363 0 0-168.227-94.93-120.602-228.862-.012 0 15.378-56.15 63.81-80.367z" stroke-width="1.00047"/><path d="M2700.286 1978.46c53.113-26.557 119.126-2.854 168.423 30.258s88.573 78.852 133.785 117.35 100.559 70.911 159.894 68.539c24.073-.963 50.016-9.319 62.603-29.86 13.944-22.752 6.848-53.055-7.623-75.476s-35.3-39.984-51.468-61.212c-16.4-21.531-28.079-48.043-25.978-75.028s20.657-53.636 47.131-59.268c29.799-6.34 59.44 14.772 75.37 40.736 15.872 25.87 28.43 61.634 58.635 64.565 31.394 3.046 50.695-32.504 62.184-61.878 12.086-30.9 25.424-61.92 46.635-87.433s78.539-44.415 111.692-45.711 65.984 20.011 76.288 51.55c11.269 34.486-25.804 64.333-25.804 64.333-61.067 47.138-98.408 79.032-98.23 134.29a76.336 76.336 0 0011.076 39.279 82.652 82.652 0 0033.314 30.985 859.048 859.048 0 00104.176 45.044c42.138 14.999 90.549 31.09 108.243 72.169 13.435 31.193 4.288 67.073-5.989 99.445-11.857 37.35-25.426 75.023-49.596 105.868s-60.866 54.23-100.041 53.26c-39.908-.99-74.556-25.97-107.95-47.84-38.552-25.243-61.44-64.587-107.106-70.77-59.479-8.057-87.893 40.735-87.893 40.735-35.156 44.941-63.345 98.804-104.16 138.679s-104.833 48.966-160.92 38.483c-66.13-12.362-111.983-77.224-124.564-143.312-6.23-32.723-6.625-67.997-24.508-96.099-27.028-42.467-83.57-53.667-123.107-84.825 0 0-161.488-91.132-115.774-219.703-.01-.004 14.765-53.907 61.262-77.154z" stroke-width="1.00047"/><path d="M2720.35 1989.983c50.902-25.45 114.16-2.736 161.398 28.998s84.883 75.565 128.207 112.457 96.366 67.955 153.226 65.682c23.071-.92 47.93-8.93 59.994-28.615 13.363-21.801 6.562-50.842-7.306-72.328s-33.827-38.318-49.324-58.66c-15.717-20.635-26.907-46.042-24.895-71.902s19.792-51.399 45.168-56.797c28.554-6.076 56.96 14.156 72.23 39.041 15.21 24.79 27.245 59.064 56.194 61.872 30.085 2.919 48.582-31.148 59.592-59.298 11.583-29.611 24.36-59.34 44.69-83.788s75.265-42.563 107.037-43.805 63.232 19.176 73.108 49.4c10.8 33.046-24.728 61.652-24.728 61.652-58.522 45.173-94.305 75.736-94.133 128.693a73.153 73.153 0 0010.61 37.641 79.209 79.209 0 0031.925 29.693 823.159 823.159 0 0099.829 43.162c40.38 14.374 86.774 29.793 103.73 69.16 12.875 29.893 4.109 64.276-5.74 95.298-11.364 35.793-24.366 71.895-47.528 101.455s-58.328 51.969-95.871 51.037c-38.243-.946-71.445-24.889-103.45-45.844-36.94-24.189-58.878-61.894-102.639-67.821-57-7.72-84.229 39.034-84.229 39.034-33.689 43.07-60.704 94.686-99.816 132.896s-100.467 46.927-154.21 36.879c-63.372-11.846-107.316-74.007-119.372-137.34-5.97-31.358-6.348-65.162-23.49-92.091-25.901-40.698-80.086-51.43-117.973-81.289 0 0-154.76-87.329-110.948-210.546 0 .004 14.16-51.649 58.714-73.926z" stroke-width="1.00047"/><path d="M2740.42 2001.505c48.683-24.343 109.192-2.616 154.373 27.732s81.188 72.277 122.63 107.568 92.173 64.998 146.56 62.823c22.068-.883 45.847-8.54 57.384-27.37 12.78-20.854 6.277-48.63-6.988-69.181s-32.356-36.647-47.177-56.107c-15.034-19.736-25.736-44.039-23.811-68.773s18.934-49.164 43.201-54.326c27.313-5.813 54.483 13.54 69.087 37.342 14.547 23.715 26.058 56.495 53.748 59.18 28.776 2.79 46.468-29.793 56.998-56.718 11.078-28.324 23.304-56.755 42.746-80.145s71.989-40.712 102.378-41.899 60.481 18.342 69.929 47.251c10.33 31.61-23.653 58.97-23.653 58.97-55.978 43.207-90.203 72.441-90.038 123.09a69.969 69.969 0 0010.148 36.004 75.76 75.76 0 0030.536 28.403 787.361 787.361 0 0095.49 41.288c38.623 13.749 82.997 28.497 99.215 66.15 12.316 28.593 3.931 61.48-5.489 91.153-10.868 34.235-23.303 68.766-45.46 97.04s-55.792 49.708-91.7 48.818c-36.58-.908-68.336-23.804-98.949-43.85-35.336-23.14-56.318-59.205-98.173-64.87-54.519-7.385-80.564 37.335-80.564 37.335-32.224 41.194-58.063 90.567-95.474 127.115s-96.09 44.885-147.501 35.274c-60.614-11.331-102.642-70.786-114.178-131.36-5.71-29.995-6.072-62.328-22.467-88.086-24.775-38.927-76.603-49.192-112.841-77.753 0 0-148.026-83.531-106.12-201.381-.002-.001 13.543-49.41 56.16-70.717z" stroke-width="1.00047"/><path d="M2760.482 2013.03c46.47-23.236 104.222-2.497 147.353 26.473s77.5 68.988 117.056 102.67 87.98 62.041 139.893 59.966c21.064-.843 43.76-8.152 54.773-26.124 12.198-19.907 5.99-46.418-6.67-66.035s-30.884-34.983-45.032-53.556c-14.348-18.838-24.565-42.04-22.729-65.644s18.075-46.927 41.237-51.855c26.07-5.548 52.004 12.925 65.943 35.645 13.886 22.633 24.87 53.925 51.303 56.488 27.466 2.665 44.354-28.437 54.405-54.138 10.574-27.034 22.244-54.174 40.8-76.496s68.714-38.86 97.72-39.993 57.731 17.508 66.748 45.1c9.856 30.175-22.577 56.288-22.577 56.288-53.429 41.239-86.099 69.142-85.941 117.492a66.785 66.785 0 009.687 34.366 72.313 72.313 0 0029.148 27.109 751.526 751.526 0 0091.144 39.409c36.868 13.123 79.223 27.201 94.704 63.142 11.756 27.292 3.753 58.683-5.237 87.005-10.374 32.679-22.245 65.639-43.392 92.623s-53.253 47.447-87.528 46.598c-34.915-.866-65.229-22.722-94.45-41.856-33.73-22.086-53.756-56.507-93.708-61.919-52.04-7.049-76.9 35.637-76.9 35.637-30.76 39.32-55.42 86.447-91.133 121.332s-91.72 42.843-140.792 33.67c-57.857-10.815-97.977-67.565-108.985-125.384-5.45-28.63-5.797-59.492-21.444-84.079-23.648-37.156-73.116-46.954-107.708-74.216 0 0-141.292-79.732-101.292-192.22.007-.001 12.932-47.161 53.604-67.499z" stroke-width="1.00047"/><path d="M2780.555 2024.55c44.254-22.127 99.259-2.377 140.331 25.212s73.801 65.702 111.473 97.778 83.787 59.086 133.226 57.108c20.061-.802 41.675-7.764 52.163-24.879 11.617-18.958 5.706-44.206-6.352-62.888s-29.412-33.315-42.885-51.003c-13.665-17.942-23.395-40.032-21.646-62.516s17.213-44.691 39.271-49.384c24.828-5.283 49.526 12.309 62.802 33.945 13.224 21.56 23.687 51.355 48.857 53.796 26.157 2.537 42.24-27.082 51.812-51.557 10.07-25.746 21.18-51.59 38.858-72.85s65.44-37.008 93.064-38.088 54.98 16.674 63.565 42.952c9.39 28.734-21.5 53.604-21.5 53.604-50.884 39.276-81.996 65.851-81.847 111.892a63.6 63.6 0 009.23 32.731 68.867 68.867 0 0027.759 25.822 715.783 715.783 0 0086.801 37.531c35.11 12.497 75.448 25.91 90.19 60.133 11.195 25.991 3.574 55.886-4.99 82.859-9.88 31.12-21.185 62.51-41.325 88.21s-50.715 45.186-83.351 44.377c-33.252-.825-62.12-21.64-89.947-39.86-32.118-21.035-51.194-53.816-89.241-58.97-49.56-6.712-73.235 33.938-73.235 33.938-29.293 37.446-52.784 82.329-86.788 115.55s-87.35 40.802-134.082 32.065c-55.1-10.3-93.307-64.344-103.79-119.408-5.19-27.266-5.52-56.658-20.422-80.073-22.521-35.384-69.632-44.716-102.576-70.678 0 0-134.558-75.932-96.464-183.06-.005-.007 12.3-44.92 51.039-64.29z" stroke-width="1.00047"/><path d="M2800.624 2036.072c42.04-21.02 94.292-2.258 133.308 23.95s70.107 62.414 105.895 92.887 79.594 56.126 126.56 54.25c19.052-.762 39.59-7.375 49.551-23.633 11.037-18.01 5.425-41.994-6.029-59.739s-27.94-31.645-40.739-48.45c-12.98-17.044-22.224-38.029-20.562-59.388s16.354-42.455 37.306-46.913c23.587-5.014 47.048 11.692 59.658 32.246 12.563 20.476 22.503 48.785 46.414 51.104 24.85 2.41 40.126-25.727 49.22-48.977 9.566-24.46 20.124-49.01 36.914-69.206s62.164-35.156 88.407-36.18 52.228 15.838 60.384 40.802c8.92 27.297-20.424 50.922-20.424 50.922-48.335 37.311-77.892 62.556-77.75 106.293a60.411 60.411 0 008.759 31.09 65.422 65.422 0 0026.368 24.526 679.942 679.942 0 0082.458 35.653c33.353 11.872 71.668 24.61 85.677 57.124 10.634 24.69 3.398 53.09-4.744 78.713-9.385 29.564-20.122 59.381-39.256 83.798s-48.178 42.925-79.19 42.156c-31.587-.783-59.01-20.556-85.445-37.865-30.513-19.982-48.633-51.123-84.776-56.018-47.08-6.377-69.57 32.24-69.57 32.24-27.826 35.574-50.14 78.207-82.445 109.768s-82.978 38.76-127.372 30.46c-52.343-9.783-88.638-61.124-98.597-113.433-4.931-25.904-5.243-53.822-19.4-76.065-21.394-33.614-66.148-42.474-97.443-67.141 0 0-127.825-72.134-91.637-173.9.006-.008 11.7-42.674 48.5-61.074z" stroke-width="1.00047"/><path d="M2820.692 2047.595c39.826-19.912 89.324-2.139 126.286 22.688s66.415 59.125 100.32 87.991 75.402 53.172 119.893 51.394c18.049-.721 37.503-6.987 46.943-22.389 10.454-17.06 5.133-39.782-5.717-56.593s-26.464-29.982-38.593-45.9c-12.298-16.144-21.058-36.024-19.48-56.258s15.49-40.219 35.34-44.442c22.344-4.755 44.571 11.077 56.516 30.548 11.902 19.398 21.318 46.215 43.968 48.412 23.541 2.283 38.013-24.373 46.628-46.397 9.061-23.17 19.064-46.43 34.968-65.56s58.89-33.304 83.75-34.28 49.476 15.005 57.204 38.652c8.45 25.86-19.349 48.24-19.349 48.24-45.79 35.346-73.789 59.264-73.655 100.695a57.234 57.234 0 008.302 29.452 61.984 61.984 0 0024.98 23.234 644.206 644.206 0 0078.114 33.774c31.596 11.247 67.895 23.31 81.164 54.114 10.075 23.39 3.216 50.294-4.49 74.567-8.892 28.005-19.066 56.253-37.19 79.383s-45.64 40.663-75.014 39.934c-29.927-.74-55.901-19.472-80.945-35.871-28.906-18.927-46.068-48.43-80.31-53.067-44.599-6.04-65.905 30.542-65.905 30.542-26.362 33.698-47.497 74.088-78.102 103.986s-78.606 36.717-120.662 28.856c-49.588-9.264-83.971-57.9-93.41-107.449-4.67-24.537-4.967-50.986-18.378-72.059-20.267-31.843-62.664-40.24-92.31-63.605 0 0-121.088-68.333-86.81-164.738.003-.007 11.08-40.422 45.944-57.854z" stroke-width="1.00047"/><path d="M2840.76 2059.118c37.611-18.806 84.358-2.02 119.264 21.427s62.721 55.838 94.738 83.1 71.21 50.218 113.225 48.534c17.046-.683 35.418-6.598 44.332-21.144 9.873-16.112 4.85-37.57-5.398-53.447s-24.996-28.314-36.45-43.35c-11.613-15.248-19.882-34.022-18.396-53.131s14.629-37.984 33.376-41.97c21.101-4.49 42.092 10.46 53.374 28.848 11.239 18.32 20.132 43.645 41.522 45.72 22.231 2.156 35.9-23.016 44.036-43.814 8.558-21.881 18.003-43.848 33.024-61.916s55.615-31.452 79.093-32.37 46.726 14.17 54.024 36.505c7.98 24.42-18.273 45.557-18.273 45.557-43.244 33.38-69.687 55.966-69.56 95.095a54.051 54.051 0 007.84 27.815 58.527 58.527 0 0023.59 21.942 608.1 608.1 0 0073.773 31.897c29.839 10.62 64.12 22.016 76.65 51.105 9.514 22.09 3.037 47.497-4.241 70.421-8.397 26.448-18.005 53.126-35.12 74.969s-43.104 38.402-70.843 37.715c-28.26-.701-52.795-18.391-76.443-33.878-27.296-17.876-43.509-45.736-75.845-50.116-42.12-5.705-62.24 28.844-62.24 28.844-24.896 31.824-44.857 69.967-73.76 98.203s-74.236 34.674-113.951 27.256c-46.827-8.753-79.3-54.685-88.209-101.483-4.411-23.172-4.691-48.151-17.356-68.052-19.14-30.072-59.18-38.003-87.176-60.067 0 0-114.36-64.533-81.983-155.578-.002-.005 10.46-38.176 43.383-54.637z" stroke-width="1.00047"/><path d="M2860.828 2070.64c35.397-17.698 79.391-1.9 112.241 20.166s59.028 52.55 89.16 78.207 67.016 47.258 106.559 45.674c16.042-.642 33.333-6.213 41.721-19.9 9.293-15.162 4.564-35.357-5.08-50.3s-23.525-26.644-34.301-40.793c-10.93-14.35-18.712-32.02-17.313-50.002s13.767-35.746 31.41-39.5c19.859-4.226 39.615 9.85 50.231 27.15 10.577 17.241 18.947 41.076 39.078 43.029 20.922 2.029 33.786-21.662 41.442-41.238 8.054-20.593 16.944-41.266 31.08-58.27s52.341-29.6 74.436-30.463 43.974 13.336 50.842 34.354c7.51 22.984-17.196 42.875-17.196 42.875-40.694 31.414-65.583 52.67-65.464 89.495a50.877 50.877 0 007.379 26.177 55.084 55.084 0 0022.201 20.65 572.536 572.536 0 0069.428 30.018c28.082 9.996 60.345 20.72 72.134 48.097 8.954 20.789 2.858 44.7-3.991 66.274-7.902 24.892-16.94 49.997-33.052 70.555s-40.565 36.142-66.673 35.494c-26.596-.664-49.685-17.308-71.942-31.884-25.692-16.824-40.947-43.043-71.379-47.166-39.64-5.369-58.575 27.145-58.575 27.145-23.43 29.95-42.217 65.848-69.417 92.421s-69.865 32.634-107.244 25.647c-44.07-8.238-74.63-51.466-83.015-95.508-4.152-21.807-4.416-45.32-16.335-64.044-18.014-28.302-55.695-35.766-82.04-56.532 0 0-107.625-60.733-77.159-146.416.004.004 9.85-35.919 40.834-51.412z" stroke-width="1.00047"/><path d="M2880.897 2082.163c33.182-16.59 74.424-1.785 105.22 18.904s55.334 49.263 83.58 73.314 62.824 44.302 99.892 42.819c15.038-.6 31.248-5.821 39.112-18.654 8.71-14.215 4.278-33.145-4.763-47.152s-22.053-24.98-32.155-38.243c-10.246-13.452-17.542-30.015-16.23-46.875s12.906-33.508 29.445-37.027c18.616-3.96 37.134 9.23 47.088 25.452 9.916 16.162 17.762 38.506 36.633 40.337 19.615 1.902 31.676-20.307 38.85-38.659 7.55-19.304 15.883-38.683 29.135-54.623s49.067-27.747 69.779-28.557 41.222 12.502 47.66 32.205c7.042 21.545-16.12 40.192-16.12 40.192-38.152 29.45-61.48 49.375-61.368 83.897a47.687 47.687 0 006.917 24.539 51.636 51.636 0 0020.812 19.357 536.623 536.623 0 0065.084 28.141c26.326 9.366 56.571 19.423 67.625 45.087 8.394 19.489 2.679 41.906-3.741 62.128-7.409 23.334-15.886 46.87-30.984 66.14s-38.026 33.88-62.501 33.273c-24.932-.618-46.577-16.224-67.442-29.888-24.084-15.77-38.384-40.35-66.912-44.213-37.159-5.034-54.912 25.446-54.912 25.446-21.964 28.077-39.573 61.73-65.072 86.64s-65.49 30.591-100.533 24.044c-41.314-7.726-69.962-48.245-77.822-89.533-3.892-20.443-4.139-42.48-15.312-60.037-16.887-26.531-52.21-33.529-76.91-52.995 0 0-100.892-56.933-72.33-137.257-.001-.003 9.23-33.68 38.275-48.202z" stroke-width="1.00047"/><path d="M2900.966 2093.686c30.967-15.484 69.457-1.664 98.196 17.642s51.642 45.97 78.003 68.421 58.63 41.346 93.226 39.962c14.035-.562 29.162-5.434 36.5-17.409 8.13-13.266 3.993-30.932-4.445-44.007s-20.581-23.313-30.009-35.69c-9.563-12.554-16.37-28.013-15.147-43.747s12.045-31.272 27.48-34.556c17.374-3.697 34.656 8.613 43.943 23.753 9.254 15.084 16.577 35.937 34.189 37.645 18.304 1.775 29.557-18.953 36.256-36.078 7.047-18.016 14.824-36.101 27.19-50.978s45.792-25.895 65.123-26.648 38.472 11.667 44.48 30.055c6.57 20.108-15.048 37.51-15.048 37.51-35.605 27.484-57.377 46.08-57.272 78.302a44.504 44.504 0 006.456 22.9 48.181 48.181 0 0019.424 18.066 500.773 500.773 0 0060.74 26.263c24.568 8.745 52.794 18.127 63.11 42.078 7.834 18.19 2.5 39.105-3.491 57.985-6.914 21.777-14.825 43.742-28.917 61.727s-35.488 31.618-58.329 31.056c-23.268-.578-43.468-15.143-62.94-27.893-22.472-14.72-35.823-37.657-62.448-41.263-34.679-4.698-51.246 23.75-51.246 23.75-20.497 26.205-36.933 57.608-60.726 80.855s-61.123 28.55-93.825 22.437c-38.556-7.207-65.291-45.025-72.627-83.558-3.632-19.079-3.863-39.643-14.292-56.03-15.758-24.76-48.725-31.29-71.777-49.458 0 0-94.157-53.134-67.501-128.097.002-.013 8.616-31.441 35.724-44.995z" stroke-width="1.00047"/></g></g></svg>