<svg xmlns="http://www.w3.org/2000/svg" width="376" height="581"><defs><clipPath id="a"><path data-name="Rectangle 1946" transform="translate(2170 2659)" fill="#fff" stroke="#707070" d="M0 0h376v581H0z"/></clipPath></defs><g data-name="Mask Group 28" transform="translate(-2170 -2659)" clip-path="url(#a)"><g data-name="Group 4132"><g data-name="Group 3732" opacity=".46" fill="none" stroke="#d2e8f8" stroke-miterlimit="10"><path data-name="Path 6681" d="M2367.995 2396.87c119.166-33.183 244.724 41.533 332.353 128.843s149.76 196.456 226.903 293.154 177.426 184.981 299.7 203.723c49.603 7.603 105.979.834 139.885-36.162 37.558-40.98 35.097-105.764 14.424-157.365s-56.282-95.796-80.906-145.633c-24.974-50.55-38.308-109.405-23.286-163.75s63.569-101.46 119.94-102.453c63.452-1.115 115.668 53.842 137.92 113.275 22.167 59.208 33.625 137.335 94.23 155.337 62.984 18.71 116.585-46.305 151.758-101.801 36.999-58.379 76.614-116.503 130.126-160.24s178.257-59.591 246.566-49.058 126.966 67.156 135.5 135.742c9.33 75-78.345 121.29-78.345 121.29-143.615 72.105-232.654 122.474-254.257 235.532a159.014 159.014 0 007.021 84.72 172.17 172.17 0 0055.8 76.604 1789.489 1789.489 0 00195.11 133.529c80.2 47.425 172.793 99.577 192.638 190.612 15.07 69.127-17.901 138.855-51.788 200.963-39.094 71.658-81.825 143.296-143.51 196.76s-146.025 86.687-225.743 69.12c-81.21-17.89-142.12-82.748-201.715-140.745-68.792-66.949-99.953-156.499-190.868-187.304-118.421-40.124-195.92 48.34-195.92 48.34-89.755 77.916-168.818 176.855-268.13 242.154s-233.834 58.444-344.352 14.704c-130.305-51.563-198.28-202.427-197.727-342.565.273-69.39 13.492-141.677-11.906-206.25-38.387-97.586-149.547-142.97-218.002-222.403 0 0-293.984-250.561-149.375-495.283-.001 0 51.643-104.347 155.956-133.39z"/><path data-name="Path 6682" d="M2385.487 2412c116.782-32.52 239.829 40.702 325.704 126.264s146.763 192.526 222.364 287.289 173.878 181.286 293.701 199.65c48.612 7.452 103.86.819 137.087-35.438 36.807-40.161 34.395-103.648 14.135-154.216s-55.161-93.882-79.287-142.719c-24.475-49.539-37.542-107.216-22.82-160.474s62.296-99.431 117.542-100.403c62.183-1.093 113.356 52.765 135.162 111.009 21.723 58.024 32.953 134.587 92.345 152.23 61.723 18.335 114.253-45.38 148.722-99.77 36.258-57.21 75.076-114.171 127.522-157.033s174.69-58.399 241.632-48.077 124.427 65.812 132.789 133.027c9.144 73.499-76.779 118.864-76.779 118.864-140.741 70.666-227.995 120.027-249.17 230.83a155.829 155.829 0 006.882 83.024 168.722 168.722 0 0054.683 75.071 1753.5 1753.5 0 00191.205 130.857c78.595 46.477 169.336 97.585 188.785 186.799 14.769 67.744-17.543 136.078-50.752 196.94-38.316 70.224-80.191 140.429-140.64 192.822s-143.103 84.953-221.227 67.742c-79.584-17.534-139.282-81.094-197.68-137.93-67.412-65.607-97.952-153.365-187.046-183.554-116.051-39.32-192.002 47.372-192.002 47.372-87.962 76.358-165.44 173.314-262.764 237.31s-229.153 57.275-337.464 14.41c-127.697-50.54-194.315-198.386-193.771-335.719.268-68 13.217-138.842-11.67-202.124-37.614-95.633-146.552-140.109-213.639-217.958 0 0-288.102-245.547-146.385-485.374 0 .004 50.61-102.255 152.836-130.722z"/><path data-name="Path 6683" d="M2402.979 2427.134c114.4-31.855 234.933 39.872 319.055 123.688s143.767 188.595 217.823 281.423 170.328 177.584 287.706 195.576c47.617 7.298 101.738.798 134.287-34.718 36.057-39.341 33.694-101.532 13.847-151.068s-54.03-91.962-77.668-139.806c-23.973-48.528-36.775-105.027-22.354-157.198s61.024-97.402 115.142-98.354c60.913-1.07 111.04 51.688 132.4 108.743 21.28 56.839 32.283 131.839 90.46 149.121 60.465 17.962 111.921-44.453 145.686-97.73 35.518-56.042 73.544-111.842 124.919-153.827s171.124-57.203 236.7-47.095 121.886 64.469 130.077 130.312c8.958 72-75.205 116.437-75.205 116.437-137.865 69.222-223.346 117.575-244.083 226.113a152.649 152.649 0 006.743 81.33 165.278 165.278 0 0053.566 73.539 1717.857 1717.857 0 00187.303 128.187c76.99 45.526 165.879 95.592 184.93 182.984 14.469 66.362-17.185 133.3-49.715 192.923-37.538 68.792-78.555 137.564-137.773 188.887s-140.182 83.224-216.71 66.359c-77.96-17.18-136.435-79.437-193.647-135.115-66.039-64.269-95.954-150.236-183.23-179.808-113.68-38.518-188.08 46.406-188.08 46.406-86.162 74.798-162.062 169.775-257.4 232.465s-224.478 56.106-330.574 14.116c-125.09-49.508-190.345-194.336-189.816-328.866.263-66.613 12.952-136.008-11.43-197.999-36.847-93.68-143.561-137.248-209.278-213.503 0 0-282.22-240.535-143.4-475.462.002-.006 49.58-100.175 149.719-128.06z"/><path data-name="Path 6684" d="M2420.474 2442.269c112.013-31.193 230.036 39.041 312.405 121.109s140.771 184.67 213.285 275.56 166.777 173.881 281.709 191.499c46.626 7.146 99.618.783 131.491-33.992 35.304-38.522 32.991-99.416 13.558-147.92s-52.904-90.045-76.05-136.892c-23.475-47.516-36.009-102.84-21.888-153.923s59.754-95.37 112.744-96.303c59.643-1.048 108.726 50.608 129.642 106.477 20.836 55.655 31.608 129.091 88.574 146.014 59.204 17.587 109.589-43.526 142.651-95.693 34.778-54.875 72.015-109.51 122.315-150.622s167.558-56.014 231.766-46.113 119.347 63.124 127.368 127.596c8.77 70.498-73.644 114.01-73.644 114.01-134.995 67.779-218.687 115.126-238.996 221.4a149.467 149.467 0 006.6 79.636 161.84 161.84 0 0052.451 72.006 1681.945 1681.945 0 00183.398 125.515c75.386 44.578 162.422 93.6 181.077 179.168 14.166 64.978-16.827 130.52-48.68 188.902-36.755 67.358-76.917 134.697-134.902 184.948s-137.261 81.486-212.194 64.977c-76.336-16.818-133.591-77.783-189.608-132.3-64.668-62.93-93.954-147.105-179.412-176.06-111.312-37.716-184.162 45.438-184.162 45.438-84.37 73.24-158.682 166.236-252.036 227.62s-219.8 54.937-323.685 13.822c-122.482-48.473-186.377-190.284-185.858-322.01.257-65.221 12.684-133.172-11.192-193.871-36.079-91.727-140.568-134.387-204.917-209.055 0 0-276.339-235.52-140.41-465.555-.004 0 48.544-98.085 146.6-125.388z"/><path data-name="Path 6685" d="M2437.962 2457.403c109.629-30.527 225.14 38.21 305.757 118.533s137.774 180.733 208.748 269.693 163.227 170.183 275.71 187.424c45.633 6.994 97.498.767 128.691-33.268 34.552-37.701 32.288-97.3 13.27-144.772s-51.78-88.126-74.431-133.978c-22.976-46.504-35.243-100.65-21.423-150.647s58.48-93.34 110.344-94.253c58.374-1.03 106.412 49.534 126.882 104.21 20.394 54.465 30.936 126.343 86.69 142.905 57.94 17.213 107.256-42.6 139.614-93.655 34.038-53.707 70.478-107.18 119.712-147.417s163.992-54.822 226.834-45.131 116.806 61.78 124.657 124.878c8.582 68.998-72.076 111.584-72.076 111.584-132.122 66.336-214.032 112.674-233.909 216.688a146.283 146.283 0 006.459 77.94 158.388 158.388 0 0051.334 70.474 1646.183 1646.183 0 00179.495 122.843c73.782 43.63 158.965 91.612 177.224 175.357 13.864 63.597-16.47 127.744-47.644 184.882-35.97 65.925-75.277 131.827-132.032 181.014s-134.338 79.75-207.678 63.593c-74.71-16.46-130.747-76.126-185.572-129.482-63.282-61.593-91.95-143.975-175.59-172.314-108.943-36.914-180.24 44.471-180.24 44.471-82.576 71.68-155.308 162.699-246.671 222.776s-215.122 53.767-316.796 13.527c-119.877-47.443-182.413-186.236-181.904-315.158.253-63.838 12.412-130.338-10.955-189.746-35.31-89.775-137.578-131.527-200.556-204.605 0 0-270.458-230.508-137.42-455.647 0 0 47.512-95.997 143.476-122.719z"/><path data-name="Path 6686" d="M2455.453 2472.536c107.245-29.863 220.245 37.38 299.107 115.954s134.78 176.806 204.206 263.83 159.676 166.48 269.717 183.348c44.642 6.843 95.38.755 125.892-32.545 33.801-36.882 31.587-95.184 12.98-141.623s-50.652-86.212-72.812-131.066c-22.476-45.492-34.475-98.46-20.957-147.37s57.21-91.311 107.945-92.203c57.11-1.004 104.098 48.455 124.124 101.944 19.95 53.285 30.262 123.596 84.804 139.798 56.683 16.838 104.923-41.674 136.578-91.62 33.297-52.539 68.945-104.845 117.108-144.21s160.425-53.63 221.9-44.15 114.263 60.438 121.946 122.163c8.397 67.497-70.508 109.158-70.508 109.158-129.249 64.893-209.378 110.223-228.823 211.975a143.113 143.113 0 006.319 76.245 154.953 154.953 0 0050.218 68.94 1610.445 1610.445 0 00175.591 120.172c72.178 42.68 155.509 89.616 173.369 171.544 13.563 62.213-16.11 124.966-46.608 180.86-35.184 64.49-73.638 128.962-129.154 177.078s-131.418 78.016-203.161 62.21c-73.086-16.103-127.905-74.471-181.537-126.667-61.91-60.252-89.955-140.844-171.774-168.567-106.575-36.11-176.324 43.506-176.324 43.506-80.777 70.123-151.927 159.162-241.306 217.932s-210.443 52.598-309.906 13.233c-117.269-46.412-178.444-182.186-177.947-308.305.246-62.448 12.142-127.503-10.716-185.62-34.543-87.823-134.585-128.666-196.194-200.155 0 0-264.576-225.496-134.435-445.738.006.001 46.48-93.908 140.358-120.05z"/><path data-name="Path 6687" d="M2472.945 2487.671c104.862-29.2 215.35 36.548 292.459 113.377s131.782 172.873 199.666 257.964 156.127 162.78 263.72 179.27c43.65 6.69 93.259.735 123.094-31.821 33.05-36.063 30.885-93.073 12.69-138.475s-49.525-84.296-71.192-128.152c-21.977-44.482-33.71-96.273-20.49-144.094s55.937-89.282 105.546-90.157c55.835-.982 101.783 47.378 121.364 99.678 19.506 52.1 29.59 120.848 82.918 136.69 55.423 16.464 102.592-40.743 133.541-89.582 32.558-51.371 67.416-102.518 114.506-141.005s156.859-52.437 216.968-43.17 111.726 59.094 119.234 119.448c8.211 65.997-68.94 106.73-68.94 106.73-126.377 63.45-204.724 107.774-223.737 207.263a139.926 139.926 0 006.18 74.555 151.506 151.506 0 0049.1 67.41 1574.6 1574.6 0 00171.689 117.501c70.572 41.732 152.05 87.62 169.512 167.734 13.261 60.829-15.753 122.186-45.572 176.84-34.404 63.053-72.001 126.095-126.285 173.14s-128.496 76.281-198.645 60.827c-71.462-15.743-125.061-72.815-177.502-123.85-60.538-58.913-87.954-137.713-167.955-164.818-104.2-35.312-172.398 42.534-172.398 42.534-78.983 68.557-148.552 155.617-235.944 213.084s-205.764 51.43-303.016 12.94c-114.662-45.378-174.477-178.136-173.991-301.45.24-61.06 11.872-124.67-10.478-181.494-33.776-85.871-131.595-125.807-191.834-195.705 0 0-258.694-220.483-131.444-435.83 0 0 45.446-91.821 137.236-117.382z"/><path data-name="Path 6688" d="M2490.437 2502.806c102.477-28.536 210.452 35.717 285.808 110.8s128.788 168.942 195.127 252.098 152.575 159.078 257.726 175.196c42.657 6.538 91.137.717 120.294-31.098 32.298-35.242 30.182-90.952 12.403-135.326s-48.4-82.377-69.574-125.238c-21.477-43.47-32.943-94.083-20.026-140.818s54.667-87.25 103.145-88.103c54.566-.96 99.47 46.301 118.605 97.41 19.063 50.917 28.917 118.105 81.033 133.583 54.164 16.09 100.26-39.82 130.505-87.545 31.817-50.203 65.88-100.188 111.902-137.799s153.293-51.245 212.035-42.187 109.186 57.751 116.523 116.732c8.02 64.495-67.373 104.304-67.373 104.304-123.5 62.006-200.065 105.322-218.646 202.55a136.738 136.738 0 006.038 72.854 148.056 148.056 0 0047.985 65.876 1538.726 1538.726 0 00167.783 114.83c68.968 40.783 148.594 85.631 165.66 163.917 12.96 59.449-15.393 119.409-44.535 172.819-33.623 61.623-70.367 123.228-123.412 169.203s-125.573 74.548-194.13 59.445c-69.837-15.386-122.218-71.16-173.467-121.035-59.157-57.572-85.954-134.582-164.137-161.07-101.836-34.506-168.483 41.569-168.483 41.569-77.184 67.004-145.17 152.083-230.575 208.24s-201.087 50.261-296.127 12.646c-112.056-44.349-170.511-174.086-170.036-294.597.235-59.672 11.602-121.835-10.24-177.366-33.007-83.92-128.602-122.947-187.47-191.256 0 0-252.813-215.47-128.456-425.92 0-.005 44.411-89.734 134.115-114.714z"/><path data-name="Path 6689" d="M2507.928 2517.94c100.088-27.874 205.556 34.885 279.16 108.22s125.79 165.014 190.587 246.237 149.024 155.374 251.73 171.12c41.663 6.386 89.016.7 117.495-30.378 31.547-34.422 29.48-88.836 12.115-132.177s-47.273-80.462-67.955-122.324c-20.977-42.46-32.177-91.894-19.56-137.541s53.394-85.222 100.748-86.055c53.296-.938 97.156 45.224 115.846 95.145 18.619 49.732 28.244 115.35 79.148 130.475 52.903 15.715 97.926-38.894 127.47-85.509 31.076-49.035 64.346-97.857 109.298-134.592s149.726-50.053 207.101-41.206 106.646 56.407 113.813 114.017c7.837 63-65.805 101.877-65.805 101.877-120.629 60.566-195.415 102.872-213.562 197.838a133.561 133.561 0 005.898 71.16 144.613 144.613 0 0046.87 64.344 1503.048 1503.048 0 00163.877 112.16c67.363 39.835 145.137 83.64 161.807 160.105 12.657 58.063-15.037 116.635-43.5 168.8-32.84 60.189-68.729 120.36-120.541 165.266s-122.653 72.813-189.612 58.062c-68.212-15.028-119.375-69.505-169.43-118.22-57.781-56.234-83.955-131.45-160.316-157.325-99.467-33.701-164.564 40.604-164.564 40.604-75.394 65.44-141.8 148.541-225.217 203.392s-196.41 49.09-289.238 12.354c-109.445-43.317-166.544-170.032-166.08-287.743.23-58.284 11.328-119-10.001-173.24-32.24-81.97-125.61-120.09-183.11-186.81 0 0-246.93-210.458-125.467-416.012 0 0 43.379-87.646 130.995-112.045z"/><path data-name="Path 6690" d="M2525.42 2533.074c97.71-27.208 200.661 34.056 272.511 105.644s122.794 161.082 186.047 240.369 145.474 151.677 245.734 167.048c40.672 6.234 86.897.683 114.697-29.65 30.796-33.602 28.778-86.721 11.83-129.03s-46.148-78.547-66.333-119.41c-20.478-41.449-31.41-89.71-19.093-134.266s52.122-83.192 98.345-84.005c52.028-.915 94.843 44.147 113.087 92.88 18.168 48.54 27.562 112.595 77.253 127.361 51.642 15.34 95.593-37.967 124.433-83.472 30.335-47.867 62.816-95.525 106.695-131.388s146.164-48.86 202.168-40.224 104.106 55.063 111.107 111.3c7.65 61.496-64.24 99.452-64.24 99.452-117.755 59.123-190.759 100.422-208.479 193.127a130.378 130.378 0 005.757 69.466 141.17 141.17 0 0045.753 62.81 1467.217 1467.217 0 00159.978 109.486c65.76 38.882 141.68 81.647 157.953 156.29 12.358 56.681-14.677 113.853-42.463 164.778-32.058 58.755-67.09 117.494-117.67 161.331s-119.729 71.08-185.093 56.679c-66.587-14.67-116.532-67.848-165.394-115.404-56.409-54.893-81.956-128.32-156.5-153.577-97.098-32.9-160.644 39.636-160.644 39.636-73.596 63.887-138.418 145.007-219.851 198.551s-191.73 47.922-282.348 12.057c-106.842-42.285-162.578-165.985-162.125-280.887.225-56.895 11.063-116.167-9.763-169.113-31.472-80.015-122.621-117.226-178.748-182.358 0 0-241.05-205.445-122.48-406.102.002-.002 42.346-85.562 127.877-109.379z"/><path data-name="Path 6691" d="M2542.913 2548.209c95.325-26.546 195.76 33.223 265.858 103.065s119.8 157.152 181.51 234.505 141.93 147.976 239.738 162.968c39.68 6.083 84.777.666 111.9-28.928 30.043-32.784 28.074-84.605 11.537-125.882s-45.022-76.627-64.718-116.498c-19.979-40.437-30.645-87.517-18.628-130.99s50.85-81.162 95.95-81.954c50.759-.892 92.529 43.07 110.327 90.617 17.733 47.362 26.903 109.859 75.378 124.26 50.379 14.966 93.261-37.04 121.396-81.435 29.597-46.698 61.283-93.194 104.095-128.18s142.594-47.67 197.236-39.243 101.566 53.716 108.39 108.585c7.463 59.994-62.67 97.023-62.67 97.023-114.883 57.681-186.106 97.972-203.39 188.415a127.2 127.2 0 005.617 67.77 137.735 137.735 0 0044.634 61.278 1431.467 1431.467 0 00156.074 106.815c64.155 37.936 138.224 79.655 154.1 152.477 12.054 55.297-14.32 111.071-41.428 160.757-31.275 57.321-65.456 114.628-114.798 157.395s-116.81 69.344-180.58 55.295c-64.96-14.312-113.687-66.192-161.359-112.588-55.028-53.554-79.955-125.189-152.68-149.83-94.729-32.096-156.724 38.668-156.724 38.668-71.806 62.323-135.047 141.464-214.49 193.703s-187.053 46.753-275.46 11.76c-104.234-41.253-158.61-161.935-158.17-274.036.219-55.506 10.793-113.332-9.524-164.987-30.703-78.06-119.625-114.367-174.387-177.905 0 0-235.167-200.431-119.49-396.193 0-.001 41.312-83.472 124.756-106.707z"/><path data-name="Path 6692" d="M2560.404 2563.343c92.94-25.88 190.867 32.394 259.211 100.489s116.802 153.22 176.968 228.639 138.38 144.275 233.743 158.892c38.687 5.93 82.656.65 109.1-28.205 29.292-31.962 27.374-82.491 11.25-122.733s-43.896-74.713-63.1-113.578c-19.48-39.426-29.88-85.328-18.163-127.713s49.579-79.135 93.546-79.905c49.488-.87 90.213 41.995 107.568 88.345 17.291 46.175 26.227 107.107 73.498 121.147 49.123 14.593 90.929-36.115 118.36-79.398 28.856-45.532 59.75-90.864 101.488-124.976s139.029-46.477 192.303-38.261 99.025 52.376 105.68 105.868c7.277 58.494-61.104 94.598-61.104 94.598-112.009 56.238-181.45 95.523-198.297 183.702a124.018 124.018 0 005.476 66.075 134.287 134.287 0 0043.52 59.747 1395.631 1395.631 0 00152.163 104.14c62.55 36.99 134.766 77.664 150.245 148.664 11.754 53.915-13.962 108.297-40.39 156.738-30.493 55.888-63.817 111.76-111.928 153.458s-113.894 67.61-176.064 53.913c-63.338-13.953-110.844-64.539-157.326-109.772-53.65-52.215-77.955-122.058-148.862-146.083-92.36-31.293-152.802 37.702-152.802 37.702-70.004 60.764-131.665 137.931-209.121 188.863s-182.374 45.582-268.57 11.469c-101.628-40.223-154.644-157.883-154.213-267.183.213-54.117 10.522-110.497-9.287-160.86-29.936-76.11-116.635-111.506-170.026-173.46 0 0-229.286-195.417-116.5-386.284-.001.001 40.277-81.383 121.634-104.038z"/><path data-name="Path 6693" d="M2577.895 2578.477c90.556-25.216 185.972 31.562 252.562 97.91s113.805 149.292 172.428 222.771 134.83 140.58 227.747 154.82c37.695 5.777 80.536.634 106.302-27.48 28.542-31.142 26.672-80.373 10.96-119.586s-42.77-72.797-61.48-110.67c-18.978-38.417-29.111-83.14-17.697-124.437s48.307-77.103 91.147-77.856c48.219-.849 87.9 40.915 104.809 86.08 16.845 44.992 25.553 104.362 71.607 118.043 47.863 14.218 88.596-35.188 115.324-77.362 28.116-44.363 58.218-88.532 98.886-121.77s135.46-45.284 187.37-37.28 96.484 51.033 102.969 103.153c7.09 56.994-59.536 92.171-59.536 92.171-109.136 54.798-176.796 93.074-193.21 178.992a120.84 120.84 0 005.335 64.38 130.848 130.848 0 0042.404 58.215 1359.821 1359.821 0 00148.267 101.47c60.946 36.04 131.31 75.671 146.39 144.85 11.453 52.527-13.602 105.519-39.354 152.717-29.711 54.454-62.18 108.893-109.056 149.52s-110.966 65.876-171.547 52.53c-61.713-13.596-108-62.887-153.288-106.953-52.279-50.871-75.957-118.928-145.044-142.336-89.993-30.49-148.885 36.735-148.885 36.735-68.208 59.21-128.287 134.393-203.756 184.018s-177.696 44.413-261.681 11.173c-99.02-39.19-150.676-153.835-150.257-260.328.208-52.731 10.254-107.663-9.047-156.735-29.169-74.157-113.644-108.644-165.664-169.01 0 0-223.406-190.405-113.514-376.374-.005-.005 39.24-79.296 118.509-101.37z"/><path data-name="Path 6694" d="M2595.387 2593.612c88.173-24.553 181.076 30.733 245.914 95.333s110.81 145.364 167.889 216.909 131.28 136.873 221.75 150.735c36.703 5.626 78.416.618 103.504-26.757 27.79-30.322 25.969-78.257 10.672-116.44s-41.644-70.877-59.862-107.755c-18.48-37.403-28.345-80.95-17.23-121.161s47.035-75.073 88.747-75.806c46.95-.827 85.585 39.838 102.049 83.813 16.402 43.81 24.88 101.615 69.722 114.936 46.603 13.844 86.265-34.266 112.288-75.325 27.38-43.195 56.683-86.202 96.281-118.563s131.897-44.092 182.438-36.3 93.944 49.69 100.258 100.439c6.904 55.493-57.969 89.745-57.969 89.745-106.263 53.352-172.14 90.62-188.128 174.277a117.656 117.656 0 005.195 62.685 127.394 127.394 0 0041.288 56.68 1323.9 1323.9 0 00144.36 98.8c59.34 35.09 127.851 73.679 142.535 141.036 11.15 51.149-13.246 102.742-38.318 148.697-28.93 53.02-60.544 106.027-106.186 145.585s-108.045 64.142-167.03 51.146c-60.088-13.238-105.159-61.226-149.252-104.14-50.9-49.536-73.957-115.795-141.226-138.589-87.62-29.684-144.964 35.767-144.964 35.767-66.41 57.66-124.906 130.864-198.39 179.182s-173.018 43.245-254.79 10.881c-96.414-38.157-146.709-149.786-146.301-253.475.202-51.342 9.984-104.829-8.81-152.608-28.404-72.205-110.651-105.785-161.303-164.56 0 0-217.523-185.393-110.525-366.467 0 0 38.215-77.205 115.394-98.7z"/><path data-name="Path 6695" d="M2612.88 2608.746c85.788-23.888 176.179 29.9 239.264 92.755s107.812 141.43 163.348 211.043 127.73 133.174 215.755 146.665c35.71 5.473 76.295.6 100.704-26.034 27.04-29.502 25.267-76.14 10.384-113.287s-40.518-68.964-58.243-104.842c-17.98-36.391-27.58-78.762-16.764-117.886s45.763-73.042 86.347-73.756c45.68-.804 83.271 38.76 99.29 81.546 15.953 42.626 24.207 98.87 67.836 111.83 45.343 13.47 83.93-33.336 109.253-73.289 26.635-42.027 55.15-83.87 93.675-115.357s128.328-42.9 177.505-35.317 91.404 48.346 97.547 97.721c6.718 53.994-56.4 87.318-56.4 87.318-103.39 51.914-167.488 88.171-183.043 169.565a114.472 114.472 0 005.058 60.99 123.954 123.954 0 0040.171 55.148 1288.325 1288.325 0 00140.46 96.133c57.737 34.14 124.396 71.686 138.683 137.222 10.849 49.766-12.887 99.963-37.283 144.676-28.146 51.587-58.905 103.159-103.313 141.648s-105.125 62.407-162.515 49.764c-58.464-12.881-102.314-59.572-145.216-101.325-49.523-48.196-71.957-112.665-137.407-134.84-85.254-28.889-141.048 34.796-141.048 34.796-64.616 56.093-121.531 127.319-193.03 174.329s-168.336 42.077-247.899 10.586c-93.807-37.126-142.742-145.735-142.343-246.621.197-49.954 9.712-101.994-8.573-148.482-27.633-70.251-107.66-102.923-156.942-160.11 0 0-211.641-180.38-107.536-356.556 0-.001 37.178-75.122 112.274-96.033z"/><path data-name="Path 6696" d="M2630.371 2623.88c83.404-23.225 171.284 29.07 232.614 90.178s104.817 137.5 158.81 205.177 124.18 129.472 209.76 142.59c34.713 5.321 74.174.583 97.903-25.31 26.287-28.684 24.565-74.025 10.095-110.14s-39.392-67.048-56.628-101.929c-17.48-35.38-26.813-76.574-16.299-114.61s44.492-71.011 83.948-71.706c44.41-.78 80.957 37.684 96.53 79.28 15.515 41.441 23.535 96.122 65.952 108.721 44.083 13.095 81.599-32.409 106.216-71.251 25.895-40.86 53.619-81.54 91.075-112.152s124.763-41.708 172.572-34.336 88.865 47.003 94.837 95.006c6.53 52.492-54.834 84.892-54.834 84.892-100.516 50.466-162.833 85.72-177.955 164.852a111.294 111.294 0 004.914 59.295 120.5 120.5 0 0039.055 53.615 1252.423 1252.423 0 00136.557 93.453c56.132 33.197 120.938 69.694 134.83 133.41 10.55 48.383-12.53 97.184-36.249 140.654-27.365 50.153-57.267 100.293-100.442 137.712s-102.203 60.672-157.997 48.38c-56.84-12.522-99.47-57.916-141.182-98.508-48.148-46.858-69.957-109.534-133.588-131.094-82.879-28.076-137.122 33.836-137.122 33.836-62.821 54.534-118.155 123.779-187.664 169.484s-163.661 40.91-241.013 10.295c-91.204-36.095-138.775-141.684-138.389-239.767.189-48.567 9.44-99.16-8.333-144.355-26.864-68.3-104.671-100.064-152.58-155.66 0 0-205.76-175.367-104.548-346.65 0 0 36.145-73.032 109.155-93.362z"/><path data-name="Path 6697" d="M2647.861 2639.015c81.02-22.562 166.388 28.238 225.966 87.598s101.82 133.57 154.272 199.315 120.63 125.77 203.762 138.513c33.721 5.164 72.055.566 95.107-24.587 25.535-27.863 23.863-71.91 9.807-106.992s-38.267-65.127-55.008-99.015c-16.98-34.368-26.045-74.384-15.832-111.333s43.217-68.984 81.549-69.657c43.14-.758 78.638 36.607 93.77 77.015 15.073 40.256 22.863 93.373 64.068 105.613 42.823 12.718 79.266-31.483 103.18-69.216 25.154-39.69 52.086-79.21 88.472-108.945s121.196-40.516 167.635-33.355 86.325 45.659 92.125 92.29c6.344 50.992-53.266 82.464-53.266 82.464-97.644 49.025-158.178 83.27-172.868 160.14a108.111 108.111 0 004.774 57.602 117.057 117.057 0 0037.938 52.082 1216.61 1216.61 0 00132.653 90.786c54.528 32.244 117.482 67.702 130.98 129.596 10.246 47-12.172 94.407-35.212 136.635-26.581 48.72-55.631 97.427-97.57 133.775s-99.28 58.938-153.48 46.998c-55.214-12.164-96.628-56.26-137.145-95.693-46.772-45.518-67.959-106.4-129.77-127.346-80.513-27.282-133.206 32.867-133.206 32.867-61.026 52.972-114.778 120.24-182.3 164.639s-158.988 39.736-234.128 9.997c-88.593-35.065-134.808-137.639-134.433-232.914.185-47.178 9.173-96.324-8.096-140.228-26.094-66.343-101.675-97.203-148.218-151.21 0 0-199.877-170.357-101.558-336.739 0-.001 35.11-70.948 106.032-90.695z"/><path data-name="Path 6698" d="M2665.355 2654.149c78.636-21.898 161.49 27.406 219.316 85.022s98.824 129.639 149.73 193.448 117.082 122.07 197.767 134.437c32.73 5.017 69.932.55 92.308-23.863 24.784-27.043 23.16-69.792 9.518-103.843s-37.14-63.214-53.387-96.1c-16.48-33.358-25.28-72.196-15.367-108.057s41.949-66.953 79.149-67.608c41.871-.736 76.33 35.53 91.012 74.75 14.628 39.07 22.19 90.625 62.181 102.504 41.562 12.347 76.933-30.556 100.143-67.178 24.416-38.522 50.554-76.878 85.87-105.74s117.63-39.323 162.705-32.372 83.784 44.314 89.415 89.574c6.157 49.491-51.7 80.038-51.7 80.038-94.77 47.583-153.523 80.82-167.78 155.429a104.932 104.932 0 004.632 55.905 113.617 113.617 0 0036.823 50.55 1180.713 1180.713 0 00128.75 88.114c52.923 31.295 114.024 65.714 127.12 125.783 9.941 45.617-11.813 91.63-34.176 132.613-25.799 47.287-53.995 94.564-94.7 129.839s-96.36 57.204-148.965 45.62c-53.59-11.807-93.785-54.606-133.11-92.877-45.395-44.174-65.957-103.271-125.951-123.599-78.143-26.477-129.286 31.898-129.286 31.898-59.23 51.417-111.4 116.704-176.935 159.795s-154.305 38.566-227.23 9.703c-85.986-34.031-130.841-133.585-130.477-226.06.18-45.79 8.903-93.49-7.857-136.102-25.333-64.401-98.685-94.35-143.861-146.767 0 0-193.997-165.341-98.571-326.83 0-.004 34.078-68.858 102.914-88.026z"/><path data-name="Path 6699" d="M2682.846 2669.284c76.252-21.233 156.595 26.576 212.667 82.443s95.824 125.71 145.191 187.584 113.531 118.37 191.771 130.361c31.738 4.865 67.814.532 89.51-23.14 24.033-26.223 22.458-67.676 9.23-100.695s-36.012-61.297-51.77-93.187c-15.982-32.347-24.513-70.006-14.9-104.78s40.676-64.921 76.75-65.559c40.6-.714 74.014 34.453 88.252 72.483 14.184 37.882 21.516 87.878 60.296 99.397 40.302 11.973 74.6-29.629 97.108-65.141 23.674-37.356 49.02-74.549 83.264-102.535s114.064-38.13 157.774-31.39 81.244 42.971 86.704 86.86c5.967 47.99-50.136 77.61-50.136 77.61-91.897 46.139-148.87 78.37-162.695 150.718a101.742 101.742 0 004.493 54.21 110.168 110.168 0 0035.705 49.017 1145.063 1145.063 0 00124.843 85.443c51.319 30.346 110.567 63.717 123.267 121.969 9.643 44.233-11.455 88.851-33.14 128.594-25.018 45.852-52.357 91.692-91.828 125.9s-93.433 55.47-144.444 44.231c-51.964-11.452-90.94-52.948-129.074-90.06-44.019-42.839-63.958-100.14-122.137-119.851-75.774-25.676-125.363 30.93-125.363 30.93-57.433 49.858-108.02 113.17-171.569 154.951s-149.626 37.397-220.345 9.409c-83.38-32.997-126.873-129.535-126.517-219.206.176-44.4 8.634-90.655-7.618-131.975-24.56-62.444-95.692-91.483-139.495-142.312 0 0-188.114-160.329-95.582-316.921-.006-.002 33.04-66.772 99.788-85.358z"/><path data-name="Path 6700" d="M2700.337 2684.418c73.868-20.57 151.7 25.744 206.019 79.865s92.834 121.779 140.65 181.721 109.983 114.667 185.775 126.284c30.746 4.713 65.694.517 86.711-22.416 23.282-25.404 21.756-65.56 8.94-97.547s-34.887-59.378-50.15-90.274c-15.482-31.336-23.747-67.822-14.436-101.504s39.405-62.894 74.35-63.509c39.332-.69 71.7 33.375 85.492 70.217 13.742 36.702 20.845 85.13 58.412 96.29 39.042 11.597 72.268-28.704 94.071-63.105 22.934-36.188 47.488-72.217 80.661-99.329s110.497-36.939 152.84-30.412 78.704 41.628 83.993 84.144c5.784 46.49-48.563 75.184-48.563 75.184-89.024 44.699-144.214 75.92-157.607 146.004a98.567 98.567 0 004.352 52.515 106.72 106.72 0 0034.589 47.486 1109.135 1109.135 0 00120.943 82.77c49.714 29.398 107.11 61.723 119.412 118.155 9.342 42.851-11.096 86.074-32.102 124.574-24.235 44.417-50.72 88.825-88.958 121.966s-90.517 53.736-139.93 42.85c-50.34-11.091-88.098-51.294-125.039-87.245-42.644-41.499-61.96-97.009-118.313-116.102-73.406-24.872-121.446 29.964-121.446 29.964-55.645 48.296-104.648 109.624-166.21 150.109s-144.948 36.228-213.456 9.115c-80.772-31.972-122.907-125.49-122.565-212.357.17-43.013 8.363-87.822-7.381-127.85-23.792-60.49-92.7-88.623-135.133-137.862 0 0-182.233-155.315-92.594-307.012 0-.001 32.012-64.683 96.673-82.69z"/><path data-name="Path 6701" d="M2717.83 2699.553c71.483-19.906 146.802 24.915 199.368 77.288s89.836 117.848 136.112 175.854 106.432 110.967 179.78 122.209c29.754 4.561 63.573.5 83.912-21.693 22.531-24.588 21.054-63.444 8.652-94.398s-33.762-57.464-48.532-87.36c-14.983-30.32-22.978-65.628-13.969-98.229s38.132-60.863 71.95-61.458c38.063-.67 69.385 32.298 82.734 67.951 13.297 35.514 20.17 82.382 56.525 93.182 37.783 11.223 69.936-27.777 91.035-61.068 22.197-35.02 45.956-69.887 78.059-96.124s106.93-35.746 147.907-29.428 76.162 40.284 81.28 81.428c5.598 44.99-46.995 72.757-46.995 72.757-86.15 43.254-139.565 73.469-152.52 141.291a95.385 95.385 0 004.21 50.818 103.287 103.287 0 0033.477 45.953 1073.412 1073.412 0 00117.04 80.1c48.109 28.449 103.652 59.732 115.558 114.339 9.04 41.467-10.737 83.295-31.066 120.552-23.456 42.984-49.084 85.958-86.087 118.029s-87.596 52.001-135.416 41.466c-48.716-10.733-85.255-49.638-121.006-84.429-41.266-40.16-59.958-93.878-114.495-112.36-71.037-24.07-117.527 28.997-117.527 28.997-53.842 46.74-101.268 106.087-160.842 145.261s-140.269 35.059-206.566 8.821c-78.167-30.928-118.94-121.426-118.612-205.49.164-41.625 8.094-84.988-7.142-123.724-23.024-58.537-89.707-85.766-130.772-133.412 0 0-176.35-150.303-89.605-297.104-.001 0 30.979-62.595 93.553-80.02z"/><path data-name="Path 6702" d="M2735.32 2714.686c69.1-19.242 141.907 24.083 192.72 74.71s86.84 113.918 131.572 169.992 102.882 107.266 173.783 118.133c28.762 4.41 61.452.488 81.114-20.968 21.779-23.763 20.352-61.33 8.363-91.25s-32.636-55.548-46.914-84.447c-14.481-29.312-22.214-63.44-13.503-94.952s36.86-58.834 69.55-59.408c36.793-.647 67.072 31.22 79.974 65.684 12.854 34.333 19.499 79.635 54.641 90.075 36.522 10.849 67.604-26.85 88-59.032 21.453-33.851 44.42-67.555 75.455-92.916s103.362-34.554 142.973-28.446 73.624 38.94 78.572 78.711c5.41 43.49-45.43 70.33-45.43 70.33-83.276 41.812-134.905 71.02-147.433 136.58a92.205 92.205 0 004.07 49.126 99.83 99.83 0 0032.357 44.42 1037.645 1037.645 0 00113.137 77.428c46.505 27.5 100.196 57.741 111.704 110.529 8.739 40.084-10.381 80.517-30.03 116.53-22.672 41.553-47.446 83.094-83.216 114.094s-84.675 50.268-130.9 40.083c-47.09-10.375-82.41-47.982-116.967-81.613-39.889-38.82-57.959-90.748-110.676-108.61-68.667-23.266-113.607 28.03-113.607 28.03-52.047 45.18-97.892 102.55-155.474 140.418s-135.594 33.889-199.68 8.525c-75.559-29.904-114.976-117.385-114.655-198.645.159-40.236 7.823-82.155-6.905-119.597-22.257-56.586-86.716-82.902-126.412-128.963 0 0-170.47-145.29-86.617-287.195.002-.005 29.948-60.513 90.435-77.356z"/><path data-name="Path 6703" d="M2752.812 2729.82c66.716-18.577 137.012 23.254 186.07 72.134s83.844 109.987 127.034 164.123 99.332 103.567 167.786 114.058c27.77 4.257 59.334.467 78.316-20.245 21.027-22.943 19.65-59.213 8.075-88.102s-31.51-53.629-45.295-81.534c-13.983-28.3-21.448-61.25-13.037-91.676s35.59-56.803 67.15-57.356c35.525-.623 64.756 30.144 77.216 63.418 12.41 33.146 18.825 76.887 52.755 86.967 35.261 10.474 65.267-25.925 84.963-56.995 20.713-32.684 42.89-65.224 72.852-89.711s99.797-33.363 138.04-27.466 71.084 37.597 75.86 75.996c5.224 41.989-43.861 67.906-43.861 67.906-80.404 40.369-130.25 68.568-142.345 131.867a89.027 89.027 0 003.93 47.43 96.393 96.393 0 0031.241 42.884 1001.73 1001.73 0 00109.233 74.757c44.9 26.55 96.738 55.749 107.85 106.714 8.437 38.702-10.023 77.74-28.995 112.51-21.888 40.118-45.807 80.226-80.344 110.157s-81.753 48.533-126.384 38.7c-45.466-10.016-79.562-46.326-112.931-78.797-38.514-37.478-55.959-87.617-106.859-104.863-66.294-22.463-109.687 27.063-109.687 27.063-50.253 43.624-94.518 99.014-150.116 135.574s-130.913 32.72-192.787 8.229c-72.951-28.87-111.01-113.332-110.698-191.79.153-38.847 7.551-79.318-6.662-115.47-21.49-54.633-83.72-80.042-122.05-124.518 0 0-164.588-140.276-83.627-277.287-.005.003 28.908-58.413 87.307-74.676z"/><path data-name="Path 6704" d="M2770.303 2744.955c64.332-17.913 132.115 22.422 179.42 69.555s80.85 106.056 122.495 158.26 95.783 99.864 161.791 109.982c26.78 4.104 57.208.45 75.517-19.523 20.276-22.123 18.947-57.096 7.786-84.954s-30.383-51.714-43.676-78.619c-13.483-27.289-20.681-59.062-12.571-88.4s34.317-54.774 64.75-55.31c34.255-.602 62.444 29.067 74.457 61.152 11.966 31.963 18.152 74.14 50.874 83.859 34.002 10.096 62.939-24.999 81.927-54.958 19.973-31.516 41.357-62.893 70.248-86.504s96.232-32.166 133.108-26.48 68.543 36.254 73.149 73.281c5.037 40.49-42.295 65.478-42.295 65.478-77.53 38.927-125.596 66.118-137.26 127.155a85.839 85.839 0 003.79 45.736 92.948 92.948 0 0030.124 41.355 965.976 965.976 0 00105.328 72.085c43.295 25.603 93.277 53.757 103.996 102.905 8.136 37.319-9.665 74.962-27.958 108.49-21.107 38.685-44.173 77.36-77.473 106.22s-78.832 46.799-121.868 37.318c-43.842-9.66-76.724-44.672-108.896-75.982-37.138-36.141-53.96-84.486-103.04-101.115-63.929-21.66-105.768 26.096-105.768 26.096-48.452 42.063-91.135 95.475-144.749 130.727s-126.235 31.551-185.898 7.938c-70.344-27.84-107.038-109.285-106.743-184.938.148-37.46 7.283-76.484-6.427-111.344-20.722-52.681-80.733-77.182-117.689-120.064 0 0-158.707-135.265-80.64-267.377-.001-.01 27.878-56.343 84.191-72.024z"/><path data-name="Path 6705" d="M2787.796 2760.089c61.948-17.253 127.219 21.595 172.772 66.978s77.852 102.126 117.957 152.394 92.233 96.163 155.792 105.906c25.787 3.952 55.093.434 72.718-18.798 19.525-21.304 18.246-54.981 7.498-81.806s-29.258-49.798-42.058-75.706c-12.983-26.277-19.914-56.873-12.105-85.125s33.046-52.744 62.351-53.259c32.985-.58 60.13 27.99 71.697 58.886 11.523 30.779 17.48 71.393 48.986 80.75 32.743 9.727 60.606-24.07 78.892-52.925 19.233-30.348 39.821-60.564 67.644-83.3s92.666-30.978 128.175-25.501 66.003 34.91 70.438 70.564c4.85 38.987-40.726 63.052-40.726 63.052-74.658 37.483-120.942 63.667-132.173 122.442a82.649 82.649 0 003.65 44.04 89.5 89.5 0 0029.007 39.821 930.26 930.26 0 00101.425 69.414c41.692 24.654 89.825 51.764 100.142 99.088 7.835 35.934-9.306 72.184-26.922 104.47-20.325 37.25-42.534 74.491-74.602 102.283s-75.91 45.065-117.35 35.935c-42.217-9.3-73.88-43.017-104.86-73.166-35.76-34.803-51.96-81.355-99.221-97.369-61.56-20.858-101.848 25.13-101.848 25.13-46.66 40.504-87.758 91.935-139.385 125.884s-121.56 30.385-179.012 7.647c-67.738-26.81-103.074-105.234-102.787-178.084.141-36.072 7.013-73.65-6.19-107.218-19.953-50.73-77.74-74.319-113.326-115.615 0 0-152.826-130.252-77.652-257.469 0 .001 26.847-54.243 81.073-69.343z"/><path data-name="Path 6706" d="M2805.288 2775.224c59.563-16.586 122.323 20.76 166.122 64.4s74.855 98.196 113.418 146.528 88.684 92.463 149.8 101.831c24.795 3.8 52.972.416 69.92-18.076 18.774-20.483 17.543-52.865 7.204-78.657s-28.129-47.879-40.44-72.793c-12.482-25.266-19.147-54.685-11.638-81.848s31.774-50.714 59.952-51.21c31.716-.557 57.816 26.912 68.938 56.619 11.08 29.594 16.808 68.64 47.098 77.642 31.482 9.352 58.274-23.145 75.855-50.884 18.493-29.181 38.292-58.232 65.045-80.093s89.095-29.786 123.243-24.52 63.462 33.566 67.732 67.848c4.664 37.488-39.16 60.625-39.16 60.625-71.784 36.042-116.286 61.218-127.086 117.73a79.478 79.478 0 003.51 42.348 86.066 86.066 0 0027.891 38.29 894.373 894.373 0 0097.523 66.742c40.087 23.705 86.368 49.772 96.288 95.275 7.533 34.553-8.947 69.405-25.885 100.45-19.546 35.816-40.895 71.62-71.735 98.346s-72.988 43.33-112.835 34.551c-40.59-8.942-71.037-41.356-100.824-70.35-34.385-33.463-49.965-78.223-95.402-93.62-59.19-20.056-97.924 24.162-97.924 24.162-44.864 38.946-84.38 88.397-134.02 121.038s-116.88 29.212-172.12 7.349c-65.13-25.777-99.107-101.185-98.83-171.23.136-34.683 6.743-70.815-5.953-103.092-19.185-48.776-74.748-71.46-108.965-111.164 0 0-146.944-125.239-74.663-247.56-.012-.001 25.801-52.158 77.941-66.677z"/><path data-name="Path 6707" d="M2822.783 2790.358c57.179-15.922 117.426 19.929 159.476 61.822s71.86 94.265 108.875 140.664 85.134 88.761 143.803 97.754c23.804 3.648 50.852.4 67.121-17.352 18.022-19.664 16.841-50.75 6.921-75.508s-27.006-45.966-38.82-69.879c-11.983-24.255-18.383-52.495-11.173-78.57s30.501-48.684 57.551-49.16c30.447-.535 55.501 25.835 66.178 54.35 10.636 28.41 16.135 65.896 45.211 74.535 30.221 8.978 55.941-22.22 72.818-48.848 17.753-28.012 36.759-55.902 62.437-76.888s85.533-28.593 118.31-23.54 60.922 32.224 65.015 65.134c4.476 35.986-37.593 58.198-37.593 58.198-68.91 34.598-111.632 58.767-122 113.018a76.3 76.3 0 003.373 40.651 82.613 82.613 0 0026.774 36.758 858.648 858.648 0 0093.619 64.071c38.482 22.756 82.91 47.78 92.434 91.46 7.23 33.17-8.59 66.628-24.85 96.43-18.76 34.383-39.26 68.757-68.86 94.41s-70.066 41.596-108.317 33.169c-38.967-8.585-68.197-39.706-96.79-67.534-33.008-32.123-47.959-75.093-91.583-89.873-56.821-19.252-94.01 23.199-94.01 23.199-43.067 37.387-81.002 84.856-128.655 116.192s-112.2 28.042-165.23 7.056c-62.526-24.746-95.14-97.135-94.874-164.377.13-33.295 6.474-67.98-5.71-98.964-18.417-46.824-71.757-68.6-104.605-106.715 0 0-141.057-120.226-71.673-237.652-.01-.005 24.77-50.074 74.827-64.01z"/><path data-name="Path 6708" d="M2840.27 2805.493c54.799-15.259 112.53 19.096 152.824 59.245s68.867 90.336 104.335 134.799 81.585 85.06 137.808 93.678c22.811 3.5 48.73.383 64.322-16.628 17.27-18.842 16.139-48.633 6.632-72.36s-25.88-44.05-37.202-66.965c-11.485-23.245-17.616-50.308-10.708-75.297s29.225-46.654 55.152-47.11c29.176-.512 53.187 24.758 63.421 52.088 10.193 27.224 15.462 63.148 43.33 71.427 28.962 8.603 53.61-21.292 69.783-46.811 17.014-26.844 35.223-53.573 59.834-73.683s81.968-27.4 113.377-22.557 58.382 30.879 62.306 62.417c4.29 34.484-36.025 55.772-36.025 55.772-66.038 33.157-106.978 56.317-116.913 108.309a73.119 73.119 0 003.228 38.956 79.172 79.172 0 0025.658 35.224 822.775 822.775 0 0089.713 61.395c36.878 21.808 79.455 45.788 88.58 87.648 6.93 31.786-8.232 63.849-23.814 92.408-17.978 32.95-37.624 65.89-65.989 90.474s-67.144 39.861-103.802 31.784c-37.342-8.225-65.35-38.05-92.753-64.717-31.63-30.782-45.96-71.962-87.765-86.126-54.453-18.45-90.09 22.227-90.09 22.227-41.271 35.83-77.625 81.32-123.29 111.348s-107.527 26.874-158.341 6.761c-59.917-23.713-91.173-93.086-90.92-157.525.127-31.907 6.205-65.146-5.475-94.838-17.649-44.873-68.765-65.74-100.241-102.266 0 0-135.181-115.21-68.687-227.746 0 .004 23.747-47.974 71.713-61.331z"/><path data-name="Path 6709" d="M2857.764 2820.627c52.41-14.596 107.634 18.267 146.173 56.663s65.867 86.405 99.796 128.937 78.035 81.36 131.812 89.602c21.82 3.344 46.612.367 61.524-15.905 16.519-18.024 15.437-46.516 6.344-69.211s-24.755-42.13-35.584-64.051c-10.985-22.233-16.848-48.119-10.241-72.02s27.958-44.625 52.753-45.06c27.907-.492 50.872 23.68 60.66 49.82 9.748 26.043 14.788 60.402 41.443 68.32 27.702 8.228 51.277-20.367 66.746-44.775 16.273-25.676 33.694-51.24 57.231-70.48s78.4-26.208 108.443-21.575 55.842 29.535 59.596 59.702c4.104 32.986-34.458 53.346-34.458 53.346-63.166 31.713-102.324 53.866-111.826 103.592a69.936 69.936 0 003.087 37.261 75.724 75.724 0 0024.542 33.694 786.994 786.994 0 0085.812 58.73c35.273 20.858 75.997 43.794 84.725 83.833 6.629 30.403-7.873 61.071-22.777 88.387-17.195 31.517-35.984 63.025-63.118 86.538s-64.224 38.127-99.286 30.402c-35.717-7.87-62.506-36.393-88.718-61.902-30.255-29.445-43.96-68.834-83.946-82.379-52.082-17.647-86.169 21.261-86.169 21.261-39.476 34.27-74.248 77.783-117.927 106.504s-102.844 25.705-151.452 6.467c-57.31-22.682-87.202-89.035-86.964-150.67.121-30.519 5.934-62.311-5.237-90.712-16.881-42.92-65.774-62.88-95.88-97.816 0 0-129.299-110.2-65.698-217.834-.002-.001 22.715-45.894 68.594-58.669z"/><path data-name="Path 6710" d="M2875.25 2835.762c50.026-13.932 102.734 17.435 139.525 54.088s62.876 82.475 95.26 123.069 74.486 77.658 125.816 85.527c20.828 3.191 44.491.35 58.725-15.182 15.767-17.204 14.733-44.4 6.055-66.063s-23.627-40.216-33.965-61.138c-10.484-21.222-16.082-45.934-9.776-68.744s26.687-42.594 50.353-43.01c26.637-.47 48.558 22.603 57.9 47.554 9.305 24.856 14.112 57.654 39.558 65.213 26.44 7.854 48.944-19.44 63.71-42.738 15.532-24.507 32.16-48.909 54.625-67.27s74.833-25.017 103.51-20.595 53.302 28.193 56.884 56.986c3.913 31.485-32.89 50.918-32.89 50.918-60.29 30.268-97.668 51.413-106.738 98.882a66.754 66.754 0 002.948 35.566 72.279 72.279 0 0023.425 32.16 751.176 751.176 0 0081.909 56.055c33.669 19.91 72.54 41.804 80.872 80.022 6.327 29.02-7.515 58.293-21.738 84.366-16.414 30.083-34.35 60.157-60.247 82.598s-61.302 36.393-94.769 29.02c-34.092-7.511-59.664-34.738-84.685-59.087-28.88-28.106-41.96-65.699-80.128-78.63-49.714-16.846-82.25 20.292-82.25 20.292-37.681 32.71-70.87 74.244-112.565 101.659s-98.166 24.536-144.563 6.172c-54.703-21.65-83.24-84.984-83.008-143.814.115-29.13 5.662-59.477-4.998-86.586-16.114-40.968-62.78-60.02-91.52-93.367 0 0-123.417-105.188-62.708-207.924.007 0 21.686-43.805 65.473-56z"/><path data-name="Path 6711" d="M2892.746 2850.895c47.641-13.267 97.842 16.605 132.876 51.511s59.875 78.544 90.717 117.204 70.935 73.958 119.82 81.45c19.836 3.04 42.37.334 55.926-14.457 15.016-16.385 14.033-42.284 5.767-62.915s-22.502-38.3-32.346-58.225c-9.985-20.21-15.316-43.74-9.31-65.467s25.414-40.565 47.953-40.961c25.368-.447 46.244 21.526 55.141 45.288 8.862 23.675 13.443 54.906 37.673 62.104 25.18 7.48 46.61-18.513 60.673-40.701 14.792-23.339 30.623-46.577 52.024-64.064s71.268-23.825 98.578-19.613 50.761 26.849 54.172 54.27c3.73 29.984-31.323 48.492-31.323 48.492-57.418 28.828-93.014 48.966-101.652 94.167a63.571 63.571 0 002.811 33.876 68.835 68.835 0 0022.309 30.63 715.449 715.449 0 0078.005 53.386c32.065 18.96 69.083 39.816 77.018 76.207 6.024 27.638-7.157 55.515-20.705 80.346-15.632 28.649-32.713 57.29-57.376 78.664s-58.381 34.658-90.248 27.637c-32.468-7.153-56.82-33.083-80.646-56.27-27.5-26.766-39.962-62.57-76.31-74.885-47.345-16.042-78.33 19.326-78.33 19.326-35.885 31.15-67.496 70.706-107.198 96.814s-93.488 23.366-137.672 5.879c-52.097-20.619-79.273-80.934-79.053-136.961.11-27.742 5.394-56.643-4.76-82.46-15.345-39.015-59.788-57.16-87.157-88.918 0 0-117.536-100.174-59.72-198.015-.003-.007 20.639-41.726 62.343-53.34z"/><path data-name="Path 6712" d="M2910.239 2866.029c45.258-12.603 92.946 15.775 126.226 48.933s56.877 74.614 86.177 111.34 67.385 70.255 113.824 77.375c18.84 2.888 40.25.317 53.127-13.734 14.265-15.565 13.335-40.168 5.482-59.763s-21.376-36.38-30.727-55.31c-9.484-19.2-14.55-41.553-8.844-62.192s24.146-38.534 45.554-38.91c24.099-.42 43.93 20.447 52.381 43.02 8.42 22.487 12.771 52.159 35.79 58.996 23.92 7.106 44.278-17.586 57.637-38.664 14.052-22.173 29.095-44.247 49.421-60.858s67.701-22.633 93.644-18.631 48.222 25.504 51.462 51.554c3.544 28.485-29.755 46.066-29.755 46.066-54.543 27.386-88.36 46.515-96.565 89.455a60.383 60.383 0 002.662 32.176 65.392 65.392 0 0021.192 29.095 679.625 679.625 0 0074.102 50.713c30.46 18.012 65.622 37.819 73.163 72.394 5.724 26.254-6.795 52.738-19.672 76.325-14.848 27.215-31.072 54.423-54.504 74.729s-55.46 32.923-85.74 26.253c-30.844-6.795-53.978-31.428-76.611-53.454-26.126-25.428-37.963-59.438-72.49-71.137-44.976-15.24-74.41 18.359-74.41 18.359-34.09 29.594-64.117 67.167-101.835 91.97s-88.81 22.196-130.784 5.584c-49.49-19.586-75.306-76.885-75.096-130.108.103-26.357 5.125-53.807-4.522-78.333-14.577-37.062-56.798-54.294-82.797-84.467 0 0-111.654-95.163-56.731-188.107.007-.006 19.621-39.637 59.239-50.669z"/><path data-name="Path 6713" d="M2927.73 2881.164c42.875-11.938 88.048 14.943 119.577 46.354s53.883 70.683 81.642 105.474 63.835 66.556 107.827 73.3c17.847 2.736 38.13.3 50.33-13.01 13.513-14.745 12.627-38.053 5.19-56.618s-20.246-34.466-29.11-52.398c-8.986-18.187-13.787-39.363-8.378-58.915s22.871-36.505 43.153-36.861c22.83-.403 41.617 19.371 49.622 40.755 7.977 21.303 12.099 49.411 33.903 55.888 22.662 6.732 41.947-16.66 54.601-36.627 13.312-21.004 27.563-41.917 46.818-57.652s64.135-21.44 88.711-17.655 45.682 24.161 48.752 48.838c3.357 26.984-28.187 43.64-28.187 43.64-51.672 25.942-83.706 44.068-91.48 84.743a57.207 57.207 0 002.526 30.481 61.955 61.955 0 0020.077 27.562 643.906 643.906 0 0070.198 48.042c28.855 17.063 62.169 35.824 69.31 68.58 5.423 24.871-6.44 49.959-18.633 72.304-14.066 25.781-29.439 51.556-51.634 70.792s-52.537 31.189-81.22 24.87c-29.222-6.438-51.132-29.772-72.575-50.64-24.75-24.085-35.96-56.306-68.671-67.389-42.607-14.436-70.491 17.392-70.491 17.392-32.294 28.034-60.738 63.63-96.47 87.125s-84.13 21.028-123.894 5.29c-46.886-18.55-71.342-72.828-71.149-123.245.1-24.966 4.854-50.973-4.284-74.207-13.81-35.11-53.805-51.439-78.434-80.018 0 0-105.77-90.15-53.743-178.198.004-.005 18.582-37.546 56.115-47.997z"/><path data-name="Path 6714" d="M2945.221 2896.298c40.49-11.275 83.153 14.113 112.929 43.778s50.885 66.752 77.097 99.609 60.286 62.858 101.831 69.223c16.855 2.582 36.01.283 47.531-12.287 12.762-13.925 11.926-35.937 4.901-53.47s-19.123-32.55-27.492-49.488c-8.485-17.176-13.016-37.175-7.912-55.64s21.6-34.477 40.755-34.811c21.56-.38 39.302 18.294 46.863 38.488 7.532 20.119 11.426 46.664 32.017 52.781 21.401 6.357 39.614-15.734 51.566-34.587 12.57-19.836 26.03-39.587 44.214-54.448s60.568-20.249 83.78-16.67 43.14 22.818 46.04 46.124c3.17 25.483-26.62 41.213-26.62 41.213-48.799 24.5-79.052 41.615-86.394 80.031a54.026 54.026 0 002.386 28.787 58.5 58.5 0 0018.96 26.029 607.817 607.817 0 0066.296 45.37c27.25 16.115 58.712 33.836 65.455 64.767 5.12 23.489-6.083 47.182-17.597 68.285-13.284 24.348-27.802 48.69-48.762 66.856s-49.618 29.454-76.703 23.487c-27.594-6.08-48.292-28.117-68.54-47.823-23.37-22.748-33.962-53.176-64.853-63.643-40.237-13.633-66.57 16.425-66.57 16.425-30.499 26.475-57.361 60.091-91.106 82.28s-79.453 19.857-117.005 5.002c-44.275-17.523-67.371-68.785-67.184-116.4.093-23.577 4.584-48.14-4.045-70.081-13.042-33.158-50.813-48.578-74.073-75.569 0 0-99.892-85.135-50.755-168.288 0-.005 17.546-35.46 52.99-45.33z"/><path data-name="Path 6715" d="M2962.712 2911.432c38.107-10.61 78.258 13.282 106.28 41.201s47.888 62.823 72.558 93.744 56.735 59.154 95.836 65.144c15.862 2.431 33.89.264 44.731-11.564 12.01-13.104 11.224-33.82 4.613-50.322s-17.998-30.63-25.872-46.57c-7.985-16.164-12.25-34.985-7.446-52.362s20.328-32.445 38.355-32.762c20.29-.358 36.989 17.222 44.103 36.222 7.089 18.934 10.753 43.916 30.133 49.673 20.14 5.983 37.282-14.807 48.529-32.554 11.83-18.668 24.497-37.255 41.612-51.241s57.002-19.056 78.845-15.687 40.6 21.474 43.33 43.406c2.983 23.984-25.053 38.786-25.053 38.786-45.92 23.058-74.396 39.165-81.305 75.319a50.853 50.853 0 002.245 27.091 55.058 55.058 0 0017.843 24.497 572.269 572.269 0 0062.392 42.699c25.646 15.165 55.255 31.842 61.598 60.953 4.82 22.105-5.724 44.403-16.56 64.264-12.502 22.914-26.16 45.823-45.89 62.919s-46.696 27.721-72.189 22.104c-25.969-5.725-45.447-26.46-64.503-45.009-21.998-21.409-31.963-50.045-61.035-59.895-37.868-12.831-62.65 15.457-62.65 15.457-28.704 24.915-53.985 56.553-85.742 77.435s-74.775 18.69-110.116 4.703c-41.668-16.491-63.405-64.735-63.229-109.547.087-22.189 4.314-45.31-3.808-65.954-12.274-31.205-47.822-45.718-69.71-71.12 0 0-94.008-80.122-47.768-158.378.003.005 16.517-33.362 49.873-42.652z"/><path data-name="Path 6716" d="M2980.205 2926.567c35.722-9.947 73.361 12.448 99.63 38.623s44.893 58.892 68.018 87.879 53.187 55.453 89.84 61.07c14.87 2.28 31.769.251 41.933-10.84 11.259-12.284 10.521-31.704 4.323-47.172s-16.87-28.717-24.252-43.657c-7.487-15.153-11.485-32.796-6.981-49.088s19.056-30.415 35.955-30.712c19.02-.334 34.673 16.14 41.345 33.957 6.645 17.749 10.08 41.169 28.246 46.566 18.882 5.609 34.954-13.88 45.493-30.518 11.092-17.5 22.965-34.924 39.009-48.035s53.436-17.863 73.912-14.706 38.06 20.131 40.618 40.692c2.797 22.483-23.485 36.36-23.485 36.36-43.052 21.615-69.742 36.714-76.218 70.606a47.665 47.665 0 002.104 25.396 51.612 51.612 0 0016.727 22.964 536.373 536.373 0 0058.488 40.028c24.042 14.212 51.8 29.85 57.748 57.14 4.518 20.722-5.367 41.627-15.524 60.243-11.721 21.48-24.528 42.955-43.02 58.981s-43.773 25.987-67.67 20.722c-24.345-5.363-42.604-24.805-60.469-42.191-20.621-20.069-29.962-46.914-57.215-56.147-35.499-12.029-58.732 14.49-58.732 14.49-26.907 23.357-50.606 53.015-80.377 72.591s-70.093 17.52-103.226 4.41c-39.061-15.462-59.439-60.684-59.273-102.693.082-20.8 4.045-42.47-3.569-61.827-11.506-29.253-44.83-42.859-65.35-66.67 0 0-88.127-75.11-44.778-148.47-.001-.005 15.48-31.285 46.75-39.992z"/><path data-name="Path 6717" d="M2997.697 2941.702c33.338-9.284 68.465 11.62 92.98 36.045s41.898 54.956 63.479 82.014 49.637 51.752 83.844 56.995c13.878 2.127 29.65.233 39.134-10.116 10.508-11.465 9.819-29.588 4.035-44.026s-15.746-26.8-22.634-40.743c-6.988-14.142-10.717-30.609-6.515-45.812s17.784-28.386 33.555-28.663c17.752-.312 32.36 15.063 38.583 31.69 6.202 16.565 9.408 38.422 26.362 43.458 17.621 5.234 32.616-12.957 42.456-28.481 10.352-16.332 21.433-32.592 36.404-44.829s49.87-16.67 68.98-13.721 35.521 18.787 37.908 37.975c2.61 20.983-21.92 33.933-21.92 33.933-40.179 20.172-65.089 34.263-71.133 65.899a44.483 44.483 0 001.964 23.7 48.159 48.159 0 0015.612 21.431 500.54 500.54 0 0054.584 37.357c22.437 13.268 48.341 27.858 53.893 53.326 4.216 19.342-5.008 38.846-14.488 56.227-10.938 20.047-22.892 40.089-40.149 55.046s-40.852 24.252-63.155 19.342c-22.72-5.006-39.76-23.151-56.433-39.376-19.24-18.73-27.963-43.782-53.398-52.4-33.13-11.225-54.812 13.524-54.812 13.524-25.11 21.802-47.228 49.477-75.008 67.746s-65.418 16.35-96.338 4.114c-36.454-14.428-55.47-56.635-55.316-95.84.076-19.413 3.774-39.634-3.332-57.701-10.738-27.3-41.837-39.997-60.988-62.221 0 0-82.246-70.097-41.79-138.562.005-.012 14.453-29.205 43.636-37.33z"/></g></g></g></svg>