<svg xmlns="http://www.w3.org/2000/svg" width="781" height="231"><defs><clipPath id="a"><path data-name="Rectangle 1948" transform="translate(0 180)" fill="#fff" stroke="#707070" d="M0 0h781v231H0z"/></clipPath></defs><g data-name="Mask Group 29" transform="translate(0 -180)" clip-path="url(#a)"><g data-name="Group 3736" opacity=".46" fill="none" stroke="#d2e8f8" stroke-miterlimit="10"><path data-name="Path 6681" d="M591.704 1452.618c-123.33-9.575-215.761-122.73-268.243-234.744s-73.537-235.83-112.955-353.08-103.46-234.509-211.948-293.94c-44.012-24.11-99.303-37.031-143.818-13.863-49.309 25.663-69.154 87.382-67.375 142.942s20.123 109.268 26.216 164.52c6.18 56.044-1.42 115.911-34.124 161.84s-94.436 73.6-147.746 55.253c-60.008-20.654-90.279-90.156-90.86-153.615-.581-63.22 15.373-140.554-35.42-178.198-52.787-39.124-125.392 3.638-177.424 43.758-54.734 42.203-111.84 83.273-177.084 106.07s-187.888-4.97-248.474-38.231-96.342-106.53-80.903-173.9c16.884-73.667 115.104-87.179 115.104-87.179 159.616-18.637 260.512-35.516 319.48-134.367a159.014 159.014 0 0022.378-82.011 172.17 172.17 0 00-26.235-91.07A1789.489 1789.489 0 00-885.4 100.596c-59.143-71.995-128.315-152.671-115.828-245.003 9.482-70.114 64.314-124.36 117.4-171.131 61.244-53.966 125.899-106.669 202.15-135.81s166.867-31.517 235.77 12.255c70.193 44.588 105.248 126.367 141.412 201.249 41.745 86.44 40.4 181.246 115.295 241.288C-91.644 81.651 11.44 25.028 11.44 25.028c110.989-42.519 219.123-108.45 334.78-135.845S585.94-85.76 674.833-6.858c104.81 93.02 117.088 258.035 68.638 389.532-23.99 65.112-61.134 128.518-59.353 197.885 2.695 104.83 91.629 185.495 128.788 283.551 0 0 190.558 335.999-29.03 516.503.001 0-84.218 80.39-192.172 72.005z"/><path data-name="Path 6682" d="M580.44 1432.419c-120.86-9.383-211.444-120.275-262.876-230.048S245.5 971.26 206.869 856.355 105.481 626.533-.836 568.293c-43.131-23.628-97.315-36.29-140.94-13.585-48.323 25.15-67.77 85.633-66.028 140.082s19.726 107.086 25.694 161.229c6.055 54.922-1.393 113.59-33.441 158.601s-92.548 72.129-144.795 54.146c-58.806-20.24-88.472-88.352-89.043-150.542-.568-61.954 15.066-137.741-34.71-174.633-51.73-38.34-122.883 3.565-173.876 42.886-53.638 41.36-109.597 81.61-173.54 103.949s-184.13-4.871-243.503-37.466-94.415-104.4-79.283-170.42c16.545-72.195 112.802-85.436 112.802-85.436 156.423-18.269 255.297-34.81 313.092-131.688a155.829 155.829 0 0021.93-80.371 168.722 168.722 0 00-25.71-89.247 1753.5 1753.5 0 00-134.919-188.36c-57.96-70.556-125.748-149.617-113.51-240.103 9.291-68.71 63.026-121.871 115.048-167.704 60.023-52.885 123.385-104.534 198.107-133.092s163.53-30.886 231.055 12.007c68.788 43.696 103.147 123.84 138.583 197.223 40.909 84.706 39.592 177.617 112.988 236.457C-89.232 88.867 11.789 33.379 11.789 33.379 120.563-8.289 226.529-72.899 339.871-99.749S574.794-75.195 661.912 2.13c102.711 91.165 114.745 252.881 67.263 381.745-23.51 63.809-59.907 125.949-58.165 193.926 2.638 102.73 89.794 181.783 126.21 277.882 0 0 186.745 329.276-28.45 506.17 0-.004-82.532 78.778-188.33 70.565z"/><path data-name="Path 6683" d="M569.18 1412.214c-118.396-9.193-207.127-117.82-257.51-225.351S241.076 960.47 203.235 847.91 103.917 622.781-.228 565.73c-42.25-23.144-95.33-35.547-138.064-13.305-47.337 24.637-66.387 83.884-64.68 137.221s19.319 104.895 25.168 157.94c5.93 53.8-1.364 111.27-32.76 155.363s-90.657 70.656-141.836 53.041c-57.606-19.827-86.666-86.548-87.224-147.468-.557-60.69 14.757-134.93-34.002-171.068-50.675-37.558-120.375 3.493-170.325 42.009-52.544 40.515-107.36 79.944-169.997 101.826s-180.369-4.775-238.533-36.702-92.486-102.268-77.664-166.942c16.209-70.721 110.494-83.693 110.494-83.693 153.226-17.895 250.09-34.096 306.699-128.995a152.649 152.649 0 0021.48-78.732 165.278 165.278 0 00-25.185-87.425A1717.857 1717.857 0 00-848.82 114.282C-905.597 45.169-972-32.28-960.015-120.918c9.102-67.308 61.74-119.382 112.701-164.284 58.803-51.805 120.868-102.4 194.067-130.375s160.194-30.26 226.338 11.763c67.382 42.808 101.037 121.31 135.756 193.197 40.075 82.98 38.784 173.994 110.682 231.633 93.65 75.076 192.61 20.72 192.61 20.72C118.686.918 222.492-62.372 333.522-88.674s230.13 24.054 315.466 99.798c100.613 89.306 112.399 247.719 65.89 373.954-23.03 62.506-58.689 123.376-56.98 189.967 2.585 100.633 87.963 178.073 123.636 272.206 0 0 182.933 322.553-27.867 495.832-.004.006-80.85 77.178-184.488 69.131z"/><path data-name="Path 6684" d="M557.917 1392.009c-115.927-9-202.811-115.365-252.144-220.655s-69.12-221.679-106.175-331.888S102.35 619.029.375 563.165c-41.37-22.663-93.342-34.808-135.187-13.031-46.35 24.124-65.004 82.136-63.332 134.362s18.916 102.71 24.643 154.647c5.809 52.68-1.336 108.953-32.076 152.126s-88.769 69.183-138.882 51.935c-56.405-19.415-84.86-84.743-85.407-144.396-.544-59.425 14.45-132.117-33.293-167.503-49.618-36.774-117.866 3.42-166.776 41.133-51.449 39.67-105.127 78.276-166.454 99.704s-176.612-4.672-233.561-35.936-90.56-100.136-76.046-163.463c15.87-69.247 108.196-81.948 108.196-81.948 150.036-17.52 244.874-33.387 300.306-126.306a149.467 149.467 0 0021.035-77.09 161.84 161.84 0 00-24.66-85.603 1681.945 1681.945 0 00-129.41-180.671C-886.122 53.45-951.142-22.382-939.406-109.17c8.912-65.905 60.453-116.894 110.352-160.86 57.577-50.726 118.348-100.267 190.023-127.656s156.853-29.625 221.62 11.517c65.98 41.912 98.932 118.782 132.925 189.17 39.244 81.254 37.975 170.369 108.375 226.805 91.7 73.513 188.597 20.29 188.597 20.29C116.817 10.13 218.455-51.842 327.173-77.596s225.334 23.553 308.892 97.719c98.516 87.44 110.056 242.553 64.516 366.157-22.55 61.2-57.467 120.803-55.791 186.008 2.53 98.535 86.128 174.36 121.057 266.532 0 0 179.121 315.831-27.287 485.502.004.002-79.163 75.567-180.643 67.687z"/><path data-name="Path 6685" d="M546.659 1371.805c-113.458-8.809-198.494-112.908-246.777-215.958S232.232 938.89 195.963 831.02 100.787 615.275.984 560.602c-40.49-22.18-91.356-34.067-132.308-12.753-45.364 23.61-63.62 80.39-61.984 131.503s18.515 100.52 24.118 151.355c5.685 51.558-1.307 106.634-31.393 148.888s-86.879 67.71-135.926 50.83c-55.206-18.997-83.053-82.942-83.588-141.323-.536-58.155 14.142-129.304-32.586-163.936-48.56-35.991-115.358 3.348-163.226 40.257-50.354 38.826-102.886 76.61-162.912 97.582s-172.852-4.573-228.59-35.172-88.632-98.004-74.428-159.983c15.534-67.772 105.892-80.202 105.892-80.202 146.843-17.147 239.662-32.676 293.915-123.619a146.283 146.283 0 0020.588-75.449 158.388 158.388 0 00-24.135-83.78 1646.183 1646.183 0 00-126.656-176.826c-54.41-66.234-118.044-140.457-106.56-225.397 8.723-64.502 59.167-114.406 108.005-157.437 56.347-49.646 115.824-98.13 185.979-124.94s153.513-28.994 216.903 11.272c64.576 41.02 96.826 116.254 130.096 185.144 38.4 79.522 37.162 166.74 106.065 221.977C-82 110.54 12.834 58.45 12.834 58.45 114.946 19.334 214.422-41.32 320.823-66.525S541.36-43.473 623.14 29.115c96.421 85.582 107.716 237.393 63.144 358.366-22.073 59.902-56.242 118.233-54.603 182.05 2.476 96.437 84.296 170.65 118.482 260.86 0 0 175.308 309.108-26.708 475.169 0 0-77.48 73.957-176.796 66.245z"/><path data-name="Path 6686" d="M535.399 1351.603c-110.991-8.617-194.178-110.454-241.41-211.262S227.809 928.1 192.333 822.58 99.227 611.527 1.59 558.04c-39.609-21.698-89.369-33.331-129.43-12.476-44.377 23.098-62.237 78.641-60.635 128.644s18.11 98.337 23.593 148.064c5.562 50.436-1.279 104.314-30.71 145.65s-84.99 66.238-132.97 49.724c-54.009-18.59-81.248-81.137-81.772-138.249-.522-56.895 13.835-126.492-31.876-160.372-47.506-35.21-112.849 3.275-159.676 39.382-49.259 37.982-100.647 74.942-159.37 95.46s-169.092-4.473-223.618-34.407-86.7-95.873-72.809-156.504c15.195-66.298 103.59-78.459 103.59-78.459 143.649-16.774 234.45-31.964 287.523-120.93a143.113 143.113 0 0020.14-73.807 154.953 154.953 0 00-23.61-81.96 1610.445 1610.445 0 00-123.901-172.979C-847.168 70.028-909.421-2.577-898.183-85.674c8.533-63.1 57.88-111.919 105.655-154.012 55.119-48.567 113.304-95.998 181.929-122.225s150.175-28.363 212.186 11.028c63.17 40.128 94.72 113.725 127.266 181.117 37.57 77.792 36.358 163.116 103.762 217.151 87.797 70.383 180.57 19.424 180.57 19.424 99.889-38.267 197.201-97.601 301.29-122.258s215.742 22.55 295.743 93.559c94.323 83.722 105.37 232.23 61.769 350.573-21.59 58.598-55.019 115.662-53.416 178.09 2.422 94.342 82.462 166.939 115.905 255.188 0 0 171.496 302.387-26.124 464.836-.005-.003-75.795 72.347-172.953 64.806z"/><path data-name="Path 6687" d="M524.138 1331.398c-108.524-8.426-189.862-107.998-236.044-206.567s-64.708-207.519-99.396-310.696S97.661 607.773 2.196 555.478c-38.73-21.216-87.383-32.586-126.554-12.198-43.391 22.584-60.855 76.897-59.286 125.784s17.707 96.151 23.069 144.772c5.437 49.316-1.251 101.997-30.029 142.413s-83.1 64.766-130.016 48.62c-52.804-18.174-79.441-79.333-79.954-135.175-.51-55.63 13.528-123.68-31.166-156.806-46.45-34.427-110.34 3.197-156.127 38.506-48.164 37.137-98.413 73.278-155.827 93.338s-165.333-4.375-218.648-33.641-84.776-93.743-71.19-153.025c14.856-64.825 101.287-76.714 101.287-76.714 140.456-16.4 229.239-31.255 281.132-118.241a139.926 139.926 0 0019.692-72.173 151.506 151.506 0 00-23.084-80.138 1574.6 1574.6 0 00-121.146-169.136C-827.695 78.312-888.565 7.324-877.573-73.93c8.344-61.697 56.593-109.43 103.307-150.589 53.895-47.484 110.786-93.865 177.886-119.507s146.837-27.733 207.47 10.782c61.768 39.235 92.615 111.197 124.438 177.09 36.738 76.065 35.549 159.49 101.455 212.322C-77.178 124.99 13.532 75.163 13.532 75.163c97.667-37.41 192.817-95.424 294.593-119.536s210.946 22.048 289.168 91.479c92.227 81.858 103.029 227.067 60.396 342.779-21.11 57.295-53.796 113.09-52.228 174.131 2.369 92.245 80.63 163.228 113.33 249.514 0 0 167.683 295.665-25.546 454.504-.001 0-74.11 70.74-169.107 63.364z"/><path data-name="Path 6688" d="M512.878 1311.193c-106.057-8.234-185.545-105.541-230.677-201.87s-63.24-202.801-97.136-303.631S96.099 604.022 2.802 552.914c-37.848-20.734-85.395-31.845-123.675-11.921-42.404 22.07-59.47 75.144-57.94 122.923s17.307 93.963 22.545 141.48c5.314 48.195-1.222 99.677-29.345 139.175s-81.21 63.293-127.057 47.513c-51.604-17.76-77.635-77.53-78.136-132.102-.499-54.365 13.221-120.872-30.458-153.241-45.394-33.645-107.832 3.128-152.577 37.63-47.069 36.293-96.173 71.613-152.283 91.216s-161.575-4.275-213.677-32.877-82.849-91.612-69.571-149.546c14.521-63.349 98.984-74.97 98.984-74.97 137.26-16.028 224.022-30.544 274.736-115.553a136.738 136.738 0 0019.244-70.527 148.056 148.056 0 00-22.56-78.314A1538.726 1538.726 0 00-757.36 148.51c-50.86-61.912-110.345-131.29-99.607-210.691 8.155-60.296 55.306-106.943 100.958-147.165 52.67-46.407 108.27-91.729 173.84-116.79s143.497-27.104 202.754 10.537c60.363 38.343 90.51 108.669 121.609 173.065 35.899 74.332 34.74 155.863 99.149 207.495 83.893 67.254 172.54 18.562 172.54 18.562C109.33 46.958 202.315-9.737 301.776-33.298S507.926-11.752 584.369 56.1c90.13 80 100.687 221.905 59.023 334.986-20.63 55.993-52.572 110.52-51.04 170.172 2.314 90.147 78.796 159.516 110.751 243.84 0 0 163.871 288.943-24.965 444.169-.001.004-72.423 69.133-165.26 61.925z"/><path data-name="Path 6689" d="M501.617 1290.99c-103.585-8.04-181.228-103.086-225.31-197.172S214.54 895.733 181.43 797.247 94.535 600.273 3.41 550.349c-36.967-20.25-83.41-31.103-120.8-11.64-41.418 21.557-58.086 73.396-56.592 120.062s16.903 91.779 22.02 138.19c5.19 47.073-1.194 97.357-28.662 135.936s-79.321 61.82-124.105 46.407c-50.402-17.347-75.829-75.726-76.317-129.028-.487-53.101 12.911-118.055-29.75-149.677-44.337-32.861-105.323 3.056-149.028 36.755-45.973 35.449-93.935 69.947-148.74 89.093s-157.816-4.175-208.705-32.112-80.922-89.48-67.953-146.067c14.183-61.881 96.68-73.226 96.68-73.226 134.069-15.656 218.815-29.833 268.347-112.865a133.561 133.561 0 0018.797-68.886 144.613 144.613 0 00-22.036-76.494 1503.048 1503.048 0 00-115.634-161.446c-49.676-60.471-107.778-128.235-97.29-205.79 7.965-58.89 54.022-104.458 98.61-143.742 51.445-45.327 105.75-89.596 169.796-114.072s140.16-26.472 198.035 10.291c58.959 37.452 88.404 106.142 118.779 169.04 35.063 72.604 33.933 152.237 96.84 202.667 81.94 65.689 168.526 18.13 168.526 18.13C107.458 56.166 198.28.788 295.428-22.224S496.78-1.177 571.446 65.093c88.029 78.137 98.346 216.74 57.65 327.193-20.15 54.69-51.345 107.949-49.853 166.213 2.26 88.053 76.962 155.81 108.173 238.172 0 0 160.059 282.22-24.383 433.835 0 0-70.74 67.524-161.417 60.484z"/><path data-name="Path 6690" d="M490.356 1270.785c-101.122-7.85-176.911-100.631-219.944-192.477s-60.295-193.365-92.616-289.504S92.972 596.52 4.016 547.784c-36.087-19.77-81.423-30.363-117.921-11.366-40.431 21.042-56.703 71.648-55.247 117.202s16.5 89.593 21.491 134.896c5.067 45.953-1.166 95.042-27.98 132.699s-77.432 60.348-121.145 45.302c-49.203-16.934-74.024-73.922-74.5-125.955-.47-51.828 12.61-115.232-29.034-146.103-43.282-32.078-102.814 2.982-145.478 35.88-44.878 34.604-91.7 68.279-145.197 86.971s-154.062-4.077-203.734-31.347-78.995-87.348-66.34-142.589c13.845-60.403 94.38-71.482 94.38-71.482 130.875-15.283 213.602-29.122 261.96-110.177a130.378 130.378 0 0018.349-67.245 141.17 141.17 0 00-21.511-74.671A1467.217 1467.217 0 00-720.775 162.2C-769.27 103.172-825.986 37.02-815.748-38.687c7.774-57.49 52.732-101.967 96.26-140.318 50.22-44.247 103.23-87.462 165.752-111.356s136.819-25.844 193.315 10.045c57.555 36.56 86.299 103.613 115.95 165.012 34.232 70.876 33.125 148.612 94.536 197.842 79.99 64.124 164.51 17.698 164.51 17.698 91.01-34.863 179.667-88.921 274.503-111.384S485.635 9.396 558.522 74.09c85.936 76.277 96.002 211.58 56.277 319.397-19.67 53.388-50.126 105.378-48.666 162.254 2.208 85.953 75.133 152.095 105.6 232.496 0 0 156.245 275.498-23.803 423.501-.002.002-69.056 65.919-157.574 59.046z"/><path data-name="Path 6691" d="M479.095 1250.581c-98.655-7.659-172.59-98.173-214.574-187.778s-58.827-188.649-90.359-282.443S91.403 592.765 4.621 545.225c-35.206-19.287-79.437-29.622-115.045-11.089-39.445 20.531-55.319 69.9-53.897 114.344s16.1 87.405 20.97 131.608c4.945 44.831-1.135 92.72-27.296 129.46s-75.543 58.877-118.194 44.196c-48.002-16.522-72.217-72.119-72.68-122.886-.464-50.571 12.294-112.435-28.332-142.548-42.222-31.294-100.306 2.91-141.928 35.004-43.783 33.76-89.46 66.614-141.658 84.848s-150.298-3.975-198.762-30.583-77.069-85.213-64.715-139.107c13.506-58.93 92.075-69.738 92.075-69.738 127.682-14.91 208.39-28.411 255.564-107.488a127.2 127.2 0 0017.902-65.605 137.735 137.735 0 00-20.985-72.848A1431.467 1431.467 0 00-702.489 169.04c-47.31-57.591-102.643-122.127-92.655-195.987 7.585-56.086 51.445-99.475 93.911-136.893 48.994-43.168 100.713-85.328 161.707-108.64s133.483-25.211 188.601 9.802c56.147 35.666 84.193 101.083 113.121 160.986 33.393 69.145 32.316 144.985 92.228 193.013 78.038 62.56 160.497 17.267 160.497 17.267C103.712 74.583 190.208 21.844 282.727-.072s191.762 20.042 262.87 83.16c83.838 74.416 93.66 206.418 54.904 311.607-19.19 52.085-48.904 102.806-47.479 158.295 2.154 83.854 73.296 148.385 103.023 226.82 0 0 152.434 268.776-23.222 413.168 0 0-67.369 64.308-153.728 57.603z"/><path data-name="Path 6692" d="M467.835 1230.377c-96.186-7.468-168.277-95.72-209.21-183.084s-57.353-183.93-88.096-275.377S89.84 589.013 5.227 542.662C-29.1 523.858-72.222 513.78-106.94 531.85c-38.458 20.016-53.937 68.154-52.548 111.484s15.695 85.22 20.448 128.31c4.82 43.71-1.107 90.401-26.613 126.223s-73.654 57.405-115.233 43.092c-46.802-16.109-70.41-70.318-70.866-119.809-.455-49.304 11.987-109.617-27.63-138.979-41.17-30.513-97.798 2.838-138.378 34.129-42.69 32.916-87.224 64.949-138.112 82.728s-146.54-3.877-193.792-29.817-75.14-83.087-63.097-135.63c13.167-57.455 89.773-67.994 89.773-67.994C-698.5 551.052-619.81 537.886-573.82 460.787a124.018 124.018 0 0017.453-63.963 134.287 134.287 0 00-20.46-71.028 1395.631 1395.631 0 00-107.37-149.904c-46.127-56.151-100.076-119.072-90.337-191.085 7.395-54.683 50.16-96.99 91.562-133.47 47.769-42.089 98.192-83.194 157.663-105.922s130.149-24.579 183.885 9.556c54.746 34.773 82.086 98.557 110.294 156.96 32.557 67.416 31.508 141.359 89.921 188.187 76.087 60.995 156.482 16.833 156.482 16.833 86.566-33.157 170.9-84.58 261.105-105.95s186.965 19.543 256.295 81.08c81.743 72.555 91.319 201.253 53.532 303.813-18.71 50.78-47.68 100.234-46.291 154.336 2.1 81.758 71.463 144.672 100.446 221.15 0 0 148.62 262.054-22.642 402.835 0-.001-65.684 62.7-149.883 56.162z"/><path data-name="Path 6693" d="M456.576 1210.173c-93.72-7.276-163.963-93.264-203.844-178.387s-55.881-179.211-85.838-268.31S88.277 585.26 5.834 540.1c-33.446-18.322-75.463-28.141-109.29-10.535-37.472 19.502-52.552 66.403-51.2 108.625s15.292 83.035 19.921 125.023c4.694 42.591-1.08 88.083-25.93 122.986s-71.765 55.93-112.28 41.987c-45.6-15.695-68.603-68.511-69.046-116.735-.441-48.041 11.682-106.81-26.915-135.416-40.114-29.731-95.289 2.763-134.83 33.253-41.593 32.07-84.986 63.282-134.569 80.605s-142.78-3.777-188.82-29.052-73.212-80.954-61.48-132.15c12.83-55.982 87.47-66.25 87.47-66.25 121.297-14.166 197.967-26.993 242.777-102.115a120.84 120.84 0 0017.007-62.323 130.848 130.848 0 00-19.937-69.206 1359.821 1359.821 0 00-104.62-146.062c-44.945-54.71-97.51-116.018-88.021-186.182 7.203-53.277 48.872-94.504 89.214-130.047 46.543-41.008 95.673-81.06 153.618-103.205s126.804-23.95 179.167 9.312c53.341 33.883 79.979 96.032 107.463 152.93 31.728 65.684 30.701 137.734 87.616 183.36 74.137 59.431 152.47 16.402 152.47 16.402 84.345-32.31 166.515-82.412 254.406-103.231s182.17 19.04 249.721 79c79.645 70.694 88.974 196.093 52.157 296.02-18.23 49.48-46.457 97.663-45.104 150.377 2.046 79.66 69.631 140.96 97.869 215.477 0 0 144.81 255.332-22.06 392.5.003.007-63.994 61.094-146.032 54.725z"/><path data-name="Path 6694" d="M445.314 1189.969c-91.253-7.085-159.644-90.811-198.478-173.692S192.427 841.781 163.26 755.03 86.71 581.509 6.437 537.54c-32.565-17.84-73.475-27.4-106.413-10.256-36.484 18.989-51.168 64.655-49.853 105.766s14.891 80.847 19.397 121.732c4.573 41.467-1.05 85.763-25.248 119.747s-69.875 54.459-109.322 40.881c-44.402-15.28-66.799-66.707-67.23-113.662-.428-46.776 11.375-103.996-26.206-131.85-39.058-28.948-92.782 2.695-131.28 32.377-40.501 31.226-82.747 61.617-131.025 78.483s-139.023-3.678-183.85-28.287-71.284-78.824-59.86-128.671c12.492-54.507 85.167-64.506 85.167-64.506 118.103-13.79 192.754-26.28 236.39-99.424a117.656 117.656 0 0016.557-60.681 127.394 127.394 0 00-19.412-67.384A1323.9 1323.9 0 00-647.613 189.59c-43.76-53.27-94.942-112.963-85.703-181.28 7.016-51.878 47.587-92.016 86.865-126.624 45.319-39.929 93.156-78.925 149.575-100.488s123.467-23.32 174.45 9.066c51.937 32.991 77.876 93.5 104.633 148.907C-186.905 3.13-187.9 73.278-132.484 117.704c72.184 57.862 148.455 15.97 148.455 15.97 82.125-31.468 162.13-80.25 247.708-100.522s177.375 18.539 243.147 76.919c77.549 68.832 86.631 190.93 50.784 288.226-17.75 48.177-45.235 95.093-43.916 146.418 1.995 77.566 67.798 137.25 95.292 209.805 0 0 140.997 248.61-21.48 382.167 0 0-62.315 59.48-142.192 53.282z"/><path data-name="Path 6695" d="M434.053 1169.765c-88.785-6.894-155.328-88.354-193.111-168.995s-52.938-169.774-81.316-254.184S85.146 577.757 7.045 534.974c-31.685-17.357-71.488-26.66-103.535-9.98-35.499 18.476-49.785 62.908-48.504 102.904s14.487 78.663 18.872 118.44c4.45 40.346-1.022 83.445-24.566 116.51s-67.985 52.985-106.366 39.776c-43.2-14.868-64.992-64.904-65.412-110.589-.412-45.51 11.069-101.185-25.497-128.286-38.001-28.165-90.27 2.62-127.73 31.502-39.403 30.383-80.51 59.95-127.48 76.362s-135.262-3.578-178.88-27.523-69.356-76.692-58.24-125.191c12.153-53.035 82.863-62.762 82.863-62.762 114.91-13.422 187.543-25.57 229.997-96.734a114.472 114.472 0 0016.108-59.043 123.954 123.954 0 00-18.887-65.561 1288.325 1288.325 0 00-99.11-138.375c-42.578-51.83-92.376-109.909-83.386-176.38 6.826-50.475 46.3-89.527 84.516-123.199 44.093-38.85 90.636-76.79 145.53-97.77s120.129-22.689 169.733 8.82c50.533 32.1 75.77 90.973 101.804 144.881 30.052 62.227 29.084 130.482 83.002 173.705C-57.89 182.785 16.32 142.024 16.32 142.024c79.904-30.61 157.748-78.074 241.013-97.795s172.575 18.034 236.57 74.838c75.451 66.971 84.288 185.767 49.409 280.433-17.27 46.874-44.01 92.52-42.728 142.459 1.94 75.466 65.965 133.538 92.717 204.131 0 0 137.183 241.887-20.9 371.833 0 .001-60.628 57.876-138.348 51.842z"/><path data-name="Path 6696" d="M422.792 1149.561c-86.317-6.702-151.011-85.9-187.743-164.298s-51.468-165.057-79.057-247.12S83.582 574.006 7.65 532.41c-30.8-16.873-69.502-25.917-100.656-9.7-34.512 17.962-48.402 61.158-47.156 100.044s14.085 76.477 18.35 115.15c4.326 39.225-.993 81.126-23.882 113.272s-66.096 51.512-103.41 38.67c-42-14.455-63.186-63.1-63.594-107.515-.406-44.247 10.76-98.373-24.79-124.72-36.945-27.383-87.761 2.546-124.179 30.626-38.308 29.538-78.273 58.284-123.941 74.239s-131.503-3.479-173.908-26.758-67.43-74.561-56.623-121.712c11.817-51.56 80.561-61.019 80.561-61.019 111.715-13.044 182.331-24.858 223.606-94.046a111.294 111.294 0 0015.663-57.4 120.5 120.5 0 00-18.363-63.739 1252.423 1252.423 0 00-96.358-134.522c-41.393-50.393-89.808-106.854-81.07-171.478 6.634-49.074 45.014-87.039 82.169-119.774 42.868-37.77 88.116-74.659 141.484-95.054s116.791-22.058 165.017 8.575c49.128 31.208 73.663 88.444 98.975 140.855 29.219 60.5 28.275 126.854 80.695 168.878 68.278 54.729 140.425 15.102 140.425 15.102C94.35 120.626 170.031 74.482 250.98 55.306s167.783 17.534 229.999 72.758c73.359 65.112 81.947 180.604 48.037 272.64-16.787 45.572-42.785 89.95-41.54 138.499 1.883 73.368 64.134 129.828 90.14 198.458 0 0 133.37 235.165-20.32 361.5 0 0-58.944 56.266-134.504 50.4z"/><path data-name="Path 6697" d="M411.533 1129.357c-83.85-6.51-146.695-83.443-182.377-159.601s-49.997-160.34-76.8-240.058S82.018 570.254 8.258 529.848c-29.922-16.387-67.516-25.177-97.781-9.425-33.525 17.449-47.019 59.412-45.809 97.185s13.684 74.288 17.825 111.857c4.201 38.103-.966 78.807-23.2 110.035s-64.206 50.042-100.455 37.564c-40.799-14.043-61.376-61.295-61.776-104.442-.394-42.982 10.452-95.561-24.081-121.155-35.891-26.598-85.254 2.473-120.63 29.751-37.214 28.694-76.037 56.618-120.399 72.117s-127.744-3.38-168.933-25.992-65.503-72.43-55.005-118.233c11.48-50.086 78.258-59.273 78.258-59.273 108.523-12.672 177.119-24.147 217.214-91.358a108.111 108.111 0 0015.216-55.76 117.057 117.057 0 00-17.838-61.918 1216.61 1216.61 0 00-93.602-130.68c-40.211-48.95-87.242-103.8-78.756-166.578 6.446-47.67 43.726-84.551 79.82-116.352 41.64-36.69 85.598-72.524 137.438-92.337s113.452-21.427 160.3 8.33c47.724 30.315 71.558 85.916 96.145 136.828 28.383 58.77 27.47 123.227 78.39 164.05 66.325 53.174 136.413 14.675 136.413 14.675 75.463-28.905 148.98-73.732 227.616-92.36s162.99 17.037 223.427 70.682c71.257 63.25 79.603 175.445 46.665 264.846-16.31 44.27-41.565 87.379-40.354 134.54 1.83 71.267 62.298 126.117 87.563 192.785 0 0 129.558 228.446-19.739 351.166 0 .001-57.258 54.66-130.657 48.961z"/><path data-name="Path 6698" d="M400.27 1109.152c-81.383-6.318-142.377-80.987-177.01-154.905s-48.525-155.62-74.537-232.993-68.27-154.752-139.86-193.97c-29.04-15.908-65.526-24.434-94.903-9.147-32.538 16.936-45.633 57.662-44.46 94.325s13.28 72.105 17.3 108.565c4.077 36.982-.938 76.488-22.518 106.796s-62.318 48.568-97.499 36.46c-39.598-13.63-59.574-59.493-59.958-101.37-.382-41.716 10.145-92.749-23.372-117.59-34.833-25.817-82.745 2.401-117.08 28.876-36.119 27.849-73.8 54.952-116.856 69.994s-123.985-3.28-163.965-25.228-63.575-70.298-53.386-114.754c11.14-48.613 75.956-57.529 75.956-57.529 105.329-12.3 171.907-23.438 210.822-88.67a104.932 104.932 0 0014.767-54.119 113.617 113.617 0 00-17.312-60.096 1180.713 1180.713 0 00-90.849-126.835c-39.028-47.509-84.672-100.75-76.433-161.675 6.26-46.266 42.44-82.063 77.47-112.927 40.417-35.61 83.082-70.394 133.396-89.619s110.114-20.797 155.586 8.081c46.32 29.424 69.452 83.388 93.316 132.802 27.55 57.036 26.658 119.602 76.082 159.222 64.375 51.608 132.399 14.244 132.399 14.244 73.244-28.057 144.597-71.564 220.917-89.643s158.19 16.536 216.845 68.6c69.161 61.388 77.262 170.28 45.291 257.053-15.83 42.966-40.341 84.806-39.166 130.58 1.78 69.183 60.464 122.413 84.989 187.12 0 0 125.747 221.721-19.157 340.834-.002.003-55.574 53.05-126.814 47.518z"/><path data-name="Path 6699" d="M389.011 1088.948c-78.915-6.128-138.062-78.533-171.644-150.208s-47.05-150.903-72.278-225.93-66.2-150.06-135.62-188.089c-28.16-15.426-63.542-23.693-92.026-8.87-31.552 16.422-44.25 55.914-43.113 91.466s12.876 69.918 16.776 105.274c3.956 35.862-.909 74.168-21.835 103.558s-60.427 47.093-94.543 35.354c-38.398-13.215-57.768-57.69-58.14-98.296-.372-40.448 9.837-89.937-22.664-114.025-33.777-25.035-80.236 2.328-113.531 28-35.023 27.006-71.56 53.287-113.312 67.873s-120.226-3.181-158.995-24.464-61.648-68.168-51.768-111.276c10.807-47.137 73.657-55.783 73.657-55.783 102.136-11.925 166.695-22.726 204.432-85.983a101.742 101.742 0 0014.32-52.478 110.168 110.168 0 00-16.787-58.273 1145.063 1145.063 0 00-88.092-122.989c-37.844-46.067-82.106-97.69-74.117-156.772 6.068-44.864 41.153-79.576 75.123-109.505 39.192-34.53 80.56-68.255 129.351-86.9s106.77-20.168 150.86 7.838c44.914 28.536 67.348 80.86 90.488 128.775 26.713 55.311 25.851 115.977 73.78 154.397 62.423 50.044 128.381 13.812 128.381 13.812 71.022-27.208 140.212-69.4 214.219-86.927s153.393 16.034 210.274 66.522c67.066 59.524 74.918 165.116 43.915 249.257-15.351 41.663-39.12 82.235-37.98 126.622 1.722 67.078 58.632 118.695 82.409 181.44 0 0 121.934 214.998-18.575 330.5.005.002-53.885 51.444-122.965 46.08z"/><path data-name="Path 6700" d="M377.751 1068.744c-76.448-5.934-133.746-76.076-166.278-145.511s-45.585-146.186-70.017-218.868-64.132-145.367-131.38-182.206c-27.28-14.945-61.555-22.955-89.148-8.593-30.566 15.909-42.867 54.165-41.764 88.606s12.475 67.73 16.25 101.983c3.832 34.74-.88 71.853-21.15 100.32s-58.54 45.623-91.588 34.249c-37.197-12.803-55.96-55.885-56.321-95.222-.36-39.188 9.529-87.126-21.956-110.461-32.721-24.25-77.727 2.255-109.98 27.125-33.929 26.162-69.325 51.62-109.77 65.75s-116.467-3.08-154.024-23.695-59.72-66.036-50.149-107.797c10.465-45.664 71.349-54.04 71.349-54.04 98.943-11.556 161.483-22.018 198.039-83.294a98.567 98.567 0 0013.871-50.837 106.72 106.72 0 00-16.262-56.452 1109.135 1109.135 0 00-85.34-119.144c-36.661-44.628-79.54-94.634-71.8-151.871 5.878-43.462 39.867-77.088 72.773-106.08 37.966-33.45 78.041-66.122 125.31-84.186s103.436-19.537 146.145 7.593c43.511 27.64 65.242 78.331 87.659 124.75 25.879 53.58 25.044 112.349 71.469 149.565 60.472 48.478 124.37 13.38 124.37 13.38 68.807-26.352 135.83-67.222 207.527-84.209s148.597 15.532 203.7 64.44C494.252 221.71 501.86 324 471.83 405.51c-14.87 40.362-37.895 79.665-36.791 122.664 1.668 64.98 56.798 114.984 79.832 175.767 0 0 118.122 208.275-17.995 320.166 0 .001-52.204 49.833-119.124 44.638z"/><path data-name="Path 6701" d="M366.49 1048.539c-73.981-5.743-129.428-73.622-160.91-140.815s-44.113-141.467-67.758-211.802S75.76 555.245 10.682 519.595c-26.4-14.463-59.569-22.213-86.272-8.316-29.582 15.4-41.484 52.418-40.416 85.747s12.072 65.546 15.726 98.69c3.71 33.615-.854 69.53-20.47 97.083s-56.649 44.15-88.63 33.143c-35.996-12.389-54.155-54.081-54.504-92.15-.349-37.92 9.222-84.312-21.247-106.895-31.665-23.468-75.218 2.183-106.43 26.25-32.836 25.315-67.088 49.954-106.228 63.629s-112.708-2.982-149.052-22.934-57.791-63.904-48.53-104.316c10.128-44.191 69.047-52.297 69.047-52.297 95.748-11.18 156.276-21.304 191.647-80.605a95.385 95.385 0 0013.423-49.193 103.287 103.287 0 00-15.74-54.631A1073.412 1073.412 0 00-519.58 237.5c-35.478-43.188-76.972-91.582-69.483-146.967 5.688-42.059 38.577-74.6 70.423-102.657 36.743-32.37 75.523-63.987 121.264-81.467s100.099-18.906 141.432 7.35c42.107 26.747 63.135 75.803 84.831 120.723 25.042 51.852 24.235 108.723 69.161 144.744 58.521 46.913 120.357 12.948 120.357 12.948 66.581-25.505 131.445-65.054 200.824-81.49s143.8 15.03 197.126 62.36c62.875 55.798 70.236 154.784 41.177 233.666-14.391 39.059-36.674 77.094-35.605 118.705 1.615 62.882 54.964 111.276 77.256 170.093 0 0 114.309 201.554-17.414 309.834 0 0-50.52 48.224-115.28 43.196z"/><path data-name="Path 6702" d="M355.23 1028.336c-71.514-5.552-125.112-71.166-155.545-136.118s-42.641-136.75-65.497-204.74S74.198 551.491 11.29 517.03c-25.52-13.98-57.58-21.477-83.394-8.039-28.593 14.881-40.1 50.67-39.068 82.887s11.669 63.36 15.202 95.399c3.583 32.498-.824 67.213-19.787 93.844s-54.76 42.68-85.674 32.038c-34.796-11.976-52.349-52.278-52.686-89.075-.336-36.659 8.914-81.502-20.538-103.331-30.61-22.686-72.71 2.108-102.882 25.374-31.738 24.472-64.848 48.289-102.685 61.506s-108.946-2.882-144.08-22.17-55.865-61.773-46.912-100.838c9.79-42.717 66.744-50.55 66.744-50.55 92.555-10.809 151.06-20.596 185.255-77.918a92.205 92.205 0 0012.976-47.555 99.83 99.83 0 00-15.212-52.808 1037.645 1037.645 0 00-79.831-111.454c-34.295-41.747-74.405-88.528-67.165-142.068 5.498-40.656 37.294-72.11 68.075-99.232 35.516-31.292 73.004-61.855 117.22-78.752s96.76-18.275 136.714 7.105c40.703 25.855 61.03 73.275 82 116.696 24.206 50.123 23.426 105.098 66.855 139.913C-41.015 233.353 18.76 200.52 18.76 200.52c64.36-24.653 127.062-62.883 194.122-78.773s139.008 14.53 190.555 60.283c60.774 53.944 67.893 149.63 39.8 225.88-13.912 37.755-35.451 74.524-34.417 114.746 1.561 60.785 53.132 107.561 74.68 164.42 0 0 110.498 194.833-16.833 299.5-.003.005-48.838 46.621-111.438 41.761z"/><path data-name="Path 6703" d="M343.969 1008.132c-69.046-5.361-120.796-68.712-150.177-131.423s-41.17-132.03-63.24-197.674S72.633 547.741 11.896 514.47c-24.64-13.498-55.596-20.733-80.517-7.762-27.606 14.368-38.716 48.921-37.72 80.028s11.267 61.171 14.677 92.108c3.46 31.376-.795 64.893-19.105 90.606s-52.87 41.205-82.718 30.93c-33.594-11.564-50.54-50.473-50.868-86.002-.325-35.392 8.607-78.69-19.83-99.766-29.551-21.902-70.197 2.039-99.332 24.5-30.642 23.628-62.611 46.62-99.141 59.383s-105.19-2.782-139.11-21.403-53.937-59.642-45.293-97.359c9.452-41.243 64.442-48.809 64.442-48.809 89.362-10.434 145.847-19.885 178.862-75.23a89.027 89.027 0 0012.528-45.914 96.393 96.393 0 00-14.69-50.982 1001.73 1001.73 0 00-77.076-107.608c-33.111-40.307-71.837-85.474-64.847-137.166 5.308-39.253 36.006-69.623 65.726-95.809 34.29-30.212 70.484-59.72 113.175-76.033s93.422-17.645 131.998 6.859c39.298 24.963 58.92 70.745 79.17 112.67 23.373 48.39 22.618 101.472 64.55 135.087 54.613 43.782 112.328 12.084 112.328 12.084 62.143-23.805 122.683-60.715 187.431-76.055s134.21 14.029 183.976 58.205c58.678 52.079 65.552 144.464 38.427 218.084-13.431 36.452-34.225 71.952-33.234 110.785 1.508 58.687 51.296 103.848 72.101 158.751 0 0 106.686 188.11-16.253 289.168.005-.002-47.143 45.003-107.583 40.312z"/><path data-name="Path 6704" d="M332.709 987.928c-66.578-5.17-116.478-66.256-144.81-126.726s-39.7-127.312-60.98-190.61S71.068 543.99 12.5 511.905c-23.76-13.016-53.604-19.99-77.64-7.483-26.619 13.854-37.332 47.172-36.372 77.167s10.864 58.988 14.153 88.816c3.337 30.255-.766 62.574-18.422 87.369s-50.981 39.733-79.763 29.828c-32.394-11.15-48.736-48.67-49.05-82.93-.313-34.128 8.3-75.876-19.125-96.2-28.498-21.118-67.693 1.964-95.783 23.622-29.547 22.784-60.373 44.955-95.598 57.261s-101.429-2.687-134.136-20.643-52.01-57.51-43.675-93.88c9.115-39.77 62.139-47.064 62.139-47.064 86.168-10.062 140.635-19.174 172.472-72.54a85.839 85.839 0 0012.081-44.274 92.948 92.948 0 00-14.162-49.164 965.976 965.976 0 00-74.322-103.762c-31.928-38.867-69.266-82.418-62.529-132.268 5.119-37.85 34.72-67.135 63.378-92.385 33.065-29.133 67.967-57.586 109.13-73.318s90.084-17.013 127.282 6.615c37.895 24.072 56.818 68.22 76.342 108.644 22.536 46.664 21.809 97.846 62.242 130.259 52.665 42.22 108.315 11.653 108.315 11.653 59.916-22.955 118.293-58.548 180.73-73.337s129.414 13.527 177.403 56.122c56.58 50.221 63.204 139.303 37.052 210.293-12.95 35.15-33.003 69.38-32.042 106.828 1.454 56.59 49.466 100.14 69.527 153.075 0 0 102.873 181.388-15.671 278.832-.003.011-45.468 43.41-103.748 38.886z"/><path data-name="Path 6705" d="M321.447 967.724c-64.112-4.975-112.16-63.804-139.444-122.03s-38.228-122.595-58.721-183.548S69.5 540.236 13.107 509.343c-22.88-12.533-51.622-19.25-74.763-7.206-25.633 13.341-35.95 45.425-35.024 74.307s10.461 56.802 13.628 85.525c3.213 29.134-.739 60.255-17.739 84.132s-49.093 38.26-76.807 28.722c-31.194-10.736-46.93-46.868-47.233-79.857-.3-32.863 7.992-73.066-18.413-92.635-27.441-20.339-65.184 1.891-92.235 22.752-28.454 21.94-58.135 43.291-92.055 55.14s-97.673-2.584-129.168-19.875-50.082-55.379-42.056-90.4c8.777-38.295 59.835-45.32 59.835-45.32 82.976-9.688 135.424-18.463 166.08-69.852a82.649 82.649 0 0011.634-42.633 89.5 89.5 0 00-13.639-47.34 930.26 930.26 0 00-71.568-99.918c-30.745-37.426-66.703-79.364-60.212-127.363 4.928-36.446 33.433-64.647 61.029-88.961 31.84-28.052 65.447-55.451 105.086-70.6s86.745-16.383 122.564 6.37c36.489 23.178 54.711 65.69 73.512 104.617 21.699 44.935 21 94.22 59.934 125.432 50.714 40.655 104.301 11.22 104.301 11.22 57.7-22.102 113.91-56.376 174.034-70.62s124.622 13.024 170.832 54.04c54.483 48.361 60.865 134.141 35.68 202.5-12.47 33.848-31.78 66.808-30.854 102.868 1.398 54.496 47.632 96.426 66.949 147.403 0 0 99.06 174.666-15.09 268.5-.001-.001-43.781 41.79-99.902 37.433z"/><path data-name="Path 6706" d="M310.187 947.519c-61.644-4.787-107.846-61.344-134.078-117.334s-36.755-117.875-56.462-176.483S67.936 536.485 13.709 506.78c-22-12.053-49.635-18.509-71.885-6.929-24.648 12.827-34.566 43.677-33.672 71.45s10.057 54.612 13.103 82.234c3.089 28.012-.71 57.936-17.056 80.893s-47.204 36.788-73.852 27.616c-29.994-10.324-45.124-45.062-45.415-76.782-.29-31.599 7.682-70.249-17.703-89.069-26.384-19.555-62.675 1.82-88.683 21.872-27.36 21.096-55.9 41.624-88.516 53.016s-93.91-2.483-124.197-19.11-48.155-53.247-40.442-86.922c8.439-36.823 57.533-43.576 57.533-43.576 79.782-9.316 130.211-17.753 159.688-67.164a79.478 79.478 0 0011.186-40.994 86.066 86.066 0 00-13.113-45.52 894.373 894.373 0 00-68.815-96.072c-29.562-35.986-64.136-76.31-57.895-122.462 4.739-35.045 32.145-62.16 58.68-85.538C-396.729 36.75-364.42 10.407-326.3-4.158s83.406-15.754 117.847 6.124c35.085 22.286 52.609 63.158 70.683 100.59 20.866 43.206 20.198 90.596 57.628 120.605C-31.38 262.25 20.14 233.948 20.14 233.948c55.48-21.253 109.526-54.206 167.336-67.9s119.822 12.524 164.253 51.961c52.387 46.499 58.523 128.98 34.306 194.706-11.99 32.545-30.556 64.238-29.666 98.91 1.346 52.396 45.8 92.717 64.373 141.729 0 0 95.248 167.943-14.51 258.166.01.006-42.084 40.188-96.045 35.999z"/><path data-name="Path 6707" d="M298.923 927.314c-59.176-4.595-103.528-58.89-128.714-112.638s-35.285-113.158-54.2-169.418S66.37 532.732 14.314 504.215c-21.12-11.57-47.649-17.768-69.008-6.65-23.66 12.314-33.183 41.928-32.329 68.587s9.656 52.43 12.58 78.941c2.964 26.89-.68 55.617-16.374 77.654s-45.313 35.316-70.894 26.51c-28.794-9.91-43.318-43.258-43.599-73.705-.277-30.335 7.377-67.44-16.991-85.503-25.328-18.773-60.167 1.746-85.134 20.997-26.263 20.25-53.661 39.958-84.969 50.896s-90.154-2.386-119.225-18.345-46.228-51.116-38.817-83.44c8.101-35.349 55.23-41.832 55.23-41.832 76.588-8.943 125-17.043 153.297-64.476a76.3 76.3 0 0010.734-39.353 82.613 82.613 0 00-12.588-43.698 858.648 858.648 0 00-66.059-92.227c-28.378-34.545-61.569-73.256-55.578-117.56 4.55-33.641 30.86-59.67 56.331-82.114 29.389-25.894 60.41-51.183 96.998-65.165s80.067-15.123 113.13 5.878c33.68 21.395 50.503 60.636 67.853 96.566 20.032 41.475 19.385 86.966 55.323 115.776 46.81 37.525 96.274 10.353 96.274 10.353 53.258-20.402 105.14-52.034 160.637-65.182s115.025 12.024 157.678 49.882c50.292 44.638 56.18 123.816 32.933 186.912-11.51 31.242-29.334 61.666-28.482 94.95 1.292 50.298 43.967 89.005 61.797 136.055 0 0 91.431 161.22-13.93 247.833.006.009-40.404 38.582-92.208 34.559z"/><path data-name="Path 6708" d="M287.666 907.11c-56.712-4.403-99.212-56.432-123.344-107.94s-33.816-108.442-51.939-162.355-47.572-107.834-97.456-135.161c-20.239-11.09-45.661-17.027-66.131-6.374-22.673 11.798-31.799 40.18-30.98 65.728s9.253 50.244 12.055 75.65c2.842 25.771-.653 53.299-15.69 74.418s-43.42 33.845-67.94 25.405c-27.592-9.497-41.511-41.455-41.781-70.637-.267-29.069 7.069-64.628-16.287-81.94-24.273-17.99-57.659 1.673-81.585 20.122-25.169 19.405-51.422 38.295-81.427 48.774s-86.395-2.286-114.254-17.58-44.3-48.985-37.2-79.963c7.761-33.871 52.927-40.087 52.927-40.087 73.395-8.57 119.788-16.332 146.906-61.79a73.119 73.119 0 0010.29-37.711 79.172 79.172 0 00-12.063-41.876 822.775 822.775 0 00-63.305-88.376c-27.195-33.105-59.002-70.202-53.26-112.658 4.36-32.24 29.573-57.183 53.983-78.69 28.164-24.814 57.891-49.049 92.953-62.448s76.729-14.493 108.413 5.634c32.278 20.501 48.395 58.108 65.025 92.539 19.195 39.743 18.577 83.34 53.016 110.95 44.858 35.96 92.258 9.924 92.258 9.924 51.038-19.554 100.757-49.866 153.94-62.464s110.233 11.523 151.103 47.802c48.193 42.776 53.837 118.655 31.559 179.122-11.031 29.94-28.112 59.095-27.291 90.991 1.237 48.203 42.133 85.294 59.22 130.383 0 0 87.623 154.497-13.35 237.503.001-.003-38.724 36.96-88.365 33.105z"/><path data-name="Path 6709" d="M276.404 886.906c-54.24-4.21-94.895-53.978-117.978-103.24s-32.342-103.722-49.678-155.293S63.246 525.23 15.53 499.092c-19.36-10.605-43.675-16.287-63.254-6.097-21.687 11.287-30.415 38.432-29.632 62.868s8.852 48.055 11.53 72.359c2.72 24.648-.624 50.979-15.008 71.179s-41.534 32.37-64.983 24.3c-26.392-9.083-39.705-39.652-39.962-67.562-.253-27.807 6.763-61.818-15.578-78.374-23.217-17.207-55.15 1.6-78.034 19.245-24.073 18.563-49.187 36.626-77.885 46.655s-82.636-2.186-109.283-16.815-42.372-46.853-35.582-76.485c7.426-32.4 50.626-38.343 50.626-38.343 70.203-8.196 114.576-15.62 140.512-59.098a69.936 69.936 0 009.843-36.07 75.724 75.724 0 00-11.537-40.056 786.994 786.994 0 00-60.551-84.537c-26.012-31.664-56.435-67.146-50.943-107.755 4.17-30.837 28.286-54.696 51.634-75.267 26.937-23.734 55.37-46.916 88.91-59.731s73.39-13.862 103.695 5.389c30.872 19.61 46.29 55.577 62.196 88.512 18.36 38.018 17.767 79.719 50.708 106.122 42.907 34.396 88.244 9.493 88.244 9.493 48.817-18.7 96.374-47.697 147.242-59.747S273.873 210.297 312.97 245c46.096 40.915 51.492 113.49 30.188 171.326-10.552 28.637-26.888 56.524-26.105 87.033 1.184 46.105 40.301 81.584 56.643 124.71 0 0 83.81 147.777-12.768 227.167.002.001-37.041 35.357-84.523 31.67z"/><path data-name="Path 6710" d="M265.15 866.704c-51.775-4.02-90.575-51.522-112.612-98.547s-30.876-99.006-47.424-148.228-43.433-98.45-88.976-123.4c-18.48-10.123-41.688-15.547-60.376-5.82-20.7 10.774-29.03 36.684-28.285 60.009s8.448 45.871 11.006 69.067c2.594 23.528-.598 48.664-14.324 67.942s-39.646 30.898-62.027 23.195c-25.192-8.67-37.9-37.848-38.143-64.49-.244-26.54 6.457-59.004-14.87-74.81-22.159-16.423-52.64 1.528-74.484 18.371-22.977 17.717-46.949 34.96-74.339 44.53s-78.876-2.086-104.31-16.049-40.446-44.723-33.964-73.005c7.091-30.925 48.321-36.599 48.321-36.599 67.007-7.822 109.362-14.907 134.121-56.41a66.754 66.754 0 009.394-34.43 72.279 72.279 0 00-11.014-38.233 751.176 751.176 0 00-57.796-80.69c-24.829-30.224-53.867-64.092-48.626-102.855 3.98-29.434 26.999-52.207 49.282-71.843 25.713-22.656 52.854-44.781 84.864-57.012s70.052-13.231 98.98 5.143c29.466 18.719 44.184 53.05 59.368 84.488 17.525 36.288 16.96 76.088 48.402 101.294 40.955 32.833 84.23 9.062 84.23 9.062 46.597-17.85 91.989-45.528 140.546-57.028S262.732 220.875 300.05 254c44 39.054 49.153 108.329 28.815 163.532-10.071 27.334-25.664 53.953-24.917 83.073 1.13 44.009 38.466 77.872 54.066 119.039 0 0 79.998 141.054-12.187 216.832-.007-.003-35.361 33.746-80.678 30.229z"/><path data-name="Path 6711" d="M253.885 846.5c-49.306-3.828-86.262-49.069-107.245-93.852s-29.4-94.286-45.16-141.163-41.362-93.759-84.736-117.519c-17.6-9.641-39.702-14.805-57.5-5.542-19.713 10.26-27.648 34.935-26.936 57.148s8.046 43.686 10.481 65.776c2.47 22.407-.568 46.342-13.643 64.704s-37.756 29.427-59.07 22.09c-23.99-8.257-36.093-36.045-36.327-61.416-.23-25.28 6.148-56.193-14.16-71.244-21.103-15.64-50.131 1.455-70.934 17.495-21.882 16.872-44.707 33.295-70.798 42.407s-75.118-1.987-99.34-15.285-38.518-42.591-32.344-69.525c6.75-29.452 46.019-34.855 46.019-34.855 63.815-7.451 104.152-14.2 127.729-53.72a63.571 63.571 0 008.944-32.795 68.835 68.835 0 00-10.487-36.414 715.449 715.449 0 00-55.042-76.845c-23.646-28.783-51.299-61.042-46.308-97.953 3.79-28.031 25.712-49.719 46.936-68.418 24.487-21.576 50.334-42.647 80.82-54.297s66.714-12.6 94.258 4.897c28.063 17.826 42.079 50.521 56.537 80.46 16.687 34.556 16.152 72.463 46.095 96.467 39.003 31.267 80.216 8.63 80.216 8.63 44.375-16.999 87.609-43.357 133.846-54.312s95.841 10.018 131.38 41.563c41.903 37.193 46.811 103.166 27.442 155.739-9.591 26.031-24.442 51.382-23.73 79.115 1.076 41.91 36.633 74.16 51.49 113.364 0 0 76.185 134.333-11.607 206.5 0 .007-33.666 32.15-76.826 28.8z"/><path data-name="Path 6712" d="M242.623 826.295c-46.84-3.637-81.946-46.613-101.878-89.154s-27.928-89.567-42.9-134.1-39.293-89.065-80.495-111.639c-16.716-9.157-37.715-14.064-54.62-5.264-18.729 9.747-26.27 33.184-25.593 54.284s7.645 41.496 9.958 62.484c2.345 21.285-.54 44.022-12.96 61.465s-35.87 27.952-56.116 20.984c-22.789-7.847-34.287-34.24-34.508-58.342-.22-24.01 5.839-53.38-13.453-67.678-20.048-14.86-47.623 1.381-67.385 16.618-20.789 16.03-42.474 31.628-67.256 40.286s-71.359-1.888-94.369-14.52-36.59-40.46-30.726-66.047c6.413-27.979 43.716-33.11 43.716-33.11 60.62-7.08 98.94-13.49 121.338-51.035a60.383 60.383 0 008.503-31.146 65.392 65.392 0 00-9.963-34.587 679.625 679.625 0 00-52.288-73c-22.463-27.343-48.73-57.982-43.991-93.051 3.601-26.629 24.423-47.233 44.59-64.994 23.262-20.496 47.812-40.514 76.777-51.58s63.375-11.97 89.548 4.655c26.66 16.934 39.973 47.993 53.708 76.433 15.854 32.83 15.344 68.837 43.789 91.64 37.05 29.703 76.201 8.197 76.201 8.197 42.156-16.15 83.223-41.187 127.149-51.593s91.045 9.516 124.807 39.483c39.806 35.331 44.468 98.004 26.068 147.945-9.113 24.732-23.22 48.81-22.543 75.156 1.022 39.813 34.803 70.446 48.914 107.691 0 0 72.373 127.612-11.026 196.166-.01.004-31.995 30.536-72.996 27.353z"/><path data-name="Path 6713" d="M231.363 806.09c-44.372-3.446-77.628-44.156-96.512-84.456s-26.458-84.85-40.644-127.037-37.222-84.375-76.254-105.758c-15.835-8.675-35.728-13.323-51.745-4.988-17.74 9.233-24.88 31.44-24.24 51.429s7.236 39.31 9.432 59.193c2.224 20.163-.507 41.705-12.277 58.227s-33.977 26.482-53.158 19.88c-21.59-7.43-32.482-32.437-32.69-55.27-.21-22.746 5.53-50.569-12.744-64.112-18.993-14.077-45.115 1.309-63.835 15.743-19.693 15.185-40.238 29.962-63.713 38.163s-67.6-1.788-89.4-13.751-34.663-38.329-29.108-62.567c6.074-26.505 41.413-31.367 41.413-31.367 57.429-6.706 93.73-12.782 114.947-48.345a57.207 57.207 0 008.051-29.507 61.955 61.955 0 00-9.439-32.766 643.906 643.906 0 00-49.534-69.154c-21.279-25.903-46.166-54.926-41.674-88.15 3.411-25.226 23.14-44.743 42.239-61.57 22.036-19.416 45.297-38.379 72.732-48.863s60.037-11.34 84.828 4.409c25.258 16.043 37.866 45.464 50.879 72.407 15.02 31.098 14.533 65.21 41.481 86.812 35.1 28.138 72.188 7.766 72.188 7.766 39.935-15.297 78.837-39.018 120.45-48.876s86.25 9.015 118.232 37.403c37.714 33.467 42.131 92.837 24.706 140.147-8.632 23.427-21.995 46.24-21.355 71.198.969 37.715 32.967 66.738 46.337 102.018 0 0 68.557 120.888-10.445 185.832-.006.004-30.303 28.927-69.148 25.91z"/><path data-name="Path 6714" d="M220.102 785.886c-41.904-3.253-73.311-41.701-91.145-79.761s-24.986-80.13-38.38-119.97-35.15-79.687-72.014-99.878c-14.955-8.19-33.741-12.582-48.867-4.71-16.754 8.72-23.497 29.69-22.893 48.57s6.837 37.127 8.908 55.905c2.1 19.043-.483 39.385-11.595 54.99s-32.088 25.011-50.203 18.774c-20.39-7.018-30.675-30.633-30.873-52.196-.197-21.48 5.223-47.757-12.034-60.548-17.936-13.293-42.606 1.236-60.285 14.865-18.598 14.34-38 28.296-60.17 36.042s-63.842-1.688-84.429-12.99-32.735-36.197-27.488-59.089c5.736-25.03 39.11-29.622 39.11-29.622 54.235-6.333 88.518-12.068 108.556-45.657a54.026 54.026 0 007.603-27.866 58.5 58.5 0 00-8.913-30.944 607.817 607.817 0 00-46.78-65.31c-20.096-24.462-43.6-51.875-39.357-83.248 3.222-23.823 21.853-42.255 39.89-58.148 20.811-18.335 42.779-36.244 68.688-46.146s56.7-10.708 80.11 4.163c23.851 15.151 35.763 42.938 48.05 68.381 14.18 29.37 13.727 61.585 39.175 81.986 33.147 26.573 68.174 7.334 68.174 7.334 37.714-14.447 74.453-36.848 113.752-46.158s81.453 8.515 111.66 35.318c35.611 31.609 39.782 87.679 23.32 132.359-8.15 22.123-20.772 43.668-20.167 67.238.915 35.618 31.134 63.027 43.76 96.345 0 0 64.75 114.166-9.864 175.499-.002.005-28.617 27.32-65.299 24.472z"/><path data-name="Path 6715" d="M208.842 765.683c-39.438-3.063-68.995-39.247-85.778-75.066S99.55 615.204 86.944 577.71s-33.082-74.99-67.776-93.993c-14.074-7.71-31.756-11.84-45.99-4.433-15.767 8.206-22.113 27.943-21.544 45.71s6.436 34.939 8.383 52.61c1.976 17.92-.454 37.065-10.912 51.751s-30.198 23.536-47.247 17.669c-19.189-6.604-28.867-28.835-29.055-49.123-.185-20.216 4.916-44.945-11.326-56.983-16.88-12.51-40.098 1.163-56.736 13.993-17.503 13.496-35.762 26.63-56.628 33.919s-60.082-1.59-79.456-12.226-30.807-34.066-25.87-55.608c5.399-23.558 36.807-27.878 36.807-27.878 51.037-5.962 83.304-11.358 102.162-42.97a50.853 50.853 0 007.157-26.225 55.058 55.058 0 00-8.39-29.122 572.269 572.269 0 00-44.024-61.463c-18.914-23.022-41.033-48.82-37.037-78.345 3.032-22.42 20.566-39.767 37.541-54.724 19.586-17.257 40.255-34.112 64.643-43.429s53.36-10.079 75.395 3.918c22.444 14.262 33.656 40.41 45.219 64.357 13.35 27.641 12.919 57.958 36.868 77.158 31.196 25.009 64.16 6.903 64.16 6.903 35.493-13.596 70.07-34.679 107.055-43.44s76.657 8.012 105.083 33.243c33.515 29.747 37.44 82.516 21.949 124.565-7.671 20.821-19.551 41.102-18.98 63.28.862 33.52 29.301 59.317 41.181 90.671 0 0 60.936 107.444-9.28 165.166-.001-.006-26.932 25.7-61.454 23.022z"/><path data-name="Path 6716" d="M197.581 745.478c-36.97-2.87-64.68-36.789-80.411-70.37s-22.044-70.694-33.86-105.842-31.014-70.3-63.535-88.115c-13.193-7.228-29.767-11.101-43.112-4.155-14.78 7.693-20.73 26.194-20.196 42.849s6.032 32.755 7.858 49.319c1.852 16.8-.425 34.746-10.229 48.515s-28.31 22.063-44.29 16.562c-17.988-6.192-27.063-27.026-27.238-46.05-.174-18.951 4.608-42.133-10.617-53.418-15.824-11.729-37.593 1.088-53.187 13.118-16.408 12.65-33.525 24.963-53.085 31.796s-56.323-1.49-74.484-11.46-28.88-31.935-24.251-52.13c5.06-22.084 34.504-26.134 34.504-26.134 47.849-5.588 78.093-10.647 95.77-40.281a47.665 47.665 0 006.709-24.584 51.612 51.612 0 00-7.864-27.3 536.373 536.373 0 00-41.27-57.619c-17.732-21.577-38.466-45.766-34.723-73.444 2.843-21.018 19.28-37.281 35.192-51.3 18.361-16.177 37.741-31.976 60.598-40.712s50.022-9.448 70.678 3.673c21.041 13.366 31.55 37.88 42.39 60.329 12.515 25.91 12.11 54.332 34.563 72.33 29.243 23.444 60.145 6.47 60.145 6.47 33.273-12.745 65.686-32.51 100.357-40.722s71.858 7.51 98.51 31.161c31.417 27.89 35.098 77.354 20.575 116.772-7.192 19.519-18.327 38.526-17.793 59.32.807 31.424 27.467 55.606 38.607 85 0 0 57.124 100.721-8.702 154.832 0 .004-25.247 24.103-57.609 21.59z"/><path data-name="Path 6717" d="M186.32 725.273c-34.502-2.678-60.362-34.335-75.044-65.672s-20.575-65.972-31.6-98.78-28.943-65.607-59.295-82.234c-12.313-6.744-27.78-10.36-40.234-3.878-13.795 7.18-19.346 24.445-18.849 39.99s5.63 30.57 7.334 46.028c1.73 15.68-.398 32.428-9.546 45.278s-26.42 20.59-41.335 15.457c-16.788-5.778-25.256-25.223-25.418-42.975-.162-17.687 4.3-39.322-9.908-49.853-14.768-10.945-35.081 1.02-49.637 12.242-15.313 11.807-31.288 23.296-49.54 29.675s-52.565-1.392-69.514-10.699-26.953-29.803-22.633-48.65c4.723-20.61 32.204-24.39 32.204-24.39 44.655-5.214 72.881-9.935 89.381-37.595a44.483 44.483 0 006.26-22.944 48.159 48.159 0 00-7.34-25.478 500.54 500.54 0 00-38.515-53.772c-16.546-20.142-35.898-42.712-32.404-68.543 2.653-19.617 17.991-34.79 32.845-47.88 17.135-15.097 35.222-29.842 56.554-37.995s46.683-8.817 65.962 3.425c19.637 12.475 29.444 35.353 39.562 56.302 11.674 24.18 11.302 50.705 32.255 67.503 27.293 21.88 56.132 6.038 56.132 6.038 31.054-11.898 61.303-30.34 93.656-38.006s67.065 7.01 91.934 29.084c29.322 26.026 32.756 72.19 19.202 108.98-6.712 18.216-17.102 35.952-16.604 55.36.753 29.327 25.634 51.894 36.03 79.328 0 0 53.31 94-8.123 144.498-.009.01-23.57 22.5-53.771 20.156z"/></g></g></svg>
