<svg width="842" height="640" fill="none" xmlns="http://www.w3.org/2000/svg"><path d="M842-10H0v698.403h842V-10z" fill="url(#paint0_radial)"/><g opacity=".26" fill="#DFF5FC" fill-opacity=".42"><path opacity=".26" d="M274.324 80.83l155.77 254.083-123.101-265.77L275.334.946h-49.846l48.836 79.882zM777.334 325.151l-347.577 11.687L842 357.462v-34.51l-64.666 2.199zM348.251 58.968l82.011 276.083L383.11 53.606 374.353.946h-43.447l17.345 58.022zM208.479 115.615l221.278 219.161L236.939 98.291 157.622.947H92.62l115.859 114.668zM88.073 277.167l340.842 57.471-331.917-85.657L0 223.958v38.36l88.073 14.849zM153.581 161.537l276.007 173.101L0 2.872v62.283l153.581 96.382zM429.252 334.501L0 128.401v45.647l429.252 160.453zM80.664 340.963l347.914-6.325-346.904-22.686L0 306.59v35.885l80.664-1.512zM842 280.742v-36.023l-76.454 17.049-335.621 74.933L842 280.742zM736.75 202.097L430.262 336.563l321.644-108.206L842 198.109v-42.21l-105.25 46.198zM692.292 149.3L430.43 336.288l283.923-164.165L842 98.291V42.33L692.292 149.3zM491.054 55.806L430.599 335.6l95.146-273.333L547.132.947h-44.29l-11.788 54.859zM634.531 105.853L430.599 336.151l231.55-212.012L796.869.947h-69.381l-92.957 104.906zM566.161 74.23L430.599 335.876 598.325 86.879 656.086.947h-51.867L566.161 74.23zM430.43 335.326l17.851-283.782L451.48.947h-41.931l20.881 334.379zM516.483 611.271l-88.579-274.708 53.72 280.62 13.809 71.22h45.973l-24.923-77.132zM90.936 404.484l337.305-69.708-344.21 41.247L0 386.06v37.26l90.936-18.836zM589.905 588.31L428.073 336.701l129.499 263.708 43.111 87.994h53.551L589.905 588.31zM654.908 552.424L428.41 336.838l198.375 233.46 100.534 118.105h70.56L654.908 552.424zM748.201 450.268L429.083 336.976 842 526.714v-43.173l-93.799-33.273zM771.44 389.085l-342.02-52.109 333.769 80.294L842 436.244v-36.435l-70.56-10.724zM428.746 336.976l257.316 191.112L842 643.994v-58.022L428.746 336.976zM161.496 518.052l266.24-182.864-287.627 159.765L0 572.636v56.509l161.496-111.093zM118.385 464.568l309.688-129.655-324.339 103.119L0 471.03v43.034l118.385-49.496zM427.736 335.463l-236.77 208.299L26.607 688.403h75.443l325.686-352.94zM427.568 335.738L179.009 688.403h55.909l192.65-352.665zM360.544 614.708l67.024-278.695-101.546 271.683-30.143 80.707h46.983l17.682-73.695zM438.85 620.208l-11.114-283.92-24.586 283.37-5.894 68.745h44.12l-2.526-68.195z"/></g><defs><radialGradient id="paint0_radial" cx="0" cy="0" r="1" gradientUnits="userSpaceOnUse" gradientTransform="matrix(421 0 0 349.202 421 339.202)"><stop offset=".141" stop-color="#9779FF"/><stop offset=".479" stop-color="#5938A6" stop-opacity=".957"/><stop offset=".771" stop-color="#230059" stop-opacity=".92"/><stop offset="1" stop-color="#1E0941"/></radialGradient></defs></svg>