<svg xmlns="http://www.w3.org/2000/svg" width="394" height="486"><defs><clipPath id="a"><path transform="translate(0 2093)" fill="#fff" stroke="#707070" d="M0 0h394v486H0z"/></clipPath></defs><g transform="translate(0 -2093)" clip-path="url(#a)"><g opacity=".46" fill="none" stroke="#d2e8f8" stroke-miterlimit="10"><path d="M286.409 2695.113c-96.727 77.108-241.499 57.39-356.275 11.26s-214.617-122.322-323.41-181.19-235.6-100.95-355.477-70.427c-48.63 12.383-97.88 40.642-114.635 87.945-18.56 52.397 9.018 111.07 48.21 150.491s89.238 66.19 131.377 102.443c42.741 36.774 78.012 85.74 85.418 141.635s-18.872 118.233-70.373 141.172c-57.973 25.82-127.512-4.366-171.216-50.38-43.54-45.84-84.614-113.28-147.436-106.17-65.288 7.387-89.224 88.177-99.916 153.005-11.247 68.194-25.002 137.177-57.171 198.346s-140.803 124.504-207.797 141.498-143.113-12.206-177.767-72.006c-37.894-65.392 24.725-142.26 24.725-142.26 104.025-122.488 166.305-203.643 142.015-316.155a159.014 159.014 0 00-39.565-75.24 172.17 172.17 0 00-81.297-48.713 1789.489 1789.489 0 00-231.772-46.678c-92.355-12.319-197.965-24.146-251.803-100.19-40.883-57.744-37.777-134.812-30.85-205.223 7.986-81.237 19.328-163.876 55.22-237.191s100.545-136.854 180.79-151.832c81.745-15.262 163.155 20.64 240.674 50.741 89.481 34.748 153.155 105.003 248.88 97.836 124.685-9.336 161.458-121.05 161.458-121.05 52.174-106.791 86.294-228.757 152.197-327.67s192.41-145.164 311.232-148.084c140.094-3.45 261.612 108.861 315.86 238.075 26.861 63.98 42.938 135.686 91.548 185.202 73.465 74.83 193.52 73.172 287.572 119.543 0 0 368.515 115.774 331.022 397.544.001 0-6.766 116.23-91.438 183.723z"/><path d="M264.396 2688.022c-94.792 75.565-236.668 56.241-349.148 11.036s-210.322-119.877-316.94-177.567-230.889-98.935-348.363-69.022c-47.659 12.136-95.922 39.829-112.342 86.186-18.19 51.35 8.837 108.848 47.245 147.48s87.46 64.865 128.75 100.393c41.885 36.038 76.45 84.024 83.708 138.8s-18.493 115.869-68.968 138.35c-56.813 25.303-124.961-4.279-167.792-49.373-42.668-44.923-82.92-111.012-144.485-104.045-63.98 7.24-87.439 86.413-97.916 149.947-11.022 66.83-24.497 134.43-56.026 194.378s-137.986 122.013-203.639 138.668-140.25-11.963-174.21-70.567c-37.136-64.084 24.23-139.415 24.23-139.415 101.942-120.04 162.973-199.57 139.17-309.838a155.829 155.829 0 00-38.774-73.736 168.722 168.722 0 00-79.67-47.737 1753.5 1753.5 0 00-227.134-45.744c-90.507-12.073-194.004-23.663-246.766-98.186-40.064-56.588-37.021-132.114-30.233-201.114 7.832-79.613 18.947-160.599 54.118-232.446s98.534-134.115 177.172-148.797c80.109-14.957 159.896 20.225 235.859 49.726 87.688 34.05 150.09 102.9 243.897 95.876 122.19-9.149 158.228-118.627 158.228-118.627 51.135-104.657 84.57-224.178 149.151-321.115s188.558-142.26 305.008-145.121c137.293-3.375 256.384 106.69 309.543 233.318 26.323 62.7 42.083 132.969 89.718 181.497 71.99 73.333 189.647 71.707 281.819 117.155 0 0 361.142 113.457 324.399 389.592-.001-.004-6.633 113.901-89.61 180.048z"/><path d="M242.38 2680.924c-92.859 74.023-231.835 55.094-342.02 10.81s-206.028-117.428-310.468-173.94-226.175-96.915-341.251-67.614c-46.685 11.888-93.963 39.017-110.048 84.428-17.818 50.303 8.657 106.626 46.281 144.47s85.667 63.54 126.12 98.345c41.029 35.302 74.89 82.308 82 135.967s-18.116 113.503-67.559 135.524c-55.652 24.786-122.41-4.191-164.365-48.365-41.797-44.005-81.23-108.744-141.535-101.921-62.676 7.092-85.654 84.65-95.918 146.884-10.797 65.466-23.997 131.688-54.883 190.41s-135.17 119.518-199.482 135.836-137.387-11.719-170.654-69.127c-36.378-62.777 23.731-136.566 23.731-136.566 99.858-117.587 159.65-195.496 136.33-303.509a152.649 152.649 0 00-37.984-72.23 165.278 165.278 0 00-78.043-46.763 1717.857 1717.857 0 00-222.5-44.812c-88.658-11.824-190.042-23.178-241.727-96.18-39.248-55.433-36.265-129.417-29.617-197.012 7.674-77.99 18.56-157.321 53.016-227.703s96.52-131.382 173.555-145.759c78.475-14.647 156.627 19.813 231.046 48.71 85.901 33.356 147.028 100.8 238.92 93.92 119.694-8.962 154.997-116.205 154.997-116.205 50.087-102.518 82.842-219.601 146.107-314.56s184.71-139.356 298.78-142.159c134.49-3.305 251.146 104.514 303.224 228.556 25.786 61.42 41.22 130.257 87.885 177.793 70.522 71.835 185.777 70.244 276.065 114.76 0 0 353.77 111.14 317.777 381.633 0 .007-6.496 111.584-87.78 176.38z"/><path d="M220.363 2673.83c-90.921 72.479-227.005 53.944-334.892 10.584s-201.737-114.986-303.999-170.317-221.46-94.894-334.14-66.203c-45.711 11.64-92.004 38.202-107.756 82.667-17.446 49.254 8.476 104.403 45.317 141.458s83.882 62.216 123.492 96.295c40.175 34.566 73.329 80.594 80.29 133.134s-17.738 111.137-66.152 132.7c-54.493 24.27-119.857-4.102-160.94-47.357-40.926-43.09-79.536-106.479-138.586-99.798-61.368 6.944-83.869 82.886-93.92 143.824-10.572 64.101-23.5 128.943-53.739 186.44s-132.352 117.032-195.324 133.006-134.523-11.474-167.098-67.686c-35.62-61.467 23.242-133.722 23.242-133.722 97.78-115.137 156.32-191.422 133.489-297.183a149.467 149.467 0 00-37.191-70.726 161.84 161.84 0 00-76.417-45.788 1681.945 1681.945 0 00-217.861-43.877c-86.812-11.58-186.082-22.697-236.689-94.173-38.429-54.278-35.509-126.72-29-192.906 7.514-76.365 18.173-154.043 51.914-222.957s94.51-128.64 169.937-142.721c76.838-14.346 153.363 19.4 226.228 47.696 84.116 32.66 143.964 98.7 233.942 91.963 117.2-8.776 151.768-113.784 151.768-113.784 49.047-100.383 81.114-215.023 143.062-308.004s180.862-136.452 292.554-139.197c131.684-3.237 245.91 102.334 296.901 223.79 25.248 60.138 40.36 127.543 86.055 174.088 69.05 70.338 181.903 68.78 270.31 112.368 0 0 346.397 108.824 311.155 373.684.005-.002-6.36 109.255-85.952 172.701z"/><path d="M198.351 2666.73c-88.986 70.936-222.172 52.798-327.764 10.36s-197.44-112.534-297.532-166.69-216.746-92.876-327.025-64.796c-44.738 11.392-90.047 37.39-105.462 80.907-17.074 48.205 8.297 102.182 44.353 138.448s82.096 60.89 120.863 94.245c39.32 33.83 71.769 78.88 78.582 130.3s-17.36 108.772-64.744 129.876c-53.331 23.757-117.307-4.018-157.515-46.35-40.053-42.166-77.842-104.211-135.635-97.671-60.06 6.795-82.084 81.121-91.922 140.761-10.346 62.737-22.997 126.198-52.595 182.473s-129.534 114.54-191.167 130.175-131.66-11.23-163.54-66.244c-34.861-60.16 22.746-130.875 22.746-130.875 95.7-112.687 152.992-187.346 130.647-290.858a146.283 146.283 0 00-36.399-69.221 158.388 158.388 0 00-74.79-44.813 1646.183 1646.183 0 00-213.224-42.944c-84.965-11.333-182.123-22.217-231.653-92.17-37.611-53.124-34.753-124.024-28.382-188.801 7.35-74.738 17.784-150.76 50.807-218.213s92.499-125.901 166.321-139.684c75.203-14.04 150.098 18.987 221.414 46.68 82.317 31.97 140.894 96.602 228.958 90.008 114.707-8.589 148.537-111.362 148.537-111.362 48.003-98.247 79.39-210.448 140.016-301.448s177.012-133.548 286.326-136.234c128.886-3.168 240.68 100.157 290.587 219.03 24.71 58.861 39.501 124.825 84.223 170.38 67.582 68.842 178.033 67.316 264.559 109.977 0 0 339.024 106.508 304.531 365.731 0 0-6.226 106.93-84.121 169.024z"/><path d="M176.338 2659.635c-87.05 69.394-217.342 51.649-320.637 10.134s-193.148-110.088-291.058-163.066-212.032-90.857-319.916-63.386c-43.767 11.144-88.093 36.572-103.168 79.147-16.703 47.157 8.116 99.96 43.389 135.437s80.31 59.567 118.234 92.196c38.465 33.094 70.207 77.163 76.873 127.466s-16.982 106.407-63.336 127.052c-52.177 23.238-114.757-3.93-154.09-45.34-39.184-41.255-76.149-101.947-132.686-95.55-58.756 6.648-80.3 79.357-89.922 137.7-10.121 61.373-22.498 123.451-51.451 178.505s-126.717 112.05-187.01 127.344-128.794-10.987-159.984-64.804c-34.103-58.85 22.252-128.03 22.252-128.03 93.618-110.235 149.666-183.27 127.807-284.532a143.113 143.113 0 00-35.607-67.715 154.953 154.953 0 00-73.164-43.838 1610.445 1610.445 0 00-208.587-42.01c-83.117-11.086-178.162-21.73-226.615-90.167-36.793-51.967-33.998-121.326-27.765-184.694 7.19-73.11 17.395-147.482 49.697-213.464s90.488-123.164 162.704-136.646c73.568-13.735 146.835 18.574 216.599 45.665 80.53 31.272 137.835 94.5 223.983 88.05 112.212-8.403 145.307-108.943 145.307-108.943 46.957-96.111 77.66-205.872 136.97-294.894s173.163-130.644 280.1-133.271c126.081-3.098 235.444 97.98 284.265 214.267 24.175 57.58 38.644 122.111 82.392 166.676 66.112 67.345 174.16 65.852 258.805 107.585 0 0 331.652 104.192 297.911 357.777-.006 0-6.092 104.603-82.292 165.35z"/><path d="M154.323 2652.538c-85.116 67.852-212.51 50.5-313.51 9.908s-188.853-107.638-284.588-159.44-207.319-88.837-312.803-61.976c-42.794 10.897-86.131 35.763-100.874 77.389-16.332 46.109 7.936 97.74 42.424 132.425s78.526 58.244 115.607 90.147c37.61 32.359 68.646 75.448 75.163 124.633s-16.605 104.041-61.928 124.23c-51.013 22.72-112.205-3.842-150.664-44.333-38.313-40.337-74.456-99.68-129.735-93.425-57.451 6.5-78.517 77.59-87.923 134.64-9.898 60.008-22 120.709-50.309 174.536s-123.9 109.558-182.852 124.515-125.934-10.742-156.427-63.365c-33.346-57.541 21.757-125.182 21.757-125.182 91.538-107.786 146.339-179.199 124.966-278.208a139.926 139.926 0 00-34.819-66.214 151.506 151.506 0 00-71.537-42.865 1574.6 1574.6 0 00-203.95-41.077c-81.27-10.84-174.2-21.244-221.576-88.166-35.975-50.812-33.242-118.628-27.148-180.588 7.032-71.484 17.008-144.205 48.595-208.72s88.475-120.425 159.086-133.609c71.933-13.43 143.57 18.162 211.784 44.65 78.744 30.575 134.77 92.399 219.003 86.09 109.714-8.21 142.074-106.514 142.074-106.514 45.916-93.969 75.938-201.29 133.928-288.336s169.313-127.74 273.873-130.309c123.277-3.03 230.21 95.802 277.945 209.503 23.637 56.3 37.784 119.398 80.56 162.971 64.643 65.848 170.29 64.388 253.052 105.193 0 0 324.279 101.875 291.288 349.825-.001 0-5.956 102.278-80.462 161.672z"/><path d="M132.307 2645.44c-83.18 66.31-207.677 49.354-306.38 9.684s-184.56-105.19-278.118-155.816-202.603-86.817-305.692-60.567c-41.82 10.649-84.172 34.95-98.58 75.628-15.961 45.06 7.754 95.515 41.458 129.415s76.74 56.917 112.978 88.097c36.755 31.623 67.086 73.732 73.456 121.799s-16.23 101.675-60.521 121.401c-49.853 22.205-109.654-3.754-147.238-43.324-37.442-39.42-72.765-97.417-126.786-91.302-56.145 6.353-76.73 75.83-85.924 131.579-9.672 58.644-21.496 117.964-49.164 170.568s-121.084 107.067-178.695 121.682-123.071-10.498-152.871-61.923c-32.584-56.234 21.262-122.337 21.262-122.337 89.455-105.333 143.009-175.121 122.123-271.88a136.738 136.738 0 00-34.025-64.704 148.056 148.056 0 00-69.91-41.89 1538.726 1538.726 0 00-199.313-40.142c-79.42-10.594-170.24-20.765-216.539-86.158-35.158-49.66-32.486-115.932-26.53-176.483 6.872-69.861 16.624-140.926 47.488-203.973s86.462-117.687 155.471-130.572c70.297-13.125 140.306 17.748 206.969 43.634 76.95 29.88 131.707 90.298 214.024 84.133 107.223-8.028 138.848-104.096 138.848-104.096 44.867-91.836 74.206-196.717 130.879-281.78s165.463-124.836 267.645-127.346c120.476-2.96 224.977 93.623 271.627 204.74 23.099 55.02 36.925 116.683 78.728 159.265 63.173 64.351 166.418 62.924 247.298 102.802 0 0 316.906 99.56 284.664 341.87.001.004-5.819 99.953-78.632 157.997z"/><path d="M110.294 2638.345c-81.24 64.765-202.846 48.205-299.253 9.459s-180.267-102.746-271.649-152.194-197.887-84.794-298.58-59.159c-40.847 10.401-82.214 34.137-96.286 73.872-15.59 44.013 7.575 93.293 40.494 126.404s74.954 55.595 110.348 86.048c35.9 30.888 65.526 72.016 71.747 118.964s-15.85 99.31-59.115 118.58c-48.692 21.687-107.103-3.668-143.812-42.317-36.57-38.503-71.07-95.145-123.837-89.177-54.837 6.204-74.944 74.064-83.925 128.517-9.446 57.28-20.996 115.22-48.02 166.6s-118.267 104.576-174.538 118.85-120.208-10.253-149.315-60.482c-31.83-54.93 20.767-119.49 20.767-119.49 87.375-102.885 139.685-171.05 119.283-265.557a133.561 133.561 0 00-33.233-63.199 144.613 144.613 0 00-68.285-40.915 1503.048 1503.048 0 00-194.674-39.213c-77.573-10.346-166.28-20.28-211.502-84.154-34.339-48.501-31.732-113.238-25.914-172.377 6.712-68.236 16.236-137.647 46.384-199.228s84.453-114.95 151.853-127.533c68.66-12.82 137.042 17.336 202.153 42.62 75.16 29.187 128.643 88.197 209.043 82.177 104.728-7.842 135.617-101.675 135.617-101.675 43.831-89.697 72.488-192.14 127.842-275.223s161.614-121.932 261.417-124.386c117.67-2.89 219.742 91.44 265.308 199.976 22.562 53.74 36.07 113.966 76.896 155.56 61.705 62.858 162.549 61.464 241.547 100.414 0 0 309.532 97.243 278.041 333.917 0 0-5.684 97.627-76.802 154.32z"/><path d="M88.278 2631.248c-79.31 63.223-198.015 47.056-292.126 9.233s-175.971-100.298-265.176-148.566-193.175-82.779-291.47-57.753c-39.875 10.153-80.256 33.324-93.994 72.109-15.219 42.963 7.394 91.071 39.527 123.395s73.17 54.27 107.716 84c35.046 30.151 63.966 70.304 70.038 116.131s-15.473 96.944-57.705 115.753c-47.534 21.171-104.552-3.579-140.387-41.309-35.69-37.584-69.365-92.876-120.876-87.052-53.531 6.058-73.159 72.3-81.926 125.456-9.221 55.915-20.498 112.476-46.876 162.632s-115.453 102.088-170.38 116.02-117.344-10.008-145.763-59.04c-31.07-53.617 20.274-116.645 20.274-116.645 85.294-100.434 136.357-166.974 116.445-259.234a130.378 130.378 0 00-32.442-61.694 141.17 141.17 0 00-66.658-39.94 1467.217 1467.217 0 00-190.039-38.274c-75.725-10.097-162.32-19.798-206.464-82.148-33.522-47.347-30.975-110.538-25.296-168.272 6.552-66.61 15.848-134.368 45.278-194.482s82.438-112.212 148.233-124.495c67.026-12.514 133.779 16.922 197.338 41.605 73.373 28.489 125.58 86.096 204.067 80.219 102.233-7.656 132.386-99.254 132.386-99.254 42.783-87.564 70.756-187.564 124.794-268.67s157.764-119.027 255.192-121.42c114.87-2.823 214.509 89.265 258.987 195.21 22.024 52.46 35.207 111.255 75.065 151.855 60.234 61.357 158.677 59.996 235.792 98.02 0 0 302.16 94.926 271.42 325.962-.001.002-5.548 95.305-74.974 150.648z"/><path d="M66.263 2624.152c-77.375 61.681-193.179 45.907-284.994 9.007s-171.681-97.85-258.71-144.942-188.465-80.756-284.356-56.34c-38.902 9.905-78.298 32.512-91.701 70.351-14.846 41.917 7.214 88.849 38.565 120.383s71.384 52.944 105.093 81.95c34.19 29.416 62.404 68.586 68.329 113.298s-15.096 94.58-56.301 112.93c-46.374 20.655-102.001-3.492-136.963-40.305-34.829-36.668-67.69-90.614-117.938-84.93-52.222 5.909-71.374 70.536-79.927 122.395-8.997 54.55-19.997 109.73-45.736 158.664s-112.632 99.596-166.223 113.189-114.48-9.76-142.2-57.601c-30.312-52.31 19.778-113.798 19.778-113.798 83.212-97.984 133.03-162.901 113.6-252.907a127.2 127.2 0 00-31.649-60.189 137.735 137.735 0 00-65.03-38.967 1431.467 1431.467 0 00-185.402-37.34c-73.878-9.853-158.359-19.314-201.426-80.144-32.704-46.191-30.218-107.837-24.679-164.165 6.391-64.985 15.464-131.09 44.173-189.738s80.429-109.473 144.619-121.457c65.388-12.208 130.513 16.508 192.523 40.59 71.58 27.795 122.514 83.995 199.086 78.261 99.74-7.469 129.157-96.83 129.157-96.83 41.746-85.426 69.037-182.986 121.754-262.113s153.914-116.123 248.966-118.456c112.067-2.754 209.275 87.088 252.67 190.45 21.488 51.18 34.348 108.54 73.233 148.15 58.764 59.857 154.803 58.534 230.037 95.624 0 0 294.788 92.61 264.796 318.01 0 0-5.412 92.977-73.144 146.97z"/><path d="M44.25 2617.054c-75.44 60.137-188.352 44.76-277.87 8.782s-167.385-95.403-252.237-141.316-183.751-78.737-277.245-54.93c-37.928 9.657-76.34 31.697-89.407 68.59-14.475 40.868 7.034 86.63 37.601 117.372s69.599 51.623 102.462 79.895c33.336 28.68 60.844 66.87 66.62 110.464s-14.717 92.215-54.887 110.104c-45.215 20.137-99.451-3.408-133.537-39.292-33.958-35.748-65.992-88.345-114.991-82.799-50.92 5.762-69.59 68.773-77.928 119.333-8.772 53.188-19.496 106.988-44.588 154.696s-109.817 97.105-162.065 110.359-111.62-9.52-138.646-56.16c-29.554-51.001 19.284-110.954 19.284-110.954 81.13-95.532 129.702-158.827 110.756-246.58a124.018 124.018 0 00-30.859-58.682 134.287 134.287 0 00-63.404-37.992 1395.631 1395.631 0 00-180.76-36.407c-72.03-9.608-154.397-18.832-196.388-78.14-31.885-45.036-29.462-105.144-24.062-160.06 6.232-63.36 15.075-127.811 43.069-184.992s78.422-106.737 141.002-118.421c63.754-11.905 127.25 16.098 187.71 39.573 69.789 27.101 119.45 81.895 194.108 76.305 97.244-7.282 125.924-94.409 125.924-94.409 40.696-83.287 67.304-178.412 118.702-255.56s150.065-113.218 242.738-115.495c109.266-2.685 204.04 84.908 246.351 185.686 20.949 49.899 33.489 105.825 71.402 144.445 57.294 58.362 150.931 57.069 224.286 93.235 0 0 287.414 90.294 258.173 310.057 0-.001-5.277 90.651-71.315 143.293z"/><path d="M22.235 2609.957c-73.505 58.596-183.52 43.613-270.741 8.557s-163.091-92.956-245.765-137.688-179.04-76.722-270.135-53.524c-36.955 9.41-74.381 30.884-87.114 66.831-14.105 39.818 6.853 84.404 36.637 114.362s67.814 50.298 99.835 77.849c32.48 27.948 59.283 65.156 64.912 107.63s-14.34 89.85-53.48 107.282c-44.054 19.622-96.899-3.318-130.111-38.285-33.087-34.834-64.3-86.082-112.038-80.68-49.614 5.613-67.805 67.007-75.93 116.272-8.547 51.822-18.997 104.243-43.444 150.728s-106.999 94.612-157.909 107.528-108.754-9.277-135.089-54.72c-28.796-49.693 18.789-108.107 18.789-108.107 79.05-93.084 126.375-154.754 107.914-240.255a120.84 120.84 0 00-30.067-57.179 130.848 130.848 0 00-61.78-37.017 1359.821 1359.821 0 00-176.128-35.472c-70.182-9.36-150.438-18.349-191.35-76.135-31.066-43.877-28.708-102.446-23.445-155.954 6.072-61.734 14.689-124.533 41.964-180.246s76.405-103.997 137.385-115.383c62.12-11.598 123.987 15.69 182.892 38.557 68 26.4 116.388 79.794 189.13 74.347 94.751-7.095 122.694-91.988 122.694-91.988 39.651-81.154 65.578-173.836 115.658-249.003s146.217-110.314 236.513-112.532c106.461-2.616 198.806 82.732 240.03 180.923 20.412 48.62 32.63 103.111 69.57 140.74 55.824 56.865 147.06 55.604 218.531 90.844 0 0 280.043 87.978 251.552 302.102.006.002-5.137 88.324-69.48 139.616z"/><path d="M.22 2602.861c-71.57 57.053-178.69 42.462-263.615 8.332s-158.798-90.512-239.295-134.066-174.324-74.698-263.02-52.109c-35.983 9.163-72.423 30.071-84.82 65.073-13.733 38.77 6.673 82.183 35.672 111.352s66.028 48.972 97.208 75.8c31.625 27.209 57.721 63.44 63.201 104.797s-13.963 87.484-52.072 104.457c-42.895 19.106-94.348-3.23-126.685-37.278-32.216-33.917-62.607-83.815-109.089-78.556-48.307 5.466-66.018 65.248-73.93 113.211-8.325 50.46-18.495 101.498-42.3 146.759s-104.184 92.123-153.752 104.697-105.892-9.033-131.532-53.28c-28.038-48.383 18.294-105.26 18.294-105.26 76.97-90.632 123.048-150.678 105.077-233.931a117.656 117.656 0 00-29.275-55.672 127.394 127.394 0 00-60.152-36.042 1323.9 1323.9 0 00-171.488-34.54c-68.335-9.115-146.477-17.866-186.312-74.131-30.25-42.726-27.951-99.75-22.828-151.848 5.912-60.11 14.303-121.255 40.86-175.502s74.394-101.26 133.767-112.345c60.484-11.292 120.722 15.271 178.078 37.544 66.209 25.71 113.323 77.693 184.15 72.39 92.254-6.91 119.465-89.565 119.465-89.565 38.601-79.024 63.844-169.265 112.607-242.454s142.366-107.411 230.284-109.571c103.66-2.548 193.572 80.555 233.711 176.16 19.875 47.34 31.77 100.397 67.739 137.035 54.36 55.367 143.188 54.14 212.779 88.452 0 0 272.67 85.662 244.928 294.149 0 0-5.01 86-67.655 135.942z"/><path d="M-21.795 2595.765c-69.635 55.51-173.857 41.315-256.487 8.107s-154.502-88.062-232.824-130.442-169.611-72.678-255.91-50.703c-35.01 8.915-70.464 29.258-82.526 63.312-13.362 37.723 6.492 79.96 34.706 108.34s64.244 47.649 94.579 73.75c30.77 26.472 56.161 61.724 61.492 101.964s-13.585 85.116-50.664 101.631c-41.734 18.588-91.796-3.143-123.26-36.268-31.34-33.004-60.913-81.552-106.138-76.434-47.001 5.318-64.233 63.48-71.931 110.15-8.097 49.094-17.996 98.754-41.155 142.79s-101.364 89.63-149.595 101.866-103.028-8.788-127.975-51.839c-27.28-47.076 17.8-102.413 17.8-102.413 74.886-88.185 119.72-146.605 102.236-227.606a114.472 114.472 0 00-28.487-54.165 123.954 123.954 0 00-58.525-35.069 1288.325 1288.325 0 00-166.856-33.608c-66.488-8.867-142.517-17.382-181.276-72.126-29.431-41.57-27.195-97.052-22.21-147.742 5.752-58.484 13.915-117.975 39.754-170.756s72.384-98.521 130.151-109.307c58.85-10.987 117.458 14.858 173.264 36.53 64.417 25.014 110.258 75.592 179.17 70.431 89.763-6.719 116.239-87.142 116.239-87.142 37.562-76.88 62.123-164.683 109.57-235.893s138.512-104.506 224.055-106.607c100.856-2.478 188.338 78.377 227.39 171.398 19.337 46.06 30.912 97.681 65.908 133.329 52.886 53.87 139.317 52.675 207.026 86.06 0 0 265.296 83.345 238.305 286.194 0 .001-4.87 83.676-65.826 132.268z"/><path d="M-43.81 2588.669c-67.698 53.966-169.026 40.167-249.358 7.88s-150.21-85.614-226.354-126.815-164.898-70.658-248.798-49.295c-34.033 8.665-68.507 28.445-80.232 61.552-12.99 36.674 6.312 77.739 33.743 105.33s62.458 46.325 91.953 71.698c29.915 25.738 54.6 60.01 59.784 99.13s-13.208 82.752-49.256 98.808c-40.575 18.071-89.246-3.056-119.834-35.261-30.474-32.084-59.22-79.284-103.19-74.308-45.695 5.17-62.448 61.715-69.932 107.089-7.871 47.729-17.495 96.008-40.013 138.822s-98.548 87.14-145.437 99.035-100.166-8.543-124.42-50.397c-26.521-45.768 17.305-99.569 17.305-99.569 72.807-85.73 116.395-142.53 99.395-221.28a111.294 111.294 0 00-27.691-52.661 120.5 120.5 0 00-56.9-34.093 1252.423 1252.423 0 00-162.216-32.667c-64.64-8.625-138.556-16.9-176.238-70.122-28.617-40.414-26.44-94.355-21.592-143.636 5.593-56.859 13.527-114.697 38.65-166.01s70.371-95.784 126.533-106.27c57.213-10.681 114.192 14.446 168.448 35.514 62.63 24.32 107.194 73.492 174.191 68.476 87.261-6.54 113-84.725 113-84.725 36.52-74.744 60.4-160.105 106.524-229.337s134.666-101.604 217.83-103.647c98.058-2.411 183.105 76.197 221.073 166.634 18.803 44.779 30.055 94.966 64.075 129.623 51.415 52.373 135.448 51.21 201.272 83.668 0 0 257.924 81.03 231.684 278.242 0 0-4.736 81.35-63.999 128.592z"/><path d="M-65.823 2581.57c-65.764 52.426-164.194 39.02-242.23 7.657s-145.917-83.167-219.887-123.19-160.183-68.64-241.684-47.886c-33.06 8.422-66.549 27.632-77.94 59.793-12.619 35.625 6.131 75.518 32.777 102.318s60.672 45 89.323 69.651c29.059 25.002 53.04 58.294 58.075 96.297s-12.828 80.386-47.849 95.983c-39.415 17.554-86.69-2.97-116.409-34.253-29.602-31.167-57.528-77.018-100.24-72.184-44.388 5.025-60.663 59.951-67.932 104.028-7.647 46.365-16.996 93.265-38.87 134.854s-95.732 84.65-141.277 96.204-97.303-8.3-120.863-48.958c-25.763-44.46 16.81-96.721 16.81-96.721 70.726-83.28 113.068-138.455 96.555-214.955a108.111 108.111 0 00-26.901-51.157 117.057 117.057 0 00-55.273-33.118 1216.61 1216.61 0 00-157.58-31.737c-62.792-8.376-134.596-16.417-171.204-68.117-27.796-39.26-25.685-91.658-20.976-139.53 5.432-55.233 13.142-111.42 37.543-161.264s68.36-93.045 122.917-103.232c55.577-10.377 110.929 14.032 163.632 34.499 60.84 23.624 104.13 71.388 169.212 66.517 84.773-6.345 109.775-82.302 109.775-82.302 35.477-72.605 58.672-155.529 103.478-222.781s130.823-98.7 211.61-100.684c95.25-2.338 177.871 74.024 214.753 161.871 18.263 43.5 29.193 92.252 62.244 125.918 49.941 50.873 131.572 49.748 195.517 81.276 0 0 250.553 78.716 225.06 270.288 0 0-4.599 79.027-62.166 124.916z"/><path d="M-87.84 2574.475c-63.828 50.883-159.361 37.872-235.102 7.43s-141.622-80.72-213.414-119.565-155.47-66.619-234.573-46.477c-32.088 8.171-64.588 26.819-75.647 58.034-12.247 34.577 5.952 73.293 31.814 99.307s58.887 43.678 86.693 67.601c28.204 24.266 51.479 56.579 56.366 93.462s-12.453 78.021-46.44 93.16c-38.256 17.037-84.145-2.881-112.985-33.246-28.73-30.25-55.835-74.751-97.29-70.06-43.082 4.874-58.877 58.187-65.933 100.966-7.423 45-16.497 90.52-37.727 130.887s-92.914 82.158-137.123 93.373-94.438-8.055-117.306-47.517c-25.005-43.15 16.316-93.876 16.316-93.876 68.645-80.83 109.74-134.382 93.713-208.63a104.932 104.932 0 00-26.108-49.65 113.617 113.617 0 00-53.647-32.145 1180.713 1180.713 0 00-152.944-30.803c-60.944-8.128-130.636-15.937-166.162-66.114-26.975-38.106-24.929-88.96-20.358-135.424 5.272-53.608 12.754-108.144 36.44-156.52s66.348-90.307 119.299-100.198c53.943-10.07 107.665 13.62 158.818 33.483 59.046 22.925 101.065 69.29 164.232 64.56 82.277-6.16 106.545-79.878 106.545-79.878 34.432-70.472 56.945-150.953 100.432-216.226s126.97-95.792 205.376-97.717c92.447-2.272 172.636 71.842 208.433 157.108 17.725 42.22 28.334 89.536 60.412 122.212 48.483 49.383 127.705 48.29 189.771 78.889 0 0 243.18 76.396 218.438 262.335.001.002-4.464 76.699-60.339 121.24z"/><path d="M-109.854 2567.378c-61.894 49.338-154.53 36.723-227.974 7.205s-137.326-78.274-206.944-115.94-150.756-64.6-227.462-45.068c-31.116 7.923-62.631 26.008-73.353 56.275-11.876 33.529 5.77 71.07 30.848 96.297s57.1 42.353 84.066 65.55c27.35 23.531 49.918 54.864 54.657 90.63s-12.076 75.653-45.033 90.335c-37.095 16.522-81.593-2.794-109.558-32.238-27.858-29.328-54.143-72.485-94.34-67.936-41.777 4.727-57.094 56.423-63.936 97.906-7.196 43.637-15.994 87.776-36.582 126.918s-90.097 79.667-132.966 90.542-91.576-7.81-113.75-46.076c-24.244-41.844 15.825-91.031 15.825-91.031 66.564-78.378 106.414-130.307 90.871-202.307a101.742 101.742 0 00-25.317-48.145 110.168 110.168 0 00-52.019-31.17 1145.063 1145.063 0 00-148.304-29.87c-59.096-7.882-126.674-15.45-161.124-64.109-26.16-36.95-24.173-86.264-19.741-131.32 5.113-51.982 12.368-104.86 35.335-151.772s64.333-87.567 115.679-97.154c52.308-9.761 104.4 13.206 154.002 32.468 57.259 22.234 98.002 67.19 159.258 62.601 79.783-5.973 103.312-77.455 103.312-77.455 33.386-68.335 55.214-146.38 97.385-209.67s123.12-92.888 199.153-94.757c89.644-2.205 167.4 69.665 202.11 152.346 17.187 40.94 27.474 86.822 58.58 118.508 47.006 47.883 123.83 46.82 184.01 76.493 0 0 235.806 74.081 211.816 254.38.006 0-4.324 74.374-58.504 117.564z"/><path d="M-131.867 2560.28c-59.959 47.799-149.7 35.577-220.848 6.982s-133.037-75.824-200.474-112.318-146.043-62.577-220.35-43.657c-30.143 7.675-60.673 25.193-71.058 54.515-11.505 32.481 5.59 68.849 29.885 93.285s55.315 41.027 81.437 63.503c26.495 22.795 48.359 53.151 52.949 87.795s-11.699 73.29-43.625 87.51c-35.936 16.005-79.04-2.706-106.132-31.23-26.99-28.415-52.45-70.219-91.392-65.813-40.47 4.58-55.308 54.66-61.936 94.845-6.97 42.273-15.495 85.032-35.438 122.95s-87.28 77.177-128.806 87.714-88.713-7.567-110.194-44.636c-23.49-40.534 15.325-88.183 15.325-88.183 64.482-75.93 103.086-126.234 88.03-195.979a98.567 98.567 0 00-24.525-46.64 106.72 106.72 0 00-50.393-30.196 1109.135 1109.135 0 00-143.67-28.935c-57.249-7.636-122.713-14.964-156.087-62.104-25.342-35.794-23.417-83.566-19.124-127.213 4.953-50.356 11.98-101.582 34.23-147.03s62.325-84.832 112.064-94.118c50.672-9.46 101.136 12.793 149.188 31.453 55.469 21.537 94.939 65.087 154.273 60.644 77.288-5.787 100.083-75.035 100.083-75.035 32.35-66.2 53.496-141.8 94.345-203.12s119.27-89.983 192.926-91.794c86.844-2.13 162.169 67.491 195.796 147.586 16.65 39.66 26.616 84.108 56.749 114.802 45.536 46.386 119.958 45.357 178.258 74.102 0 0 228.432 71.764 205.192 246.427 0 .001-4.194 72.05-56.678 113.889z"/><path d="M-153.883 2553.184c-58.024 46.255-144.868 34.426-213.719 6.755s-128.741-73.378-194.003-108.691-141.33-60.56-213.24-42.248c-29.17 7.427-58.714 24.38-68.765 52.755-11.133 31.437 5.41 66.628 28.92 90.275s53.53 39.704 78.809 61.452c25.638 22.055 46.794 51.433 51.24 84.962s-11.32 70.925-42.217 84.685c-34.776 15.489-76.49-2.619-102.708-30.222-26.117-27.495-50.756-67.952-88.441-63.688-39.164 4.432-53.523 52.895-59.937 91.784-6.75 40.908-14.996 82.287-34.295 118.981s-84.463 74.687-124.65 84.881-85.849-7.322-106.636-43.195c-22.731-39.227 14.831-85.337 14.831-85.337 62.401-73.477 99.764-122.16 85.19-189.653a95.385 95.385 0 00-23.734-45.133 103.287 103.287 0 00-48.77-29.22 1073.412 1073.412 0 00-139.033-28c-55.4-7.39-118.752-14.485-151.048-60.098-24.523-34.64-22.663-80.869-18.507-123.107 4.796-48.732 11.595-98.304 33.126-142.283s60.314-82.094 108.45-91.081c49.036-9.156 97.871 12.38 144.374 30.436 53.678 20.844 91.874 62.988 149.296 58.692 74.795-5.601 96.854-72.614 96.854-72.614 31.3-64.061 51.766-137.223 91.298-196.56s115.42-87.079 186.699-88.831c84.037-2.073 156.93 65.3 189.474 142.81 16.113 38.38 25.756 81.393 54.917 111.097 44.066 44.888 116.088 43.897 172.504 71.71 0 0 221.06 69.448 198.57 238.474.001 0-4.058 69.723-54.85 110.212z"/><path d="M-175.897 2546.088c-56.088 44.712-140.036 33.279-206.59 6.53s-124.45-70.93-187.535-105.069-136.615-58.54-206.126-40.84c-28.199 7.18-56.758 23.563-66.473 50.996-10.762 30.383 5.23 64.406 27.957 87.264s51.745 38.38 76.18 59.402c24.783 21.324 45.236 49.718 49.53 82.128s-10.942 68.56-40.809 81.861c-33.615 14.972-73.938-2.532-99.28-29.214-25.247-26.582-49.065-65.686-85.493-61.564-37.858 4.283-51.738 51.13-57.938 88.722-6.521 39.544-14.494 79.542-33.152 115.013s-81.644 72.194-120.493 82.05-82.987-7.079-103.08-41.755c-21.974-37.918 14.337-82.49 14.337-82.49 60.32-71.027 96.432-118.085 82.348-183.329a92.205 92.205 0 00-22.943-43.63 99.83 99.83 0 00-47.14-28.246 1037.645 1037.645 0 00-134.397-27.067c-53.553-7.143-114.792-14.001-146.01-58.096-23.707-33.483-21.905-78.172-17.89-119.001 4.634-47.107 11.207-95.026 32.02-137.538s58.303-79.357 104.833-88.044c47.4-8.85 94.607 11.968 139.557 29.423 51.887 20.149 88.81 60.887 144.315 56.731 72.3-5.413 93.624-70.192 93.624-70.192 30.257-61.924 50.04-132.646 88.249-190.003s111.574-84.176 180.476-85.87c81.236-1.995 151.7 63.13 183.157 138.056 15.575 37.1 24.898 78.68 53.086 107.392 42.597 43.39 112.215 42.429 166.752 69.317 0 0 213.688 67.133 191.948 230.521 0 .005-3.923 67.404-53.02 106.542z"/><path d="M-197.912 2538.991c-54.153 43.168-135.206 32.13-199.463 6.304s-120.154-68.483-181.063-101.44-131.903-56.521-199.014-39.432c-27.226 6.933-54.8 22.754-64.18 49.237-10.39 29.335 5.049 62.183 26.992 84.253s49.96 37.054 73.552 57.354c23.929 20.587 43.675 48.002 47.821 79.295s-10.565 66.193-39.402 79.034c-32.456 14.454-71.385-2.446-95.856-28.206-24.375-25.663-47.371-63.42-82.542-59.44-36.55 4.136-49.95 49.365-55.939 85.661-6.296 38.18-13.996 76.798-32.008 111.045s-78.828 69.705-116.335 79.219-80.123-6.834-99.524-40.313c-21.215-36.61 13.842-79.646 13.842-79.646 58.239-68.576 93.104-114.01 79.505-177.003a89.027 89.027 0 00-22.151-42.124 96.393 96.393 0 00-45.513-27.268 1001.73 1001.73 0 00-129.759-26.134c-51.705-6.896-110.831-13.518-140.973-56.09-22.889-32.329-21.15-75.476-17.272-114.896 4.473-45.48 10.82-91.746 30.916-132.793s56.29-76.617 101.215-85.005c45.766-8.545 91.34 11.556 134.743 28.407 50.096 19.45 85.745 58.787 139.337 54.774 69.801-5.226 90.393-67.77 90.393-67.77 29.213-59.79 48.317-128.073 85.21-183.45s107.721-81.271 174.246-82.903c78.432-1.93 146.467 60.947 176.836 133.29 15.038 35.819 24.041 75.963 51.25 103.688 41.128 41.892 108.34 40.966 161 66.93 0 0 206.315 64.816 185.325 222.568.003-.004-3.786 65.065-51.189 102.854z"/><path d="M-219.926 2531.894c-52.218 41.626-130.373 30.982-192.334 6.08s-115.861-66.035-174.594-97.816-127.19-54.5-191.903-38.023c-26.254 6.685-52.836 21.939-61.886 47.477-10.02 28.287 4.869 59.96 26.027 81.243s48.175 35.731 70.923 55.304c23.074 19.85 42.115 46.286 46.113 76.46s-10.188 63.829-37.992 76.214c-31.297 13.938-68.837-2.358-92.431-27.199-23.504-24.746-45.678-61.153-79.596-57.314-35.245 3.992-48.168 47.603-53.941 82.6-6.071 36.815-13.495 74.054-30.864 107.076s-76.013 67.21-112.18 76.384-77.26-6.59-95.967-38.874c-20.457-35.302 13.348-76.799 13.348-76.799 56.157-66.125 89.777-109.936 76.665-170.678a85.839 85.839 0 00-21.359-40.62 92.948 92.948 0 00-43.887-26.297 965.976 965.976 0 00-125.121-25.2c-49.858-6.65-106.867-13.036-135.937-54.09-22.07-31.172-20.394-72.778-16.655-110.789 4.313-43.857 10.434-88.47 29.81-128.048s54.28-73.88 97.6-81.968c44.13-8.24 88.079 11.143 129.927 27.392 48.307 18.758 82.681 56.687 134.357 52.816 67.31-5.04 87.164-65.347 87.164-65.347 28.165-57.652 46.585-123.495 82.163-176.893s103.872-78.367 168.019-79.943c75.63-1.859 141.23 58.774 170.517 128.528 14.502 34.54 23.181 73.25 49.423 99.982 39.658 40.396 104.472 39.5 155.245 64.535 0 0 198.943 62.5 178.702 214.612.006.01-3.646 62.758-49.356 99.195z"/><path d="M-241.941 2524.798c-50.282 40.086-125.543 29.83-185.208 5.854s-111.567-63.589-168.125-94.19-122.475-52.48-184.788-36.614c-25.281 6.437-50.883 21.127-59.593 45.717-9.648 27.24 4.688 57.74 25.063 78.232s46.389 34.407 68.294 53.254c22.22 19.116 40.554 44.572 44.405 73.628s-9.81 61.464-36.585 73.388c-30.136 13.423-66.286-2.27-89.006-26.19-22.633-23.83-43.986-58.888-76.644-55.191-33.94 3.84-46.382 45.838-51.94 79.544-5.847 35.45-12.992 71.308-29.72 103.108s-73.194 64.723-108.02 73.556-74.397-6.345-92.411-37.432c-19.698-33.993 12.853-73.952 12.853-73.952 54.076-63.675 86.45-105.863 73.824-164.353a82.649 82.649 0 00-20.568-39.114 89.5 89.5 0 00-42.26-25.321 930.26 930.26 0 00-120.486-24.266c-48.01-6.403-102.91-12.551-130.898-52.082-21.252-30.017-19.638-70.082-16.037-106.684 4.154-42.23 10.047-85.19 28.707-123.302s52.267-71.142 93.98-78.93c42.495-7.934 84.815 10.73 125.113 26.377 46.515 18.064 79.616 54.585 129.378 50.86 64.816-4.854 83.932-62.927 83.932-62.927 27.125-55.516 44.86-118.917 79.118-170.339s100.025-75.467 161.794-76.985c72.828-1.788 135.998 56.595 164.199 123.765 13.964 33.26 22.32 70.535 47.59 96.276 38.19 38.901 100.599 38.036 149.492 62.144 0 0 191.57 60.184 172.08 206.66 0 0-3.518 60.422-47.533 95.51z"/><path d="M-263.956 2517.701c-48.348 38.54-120.71 28.686-178.08 5.629s-107.272-61.142-161.655-90.565-117.761-50.46-177.68-35.204c-24.309 6.19-48.923 20.315-57.298 43.959-9.279 26.19 4.507 55.517 24.102 75.219s44.6 33.082 65.667 51.206c21.363 18.38 38.993 42.856 42.694 70.794s-9.432 59.097-35.177 70.564c-28.977 12.905-63.735-2.182-85.58-25.182-21.762-22.912-42.291-56.616-73.692-53.068-32.633 3.693-44.597 44.075-49.942 76.479-5.621 34.087-12.495 68.564-28.58 99.14s-70.374 62.23-103.864 70.727-71.533-6.102-88.859-35.99c-18.94-32.686 12.359-71.107 12.359-71.107 51.995-61.224 83.122-101.788 70.982-158.027a79.478 79.478 0 00-19.777-37.61 86.066 86.066 0 00-40.635-24.348 894.373 894.373 0 00-115.848-23.332c-46.163-6.157-98.95-12.069-125.861-50.078-20.435-28.862-18.883-67.384-15.422-102.578 3.998-40.607 9.66-81.907 27.606-118.558s50.256-68.404 90.365-75.892c40.858-7.63 81.549 10.312 120.297 25.362 44.726 17.367 76.557 52.482 124.398 48.902 62.322-4.667 80.699-60.503 80.699-60.503 26.08-53.38 43.133-114.34 76.073-163.783s96.174-72.558 155.566-74.017c70.025-1.721 130.763 54.417 157.878 119.002 13.426 31.979 21.463 67.82 45.76 92.57 36.719 37.402 96.729 36.574 143.739 59.752 0 0 184.197 57.867 165.457 198.706.011-.003-3.37 58.093-45.692 91.831z"/><path d="M-285.974 2510.606c-46.412 36.998-115.878 27.537-170.954 5.404s-102.98-58.693-155.182-86.94-113.048-48.441-170.567-33.795c-23.337 5.943-46.966 19.501-55.005 42.2-8.906 25.141 4.327 53.294 23.132 72.209s42.82 31.76 63.038 49.155c20.508 17.645 37.433 41.14 40.985 67.959s-9.054 56.732-33.768 67.738c-27.817 12.39-61.183-2.094-82.153-24.17-20.892-21.997-40.6-54.354-70.74-50.945-31.327 3.544-42.813 42.31-47.943 73.417-5.397 32.721-11.994 65.82-27.432 95.171s-67.56 59.741-99.706 67.896-68.67-5.857-85.296-34.552c-18.182-31.377 11.864-68.26 11.864-68.26 49.913-58.774 79.796-97.714 68.142-151.703a76.3 76.3 0 00-18.989-36.102 82.613 82.613 0 00-39.007-23.374 858.648 858.648 0 00-111.212-22.398c-44.314-5.91-94.989-11.586-120.822-48.073-19.617-27.708-18.127-64.687-14.804-98.473 3.834-38.98 9.274-78.632 26.497-113.81s48.244-65.667 86.747-72.856c39.224-7.323 78.29 9.903 115.482 24.347 42.936 16.672 73.488 50.384 119.42 46.943 59.826-4.48 77.471-58.087 77.471-58.087 25.036-51.242 41.407-109.76 73.028-157.225s92.324-69.653 149.338-71.055c67.225-1.652 125.53 52.239 151.56 114.239 12.889 30.7 20.602 65.105 43.925 88.866 35.248 35.905 92.856 35.11 137.985 57.36 0 0 176.82 55.552 158.834 190.754.01.002-3.237 55.772-43.868 88.16z"/><path d="M-307.985 2503.507c-44.48 35.457-111.046 26.391-163.824 5.178s-98.689-56.246-148.711-83.317-108.335-46.42-163.455-32.385c-22.366 5.691-45.007 18.688-52.712 40.44-8.536 24.09 4.146 51.072 22.169 69.198s41.033 30.436 60.41 47.106c19.654 16.91 35.872 39.425 39.277 65.127s-8.673 54.364-32.361 64.914c-26.656 11.872-58.632-2.008-78.731-23.166-20.02-21.077-38.907-52.087-67.795-48.819-30.02 3.397-41.028 40.547-45.944 70.356-5.173 31.358-11.49 63.078-26.288 91.205s-64.745 57.25-95.55 65.064-65.807-5.613-81.741-33.111c-17.424-30.065 11.37-65.414 11.37-65.414 47.832-56.324 76.468-93.64 65.299-145.38a73.119 73.119 0 00-18.193-34.598 79.172 79.172 0 00-37.382-22.4 822.775 822.775 0 00-106.57-21.46c-42.467-5.664-91.03-11.102-115.785-46.069-18.799-26.552-17.37-61.99-14.186-94.367 3.675-37.355 8.888-75.353 25.392-109.065s46.232-62.928 83.131-69.817c37.588-7.02 75.023 9.492 110.668 23.331 41.142 15.976 70.424 48.283 114.44 44.987 57.333-4.292 74.242-55.661 74.242-55.661 23.99-49.108 39.68-105.187 69.983-150.67s88.479-66.752 143.112-68.092c64.419-1.584 120.296 50.062 145.241 109.478 12.351 29.42 19.744 62.391 42.097 85.16 33.779 34.409 88.985 33.645 132.231 54.968 0 0 169.45 53.232 152.214 182.803-.001-.003-3.115 53.44-42.048 84.476z"/><path d="M-330.001 2496.411c-42.54 33.914-106.215 25.242-156.693 4.957s-94.392-53.8-142.243-79.695-103.62-44.401-156.343-30.976c-21.392 5.448-43.05 17.875-50.42 38.68-8.162 23.045 3.967 48.85 21.205 66.188s39.247 29.108 57.781 45.056c18.799 16.173 34.31 37.71 37.568 62.293s-8.3 52.001-30.953 62.09c-25.497 11.357-56.08-1.92-75.304-22.158-19.15-20.164-37.214-49.822-64.844-46.695-28.714 3.25-39.243 38.782-43.945 67.295-4.947 29.993-10.994 60.331-25.143 87.238s-61.927 54.76-91.392 62.233-62.943-5.368-78.186-31.67c-16.666-28.76 10.876-62.569 10.876-62.569 45.753-53.873 73.142-89.565 62.459-139.051a69.936 69.936 0 00-17.401-33.093 75.724 75.724 0 00-35.756-21.426 786.994 786.994 0 00-101.938-20.531c-40.619-5.418-87.068-10.62-110.746-44.064-17.981-25.397-16.615-59.293-13.57-90.261 3.514-35.73 8.498-72.075 24.288-104.321s44.221-60.19 79.514-66.78c35.952-6.711 71.758 9.078 105.852 22.317 39.356 15.283 67.362 46.186 109.461 43.03 54.838-4.107 71.012-53.24 71.012-53.24 22.948-46.97 37.954-100.61 66.938-144.115s84.625-63.846 136.886-65.13c61.616-1.513 115.058 47.885 138.922 104.713 11.813 28.14 18.884 59.677 40.264 81.455 32.31 32.912 85.115 32.181 126.479 52.577 0 0 162.078 50.918 145.589 174.846.002 0-2.977 51.122-40.217 80.807z"/><path d="M-352.01 2489.312c-40.607 32.37-101.38 24.092-149.568 4.728s-90.103-51.351-135.775-76.064-98.907-42.38-149.232-29.568c-20.42 5.2-41.09 17.062-48.124 36.92-7.791 21.997 3.786 46.628 20.239 63.178s37.462 27.788 55.153 43.007c17.943 15.438 32.752 35.999 35.86 59.459s-7.923 49.635-29.545 59.265c-24.337 10.84-53.53-1.833-71.878-21.15-18.278-19.244-35.518-47.557-61.894-44.572-27.408 3.1-37.458 37.018-41.946 64.234-4.722 28.628-10.494 57.587-23.998 83.266s-59.11 52.268-87.235 59.402-60.08-5.125-74.628-30.23c-15.905-27.453 10.38-59.721 10.38-59.721 43.67-51.42 69.815-85.487 59.617-132.727a66.754 66.754 0 00-16.61-31.587 72.279 72.279 0 00-34.13-20.45 751.176 751.176 0 00-97.3-19.595c-38.772-5.172-83.107-10.138-105.71-42.061-17.163-24.241-15.859-56.595-12.954-86.153 3.354-34.106 8.114-68.797 23.183-99.573s42.21-57.452 75.897-63.742c34.317-6.407 68.495 8.664 101.04 21.3 37.566 14.588 64.296 44.082 104.482 41.073 52.344-3.92 67.782-50.818 67.782-50.818 21.905-44.833 36.226-96.033 63.896-137.56s80.775-60.942 130.659-62.167c58.813-1.446 109.828 45.704 132.602 99.948 11.276 26.86 18.027 56.961 38.433 77.75 30.84 31.415 81.24 30.718 120.725 50.185 0 0 154.706 48.603 138.966 166.893-.007.002-2.847 48.796-38.387 77.13z"/><path d="M-374.029 2482.218c-38.67 30.827-96.552 22.944-142.44 4.502s-85.805-48.905-129.3-72.44-94.194-40.363-142.12-28.159c-19.448 4.953-39.133 16.249-45.832 35.161-7.42 20.95 3.605 44.406 19.275 60.167s35.678 26.462 52.524 40.957c17.088 14.703 31.19 34.28 34.15 56.626s-7.544 47.27-28.136 56.441c-23.177 10.323-50.979-1.746-68.453-20.142-17.408-18.331-33.828-45.29-58.944-42.447-26.101 2.953-35.672 35.253-39.946 61.172-4.497 27.263-9.99 54.84-22.858 79.299s-56.293 49.777-83.077 56.571-57.217-4.88-71.07-28.789c-15.15-26.143 9.885-56.876 9.885-56.876 41.59-48.971 66.487-81.417 56.777-126.4a63.571 63.571 0 00-15.824-30.085 68.835 68.835 0 00-32.504-19.479 715.449 715.449 0 00-92.663-18.662c-36.924-4.924-79.149-9.658-100.672-40.056-16.345-23.087-15.103-53.898-12.334-82.048 3.194-32.48 7.727-65.519 22.078-94.83s40.198-54.714 72.275-60.702c32.682-6.102 65.23 8.251 96.222 20.286 35.772 13.893 61.232 41.98 99.503 39.115 49.85-3.733 64.551-48.396 64.551-48.396 20.861-42.695 34.504-91.458 60.849-131.003s76.926-58.038 124.43-59.205c56.012-1.376 104.595 43.526 126.284 95.185 10.74 25.58 17.167 54.248 36.601 74.045 29.37 29.917 77.37 29.254 114.972 47.794 0 0 147.333 46.286 132.343 158.94.006.005-2.695 46.473-36.546 73.458z"/><path d="M-396.044 2475.122c-36.737 29.285-91.721 21.796-135.312 4.277s-81.51-46.458-122.83-68.816-89.48-38.34-135.009-26.75c-18.47 4.703-37.174 15.435-43.537 33.4-7.049 19.902 3.42 42.185 18.305 57.155s33.891 25.135 49.896 38.907c16.232 13.968 29.63 32.564 32.441 53.792s-7.17 44.906-26.729 53.617c-22.019 9.803-48.428-1.657-65.027-19.133-16.536-17.41-32.135-43.023-55.995-40.323-24.797 2.806-33.887 33.49-37.949 58.11-4.27 25.903-9.493 52.1-21.713 75.332s-53.476 47.286-78.92 53.74-54.354-4.636-67.515-27.348c-14.392-24.836 9.39-54.03 9.39-54.03 39.507-46.52 63.16-77.343 53.936-120.076a60.383 60.383 0 00-15.023-28.578 65.392 65.392 0 00-30.875-18.5 679.625 679.625 0 00-88.027-17.729c-35.076-4.678-75.182-9.172-95.633-38.052-15.527-21.93-14.351-51.2-11.715-77.944 3.035-30.853 7.338-62.237 20.973-90.085s38.187-51.976 68.667-57.667c31.046-5.796 61.966 7.839 91.407 19.27 33.984 13.199 58.168 39.88 94.523 37.158 47.354-3.545 61.32-45.974 61.32-45.974 19.817-40.56 32.776-86.88 57.805-124.448s73.076-55.133 118.205-56.242c53.208-1.308 99.36 41.348 119.963 90.422 10.203 24.303 16.307 51.533 34.77 70.34 27.9 28.42 73.497 27.785 109.219 45.401 0 0 139.96 43.97 125.72 150.986-.004.01-2.574 44.153-34.731 69.788z"/><path d="M-418.058 2468.024c-34.803 27.742-86.889 20.648-128.184 4.054s-77.218-44.01-116.364-65.19-84.766-36.322-127.896-25.341c-17.497 4.455-35.216 14.623-41.245 31.642-6.678 18.852 3.245 39.961 17.345 54.144s32.103 23.815 47.268 36.859c15.379 13.23 28.073 30.847 30.733 50.957s-6.79 42.54-25.32 50.793c-20.858 9.29-45.878-1.57-61.601-18.126-15.667-16.493-30.444-40.756-53.046-38.198-23.49 2.657-32.102 31.725-35.949 55.049-4.046 24.536-8.993 49.355-20.57 71.362s-50.658 44.796-74.76 50.914-51.491-4.391-63.96-25.906c-13.633-23.528 8.896-51.185 8.896-51.185 37.428-44.07 59.833-73.272 51.096-113.75a57.207 57.207 0 00-14.236-27.072 61.955 61.955 0 00-29.25-17.526 643.906 643.906 0 00-83.389-16.794c-33.228-4.432-71.224-8.685-90.596-36.046-14.71-20.776-13.592-48.505-11.1-73.837 2.875-29.229 6.954-58.96 19.869-85.34s36.174-49.237 65.045-54.628c29.415-5.492 58.701 7.426 86.593 18.256 32.193 12.5 55.102 37.78 89.543 35.2 44.86-3.358 58.092-43.552 58.092-43.552 18.773-38.423 31.047-82.303 54.758-117.892s69.227-52.229 111.978-53.28c50.407-1.244 94.127 39.164 113.649 85.648 9.664 23.02 15.449 48.818 32.938 66.635 26.43 26.923 69.627 26.326 103.465 43.01 0 0 132.585 41.655 119.098 143.032-.001.007-2.434 41.822-32.9 66.108z"/><path d="M-440.073 2460.928c-32.866 26.2-82.057 19.5-121.057 3.827s-72.922-41.564-109.888-61.566-80.055-34.306-120.784-23.932c-16.524 4.21-33.258 13.81-38.952 29.883-6.306 17.804 3.064 37.74 16.382 51.134s30.32 22.49 44.642 34.812c14.522 12.494 26.507 29.133 29.024 48.125s-6.412 40.176-23.913 47.968c-19.698 8.773-43.327-1.483-58.177-17.118-14.794-15.576-28.75-38.49-50.095-36.075-22.183 2.51-30.317 29.962-33.952 51.986-3.821 23.171-8.493 46.61-19.425 67.396s-47.842 42.304-70.606 48.08-48.627-4.148-60.402-24.469c-12.876-22.218 8.401-48.337 8.401-48.337 35.346-41.62 56.507-69.195 48.255-107.426a54.026 54.026 0 00-13.444-25.566 58.5 58.5 0 00-27.623-16.552 607.817 607.817 0 00-78.754-15.86c-31.38-4.186-67.265-8.205-85.559-34.043-13.89-19.62-12.836-45.807-10.482-69.732 2.715-27.603 6.567-55.682 18.763-80.594s34.164-46.5 61.428-51.59c27.777-5.186 55.44 7.013 81.777 17.241 30.4 11.808 52.04 35.678 84.565 33.243 42.365-3.172 54.861-41.13 54.861-41.13 17.73-36.287 29.321-77.727 51.714-111.337s65.378-49.324 105.75-50.322c47.6-1.17 88.89 36.992 107.324 80.896 9.126 21.74 14.59 46.104 31.106 62.93 24.96 25.425 65.755 24.861 97.712 40.618 0 0 125.215 39.337 112.475 135.079.002.004-2.296 39.497-31.066 62.431z"/><path d="M-462.087 2453.831c-30.932 24.657-77.227 18.352-113.929 3.601s-68.629-39.117-103.419-57.94-75.339-32.284-113.671-22.52c-15.551 3.96-31.3 12.999-36.657 28.123-5.936 16.755 2.883 35.517 15.416 48.124s28.536 21.162 42.01 32.758c13.668 11.76 24.947 27.418 27.315 45.29s-6.034 37.81-22.504 45.145c-18.538 8.257-40.778-1.4-54.751-16.11-13.923-14.66-27.058-36.224-47.146-33.951-20.877 2.363-28.532 28.197-31.951 48.928-3.597 21.807-7.994 43.865-18.283 63.427s-45.025 39.814-66.448 45.247-45.764-3.903-56.845-23.025c-12.117-20.911 7.906-45.492 7.906-45.492 33.26-39.167 53.18-65.12 45.412-101.1a50.853 50.853 0 00-12.651-24.06 55.058 55.058 0 00-25.997-15.577 572.269 572.269 0 00-74.116-14.927c-29.533-3.938-63.304-7.72-80.517-32.04-13.074-18.464-12.08-43.11-9.866-65.625 2.554-25.978 6.176-52.401 17.658-75.848s32.152-43.763 57.812-48.553c26.142-4.877 52.173 6.6 76.962 16.228 28.615 11.111 48.976 33.577 79.586 31.286 39.871-2.986 51.63-38.709 51.63-38.709 16.687-34.15 27.597-73.15 48.67-104.781s61.528-46.421 99.525-47.355c44.8-1.1 83.658 34.815 101.005 76.133 8.59 20.46 13.733 43.393 29.276 59.223 23.492 23.929 61.884 23.399 91.956 38.228 0 0 117.842 37.022 105.855 127.124-.005-.004-2.168 37.164-29.243 58.748z"/><path d="M-484.103 2446.734c-28.995 23.115-72.393 17.207-106.8 3.376s-64.336-36.669-96.949-54.316-70.626-30.263-106.56-21.112c-14.578 3.711-29.341 12.182-34.364 26.363-5.564 15.707 2.703 33.295 14.452 45.111s26.75 19.842 39.383 30.71c12.812 11.024 23.386 25.702 25.606 42.458s-5.657 35.443-21.097 42.32c-17.378 7.739-38.223-1.31-51.326-15.103-13.052-13.742-25.364-33.957-44.196-31.827-19.572 2.214-26.751 26.434-29.952 45.867-3.372 20.442-7.493 41.12-17.139 59.458s-42.208 37.322-62.29 42.417-42.9-3.66-53.289-21.586c-11.36-19.603 7.412-42.646 7.412-42.646 31.183-36.718 49.852-61.046 42.57-94.775a47.665 47.665 0 00-11.86-22.554 51.612 51.612 0 00-24.37-14.603 536.373 536.373 0 00-69.479-13.993c-27.683-3.688-59.344-7.238-75.483-30.033-12.255-17.31-11.325-40.415-9.249-61.52 2.396-24.353 5.795-49.125 16.554-71.102s30.14-41.024 54.195-45.516c24.504-4.575 48.909 6.187 72.147 15.211 26.823 10.416 45.91 31.477 74.605 29.328 37.377-2.798 48.402-36.287 48.402-36.287 15.641-32.014 25.867-68.574 45.623-98.226s57.675-43.515 93.297-44.393c41.998-1.03 78.425 32.635 94.686 71.37 8.052 19.179 12.872 40.674 27.443 55.517 22.022 22.432 58.012 21.936 86.206 35.836 0 0 110.469 34.705 99.23 119.171.003.004-2.026 34.847-27.408 55.08z"/><path d="M-506.118 2439.637c-27.06 21.572-67.563 16.056-99.672 3.151s-60.04-34.217-90.478-50.691-65.912-28.244-99.45-19.704c-13.604 3.465-27.382 11.37-32.07 24.603-5.192 14.66 2.523 31.072 13.489 42.103s24.966 18.518 36.754 28.66c11.958 10.288 21.825 23.988 23.897 39.625s-5.279 33.078-19.688 39.494c-16.219 7.224-35.673-1.221-47.898-14.094-12.181-12.825-23.673-31.692-41.247-29.703-18.265 2.067-24.96 24.67-27.953 42.806-3.147 19.078-6.994 38.376-15.993 55.489s-39.392 34.831-58.136 39.583-40.038-3.414-49.732-20.145c-10.601-18.294 6.92-39.8 6.92-39.8 29.102-34.268 46.525-56.971 39.728-88.454a44.483 44.483 0 00-11.068-21.049 48.159 48.159 0 00-22.744-13.627 500.54 500.54 0 00-64.842-13.06c-25.837-3.445-55.383-6.754-70.445-28.029-11.438-16.156-10.568-37.714-8.633-57.418 2.236-22.727 5.408-45.846 15.449-66.357s28.129-38.286 50.577-42.481c22.87-4.27 45.645 5.775 67.332 14.195 25.029 9.723 42.847 29.376 69.627 27.37 34.882-2.61 45.17-33.865 45.17-33.865 14.597-29.88 24.142-63.998 42.576-91.669s53.829-40.611 87.072-41.429c39.194-.962 73.19 30.459 88.366 66.608 7.515 17.9 12.012 37.957 25.613 51.812 20.551 20.935 54.14 20.47 80.452 33.445 0 0 103.096 32.388 92.607 111.218 0 .014-1.892 32.53-25.58 51.413z"/></g></g></svg>