<svg xmlns="http://www.w3.org/2000/svg" width="161" height="532"><defs><clipPath id="b"><path transform="translate(0 302)" fill="#fff" stroke="#707070" d="M0 0h161v532H0z"/></clipPath><clipPath id="c"/><filter id="a" x="-65.7" y="-433" width="1427.754" height="1060.453" filterUnits="userSpaceOnUse"><feOffset dy="3"/><feGaussianBlur stdDeviation="3" result="b"/><feFlood flood-opacity=".161"/><feComposite operator="in" in2="b"/><feComposite in="SourceGraphic"/></filter></defs><g transform="translate(0 -302)" clip-path="url(#b)"><g transform="translate(6983 3892)" clip-path="url(#c)"><g opacity=".55" fill="none" stroke="#2f109a" stroke-miterlimit="10"><path d="M-7004.986-3056.798c-87.968 7.002-165.709-62.422-215.18-135.499s-78.107-157.972-118.955-236.194-99.043-153.708-182.111-183.489c-33.7-12.081-74.099-15.02-102.882 6.267-31.883 23.58-38.984 69.277-31.538 108.231s26.361 74.748 36.815 113c10.602 38.801 11.919 81.83-6 117.84s-58.337 62.39-97.948 55.403c-44.584-7.862-73.663-53.46-81.148-98.11-7.457-44.48-4.838-100.75-44.825-121.612-41.556-21.681-87.948 16.543-120.138 50.614-33.861 35.84-69.517 71.146-112.951 94.487s-132.944 17.445-179.342.764-79.76-64.323-76.393-113.513c3.683-53.787 71.384-74.257 71.384-74.257 110.387-30.93 179.6-54.071 210.132-130.3a113.437 113.437 0 006.625-60.281 122.823 122.823 0 00-28.639-61.245 1276.58 1276.58 0 00-118.435-120.084c-49.7-44.135-107.435-93.27-108.93-159.72-1.136-50.46 31.452-94.796 63.642-133.671 37.14-44.853 76.819-89.197 127.298-118.232s114.064-40.81 167.495-17.652c54.43 23.592 88.248 77.306 122.079 126.037 39.051 56.252 48.673 123.206 108.139 157.162 77.459 44.229 143.775-7.161 143.775-7.161 73.476-42.34 142.315-100.85 220.756-133.05s171.706-9.07 243.143 36.612c84.221 53.864 111.268 168.768 91.791 266.825-9.644 48.553-28.748 97.371-19.76 146.05 13.585 73.564 85.245 120.487 122.36 185.437 0 0 171.73 215.505 37.129 367.173-.007.002-50.385 66.037-127.388 72.168z" stroke-width="1.00012"/><path d="M-7015.174-3069.776c-86.207 6.864-162.396-61.173-210.875-132.787s-76.543-154.816-116.574-231.47-97.06-150.636-178.465-179.82c-33.026-11.84-72.617-14.72-100.823 6.142-31.246 23.109-38.205 67.894-30.907 106.065s25.835 73.253 36.078 110.74c10.39 38.025 11.683 80.194-5.88 115.483s-57.17 61.14-95.989 54.295c-43.692-7.705-72.189-52.39-79.525-96.147-7.308-43.591-4.742-98.734-43.928-119.18-40.724-21.247-86.188 16.213-117.735 49.602-33.183 35.123-68.125 69.722-110.69 92.591s-130.286 17.095-175.753.748-78.166-63.035-74.865-111.242c3.61-52.713 69.957-72.776 69.957-72.776 108.181-30.31 176.007-52.989 205.928-127.692a111.164 111.164 0 006.493-59.076 120.362 120.362 0 00-28.065-60.022 1250.922 1250.922 0 00-116.066-117.682c-48.705-43.252-105.285-91.403-106.75-156.524-1.114-49.45 30.822-92.899 62.368-130.996 36.398-43.956 75.282-87.413 124.751-115.863s111.782-39.995 164.144-17.3c53.34 23.12 86.483 75.76 119.636 123.517 38.27 55.126 47.699 120.74 105.977 154.013 75.909 43.345 140.904-7.016 140.904-7.016 71.995-41.484 139.457-98.823 216.33-130.378s168.268-8.89 238.271 35.882c82.536 52.786 109.041 165.396 89.954 261.486-9.45 47.581-28.173 95.424-19.364 143.129 13.312 72.091 83.539 118.073 119.911 181.727 0 0 168.295 211.193 36.386 359.827 0 0-49.374 64.712-124.834 70.724z" stroke-width="1.00012"/><path d="M-7025.364-3082.76c-84.446 6.722-159.081-59.926-206.57-130.078s-74.982-151.65-114.196-226.743-95.075-147.556-174.819-176.146c-32.35-11.597-71.134-14.42-98.765 6.016-30.61 22.637-37.426 66.509-30.276 103.9s25.306 71.758 35.342 108.48c10.177 37.248 11.445 78.553-5.762 113.125s-56.001 59.893-94.029 53.187c-42.8-7.549-70.715-51.322-77.9-94.185-7.158-42.7-4.644-96.719-43.03-116.746-39.894-20.814-84.43 15.882-115.329 48.59-32.507 34.405-66.735 68.297-108.43 90.7s-127.624 16.747-172.166.733-76.57-61.75-73.335-108.972c3.536-51.638 68.528-71.29 68.528-71.29 105.97-29.69 172.411-51.906 201.716-125.086a108.898 108.898 0 006.36-57.87 117.907 117.907 0 00-27.493-58.793 1225.485 1225.485 0 00-113.696-115.28c-47.711-42.368-103.135-89.536-104.571-153.325-1.095-48.441 30.197-91.002 61.095-128.322 35.654-43.059 73.745-85.629 122.204-113.501s109.5-39.178 160.791-16.945c52.253 22.647 84.718 74.213 117.194 120.994 37.488 54.002 46.725 118.276 103.812 150.874 74.359 42.46 138.028-6.874 138.028-6.874 70.536-40.642 136.62-96.812 211.923-127.721s164.832-8.71 233.407 35.147c80.851 51.706 106.816 162.016 88.118 256.15-9.258 46.61-27.598 93.475-18.97 140.206 13.04 70.62 81.833 115.665 117.464 178.017 0 0 164.86 206.881 35.643 352.481 0 0-48.363 63.392-122.288 69.276z" stroke-width="1.00012"/><path d="M-7035.548-3095.741c-82.687 6.584-155.766-58.672-202.266-127.364s-73.418-148.494-111.813-222.02-93.098-144.485-171.181-172.475c-31.677-11.356-69.652-14.12-96.707 5.89-29.965 22.167-36.645 65.122-29.644 101.735s24.78 70.263 34.605 106.22c9.965 36.472 11.206 76.92-5.641 110.767s-54.835 58.643-92.069 52.078c-41.908-7.39-69.242-50.25-76.277-92.222-7.013-41.812-4.547-94.703-42.134-114.314-39.06-20.38-82.669 15.551-112.927 47.577-31.829 33.688-65.344 66.874-106.171 88.81s-124.965 16.399-168.578.718-74.974-60.461-71.807-106.7c3.463-50.562 67.1-69.804 67.1-69.804 103.765-29.072 168.82-50.826 197.52-122.478a106.628 106.628 0 006.226-56.664 115.454 115.454 0 00-26.915-57.567 1199.858 1199.858 0 00-111.327-112.877c-46.717-41.486-100.985-87.67-102.393-150.133-1.067-47.431 29.564-89.106 59.823-125.648 34.912-42.16 72.208-83.844 119.658-111.135s107.218-38.362 157.442-16.594c51.164 22.177 82.952 72.667 114.752 118.469 36.707 52.877 45.752 115.811 101.65 147.729 72.808 41.576 135.151-6.735 135.151-6.735 69.052-39.786 133.759-94.784 207.496-125.05s161.395-8.527 228.54 34.416c79.17 50.633 104.59 158.639 86.28 250.81-9.065 45.638-27.025 91.526-18.573 137.284 12.768 69.148 80.127 113.256 115.015 174.307 0 0 161.423 202.57 34.9 345.136.001 0-47.353 62.072-119.735 67.834z" stroke-width="1.00012"/><path d="M-7045.735-3108.718c-80.927 6.442-152.448-57.426-197.96-124.655s-71.855-145.333-109.434-217.296-91.117-141.407-167.537-168.805c-31.002-11.114-68.17-13.818-94.649 5.766-29.33 21.693-35.865 63.736-29.013 99.569s24.252 68.766 33.868 103.958c9.754 35.696 10.967 75.282-5.52 108.41s-53.668 57.395-90.11 50.97c-41.016-7.234-67.768-49.183-74.654-90.26-6.86-40.921-4.452-92.688-41.241-111.882-38.23-19.947-80.91 15.22-110.524 46.563-31.151 32.972-63.953 65.453-103.911 86.92s-122.304 16.05-164.99.703-73.378-59.175-70.279-104.43c3.389-49.485 65.672-68.318 65.672-68.318 101.556-28.453 165.227-49.743 193.316-119.872a104.357 104.357 0 006.094-55.459 112.992 112.992 0 00-26.346-56.342 1174.358 1174.358 0 00-108.958-110.474c-45.723-40.603-98.837-85.805-100.213-146.938-1.045-46.421 28.935-87.21 58.547-122.974 34.168-41.265 70.667-82.06 117.11-108.77s104.936-37.546 154.09-16.24c50.075 21.703 81.187 71.12 112.31 115.95 35.93 51.75 44.778 113.345 99.486 144.583 71.26 40.69 132.273-6.586 132.273-6.586 67.588-38.946 130.92-92.776 203.081-122.396s157.968-8.344 223.682 33.683c77.487 49.561 102.367 155.269 84.452 245.48-8.87 44.668-26.447 89.579-18.177 134.362 12.497 67.675 78.422 110.845 112.566 170.597 0 0 157.988 198.258 34.158 337.79 0 0-46.348 60.75-117.19 66.393z" stroke-width="1.00012"/><path d="M-7055.92-3121.702c-79.168 6.302-149.136-56.179-193.653-121.944s-70.293-142.168-107.055-212.567-89.138-138.332-163.893-165.133c-30.329-10.874-66.683-13.518-92.59 5.64-28.695 21.222-35.086 62.349-28.383 97.404s23.724 67.271 33.131 101.698c9.542 34.92 10.729 73.645-5.4 106.052s-52.501 56.147-88.15 49.861c-40.125-7.076-66.295-48.113-73.03-88.296-6.711-40.031-4.354-90.672-40.34-109.447-37.4-19.513-79.151 14.888-108.121 45.55-30.475 32.255-62.563 64.029-101.651 85.03s-119.645 15.7-161.403.687-71.782-57.888-68.75-102.157c3.314-48.41 64.244-66.834 64.244-66.834 99.348-27.833 161.633-48.661 189.111-117.264a102.095 102.095 0 005.962-54.251 110.54 110.54 0 00-25.774-55.118 1148.864 1148.864 0 00-106.588-108.07c-44.727-39.721-96.687-83.94-98.035-143.744-1.023-45.412 28.306-85.313 57.276-120.3 33.425-40.366 69.135-80.274 114.564-106.404s102.65-36.73 150.74-15.888c48.985 21.233 79.42 69.573 109.865 113.432 35.145 50.625 43.804 110.88 97.322 141.441 69.71 39.805 129.397-6.443 129.397-6.443 66.12-38.103 128.073-90.76 198.667-119.737s154.53-8.164 218.816 32.95c75.796 48.476 100.138 151.884 82.608 240.135-8.68 43.696-25.876 87.63-17.783 131.44 12.226 66.205 76.717 108.434 110.12 166.887 0 0 154.552 193.948 33.414 330.444 0 0-45.339 59.429-114.639 64.946z" stroke-width="1.00012"/><path d="M-7066.106-3134.684c-77.408 6.167-145.82-54.93-189.35-119.233s-68.733-139.009-104.677-207.841-87.154-135.257-160.25-161.463c-29.654-10.631-65.21-13.22-90.532 5.515-28.055 20.745-34.305 60.965-27.752 95.239s23.196 65.78 32.396 99.436c9.33 34.142 10.49 72.008-5.281 103.694s-51.334 54.9-86.19 48.75c-39.232-6.918-64.82-47.042-71.407-86.332-6.562-39.14-4.256-88.656-39.44-107.014-36.568-19.079-77.392 14.559-105.716 44.538-29.797 31.538-61.171 62.604-99.392 83.14s-116.986 15.351-157.814.673-70.186-56.602-67.222-99.888c3.24-47.333 62.815-65.346 62.815-65.346 97.14-27.216 158.041-47.58 184.908-114.658a99.82 99.82 0 005.829-53.045 108.082 108.082 0 00-25.2-53.893 1123.282 1123.282 0 00-104.22-105.67c-43.733-38.836-94.537-82.072-95.853-140.547-1-44.402 27.676-83.415 56.002-117.625 32.682-39.468 67.597-78.49 112.018-104.04s100.368-35.909 147.385-15.529c47.897 20.76 77.655 68.026 107.423 110.912 34.359 49.5 42.83 108.417 95.158 138.296 68.16 38.92 126.521-6.3 126.521-6.3 64.654-37.257 125.226-88.745 194.25-117.079s151.095-7.982 213.953 32.22c74.11 47.398 97.911 148.509 80.767 234.793-8.486 42.725-25.297 85.683-17.387 128.519 11.953 64.733 75.013 106.025 107.671 163.178 0 0 151.116 189.635 32.672 323.098.004 0-44.328 58.108-112.085 63.502z" stroke-width="1.00012"/><path d="M-7076.295-3147.661c-75.648 6.018-142.505-53.68-185.045-116.523s-67.168-135.85-102.293-203.121-85.173-132.18-156.608-157.789c-28.98-10.39-63.721-12.918-88.474 5.388-27.418 20.279-33.525 59.578-27.12 93.073s22.67 64.28 31.659 97.176c9.117 33.366 10.251 70.37-5.16 101.333s-50.165 53.646-84.23 47.644c-38.341-6.76-63.346-45.976-69.784-84.37-6.415-38.252-4.16-86.642-38.546-104.581-35.736-18.645-75.632 14.226-103.313 43.526-29.12 30.82-59.781 61.181-97.132 81.25s-114.325 15.001-154.226.656-68.591-55.314-65.694-97.616c3.167-46.257 61.387-63.861 61.387-63.861 94.93-26.596 154.448-46.5 180.7-112.052a97.548 97.548 0 005.696-51.839 105.62 105.62 0 00-24.628-52.667 1097.704 1097.704 0 00-101.846-103.265c-42.736-37.953-92.389-80.208-93.675-137.352-.977-43.393 27.046-81.52 54.73-114.95 31.938-38.572 66.06-76.706 109.473-101.673s98.088-35.093 144.034-15.183c46.808 20.288 75.89 66.48 104.982 108.387 33.581 48.373 41.856 105.95 92.995 135.151 66.61 38.035 123.645-6.157 123.645-6.157 63.179-36.405 122.377-86.721 189.833-114.411s147.659-7.795 209.087 31.493c72.426 46.32 95.686 145.132 78.936 229.456-8.296 41.753-24.723 83.736-16.993 125.599 11.682 63.261 73.305 103.613 105.223 159.468 0 0 147.68 185.324 31.932 315.753-.002-.003-43.326 56.782-109.545 62.057z" stroke-width="1.00012"/><path d="M-7086.48-3160.645c-73.889 5.882-139.187-52.436-180.741-113.811s-65.61-132.69-99.915-198.391-83.191-129.106-152.964-154.12c-28.306-10.148-62.24-12.618-86.415 5.263-26.78 19.807-32.746 58.192-26.49 90.909s22.143 62.783 30.922 94.916c8.905 32.59 10.014 68.733-5.04 98.982s-49 52.406-82.267 46.538c-37.449-6.604-61.872-44.904-68.16-82.407-6.262-37.362-4.063-84.625-37.65-102.146-34.905-18.211-73.871 13.896-100.909 42.513-28.442 30.104-58.39 59.759-94.873 79.36s-111.665 14.652-150.637.64-66.995-54.028-64.165-95.345c3.093-45.18 59.958-62.376 59.958-62.376 92.722-25.98 150.855-45.415 176.5-109.443a95.282 95.282 0 005.564-50.633 103.166 103.166 0 00-24.055-51.443 1072.252 1072.252 0 00-99.483-100.876c-41.745-37.071-90.24-78.34-91.494-134.156-.957-42.385 26.422-79.623 53.457-112.277 31.196-37.674 64.523-74.921 106.925-99.313s95.807-34.279 140.687-14.827c45.718 19.817 74.123 64.933 102.539 105.865 32.801 47.249 40.883 103.486 90.827 132.006 65.062 37.15 120.768-6.014 120.768-6.014 61.71-35.558 119.53-84.703 185.416-111.749s144.22-7.611 204.224 30.763c70.74 45.244 93.46 141.753 77.1 224.119-8.1 40.782-24.148 81.787-16.598 122.674 11.41 61.79 71.6 101.204 102.776 155.758 0 0 144.244 181.013 31.186 308.407 0 0-42.316 55.465-106.994 60.614z" stroke-width="1.00012"/><path d="M-7096.67-3173.626c-72.127 5.742-135.874-51.183-176.434-111.1s-64.043-129.527-97.536-193.665-81.206-126.03-149.32-150.453c-27.631-9.906-60.756-12.317-84.356 5.137-26.143 19.335-31.966 56.807-25.859 88.742s21.616 61.29 30.18 92.658c8.694 31.814 9.775 67.096-4.92 96.622s-47.833 51.156-80.312 45.428c-36.557-6.447-60.4-43.835-66.538-80.445-6.114-36.472-3.966-82.609-36.753-99.715-34.073-17.777-72.111 13.564-98.505 41.5-27.76 29.388-57 58.338-92.614 77.471s-109.005 14.304-147.049.626-65.4-52.74-62.637-93.074c3.023-44.104 58.53-60.89 58.53-60.89 90.515-25.36 147.262-44.334 172.297-106.837a93.011 93.011 0 005.431-49.428 100.712 100.712 0 00-23.482-50.216 1046.698 1046.698 0 00-97.11-98.462c-40.75-36.19-88.089-76.475-89.315-130.96-.932-41.375 25.789-77.727 52.182-109.603 30.451-36.774 62.987-73.136 104.375-96.944s93.526-33.462 137.336-14.474c44.63 19.344 72.363 63.388 100.097 103.344 32.02 46.124 39.908 101.02 88.668 128.863 63.511 36.265 117.891-5.874 117.891-5.874 60.248-34.707 116.692-82.682 181.009-109.084s140.789-7.437 199.36 30.023c69.056 44.165 91.234 138.38 75.265 218.777-7.91 39.815-23.572 79.84-16.202 119.753 11.137 60.317 69.894 98.792 100.327 152.048 0 0 140.809 176.701 30.444 301.06-.004.002-41.31 54.146-104.45 59.172z" stroke-width="1.00012"/><path d="M-7106.855-3186.604c-70.368 5.602-132.559-49.934-172.126-108.39s-62.485-126.369-95.16-188.942-79.227-122.956-145.68-146.78c-26.957-9.663-59.274-12.015-82.298 5.014-25.505 18.862-31.187 55.421-25.228 86.578s21.09 59.793 29.45 90.398c8.482 31.037 9.537 65.459-4.8 94.264s-46.665 49.906-78.351 44.318c-35.665-6.29-58.926-42.765-64.913-78.482-5.965-35.581-3.87-80.593-35.856-97.282-33.247-17.346-70.354 13.236-96.103 40.488-27.086 28.668-55.609 56.912-90.353 75.58s-106.345 13.954-143.461.61-63.804-51.454-61.109-90.804c2.943-43.029 57.104-59.404 57.104-59.404 88.305-24.74 143.667-43.252 168.09-104.23a90.746 90.746 0 005.3-48.222 98.259 98.259 0 00-22.909-48.99 1021.18 1021.18 0 00-94.74-96.06c-39.758-35.304-85.941-74.608-87.137-127.766-.908-40.365 25.16-75.83 50.91-106.927 29.707-35.88 61.45-71.352 101.83-94.578s91.244-32.649 133.988-14.123c43.541 18.873 70.593 61.84 97.655 100.822 31.239 44.998 38.935 98.555 86.508 125.72 61.96 35.38 115.015-5.728 115.015-5.728 58.766-33.864 113.829-80.67 176.577-106.431s137.352-7.253 194.493 29.292c67.37 43.092 89.007 135.004 73.427 213.443-7.715 38.84-22.997 77.891-15.807 116.83 10.867 58.846 68.19 96.382 97.88 148.337 0 0 137.372 172.39 29.7 293.715 0 0-40.299 52.824-101.896 57.73z" stroke-width="1.00012"/><path d="M-7117.043-3199.587c-68.607 5.462-129.243-48.685-167.824-105.68s-60.918-123.205-92.776-184.213-77.247-119.88-142.034-143.107c-26.282-9.423-57.791-11.716-80.24 4.89-24.867 18.39-30.407 54.034-24.6 84.411s20.56 58.299 28.713 88.134c8.27 30.26 9.298 63.821-4.68 91.906s-45.498 48.658-76.392 43.21c-34.773-6.132-57.452-41.696-63.29-76.518-5.815-34.694-3.773-78.578-34.96-94.85-32.41-16.91-68.588 12.904-93.698 39.476-26.41 27.952-54.218 55.488-88.096 73.688s-103.688 13.607-139.874.596-62.208-50.167-59.581-88.532c2.872-41.952 55.675-57.918 55.675-57.918 86.093-24.123 140.074-42.173 163.887-101.624a88.472 88.472 0 005.166-47.015 95.798 95.798 0 00-22.336-47.766 995.623 995.623 0 00-92.371-93.656c-38.763-34.423-83.791-72.743-84.957-124.57-.886-39.355 24.53-73.934 49.636-104.254 28.967-34.981 59.912-69.567 99.283-92.212s88.962-31.83 130.636-13.766c42.452 18.399 68.828 60.293 95.212 98.3 30.457 43.872 37.961 96.09 84.34 122.574 60.412 34.496 112.14-5.584 112.14-5.584 57.303-33.019 110.994-78.655 172.172-103.768s133.918-7.075 189.63 28.556c65.686 42.01 86.78 131.628 71.59 208.104-7.522 37.868-22.422 75.942-15.411 113.908 10.595 57.375 66.484 93.971 95.432 144.628 0 0 133.937 168.077 28.957 286.368 0 .001-39.293 51.507-99.349 56.284z" stroke-width="1.00012"/><path d="M-7127.229-3212.568c-66.848 5.322-125.928-47.43-163.521-102.966s-59.355-120.048-90.395-179.49-75.265-116.807-138.39-139.437c-25.61-9.181-56.31-11.415-78.183 4.762-24.228 17.92-29.625 52.648-23.966 82.247s20.033 56.803 27.976 85.872c8.057 29.486 9.06 62.186-4.56 89.549s-44.33 47.41-74.433 42.103c-33.88-5.978-55.977-40.626-61.666-74.556-5.666-33.801-3.676-76.562-34.062-92.415-31.58-16.478-66.834 12.571-91.295 38.462-25.733 27.235-52.828 54.065-85.83 71.8s-101.027 13.257-136.286.58-60.612-48.88-58.051-86.26c2.799-40.874 54.246-56.433 54.246-56.433 83.889-23.503 136.483-41.089 159.685-99.017a86.21 86.21 0 005.034-45.81 93.345 93.345 0 00-21.764-46.54 970.06 970.06 0 00-90.001-91.255c-37.768-33.54-81.642-70.877-82.778-121.375-.863-38.346 23.9-72.037 48.359-101.581 28.223-34.085 58.375-67.783 96.736-89.847s86.68-31.016 127.283-13.414c41.363 17.924 67.061 58.746 92.774 95.779 29.676 42.747 36.988 93.626 82.178 119.43 58.863 33.61 109.262-5.441 109.262-5.441 55.83-32.17 108.145-76.633 167.75-101.103s130.478-6.893 184.76 27.824c64.002 40.933 84.555 128.25 69.754 202.765-7.33 36.897-21.847 73.995-15.016 110.987 10.323 55.903 64.779 91.56 92.984 140.918 0 0 130.501 163.766 28.216 279.022 0-.003-38.284 50.182-96.8 54.84z" stroke-width="1.00012"/><path d="M-7137.417-3225.547c-65.087 5.182-122.612-46.187-159.215-100.259s-57.792-116.885-88.015-174.763-73.283-113.73-134.747-135.765c-24.938-8.94-54.827-11.115-76.124 4.636-23.59 17.448-28.846 51.262-23.335 80.082s19.505 55.308 27.24 83.615c7.844 28.709 8.823 60.548-4.44 87.19s-43.164 46.163-72.473 40.994c-32.99-5.818-54.505-39.556-60.043-72.593-5.518-32.912-3.58-74.547-33.166-89.983-30.748-16.043-65.074 12.24-88.892 37.45-25.055 26.52-51.437 52.641-83.574 69.908s-98.366 12.908-132.697.564-59.016-47.593-56.523-83.99c2.724-39.8 52.817-54.947 52.817-54.947 81.68-22.884 132.888-40.006 155.48-96.41a83.934 83.934 0 004.902-44.604 90.88 90.88 0 00-21.192-45.315 944.445 944.445 0 00-87.632-88.852c-36.773-32.655-79.491-69.01-80.599-118.179-.84-37.336 23.272-70.14 47.09-98.905 27.482-33.187 56.836-66 94.19-87.48s84.398-30.197 123.93-13.057c40.274 17.455 65.297 57.2 90.329 93.257 28.894 41.622 36.013 91.16 80.013 116.286 57.313 32.726 106.384-5.297 106.384-5.297 54.365-31.33 105.299-74.624 163.34-98.447s127.046-6.71 179.9 27.09c62.313 39.854 82.33 124.875 67.917 197.427-7.135 35.925-21.272 72.047-14.62 108.066 10.05 54.43 63.075 89.15 90.535 137.207 0 0 127.065 159.46 27.472 271.677 0 0-37.276 48.86-94.252 53.397z" stroke-width="1.00012"/><path d="M-7147.604-3238.53c-63.328 5.042-119.297-44.938-154.909-97.55s-56.231-113.719-85.636-170.034-71.303-110.65-131.104-132.094c-24.26-8.698-53.343-10.814-74.065 4.511-22.953 16.976-28.066 49.876-22.705 77.916s18.978 53.812 26.505 81.347c7.628 27.932 8.582 58.911-4.32 84.833s-41.997 44.914-70.514 39.885c-32.097-5.66-53.03-38.487-58.42-70.63-5.368-32.022-3.482-72.53-32.268-87.552-29.917-15.609-63.316 11.913-86.488 36.437-24.377 25.801-50.046 51.219-81.314 68.018s-95.707 12.559-129.11.55-57.42-46.307-54.995-81.72c2.651-38.723 51.39-53.46 51.39-53.46 79.471-22.263 129.295-38.92 151.275-93.797a81.663 81.663 0 004.77-43.397 88.426 88.426 0 00-20.618-44.09 919.065 919.065 0 00-85.262-86.45c-35.78-31.773-77.343-67.145-78.42-114.983-.821-36.328 22.646-68.243 45.817-96.23 26.737-32.29 55.302-64.214 91.642-85.116s82.118-29.38 120.582-12.712c39.185 16.984 63.53 55.655 87.885 90.735 28.113 40.497 35.04 88.697 77.851 113.143 55.764 31.841 103.509-5.154 103.509-5.154 52.888-30.475 102.446-72.596 158.917-95.779s123.611-6.527 175.036 26.361c60.635 38.778 80.102 121.5 66.082 192.086-6.943 34.954-20.696 70.099-14.224 105.143 9.778 52.959 61.367 86.74 88.087 133.498 0 0 123.63 155.143 26.73 264.33-.002.003-36.27 47.542-91.706 51.956z" stroke-width="1.00012"/><path d="M-7157.791-3251.51c-61.568 4.9-115.982-43.69-150.61-94.838s-54.667-110.564-83.254-165.317-69.316-107.579-127.46-128.424c-23.587-8.456-51.862-10.513-72.007 4.386-22.315 16.505-27.291 48.493-22.07 75.752s18.452 52.322 25.77 79.096c7.422 27.158 8.344 57.275-4.2 82.477s-40.83 43.666-68.553 38.776c-31.205-5.503-51.557-37.417-56.797-68.667-5.217-31.132-3.385-70.515-31.371-85.117-29.085-15.176-61.556 11.578-84.085 35.425-23.7 25.084-48.66 49.794-79.054 66.127s-93.047 12.21-125.522.535-55.825-45.02-53.467-79.448c2.579-37.648 49.962-51.976 49.962-51.976 77.26-21.647 125.7-37.844 147.07-91.198a79.394 79.394 0 004.636-42.191 85.962 85.962 0 00-20.045-42.865 893.465 893.465 0 00-82.892-84.045c-34.784-30.89-75.193-65.28-76.24-111.788-.796-35.315 22.014-66.348 44.544-93.557 25.995-31.392 53.765-62.429 89.096-82.75s79.829-28.565 117.23-12.355c38.095 16.511 61.765 54.106 85.442 88.214 27.332 39.37 34.067 86.231 75.688 109.997 54.214 30.956 100.632-5.014 100.632-5.014 51.42-29.63 99.602-70.58 154.5-93.117s120.174-6.347 170.172 25.63c58.946 37.698 77.88 118.12 64.242 186.75-6.75 33.982-20.12 68.15-13.829 102.217 9.508 51.487 59.663 84.329 85.64 129.788 0 0 120.193 150.833 25.986 256.985.001.004-35.26 46.221-89.154 50.512z" stroke-width="1.00012"/><path d="M-7167.977-3264.49c-59.808 4.761-112.667-42.44-146.3-92.125s-53.106-107.405-80.876-160.587-67.343-104.507-123.817-124.753c-22.912-8.214-50.38-10.213-69.948 4.26-21.678 16.036-26.505 47.105-21.442 73.586s17.922 50.822 25.03 76.83c7.208 26.38 8.105 55.635-4.081 80.118s-39.662 42.418-66.594 37.668c-30.314-5.345-50.084-36.347-55.173-66.704-5.07-30.242-3.29-68.497-30.475-82.683-28.25-14.741-59.795 11.247-81.681 34.412-23.022 24.367-47.264 48.371-76.795 64.238s-90.387 11.861-121.933.52-54.232-43.734-51.938-77.177c2.504-36.572 48.535-50.49 48.535-50.49 75.054-21.028 122.108-36.763 142.867-88.59a77.124 77.124 0 004.504-40.985 83.51 83.51 0 00-19.472-41.64 867.919 867.919 0 00-80.523-81.644c-33.786-30.007-73.044-63.414-74.06-108.595-.773-34.307 21.383-64.45 43.27-90.882 25.25-30.496 52.228-60.645 86.549-80.385s77.55-27.747 113.878-12.002c37.007 16.04 60 52.56 83 85.692 26.552 38.246 33.094 83.767 73.524 106.853 52.664 30.072 97.755-4.868 97.755-4.868 49.95-28.781 96.755-68.566 150.085-90.455s116.742-6.167 165.308 24.894c57.261 36.623 75.65 114.744 62.408 181.414-6.557 33.01-19.546 66.204-13.434 99.298 9.237 50.015 57.957 81.918 83.192 126.078 0 0 116.756 146.52 25.242 249.639 0 0-34.252 44.897-86.605 49.065z" stroke-width="1.00012"/><path d="M-7178.164-3277.472c-58.049 4.62-109.352-41.192-141.994-89.415s-51.544-104.243-78.5-155.861-65.358-101.43-120.173-121.082c-22.238-7.972-48.897-9.913-67.895 4.134-21.04 15.56-25.725 45.717-20.81 71.42s17.396 49.326 24.292 74.568c6.997 25.604 7.867 53.999-3.96 77.76s-38.496 41.17-64.634 36.56c-29.421-5.188-48.61-35.277-53.548-64.741-4.92-29.353-3.194-66.485-29.579-80.25-27.422-14.308-58.035 10.916-79.277 33.4-22.345 23.649-45.874 46.947-74.535 62.346s-87.728 11.511-118.345.504-52.633-42.446-50.41-74.907c2.43-35.495 47.1-49.005 47.1-49.005 72.846-20.409 118.517-35.68 138.664-85.982a74.857 74.857 0 004.372-39.78 81.053 81.053 0 00-18.898-40.414 842.3 842.3 0 00-78.156-79.242c-32.796-29.124-70.89-61.545-71.881-105.397-.75-33.298 20.754-62.555 41.997-88.208 24.508-29.598 50.691-58.86 84.001-78.019s75.27-26.932 110.529-11.649c35.918 15.569 58.234 51.014 80.558 83.17 25.77 37.121 32.119 81.3 71.36 103.71 51.115 29.186 94.88-4.725 94.88-4.725 48.49-27.931 93.917-66.54 145.679-87.79s113.306-5.986 160.444 24.162c55.577 35.543 73.424 111.368 60.571 176.075-6.364 32.039-18.97 64.254-13.039 96.377 8.964 48.543 56.251 79.508 80.743 122.368 0 0 113.323 142.211 24.5 242.293.002 0-33.242 43.573-84.056 47.62z" stroke-width="1.00012"/><path d="M-7188.35-3290.452c-56.287 4.478-106.036-39.943-137.69-86.703s-49.98-101.083-76.118-151.134-63.375-98.357-116.529-117.413c-21.563-7.731-47.414-9.612-65.832 4.01-20.405 15.088-24.946 44.332-20.18 69.255s16.868 47.83 23.557 72.308c6.784 24.827 7.629 52.361-3.84 75.403s-37.328 39.922-62.675 35.452c-28.53-5.032-47.136-34.208-51.922-62.778-4.771-28.463-3.096-64.469-28.682-77.818-26.594-13.875-56.28 10.583-76.877 32.388-21.667 22.934-44.482 45.525-72.274 60.455s-85.068 11.163-114.754.49-51.043-41.161-48.887-72.632c2.357-34.42 45.678-47.52 45.678-47.52 70.637-19.794 114.924-34.605 134.46-83.38a72.58 72.58 0 004.239-38.573 78.592 78.592 0 00-18.326-39.186 816.865 816.865 0 00-75.785-76.84c-31.802-28.242-68.745-59.68-69.702-102.202-.727-32.289 20.126-60.658 40.724-85.534 23.765-28.7 49.155-57.075 81.456-75.653s72.988-26.117 107.177-11.298c34.83 15.096 56.468 49.466 78.115 80.649 24.988 35.994 31.146 78.837 69.198 100.56 49.568 28.304 92.003-4.582 92.003-4.582 47.008-27.082 91.056-64.518 141.25-85.126s109.87-5.804 155.58 23.43c53.89 34.465 71.198 107.99 58.735 170.735-6.17 31.066-18.396 62.306-12.644 93.455 8.692 47.072 54.546 77.097 78.295 118.658 0 0 109.887 137.898 23.758 234.947 0 0-32.236 42.254-81.509 46.177z" stroke-width="1.00012"/><path d="M-7198.537-3303.433c-54.529 4.34-102.722-38.694-133.386-83.993s-48.416-97.923-73.737-146.41-61.393-95.28-112.885-113.74c-20.89-7.489-45.932-9.312-63.774 3.885-19.761 14.619-24.166 42.946-19.549 67.09s16.34 46.334 22.82 70.046c6.573 24.051 7.394 50.725-3.719 73.045s-36.162 38.673-60.716 34.343c-27.637-4.874-45.661-33.139-50.3-60.816-4.62-27.572-3-62.453-27.786-75.385-25.76-13.44-54.521 10.253-74.473 31.374-20.99 22.216-43.094 44.1-70.015 58.567s-82.408 10.818-111.168.474-49.442-39.872-47.354-70.364c2.283-33.343 44.25-46.032 44.25-46.032 68.428-19.171 111.33-33.52 130.255-80.77a70.316 70.316 0 004.107-37.367 76.132 76.132 0 00-17.754-37.96 791.239 791.239 0 00-73.415-74.437c-30.808-27.358-66.596-57.815-67.523-99.006-.703-31.28 19.497-58.763 39.45-82.86 23.022-27.803 47.618-55.29 78.91-73.288s70.704-25.298 103.825-10.943c33.74 14.625 54.703 47.92 75.673 78.129 24.207 34.868 30.172 76.371 67.034 97.42 48.014 27.417 89.125-4.438 89.125-4.438 45.54-26.241 88.213-62.51 136.838-82.47s106.435-5.627 150.714 22.692c52.206 33.39 68.972 104.615 56.9 165.395-5.978 30.097-17.82 60.359-12.248 90.533 8.42 45.6 52.84 74.687 75.848 114.949 0 0 106.453 133.586 23.015 227.6-.002.003-31.23 40.936-78.962 44.737z" stroke-width="1.00012"/><path d="M-7208.726-3316.414c-52.768 4.201-99.406-37.446-129.079-81.282s-46.854-94.762-71.355-141.684-59.412-92.204-109.238-110.067c-20.215-7.248-44.45-9.011-61.715 3.759-19.127 14.146-23.387 41.559-18.919 64.923s15.814 44.84 22.084 67.787c6.36 23.275 7.15 49.087-3.6 70.687s-34.994 37.425-58.756 33.235c-26.745-4.717-44.189-32.07-48.678-58.853-4.473-26.683-2.902-60.436-26.888-72.952-24.929-13.006-52.758 9.924-72.067 30.362-20.312 21.499-41.701 42.677-67.756 56.676s-79.748 10.465-107.581.459-47.847-38.585-45.824-68.097c2.21-32.267 42.82-44.547 42.82-44.547 66.22-18.553 107.737-32.435 126.055-78.16a68.046 68.046 0 003.973-36.163 73.683 73.683 0 00-17.175-36.737 765.76 765.76 0 00-71.045-72.034c-29.813-26.476-64.447-55.95-65.344-95.812-.685-30.27 18.87-56.86 38.177-80.185 22.28-26.906 46.081-53.506 76.362-70.923s68.423-24.481 100.475-10.588c32.653 14.151 52.937 46.373 73.229 75.605 23.426 33.744 29.197 73.907 64.87 94.277 46.465 26.532 86.25-4.296 86.25-4.296 44.07-25.394 85.364-60.493 132.418-79.808s102.989-5.44 145.838 21.965c50.52 32.311 66.746 101.238 55.063 160.059-5.786 29.126-17.245 58.41-11.854 87.611 8.152 44.129 51.135 72.276 73.4 111.238 0 0 103.015 129.275 22.272 220.255 0 .002-30.22 39.613-76.412 43.29z" stroke-width="1.00012"/><path d="M-7218.912-3329.395c-51.009 4.061-96.09-36.196-124.775-78.57s-45.292-91.603-68.977-136.96-57.43-89.129-105.599-106.398c-19.54-7.005-42.967-8.71-59.658 3.634-18.487 13.674-22.606 40.174-18.287 62.76s15.287 43.34 21.347 65.524c6.148 22.498 6.913 47.45-3.48 68.33s-33.825 36.18-56.795 32.126c-25.852-4.559-42.714-30.999-47.054-56.89-4.325-25.793-2.805-58.426-25.992-70.52-24.097-12.569-50.998 9.594-69.663 29.35-19.635 20.782-40.31 41.254-65.496 54.786s-77.09 10.116-103.993.442-46.252-37.298-44.297-65.823c2.136-31.19 41.393-43.06 41.393-43.06 64.012-17.94 104.143-31.354 121.846-75.556a65.778 65.778 0 003.842-34.956 71.217 71.217 0 00-16.606-35.515 740.236 740.236 0 00-68.676-69.633c-28.818-25.592-62.297-54.082-63.164-92.616-.66-29.26 18.237-54.968 36.903-77.51 21.537-26.008 44.544-51.722 73.815-68.558s66.142-23.665 97.124-10.236c31.563 13.68 51.173 44.827 70.789 73.084 22.645 32.618 28.224 71.443 62.706 91.133 44.915 25.647 83.373-4.154 83.373-4.154 42.6-24.54 82.517-58.468 128.003-77.139s99.57-5.258 140.985 21.234c48.837 31.23 64.52 97.86 53.225 154.719-5.592 28.153-16.67 56.462-11.457 84.689 7.877 42.656 49.43 69.865 70.951 107.527 0 0 99.58 124.963 21.53 212.91 0 0-29.212 38.291-73.863 41.846z" stroke-width="1.00012"/><path d="M-7229.098-3342.376c-49.25 3.921-92.776-34.948-120.47-75.86s-43.729-88.44-66.597-132.233-55.447-86.053-101.956-102.727c-18.867-6.764-41.485-8.41-57.598 3.506-17.85 13.202-21.826 38.787-17.657 60.594s14.76 41.848 20.611 63.264c5.936 21.723 6.675 45.814-3.36 65.973s-32.662 34.928-54.837 31.018c-24.961-4.402-41.24-29.93-45.432-54.928-4.175-24.902-2.708-56.4-25.094-68.083-23.265-12.14-49.24 9.262-67.26 28.337-18.958 20.065-38.92 39.83-63.236 52.895s-74.429 9.767-100.405.428-44.654-36.011-42.77-63.55c2.063-30.114 39.966-41.574 39.966-41.574 61.8-17.317 100.55-30.272 117.643-72.949a63.508 63.508 0 003.709-33.749 68.766 68.766 0 00-16.033-34.288 714.618 714.618 0 00-66.303-67.23c-27.824-24.71-60.148-52.217-60.984-89.42-.637-28.251 17.608-53.073 35.63-74.836 20.793-25.11 43.003-49.938 71.268-66.192s63.859-22.847 93.77-9.884c30.472 13.208 49.405 43.28 68.345 70.562 21.864 31.494 27.25 68.977 60.543 87.989 43.365 24.762 80.493-4.01 80.493-4.01 41.133-23.696 79.673-56.458 123.59-74.483s96.13-5.082 136.121 20.497c47.151 30.156 62.294 94.486 51.39 149.383-5.4 27.182-16.096 54.514-11.063 81.767 7.606 41.185 47.721 67.455 68.504 103.818 0 0 96.145 120.651 20.783 205.563.003.001-28.201 36.97-71.311 40.402z" stroke-width="1.00012"/><path d="M-7239.287-3355.356c-47.488 3.78-89.46-33.7-116.165-73.149s-42.166-85.28-64.217-127.509-53.468-82.979-98.316-99.057c-18.193-6.522-40.002-8.11-55.54 3.383-17.212 12.73-21.046 37.401-17.025 58.429s14.231 40.352 19.874 61.003c5.724 20.946 6.436 44.179-3.24 63.615s-31.492 33.681-52.876 29.91c-24.069-4.245-39.766-28.86-43.807-52.964-4.025-24.013-2.612-54.39-24.198-65.653-22.436-11.71-47.479 8.93-64.856 27.324-18.28 19.348-37.53 38.407-60.977 51.006s-71.769 9.417-96.82.411-43.06-34.724-41.245-61.277c1.987-29.04 38.538-40.093 38.538-40.093 59.594-16.697 96.958-29.194 113.439-70.342a61.235 61.235 0 003.576-32.543 66.308 66.308 0 00-15.46-33.063 689.11 689.11 0 00-63.929-64.82c-26.83-23.826-57.997-50.352-58.806-86.225-.613-27.241 16.98-51.175 34.361-72.16 20.05-24.215 41.47-48.154 68.722-63.828s61.575-22.039 90.418-9.535c29.385 12.736 47.641 41.733 65.904 68.04 21.083 30.368 26.277 66.514 58.38 84.844 41.815 23.877 77.62-3.865 77.62-3.865 39.66-22.853 76.825-54.44 119.169-71.823s92.695-4.896 131.258 19.764c45.466 29.079 60.064 91.109 49.553 144.045-5.206 26.211-15.52 52.566-10.667 78.846 7.334 39.713 46.02 65.043 66.055 100.108 0 0 92.709 116.34 20.044 198.218.001.002-27.196 35.65-68.767 38.96z" stroke-width="1.00012"/><path d="M-7249.473-3368.336c-45.728 3.64-86.146-32.45-111.86-70.439s-40.602-82.124-61.836-122.784-51.488-79.903-94.67-95.381c-17.518-6.281-38.52-7.809-53.482 3.258-16.574 12.258-20.266 36.015-16.395 56.262s13.707 38.859 19.137 58.744c5.512 20.17 6.198 42.538-3.12 61.257s-30.325 32.433-50.917 28.802c-23.177-4.088-38.294-27.791-42.184-51.002-3.876-23.123-2.515-52.374-23.301-63.22-21.603-11.271-45.719 8.6-62.451 26.312-17.603 18.632-36.138 36.985-58.716 49.116s-69.113 9.068-93.23.396-41.46-33.437-39.711-59.008c1.917-27.967 37.107-38.608 37.107-38.608 57.386-16.078 93.363-28.108 109.235-67.734a58.96 58.96 0 003.443-31.337 63.847 63.847 0 00-14.887-31.836 663.62 663.62 0 00-61.568-62.425c-25.836-22.944-55.849-48.485-56.626-83.029-.59-26.232 16.35-49.28 33.084-69.488 19.307-23.316 39.933-46.368 66.174-61.461s59.296-21.216 87.07-9.177c28.294 12.264 45.876 40.187 63.463 65.52 20.3 29.242 25.302 64.044 56.215 81.699 40.266 22.992 74.743-3.723 74.743-3.723 38.192-22.007 73.978-52.423 114.754-69.161s89.259-4.715 126.397 19.035c43.782 28 57.843 87.732 47.718 138.703-5.013 25.24-14.945 50.618-10.272 75.923 7.062 38.238 44.313 62.634 63.608 96.398 0 0 89.272 112.029 19.301 190.873-.004 0-26.193 34.328-66.223 37.515z" stroke-width="1.00012"/><path d="M-7259.659-3381.319c-43.969 3.5-82.829-31.2-107.554-67.726s-39.04-78.96-59.458-118.058-49.5-76.827-91.026-91.71c-16.844-6.038-37.038-7.507-51.424 3.133-15.936 11.786-19.486 34.629-15.763 54.097s13.177 37.362 18.404 56.483c5.3 19.394 5.96 40.902-2.999 58.9s-29.159 31.185-48.957 27.694c-22.285-3.93-36.82-26.722-40.56-49.04-3.727-22.233-2.419-50.357-22.406-60.782-20.775-10.848-43.961 8.26-60.052 25.289-16.925 17.915-34.748 35.56-56.461 47.225s-66.45 8.72-89.641.381-39.868-32.15-38.184-56.737c1.841-26.887 35.68-37.119 35.68-37.119 55.178-15.46 89.772-27.026 105.033-65.132a56.699 56.699 0 003.316-30.13 61.397 61.397 0 00-14.312-30.606 638.024 638.024 0 00-59.198-60.023c-24.838-22.06-53.7-46.62-54.448-79.83-.567-25.223 15.72-47.383 31.81-66.814 18.564-22.418 38.397-44.583 63.629-59.096s57.013-20.399 83.72-8.823c27.206 11.791 44.109 38.644 61.02 62.997 19.519 28.117 24.328 61.583 54.052 78.555 38.716 22.108 71.866-3.578 71.866-3.578 36.722-21.16 71.13-50.407 110.337-66.5s85.82-4.538 121.524 18.297c42.097 26.922 55.616 84.356 45.88 133.368-4.82 24.269-14.37 48.67-9.876 73.001 6.79 36.77 42.608 60.224 61.16 92.688 0 0 85.837 107.714 18.557 183.527.001 0-25.18 33.006-63.669 36.07z" stroke-width="1.00012"/><path d="M-7269.847-3394.299c-42.21 3.361-79.513-29.952-103.25-65.015s-37.479-75.8-57.078-113.332-47.524-73.754-87.383-88.04c-16.17-5.797-35.551-7.207-49.368 3.006-15.299 11.315-18.707 33.243-15.134 51.932s12.646 35.866 17.665 54.222c5.087 18.618 5.72 39.264-2.88 56.543s-27.99 29.936-46.997 26.584c-21.395-3.769-35.346-25.651-38.937-47.075-3.578-21.343-2.322-48.343-21.509-58.353-19.94-10.403-42.2 7.937-57.645 24.285-16.248 17.197-33.357 34.138-54.195 45.336s-63.79 8.37-86.053.367-38.27-30.866-36.651-54.465c1.767-25.81 34.253-35.633 34.253-35.633 52.968-14.84 86.176-25.944 100.827-62.52a54.43 54.43 0 003.178-28.926 58.935 58.935 0 00-13.741-29.387 612.534 612.534 0 00-56.826-57.618c-23.848-21.177-51.55-44.754-52.267-76.639-.55-24.213 15.094-45.485 30.537-64.139 17.821-21.522 36.86-42.8 61.08-56.73s54.728-19.591 80.37-8.478c26.116 11.32 42.344 37.094 58.577 60.477 18.738 26.99 23.354 59.118 51.888 75.41 37.167 21.222 68.99-3.435 68.99-3.435 35.247-20.314 68.278-48.389 105.915-63.836s82.39-4.356 116.665 17.565c40.411 25.85 53.39 80.98 44.044 128.03-4.628 23.3-13.794 46.722-9.48 70.08 6.517 35.295 40.901 57.812 58.711 88.978 0 0 82.4 103.405 17.815 176.18 0 0-24.173 31.685-61.121 34.626z" stroke-width="1.00012"/><path d="M-7280.03-3407.278c-40.45 3.22-76.198-28.703-98.944-62.306s-35.92-72.64-54.698-108.607-45.542-70.678-83.74-84.372c-15.491-5.554-34.071-6.907-47.307 2.882-14.66 10.843-17.926 31.857-14.502 49.767s12.122 34.37 16.925 51.96c4.875 17.842 5.481 37.628-2.76 54.186s-26.823 28.687-45.037 25.475c-20.5-3.615-33.872-24.583-37.314-45.113-3.428-20.453-2.224-46.327-20.611-55.92-19.109-9.97-40.44 7.606-55.243 23.273-15.569 16.48-31.965 32.713-51.936 43.445s-61.13 8.022-82.466.35-36.676-29.575-35.127-52.194c1.694-24.735 32.825-34.147 32.825-34.147 50.76-14.222 82.584-24.867 96.621-59.915a52.162 52.162 0 003.047-27.718 56.479 56.479 0 00-13.167-28.163 586.948 586.948 0 00-54.46-55.218c-22.853-20.294-49.4-42.887-50.088-73.442-.523-23.203 14.462-43.59 29.264-61.464 17.078-20.625 35.323-41.016 58.534-54.367s52.449-18.76 77.018-8.116c25.028 10.852 40.58 35.546 56.135 57.954 17.957 25.866 22.38 56.652 49.725 72.266 35.617 20.338 66.116-3.293 66.116-3.293 33.779-19.464 65.433-46.369 101.501-61.175s78.955-4.17 111.799 16.835c38.727 24.768 51.163 77.605 42.207 122.692-4.433 22.326-13.22 44.773-9.086 67.157 6.246 33.826 39.196 55.403 56.264 85.268 0 0 78.966 99.094 17.072 168.835.002 0-23.163 30.365-58.567 33.185z" stroke-width="1.00012"/><path d="M-7290.22-3420.262c-38.689 3.08-72.885-27.456-94.639-59.595s-34.353-69.473-52.318-103.882-43.56-67.603-80.094-80.702c-14.822-5.313-32.59-6.607-45.25 2.757-14.022 10.37-17.146 30.47-13.87 47.601s11.594 32.876 16.192 49.7c4.662 17.065 5.243 35.99-2.64 51.828s-25.656 27.44-43.078 24.367c-19.61-3.458-32.399-23.512-35.69-43.15-3.28-19.563-2.128-44.312-19.714-53.488-18.278-9.536-38.681 7.276-52.84 22.261-14.89 15.764-30.573 31.291-49.678 41.559s-58.47 7.672-78.876.335-35.076-28.288-33.599-49.925c1.621-23.658 31.396-32.663 31.396-32.663 48.55-13.603 78.99-23.781 92.418-57.308a49.89 49.89 0 002.914-26.513 54.02 54.02 0 00-12.595-26.936 561.43 561.43 0 00-52.09-52.815c-21.86-19.412-47.252-41.022-47.91-70.247-.5-22.19 13.834-41.693 27.992-58.79 16.334-19.728 33.785-39.231 55.987-52s50.165-17.95 73.667-7.764c23.938 10.376 38.812 34 53.692 55.434 17.175 24.74 21.406 54.187 47.561 69.122 34.068 19.453 63.237-3.15 63.237-3.15 32.312-18.619 62.589-44.352 97.089-58.513s75.518-3.99 106.935 16.103c37.04 23.695 48.94 74.23 40.37 117.355-4.241 21.355-12.644 42.826-8.69 64.235 5.975 32.354 37.492 52.991 53.816 81.558 0 0 75.529 94.783 16.33 161.49-.001-.001-22.158 29.042-56.025 31.736z" stroke-width="1.00012"/><path d="M-7300.408-3433.24c-36.925 2.939-69.567-26.206-90.335-56.884s-32.79-66.318-49.934-99.155-41.58-64.528-76.45-77.033c-14.148-5.071-31.108-6.305-43.192 2.632-13.384 9.899-16.366 29.084-13.24 45.435s11.067 31.38 15.455 47.44c4.45 16.29 5.005 34.353-2.519 49.47s-24.49 26.191-41.119 23.259c-18.717-3.3-30.924-22.443-34.067-41.187-3.13-18.674-2.031-42.296-18.817-51.054-17.445-9.103-36.921 6.945-50.435 21.248-14.216 15.046-29.184 29.865-47.418 39.664s-55.807 7.324-75.288.316-33.485-27.004-32.07-47.655c1.546-22.581 29.968-31.175 29.968-31.175 46.343-12.984 75.398-22.7 88.215-54.7a47.622 47.622 0 002.781-25.308 51.563 51.563 0 00-12.023-25.711 535.873 535.873 0 00-49.72-50.412c-20.864-18.529-45.105-39.157-45.73-67.053-.477-21.183 13.204-39.796 26.717-56.115 15.588-18.824 32.246-37.44 53.438-49.629s47.885-17.133 70.316-7.411c22.85 9.905 37.047 32.454 51.253 52.913 16.394 23.615 20.434 51.722 45.398 65.977 32.518 18.568 60.36-3.005 60.36-3.005 30.843-17.772 59.741-42.336 92.672-55.853s72.082-3.808 102.066 15.37c35.355 22.612 46.712 70.851 38.536 112.013-4.049 20.383-12.068 40.874-8.295 61.314 5.698 30.881 35.786 50.581 51.367 77.848 0 0 72.094 90.47 15.587 154.143 0 .002-21.147 27.725-53.477 30.297z" stroke-width="1.00012"/><path d="M-7310.594-3446.222c-35.17 2.8-66.253-24.956-86.03-54.172s-31.228-63.157-47.558-94.43-39.597-61.457-72.807-73.364c-13.474-4.83-29.625-6.006-41.133 2.505-12.746 9.428-15.586 27.698-12.609 43.271s10.54 29.885 14.719 45.178c4.238 15.512 4.766 32.716-2.4 47.112s-23.323 24.943-39.159 22.15c-17.825-3.143-29.45-21.373-32.443-39.224-2.982-17.78-1.937-40.28-17.924-48.622-16.614-8.668-35.162 6.614-48.032 20.236-13.537 14.328-27.792 28.444-45.158 37.774s-53.151 6.975-71.7.305-31.89-25.717-30.542-45.383c1.472-21.505 28.54-29.689 28.54-29.689 44.134-12.365 71.804-21.617 84.01-52.094a45.35 45.35 0 002.649-24.1 49.106 49.106 0 00-11.452-24.487 510.39 510.39 0 00-47.35-48.01c-19.869-17.65-42.952-37.29-43.55-63.857-.454-20.174 12.574-37.899 25.443-53.44 14.852-17.932 30.712-35.662 50.894-47.27s45.607-16.311 66.969-7.053c21.761 9.432 35.282 30.907 48.807 50.39 15.611 22.49 19.46 49.258 43.234 62.834 30.968 17.683 57.484-2.863 57.484-2.863 29.373-16.924 56.895-40.317 88.255-53.19s68.648-3.628 97.207 14.638c33.673 21.536 44.486 67.474 36.698 106.677-3.858 19.411-11.494 38.93-7.9 58.392 5.43 29.413 34.08 48.174 48.919 74.138 0 0 68.658 86.16 14.844 146.796.002 0-20.14 26.404-50.925 28.852z" stroke-width="1.00012"/><path d="M-7320.781-3459.205c-33.41 2.66-62.936-23.708-81.725-51.462s-29.665-59.997-45.178-89.706-37.615-58.377-69.165-69.688c-12.799-4.588-28.143-5.704-39.073 2.381-12.11 8.956-14.807 26.313-11.978 41.106s10.012 28.389 13.981 42.917c4.023 14.735 4.528 31.08-2.278 44.755s-22.156 23.695-37.201 21.041c-16.933-2.987-27.977-20.304-30.82-37.261-2.832-16.894-1.836-38.265-17.022-46.19-15.783-8.234-33.402 6.284-45.628 19.224-12.864 13.61-26.4 27.022-42.898 35.884s-50.49 6.626-68.112.29-30.294-24.429-29.014-43.111c1.399-20.43 27.111-28.204 27.111-28.204 41.926-11.746 68.212-20.54 79.807-49.487a43.076 43.076 0 002.514-22.896 46.65 46.65 0 00-10.879-23.257 484.834 484.834 0 00-44.98-45.608c-18.877-16.762-40.804-35.423-41.371-60.661-.43-19.168 11.945-36.003 24.173-50.768 14.104-17.03 29.175-33.876 48.347-44.904s43.321-15.5 63.613-6.704c20.673 8.96 33.517 29.36 46.366 47.868 14.831 21.365 18.486 46.794 41.07 59.69 29.419 16.798 54.608-2.72 54.608-2.72 27.902-16.078 54.048-38.3 83.839-50.53s65.212-3.442 92.341 13.908c31.987 20.457 42.26 64.098 34.862 101.339-3.664 18.44-10.919 36.982-7.505 55.47 5.159 27.938 32.376 45.76 46.472 70.427 0 0 65.222 81.848 14.101 139.452 0 0-19.134 25.08-48.378 27.405z" stroke-width="1.00012"/><path d="M-7330.968-3472.183c-31.65 2.519-59.625-22.46-77.42-48.75s-28.102-56.837-42.798-84.98-35.635-55.303-65.521-66.018c-12.125-4.346-26.66-5.404-37.016 2.254-11.47 8.484-14.027 24.926-11.347 38.941s9.484 26.893 13.244 40.66c3.816 13.96 4.29 29.44-2.158 42.391s-20.988 22.448-35.24 19.934c-16.04-2.829-26.503-19.234-29.195-35.3-2.683-16.003-1.74-36.248-16.123-43.753-14.951-7.801-31.643 5.952-43.224 18.21-12.183 12.895-25.012 25.6-40.639 33.994s-47.831 6.276-64.524.274-28.697-23.142-27.486-40.84c1.326-19.354 25.684-26.72 25.684-26.72 39.718-11.127 64.618-19.454 75.603-46.88a40.81 40.81 0 002.383-21.69 44.197 44.197 0 00-10.303-22.034 459.347 459.347 0 00-42.613-43.205c-17.88-15.88-38.652-33.558-39.191-57.465-.413-18.157 11.319-34.106 22.898-48.093 13.356-16.135 27.632-32.09 45.794-42.54s41.037-14.676 60.263-6.348c19.583 8.488 31.75 27.814 43.922 45.348 14.05 20.239 17.512 44.328 38.907 56.545 27.87 15.913 51.73-2.576 51.73-2.576 26.433-15.231 51.202-36.284 79.423-47.868s61.778-3.264 87.483 13.174c30.302 19.38 40.033 60.722 33.025 96-3.47 17.47-10.343 35.034-7.109 52.549 4.886 26.471 30.67 43.35 44.023 66.718 0 0 61.787 77.537 13.36 132.105-.004-.001-18.13 23.757-45.835 25.963z" stroke-width="1.00012"/><path d="M-7341.155-3485.164c-29.89 2.379-56.307-21.206-73.115-46.04s-26.54-53.677-40.418-80.254-33.653-52.228-61.875-62.345c-11.45-4.105-25.178-5.104-34.958 2.13-10.833 8.011-13.248 23.538-10.716 36.774s8.957 25.398 12.51 38.395c3.602 13.185 4.051 27.801-2.04 40.043s-19.82 21.2-33.28 18.827c-15.15-2.671-25.03-18.165-27.573-33.336-2.534-15.113-1.644-34.232-15.23-41.322-14.12-7.366-29.88 5.623-40.822 17.197-11.505 12.178-23.62 24.175-38.378 32.104s-45.172 5.927-60.937.26-27.102-21.856-25.957-38.571c1.25-18.277 24.254-25.232 24.254-25.232 37.506-10.51 61.025-18.372 71.4-44.274a38.54 38.54 0 002.25-20.483 41.73 41.73 0 00-9.73-20.81 433.601 433.601 0 00-40.243-40.802c-16.886-14.997-36.503-31.69-37.014-54.27-.382-17.154 10.687-32.215 21.623-45.423 12.62-15.24 26.101-30.308 43.255-40.175s38.757-13.867 56.912-5.998c18.494 8.016 29.986 26.264 41.48 42.826 13.27 19.113 16.538 41.863 36.744 53.401 26.32 15.03 48.854-2.433 48.854-2.433 24.964-14.384 48.354-34.265 75.006-45.205s58.342-3.083 82.614 12.44c28.616 18.302 37.806 57.345 31.191 90.663-3.277 16.497-9.768 33.085-6.714 49.626 4.616 24.996 28.965 40.94 41.576 63.009 0 0 58.352 73.225 12.616 124.759-.003-.002-17.12 22.436-43.285 24.52z" stroke-width="1.00012"/><path d="M-7351.341-3498.148c-28.13 2.239-52.991-19.962-68.81-43.33s-24.974-50.515-38.038-75.529-31.672-49.152-58.235-58.675c-10.777-3.864-23.697-4.8-32.9 2.004-10.195 7.54-12.463 22.155-10.084 34.61s8.43 23.9 11.772 36.135c3.391 12.403 3.812 26.168-1.923 37.68s-18.655 19.953-31.322 17.718c-14.257-2.514-23.555-17.096-25.95-31.373-2.384-14.225-1.546-32.218-14.333-38.89-13.289-6.932-28.125 5.291-38.417 16.186-10.828 11.46-22.23 22.75-36.119 30.213s-42.512 5.583-57.349.244-25.505-20.568-24.428-36.297c1.178-17.201 22.83-23.747 22.83-23.747 35.3-9.89 57.432-17.29 67.195-41.665a36.278 36.278 0 002.12-19.278 39.278 39.278 0 00-9.16-19.584 408.242 408.242 0 00-37.872-38.4c-15.89-14.113-34.353-29.825-34.833-51.075-.364-16.136 10.057-30.314 20.35-42.745 11.877-14.343 24.565-28.523 40.707-37.808s36.475-13.05 53.56-5.644c17.406 7.543 28.22 24.72 39.039 40.303 12.487 17.988 15.565 39.398 34.58 50.257 24.77 14.146 45.975-2.288 45.975-2.288 23.498-13.538 45.508-32.247 70.593-42.543s54.908-2.9 77.75 11.708c26.932 17.225 35.58 53.968 29.353 85.321-3.084 15.526-9.193 31.138-6.319 46.704 4.345 23.524 27.257 38.528 39.128 59.298 0 0 54.915 68.914 11.872 117.413 0 .003-16.11 21.12-40.732 23.077z" stroke-width="1.00012"/><path d="M-7361.528-3511.126c-26.37 2.1-49.675-18.712-64.505-40.618s-23.411-47.355-35.659-70.802-29.69-46.077-54.591-55.004c-10.102-3.621-22.212-4.505-30.842 1.879-9.557 7.067-11.687 20.767-9.453 32.443s7.902 22.407 11.035 33.875c3.178 11.631 3.57 24.53-1.799 35.325s-17.487 18.702-29.361 16.608c-13.365-2.357-22.083-16.025-24.328-29.406-2.234-13.335-1.45-30.202-13.436-36.456-12.457-6.499-26.364 4.96-36.013 15.173-10.15 10.74-20.836 21.328-33.86 28.323s-39.853 5.23-53.76.23-23.908-19.29-22.9-34.036c1.104-16.124 21.397-22.261 21.397-22.261 33.093-9.272 53.84-16.209 62.992-39.06a34.004 34.004 0 001.986-18.07 36.818 36.818 0 00-8.583-18.362 382.645 382.645 0 00-35.503-35.997c-14.899-13.23-32.206-27.96-32.654-47.88-.34-15.125 9.429-28.415 19.078-40.07 11.133-13.443 23.027-26.736 38.158-35.436s34.194-12.238 50.21-5.296c16.318 7.067 26.455 23.174 36.596 37.782 11.707 16.863 14.591 36.934 32.418 47.11 23.22 13.259 43.101-2.146 43.101-2.146 22.023-12.687 42.659-30.228 66.173-39.88s51.472-2.72 72.884 10.976c25.248 16.146 33.356 50.592 27.517 79.986-2.89 14.555-8.618 29.189-5.923 43.78 4.072 22.053 25.553 36.12 36.679 55.59 0 0 51.48 64.6 11.13 110.067 0 0-15.104 19.794-38.184 21.633z" stroke-width="1.00012"/><path d="M-7371.716-3524.106c-24.61 1.96-46.365-17.465-60.2-37.908s-21.851-44.194-33.279-66.079-27.713-43.003-50.951-51.334c-9.428-3.38-20.73-4.202-28.782 1.753-8.92 6.597-10.907 19.382-8.824 30.279s7.375 20.912 10.3 31.614c2.966 10.855 3.335 22.893-1.68 32.967s-16.32 17.455-27.402 15.5c-12.473-2.199-20.608-14.956-22.703-27.447-2.086-12.444-1.353-28.186-12.54-34.023-11.628-6.065-24.605 4.629-33.61 14.161-9.474 10.026-19.449 19.903-31.6 26.433s-37.192 4.88-50.173.215-22.314-17.994-21.37-31.757c1.03-15.048 19.97-20.776 19.97-20.776 30.883-8.652 50.245-15.126 58.787-36.452a31.734 31.734 0 001.853-16.865 34.356 34.356 0 00-8.012-17.134 357.077 357.077 0 00-33.135-33.594c-13.905-12.348-30.056-26.094-30.473-44.684-.318-14.116 8.799-26.52 17.805-37.395 10.395-12.551 21.498-24.952 35.617-33.081s31.912-11.42 46.858-4.938c15.228 6.6 24.69 21.628 34.154 35.26 10.925 15.738 13.617 34.468 30.25 43.967 21.67 12.374 40.225-2.003 40.225-2.003 20.556-11.841 39.817-28.21 61.76-37.219s48.037-2.537 68.017 10.242c23.561 15.07 31.129 47.215 25.68 74.648-2.698 13.583-8.043 27.24-5.528 40.859 3.801 20.58 23.848 33.708 34.232 51.879 0 0 48.044 60.29 10.387 102.721.004.002-14.09 18.473-35.633 20.19z" stroke-width="1.00012"/></g></g></g></svg>