<svg width="9544" height="970" viewBox="0 730 2386 970" fill="none" xmlns="http://www.w3.org/2000/svg">
<path d="M4507.05 31.9769C4400.2 52.6437 4316.91 83.8389 4146.49 137.261C3878.54 221.488 3576.61 225.387 3576.61 225.387C2991.94 186.003 2876.32 -92.8038 2234.66 31.9769C2127.81 52.6437 2044.52 83.8389 1874.1 137.261C1606.15 221.488 1304.23 225.387 1304.23 225.387C720.101 186.003 603.934 -92.8038 -37.7263 31.9769C-144.578 52.6437 -227.868 83.8389 -398.284 137.261C-666.236 221.488 -968.161 225.387 -968.161 225.387C-1552.29 186.003 -1667.9 -92.8038 -2309.57 31.9769C-2416.42 52.6437 -2499.71 83.8389 -2670.12 137.261C-2938.07 221.488 -3240 225.387 -3240 225.387V969.002C-3240 969.002 -2938.07 965.102 -2670.12 880.875C-2499.71 827.454 -2416.97 796.258 -2309.57 775.592C-1667.9 651.201 -1552.29 930.008 -967.613 969.002C-967.613 969.002 -665.688 965.102 -397.736 880.875C-227.32 827.454 -144.578 796.258 -37.1782 775.592C604.482 651.201 720.102 930.008 1304.77 969.002C1304.77 969.002 1606.7 965.102 1874.65 880.875C2045.07 827.454 2127.81 796.258 2235.21 775.592C2876.87 651.201 2992.49 930.008 3577.16 969.002C3577.16 969.002 3879.09 965.102 4147.04 880.875C4317.45 827.454 4400.2 796.258 4507.6 775.592C5149.26 651.201 5264.88 930.008 5849.55 969.002V225.387C5264.33 186.003 5148.71 -92.8038 4507.05 31.9769Z" fill="#E9F6FF"/>
</svg>
