<svg width="143" height="79" viewBox="0 0 143 79" fill="none" xmlns="http://www.w3.org/2000/svg">
<g clip-path="url(#clip0_424_95)">
<path d="M137.6 77.3001H18.8C16.6 77.3001 14.8 75.5001 14.8 73.3001V14.7001C14.8 12.5001 16.6 10.7001 18.8 10.7001H137.7C139.9 10.7001 141.7 12.5001 141.7 14.7001V73.4001C141.6 75.6001 139.8 77.3001 137.6 77.3001Z" fill="white" stroke="#020739" stroke-width="1.5" stroke-miterlimit="10" stroke-linecap="round" stroke-linejoin="round"/>
<path d="M19 9.30005L28.8 10.4L22 17.5L24.1 27L15.2 22.8L6.80005 27.7001L8.00005 18L0.800049 11.5L10.4 9.70005L14.3 0.800049L19 9.30005Z" fill="#16DFB5" stroke="#020739" stroke-width="1.5" stroke-miterlimit="10" stroke-linecap="round" stroke-linejoin="round"/>
<path d="M68.4001 68.4C81.434 68.4 92 57.8339 92 44.7999C92 31.766 81.434 21.2 68.4001 21.2C55.3661 21.2 44.8 31.766 44.8 44.7999C44.8 57.8339 55.3661 68.4 68.4001 68.4Z" fill="#020739"/>
<path d="M62.7999 42.5L61.0999 49.2C60.9999 49.5 60.7 50 59.9 49.8L58 49.3L56.7 52.2L60 53C60.6 53.2 61.1999 53.3 61.7999 53.5L60.7 57.7L63.2 58.3L64.1999 54.1C64.8999 54.3 65.5999 54.5 66.1999 54.6L65.1999 58.8L67.6999 59.4L68.8 55.2C73.1 56 76.4 55.7 77.8 51.8C78.9 48.6 77.7 46.8 75.5 45.6C77.2 45.2 78.4 44.1 78.8 41.9C79.3 38.8 76.8999 37.1 73.6999 36L74.6999 31.8L72.1999 31.2L71.1999 35.3C70.4999 35.1 69.7999 35 69.1999 34.8L70.1999 30.7L67.6999 30.1L66.6999 34.3C66.0999 34.2 65.5999 34 65.0999 33.9L61.5999 33L61 35.7C61 35.7 62.9 36.1 62.9 36.2C63.9 36.5 64.0999 37.1 64.0999 37.7L62.7999 42.5ZM73.1999 50.1C72.3999 53.3 67.1 51.6 65.4 51.1L66.8 45.5C68.5 45.9 73.9999 46.8 73.1999 50.1ZM74 41.9C73.2999 44.8 68.8 43.3 67.4 43L68.6999 37.9C70.0999 38.2 74.7 38.9 74 41.9Z" fill="white"/>
<path d="M100 59.2999C106.517 59.2999 111.8 54.0169 111.8 47.5C111.8 40.983 106.517 35.7 100 35.7C93.483 35.7 88.2 40.983 88.2 47.5C88.2 54.0169 93.483 59.2999 100 59.2999Z" fill="#020739"/>
<path d="M107.2 45.9999H92.8999V48.9999H107.2V45.9999Z" fill="white"/>
<path d="M101.5 40.3999H98.5V54.6999H101.5V40.3999Z" fill="white"/>
</g>
<defs>
<clipPath id="clip0_424_95">
<rect width="142.4" height="78.1" fill="white"/>
</clipPath>
</defs>
</svg>
