<svg width="143" height="79" viewBox="0 0 143 79" fill="none" xmlns="http://www.w3.org/2000/svg">
<g clip-path="url(#clip0_424_80)">
<path d="M137.6 77.3001H18.8C16.6 77.3001 14.8 75.5001 14.8 73.3001V14.7001C14.8 12.5001 16.6 10.7001 18.8 10.7001H137.7C139.9 10.7001 141.7 12.5001 141.7 14.7001V73.4001C141.6 75.6001 139.8 77.3001 137.6 77.3001Z" fill="white" stroke="#020739" stroke-width="1.5" stroke-miterlimit="10" stroke-linecap="round" stroke-linejoin="round"/>
<path d="M19 9.30005L28.8 10.4L22 17.5L24.1 27L15.2 22.8L6.80005 27.7001L8.00005 18L0.800049 11.5L10.4 9.70005L14.3 0.800049L19 9.30005Z" fill="#16DFB5" stroke="#020739" stroke-width="1.5" stroke-miterlimit="10" stroke-linecap="round" stroke-linejoin="round"/>
<path d="M59.9002 40.6001H61.7002V48.8001H59.9002V45.3001H56.8002V48.8001H55.0002V40.6001H56.8002V43.7001H59.9002V40.6001Z" fill="#020739"/>
<path d="M66.1001 44.7001C66.1001 45.1001 66.1001 45.5001 66.2001 45.8001C66.3001 46.1001 66.4001 46.4001 66.6001 46.6001C66.8001 46.8001 67.0001 47.0001 67.3001 47.1001C67.6001 47.2001 67.9001 47.3001 68.2001 47.3001C68.5001 47.3001 68.8001 47.2001 69.1001 47.1001C69.4001 47.0001 69.6001 46.8001 69.8001 46.6001C70.0001 46.4001 70.1001 46.1001 70.2001 45.8001C70.3001 45.5001 70.3001 45.1001 70.3001 44.7001C70.3001 44.3001 70.3001 43.9001 70.2001 43.6001C70.1001 43.3001 70.0001 43.0001 69.8001 42.8001C69.6001 42.6001 69.4001 42.4001 69.1001 42.3001C68.8001 42.2001 68.5001 42.1001 68.2001 42.1001C67.9001 42.1001 67.5001 42.2001 67.3001 42.3001C67.0001 42.4001 66.8001 42.6001 66.6001 42.8001C66.4001 43.0001 66.3001 43.3001 66.2001 43.6001C66.1001 43.9001 66.1001 44.3001 66.1001 44.7001ZM72.3001 44.7001C72.3001 45.4001 72.2001 46.0001 72.0001 46.5001C71.8001 47.0001 71.5001 47.5001 71.1001 47.8001C70.7001 48.2001 70.3001 48.4001 69.8001 48.6001C69.3001 48.8001 68.8001 48.9001 68.2001 48.9001C67.6001 48.9001 67.1001 48.8001 66.6001 48.6001C66.1001 48.4001 65.7001 48.2001 65.3001 47.8001C64.9001 47.4001 64.6001 47.0001 64.4001 46.5001C64.2001 46.0001 64.1001 45.4001 64.1001 44.7001C64.1001 44.0001 64.2001 43.4001 64.4001 42.9001C64.6001 42.4001 64.9001 41.9001 65.3001 41.6001C65.7001 41.2001 66.1001 41.0001 66.6001 40.8001C67.1001 40.6001 67.6001 40.5001 68.2001 40.5001C68.8001 40.5001 69.3001 40.6001 69.8001 40.8001C70.3001 41.0001 70.7001 41.3001 71.1001 41.6001C71.5001 42.0001 71.8001 42.4001 72.0001 42.9001C72.2001 43.3001 72.3001 44.0001 72.3001 44.7001Z" fill="#020739"/>
<path d="M76.9001 47.3001C77.2001 47.3001 77.4001 47.3001 77.5001 47.2001C77.7001 47.2001 77.8001 47.1001 77.9001 47.0001C78.0001 46.9001 78.1001 46.8001 78.1001 46.7001C78.1001 46.6001 78.2001 46.5001 78.2001 46.4001C78.2001 46.1001 78.1001 45.9001 77.8001 45.7001C77.5001 45.5001 77.1001 45.3001 76.5001 45.1001C76.2001 45.0001 76.0001 44.9001 75.7001 44.8001C75.4001 44.7001 75.2001 44.5001 75.0001 44.3001C74.8001 44.1001 74.6001 43.9001 74.5001 43.6001C74.4001 43.3001 74.3001 43.0001 74.3001 42.6001C74.3001 42.2001 74.4001 41.9001 74.5001 41.6001C74.6001 41.3001 74.8001 41.0001 75.1001 40.8001C75.4001 40.6001 75.7001 40.4001 76.0001 40.3001C76.4001 40.2001 76.8001 40.1001 77.3001 40.1001C77.9001 40.1001 78.3001 40.2001 78.7001 40.3001C79.1001 40.4001 79.4001 40.5001 79.7001 40.7001L79.2001 42.1001C79.0001 42.0001 78.7001 41.9001 78.4001 41.8001C78.1001 41.7001 77.8001 41.7001 77.4001 41.7001C77.0001 41.7001 76.6001 41.8001 76.4001 41.9001C76.2001 42.0001 76.1001 42.2001 76.1001 42.5001C76.1001 42.6001 76.1001 42.8001 76.2001 42.9001C76.3001 43.0001 76.4001 43.1001 76.5001 43.2001C76.6001 43.3001 76.8001 43.4001 76.9001 43.4001C77.1001 43.5001 77.3001 43.5001 77.5001 43.6001C77.9001 43.8001 78.3001 43.9001 78.6001 44.1001C78.9001 44.3001 79.2001 44.4001 79.4001 44.6001C79.6001 44.8001 79.8001 45.0001 79.9001 45.3001C80.0001 45.6001 80.1001 45.9001 80.1001 46.3001C80.1001 47.1001 79.8001 47.7001 79.3001 48.1001C78.8001 48.5001 78.0001 48.7001 76.9001 48.7001C76.5001 48.7001 76.2001 48.7001 75.9001 48.6001C75.6001 48.6001 75.4001 48.5001 75.1001 48.4001C74.9001 48.3001 74.7001 48.3001 74.5001 48.2001C74.3001 48.1001 74.2001 48.1001 74.1001 48.0001L74.6001 46.5001C74.8001 46.6001 75.1001 46.8001 75.5001 46.9001C76.0001 47.3001 76.4001 47.3001 76.9001 47.3001Z" fill="#020739"/>
<path d="M88.3002 40.6001V42.2001H85.8002V48.8001H84.0002V42.2001H81.5002V40.6001H88.3002Z" fill="#020739"/>
<path d="M90.3 48.7001H92.1V40.5001H90.3V48.7001Z" fill="#020739"/>
<path d="M100.4 48.7C99.9001 47.8 99.3001 46.8 98.7001 45.9C98.1001 45 97.4001 44.1 96.7001 43.3V48.6H94.9001V40.4H96.4001C96.7001 40.7 96.9001 41 97.3001 41.4C97.6001 41.8 97.9001 42.2 98.3001 42.6C98.6001 43 99.0001 43.5 99.3001 43.9C99.6001 44.4 99.9001 44.8 100.2 45.2V40.4H102V48.6H100.4V48.7Z" fill="#020739"/>
<path d="M108.7 42C107.8 42 107.2 42.2 106.8 42.7C106.4 43.2 106.2 43.8 106.2 44.6C106.2 45 106.2 45.4 106.3 45.7C106.4 46 106.5 46.3 106.7 46.5C106.9 46.7 107.1 46.9 107.4 47C107.7 47.1 108 47.2 108.4 47.2C108.6 47.2 108.8 47.2 108.9 47.2C109 47.2 109.2 47.2 109.3 47.2V44.4H111.1V48.4C110.9 48.5 110.5 48.6 110 48.7C109.5 48.8 108.9 48.8 108.2 48.8C107.6 48.8 107 48.7 106.5 48.5C106 48.3 105.6 48 105.2 47.7C104.8 47.3 104.6 46.9 104.4 46.4C104.2 45.9 104.1 45.3 104.1 44.6C104.1 43.9 104.2 43.3 104.4 42.8C104.6 42.3 104.9 41.8 105.3 41.5C105.7 41.1 106.1 40.9 106.6 40.7C107.1 40.5 107.6 40.4 108.2 40.4C108.6 40.4 108.9 40.4 109.2 40.5C109.5 40.6 109.8 40.6 110 40.7C110.2 40.8 110.4 40.8 110.6 40.9C110.7 41 110.8 41 110.9 41.1L110.4 42.6C110.1 42.5 109.9 42.4 109.5 42.3C109.4 42 109.1 42 108.7 42Z" fill="#020739"/>
<path d="M113.8 48.7001V40.5001H119.3V42.0001H115.6V43.6001H118.9V45.1001H115.6V47.1001H119.6V48.6001H113.8V48.7001Z" fill="#020739"/>
<path d="M124.4 42.0001C124.3 42.0001 124.1 42.0001 124 42.0001C123.9 42.0001 123.8 42.0001 123.7 42.0001V44.2001H124.2C124.9 44.2001 125.4 44.1001 125.7 43.9001C126 43.7001 126.1 43.4001 126.1 43.0001C126.1 42.6001 125.9 42.3001 125.6 42.1001C125.4 42.1001 124.9 42.0001 124.4 42.0001ZM124.3 40.5001C125.5 40.5001 126.5 40.7001 127.1 41.2001C127.8 41.6001 128.1 42.3001 128.1 43.2001C128.1 43.8001 128 44.2001 127.7 44.6001C127.4 45.0001 127.1 45.2001 126.6 45.4001C126.8 45.6001 126.9 45.8001 127.1 46.1001C127.3 46.4001 127.5 46.6001 127.6 46.9001C127.8 47.2001 127.9 47.5001 128.1 47.8001C128.3 48.1001 128.4 48.4001 128.6 48.7001H126.5C126.3 48.4001 126.2 48.2001 126 47.9001C125.8 47.6001 125.7 47.4001 125.5 47.1001C125.3 46.8001 125.2 46.6001 125 46.4001C124.8 46.2001 124.7 46.0001 124.5 45.8001H123.6V48.8001H121.8V40.8001C122.2 40.7001 122.6 40.7001 123 40.6001C123.5 40.5001 123.9 40.5001 124.3 40.5001Z" fill="#020739"/>
<path d="M30.4001 43.9001V34.7001L35.0001 37.2001V41.3001H41.1001L45.8001 43.9001H30.4001ZM42.4001 40.6001V34.7001L47.2001 37.1001V43.3001L42.4001 40.6001ZM42.4001 51.8001V47.7001H36.2001L31.4001 45.1001L47.1001 45.2001V54.4001L42.4001 51.8001ZM30.4001 51.8001V45.8001L35.0001 48.5001V54.2001L30.4001 51.8001Z" fill="#020739"/>
</g>
<defs>
<clipPath id="clip0_424_80">
<rect width="142.4" height="78.1" fill="white"/>
</clipPath>
</defs>
</svg>
