<svg xmlns="http://www.w3.org/2000/svg" viewBox="0 0 324.58 284.6"><defs><style>.cls-1{fill:#5022ed}.cls-2{fill:#2b00bc}.cls-3{fill:#f1c751}.cls-4{fill:#e8b73d}.cls-5{fill:#fff}</style></defs><g id="Layer_2" data-name="Layer 2"><g id="Layer_1-2" data-name="Layer 1"><path class="cls-1" d="M29.11 43.41h9.08v178.32h-9.08zm238.21 0h9.08v178.32h-9.08z"/><path class="cls-2" d="M24.35 58.1 36.57 6.72A8.89 8.89 0 0 1 45.3 0h214.86a8.9 8.9 0 0 1 8.73 6.72l11.83 49.72"/><path class="cls-1" d="M29.11 176.15h247.06v108.44H29.11z"/><path class="cls-3" d="M0 67.43a19.1 19.1 0 0 0 38.14 0zm38.19 0a19.1 19.1 0 0 0 38.14 0zm38.19 0a19.09 19.09 0 0 0 38.13 0zm38.18 0a19.1 19.1 0 0 0 38.14 0zm38.19 0a19.1 19.1 0 0 0 38.14 0zm38.19 0a19.1 19.1 0 0 0 38.14 0zm38.19 0a19.1 19.1 0 0 0 38.14 0zm38.19 0a19.15 19.15 0 0 0 38.16 1 7.31 7.31 0 0 1-1.47-1z"/><path class="cls-3" d="m0 67.43 29-27.55h247.45l29.03 28.55L0 67.43z"/><path class="cls-1" d="M0 67.43a19.1 19.1 0 0 0 38.14 0zm38.19 0a19.1 19.1 0 0 0 38.14 0zm38.19 0a19.09 19.09 0 0 0 38.13 0zm38.18 0a19.1 19.1 0 0 0 38.14 0zm38.19 0a19.1 19.1 0 0 0 38.14 0zm38.19 0a19.1 19.1 0 0 0 38.14 0zm38.19 0a19.1 19.1 0 0 0 38.14 0zm38.19 0a19.15 19.15 0 0 0 38.16 1 7.31 7.31 0 0 1-1.47-1z"/><path class="cls-1" d="m0 67.43 29-27.55h247.45l29.03 28.55L0 67.43z"/><rect class="cls-3" x="59.41" y="124.42" width="41.15" height="8.68" rx=".52"/><rect class="cls-4" x="56.91" y="133.11" width="41.15" height="8.68" rx=".52"/><rect class="cls-3" x="59.41" y="159.05" width="41.15" height="8.68" rx=".52"/><rect class="cls-4" x="56.91" y="167.73" width="41.15" height="8.68" rx=".52"/><rect class="cls-3" x="51.34" y="141.79" width="41.15" height="8.68" rx=".52"/><rect class="cls-4" x="57.39" y="150.47" width="41.15" height="8.68" rx=".52"/><rect class="cls-3" x="109.37" y="159.1" width="41.15" height="8.68" rx=".52" transform="rotate(-180 129.95 163.445)"/><rect class="cls-4" x="106.48" y="167.79" width="41.15" height="8.68" rx=".52" transform="rotate(-180 127.05 172.125)"/><rect class="cls-4" x="104.8" y="150.61" width="41.15" height="8.68" rx=".52" transform="rotate(-180 125.375 154.955)"/><path class="cls-5" d="m245.61 109.15 17.71 4.14 33.06 24.65 9.81 25.15.64 25.41-4.57 25.37-8.45 12.68-12.52-77.13-36.37-38.83.69-1.44z"/><path class="cls-5" d="m270.81 152.03 1.7-1.13-70.36 2.23 6.67 68.63 75.3-4.45-13.31-65.28z"/><path class="cls-2" d="M220.65 163.47c-2.5 0-4.62 2.76-4.62 6s2.11 6 4.62 6 4.64-2.77 4.64-6-2.13-6-4.64-6zm40.59 31.9c-2.51 0-4.63 2.77-4.63 6s2.12 6 4.63 6 4.63-2.76 4.63-6-2.12-6-4.63-6z"/><path class="cls-2" d="M287.54 146.5c-40.78-37.52-38.69-36.09-41.93-37.35a13.39 13.39 0 0 0-13.88 2.61L194 146.5a20.77 20.77 0 0 0-6.68 15.24v61.51a13.13 13.13 0 0 0 13.08 13.15h80.76a13.13 13.13 0 0 0 13.08-13.15v-61.51a20.77 20.77 0 0 0-6.68-15.24zm-50.67-13.19a4 4 0 1 1 3.21 4.34 4 4 0 0 1-3.21-4.34zM208 169.5c0-7.76 5.69-14.07 12.67-14.07s12.68 6.31 12.68 14.07-5.69 14.08-12.68 14.08S208 177.26 208 169.5zm23 42.81a4 4 0 0 1-3.71-5.58l19.58-46.66a4 4 0 1 1 7.42 3.11l-19.58 46.66a4 4 0 0 1-3.71 2.47zm30.2 3.17c-7 0-12.67-6.31-12.67-14.07s5.68-14.08 12.67-14.08 12.67 6.32 12.67 14.08-5.64 14.07-12.63 14.07z"/><path class="cls-2" d="M323.57 190.67c-13.09-38.12-20.37-59.32-20.47-59.56a20.54 20.54 0 0 0-12.1-11.24c-.31-.11 1.52.34-27.64-6.58L293 140.58a28.79 28.79 0 0 1 9.28 21.16v52.13l14.47-6.2a13.05 13.05 0 0 0 6.84-17z"/></g></g></svg>