<svg width="143" height="79" viewBox="0 0 143 79" fill="none" xmlns="http://www.w3.org/2000/svg">
<g clip-path="url(#clip0_450_163)">
<path d="M137.6 77.3001H18.8C16.6 77.3001 14.8 75.5001 14.8 73.3001V14.7001C14.8 12.5001 16.6 10.7001 18.8 10.7001H137.7C139.9 10.7001 141.7 12.5001 141.7 14.7001V73.4001C141.6 75.6001 139.8 77.3001 137.6 77.3001Z" fill="white" stroke="#020739" stroke-width="1.5" stroke-miterlimit="10" stroke-linecap="round" stroke-linejoin="round"/>
<path d="M19 9.30005L28.8 10.4L22 17.5L24.1 27L15.2 22.8L6.80005 27.7001L8.00005 18L0.800049 11.5L10.4 9.70005L14.3 0.800049L19 9.30005Z" fill="#16DFB5" stroke="#020739" stroke-width="1.5" stroke-miterlimit="10" stroke-linecap="round" stroke-linejoin="round"/>
<path d="M105.7 64.4001H50.7C48.5 64.4001 46.7 62.6001 46.7 60.4001V27.6001C46.7 25.4001 48.5 23.6001 50.7 23.6001H105.7C107.9 23.6001 109.7 25.4001 109.7 27.6001V60.4001C109.7 62.6001 107.9 64.4001 105.7 64.4001Z" fill="#020739" stroke="#020739" stroke-width="1.5" stroke-miterlimit="10" stroke-linecap="round" stroke-linejoin="round"/>
<path d="M90.6999 36.1L88.8 38.9C88.2 38.6 87.5 38.5 86.8 38.5C86.4 38.5 85.9999 38.5 85.5999 38.6C85.4999 38.6 85.5 38.6 85.4 38.6C84.8 38.7 84.1999 39 83.6999 39.4C83.5999 39.4 83.6 39.5 83.5 39.5C83.1 39.8 82.7 40.2 82.3 40.7C81 42.3 80.1 44.5 78.4 46.9C78.2 47.1 78.1 47.4 77.9 47.6C76.6 49.4 74.9 50.8 72.9 51.8L72.5999 52C72.2999 52.1 71.9999 52.2 71.6999 52.3C71.4999 52.4 71.2999 52.4 71.0999 52.5C70.5999 52.6 70 52.7 69.4 52.7H69C64.2 52.7 60.2 48.8 60.2 44C60.2 39.2 64.1 35.3 68.9 35.2C71.2 35.2 73.3 36.1 75 37.6L73.0999 40.4C71.1999 38.1 67.7 37.8 65.4 39.8C63.1 41.8 62.8 45.2 64.8 47.4C65.8 48.6 67.3 49.3 68.9 49.3C69 49.3 69.1 49.3 69.3 49.3C70 49.3 70.7 49.1 71.4 48.7C73.3 47.8 74.8 45.9 77.3 41.5C77.4 41.3 77.4999 41.1 77.5999 40.9C78.4999 39.3 79.6 38 81 36.9L81.1999 36.8C81.2999 36.7 81.3 36.7 81.4 36.7C81.6 36.6 81.7 36.5 81.9 36.4C82.1 36.3 82.2999 36.2 82.5 36.1L82.6999 36L83 35.9L83.4 35.7C86.1 34.9 88.5999 35 90.6999 36.1Z" fill="white"/>
<path d="M95.6 42.2001V43.9001C95.6 44.2001 95.6 44.5001 95.6 44.8001C95.6 45.1001 95.5 45.3001 95.5 45.6001C94.6 50.3001 90 53.4001 85.3 52.6001C83.7 52.3001 82.2 51.5001 81 50.4001L82.9 47.6001C84.9 49.8001 88.3 50.0001 90.5 48.0001C91.2 47.4001 91.7 46.5001 92 45.6001H86.6L88.9 42.3001H95.6V42.2001Z" fill="white"/>
</g>
<defs>
<clipPath id="clip0_450_163">
<rect width="142.4" height="78.1" fill="white"/>
</clipPath>
</defs>
</svg>
