<svg width="143" height="79" viewBox="0 0 143 79" fill="none" xmlns="http://www.w3.org/2000/svg">
<g clip-path="url(#clip0_442_64)">
<path d="M137.6 77.3H18.8C16.6 77.3 14.8 75.5 14.8 73.3V14.7C14.8 12.5 16.6 10.7 18.8 10.7H137.7C139.9 10.7 141.7 12.5 141.7 14.7V73.4C141.6 75.6 139.8 77.3 137.6 77.3Z" fill="white" stroke="#020739" stroke-width="1.5" stroke-miterlimit="10" stroke-linecap="round" stroke-linejoin="round"/>
<path d="M19 9.30005L28.8 10.4L22 17.5L24.1 27L15.2 22.8L6.80005 27.7001L8.00005 18L0.800049 11.5L10.4 9.70005L14.3 0.800049L19 9.30005Z" fill="#16DFB5" stroke="#020739" stroke-width="1.5" stroke-miterlimit="10" stroke-linecap="round" stroke-linejoin="round"/>
<path d="M122.8 40.6C122.8 41.9 123.8 42.9001 125.1 42.9001C126.4 42.9001 127.4 41.9 127.4 40.6C127.4 39.3 126.4 38.3 125.1 38.3C123.8 38.3 122.8 39.3 122.8 40.6ZM123.3 40.6C123.3 39.6 124.1 38.8 125.1 38.8C126.1 38.8 126.9 39.6 126.9 40.6C126.9 41.6 126.1 42.4001 125.1 42.4001C124.1 42.4001 123.3 41.6 123.3 40.6ZM125.5 41.8H126.2L125.7 40.8C126 40.7 126.2 40.4 126.2 40.1C126.2 39.7 125.8 39.3 125.3 39.3H124.3V41.8H124.9V40.9001H125.1L125.5 41.8ZM124.9 40.5V39.9001H125.2C125.4 39.9001 125.6 40.0001 125.6 40.2001C125.6 40.4001 125.5 40.5 125.2 40.5H124.9Z" fill="#020739"/>
<path d="M121.5 43.1H118.6L115.7 46.2001V38.3H113.5V51.4001H115.7V49.2001L116.6 48.2001L118.8 51.4001H121.6L118.2 46.6L121.5 43.1Z" fill="#020739"/>
<path d="M112.6 43.1001C112.4 43.1001 112.3 43.1001 112.1 43.1001C111.4 43.1001 110.3 43.3001 109.8 44.4001V43.1001H107.6V51.4001H109.8V47.6001C109.8 45.8001 110.7 45.2001 111.9 45.2001C112.1 45.2001 112.6 45.2001 112.6 45.2001V43.1001Z" fill="#020739"/>
<path d="M99 49C99 50.3 100.1 51.4 101.8 51.4C103 51.4 103.8 51 104.2 50.4L104.3 51.4H106.3V50.1V46.1C106.3 44.5 105.3 43 102.7 43C100.5 43 99.3 44.4 99.2 45.6L101.2 46C101.3 45.3 101.8 44.7 102.8 44.7C103.7 44.7 104.2 45.2 104.2 45.7C104.2 46 104 46 103.6 46.1L101.6 46.4C100.1 46.7 99 47.5 99 49ZM102.3 49.8C101.6 49.8 101.2 49.3 101.2 48.9C101.2 48.3 101.7 48 102.2 47.9L104.1 47.6V48.2C104.2 49.5 103.3 49.8 102.3 49.8Z" fill="#020739"/>
<path d="M92.9001 46.5C93.0001 45.6 93.5001 44.9001 94.4001 44.9001C95.5001 44.9001 95.9001 45.6 95.9001 46.6V51.4001H98.1001V46.2001C98.1001 44.4001 97.1001 43.1 95.0001 43.1C94.2001 43.1 93.3001 43.2 92.8001 43.8V38.3H90.6001V51.4001H92.8001V46.5H92.9001Z" fill="#020739"/>
<path d="M83.2 49.0001C83.3 49.9001 84.1 51.4001 86.6 51.4001C88.8 51.4001 89.8 50.1001 89.8 48.8001C89.8 47.6001 89 46.7001 87.3 46.4001L86.1 46.2001C85.6 46.1001 85.3 45.9001 85.3 45.5001C85.3 45.1001 85.8 44.7001 86.4 44.7001C87.3 44.7001 87.7 45.3001 87.8 45.8001L89.7 45.4001C89.6 44.6001 88.8 43.1001 86.4 43.1001C84.6 43.1001 83.3 44.3001 83.3 45.7001C83.3 46.8001 84 47.7001 85.6 48.1001L86.7 48.3001C87.3 48.4001 87.6 48.7001 87.6 49.1001C87.6 49.5001 87.2 49.9001 86.5 49.9001C85.5 49.9001 85 49.3001 85 48.7001L83.2 49.0001Z" fill="#020739"/>
<path fill-rule="evenodd" clip-rule="evenodd" d="M80.9 41.6C80.9 40.8 81.5 40.2001 82.3 40.2001H82.8V38.3H81.7C80 38.3 78.7 39.6001 78.7 41.4001V43.1H77.3V45.2001H78.7V51.4001H80.9V45.2001H82.7V43.1H80.9V41.6Z" fill="#020739"/>
<path d="M76.5 43.1001C76.3 43.1001 76.2 43.1001 76 43.1001C75.3 43.1001 74.2 43.3001 73.7 44.4001V43.1001H71.5V51.4001H73.7V47.6001C73.7 45.8001 74.6 45.2001 75.8 45.2001C76 45.2001 76.5 45.2001 76.5 45.2001V43.1001Z" fill="#020739"/>
<path d="M68.1999 51.4H70.1999V49.9V43.1H68V47.9C68 48.9 67.4 49.3 66.4 49.3C65.4 49.3 64.9 48.6 64.9 47.6V43H62.7V48C62.7 49.8 63.8 51.3 65.8 51.3C66.7 51.3 67.5999 51.2 68.0999 50.4L68.1999 51.4Z" fill="#020739"/>
<path d="M61.7001 41.5C61.4001 40.1 60.2001 38.3 57.2001 38.3C54.8001 38.3 52.8 40.0001 52.8 42.2001C52.8 44.1001 54.1 45.3001 56.1 45.7001L57.9001 46C58.9001 46.2 59.4001 47.0001 59.4001 47.7001C59.4001 48.6 58.7001 49.2001 57.4001 49.2001C55.6001 49.2001 54.7 48.1001 54.6 46.9001L52.3 47.5C52.5 49.3 54 51.4001 57.3 51.4001C60.2 51.4001 61.9001 49.5 61.9001 47.6C61.9001 45.9 60.7001 44.2001 58.4001 43.7001L56.6 43.4001C55.7 43.2001 55.2001 42.7 55.2001 42C55.2001 41.2 56.0001 40.4001 57.2001 40.4001C58.8001 40.4001 59.4 41.5 59.5 42.1L61.7001 41.5Z" fill="#020739"/>
<path d="M47.1 38C47.1 37.8 47.1 37.6 47.1 37.3C47.1 36.9 47 36.4 47 36C47 35.7 46.9 35.5 46.8 35.3C46.3 34.3 45.5 33.8 44.5 33.6C44.1 33.5 43.6 33.5 43 33.5H42.9H37.6C34.2 33.7 32.7 35.7 32.3 36.7C30.8 41.2 29.9 47.1 29.2 51.3C29.2 51.4 29.2 51.5 29.2 51.5L29 53.5C29 53.8 29 54.2 29.1 54.5C29.5 55.7 30.8 56.8 33.6 55.7C36.3 54.5 39.4 53.1 42.6 51.5C44.4 50.4 47.2 48 47.3 44.9C47.3 42.7 47.2 40.3 47.1 38ZM42.8 39.6C42.8 39.7 42.7 39.9 42.7 39.9C42.6 40 42.5 40 42.4 40H42.3C42 40 41.7 40.1 41.4 40.2C41.3 40.2 41.3 40.2 41.2 40.3C41.1 40.3 41.1 40.4 41 40.4C40.9 40.4 40.9 40.5 40.8 40.5C40.8 40.5 40.7 40.5 40.7 40.6C40.4 40.8 40.1 41.1 39.9 41.4C39.8 41.5 39.8 41.6 39.7 41.8C39.7 41.8 39.7 41.9 39.6 41.9C39.5 42.1 39.4 42.3 39.4 42.6V42.7C39.4 42.8 39.4 42.9 39.4 43V44.8C39.4 45.1 39.4 45.4 39.3 45.7C39.3 45.8 39.3 46 39.2 46.1C39.2 46.2 39.1 46.4 39.1 46.5C39.1 46.6 39 46.7 39 46.8C39 46.9 38.9 47 38.9 47.1C38.8 47.2 38.8 47.3 38.7 47.4C38.6 47.5 38.6 47.6 38.5 47.8C38.4 47.9 38.3 48.1 38.2 48.2C37.9 48.6 37.5 49 37 49.2C36.8 49.3 36.6 49.5 36.3 49.6C35.6 49.9 34.8 50.1 34 50.1C33.8 50.1 33.6 50 33.6 49.8C33.6 49.7 33.6 49.7 33.6 49.6V48.1C33.6 47.9 33.7 47.7 33.9 47.6H34C34.2 47.6 34.4 47.6 34.5 47.5H34.6C34.7 47.5 34.7 47.5 34.8 47.4C35.8 47.1 36.5 46.3 36.8 45.3C36.9 45.1 36.9 44.9 36.9 44.6V42.8C36.9 42.4 37 41.9 37.1 41.5V41.4C37.2 41.2 37.2 41 37.3 40.8C38.1 38.8 40 37.4 42.3 37.4C42.5 37.4 42.6 37.5 42.7 37.6C42.7 37.6 42.7 37.6 42.7 37.7C42.7 37.8 42.7 37.8 42.7 37.9V39.6H42.8Z" fill="#020739"/>
<path d="M36.9001 43.1C36.9001 42.7 37 42.2 37.1 41.8C37 42.2 36.9001 42.7 36.9001 43.1V44.9001C36.9001 45.1001 36.9 45.4 36.8 45.6C36.9 45.4 36.9001 45.2001 36.9001 44.9001V43.1Z" fill="#020739"/>
<path d="M39.2999 45.7C39.2999 45.8 39.3 45.9999 39.2 46.0999C39.3 45.9999 39.2999 45.8 39.2999 45.7Z" fill="#020739"/>
<path d="M39.9 41.3999C39.8 41.4999 39.8 41.5999 39.7 41.7999C39.8 41.6999 39.8 41.4999 39.9 41.3999Z" fill="#020739"/>
<path d="M40.9 40.5C40.8 40.5 40.8 40.6 40.7 40.6C40.8 40.6 40.9 40.5 40.9 40.5Z" fill="#020739"/>
<path d="M41.3001 40.3C41.2001 40.3 41.2001 40.3001 41.1001 40.4001C41.2001 40.4001 41.2001 40.3 41.3001 40.3Z" fill="#020739"/>
<path d="M42.7999 38.2V39.7C42.7999 39.8 42.7 40 42.7 40C42.8 39.9 42.7999 39.8 42.7999 39.7V38.2C42.7999 38.1 42.7999 38.1 42.7999 38C42.7999 38 42.7999 38.1 42.7999 38.2Z" fill="#020739"/>
<path d="M39.5999 41.8999C39.4999 42.0999 39.3999 42.2999 39.3999 42.5999C39.4999 42.3999 39.4999 42.0999 39.5999 41.8999Z" fill="#020739"/>
<path d="M34.4999 47.8C34.2999 47.8 34.0999 47.9001 33.9999 47.9001C33.8999 47.9001 33.8999 47.9001 33.8999 47.9001H33.9999C34.1999 47.8001 34.3999 47.8 34.4999 47.8Z" fill="#020739"/>
<path d="M37.1001 41.7001C37.2001 41.5001 37.2001 41.3001 37.3001 41.1001C37.2001 41.3001 37.2001 41.5001 37.1001 41.7001Z" fill="#020739"/>
<path d="M34.7 47.7001C34.8 47.7001 34.8 47.7001 34.9 47.6001C34.8 47.7001 34.7 47.7001 34.7 47.7001Z" fill="#020739"/>
<path d="M42.7001 37.9C42.6001 37.8 42.5 37.7 42.3 37.7C42.5 37.7 42.6001 37.8 42.7001 37.9Z" fill="#020739"/>
<path d="M39.1 46.5C39.1 46.6 39 46.7 39 46.8C39.1 46.7 39.1 46.6 39.1 46.5Z" fill="#020739"/>
<path d="M38.9 47.2C38.8 47.3 38.8 47.4 38.7 47.5C38.8 47.4 38.8 47.3 38.9 47.2Z" fill="#020739"/>
<path d="M39.8999 41.4001C40.0999 41.1001 40.3999 40.8001 40.6999 40.6001C40.3999 40.9001 40.0999 41.1001 39.8999 41.4001Z" fill="#020739"/>
<path d="M37 49.3C37.4 49 37.8 48.7 38.2 48.3C37.8 48.7 37.5 49 37 49.3Z" fill="#020739"/>
<path d="M37 49.3C36.8 49.4 36.6 49.6001 36.3 49.7001C36.6 49.6001 36.8 49.5 37 49.3Z" fill="#020739"/>
<path d="M33.6001 50C33.7001 50.2 33.8001 50.3 34.0001 50.3C34.8001 50.3 35.6001 50.1 36.3001 49.8C35.6001 50.1 34.8001 50.3 34.0001 50.3C33.8001 50.2 33.6001 50.1 33.6001 50Z" fill="#020739"/>
</g>
<defs>
<clipPath id="clip0_442_64">
<rect width="142.4" height="78.1" fill="white"/>
</clipPath>
</defs>
</svg>
