<svg width="143" height="79" viewBox="0 0 143 79" fill="none" xmlns="http://www.w3.org/2000/svg">
<g clip-path="url(#clip0_443_96)">
<path d="M137.6 77.3H18.8C16.6 77.3 14.8 75.5 14.8 73.3V14.7C14.8 12.5 16.6 10.7 18.8 10.7H137.7C139.9 10.7 141.7 12.5 141.7 14.7V73.4C141.6 75.6 139.8 77.3 137.6 77.3Z" fill="white" stroke="#020739" stroke-width="1.5" stroke-miterlimit="10" stroke-linecap="round" stroke-linejoin="round"/>
<path d="M19 9.29999L28.8 10.4L22 17.5L24.1 27L15.2 22.8L6.80005 27.7L8.00005 18L0.800049 11.5L10.4 9.69999L14.3 0.799988L19 9.29999Z" fill="#16DFB5" stroke="#020739" stroke-width="1.5" stroke-miterlimit="10" stroke-linecap="round" stroke-linejoin="round"/>
<path d="M40.9001 31.2C37.5001 31.2 34.7001 34 34.7001 37.4V39.7C33.5001 39.9 32.3 40.2 32.3 40.6V52.8C32.3 52.8 32.3001 53.1 32.7001 53.3C34.1001 53.9 39.5001 55.8 40.7001 56.2C40.9001 56.3 40.9001 56.3 40.9001 56.3C41.0001 56.3 41 56.3 41.1 56.2C42.3 55.8 47.8 53.9 49.1 53.3C49.5 53.2 49.5 52.8 49.5 52.8V40.6C49.5 40.2 48.3 39.9 47.1 39.7V37.4C47.2 34 44.4001 31.2 40.9001 31.2ZM40.9001 34.1C42.9001 34.1 44.2001 35.3 44.2001 37.4V39.4C41.9001 39.2 40.0001 39.2 37.7001 39.4V37.4C37.7001 35.4 38.9001 34.1 40.9001 34.1ZM40.9001 42.4C43.7001 42.4 46.1 42.6 46.1 43V50.6C46.1 50.7 46.1 50.7 46 50.8C45.9 50.8 41.2001 52.6 41.2001 52.6L41 52.7C40.9 52.7 40.8 52.6 40.8 52.6C40.8 52.6 36.1 50.9 36 50.8C35.9 50.7 35.9001 50.7 35.9001 50.6V43C35.7001 42.6 38.1001 42.4 40.9001 42.4Z" fill="#020739"/>
<path d="M57.6251 50.7103V42.3953H54.5667V39.4325H64.0286V42.3953H60.9702V50.7103H57.6251Z" fill="#020739"/>
<path d="M72.1526 50.7103L70.6234 47.1741H69.3809V50.7103H65.9402V39.4325H71.9614C74.6375 39.4325 76.0711 41.1529 76.0711 43.3511C76.0711 45.2626 74.9242 46.3139 74.0641 46.7918L76.0711 50.8059L72.1526 50.7103ZM72.6304 43.3511C72.6304 42.7776 72.057 42.4909 71.4835 42.4909H69.3809V44.3068H71.4835C72.057 44.2113 72.6304 43.9245 72.6304 43.3511Z" fill="#020739"/>
<path d="M78.4604 50.7103V39.4325H87.0622V42.3953H81.8056V43.5422H86.871V46.505H81.8056V47.7475H86.9666V50.7103H78.4604Z" fill="#020739"/>
<path d="M89.5471 50.7103V48.0342L93.848 42.3953H89.5471V39.4325H98.34V42.1086L94.0391 47.7475H98.5312V50.7103H89.5471Z" fill="#020739"/>
<path d="M100.06 45.0714C100.06 41.6307 102.736 39.2413 106.273 39.2413C109.713 39.2413 112.485 41.6307 112.485 45.0714C112.485 48.5121 109.809 50.9015 106.273 50.9015C102.736 50.9015 100.06 48.6077 100.06 45.0714ZM108.949 45.0714C108.949 43.4466 107.897 42.2042 106.273 42.2042C104.648 42.2042 103.597 43.4466 103.597 45.0714C103.597 46.6962 104.648 47.9387 106.273 47.9387C107.897 47.9387 108.949 46.6962 108.949 45.0714Z" fill="#020739"/>
<path d="M120.227 50.7103L118.698 47.1741H117.455V50.7103H114.014V39.4325H120.036C122.712 39.4325 124.145 41.1529 124.145 43.3511C124.145 45.2626 122.998 46.3139 122.138 46.7918L124.145 50.8059L120.227 50.7103ZM120.609 43.2555C120.609 42.682 120.036 42.3953 119.462 42.3953H117.36V44.2112H119.462C120.131 44.2112 120.609 43.9245 120.609 43.2555Z" fill="#020739"/>
</g>
<defs>
<clipPath id="clip0_443_96">
<rect width="142.4" height="78.1" fill="white"/>
</clipPath>
</defs>
</svg>
