<svg xmlns="http://www.w3.org/2000/svg" viewBox="0 0 310.88 264.38"><defs><style>.cls-2{fill:#2b00bc}.cls-3{fill:#e9f6ff}</style></defs><g id="Layer_2" data-name="Layer 2"><g id="Layer_1-2" data-name="Layer 1"><rect width="310.88" height="264.38" rx="17.98" style="fill:#5022ed"/><path class="cls-2" d="M18.16 0h274.56a18.16 18.16 0 0 1 18.16 18.16v24.58a14.63 14.63 0 0 1-14.63 14.63H14.63A14.63 14.63 0 0 1 0 42.74V18.16A18.16 18.16 0 0 1 18.16 0z"/><rect class="cls-3" x="18.87" y="19.65" width="238.74" height="18.78" rx="3.68"/><circle class="cls-3" cx="283.26" cy="29.68" r="9.75"/><g id="Group_3369" data-name="Group 3369"><path id="Path_6164" data-name="Path 6164" class="cls-2" d="M89.73 174.18v-69.87a6 6 0 0 1 3.6-5.48l62.58-27.21a6 6 0 0 1 4.79 0l62.59 27.21a6 6 0 0 1 3.59 5.48v69.86a67.08 67.08 0 0 1-37.38 60.1l-26.45 13.1a10.76 10.76 0 0 1-9.52 0l-26.45-13.1a67.09 67.09 0 0 1-37.35-60.09z"/></g><path class="cls-3" d="M186.73 122.21v7.88a4.75 4.75 0 0 1-9.49 0v-7.88a17.19 17.19 0 0 0-.09-1.77 18.84 18.84 0 0 0-37.51 0 17.21 17.21 0 0 0-.08 1.77v7.88a4.75 4.75 0 0 1-9.49 0v-7.88c0-.6 0-1.18.05-1.77a28.33 28.33 0 0 1 56.55 0c.04.56.06 1.17.06 1.77z"/><rect class="cls-3" x="125.26" y="130.09" width="65.8" height="49.35" rx="8.35"/><path class="cls-3" d="M191.05 174.59v.41a4.42 4.42 0 0 1-4.42 4.43h-56.94a4.43 4.43 0 0 1-4.43-4.43v-40.48a4.43 4.43 0 0 1 4.43-4.43h.63v40.07a4.43 4.43 0 0 0 4.43 4.43z"/><path class="cls-2" d="M165.84 148.82c0-3.92-3.74-7.07-8.24-6.82-3.85.22-7 3-7.21 6.39a6.31 6.31 0 0 0 1.94 5 2.68 2.68 0 0 1 .81 2.13l-.88 10.42a1.92 1.92 0 0 0 2 1.94h7.62a1.91 1.91 0 0 0 2-1.94l-.88-10.42a2.7 2.7 0 0 1 .81-2.12 6.38 6.38 0 0 0 2.03-4.58z"/><path class="cls-3" d="M139.64 120.44a17.21 17.21 0 0 0-.08 1.77v7.88h-9.49v-7.88c0-.6 0-1.18.05-1.77zm47.09 1.77v7.88h-9.49v-7.88a17.19 17.19 0 0 0-.09-1.77h9.52c.04.56.06 1.17.06 1.77zM126 192.41l6 13.14 5.92-13.14h5.82l-9.92 20.53h-3.65l-9.92-20.53zm31.09 0a9.59 9.59 0 0 1 6.13 1.69 5.92 5.92 0 0 1 2.28 5 6.18 6.18 0 0 1-2 4.83 8.68 8.68 0 0 1-5.95 1.81h-3.3v7.21h-5.4v-20.54zm-2.84 9.45h1.93a4.56 4.56 0 0 0 2.91-.77 2.69 2.69 0 0 0 .87-2 2.57 2.57 0 0 0-.87-2 4.7 4.7 0 0 0-3-.76h-1.82zm17.11 11.08v-20.53h4.69l12.69 13.23v-13.23h5.4v20.53h-4.7l-12.68-13.3v13.3z"/></g></g></svg>