<svg xmlns="http://www.w3.org/2000/svg" viewBox="0 0 460.81 512.52"><defs><style>.cls-1{fill:#2b00bc}</style></defs><g id="Layer_2" data-name="Layer 2"><g id="Layer_1-2" data-name="Layer 1"><path class="cls-1" d="M76 148.19a149.27 149.27 0 0 1 3.2-30.7h-33A46.12 46.12 0 0 0 0 162.48c.28 2 2.92 17 21.14 26.49 12.15 6.35 31.85 6.28 41.16 6.28h21.37A147.74 147.74 0 0 1 76 148.19zm319-30.7h-25.84a148.46 148.46 0 0 1-4.47 77.76h50a45.91 45.91 0 0 1 26.48 8.35v-40A46.12 46.12 0 0 0 395 117.49z"/><path d="M364.69 195.25a148.19 148.19 0 1 0-281 0z" style="fill:#ffbe1b"/><path d="M325 195.25a111.23 111.23 0 1 0-201.58 0z" style="fill:#ffe37b"/><path d="M173.38 181.76v13.49h90.34a22.66 22.66 0 0 0 3.52-3.15 29 29 0 0 0 7.76-19.92q0-10.18-6-17.07a28.51 28.51 0 0 0-16-9c1.84-.8 3.14-1.39 3.86-1.76a28.73 28.73 0 0 0 3.86-2.71q8.19-6.17 8.19-18.83a27.94 27.94 0 0 0-7.22-18.81q-4-4.49-12-7.11a41.21 41.21 0 0 0-5-1.3V81.81h-18.95v12.42h-12.69V81.81h-19v12.42h-20.67v20.37h15.44v67.16zm39.53-67.16h11.57c7.11 0 12.14.77 15.14 2.32s4.47 4.7 4.47 9.5-1.62 7.89-4.87 9.32-8.2 2.17-14.89 2.17h-11.42zm0 42.3h14.19q12 0 17.52 2.39c3.66 1.59 5.48 4.9 5.48 9.89s-1.72 8.33-5.17 10-8.61 2.55-15.51 2.55h-16.51z" style="fill:#fff"/><path d="M414.67 512.52H46.14A46.15 46.15 0 0 1 0 466.39V162.25s1.63 16.5 21.17 26.75c12.15 6.35 31.85 6.28 41.16 6.28h352.34a46.12 46.12 0 0 1 46.14 46.11v225a46.13 46.13 0 0 1-46.14 46.13z" style="fill:#5022ed"/><path class="cls-1" d="M336.18 402.47a20.67 20.67 0 0 1-20.68-20.67v-56.88a20.67 20.67 0 0 1 20.68-20.67h124.63v98.22z"/><path d="M376.1 353.36a20.52 20.52 0 1 1-20.51-20.52 20.52 20.52 0 0 1 20.51 20.52z" style="fill:#e9f6ff"/></g></g></svg>