<svg width="22" height="22" fill="none" xmlns="http://www.w3.org/2000/svg"><g clip-path="url(#clip0)" fill="#5022ED"><path d="M17.527 2.706a9.225 9.225 0 00-13.054 0 9.225 9.225 0 000 13.053l6.04 6.039c.269.27.705.27.975 0l6.039-6.039a9.225 9.225 0 000-13.053zm-.976 12.077L11 20.334l-5.551-5.55c-3.061-3.062-3.061-8.042 0-11.103 3.06-3.06 8.041-3.06 11.102 0 3.06 3.061 3.06 8.042 0 11.102z"/><path d="M11 5.106a4.124 4.124 0 00-4.126 4.127A4.124 4.124 0 0011 13.359a4.124 4.124 0 004.126-4.126A4.124 4.124 0 0011 5.106zm1.942 6.069c-.026 0-.677.804-1.942.804a2.745 2.745 0 01-2.746-2.746A2.745 2.745 0 0111 6.486c2.466 0 3.65 2.98 1.942 4.689z"/></g><defs><clipPath id="clip0"><path fill="#fff" d="M0 0h22v22H0z"/></clipPath></defs></svg>