<svg width="22" height="22" viewBox="0 0 22 22" fill="none" xmlns="http://www.w3.org/2000/svg">
<g clip-path="url(#clip0)">
<path d="M17.5268 2.70567C13.9196 -0.901534 8.08097 -0.901922 4.47337 2.70567C0.866253 6.31275 0.865692 12.1515 4.47337 15.7591L10.5123 21.798C10.7817 22.0675 11.2185 22.0674 11.4879 21.798L17.5268 15.7591C21.1339 12.152 21.1345 6.31331 17.5268 2.70567ZM16.5512 14.7835L11.0001 20.3346L5.44901 14.7835C2.38816 11.7227 2.38816 6.74221 5.44901 3.68136C8.50991 0.620548 13.4902 0.620462 16.5512 3.68136C19.612 6.74217 19.612 11.7226 16.5512 14.7835Z" fill="#11193B"/>
<path d="M10.9997 5.10608C8.71925 5.10608 6.87347 6.95147 6.87347 9.23226C6.87347 11.5127 8.71895 13.3584 10.9997 13.3584C13.2802 13.3584 15.1259 11.513 15.1259 9.23226C15.1259 6.95185 13.2805 5.10608 10.9997 5.10608ZM12.9417 11.1743C12.9153 11.1743 12.265 11.9787 10.9997 11.9787C9.4818 11.9787 8.25327 10.7503 8.25327 9.23226C8.25327 7.7144 9.48162 6.48587 10.9997 6.48587C13.4654 6.48587 14.6506 9.46545 12.9417 11.1743Z" fill="#11193B"/>
</g>
<defs>
<clipPath id="clip0">
<rect width="22" height="22" fill="white"/>
</clipPath>
</defs>
</svg>
