<svg width="142" height="142" viewBox="0 0 142 142" fill="none" xmlns="http://www.w3.org/2000/svg">
<g clip-path="url(#clip0)">
<path d="M3.29416 71.71L0.0620117 73.5923C0.0826513 74.162 0.107419 74.7316 0.140442 75.2972C0.181721 75.9741 0.235384 76.6511 0.293175 77.324V77.4808C0.350965 78.0918 0.412884 78.6986 0.483058 79.3054C0.483058 79.4003 0.503698 79.4952 0.516081 79.5902C0.586256 80.1681 0.660558 80.7419 0.743116 81.3115C0.743116 81.4147 0.772012 81.5179 0.788523 81.6211C0.887593 82.2857 0.994919 82.9421 1.1105 83.5984C1.20544 84.1226 1.30451 84.6386 1.41184 85.1546C1.44899 85.3486 1.49027 85.5344 1.53155 85.7243C1.60172 86.0669 1.67602 86.4095 1.75445 86.748C1.79986 86.9585 1.8494 87.1608 1.89893 87.3754C1.97736 87.7015 2.05579 88.0276 2.13835 88.3537C2.18788 88.556 2.23742 88.7665 2.29108 88.9564C2.38602 89.3279 2.48509 89.6953 2.58829 90.0627L2.71213 90.5085C2.8566 91.0121 3.00521 91.5075 3.15794 92.0028C3.20748 92.1762 3.26527 92.3413 3.31893 92.5105C3.42626 92.8532 3.53771 93.1916 3.64916 93.5301C3.71521 93.7283 3.78538 93.9429 3.85556 94.1328C3.96288 94.4424 4.07021 94.7479 4.18166 95.0575L4.39631 95.656C4.52015 95.9821 4.64399 96.3082 4.77195 96.6343C4.838 96.8036 4.89992 96.9769 4.96597 97.1462C5.15585 97.625 5.34986 98.0997 5.548 98.5703C5.60992 98.7065 5.66771 98.8428 5.72963 98.9831C5.87823 99.3298 6.02684 99.6766 6.1837 100.019C6.26626 100.209 6.35707 100.399 6.44376 100.589C6.57585 100.881 6.71345 101.174 6.85655 101.468C6.94736 101.662 7.0423 101.856 7.13724 102.05C7.28172 102.347 7.43033 102.64 7.57893 102.938L7.84312 103.466C8.05364 103.879 8.25591 104.292 8.47881 104.667L8.69759 105.08C8.90399 105.456 9.11038 105.827 9.32091 106.199L9.62637 106.723C9.79149 107.004 9.95248 107.28 10.1217 107.549C10.2332 107.734 10.3446 107.92 10.4602 108.106C10.6253 108.378 10.7946 108.647 10.9638 108.931C11.0753 109.109 11.1867 109.286 11.3023 109.46C11.5032 109.776 11.7096 110.09 11.9215 110.401L12.1609 110.768C12.4457 111.181 12.7306 111.594 13.0236 112.007L13.3621 112.477C13.552 112.746 13.746 113.01 13.9442 113.274C14.0721 113.451 14.2042 113.625 14.3322 113.798L14.9225 114.516C15.0546 114.69 15.1867 114.859 15.3353 115.028L15.9379 115.808L16.2847 116.221C16.6025 116.609 16.9245 116.989 17.2506 117.369L17.6015 117.782C17.8285 118.042 18.0556 118.298 18.2867 118.554C18.4312 118.715 18.5757 118.871 18.7243 119.028C18.9307 119.259 19.1371 119.486 19.3558 119.709C19.5045 119.87 19.6572 120.027 19.8099 120.188C20.0328 120.419 20.2557 120.65 20.4828 120.878L20.8956 121.29C21.2506 121.645 21.6056 121.992 21.9688 122.339C22.5178 122.867 23.0833 123.379 23.653 123.891L23.9626 124.167C24.5033 124.646 25.0565 125.117 25.6138 125.583L25.6757 125.637C26.2123 126.091 26.7558 126.53 27.3062 126.954C27.9378 127.445 28.5735 127.924 29.2215 128.394L29.4692 128.576C30.0389 128.989 30.6168 129.402 31.2029 129.786L31.4795 129.975C31.7685 130.174 32.0657 130.363 32.3588 130.557L32.5445 130.681L33.2669 131.135L33.8118 131.478L34.5383 131.92L35.1038 132.254L36.1275 132.844L36.9531 133.307L37.6714 133.691L38.2906 134.017C38.53 134.145 38.7694 134.268 39.0129 134.388L39.6734 134.714C39.9417 134.85 40.2142 134.983 40.499 135.127C40.8581 135.3 41.2255 135.474 41.5888 135.639L42.2699 135.944L42.9922 136.258L43.6857 136.551L44.4783 136.877L45.0975 137.125C45.5295 137.296 45.963 137.461 46.3978 137.62L47.0335 137.847C47.3142 137.951 47.5907 138.05 47.859 138.145L48.5071 138.363L49.4648 138.677L49.9767 138.838C50.439 138.983 50.9013 139.119 51.3678 139.251L51.9498 139.412L52.9075 139.672L53.5019 139.825C53.8817 139.92 54.2614 140.015 54.6412 140.101L55.0251 140.196C55.5163 140.308 56.0117 140.415 56.507 140.518L57.0313 140.621C57.3904 140.696 57.7454 140.762 58.1045 140.828L58.6453 140.927C59.087 141.005 59.5286 141.075 59.9703 141.146L60.218 141.187C60.734 141.265 61.2541 141.335 61.7783 141.401C61.9393 141.426 62.1045 141.443 62.2696 141.463C62.6535 141.513 63.0415 141.554 63.4295 141.595L63.9331 141.649C64.4285 141.699 64.9279 141.744 65.4315 141.781H65.5471C66.0838 141.818 66.6245 141.851 67.1653 141.88C67.3221 141.88 67.4831 141.88 67.6441 141.905L68.8577 141.95H69.3448C69.8938 141.95 70.4428 141.971 70.996 141.971C71.5491 141.971 72.0486 141.971 72.5728 141.95H73.2003L74.0878 141.917C74.7441 141.889 75.3963 141.856 76.0444 141.81H76.127C77.7203 141.699 79.2972 141.529 80.8575 141.315L81.0804 141.282C83.4196 140.949 85.7216 140.504 87.9864 139.948L88.0979 139.92C88.7418 139.757 89.3817 139.588 90.0174 139.412L90.6118 139.243C91.0576 139.115 91.5034 138.983 91.9451 138.83L92.5973 138.623C93.0101 138.487 93.46 138.347 93.8893 138.211L94.4961 138.004L94.8594 137.88L95.0286 137.818C95.4414 137.67 95.8542 137.517 96.267 137.36L96.5064 137.269L97.6581 136.811L97.9594 136.687C98.3365 136.536 98.7121 136.379 99.0864 136.217L99.3506 136.101L100.519 135.577L100.795 135.445C101.439 135.148 102.078 134.842 102.711 134.529C103.256 134.256 103.792 133.967 104.333 133.678C105.406 133.104 106.475 132.518 107.516 131.891C109.607 130.634 111.633 129.27 113.584 127.804C114.748 126.933 115.879 126.021 116.985 125.08L117.286 124.824C117.571 124.58 117.852 124.333 118.112 124.085L118.492 123.751L119.288 123.016L119.701 122.648C119.965 122.405 120.221 122.153 120.477 121.905L120.865 121.526C121.121 121.274 121.377 121.018 121.629 120.762L121.996 120.386C122.252 120.122 122.504 119.854 122.756 119.585L123.09 119.226C123.35 118.95 123.606 118.669 123.858 118.401L124.151 118.071C124.415 117.773 124.675 117.476 124.935 117.175C125.01 117.084 125.084 116.993 125.162 116.906C125.435 116.58 125.711 116.254 125.988 115.92C126.021 115.879 126.058 115.829 126.095 115.788C127.721 113.793 129.237 111.71 130.636 109.551C130.892 109.138 131.144 108.754 131.391 108.353C131.449 108.263 131.507 108.176 131.561 108.085L131.395 107.99L124.791 104.184L121.951 102.533L113.579 97.6993L110.314 95.817L109.361 95.268L108.737 94.9089L94.847 86.8883L93.6086 86.1742L88.9028 83.4622L76.1063 76.0773L35.8303 52.8042L3.29416 71.71Z" fill="#5A3AF9"/>
<path d="M56.8455 108.044L56.8125 108.023L56.8455 108.044Z" fill="#5A3AF9"/>
<path d="M139.172 51.0952C139.234 51.3057 139.296 51.508 139.354 51.7227C139.292 51.5121 139.23 51.3057 139.172 51.0952Z" fill="#E9F6FF"/>
<path d="M138.681 49.4937L138.892 50.1624L138.681 49.4937Z" fill="#E9F6FF"/>
<path d="M138.169 47.9414L138.392 48.606L138.169 47.9414Z" fill="#E9F6FF"/>
<path d="M133.393 37.0605L133.666 37.5724L133.393 37.0605Z" fill="#E9F6FF"/>
<path d="M140.324 55.6235C140.44 56.1437 140.551 56.6679 140.654 57.1963C140.551 56.6679 140.44 56.1437 140.324 55.6235Z" fill="#E9F6FF"/>
<path d="M137.628 46.4141L137.851 47.0374L137.628 46.4141Z" fill="#E9F6FF"/>
<path d="M141.438 62.0342C141.525 62.707 141.595 63.384 141.661 64.0651C141.595 63.384 141.525 62.707 141.438 62.0342Z" fill="#E9F6FF"/>
<path d="M134.846 39.9087C134.945 40.1151 135.048 40.3215 135.148 40.5361C135.044 40.3256 134.945 40.1151 134.846 39.9087Z" fill="#E9F6FF"/>
<path d="M134.128 38.4722C134.231 38.6703 134.33 38.885 134.429 39.0748C134.33 38.8726 134.219 38.6703 134.128 38.4722Z" fill="#E9F6FF"/>
<path d="M135.54 41.3779L135.825 41.9971L135.54 41.3779Z" fill="#E9F6FF"/>
<path d="M137.055 44.9116L137.224 45.3574L137.055 44.9116Z" fill="#E9F6FF"/>
<path d="M136.229 42.918L136.464 43.467L136.229 42.918Z" fill="#E9F6FF"/>
<path d="M140.729 57.605C140.836 58.1705 140.939 58.7319 141.034 59.3015C140.939 58.7154 140.823 58.154 140.729 57.605Z" fill="#E9F6FF"/>
<path d="M141.711 64.6226C141.756 65.122 141.798 65.6256 141.831 66.1292C141.798 65.6298 141.756 65.1262 141.711 64.6226Z" fill="#E9F6FF"/>
<path d="M141.872 66.8062C141.901 67.2974 141.926 67.7927 141.942 68.2881C141.926 67.7927 141.901 67.2974 141.872 66.8062Z" fill="#E9F6FF"/>
<path d="M141.967 68.9111C141.987 69.6046 142 70.2981 142 70.9999C142 70.2981 141.987 69.6046 141.967 68.9111Z" fill="#E9F6FF"/>
<path d="M142 71C142 71.7224 142 72.4406 141.967 73.1589C141.987 72.4406 142 71.7224 142 71Z" fill="#E9F6FF"/>
<path d="M113.848 97.1504L113.596 96.9771L113.848 97.1504Z" fill="#E9F6FF"/>
<path d="M117.294 17.1514L117.782 17.5642L117.294 17.1514Z" fill="#E9F6FF"/>
<path d="M114.673 15.0176L114.855 15.1579L114.673 15.0176Z" fill="#E9F6FF"/>
<path d="M132.382 35.3145C132.46 35.4548 132.543 35.591 132.625 35.7272C132.543 35.5745 132.46 35.4383 132.382 35.3145Z" fill="#E9F6FF"/>
<path d="M116.056 16.1318C116.205 16.2515 116.345 16.3713 116.49 16.4951C116.353 16.3713 116.213 16.2515 116.056 16.1318Z" fill="#E9F6FF"/>
<path d="M111.792 12.8833L112.308 13.2466L111.792 12.8833Z" fill="#E9F6FF"/>
<path d="M101.608 6.91016L102.157 7.17434L101.608 6.91016Z" fill="#E9F6FF"/>
<path d="M118.479 18.2124L118.945 18.65L118.479 18.2124Z" fill="#E9F6FF"/>
<path d="M104.498 8.37988L105.031 8.66884L104.498 8.37988Z" fill="#E9F6FF"/>
<path d="M119.672 19.3105L120.126 19.7233L119.672 19.3105Z" fill="#E9F6FF"/>
<path d="M110.463 11.9668L110.991 12.3259L110.463 11.9668Z" fill="#E9F6FF"/>
<path d="M105.997 9.21338L106.409 9.44867L105.997 9.21338Z" fill="#E9F6FF"/>
<path d="M107.775 10.2539C107.883 10.3158 107.986 10.386 108.093 10.452C107.986 10.386 107.883 10.3158 107.775 10.2539Z" fill="#E9F6FF"/>
<path d="M109.125 11.0957L109.621 11.4136L109.125 11.0957Z" fill="#E9F6FF"/>
<path d="M113.133 13.8491L113.591 14.1876L113.133 13.8491Z" fill="#E9F6FF"/>
<path d="M127.837 28.4453L128.069 28.7549L127.837 28.4453Z" fill="#E9F6FF"/>
<path d="M129.719 31.0791C129.847 31.2607 129.971 31.4506 130.095 31.6364C129.971 31.4506 129.847 31.2607 129.719 31.0791Z" fill="#E9F6FF"/>
<path d="M120.911 20.5073L121.257 20.8458L120.911 20.5073Z" fill="#E9F6FF"/>
<path d="M130.607 32.4248L130.974 32.9945L130.607 32.4248Z" fill="#E9F6FF"/>
<path d="M131.478 33.791C131.589 33.9726 131.705 34.1543 131.817 34.34C131.705 34.1543 131.589 33.9726 131.478 33.791Z" fill="#E9F6FF"/>
<path d="M128.812 29.7749C128.931 29.94 129.047 30.1093 129.167 30.2785C129.047 30.1093 128.931 29.9483 128.812 29.7749Z" fill="#E9F6FF"/>
<path d="M122.343 21.9565L122.681 22.3198L122.343 21.9565Z" fill="#E9F6FF"/>
<path d="M126.57 26.8066L126.937 27.2648L126.57 26.8066Z" fill="#E9F6FF"/>
<path d="M123.42 23.1118C123.565 23.2687 123.705 23.4297 123.833 23.5865C123.705 23.4297 123.565 23.2687 123.42 23.1118Z" fill="#E9F6FF"/>
<path d="M124.477 24.3008C124.626 24.4659 124.77 24.6351 124.915 24.8044C124.77 24.6351 124.626 24.4659 124.477 24.3008Z" fill="#E9F6FF"/>
<path d="M125.521 25.5229L125.934 26.0266L125.521 25.5229Z" fill="#E9F6FF"/>
<path d="M103.037 7.62402L103.598 7.90885L103.037 7.62402Z" fill="#E9F6FF"/>
<path d="M132.869 105.852C132.7 106.149 132.531 106.446 132.357 106.739C132.531 106.446 132.7 106.149 132.869 105.852Z" fill="#E9F6FF"/>
<path d="M133.599 104.523L133.129 105.382L133.599 104.523Z" fill="#E9F6FF"/>
<path d="M134.318 103.152L133.868 104.015L134.318 103.152Z" fill="#E9F6FF"/>
<path d="M132.155 107.111C131.965 107.433 131.771 107.755 131.577 108.073C131.742 107.755 131.949 107.433 132.155 107.111Z" fill="#E9F6FF"/>
<path d="M138.611 92.7251C138.438 93.2659 138.256 93.8025 138.07 94.3391C138.256 93.8025 138.438 93.2659 138.611 92.7251Z" fill="#E9F6FF"/>
<path d="M140.621 84.9854C140.505 85.5591 140.382 86.1288 140.258 86.6943C140.386 86.1288 140.505 85.5591 140.621 84.9854Z" fill="#E9F6FF"/>
<path d="M141.843 75.6851C141.81 76.1598 141.777 76.6345 141.736 77.1092C141.777 76.6345 141.81 76.1804 141.843 75.6851Z" fill="#E9F6FF"/>
<path d="M141.934 74.022C141.909 74.5297 141.885 75.0374 141.852 75.541C141.885 75.0374 141.909 74.5297 141.934 74.022Z" fill="#E9F6FF"/>
<path d="M141.715 77.3569C141.674 77.811 141.633 78.2609 141.583 78.7109C141.649 78.2444 141.674 77.8316 141.715 77.3569Z" fill="#E9F6FF"/>
<path d="M141.261 81.2622C141.079 82.4978 140.869 83.7197 140.629 84.9278C140.873 83.7183 141.079 82.4964 141.261 81.2622Z" fill="#E9F6FF"/>
<path d="M100.131 6.23291L100.581 6.43931L100.131 6.23291Z" fill="#E9F6FF"/>
<path d="M44.9653 4.92463C46.0427 4.51184 47.1284 4.09905 48.2305 3.72754C47.1201 4.09905 46.0427 4.49946 44.9653 4.92463Z" fill="#E9F6FF"/>
<path d="M29.8984 13.098C30.8286 12.4375 31.7739 11.7991 32.7343 11.1826C31.7711 11.7991 30.8258 12.4375 29.8984 13.098Z" fill="#E9F6FF"/>
<path d="M76.1143 0.181641L76.7541 0.231176L76.1143 0.181641Z" fill="#E9F6FF"/>
<path d="M25.8364 16.2101C27.1519 15.1258 28.5058 14.0884 29.8983 13.0977C28.5058 14.0884 27.1519 15.1258 25.8364 16.2101Z" fill="#E9F6FF"/>
<path d="M77.8442 0.326172L78.4345 0.383963L77.8442 0.326172Z" fill="#E9F6FF"/>
<path d="M7.00098 40.2182C7.50183 39.1835 8.0247 38.1625 8.56958 37.1553C8.0247 38.1625 7.50183 39.1835 7.00098 40.2182Z" fill="#E9F6FF"/>
<path d="M12.1279 31.302C12.7636 30.3553 13.4227 29.4265 14.1052 28.5156C13.4227 29.4293 12.7636 30.358 12.1279 31.302Z" fill="#E9F6FF"/>
<path d="M20.7964 20.7921C21.5972 19.9913 22.4228 19.207 23.2731 18.4434C22.4228 19.2153 21.5972 19.9913 20.7964 20.7921Z" fill="#E9F6FF"/>
<path d="M16.2144 25.82C17.2986 24.5046 18.4297 23.2304 19.6075 21.9976C18.4324 23.2387 17.3014 24.5128 16.2144 25.82Z" fill="#E9F6FF"/>
<path d="M5.58105 43.3637C6.031 42.2987 6.50158 41.2502 7.00106 40.2183C6.50158 41.2502 6.031 42.2987 5.58105 43.3637Z" fill="#E9F6FF"/>
<path d="M23.2607 18.4436C24.0863 17.68 24.9614 16.9328 25.8365 16.2104C24.9614 16.9328 24.1028 17.68 23.2607 18.4436Z" fill="#E9F6FF"/>
<path d="M90.4136 2.7041C90.4879 2.7041 90.558 2.74538 90.6282 2.76602C90.558 2.72887 90.4879 2.7041 90.4136 2.7041Z" fill="#E9F6FF"/>
<path d="M95.0781 4.18555L95.6643 4.4002L95.0781 4.18555Z" fill="#E9F6FF"/>
<path d="M91.9736 3.1499L92.502 3.31915L91.9736 3.1499Z" fill="#E9F6FF"/>
<path d="M93.5259 3.64893L94.1162 3.84707L93.5259 3.64893Z" fill="#E9F6FF"/>
<path d="M79.7305 0.532715L80.102 0.578122L79.7305 0.532715Z" fill="#E9F6FF"/>
<path d="M98.4009 5.48193L98.6692 5.58926L98.4009 5.48193Z" fill="#E9F6FF"/>
<path d="M96.6548 4.76807L97.1831 4.97446L96.6548 4.76807Z" fill="#E9F6FF"/>
<path d="M83.3755 1.07324L83.9658 1.1847L83.3755 1.07324Z" fill="#E9F6FF"/>
<path d="M88.3618 2.13818L88.8448 2.26202L88.3618 2.13818Z" fill="#E9F6FF"/>
<path d="M81.7407 0.804688L82.1535 0.874862L81.7407 0.804688Z" fill="#E9F6FF"/>
<path d="M85.0103 1.38281L85.6294 1.51078L85.0103 1.38281Z" fill="#E9F6FF"/>
<path d="M86.6572 1.7334C86.8554 1.77881 87.07 1.82008 87.2516 1.86962C87.0535 1.82008 86.8554 1.77881 86.6572 1.7334Z" fill="#E9F6FF"/>
<path d="M74.4097 0.0825195L75.0412 0.115543L74.4097 0.0825195Z" fill="#E9F6FF"/>
<path d="M141.438 62.03C141.335 61.2044 141.207 60.3788 141.075 59.5532C141.183 60.2096 141.282 60.87 141.368 61.5346C141.393 61.6873 141.418 61.8607 141.438 62.03Z" fill="#E9F6FF"/>
<path d="M140.233 55.2069C140.06 54.4309 139.872 53.6617 139.668 52.8994C139.705 53.0315 139.742 53.1636 139.775 53.3122C139.936 53.9273 140.089 54.5671 140.233 55.2069Z" fill="#E9F6FF"/>
<path d="M134.318 103.152C134.681 102.442 135.028 101.72 135.366 100.998C135.044 101.72 134.677 102.442 134.318 103.152Z" fill="#E9F6FF"/>
<path d="M139.42 90.0217C139.35 90.2735 139.28 90.5253 139.205 90.7729C139.015 91.4293 138.817 92.0774 138.611 92.7254C139.23 90.7991 139.769 88.8328 140.229 86.8267C140.093 87.4252 139.948 88.0238 139.796 88.6182C139.676 89.0888 139.548 89.5552 139.42 90.0217Z" fill="#E9F6FF"/>
<path d="M141.385 80.3539C141.385 80.4282 141.364 80.5025 141.356 80.5768C141.348 80.6511 141.319 80.8244 141.302 80.9442C141.393 80.2961 141.476 79.6397 141.55 78.9834C141.5 79.4375 141.447 79.8915 141.389 80.3456L141.385 80.3539Z" fill="#E9F6FF"/>
<path d="M135.367 100.993C136.38 98.8236 137.282 96.6041 138.07 94.3433C137.53 95.8912 136.944 97.4144 136.3 98.9129C136.002 99.6105 135.689 100.304 135.367 100.993Z" fill="#E9F6FF"/>
<path d="M125.071 103.098L124.696 103.049H124.807L125.071 103.098Z" fill="#E9F6FF"/>
<path d="M115.231 72.7871C115.152 72.7459 115.074 72.7046 115 72.6592L115.094 72.717L115.231 72.7871Z" fill="#E9F6FF"/>
<path d="M65.3737 41.1964C65.6819 41.2166 65.9896 41.1499 66.2617 41.004C66.5339 40.858 66.7597 40.6387 66.9135 40.3708C67.2814 39.5683 67.4512 38.6892 67.4088 37.8074V34.3028C67.4088 33.0892 67.2423 32.2031 66.9093 31.6445C66.7511 31.3769 66.522 31.1583 66.2474 31.0126C65.9728 30.8669 65.6634 30.7999 65.3531 30.8189C65.0528 30.7981 64.7526 30.8598 64.4849 30.9973C64.2171 31.1348 63.9921 31.3429 63.834 31.599C63.4522 32.3666 63.2745 33.2196 63.318 34.0758V37.6464C63.261 38.5617 63.4282 39.4771 63.8051 40.3131C63.9531 40.5963 64.18 40.8305 64.4585 40.9873C64.7369 41.1441 65.0548 41.2168 65.3737 41.1964Z" fill="#E9F6FF"/>
<path d="M3.29001 71.7058L35.8262 52.8L76.1269 76.0649V66.6244L94.8594 55.8093L108.762 63.838V63.739C108.874 60.705 110.925 57.704 114.871 55.413C115.099 55.2768 115.334 55.1488 115.577 55.0208C119.734 52.8165 125.026 51.7598 130.256 51.8341C133.474 51.8666 136.671 52.3586 139.75 53.2954C139.717 53.1633 139.68 53.0312 139.643 52.8826C139.54 52.4904 139.437 52.0983 139.325 51.7061C139.267 51.4956 139.205 51.2933 139.144 51.0787C139.053 50.765 138.962 50.4554 138.867 50.1458L138.656 49.4771C138.562 49.1798 138.467 48.8826 138.368 48.5896L138.145 47.925C138.041 47.6236 137.934 47.3223 137.827 47.021L137.604 46.3976C137.472 46.0426 137.336 45.6918 137.191 45.3409L137.022 44.8951C136.832 44.4121 136.634 43.9291 136.432 43.4503L136.196 42.9013C136.06 42.5958 135.928 42.2862 135.783 41.9808L135.499 41.3616C135.371 41.0768 135.239 40.7961 135.106 40.536C135.007 40.3255 134.904 40.1232 134.805 39.9086C134.669 39.6279 134.529 39.3513 134.392 39.083C134.293 38.8807 134.194 38.6702 134.091 38.4803L133.616 37.5804L133.393 37.0603C133.146 36.6104 132.894 36.1563 132.638 35.7105C132.555 35.5743 132.473 35.438 132.394 35.2977C132.209 34.9757 132.019 34.6579 131.829 34.34C131.717 34.1543 131.602 33.9726 131.49 33.791L130.987 32.9654L130.607 32.4247C130.438 32.1646 130.269 31.9046 130.095 31.6486C129.971 31.4629 129.848 31.273 129.72 31.0914C129.538 30.823 129.352 30.5547 129.166 30.2905C129.047 30.1213 128.931 29.9521 128.811 29.7869C128.568 29.4443 128.32 29.1058 128.068 28.7673L127.837 28.4578C127.54 28.045 127.243 27.6693 126.937 27.2772L126.57 26.819L125.963 26.0264L125.55 25.5228C125.352 25.2793 125.138 25.044 124.944 24.8046C124.799 24.6353 124.655 24.4661 124.506 24.301C124.3 24.0615 124.093 23.8221 123.874 23.5868C123.734 23.43 123.594 23.269 123.462 23.1121C123.218 22.8479 122.97 22.5796 122.723 22.3196L122.384 21.9563C122.025 21.5848 121.666 21.2133 121.299 20.8459L120.952 20.5074C120.692 20.2474 120.432 19.9914 120.168 19.7396L119.714 19.3268L118.946 18.6499L118.463 18.2123C118.227 17.9976 117.988 17.7995 117.749 17.5766L117.295 17.1514C117.039 16.9285 116.774 16.7097 116.514 16.491C116.37 16.3671 116.23 16.2474 116.081 16.1277C115.668 15.8016 115.28 15.4755 114.871 15.1535L114.69 15.0132C114.331 14.7325 113.972 14.4559 113.608 14.1876L113.134 13.8491L112.308 13.2464L111.792 12.8832C111.524 12.6933 111.26 12.5075 110.991 12.3259L110.463 11.9668L109.637 11.4136L109.142 11.0958C108.799 10.877 108.457 10.683 108.11 10.4518C108.003 10.3858 107.899 10.3156 107.792 10.2537C107.342 9.98125 106.888 9.71293 106.434 9.44875L106.021 9.21346C105.699 9.0277 105.373 8.84607 105.047 8.66857L104.515 8.37962L103.623 7.90904L103.062 7.62421C102.764 7.47148 102.463 7.32288 102.162 7.17427L101.609 6.91009C101.274 6.7491 100.94 6.59224 100.601 6.4395L100.151 6.23311C99.6698 6.01295 99.1827 5.7983 98.6901 5.58916L98.4218 5.48183C98.009 5.31259 97.5962 5.14334 97.1834 4.98235L96.655 4.7677L95.6684 4.39206L95.0823 4.17741L94.1205 3.83892L93.5302 3.64078C93.1917 3.5252 92.8491 3.41788 92.5065 3.31055L91.9781 3.14131C91.5323 3.00096 91.0823 2.86887 90.6324 2.72852C90.5622 2.70788 90.4921 2.68311 90.4177 2.6666C89.8976 2.51799 89.3734 2.37764 88.8491 2.25381L88.3662 2.12997L87.2516 1.87817C87.0535 1.82863 86.8389 1.78735 86.6572 1.74195C86.3132 1.66214 85.9706 1.58784 85.6294 1.51904L85.0102 1.39107C84.6634 1.3209 84.3167 1.25485 83.9658 1.19294L83.3755 1.08148C82.9628 1.01131 82.5789 0.949389 82.1743 0.883342L81.7615 0.813168C81.2125 0.73061 80.6676 0.656307 80.1104 0.586133L79.7389 0.540726C79.3261 0.487063 78.8802 0.437528 78.4468 0.392121L77.8565 0.334331L76.7544 0.227005L76.1146 0.181598L75.0413 0.115552L74.4097 0.0825283C74.0217 0.0618888 73.6378 0.0495051 73.2539 0.0371214L72.7132 0.0206098C72.1476 0.0206098 71.578 0.0206098 71.0083 0.0206098C63.2666 0.00748166 55.5749 1.26247 48.2388 3.73573C47.1366 4.10724 46.051 4.50764 44.9736 4.93282C40.7006 6.61357 36.6015 8.70667 32.7344 11.1825C31.7712 11.7989 30.8259 12.4374 29.8985 13.0978C28.506 14.0885 27.1521 15.126 25.8366 16.2103C24.9615 16.9326 24.1029 17.6798 23.2608 18.4435C22.4187 19.2071 21.6097 19.9914 20.7841 20.7922C20.3713 21.205 19.9874 21.6178 19.5952 22.0306C18.4284 23.2497 17.3015 24.5129 16.2145 25.82C15.4921 26.6951 14.7862 27.5909 14.1051 28.499C13.424 29.4072 12.7636 30.3607 12.1279 31.3019C10.8523 33.1883 9.65112 35.145 8.56961 37.1553C8.01922 38.1625 7.49635 39.1834 7.001 40.2182C6.50153 41.2501 6.03094 42.2821 5.581 43.3636C1.8845 52.1077 -0.0135332 61.5066 7.26336e-05 71C7.26336e-05 71.4747 7.26336e-05 71.9453 7.26336e-05 72.42C7.26336e-05 72.8327 7.26379e-05 73.2001 0.0330959 73.5923L3.29001 71.7058Z" fill="#E9F6FF"/>
<path d="M72.2466 34.7242C72.2466 32.6768 72.6718 31.1219 73.5221 30.0597C74.3725 28.9974 75.5957 28.4663 77.1918 28.4663C78.7935 28.4663 80.0167 28.9919 80.8615 30.0432C81.7064 31.0944 82.1398 32.608 82.1618 34.5839V37.2835C82.1618 39.3089 81.749 40.861 80.9235 41.9398C80.0979 43.0186 78.8678 43.5552 77.2331 43.5497C75.6342 43.5497 74.4124 43.0227 73.5675 41.9687C72.7172 40.9161 72.2879 39.4011 72.2672 37.428L72.2466 34.7242Z" fill="#E9F6FF"/>
<path d="M60.4038 34.7242C60.4038 32.6768 60.829 31.1219 61.6793 30.0597C62.5297 28.9974 63.7543 28.4663 65.3532 28.4663C66.952 28.4663 68.1739 28.9919 69.0188 30.0432C69.8636 31.0944 70.297 32.608 70.319 34.5839V37.2835C70.319 39.3089 69.9063 40.861 69.0807 41.9398C68.2551 43.0186 67.0264 43.5552 65.3945 43.5497C63.7928 43.5497 62.5696 43.0227 61.7247 41.9687C60.8799 40.9147 60.4465 39.4011 60.4244 37.428L60.4038 34.7242Z" fill="#E9F6FF"/>
<path d="M77.2127 41.1962C77.5216 41.2171 77.8301 41.1508 78.1031 41.0048C78.376 40.8588 78.6025 40.6391 78.7566 40.3706C79.1255 39.5627 79.294 38.6776 79.2478 37.7906V34.3026C79.2478 33.089 79.0827 32.2028 78.7524 31.6442C78.5935 31.3763 78.3637 31.1575 78.0884 31.0118C77.8131 30.8662 77.5029 30.7993 77.1921 30.8186C76.8925 30.7986 76.5931 30.8607 76.3262 30.9982C76.0592 31.1356 75.8348 31.3433 75.6771 31.5988C75.2956 32.3666 75.1166 33.2191 75.157 34.0755V37.6462C75.1009 38.5618 75.2696 39.4773 75.6482 40.3128C75.7959 40.5954 76.0222 40.8291 76.2998 40.9859C76.5774 41.1426 76.8945 41.2157 77.2127 41.1962Z" fill="#E9F6FF"/>
<path d="M110.104 68.2798L110.132 68.3293L110.104 68.2798Z" fill="#16DFB5"/>
<path d="M110.277 68.5398C110.219 68.4532 110.157 68.3665 110.104 68.2798L110.124 68.3211L110.277 68.5398Z" fill="#16DFB5"/>
<path d="M108.804 64.7091C108.804 64.61 108.783 64.5151 108.779 64.416C108.779 64.4944 108.779 64.5687 108.779 64.6472C108.779 64.7256 108.799 64.6885 108.804 64.7091Z" fill="#16DFB5"/>
<path d="M108.749 69.4229V69.3073V63.9782C108.749 64.036 108.749 64.0897 108.749 64.1475C108.749 64.0443 108.749 63.9411 108.749 63.8379L94.8467 55.8091L76.1143 66.6242L94.8467 77.4393L108.749 69.4229Z" fill="#16DFB5"/>
<path d="M109.385 66.9384C109.344 66.8434 109.303 66.7444 109.266 66.6494L109.348 66.8558L109.385 66.9384Z" fill="#16DFB5"/>
<path d="M109.381 66.9339C109.392 66.9622 109.404 66.9897 109.418 67.0165C109.418 66.9876 109.398 66.9628 109.385 66.938L109.348 66.8555C109.361 66.8802 109.369 66.9091 109.381 66.9339Z" fill="#16DFB5"/>
<path d="M109.121 66.2448L109.175 66.3851C109.142 66.2902 109.105 66.1911 109.076 66.0962C109.087 66.1286 109.097 66.1617 109.105 66.1953C109.112 66.2111 109.117 66.2277 109.121 66.2448Z" fill="#16DFB5"/>
<path d="M76.127 66.6245V76.0692L88.9152 83.454L93.6251 86.1702L94.8635 86.8884V77.4396L76.127 66.6245Z" fill="#0F9C7F"/>
<path d="M110.298 95.7631C110.231 95.6723 110.161 95.5774 110.104 95.4824L110.124 95.5196C110.178 95.6021 110.24 95.6847 110.298 95.7631Z" fill="#0C7B64"/>
<path d="M109.385 94.1371C109.344 94.0422 109.303 93.9431 109.266 93.8481L109.348 94.0545L109.385 94.1371Z" fill="#0C7B64"/>
<path d="M109.121 93.4435L109.175 93.5839C109.142 93.4889 109.105 93.3899 109.076 93.2949C109.087 93.3274 109.097 93.3604 109.105 93.394C109.112 93.4098 109.117 93.4264 109.121 93.4435Z" fill="#0C7B64"/>
<path d="M109.381 94.1368C109.381 94.1615 109.406 94.1863 109.418 94.2152C109.431 94.2441 109.398 94.1615 109.385 94.1368L109.348 94.0542C109.361 94.079 109.369 94.1079 109.381 94.1368Z" fill="#0C7B64"/>
<path d="M110.104 95.4824L110.132 95.5319L110.104 95.4824Z" fill="#0C7B64"/>
<path d="M112.688 71.0866L112.75 71.1361C112.63 71.0412 112.506 70.9462 112.391 70.8472L112.502 70.938L112.688 71.0866Z" fill="#0C7B64"/>
<path d="M111.14 69.6337L111.21 69.7039L111.131 69.6172L111.057 69.5347L111.14 69.6337Z" fill="#0C7B64"/>
<path d="M113.414 71.6399L113.001 71.3262L113.282 71.5284L113.414 71.6399Z" fill="#0C7B64"/>
<path d="M113.484 71.6937L113.414 71.6442L113.266 71.5327L113.484 71.6937Z" fill="#0C7B64"/>
<path d="M109.381 86.0088C109.392 86.0357 109.404 86.0619 109.418 86.0873C109.418 86.0625 109.398 86.0377 109.385 86.0088L109.348 85.9263L109.381 86.0088Z" fill="#0C7B64"/>
<path d="M109.121 85.3156L109.175 85.4559C109.142 85.361 109.105 85.2619 109.076 85.167C109.087 85.1994 109.097 85.2325 109.105 85.2661C109.112 85.2819 109.117 85.2985 109.121 85.3156Z" fill="#0C7B64"/>
<path d="M108.804 83.7799C108.804 83.685 108.783 83.5859 108.779 83.4868C108.779 83.5652 108.779 83.6437 108.779 83.718C108.779 83.7923 108.799 83.7593 108.804 83.7799Z" fill="#0C7B64"/>
<path d="M109.385 86.0092C109.344 85.9142 109.303 85.8193 109.266 85.7202L109.348 85.9266L109.385 86.0092Z" fill="#0C7B64"/>
<path d="M111.131 69.6171C111.049 69.5222 110.962 69.4314 110.884 69.3364C110.937 69.4025 110.999 69.4685 111.057 69.5346L111.131 69.6171Z" fill="#0C7B64"/>
<path d="M108.804 91.9078C108.804 91.8129 108.783 91.7138 108.779 91.6147C108.779 91.6932 108.779 91.7716 108.779 91.8459C108.779 91.9202 108.799 91.8872 108.804 91.9078Z" fill="#0C7B64"/>
<path d="M111.969 76.5935C111.92 76.5481 111.866 76.5068 111.821 76.4614L111.969 76.5935Z" fill="#0C7B64"/>
<path d="M108.746 89.1754C108.746 89.5374 108.774 89.8989 108.828 90.2569C108.828 90.1661 108.857 90.0794 108.869 89.9886C108.8 89.4559 108.76 88.9198 108.75 88.3828L108.746 89.1754Z" fill="#0C7B64"/>
<path d="M111.705 76.354C111.532 76.1889 111.371 76.0196 111.214 75.8462L111.123 75.7472L111.041 75.6564C110.913 75.5119 110.793 75.3674 110.678 75.2436L110.541 75.0702C110.389 74.872 110.244 74.6574 110.129 74.4634L110.071 74.3726C109.959 74.1992 109.856 74.0217 109.757 73.8442C109.72 73.7782 109.687 73.7121 109.654 73.6419C109.575 73.4975 109.505 73.3489 109.439 73.2002L109.381 73.0682L109.357 73.0104C108.968 72.0963 108.766 71.114 108.762 70.1208V69.4438L94.876 77.4603V86.9049L108.766 94.9254V91.2103C108.766 91.2681 108.766 91.3259 108.766 91.3796C108.766 91.2433 108.766 91.1071 108.766 90.9668C108.766 90.7397 108.799 90.5127 108.828 90.2857C108.774 89.9277 108.747 89.5662 108.746 89.2041V88.4116V83.0783C108.746 83.1361 108.746 83.1939 108.746 83.2476C108.746 83.1114 108.746 82.9751 108.746 82.8348C108.824 80.6676 109.902 78.517 111.949 76.6429L111.8 76.5067C111.78 76.4324 111.747 76.3911 111.705 76.354Z" fill="#0C7B64"/>
<path d="M110.297 68.5643L110.277 68.5396L110.297 68.5643Z" fill="#0C7B64"/>
<path d="M108.75 69.4231V70.1001C108.754 71.0932 108.956 72.0755 109.344 72.9896C108.973 71.8347 108.774 70.6316 108.754 69.4189L108.75 69.4231Z" fill="#0C7B64"/>
<path d="M110.69 69.097C110.648 69.0392 110.599 68.9855 110.558 68.9277C110.599 68.9855 110.648 69.0392 110.69 69.097Z" fill="#0C7B64"/>
<path d="M110.69 69.0968L110.471 68.812L110.558 68.9276C110.599 68.9854 110.649 69.039 110.69 69.0968Z" fill="#0C7B64"/>
<path d="M137.715 94.4219L137.356 94.5003C137.075 94.5623 136.794 94.6201 136.51 94.6737L136.312 94.715V98.9089C136.955 97.4105 137.55 95.8873 138.082 94.3394L137.715 94.4219Z" fill="#90711D"/>
<path d="M139.862 74.7688C139.523 74.8762 139.176 74.9752 138.826 75.0702L138.499 75.1527C138.243 75.2188 137.988 75.2848 137.732 75.3426L137.372 75.4252C137.092 75.4871 136.811 75.5449 136.526 75.5986L136.328 75.6398V78.6078V79.6315V81.6955V81.778H136.398L136.53 81.7533L137.377 81.5758L137.732 81.4973L138.219 81.3776L138.499 81.3074L138.83 81.2208C139.176 81.1258 139.523 81.0268 139.866 80.9194C140.056 80.8616 140.237 80.7956 140.427 80.7295C140.617 80.6635 140.737 80.6305 140.889 80.5727L140.993 80.5355V80.4117V74.418L140.885 74.451C140.551 74.5294 140.208 74.6574 139.862 74.7688Z" fill="#90711D"/>
<path d="M124.808 103.065H124.696C124.283 103.008 123.908 102.946 123.52 102.871L123.342 102.838C123.008 102.776 122.673 102.706 122.343 102.632L122.009 102.558H121.963L124.803 104.209L124.808 103.065Z" fill="#B9951A"/>
<path d="M111.214 94.917C111.371 95.0904 111.532 95.2597 111.705 95.4248C111.742 95.4653 111.78 95.5039 111.821 95.5403C112.031 95.7426 112.254 95.9531 112.485 96.1348L112.671 96.2834C112.857 96.432 113.051 96.5806 113.249 96.7292L113.472 96.8902L113.596 96.9769L113.848 97.1502L114.293 97.4474C114.533 97.5961 114.776 97.7447 115.024 97.885L115.069 97.9098L115.202 97.9841C115.462 98.1286 115.73 98.2689 115.998 98.3969L116.279 98.5331C116.568 98.6762 116.861 98.8138 117.158 98.9459L117.286 99.0037C117.629 99.1523 117.975 99.2885 118.326 99.4165L118.611 99.5238C118.892 99.627 119.173 99.7219 119.457 99.8169L119.738 99.9077C120.101 100.023 120.469 100.135 120.844 100.238L121.03 100.283C121.348 100.37 121.67 100.448 121.996 100.527L122.326 100.601C122.657 100.675 122.991 100.742 123.329 100.808L123.503 100.841C123.891 100.911 124.287 100.973 124.679 101.03H124.791V96.5517V94.9005H124.679C124.266 94.8427 123.891 94.7808 123.503 94.7106L123.325 94.6735C122.991 94.6116 122.657 94.5414 122.326 94.4671L122.008 94.3928H121.971C121.662 94.3226 121.352 94.2442 121.047 94.1616L120.857 94.1121C120.485 94.0089 120.118 93.9016 119.75 93.786L119.47 93.6911L119.14 93.5837C118.966 93.5259 118.797 93.464 118.628 93.398L118.339 93.2948C118.042 93.1833 117.744 93.0636 117.451 92.9398L117.303 92.8779L117.175 92.8201C116.873 92.688 116.58 92.5517 116.291 92.4073L116.015 92.2669C115.742 92.1307 115.478 91.9904 115.218 91.8541L115.082 91.784L114.987 91.7303C114.756 91.5982 114.529 91.4579 114.31 91.3175C114.091 91.1772 113.843 91.0162 113.625 90.8593C113.613 90.8549 113.604 90.8478 113.596 90.8387C113.557 90.8135 113.52 90.7859 113.484 90.7561L113.261 90.5992L112.985 90.3929C112.902 90.3309 112.824 90.2649 112.745 90.1988L112.688 90.1493L112.502 90.0007L112.39 89.9099L112.155 89.6994C112.052 89.6044 111.945 89.5136 111.846 89.4187C111.833 89.4087 111.822 89.3977 111.812 89.3856L111.784 89.3609L111.618 89.1958C111.524 89.1008 111.429 89.01 111.342 88.9151L111.21 88.7665C111.184 88.7452 111.161 88.7217 111.14 88.6963V94.8138C111.162 94.8498 111.187 94.8843 111.214 94.917Z" fill="#B9951A"/>
<path d="M123.486 81.7819C123.874 81.8521 124.271 81.914 124.667 81.9718H124.774V79.3588V75.8501H124.663C124.25 75.7923 123.874 75.7263 123.486 75.6561L123.309 75.6231C122.974 75.5612 122.64 75.491 122.31 75.4167L121.975 75.3424C121.654 75.2681 121.332 75.1855 121.014 75.103L120.824 75.0534C120.452 74.9502 120.085 74.8429 119.718 74.7273L119.437 74.6324C119.152 74.5416 118.871 74.4425 118.611 74.3393L118.322 74.2361C117.971 74.104 117.625 73.9637 117.286 73.8233L117.158 73.7655L116.679 73.5467L116.267 73.3569L115.986 73.2165C115.713 73.0803 115.449 72.9399 115.189 72.8037L115.053 72.7335L114.958 72.6757C114.727 72.5437 114.5 72.4074 114.281 72.263C114.062 72.1185 113.815 71.9616 113.596 71.8089C113.586 71.8108 113.576 71.8108 113.567 71.8089C113.528 71.7837 113.491 71.7561 113.456 71.7263L113.237 71.5653L112.956 71.3631L112.721 71.1691L112.659 71.1195L112.473 70.9709L112.362 70.8801L112.126 70.6696C112.023 70.5746 111.916 70.4838 111.817 70.3889C111.805 70.3789 111.794 70.3679 111.784 70.3559L111.755 70.3311L111.59 70.1619C111.495 70.071 111.4 69.9761 111.313 69.8812C111.226 69.7862 111.222 69.7862 111.181 69.7367L111.111 69.6665V75.7799L111.202 75.879C111.359 76.0524 111.52 76.2216 111.693 76.3867C111.734 76.4239 111.767 76.4652 111.808 76.5023C111.85 76.5395 111.908 76.589 111.957 76.6344C112.126 76.7913 112.296 76.944 112.477 77.0967L112.659 77.2412C112.845 77.394 113.039 77.5426 113.237 77.6912L113.46 77.8521L113.583 77.9347C113.81 78.0957 114.038 78.2526 114.281 78.4094C114.525 78.5663 114.764 78.7025 115.008 78.847L115.057 78.8717L115.189 78.946C115.449 79.0905 115.718 79.2309 115.986 79.3588C116.077 79.4084 116.172 79.4538 116.267 79.4992C116.556 79.6395 116.849 79.7771 117.146 79.912L117.274 79.9698C117.616 80.1142 117.963 80.2546 118.314 80.3826L118.599 80.4899L119.206 80.6963L119.445 80.783L119.726 80.8738C120.089 80.9894 120.456 81.1008 120.832 81.1999L121.018 81.2494C121.336 81.3361 121.658 81.4145 121.984 81.4888C122.095 81.5177 122.203 81.5425 122.314 81.5631C122.599 81.6292 122.884 81.687 123.173 81.7406L123.317 81.7695L123.486 81.7819Z" fill="#B9951A"/>
<path d="M124.803 104.172L131.408 107.978V103.392H131.375H130.706H130.376H129.377C129.018 103.392 128.663 103.392 128.303 103.359H127.957L127.23 103.313L126.817 103.28L126.145 103.218L125.732 103.173C125.509 103.148 125.286 103.119 125.063 103.086L124.799 103.053L124.803 104.172Z" fill="#A68518"/>
<path d="M109.377 95.2641L110.33 95.8131C110.318 95.7976 110.307 95.781 110.297 95.7636C110.24 95.6852 110.178 95.6026 110.124 95.5201L110.095 95.4705C110.042 95.3921 109.996 95.3095 109.947 95.227C109.897 95.1444 109.831 95.0371 109.777 94.9421L109.724 94.8472L109.658 94.7151V94.6862L109.513 94.3973C109.484 94.3353 109.455 94.2776 109.431 94.2156C109.406 94.1537 109.402 94.162 109.393 94.1372L109.377 95.2641Z" fill="#A68518"/>
<path d="M124.803 96.5805V101.059L125.067 101.096L125.74 101.179L126.153 101.224L126.83 101.29L127.243 101.324L127.969 101.365L128.316 101.385C128.675 101.385 129.034 101.41 129.393 101.418C129.753 101.427 130.058 101.418 130.392 101.418H130.719L131.387 101.398H131.42V95.7715V95.272H131.387H130.723H130.388H129.389H129.014L128.316 95.2514H127.969L127.243 95.2059L126.83 95.1729C126.607 95.1729 126.38 95.1358 126.157 95.111L125.744 95.0656L125.072 94.983H125.005L124.811 94.9624L124.803 96.5805Z" fill="#A68518"/>
<path d="M109.373 88.2837V92.1185L109.431 92.2547C109.497 92.3992 109.571 92.5478 109.645 92.6964C109.679 92.7624 109.712 92.8285 109.749 92.8945C109.848 93.072 109.951 93.2495 110.062 93.427L110.12 93.5179C110.252 93.7201 110.397 93.9307 110.533 94.1247L110.669 94.2939C110.785 94.4384 110.904 94.5829 111.032 94.7273C111.061 94.7604 111.09 94.7893 111.115 94.8223V88.7047L111.032 88.6056C110.975 88.5396 110.913 88.4735 110.859 88.4075L110.69 88.1516C110.649 88.0979 110.599 88.0401 110.558 87.9823L110.471 87.8667C110.409 87.7883 110.355 87.7016 110.298 87.6191C110.24 87.5365 110.178 87.4581 110.128 87.3755C110.116 87.36 110.105 87.3434 110.095 87.326C110.05 87.2558 110.009 87.1856 109.967 87.1155L109.947 87.0866L109.778 86.7976L109.724 86.7027L109.658 86.5706V86.5417C109.608 86.4467 109.559 86.3518 109.513 86.2527C109.468 86.1537 109.456 86.133 109.431 86.0711C109.417 86.0458 109.404 86.0196 109.394 85.9927L109.373 88.2837Z" fill="#A68518"/>
<path d="M124.795 81.1962V81.9888L125.059 82.0259L125.732 82.1085H125.88L126.144 82.1374C126.367 82.1622 126.59 82.1828 126.813 82.1993L127.226 82.2323L127.639 82.2571L127.948 82.2777L128.295 82.2984C128.654 82.2984 129.013 82.3232 129.373 82.3273H130.367H130.702H131.366H131.399V79.0704V76.2138H131.366C131.143 76.2138 130.92 76.2138 130.698 76.2345H130.367C130.033 76.2345 129.703 76.2345 129.368 76.2345C129.034 76.2345 128.654 76.2345 128.295 76.2015H127.948L127.222 76.1561L126.809 76.123L126.136 76.0611L125.723 76.0157C125.501 75.9909 125.278 75.962 125.055 75.929L124.791 75.896V79.4047L124.795 81.1962Z" fill="#A68518"/>
<path d="M109.373 69.0596V73.0472L109.431 73.1792C109.497 73.3278 109.567 73.4765 109.646 73.6209C109.679 73.6911 109.712 73.7571 109.749 73.8232C109.848 74.0007 109.951 74.1782 110.063 74.3516L110.12 74.4424C110.253 74.6488 110.397 74.8552 110.533 75.0492L110.669 75.2226C110.785 75.367 110.905 75.5115 111.033 75.6353L111.115 75.7262V69.6127L111.033 69.5137C110.975 69.4476 110.913 69.3816 110.859 69.3155C110.806 69.2495 110.731 69.1545 110.669 69.0761C110.608 68.9977 110.574 68.9647 110.533 68.9069L110.447 68.7913C110.385 68.7087 110.331 68.6262 110.273 68.5436L110.253 68.5188L110.1 68.3001L110.071 68.2505C110.017 68.168 109.972 68.0895 109.922 68.007C109.873 67.9244 109.807 67.8171 109.753 67.7222L109.699 67.6272L109.633 67.4951V67.4662L109.489 67.1773L109.406 66.9956C109.392 66.9689 109.38 66.9414 109.369 66.9131L109.373 69.0596Z" fill="#A68518"/>
<path d="M132.357 106.727C132.283 106.851 132.209 106.975 132.139 107.099C132.209 106.987 132.283 106.863 132.357 106.727Z" fill="#987A23"/>
<path d="M133.868 104.015L133.6 104.523L133.868 104.015Z" fill="#987A23"/>
<path d="M133.129 105.381L132.869 105.852L133.129 105.381Z" fill="#987A23"/>
<path d="M134.037 103.185L133.662 103.227L132.877 103.297L132.51 103.33C132.192 103.33 131.878 103.371 131.56 103.383H131.408V107.97L131.573 108.064C131.767 107.747 131.961 107.425 132.151 107.103C132.221 106.979 132.295 106.855 132.37 106.731C132.543 106.438 132.712 106.141 132.881 105.844L133.141 105.373L133.612 104.515L133.88 104.007L134.33 103.144L134.037 103.185Z" fill="#987A23"/>
<path d="M108.754 94.9048L109.377 95.264V94.137C109.377 94.1082 109.357 94.0793 109.344 94.0545L109.262 93.8481C109.229 93.7614 109.2 93.6706 109.171 93.5839L109.117 93.4436C109.119 93.4271 109.119 93.4105 109.117 93.394C109.109 93.3605 109.1 93.3274 109.088 93.295C109.063 93.2041 109.039 93.1175 109.018 93.0266L108.944 92.7377C108.942 92.7157 108.942 92.6936 108.944 92.6716C108.944 92.6097 108.923 92.5478 108.911 92.4859L108.861 92.1928L108.836 92.0029V91.8626C108.836 91.7883 108.836 91.7098 108.836 91.6314C108.836 91.553 108.836 91.4539 108.836 91.3631C108.836 91.2723 108.836 91.2516 108.836 91.1938L108.754 94.9048Z" fill="#987A23"/>
<path d="M136.312 94.7148H136.254C135.891 94.7809 135.523 94.8428 135.156 94.8965L134.9 94.9336C134.611 94.9708 134.326 95.0121 134.037 95.0451L133.662 95.0864L132.877 95.1565L132.51 95.1896H132.27C132.031 95.1896 131.796 95.2184 131.556 95.2267H131.408V95.7262V101.353H131.56C131.878 101.353 132.196 101.319 132.51 101.295L132.877 101.266C133.141 101.245 133.401 101.22 133.662 101.192L134.037 101.15C134.326 101.117 134.611 101.08 134.896 101.039C134.982 101.039 135.073 101.039 135.156 101.002C135.238 100.964 135.309 100.977 135.383 100.964C135.705 100.275 136.019 99.5816 136.316 98.8799L136.312 94.7148Z" fill="#987A23"/>
<path d="M108.75 88.3826C108.76 88.9197 108.8 89.4557 108.869 89.9884C108.947 90.6921 109.105 91.3846 109.34 92.0523L109.365 92.1101V88.2753V86.0008L109.332 85.9183L109.249 85.7119C109.216 85.6252 109.187 85.5385 109.158 85.4477L109.105 85.3073C109.106 85.2909 109.106 85.2743 109.105 85.2578C109.097 85.2242 109.087 85.1912 109.076 85.1587C109.051 85.0679 109.026 84.9812 109.005 84.8945L108.931 84.6015C108.929 84.5795 108.929 84.5574 108.931 84.5354C108.931 84.4735 108.911 84.4116 108.898 84.3497L108.849 84.0566L108.824 83.8667V83.7263C108.824 83.652 108.824 83.5736 108.824 83.4952C108.824 83.4167 108.824 83.3177 108.824 83.2269C108.824 83.136 108.824 83.1154 108.824 83.0576L108.75 88.3826Z" fill="#987A23"/>
<path d="M131.399 79.07V82.3145H131.548C131.866 82.3145 132.188 82.2815 132.502 82.2609L132.869 82.232L133.653 82.1577L134.029 82.1164C134.318 82.0834 134.607 82.0462 134.892 82.0049L135.148 81.9678C135.515 81.9141 135.882 81.8522 136.246 81.7861H136.303V81.7036V79.6396V78.6159V75.6479H136.246C135.882 75.7181 135.515 75.7759 135.148 75.8337L134.887 75.8667C134.603 75.908 134.314 75.9452 134.029 75.9782L133.653 76.0195C133.393 76.0484 133.129 76.0731 132.869 76.0938L132.502 76.1227C132.184 76.1474 131.87 76.1639 131.552 76.1804H131.399V79.037V79.07Z" fill="#987A23"/>
<path d="M108.75 69.3077V69.4192C108.77 70.6319 108.969 71.8349 109.34 72.9898L109.365 73.0476V69.0601V66.9342C109.365 66.9094 109.344 66.8805 109.332 66.8558L109.249 66.6494C109.216 66.5627 109.187 66.4719 109.158 66.3852L109.105 66.2448C109.106 66.2284 109.106 66.2118 109.105 66.1953C109.097 66.1617 109.087 66.1287 109.076 66.0962C109.051 66.0054 109.026 65.9187 109.005 65.8279L108.931 65.539C108.93 65.517 108.93 65.4949 108.931 65.4729C108.931 65.411 108.911 65.3491 108.898 65.2872L108.849 64.9941L108.824 64.8001V64.6638C108.824 64.5854 108.824 64.5111 108.824 64.4327C108.824 64.3542 108.824 64.2552 108.824 64.1644C108.824 64.0735 108.824 64.0529 108.824 63.9951L108.75 69.3077Z" fill="#987A23"/>
<path d="M135.139 101.031C135.057 101.031 134.966 101.056 134.879 101.068C134.594 101.109 134.31 101.146 134.021 101.179L133.645 101.221C133.385 101.25 133.125 101.274 132.861 101.295L132.493 101.324C132.18 101.349 131.862 101.365 131.544 101.382H131.391H131.358L130.689 101.402H130.363C130.029 101.402 129.695 101.402 129.364 101.402C129.034 101.402 128.646 101.402 128.287 101.369L127.94 101.349L127.214 101.307L126.801 101.274L126.124 101.208L125.711 101.163L125.038 101.08L124.774 101.043H124.663C124.271 100.985 123.874 100.923 123.486 100.853L123.313 100.82C122.974 100.754 122.64 100.688 122.31 100.614L121.98 100.54C121.653 100.461 121.331 100.383 121.014 100.296L120.828 100.251C120.452 100.147 120.085 100.036 119.722 99.9204L119.441 99.8296C119.156 99.7346 118.875 99.6397 118.595 99.5365L118.31 99.4292C117.959 99.2971 117.612 99.1609 117.27 99.0164L117.142 98.9586C116.844 98.832 116.551 98.6944 116.262 98.5458L115.982 98.4096C115.713 98.2692 115.445 98.1289 115.185 97.9968L115.053 97.9225L115.008 97.8977C114.76 97.7574 114.516 97.6088 114.277 97.4602L113.831 97.1629L113.579 96.9896L113.455 96.9029L113.233 96.7419C113.034 96.5933 112.84 96.4447 112.655 96.2961L112.469 96.1475C112.238 95.9535 112.015 95.7347 111.804 95.5531C111.764 95.5166 111.725 95.478 111.689 95.4375C111.515 95.2724 111.354 95.1031 111.197 94.9297C111.165 94.9002 111.135 94.8684 111.107 94.8348C111.082 94.8018 111.053 94.7729 111.024 94.7399C110.896 94.5954 110.776 94.4509 110.661 94.3064L110.525 94.1372C110.372 93.9349 110.227 93.7244 110.112 93.5304L110.054 93.4396C109.943 93.2621 109.839 93.0846 109.74 92.9071C109.703 92.841 109.67 92.775 109.637 92.7089C109.563 92.5603 109.488 92.4117 109.422 92.2672L109.365 92.131L109.34 92.0732C109.105 91.4055 108.947 90.713 108.869 90.0093C108.869 90.1001 108.84 90.1868 108.828 90.2776C108.799 90.5046 108.774 90.7317 108.766 90.9587C108.766 91.0949 108.766 91.2311 108.766 91.3715C108.766 91.5118 108.766 91.5531 108.766 91.6398C108.766 91.7265 108.766 91.8379 108.791 91.9329C108.791 91.9577 108.791 91.9824 108.791 92.0113L108.816 92.2012L108.865 92.4943C108.865 92.5562 108.865 92.6181 108.898 92.68C108.896 92.702 108.896 92.7241 108.898 92.7461L108.973 93.035C108.993 93.1258 109.018 93.2125 109.043 93.3033C109.067 93.3942 109.109 93.4974 109.142 93.5923C109.175 93.6872 109.2 93.7698 109.233 93.8565C109.266 93.9432 109.311 94.0505 109.352 94.1454C109.352 94.1702 109.373 94.1991 109.385 94.2239C109.398 94.2486 109.439 94.3436 109.468 94.4055L109.612 94.6945V94.7233L109.678 94.8554L109.732 94.9504C109.786 95.0453 109.843 95.1403 109.901 95.2352C109.959 95.3302 109.996 95.4003 110.05 95.4788C110.108 95.5737 110.178 95.6686 110.244 95.7595C110.253 95.7769 110.265 95.7935 110.277 95.809L113.542 97.6913L121.909 102.525H121.955L122.289 102.599C122.619 102.674 122.954 102.744 123.288 102.806L123.466 102.839C123.854 102.913 124.246 102.975 124.642 103.033L125.018 103.082C125.241 103.115 125.463 103.144 125.686 103.169L126.099 103.214L126.772 103.276L127.185 103.309L127.911 103.355H128.258C128.617 103.355 128.972 103.384 129.331 103.388H130.33H130.661H131.329H131.515C131.833 103.388 132.147 103.355 132.464 103.334L132.832 103.301L133.616 103.231L133.992 103.19L134.272 103.157C134.632 102.447 134.982 101.724 135.321 101.002C135.292 101.006 135.218 101.023 135.139 101.031Z" fill="#F8C63A"/>
<path d="M114.293 97.4476L113.848 97.1504L114.293 97.4476Z" fill="#F8C63A"/>
<path d="M141.389 80.3457C141.302 80.3787 141.224 80.4159 141.137 80.4448C141.171 80.4547 141.204 80.4671 141.236 80.4819C141.282 80.5108 141.319 80.5439 141.356 80.5728C141.356 80.4984 141.356 80.4241 141.385 80.3498L141.389 80.3457Z" fill="#F8C63A"/>
<path d="M126.809 82.2153C126.586 82.1988 126.364 82.1782 126.141 82.1534L125.876 82.1245L121.749 83.4702L121.129 82.8345L121.749 83.4702L122.116 83.8541H122.141L125.369 87.1771C125.453 87.2631 125.549 87.3368 125.654 87.3959C125.953 87.5588 126.284 87.6546 126.624 87.6766C126.99 87.7089 127.358 87.6697 127.709 87.561L130.07 86.7932C130.201 86.7513 130.327 86.696 130.446 86.6281C130.667 86.5155 130.836 86.3217 130.917 86.0873C130.94 85.9732 130.934 85.8549 130.897 85.7441C130.861 85.6333 130.797 85.5339 130.71 85.4557L129.641 84.3577L129.575 84.2752L127.635 82.2772L127.222 82.2525L126.809 82.2153Z" fill="#F8C63A"/>
<path d="M135.139 81.9599L134.884 81.997C134.599 82.0383 134.31 82.0754 134.021 82.1085L133.645 82.1497L132.861 82.224L132.493 82.2529C132.18 82.2529 131.858 82.2942 131.54 82.3066H131.391H131.358H130.694H130.359H129.905L132.134 84.6017C132.22 84.6878 132.317 84.7615 132.423 84.8205C132.72 84.9778 133.046 85.0706 133.381 85.0929C133.57 85.1115 133.761 85.1115 133.951 85.0929C134.126 85.0759 134.299 85.0399 134.467 84.9856L136.035 84.4779C136.234 84.4127 136.426 84.3284 136.609 84.2261C136.782 84.1399 136.936 84.0198 137.061 83.873C137.187 83.7263 137.281 83.5557 137.34 83.3716C137.379 83.1989 137.371 83.0188 137.316 82.8503C137.262 82.6818 137.163 82.5311 137.03 82.4139L136.729 82.1043L136.7 82.0754L136.353 81.7163H136.283H136.225C135.87 81.8443 135.507 81.9062 135.139 81.9599Z" fill="#F8C63A"/>
<path d="M140.63 84.9272C140.63 84.9479 140.63 84.9685 140.63 84.985C140.63 85.0016 140.626 84.9479 140.63 84.9272Z" fill="#F8C63A"/>
<path d="M140.258 86.6943C140.258 86.7397 140.237 86.781 140.229 86.8264C140.237 86.781 140.246 86.7397 140.258 86.6943Z" fill="#F8C63A"/>
<path d="M141.03 81.3693L138.871 82.0711C138.826 82.0174 138.776 81.9596 138.722 81.906L138.19 81.3528L138.722 81.906C138.776 81.9596 138.826 82.0174 138.871 82.0711C139.055 82.2691 139.189 82.5088 139.261 82.7697C139.333 83.0306 139.341 83.305 139.284 83.5695C139.181 83.8892 139.015 84.185 138.796 84.4396C138.577 84.6941 138.309 84.9021 138.008 85.0514C137.694 85.2312 137.362 85.3778 137.018 85.489L135.449 85.9967C135.285 86.0495 135.118 86.0936 134.949 86.1288C134.356 86.2558 133.747 86.2947 133.141 86.2444L132.848 86.2114V86.2485C132.791 86.4519 132.692 86.6414 132.559 86.8058C132.357 87.0631 132.106 87.2777 131.821 87.4374C131.569 87.5842 131.302 87.7019 131.024 87.7882L128.642 88.5643C128.473 88.6179 128.299 88.6634 128.126 88.7005C127.637 88.8015 127.139 88.8431 126.64 88.8243C126.553 88.8243 126.471 88.8243 126.388 88.8243H126.343C125.62 88.7769 124.915 88.5727 124.279 88.2258C124.056 88.1015 123.851 87.9458 123.672 87.7635L123.127 87.2062L120.981 87.9038C120.598 88.0235 120.184 87.991 119.825 87.813C119.768 87.7784 119.715 87.7368 119.668 87.6892C119.404 87.4209 119.569 87.0782 120.031 86.9296L122.182 86.232L120.902 84.9152L118.756 85.6128C118.374 85.737 117.958 85.7043 117.6 85.522C117.543 85.4875 117.49 85.4458 117.443 85.3982C117.179 85.1299 117.344 84.7914 117.806 84.6386L119.957 83.941L119.581 83.553L118.12 82.0215C117.86 81.7532 118.025 81.4147 118.487 81.262C118.869 81.1417 119.282 81.1742 119.639 81.3528C119.698 81.3873 119.752 81.4289 119.8 81.4767L120.791 82.4963L123.193 81.7161C122.904 81.6624 122.619 81.6046 122.335 81.5386C122.223 81.5386 122.116 81.4932 122.004 81.4643C121.678 81.39 121.356 81.3116 121.038 81.2249L120.853 81.1753C120.477 81.0763 120.11 80.9648 119.746 80.8492L119.466 80.7584L119.226 80.6717L118.619 80.4653L118.335 80.358C117.984 80.2259 117.637 80.0856 117.294 79.9452L117.166 79.8874C116.869 79.7553 116.576 79.6177 116.287 79.4746C116.192 79.4292 116.097 79.3838 116.007 79.3343C115.738 79.1981 115.47 79.0577 115.21 78.9215L115.078 78.8472L115.028 78.8224C114.785 78.6779 114.537 78.5335 114.302 78.3849C114.066 78.2363 113.831 78.0711 113.604 77.9102L113.48 77.8276L113.257 77.6666C113.059 77.518 112.865 77.3694 112.679 77.2167L112.498 77.0722C112.316 76.9195 112.147 76.7667 111.978 76.6099C109.914 78.4963 108.853 80.647 108.774 82.8017C108.774 82.9379 108.774 83.0742 108.774 83.2145C108.774 83.3549 108.774 83.3961 108.774 83.4828C108.774 83.5695 108.774 83.681 108.799 83.7759C108.799 83.8007 108.799 83.8296 108.799 83.8543L108.824 84.0442L108.873 84.3373C108.873 84.3992 108.873 84.4611 108.907 84.5231C108.905 84.545 108.905 84.5671 108.907 84.5891L108.981 84.8822C109.001 84.9689 109.026 85.0556 109.051 85.1464C109.076 85.2372 109.117 85.3404 109.15 85.4353C109.183 85.5303 109.208 85.6128 109.241 85.6995C109.274 85.7862 109.319 85.8935 109.361 85.9885C109.361 86.0174 109.381 86.0421 109.394 86.0669C109.406 86.0917 109.447 86.1866 109.476 86.2485C109.505 86.3104 109.571 86.4425 109.621 86.5375V86.5664L109.687 86.6985L109.74 86.7934L109.91 87.0824L109.93 87.1113C109.972 87.1814 110.013 87.2516 110.058 87.3218C110.068 87.3392 110.079 87.3558 110.091 87.3713C110.141 87.4539 110.203 87.5364 110.26 87.6149C110.318 87.6933 110.372 87.7841 110.434 87.8625L110.521 87.9781C110.562 88.0359 110.611 88.0937 110.653 88.1474L110.847 88.3868C110.9 88.4528 110.962 88.5189 111.02 88.5849L111.103 88.684C111.124 88.7094 111.147 88.7329 111.173 88.7542L111.305 88.9028C111.392 88.9977 111.486 89.0885 111.581 89.1835L111.747 89.3486L111.775 89.3734C111.785 89.3854 111.796 89.3964 111.808 89.4064C111.907 89.5013 112.015 89.5921 112.118 89.6871L112.353 89.8976L112.465 89.9884L112.651 90.137L112.708 90.1865C112.787 90.2526 112.865 90.3186 112.948 90.3806L113.224 90.587L113.447 90.7438C113.483 90.7736 113.52 90.8012 113.559 90.8264C113.566 90.8355 113.576 90.8426 113.588 90.847C113.806 91.0039 114.033 91.1525 114.273 91.3052C114.512 91.4579 114.719 91.5818 114.95 91.718L115.045 91.7717L115.181 91.8418C115.441 91.9904 115.705 92.1308 115.978 92.2546L116.254 92.395C116.543 92.5353 116.836 92.6716 117.138 92.8078L117.266 92.8656L117.414 92.9275C117.707 93.0513 118.004 93.171 118.302 93.2825L118.591 93.3857C118.76 93.4517 118.929 93.5136 119.102 93.5714L119.433 93.6788L119.713 93.7737C120.081 93.8893 120.448 93.9966 120.82 94.0998L121.01 94.1493C121.315 94.2319 121.625 94.3103 121.934 94.3805H121.971L122.289 94.4548C122.619 94.5291 122.954 94.5993 123.288 94.6612L123.466 94.6984C123.854 94.7685 124.246 94.8305 124.642 94.8882L124.943 94.9295H125.009L125.682 95.0121L126.095 95.0575C126.318 95.0822 126.545 95.1029 126.768 95.1194L127.181 95.1524L127.907 95.1978H128.254L128.952 95.2185H129.327H130.326H130.661H131.325H131.507C131.746 95.2185 131.982 95.1978 132.221 95.1813H132.46L132.828 95.1483L133.612 95.0781L133.988 95.0368C134.277 95.0038 134.561 94.9625 134.85 94.9254L135.106 94.8882C135.474 94.8346 135.841 94.7727 136.204 94.7066H136.262L136.46 94.6653C136.745 94.6117 137.026 94.5539 137.307 94.492L137.666 94.4135L138.021 94.331C138.206 93.7943 138.388 93.2577 138.561 92.717C138.768 92.0689 138.974 91.4208 139.156 90.7645C139.23 90.5168 139.3 90.265 139.37 90.0132C139.498 89.5467 139.626 89.0803 139.746 88.6097C139.899 88.0153 140.043 87.4167 140.18 86.8182C140.18 86.7728 140.18 86.7315 140.208 86.6861C140.332 86.1206 140.456 85.5509 140.572 84.9771C140.572 84.9771 140.572 84.94 140.572 84.9193C140.811 83.7085 141.022 82.4866 141.203 81.2538C141.15 81.2982 141.092 81.3369 141.03 81.3693Z" fill="#F8C63A"/>
<path d="M136.741 63.0664L136.712 63.0416L134.124 60.375L128.778 62.1128L132.134 65.5679C132.22 65.654 132.317 65.7277 132.423 65.7867C132.722 65.9496 133.053 66.0454 133.393 66.0674C133.759 66.0994 134.128 66.0602 134.479 65.9518L136.048 65.4399C136.248 65.3783 136.44 65.2938 136.621 65.1881C136.795 65.1029 136.949 64.9832 137.075 64.8363C137.2 64.6894 137.295 64.5183 137.352 64.3337C137.391 64.1616 137.383 63.9821 137.329 63.8142C137.274 63.6463 137.175 63.4964 137.042 63.3801L136.741 63.0664Z" fill="#F8C63A"/>
<path d="M141.942 68.2881C141.942 68.4986 141.963 68.7009 141.967 68.9114C141.963 68.705 141.951 68.4986 141.942 68.2881Z" fill="#F8C63A"/>
<path d="M140.654 57.1924L140.729 57.6052L140.654 57.1924Z" fill="#F8C63A"/>
<path d="M140.233 55.2065C140.266 55.3428 140.295 55.4831 140.324 55.6193C140.295 55.4831 140.266 55.3428 140.233 55.2065Z" fill="#F8C63A"/>
<path d="M141.649 64.0649C141.67 64.2507 141.682 64.4406 141.698 64.6263C141.694 64.4406 141.682 64.2507 141.649 64.0649Z" fill="#F8C63A"/>
<path d="M141.034 59.2852C141.034 59.3677 141.063 59.4544 141.075 59.537C141.063 59.4544 141.047 59.3677 141.034 59.2852Z" fill="#F8C63A"/>
<path d="M141.831 66.1333C141.831 66.3562 141.859 66.5791 141.872 66.8061C141.859 66.5791 141.847 66.3562 141.831 66.1333Z" fill="#F8C63A"/>
<path d="M141.934 74.0214C141.934 73.7325 141.955 73.4476 141.967 73.1587C141.955 73.4476 141.942 73.7325 141.934 74.0214Z" fill="#F8C63A"/>
<path d="M130.26 51.8259C125.03 51.7516 119.738 52.8084 115.581 55.0127C115.338 55.1406 115.102 55.2686 114.875 55.4048C110.929 57.6958 108.878 60.6968 108.766 63.7308V63.8299C108.766 63.9331 108.766 64.0363 108.766 64.1395C108.766 64.2427 108.766 64.317 108.766 64.4078C108.766 64.4986 108.766 64.6018 108.791 64.7009C108.791 64.7256 108.791 64.7504 108.791 64.7752L108.816 64.9692L108.865 65.2623C108.865 65.3242 108.865 65.3861 108.898 65.448C108.897 65.47 108.897 65.4921 108.898 65.5141L108.973 65.803C108.993 65.8938 109.018 65.9805 109.043 66.0713C109.067 66.1621 109.109 66.2653 109.142 66.3603C109.175 66.4552 109.2 66.5378 109.233 66.6245C109.266 66.7112 109.311 66.8185 109.352 66.9134C109.352 66.9382 109.373 66.963 109.385 66.9919L109.468 67.1735L109.612 67.4624V67.4913L109.678 67.6234L109.732 67.7184C109.786 67.8133 109.843 67.9082 109.901 68.0032C109.959 68.0981 109.996 68.1642 110.05 68.2467C110.104 68.3334 110.165 68.4201 110.223 68.5068L110.244 68.5316C110.302 68.6141 110.355 68.6967 110.417 68.7792L110.636 69.0641C110.698 69.1425 110.76 69.225 110.826 69.3035C110.892 69.3819 110.991 69.4892 111.074 69.5842L111.152 69.6709C111.193 69.7204 111.239 69.7699 111.284 69.8153C111.33 69.8607 111.466 70.0052 111.561 70.096L111.726 70.2653L111.755 70.29C111.765 70.3021 111.776 70.3131 111.788 70.3231C111.887 70.418 111.994 70.5088 112.097 70.6038L112.333 70.8143C112.448 70.9134 112.572 71.0083 112.692 71.1032L112.927 71.2973L113.34 71.611L113.41 71.6605C113.445 71.6903 113.483 71.7179 113.521 71.7431C113.531 71.745 113.541 71.745 113.55 71.7431C113.769 71.8958 113.996 72.0485 114.236 72.1971C114.475 72.3457 114.681 72.4737 114.913 72.6099C114.987 72.6553 115.065 72.6966 115.144 72.7379C115.404 72.8865 115.668 73.0268 115.94 73.1507L116.221 73.291L116.634 73.4809L117.113 73.6997L117.241 73.7575C117.579 73.902 117.926 74.0423 118.277 74.1703L118.566 74.2735C118.842 74.3767 119.123 74.4757 119.391 74.5666L119.672 74.6615C120.039 74.7771 120.407 74.8844 120.778 74.9876L120.968 75.0371C121.286 75.1197 121.608 75.2023 121.93 75.2766L122.264 75.3509C122.595 75.4252 122.929 75.4953 123.263 75.5573L123.441 75.5903C123.829 75.6605 124.221 75.7265 124.617 75.7843H124.729L124.993 75.8173C125.216 75.8503 125.439 75.8792 125.662 75.904L126.074 75.9494L126.747 76.0113L127.16 76.0443L127.887 76.0898H128.233C128.592 76.0898 128.947 76.1187 129.307 76.1228C129.666 76.1269 129.971 76.1228 130.306 76.1228H130.636C130.859 76.1228 131.082 76.1228 131.304 76.1021H131.338H131.49C131.808 76.1021 132.122 76.0691 132.44 76.0443L132.807 76.0155C133.067 75.9948 133.331 75.97 133.591 75.9411L133.967 75.8999C134.252 75.8668 134.541 75.8297 134.826 75.7884L135.086 75.7554C135.453 75.6976 135.82 75.6398 136.184 75.5696H136.241L136.44 75.5284C136.724 75.4747 137.005 75.4169 137.286 75.355L137.645 75.2724C137.901 75.2146 138.157 75.1486 138.413 75.0825L138.739 75C139.09 74.905 139.436 74.806 139.775 74.6987C140.122 74.5872 140.464 74.4716 140.799 74.3519L140.906 74.3189L141.022 74.2693C141.302 74.1661 141.575 74.063 141.847 73.9515C141.847 73.6625 141.868 73.3777 141.88 73.0888C141.901 72.3705 141.913 71.6523 141.913 70.9299C141.913 70.2075 141.913 69.5346 141.88 68.8412C141.88 68.6348 141.88 68.4284 141.855 68.2178C141.855 67.7225 141.814 67.2271 141.785 66.7359C141.785 66.5089 141.76 66.286 141.744 66.0631C141.711 65.5595 141.67 65.0559 141.624 64.5564C141.624 64.3706 141.595 64.1807 141.575 63.995C141.509 63.3139 141.438 62.6369 141.352 61.9641C141.246 62.0953 141.102 62.1893 140.939 62.2324L138.78 62.9341C138.964 63.1314 139.098 63.3703 139.17 63.6305C139.242 63.8908 139.25 64.1645 139.193 64.4284C139.09 64.7488 138.925 65.0453 138.706 65.3005C138.486 65.5558 138.218 65.7645 137.917 65.9145C137.603 66.0928 137.271 66.2381 136.927 66.3479L135.358 66.8598C134.612 67.0906 133.829 67.1747 133.051 67.1074L132.758 67.0744C132.758 67.0744 132.758 67.0992 132.758 67.1116C132.674 67.3682 132.54 67.6055 132.363 67.8097C132.187 68.0138 131.972 68.1806 131.73 68.3004C131.477 68.4456 131.21 68.5632 130.933 68.6513L128.576 69.4191C127.831 69.6497 127.049 69.7338 126.273 69.6667C125.55 69.6174 124.846 69.4133 124.209 69.0682C123.986 68.9425 123.782 68.7869 123.602 68.6059L123.057 68.0486L120.91 68.7462C120.528 68.8669 120.113 68.8328 119.755 68.6513C119.697 68.6195 119.644 68.5791 119.598 68.5316C119.334 68.2632 119.499 67.9206 119.961 67.772L122.112 67.0744L120.832 65.7576L118.685 66.4552C118.303 66.575 117.889 66.5424 117.53 66.3644C117.472 66.3298 117.42 66.2882 117.373 66.2406C117.109 65.9723 117.274 65.6296 117.736 65.481L119.887 64.7834L119.511 64.3954L118.12 62.9713C117.86 62.703 118.025 62.3603 118.487 62.2117C118.676 62.1501 118.875 62.1265 119.072 62.142C119.27 62.1576 119.463 62.2122 119.639 62.3026C119.698 62.337 119.752 62.3786 119.8 62.4264L120.791 63.446L126.983 61.4398C127.369 61.3113 127.789 61.3395 128.155 61.5182C127.808 61.3452 127.408 61.3098 127.036 61.4192L133.195 59.4213L132.204 58.3976C131.94 58.1292 132.105 57.7908 132.568 57.638C132.95 57.5169 133.366 57.551 133.723 57.733C133.783 57.7647 133.837 57.805 133.884 57.8527L135.329 59.3428L135.366 59.38L135.725 59.7515L137.876 59.0539C138.257 58.9335 138.67 58.9661 139.028 59.1447C139.086 59.1792 139.14 59.2208 139.189 59.2685C139.449 59.5369 139.288 59.8795 138.826 60.0281L136.675 60.7257L137.934 62.0219L138.71 62.8227L137.934 62.0219L140.085 61.3242C140.465 61.2021 140.879 61.2347 141.236 61.415C141.284 61.4437 141.329 61.4784 141.368 61.5182C141.282 60.8537 141.183 60.1932 141.075 59.5369C141.075 59.4543 141.046 59.3676 141.034 59.2851C140.939 58.7154 140.836 58.154 140.728 57.5885L140.654 57.1757C140.551 56.6473 140.44 56.1231 140.324 55.603C140.295 55.4626 140.266 55.3223 140.233 55.1902C140.089 54.5503 139.936 53.9105 139.775 53.279C136.689 52.3431 133.485 51.8538 130.26 51.8259Z" fill="#F8C63A"/>
<path d="M128.543 61.8689L128.304 61.6213C128.283 61.6213 128.25 61.5841 128.225 61.5635C128.201 61.5428 128.283 61.6006 128.304 61.6213L128.543 61.8689Z" fill="#F8C63A"/>
<path d="M129.637 65.2831C129.612 65.2583 129.592 65.2294 129.571 65.2046L127.094 62.6577L121.728 64.3997L122.095 64.7795L122.12 64.8042L125.348 68.1272C125.432 68.2132 125.528 68.2869 125.633 68.346C125.933 68.5071 126.264 68.6028 126.603 68.6267C126.969 68.6597 127.338 68.619 127.689 68.507L130.05 67.7433C130.18 67.7014 130.306 67.6461 130.426 67.5782C130.541 67.5218 130.643 67.4432 130.728 67.3468C130.812 67.2504 130.876 67.1383 130.917 67.0168C130.941 66.9027 130.934 66.7842 130.898 66.6734C130.862 66.5625 130.797 66.4631 130.71 66.3852L129.637 65.2831Z" fill="#F8C63A"/>
<path d="M125.002 94.9622L124.7 94.9209H124.812L125.002 94.9622Z" fill="#8D6E1C"/>
<path d="M122.343 94.4879L122.025 94.4136L122.343 94.4879Z" fill="#8D6E1C"/>
<path d="M137.344 81.5468L136.498 81.7243L136.365 81.749L136.712 82.1082L136.741 82.1371L137.042 82.4467C137.175 82.5638 137.274 82.7145 137.329 82.883C137.383 83.0515 137.391 83.2316 137.352 83.4043C137.294 83.5885 137.199 83.759 137.074 83.9058C136.948 84.0526 136.794 84.1726 136.621 84.2588C136.439 84.3611 136.247 84.4454 136.048 84.5106L134.479 85.0183C134.311 85.0726 134.138 85.1086 133.963 85.1257C133.774 85.1442 133.583 85.1442 133.393 85.1257C133.059 85.1033 132.732 85.0105 132.436 84.8532C132.33 84.7942 132.232 84.7205 132.147 84.6344L129.918 82.3393H129.377C129.018 82.3393 128.659 82.3393 128.3 82.3104L127.953 82.2898L127.643 82.2692L129.583 84.2671L129.649 84.3496L130.718 85.4476C130.805 85.5275 130.869 85.6286 130.903 85.741C130.938 85.8533 130.943 85.9728 130.917 86.0875C130.877 86.2084 130.815 86.3204 130.732 86.4167C130.649 86.5131 130.547 86.592 130.434 86.6489C130.315 86.7168 130.189 86.7721 130.058 86.814L127.697 87.5818C127.346 87.6905 126.977 87.7297 126.611 87.6973C126.271 87.6754 125.94 87.5796 125.641 87.4167C125.536 87.3576 125.44 87.2839 125.356 87.1979L122.128 83.8749H122.104L121.736 83.491L121.117 82.8553L121.736 83.491L125.864 82.1453H125.715L125.043 82.0628L124.778 82.0256H124.671C124.258 81.9678 123.879 81.9059 123.491 81.8357L123.317 81.7986L123.173 81.7697L120.77 82.5498L119.78 81.5303C119.731 81.4825 119.677 81.4409 119.619 81.4064C119.261 81.2278 118.848 81.1953 118.467 81.3156C118.005 81.4683 117.839 81.8068 118.099 82.0751L119.569 83.586L119.945 83.974L117.794 84.6716C117.332 84.8243 117.167 85.1628 117.431 85.4311C117.478 85.4788 117.53 85.5204 117.588 85.555C117.946 85.7373 118.361 85.77 118.743 85.6458L120.89 84.9482L122.17 86.265L120.031 86.913C119.569 87.0617 119.404 87.4043 119.668 87.6726C119.715 87.7203 119.768 87.7619 119.825 87.7964C120.184 87.9744 120.598 88.007 120.981 87.8872L123.127 87.1896L123.672 87.7469C123.851 87.9292 124.056 88.0849 124.279 88.2092C124.915 88.5561 125.62 88.7604 126.343 88.8078H126.376C126.458 88.8078 126.541 88.8078 126.628 88.8078C127.126 88.8265 127.625 88.7849 128.114 88.6839C128.287 88.6468 128.461 88.6014 128.63 88.5477L130.987 87.7799C131.265 87.6936 131.532 87.5759 131.783 87.429C132.069 87.2694 132.32 87.0547 132.522 86.7975C132.655 86.6331 132.754 86.4435 132.811 86.2402V86.203L133.104 86.2361C133.709 86.2864 134.319 86.2475 134.912 86.1205C135.081 86.0852 135.248 86.0411 135.412 85.9884L136.981 85.4807C137.325 85.3695 137.657 85.2229 137.971 85.0431C138.272 84.8938 138.54 84.6858 138.759 84.4312C138.978 84.1767 139.144 83.8809 139.247 83.5612C139.304 83.2966 139.296 83.0223 139.224 82.7614C139.152 82.5005 139.018 82.2608 138.834 82.0628C138.789 82.0091 138.739 81.9513 138.685 81.8976L138.153 81.3445L137.666 81.4642L137.344 81.5468Z" fill="#8D6E1C"/>
<path d="M141.736 77.1094C141.736 77.1919 141.736 77.2745 141.736 77.3571C141.723 77.2745 141.728 77.1919 141.736 77.1094Z" fill="#8D6E1C"/>
<path d="M141.583 78.7109C141.583 78.8017 141.583 78.8926 141.55 78.9834C141.562 78.8926 141.57 78.8017 141.583 78.7109Z" fill="#8D6E1C"/>
<path d="M141.851 75.5405C141.851 75.5901 141.851 75.6396 141.851 75.685C141.847 75.6396 141.847 75.5901 141.851 75.5405Z" fill="#8D6E1C"/>
<path d="M141.261 81.2622C141.261 81.1796 141.282 81.1012 141.294 81.0186C141.307 80.9361 141.294 80.9691 141.294 80.9443C141.294 81.0517 141.265 81.159 141.253 81.2622H141.261Z" fill="#8D6E1C"/>
<path d="M141.108 74.3398L140.993 74.3894V80.3831V80.5069L140.89 80.5441C140.737 80.6019 140.58 80.6514 140.427 80.7009C140.274 80.7505 140.056 80.833 139.866 80.8908C139.523 80.9981 139.176 81.0972 138.83 81.1921L138.499 81.2788L138.219 81.349L138.751 81.9021C138.805 81.9558 138.854 82.0136 138.9 82.0673L141.059 81.3655C141.14 81.3397 141.218 81.3037 141.29 81.2582C141.29 81.155 141.319 81.0477 141.331 80.9403C141.344 80.833 141.368 80.6968 141.385 80.573C141.348 80.5441 141.311 80.511 141.265 80.4821C141.233 80.4673 141.2 80.4549 141.166 80.445C141.253 80.4161 141.331 80.3789 141.418 80.3459C141.476 79.8919 141.529 79.4378 141.579 78.9837C141.579 78.8929 141.6 78.8021 141.612 78.7113C141.661 78.2613 141.703 77.8114 141.744 77.3573C141.744 77.2748 141.744 77.1922 141.744 77.1096C141.785 76.6349 141.818 76.1602 141.851 75.6855C141.851 75.6401 141.851 75.5906 141.851 75.541C141.884 75.0374 141.909 74.5297 141.934 74.022C141.649 74.1169 141.389 74.2366 141.108 74.3398Z" fill="#8D6E1C"/>
<path d="M141.236 61.4151C140.879 61.2347 140.466 61.2021 140.085 61.3242L137.934 62.0219L138.71 62.8227L137.934 62.0219L136.658 60.7051L138.809 60.0075C139.271 59.8588 139.432 59.5162 139.172 59.2479C139.124 59.2002 139.07 59.1586 139.011 59.1241C138.654 58.9455 138.241 58.9129 137.86 59.0333L135.709 59.7309L135.35 59.3594L135.313 59.3222L133.868 57.832C133.821 57.7844 133.766 57.7441 133.707 57.7123C133.355 57.5307 132.947 57.4922 132.568 57.605C132.105 57.7577 131.94 58.0962 132.204 58.3645L133.195 59.3883L127.036 61.3862C127.408 61.2768 127.808 61.3122 128.155 61.4852C128.184 61.5035 128.212 61.5242 128.238 61.5472C128.262 61.5472 128.295 61.5843 128.316 61.605L128.555 61.8526L128.316 61.605C128.295 61.605 128.262 61.5678 128.238 61.5472C128.212 61.5242 128.184 61.5035 128.155 61.4852C127.79 61.3065 127.369 61.2783 126.983 61.4068L120.791 63.413L119.8 62.3934C119.752 62.3456 119.698 62.304 119.639 62.2695C119.463 62.1792 119.27 62.1246 119.072 62.109C118.875 62.0934 118.676 62.1171 118.487 62.1787C118.025 62.3273 117.86 62.6699 118.12 62.9383L119.59 64.4491L119.965 64.8371L117.815 65.5347C117.352 65.6833 117.187 66.0259 117.451 66.2943C117.498 66.3419 117.551 66.3835 117.608 66.4181C117.967 66.5961 118.381 66.6286 118.764 66.5089L120.91 65.8113L122.19 67.1281L120.039 67.8257C119.577 67.9743 119.412 68.3169 119.676 68.5852C119.722 68.6328 119.775 68.6732 119.833 68.705C120.191 68.8865 120.606 68.9205 120.989 68.7999L123.135 68.1023L123.68 68.6595C123.861 68.8406 124.065 68.9962 124.287 69.1219C124.924 69.467 125.628 69.6711 126.351 69.7204C127.128 69.7875 127.91 69.7034 128.654 69.4727L131.011 68.705C131.289 68.6169 131.556 68.4992 131.808 68.3541C132.05 68.2343 132.265 68.0675 132.442 67.8633C132.618 67.6592 132.752 67.4219 132.836 67.1652C132.836 67.1652 132.836 67.1405 132.836 67.1281L133.129 67.1611C133.907 67.2284 134.691 67.1443 135.437 66.9134L137.005 66.4016C137.35 66.2917 137.682 66.1465 137.996 65.9681C138.297 65.8182 138.565 65.6094 138.784 65.3542C139.003 65.099 139.169 64.8024 139.271 64.4821C139.328 64.2182 139.321 63.9444 139.249 63.6842C139.177 63.424 139.043 63.185 138.859 62.9878L141.017 62.2861C141.18 62.243 141.325 62.1489 141.43 62.0177C141.41 61.8485 141.385 61.6751 141.36 61.5059C141.322 61.4709 141.281 61.4404 141.236 61.4151Z" fill="#8D6E1C"/>
<path d="M126.669 61.5799C126.704 61.5505 126.741 61.5242 126.78 61.5015C126.741 61.5242 126.704 61.5505 126.669 61.5799C126.624 61.6126 126.587 61.6539 126.558 61.7014C126.53 61.7489 126.511 61.8017 126.504 61.8565C126.511 61.8017 126.53 61.7489 126.558 61.7014C126.587 61.6539 126.624 61.6126 126.669 61.5799Z" fill="#8D6E1C"/>
<path d="M130.917 67.0168C130.877 67.1375 130.814 67.2493 130.731 67.3456C130.648 67.4419 130.547 67.521 130.434 67.5782C130.315 67.6461 130.189 67.7014 130.058 67.7433L127.697 68.507C127.347 68.619 126.978 68.6597 126.611 68.6267C126.272 68.6028 125.941 68.5071 125.641 68.346C125.537 68.2869 125.441 68.2132 125.356 68.1272L122.128 64.8042L122.104 64.7795L121.736 64.3997L127.103 62.6577L129.579 65.2046C129.6 65.2294 129.621 65.2583 129.645 65.2831L130.715 66.3852C130.801 66.4636 130.865 66.5631 130.9 66.674C130.936 66.7848 130.941 66.903 130.917 67.0168Z" fill="#F8C63A"/>
<path d="M137.352 64.3337C137.295 64.5183 137.2 64.6894 137.075 64.8363C136.949 64.9832 136.795 65.1029 136.621 65.1881C136.44 65.2938 136.248 65.3783 136.048 65.4399L134.479 65.9518C134.128 66.0602 133.759 66.0994 133.393 66.0674C133.053 66.0454 132.722 65.9496 132.423 65.7867C132.317 65.7277 132.22 65.654 132.134 65.5679L128.778 62.1128L134.124 60.375L136.712 63.0416L136.741 63.0664L137.042 63.3801C137.175 63.4964 137.274 63.6463 137.329 63.8142C137.383 63.9821 137.391 64.1616 137.352 64.3337Z" fill="#F8C63A"/>
<path d="M126.504 61.8566C126.511 61.8018 126.53 61.7491 126.558 61.7016C126.587 61.6541 126.624 61.6128 126.669 61.5801C126.624 61.6128 126.587 61.6541 126.558 61.7016C126.53 61.7491 126.511 61.8018 126.504 61.8566Z" fill="#8D6E1C"/>
<path d="M128.225 61.5634C128.199 61.5405 128.172 61.5198 128.143 61.5015C128.172 61.5198 128.199 61.5405 128.225 61.5634Z" fill="#8D6E1C"/>
<path d="M131.391 108.341L131.556 108.073C131.507 108.164 131.449 108.25 131.391 108.341Z" fill="#5A3AF9"/>
<path d="M120.873 121.525L120.485 121.905L120.873 121.525Z" fill="#5A3AF9"/>
<path d="M118.533 123.75L118.153 124.085L118.533 123.75Z" fill="#5A3AF9"/>
<path d="M117.295 124.824L116.993 125.08L117.295 124.824Z" fill="#5A3AF9"/>
<path d="M97.9678 136.691L97.6665 136.815L97.9678 136.691Z" fill="#5A3AF9"/>
<path d="M96.3372 125.431L96.0689 125.274L95.3589 124.861L94.8635 124.572L94.4796 124.353L94.1164 124.143L93.4972 123.788L92.7211 123.338L91.7511 122.776H91.7304L91.6603 122.735L91.6025 122.702L91.2433 122.496L91.07 122.397L91.0369 122.376L90.6242 122.136L89.8894 121.724L89.5798 121.546L89.4353 121.464L89.1629 121.307L88.4818 120.894L86.2733 119.623L86.6861 119.68L86.9792 119.718L87.2269 119.742L87.747 119.792L88.0483 119.812H88.3992H88.5396H88.8698C89.0432 119.812 89.2207 119.812 89.4023 119.812H89.8564H90.2692H90.3847H90.5746C90.715 119.812 90.8512 119.812 90.9874 119.788H91.0204H91.1195H91.2021H91.2722L91.4869 119.767H91.6107H91.6809H91.7263L91.9244 119.742L92.5932 119.618L92.7624 119.581C92.9936 119.528 93.2247 119.474 93.4559 119.404L94.0008 119.226C94.1246 119.181 94.2443 119.131 94.364 119.074L94.4425 119.045L94.6571 118.941L94.7934 118.88C94.9718 118.795 95.143 118.695 95.3052 118.582C95.4001 118.52 95.4951 118.459 95.5859 118.392L95.6932 118.318C95.8093 118.23 95.9183 118.134 96.0193 118.029L96.3207 117.736C96.3265 117.724 96.335 117.712 96.3454 117.703C96.4197 117.612 96.4775 117.526 96.5395 117.435L96.6303 117.307C96.7368 117.16 96.8229 116.998 96.8862 116.828L97.01 116.531L97.0637 116.382L97.0926 116.242C97.0926 116.213 97.0926 116.184 97.1132 116.155C97.1339 116.06 97.1504 115.965 97.1628 115.866V115.78C97.1628 115.718 97.1628 115.656 97.1628 115.594C97.1628 115.528 97.1628 115.462 97.1628 115.396C97.1628 115.33 97.1628 115.226 97.1628 115.14C97.1516 114.969 97.1281 114.799 97.0926 114.632C97.0926 114.632 97.0926 114.599 97.0926 114.582C97.0531 114.41 97.0021 114.24 96.9399 114.075C96.9399 114.025 96.9027 113.976 96.8821 113.926C96.8325 113.802 96.7747 113.683 96.7128 113.559C96.6892 113.509 96.663 113.461 96.6344 113.414C96.5453 113.249 96.446 113.089 96.3372 112.935C96.2161 112.77 96.0881 112.609 95.9533 112.452L95.8171 112.304C95.7386 112.225 95.6643 112.143 95.5818 112.064L95.524 112.002C95.4125 111.891 95.2928 111.788 95.1731 111.681C95.0534 111.573 95.0534 111.569 94.9874 111.52C94.9213 111.47 94.8429 111.404 94.7727 111.346L94.4466 111.094L94.4094 111.07C93.9726 110.753 93.5193 110.459 93.0514 110.19C92.8285 110.062 92.5973 109.943 92.3661 109.823C92.2382 109.753 92.1143 109.683 91.9822 109.617C91.8336 109.542 91.6768 109.476 91.5282 109.41C91.2764 109.295 91.0287 109.175 90.7769 109.068L90.5003 108.952L90.4632 108.791C90.1701 108.671 89.877 108.552 89.5798 108.44L89.3858 108.37L89.1711 108.287L88.1928 107.949L87.9039 107.854L87.7305 107.8C87.3631 107.685 86.9957 107.573 86.6242 107.466L86.4839 107.429L86.3022 107.379L86.0381 107.309L85.3115 107.119L85.2249 107.099L84.8822 107.012L83.9287 106.789L83.5407 106.706L83.3673 106.669L82.5747 106.504L82.1619 106.417C81.6996 106.331 81.2373 106.244 80.775 106.166C79.2311 105.901 77.6832 105.687 76.1311 105.505C75.4128 105.418 74.6987 105.344 73.9804 105.278L73.5676 105.237C72.0238 105.096 70.4772 104.986 68.9279 104.907C68.4573 104.882 67.9826 104.874 67.5079 104.853L66.8763 104.832C66.6699 104.832 66.4635 104.832 66.2489 104.808H66.0549H65.3036H64.5399C64.0281 104.808 63.5162 104.808 63.0043 104.808H62.9631H62.1375H61.5678L76.1311 96.3412L88.9028 88.911L93.621 86.17L88.9152 83.458L76.1187 90.8882L56.8703 102.071H56.8496C56.8496 102.252 56.8496 102.43 56.8166 102.611H56.8496H56.8703H56.8496H56.8166C56.8166 102.43 56.8414 102.252 56.8496 102.071C56.8496 101.798 56.8703 101.522 56.8744 101.245C56.8744 100.713 56.8744 100.18 56.8166 99.6476C56.8166 99.4247 56.7794 99.206 56.7547 98.9831V98.95C56.7299 98.6941 56.701 98.4423 56.668 98.1905C56.6474 98.0625 56.635 97.9346 56.6143 97.8025C56.5483 97.3897 56.4657 96.9769 56.379 96.5641C56.379 96.5187 56.379 96.4733 56.3502 96.4279C56.2924 96.1596 56.2263 95.8913 56.1603 95.6271V95.6023C56.0942 95.3381 56.0199 95.0698 55.9415 94.8015C55.9002 94.6653 55.8631 94.529 55.8177 94.3887V94.3433C55.7062 93.9924 55.5824 93.6457 55.4544 93.2989L55.4049 93.171C55.2728 92.8283 55.1365 92.4899 54.9921 92.1514L54.9054 91.9491C54.8724 91.8748 54.8393 91.8005 54.8022 91.7262C54.6825 91.4661 54.5586 91.2061 54.4265 90.946V90.9254C54.3192 90.7272 54.2119 90.5126 54.0963 90.3268L54.0509 90.2484C54.0509 90.2236 54.022 90.1989 54.0096 90.17L53.8651 89.9305C53.8239 89.8645 53.7867 89.7943 53.7413 89.7283C53.6959 89.6622 53.634 89.5508 53.5762 89.4641C53.5184 89.3774 53.5019 89.3403 53.4606 89.2825C53.3863 89.1628 53.3038 89.0472 53.2253 88.9316L53.1263 88.7912C53.0354 88.6633 52.9446 88.5312 52.8456 88.4032C52.8176 88.3629 52.7873 88.3243 52.7547 88.2876C52.6639 88.1638 52.569 88.0441 52.474 87.9203L52.3585 87.784L52.1438 87.524L51.9787 87.3382L51.7558 87.0905L51.5783 86.9007L51.4751 86.7975L51.343 86.6571L51.2439 86.558L51.1696 86.4837L50.9054 86.2361C50.7733 86.1081 50.6371 85.9843 50.4926 85.8604C50.3482 85.7366 50.2367 85.6334 50.0799 85.5219L50.0303 85.4848L49.9189 85.394C49.7703 85.2743 49.6217 85.1546 49.4648 85.0348L49.2832 84.8945C49.0726 84.7376 48.8704 84.5849 48.6351 84.4322C48.3172 84.2217 47.987 84.0194 47.6361 83.8171C47.438 83.7015 47.2233 83.5901 47.0211 83.4786L46.9674 83.4497C46.6991 83.3094 46.4267 83.1732 46.1418 83.0369H46.1129C45.3116 82.6695 44.4837 82.3632 43.6362 82.1205L43.1243 81.9843L42.8973 81.9265C42.5134 81.8357 42.1171 81.7573 41.7085 81.6954L41.5186 81.6623C41.1058 81.6046 40.693 81.555 40.305 81.5179H40.144H40.049H39.95C39.7106 81.5179 39.467 81.4931 39.2276 81.4849H39.0542H38.2906H37.7787H37.7044C37.4939 81.4849 37.2916 81.5055 37.077 81.522L36.8417 81.5426L36.594 81.5757L36.3958 81.6004L36.0739 81.6458C35.7233 81.6921 35.376 81.7596 35.0336 81.8481L34.6208 81.9513L34.5177 81.9761L34.0058 82.1536C33.8654 82.2031 33.7168 82.2568 33.593 82.3146H33.5641H33.5311L33.0729 82.5416C32.9945 82.5787 32.9202 82.6159 32.85 82.6572L32.755 82.715L32.6477 82.781L32.5156 82.8718L32.462 82.909L32.2845 83.0411C32.0402 83.2027 31.8169 83.394 31.6199 83.6107C31.0534 84.2359 30.7476 85.0541 30.7654 85.8976C30.7721 86.0565 30.7873 86.215 30.8108 86.3723C30.8108 86.4177 30.8108 86.4672 30.8356 86.5168C30.8356 86.62 30.8727 86.719 30.8933 86.8181C30.914 86.9172 30.9553 87.0493 30.9883 87.1607C31.0213 87.2722 31.0172 87.2681 31.0337 87.3217C31.075 87.4456 31.1245 87.5694 31.174 87.6891C31.174 87.7262 31.2029 87.7675 31.2153 87.8047L30.8768 87.6065L30.7613 87.5405L3.29416 71.71L0.0620117 73.5923C0.0826513 74.1619 0.107419 74.7316 0.140442 75.2971L3.28591 77.1134L30.7571 92.9728L30.8067 93.0017L30.8686 93.0389L31.2112 93.237L31.624 93.4806L34.2865 95.0203L36.1771 96.11L36.3876 96.2339L36.5362 96.3164L39.1368 97.819L42.5877 99.8128L44.6517 101.01L46.4721 102.058L48.276 103.099L49.0149 103.511L50.212 104.201L51.2522 104.803L51.698 105.059L51.4792 105.183L51.3182 105.278L50.2078 105.352L49.7744 105.381L49.2997 105.414H49.0066L48.4081 105.46H48.2677L46.4638 105.596L44.6393 105.736L43.3596 105.835L42.5588 105.901H42.4886L40.1811 106.108C38.6868 106.24 37.1925 106.368 35.7024 106.521L32.3299 106.855L31.6405 106.933L31.0832 106.995L28.9574 107.231C28.8985 107.236 28.8419 107.256 28.7922 107.288C28.775 107.299 28.7609 107.315 28.7515 107.333C28.7421 107.351 28.7376 107.371 28.7386 107.392C28.7386 107.392 28.7386 107.392 28.7386 107.416C28.7386 107.416 28.7386 107.416 28.7386 107.437L28.8005 107.487L28.9202 107.54L29.0152 107.581C29.3454 107.734 29.6674 107.87 29.9893 107.994C30.3113 108.118 30.6292 108.23 30.9429 108.333C31.397 108.486 31.8428 108.613 32.2886 108.746L32.817 108.89L33.7416 109.101C34.0429 109.167 34.3484 109.224 34.6497 109.282L34.9635 109.332C35.0667 109.332 35.1657 109.369 35.2689 109.381C35.4836 109.418 35.6817 109.447 35.9046 109.476L36.4495 109.559C36.9407 109.621 37.4319 109.666 37.9149 109.703H38.1007L38.4309 109.724C38.7818 109.724 39.1326 109.761 39.4794 109.769H39.7807H40.3256H40.7013H41.2668H41.3411H41.6548H41.9396H42.2781H42.3648H42.5588H42.6372C42.9138 109.769 43.1904 109.736 43.4628 109.711H43.5825H43.6733L39.6445 112.093L33.7622 115.515L32.0863 116.485L21.9771 122.355C22.5261 122.884 23.0916 123.396 23.6613 123.907L23.9708 124.184C24.5212 124.679 25.0909 125.169 25.6798 125.653L39.5702 117.579L39.628 117.546L43.6692 115.202L43.8508 115.094L47.6072 112.911L49.2914 111.928L49.7372 111.672L50.4225 111.268C50.3317 111.466 50.2532 111.68 50.1707 111.87L50.1418 111.945C50.1129 112.015 50.0881 112.089 50.0633 112.159C49.9973 112.333 49.9395 112.506 49.8858 112.679C49.8858 112.75 49.8404 112.816 49.8239 112.886C49.8074 112.956 49.7868 113.018 49.7703 113.084C49.7249 113.253 49.6795 113.418 49.6423 113.588L49.5969 113.744C49.5556 113.951 49.5185 114.157 49.4854 114.355C49.4854 114.43 49.4854 114.504 49.4565 114.578C49.4318 114.756 49.4111 114.937 49.3988 115.119C49.3988 115.181 49.3988 115.243 49.3988 115.305C49.3988 115.54 49.374 115.771 49.374 116.007C49.374 116.007 49.374 116.007 49.374 116.031C49.374 116.163 49.374 116.296 49.374 116.444C49.374 116.477 49.374 116.514 49.374 116.547C49.374 116.58 49.374 116.729 49.374 116.82C49.374 117.092 49.4277 117.365 49.4689 117.645C49.5102 117.926 49.5556 118.178 49.6175 118.442C49.6795 118.706 49.7538 119.012 49.8404 119.296V119.33C49.8404 119.387 49.8817 119.449 49.8982 119.507L50.0179 119.862C50.0551 119.957 50.084 120.052 50.1211 120.143C50.1583 120.234 50.1789 120.283 50.2078 120.349C50.2863 120.543 50.3688 120.733 50.4555 120.923L50.4803 120.985L50.6124 121.249C50.6949 121.414 50.7816 121.575 50.8683 121.736L50.9096 121.819V121.848C50.988 121.988 51.0664 122.124 51.149 122.26L51.2481 122.425C51.2459 122.435 51.2459 122.445 51.2481 122.454C51.3912 122.68 51.5439 122.907 51.7063 123.135L51.826 123.305C51.9911 123.528 52.1603 123.755 52.342 123.978C52.5236 124.2 52.7547 124.469 52.99 124.716L53.2583 124.993C53.2907 125.029 53.3251 125.064 53.3615 125.096C53.4606 125.199 53.5638 125.298 53.6753 125.402C54.1459 125.856 54.666 126.306 55.2067 126.751C55.5824 127.053 55.9745 127.354 56.3873 127.647L56.5194 127.746L56.99 128.068C57.3656 128.328 57.766 128.58 58.1995 128.828L58.3109 128.89H58.3315C58.443 128.956 58.5586 129.014 58.6742 129.076C58.7897 129.137 58.9714 129.245 59.1282 129.323L59.2438 129.385H59.2768C59.3122 129.402 59.3497 129.415 59.3883 129.422H59.541H59.5988H59.6442C59.6625 129.416 59.6793 129.406 59.6938 129.393C59.7047 129.383 59.7132 129.37 59.7185 129.356C59.7227 129.34 59.7227 129.323 59.7185 129.307L59.1943 127.874L58.6246 126.322C58.2531 125.336 57.8403 124.341 57.4853 123.358C57.1427 122.376 56.8166 121.389 56.5607 120.399C56.4905 120.122 56.4244 119.85 56.3625 119.573C56.3625 119.507 56.3378 119.441 56.3213 119.371C56.2676 119.115 56.2139 118.859 56.1685 118.603L56.119 118.343C56.0653 118.029 56.0158 117.711 55.9704 117.398C55.9456 117.257 55.9291 117.117 55.9085 116.985C55.8878 116.853 55.8631 116.646 55.8424 116.477C55.8424 116.386 55.8218 116.3 55.8135 116.209C55.7846 115.974 55.764 115.734 55.7433 115.499C55.7433 115.416 55.7433 115.338 55.7433 115.259C55.7186 114.954 55.7021 114.644 55.6938 114.339C55.6938 114.285 55.6938 114.232 55.6938 114.178C55.6938 113.918 55.6938 113.662 55.6938 113.402V112.919V112.415V112.395C55.6938 112.304 55.6938 112.217 55.6938 112.126C55.6938 111.953 55.7021 111.78 55.7186 111.606C55.7186 111.495 55.7186 111.383 55.7186 111.276V111.111C55.7475 110.632 55.7929 110.157 55.8507 109.678C55.8507 109.509 55.892 109.336 55.9167 109.167C55.9415 108.997 55.9539 108.869 55.9745 108.717L56.0364 108.304C56.0364 108.304 56.0364 108.275 56.0364 108.263L56.0983 107.755V107.693L56.185 107.742L56.3336 107.829H56.3584H56.3956L56.474 107.875H56.5029L56.5772 107.916L56.6102 107.936H56.6432H56.6639L56.7258 107.974L56.8496 108.044L56.9941 108.126L57.2005 108.246L57.572 108.461L57.6793 108.523L57.7908 108.589L58.0467 108.733L58.154 108.799L58.2655 108.861L58.3068 108.886L58.4678 108.981L58.5875 109.047L59.0457 109.315L59.4585 109.555L59.5369 109.6L59.7887 109.745L60.4079 110.104L60.701 110.273L60.9321 110.405L61.0972 110.5L61.3325 110.636L61.9435 110.987L62.2985 111.193L62.7443 111.453H62.769L62.8557 111.503L62.9961 111.586L63.1117 111.652L63.186 111.693L63.7721 112.031L63.8795 112.093L64.3707 112.378H64.3913L65.3325 112.923L65.9145 113.257L67.7803 114.335L68.0321 114.479L69.1508 115.123L69.9516 115.585L75.9164 119.032L78.0836 120.271L83.004 123.111L83.7223 123.523L84.3374 123.878L85.0308 124.291L86.0133 124.861L88.9028 126.512L89.3156 126.751L90.4054 127.383L94.6365 129.823L102.48 134.363C104.131 133.538 105.732 132.659 107.284 131.726L96.3372 125.431Z" fill="#2D1C8E"/>
<path d="M52.0324 99.85L44.5402 95.5239L39.1946 92.4404H39.1533C38.9345 92.2051 38.7405 91.9739 38.5135 91.7386L38.2245 91.396L37.9315 91.0493L37.8654 90.9626L37.7581 90.8222L37.692 90.7356C37.6466 90.6819 37.6054 90.6282 37.5641 90.5704L37.4691 90.4466L37.3948 90.3517L37.2875 90.2031C37.2627 90.1659 37.2421 90.1288 37.2173 90.0957L37.1802 90.0462L36.9449 89.6995C36.9449 89.6995 36.9449 89.6788 36.9449 89.6664L36.8004 89.4353L36.7633 89.3734L36.7179 89.299L36.594 89.0885C36.561 89.0307 36.5238 88.9729 36.495 88.9152L36.4454 88.8326C36.3835 88.7211 36.3216 88.6056 36.2638 88.49L36.2308 88.4198C36.2308 88.4198 36.2308 88.3909 36.2101 88.3785C36.1895 88.3661 36.14 88.234 36.1111 88.1639V88.1432V88.1061C36.1111 88.0731 36.0863 88.0442 36.0698 88.0111L35.9831 87.7965L35.9336 87.6561C35.9088 87.5901 35.884 87.5199 35.8634 87.4539L35.8262 87.3259C35.8262 87.2599 35.7891 87.1897 35.7726 87.1236C35.7726 87.0989 35.7726 87.0741 35.7726 87.0493V86.9915C35.7726 86.9214 35.7478 86.8512 35.7395 86.7852C35.7395 86.7439 35.7395 86.7026 35.7395 86.6654C35.7356 86.5871 35.7356 86.5085 35.7395 86.4302C35.7395 86.4013 35.7395 86.3765 35.7395 86.3476C35.7313 86.2446 35.7313 86.141 35.7395 86.038C35.7655 85.6936 35.9116 85.3693 36.1523 85.1216C36.1597 85.1088 36.1695 85.0976 36.1812 85.0886C36.2346 85.0446 36.2912 85.0046 36.3505 84.9689L36.4083 84.94C36.4466 84.9175 36.4866 84.8982 36.528 84.8822H36.5486L36.627 84.8574L36.7096 84.8327H36.7468H36.8169H36.8665L36.9697 84.812H37.0192H37.0894H37.143H37.3123H37.4237H37.5063H37.6012H38.3814H38.6827L39.0295 84.8533H39.1987C39.3762 84.8781 39.5496 84.9152 39.723 84.9524C39.9624 85.006 40.1977 85.0679 40.4288 85.1422C40.66 85.2165 40.8004 85.2743 40.982 85.3528L41.0976 85.3982C41.2751 85.4766 41.4484 85.5592 41.6218 85.65L41.9232 85.8151C42.1048 85.9183 42.2781 86.038 42.4515 86.1536C42.6249 86.2692 42.7157 86.327 42.8395 86.4219C43.0542 86.5788 43.2523 86.7397 43.4629 86.909C43.7683 87.169 44.0614 87.4456 44.3462 87.7346L44.5898 87.9781C44.7095 88.0978 44.8209 88.2258 44.9406 88.3496C45.0604 88.4735 45.2255 88.6468 45.3534 88.8037L45.436 88.8945L45.4773 88.9399C45.6218 89.105 45.7621 89.2701 45.8901 89.4394L46.0345 89.6128C46.34 89.9843 46.6372 90.3599 46.9262 90.7397V90.7645C47.1119 91.008 47.2936 91.2515 47.4752 91.4992L47.5206 91.5611L47.6197 91.7015L48.0737 92.3248C49.469 94.2979 50.7156 96.3619 51.954 98.4589L53.2749 100.717L52.0324 99.85Z" fill="#5A3AF9"/>
<path d="M85.7987 116.803L85.6543 116.778L85.4561 116.75L84.5727 116.597C84.3292 116.556 84.0856 116.502 83.838 116.452L83.2683 116.341L83.1362 116.312C82.6161 116.201 82.096 116.077 81.58 115.949L81.1672 115.841L80.3416 115.614C80.0733 115.54 79.8009 115.47 79.5161 115.391L78.3024 115.024L76.1312 113.744L75.0166 113.105L74.6369 112.886L68.0322 109.059L67.7598 108.902L66.2779 108.048L64.1313 106.81L66.282 107.222L68.0363 107.565L69.5472 107.862C70.4429 108.036 71.3263 108.217 72.2097 108.395L73.5099 108.663C74.3809 108.845 75.2519 109.026 76.1105 109.216H76.1436L76.2757 109.245C77.0682 109.418 77.8539 109.596 78.6327 109.778L80.7751 110.302C81.6639 110.519 82.5336 110.746 83.3839 110.983C84.9567 111.411 86.5067 111.92 88.0278 112.506C88.2755 112.601 88.5149 112.704 88.7502 112.807L88.8988 112.873C89.1258 112.977 89.3405 113.08 89.5469 113.187L89.5799 113.208C89.6955 113.266 89.8111 113.328 89.9184 113.389C90.0257 113.451 90.1537 113.53 90.261 113.6C90.2981 113.621 90.327 113.645 90.3642 113.67L90.5706 113.81L90.6779 113.897L90.8472 114.029C90.8843 114.058 90.9132 114.091 90.9504 114.124L91.0659 114.232L91.1031 114.269C91.1844 114.35 91.2602 114.437 91.3301 114.529C91.3549 114.558 91.3714 114.587 91.392 114.615C91.4127 114.644 91.4787 114.735 91.5159 114.793C91.5152 114.807 91.5152 114.82 91.5159 114.834C91.5403 114.873 91.5624 114.913 91.5819 114.954L91.6191 115.032C91.6553 115.112 91.6843 115.195 91.7058 115.28C91.7058 115.313 91.7058 115.346 91.7058 115.375C91.7058 115.404 91.7058 115.478 91.7305 115.532C91.7553 115.585 91.7305 115.581 91.7305 115.606C91.7347 115.683 91.7347 115.76 91.7305 115.837V115.907V115.965V116.015V116.077C91.7305 116.109 91.7234 116.142 91.7099 116.172C91.7099 116.205 91.681 116.234 91.6686 116.262C91.6323 116.33 91.5894 116.393 91.5407 116.452C91.4154 116.595 91.2544 116.702 91.0742 116.762C91.0038 116.788 90.9322 116.81 90.8596 116.828L90.7275 116.861L90.616 116.886H90.5128L90.3477 116.915L90.1165 116.948L89.9225 116.968L89.5964 116.997H89.4519C89.2744 116.997 89.0887 116.997 88.9029 116.997H88.5809H88.3993H88.1227L87.421 116.948L86.6573 116.873L85.7987 116.803Z" fill="#5A3AF9"/>
<path d="M45.2134 43H42.25V31.5771L38.7124 32.6743V30.2646L44.8955 28.0498H45.2134V43Z" fill="#5022ED"/>
<path d="M65.3735 43.0835C66.9916 43.0835 68.2203 42.5468 69.0597 41.4736C69.899 40.4003 70.3118 38.8482 70.298 36.8173V34.1177C70.2788 32.15 69.8454 30.6365 68.9978 29.577C68.1502 28.5175 66.9283 27.9918 65.3322 28.0001C63.7305 28.0001 62.5059 28.5312 61.6583 29.5935C60.8107 30.6557 60.3856 32.2106 60.3828 34.258V36.9577C60.4021 38.9253 60.8355 40.4389 61.6831 41.4984C62.5307 42.5578 63.7608 43.0862 65.3735 43.0835Z" fill="#5022ED"/>
<path d="M53.9906 43.0835C55.6088 43.0835 56.8375 42.5468 57.6769 41.4736C58.5162 40.4003 58.929 38.8482 58.9152 36.8173V34.1177C58.896 32.15 58.4625 30.6365 57.6149 29.577C56.7673 28.5175 55.5455 27.9918 53.9494 28.0001C52.3477 28.0001 51.1231 28.5312 50.2755 29.5935C49.4279 30.6557 49.0028 32.2106 49 34.258V36.9577C49.0193 38.9253 49.4527 40.4389 50.3003 41.4984C51.1479 42.5578 52.378 43.0862 53.9906 43.0835Z" fill="#5022ED"/>
<path d="M63.318 33.6185C63.2745 32.7623 63.4522 31.9093 63.834 31.1417C63.9905 30.8833 64.2149 30.6727 64.4827 30.533C64.7506 30.3932 65.0516 30.3296 65.3531 30.3491C65.6634 30.3302 65.9728 30.3972 66.2474 30.5429C66.522 30.6885 66.7511 30.9072 66.9093 31.1747C67.2451 31.7251 67.4116 32.6112 67.4088 33.8331V37.3336C67.4512 38.2154 67.2814 39.0945 66.9135 39.897C66.7597 40.1648 66.5339 40.3842 66.2617 40.5301C65.9896 40.6761 65.6819 40.7427 65.3737 40.7226C65.0557 40.7437 64.7384 40.6723 64.46 40.517C64.1817 40.3617 63.9542 40.1292 63.8051 39.8475C63.4282 39.0115 63.261 38.0961 63.318 37.1808V33.6185Z" fill="#E9F6FF"/>
<path d="M52.0109 33.2727C51.9673 32.4166 52.145 31.5636 52.5269 30.796C52.6834 30.5376 52.9077 30.327 53.1756 30.1873C53.4434 30.0475 53.7445 29.9839 54.046 30.0034C54.3562 29.9845 54.6657 30.0515 54.9403 30.1972C55.2149 30.3428 55.4439 30.5615 55.6022 30.829C55.9379 31.3794 56.1044 32.2655 56.1017 33.4874V36.9879C56.1441 37.8697 55.9742 38.7488 55.6063 39.5513C55.4526 39.8191 55.2268 40.0385 54.9546 40.1844C54.6824 40.3303 54.3748 40.397 54.0666 40.3769C53.7486 40.398 53.4312 40.3266 53.1529 40.1713C52.8746 40.016 52.6471 39.7835 52.498 39.5018C52.1211 38.6658 51.9539 37.7504 52.0109 36.8351V33.2727Z" fill="#E9F6FF"/>
<path d="M77.2126 43.0835C78.8307 43.0835 80.0608 42.5468 80.9029 41.4736C81.745 40.4003 82.1578 38.8482 82.1413 36.8173V34.1177C82.122 32.15 81.6886 30.6365 80.841 29.577C79.9934 28.5175 78.7702 27.9918 77.1713 28.0001C75.5724 28.0001 74.3492 28.5312 73.5016 29.5935C72.654 30.6557 72.2288 32.2106 72.2261 34.258V36.9577C72.2261 38.9267 72.676 40.4416 73.5264 41.4984C74.3767 42.5551 75.6027 43.0835 77.2126 43.0835Z" fill="#5022ED"/>
<path d="M75.157 33.6183C75.1166 32.7618 75.2956 31.9093 75.6771 31.1415C75.8333 30.8837 76.057 30.6736 76.324 30.5339C76.5911 30.3942 76.8913 30.3302 77.1921 30.349C77.5029 30.3297 77.8131 30.3965 78.0884 30.5422C78.3637 30.6879 78.5935 30.9067 78.7524 31.1745C79.0827 31.7249 79.2478 32.611 79.2478 33.8329V37.3334C79.2913 38.2148 79.1229 39.0939 78.7565 39.8968C78.6025 40.1653 78.376 40.3851 78.1031 40.531C77.8301 40.677 77.5216 40.7433 77.2127 40.7224C76.8954 40.7427 76.5789 40.6709 76.3014 40.5156C76.0238 40.3604 75.797 40.1283 75.6482 39.8473C75.2696 39.0117 75.1009 38.0963 75.157 37.1806V33.6183Z" fill="#E9F6FF"/>
<path d="M88.6491 40.683H91.4189V36.5675H95.0597V33.938H91.4189V30H88.6491V33.938H85V36.5675H88.6491V40.683Z" fill="#5022ED"/>
</g>
<defs>
<clipPath id="clip0">
<rect width="142" height="142" fill="white"/>
</clipPath>
</defs>
</svg>
