<svg width="16" height="16" viewBox="0 0 16 16" fill="none" xmlns="http://www.w3.org/2000/svg">
<path d="M3.58143 15.75H0.264286V5.23478H3.58143V15.75ZM1.92107 3.8004C0.860357 3.8004 0 2.93556 0 1.89142C7.59214e-09 1.38988 0.202398 0.908884 0.562669 0.554243C0.92294 0.199602 1.41157 0.000366211 1.92107 0.000366211C2.43057 0.000366211 2.9192 0.199602 3.27947 0.554243C3.63974 0.908884 3.84214 1.38988 3.84214 1.89142C3.84214 2.93556 2.98143 3.8004 1.92107 3.8004ZM15.9964 15.75H12.6864V10.6313C12.6864 9.41134 12.6614 7.84689 10.9618 7.84689C9.23714 7.84689 8.97286 9.17227 8.97286 10.5434V15.75H5.65929V5.23478H8.84071V6.66915H8.88714C9.33 5.84298 10.4118 4.97111 12.0257 4.97111C15.3829 4.97111 16 7.14728 16 9.97384V15.75H15.9964Z" fill="#7F88A0"/>
</svg>
