<svg width="142" height="142" viewBox="0 0 142 142" fill="none" xmlns="http://www.w3.org/2000/svg">
<path d="M142 71.0282C142 85.0639 137.838 98.7844 130.04 110.455C122.242 122.125 111.159 131.221 98.1916 136.592C85.2243 141.963 70.9554 143.369 57.1894 140.63C43.4234 137.892 30.7785 131.133 20.8538 121.209C10.929 111.284 4.17021 98.639 1.43198 84.873C-1.30625 71.107 0.0991073 56.8381 5.47034 43.8708C10.8416 30.9035 19.9374 19.8202 31.6077 12.0224C43.2779 4.22457 56.9984 0.0625 71.0341 0.0625C89.8554 0.0625 107.906 7.53923 121.215 20.8479C134.523 34.1565 142 52.207 142 71.0282Z" fill="#E9F6FF"/>
<path d="M135.811 73.9902L142 70.4131C141.916 58.1494 138.638 46.1192 132.49 35.5078L100.819 53.7939L135.811 73.9902Z" fill="#5A3AF9"/>
<path d="M124.881 92.8212L135.786 86.5251L135.794 86.5333V73.9905L100.811 53.79V66.3576L124.881 80.2537V92.8212Z" fill="#3F1ABA"/>
<path d="M135.811 86.533L139.767 88.8147C141.26 83.0039 142.01 77.0273 141.999 71.0278C141.999 70.8216 141.999 70.6153 141.999 70.4131L135.811 73.9903V86.533Z" fill="#2D1C8E"/>
<path d="M91.0403 74.6586C89.8134 74.1881 88.5089 73.9529 87.1949 73.9655C85.5192 73.9351 83.8633 74.3327 82.3841 75.1207C81.0514 75.8882 80.3872 76.8908 80.3789 77.9016C80.3989 78.3381 80.5155 78.7647 80.7203 79.1507C80.9251 79.5366 81.2129 79.8724 81.563 80.1337C81.6786 80.2286 81.8023 80.3235 81.9344 80.4143C81.8023 80.3235 81.6786 80.2286 81.563 80.1337L91.0403 74.6586Z" fill="#16DFB5"/>
<path d="M82.0874 81.813C81.9537 81.8577 81.8152 81.8867 81.6748 81.8996C81.8152 81.8867 81.9537 81.8577 82.0874 81.813Z" fill="#16DFB5"/>
<path d="M93.3145 73.8584C93.4671 73.9368 93.6198 74.0193 93.7683 74.106C93.8215 74.1363 93.8713 74.1723 93.9168 74.2132C93.8713 74.1723 93.8215 74.1363 93.7683 74.106C93.6033 74.0193 93.4506 73.9368 93.3145 73.8584Z" fill="#16DFB5"/>
<path d="M100.811 66.3574L89.8936 60.0571L58.9492 77.9182C59.0656 78.4825 59.1128 79.0589 59.0895 79.6346C59.0895 79.548 59.0895 79.4654 59.0895 79.3829V82.6836L89.8936 100.47L100.811 94.1331L124.881 80.237L100.811 66.3574ZM106.174 80.2535L100.811 83.3397L91.1685 88.9055C90.9312 89.0254 90.672 89.0956 90.4067 89.1119C90.1414 89.1282 89.8756 89.0903 89.6254 89.0004L76.6411 84.202C76.5107 84.1683 76.3909 84.1022 76.2928 84.0099C76.1948 83.9176 76.1216 83.802 76.08 83.6739C76.0718 83.5511 76.1019 83.4287 76.1662 83.3238C76.2305 83.2188 76.3258 83.1364 76.439 83.088L79.7851 81.1571C78.5267 80.1998 77.8954 79.0487 77.9037 77.9017C77.9037 76.5319 78.8279 75.1539 80.6392 74.1059C82.6578 73.0316 84.9172 72.4905 87.2035 72.5339C89.1305 72.5129 91.0415 72.8864 92.8189 73.6314L96.165 71.7005C96.4748 71.5392 96.8235 71.4677 97.1717 71.4942C97.5023 71.5015 97.8213 71.6175 98.0794 71.8242L100.811 74.2998L106.327 79.3417C106.641 79.6428 106.566 80.0142 106.158 80.2535H106.174Z" fill="#16DFB5"/>
<path d="M100.811 76.9981L96.813 73.3467L93.8052 75.0837L93.7433 75.1208L93.6773 75.158L82.4095 81.6604L82.3476 81.7017C82.3269 81.7151 82.3047 81.7262 82.2815 81.7347L79.2861 83.4717L90.1373 87.4862L100.819 81.318L103.707 79.6428L100.811 76.9981Z" fill="#16DFB5"/>
<path d="M59.0901 82.667V85.6418C59.0901 85.7243 59.0901 85.8068 59.0901 85.8893C58.9993 88.3649 57.6419 90.8157 55.0508 92.9034L79.0017 106.733V119.272L89.9065 112.976V100.454L59.0901 82.667Z" fill="#0F9C7F"/>
<path d="M100.811 94.1495L89.8936 100.454V112.968H89.8977L100.798 119.264V106.725L100.811 106.721L124.881 92.821V80.2534L100.811 94.1495Z" fill="#0C7B64"/>
<path d="M42.7509 97.6978L41.8721 97.8133L42.7509 97.6978Z" fill="#5A3AF9"/>
<path d="M41.4838 97.8462C41.2197 97.8751 40.9516 97.8998 40.6875 97.9205C40.9516 97.9081 41.2197 97.8833 41.4838 97.8462Z" fill="#5A3AF9"/>
<path d="M30.9422 97.4336C30.5997 97.3675 30.2573 97.2974 29.9189 97.2231C30.2573 97.3057 30.5997 97.3758 30.9422 97.4336Z" fill="#5A3AF9"/>
<path d="M32.3249 97.6734C31.9123 97.6156 31.4997 97.5496 31.1201 97.4795C31.5203 97.5496 31.9205 97.6156 32.3249 97.6734Z" fill="#5A3AF9"/>
<path d="M33.3939 97.8132C33.167 97.7884 32.9359 97.7596 32.709 97.7266C32.9359 97.7596 33.167 97.7884 33.3939 97.8132Z" fill="#5A3AF9"/>
<path d="M44.1369 97.4751C43.7656 97.5411 43.3901 97.6071 43.0146 97.6608C43.3901 97.6071 43.7656 97.5411 44.1369 97.4751Z" fill="#5A3AF9"/>
<path d="M29.5808 97.1572C29.2507 97.0788 28.9207 96.9963 28.5947 96.9097C28.9207 96.9963 29.2507 97.0788 29.5808 97.1572Z" fill="#5A3AF9"/>
<path d="M28.4008 96.8601C28.0212 96.7583 27.6457 96.6469 27.2744 96.5259C27.6457 96.6469 28.0212 96.7583 28.4008 96.8601Z" fill="#5A3AF9"/>
<path d="M34.5035 97.9246L33.8145 97.8462L34.5035 97.9246Z" fill="#5A3AF9"/>
<path d="M38.1295 98.0527C37.7911 98.0527 37.4487 98.0527 37.1104 98.0527C37.4487 98.061 37.7911 98.061 38.1295 98.0527Z" fill="#5A3AF9"/>
<path d="M35.6587 98.0029L34.916 97.9575L35.6587 98.0029Z" fill="#5A3AF9"/>
<path d="M40.3126 97.9575C39.9866 97.9823 39.6648 98.0029 39.3389 98.0153C39.6772 98.0029 39.9866 97.9823 40.3126 97.9575Z" fill="#5A3AF9"/>
<path d="M37.1112 98.0528C36.744 98.0528 36.3768 98.0528 36.0137 98.0239C36.3768 98.0363 36.744 98.0487 37.1112 98.0528Z" fill="#5A3AF9"/>
<path d="M26.8867 96.4023L26.9734 96.4312L26.8867 96.4023Z" fill="#5A3AF9"/>
<path d="M46.4148 96.9673C46.1549 97.0374 45.8949 97.0993 45.6309 97.1612C45.8949 97.0993 46.1549 97.0209 46.4148 96.9673Z" fill="#5A3AF9"/>
<path d="M45.2637 97.2441C44.979 97.3102 44.6902 97.3679 44.4014 97.4216C44.6902 97.3679 44.979 97.3102 45.2637 97.2441Z" fill="#5A3AF9"/>
<path d="M51.3326 95.1934L51.0645 95.3171L51.3326 95.1934Z" fill="#5A3AF9"/>
<path d="M50.5242 95.5645L50.1982 95.7006L50.5242 95.5645Z" fill="#5A3AF9"/>
<path d="M40.7007 91.6572L40.3252 91.6902L40.7007 91.6572Z" fill="#5A3AF9"/>
<path d="M47.8094 96.5713C47.4628 96.6827 47.108 96.7817 46.749 96.8807C47.1039 96.7817 47.4628 96.6827 47.8094 96.5713Z" fill="#5A3AF9"/>
<path d="M49.6947 95.9072L49.3398 96.0434L49.6947 95.9072Z" fill="#5A3AF9"/>
<path d="M48.8742 96.2168C48.5276 96.3406 48.181 96.4561 47.8262 96.5675C48.181 96.4561 48.5276 96.3406 48.8742 96.2168Z" fill="#5A3AF9"/>
<path d="M41.8888 91.5542L41.501 91.5955L41.8888 91.5542Z" fill="#5A3AF9"/>
<path d="M46.7658 90.6216L46.4316 90.7124L46.7658 90.6216Z" fill="#5A3AF9"/>
<path d="M45.6475 90.9028L45.2803 90.9895L45.6475 90.9028Z" fill="#5A3AF9"/>
<path d="M48.993 89.9201L49.352 89.7881L48.8857 89.9572L48.993 89.9201Z" fill="#5A3AF9"/>
<path d="M44.216 91.2078L44.4181 91.1665L44.1582 91.216L44.216 91.2078Z" fill="#5A3AF9"/>
<path d="M43.0319 91.4058L42.7637 91.4388L43.0319 91.4058Z" fill="#5A3AF9"/>
<path d="M55.0376 92.895L54.9097 93.0023C54.2551 93.5142 53.5658 93.9802 52.8467 94.3969C52.6157 94.533 52.3723 94.6692 52.1288 94.8094C51.8854 94.9497 51.609 95.0776 51.3449 95.222L51.0767 95.3458L50.5362 95.5934L50.2103 95.7295L49.7069 95.9358L49.3521 96.072L48.989 96.204L48.8859 96.2453C48.5393 96.369 48.1927 96.4846 47.8379 96.596C47.4913 96.7074 47.1365 96.8064 46.7775 96.9054L46.4433 96.9921C46.1834 97.0622 45.9235 97.1241 45.6594 97.186L45.2922 97.2685C45.0075 97.3345 44.7187 97.3923 44.4299 97.4459L44.2236 97.4872H44.1658C43.7945 97.5532 43.419 97.6192 43.0436 97.6728L42.7795 97.71L41.9007 97.8255L41.5129 97.8667C41.2488 97.8956 40.9806 97.9204 40.7166 97.941L40.3411 97.9699C40.0152 97.9947 39.6933 98.0153 39.3674 98.0277H39.2106H39.1776H38.4968H38.1585C37.8202 98.0277 37.4777 98.0277 37.1394 98.0277C36.8011 98.0277 36.405 98.0277 36.0419 97.9988L35.6871 97.9782L34.9444 97.9328L34.5318 97.8998L33.8139 97.8461L33.4013 97.8007C33.1744 97.776 32.9433 97.7471 32.7164 97.7141L32.4482 97.677H32.3327C31.9201 97.6192 31.5075 97.5532 31.1279 97.483L30.9505 97.4459C30.6081 97.3799 30.2656 97.3098 29.9273 97.2355L29.589 97.1612C29.2589 97.0828 28.9288 97.0003 28.6029 96.9137L28.409 96.8641C28.0294 96.7624 27.6539 96.651 27.2826 96.53L26.9938 96.4351L26.8865 96.402L9.52051 106.436C9.68967 106.729 9.86708 107.022 10.0404 107.315L44.0049 126.926L54.9097 120.629L78.9885 106.725L55.0376 92.895Z" fill="#5A3AF9"/>
<path d="M10.041 107.336C17.904 120.522 29.8173 130.815 44.0056 136.679V126.926L10.041 107.336Z" fill="#3F1ABA"/>
<path d="M78.9885 119.264V106.726L54.9097 120.63L44.0049 126.926V136.659C47.5392 138.117 51.1861 139.286 54.9097 140.154V133.169L78.9885 119.264Z" fill="#2D1C8E"/>
<path d="M100.811 106.734V106.721L100.799 106.725L100.811 106.734Z" fill="#5A3AF9"/>
<path d="M135.811 86.5332L124.907 92.8252L100.836 106.725L122.91 119.466C123.589 118.74 124.255 117.999 124.907 117.242C131.97 109.026 137.051 99.2974 139.76 88.8066L135.811 86.5332Z" fill="#5A3AF9"/>
<path d="M100.799 119.264L100.811 119.268V106.734L100.799 106.726V119.264Z" fill="#3F1ABA"/>
<path d="M100.811 119.268L114.463 127.14C117.469 124.808 120.285 122.241 122.884 119.462L100.811 106.721V119.268Z" fill="#3F1ABA"/>
<path d="M114.464 127.14L100.811 119.256L100.225 118.918L89.9104 112.956L79.0056 119.252L54.9268 133.156L70.1926 141.969H71.0467C73.7045 141.967 76.3601 141.818 79.0015 141.523C86.5521 140.685 93.9173 138.63 100.811 135.438V135.392V135.479C105.662 133.224 110.242 130.426 114.464 127.14Z" fill="#5A3AF9"/>
<path d="M54.9102 140.154C59.918 141.311 65.0364 141.924 70.176 141.981L54.9102 133.168V140.154Z" fill="#3F1ABA"/>
<path d="M93.0503 75.3228C92.9008 75.3391 92.75 75.3391 92.6006 75.3228C92.75 75.3391 92.9008 75.3391 93.0503 75.3228Z" fill="#2D1C8E"/>
<path d="M106.328 79.3581L100.811 74.3286L98.0798 71.853C97.8217 71.6463 97.5027 71.5303 97.1721 71.523C96.8239 71.4965 96.4752 71.568 96.1654 71.7292L92.8193 73.6602C91.0419 72.9152 89.131 72.5417 87.2039 72.5627C84.9176 72.5193 82.6582 73.0604 80.6396 74.1347C78.8283 75.1826 77.9123 76.5607 77.9041 77.9305C77.9041 79.0775 78.5271 80.2286 79.7855 81.1858L76.4394 83.1168C76.3262 83.1652 76.2309 83.2476 76.1666 83.3526C76.1023 83.4575 76.0722 83.5798 76.0804 83.7027C76.122 83.8308 76.1952 83.9464 76.2933 84.0387C76.3913 84.131 76.5111 84.1971 76.6416 84.2308L89.6258 89.0292C89.876 89.1191 90.1418 89.157 90.4071 89.1407C90.6724 89.1244 90.9316 89.0542 91.1689 88.9343L100.811 83.3685L106.175 80.2823C106.567 80.0141 106.641 79.6428 106.328 79.3581ZM82.3972 75.1207C83.8764 74.3327 85.5323 73.9351 87.208 73.9655C88.522 73.9529 89.8265 74.1881 91.0534 74.6586L81.5638 80.1337C81.2136 79.8724 80.9258 79.5367 80.721 79.1507C80.5163 78.7647 80.3997 78.3381 80.3796 77.9016C80.3879 76.8908 81.0522 75.8882 82.3848 75.1207H82.3972ZM81.44 81.9079C81.3658 81.912 81.2914 81.912 81.2172 81.9079C81.2873 81.9115 81.3575 81.9115 81.4276 81.9079H81.44ZM100.832 81.3179L90.1498 87.4861L79.2863 83.4716L82.2899 81.7346C82.3131 81.7261 82.3352 81.715 82.356 81.7016L82.4178 81.6603L93.6775 75.1538L93.7435 75.1166L93.8054 75.0795L96.8132 73.3425L100.811 76.9939L103.699 79.6386L100.832 81.3179Z" fill="#2D1C8E"/>
<path d="M58.483 82.3163C57.6901 84.0767 56.4601 85.605 54.9099 86.7558C54.2549 87.2647 53.5656 87.7279 52.847 88.1421C52.6159 88.2783 52.3725 88.4103 52.125 88.5547C51.8774 88.6991 51.6092 88.8188 51.341 88.9673C51.2544 89.0127 51.1636 89.0498 51.077 89.0911C50.8954 89.1736 50.718 89.2603 50.5365 89.3387L50.2064 89.4748L49.7072 89.6811L49.5298 89.7512L49.3482 89.8214L48.9893 89.9534V96.2083L49.3523 96.0763L49.7072 95.9401L50.2105 95.7338L50.5365 95.5977L51.077 95.3501L51.3452 95.2263C51.6092 95.0984 51.8691 94.9664 52.1291 94.8137C52.389 94.6611 52.6159 94.5497 52.847 94.4011C53.566 93.9845 54.2553 93.5185 54.9099 93.0066V92.825L55.0378 92.8993C57.6289 90.8364 58.9864 88.3608 59.0771 85.8853V82.6588V79.6304C59.0442 80.5544 58.8429 81.4646 58.483 82.3163Z" fill="#8D6E1C"/>
<path d="M54.9102 92.8213V93.0028L55.0381 92.8956L54.9102 92.8213Z" fill="#8D6E1C"/>
<path d="M48.8857 89.958C48.5432 90.0818 48.1925 90.2015 47.8418 90.3129C47.4911 90.4201 47.1404 90.5233 46.7815 90.6182L46.4473 90.7089C46.1874 90.775 45.9274 90.841 45.6634 90.8987L45.2962 90.9854L44.4297 91.1628L44.2275 91.2041V97.4589L44.4338 97.4177C44.7226 97.3641 45.0115 97.3063 45.2962 97.2403L45.6634 97.1578C45.9274 97.0959 46.1874 97.034 46.4473 96.9638L46.7815 96.8772C47.1404 96.7782 47.4953 96.6791 47.8418 96.5677C48.1967 96.4563 48.5432 96.3408 48.8898 96.2171L48.993 96.1758V89.9209L48.8857 89.958Z" fill="#90711D"/>
<path d="M44.1535 91.2158C43.7821 91.286 43.4067 91.3479 43.0312 91.4056L42.763 91.4386C42.4742 91.4799 42.1813 91.5211 41.8883 91.5541L41.5005 91.5954C41.2364 91.6243 40.9683 91.649 40.7001 91.6697L40.3246 91.7027L39.3509 91.7604H39.1982V98.0153H39.355C39.681 98.0153 40.0028 97.9823 40.3287 97.9576L40.7042 97.9287C40.9683 97.9287 41.2364 97.8833 41.5005 97.8544L41.8883 97.8132L42.7672 97.6976L43.0312 97.6605C43.4067 97.6069 43.7821 97.5409 44.1535 97.4748H44.2112V91.22L44.1535 91.2158Z" fill="#987A23"/>
<path d="M39.1658 91.7688H38.4809H38.1467H37.1276C36.7604 91.7688 36.3932 91.7688 36.0301 91.7358H35.6711L35.0316 91.6986H34.9285L34.5159 91.6656L33.8268 91.5996L33.4142 91.5542C33.1832 91.5295 32.9563 91.5006 32.7252 91.4676L32.457 91.4346V93.1963V97.6895L32.7252 97.7266C32.9521 97.7596 33.1832 97.7885 33.4101 97.8132L33.8227 97.8586L34.5117 97.9246L34.9243 97.9576L35.667 98.003L36.0218 98.0237C36.3849 98.0237 36.7521 98.0484 37.1193 98.0525C37.4865 98.0567 37.8001 98.0525 38.1384 98.0525H38.4767H39.1575H39.1905V91.7976L39.1658 91.7688Z" fill="#A68518"/>
<path d="M32.3408 91.4181C31.9282 91.3562 31.5157 91.2943 31.1361 91.2201L30.9587 91.1871C30.6162 91.1211 30.2738 91.0509 29.9354 90.9767L29.5971 90.8983C29.2629 90.8199 28.937 90.7415 28.611 90.6507C28.545 90.6507 28.479 90.6218 28.4171 90.6012C28.0375 90.498 27.662 90.3866 27.2866 90.267L26.9978 90.1721C26.709 90.0772 26.4201 89.9782 26.1396 89.875L25.8466 89.7678C25.4877 89.6316 25.1329 89.4913 24.7863 89.3552L24.6501 89.2974C24.3448 89.1612 24.0477 89.0251 23.7548 88.8848C23.6558 88.8394 23.5609 88.7899 23.466 88.7404C23.1896 88.6001 22.9214 88.4598 22.6408 88.3278L22.5047 88.2535L22.4056 88.1958C22.1705 88.0596 21.9394 87.9193 21.7125 87.7832C21.4856 87.647 21.238 87.4737 21.0111 87.317L20.8667 87.2097L20.6439 87.0488L20.3592 86.8384L20.1157 86.6403L20.0539 86.5908C19.992 86.5413 19.926 86.4918 19.8682 86.4381L19.7527 86.3474L19.5134 86.1287C19.4061 86.0338 19.2947 85.9389 19.1915 85.8399L19.1585 85.811L19.1338 85.7821L18.9646 85.613L18.6799 85.3283L18.5438 85.1797L18.4736 85.1055V91.3562L18.5644 91.4553C18.7267 91.6285 18.8959 91.8018 19.0719 91.9751L19.1833 92.0906C19.402 92.2969 19.6289 92.5032 19.8682 92.6972L20.0539 92.8498C20.2436 93.0025 20.4417 93.1551 20.648 93.3037L20.8749 93.4728C21.1431 93.6626 21.4195 93.8524 21.7001 94.0381C21.9807 94.2237 22.1952 94.3393 22.4469 94.4878L22.4923 94.5126L22.6284 94.5868C22.8966 94.7354 23.1689 94.8798 23.4536 95.02L23.7424 95.1645C24.0354 95.3047 24.3366 95.445 24.6419 95.577L24.7739 95.6348C25.1205 95.7833 25.4753 95.9277 25.8343 96.0474L26.1272 96.1505C26.383 96.2454 26.6429 96.3362 26.9029 96.4229L26.9895 96.4517L27.2783 96.5466C27.6497 96.6677 28.0251 96.7791 28.4047 96.8808L28.5986 96.9303C28.9246 97.017 29.2547 97.0995 29.5847 97.1779L29.923 97.2522C30.2614 97.3264 30.6038 97.3966 30.9463 97.4626L31.1237 97.4997C31.5363 97.5699 31.9241 97.6359 32.3285 97.6936H32.444V93.2005V91.4388L32.3408 91.4181Z" fill="#B9951A"/>
<path d="M18.4001 84.9611C18.3423 84.8951 18.2804 84.829 18.2227 84.7589C18.1649 84.6888 18.0948 84.598 18.0287 84.5155C17.9627 84.433 17.9338 84.3999 17.8926 84.3422C17.8513 84.2844 17.8307 84.2638 17.8018 84.2267L17.6244 83.9708C17.5666 83.8883 17.5047 83.8058 17.4511 83.7233L17.4181 83.6697C17.3645 83.5913 17.3191 83.5046 17.2696 83.4221C17.2201 83.3396 17.1499 83.2282 17.0963 83.1333L17.0426 83.0343L16.9725 82.8981V82.8692C16.9189 82.7702 16.8694 82.6753 16.824 82.5763C16.7786 82.4773 16.7662 82.4484 16.7415 82.3865L16.7002 82.3081V88.5506L16.7621 88.6868C16.8281 88.8394 16.9024 88.9921 16.9808 89.1406C17.0138 89.2108 17.0509 89.2768 17.088 89.3469C17.1871 89.5285 17.2943 89.71 17.4057 89.8874C17.4057 89.9163 17.4429 89.9493 17.4635 89.9823C17.5996 90.1886 17.7482 90.3949 17.905 90.6012L18.0452 90.7745C18.1608 90.923 18.2845 91.0716 18.4124 91.2201L18.4991 91.315V85.0642L18.4001 84.9611Z" fill="#A68518"/>
<path d="M16.6586 82.2256L16.5719 82.011C16.5389 81.9244 16.5059 81.8336 16.477 81.7428C16.4482 81.6521 16.4399 81.6479 16.4234 81.5984V81.5489C16.4234 81.5159 16.4234 81.4829 16.3945 81.4458L16.3203 81.1735L16.246 80.8764C16.2479 80.8544 16.2479 80.8323 16.246 80.8104C16.246 80.7485 16.246 80.6825 16.2171 80.6206C16.1882 80.5587 16.18 80.4225 16.1676 80.3235C16.1552 80.2245 16.1676 80.1915 16.1428 80.1255C16.1181 80.0595 16.1428 80.0306 16.1428 79.9852C16.1428 79.9398 16.1428 79.8284 16.1428 79.75C16.1428 79.6716 16.1428 79.5644 16.1428 79.4736C16.1428 79.3828 16.1428 79.3581 16.1428 79.3003V84.7506C16.1535 86.0267 16.3566 87.2938 16.7452 88.5093L16.77 88.5671V82.3246C16.6751 82.2792 16.6668 82.2503 16.6586 82.2256Z" fill="#987A23"/>
<path d="M34.1855 77.1137C34.1855 77.1137 34.1855 77.1137 34.1855 77.0931C34.1855 77.0725 34.1897 77.1055 34.1855 77.1137Z" fill="#F8C63A"/>
<path d="M18.4785 85.0562C18.5033 85.085 18.5322 85.1139 18.5569 85.1469L18.4785 85.0562Z" fill="#F8C63A"/>
<path d="M16.1924 80.6782C16.1944 80.7167 16.1944 80.7553 16.1924 80.7937C16.1943 80.8157 16.1943 80.8378 16.1924 80.8598V80.6782Z" fill="#F8C63A"/>
<path d="M16.6963 82.3081C16.7048 82.3352 16.7158 82.3615 16.7293 82.3865C16.7278 82.4016 16.7278 82.4168 16.7293 82.4319C16.7293 82.3906 16.7128 82.3494 16.6963 82.3081Z" fill="#F8C63A"/>
<path d="M19.0811 85.6748C19.1058 85.6996 19.1223 85.7202 19.1471 85.7408L19.1718 85.7697L19.1966 85.7903L19.0811 85.6748Z" fill="#F8C63A"/>
<path d="M17.3975 83.6289L17.4222 83.6702L17.3975 83.6289Z" fill="#F8C63A"/>
<path d="M36.5127 77.3778L39.9455 80.9302C40.0335 81.0163 40.1319 81.0912 40.2384 81.153C40.5435 81.3196 40.8816 81.4168 41.2286 81.4377C41.6026 81.4717 41.9796 81.4324 42.3385 81.3221L43.9435 80.7981C44.1477 80.7351 44.3443 80.6493 44.5293 80.5423C44.7063 80.4543 44.8636 80.3314 44.9919 80.1811C45.1202 80.0308 45.2169 79.8562 45.2761 79.6676C45.3146 79.4911 45.3055 79.3075 45.2496 79.1357C45.1938 78.9639 45.0933 78.81 44.9584 78.6898L44.6531 78.3762L44.6242 78.3473L41.9754 75.6201L36.5127 77.3778Z" fill="#F8C63A"/>
<path d="M16.9844 82.8818L17.0545 83.018C17.0545 83.0386 17.0545 83.0551 17.0834 83.0716C17.0339 83.0221 16.9844 82.952 16.9844 82.8818Z" fill="#F8C63A"/>
<path d="M29.309 79.717L28.6777 79.0651L29.309 79.717L29.6886 80.1048L29.7133 80.1296L33.0141 83.5252C33.1021 83.6113 33.2005 83.6862 33.307 83.748C33.6141 83.9134 33.9533 84.0105 34.3014 84.0327C34.6756 84.0675 35.053 84.0268 35.4112 83.913L37.8208 83.1332C37.9534 83.0882 38.0818 83.0316 38.2045 82.9641C38.3214 82.9057 38.4255 82.8246 38.5105 82.7254C38.5955 82.6262 38.6598 82.5109 38.6996 82.3864C38.7233 82.2701 38.7164 82.1496 38.6795 82.0368C38.6426 81.9239 38.577 81.8226 38.4892 81.7428L37.3958 80.6205C37.3701 80.5947 37.3479 80.5656 37.3298 80.5339L34.8006 77.9346L29.309 79.717Z" fill="#F8C63A"/>
<path d="M20.8096 87.1191L20.8797 87.1686L20.8096 87.1191Z" fill="#F8C63A"/>
<path d="M16.0974 80.0308C16.0974 80.0555 16.0974 80.0844 16.0974 80.1091C16.0951 80.1283 16.0951 80.1477 16.0974 80.1669C16.1098 80.105 16.1015 80.0761 16.0974 80.0308Z" fill="#F8C63A"/>
<path d="M35.9634 76.8043C35.9345 76.7837 35.9139 76.7589 35.8809 76.7383C35.8974 76.7713 35.918 76.8043 35.9634 76.8043Z" fill="#F8C63A"/>
<path d="M36.2692 77.126L36.0299 76.8785C36.0099 76.852 35.9878 76.8271 35.9639 76.8042C35.9931 76.8225 36.0207 76.8432 36.0464 76.8661L36.2692 77.126Z" fill="#F8C63A"/>
<path d="M58.9494 77.9183C58.4461 75.4015 56.6142 72.9673 53.429 70.9332C53.2007 70.7874 52.9696 70.6499 52.7358 70.5206C48.6842 68.1812 43.3782 66.9558 38.031 66.8815C32.6839 66.8073 27.2748 67.8841 23.0251 70.1369C22.7775 70.2689 22.5382 70.4009 22.3031 70.5495C18.272 72.893 16.1761 75.9627 16.0605 79.0612C16.0605 79.1974 16.0605 79.3377 16.0605 79.4738C16.0605 79.61 16.0605 79.6554 16.0605 79.7503C16.0605 79.8452 16.0605 79.9483 16.0853 80.0473C16.1101 80.1463 16.0853 80.1381 16.0853 80.1835C16.0853 80.2289 16.0853 80.2784 16.0853 80.3238C16.0853 80.3691 16.1142 80.5218 16.1348 80.6208V80.6951L16.1719 80.889L16.2462 81.1861L16.3205 81.4584C16.3494 81.5574 16.3865 81.6564 16.4195 81.7555C16.4525 81.8545 16.4814 81.937 16.5144 82.0236C16.5474 82.1103 16.5928 82.2217 16.6382 82.3207C16.6836 82.4197 16.6712 82.4032 16.6918 82.4445C16.7124 82.4857 16.7289 82.5394 16.7537 82.5889C16.7785 82.6384 16.8486 82.7828 16.9022 82.8818C16.9394 82.952 16.9724 83.0221 17.0095 83.0881L17.0343 83.1335C17.0879 83.2284 17.1457 83.3274 17.2076 83.4223L17.3313 83.6286L17.3643 83.6823C17.4262 83.7813 17.4964 83.8762 17.5624 83.9711L17.8099 84.231C17.8801 84.3259 17.9585 84.4208 18.0369 84.5157C18.1029 84.5982 18.1648 84.6807 18.2308 84.7591C18.2968 84.8375 18.3999 84.953 18.4866 85.0479L18.5856 85.1552L18.7011 85.2872L18.9858 85.5719C19.0188 85.6091 19.056 85.6421 19.089 85.6751L19.2045 85.7906C19.3076 85.8896 19.419 85.9845 19.5263 86.0794L19.7656 86.2981L20.1287 86.591L20.3721 86.7891L20.8095 87.1109L20.8837 87.1645L21.024 87.2677C21.2509 87.4245 21.482 87.5812 21.7254 87.7339C21.9689 87.8866 22.1834 88.0145 22.4186 88.1465L22.6538 88.2785C22.9219 88.4271 23.1901 88.5673 23.4789 88.6911C23.5738 88.7406 23.6687 88.7901 23.7678 88.8355C24.0607 88.9799 24.3578 89.1161 24.6631 89.2481L24.7992 89.3059C25.1458 89.4585 25.5006 89.5988 25.8596 89.7185L26.1525 89.8257C26.4331 89.9289 26.7219 90.0279 27.0107 90.1228L27.2995 90.2177C27.675 90.3374 28.0505 90.4488 28.43 90.5519C28.4919 90.5725 28.5579 90.5849 28.624 90.6014C28.9499 90.6922 29.2759 90.7706 29.6101 90.849L29.9484 90.9274C30.2867 91.0016 30.6292 91.0718 30.9716 91.1378L31.149 91.1708C31.5616 91.2451 31.9494 91.3069 32.3538 91.3688L32.7334 91.4183C32.9644 91.4514 33.1913 91.4802 33.4224 91.505L33.835 91.5504L34.524 91.6164L34.9366 91.6494H35.0398L35.6793 91.6865H36.0382C36.4013 91.6865 36.7685 91.7154 37.1357 91.7195H38.1548H38.489H39.1739H39.3596L40.3333 91.6618L40.7088 91.6288C40.977 91.6081 41.2451 91.5834 41.5092 91.5545L41.897 91.5132C42.19 91.4802 42.4829 91.439 42.7717 91.3977L43.0399 91.3647C43.4154 91.3069 43.7908 91.2451 44.1622 91.1749L44.4221 91.1254L45.2885 90.948L45.6557 90.8613C45.9198 90.8036 46.1797 90.7376 46.4397 90.6716L46.7739 90.5808C47.1328 90.4859 47.4835 90.3827 47.8342 90.2755C48.1849 90.1641 48.5356 90.0444 48.8781 89.9206L49.3443 89.7515L49.5258 89.6813L49.7033 89.6112L50.2025 89.4049L50.5326 89.2687C50.7141 89.1904 50.8915 89.1037 51.0731 89.0212C51.1597 88.9799 51.2505 88.9428 51.3371 88.8974C51.6053 88.7695 51.8652 88.6416 52.1211 88.4848C52.3769 88.328 52.612 88.2208 52.8431 88.0722C53.5617 87.658 54.251 87.1948 54.906 86.6859C56.4562 85.5351 57.6862 84.0068 58.4791 82.2464C58.8427 81.3968 59.0483 80.488 59.0856 79.5646C59.1046 79.0124 59.0589 78.4599 58.9494 77.9183ZM34.0165 85.1635C33.2806 85.1138 32.5642 84.9055 31.9164 84.5528C31.6888 84.4244 31.4793 84.2663 31.2934 84.0825L30.7406 83.509L28.5373 84.231C28.1482 84.3559 27.7255 84.3218 27.3614 84.1361C27.3007 84.103 27.2452 84.0613 27.1964 84.0123C26.9282 83.7359 27.0974 83.3893 27.5719 83.2367L29.7751 82.5146L28.4713 81.1696L26.2722 81.8834C25.8831 82.0083 25.4604 81.9741 25.0963 81.7885C25.0359 81.755 24.9803 81.7133 24.9313 81.6647C24.6631 81.3882 24.8322 81.0417 25.3067 80.889L27.5017 80.1752L27.118 79.7626L25.6162 78.2154C25.348 77.9431 25.5171 77.5924 25.9916 77.4397C26.3821 77.3146 26.8062 77.3487 27.1716 77.5346C27.2302 77.5691 27.2842 77.6107 27.3326 77.6584L28.3475 78.7023L34.6643 76.6393C34.5615 76.6718 34.4651 76.7221 34.3796 76.7879C34.4651 76.7221 34.5615 76.6718 34.6643 76.6393C35.0584 76.5081 35.4884 76.5377 35.8608 76.7218C35.5068 76.5435 35.0982 76.5066 34.7179 76.6187L41.0141 74.5557L39.9991 73.5119C39.7309 73.2354 39.9001 72.8889 40.3746 72.7362C40.765 72.6111 41.1891 72.6452 41.5546 72.8311C41.6131 72.8656 41.6672 72.9071 41.7155 72.9549L43.1967 74.4773L43.2297 74.5145L43.601 74.894L45.796 74.1803C46.1865 74.0551 46.6106 74.0892 46.976 74.2752C47.0369 74.3097 47.0924 74.3528 47.1411 74.4031C47.4051 74.6754 47.2401 75.022 46.7656 75.1787L44.5706 75.8925L45.8744 77.2334L46.6666 78.0586L45.8744 77.2334L48.0694 76.5238C48.4596 76.3996 48.8828 76.4322 49.2494 76.6146C49.3102 76.6491 49.3658 76.6922 49.4144 76.7425C49.6785 77.0148 49.5135 77.3655 49.039 77.5181L46.8316 78.236C47.0175 78.439 47.1519 78.6835 47.2237 78.9491C47.2955 79.2148 47.3025 79.4937 47.2442 79.7626C47.1393 80.0899 46.9698 80.3929 46.7459 80.6537C46.522 80.9144 46.2481 81.1277 45.9404 81.281C45.6184 81.4642 45.2783 81.6135 44.9255 81.7266L43.3246 82.2464C42.5631 82.4826 41.7629 82.5681 40.9687 82.4981C40.8697 82.4981 40.7665 82.4981 40.6716 82.4651C40.6697 82.4774 40.6697 82.4899 40.6716 82.5022C40.5872 82.7649 40.451 83.0079 40.271 83.217C40.091 83.4261 39.8708 83.5969 39.6237 83.7194C39.3626 83.869 39.0859 83.9894 38.7985 84.0783L36.3766 84.9118C35.6138 85.1487 34.8121 85.2342 34.0165 85.1635Z" fill="#F8C63A"/>
<path d="M20.8799 87.1685L21.0243 87.2757L20.884 87.1726L20.8799 87.1685Z" fill="#F8C63A"/>
<path d="M18.9775 85.5718L19.1467 85.7409C19.1219 85.7409 19.1054 85.6997 19.0807 85.6749C19.0559 85.6502 19.0105 85.6089 18.9775 85.5718Z" fill="#F8C63A"/>
<path d="M19.1709 85.77L19.2039 85.7989L19.1709 85.77Z" fill="#F8C63A"/>
<path d="M18.5566 85.1382L18.6928 85.2867L18.5773 85.1547L18.5566 85.1382Z" fill="#F8C63A"/>
<path d="M19.7657 86.2939L19.5264 86.0752L19.7657 86.2939Z" fill="#F8C63A"/>
<path d="M20.3723 86.7972L20.1289 86.5991L20.3723 86.7972Z" fill="#F8C63A"/>
<path d="M17.8102 84.2309L17.6328 83.9751L17.8102 84.2309Z" fill="#F8C63A"/>
<path d="M16.7285 82.3867C16.7533 82.4486 16.7822 82.5146 16.811 82.5765C16.7863 82.527 16.7698 82.4775 16.7491 82.4321C16.7406 82.4178 16.7337 82.4026 16.7285 82.3867Z" fill="#F8C63A"/>
<path d="M17.042 83.0347L17.0956 83.1337L17.0709 83.0883C17.0709 83.0883 17.0502 83.0553 17.042 83.0347Z" fill="#F8C63A"/>
<path d="M17.2695 83.4058C17.319 83.4883 17.3644 83.5749 17.4181 83.6533L17.3933 83.6121L17.2695 83.4058Z" fill="#F8C63A"/>
<path d="M18.0283 84.5156C18.0943 84.5981 18.1562 84.6807 18.2222 84.7591C18.1562 84.6807 18.0943 84.5981 18.0283 84.5156Z" fill="#F8C63A"/>
<path d="M16.5724 82.0113C16.5394 81.9247 16.5064 81.8339 16.4775 81.7432C16.5064 81.8339 16.5394 81.9247 16.5724 82.0113Z" fill="#F8C63A"/>
<path d="M16.1797 80.604C16.1797 80.6659 16.1797 80.7319 16.2086 80.7938C16.2106 80.7553 16.2106 80.7167 16.2086 80.6783L16.1797 80.604Z" fill="#F8C63A"/>
<path d="M16.1055 80.105C16.1055 80.171 16.1055 80.237 16.1302 80.303C16.1302 80.2576 16.1302 80.2081 16.1302 80.1627C16.1195 80.1446 16.1112 80.1252 16.1055 80.105Z" fill="#F8C63A"/>
<path d="M16.0645 79.457C16.0645 79.5478 16.0645 79.6386 16.0645 79.7335C16.0686 79.6386 16.0645 79.5478 16.0645 79.457Z" fill="#F8C63A"/>
<path d="M16.378 81.4461L16.3037 81.1738L16.378 81.4461Z" fill="#F8C63A"/>
<path d="M36.513 77.3777L36.2695 77.126L36.513 77.3777Z" fill="#8D6E1C"/>
<path d="M41.9629 75.5874L41.0098 74.6055L41.9629 75.5874Z" fill="#8D6E1C"/>
<path d="M34.1852 77.1138C34.1819 77.1735 34.1917 77.2332 34.2137 77.2888C34.2358 77.3443 34.2697 77.3944 34.3131 77.4356L34.7958 77.9348L34.3131 77.4356C34.2697 77.3944 34.2358 77.3443 34.2137 77.2888C34.1917 77.2332 34.1819 77.1735 34.1852 77.1138Z" fill="#8D6E1C"/>
<path d="M34.1934 77.0929C34.2062 77.0247 34.236 76.9608 34.28 76.9072C34.236 76.9608 34.2062 77.0247 34.1934 77.0929Z" fill="#8D6E1C"/>
<path d="M28.6779 79.0653L28.3438 78.7188L28.6779 79.0653Z" fill="#8D6E1C"/>
<path d="M28.4667 81.1696L27.4971 80.1753L28.4667 81.1696Z" fill="#8D6E1C"/>
<path d="M45.8665 77.2829L44.5627 75.942L46.7577 75.2282C47.2322 75.0714 47.3972 74.7248 47.1331 74.4525C47.0845 74.4022 47.0289 74.3592 46.9681 74.3246C46.6026 74.1387 46.1786 74.1046 45.7881 74.2297L43.5931 74.9435L43.2218 74.5639L43.1888 74.5268L41.7076 73.0043C41.6592 72.9566 41.6052 72.915 41.5466 72.8805C41.1812 72.6946 40.7571 72.6605 40.3666 72.7856C39.8922 72.9383 39.723 73.2849 39.9912 73.5613L41.0062 74.6052L45.8665 77.2829ZM41.0062 74.6052L34.71 76.6681L28.3396 78.7311L27.3246 77.6872C27.2763 77.6395 27.2222 77.5979 27.1637 77.5634C26.7983 77.3775 26.3742 77.3434 25.9837 77.4685C25.5092 77.6212 25.3401 77.9719 25.6082 78.2442L27.1101 79.7914L27.4855 80.1793L25.2988 80.9013C24.8243 81.054 24.6552 81.4005 24.9233 81.677C24.9724 81.7256 25.0279 81.7673 25.0884 81.8008C25.4524 81.9864 25.8751 82.0206 26.2643 81.8957L28.4634 81.1819L29.7754 82.5145L27.5804 83.2283C27.1059 83.381 26.9368 83.7276 27.205 84.004C27.2537 84.053 27.3093 84.0947 27.37 84.1278C27.7306 84.314 28.15 84.351 28.5376 84.2309L30.7368 83.5171L31.2896 84.0906C31.4754 84.2744 31.685 84.4326 31.9126 84.561C32.5604 84.9137 33.2768 85.122 34.0127 85.1716C34.8069 85.2418 35.6072 85.1563 36.3686 84.9199L38.7823 84.136C39.0697 84.0471 39.3464 83.9267 39.6075 83.7771C39.8547 83.6546 40.0748 83.4837 40.2548 83.2747C40.4348 83.0656 40.571 82.8226 40.6555 82.5599C40.6535 82.5476 40.6535 82.5351 40.6555 82.5228C40.7503 82.5228 40.8535 82.5475 40.9525 82.5558C41.7467 82.6258 42.5469 82.5403 43.3084 82.3041L44.9093 81.7843C45.2621 81.6712 45.6022 81.5218 45.9242 81.3387C46.2319 81.1854 46.5058 80.9721 46.7297 80.7114C46.9536 80.4506 47.1231 80.1476 47.228 79.8203C47.2863 79.5514 47.2793 79.2724 47.2075 79.0068C47.1357 78.7412 47.0013 78.4967 46.8154 78.2937L49.0228 77.5758C49.4973 77.4232 49.6623 77.0725 49.3983 76.8002C49.3496 76.7499 49.2941 76.7068 49.2332 76.6722C48.8666 76.4898 48.4434 76.4573 48.0532 76.5815L45.8665 77.2829L41.0062 74.6052ZM41.9592 75.5871L44.6081 78.3144L44.637 78.3432L44.9423 78.6568C45.0772 78.777 45.1777 78.9309 45.2335 79.1027C45.2893 79.2746 45.2984 79.4581 45.26 79.6347C45.2007 79.8232 45.1041 79.9978 44.9757 80.1481C44.8474 80.2984 44.6901 80.4213 44.5132 80.5093C44.3281 80.6163 44.1316 80.7022 43.9273 80.7652L42.3223 81.2891C41.9634 81.3994 41.5864 81.4387 41.2124 81.4047C40.8654 81.3839 40.5273 81.2867 40.2222 81.12C40.1157 81.0582 40.0173 80.9833 39.9293 80.8972L36.4965 77.3654L41.9592 75.5871ZM38.6915 82.3866C38.6518 82.5111 38.5875 82.6264 38.5024 82.7256C38.4174 82.8248 38.3133 82.9059 38.1964 82.9643C38.0737 83.0318 37.9453 83.0884 37.8127 83.1334L35.4032 83.9132C35.045 84.027 34.6675 84.0677 34.2933 84.0329C33.9452 84.0107 33.606 83.9136 33.2989 83.7482C33.1924 83.6864 33.094 83.6115 33.006 83.5254L29.7053 80.1298L29.6805 80.105L29.3009 79.7172L34.7884 77.9348L37.3258 80.5176C37.3439 80.5493 37.3661 80.5784 37.3919 80.6042L38.4852 81.7554C38.5711 81.834 38.6354 81.9333 38.6722 82.0437C38.7091 82.1542 38.7171 82.2722 38.6956 82.3866H38.6915Z" fill="#8D6E1C"/>
<path d="M55.7189 43.3845H52.8061V32.1621L49.332 33.243V30.8748L55.4054 28.6963H55.7189V43.3845Z" fill="#5022ED"/>
<path d="M60.9169 36.1718L61.7627 28.7163H69.9815V31.1465H64.1475L63.7844 34.3069C64.4623 33.9407 65.2213 33.7506 65.9918 33.7541C66.6033 33.7185 67.2152 33.8163 67.7852 34.0407C68.3551 34.2651 68.8694 34.6108 69.2925 35.0537C70.0847 35.9202 70.4808 37.1167 70.4808 38.6886C70.4964 39.5725 70.2907 40.4461 69.8825 41.2302C69.489 41.97 68.8844 42.5761 68.1455 42.9713C67.3341 43.3998 66.4263 43.6128 65.5091 43.5902C64.6538 43.5983 63.8076 43.4136 63.0335 43.0497C62.307 42.7185 61.6849 42.1949 61.2346 41.5355C60.7911 40.8759 60.5475 40.1023 60.5332 39.3075H63.4213C63.4504 39.8462 63.6783 40.3548 64.0609 40.7351C64.4557 41.0838 64.9704 41.2657 65.4967 41.2426C65.7892 41.2582 66.081 41.2016 66.3465 41.0779C66.612 40.9541 66.843 40.767 67.0191 40.5329C67.4083 39.938 67.595 39.2332 67.5514 38.5236C67.5993 37.831 67.3809 37.1461 66.9407 36.6092C66.7124 36.3834 66.4388 36.2086 66.138 36.0962C65.8371 35.9839 65.5159 35.9365 65.1955 35.9573C64.587 35.9299 63.9892 36.1233 63.5121 36.5019L63.2315 36.7618L60.9169 36.1718Z" fill="#5022ED"/>
<path d="M82.1742 37.3191C82.1742 39.3491 81.7616 40.9004 80.9364 41.9732C80.1113 43.0459 78.8817 43.5836 77.2479 43.5864C75.6498 43.5864 74.4271 43.0597 73.5799 42.0062C72.7327 40.9527 72.2995 39.4399 72.2803 37.4677V34.7734C72.2803 32.7242 72.7052 31.1688 73.5552 30.107C74.4051 29.0453 75.6278 28.5199 77.2231 28.5309C78.824 28.5309 80.0466 29.0563 80.8911 30.107C81.7355 31.1578 82.1687 32.6706 82.1907 34.6455L82.1742 37.3191ZM79.2861 34.3526C79.2861 33.1368 79.1197 32.2511 78.7868 31.6955C78.629 31.4278 78.4001 31.209 78.1256 31.0633C77.8511 30.9177 77.5415 30.8509 77.2314 30.8703C76.9307 30.8516 76.6307 30.9155 76.3637 31.0552C76.0968 31.1948 75.8732 31.4048 75.7172 31.6625C75.3358 32.4299 75.1569 33.2821 75.1973 34.138V37.707C75.1403 38.6231 75.3074 39.5394 75.6842 40.3764C75.8338 40.6572 76.0613 40.8888 76.3395 41.0433C76.6177 41.1977 76.9346 41.2685 77.252 41.247C77.5607 41.2679 77.8691 41.2017 78.1419 41.0558C78.4148 40.9099 78.6411 40.6902 78.7951 40.4218C79.1645 39.613 79.333 38.7269 79.2861 37.839V34.3526Z" fill="#5022ED"/>
<path d="M90.1494 35.1739H93.7843V37.8021H90.1494V41.928H87.3768V37.8021H83.7295V35.1739H87.3768V31.2378H90.1494V35.1739Z" fill="#5022ED"/>
</svg>
