<svg xmlns="http://www.w3.org/2000/svg" width="12.075" height="14.064"><path d="M12.07 5.875a1.052 1.052 0 0 1-1.147.935L9.36 6.649v.047l1.232.123a.993.993 0 0 1 .807 1.138.99.99 0 0 1-1.024.949l-4.137-.425-.59-.01s.85.387.2 3.461-2.368 1.919-2.368 1.919-.024-2.625-.118-2.994-2.111-4.3-2.111-4.3C1.251 6.349 0 6.141 0 5.929c.014-1.8 0-3.353 0-5.223 1.341.35 2.059-.7 4.925-.7a20.9 20.9 0 0 1 3.093.316l2.578.265a.953.953 0 0 1 .709 1.118 1.067 1.067 0 0 1-.628.911l.326.033a1 1 0 0 1 .822 1.138 1.009 1.009 0 0 1-.822.921l.132.015a1.053 1.053 0 0 1 .935 1.152z" fill="#cf6c6c"/></svg>