<svg width="28" height="28" viewBox="0 0 28 28" fill="none" xmlns="http://www.w3.org/2000/svg">
<path d="M21.8362 19.8643H23.4298C25.2227 19.8643 26.7167 18.3762 26.7167 16.5905C26.7167 14.8048 25.2227 13.3167 23.4298 13.3167H21.8362V6.47146H14.9637V4.88416C14.9637 3.09845 13.4697 1.61035 11.6768 1.61035C9.88401 1.61035 8.48958 3.19765 8.48958 4.98337V6.57067H1.71667V13.4159H3.3103C5.10313 13.4159 6.59715 14.904 6.59715 16.6897C6.59715 18.4754 5.10313 19.8643 3.3103 19.8643H1.71667V26.6104H8.58918V25.0231C8.58918 23.2373 10.0832 21.7492 11.876 21.7492C13.6689 21.7492 15.1629 23.2373 15.1629 25.0231V26.6104H22.0354L21.8362 19.8643Z" stroke="#5022ED" stroke-width="2" stroke-linecap="round" stroke-linejoin="round"/>
</svg>
