<svg xmlns="http://www.w3.org/2000/svg" width="19.554" height="18.854"><g data-name="Group 2018"><g data-name="Group 1813"><g data-name="Group 1812"><path data-name="Path 3907" d="M6.547 12.591a6.047 6.047 0 1 1 6.047-6.047 6.053 6.053 0 0 1-6.047 6.047zm0-10.959a4.912 4.912 0 1 0 4.913 4.913 4.918 4.918 0 0 0-4.913-4.911z" fill="#fff" stroke="#fff"/></g></g><g data-name="Group 1815"><g data-name="Group 1814"><path data-name="Path 3908" d="M18.423 18.354a.566.566 0 0 1-.4-.167l-7.7-7.7a.567.567 0 0 1 .8-.8l7.7 7.7a.568.568 0 0 1-.4.969z" fill="#fff" stroke="#fff"/></g></g></g></svg>