<svg xmlns="http://www.w3.org/2000/svg" width="12.824" height="12.1" viewBox="0 0 12.824 12.1"><path d="M707.939,578.878a4.808,4.808,0,0,1-1.514.478,3.012,3.012,0,0,0,1.157-1.688,4.864,4.864,0,0,1-1.668.74,2.48,2.48,0,0,0-1.922-.966,2.868,2.868,0,0,0-2.627,3.055,3.322,3.322,0,0,0,.067.695A7.177,7.177,0,0,1,696.011,578a3.425,3.425,0,0,0-.357,1.536,3.2,3.2,0,0,0,1.169,2.54,2.331,2.331,0,0,1-1.193-.382v.037a2.977,2.977,0,0,0,2.112,3,2.334,2.334,0,0,1-.694.106,2.538,2.538,0,0,1-.5-.051,2.717,2.717,0,0,0,2.457,2.116,4.813,4.813,0,0,1-3.266,1.312,4.738,4.738,0,0,1-.63-.046,6.71,6.71,0,0,0,4.034,1.376c4.839,0,7.482-4.656,7.482-8.691,0-.134,0-.262-.008-.4A5.843,5.843,0,0,0,707.939,578.878Z" transform="translate(-695.115 -577.442)" fill="#5022ed"/></svg>