<svg width="28" height="28" viewBox="0 0 28 28" fill="none" xmlns="http://www.w3.org/2000/svg">
<path d="M14.3459 18.1455C16.8312 18.1455 18.8459 16.1308 18.8459 13.6455C18.8459 11.1602 16.8312 9.14551 14.3459 9.14551C11.8607 9.14551 9.84595 11.1602 9.84595 13.6455C9.84595 16.1308 11.8607 18.1455 14.3459 18.1455Z" stroke="#5022ED" stroke-width="2" stroke-linecap="round" stroke-linejoin="round"/>
<path d="M26.8452 15.8458V11.8458H23.1452C22.9452 10.7458 22.5452 9.84585 21.9452 8.94585L24.5452 6.34585L21.7452 3.44585L19.0452 6.04585C18.2452 5.54585 17.2452 5.14585 16.2452 4.84585V1.24585H12.2452V4.94585C11.1452 5.14585 10.2452 5.64585 9.34521 6.14585L6.74521 3.54585L3.94521 6.34585L6.64521 9.04585C6.04521 9.84585 5.74521 10.8458 5.44521 11.8458H1.84521V15.8458H5.64521C5.84521 16.8458 6.24521 17.6459 6.74521 18.5459L4.04521 21.1459L6.84521 23.9459L9.44521 21.3458C10.2452 21.8458 11.2452 22.2459 12.2452 22.5459V26.2458H16.2452V22.4459C17.2452 22.2459 18.1452 21.8458 18.9452 21.3458L21.6452 24.0459L24.4452 21.2458L21.8452 18.6459C22.3452 17.8459 22.7452 16.8458 23.0452 15.8458H26.8452Z" stroke="#5022ED" stroke-width="2" stroke-linecap="round" stroke-linejoin="round"/>
</svg>
