<svg xmlns="http://www.w3.org/2000/svg" width="12.075" height="14.064"><path d="M.005 8.189a1.052 1.052 0 0 1 1.147-.935l1.563.161v-.047l-1.237-.123a1.058 1.058 0 0 1 .212-2.087l4.137.425.59.01s-.85-.387-.2-3.461S8.587.215 8.587.215s.024 2.625.118 2.994 2.111 4.3 2.111 4.3c0 .208 1.251.416 1.251.628-.014 1.8 0 3.353 0 5.223-1.341-.35-2.059.7-4.925.7a20.9 20.9 0 0 1-3.093-.316l-2.578-.265a.953.953 0 0 1-.708-1.124 1.067 1.067 0 0 1 .628-.911l-.326-.033a1.054 1.054 0 0 1 0-2.059l-.132-.014a1.053 1.053 0 0 1-.928-1.149z" fill="#69c169"/></svg>