<svg width="36" height="36" fill="none" xmlns="http://www.w3.org/2000/svg"><path d="M17.548 34.329c9.268 0 16.78-7.513 16.78-16.781 0-9.268-7.512-16.78-16.78-16.78S.768 8.28.768 17.547s7.512 16.78 16.78 16.78zM15.63 8.15l1.055 2.686m-4.603-1.343 1.055 2.685m8.343 11.219 1.054 2.685m-4.603-1.342 1.055 2.685m-7.192-14.767 4.795 12.657" stroke="#5022ED" stroke-width="1.5" stroke-linecap="round" stroke-linejoin="round"/><path d="m14.288 26.178 8.822-3.356c1.15-.48 1.726-1.726 1.342-2.877l-.767-2.11c-.48-1.15-1.726-1.725-2.877-1.342l-1.726.671" stroke="#5022ED" stroke-width="1.5" stroke-linecap="round" stroke-linejoin="round"/><path d="m9.493 13.616 7.767-2.972c1.534-.575 3.26.192 3.836 1.726l.575 1.438a2.133 2.133 0 0 1-1.342 2.877l-6.137 2.301" stroke="#5022ED" stroke-width="1.5" stroke-linecap="round" stroke-linejoin="round"/></svg>