<svg width="36" height="36" fill="none" xmlns="http://www.w3.org/2000/svg"><path d="M17.548 34.329c9.268 0 16.78-7.513 16.78-16.781 0-9.268-7.512-16.78-16.78-16.78S.768 8.28.768 17.547s7.512 16.78 16.78 16.78zm4.027-25.411-.767 2.78m-2.877-3.835-.767 2.78m0 14.001-.767 2.78m-2.877-3.835-.767 2.78m2.973-16.109-3.644 12.946" stroke="#5022ED" stroke-width="1.5" stroke-linecap="round" stroke-linejoin="round"/><path d="m9.685 22.534 9.11 2.59c1.15.383 2.397-.384 2.78-1.535l.576-2.205c.383-1.151-.384-2.398-1.535-2.781l-1.726-.48" stroke="#5022ED" stroke-width="1.5" stroke-linecap="round" stroke-linejoin="round"/><path d="m13.329 9.589 7.959 2.205a3.027 3.027 0 0 1 2.11 3.644l-.384 1.535c-.384 1.15-1.534 1.917-2.781 1.534L14 16.78" stroke="#5022ED" stroke-width="1.5" stroke-linecap="round" stroke-linejoin="round"/></svg>