<svg width="36" height="36" fill="none" xmlns="http://www.w3.org/2000/svg"><path d="M17.548 34.329c9.268 0 16.78-7.513 16.78-16.781 0-9.268-7.512-16.78-16.78-16.78S.768 8.28.768 17.547s7.512 16.78 16.78 16.78z" stroke="#5022ED" stroke-width="1.5" stroke-linecap="round" stroke-linejoin="round"/><path d="M17.548 8.438c-12.274 1.63-11.315 16.398-.575 18.89" stroke="#5022ED" stroke-width="1.5" stroke-linecap="round" stroke-linejoin="round"/><path d="M20.616 11.22c-3.643-.193-7.287 1.342-8.15 5.465-1.15 5.658 4.507 8.822 9.397 9.205" stroke="#5022ED" stroke-width="1.5" stroke-linecap="round" stroke-linejoin="round"/><path d="M25.794 23.589c-3.547.192-9.013-.48-9.397-4.794-.48-4.507 3.932-5.179 6.713-4.124" stroke="#5022ED" stroke-width="1.5" stroke-linecap="round" stroke-linejoin="round"/></svg>