<svg width="126" height="32" fill="none" xmlns="http://www.w3.org/2000/svg"><g clip-path="url(#a)"><path d="m19.276.767 5.924 9.252 5.823 10.224-4.267 11.4-15.21.204L.15 27.144 14.056 1.636l5.22-.87Z" fill="#DBE0EC"/><path d="M.502 26.326C-.904 28.882.954 32.05 3.865 32l7.932-.102c-2.41-1.483-4.468-3.732-6.225-6.697-.803-1.38-1.456-2.658-2.058-4.14L.502 26.326ZM8.684 11.45c-.1 1.33-.05 2.556.201 4.09.301 2.096 1.004 4.038 2.008 5.827.402.716.803 1.278 1.255 1.79.402.51.954.97 1.607 1.38.502.358 1.104.562 1.757.664.652.102 1.204-.05 1.756-.358.804-.46 1.255-1.124 1.406-1.993.1-.87-.1-2.198-.703-4.09a262.758 262.758 0 0 1-1.104-3.476c-.352-1.124-.653-2.351-.954-3.731-.502-2.658-.401-4.908.301-6.799.553-1.534 1.607-2.863 3.113-4.038-1.757-1.33-4.368-.92-5.572 1.226l-5.07 9.508ZM25.15 9.917c0 .716 0 1.585.25 2.351a58.652 58.652 0 0 0 1.256 3.936c.452 1.38.803 2.71 1.104 3.988.602 2.965.502 5.418-.301 7.31-.653 1.584-1.807 3.016-3.414 4.191l7.179-.102c2.911-.051 4.668-3.271 3.162-5.776L25.15 9.917Z" fill="#9BA5BF"/><path d="m50.35 22.799.552-1.125h4.618l.552 1.125c.452 1.022 1.958.204 1.456-.767l-3.564-7.157c-.301-.715-1.205-.664-1.556 0l-3.614 7.157a.909.909 0 0 0 .401 1.227c.502.102.954 0 1.155-.46Zm1.305-2.812 1.556-3.118 1.406 3.17h-2.962v-.052Zm7.028 2.505c0 .46.351.767.803.767h4.167c1.255 0 1.255-1.687 0-1.687h-3.414v-6.39c0-.409-.351-.767-.753-.767-.452 0-.803.358-.803.767v7.31Zm8.333-.051c0 1.125 1.656 1.125 1.656 0V16h2.109c1.104 0 1.104-1.636 0-1.636h-5.924c-1.104 0-1.104 1.636 0 1.636h2.21v6.44h-.051Zm10.642-1.738c-.2 1.84-2.861 1.278-3.865.562-.452-.358-.803-.255-1.105.102-.2.358-.25.92.201 1.278 1.707 1.432 6.325 1.38 6.426-1.891.1-3.374-5.372-2.198-5.02-4.294.25-1.329 2.36-1.073 3.313-.46.753.562 1.656-.562.803-1.278-1.707-1.38-5.421-.92-5.672 1.585-.452 3.63 4.769 2.505 4.92 4.396Zm3.163 1.789c0 1.073 1.656 1.073 1.656 0v-7.31c0-1.073-1.656-1.022-1.656 0v7.31Zm11.244-.92v-2.71c0-.408-.451-.766-.903-.766h-2.51c-1.004 0-1.105 1.533 0 1.533h1.907v1.585c-.451.358-1.104.562-1.907.562-1.657 0-2.862-1.124-2.862-3.067a2.992 2.992 0 0 1 2.962-3.016c.653 0 1.305.358 1.757.818.753.665 1.858-.46 1.105-1.227-.754-.766-1.858-1.124-2.862-1.124-2.66 0-4.618 1.993-4.618 4.6 0 3.067 1.857 4.601 4.518 4.601 1.104 0 2.209-.307 3.062-1.073.25-.256.351-.46.351-.716Zm1.808.818c0 .562.401.869.853.869.452 0 .803-.307.803-.87v-4.906l4.167 5.367c.351.358.552.46 1.004.46.351-.102.652-.307.652-.87v-7.258c0-.409-.452-.869-.903-.869-.402 0-.804.46-.804.87v4.958l-4.116-5.317c-.351-.306-.452-.46-.903-.46-.653 0-.754.46-.754.92v7.106Zm10.19.409.552-1.125h4.618l.553 1.125c.451 1.022 1.957.204 1.455-.767l-3.564-7.157c-.301-.715-1.205-.664-1.556 0l-3.614 7.157a.91.91 0 0 0 .401 1.227c.452.102.954 0 1.155-.46Zm1.305-2.812 1.556-3.118 1.406 3.17h-2.962v-.052Zm6.978 2.505c0 .46.351.767.803.767h4.167c1.254 0 1.204-1.687 0-1.687h-3.414v-6.39c0-.409-.351-.767-.753-.767-.452 0-.803.358-.803.767v7.31Zm12.048-1.79c-.201 1.841-2.812 1.279-3.866.563-.452-.358-.803-.255-1.104.102-.201.358-.251.92.201 1.278 1.706 1.432 6.325 1.38 6.425-1.891.101-3.374-5.371-2.198-5.02-4.294.251-1.329 2.36-1.073 3.313-.46.753.562 1.657-.562.804-1.278-1.707-1.38-5.422-.92-5.673 1.585-.452 3.63 4.769 2.505 4.92 4.396Z" fill="#7F88A0"/></g><defs><clipPath id="a"><path fill="#fff" d="M0 0h126v32H0z"/></clipPath></defs></svg>