<svg xmlns="http://www.w3.org/2000/svg" viewBox="0 0 204 69"><defs><style>.cls-1{fill:none;}.cls-2{fill:#333;}.cls-3{fill:#10d078;}</style></defs><g id="Layer_2" data-name="Layer 2"><g id="Layer_1-2" data-name="Layer 1"><rect class="cls-1" x="67.5" y="-67.5" width="69" height="204" transform="translate(136.5 -67.5) rotate(90)"/><path class="cls-2" d="M75.38,39.47a6.06,6.06,0,0,1-4.46,2.27A5.5,5.5,0,0,1,65.52,36c0-3.25,2.29-5.76,5.26-5.76a6.08,6.08,0,0,1,4.56,2.19l.18.21,1.84-1.94-.18-.18a8.39,8.39,0,1,0,.14,10.78l.18-.21-1.91-1.77Z"/><path class="cls-2" d="M87.25,27.67a6,6,0,0,0-5,2.44V21.45l-2.82,1.38v21.1h2.82V34.84a4.28,4.28,0,0,1,4.39-4.55c2.5,0,4,1.66,4,4.38V44h2.83V34.1c0-3.92-2.41-6.43-6.19-6.43Z"/><path class="cls-2" d="M102.87,27.74a12.82,12.82,0,0,0-5.72,1.35l-.21.1.88,2.37.25-.11a10.79,10.79,0,0,1,4.59-1.09c2.83,0,4.31,1.34,4.31,3.92v.14a16,16,0,0,0-4.45-.56c-4.31,0-6.86,2-6.86,5.3s3,5.12,6,5.12a7.06,7.06,0,0,0,5.3-2.19v1.84h2.79V34.25a6.38,6.38,0,0,0-1.7-4.74A7.47,7.47,0,0,0,102.87,27.74Zm4.1,9.05V38c0,2.22-2.08,3.88-4.87,3.88-1.74,0-3.61-.88-3.61-2.82s1.59-2.9,4.24-2.9A15,15,0,0,1,107,36.79Z"/><path class="cls-2" d="M121,27.67a6,6,0,0,0-5,2.44V28h-2.83V44H116V34.84a4.28,4.28,0,0,1,4.38-4.56c2.51,0,4,1.66,4,4.39V44h2.82V34.1c0-3.92-2.43-6.43-6.18-6.43Z"/><path class="cls-2" d="M142.78,30.28A7.38,7.38,0,0,0,137,27.67a7.79,7.79,0,0,0-5.2,2,7.77,7.77,0,0,0,0,11.1,7.8,7.8,0,0,0,5.2,2,7.36,7.36,0,0,0,5.8-2.76V41.1c0,3.32-1.95,5.23-5.34,5.23a9.76,9.76,0,0,1-5.8-1.91l-.25-.17-1.3,2.26.21.14a12.35,12.35,0,0,0,7.17,2.19,8.31,8.31,0,0,0,6.08-2.16,7.71,7.71,0,0,0,2-5.65V28h-2.82v2.3h0Zm.11,4.92a5.19,5.19,0,0,1-5.41,5,5,5,0,0,1-5.09-5,4.85,4.85,0,0,1,5.09-5A5.13,5.13,0,0,1,142.89,35.2Z"/><path class="cls-2" d="M155.92,27.67c-4.38,0-7.67,3.57-7.67,8.34a8,8,0,0,0,8,8.34,8.21,8.21,0,0,0,6.57-3l.18-.22-1.84-1.62-.18.18a6.1,6.1,0,0,1-4.66,2.08,5.06,5.06,0,0,1-5.13-4.59h12.2l0-.25a6.53,6.53,0,0,0,0-.81C163.41,31.06,160.41,27.67,155.92,27.67Zm4.6,7.14h-9.37c.42-2.76,2.33-4.67,4.73-4.67C158.82,30.14,160.2,32.48,160.52,34.81Z"/><path class="cls-2" d="M166.07,44h2.83V22.44l-2.83,1.41V44Z"/><path class="cls-2" d="M172.61,44h2.82V21.45l-2.82,1.41V44Z"/><path class="cls-2" d="M190.49,28l-4.81,12.44L180.24,28h-3.11l7.14,15.66c-1,2.19-1.77,2.61-2.86,2.61a4.49,4.49,0,0,1-2.3-.53l-.25-.14-1,2.33.22.11a7.29,7.29,0,0,0,3.39.81c2.51,0,4.06-1.31,5.37-4.52L193.5,28Z"/><path class="cls-3" d="M54.79,12.93a51.09,51.09,0,0,0-9,1.34c-6.61,1.56-11.56,4.14-14.6,7.64-.67.78-1.31,1.52-1.87,2.23-1.2.31-4.52,1.23-6,1.51a3.47,3.47,0,0,0-2.16,1.42c-1.1,1.59-3,4.84-3.08,5L15.87,35.8l4-1.73c1.73-.78,4.17-1.31,4.87-.89,0,0,.08,0,.11.25a7.52,7.52,0,0,0,.81,3.32A4.26,4.26,0,0,0,24,40.32V45.2h4.88a4.38,4.38,0,0,0,3.56-1.63,8.21,8.21,0,0,0,3.33.82c.17,0,.21.07.21.1.42.71-.11,3.15-.88,4.88l-1.74,4,3.75-2.19c.14-.07,3.39-2,5-3.08a3.33,3.33,0,0,0,1.42-2.15c.32-1.52,1.2-4.85,1.52-6,.7-.56,1.45-1.2,2.22-1.87,8.2-7.25,9-22.94,9-23.61l.07-1.52-1.55.07ZM25.42,30.43a6.48,6.48,0,0,0-3-.07c.39-.64.78-1.24,1.1-1.7a.52.52,0,0,1,.39-.25c.7-.14,1.8-.42,2.89-.67A12.67,12.67,0,0,0,25.42,30.43Zm4.8,11.34a1.43,1.43,0,0,1-1.23.57h-.46l2.93-4.6-4.59,3v-.49A1.37,1.37,0,0,1,27.43,39l5.62-4.45a2.26,2.26,0,0,1,1-.5l1.48-.35-.35,1.48a2.61,2.61,0,0,1-.5,1Zm10.54,3.57a.73.73,0,0,1-.25.39c-.46.32-1.06.71-1.7,1.1a6.62,6.62,0,0,0-.07-3,14.93,14.93,0,0,0,2.69-1.34C41.18,43.54,40.9,44.6,40.76,45.34Zm4.66-9.47c-4.88,4.31-7.56,5.58-9.51,5.65h-.07a4.5,4.5,0,0,1-1.59-.28l2.62-3.32a6,6,0,0,0,1.06-2.12l1.41-5.94L33.4,31.27a5.18,5.18,0,0,0-2.12,1L28,34.92a4.51,4.51,0,0,1-.28-1.6v-.07c0-1.9,1.34-4.63,5.65-9.5,5.2-5.91,15.94-7.5,20-7.88-.39,4.06-2,14.8-7.88,20Z"/><path class="cls-3" d="M23.46,52.18a31.46,31.46,0,0,1-5.48.5c-1.06,0-2.12,0-3.22-.14.43-.71.81-1.42,1.17-2.16a28.51,28.51,0,0,0,1.55-4.59,40.16,40.16,0,0,1,1.31-4.39c.5-1.45,1.06-2.9,1.7-4.34A13.66,13.66,0,0,0,19,38.86c-.46.63-.92,1.31-1.35,2a32,32,0,0,0-2.12,4.27,34.09,34.09,0,0,1-1.87,4.1,20.19,20.19,0,0,1-2.51,3.57L9.5,54.69l2.5.36a34.47,34.47,0,0,0,6,.35,23.85,23.85,0,0,0,3-.28,21.31,21.31,0,0,0,3-.68,18.41,18.41,0,0,0,5.48-2.65,12.4,12.4,0,0,0,2.23-2,10.57,10.57,0,0,0,1.62-2.51,16,16,0,0,1-4.63,3.26,21.66,21.66,0,0,1-5.26,1.69Z"/><path class="cls-3" d="M44.4,29.76a5.11,5.11,0,0,0,3.53-1.45,5,5,0,0,0,0-7,4.92,4.92,0,0,0-3.53-1.45,5.07,5.07,0,0,0-3.54,1.45,5,5,0,0,0,3.54,8.49Zm-1.56-6.51a2.14,2.14,0,0,1,1.52-.63,2.06,2.06,0,0,1,1.52.63,2.15,2.15,0,0,1-3,3A2.21,2.21,0,0,1,42.84,23.25Z"/></g></g></svg>