<svg width="150" height="30" viewBox="0 0 150 30" fill="none" xmlns="http://www.w3.org/2000/svg">
<path d="M45.1125 8.89337H47.9242V21.3482H45.1125V16.0789H40.3846V21.3691H37.5729V8.89337H40.3846V13.6629H45.1125V8.89337Z" fill="#9BA5BF"/>
<path d="M54.4849 15.1208C54.4849 15.7248 54.5682 16.2872 54.714 16.7662C54.8598 17.2661 55.0889 17.6826 55.3596 18.0367C55.6512 18.3908 55.9845 18.6615 56.401 18.849C56.8176 19.0364 57.2758 19.1405 57.8173 19.1405C58.338 19.1405 58.7962 19.0364 59.2127 18.849C59.6293 18.6615 59.9833 18.3908 60.2541 18.0367C60.5457 17.6826 60.754 17.2661 60.8998 16.7662C61.0455 16.2663 61.1289 15.7248 61.1289 15.1208C61.1289 14.5168 61.0455 13.9545 60.8998 13.4546C60.754 12.9548 60.5249 12.5382 60.2541 12.1841C59.9625 11.8301 59.6293 11.5593 59.2127 11.3719C58.7962 11.1844 58.338 11.0803 57.8173 11.0803C57.2966 11.0803 56.8176 11.1844 56.401 11.3719C55.9845 11.5801 55.6512 11.8509 55.3596 12.205C55.068 12.559 54.8598 12.9756 54.714 13.4755C54.5682 13.9753 54.4849 14.5168 54.4849 15.1208ZM64.0239 15.1208C64.0239 16.183 63.8573 17.1203 63.5449 17.9325C63.2324 18.7448 62.7951 19.4113 62.2327 19.9736C61.6704 20.5152 61.0247 20.9317 60.2541 21.2025C59.4835 21.4732 58.6712 21.619 57.7965 21.619C56.9425 21.619 56.1302 21.4732 55.3805 21.2025C54.6307 20.9317 53.9642 20.5152 53.4018 19.9736C52.8395 19.4321 52.4021 18.7448 52.0689 17.9325C51.7356 17.1203 51.5898 16.183 51.5898 15.1208C51.5898 14.0586 51.7565 13.1214 52.0897 12.3091C52.4229 11.4968 52.8812 10.8095 53.4435 10.268C54.0058 9.72649 54.6723 9.30994 55.4221 9.01836C56.1719 8.7476 56.9634 8.60181 57.7965 8.60181C58.6504 8.60181 59.4627 8.7476 60.2124 9.01836C60.9622 9.28912 61.6287 9.70567 62.1911 10.268C62.7534 10.8095 63.1908 11.4968 63.524 12.3091C63.8781 13.1214 64.0239 14.0586 64.0239 15.1208Z" fill="#9BA5BF"/>
<path d="M71.1052 19.2238C71.501 19.2238 71.8342 19.1822 72.0841 19.1197C72.3341 19.0572 72.5424 18.9739 72.709 18.8489C72.8548 18.7448 72.9797 18.599 73.0422 18.4532C73.1047 18.3074 73.1255 18.1199 73.1255 17.9325C73.1255 17.5159 72.9381 17.1827 72.5423 16.912C72.1675 16.6412 71.501 16.3496 70.5637 16.0372C70.1472 15.8914 69.7514 15.7248 69.3349 15.5373C68.9183 15.3499 68.5643 15.1208 68.231 14.8292C67.8978 14.5376 67.6479 14.2044 67.4396 13.8086C67.2313 13.4129 67.1272 12.9131 67.1272 12.3507C67.1272 11.7884 67.2313 11.2469 67.4604 10.7887C67.6687 10.3304 67.9811 9.93472 68.3768 9.60148C68.7726 9.26824 69.2516 9.03914 69.8139 8.85169C70.3763 8.68507 71.0219 8.58093 71.7301 8.58093C72.5632 8.58093 73.2921 8.66424 73.917 8.85169C74.521 9.03914 75.0417 9.22659 75.4374 9.45569L74.6251 11.6634C74.271 11.476 73.8961 11.3302 73.4588 11.1844C73.0214 11.0386 72.5215 10.9761 71.9175 10.9761C71.251 10.9761 70.7512 11.0594 70.4596 11.2469C70.168 11.4343 70.0222 11.7259 70.0222 12.1008C70.0222 12.3299 70.0847 12.5173 70.1888 12.684C70.293 12.8298 70.4596 12.9755 70.647 13.1005C70.8553 13.2255 71.0844 13.3504 71.3343 13.4338C71.5843 13.5379 71.8759 13.642 72.1883 13.7462C72.8339 13.9961 73.3963 14.2252 73.8753 14.4543C74.3544 14.6834 74.7501 14.9542 75.0833 15.2666C75.3957 15.579 75.6457 15.9539 75.7915 16.3704C75.9372 16.787 76.0206 17.3077 76.0206 17.8908C76.0206 19.0572 75.604 19.9528 74.7917 20.5984C73.9795 21.2441 72.7506 21.5565 71.0844 21.5565C70.5221 21.5565 70.0222 21.5148 69.5848 21.4524C69.1475 21.3899 68.7517 21.3066 68.3977 21.2024C68.0644 21.0983 67.752 21.015 67.5229 20.89C67.273 20.7859 67.0647 20.6817 66.8981 20.5776L67.6895 18.3491C68.0644 18.5573 68.5226 18.7448 69.0641 18.8906C69.6473 19.1405 70.3138 19.2238 71.1052 19.2238Z" fill="#9BA5BF"/>
<path d="M88.4338 8.89337V11.2885H84.664V21.3691H81.8523V11.2885H78.0825V8.89337H88.4338Z" fill="#9BA5BF"/>
<path d="M91.5579 21.3691H94.3696V8.89337H91.5579V21.3691Z" fill="#9BA5BF"/>
<path d="M106.97 21.3691C106.158 19.9528 105.283 18.5365 104.346 17.1411C103.409 15.7456 102.409 14.4335 101.347 13.2047V21.3691H98.5768V8.89337H100.868C101.264 9.28909 101.701 9.76813 102.18 10.3513C102.659 10.9345 103.159 11.5385 103.659 12.205C104.159 12.8506 104.658 13.5379 105.137 14.2461C105.637 14.9542 106.096 15.6207 106.533 16.2663V8.89337H109.324V21.3482H106.97V21.3691Z" fill="#9BA5BF"/>
<path d="M119.633 11.0595C118.321 11.0595 117.384 11.4135 116.801 12.1425C116.218 12.8715 115.926 13.8503 115.926 15.1208C115.926 15.7248 115.989 16.2872 116.134 16.787C116.28 17.2869 116.489 17.7034 116.78 18.0783C117.072 18.4324 117.426 18.724 117.863 18.9114C118.301 19.0989 118.8 19.203 119.384 19.203C119.696 19.203 119.967 19.203 120.196 19.1822C120.425 19.1614 120.612 19.1405 120.779 19.1197V14.7876H123.591V20.9525C123.257 21.0775 122.716 21.2233 121.966 21.3691C121.216 21.5149 120.3 21.5982 119.196 21.5982C118.259 21.5982 117.405 21.4524 116.634 21.1608C115.864 20.8692 115.218 20.4527 114.677 19.9112C114.135 19.3696 113.718 18.6823 113.427 17.8701C113.135 17.0578 112.99 16.1414 112.99 15.1208C112.99 14.0795 113.156 13.163 113.469 12.3508C113.802 11.5385 114.239 10.872 114.802 10.3097C115.364 9.74732 116.03 9.33077 116.801 9.03919C117.572 8.7476 118.384 8.60181 119.238 8.60181C119.821 8.60181 120.362 8.64346 120.841 8.72677C121.321 8.81008 121.716 8.89339 122.07 8.99753C122.404 9.10167 122.695 9.20581 122.924 9.30994C123.153 9.41408 123.299 9.49739 123.403 9.55987L122.591 11.8092C122.216 11.601 121.758 11.4344 121.258 11.2886C120.758 11.1219 120.217 11.0595 119.633 11.0595Z" fill="#9BA5BF"/>
<path d="M127.506 21.3691V8.89337H135.941V11.2469H130.318V13.6837H135.317V15.9956H130.318V18.9947H136.358V21.3482H127.506V21.3691Z" fill="#9BA5BF"/>
<path d="M143.585 11.1427C143.377 11.1427 143.189 11.1427 143.044 11.1636C142.877 11.1844 142.731 11.1844 142.585 11.2052V14.5793H143.377C144.439 14.5793 145.189 14.4543 145.647 14.1835C146.105 13.9128 146.334 13.4754 146.334 12.8298C146.334 12.2258 146.105 11.7884 145.647 11.5176C145.168 11.2677 144.501 11.1427 143.585 11.1427ZM143.418 8.74756C145.293 8.74756 146.73 9.0808 147.73 9.74728C148.729 10.4138 149.229 11.4551 149.229 12.8506C149.229 13.7253 149.021 14.4335 148.625 14.975C148.23 15.5165 147.646 15.9539 146.876 16.2663C147.126 16.5787 147.397 16.9328 147.667 17.3285C147.938 17.7242 148.209 18.1408 148.48 18.5782C148.75 19.0155 149.021 19.4737 149.271 19.9528C149.521 20.4318 149.75 20.89 149.979 21.3482H146.834C146.605 20.9317 146.376 20.536 146.147 20.0986C145.918 19.682 145.668 19.2655 145.418 18.8697C145.168 18.474 144.918 18.0991 144.689 17.7451C144.439 17.391 144.21 17.0786 143.96 16.787H142.565V21.3274H139.753V9.03914C140.357 8.91418 141.002 8.83087 141.648 8.78921C142.335 8.76839 142.919 8.74756 143.418 8.74756Z" fill="#9BA5BF"/>
<path d="M0 14.0378V0L7.08136 3.76979V10.1014H16.4746L23.6809 14.0378H0ZM18.3907 8.95585V0L25.6804 3.68648V13.1838L18.3907 8.95585ZM18.3907 26.1177V19.8487H8.93502C8.93502 19.8903 1.60372 15.8498 1.60372 15.8498L25.6595 15.9539V29.9917L18.3907 26.1177ZM0 26.1177V16.9328L7.08136 21.0567V29.7834L0 26.1177Z" fill="#9BA5BF"/>
</svg>
