<svg xmlns="http://www.w3.org/2000/svg" viewBox="0 0 204 69"><defs><style>.cls-1{fill:none;}.cls-2{fill:#674cc4;}</style></defs><g id="Layer_2" data-name="Layer 2"><g id="Layer_1-2" data-name="Layer 1"><rect class="cls-1" x="67.5" y="-67.5" width="69" height="204" transform="translate(136.5 -67.5) rotate(90)"/><path class="cls-2" d="M64.54,26.85h3.53V42.47H64.54V35.85H58.62v6.62H55.09V26.85h3.53v6h5.92Z"/><path class="cls-2" d="M76.3,34.65a7,7,0,0,0,.28,2.07,4.61,4.61,0,0,0,.82,1.59,3.44,3.44,0,0,0,1.3,1,4.46,4.46,0,0,0,3.51,0,3.48,3.48,0,0,0,1.31-1,4.61,4.61,0,0,0,.82-1.59,7,7,0,0,0,.28-2.07,7.07,7.07,0,0,0-.28-2.08,4.57,4.57,0,0,0-.82-1.6,3.48,3.48,0,0,0-1.31-1,4.12,4.12,0,0,0-1.75-.36A4,4,0,0,0,78.7,30a3.68,3.68,0,0,0-1.3,1,4.66,4.66,0,0,0-.82,1.6A7,7,0,0,0,76.3,34.65Zm12,0a9.6,9.6,0,0,1-.6,3.53A7.42,7.42,0,0,1,86,40.73a6.84,6.84,0,0,1-2.47,1.54,9,9,0,0,1-3.09.52,8.69,8.69,0,0,1-3-.52,7.1,7.1,0,0,1-2.49-1.54,7.48,7.48,0,0,1-1.67-2.55,9.59,9.59,0,0,1-.61-3.53,9.19,9.19,0,0,1,.63-3.53A7.72,7.72,0,0,1,75,28.57,7,7,0,0,1,77.49,27a8.44,8.44,0,0,1,3-.52,8.69,8.69,0,0,1,3,.52A6.87,6.87,0,0,1,86,28.57a7.48,7.48,0,0,1,1.67,2.55A9.39,9.39,0,0,1,88.26,34.65Z"/><path class="cls-2" d="M97.13,39.79a5.26,5.26,0,0,0,1.23-.12,2.57,2.57,0,0,0,.78-.34,1.18,1.18,0,0,0,.41-.51,1.88,1.88,0,0,0,.11-.65,1.52,1.52,0,0,0-.72-1.28,11,11,0,0,0-2.49-1.09c-.51-.18-1-.39-1.54-.62a5.5,5.5,0,0,1-1.38-.88,4.19,4.19,0,0,1-1-1.28,4,4,0,0,1-.39-1.84,4.57,4.57,0,0,1,.41-1.95,4.26,4.26,0,0,1,1.15-1.48,5.43,5.43,0,0,1,1.81-.93,8.1,8.1,0,0,1,2.4-.33,9.56,9.56,0,0,1,2.73.34,9.3,9.3,0,0,1,1.9.74l-1,2.78a9.27,9.27,0,0,0-1.46-.6,6.46,6.46,0,0,0-1.94-.26,3.6,3.6,0,0,0-1.82.35,1.19,1.19,0,0,0-.55,1.07,1.25,1.25,0,0,0,.2.72,2,2,0,0,0,.58.53,5.3,5.3,0,0,0,.86.43c.32.13.68.26,1.07.39.82.3,1.53.6,2.13.89a5.91,5.91,0,0,1,1.5,1,3.8,3.8,0,0,1,.9,1.37,5.71,5.71,0,0,1,.29,1.92,4,4,0,0,1-1.54,3.39,7.38,7.38,0,0,1-4.63,1.21,11.89,11.89,0,0,1-1.88-.13,11.66,11.66,0,0,1-1.48-.3A9.46,9.46,0,0,1,92.66,42q-.47-.21-.78-.39l1-2.79a9.41,9.41,0,0,0,1.73.69A9.06,9.06,0,0,0,97.13,39.79Z"/><path class="cls-2" d="M118.84,26.85v3h-4.73V42.47h-3.53V29.85h-4.72v-3Z"/><path class="cls-2" d="M122.75,42.47h3.53V26.85h-3.53Z"/><path class="cls-2" d="M142.07,42.47c-1-1.79-2.11-3.55-3.28-5.29A55.2,55.2,0,0,0,135,32.24V42.47h-3.49V26.85h2.87q.75.75,1.65,1.83c.61.72,1.22,1.49,1.85,2.31s1.24,1.67,1.86,2.55,1.2,1.72,1.74,2.53V26.85H145V42.47Z"/><path class="cls-2" d="M157.94,29.56a4.3,4.3,0,0,0-3.56,1.36,5.79,5.79,0,0,0-1.09,3.73,7.2,7.2,0,0,0,.27,2.09,4.61,4.61,0,0,0,.81,1.61,3.64,3.64,0,0,0,1.36,1,4.62,4.62,0,0,0,1.89.37l1,0a6.82,6.82,0,0,0,.74-.09V34.22h3.52V42a12,12,0,0,1-2,.53,17.74,17.74,0,0,1-3.46.29,8.81,8.81,0,0,1-3.2-.55,6.66,6.66,0,0,1-2.45-1.57,7,7,0,0,1-1.57-2.55,10,10,0,0,1-.56-3.45,9.34,9.34,0,0,1,.61-3.47,7.5,7.5,0,0,1,1.68-2.56A7,7,0,0,1,154.4,27a8.66,8.66,0,0,1,3.07-.54,12.25,12.25,0,0,1,2,.15A12.74,12.74,0,0,1,161,27a7.07,7.07,0,0,1,1.07.39c.28.14.47.24.6.32l-1,2.81a9.9,9.9,0,0,0-1.66-.66A7.06,7.06,0,0,0,157.94,29.56Z"/><path class="cls-2" d="M167.83,42.47V26.85h10.58v3h-7.06v3.06h6.26v2.89h-6.26v3.76h7.58v2.95Z"/><path class="cls-2" d="M188,29.67l-.69,0-.57,0V34h1a6,6,0,0,0,2.85-.49,1.79,1.79,0,0,0,.86-1.69,1.73,1.73,0,0,0-.87-1.64A5.46,5.46,0,0,0,188,29.67Zm-.2-3a9.76,9.76,0,0,1,5.4,1.25,4.33,4.33,0,0,1,1.88,3.89,4.34,4.34,0,0,1-.76,2.67,4.9,4.9,0,0,1-2.18,1.61c.32.39.65.84,1,1.35s.69,1,1,1.57.66,1.12,1,1.72.61,1.17.88,1.74h-3.94l-.88-1.55c-.29-.53-.59-1-.9-1.54s-.62-1-.92-1.4a14.12,14.12,0,0,0-.91-1.21h-1.74v5.7h-3.53V27.08a20.24,20.24,0,0,1,2.39-.32C186.39,26.7,187.12,26.67,187.77,26.67Z"/><path class="cls-2" d="M8,33.3V15.7l8.89,4.74v7.93H28.65l9,4.92Zm23.05-6.38V15.7l9.13,4.62v11.9Zm0,21.51V40.57H19.2c0,.06-9.18-5-9.18-5l30.16.14V53.3Zm-23,0V36.93l8.89,5.18V53.05Z"/></g></g></svg>