<svg width="871" height="310" fill="none" xmlns="http://www.w3.org/2000/svg"><g clip-path="url(#clip0)"><path d="M766.902 122.569c0 9.314 7.577 16.977 17.003 16.977 9.425 0 17.095-7.663 17.095-16.977 0-9.361-7.67-17.023-17.095-17.023-9.426 0-17.003 7.662-17.003 17.023zm3.927 0c0-7.525 5.729-13.399 13.076-13.399 7.346 0 13.075 5.874 13.075 13.399 0 7.479-5.729 13.352-13.075 13.352-7.347 0-13.076-5.873-13.076-13.352zm15.848 9.039h4.851l-3.696-7.066c2.125-.918 3.558-2.891 3.558-5.323 0-3.304-2.773-5.965-6.33-5.965h-7.3v18.354h4.389v-6.378h1.34l3.188 6.378zm-4.528-9.957v-4.818h2.125c1.664 0 2.68.918 2.68 2.432 0 1.468-1.016 2.386-2.68 2.386h-2.125zM757.1 141.32h-21.866l-21.363 22.908v-58.682h-16.714v97.363h16.714v-16.273l6.912-7.261 16.336 23.534h20.484l-25.259-35.677L757.1 141.32zM690.957 141.147c-1.239-.125-2.442 0-3.806 0-5.207 0-13.676 1.25-17.396 9.377v-9.377H653.76v61.762h16.491v-28.13c0-13.253 6.938-18.176 15.37-18.176h5.336v-15.456zM590.214 184.922c0 9.358 7.981 17.987 21.075 17.987 9.103 0 14.964-2.631 18.082-7.371l.561 7.371h14.528v-39.091c0-12.032-7.233-22.727-26.686-22.727-16.461 0-25.315 10.33-26.313 19.688l14.715 3.039c.499-5.226 4.489-9.723 11.722-9.723 6.984 0 10.351 3.525 10.351 7.778 0 2.066-1.123 2.267-4.614 2.753l-15.09 2.188c-10.225 1.458-18.331 7.413-18.331 18.108zm24.567 5.956c-5.363 0-7.981-3.403-7.981-6.928 0-4.618 3.367-6.927 7.607-7.535l13.842-2.066v4.174c0 10.573-6.485 12.355-13.468 12.355zM544.746 166.732c.373-6.76 4.474-12.018 11.433-12.018 7.953 0 11.308 5.383 11.308 12.268v35.927h16.528v-38.806c0-13.52-7.208-22.865-22.741-22.865-5.841 0-12.551.457-16.528 5.214v-40.906h-16.527v97.363h16.527v-36.177zM472.422 185.132c.752 6.666 7.014 17.777 25.55 17.777 16.157 0 24.047-9.444 24.047-18.967 0-8.57-6.137-15.593-18.286-17.973l-8.767-1.786c-3.381-.595-5.636-2.381-5.636-5.237 0-3.333 3.507-5.833 7.891-5.833 7.013 0 9.644 4.404 10.144 7.856l13.903-2.976c-.752-6.308-6.638-16.902-24.173-16.902-13.275 0-23.044 8.689-23.044 19.164 0 8.213 5.385 14.998 17.283 17.498l8.141 1.785c4.759.952 6.638 3.095 6.638 5.714 0 3.094-2.63 5.832-8.141 5.832-7.264 0-10.896-4.285-11.272-8.927l-14.278 2.975z" fill="#222E3A"/><path fill-rule="evenodd" clip-rule="evenodd" d="M455.644 130.16a10.608 10.608 0 01-.003-.253c0-5.548 4.51-10.045 10.074-10.045h3.608v-14.316h-8.134c-12.581 0-22.058 9.428-22.058 22.877v12.73h-10.106v15.455h10.106v46.301h16.513v-46.301h13.679v-15.455h-13.679v-10.934-.059z" fill="#222E3A"/><path d="M422.826 141.147c-1.24-.125-2.443 0-3.806 0-5.208 0-13.677 1.25-17.397 9.377v-9.377h-15.995v61.762h16.491v-28.131c0-13.252 6.938-18.175 15.37-18.175h5.337v-15.456zM361.233 202.909h15.096v-61.818h-16.457v36.04c0 7.133-4.447 10.511-11.747 10.511-7.671 0-11.136-5.506-11.136-12.388v-34.163h-16.456v37.541c0 13.39 8.414 24.277 23.138 24.277 6.434 0 13.727-.876 17.067-6.632l.495 6.632zM313.008 129.403c-2.12-10.373-10.867-23.857-33.66-23.857-17.757 0-32.732 12.447-32.732 28.784 0 13.874 9.674 23.339 24.649 26.321l13.119 2.593c7.288 1.426 11.397 7.121 11.397 12.437 0 6.483-5.434 11.28-15.24 11.28-13.252 0-19.745-8.168-20.541-17.244l-16.962 4.408c1.458 13.096 12.457 28.784 37.37 28.784 21.866 0 33.925-14.262 33.925-28.395 0-12.966-9.144-25.403-26.239-28.644l-13.119-2.464c-6.891-1.296-10.204-5.316-10.204-10.373 0-6.094 5.831-11.669 14.71-11.669 11.926 0 16.167 7.909 17.095 12.966l16.432-4.927z" fill="#222E3A"/><path fill-rule="evenodd" clip-rule="evenodd" d="M173.657 70.015l-.586-.015h-39.136c-25.618 1.378-36.387 16.217-39.276 24.12-11.227 33.551-18.213 77.007-23.256 108.376l-.293 1.822-1.638 14.909a25.701 25.701 0 00.76 7.379c3.146 9.096 12.634 16.758 33.537 9.125l.002.012c19.746-8.585 43.07-19.254 67.19-31.223 13.732-7.917 33.848-26.118 34.88-49.108-.186-17.052-.759-34.93-1.921-52.328l-.007.013v-.12c-.096-1.429-.195-3.083-.299-4.804-.199-3.306-.413-6.862-.643-9.558-.341-1.87-.778-3.559-1.317-5.086-3.35-7.453-9.914-11.047-16.838-12.766-3.157-.546-7.036-.644-11.159-.748zm-1.493 34.71a3.502 3.502 0 00-3.503-3.502c-22.244 0-40.277 18.033-40.277 40.277v13.256c0 11.956-9.693 21.649-21.649 21.649a3.608 3.608 0 00-3.608 3.608v10.966a3.503 3.503 0 003.502 3.503c22.245 0 40.277-18.033 40.277-40.278v-13.255c0-11.957 9.693-21.649 21.65-21.649a3.609 3.609 0 003.608-3.609v-10.966z" fill="#178A9E"/><path d="M168.662 101.223a3.502 3.502 0 013.502 3.503v10.965a3.609 3.609 0 01-3.608 3.609c-11.957 0-21.65 9.692-21.65 21.649v13.255c0 22.245-18.032 40.278-40.277 40.278a3.502 3.502 0 01-3.502-3.503v-10.966a3.608 3.608 0 013.608-3.608c11.957 0 21.649-9.693 21.649-21.649V141.5c0-22.244 18.033-40.277 40.278-40.277z" fill="#fff"/></g><defs><clipPath id="clip0"><path fill="#fff" d="M0 0h871v310H0z"/></clipPath></defs></svg>