<svg width="151" height="34" viewBox="0 0 151 34" fill="none" xmlns="http://www.w3.org/2000/svg">
<path d="M144.004 10.5915C144.004 12.4641 145.562 14.0145 147.49 14.0145C149.417 14.0145 150.996 12.4641 150.996 10.5915C150.996 8.69871 149.417 7.16841 147.49 7.16841C145.542 7.14827 144.004 8.69871 144.004 10.5915ZM144.804 10.5915C144.804 9.08129 145.972 7.89329 147.49 7.89329C148.986 7.89329 150.175 9.08129 150.175 10.5915C150.175 12.1016 149.007 13.2896 147.49 13.2896C145.972 13.2695 144.804 12.0815 144.804 10.5915ZM148.043 12.4037H149.048L148.289 10.974C148.72 10.7928 149.027 10.3901 149.027 9.90685C149.027 9.24237 148.453 8.69871 147.736 8.69871H146.239V12.4037H147.141V11.115H147.408L148.043 12.4037ZM147.121 10.4102V9.44373H147.551C147.9 9.44373 148.105 9.62495 148.105 9.92698C148.105 10.229 147.9 10.4102 147.551 10.4102H147.121Z" fill="#9BA5BF"/>
<path d="M141.995 14.3565H137.505L133.117 18.9675V7.14795H129.694V26.76H133.117V23.4779L134.532 22.008L137.874 26.7399H142.077L136.89 19.5515L141.995 14.3565Z" fill="#9BA5BF"/>
<path d="M128.422 14.3163C128.176 14.2962 127.93 14.3163 127.643 14.3163C126.577 14.3163 124.835 14.5579 124.076 16.2091V14.3163H120.796V26.7601H124.178V21.102C124.178 18.424 125.593 17.4373 127.336 17.4373C127.643 17.4373 128.422 17.4373 128.422 17.4373V14.3163Z" fill="#9BA5BF"/>
<path d="M107.777 23.1358C107.777 25.0285 109.417 26.7602 112.103 26.7602C113.968 26.7602 115.178 26.2367 115.813 25.2702L115.936 26.7602H118.889V24.807V18.8872C118.889 16.4709 117.413 14.3164 113.415 14.3164C110.032 14.3164 108.228 16.3904 108.023 18.2831L111.036 18.8872C111.139 17.8401 111.959 16.934 113.435 16.934C114.87 16.934 115.567 17.6388 115.567 18.5046C115.567 18.9275 115.342 18.9677 114.624 19.0684L111.528 19.5114C109.437 19.7933 107.777 20.9813 107.777 23.1358ZM112.8 24.3439C111.692 24.3439 111.159 23.6593 111.159 22.9546C111.159 22.0283 111.857 21.5652 112.718 21.4444L115.547 21.0216V21.8673C115.567 23.9815 114.235 24.3439 112.8 24.3439Z" fill="#9BA5BF"/>
<path d="M98.448 19.4709C98.53 18.1017 99.3706 17.0547 100.785 17.0547C102.425 17.0547 103.102 18.142 103.102 19.5313V26.76H106.485V18.9474C106.485 16.2291 105.009 14.3364 101.831 14.3364C100.642 14.3364 99.2476 14.437 98.448 15.3834V7.14795H95.0651V26.76H98.448V19.4709Z" fill="#9BA5BF"/>
<path d="M83.6248 23.1761C83.7888 24.5252 85.06 26.7602 88.8529 26.7602C92.1743 26.7602 93.7735 24.8675 93.7735 22.9344C93.7735 21.2028 92.5228 19.7933 90.0215 19.31L88.2173 18.9476C87.5203 18.8268 87.0692 18.4643 87.0692 17.9005C87.0692 17.2361 87.7868 16.7327 88.6889 16.7327C90.1241 16.7327 90.6571 17.6186 90.7596 18.3234L93.6095 17.7193C93.4454 16.4508 92.2563 14.3164 88.6479 14.3164C85.9211 14.3164 83.9324 16.0682 83.9324 18.1824C83.9324 19.8336 85.0395 21.2028 87.4793 21.7062L89.1399 22.0686C90.1241 22.27 90.4931 22.6928 90.4931 23.2163C90.4931 23.8405 89.96 24.3842 88.8324 24.3842C87.3357 24.3842 86.5977 23.5184 86.5156 22.5921L83.6248 23.1761Z" fill="#9BA5BF"/>
<path fill-rule="evenodd" clip-rule="evenodd" d="M80.1804 12.1214C80.1804 12.1013 80.1804 12.0812 80.1804 12.061C80.1804 10.9536 81.103 10.0475 82.2512 10.0475H82.9892V7.14795H81.3286C78.7453 7.14795 76.7975 9.0407 76.7975 11.759V14.3162H74.7268V17.4372H76.7975V26.76H80.1804V17.4372H82.9892V14.3364H80.1804V12.1214Z" fill="#9BA5BF"/>
<path d="M73.4557 14.3163C73.2096 14.2962 72.9636 14.3163 72.6766 14.3163C71.6104 14.3163 69.8678 14.5579 69.1092 16.2091V14.3163H65.8288V26.7601H69.2117V21.102C69.2117 18.424 70.6263 17.4373 72.369 17.4373C72.6766 17.4373 73.4557 17.4373 73.4557 17.4373V14.3163Z" fill="#9BA5BF"/>
<path d="M60.8263 26.7602H63.9221V24.5252V14.3164H60.5392V21.5652C60.5392 22.9948 59.6371 23.6795 58.1405 23.6795C56.5618 23.6795 55.8647 22.572 55.8647 21.1826V14.3164H52.4818V21.8673C52.4818 24.5654 54.204 26.7602 57.2179 26.7602C58.53 26.7602 60.0267 26.579 60.7237 25.4313L60.8263 26.7602Z" fill="#9BA5BF"/>
<path d="M50.9441 11.9604C50.5136 9.86625 48.7094 7.14795 44.0348 7.14795C40.3854 7.14795 37.3306 9.64476 37.3306 12.947C37.3306 15.7458 39.3193 17.6386 42.3742 18.2427L45.06 18.7662C46.5566 19.0481 47.3972 20.1958 47.3972 21.263C47.3972 22.5718 46.2901 23.5383 44.2809 23.5383C41.5541 23.5383 40.2419 21.8872 40.0779 20.075L36.5925 20.961C36.9 23.5987 39.1553 26.76 44.2604 26.76C48.7504 26.76 51.2107 23.8806 51.2107 21.0415C51.2107 18.4239 49.3449 15.9271 45.839 15.2827L43.1532 14.7793C41.7386 14.5176 41.062 13.7122 41.062 12.6852C41.062 11.457 42.2511 10.3294 44.0758 10.3294C46.5156 10.3294 47.3972 11.9201 47.5817 12.947L50.9441 11.9604Z" fill="#9BA5BF"/>
<path fill-rule="evenodd" clip-rule="evenodd" d="M22.3639 0C22.3229 0 22.2819 0 22.2409 0H14.2245C8.97587 0.281898 6.76162 3.26197 6.16705 4.85268C3.87079 11.6182 2.43563 20.3571 1.41051 26.6797C1.39001 26.8005 1.36951 26.9213 1.349 27.0421L1.00046 30.0423C0.979962 30.5256 1.02097 31.0289 1.16448 31.5323C1.80005 33.3647 3.74778 34.9151 8.03276 33.3647C12.0717 31.633 16.8693 29.4785 21.8103 27.0824C24.6191 25.4917 28.7401 21.827 28.9656 17.1958C28.9246 13.7526 28.8016 10.1685 28.5761 6.66488V6.64475C28.5556 6.36285 28.5351 6.02054 28.5146 5.67824C28.4736 5.01376 28.4326 4.28888 28.3916 3.74522C28.3301 3.36264 28.2275 3.02034 28.125 2.7183C27.428 1.20814 26.0953 0.50339 24.6806 0.140949C24.0041 0.0402712 23.2045 0.0201356 22.3639 0ZM22.0563 6.98705C22.0563 6.60447 21.7283 6.2823 21.3388 6.2823C16.7873 6.2823 13.0763 9.90671 13.0763 14.3969V17.075C13.0763 19.4913 11.0876 21.4243 8.64783 21.4243C8.23778 21.4243 7.90975 21.7464 7.90975 22.1492V24.3641C7.90975 24.7466 8.23778 25.0688 8.62733 25.0688C13.1788 25.0688 16.8898 21.4444 16.8898 16.9542V14.2761C16.8898 11.8599 18.8785 9.92685 21.3183 9.92685C21.7283 9.92685 22.0563 9.60468 22.0563 9.20197V6.98705Z" fill="#D7DEED"/>
<path d="M21.3388 6.28247C21.7283 6.28247 22.0564 6.60464 22.0564 6.98722V9.20213C22.0564 9.60484 21.7283 9.92701 21.3183 9.92701C18.858 9.92701 16.8898 11.8802 16.8898 14.2763V16.9543C16.8898 21.4244 13.1994 25.069 8.62734 25.069C8.2378 25.069 7.90976 24.7468 7.90976 24.3642V22.1493C7.90976 21.7466 8.2378 21.4244 8.64784 21.4244C11.1081 21.4244 13.0763 19.4713 13.0763 17.0752V14.3971C13.0763 9.92701 16.7873 6.28247 21.3388 6.28247Z" fill="white"/>
</svg>
