<svg width="34" height="24" viewBox="0 0 34 24" fill="none" xmlns="http://www.w3.org/2000/svg">
<rect width="34" height="24" rx="4" fill="#5022ED"/>
<path d="M6.54954 16H5.15181L8.29244 7.27273H9.81374L12.9544 16H11.5566L9.08931 8.85795H9.02113L6.54954 16ZM6.78391 12.5824H11.318V13.6903H6.78391V12.5824ZM14.2147 16V7.27273H19.6863V8.40625H15.5314V11.0653H19.4007V12.1946H15.5314V14.8665H19.7374V16H14.2147ZM24.2704 16H21.4451V7.27273H24.3599C25.215 7.27273 25.9494 7.44744 26.563 7.79688C27.1767 8.14347 27.6468 8.64205 27.9735 9.29261C28.3031 9.94034 28.4679 10.7173 28.4679 11.6236C28.4679 12.5327 28.3017 13.3139 27.9693 13.9673C27.6397 14.6207 27.1625 15.1236 26.5375 15.4759C25.9125 15.8253 25.1568 16 24.2704 16ZM22.7619 14.8494H24.198C24.8627 14.8494 25.4153 14.7244 25.8556 14.4744C26.296 14.2216 26.6255 13.8565 26.8443 13.3793C27.063 12.8991 27.1724 12.3139 27.1724 11.6236C27.1724 10.9389 27.063 10.358 26.8443 9.88068C26.6284 9.40341 26.3059 9.04119 25.877 8.79403C25.448 8.54687 24.9153 8.4233 24.2789 8.4233H22.7619V14.8494Z" fill="white"/>
</svg>
