<svg width="34" height="24" viewBox="0 0 34 24" fill="none" xmlns="http://www.w3.org/2000/svg">
<rect width="34" height="24" rx="4" fill="#5022ED"/>
<path d="M5.74094 16H4.34322L7.48384 7.27273H9.00515L12.1458 16H10.748L8.28072 8.85795H8.21254L5.74094 16ZM5.97532 12.5824H10.5094V13.6903H5.97532V12.5824ZM19.0183 7.27273H20.3393V13.0128C20.3393 13.6236 20.1958 14.1648 19.9089 14.6364C19.622 15.1051 19.2186 15.4744 18.6987 15.7443C18.1788 16.0114 17.5694 16.1449 16.8706 16.1449C16.1745 16.1449 15.5666 16.0114 15.0467 15.7443C14.5268 15.4744 14.1234 15.1051 13.8365 14.6364C13.5495 14.1648 13.4061 13.6236 13.4061 13.0128V7.27273H14.7228V12.9062C14.7228 13.3011 14.8095 13.652 14.9828 13.9588C15.1589 14.2656 15.4075 14.5071 15.7285 14.6832C16.0495 14.8565 16.4302 14.9432 16.8706 14.9432C17.3137 14.9432 17.6958 14.8565 18.0169 14.6832C18.3407 14.5071 18.5879 14.2656 18.7583 13.9588C18.9316 13.652 19.0183 13.3011 19.0183 12.9062V7.27273ZM25.079 16H22.2537V7.27273H25.1685C26.0236 7.27273 26.758 7.44744 27.3716 7.79688C27.9853 8.14347 28.4554 8.64205 28.7821 9.29261C29.1117 9.94034 29.2765 10.7173 29.2765 11.6236C29.2765 12.5327 29.1103 13.3139 28.7779 13.9673C28.4483 14.6207 27.9711 15.1236 27.3461 15.4759C26.7211 15.8253 25.9654 16 25.079 16ZM23.5705 14.8494H25.0066C25.6713 14.8494 26.2239 14.7244 26.6642 14.4744C27.1046 14.2216 27.4341 13.8565 27.6529 13.3793C27.8716 12.8991 27.981 12.3139 27.981 11.6236C27.981 10.9389 27.8716 10.358 27.6529 9.88068C27.437 9.40341 27.1145 9.04119 26.6855 8.79403C26.2566 8.54687 25.7239 8.4233 25.0875 8.4233H23.5705V14.8494Z" fill="white"/>
</svg>
