<svg width="34" height="24" viewBox="0 0 34 24" fill="none" xmlns="http://www.w3.org/2000/svg">
<rect width="34" height="24" rx="4" fill="#5022ED"/>
<path d="M5.98224 16V7.27273H9.17827C9.79759 7.27273 10.3104 7.375 10.7166 7.57955C11.1229 7.78125 11.4268 8.0554 11.6286 8.40199C11.8303 8.74574 11.9311 9.13352 11.9311 9.56534C11.9311 9.92898 11.8643 10.2358 11.7308 10.4858C11.5973 10.733 11.4183 10.9318 11.1939 11.0824C10.9723 11.2301 10.728 11.3381 10.4609 11.4062V11.4915C10.7507 11.5057 11.0334 11.5994 11.3089 11.7727C11.5874 11.9432 11.8175 12.1861 11.9993 12.5014C12.1811 12.8168 12.272 13.2003 12.272 13.652C12.272 14.098 12.1669 14.4986 11.9567 14.8537C11.7493 15.206 11.4283 15.4858 10.9936 15.6932C10.5589 15.8977 10.0036 16 9.32741 16H5.98224ZM7.29901 14.8707H9.19957C9.83026 14.8707 10.282 14.7486 10.5547 14.5043C10.8274 14.2599 10.9638 13.9545 10.9638 13.5881C10.9638 13.3125 10.8942 13.0597 10.755 12.8295C10.6158 12.5994 10.4169 12.4162 10.1584 12.2798C9.9027 12.1435 9.59872 12.0753 9.24645 12.0753H7.29901V14.8707ZM7.29901 11.0483H9.06321C9.35866 11.0483 9.62429 10.9915 9.86009 10.8778C10.0987 10.7642 10.2876 10.6051 10.4268 10.4006C10.5689 10.1932 10.6399 9.94886 10.6399 9.66761C10.6399 9.30682 10.5135 9.00426 10.2607 8.75994C10.0078 8.51562 9.62003 8.39347 9.0973 8.39347H7.29901V11.0483ZM16.6591 16H13.8338V7.27273H16.7486C17.6037 7.27273 18.3381 7.44744 18.9517 7.79688C19.5653 8.14347 20.0355 8.64205 20.3622 9.29261C20.6918 9.94034 20.8565 10.7173 20.8565 11.6236C20.8565 12.5327 20.6903 13.3139 20.358 13.9673C20.0284 14.6207 19.5511 15.1236 18.9261 15.4759C18.3011 15.8253 17.5455 16 16.6591 16ZM15.1506 14.8494H16.5866C17.2514 14.8494 17.804 14.7244 18.2443 14.4744C18.6847 14.2216 19.0142 13.8565 19.233 13.3793C19.4517 12.8991 19.5611 12.3139 19.5611 11.6236C19.5611 10.9389 19.4517 10.358 19.233 9.88068C19.017 9.40341 18.6946 9.04119 18.2656 8.79403C17.8366 8.54687 17.304 8.4233 16.6676 8.4233H15.1506V14.8494ZM21.6886 8.40625V7.27273H28.4428V8.40625H25.7198V16H24.4073V8.40625H21.6886Z" fill="white"/>
</svg>
