<svg width="34" height="24" viewBox="0 0 34 24" fill="none" xmlns="http://www.w3.org/2000/svg">
<rect width="34" height="24" rx="4" fill="#5022ED"/>
<path d="M6.77912 16V7.27273H9.97514C10.5945 7.27273 11.1072 7.375 11.5135 7.57955C11.9197 7.78125 12.2237 8.0554 12.4254 8.40199C12.6271 8.74574 12.728 9.13352 12.728 9.56534C12.728 9.92898 12.6612 10.2358 12.5277 10.4858C12.3942 10.733 12.2152 10.9318 11.9908 11.0824C11.7692 11.2301 11.5249 11.3381 11.2578 11.4062V11.4915C11.5476 11.5057 11.8303 11.5994 12.1058 11.7727C12.3842 11.9432 12.6143 12.1861 12.7962 12.5014C12.978 12.8168 13.0689 13.2003 13.0689 13.652C13.0689 14.098 12.9638 14.4986 12.7536 14.8537C12.5462 15.206 12.2251 15.4858 11.7905 15.6932C11.3558 15.8977 10.8004 16 10.1243 16H6.77912ZM8.09588 14.8707H9.99645C10.6271 14.8707 11.0788 14.7486 11.3516 14.5043C11.6243 14.2599 11.7607 13.9545 11.7607 13.5881C11.7607 13.3125 11.6911 13.0597 11.5518 12.8295C11.4126 12.5994 11.2138 12.4162 10.9553 12.2798C10.6996 12.1435 10.3956 12.0753 10.0433 12.0753H8.09588V14.8707ZM8.09588 11.0483H9.86009C10.1555 11.0483 10.4212 10.9915 10.657 10.8778C10.8956 10.7642 11.0845 10.6051 11.2237 10.4006C11.3658 10.1932 11.4368 9.94886 11.4368 9.66761C11.4368 9.30682 11.3104 9.00426 11.0575 8.75994C10.8047 8.51562 10.4169 8.39347 9.89418 8.39347H8.09588V11.0483ZM14.6307 16V7.27273H17.7415C18.4176 7.27273 18.9787 7.3892 19.4247 7.62216C19.8736 7.85511 20.2088 8.17756 20.4304 8.58949C20.652 8.99858 20.7628 9.47159 20.7628 10.0085C20.7628 10.5426 20.6506 11.0128 20.4261 11.419C20.2045 11.8224 19.8693 12.1364 19.4205 12.3608C18.9744 12.5852 18.4134 12.6974 17.7372 12.6974H15.3807V11.5639H17.6179C18.044 11.5639 18.3906 11.5028 18.6577 11.3807C18.9276 11.2585 19.125 11.081 19.25 10.848C19.375 10.6151 19.4375 10.3352 19.4375 10.0085C19.4375 9.67898 19.3736 9.39347 19.2457 9.15199C19.1207 8.91051 18.9233 8.72585 18.6534 8.59801C18.3864 8.46733 18.0355 8.40199 17.6009 8.40199H15.9474V16H14.6307ZM18.9389 12.0625L21.0952 16H19.5952L17.4815 12.0625H18.9389ZM22.3651 16V7.27273H23.6818V14.8665H27.6364V16H22.3651Z" fill="white"/>
</svg>
