<svg width="34" height="24" viewBox="0 0 34 24" fill="none" xmlns="http://www.w3.org/2000/svg">
<rect width="34" height="24" rx="4" fill="#5022ED"/>
<path d="M12.2933 10.1108H10.9638C10.9126 9.8267 10.8175 9.5767 10.6783 9.3608C10.5391 9.14489 10.3686 8.96165 10.1669 8.81108C9.9652 8.66051 9.73935 8.54687 9.48935 8.47017C9.24219 8.39347 8.9794 8.35511 8.70099 8.35511C8.19815 8.35511 7.74787 8.48153 7.35014 8.73438C6.95526 8.98722 6.64276 9.35795 6.41264 9.84659C6.18537 10.3352 6.07173 10.9318 6.07173 11.6364C6.07173 12.3466 6.18537 12.946 6.41264 13.4347C6.64276 13.9233 6.95668 14.2926 7.3544 14.5426C7.75213 14.7926 8.19957 14.9176 8.69673 14.9176C8.9723 14.9176 9.23366 14.8807 9.48082 14.8068C9.73082 14.7301 9.95668 14.6179 10.1584 14.4702C10.3601 14.3224 10.5305 14.142 10.6697 13.929C10.8118 13.7131 10.9098 13.4659 10.9638 13.1875L12.2933 13.1918C12.2223 13.6207 12.0845 14.0156 11.88 14.3764C11.6783 14.7344 11.4183 15.044 11.1001 15.3054C10.7848 15.5639 10.424 15.7642 10.0178 15.9062C9.61151 16.0483 9.16832 16.1193 8.68821 16.1193C7.93253 16.1193 7.25923 15.9403 6.66832 15.5824C6.07741 15.2216 5.61151 14.706 5.2706 14.0355C4.93253 13.3651 4.76349 12.5653 4.76349 11.6364C4.76349 10.7045 4.93395 9.90483 5.27486 9.23722C5.61577 8.56676 6.08168 8.05256 6.67259 7.6946C7.26349 7.33381 7.93537 7.15341 8.68821 7.15341C9.15128 7.15341 9.5831 7.22017 9.98366 7.35369C10.3871 7.48437 10.7493 7.67756 11.0703 7.93324C11.3913 8.18608 11.657 8.49574 11.8672 8.86222C12.0774 9.22585 12.2195 9.64205 12.2933 10.1108ZM14.5476 16H13.1499L16.2905 7.27273H17.8118L20.9524 16H19.5547L17.0874 8.85795H17.0192L14.5476 16ZM14.782 12.5824H19.3161V13.6903H14.782V12.5824ZM25.038 16H22.2127V7.27273H25.1275C25.9826 7.27273 26.717 7.44744 27.3306 7.79688C27.9442 8.14347 28.4144 8.64205 28.7411 9.29261C29.0707 9.94034 29.2354 10.7173 29.2354 11.6236C29.2354 12.5327 29.0692 13.3139 28.7369 13.9673C28.4073 14.6207 27.93 15.1236 27.305 15.4759C26.68 15.8253 25.9244 16 25.038 16ZM23.5295 14.8494H24.9656C25.6303 14.8494 26.1829 14.7244 26.6232 14.4744C27.0636 14.2216 27.3931 13.8565 27.6119 13.3793C27.8306 12.8991 27.94 12.3139 27.94 11.6236C27.94 10.9389 27.8306 10.358 27.6119 9.88068C27.396 9.40341 27.0735 9.04119 26.6445 8.79403C26.2156 8.54687 25.6829 8.4233 25.0465 8.4233H23.5295V14.8494Z" fill="white"/>
</svg>
