<svg width="34" height="24" viewBox="0 0 34 24" fill="none" xmlns="http://www.w3.org/2000/svg">
  <rect width="34" height="24" rx="4" fill="#5022ED"/>
  <path d="M12.8265 10.1108H11.497C11.4458 9.8267 11.3507 9.5767 11.2115 9.3608C11.0723 9.14489 10.9018 8.96165 10.7001 8.81108C10.4984 8.66051 10.2725 8.54687 10.0225 8.47017C9.77539 8.39347 9.51261 8.35511 9.2342 8.35511C8.73136 8.35511 8.28107 8.48153 7.88335 8.73438C7.48846 8.98722 7.17596 9.35795 6.94585 9.84659C6.71857 10.3352 6.60494 10.9318 6.60494 11.6364C6.60494 12.3466 6.71857 12.946 6.94585 13.4347C7.17596 13.9233 7.48988 14.2926 7.88761 14.5426C8.28533 14.7926 8.73278 14.9176 9.22994 14.9176C9.5055 14.9176 9.76687 14.8807 10.014 14.8068C10.264 14.7301 10.4899 14.6179 10.6916 14.4702C10.8933 14.3224 11.0637 14.142 11.2029 13.929C11.345 13.7131 11.443 13.4659 11.497 13.1875L12.8265 13.1918C12.7555 13.6207 12.6177 14.0156 12.4132 14.3764C12.2115 14.7344 11.9515 15.044 11.6333 15.3054C11.318 15.5639 10.9572 15.7642 10.551 15.9062C10.1447 16.0483 9.70153 16.1193 9.22141 16.1193C8.46573 16.1193 7.79244 15.9403 7.20153 15.5824C6.61062 15.2216 6.14471 14.706 5.8038 14.0355C5.46573 13.3651 5.2967 12.5653 5.2967 11.6364C5.2967 10.7045 5.46715 9.90483 5.80806 9.23722C6.14897 8.56676 6.61488 8.05256 7.20579 7.6946C7.7967 7.33381 8.46857 7.15341 9.22141 7.15341C9.68448 7.15341 10.1163 7.22017 10.5169 7.35369C10.9203 7.48437 11.2825 7.67756 11.6035 7.93324C11.9245 8.18608 12.1902 8.49574 12.4004 8.86222C12.6106 9.22585 12.7527 9.64205 12.8265 10.1108ZM14.4022 16V7.27273H15.7189V11.0653H20.0698V7.27273H21.3908V16H20.0698V12.1946H15.7189V16H14.4022ZM23.3084 16V7.27273H28.7203V8.40625H24.6252V11.0653H28.3326V12.1946H24.6252V16H23.3084Z" fill="white"/>
</svg>
