<svg width="34" height="24" viewBox="0 0 34 24" fill="none" xmlns="http://www.w3.org/2000/svg">
<rect width="34" height="24" rx="4" fill="#5022ED"/>
<path d="M12.3461 10.1108H11.0165C10.9654 9.8267 10.8702 9.5767 10.731 9.3608C10.5918 9.14489 10.4213 8.96165 10.2196 8.81108C10.0179 8.66051 9.79208 8.54687 9.54208 8.47017C9.29492 8.39347 9.03214 8.35511 8.75373 8.35511C8.25089 8.35511 7.8006 8.48153 7.40288 8.73438C7.00799 8.98722 6.69549 9.35795 6.46538 9.84659C6.2381 10.3352 6.12447 10.9318 6.12447 11.6364C6.12447 12.3466 6.2381 12.946 6.46538 13.4347C6.69549 13.9233 7.00941 14.2926 7.40714 14.5426C7.80487 14.7926 8.25231 14.9176 8.74947 14.9176C9.02504 14.9176 9.2864 14.8807 9.53356 14.8068C9.78356 14.7301 10.0094 14.6179 10.2111 14.4702C10.4128 14.3224 10.5833 14.142 10.7225 13.929C10.8645 13.7131 10.9625 13.4659 11.0165 13.1875L12.3461 13.1918C12.275 13.6207 12.1373 14.0156 11.9327 14.3764C11.731 14.7344 11.4711 15.044 11.1529 15.3054C10.8375 15.5639 10.4767 15.7642 10.0705 15.9062C9.66424 16.0483 9.22106 16.1193 8.74094 16.1193C7.98526 16.1193 7.31197 15.9403 6.72106 15.5824C6.13015 15.2216 5.66424 14.706 5.32333 14.0355C4.98526 13.3651 4.81623 12.5653 4.81623 11.6364C4.81623 10.7045 4.98668 9.90483 5.32759 9.23722C5.6685 8.56676 6.13441 8.05256 6.72532 7.6946C7.31623 7.33381 7.9881 7.15341 8.74094 7.15341C9.20401 7.15341 9.63583 7.22017 10.0364 7.35369C10.4398 7.48437 10.802 7.67756 11.123 7.93324C11.4441 8.18608 11.7097 8.49574 11.9199 8.86222C12.1301 9.22585 12.2722 9.64205 12.3461 10.1108ZM21.5027 11.6364C21.5027 12.5682 21.3322 13.3693 20.9913 14.0398C20.6504 14.7074 20.1831 15.2216 19.5893 15.5824C18.9984 15.9403 18.3265 16.1193 17.5737 16.1193C16.818 16.1193 16.1433 15.9403 15.5495 15.5824C14.9586 15.2216 14.4927 14.706 14.1518 14.0355C13.8109 13.3651 13.6404 12.5653 13.6404 11.6364C13.6404 10.7045 13.8109 9.90483 14.1518 9.23722C14.4927 8.56676 14.9586 8.05256 15.5495 7.6946C16.1433 7.33381 16.818 7.15341 17.5737 7.15341C18.3265 7.15341 18.9984 7.33381 19.5893 7.6946C20.1831 8.05256 20.6504 8.56676 20.9913 9.23722C21.3322 9.90483 21.5027 10.7045 21.5027 11.6364ZM20.1987 11.6364C20.1987 10.9261 20.0836 10.3281 19.8535 9.84233C19.6262 9.35369 19.3137 8.98438 18.916 8.73438C18.5211 8.48153 18.0737 8.35511 17.5737 8.35511C17.0708 8.35511 16.622 8.48153 16.2271 8.73438C15.8322 8.98438 15.5197 9.35369 15.2896 9.84233C15.0623 10.3281 14.9487 10.9261 14.9487 11.6364C14.9487 12.3466 15.0623 12.946 15.2896 13.4347C15.5197 13.9205 15.8322 14.2898 16.2271 14.5426C16.622 14.7926 17.0708 14.9176 17.5737 14.9176C18.0737 14.9176 18.5211 14.7926 18.916 14.5426C19.3137 14.2898 19.6262 13.9205 19.8535 13.4347C20.0836 12.946 20.1987 12.3466 20.1987 11.6364ZM23.1444 16V7.27273H26.2551C26.9341 7.27273 27.4966 7.39631 27.9426 7.64347C28.3887 7.89062 28.7225 8.22869 28.9441 8.65767C29.1657 9.08381 29.2765 9.56392 29.2765 10.098C29.2765 10.6349 29.1642 11.1179 28.9398 11.5469C28.7182 11.973 28.383 12.3111 27.9341 12.5611C27.4881 12.8082 26.927 12.9318 26.2509 12.9318H24.1117V11.8153H26.1316C26.5605 11.8153 26.9086 11.7415 27.1756 11.5938C27.4426 11.4432 27.6387 11.2386 27.7637 10.9801C27.8887 10.7216 27.9512 10.4276 27.9512 10.098C27.9512 9.76847 27.8887 9.47585 27.7637 9.22017C27.6387 8.96449 27.4412 8.7642 27.1713 8.61932C26.9043 8.47443 26.552 8.40199 26.1145 8.40199H24.4611V16H23.1444Z" fill="white"/>
</svg>
