<svg width="34" height="24" viewBox="0 0 34 24" fill="none" xmlns="http://www.w3.org/2000/svg">
  <rect width="34" height="24" rx="4" fill="#5022ED"/>
  <path d="M12.9789 10.1108H11.6493C11.5982 9.8267 11.503 9.5767 11.3638 9.3608C11.2246 9.14489 11.0542 8.96165 10.8525 8.81108C10.6507 8.66051 10.4249 8.54687 10.1749 8.47017C9.92773 8.39347 9.66495 8.35511 9.38654 8.35511C8.8837 8.35511 8.43342 8.48153 8.03569 8.73438C7.6408 8.98722 7.3283 9.35795 7.09819 9.84659C6.87092 10.3352 6.75728 10.9318 6.75728 11.6364C6.75728 12.3466 6.87092 12.946 7.09819 13.4347C7.3283 13.9233 7.64222 14.2926 8.03995 14.5426C8.43768 14.7926 8.88512 14.9176 9.38228 14.9176C9.65785 14.9176 9.91921 14.8807 10.1664 14.8068C10.4164 14.7301 10.6422 14.6179 10.8439 14.4702C11.0456 14.3224 11.2161 14.142 11.3553 13.929C11.4973 13.7131 11.5953 13.4659 11.6493 13.1875L12.9789 13.1918C12.9078 13.6207 12.7701 14.0156 12.5655 14.3764C12.3638 14.7344 12.1039 15.044 11.7857 15.3054C11.4703 15.5639 11.1096 15.7642 10.7033 15.9062C10.2971 16.0483 9.85387 16.1193 9.37376 16.1193C8.61808 16.1193 7.94478 15.9403 7.35387 15.5824C6.76296 15.2216 6.29705 14.706 5.95614 14.0355C5.61808 13.3651 5.44904 12.5653 5.44904 11.6364C5.44904 10.7045 5.6195 9.90483 5.9604 9.23722C6.30131 8.56676 6.76722 8.05256 7.35813 7.6946C7.94904 7.33381 8.62092 7.15341 9.37376 7.15341C9.83683 7.15341 10.2686 7.22017 10.6692 7.35369C11.0726 7.48437 11.4348 7.67756 11.7559 7.93324C12.0769 8.18608 12.3425 8.49574 12.5527 8.86222C12.763 9.22585 12.905 9.64205 12.9789 10.1108ZM14.3287 16V15.1222L18.9181 8.40625H14.2903V7.27273H20.5289V8.15057L15.9395 14.8665H20.5673V16H14.3287ZM22.2186 16V7.27273H23.5353V11.4403H23.6419L27.3024 7.27273H28.9601L25.4402 11.2017L28.9728 16H27.3876L24.5666 12.1009L23.5353 13.2855V16H22.2186Z" fill="white"/>
</svg>
