<svg width="34" height="24" viewBox="0 0 34 24" fill="none" xmlns="http://www.w3.org/2000/svg">
  <rect width="34" height="24" rx="4" fill="#5022ED"/>
  <path d="M8.48526 16H5.65998V7.27273H8.57475C9.42987 7.27273 10.1642 7.44744 10.7779 7.79688C11.3915 8.14347 11.8617 8.64205 12.1884 9.29261C12.5179 9.94034 12.6827 10.7173 12.6827 11.6236C12.6827 12.5327 12.5165 13.3139 12.1841 13.9673C11.8546 14.6207 11.3773 15.1236 10.7523 15.4759C10.1273 15.8253 9.37163 16 8.48526 16ZM6.97674 14.8494H8.41282C9.07759 14.8494 9.63015 14.7244 10.0705 14.4744C10.5108 14.2216 10.8404 13.8565 11.0591 13.3793C11.2779 12.8991 11.3873 12.3139 11.3873 11.6236C11.3873 10.9389 11.2779 10.358 11.0591 9.88068C10.8432 9.40341 10.5208 9.04119 10.0918 8.79403C9.66282 8.54687 9.13015 8.4233 8.49379 8.4233H6.97674V14.8494ZM14.3201 16V7.27273H15.6369V11.4403H15.7434L19.4039 7.27273H21.0616L17.5417 11.2017L21.0744 16H19.4892L16.6681 12.1009L15.6369 13.2855V16H14.3201ZM22.2889 16V7.27273H23.6056V11.4403H23.7122L27.3727 7.27273H29.0304L25.5105 11.2017L29.0431 16H27.4579L24.6369 12.1009L23.6056 13.2855V16H22.2889Z" fill="white"/>
</svg>
