<svg width="34" height="24" viewBox="0 0 34 24" fill="none" xmlns="http://www.w3.org/2000/svg">
<rect width="34" height="24" rx="4" fill="#5022ED"/>
<path d="M6.05256 16V7.27273H11.5241V8.40625H7.36932V11.0653H11.2386V12.1946H7.36932V14.8665H11.5753V16H6.05256ZM18.8952 7.27273H20.2163V13.0128C20.2163 13.6236 20.0728 14.1648 19.7859 14.6364C19.4989 15.1051 19.0955 15.4744 18.5756 15.7443C18.0558 16.0114 17.4464 16.1449 16.7475 16.1449C16.0515 16.1449 15.4435 16.0114 14.9237 15.7443C14.4038 15.4744 14.0004 15.1051 13.7134 14.6364C13.4265 14.1648 13.283 13.6236 13.283 13.0128V7.27273H14.5998V12.9062C14.5998 13.3011 14.6864 13.652 14.8597 13.9588C15.0359 14.2656 15.2844 14.5071 15.6055 14.6832C15.9265 14.8565 16.3072 14.9432 16.7475 14.9432C17.1907 14.9432 17.5728 14.8565 17.8938 14.6832C18.2177 14.5071 18.4648 14.2656 18.6353 13.9588C18.8086 13.652 18.8952 13.3011 18.8952 12.9062V7.27273ZM22.1307 16V7.27273H25.2415C25.9176 7.27273 26.4787 7.3892 26.9247 7.62216C27.3736 7.85511 27.7088 8.17756 27.9304 8.58949C28.152 8.99858 28.2628 9.47159 28.2628 10.0085C28.2628 10.5426 28.1506 11.0128 27.9261 11.419C27.7045 11.8224 27.3693 12.1364 26.9205 12.3608C26.4744 12.5852 25.9134 12.6974 25.2372 12.6974H22.8807V11.5639H25.1179C25.544 11.5639 25.8906 11.5028 26.1577 11.3807C26.4276 11.2585 26.625 11.081 26.75 10.848C26.875 10.6151 26.9375 10.3352 26.9375 10.0085C26.9375 9.67898 26.8736 9.39347 26.7457 9.15199C26.6207 8.91051 26.4233 8.72585 26.1534 8.59801C25.8864 8.46733 25.5355 8.40199 25.1009 8.40199H23.4474V16H22.1307ZM26.4389 12.0625L28.5952 16H27.0952L24.9815 12.0625H26.4389Z" fill="white"/>
</svg>
