<svg width="34" height="24" viewBox="0 0 34 24" fill="none" xmlns="http://www.w3.org/2000/svg">
<rect width="34" height="24" rx="4" fill="#5022ED"/>
<path d="M11.6072 10.0298C11.5249 9.77131 11.4141 9.53977 11.2749 9.33523C11.1385 9.12784 10.9751 8.9517 10.7848 8.80682C10.5945 8.65909 10.3771 8.54687 10.1328 8.47017C9.89134 8.39347 9.62571 8.35511 9.33594 8.35511C8.84446 8.35511 8.40128 8.48153 8.00639 8.73438C7.61151 8.98722 7.29901 9.35795 7.06889 9.84659C6.84162 10.3324 6.72798 10.9276 6.72798 11.6321C6.72798 12.3395 6.84304 12.9375 7.07315 13.4261C7.30327 13.9148 7.61861 14.2855 8.01918 14.5384C8.41974 14.7912 8.87571 14.9176 9.38707 14.9176C9.86151 14.9176 10.2749 14.821 10.6271 14.6278C10.9822 14.4347 11.2564 14.1619 11.4496 13.8097C11.6456 13.4545 11.7436 13.0369 11.7436 12.5568L12.0845 12.6207H9.58736V11.5341H13.0178V12.527C13.0178 13.2599 12.8615 13.8963 12.549 14.4361C12.2393 14.973 11.8104 15.3878 11.2621 15.6804C10.7166 15.973 10.0916 16.1193 9.38707 16.1193C8.5973 16.1193 7.90412 15.9375 7.30753 15.5739C6.71378 15.2102 6.25071 14.6946 5.91832 14.027C5.58594 13.3565 5.41974 12.5611 5.41974 11.6406C5.41974 10.9446 5.51634 10.3196 5.70952 9.76562C5.9027 9.21165 6.17401 8.74148 6.52344 8.35511C6.87571 7.96591 7.28906 7.66903 7.76349 7.46449C8.24077 7.2571 8.76207 7.15341 9.32741 7.15341C9.79901 7.15341 10.2379 7.22301 10.6442 7.36222C11.0533 7.50142 11.4169 7.69886 11.7351 7.95455C12.0561 8.21023 12.3217 8.5142 12.532 8.86648C12.7422 9.21591 12.8842 9.60369 12.9581 10.0298H11.6072ZM14.6893 16V7.27273H17.8853C18.5046 7.27273 19.0174 7.375 19.4237 7.57955C19.8299 7.78125 20.1339 8.0554 20.3356 8.40199C20.5373 8.74574 20.6381 9.13352 20.6381 9.56534C20.6381 9.92898 20.5714 10.2358 20.4379 10.4858C20.3043 10.733 20.1254 10.9318 19.9009 11.0824C19.6793 11.2301 19.435 11.3381 19.168 11.4062V11.4915C19.4577 11.5057 19.7404 11.5994 20.016 11.7727C20.2944 11.9432 20.5245 12.1861 20.7063 12.5014C20.8881 12.8168 20.979 13.2003 20.979 13.652C20.979 14.098 20.8739 14.4986 20.6637 14.8537C20.4563 15.206 20.1353 15.4858 19.7006 15.6932C19.266 15.8977 18.7106 16 18.0344 16H14.6893ZM16.006 14.8707H17.9066C18.5373 14.8707 18.989 14.7486 19.2617 14.5043C19.5344 14.2599 19.6708 13.9545 19.6708 13.5881C19.6708 13.3125 19.6012 13.0597 19.462 12.8295C19.3228 12.5994 19.1239 12.4162 18.8654 12.2798C18.6097 12.1435 18.3058 12.0753 17.9535 12.0753H16.006V14.8707ZM16.006 11.0483H17.7702C18.0657 11.0483 18.3313 10.9915 18.5671 10.8778C18.8058 10.7642 18.9947 10.6051 19.1339 10.4006C19.2759 10.1932 19.3469 9.94886 19.3469 9.66761C19.3469 9.30682 19.2205 9.00426 18.9677 8.75994C18.7148 8.51562 18.3271 8.39347 17.8043 8.39347H16.006V11.0483ZM22.5408 16V7.27273H25.6516C26.3306 7.27273 26.8931 7.39631 27.3391 7.64347C27.7852 7.89062 28.119 8.22869 28.3406 8.65767C28.5621 9.08381 28.6729 9.56392 28.6729 10.098C28.6729 10.6349 28.5607 11.1179 28.3363 11.5469C28.1147 11.973 27.7795 12.3111 27.3306 12.5611C26.8846 12.8082 26.3235 12.9318 25.6474 12.9318H23.5082V11.8153H25.5281C25.957 11.8153 26.305 11.7415 26.5721 11.5938C26.8391 11.4432 27.0352 11.2386 27.1602 10.9801C27.2852 10.7216 27.3477 10.4276 27.3477 10.098C27.3477 9.76847 27.2852 9.47585 27.1602 9.22017C27.0352 8.96449 26.8377 8.7642 26.5678 8.61932C26.3008 8.47443 25.9485 8.40199 25.511 8.40199H23.8576V16H22.5408Z" fill="white"/>
</svg>
