<svg width="34" height="24" viewBox="0 0 34 24" fill="none" xmlns="http://www.w3.org/2000/svg">
  <rect width="34" height="24" rx="4" fill="#5022ED"/>
  <path d="M5.19123 16V7.27273H6.50799V11.0653H10.8588V7.27273H12.1799V16H10.8588V12.1946H6.50799V16H5.19123ZM14.0975 16V7.27273H15.4142V11.4403H15.5208L19.1813 7.27273H20.839L17.3191 11.2017L20.8517 16H19.2665L16.4455 12.1009L15.4142 13.2855V16H14.0975ZM24.8915 16H22.0662V7.27273H24.981C25.8361 7.27273 26.5705 7.44744 27.1841 7.79688C27.7978 8.14347 28.2679 8.64205 28.5946 9.29261C28.9242 9.94034 29.089 10.7173 29.089 11.6236C29.089 12.5327 28.9228 13.3139 28.5904 13.9673C28.2608 14.6207 27.7836 15.1236 27.1586 15.4759C26.5336 15.8253 25.7779 16 24.8915 16ZM23.383 14.8494H24.8191C25.4838 14.8494 26.0364 14.7244 26.4767 14.4744C26.9171 14.2216 27.2466 13.8565 27.4654 13.3793C27.6841 12.8991 27.7935 12.3139 27.7935 11.6236C27.7935 10.9389 27.6841 10.358 27.4654 9.88068C27.2495 9.40341 26.927 9.04119 26.498 8.79403C26.0691 8.54687 25.5364 8.4233 24.9 8.4233H23.383V14.8494Z" fill="white"/>
</svg>
