<svg width="34" height="24" viewBox="0 0 34 24" fill="none" xmlns="http://www.w3.org/2000/svg">
<rect width="34" height="24" rx="4" fill="#5022ED"/>
<path d="M10.4103 7.27273V16H9.09357V7.27273H10.4103ZM12.3279 16V7.27273H13.6447V14.8665H17.5993V16H12.3279ZM23.8613 9.56534C23.8159 9.16193 23.6284 8.84943 23.2988 8.62784C22.9693 8.40341 22.5545 8.29119 22.0545 8.29119C21.6966 8.29119 21.3869 8.34801 21.1255 8.46165C20.8642 8.57244 20.661 8.72585 20.5162 8.92188C20.3741 9.11506 20.3031 9.33523 20.3031 9.58239C20.3031 9.78977 20.3514 9.96875 20.448 10.1193C20.5474 10.2699 20.6767 10.3963 20.8358 10.4986C20.9977 10.598 21.171 10.6818 21.3556 10.75C21.5403 10.8153 21.7179 10.8693 21.8883 10.9119L22.7406 11.1335C23.019 11.2017 23.3045 11.294 23.5971 11.4105C23.8897 11.527 24.161 11.6804 24.411 11.8707C24.661 12.0611 24.8627 12.2969 25.0162 12.5781C25.1724 12.8594 25.2505 13.196 25.2505 13.5881C25.2505 14.0824 25.1227 14.5213 24.867 14.9048C24.6142 15.2884 24.2463 15.5909 23.7633 15.8125C23.2832 16.0341 22.7022 16.1449 22.0204 16.1449C21.367 16.1449 20.8017 16.0412 20.3244 15.8338C19.8471 15.6264 19.4735 15.3324 19.2037 14.9517C18.9338 14.5682 18.7846 14.1136 18.7562 13.5881H20.0772C20.1028 13.9034 20.2051 14.1662 20.3841 14.3764C20.5659 14.5838 20.7974 14.7386 21.0787 14.8409C21.3627 14.9403 21.6738 14.9901 22.0119 14.9901C22.3841 14.9901 22.715 14.9318 23.0048 14.8153C23.2974 14.696 23.5275 14.5312 23.6951 14.321C23.8627 14.108 23.9466 13.8594 23.9466 13.5753C23.9466 13.3168 23.8727 13.1051 23.725 12.9403C23.5801 12.7756 23.3826 12.6392 23.1326 12.5312C22.8855 12.4233 22.6056 12.3281 22.2931 12.2457L21.2619 11.9645C20.563 11.7741 20.0091 11.4943 19.6 11.125C19.1937 10.7557 18.9906 10.267 18.9906 9.65909C18.9906 9.15625 19.127 8.71733 19.3997 8.34233C19.6724 7.96733 20.0417 7.67614 20.5076 7.46875C20.9735 7.25852 21.4991 7.15341 22.0843 7.15341C22.6752 7.15341 23.1966 7.2571 23.6483 7.46449C24.1028 7.67188 24.4608 7.95739 24.7221 8.32102C24.9835 8.68182 25.1199 9.09659 25.1312 9.56534H23.8613Z" fill="white"/>
</svg>
