<svg width="34" height="24" viewBox="0 0 34 24" fill="none" xmlns="http://www.w3.org/2000/svg">
<rect width="34" height="24" rx="4" fill="#5022ED"/>
<path d="M9.30877 7.27273V16H7.99201V7.27273H9.30877ZM18.2704 7.27273V16H17.0602L12.6241 9.59943H12.5431V16H11.2264V7.27273H12.4451L16.8855 13.6818H16.9664V7.27273H18.2704ZM20.1912 16V7.27273H23.302C23.9782 7.27273 24.5392 7.3892 24.9853 7.62216C25.4341 7.85511 25.7694 8.17756 25.9909 8.58949C26.2125 8.99858 26.3233 9.47159 26.3233 10.0085C26.3233 10.5426 26.2111 11.0128 25.9867 11.419C25.7651 11.8224 25.4299 12.1364 24.981 12.3608C24.535 12.5852 23.9739 12.6974 23.2978 12.6974H20.9412V11.5639H23.1784C23.6046 11.5639 23.9512 11.5028 24.2182 11.3807C24.4881 11.2585 24.6855 11.081 24.8105 10.848C24.9355 10.6151 24.998 10.3352 24.998 10.0085C24.998 9.67898 24.9341 9.39347 24.8063 9.15199C24.6813 8.91051 24.4838 8.72585 24.214 8.59801C23.9469 8.46733 23.5961 8.40199 23.1614 8.40199H21.508V16H20.1912ZM24.4995 12.0625L26.6557 16H25.1557L23.0421 12.0625H24.4995Z" fill="white"/>
</svg>
