<svg width="34" height="24" viewBox="0 0 34 24" fill="none" xmlns="http://www.w3.org/2000/svg">
<rect width="34" height="24" rx="4" fill="#5022ED"/>
<path d="M11.5439 7.27273V16H10.3336L5.89755 9.59943H5.81658V16H4.49982V7.27273H5.71857L10.1589 13.6818H10.2399V7.27273H11.5439ZM19.3709 10.0298C19.2885 9.77131 19.1777 9.53977 19.0385 9.33523C18.9022 9.12784 18.7388 8.9517 18.5485 8.80682C18.3581 8.65909 18.1408 8.54687 17.8965 8.47017C17.655 8.39347 17.3894 8.35511 17.0996 8.35511C16.6081 8.35511 16.165 8.48153 15.7701 8.73438C15.3752 8.98722 15.0627 9.35795 14.8326 9.84659C14.6053 10.3324 14.4917 10.9276 14.4917 11.6321C14.4917 12.3395 14.6067 12.9375 14.8368 13.4261C15.0669 13.9148 15.3823 14.2855 15.7828 14.5384C16.1834 14.7912 16.6394 14.9176 17.1507 14.9176C17.6252 14.9176 18.0385 14.821 18.3908 14.6278C18.7459 14.4347 19.0201 14.1619 19.2132 13.8097C19.4093 13.4545 19.5073 13.0369 19.5073 12.5568L19.8482 12.6207H17.351V11.5341H20.7814V12.527C20.7814 13.2599 20.6252 13.8963 20.3127 14.4361C20.003 14.973 19.574 15.3878 19.0257 15.6804C18.4803 15.973 17.8553 16.1193 17.1507 16.1193C16.361 16.1193 15.6678 15.9375 15.0712 15.5739C14.4775 15.2102 14.0144 14.6946 13.682 14.027C13.3496 13.3565 13.1834 12.5611 13.1834 11.6406C13.1834 10.9446 13.28 10.3196 13.4732 9.76562C13.6664 9.21165 13.9377 8.74148 14.2871 8.35511C14.6394 7.96591 15.0527 7.66903 15.5272 7.46449C16.0044 7.2571 16.5257 7.15341 17.0911 7.15341C17.5627 7.15341 18.0016 7.22301 18.4078 7.36222C18.8169 7.50142 19.1806 7.69886 19.4988 7.95455C19.8198 8.21023 20.0854 8.5142 20.2956 8.86648C20.5059 9.21591 20.6479 9.60369 20.7218 10.0298H19.3709ZM29.497 7.27273V16H28.2868L23.8507 9.59943H23.7697V16H22.4529V7.27273H23.6717L28.112 13.6818H28.193V7.27273H29.497Z" fill="white"/>
</svg>
