<svg width="34" height="24" viewBox="0 0 34 24" fill="none" xmlns="http://www.w3.org/2000/svg">
  <rect width="34" height="24" rx="4" fill="#5022ED"/>
  <path d="M11.9247 7.27273V16H10.7145L6.27841 9.59943H6.19744V16H4.88068V7.27273H6.09943L10.5398 13.6818H10.6207V7.27273H11.9247ZM21.4265 11.6364C21.4265 12.5682 21.256 13.3693 20.9151 14.0398C20.5742 14.7074 20.1069 15.2216 19.5131 15.5824C18.9222 15.9403 18.2504 16.1193 17.4975 16.1193C16.7418 16.1193 16.0671 15.9403 15.4734 15.5824C14.8825 15.2216 14.4165 14.706 14.0756 14.0355C13.7347 13.3651 13.5643 12.5653 13.5643 11.6364C13.5643 10.7045 13.7347 9.90483 14.0756 9.23722C14.4165 8.56676 14.8825 8.05256 15.4734 7.6946C16.0671 7.33381 16.7418 7.15341 17.4975 7.15341C18.2504 7.15341 18.9222 7.33381 19.5131 7.6946C20.1069 8.05256 20.5742 8.56676 20.9151 9.23722C21.256 9.90483 21.4265 10.7045 21.4265 11.6364ZM20.1225 11.6364C20.1225 10.9261 20.0075 10.3281 19.7773 9.84233C19.5501 9.35369 19.2376 8.98438 18.8398 8.73438C18.445 8.48153 17.9975 8.35511 17.4975 8.35511C16.9947 8.35511 16.5458 8.48153 16.1509 8.73438C15.756 8.98438 15.4435 9.35369 15.2134 9.84233C14.9862 10.3281 14.8725 10.9261 14.8725 11.6364C14.8725 12.3466 14.9862 12.946 15.2134 13.4347C15.4435 13.9205 15.756 14.2898 16.1509 14.5426C16.5458 14.7926 16.9947 14.9176 17.4975 14.9176C17.9975 14.9176 18.445 14.7926 18.8398 14.5426C19.2376 14.2898 19.5501 13.9205 19.7773 13.4347C20.0075 12.946 20.1225 12.3466 20.1225 11.6364ZM23.0682 16V7.27273H24.3849V11.4403H24.4915L28.152 7.27273H29.8097L26.2898 11.2017L29.8224 16H28.2372L25.4162 12.1009L24.3849 13.2855V16H23.0682Z" fill="white"/>
</svg>
