<svg width="34" height="24" viewBox="0 0 34 24" fill="none" xmlns="http://www.w3.org/2000/svg">
  <rect width="34" height="24" rx="4" fill="#5022ED"/>
  <path d="M5.8299 16V7.27273H8.9407C9.61967 7.27273 10.1822 7.39631 10.6282 7.64347C11.0742 7.89062 11.408 8.22869 11.6296 8.65767C11.8512 9.08381 11.962 9.56392 11.962 10.098C11.962 10.6349 11.8498 11.1179 11.6254 11.5469C11.4038 11.973 11.0685 12.3111 10.6197 12.5611C10.1737 12.8082 9.61257 12.9318 8.93643 12.9318H6.79723V11.8153H8.81712C9.24609 11.8153 9.59411 11.7415 9.86115 11.5938C10.1282 11.4432 10.3242 11.2386 10.4492 10.9801C10.5742 10.7216 10.6367 10.4276 10.6367 10.098C10.6367 9.76847 10.5742 9.47585 10.4492 9.22017C10.3242 8.96449 10.1268 8.7642 9.85689 8.61932C9.58984 8.47443 9.23757 8.40199 8.80007 8.40199H7.14666V16H5.8299ZM13.5057 16V7.27273H14.8224V11.0653H19.1733V7.27273H20.4943V16H19.1733V12.1946H14.8224V16H13.5057ZM22.4119 16V7.27273H25.5227C26.2017 7.27273 26.7642 7.39631 27.2102 7.64347C27.6563 7.89062 27.9901 8.22869 28.2116 8.65767C28.4332 9.08381 28.544 9.56392 28.544 10.098C28.544 10.6349 28.4318 11.1179 28.2074 11.5469C27.9858 11.973 27.6506 12.3111 27.2017 12.5611C26.7557 12.8082 26.1946 12.9318 25.5185 12.9318H23.3793V11.8153H25.3991C25.8281 11.8153 26.1761 11.7415 26.4432 11.5938C26.7102 11.4432 26.9062 11.2386 27.0312 10.9801C27.1562 10.7216 27.2188 10.4276 27.2188 10.098C27.2188 9.76847 27.1562 9.47585 27.0312 9.22017C26.9062 8.96449 26.7088 8.7642 26.4389 8.61932C26.1719 8.47443 25.8196 8.40199 25.3821 8.40199H23.7287V16H22.4119Z" fill="white"/>
</svg>
