<svg width="34" height="24" viewBox="0 0 34 24" fill="none" xmlns="http://www.w3.org/2000/svg">
  <rect width="34" height="24" rx="4" fill="#5022ED"/>
  <path d="M6.25178 16V7.27273H9.36257C10.0415 7.27273 10.604 7.39631 11.0501 7.64347C11.4961 7.89062 11.8299 8.22869 12.0515 8.65767C12.2731 9.08381 12.3839 9.56392 12.3839 10.098C12.3839 10.6349 12.2717 11.1179 12.0472 11.5469C11.8256 11.973 11.4904 12.3111 11.0415 12.5611C10.5955 12.8082 10.0344 12.9318 9.35831 12.9318H7.21911V11.8153H9.23899C9.66797 11.8153 10.016 11.7415 10.283 11.5938C10.5501 11.4432 10.7461 11.2386 10.8711 10.9801C10.9961 10.7216 11.0586 10.4276 11.0586 10.098C11.0586 9.76847 10.9961 9.47585 10.8711 9.22017C10.7461 8.96449 10.5487 8.7642 10.2788 8.61932C10.0117 8.47443 9.65945 8.40199 9.22195 8.40199H7.56854V16H6.25178ZM13.9276 16V7.27273H15.2443V14.8665H19.1989V16H13.9276ZM27.745 7.27273V16H26.5348L22.0987 9.59943H22.0178V16H20.701V7.27273H21.9197L26.3601 13.6818H26.4411V7.27273H27.745Z" fill="white"/>
</svg>
