<svg width="34" height="24" viewBox="0 0 34 24" fill="none" xmlns="http://www.w3.org/2000/svg">
  <rect width="34" height="24" rx="4" fill="#5022ED"/>
  <path d="M10.8242 9.56534C10.7788 9.16193 10.5913 8.84943 10.2617 8.62784C9.93217 8.40341 9.5174 8.29119 9.0174 8.29119C8.65945 8.29119 8.34979 8.34801 8.08842 8.46165C7.82706 8.57244 7.62393 8.72585 7.47905 8.92188C7.337 9.11506 7.26598 9.33523 7.26598 9.58239C7.26598 9.78977 7.31428 9.96875 7.41087 10.1193C7.5103 10.2699 7.63956 10.3963 7.79865 10.4986C7.96058 10.598 8.13388 10.6818 8.31854 10.75C8.5032 10.8153 8.68075 10.8693 8.85121 10.9119L9.70348 11.1335C9.98189 11.2017 10.2674 11.294 10.56 11.4105C10.8526 11.527 11.1239 11.6804 11.3739 11.8707C11.6239 12.0611 11.8256 12.2969 11.979 12.5781C12.1353 12.8594 12.2134 13.196 12.2134 13.5881C12.2134 14.0824 12.0856 14.5213 11.8299 14.9048C11.5771 15.2884 11.2092 15.5909 10.7262 15.8125C10.2461 16.0341 9.66513 16.1449 8.98331 16.1449C8.3299 16.1449 7.76456 16.0412 7.28729 15.8338C6.81001 15.6264 6.43643 15.3324 6.16655 14.9517C5.89666 14.5682 5.74751 14.1136 5.71911 13.5881H7.04013C7.0657 13.9034 7.16797 14.1662 7.34695 14.3764C7.52876 14.5838 7.7603 14.7386 8.04155 14.8409C8.32564 14.9403 8.63672 14.9901 8.97479 14.9901C9.34695 14.9901 9.67791 14.9318 9.96768 14.8153C10.2603 14.696 10.4904 14.5312 10.658 14.321C10.8256 14.108 10.9094 13.8594 10.9094 13.5753C10.9094 13.3168 10.8356 13.1051 10.6879 12.9403C10.543 12.7756 10.3455 12.6392 10.0955 12.5312C9.84837 12.4233 9.56854 12.3281 9.25604 12.2457L8.22479 11.9645C7.52592 11.7741 6.97195 11.4943 6.56286 11.125C6.15661 10.7557 5.95348 10.267 5.95348 9.65909C5.95348 9.15625 6.08984 8.71733 6.36257 8.34233C6.6353 7.96733 7.00462 7.67614 7.47053 7.46875C7.93643 7.25852 8.462 7.15341 9.04723 7.15341C9.63814 7.15341 10.1594 7.2571 10.6112 7.46449C11.0657 7.67188 11.4237 7.95739 11.685 8.32102C11.9464 8.68182 12.0827 9.09659 12.0941 9.56534H10.8242ZM14.4538 16H13.0561L16.1967 7.27273H17.718L20.8587 16H19.4609L16.9936 8.85795H16.9254L14.4538 16ZM14.6882 12.5824H19.2223V13.6903H14.6882V12.5824ZM22.119 16V7.27273H25.2298C25.9059 7.27273 26.467 7.3892 26.913 7.62216C27.3619 7.85511 27.6971 8.17756 27.9187 8.58949C28.1403 8.99858 28.2511 9.47159 28.2511 10.0085C28.2511 10.5426 28.1388 11.0128 27.9144 11.419C27.6928 11.8224 27.3576 12.1364 26.9087 12.3608C26.4627 12.5852 25.9016 12.6974 25.2255 12.6974H22.869V11.5639H25.1062C25.5323 11.5639 25.8789 11.5028 26.146 11.3807C26.4158 11.2585 26.6133 11.081 26.7383 10.848C26.8633 10.6151 26.9258 10.3352 26.9258 10.0085C26.9258 9.67898 26.8619 9.39347 26.734 9.15199C26.609 8.91051 26.4116 8.72585 26.1417 8.59801C25.8746 8.46733 25.5238 8.40199 25.0891 8.40199H23.4357V16H22.119ZM26.4272 12.0625L28.5835 16H27.0835L24.9698 12.0625H26.4272Z" fill="white"/>
</svg>
