<svg width="34" height="24" viewBox="0 0 34 24" fill="none" xmlns="http://www.w3.org/2000/svg">
  <rect width="34" height="24" rx="4" fill="#5022ED"/>
  <path d="M11.2578 9.56534C11.2124 9.16193 11.0249 8.84943 10.6953 8.62784C10.3658 8.40341 9.95099 8.29119 9.45099 8.29119C9.09304 8.29119 8.78338 8.34801 8.52202 8.46165C8.26065 8.57244 8.05753 8.72585 7.91264 8.92188C7.7706 9.11506 7.69957 9.33523 7.69957 9.58239C7.69957 9.78977 7.74787 9.96875 7.84446 10.1193C7.94389 10.2699 8.07315 10.3963 8.23224 10.4986C8.39418 10.598 8.56747 10.6818 8.75213 10.75C8.93679 10.8153 9.11435 10.8693 9.2848 10.9119L10.1371 11.1335C10.4155 11.2017 10.701 11.294 10.9936 11.4105C11.2862 11.527 11.5575 11.6804 11.8075 11.8707C12.0575 12.0611 12.2592 12.2969 12.4126 12.5781C12.5689 12.8594 12.647 13.196 12.647 13.5881C12.647 14.0824 12.5192 14.5213 12.2635 14.9048C12.0107 15.2884 11.6428 15.5909 11.1598 15.8125C10.6797 16.0341 10.0987 16.1449 9.4169 16.1449C8.76349 16.1449 8.19815 16.0412 7.72088 15.8338C7.24361 15.6264 6.87003 15.3324 6.60014 14.9517C6.33026 14.5682 6.18111 14.1136 6.1527 13.5881H7.47372C7.49929 13.9034 7.60156 14.1662 7.78054 14.3764C7.96236 14.5838 8.19389 14.7386 8.47514 14.8409C8.75923 14.9403 9.07031 14.9901 9.40838 14.9901C9.78054 14.9901 10.1115 14.9318 10.4013 14.8153C10.6939 14.696 10.924 14.5312 11.0916 14.321C11.2592 14.108 11.343 13.8594 11.343 13.5753C11.343 13.3168 11.2692 13.1051 11.1214 12.9403C10.9766 12.7756 10.7791 12.6392 10.5291 12.5312C10.282 12.4233 10.0021 12.3281 9.68963 12.2457L8.65838 11.9645C7.95952 11.7741 7.40554 11.4943 6.99645 11.125C6.5902 10.7557 6.38707 10.267 6.38707 9.65909C6.38707 9.15625 6.52344 8.71733 6.79616 8.34233C7.06889 7.96733 7.43821 7.67614 7.90412 7.46875C8.37003 7.25852 8.8956 7.15341 9.48082 7.15341C10.0717 7.15341 10.593 7.2571 11.0447 7.46449C11.4993 7.67188 11.8572 7.95739 12.1186 8.32102C12.38 8.68182 12.5163 9.09659 12.5277 9.56534H11.2578ZM14.2205 16V7.27273H19.6921V8.40625H15.5373V11.0653H19.4066V12.1946H15.5373V14.8665H19.7433V16H14.2205ZM21.451 16V7.27273H22.7678V11.4403H22.8743L26.5348 7.27273H28.1925L24.6726 11.2017L28.2053 16H26.62L23.799 12.1009L22.7678 13.2855V16H21.451Z" fill="white"/>
</svg>
