<svg width="34" height="24" viewBox="0 0 34 24" fill="none" xmlns="http://www.w3.org/2000/svg">
<rect width="34" height="24" rx="4" fill="#5022ED"/>
<path d="M10.9558 7.27273H12.2768V13.0128C12.2768 13.6236 12.1333 14.1648 11.8464 14.6364C11.5595 15.1051 11.1561 15.4744 10.6362 15.7443C10.1163 16.0114 9.50692 16.1449 8.80806 16.1449C8.11204 16.1449 7.50408 16.0114 6.9842 15.7443C6.46431 15.4744 6.0609 15.1051 5.77397 14.6364C5.48704 14.1648 5.34357 13.6236 5.34357 13.0128V7.27273H6.66033V12.9062C6.66033 13.3011 6.74698 13.652 6.92028 13.9588C7.09641 14.2656 7.34499 14.5071 7.66602 14.6832C7.98704 14.8565 8.36772 14.9432 8.80806 14.9432C9.25124 14.9432 9.63335 14.8565 9.95437 14.6832C10.2782 14.5071 10.5254 14.2656 10.6958 13.9588C10.8691 13.652 10.9558 13.3011 10.9558 12.9062V7.27273ZM18.9512 9.56534C18.9057 9.16193 18.7182 8.84943 18.3887 8.62784C18.0591 8.40341 17.6444 8.29119 17.1444 8.29119C16.7864 8.29119 16.4767 8.34801 16.2154 8.46165C15.954 8.57244 15.7509 8.72585 15.606 8.92188C15.464 9.11506 15.3929 9.33523 15.3929 9.58239C15.3929 9.78977 15.4412 9.96875 15.5378 10.1193C15.6373 10.2699 15.7665 10.3963 15.9256 10.4986C16.0875 10.598 16.2608 10.6818 16.4455 10.75C16.6301 10.8153 16.8077 10.8693 16.9782 10.9119L17.8304 11.1335C18.1088 11.2017 18.3944 11.294 18.687 11.4105C18.9796 11.527 19.2509 11.6804 19.5009 11.8707C19.7509 12.0611 19.9526 12.2969 20.106 12.5781C20.2623 12.8594 20.3404 13.196 20.3404 13.5881C20.3404 14.0824 20.2125 14.5213 19.9569 14.9048C19.704 15.2884 19.3361 15.5909 18.8532 15.8125C18.373 16.0341 17.7921 16.1449 17.1103 16.1449C16.4569 16.1449 15.8915 16.0412 15.4142 15.8338C14.937 15.6264 14.5634 15.3324 14.2935 14.9517C14.0236 14.5682 13.8745 14.1136 13.8461 13.5881H15.1671C15.1926 13.9034 15.2949 14.1662 15.4739 14.3764C15.6557 14.5838 15.8873 14.7386 16.1685 14.8409C16.4526 14.9403 16.7637 14.9901 17.1017 14.9901C17.4739 14.9901 17.8049 14.9318 18.0946 14.8153C18.3873 14.696 18.6174 14.5312 18.785 14.321C18.9526 14.108 19.0364 13.8594 19.0364 13.5753C19.0364 13.3168 18.9625 13.1051 18.8148 12.9403C18.6699 12.7756 18.4725 12.6392 18.2225 12.5312C17.9753 12.4233 17.6955 12.3281 17.383 12.2457L16.3517 11.9645C15.6529 11.7741 15.0989 11.4943 14.6898 11.125C14.2836 10.7557 14.0804 10.267 14.0804 9.65909C14.0804 9.15625 14.2168 8.71733 14.4895 8.34233C14.7623 7.96733 15.1316 7.67614 15.5975 7.46875C16.0634 7.25852 16.589 7.15341 17.1742 7.15341C17.7651 7.15341 18.2864 7.2571 18.7381 7.46449C19.1926 7.67188 19.5506 7.95739 19.812 8.32102C20.0733 8.68182 20.2097 9.09659 20.2211 9.56534H18.9512ZM24.7392 16H21.9139V7.27273H24.8287C25.6838 7.27273 26.4181 7.44744 27.0318 7.79688C27.6454 8.14347 28.1156 8.64205 28.4423 9.29261C28.7718 9.94034 28.9366 10.7173 28.9366 11.6236C28.9366 12.5327 28.7704 13.3139 28.438 13.9673C28.1085 14.6207 27.6312 15.1236 27.0062 15.4759C26.3812 15.8253 25.6255 16 24.7392 16ZM23.2306 14.8494H24.6667C25.3315 14.8494 25.8841 14.7244 26.3244 14.4744C26.7647 14.2216 27.0943 13.8565 27.313 13.3793C27.5318 12.8991 27.6412 12.3139 27.6412 11.6236C27.6412 10.9389 27.5318 10.358 27.313 9.88068C27.0971 9.40341 26.7747 9.04119 26.3457 8.79403C25.9167 8.54687 25.3841 8.4233 24.7477 8.4233H23.2306V14.8494Z" fill="white"/>
</svg>
