<svg width="34" height="24" viewBox="0 0 34 24" fill="none" xmlns="http://www.w3.org/2000/svg">
<rect width="34" height="24" rx="4" fill="#5022ED"/>
<path d="M6.9794 7.27273L9.40838 14.3807H9.50639L11.9354 7.27273H13.3587L10.218 16H8.69673L5.55611 7.27273H6.9794ZM14.619 16V7.27273H20.0906V8.40625H15.9357V11.0653H19.805V12.1946H15.9357V14.8665H20.1417V16H14.619ZM21.8494 16V7.27273H25.0455C25.6648 7.27273 26.1776 7.375 26.5838 7.57955C26.9901 7.78125 27.294 8.0554 27.4957 8.40199C27.6974 8.74574 27.7983 9.13352 27.7983 9.56534C27.7983 9.92898 27.7315 10.2358 27.598 10.4858C27.4645 10.733 27.2855 10.9318 27.0611 11.0824C26.8395 11.2301 26.5952 11.3381 26.3281 11.4062V11.4915C26.6179 11.5057 26.9006 11.5994 27.1761 11.7727C27.4545 11.9432 27.6847 12.1861 27.8665 12.5014C28.0483 12.8168 28.1392 13.2003 28.1392 13.652C28.1392 14.098 28.0341 14.4986 27.8239 14.8537C27.6165 15.206 27.2955 15.4858 26.8608 15.6932C26.4261 15.8977 25.8707 16 25.1946 16H21.8494ZM23.1662 14.8707H25.0668C25.6974 14.8707 26.1491 14.7486 26.4219 14.5043C26.6946 14.2599 26.831 13.9545 26.831 13.5881C26.831 13.3125 26.7614 13.0597 26.6222 12.8295C26.483 12.5994 26.2841 12.4162 26.0256 12.2798C25.7699 12.1435 25.4659 12.0753 25.1136 12.0753H23.1662V14.8707ZM23.1662 11.0483H24.9304C25.2259 11.0483 25.4915 10.9915 25.7273 10.8778C25.9659 10.7642 26.1548 10.6051 26.294 10.4006C26.4361 10.1932 26.5071 9.94886 26.5071 9.66761C26.5071 9.30682 26.3807 9.00426 26.1278 8.75994C25.875 8.51562 25.4872 8.39347 24.9645 8.39347H23.1662V11.0483Z" fill="white"/>
</svg>
