<svg width="48" height="48" viewBox="0 0 48 48" fill="none" xmlns="http://www.w3.org/2000/svg">
<path d="M23.9935 48C37.2447 48 47.987 37.2548 47.987 24C47.987 10.7452 37.2447 0 23.9935 0C10.7422 0 0 10.7452 0 24C0 37.2548 10.7422 48 23.9935 48Z" fill="#5022ED"/>
<path d="M30.6432 25.6732L31.4384 20.5029H26.4751V17.1429C26.4751 15.7303 27.1607 14.3452 29.3955 14.3452H31.6577V9.94288C31.6577 9.94288 29.6149 9.5863 27.6543 9.5863C23.5685 9.5863 20.8949 12.0686 20.8949 16.5532V20.5029H16.3568V25.6732H20.8949V38.1806C21.7998 38.3177 22.7322 38.4 23.6919 38.4C24.6516 38.4 25.5702 38.3177 26.4889 38.1806V25.6732H30.6569H30.6432Z" fill="white"/>
</svg>
