<svg width="48" height="48" viewBox="0 0 48 48" fill="none" xmlns="http://www.w3.org/2000/svg">
<path d="M23.9935 48C37.2447 48 47.987 37.2548 47.987 24C47.987 10.7452 37.2447 0 23.9935 0C10.7422 0 0 10.7452 0 24C0 37.2548 10.7422 48 23.9935 48Z" fill="#5022ED"/>
<path d="M29.7931 11.0399H18.1802C14.2316 11.0399 11.0233 14.2491 11.0233 18.1988V29.8148C11.0233 33.7645 14.2316 36.9736 18.1802 36.9736H29.7931C33.7417 36.9736 36.95 33.7645 36.95 29.8148V18.1988C36.95 14.2491 33.7417 11.0399 29.7931 11.0399Z" fill="white"/>
<path d="M23.9935 30.2674C20.5385 30.2674 17.7278 27.456 17.7278 24C17.7278 20.544 20.5385 17.7325 23.9935 17.7325C27.4486 17.7325 30.2592 20.544 30.2592 24C30.2592 27.456 27.4486 30.2674 23.9935 30.2674ZM23.9935 19.8994C21.7313 19.8994 19.8941 21.7371 19.8941 24C19.8941 26.2628 21.7313 28.1005 23.9935 28.1005C26.2558 28.1005 28.093 26.2628 28.093 24C28.093 21.7371 26.2558 19.8994 23.9935 19.8994Z" fill="#5022ED"/>
<path d="M32.4255 15.5382C31.8359 14.9485 30.7802 14.9485 30.1907 15.5382C29.889 15.8399 29.7245 16.2377 29.7245 16.6628C29.7245 17.0879 29.889 17.4857 30.1907 17.7874C30.4786 18.0891 30.8899 18.2537 31.3149 18.2537C31.7399 18.2537 32.1376 18.0891 32.4392 17.7874C32.7408 17.4994 32.9053 17.0879 32.9053 16.6628C32.9053 16.2377 32.7408 15.8399 32.4392 15.5382H32.4255Z" fill="#5022ED"/>
</svg>
