<svg width="48" height="48" viewBox="0 0 48 48" fill="none" xmlns="http://www.w3.org/2000/svg">
<path d="M23.9935 48C37.2447 48 47.987 37.2548 47.987 24C47.987 10.7452 37.2447 0 23.9935 0C10.7422 0 0 10.7452 0 24C0 37.2548 10.7422 48 23.9935 48Z" fill="#5022ED"/>
<path d="M17.7551 35.1086V18.4869H12.1612V35.1086H17.7551ZM14.9445 16.7177C16.7817 16.7177 17.9334 15.3463 17.9334 13.6457C17.8922 11.904 16.7817 10.5737 14.9856 10.5737C13.1895 10.5737 11.9967 11.904 11.9967 13.6457C11.9967 15.3874 13.1484 16.7177 14.9171 16.7177H14.9582H14.9445Z" fill="white"/>
<path d="M28.1615 20.8595V18.5143H22.499C22.5676 20.0366 22.499 35.1223 22.499 35.1223H28.1615V27.8126C28.1478 26.1806 29.0527 24.2195 30.931 24.0686C32.7682 24.0686 33.5086 26.016 33.5086 28.1966V35.136H39.0614V25.8515C39.0614 20.8732 36.0862 18.144 32.7408 18.144C30.2044 18.144 29.1486 19.3509 28.4768 20.4069L28.1615 20.8732V20.8595Z" fill="white"/>
</svg>
