<svg width="48" height="48" viewBox="0 0 48 48" fill="none" xmlns="http://www.w3.org/2000/svg">
<path d="M23.9935 48C37.2447 48 47.987 37.2548 47.987 24C47.987 10.7452 37.2447 0 23.9935 0C10.7422 0 0 10.7452 0 24C0 37.2548 10.7422 48 23.9935 48Z" fill="#5022ED"/>
<path d="M34.1393 12.288L9.84416 21.9428C9.84416 21.9428 8.69248 22.3406 8.78846 23.0811C8.87072 23.8217 9.81675 24.1646 9.81675 24.1646L15.9316 26.2491L30.6019 16.8137C30.6019 16.8137 31.452 16.2926 31.4246 16.8137C31.4246 16.8137 31.5754 16.9097 31.123 17.3348C30.6705 17.76 19.5924 27.8537 19.5924 27.8537V27.9908L19.5512 27.9771L18.7972 34.752C19.0165 34.8343 19.2633 34.8068 19.4416 34.6697L23.3902 31.0217L29.5462 35.808C29.5462 35.808 29.6696 35.8766 29.7382 35.904C30.5608 36.2331 31.4931 35.8354 31.8222 35.0126L36.1547 12.9188C36.1547 11.4514 34.153 12.3291 34.153 12.3291L34.1393 12.288Z" fill="white"/>
</svg>
