<svg width="48" height="48" viewBox="0 0 48 48" fill="none" xmlns="http://www.w3.org/2000/svg">
<path d="M23.9935 48C37.2447 48 47.987 37.2548 47.987 24C47.987 10.7452 37.2447 0 23.9935 0C10.7422 0 0 10.7452 0 24C0 37.2548 10.7422 48 23.9935 48Z" fill="#5022ED"/>
<path d="M12.4903 16.2377C15.6848 19.4743 20.0037 21.4217 24.583 21.6411C25.2411 21.6823 25.7347 21.0651 25.5839 20.4343C24.9669 17.7325 26.4613 15.8537 28.0792 14.976C29.6833 14.112 32.2472 13.8377 34.2078 15.9085C34.7974 16.5257 36.7717 16.5531 37.7726 16.32C37.3201 17.1703 36.6346 17.9794 35.9765 18.432C35.9765 18.432 35.5377 18.8023 35.5652 19.2823C35.7708 23.5885 34.1804 27.8537 31.1641 31.008C28.134 34.1897 23.9523 35.9314 19.3867 35.9314C17.5632 35.9314 15.7808 35.6297 14.0944 35.0674C16.1099 34.6834 19.3044 32.928 21.3747 30.8571C21.3747 30.8571 10.3926 24.7817 12.4766 16.2514L12.4903 16.2377Z" fill="white"/>
</svg>
