<svg width="172" height="228" viewBox="0 0 172 228" fill="none" xmlns="http://www.w3.org/2000/svg">
<g clip-path="url(#clip0_419_1722)">
<path d="M52.6 67.2L73.7 98.4L79.2 83.2L58.1 51.9L52.6 67.2Z" fill="url(#paint0_radial_419_1722)" stroke="#020739" stroke-width="2" stroke-miterlimit="10"/>
<path d="M66.8 29.8L87.5 60.4L92 47.9C92.2 47.4 92.4 46.9 92.6 46.5L79.9 13.9C74.7 18.3 70.2 23.6 66.8 29.8Z" fill="url(#paint1_radial_419_1722)" stroke="#020739" stroke-width="2" stroke-miterlimit="10"/>
<path d="M138.9 109.7C146.8 112.6 155.6 108.5 158.5 100.6L161.7 91.7999L129.3 98.7999C130.4 103.6 133.9 107.9 138.9 109.7Z" fill="url(#paint2_radial_419_1722)" stroke="#020739" stroke-width="2" stroke-miterlimit="10"/>
<path d="M137.1 44.1L164.6 30.8C160 21.9 153 14.3 144.1 8.90002L131.9 37.7C134 39.5 135.8 41.7 137.1 44.1Z" fill="url(#paint3_radial_419_1722)" stroke="#020739" stroke-width="2" stroke-miterlimit="10"/>
<path d="M1.90001 206.4C-0.99999 214.3 3.10001 223.1 11 226C13.3 226.9 15.8 227.1 18.1 226.8L2.80001 204.1L1.90001 206.4Z" fill="url(#paint4_radial_419_1722)" stroke="#020739" stroke-width="2" stroke-miterlimit="10"/>
<path d="M24.9 143.3L46 174.5L51.6 159.3L30.4 128L24.9 143.3Z" fill="url(#paint5_radial_419_1722)" stroke="#020739" stroke-width="2" stroke-miterlimit="10"/>
<path d="M11.1 181.3L32.2 212.6L37.7 197.3L16.6 166.1L11.1 181.3Z" fill="url(#paint6_radial_419_1722)" stroke="#020739" stroke-width="2" stroke-miterlimit="10"/>
<path d="M38.7 105.2L59.7999 136.5L65.4 121.2L44.2999 90L38.7 105.2Z" fill="url(#paint7_radial_419_1722)" stroke="#020739" stroke-width="2" stroke-miterlimit="10"/>
<path d="M170.5 49.7L138.9 65L134.3 77.5999L169.2 70C171 63.3 171.4 56.4 170.5 49.7Z" fill="url(#paint8_radial_419_1722)" stroke="#020739" stroke-width="2" stroke-miterlimit="10"/>
<path d="M113.2 31.6L125.7 1.99997C115.9 0.199966 106.1 0.999966 97.1 4.19997L108.2 32.7C109.8 32.1 111.5 31.8 113.2 31.6Z" fill="url(#paint9_radial_419_1722)"/>
<path d="M107.7 33.8L95.9 3.49998L96.9 3.19998C106.2 -0.100023 116.3 -0.800023 126 0.999977L127.2 1.19998L113.9 32.6L113.3 32.7C111.7 32.9 110.1 33.2 108.6 33.6L107.7 33.8ZM98.5 4.69998L108.9 31.3C110.1 31 111.3 30.8 112.5 30.6L124.4 2.59998C115.7 1.29998 106.8 1.99998 98.5 4.69998Z" fill="#020739"/>
<path d="M2.79993 204.1L18.0999 226.8C23.5999 226.1 28.5999 222.5 30.5999 216.9L32.1999 212.6L11.0999 181.4L2.79993 204.1Z" fill="#F33E3C"/>
<path d="M17.6 227.9L1.59998 204.3L10.7 179.2L33.2 212.5L31.5 217.3C29.4 223.1 24.3 227.1 18.2 227.9H17.6ZM3.89998 204L18.6 225.8C23.7 225 27.9 221.5 29.7 216.6L31.1 212.8L11.4 183.6L3.89998 204Z" fill="#020739"/>
<path d="M16.6 166.1L37.7 197.3L46 174.5L24.9 143.3L16.6 166.1Z" fill="#F33E3C"/>
<path d="M38 199.5L15.5 166.2L24.6 141.1L47.1 174.4L38 199.5ZM17.7 165.9L37.4 195.1L44.8 174.6L25.1 145.4L17.7 165.9Z" fill="#020739"/>
<path d="M30.4 128L51.6 159.3L59.8 136.5L38.7 105.2L30.4 128Z" fill="#F33E3C"/>
<path d="M51.8 161.4L29.3 128.1L38.4001 103L61 136.3L51.8 161.4ZM31.6 127.9L51.3 157.1L58.7001 136.6L39 107.4L31.6 127.9Z" fill="#020739"/>
<path d="M44.2999 90L65.3999 121.2L73.6999 98.4L52.5999 67.2L44.2999 90Z" fill="#F33E3C"/>
<path d="M65.6999 123.4L43.2 90.1L52.2999 65L74.8 98.3L65.6999 123.4ZM45.4 89.8L65.0999 119L72.5 98.5L52.7999 69.4L45.4 89.8Z" fill="#020739"/>
<path d="M63.3 37.5L58.1 51.9001L79.2 83.1L87.5 60.3L66.8 29.8C65.5 32.2 64.3 34.8 63.3 37.5Z" fill="#F33E3C"/>
<path d="M79.5 85.4L57 52.1L62.4 37.2C63.4 34.5 64.6 31.9 65.9 29.4L66.7 28L88.6 60.4L79.5 85.4ZM59.2 51.8L79 81L86.4 60.5L66.9 31.7C65.9 33.7 65 35.7 64.2 37.8L59.2 51.8Z" fill="#020739"/>
<path d="M169.3 69.9999L134.4 77.5999L129.8 90.0999C128.8 92.9999 128.6 95.9999 129.3 98.7999L161.7 91.7999L167.6 75.4999C168.3 73.5999 168.8 71.7999 169.3 69.9999Z" fill="#F33E3C"/>
<path d="M128.5 99.9999L128.3 98.9999C127.6 95.8999 127.8 92.6999 128.9 89.7999L133.6 76.7999L170.7 68.7999L170.3 70.3999C169.8 72.2999 169.3 74.0999 168.6 75.8999L162.5 92.7999L128.5 99.9999ZM135.1 78.4999L130.7 90.4999C129.9 92.7999 129.6 95.1999 130 97.5999L160.9 90.8999L166.7 75.0999C167.1 73.8999 167.5 72.5999 167.9 71.3999L135.1 78.4999Z" fill="#020739"/>
<path d="M164.6 30.8L137.1 44.1C140.6 50.2 141.5 57.8 138.9 65L170.5 49.7001C169.7 43.1 167.7 36.7 164.6 30.8Z" fill="#F33E3C"/>
<path d="M137.1 67L137.9 64.7C140.3 58.1 139.7 50.7 136.2 44.6L135.7 43.7L165 29.5L165.4 30.4C168.5 36.4 170.6 42.9 171.4 49.7L171.5 50.4L137.1 67ZM138.5 44.5C141.5 50.3 142.2 56.9 140.6 63.1L169.5 49.1C168.7 43.1 166.9 37.4 164.2 32.1L138.5 44.5Z" fill="#020739"/>
<path d="M108.3 32.6L97.1999 4.09998C90.8999 6.29998 84.9999 9.69998 79.8999 13.9L92.5999 46.5C95.5999 39.6 101.5 34.7 108.3 32.6Z" fill="#F33E3C"/>
<path d="M92.6 49.0999L78.7 13.5999L79.3 13.0999C84.5 8.69993 90.4 5.39993 96.9 3.09993L97.8 2.79993L109.6 33.1999L108.6 33.4999C101.9 35.5999 96.4 40.3999 93.6 46.8999L92.6 49.0999ZM81.1 14.1999L92.7 43.9999C95.8 38.3999 100.8 34.0999 106.9 31.9999L96.6 5.39993C91 7.49993 85.8 10.4999 81.1 14.1999Z" fill="#020739"/>
<path d="M124 33C127 34.1 129.6 35.7 131.9 37.7L144.1 8.90002C141.1 7.10002 137.9 5.50002 134.5 4.30002C131.6 3.30002 128.7 2.50002 125.8 1.90002L113.2 31.6C116.7 31.3 120.4 31.7 124 33Z" fill="#F33E3C"/>
<path d="M132.3 39.4L131.3 38.5C129.1 36.5 126.5 35 123.7 34C120.3 32.8 116.8 32.3 113.3 32.7L111.6 32.9L125.2 0.900024L126 1.00002C129 1.60002 132 2.40002 134.9 3.40002C138.3 4.60002 141.6 6.20002 144.7 8.10002L145.4 8.50002L132.3 39.4ZM115.5 30.5C118.5 30.5 121.5 31 124.3 32.1C126.9 33 129.3 34.4 131.5 36.1L142.8 9.40002C140 7.80002 137.1 6.40002 134.1 5.30002C131.6 4.40002 129 3.70002 126.3 3.10002L114.7 30.5C115 30.5 115.3 30.5 115.5 30.5Z" fill="#020739"/>
</g>
<defs>
<radialGradient id="paint0_radial_419_1722" cx="0" cy="0" r="1" gradientUnits="userSpaceOnUse" gradientTransform="translate(7.28618 220.707) rotate(180) scale(262.921)">
<stop stop-color="white"/>
<stop offset="1" stop-color="#E6E7E8"/>
</radialGradient>
<radialGradient id="paint1_radial_419_1722" cx="0" cy="0" r="1" gradientUnits="userSpaceOnUse" gradientTransform="translate(7.28626 220.707) rotate(180) scale(262.921)">
<stop stop-color="white"/>
<stop offset="1" stop-color="#E6E7E8"/>
</radialGradient>
<radialGradient id="paint2_radial_419_1722" cx="0" cy="0" r="1" gradientUnits="userSpaceOnUse" gradientTransform="translate(7.28627 220.707) rotate(180) scale(262.921)">
<stop stop-color="white"/>
<stop offset="1" stop-color="#E6E7E8"/>
</radialGradient>
<radialGradient id="paint3_radial_419_1722" cx="0" cy="0" r="1" gradientUnits="userSpaceOnUse" gradientTransform="translate(7.28618 220.707) rotate(180) scale(262.921 262.921)">
<stop stop-color="white"/>
<stop offset="1" stop-color="#E6E7E8"/>
</radialGradient>
<radialGradient id="paint4_radial_419_1722" cx="0" cy="0" r="1" gradientUnits="userSpaceOnUse" gradientTransform="translate(7.28621 220.707) rotate(180) scale(262.921)">
<stop stop-color="white"/>
<stop offset="1" stop-color="#E6E7E8"/>
</radialGradient>
<radialGradient id="paint5_radial_419_1722" cx="0" cy="0" r="1" gradientUnits="userSpaceOnUse" gradientTransform="translate(7.28623 220.707) rotate(180) scale(262.921)">
<stop stop-color="white"/>
<stop offset="1" stop-color="#E6E7E8"/>
</radialGradient>
<radialGradient id="paint6_radial_419_1722" cx="0" cy="0" r="1" gradientUnits="userSpaceOnUse" gradientTransform="translate(7.28618 220.707) rotate(180) scale(262.921)">
<stop stop-color="white"/>
<stop offset="1" stop-color="#E6E7E8"/>
</radialGradient>
<radialGradient id="paint7_radial_419_1722" cx="0" cy="0" r="1" gradientUnits="userSpaceOnUse" gradientTransform="translate(7.28615 220.707) rotate(180) scale(262.921)">
<stop stop-color="white"/>
<stop offset="1" stop-color="#E6E7E8"/>
</radialGradient>
<radialGradient id="paint8_radial_419_1722" cx="0" cy="0" r="1" gradientUnits="userSpaceOnUse" gradientTransform="translate(7.28627 220.707) rotate(180) scale(262.921)">
<stop stop-color="white"/>
<stop offset="1" stop-color="#E6E7E8"/>
</radialGradient>
<radialGradient id="paint9_radial_419_1722" cx="0" cy="0" r="1" gradientUnits="userSpaceOnUse" gradientTransform="translate(7.28617 220.707) rotate(180) scale(262.921)">
<stop stop-color="white"/>
<stop offset="1" stop-color="#E6E7E8"/>
</radialGradient>
<clipPath id="clip0_419_1722">
<rect width="172" height="227.9" fill="white"/>
</clipPath>
</defs>
</svg>
