<svg xmlns="http://www.w3.org/2000/svg" xmlns:xlink="http://www.w3.org/1999/xlink" viewBox="0 0 66.9 76.05"><defs><radialGradient id="a" cx="34.59" cy="32.54" r="31.09" gradientTransform="rotate(3.21 34.666 32.603)" gradientUnits="userSpaceOnUse"><stop offset=".06" stop-color="#e9f6ff"/><stop offset=".09" stop-color="#dff5fc"/><stop offset=".22" stop-color="#aaefe9"/><stop offset=".35" stop-color="#7dead9"/><stop offset=".48" stop-color="#58e6cc"/><stop offset=".62" stop-color="#3be3c2"/><stop offset=".75" stop-color="#26e1bb"/><stop offset=".87" stop-color="#1adfb6"/><stop offset="1" stop-color="#16dfb5"/></radialGradient><radialGradient id="c" cx="35.97" cy="32.46" r="30.03" xlink:href="#a"/><linearGradient id="b" x1="37.8" y1="26.42" x2="37.8" y2="3.37" gradientUnits="userSpaceOnUse"><stop offset="0"/><stop offset=".12" stop-color="#050402"/><stop offset=".27" stop-color="#130e08"/><stop offset=".42" stop-color="#2b2011"/><stop offset=".59" stop-color="#4c381f"/><stop offset=".76" stop-color="#775830"/><stop offset=".93" stop-color="#aa7e45"/><stop offset="1" stop-color="#c2904f"/></linearGradient><linearGradient id="d" x1="32.06" y1="46.94" x2="25.9" y2="59.56" xlink:href="#b"/></defs><g data-name="Layer 2" style="isolation:isolate"><ellipse cx="33.45" cy="39.05" rx="33.44" ry="37.02" transform="rotate(-3.21 33.548 39.157)" style="fill:#848484;mix-blend-mode:multiply"/><ellipse cx="34.59" cy="32.54" rx="29.57" ry="32.54" transform="rotate(-3.21 34.626 32.58)" style="fill:url(#a)"/><path d="M64.12 30.88c1 17.51-10.82 32.42-26.37 33.29S8.81 51.55 7.82 34 18.64 1.62 34.19.74s28.94 12.62 29.93 30.14z" style="fill:url(#c)"/><path d="M14.66 15.08S37.15 31.17 60.93 25c0 0-3.89-18.6-18.87-21.2a27 27 0 0 0-27.4 11.28z" style="fill:url(#b);mix-blend-mode:screen"/><path d="M14.66 48.75s12.66-4.06 21.07 0 5.21 13.84 5.21 13.84-19.43.87-26.28-13.84z" style="fill:url(#d);mix-blend-mode:screen"/></g></svg>