<svg width="227" height="153" viewBox="0 0 227 153" fill="none" xmlns="http://www.w3.org/2000/svg">
<path d="M223.215 7.075C222.715 6.575 222.315 6.175 221.815 5.775C221.915 5.675 222.015 5.575 222.115 5.475C219.515 3.775 217.015 3.875 215.215 4.875C215.215 4.875 215.215 4.775 215.115 4.775L212.415 1.775C217.015 -2.425 221.515 -6.625 225.915 -10.925C226.415 -11.425 226.415 -12.125 225.915 -12.625C225.415 -13.125 224.715 -13.125 224.215 -12.625C113.315 96.175 -44.3848 146.075 -197.585 120.875C-198.185 120.775 -198.885 121.175 -198.985 121.875C-199.085 122.475 -198.685 123.175 -197.985 123.275C-191.885 124.275 -185.785 125.175 -179.685 125.975L-180.185 129.975C-180.185 130.075 -180.185 130.075 -180.185 130.075C-182.285 130.275 -184.385 131.675 -185.485 134.575C-185.385 134.575 -185.185 134.575 -185.085 134.575C-185.285 135.075 -185.385 135.675 -185.485 136.375C-186.185 141.175 -181.285 148.375 -181.185 148.375C-181.185 148.375 -174.685 142.575 -174.185 137.775C-174.085 137.075 -174.085 136.475 -174.185 135.875C-174.085 135.875 -173.885 135.875 -173.785 135.875C-174.185 132.875 -175.885 130.975 -177.885 130.275V130.175L-177.385 126.175C-166.385 127.475 -155.385 128.475 -144.385 129.075L-144.585 133.175C-144.585 133.275 -144.585 133.275 -144.585 133.275C-146.685 133.675 -148.585 135.275 -149.485 138.175C-149.385 138.175 -149.185 138.175 -149.085 138.175C-149.185 138.775 -149.285 139.375 -149.385 140.075C-149.685 144.875 -144.285 151.775 -144.285 151.775C-144.285 151.775 -138.185 145.475 -138.085 140.675C-138.085 139.975 -138.085 139.375 -138.185 138.775C-138.085 138.775 -137.885 138.775 -137.785 138.775C-138.385 135.775 -140.185 133.975 -142.185 133.475V133.375L-141.985 129.275C-134.185 129.675 -126.285 129.875 -118.385 129.875C-115.285 129.875 -112.085 129.875 -108.985 129.775L-108.885 133.875C-108.885 133.975 -108.885 133.975 -108.885 133.975C-110.885 134.475 -112.685 136.175 -113.485 139.175C-113.385 139.175 -113.185 139.175 -113.085 139.175C-113.185 139.775 -113.185 140.375 -113.185 141.075C-113.185 145.875 -107.285 152.375 -107.285 152.375C-107.285 152.375 -101.685 145.675 -101.885 140.875C-101.885 140.175 -101.985 139.575 -102.085 138.975C-101.985 138.975 -101.785 138.975 -101.685 138.975C-102.485 136.075 -104.385 134.375 -106.485 133.975C-106.485 133.875 -106.485 133.875 -106.485 133.875L-106.585 129.775C-98.4848 129.575 -90.3848 129.175 -82.2848 128.575C-79.4848 128.375 -76.6848 128.175 -73.7848 127.875L-73.3848 131.975C-73.3848 132.075 -73.3848 132.075 -73.3848 132.075C-75.3848 132.775 -77.0848 134.575 -77.4848 137.575C-77.3848 137.575 -77.2848 137.575 -77.0848 137.575C-77.1848 138.175 -77.1848 138.775 -77.0848 139.475C-76.6848 144.275 -70.4848 150.375 -70.4848 150.375C-70.4848 150.375 -65.4848 143.275 -65.9848 138.475C-66.0848 137.775 -66.1848 137.175 -66.3848 136.575C-66.2848 136.575 -66.1848 136.575 -65.9848 136.575C-66.9848 133.675 -68.9848 132.175 -71.0848 131.975C-71.0848 131.875 -71.0848 131.875 -71.0848 131.775L-71.4848 127.675C-60.6848 126.675 -49.8848 125.275 -39.0848 123.475L-38.3848 127.475C-38.3848 127.575 -38.3848 127.575 -38.2848 127.575C-40.1848 128.375 -41.6848 130.375 -41.9848 133.375C-41.8848 133.375 -41.7848 133.375 -41.5848 133.275C-41.5848 133.875 -41.5848 134.475 -41.4848 135.175C-40.7848 139.975 -34.0848 145.575 -34.0848 145.575C-34.0848 145.575 -29.5848 138.175 -30.4848 133.375C-30.5848 132.675 -30.7848 132.075 -30.9848 131.575C-30.8848 131.575 -30.7848 131.575 -30.5848 131.475C-31.7848 128.675 -33.8848 127.375 -35.9848 127.175C-35.9848 127.075 -35.9848 127.075 -35.9848 126.975L-36.6848 122.975C-25.9848 121.175 -15.3848 118.975 -4.78479 116.475L-3.78479 120.475C-3.78479 120.575 -3.78479 120.575 -3.68478 120.575C-5.48479 121.475 -6.88478 123.575 -6.98479 126.575C-6.88478 126.575 -6.78479 126.475 -6.58479 126.475C-6.58479 127.075 -6.48479 127.675 -6.28479 128.375C-5.28479 133.075 1.81522 138.175 1.81522 138.175C1.81522 138.175 5.81522 130.475 4.61522 125.775C4.41522 125.075 4.21521 124.475 4.01521 123.975C4.11522 123.975 4.21521 123.875 4.41521 123.875C3.01521 121.175 0.815216 119.975 -1.28479 119.975C-1.28479 119.875 -1.28479 119.875 -1.28479 119.775L-2.28479 115.775C8.21521 113.175 18.7152 110.275 29.0152 107.075L30.2152 110.975C30.2152 111.075 30.2152 111.075 30.3152 111.075C28.5152 112.175 27.3152 114.275 27.5152 117.275C27.6152 117.275 27.7152 117.175 27.9152 117.175C28.0152 117.775 28.1152 118.375 28.3152 118.975C29.7152 123.575 37.0152 128.175 37.1152 128.175C37.1152 128.175 40.5152 120.175 39.0152 115.575C38.8152 114.875 38.5152 114.375 38.3152 113.875C38.4152 113.875 38.5152 113.775 38.7152 113.775C37.1152 111.175 34.8152 110.175 32.8152 110.275C32.8152 110.175 32.8152 110.175 32.8152 110.075L31.6152 106.175C41.9152 102.875 52.1152 99.275 62.2152 95.275L63.7152 99.075L63.8152 99.175C62.1152 100.375 61.0152 102.575 61.4152 105.575C61.5152 105.575 61.6152 105.475 61.7152 105.475C61.8152 106.075 62.0152 106.675 62.2152 107.275C63.9152 111.775 71.6152 115.875 71.6152 115.875C71.6152 115.875 74.4152 107.675 72.6152 103.175C72.3152 102.475 72.0152 101.975 71.7152 101.475C71.8152 101.475 71.9152 101.375 72.0152 101.375C70.2152 98.975 67.9152 98.075 65.8152 98.375C65.8152 98.275 65.8152 98.275 65.8152 98.175L64.3152 94.375C74.4152 90.375 84.3152 85.975 94.1152 81.275L95.9152 84.975L96.0152 85.075C94.4152 86.375 93.5152 88.675 94.1152 91.675C94.2152 91.575 94.3152 91.575 94.4152 91.475C94.5152 91.975 94.8152 92.575 95.1152 93.275C97.1152 97.675 105.115 101.175 105.115 101.175C105.115 101.175 107.415 92.775 105.215 88.475C104.915 87.875 104.615 87.275 104.215 86.875C104.315 86.775 104.415 86.775 104.515 86.675C102.515 84.375 100.115 83.675 98.1152 84.075V83.975L96.3152 80.275C106.115 75.575 115.715 70.475 125.215 65.075L127.215 68.575L127.315 68.675C125.815 70.075 125.015 72.475 125.815 75.375C125.915 75.275 126.015 75.275 126.115 75.175C126.315 75.675 126.515 76.275 126.915 76.875C129.215 81.075 137.415 84.075 137.415 83.975C137.415 83.975 139.115 75.475 136.615 71.275C136.215 70.675 135.915 70.175 135.515 69.775C135.615 69.675 135.715 69.675 135.815 69.575C133.715 67.375 131.215 66.875 129.215 67.475V67.375L127.215 63.875C129.715 62.475 132.115 61.075 134.515 59.575C141.415 55.375 148.315 51.075 155.015 46.575L157.315 49.975L157.415 50.075C156.015 51.575 155.415 54.075 156.415 56.875C156.515 56.775 156.615 56.775 156.715 56.675C156.915 57.175 157.215 57.775 157.615 58.375C160.215 62.475 168.615 64.775 168.615 64.675C168.615 64.675 169.715 56.075 166.915 52.075C166.515 51.475 166.115 50.975 165.715 50.575C165.815 50.475 165.915 50.475 166.015 50.375C163.715 48.375 161.215 47.975 159.315 48.775C159.315 48.775 159.315 48.675 159.215 48.675L156.915 45.275C166.015 39.175 174.915 32.675 183.615 25.975L186.115 29.175L186.215 29.275C184.915 30.875 184.415 33.375 185.615 36.175C185.715 36.075 185.815 35.975 185.915 35.975C186.215 36.475 186.515 36.975 186.915 37.575C189.815 41.475 198.415 43.075 198.415 43.075C198.415 43.075 198.915 34.375 195.815 30.575C195.415 30.075 194.915 29.575 194.515 29.175C194.615 29.075 194.715 28.975 194.815 28.975C192.415 27.175 189.915 26.975 188.015 27.875C188.015 27.875 188.015 27.775 187.915 27.775L185.415 24.575C194.115 17.775 202.615 10.575 210.815 3.175L213.515 6.175L213.615 6.275C212.415 7.975 212.115 10.475 213.515 13.275C213.615 13.175 213.715 13.075 213.815 12.975C214.115 13.475 214.515 13.975 214.915 14.475C218.115 18.175 226.815 19.175 226.815 19.075C226.715 19.375 226.515 10.675 223.215 7.075Z" fill="#6261FF"/>
</svg>
