<svg xmlns="http://www.w3.org/2000/svg" xmlns:xlink="http://www.w3.org/1999/xlink" viewBox="0 0 533.51 732.38"><defs><radialGradient id="radial-gradient" cx="274.16" cy="277.99" r="12.48" gradientTransform="translate(0 -266)" gradientUnits="userSpaceOnUse"><stop offset=".06" stop-color="#e9f6ff"/><stop offset=".09" stop-color="#dff5fc"/><stop offset=".22" stop-color="#aaefe9"/><stop offset=".35" stop-color="#7dead9"/><stop offset=".48" stop-color="#58e6cc"/><stop offset=".62" stop-color="#3be3c2"/><stop offset=".75" stop-color="#26e1bb"/><stop offset=".87" stop-color="#1adfb6"/><stop offset="1" stop-color="#16dfb5"/></radialGradient><radialGradient id="radial-gradient-3" cx="90" cy="361.65" r="12.48" xlink:href="#radial-gradient"/><radialGradient id="radial-gradient-4" cx="31.12" cy="537.88" r="12.48" xlink:href="#radial-gradient"/><radialGradient id="radial-gradient-5" cx="120.14" cy="704.91" r="12.48" xlink:href="#radial-gradient"/><radialGradient id="radial-gradient-6" cx="438.53" cy="705" r="12.48" xlink:href="#radial-gradient"/><radialGradient id="radial-gradient-7" cx="463.35" cy="360.94" r="12.48" xlink:href="#radial-gradient"/><radialGradient id="radial-gradient-8" cx="524.82" cy="537.99" r="12.48" xlink:href="#radial-gradient"/><linearGradient id="linear-gradient" x1="179.84" y1="791.31" x2="338.71" y2="330.86" gradientTransform="translate(0 -266)" gradientUnits="userSpaceOnUse"><stop offset="0" stop-color="#b31a8f"/><stop offset="1" stop-color="#fe117e"/></linearGradient><linearGradient id="linear-gradient-2" x1="179.9" y1="791.29" x2="338.75" y2="330.9" xlink:href="#linear-gradient"/><linearGradient id="linear-gradient-3" x1="388.2" y1="712.24" x2="388.2" y2="711.28" gradientTransform="translate(0 -266)" gradientUnits="userSpaceOnUse"><stop offset="0" stop-color="#ff9036"/><stop offset="1" stop-color="#ffbd0c"/></linearGradient><style>.cls-1{fill:url(#radial-gradient)}.cls-2{fill:#5022ed}.cls-3{fill:#2b00bc}.cls-9{fill:#11193b}</style></defs><g id="Layer_2" data-name="Layer 2"><g id="Layer_1-2" data-name="Layer 1"><path class="cls-1" d="M282.85 12.84A12.84 12.84 0 1 1 270 0a12.82 12.82 0 0 1 12.84 12.8z"/><g id="Layer_2-2" data-name="Layer 2"><g id="Layer_1-2-2" data-name="Layer 1-2"><g id="Layer_2-2-2" data-name="Layer 2-2"><g id="Layer_1-2-2-2" data-name="Layer 1-2-2"><path class="cls-2" d="m212.76 506.71-13.32 187.83h152.87l-25.45-187.83h-114.1z"/><path class="cls-3" d="m188.75 511.93-8.32 182.44 19.14.17q6.18-88.35 12.37-176.7z"/><path class="cls-2" d="M519.8 248.52c-7.1-143.59-129.15-254-272.6-246.7S-6.78 131.51.32 275.1s129.15 254 272.6 246.7S526.9 392.11 519.8 248.52zM273.37 484.89C147.9 491.31 41.15 394.8 34.94 269.34S125.4 37 250.87 30.57s232.22 90.09 238.43 215.55-90.46 232.36-215.93 238.77z"/><path style="fill:url(#linear-gradient)" d="m272.49 256.58.06.22-.08.02.02-.24z"/><path style="fill:url(#linear-gradient-2)" d="M272.52 256.56h-.03v-.03l.16-.29.21.02-.34.3z"/><path d="M324.2 732.38h-10.49m-10.77-42.37h16.17" style="fill:none"/><path d="M387.43 446.24c.53-.31 1.05-.64 1.55-1-.38.29-.77.55-1.17.8z" style="fill:url(#linear-gradient-3)"/><path class="cls-2" d="m208.23 570.5-3.54 123.11-5.25.93 8.79-124.04z"/><path class="cls-2" d="M175.11 694.54h2.2l-2.19 37.67v.16h-.01v.01h216.56v-44.66l-216.56 6.82z"/><path class="cls-3" d="M175.12 732.37v-.16l2.19-37.67h-34.83v37.83h32.63v.01-.01h.01z"/><path class="cls-2" d="M337.87 587.99 223.55 694.54l128.76-5.38-14.44-101.17z"/><path d="M285.41 462.35h-12.55l-29.59 20.9 5.86.49L217 518.38l8.25.82z" style="fill:#fff"/><path class="cls-9" d="M254.86 13a7.11 7.11 0 0 0 5.88 7.87A6.59 6.59 0 0 0 268 15v-.29a7.11 7.11 0 0 0-5.88-7.87 6.59 6.59 0 0 0-7.24 5.89 1.22 1.22 0 0 0-.02.27z"/><path class="cls-1" d="M282.85 12.84A12.84 12.84 0 1 1 270 0a12.82 12.82 0 0 1 12.84 12.8z"/><path class="cls-9" d="M11.93 272.9a7.11 7.11 0 0 0 5.88 7.87 6.61 6.61 0 0 0 7.24-5.89v-.27a7.1 7.1 0 0 0-5.87-7.87 6.6 6.6 0 0 0-7.25 5.88 1.31 1.31 0 0 0 0 .28zm493.72 0a7.11 7.11 0 0 0 5.88 7.87 6.62 6.62 0 0 0 7.25-5.88v-.28a7.11 7.11 0 0 0-5.88-7.87 6.6 6.6 0 0 0-7.25 5.88 1.31 1.31 0 0 1 0 .28zM443.91 96.1a7.11 7.11 0 0 0 5.88 7.87A6.59 6.59 0 0 0 457 98.1v-.29a7.11 7.11 0 0 0-5.88-7.87 6.59 6.59 0 0 0-7.24 5.89 1.22 1.22 0 0 0 .03.27zm-373.2.6a7.11 7.11 0 0 0 5.88 7.87 6.62 6.62 0 0 0 7.25-5.88v-.28A7.13 7.13 0 0 0 78 90.54a6.6 6.6 0 0 0-7.25 5.88 1.31 1.31 0 0 0-.04.28z"/><path d="M98.69 96.5a12.84 12.84 0 1 1-12.84-12.84 12.82 12.82 0 0 1 12.84 12.8z" style="fill:url(#radial-gradient-3)"/><path class="cls-9" d="M101 440a7.11 7.11 0 0 0 5.88 7.87 6.61 6.61 0 0 0 7.22-5.87v-.28a7.11 7.11 0 0 0-5.88-7.87 6.6 6.6 0 0 0-7.25 5.88 2.43 2.43 0 0 0 .03.27zm318.22 0a7.09 7.09 0 0 0 5.87 7.87 6.62 6.62 0 0 0 7.21-5.87v-.28a7.11 7.11 0 0 0-5.88-7.87 6.59 6.59 0 0 0-7.24 5.87.45.45 0 0 1 .04.28z"/></g></g><path d="M39.81 272.73A12.84 12.84 0 1 1 27 259.89a12.82 12.82 0 0 1 12.84 12.8z" style="fill:url(#radial-gradient-4)"/></g></g><path d="M128.83 439.76A12.84 12.84 0 1 1 116 426.92a12.82 12.82 0 0 1 12.84 12.8z" style="fill:url(#radial-gradient-5)"/><path d="M447.22 439.85A12.84 12.84 0 1 1 434.38 427a12.82 12.82 0 0 1 12.84 12.8z" style="fill:url(#radial-gradient-6)"/><path d="M472 95.79A12.84 12.84 0 1 1 459.2 83 12.82 12.82 0 0 1 472 95.75z" style="fill:url(#radial-gradient-7)"/><path d="M533.51 272.84A12.84 12.84 0 1 1 520.67 260a12.83 12.83 0 0 1 12.84 12.8z" style="fill:url(#radial-gradient-8)"/><path d="m292.49 465.45.06-.08-6.77-3.31-40.95 38.09-19.21 18.77-13.3-1.37 26.11 20.64-.06.07c76 6.71 100.33-4.46 100.33-4.46-7.94-29.55-44.95-67.08-46.21-68.35z" style="fill:#f8c145"/></g></g></svg>