<svg width="32" height="32" fill="none" xmlns="http://www.w3.org/2000/svg"><path d="M16 32c8.837 0 16-7.163 16-16S24.837 0 16 0 0 7.163 0 16s7.163 16 16 16z" fill="#1B75BC"/><path fill-rule="evenodd" clip-rule="evenodd" d="M11.587 8.602L16 13.208l4.305-4.606L23 11.36 18.604 16 23 20.603l-2.695 2.793L16 18.792l-4.413 4.604L9 20.68l4.36-4.706L9 11.36l2.587-2.757v-.001zm.355-.376L15.982 4l4.04 4.226-2.126 2.265-1.914-2.114-1.914 2.114-2.126-2.265zm0 15.548l2.126-2.265 1.914 2.114 1.914-2.114 2.126 2.265L15.982 28l-4.04-4.226z" fill="#fff"/></svg>