<svg width="32" height="32" fill="none" xmlns="http://www.w3.org/2000/svg"><path d="M16 32c8.837 0 16-7.163 16-16S24.837 0 16 0 0 7.163 0 16s7.163 16 16 16z" fill="#051D2D"/><path d="M15.993 19.986a6.993 6.993 0 116.993-6.993 7.002 7.002 0 01-6.993 6.993zM16 12.951a.049.049 0 00-.045.03.05.05 0 10.094.019.055.055 0 00-.05-.05l.001.001z" fill="url(#paint0_linear_6_2698)"/><path d="M15.993 26.986a6.993 6.993 0 116.993-6.993 7.002 7.002 0 01-6.993 6.993zM16 19.951a.049.049 0 00-.045.03.05.05 0 10.094.019.055.055 0 00-.05-.05l.001.001z" fill="url(#paint1_linear_6_2698)"/><defs><linearGradient id="paint0_linear_6_2698" x1="15.993" y1="6" x2="15.993" y2="26.033" gradientUnits="userSpaceOnUse"><stop stop-color="#fff"/><stop offset=".03" stop-color="#fff" stop-opacity=".83"/><stop offset=".07" stop-color="#fff" stop-opacity=".66"/><stop offset=".11" stop-color="#fff" stop-opacity=".5"/><stop offset=".15" stop-color="#fff" stop-opacity=".37"/><stop offset=".19" stop-color="#fff" stop-opacity=".25"/><stop offset=".25" stop-color="#fff" stop-opacity=".16"/><stop offset=".3" stop-color="#fff" stop-opacity=".09"/><stop offset=".37" stop-color="#fff" stop-opacity=".04"/><stop offset=".47" stop-color="#fff" stop-opacity=".01"/><stop offset="1" stop-color="#fff" stop-opacity="0"/></linearGradient><linearGradient id="paint1_linear_6_2698" x1="15.993" y1="13" x2="15.993" y2="33.033" gradientUnits="userSpaceOnUse"><stop stop-color="#fff"/><stop offset=".03" stop-color="#fff" stop-opacity=".83"/><stop offset=".07" stop-color="#fff" stop-opacity=".66"/><stop offset=".11" stop-color="#fff" stop-opacity=".5"/><stop offset=".15" stop-color="#fff" stop-opacity=".37"/><stop offset=".19" stop-color="#fff" stop-opacity=".25"/><stop offset=".25" stop-color="#fff" stop-opacity=".16"/><stop offset=".3" stop-color="#fff" stop-opacity=".09"/><stop offset=".37" stop-color="#fff" stop-opacity=".04"/><stop offset=".47" stop-color="#fff" stop-opacity=".01"/><stop offset="1" stop-color="#fff" stop-opacity="0"/></linearGradient></defs></svg>