<svg width="32" height="32" fill="none" xmlns="http://www.w3.org/2000/svg"><path d="M16 32c8.837 0 16-7.163 16-16S24.837 0 16 0 0 7.163 0 16s7.163 16 16 16z" fill="#FD875E"/><path d="M13.66 17.386l2.386-7.112 2.43 7.112H13.66zm10.112 4.497l-1.973-5.309h1.178a.849.849 0 00.85-.836.788.788 0 00-.237-.561.821.821 0 00-.573-.233h-1.84l-.295-.826h2.095a.839.839 0 00.846-.807.817.817 0 00-.248-.59.857.857 0 00-.602-.243h-2.72L18.78 8.51a3.575 3.575 0 00-1.057-1.461 2.499 2.499 0 00-1.663-.548 2.57 2.57 0 00-1.671.548 3.61 3.61 0 00-1.06 1.46l-1.543 4.004H9.082a.81.81 0 00-.817.797c0 .458.379.829.847.829h2.053l-.316.804h-1.84a.81.81 0 00-.818.8c0 .454.374.821.836.823h1.181l-2.006 5.316c-.123.3-.191.618-.202.941.02.453.222.88.56 1.19.374.317.85.488 1.34.483a1.8 1.8 0 001.84-1.305l.776-2.269h7.144l.777 2.323a1.813 1.813 0 001.84 1.24c.31.007.615-.07.884-.22.233-.17.44-.37.614-.598a1.6 1.6 0 00.225-.844 5.442 5.442 0 00-.228-.927v-.013z" fill="#FEFEFE"/></svg>