<svg width="32" height="32" fill="none" xmlns="http://www.w3.org/2000/svg"><path d="M16 32c8.837 0 16-7.163 16-16S24.837 0 16 0 0 7.163 0 16s7.163 16 16 16z" fill="#343434"/><path d="M23.917 21.11a.848.848 0 00.57-.86v1.1a.91.91 0 01-.595.86l-7.588 2.733a.806.806 0 01-.596 0L8.12 22.211a.9.9 0 01-.595-.86v-1.1c0 .379.235.733.595.86l7.613 2.732a.806.806 0 00.595 0l7.589-2.733zm0-1.948a.867.867 0 00.57-.86v1.1a.91.91 0 01-.595.86l-7.588 2.733a.806.806 0 01-.596 0L8.12 20.263a.9.9 0 01-.595-.86V18.29c0 .392.235.733.595.872l7.613 2.733a.806.806 0 00.595 0l7.589-2.733zm0-1.96a.88.88 0 00.583-.848v1.1a.91.91 0 01-.596.86l-7.588 2.733a.806.806 0 01-.595 0L8.12 18.302a.9.9 0 01-.595-.86v-1.1c0 .379.235.733.595.86l7.613 2.732a.806.806 0 00.595 0l7.589-2.732zM7.5 10.662a.9.9 0 01.595-.86l7.601-2.745a.806.806 0 01.595 0l7.601 2.745a.9.9 0 01.595.86v4.832a.91.91 0 01-.595.86l-7.613 2.732a.806.806 0 01-.595 0l-7.589-2.732a.9.9 0 01-.595-.86v-4.832z" fill="#fff"/></svg>