<svg width="32" height="32" fill="none" xmlns="http://www.w3.org/2000/svg"><path d="M16 32c8.837 0 16-7.163 16-16S24.837 0 16 0 0 7.163 0 16s7.163 16 16 16z" fill="#0061FF"/><path d="M16.01 6L26 16.14l-.375.34c-.17.161-.348.314-.532.46-.326.261-.67.521-1.016.752a14.275 14.275 0 01-4.596 2.042c-1.136.28-2.302.42-3.471.42-1.48 0-2.95-.22-4.36-.67a14.27 14.27 0 01-4.033-2.013 17.903 17.903 0 01-1.232-.99L6 16.14l1.095-1.112L16.01 6zm8.738 10.47c.148-.12.295-.24.424-.37L16 6.81 6.829 16.1l.187.16c.306.25.611.5.927.72a13.748 13.748 0 008.067 2.583 13.962 13.962 0 003.343-.41 13.825 13.825 0 004.418-1.962c.338-.222.664-.463.977-.72v-.001zm-15.03-.48c1.931-.86 4.02-1.31 6.134-1.321 2.486 0 4.931.66 7.071 1.922l.139.08-.139.09a12.884 12.884 0 01-4.645 1.832l-.039.01-.03-.02a15.886 15.886 0 00-8.393-2.403h-.542l.444-.19zm8.639 2.002c1.252-.24 2.446-.67 3.55-1.291a13.312 13.312 0 00-6.065-1.452c-1.27 0-2.533.17-3.757.51 2.22.3 4.354 1.06 6.272 2.233zm3.304 1.972c-.446.606-.92 1.19-1.42 1.752L16.01 26l-2.978-3.013.63-.04a13.767 13.767 0 005.987-1.792c.552-.27 2.012-1.191 2.012-1.191zm-7.347 3.504l1.696 1.721 2.998-3.043a14.251 14.251 0 01-4.694 1.322z" fill="#fff"/></svg>