<svg width="32" height="32" fill="none" xmlns="http://www.w3.org/2000/svg"><path d="M16 32c8.837 0 16-7.163 16-16S24.837 0 16 0 0 7.163 0 16s7.163 16 16 16z" fill="#2E3148"/><path d="M16.02 5.53c-1.295 0-2.345 4.697-2.345 10.49s1.05 10.49 2.345 10.49c1.294 0 2.344-4.697 2.344-10.49S17.314 5.53 16.02 5.53zm.162 20.387c-.148.198-.297.05-.297.05-.596-.692-.894-1.975-.894-1.975-1.043-3.357-.795-10.564-.795-10.564.49-5.721 1.382-7.073 1.685-7.373a.185.185 0 01.238-.019c.44.313.81 1.617.81 1.617 1.09 4.048.991 7.848.991 7.848.099 3.308-.546 7.01-.546 7.01-.497 2.814-1.192 3.406-1.192 3.406z" fill="#fff"/><path d="M25.118 10.8c-.645-1.124-5.24.303-10.267 3.186-5.027 2.883-8.573 6.13-7.93 7.254.645 1.124 5.241-.303 10.268-3.186 5.027-2.883 8.574-6.131 7.93-7.254h-.001zM7.515 21.085c-.246-.03-.19-.234-.19-.234.302-.86 1.266-1.758 1.266-1.758 2.393-2.575 8.769-5.946 8.769-5.946 5.206-2.422 6.823-2.32 7.233-2.208a.185.185 0 01.135.198c-.05.537-1 1.507-1 1.507-2.966 2.961-6.312 4.768-6.312 4.768-2.82 1.732-6.353 3.013-6.353 3.013-2.688.968-3.548.66-3.548.66z" fill="#fff"/><path d="M25.095 21.277c.65-1.12-2.887-4.383-7.898-7.288-5.01-2.904-9.604-4.348-10.253-3.226-.65 1.123 2.888 4.383 7.9 7.288 5.013 2.904 9.602 4.348 10.251 3.226zM7.375 11.196c-.097-.228.106-.283.106-.283.897-.17 2.157.217 2.157.217 3.427.78 9.538 4.608 9.538 4.608 4.705 3.292 5.427 4.743 5.535 5.154a.185.185 0 01-.103.215c-.49.225-1.805-.11-1.805-.11-4.05-1.086-7.289-3.075-7.289-3.075-2.91-1.57-5.788-3.985-5.788-3.985-2.187-1.842-2.35-2.74-2.35-2.74l-.002-.001h.001z" fill="#fff"/><path d="M15.995 17.229a1.234 1.234 0 100-2.468 1.234 1.234 0 000 2.468zM21.055 12.256a1 1 0 100-2 1 1 0 000 2zM9.306 14.774a1 1 0 100-2 1 1 0 000 2zM14.539 23.856a1 1 0 100-2 1 1 0 000 2z" fill="#fff"/></svg>