<svg width="32" height="32" fill="none" xmlns="http://www.w3.org/2000/svg"><path d="M16 32c8.837 0 16-7.163 16-16S24.837 0 16 0 0 7.163 0 16s7.163 16 16 16z" fill="#3F43AD"/><path d="M11.94 7.436a.877.877 0 000 1.751.877.877 0 000-1.751zm4.05-2.43a.877.877 0 000 1.752.877.877 0 000-1.752zm0 9.719a.877.877 0 000 1.751.877.877 0 000-1.751zm4.049-2.43a.876.876 0 10.002 1.751.876.876 0 00-.002-1.751zm4.049-2.429a.877.877 0 10-.057 1.753.877.877 0 00.057-1.753zM11.94 17.155a.877.877 0 000 1.751.877.877 0 000-1.751zM7.89 9.866a.876.876 0 10.002 1.752.876.876 0 00-.002-1.752zm0 9.718a.875.875 0 10.002 1.75.875.875 0 00-.002-1.75zm0-4.859a.877.877 0 000 1.751.877.877 0 000-1.751zm8.1-4.859a.877.877 0 10-.06 1.753.877.877 0 00.06-1.753zm4.049-2.43a.877.877 0 10-.057 1.753.877.877 0 00.057-1.753zm0 9.719a.877.877 0 10.001 1.753.877.877 0 00-.001-1.753zm4.049-2.43a.877.877 0 000 1.751.877.877 0 000-1.751zm-4.049 7.289a.877.877 0 10.001 1.755.877.877 0 00-.001-1.755zm4.049-2.43a.877.877 0 000 1.752.877.877 0 000-1.752zm-8.098 4.86a.877.877 0 000 1.751.877.877 0 00.62-1.494.877.877 0 00-.62-.257zm0-4.86a.878.878 0 00-.62 1.497.877.877 0 10.62-1.497zm-4.05-7.289a.877.877 0 000 1.751.877.877 0 000-1.75v-.001zm0 9.719a.877.877 0 000 1.751.877.877 0 000-1.751z" fill="#fff"/></svg>