<svg width="32" height="32" fill="none" xmlns="http://www.w3.org/2000/svg"><path d="M16 32c8.837 0 16-7.163 16-16S24.837 0 16 0 0 7.163 0 16s7.163 16 16 16z" fill="#2AABE4"/><path fill-rule="evenodd" clip-rule="evenodd" d="M7.9 7h6.2a.9.9 0 01.9.9v6.2a.9.9 0 01-.9.9H7.9a.9.9 0 01-.9-.9V7.9a.9.9 0 01.9-.9zm10 0h6.2a.9.9 0 01.9.9v6.2a.9.9 0 01-.9.9h-6.2a.9.9 0 01-.9-.9V7.9a.9.9 0 01.9-.9zm0 10h6.2a.9.9 0 01.9.9v6.2a.9.9 0 01-.9.9h-6.2a.9.9 0 01-.9-.9v-6.2a.9.9 0 01.9-.9zm-10 0h6.2a.9.9 0 01.9.9v6.2a.9.9 0 01-.9.9H7.9a.9.9 0 01-.9-.9v-6.2a.9.9 0 01.9-.9z" fill="#fff"/></svg>