<svg width="32" height="32" fill="none" xmlns="http://www.w3.org/2000/svg"><path d="M16 32c8.837 0 16-7.163 16-16S24.837 0 16 0 0 7.163 0 16s7.163 16 16 16z" fill="#101341"/><path fill-rule="evenodd" clip-rule="evenodd" d="M11.022 7H21.25l5.25 9-5.25 9H10.931l5.16-9-5.07-9h.001zm5.43 3.166L19.803 16l-3.35 5.834h2.988L22.789 16l-3.35-5.834h-2.987z" fill="#fff"/><path opacity=".5" fill-rule="evenodd" clip-rule="evenodd" d="M12.113 11.026L9.211 16l2.876 4.93-1.839 3.209L5.5 16l4.789-8.211 1.824 3.237z" fill="#fff"/></svg>