<svg width="32" height="32" fill="none" xmlns="http://www.w3.org/2000/svg"><path d="M16 32c8.837 0 16-7.163 16-16S24.837 0 16 0 0 7.163 0 16s7.163 16 16 16z" fill="#00A8D6"/><path fill-rule="evenodd" clip-rule="evenodd" d="M14.432 18.95v-1.917h2.954c1.97 0 2.955-.492 2.955-1.476v-5.164c0-.983-.985-1.475-2.955-1.475H12.66v3.098H10V7h7.09C21.03 7 23 8.082 23 10.246v5.459c0 2.164-1.97 3.246-5.91 3.246h-2.658v-.001zm5.909 1.181H23v1.623C23 23.918 21.03 25 17.09 25H10V13.492h7.09c.417 0 .81.012 1.183.036v1.921a9.184 9.184 0 00-.887-.04H12.66v7.673h4.727c1.97 0 2.955-.492 2.955-1.475V20.13l-.001.001z" fill="#fff"/></svg>