<svg width="32" height="32" fill="none" xmlns="http://www.w3.org/2000/svg"><path d="M16 32c8.837 0 16-7.163 16-16S24.837 0 16 0 0 7.163 0 16s7.163 16 16 16z" fill="#0F63D8"/><path d="M25.884 20.737a6.869 6.869 0 01-.317.58c-.077.138-.151.276-.232.407-.037.061-.067.124-.104.183h-.012a10.897 10.897 0 01-15.292 3.246c-.05-.034-.093-.071-.142-.104a6.993 6.993 0 01-.549-.394 9.357 9.357 0 01-.8-.684 9.728 9.728 0 01-.355-.346c-.124-.127-.232-.25-.358-.393-.127-.142-.25-.288-.37-.436a9.84 9.84 0 01-.273-.366c-.123-.168-.24-.34-.354-.515-.073-.114-.141-.23-.21-.348a9.465 9.465 0 01-.488-.928c-.092-.199-.18-.4-.263-.603-.05-.126-.095-.254-.14-.382-.069-.2-.137-.409-.196-.605-.04-.142-.065-.277-.109-.423-.05-.195-.094-.392-.133-.59-.02-.15-.053-.308-.067-.45-.03-.196-.054-.393-.073-.59-.014-.155-.031-.31-.031-.466C5 16.334 5 16.137 5 15.94c0-.15.012-.3.012-.451a11.05 11.05 0 01.592-3.107c.085-.246.18-.49.285-.733.023-.055.05-.122.064-.167a.34.34 0 01.08-.132c.103-.222.217-.442.337-.66.057-.122.126-.242.197-.36.05-.086.084-.167.15-.261.064-.095.139-.193.206-.291.086-.135.177-.266.273-.393a11.179 11.179 0 011.148-1.304c.098-.092.195-.185.295-.273.27-.231.547-.454.831-.667.188-.13.38-.262.574-.393a7.59 7.59 0 01.315-.196 10.6 10.6 0 011.968-.921c.493-.176.998-.316 1.512-.417a12.12 12.12 0 011.016-.154c.222-.024.446-.04.672-.05.122-.01.246-.01.37-.01.356-.004.711.01 1.065.042a10.559 10.559 0 012.137.41c.21.06.407.125.604.197.147.053.295.11.44.171.11.046.222.081.332.13v.016a10.895 10.895 0 015.472 14.653c-.02.042-.044.077-.063.118zm-14.056 4.5v-.002a10.146 10.146 0 0012.784-3.933c.072-.12.14-.244.208-.366.094-.18.2-.354.291-.55a10.088 10.088 0 00-5.288-13.762 7.787 7.787 0 00-.393-.155c-.315-.112-.634-.21-.958-.293a9.897 9.897 0 00-1.594-.271l-.336-.024c-.217-.01-.432-.015-.647-.015h-.338c-.209.009-.416.024-.623.045-.125.014-.249.03-.372.047a9.116 9.116 0 00-.989.19 9.308 9.308 0 00-.97.29c-.141.048-.277.1-.408.153-.292.12-.579.25-.86.393-.286.148-.564.308-.836.48a7.106 7.106 0 00-.533.366c-.09.061-.18.127-.268.196-.262.207-.515.427-.756.659A10.613 10.613 0 007.874 9.9a11.1 11.1 0 00-.582.865c-.065.108-.124.216-.185.324a10.195 10.195 0 00-.794 1.857c-.11.324-.2.655-.267.991-.043.21-.079.423-.108.635-.016.122-.034.246-.045.368-.02.197-.042.393-.042.59-.012.134-.012.27-.012.405 0 .187.016.373.016.56.017.325.05.648.098.97.026.135.048.263.073.408.036.185.079.37.124.555.032.125.063.251.1.379.055.19.118.377.185.564.041.114.08.23.126.344.075.189.157.372.234.566.051.108.1.217.155.323.098.179.193.356.295.53.067.109.13.215.197.321.102.161.214.318.326.476.083.114.143.208.252.338.108.13.23.271.336.393.106.122.224.254.33.364.106.11.189.188.326.318.232.224.477.435.734.631.64.503 1.34.927 2.082 1.262zm4.152-.825a8.418 8.418 0 118.412-8.422 8.428 8.428 0 01-8.412 8.422zm0-14.078a5.66 5.66 0 103.996 1.658 5.666 5.666 0 00-3.996-1.662v.004z" fill="#fff"/></svg>