<svg width="32" height="32" fill="none" xmlns="http://www.w3.org/2000/svg"><path d="M16 32c8.837 0 16-7.163 16-16S24.837 0 16 0 0 7.163 0 16s7.163 16 16 16z" fill="#1D1D1D"/><path fill-rule="evenodd" clip-rule="evenodd" d="M9.962 16.954a3.848 3.848 0 003.869 3.848c2.122-.013 3.846-1.716 3.847-3.8a3.833 3.833 0 00-3.858-3.869c-2.132.003-3.858 1.712-3.858 3.821zm.004 4.14v1.273H8V8c.559.01 1.031.21 1.41.605.363.38.544.835.542 1.363-.005.947-.002 1.894-.002 2.886 1.373-1.147 2.902-1.712 4.683-1.44 1.765.27 3.12 1.158 4.044 2.677 1.395 2.295.943 5.226-1.078 7.05-1.971 1.78-5.246 2.056-7.633-.047zm6.359 1.247c.078-.047.119-.075.162-.097a5.713 5.713 0 001.65-1.222.53.53 0 01.38-.179c1.67-.096 3.175-1.44 3.458-3.084.372-2.16-.94-4.066-3.11-4.48a1.282 1.282 0 01-.77-.42c-.4-.442-.886-.787-1.403-1.084-.044-.025-.086-.052-.158-.096.984-.27 1.943-.334 2.915-.113.967.219 1.8.693 2.58 1.34v-1.275H24V26a1.96 1.96 0 01-1.401-.602 1.902 1.902 0 01-.552-1.376v-2.87c-1.698 1.423-3.576 1.849-5.722 1.189z" fill="#fff"/></svg>