<svg width="32" height="32" fill="none" xmlns="http://www.w3.org/2000/svg"><path d="M16 32c8.837 0 16-7.163 16-16S24.837 0 16 0 0 7.163 0 16s7.163 16 16 16z" fill="#FB2EA3"/><path d="M22.632 14.02c-.227 1.535-1.078 2.278-2.207 2.538 1.55.807 2.34 2.046 1.588 4.192-.933 2.666-3.149 2.89-6.096 2.333L15.2 25.95l-1.728-.431.706-2.828c-.46-.114-.92-.234-1.378-.358l-.708 2.842-1.727-.43.716-2.873c-.404-.103-.814-.213-1.233-.318l-2.249-.56.858-1.98s1.274.34 1.256.314c.49.121.707-.198.793-.41l1.13-4.532.183.045a1.436 1.436 0 00-.18-.057l.806-3.235c.021-.368-.105-.83-.805-1.006.027-.018-1.256-.312-1.256-.312l.46-1.846 2.384.595-.002.01c.358.088.728.173 1.104.259L15.039 6l1.728.43-.694 2.784c.463.106.93.212 1.384.326l.69-2.765 1.728.43-.708 2.84c2.183.752 3.779 1.879 3.465 3.975zm-3.95 5.538c.56-2.238-3.198-2.817-4.37-3.11l-.949 3.805c1.172.291 4.786 1.452 5.32-.695h-.001zm.535-5.569c.508-2.037-2.634-2.49-3.61-2.734l-.86 3.451c.975.244 3.983 1.236 4.47-.717zm5.03 7.629a.642.642 0 00-.476.127.754.754 0 00-.25.432.985.985 0 00-.02.285.67.67 0 00.102.306c.06.1.156.194.286.282.13.087.31.157.54.21.124.03.252.044.383.043.132 0 .254-.021.366-.063a.726.726 0 00.47-.541.686.686 0 00-.07-.525c-.092-.154-.243-.272-.454-.354l.154-.666c.38.153.646.372.8.655.154.284.186.621.096 1.011-.046.216-.136.42-.265.6a1.366 1.366 0 01-.993.554c-.215.02-.432.004-.642-.047a2.172 2.172 0 01-.615-.24 1.5 1.5 0 01-.453-.4 1.349 1.349 0 01-.238-.545 1.61 1.61 0 01.025-.681c.038-.169.1-.332.183-.484.081-.148.18-.273.299-.375.118-.102.254-.176.408-.222.155-.047.327-.056.518-.029l-.154.667zm2.692-2.113a1.689 1.689 0 01-.269.619c-.123.17-.27.304-.44.403-.176.1-.37.162-.572.182a1.994 1.994 0 01-.667-.046 1.966 1.966 0 01-.614-.25 1.45 1.45 0 01-.434-.414 1.415 1.415 0 01-.22-.556 1.689 1.689 0 01.03-.673c.047-.222.139-.433.269-.619.124-.17.27-.305.441-.403.176-.1.37-.162.572-.182.21-.023.43-.008.66.045.22.048.429.133.62.25.18.114.324.252.434.415.11.163.183.348.22.555a1.69 1.69 0 01-.03.674zm-2.624-2.798l.145-.625.584.135.003-.012a.692.692 0 01-.213-.17 1.14 1.14 0 01-.26-.555.815.815 0 01.01-.312c.018-.084.044-.167.076-.247l.643.148a3.283 3.283 0 00-.053.139c-.017.046-.03.093-.042.141a.752.752 0 00.132.64 1 1 0 00.284.25c.119.073.262.129.43.168l1.438.332-.154.666-3.023-.698zm2.28-2.19c.116.028.233.037.35.03a.858.858 0 00.32-.084c.1-.049.186-.12.255-.206a.85.85 0 00.156-.345.822.822 0 00-.017-.5.763.763 0 00-.315-.353l.145-.631a1.289 1.289 0 01.755 1.119c.01.16-.004.322-.041.486-.055.238-.143.44-.263.605a1.338 1.338 0 01-1.004.56 2.096 2.096 0 01-1.252-.296 1.604 1.604 0 01-.442-.41 1.434 1.434 0 01-.241-.54c-.045-.198-.04-.41.011-.637a1.39 1.39 0 01.297-.606 1.46 1.46 0 01.503-.38c.198-.088.41-.135.627-.14.226-.008.448.028.668.107l-.513 2.222.001-.001zm-.182 4.867a.785.785 0 00-.188-.733 1.099 1.099 0 00-.306-.234 1.571 1.571 0 00-.775-.18c-.13.003-.257.029-.377.077a.785.785 0 00-.487.577.785.785 0 00.184.732c.083.094.185.171.306.234.239.125.506.187.775.18a1.1 1.1 0 00.378-.077.784.784 0 00.49-.576zm.102-6.523a1.1 1.1 0 00-.32-.003.773.773 0 00-.519.287.822.822 0 00-.15.624c.02.105.057.2.113.285a.91.91 0 00.517.363l.359-1.556z" fill="#fff"/></svg>