<svg width="32" height="32" fill="none" xmlns="http://www.w3.org/2000/svg"><path d="M16 32c8.837 0 16-7.163 16-16S24.837 0 16 0 0 7.163 0 16s7.163 16 16 16z" fill="#00ACED"/><path fill-rule="evenodd" clip-rule="evenodd" d="M6 9.714v4.076l9.895 5.715 6.42-3.715v3.315l3.456 2.038V9.714l-9.885 5.715L6 9.714z" fill="#fff"/><path opacity=".7" fill-rule="evenodd" clip-rule="evenodd" d="M15.886 4L6 9.714v11.429l9.886 5.714 9.857-5.714-3.495-2.038-6.362 3.676-6.39-3.676v-7.353l6.39-3.676 6.362 3.676 3.495-2.038L15.886 4z" fill="#fff"/></svg>