<svg width="32" height="32" fill="none" xmlns="http://www.w3.org/2000/svg"><path d="M16 32c8.837 0 16-7.163 16-16S24.837 0 16 0 0 7.163 0 16s7.163 16 16 16z" fill="#71C800"/><path fill-rule="evenodd" clip-rule="evenodd" d="M25.82 14.715c-.787.037-1.577.083-2.364.055-.706-.026-1.409-.143-2.113-.225a.409.409 0 01-.197-.092c-1.165-.955-2.31-1.932-3.314-3.063-.366-.413-.662-.859-.828-1.401-.223-.731-1.16-1.012-1.854-.589-.728.444-.853 1.477-.24 2.069a.9.9 0 00.39.228c.53.128.94.444 1.327.802.694.641 1.316 1.35 1.92 2.076.173.207.085.447-.18.477-.41.048-.823.091-1.236.108-.778.032-1.557.063-2.336.055-.435-.005-.872-.072-1.303-.144a1.695 1.695 0 01-.573-.226c-.579-.347-1.179-.11-1.513.232a1.327 1.327 0 00-.201 1.588c.278.476.826.754 1.318.65.142-.03.282-.093.408-.166.33-.188.688-.276 1.058-.299.594-.036 1.192-.07 1.787-.056.757.018 1.514.085 2.271.132.103.007.207.012.309.028.284.046.366.273.178.496-.226.268-.444.545-.688.795a68.203 68.203 0 01-1.565 1.553c-.24.23-.539.391-.863.466-.656.157-.98.79-.888 1.43.092.636.66 1.114 1.303 1.115.596 0 1.054-.318 1.213-.888.163-.586.539-1.028.931-1.459.967-1.061 2.054-1.994 3.163-2.9a.471.471 0 01.225-.1c.561-.073 1.122-.164 1.685-.199.635-.041 1.271-.05 1.907-.026.663.027 1.323.114 2.003.177-.012.23-.015.426-.033.62-.122 1.26-.443 2.467-1.036 3.588-1.464 2.765-3.722 4.496-6.777 5.171a9.522 9.522 0 01-2.083.205c-.745-.001-1.49.006-2.235-.002-2.065-.022-3.954-.61-5.635-1.814-2.023-1.45-3.33-3.397-3.892-5.826a8.884 8.884 0 01-.224-1.652 43.84 43.84 0 01-.028-3.156 9.83 9.83 0 017.252-9.203 9.6 9.6 0 012.497-.338c.864-.003 1.727-.016 2.59.004 2.066.048 3.943.678 5.603 1.912 1.985 1.475 3.248 3.432 3.78 5.849.129.58.174 1.178.261 1.797-.43.055-.803.128-1.18.146z" fill="#fff"/></svg>