<svg data-name="Layer 1" xmlns="http://www.w3.org/2000/svg" viewBox="0 0 15 15"><defs><linearGradient id="a" x1="7.34" y1="-5068.18" x2="7.34" y2="-5062.13" gradientTransform="matrix(1 0 0 -1 0 -5057)" gradientUnits="userSpaceOnUse"><stop offset="0" stop-color="#e9b720"/><stop offset=".24" stop-color="#edbc22"/><stop offset=".57" stop-color="#f9cc2b"/><stop offset=".7" stop-color="#ffd530"/></linearGradient></defs><circle cx="7.5" cy="7.5" r="7.5" fill="#00c0e8"/><path fill="url(#a)" d="M7.63 5.14H5.72l2.35 6.05.89-2.64-1.33-3.41z"/><path d="M12.62 3.3c-.95 0-1.88-.06-2.54 1.81l-.35 1L8 11.16h2l1.41-4.36.51-1.5z" fill="#ffd530"/><path d="M5.35 10a1.58 1.58 0 01-1.57-1.76 1.59 1.59 0 011.57-1.72h.18L5 5.18a3 3 0 00-2.62 3.06 2.93 2.93 0 003 3.06 2.8 2.8 0 001.78-.61l-.6-1.49a1.4 1.4 0 01-1.21.8z" fill="#fff"/></svg>