<svg width="32" height="32" fill="none" xmlns="http://www.w3.org/2000/svg"><path d="M16 32c8.837 0 16-7.163 16-16S24.837 0 16 0 0 7.163 0 16s7.163 16 16 16z" fill="#F4B731"/><path fill-rule="evenodd" clip-rule="evenodd" d="M9.277 8h6.552c3.985 0 7.006 2.116 8.13 5.194H26v1.861h-1.611c.031.294.047.594.047.898v.046c0 .342-.02.68-.06 1.01H26v1.86h-2.08C22.767 21.905 19.77 24 15.83 24H9.277v-5.131H7v-1.86h2.277v-1.954H7v-1.86h2.277V8zm1.831 10.869v3.462h4.72c2.914 0 5.078-1.387 6.085-3.462H11.108zm11.366-1.86H11.108v-1.954h11.37c.041.307.063.622.063.944v.045c0 .329-.023.65-.067.964v.001zM15.83 9.665c2.926 0 5.097 1.424 6.098 3.528h-10.82V9.666h4.72l.002-.001z" fill="#fff"/></svg>