<svg width="32" height="32" fill="none" xmlns="http://www.w3.org/2000/svg"><path d="M16 32c8.837 0 16-7.163 16-16S24.837 0 16 0 0 7.163 0 16s7.163 16 16 16z" fill="#136485"/><path fill-rule="evenodd" clip-rule="evenodd" d="M10.436 31.006a16.01 16.01 0 01-5.604-3.548l.147-.257c2.388-3.773 4.533-7.678 6.148-11.85 1.713-4.425 3.084-8.967 4.39-13.527.117-.407.256-.807.384-1.21.138.158.188.305.23.454.82 2.926 1.613 5.86 2.464 8.776 1.55 5.313 3.73 10.353 6.617 15.077.337.55.91 1.472 1.72 2.762a15.99 15.99 0 01-6.035 3.554 4323.9 4323.9 0 00-5.002-15.17l-.154-.002c-1.166 3.277-2.934 8.257-5.305 14.941zM16.075.049h-.124L16 0l.075.049z" fill="#fff"/></svg>