<svg width="32" height="32" fill="none" xmlns="http://www.w3.org/2000/svg"><path d="M16 32c8.837 0 16-7.163 16-16S24.837 0 16 0 0 7.163 0 16s7.163 16 16 16z" fill="#939393"/><path fill-rule="evenodd" clip-rule="evenodd" d="M13.707 19.86c.365-.237 2.818-1.74 5.208-3.204 1.723-1.054 1.723-1.054 1.693-1.157-.03-.125-10.7-6.609-10.809-6.674-.203-.12-.403-.243-.602-.369.196-.136.577-.396 1.033-.706L11.34 7l.762.456c.94.562 11.26 6.892 12.706 7.793-.59.355-2.68 1.592-5.49 3.247l-5.583 3.29c-.01-.291-.017-.583-.02-.874-.006-.35-.009-.7-.007-1.051l-.001-.001zm-2.368-6.296c.185.11.505.303.899.548l1.029.638.022 1.93c.065 5.577.065 5.577.146 5.634l.054.037.06-.022c.03-.009.041-.013 10.871-6.402l.58-.342-.191 2.683-.07.04c-4.46 2.561-8.922 5.116-13.389 7.664-.004-.699-.01-3.085-.011-6.196v-6.212zM9 24.8l.025-15.967.388.229c.312.182 2.416 1.465 4.793 2.919 1.702 1.043 3.407 2.083 5.114 3.118l.715.43-2.364 1.446-.472-.275c-.947-.572-1.89-1.15-2.83-1.732a260.81 260.81 0 00-2.76-1.688l-.652-.38-.005 6.769c-.002 3.054-.005 5.592-.007 6.332-.193-.117-.522-.32-.908-.56L9 24.8z" fill="#fff"/></svg>