<svg width="32" height="32" fill="none" xmlns="http://www.w3.org/2000/svg"><path d="M16 32c8.837 0 16-7.163 16-16S24.837 0 16 0 0 7.163 0 16s7.163 16 16 16z" fill="#F4AE95"/><path d="M15.807 8.958L9.713 21.965H19.83c.293 0 .558.18.673.455l.011.025a.641.641 0 01-.031.56.96.96 0 01-.835.495H8.896a.826.826 0 01-.466-.145l-.056-.038a.874.874 0 01-.29-1.09l7.19-15.149c.075-.158.182-.298.313-.41a.692.692 0 01.892-.01.497.497 0 01.135.172l7.293 15.252c.1.207.12.444.058.666a.57.57 0 01-.548.423h-.084a.877.877 0 01-.794-.516L16.249 8.96a.245.245 0 00-.22-.145.244.244 0 00-.222.143z" fill="#fff"/></svg>