<svg width="30" height="30" fill="none" xmlns="http://www.w3.org/2000/svg"><path d="M15 30c8.284 0 15-6.716 15-15 0-8.284-6.716-15-15-15C6.716 0 0 6.716 0 15c0 8.284 6.716 15 15 15z" fill="#988430"/><path d="M15 29.52c8.019 0 14.52-6.501 14.52-14.52C29.52 6.981 23.018.48 15 .48 6.981.48.48 6.982.48 15c0 8.019 6.501 14.52 14.52 14.52z" fill="#7A6A2A"/><path d="M15 29.214c7.85 0 14.214-6.364 14.214-14.214C29.214 7.15 22.85.786 15 .786 7.15.786.786 7.15.786 15 .786 22.85 7.15 29.214 15 29.214z" fill="#BA9F33"/><path d="M11.413 20.874l-.476-.9.277-1.127 1.973-.762-.84-1.723.415-1.74.78-1.559 2.407-.379 1.77-1.686 3.82.288.75 4.085-1.444 5.144-.823 2.662-3.335.127-1.549-1.073-1.813-.758-1.912-.6z" fill="#E2CC85"/><path d="M17.262 20.845s-.461.21-1.247.162c-.229-.306-1.823-.449-1.823-.449s-.2-.06-.551.085c-.355.143-.69.127-1.003.204-.313.078-.623-.33-.864-.415-.24-.09-.558-.306-.558-.306l-.672-.065-1.35-.57-2.143-2.137-.583.913-.18 1.129.649 1.337 1.745 1.59 3.403.864 2.017-.595 2.527-1.068.633-.68z" fill="#F1D789"/><path d="M5.172 13.296l.432-1.308.515-.845 1.658-.138-.498 1.451-1.386 2.466.575 2.202-1.019.51-.313-.481-.252-1.102-.017-1.238.305-1.517z" fill="#F4ECB4"/><path d="M7.032 20.755l-.318-.444s-.085-.211-.037-.396c.049-.187.041-.199.017-.27-.024-.07-.228-.312-.216-.521.012-.211-.017-.282.138-.45.163-.162.115-.443.115-.443l.21.13.05-.072s.077.06.077.155c.017-.13-.053-.738.107-.876.162-.138.444.648.444.648l-.175-1.14-.449-1.17-.798-1.069-.049-1.177v-.102s-.366.563-.468 1.008c-.073.305.102.677.065 1.116-.029.437-.065.403.041.575.107.173.367.53.265.787-.09.22-.396.065-.396.065s-.06.18-.143.245a.545.545 0 00-.119-.24 1.251 1.251 0 01-.017.097s-.053-.167-.107-.378c-.072-.282-.15-.653-.22-.852-.03.114-.102.46-.102.46l.04.535.2.733.192.48.187.588.162.395.131.301.114.678.551.582.294.131.214-.11z" fill="#F3E19D"/><path d="M5.461 12.228s-.396.672-.51 1.35c-.114.677-.216 1.393-.143 2.315.073.93.211 1.5.323 1.908.192.677.69 1.619.69 1.619l.016-.037s-.13-.24-.199-.497c-.065-.258-.09-.563-.15-.702-.054-.138-.143-.257-.187-.427-.041-.162-.049-.42-.175-.612-.053-.077-.119-.281-.138-.485-.024-.306.012-.648-.017-.93-.054-.468-.09-.786-.041-1.031.048-.245.3-.942.456-1.495.102-.354.041-.653.228-.961.187-.306.301-.575.342-.762.049-.17-.495.747-.495.747z" fill="#F2E8B0"/><path d="M7.337 11.959s-.204.06-.3.167c-.098.102-.139.187-.27.36-.131.174-.138.313-.245.529-.107.21-.342.529-.372.643-.029.114-.077.648-.138.9-.053.253.06.563.06.563l.14-.029s0 .18.138.301c.138.12.162-.403.162-.403l.517-1.745.78-.529.084-.427-.556-.33z" fill="#F5EEC0"/><path d="M7.716 12.75s-.366.024-.546.155c-.073.054-.102.097-.18.163-.143.119-.289.228-.359.383-.078.156-.163.391-.22.835-.025.187-.025.36-.042.51-.024.204-.06.367-.041.48.024.234.264.355.289.62l.497-.253.469-1.847.995-.624-.563-.63-.299.208z" fill="#E6DB9D"/><path d="M7.794 29.238l-2.221.053-1.177-.09.09-1.068c.04-.126.18-.485.22-.55.03-.098.066-.343-.017-.644.054-.085.221-.13.408-1.805.073-.624.085-1.098.138-1.394.078-.42.131-.575.12-.733-.018-.252-.037-.437-.013-.63.037-.258.29-.564.282-.775-.005-.168-.09-.277-.163-.379-.073-.102-.13-.187-.13-.187s.497-.342.492-1.72c.017.004.029.012.029.012l.245.696.168.204.643 1.2.827.803 1.224.822.767.835.077 2.226-1.002 1.301-1.007 1.823z" fill="#E5CB7A"/><path d="M8.153 27.318s.017-.277.245-.456c.036.06.06.119.053.162.042-.073.33-.539.983-.66.653-.119.811-.595.811-.595l1.386-1.26 1.585-1.458 1.927-.677.9-.221s.018.066-.016.211c.167-.012.539-.097.924-.233.156-.06.302-.085.38-.005.113.107.13.36.137.51.187-.041.403-.22.576-.204.276.03.522.354.803.354.371 0 .539-.228.799-.407.155-.107.378-.24.505-.33.3-.221 3.485-1.195 3.485-1.195l1.117.073.18 1.2-.098 3.15-5.112 2.67-8.058 1.235-3.281-.84-.231-1.024z" fill="#D8C173"/><path d="M4.745 29.245s.294-.665.432-1.626c.114-.787.012-.966.041-1.218.042-.38.469-1.117.505-1.26.03.294.114 1.403.42 1.65-.065.097-.175.432.216.69-.065.138-.199.305-.114.558.085.252.187.611.139 1.007a.835.835 0 00-.408.204c-.12.107-1.23-.005-1.23-.005z" fill="#F1D789"/><path d="M9.78 28.782l1.788-.498.078.024s.04.024.04.107c.115-.066.212-.053.283-.097.036.078.072.335.232.366.168.037.348-.072.53-.21.18-.144.383-.323.538-.396.03.048.102.199.15.323.205-.163.56-.823 1.064-.811.049-.114.228-.53.701-.847.469-.318.763-.342 1.13-.313.142-.187.33-.355.528-.474.06.025.228.127.437.03.211-.098.45-.474.762-.522a.735.735 0 01.486.102s.912-.906 1.541-1.207c-.024-.073-.073-.347.665-.954.041.037.012.139.041.143.012 0 .192-.077.42-.252.282-.211.62-.432.823-.493.384-.114.791.12.791.12s.049-.037.114-.054c.097-.017.168-.03.221-.049-.005.127.066.343 0 .53 0 0 .102.06.24.101-.04.09-.13.318-.281.428.126.06.143.13.323.191a3.625 3.625 0 00-.245.384c-.054.114-.245.587-.33.767-.09.18-.212.51-.27.575-.06.066-.27.347-.432.486.143-.054.733-.233.983-.301-.15.22-1.541 2.286-1.541 2.286l-2.801.835-1.374.233-7.158-.005-.63-.313.152-.235z" fill="#E0CD81"/><path d="M7.777 12.684s-.211 0-.253.03c-.041.029.211.09.29.118.077.03.244.163.288.27.041.102 1.517.697 1.517.697l1.044-.054.359-.497-.685-.6.481-1.415-.636.102-1.53.913-.766.293-.11.143z" fill="#DFC57C"/><path d="M10.068 13.153s.041.078.143.078c.216 0 .415.053.498.162.138.175.522.733.522.733l.917.33.06-1.08-1.002-.696-1.14.42v.053h.002z" fill="#E5CC7C"/><path d="M9.888 13.553s.168.012.379-.065c.211-.078.558-.245.709-.18.21.09.167.372.395.624.139.155.391.15.534.318.144.168.636.09.636.09l.187 1.007-.75.961-.245 1.195h-1.015l-.927-.367-.456-1.104.228-1.117.325-1.362z" fill="#D2C281"/><path d="M11.85 13.602s.036.012.077.012c-.029.024-.09.078-.065.216.024.138.102.313.036.42.03.036.073.078.114.199.041.119.053.228.323.245a.573.573 0 00-.107.085s.187.163.282.313c.097-.005.354-.085.354-.085l.053.037.114-.049s-.106-.041-.029-.3c.073-.229.139-.217.144-.234.004-.017.053-.257.053-.354.036-.126.066-.51.066-.51l-.078-.847-.437-.265-.354-.342-.335.631-.221.221-.017.546.027.06z" fill="#E2C270"/><path d="M12.9 12.893s.078.221.107.391a.376.376 0 00.017-.102s.06.335.073.473c.024-.005.049-.012.053.013.005.024.061.293.049.444.03-.054.168-.265.408-.408.097-.06.211-.126.33-.131.187-.005.323.119.546.119.539 0 1.027-.396 1.386-.517.265-.09.493-.156.653-.301.078-.066.216-.211.342-.427.168-.29.342-.54.517-.57-.138.023-.24.016-.24.016s.053-.053.143-.126c.09-.073.199-.163.354-.163.277 0 .415.042.57.042.156-.005.246-.042.246-.042s.162.114.529.114c.366.005.612.037.803.054.192.017.835-.054 1.02-.049.192.005.347.085.347.085l-.595-1.728-2.136-1.866-1.271.9-1.957 1.956-1.893.702-.396.444v.677H12.9z" fill="#CCB360"/><path d="M17.148 11.903s.053-.053.143-.126c.09-.073.2-.163.355-.163.276 0 .415.041.57.041a.775.775 0 00.245-.04s.163.113.53.113c.366.005.61.037.803.053.191.018.835-.053 1.019-.048.192.005.347.085.347.085l-.27-.78-.312-.594-.894-.978-1.08-.636a14.507 14.507 0 00-.371-.102l-.97.588-.882 2.279-.017.48.57.27c.144-.24.301-.432.45-.457-.134.015-.236.015-.236.015z" fill="#D5B457"/><path d="M17.136 12.066c-.085.004-.155-.013-.175-.073-.073-.204-.13-.233-.192-.233-.06 0-.143.13-.191.143-.049.012-.107-.15-.107-.15l-.053-.025s-.314.204-.534.444c-.221.24-.583.648-.746.721-.162.073-.72.097-.912.139-.192.04-.403.18-.432.21-.03.032.085.066.102.098.017.029-.187.017-.204.048-.012.025.048.163.077.233a.396.396 0 01.168-.04c.187-.006.323.118.546.118.539 0 1.027-.396 1.386-.517.265-.09.493-.155.653-.3.078-.066.216-.212.342-.428.092-.148.182-.287.272-.389z" fill="#D2B257"/><path d="M9.408 24.078s-.049-.18-.493-.643c-.126-.132-.204-.24-.289-.319-.211-.198-.335-.252-.485-.366-.33-.245-.69-.245-.966-.546-.277-.301-.6-.876-.823-1.464-.221-.587-.282-.774-.282-.791 0-.017.061-.131.139-.114.077.017.077.167.097.204.005.012.06.09.13.167.115.131.278.29.36.522-.017-.199-.085-.42-.085-.42s.427.27.791.551c.367.282.517.379.624.558.107.18.36.653.48.792.122.138 1.777.66 1.777.66l.787.587.39.857-.305.48-.588.127-.953-.427-.306-.415z" fill="#D2B159"/><path d="M7.289 21.126s.199.318.684.62c.437.264 1.129.504 1.745.647.355.085.71.15 1.027.155.857.013 1.447-.232 2.177-.313.396-.04.881-.072 1.386-.191.648-.156 1.032-.33 1.554-.576.378-.174.725-.305 1.007-.473.396-.233.684-.493 1.02-.57-.042.114-.086.318-.416.529.175-.005.415-.017.415-.017s-.233.138-.643.449c-.252.192-.587.517-.93.733-.22.138-.46.24-.618.323-.384.21-.54.318-.792.575.09-.005.097 0 .097 0s-.318.041-.546.163c-.048 0-.13-.017-.276.024-.114.036-.265.119-.42.162-.221.066-.294.037-.294.037l.036.073s-.288-.005-.383.005c.017.004.012.012.012.012s-.012 0-.049.017c-.029.017-.077.048-.15.065-.03.005-.053.005-.09.012.012.03.107.192.15.29-.036.024-.582.436-.582.436s.024.037.041.085c.018.053.025.131.042.168.041.072.065.085.065.085s-.065.012-.18.04c-.096.025-.215.066-.383.09-.048.005-.102.013-.155.013.024.053.13.257-.066.492-.199.233-.257.27-.318.42-.017-.012-.048-.036-.097-.06-.065-.03-.155-.073-.187-.131-.005.024-.029.119-.072.228-.061.162-.151.323-.168.444-.066-.073-.187-.216-.354-.187-.168.03-.301.257-.33.323 0-.041-.03-.073-.037-.024a1.844 1.844 0 01-.611 1.063c-.005-.114-.005-.367-.017-.45-.049.05-.107.12-.457.27-.342.15-.289.301-.289.301s-.029-.24.156-.493c.187-.252.3-.371.3-.39a.108.108 0 00-.024-.054c-.024-.024-.072-.053-.072-.073.029-.012.318-.15.3-.437a.776.776 0 00-.203-.485c-.012-.012.114-.102.097-.131-.012-.017-.168-.131-.187-.192.005-.029.012-.078.024-.107.017-.053.03-.09.024-.126a1.005 1.005 0 00-.097-.245c.017.005.139 0 .139 0s-.097-.155-.114-.228c-.017-.073-.054-.265-.073-.301.041.005.143.012.143 0 .005-.037-.09-.097-.049-.143.03.005.085.029.139.097-.03-.078-.078-.228-.18-.29a.44.44 0 01.355.025.474.474 0 01.191.204s.085.066.216.163c.15.119.343.288.648.407.066.037.233.037.355.013.073-.017.114-.042.15-.061.03-.017.054-.024.054-.024s-.049-.097-.09-.15c.041 0 .09.004.09.004s.029-.066-.102-.192c.029-.029.065-.048.065-.097-.041-.005-.114-.065-.13-.09.024-.017.06-.072.101-.09-.036-.029-.126-.15-.167-.162.04-.012.114-.053.114-.053s-.204-.054-.27-.098c-.065-.048-.162-.13-.22-.155-.061-.024-.168-.036-.212-.085.042.012.107 0 .156 0 .036 0 .053.005.065.005-.005-.017-.005-.053.09-.066.09-.017.131-.04.131-.04s-.09-.006-.192-.103c-.102-.097-.187-.174-.245-.187-.06-.012-.175.042-.245.037-.097-.012-.138-.06-.138-.06s-.323.028-1.04-.409c-.618-.378-.888-.713-.888-.713s-.072-.024-.167-.078c-.233-.121-.556-.374-.546-.704z" fill="#C2A44D"/><path d="M16.218 6.558s.085.025.143.097c.115.131.187.379-.072.644.102.036.143.048.233.036-.09.107-.294.335-.306.534-.012.163.09.211.09.211s-.156.18-.163.48c.037-.04.119-.13.24-.227.18-.144.428-.306.595-.408-.005.065.017.126.017.126s.313-.257.575-.143c.12.053.066.22.066.22s.163-.06.277.054c.114.114.276.408.359.522.036.053.13.155.228.313.114.187.24.444.33.697.005-.127.036-.323.396-.2.359.127.767.391 1.109.913.342.522.427 1.11.6 1.333.174.216.354.575.366.725.012.15-.053.636.306 1.95.102-.408.257-1.314.257-1.314l.085-.798.097-2.471-2.58-2.143-2.017-1.464-1.313.126.082.187z" fill="#CAA13E"/><path d="M21.012 10.235s-.036-.24-.643-.648c-.607-.403-1.08-.403-1.517-.745-.335-.27-.684-.888-.913-1.092-.22-.201-.257-.784-.257-.784l.745-.624 1.11-1.602.936-1.031.45.624.623.733.347 1.47.126 2.153-1.007 1.546z" fill="#B59544"/><path d="M21.762 12.816s.041-.469-.119-.966a17.69 17.69 0 00-.672-1.712c-.066-.366-.017-.395.053-.437.073-.04.335-.191.48-.72.144-.53.595-.547.595-.547l.277-.203.42 1.05.367.95.114.725.085.62-.2 1.307-.982.889-.418-.957z" fill="#C89D3A"/><path d="M7.794 29.238s-.221-.408-.233-.583c-.005-.167.06-.276.06-.276s-.085-.127-.162-.156a.535.535 0 01.114-.257c.065-.078.192-.18.216-.216.024-.036.036-.085.107-.097.072-.012.15-.012.15-.107v-.175s.03-.017.054-.048c.017-.024.029-.054.04-.06a.45.45 0 01.2-.037c.06.012.22.077.306.073.174-.005.378-.139.701-.078.486.09.6.42.881.607.192.13.39.073.42.073h.066c.012 0 .101-.102.15-.098.097.005.107.085.167.09.144.017.42-.073.559-.036a.27.27 0 01.11.444c-.152.138-.295.27-.324.384.042.029.114.097.114.097s-.065.06-.187.119c-.053.024-.138.065-.233.077-.18.017-.402.041-.534.233-.13.192-.582.085-.582.085l-2.16-.058z" fill="#CEB052"/><path d="M20.97 22.549s.38-.505.51-.755c.132-.258-.415-3.522-.415-3.522l1.098-3.595-.03-1.17s.054-1.08.18-1.548c.15.27.619.594.721.767.049-.33.211-1.027.187-1.77.09.139.306 1.53.306 1.53l.216.936.281.995.313 1.051.187.726.107.175.09.306.085.33.245.774.143.636.114 1.153s.041.143.054.27c.005.125-.017.198-.017.22 0 .024.04.277.024.469-.024.191-.024.342-.175.48-.15.139-.245.961-.245.961l-.27-.18s.054-.244-.072-.468a.477.477 0 00-.51-.233c-.138.03-.415.073-.505.15-.085.079-.293.319-.485.428-.24.143-.631.155-.84.204-.211.048-.444.192-.69.36a3.85 3.85 0 01-.606.32z" fill="#CCA847"/><path d="M20.97 27.852s.212.138.6.233c.389.095 1.381.665 1.381.665l.835.51 1.032.077.905-.126s.03-.383-.029-1.813c-.06-1.434-.107-1.638-.107-1.745 0-.107-.036-1.927-.077-2.323-.042-.395-.012-.798-.025-1.031a14.934 14.934 0 00-.203-1.428c-.066-.245-.192-.366-.212-.366-.017.005-.119.461-.119.575 0 .114-.024.39-.024.461-.017-.005-.024-.048-.024-.065-.024.06-.053.167-.066.18-.012.012.017-.103 0-.127-.017-.024-.048-.012-.04-.073.004-.06.016-.107.016-.107s-.073.107-.126.38c-.053.269-.053.276-.073.3-.017.03-.114.126-.119.163-.005.065.09.13.097.167.005.06-.085.342-.114.48-.029.14-.017.409-.048.547-.025.126-.049.199-.131.252.06.012.119.03.119.03s.084.359-.132.665c-.077.106-.097.155-.18.252-.162.18-.288.383-.3.517-.012-.049-.017-.119-.017-.119s-.253.294-.36.461c-.138.216-.33.204-.383.258-.053.053-.065.15-.048.228-.049.012-.139.029-.2.216a.455.455 0 01-.215.257c-.115.066-.253.085-.323.102.06.017.085.017.114.036-.037.061-.204.156-.391.277a.817.817 0 00-.323.39c-.048.103-.119.168-.233.18.049.03.12.097.155.12-.053.012-.143.012-.305.15-.17.14-.228.182-.306.194z" fill="#C39D3C"/><path d="M17.364 29.197s.15-.233.53-.379c.378-.15.778-.18.936-.228.15-.049.27-.114.456-.15-.017.142-.024.257-.065.354.138.024.485-.245.672-.306.187-.06.612-.15.648-.18.037-.029.114-.204.139-.21.024-.006.09.036.13.036.078 0 .624-.505 1.056-.498.428.005.913.36.84.677.114-.065.233-.126.33-.102-.012.041-.017.09-.017.09s.233-.053.294.024c.066.078.03.15.187.335.126.155.09.192.066.245.06.017.359.12.635.379.277.257-2.208.097-2.208.097l-4.585-.041-.044-.143z" fill="#D2BA6B"/><path d="M24.575 19.02s-.077.42-.216.684c-.138.264-.289.631-.289.631s0-.131.03-.245c-.175.102-.6.347-.721.456-.114.102-.306.282-.355.367.114-.335.233-.636.253-.775-.175.127-.99.799-1.415 1.243l-1.323 1.07s-.204.115-.469.221c-.228.098-.497.18-.696.258.053-.143.138-.27.257-.391.126-.119.505-.53.563-.721.054-.199.066-.318-.005-.485-.065.017-.216.024-.318.053-.102.03-.21.138-.21.138s.077-.444.244-.864c-.126.005-.342.041-.342.041s.301-.504.816-.856a2.652 2.652 0 00-.462.143c-.3.126-.63.313-.876.415.139-.192 1.11-1.578 1.687-2.869.575-1.289.791-1.619.918-2.31.065-.343.048-.848.065-1.302.017-.449.073-.852.037-1.121.15.187.713.714.733 1.89.017 1.178-.54 2.768-1.129 3.625.143.04.517.09.9-.576.384-.665.38-.852.517-1.128.017.138.013.187.013.187s.558-.678.822-1.53c.054.367.212.69-.036 1.362-.22.607-.51.755-.51.755s.143-.024.355-.15c.036.09.029.191.09.228.06.036.143.097.155.155.065-.097.167-.22.199-.313-.024.192-.041 1.031.048 1.459.187-.017.379-.03.51-.367a1.5 1.5 0 00-.03.81c.1-.067.19-.189.19-.189z" fill="#C0993A"/><path d="M18.27 5.64s-.188.078-.505.078c-.277 0-.2-.106-.631-.106-.666 0-2.988.383-3.396.378-.265-.005.893.114.893.114l2.959.042.595-.049.22-.449-.136-.007z" fill="#A88F33"/><path d="M10.597 11.425s-.378.289-.539.51c-.162.22-.245.366-.427.546.06.004.126-.017.126-.017s0 .048-.029.06a.17.17 0 01.139.049c-.054.029-.2.175-.085.347.085.13.264.143.264.143s-.041.119.131.107c.372-.017.787-.18.978-.139.192.05.301.066.437.301.143.233.27.27.27.27s.085-.216.065-.539c.114-.277.114-.546.114-.546l-.126-.93-.55-.696-.715.395-.053.139z" fill="#E3C571"/><path d="M11.274 11.286s.054.127.277.139c-.024.053-.024.06-.017.102l.012.102s.03-.012.066-.049c.012.053-.012.139 0 .2.012.06.036.106.036.106l.012-.024c.005-.012.049.13.168.24a.1.1 0 01.012-.049s0 .042.029.085a.089.089 0 01-.024-.017s.012.384.077.583c.017-.024.025-.03.03-.041 0-.013-.005.106-.018.191-.016.085-.004.204-.004.204s.065-.053.143-.085c.073-.029.192-.119.264-.318.073-.199.098-.347.098-.347s.04.078.048.143c.005.061.119.03.119.03l.024-.265.143-.6.131-.37.632-.984 1.14-.876.995.228.84-1.14-1.446-.87-1.37.144-1.242 1.72-.995 1.561-.18.257z" fill="#D8B65B"/><path d="M18.444 8.796s-.085.017-.33.143c-.245.127-.415.168-.51.355-.097.187-.101.335-.101.335s.167-.073.264-.097c.102-.025.216-.017.204.024-.012.036-.049.077-.049.077s.192-.004.187.09a.49.49 0 01-.073.245c-.036.049-.187.12-.203.175-.042.114.017.12-.005.211-.017.09-.097.265-.36.57-.269.306-.383.523-.383.523s-.131-.246-.2-.457a19.39 19.39 0 00-.305.168l-.597-2.08.012-.139s.054-.065.066-.187c-.09-.029-.102-.053-.221-.167-.12-.114-.216-.252-.415-.347-.03-.054-.066-.126-.211-.155-.144-.03-.233-.054-.233-.054s.077-.029.114-.09c-.09.012-.163.042-.36.037-.199-.005-.22-.012-.33.005-.109.017-.24.065-.288-.102-.054-.042-.168-.005-.265.138-.097.143-.131.257-.318.313a.65.65 0 01-.085.233c-.053.09-.138.18-.252.313-.18.211-.15.558-.437.823-.29.265.048-.733.048-.733l.461-1.104 1.313-1.284 2.04-.139.198 1.056.996.342.628.96z" fill="#D3AE4D"/><path d="M18.767 9.03l-.857-1.236-.6-.461s-.426-.787-.456-.811c-.024-.017-.427-.06-.684-.078l.048.12s.085.023.144.096c.114.131.187.379-.073.643.102.037.143.049.233.037-.09.107-.294.335-.306.534-.012.162.09.211.09.211s-.155.18-.163.48c.037-.04.12-.13.24-.228.18-.143.428-.305.595-.407a.346.346 0 00.017.126s.313-.257.575-.143c.12.053.066.22.066.22s.163-.06.277.054c.114.114.276.408.359.522.036.053.13.155.228.313.114.187.24.444.33.696.005-.097.024-.233.192-.233l-.255-.456z" fill="#CAA13E"/><path d="M5.922 12.539s-.06-.15 0-.444c.061-.294.156-.432.187-.865.03-.431.313-.97.313-.97l.78-.355.55.15.163.739-.697.383s-.036.163-.233.294c-.199.13-.468.233-.534.366-.065.139-.085.258-.085.258s-.199-.042-.317.09c-.127.133-.122.252-.127.354z" fill="#F4EFC8"/><path d="M7.495 12.342s-.065.041-.114.143c-.048-.077-.163-.538-.167-.953-.005-.415-.03-.517.065-.66.097-.144.473-.294.42-.552-.053-.245-.277-.347-.551-.276-.192.048-.335.456-.534.66-.15.155-.33.131-.379.216-.065.114-.004.228-.024.3a1.448 1.448 0 01-.175.314c-.22.318-.594.767-.643 1.17.017-.228.005-.233.066-.486l-.037-.06.24-.787.156-.648.347-1.085.612-1.109.594-.665.62.041.072.93.354 1.745.746.918-1.195.803-.473.041z" fill="#EBCC73"/><path d="M7.867 12.672s-.102.025-.139.005c-.036-.017-.073-.041-.06-.065.012-.025.077-.066.077-.085 0-.017-.005-.066-.06-.073-.056-.007-.073.029-.073.029s-.054-.041-.097-.049c.036-.004.077-.004.077-.004s-.102-.049-.21-.061c.06-.037.179-.143.256-.143.078 0 .127-.012.114-.054-.012-.04-.072-.102-.138-.126.024-.029.041-.073-.017-.192-.06-.119-.036-.199-.017-.228.017-.036.078-.102.107-.143.029-.041.053-.097.102-.126.024-.017.102-.049.18-.078.084-.029.155-.065.203-.029.054.036.03.085.03.085s.167-.06.317.017c.15.073.517.119.517.119l.132.264-.87.746-.359.18-.072.011z" fill="#E5C66B"/><path d="M9.073 11.454s-.27.18-.33.245c.036.005.097.03.073.066-.03.036-.204.162-.301.281a1.86 1.86 0 00-.233.342c-.037.066-.314.258-.408.282.199 0 .6-.245.75-.245-.005.072.041.155.126.162.085.005.33.054.66-.15.33-.2.221-.347.36-.444.264-.175.37-.33.516-.428.144-.097.221-.118.221-.118s.005-.073.049-.066a.065.065 0 01.053.041s.253-.18.575-.228a.033.033 0 01-.016-.017s.024-.012.029-.024c0 0 .017-.024.029-.012s.029.102.053.138c.054-.024.155-.252.155-.252l.246-.702v-.64l-.192.036-1.44.611-.873.906-.102.216z" fill="#E6BD62"/><path d="M13.219 8.31s.126-.028.22-.09c-.029.079-.029.163-.155.348-.126.187-.131.211-.233.403-.102.199-.114.485-.211.612a.445.445 0 01.138-.042s-.097.085-.138.175c-.041.09-.114.277-.294.39-.18.115-.408.188-.653.457-.245.265-.497.6-.624.721.066-.114.156-.342.18-.493.024-.15-.005-.33.036-.529.042-.199.042-.342.24-.69.2-.346.54-1.553.54-1.553l.733-.233.22.525z" fill="#B6933F"/><path d="M12.69 7.866s-.222.318-.282.6c-.06.282-.005.257-.041.396a.517.517 0 000 .257s.097-.175.305-.301c.209-.126.379-.216.48-.323.103-.114.188-.3.409-.444-.09-.012-.216-.053-.24-.049.09-.102.359-.257.63-.444.27-.191.253-.27.69-.46-.143.023-.211-.013-.33 0 .048-.103.216-.151.383-.319.168-.167-.107-.415-.107-.415l-1.279.774-.619.728z" fill="#C49937"/><path d="M9.216 7.289l.03-.233.366-.588.383-1.031v-1.41l-.029-.816.06-.534.047-.17.048-.065.313.162.433.588.04 1.133-.42 1.79L9.29 7.421l-.073-.133z" fill="#DFC068"/><path d="M10.17 2.376s-.192.005-.233.804c-.041.798-.06 1.218-.09 1.614-.029.395-.097.636-.131.869-.036.233-.053.55-.163.745-.048.09-.15.371-.39.582a2.41 2.41 0 01-.733.408c-.107.024-.648.078-.87.2-.077.04-.21.089-.359.227a4.586 4.586 0 00-.966 1.309c-.432.851-.864 3.257-.864 3.257l.097-.163s.013-.216.229-.595c.21-.378.15-.803.444-1.529.114-.276.257-.636.432-.941.277-.498.611-.925.949-1.158.55-.379 1.158-.461 1.158-.461l.653-.432s.114-.221.264-.474c.211-.354.48-.75.539-1.325.09-.852-.126-1.41-.114-1.915.012-.505.017-.876.119-.966.102-.09.029-.056.029-.056z" fill="#A88F33"/><path d="M10.17 6.187s.289-.709.42-1.338c.024-.126.073-.252.085-.354.06-.595.077-.84 0-1.165-.06-.24-.294-.456-.415-.624-.12-.174-.175-.24-.15-.276a.27.27 0 01.21-.09c.09.005.323.024.517.24.187.216.335.95.335.95l.156.965.395 1.219-1.553.473z" fill="#C99E3D"/><path d="M12.876 5.449s-.053.024-.15 0a.216.216 0 01-.097.204c-.102-.041-1.056.041-1.056.041s-.444-.078-.583-.665c-.097-.39.073-.93.017-1.284-.085-.522-.204-.624-.216-.786-.012-.163-.024-.204-.024-.306-.053-.012-.085-.03-.138-.03-.013-.048.012-.089-.042-.174.03.012.229.036.462.257.191.18.191.245.22.282.037.036.33.289.457.539.126.25.371 1.05.427 1.182.017.053.053.107.143.228.14.175.347.463.58.512z" fill="#B58634"/><path d="M11.303 3c.09.143.258.432.396.738.143.323.228.587.408.803-.097-.281-.27-.835-.371-1.031-.115-.209-.348-.432-.433-.51z" fill="#A88F33"/><path d="M9.653 6.99s-.245.061-.702.301c-.15.078-.293.143-.432.204-.359.163-.745.313-1.05.396.024.029.036.041.036.041s0 .119.065.187c-.036.036-.521.366-.378 1.47.097-.036.21-.084.228-.084.029.005.036.085.073.085.036 0 .155-.049.281-.211-.005.065-.077.725.313 1.17.073-.085.258-.367.258-.367l.005-.09s.017-.313.118-.6c.102-.288.301-.497.301-.497l1.04-1.483-.156-.522z" fill="#E6C367"/><path d="M8.682 9.167s-.073.054-.155.078a.6.6 0 01.102-.473c.167-.245.534-.563.636-.816.065-.162.036-.57.618-1.092.583-.522.811-.701.811-.701l.942-.474 1.158.457-.575 2.254-.447 1.056-1.777-.335-1.313.046z" fill="#DCBA5A"/><path d="M9.36 8.556l.22-.277v-.196s.245-.066.51-.335c.264-.27.63-.787.954-.755.322.036.354.701.366.888.012.187.054.612.12.84.072.228-.787 1.092-.787 1.092l-.583.444-.8-1.701z" fill="#E9CE77"/><path d="M10.044 10.86s.18-.282.048-.343c.078-.175.221-.36.221-.36s.102-.252.432-.562c.33-.313.534-.517.588-.726.053-.211.053-.415.053-.415s.066.053.114.078c.053.024.306.233.27.652-.037.42-.192.595-.192.595s-.15.15-.258.228c-.114.078-.155.168-.347.175a.232.232 0 01.066-.036s-.2-.025-.306.072c-.107.098-.335.396-.449.486l-.24.155z" fill="#CDAE50"/><path d="M18.114 6.138s-.383-.155-.893-.174c-.51-.017-1.255.012-1.986.017-.786.004-1.5-.27-2.49-.318-.162-.097-.575-.522-1.866.378.077-.005.937-.199 1.235.175.301.371.216 1.002.175 1.153-.078.335-.33.823-.432 1.165-.102.342-.078.522-.15.762-.074.24-.234.36-.139.636.126-.078.192-.078.403-.55.211-.474.167-.812.517-1.212.342-.403.912-.954 1.129-1.092.216-.139 1.936-1.032 3.738-.18.434-.046.76-.76.76-.76z" fill="#D2A83E"/><path d="M11.604 5.808s-.004-.041-.012-.053c-.029-.06-.065-.097-.065-.097s-.427-.078-.643-.054c-.38.042-.721.51-.882.75-.162.24-.359.612-.575.804.005-.03-.012-.054-.012-.054s.012.017-.012.042c-.024.024-.024.036-.012.048l.036.037c.012 0 .347-.15.804-.576.485-.444.856-.672 1.05-.75.149-.068.323-.097.323-.097z" fill="#C29637"/><path d="M19.89 3.983s-.077.097-.174.204c-.216.228-.498.485-.738.75-.228.252-.485.449-.774.779-.289.33-.624.697-.709.803a.791.791 0 00-.138.372c-.041-.03-.09-.06-.09-.06s.024.048.073.106c.06.085.155.192.204.257a.785.785 0 01.126.277c.029.005.216.041.449-.342.233-.384.539-.804.539-.804l.485-.72.306-.612.383-.685.059-.325z" fill="#AC8132"/><path d="M20.388 3.493s-.293.24-.407.383c-.115.143-.384.522-.384.522l.097-.012.493-.437.192-.342.01-.114z" fill="#A88F33"/><path d="M20.299 22.782s-.005-.2.106-.318c.114-.12.403-.294.685-.95.281-.652.313-.803.313-.803s-.505.432-.816.534c.073-.15.114-.257.15-.335-.04-.036-.215-.078-.232-.097.097-.097.15-.335.347-.493.252-.191.714-.521 1.073-.815.359-.294 1.063-.978 1.153-1.177.053.077.065.126.065.126s-.354.461-.539.755c-.162.252-.15.395-.15.395l.335-.143s.097.36-.342.905c.191-.072.27-.029.378-.09-.18.115-.427.27-.66.697-.228.428-.539.925-1.063 1.236-.51.327-.803.573-.803.573z" fill="#A67A2E"/><path d="M18.983 6.39s-.2.416-.228.739c-.005.077-.024.138-.024.228-.005.289.016.611-.049.762-.024-.06-.036-.102-.06-.126-.037.102-.103.42-.156.539a2.536 2.536 0 01-.073-.665c.005-.318.012-.38.012-.445-.012.097-.077.229-.102.306-.036-.065-.077-.15-.126-.22-.03.048-.066.118-.097.155a2.218 2.218 0 01-.024-.216c-.005-.127-.012-.29-.005-.323.012-.066.114-.323.33-.558.257-.282.522-.823.6-.99.077-.168.407-.865.407-.865h.253l-.367.835s-.22.456-.335.624c-.114.167-.354.648-.46.835.077-.102.142-.155.22-.253a4 4 0 00.284-.361z" fill="#8C6228"/><path d="M20.393 3.461s-.048.175-.192.347c-.15.18-.473.42-.63.612-.144.187-.433.697-.302 1.3.049-.13.139-.39.38-.684.24-.293.497-.63.623-.893.126-.264.143-.473.143-.473l.049-.06-.03-.14-.04-.009z" fill="#CBA94C"/><path d="M25.308 19.56s-.097-.264-.126-.504c-.03-.24.049-.289-.041-.563-.054-.168-.15-.143-.175-.168-.024-.024-.041-.276-.036-.415a1.554 1.554 0 00-.03-.395c-.036-.03-.06-.054-.114-.233-.06-.18-.09-.27-.119-.323-.029-.054-.114-.102-.114-.155 0-.107.097-.163.097-.192-.004-.061-.077-.012-.097-.03-.024-.029.061-.203.03-.228-.013-.012-.098.09-.12.061-.024-.029-.053-.318-.097-.51-.04-.186-.084-.322-.09-.378-.004-.054-.334-.995-.414-1.223a5.783 5.783 0 01-.163-.588c-.024-.114-.041-.347-.053-.323-.012.024-.005.143-.025.139-.017-.005-.077-.42-.097-.486-.017-.065-.119-.289-.143-.449-.024-.162-.078-.587-.114-.876-.036-.289-.053-.408-.053-.48 0-.037.012-.246-.03-.53a4.918 4.918 0 00-.228-.893c-.162-.408-.594-1.451-.672-1.711 0-.066.085-.03.085-.03s.211.53.366.938c.15.407.294.767.33.803.03.036.258.437.36 1.092.102.656.138 1.26.199 1.663.029.192.053.396.114.6.065.22.167.448.3.798.115.294.2.539.246.75.053.27.053.473.085.607.029.114.073.342.175.672s.252.755.354 1.02c.199.529.289.97.318 1.206.027.242.116 1.082.092 1.335z" fill="#A88F33"/><path d="M20.405 3.432l-.012.03s.037.011.03.06c0 .024 0 .119-.013.199-.012.085-.036.15-.041.204 0 .114.017.245-.143.57-.049.09-.078.168-.102.221a.656.656 0 01-.126.211c.084-.048.39-.24.546-.211-.107.06-.27.18-.372.335a.839.839 0 00.29 0c.269-.041.57-.138.834-.119.289.017.175-.347.175-.347l-.335-.733-.631-.444-.1.024z" fill="#BE9C44"/><path d="M22.05 8.922s-.28-.281-.395-1.247c-.114-.971-.09-2.4-.09-2.4l-.228-.559s-.048-.371-.167-.51c-.119-.138-.355-.371-.461-.485-.107-.114-.228-.27-.301-.294.036-.06.199-.403.823-.408.623-.004.815.343.88.469.066.126.36.672.47 1.711.101 1.039.106 1.117.089 1.476-.012.199-.078.66-.192 1.153-.104.417-.218.883-.427 1.094z" fill="#A17C34"/><path d="M21.168 9.75s.13.017.269-.06c.09-.006.415.036.665-.282.017.073.06.27-.053.444.06-.06.15-.085.162-.102.005.09.09.367-.27 1.039.098-.107.212-.102.314-.114.005.126.073.55-.107.779-.119.155-.313.107-.313.107s.005-.054 0-.102c-.005-.066-.03-.131-.012-.175-.024-.012-.126-.053-.253-.175-.21-.199-.485-.539-.504-.791-.025-.282.228-.342.228-.342s-.03-.025-.054-.066c-.012-.041-.024-.107-.072-.16z" fill="#8C6228"/><path d="M19.296 6.697s-.012-.017-.077.06c.012-.077.024-.15.029-.22a.763.763 0 01.119-.18c-.037.073-.061.138-.061.138s.09-.167.22-.27c.09-.072.205-.106.253-.174.054-.073.041-.085.054-.097 0 0 .119-.078.3-.306.025-.03.061-.06.085-.09.042-.017.139-.06.253-.119.119-.065.252-.155.335-.191.162-.073.335-.066.415-.18.06-.017.126-.2.114-.354.09.036.55.322.709.949.114.444-.09 1.128-.175 1.458-.085.33-.097.576-.216.726-.15.2-.636.48-.755.619-.102.114-.408.403-.395.612.012.155.203.24.245.27.04.028.04.065.119.048.077-.017.106-.054.138-.054.036.005.036.012.053.012s.037-.004.037-.004-.012.22-.53.288c-.036.005-.072.017-.118.025.06-.03.097-.03.162-.12-.073-.011-.281-.024-.335-.04a.65.65 0 01.12-.144c.04-.036-.006-.048-.042-.029-.017.012-.097.066-.18.138-.06.054-.114.127-.21.192a.473.473 0 01.09-.415c-.03.005-.086.09-.14.073a.773.773 0 01.018-.265c.029-.109.187-.3.187-.3l.762-1.362.162-1.032-1.745.338z" fill="#92723A"/><path d="M19.255 6.755s-.041.029.041.085c-.012.017-.041.077-.078.119-.04.048-.084.077-.102.119-.036.085-.065.143-.065.18 0 .036-.012.269-.114.42-.037.053-.078.142-.107.203-.06.107-.114.192-.126.24-.024.085-.041.318-.041.318l.072-.09a.675.675 0 01-.106.175c.029-.024.114-.085.257-.21.199-.168.51-.45.888-.673-.114.041-.21.041-.289.053.061-.06.607-.701.894-.762.029-.036.024-.078.024-.078l-.245-.024-.498.107-.073-.384-.332.202z" fill="#B18E3E"/><path d="M20.046 8.94s-.066.065-.126.227a.762.762 0 01-.12-.162c-.089-.15-.227-.342-.55-.233-.005-.102-.012-.156 0-.228.053-.012.216-.144.379-.335.114-.131.22-.282.293-.474.049-.036.131-.097.24-.167.156-.107.343-.252.372-.415-.073.029-.228.102-.461.09.09-.042.228-.085.21-.265l.066-.041s-.029-.012-.084-.012c-.005-.017-.013-.042-.054-.03-.041.013-.048.013-.053.03-.017.005-.073 0-.114.029-.042.029-.156.126-.2.143l.042-.073s-.119.012-.204.049c-.155.053-.335.15-.517.245.017-.03.024-.049.036-.053.013-.005.042-.013.042-.017 0-.005-.012-.049-.005-.066.005-.017.107-.216.192-.33.085-.114.102-.277.102-.277l.37-.187 1.044-.24.678.041-.085.469-.4.818-.343.745-.39.456-.36.262z" fill="#543E26"/><path d="M21.738 6.913s-.408.504-.522.582c.073-.155.522-1.08.684-1.337-.036-.03-.084-.03.03-.48-.098.227-.131.346-.212.407-.077.06-.09.041-.143.041.017-.029.012-.06.012-.06s-.342-.042-.575-.042c-.233 0-.697.126-.954.228-.204.085-.318.085-.39.139-.073.06-.115.126-.151.143-.03.017-.168.06-.199.107-.03.048-.078.102-.078.114 0 .012-.012.029.025.017.012-.005.101-.054.203-.114.139-.078.306-.168.428-.221.347-.138.456-.114.611-.143.163-.03.396-.097.551-.097.156-.005.45 0 .517.012-.029.024-.053.053-.041.155 0 .03-.024.06-.049.131-.072.2-.21.53-.288.697-.107.228-.229.42-.29.539-.06.119-.191.432-.322.6-.131.167-.2.269-.24.305-.042.036-.335.252-.313.33.053-.017.39-.143.636-.42.245-.277.293-.444.485-.595.192-.15.342-.402.432-.611.075-.194.058-.255.153-.427z" fill="#806031"/><path d="M12.949 10.68s-.053.22-.175.33c-.119.106-.33.199-.354.378-.03.18.211.27.211.27s-.131.216-.131.378c0 .168-.005.2.012.36a.162.162 0 00-.048.048s.012.155.13.252c.12.098.222.156.282.132.012.024.024.06.024.06s.09-.228.151-.427c.06-.204.114-.175.138-.449.025-.277.29-.745.29-.745l.179-.403-.294-.228-.415.044z" fill="#B6903C"/><path d="M13.495 11.075s-.09.09-.167.2c-.078.106-.139.203-.253.245-.114.04-.187.04-.18.155.008.114.115.162.175.22.066.061.12.163.09.277.037-.017.102-.036.163-.167.06-.131.485-.93.485-.93h-.313z" fill="#685026"/><path d="M15.168 9.233s.036-.097 0-.167c-.037-.073-.258-.098-.367-.18-.114-.085-.252-.143-.367-.107.018-.041.085-.13.03-.15-.054-.017-.253.072-.306.114-.054.041-.175.09-.2.119-.024.029-.065.085-.09.06-.023-.017-.036-.06-.077-.036s-.24.187-.276.281a1.439 1.439 0 01-.367.547c-.245.24-.354.395-.281.485.072.09.106.024.118.102a.648.648 0 01-.012.228c-.029.126-.077.245-.012.27.168.053.33-.049.367-.017.072.065-.042.3.13.347a.531.531 0 00.348-.042l.636-.342.611-.323.313-.619-.167-.517-.031-.053z" fill="#D4B968"/><path d="M14.568 10.711s-.107-.162.024-.306c.131-.143.318-.204.391-.293a.113.113 0 00-.053-.037s.065-.13.21-.199a.202.202 0 00-.138-.065c-.119 0-.191.072-.3.072-.107 0-.12-.053-.12-.053s.18-.017.163-.097c-.017-.085-.048-.085-.048-.085s.347-.143.407-.22c.061-.078.054-.168.066-.205.041 0 .281-.126.379-.073.097.054.029.2.029.2s.293-.221.444-.437c.13.012.192-.09.289-.09.119 0 .305.162.342.51.024.199.06.313.024.665-.017.199-.012.623.049.835.04.167.138.15.138.15s-.017.073-.085.131c-.065.06-.073.22-.065.282.012.06.036.13.036.13s-.078.09-.097.151c-.017.06-.097.102-.155.102-.061 0-.03-.005-.107 0-.078.005-.102.017-.15 0-.05-.017-.086-.036-.066-.192.017-.155-.6-.517-.6-.517l-1.007-.359z" fill="#CCA849"/><path d="M13.41 12.245s.221.294 1.129.294c.432 0 .582-.041.672-.066.097-.024.461-.167.828-.6.33-.39.257-.55.257-.55l-.192-.03-.623.086-1.848.786-.223.08z" fill="#585136"/><path d="M14.087 12.318s-.786.175-.786-.323c0-.485.485-.995.607-1.085.126-.09.427-.192.427-.192h.726l.138.367-.06.791-1.052.442z" fill="#252211"/><path d="M14.813 10.867s-.15-.139-.493.048c-.342.187-.619.575-.636.93-.016.313.258.546.685.558.318.012.51-.024.607-.049-.025-.029-.15-.187-.15-.187l-.013-1.3z" fill="#C3B378"/><path d="M14.665 10.944s-.036-.029-.143.03c-.09.048-.221.174-.323.264-.066.053-.107.078-.143.119-.15.18-.277.473-.204.619.073.143.313.313.925.199l-.112-1.23z" fill="#E6D89C"/><path d="M14.466 11.245s-.097.15-.097.39c0 .246.138.637.648.666.39.024.653-.563.937-.791.216-.175.347-.18.347-.18s-.22-.24-.81-.55c-.583-.314-1.236-.355-1.59.125.167-.012.708-.15.708-.15l.265.085-.408.405z" fill="#252211"/><path d="M15.228 11.563c-.017-.036-.029-.085.041-.097.073-.012.102-.005.127.049.024.053.048.097.012.118-.037.02-.131 0-.18-.07zm-.114-.342s-.024.017-.012-.017c.005-.041.036-.114.114-.097.078.017.06.102.049.126-.013.024-.078.066-.127.048-.048-.016-.024-.06-.024-.06z" fill="#6F674D"/><path d="M8.544 11.376s.191.143.415.139c.22-.005.505-.234.636-.38.077-.084.143-.174.216-.244.06-.06.102-.09.13-.131.042-.049.086-.139.107-.168-.053.041-.13.114-.21.163a2.44 2.44 0 01-.314.162 27.81 27.81 0 00-.745.384l-.235.075z" fill="#AC924C"/><path d="M8.837 9.583s.107-.073.313-.12c.2-.048.6-.084.6-.084l.33.143.131.498-.24.516-.306.192-.347-.558-.48-.587z" fill="#9F8E57"/><path d="M8.405 10.027l-.114.085s.03-.054.054-.216c.024-.163.15-.559.335-.787.184-.228.18-.216.18-.216s-.054-.012-.098.024a1.18 1.18 0 01.335-.342c.155-.097.216-.126.379-.048.162.077.204.119.323.114.119-.005.22-.131.22-.131s.025.077-.065.257-.444.546-.444.546l-.738.505-.367.209z" fill="#EAC970"/><path d="M8.951 9.522s.534.073.697-.078c.005.017.024.017.024.03 0 .011-.012.024-.012.024s.03-.005.054-.005c.024.005.04.012.065.012a.387.387 0 00.054-.005s-.005.041-.037.06c.024 0 .049.006.049.025 0 .02.005.078-.025.09a.11.11 0 01-.072-.005s0 .065.036.131c.049.09.15.192.289.163 0 0 .073.174-.233.563-.041.053-.085.126-.139.187-.04.097-.048.143-.048.143s.517-.2.665-.653c.15-.456.18-.905.15-1.325a.678.678 0 00-.053-.265c-.073-.15-.277-.126-.36-.041-.118.119-.317.415-.594.619-.281.204-.294.24-.51.33z" fill="#D7BC6B"/><path d="M8.31 10.177s-.101.06-.155.289c-.053.233.049.517.107.607.06.09.192.335.469.347.06 0 .13-.012.199-.041a1.26 1.26 0 00.269-.168c.119-.09.216-.167.204-.175-.03-.012-.733-.594-.733-.594l-.265-.296-.094.031z" fill="#585136"/><path d="M8.976 11.143s.143-.012.228-.065c.085-.054-.498-.631-.498-.631l.042.623.228.073z" fill="#453A25"/><path d="M8.357 10.133s-.073.139-.073.175c-.012.12.024.493.053.612.03.126.187.318.391.318.126 0 .301-.078.301-.097 0-.024-.18-.049-.228-.139-.03-.048-.041-.167-.049-.288-.004-.078-.004-.163.025-.192.065-.073.077-.282.077-.282l.233-.432h-.305l-.367.228-.058.098z" fill="#84754B"/><path d="M8.267 10.267s.24-.318.456-.39c.216-.074.313-.03.313-.03l-.126.323-.18.199.013.102s-.03.27.15.456c.18.187.313.18.391.18.078 0 .3-.066.415-.335.102-.253.187-.575-.017-.9-.199-.323-.55-.336-.619-.336-.068.003-.602.027-.796.731z" fill="#252211"/><path d="M14.43 11.347c-.09-.041-.005-.294.085-.371a.633.633 0 01.402-.18c.073-.005.144.041.132.09-.017.09-.144.216-.258.306-.158.124-.26.201-.361.155z" fill="#F7F7E7"/><path d="M9.575 9.97c.066-.004.15.05.168.12.017.078-.042.233-.168.233-.102 0-.155-.126-.155-.163 0-.036.017-.073.024-.085.005-.007.017-.092.131-.104z" fill="#F8F6DE"/><path d="M8.629 10.027s-.168.077-.245.24a.637.637 0 00-.049.383.94.94 0 00.114.265c.041.054.097.09.138.085.042-.005.127-.114.127-.18 0-.065.004-.342.085-.492.07-.15-.17-.301-.17-.301z" fill="#D4C38B"/><path d="M8.653 10.015c-.03.017-.078.04-.066.072.013.03.114.049.15.12.042.072.042.15.03.186a.292.292 0 00.085-.06c.053-.061.119-.144.175-.144.036 0 .073.017.107.017.053 0 .106-.017.114-.072.012-.073-.102-.139-.168-.127.012-.048.03-.119-.024-.167-.054-.049-.221.036-.257.06-.04.025-.146.115-.146.115z" fill="#E2D59D"/><path d="M12.51 15.114l.359-.107.102.073s.073.155.187.175c-.037.077-.131.143-.126.199a.164.164 0 00.053.097s-.323.534.313 1.073c-.15.06-.342.143-.444.192.073.017.228.048.294.106.065.061.065.078.126.114.06.037.097.085.085.107-.041-.024-.18-.097-.204-.029-.024.066-.6.041-.6.041l-.97.187s.036-.097-.066-.187c-.119-.107-.265.005-.42-.114-.204-.155-.211-.335-.277-.403.066-.04.2-.102.517-.143-.012-.024-.053-.097-.029-.163.03-.084.15-.138.114-.24.054-.012.078-.012.211-.18.127-.167.204-.203.301-.215.098-.012.156 0 .335-.168.127-.119.085-.22.085-.22s.083-.027.054-.195z" fill="#CBAC5A"/><path d="M11.449 15.168c.005-.025.024-.037.155-.025.131.012.962-.078 1.187-.09.228-.017 1.032-.004 1.423.078.39.083.786.18.978.228.191.054.252.073.245.097-.005.025-.049.049-.073.042-.024-.005-.66-.2-.857-.24-.196-.042-.876-.151-1.247-.144-.347.005-.486-.005-.78.03-.293.036-.779.084-.924.065-.143-.017-.114-.017-.107-.041z" fill="#D6BC6F"/><path d="M13.403 17.07s.497.27.677.6c.131.245-.078.366-.078.366s.282 0 .246.156c-.017.097-.486.359-.799.497-.318.139-.306.131-.461.156-.15.024-.563-.049-.648.073-.085.118-.049.245-.024.264.024.017.22.041.22.041s-.04.114-.449.127c-.407.012-.51.04-.534.084-.024.042.078.017.265.049.187.03.449.049.449.049s-.085.072-.306.13c-.252.066-.648.127-.767.2.06.04.15.102.192.107a1.212 1.212 0 00-.27.096c.037.025.085.054.085.054s-.203.245-.322.306c-.12.06-.804.378-1.04.318-.587-.156-.66-.799-.803-.847-.216-.073-.318.072-.51-.03.086-.06.132-.097.222-.138-.098-.048-.6-.366-.6-.366s-.06-.139-.175-.335c-.097-.168-.24-.391-.347-.588-.233-.432-.245-.63-.456-.876.036-.048.163-.041.163-.041l1.769.582 3.138.09.816-1.165.347.041z" fill="#DFC677"/><path d="M8.755 18.847s.024.03.065.053c.061.042.15.09.212.163.024-.036.085-.102.191 0 .107.102.24.03.323.053.085.03.09.042.09.042s.048-.042.155-.085c.066-.024.143-.041.228-.066.078-.017.163-.041.221-.041.054.036.245.24 1.015-.06.725-.282.893-.314 1.014-.27.012-.03.025-.085.211-.078 0-.077-.155-.342-.155-.342l-.857-.294H11l-1.405.258-.78.444-.06.223z" fill="#C4A859"/><path d="M8.286 18.354s.017.131.212.27c.191.138.252.22.252.22s.036-.048.066-.096c.029-.054.053-.114.101-.132.098-.04.318.037.367.025.041-.012.03-.097.073-.097.102-.005.167.065.204.065.036 0 .126-.005.138-.024.012-.02.017-.22.155-.318a.414.414 0 01.384-.036c0 .036.005.126.102.13.097.005.107-.012.192.018.085.029.187-.005.233.138.04-.012.138-.024.114-.163.048-.036.09-.06.191-.203.025-.037.066-.078.098-.132.085 0 .186-.017.322.102-.04.03-.065.049-.077.078.012.012.06.06.097.114.036.049.06.107.107.119.101.03.269-.012.456 0 .18.012.33.078.396.119.024-.012.024-.017.084-.005.061.012.107.017.042-.06.036.016.077.053.114.016.036-.036.065-.09.167-.101.102-.013.139.004.18-.102.053-.131-.131-.131-.131-.131s.085-.078.18-.18c.114-.107.245-.245.276-.415.053-.313-.252-.355-.252-.355l-1.483.457-1.813-.09-1.547.77z" fill="#927D49"/><path d="M6.954 14.07s-.049.061-.078.204c-.029.144-.017.127-.041.228-.024.102-.323 1.117-.211 1.46.111.341.306.468.427.744.024.061.048.097.06.15.042.18.006.319.054.498.017.061.06.131.126.204.143.15.379.294.48.396.144.15.348.456.608.485.138.017.335-.041.497-.138.143-.09.233-.216.384-.289.106-.053.22-.073.322-.097a1.45 1.45 0 01.518-.024c.174.036.587.162.815.162.09 0 .301-.012.53-.072.346-.102.766-.277 1.043-.355.162-.048.293-.06.427-.09.228-.053.42-.126.53-.264-.074-.085-.164-.216-.649-.211-.55.012-1.187.318-1.5.366-.313.049-.449.09-.798-.036-.343-.126-.355-.211-.355-.211s-.359-.253-.51-.894c-.15-.643 0-1.109.391-1.553.102-.114.078-.216.078-.216s.257-.347.187-.672c-.078-.323-.575-.258-.575-.258l-2.76.483z" fill="#6E6342"/><path d="M7.369 15.15s-.036.066-.03.132c.006.065.025.15.222.342.167.167.13.354.13.354s.086.017.314-.09c.18-.085.24.066.24.066s.073-.041.168-.054c.097-.012.15-.048.15-.048s.211.216.396.318c.167.09.264.15.347.09.078-.054.078-.163.073-.211 0 0-.025-.061-.073-.127-.054-.077-.139-.167-.143-.24-.013-.167.126-.367.097-.415-.03-.049-.139-.06-.408.036-.28.093-1.483-.153-1.483-.153z" fill="#39331F"/><path d="M8.005 16.235s-.138-.13-.09-.767a.789.789 0 01.175.017s.075.493-.085.75z" fill="#292311"/><path d="M7.02 13.585s.024-.017.053-.049c-.049.09-.27.45-.09 1.015.18.563.631.983 1.187 1.002.556.02.847-.252 1.182-.66.131-.162.281-.366.415-.505.199-.216.354-.276.354-.485 0-.427-.437-.619-1.08-.81-.643-.193-1.223-.168-1.524-.037-.294.143-.42.294-.498.529z" fill="#252211"/><path d="M9.085 16.427l.048-.024s.013-.192.09-.187c.078.012.114.114.107.15-.005.037-.024.098-.102.09-.102.003-.143-.029-.143-.029z" fill="#3F3824"/><path d="M8.869 15.612s.048-.017.107.04c.048 0 .257-.023.323.018.065.041.084.078.084.078s-.245.053-.378 0c-.136-.047-.136-.136-.136-.136z" fill="#2D2815"/><path d="M9.949 15.648a.6.6 0 00-.27-.131c-.024-.005-.029.012-.048.012-.012-.005-.017-.041-.017-.041l-.078.041s-.012.017.03.049c.036.029.097.053.114.102.017.048.017.065.024.072a.26.26 0 00.13-.024c.042-.027.12-.063.115-.08z" fill="#82764F"/><path d="M8.723 16.14s.025-.167.187-.174c.168-.012.2.15.2.15l-.098.098c0-.003-.073-.105-.289-.073z" fill="#2D2816"/><path d="M9.78 15.42s-.09.097-.29.126c-.017-.024-.053-.073 0-.15.054-.078.114-.102.175-.078.06.012.102.053.114.102z" fill="#574F35"/><path d="M10.146 15.539c.004-.024-.013-.03 0-.041.012-.012.077-.037.09-.025.004.005 0 .025 0 .049s0 .048-.013.065c-.017.025-.065.037-.09.03-.024-.005-.029-.042-.029-.049.013-.005.042-.017.042-.03zm.415-.262c0-.012.041-.037.065-.037.037 0 .037.03.042.037.012.005.012-.005.024.017.012.024.029.06.017.085-.012.024-.06.04-.073.036a.638.638 0 01-.075-.138z" fill="#82764F"/><path d="M9.726 15.595s.053.012.126.072c-.024.018-.06.037-.06.037s-.006-.056-.066-.11z" fill="#6E6342"/><path d="M9.607 15.06c-.012-.011.036-.04.065-.036.03.005.042.025.073.03.032.004.037-.013.049-.025.012-.012.053-.005.06 0a.119.119 0 01.013.017s0-.03.024-.048a.076.076 0 01.065-.013c.005.017.03.078.025.09-.005.012-.078.03-.09.017.012.03.065.09.073.102.004.012-.054.041-.078.036a.99.99 0 01-.28-.17zm.318-.402s-.005-.017-.025-.03c-.016-.004-.072 0-.072.03 0 .029.048.192.102.276.06.085.102.156.143.175.041.017.065-.012.073-.024.004-.012.017-.102.012-.313-.005-.211-.012-.415-.024-.427-.013-.013-.061-.013-.078.012a2.265 2.265 0 00-.131.3z" fill="#585136"/><path d="M9.709 15.9s-.085-.053-.168-.017c-.077.037-.073.18-.073.18s.054.024.107-.012c.054-.036.122-.097.134-.15z" fill="#574F35"/><path d="M9.869 16.092c-.005-.048-.049-.048-.049-.073.005-.024.03-.04.054-.04s.048.028.077.048c.03.017.073.048.078.085.005.036-.048.138-.107.138-.058-.002-.041-.11-.053-.158zm.468-.065s-.097.029-.09 0c.005-.03.03-.037.061-.037.012-.012.037-.029.06-.029.025 0 .037.012.037.012s.066-.029.085-.012c.017.017.005.017.017.037.012.017.03.053.03.072 0 .02-.073.061-.132.054-.068-.015-.055-.085-.068-.097zm.566-.11s.029.018.005.037a.388.388 0 01-.175.053c-.073 0-.138.012-.138-.012s.06-.073.097-.085a.077.077 0 01.06-.029c.03 0 .144-.012.175-.017.03-.005.054.012.037.036-.008.018-.061.018-.061.018zm.167-.75s-.036.078-.077.078c-.042-.005-.042-.017-.042-.029 0-.017.042-.06.037-.073-.012 0-.041 0-.037-.029 0-.024.042-.053.078-.049a.16.16 0 01.097-.036c.042 0 .078.012.078.037 0 .024-.049.077-.066.09-.02.019-.043.03-.068.011zm-.553 1.435s-.049.005-.049.03c0 .011.013.011.03.004.012 0 .029-.005.029-.005.005.005.005.03.041.03a.233.233 0 00.085-.03c.029-.012.053-.024.053-.049-.012-.04-.036-.06-.072-.06a.097.097 0 00-.054.012s-.012-.024-.053 0c-.042.024-.037.024-.025.036.022.02.015.032.015.032zm-.274.252c0-.012.06-.036.077-.029.017.005.066.097.066.107 0 .012-.06.041-.085.041-.024 0-.066-.041-.066-.048 0-.005.03-.012.03-.017.007-.012-.022-.042-.022-.054zm-.192-.354c.012-.005.012-.017.03-.03.016-.011.036-.004.036-.004s.012-.024.04-.03c.03-.004.054 0 .05.013 0 .036.024.06.024.09 0 .029-.017.065-.078.09a.429.429 0 01-.155.012c-.013-.005-.025-.054-.013-.078.01-.027.046-.05.066-.063z" fill="#82764F"/><path d="M10.129 16.517s-.042.024-.042.036c-.005.012-.005.03-.005.037 0 .007.054-.005.061-.012.003-.005-.014-.049-.014-.061z" fill="#6E6342"/><path d="M9.767 16.403c.024.005.066 0 .097.012.024.012.041.037.017.066-.024.029-.048.072-.102.065-.06-.005-.119-.036-.119-.06-.005-.03.012-.066.03-.085.024-.02.036-.008.077.002z" fill="#585136"/><path d="M9.738 16.427s-.078.06-.097.09c-.024.03-.143.18-.18.211.012-.024.041-.06.041-.06s-.072.04-.102.13c-.029.09.163.139.29.175.126.037.174.049.174.049s-.073-.107-.119-.221c-.048-.114-.073-.126-.041-.18.024-.053.06-.09.06-.13-.014-.04-.026-.064-.026-.064z" fill="#574F35"/><path d="M6.97 16.619s.018.005.054 0c.037-.005.415-.143.811-.119.175.012.485.036.876.143.498.131 1.117.391 1.517.54.107.04.211.113.289.142.306.12.318.12.498.15.21.03.427-.04.652-.089.277-.06.75-.09 1.165-.15.216-.03.396-.09.396-.09s-.33.33-1.121.449c-.396.06-.721.041-.966.012a2.94 2.94 0 01-.546-.097c-.144-.042-.437-.15-.799-.24-.252-.066-.534-.115-.857-.175-.796-.146-1.66-.313-1.968-.476z" fill="#252211"/><path d="M6.558 13.398c-.085-.078-.174-.155-.257-.233l-.252-.233-.253-.24c-.041-.042-.085-.078-.126-.12l-.131-.113c-.335-.318-.672-.636-1.003-.954.343.313.678.624 1.02.942l.119.119c.041.04.085.077.126.118l.252.234c.085.077.168.155.253.24.085.085.167.162.252.24zm-4.446-.048s1.218.126 1.813.21c.55.078 2.274.343 2.274.343l-4.087-.553zm0 0c.342.029.684.065 1.026.101l.51.054.257.029.253.036 1.02.163.509.085.51.09a12.162 12.162 0 01-.51-.066l-.51-.072-1.02-.151c-.084-.012-.167-.03-.252-.041l-.257-.03c-.167-.016-.342-.04-.51-.06a29.836 29.836 0 01-1.026-.138zm3.966.87s-1.301.331-1.74.457c-.433.12-1.74.517-1.74.517" fill="#CFB66C"/><path d="M6.078 14.22a32.94 32.94 0 01-.87.246l-.868.233-.864.252-.432.12c-.144.04-.29.077-.437.118.143-.048.289-.097.432-.138l.432-.138c.289-.09.575-.175.864-.265.294-.073.582-.15.876-.22.28-.071.573-.142.867-.207zm-3.299 1.775c.143-.053 1.794-.823 2.177-1.002.192-.09.75-.29.75-.29" fill="#CFB66C"/><path d="M2.78 15.995c.125-.048.244-.107.366-.162l.359-.168.72-.347c.241-.114.474-.24.722-.347.126-.053.252-.097.378-.139l.192-.06c.066-.017.126-.037.192-.054-.24.114-.493.212-.733.323-.24.12-.486.216-.733.323l-.733.323c-.245.1-.486.206-.73.308zm.16.673s1.494-.877 2.009-1.158c.27-.15 1.14-.583 1.14-.583" fill="#CFB66C"/><path d="M2.94 16.668l.766-.474.384-.233c.13-.078.257-.15.39-.228.132-.078.258-.155.391-.228.066-.041.131-.073.2-.102l.203-.102c.27-.131.54-.265.823-.379-.257.163-.522.301-.786.444-.131.073-.265.139-.396.212-.131.072-.257.15-.39.22a9 9 0 01-.392.222l-.395.215-.799.433zm3.138-1.55s-.93.715-1.23.943c-.302.228-1.188.869-1.188.869" fill="#CFB66C"/><path d="M6.078 15.119c-.192.162-.396.318-.595.468l-.6.462c-.203.15-.402.305-.606.456-.204.15-.408.294-.624.432a10.1 10.1 0 01.6-.461c.203-.148.414-.294.611-.444l.6-.462c.206-.15.405-.305.614-.451zm-1.061 1.699s.216-.18.485-.432c.335-.313.746-.714.877-.786" fill="#CFB66C"/><path d="M5.017 16.818c.107-.107.22-.211.335-.313l.175-.15c.053-.05.114-.102.167-.156.107-.107.211-.22.318-.33.054-.053.107-.107.168-.155a.453.453 0 01.097-.066c.029-.017.06-.048.102-.053-.025.036-.054.053-.078.085-.03.024-.053.053-.078.077-.053.054-.114.102-.167.15-.114.098-.233.192-.347.294-.114.102-.221.212-.335.314-.124.104-.238.206-.357.303zm1.451-.97s-.79.773-.953.9l.953-.9z" fill="#CFB66C"/><path d="M6.468 15.847c-.072.085-.15.163-.228.233l-.24.228c-.078.078-.15.156-.233.233-.085.073-.163.143-.252.211l.233-.228c.077-.077.162-.143.245-.22l.233-.229c.08-.08.157-.157.242-.228zm.037.42s-.09.265-.257.595c-.204.407-.51.917-.644 1.177" fill="#CFB66C"/><path d="M6.505 16.267c0 .09-.024.168-.054.245-.029.078-.06.155-.097.228a3.88 3.88 0 01-.119.221c-.04.073-.09.143-.126.216l-.245.432c-.085.143-.167.289-.257.427.06-.155.143-.3.22-.444.086-.143.163-.289.24-.437.037-.073.074-.15.103-.228.036-.078.073-.15.102-.22.036-.078.065-.151.102-.222.041-.075.075-.148.13-.218z" fill="#CFB66C"/><path d="M7.369 18.257s-.24.318-.216.721c.065-.211.148-.534.216-.72zm.228.318s-.085.864-.155 1.289c.1-.49.119-.449.155-1.289zm1.59 1.34s-.36 1.056-.367 1.35c.078-.302.229-.918.367-1.35z" fill="#DEC270"/><path d="M10.027 18.192s.582.96 1.02 1.781c-.12-.412-.392-1.17-1.02-1.781z" fill="#CBAF59"/><path d="M11.592 19.607s.457.786.864 1.745c-.048-.413-.18-1.119-.864-1.745z" fill="#E3C677"/><path d="M16.194 21.024c.097-.06.29-.39.457-.473.167-.085.293-.102.444-.27.15-.174.192-.281.522-.42.46-.198.143-.456.143-.456s.077-.077.162-.138c.12-.09.258-.2.246-.39-.017-.324-.078-.792-.343-1.064.258-.053.75-.09 1.056-.167.354-.09.517-.216.517-.216s-.204-.348.126-.697c.33-.347.6-.558.799-.949-.228-.03-.575-.15-1.464.187.066.029.139.078.139.078s-.547.15-.745.317c-.348.294-.391.535-.768.714-.378.18-.754.131-1.067.277-.314.143-.36.27-.474.323.024.029-.005.077.041.119-.029.04-.199.317-.37.317.016.066.162.115.162.115s-.107.077-.379.097c.138.143.27.3.631.529-.029.06-.15.15-.102.264.054.114.192.27.745.396-.281.012-.611.078-1.056.017-.444-.053-.516-.085-.79-.017.028.03.106.03.174.107-.073.005-.53-.054-.684.15-.163.211-.234.558-.221.791-.085.042-.168.115-.127.265.042.15.258.2.396.294.138.102.15.138.282.114.138-.03.342-.168.46-.168a.31.31 0 01.205.09s.322-.155.354-.126c.03.03.005.216.037.245.031.022.395-.194.492-.255z" fill="#ECD592"/><path opacity=".8" d="M23.25 11.31c-1.517-3.917-5.267-4.643-5.267-4.643H7.284l.041 3.99h2.131v8.911H7.284v3.983h10.403c2.507 0 4.517-2.52 4.517-2.52 3.218-4.567 1.046-9.72 1.046-9.72zm-5.507 7.037s-.816 1.177-1.704 1.177h-1.777l-.041-8.857H16.5s1.056.221 1.794 2.311c0 0 .978 2.993-.551 5.37z" fill="#fff"/></svg>