<svg width="32" height="32" fill="none" xmlns="http://www.w3.org/2000/svg"><path d="M16 32c8.837 0 16-7.163 16-16S24.837 0 16 0 0 7.163 0 16s7.163 16 16 16z" fill="#74D269"/><path d="M24.963 14.512h.02L25 19.478 13.823 26l-2.992-1.682v.002l-.019-.012L8 22.505V9.484l3.073-1.813.006.003L13.792 6l11.15 6.563.021 1.949zm-3.275 3.112l-2.339-1.339-7.807 4.594 2.292 1.363 7.854-4.618zm-2.866-1.64l-4.816-2.758-.021 5.681 4.837-2.923zm-4.814-3.366l7.742 4.531v-2.705l-7.732-4.515-.01 2.689zM10.82 23.57l.03-2.713-.018.011v-9.572l-2.347-1.4v12.28l2.335 1.394zm.416-3.001l2.345-1.418V9.896l-2.345 1.401v9.272zm2.881 2.031l-.047 2.836L24.506 19.3l.03-2.82-10.419 6.12zm7.793-8.584l2.429-1.386-10.455-6.105-2.406 1.392 10.432 6.099z" fill="#fff"/></svg>