<svg width="32" height="32" fill="none" xmlns="http://www.w3.org/2000/svg"><path d="M16 32c8.837 0 16-7.163 16-16S24.837 0 16 0 0 7.163 0 16s7.163 16 16 16z" fill="#121747"/><path d="M18.032 22.87c0 1.145-.92 2.074-2.056 2.074a2.064 2.064 0 01-2.055-2.075V9.08c0-1.145.92-2.074 2.055-2.074 1.135 0 2.056.929 2.056 2.075V22.87zm-6.92.005a2.072 2.072 0 01-1.015 1.82 2.032 2.032 0 01-2.068 0 2.072 2.072 0 01-1.014-1.82v-3.1a2.072 2.072 0 011.014-1.82 2.032 2.032 0 012.068 0 2.072 2.072 0 011.014 1.82l.001 3.1z" fill="#fff"/><path opacity=".5" d="M24.956 17.4c0 1.145-.92 2.074-2.056 2.074a2.066 2.066 0 01-2.056-2.075v-5.233c0-1.146.92-2.075 2.056-2.075 1.136 0 2.056.929 2.056 2.075V17.4z" fill="#fff"/></svg>