<svg width="32" height="32" fill="none" xmlns="http://www.w3.org/2000/svg"><path d="M16 32c8.837 0 16-7.163 16-16S24.837 0 16 0 0 7.163 0 16s7.163 16 16 16z" fill="#1693D4"/><path fill-rule="evenodd" clip-rule="evenodd" d="M9.928 16.574a8.07 8.07 0 01-.005-1.08h-2.8L4 12.996h6.494A8.048 8.048 0 0117.954 8C22.398 8 26 11.582 26 16s-3.602 8-8.046 8a8.05 8.05 0 01-7.432-4.928H4l3.123-2.498h2.805zm12.609-.425c0-.83-.112-1.554-.337-2.172-.225-.618-.537-1.136-.935-1.55a3.861 3.861 0 00-1.418-.938 4.929 4.929 0 00-1.783-.316c-.694 0-1.34.118-1.938.354a4.62 4.62 0 00-1.552.995c-.437.428-.78.944-1.031 1.55-.251.606-.376 1.28-.376 2.02 0 .752.125 1.425.376 2.018.25.593.597 1.094 1.04 1.502.444.409.968.724 1.572.948.637.229 1.31.342 1.986.335 1.735 0 3.06-.613 3.972-1.838l-1.543-1.224c-.257.37-.584.66-.983.87-.398.21-.887.316-1.465.316-.334 0-.656-.057-.964-.172a2.953 2.953 0 01-.83-.469 2.261 2.261 0 01-.848-1.617h7.038c.013-.102.019-.204.019-.306v-.306zm-2.314-1.034H15.48c.052-.65.318-1.183.8-1.598.483-.414 1.07-.622 1.765-.622.372 0 .697.06.973.182s.505.284.685.488c.18.204.311.44.395.708.084.273.127.557.125.842z" fill="#fff"/></svg>