<svg width="32" height="32" fill="none" xmlns="http://www.w3.org/2000/svg"><path d="M16 32c8.837 0 16-7.163 16-16S24.837 0 16 0 0 7.163 0 16s7.163 16 16 16z" fill="#AA15DD"/><path d="M15.999 25.612c.24.001.435.2.436.444A.44.44 0 0116 26.5a.44.44 0 01-.436-.444.44.44 0 01.436-.444h-.001zm-8.78-14.254a.45.45 0 01.026-.786.437.437 0 01.617.285.45.45 0 01-.157.469.432.432 0 01-.486.032zm0 9.294a.434.434 0 01.596.163.448.448 0 01-.16.606.431.431 0 01-.596-.163.448.448 0 01.16-.606zm17.56-9.294a.434.434 0 01-.596-.163.451.451 0 01.236-.646.434.434 0 01.474.13.448.448 0 01-.114.679zM16 6.388a.44.44 0 01-.429-.444c0-.18.108-.343.271-.411a.431.431 0 01.477.1.45.45 0 01-.073.683.436.436 0 01-.246.072zm7.8 14.194a.905.905 0 00.222 1.152l-7.151 4.2a.883.883 0 00-.87-.769.883.883 0 00-.87.769l-7.153-4.2a.904.904 0 00.22-1.151.87.87 0 00-1.089-.383v-8.4a.87.87 0 001.088-.382.904.904 0 00-.217-1.15l7.151-4.2a.883.883 0 00.87.769.883.883 0 00.87-.77l7.153 4.2a.904.904 0 00-.22 1.15.87.87 0 001.089.383v8.395a.872.872 0 00-1.092.387H23.8zm-6.112-1.287a3.627 3.627 0 01-4.773-.994l4.718-2.764 1.608-.944.762-.45.044-.021 3.24-1.906a.431.431 0 00-.096-.782.406.406 0 00-.32.046l-2.382 1.405a5.623 5.623 0 00-4.028-2.46V7.696a.435.435 0 00-.599-.406.436.436 0 00-.266.406V10.4a5.493 5.493 0 00-2.52.754 5.664 5.664 0 00-1.754 1.607L9.138 11.48a.415.415 0 00-.571.156.43.43 0 00.153.58l2.167 1.274a5.763 5.763 0 00-.59 3.002l.201 1.144c.09.31.203.612.341.903L8.72 19.784a.43.43 0 00.102.78.415.415 0 00.319-.042l2.127-1.246a5.656 5.656 0 004.325 2.45v2.578c0 .243.194.44.433.44a.435.435 0 00.432-.44v-2.6c.778-.08 1.53-.33 2.201-.73a5.54 5.54 0 001.865-1.822l2.337 1.368c.2.114.452.043.567-.159a.43.43 0 00-.148-.58l-2.352-1.38c.006-.013.02-.028.02-.044.714-1.644-1.197-2.35-1.622-1.084a3.706 3.706 0 01-1.639 2.022h.001zm7.092 1.357a.45.45 0 01.049.737.434.434 0 01-.689-.238.448.448 0 01.308-.543.43.43 0 01.332.044zm-12.496-4.065c-.043-1.667.155-2.83 1.734-3.758a3.62 3.62 0 014.126.316l-5.86 3.442z" fill="#fff"/></svg>