<svg width="32" height="32" fill="none" xmlns="http://www.w3.org/2000/svg"><path d="M16 32c8.837 0 16-7.163 16-16S24.837 0 16 0 0 7.163 0 16s7.163 16 16 16z" fill="#242424"/><path d="M13.06 23.874l2.683-2.697 2.694 2.697-1.719 1.722a1.378 1.378 0 01-1.95 0l-1.708-1.722zm6.95-9.242l-2.692-2.697 2.693-2.697 2.692 2.697-2.693 2.697zm-.669 8.363l-2.693-2.697 7.23-7.242 1.718 1.721c.539.54.539 1.413 0 1.953l-6.255 6.265zm-7.403-.278L9.246 20.02l7.218-7.23 2.692 2.697-7.218 7.23zm-3.822-3.8l-1.719-1.722a1.382 1.382 0 01.013-1.952l1.718-1.722 2.693 2.698-2.705 2.698zM18.883 8.129l-7.23 7.238L8.96 12.67l6.255-6.266a1.377 1.377 0 011.95 0l1.718 1.725z" fill="#fff"/></svg>