<svg width="32" height="32" fill="none" xmlns="http://www.w3.org/2000/svg"><path d="M16 32c8.837 0 16-7.163 16-16S24.837 0 16 0 0 7.163 0 16s7.163 16 16 16z" fill="#3FBADF"/><path d="M11 22.119l5-2.82v5.635l-5-2.815zm0-9l5-2.82v5.635l-5-2.815z" fill="#fff" fill-opacity=".4"/><path d="M26 19.23l-5 2.886V16.43l5 2.8zm0-9l-5 2.886V7.43l5 2.8z" fill="#fff" fill-opacity=".7"/><path d="M11 22.116v-5.683l5 2.87-5 2.813zm0-9V7.433l5 2.87-5 2.813z" fill="#fff" fill-opacity=".8"/><path d="M21 22.116l-5-2.812 5-2.874v5.686zm0-9l-5-2.812 5-2.874v5.686z" fill="#fff"/><path d="M21 22.116l-5 2.818v-5.63l5 2.812zm0-9l-5 2.818v-5.63l5 2.812z" fill="#fff" fill-opacity=".6"/><path d="M11 16.433v5.683l-5-2.885 5-2.798zm0-9v5.683l-5-2.885 5-2.798z" fill="#fff" fill-opacity=".5"/></svg>