<svg width="32" height="32" fill="none" xmlns="http://www.w3.org/2000/svg"><path d="M16 32c8.837 0 16-7.163 16-16S24.837 0 16 0 0 7.163 0 16s7.163 16 16 16z" fill="#00ADED"/><path d="M10.097 23.603l.002-.004 3.188-7.616-3.19-7.615 5.885 7.615-5.881 7.615-.004.005zm11.776 0l-.004-.005-5.881-7.615 5.885-7.615-3.19 7.615 3.188 7.616.002.004z" fill="#fff"/><path d="M15.985 15.984v5.306l-5.89 2.31 5.89-7.62v-5.306l5.89-2.31-5.89 7.62z" fill="#fff" fill-opacity=".8"/><path d="M15.985 21.29v4.651l-5.89-2.344 5.89-2.315v-5.298l-5.89-7.62 5.89 2.31V6.023l5.89 2.343-5.89 2.315v5.299l5.89 7.62-5.89-2.31z" fill="#fff" fill-opacity=".5"/><path d="M10.095 8.366l5.89-2.343v4.658l-5.89-2.315zm11.78 15.231l-5.89 2.344v-4.659l5.89 2.315z" fill="#fff" fill-opacity=".145"/></svg>