<svg width="32" height="32" fill="none" xmlns="http://www.w3.org/2000/svg"><path d="M16 32c8.837 0 16-7.163 16-16S24.837 0 16 0 0 7.163 0 16s7.163 16 16 16z" fill="#396A28"/><path fill-rule="evenodd" clip-rule="evenodd" d="M18.073 13.212L16 11.14l-2.087 2.086-2.164-2.164L16 5l4.28 6.005-2.207 2.207zm-4.883.738L11.14 16l2.072 2.073-2.156 2.156L5 16l5.99-4.25 2.2 2.2zm5.584 4.137L20.86 16l-2.064-2.064 2.226-2.226L27 16l-6.044 4.269-2.182-2.182zm-4.838.71L16 20.86l2.05-2.05 2.182 2.183L16 27l-4.204-6.064 2.14-2.139zM16 12.527L19.472 16 16 19.472 12.528 16 16 12.527z" fill="#fff"/></svg>