<svg width="32" height="32" fill="none" xmlns="http://www.w3.org/2000/svg"><path d="M16 32c8.837 0 16-7.163 16-16S24.837 0 16 0 0 7.163 0 16s7.163 16 16 16z" fill="#F6C054"/><path d="M26.822 15.568l-10.39-10.39a.607.607 0 00-.86 0L5.18 15.569a.607.607 0 000 .86l10.39 10.393a.609.609 0 00.859 0l10.39-10.389a.606.606 0 00.004-.864l-.001-.001zm-2.284.52l-7.616 7.616V16h-1.848v7.704l-7.616-7.616a.12.12 0 01-.027-.133.12.12 0 01.027-.039l8.454-8.453a.12.12 0 01.133-.027.12.12 0 01.039.027l8.454 8.453a.12.12 0 01.027.133.122.122 0 01-.027.039c0-.004 0-.004 0 0z" fill="#fff"/></svg>