<svg width="32" height="32" fill="none" xmlns="http://www.w3.org/2000/svg"><path d="M16 32c8.837 0 16-7.163 16-16S24.837 0 16 0 0 7.163 0 16s7.163 16 16 16z" fill="#00FFBA"/><path d="M10.871 10.904a1.707 1.707 0 00-.194 2.148 1.692 1.692 0 001.42.756 2.189 2.189 0 11-.001 4.377A6.085 6.085 0 017.819 7.767 6.084 6.084 0 0116 7.425a6.086 6.086 0 00-2.182 4.673 2.188 2.188 0 002.175 2.189 2.186 2.186 0 01-2.188-2.189 1.69 1.69 0 00-.29-.955 1.727 1.727 0 00-.754-.622 1.723 1.723 0 00-1.33 0c-.21.09-.4.22-.56.383zm14.64 6.628a6.094 6.094 0 01-4.355 8.33 6.084 6.084 0 01-7.337-5.96 2.19 2.19 0 013.751-1.577 2.188 2.188 0 01.624 1.577 1.7 1.7 0 001.045 1.577c.43.18.913.178 1.341-.005a1.72 1.72 0 00.905-.918 1.717 1.717 0 00-.916-2.23 1.694 1.694 0 00-.665-.134 2.189 2.189 0 010-4.377 6.081 6.081 0 015.606 3.717h.001z" fill="#fff"/><path opacity=".7" d="M15.994 17.714c1.208 0 2.188.98 2.188 2.188a6.084 6.084 0 01-10.467 4.226 6.087 6.087 0 014.381-10.313 2.189 2.189 0 010 4.377c-.34-.001-.672.1-.954.29a1.71 1.71 0 00-.276 2.607v.002a1.706 1.706 0 002.184.23 1.7 1.7 0 00.755-1.42c0-1.207.98-2.187 2.189-2.187zm9.326-8.396a6.09 6.09 0 01-5.417 8.868 2.19 2.19 0 110-4.378 1.71 1.71 0 10-.954-3.129 1.697 1.697 0 00-.756 1.42 2.187 2.187 0 11-4.375-.001 6.085 6.085 0 019.717-4.886l.004.003a6.103 6.103 0 011.78 2.103h.001z" fill="#fff"/></svg>