<svg width="32" height="32" fill="none" xmlns="http://www.w3.org/2000/svg"><path d="M16 32c8.837 0 16-7.163 16-16S24.837 0 16 0 0 7.163 0 16s7.163 16 16 16z" fill="#00A5FF"/><path fill-rule="evenodd" clip-rule="evenodd" d="M18.08 12.574c-.003.893-.009 1.785-.01 2.677-.001 1.484-.003 2.969.004 4.453 0 .18-.05.287-.207.382-.61.367-1.21.75-1.854 1.153v-.325c0-2.297-.003-4.595.004-6.892.001-.191-.05-.299-.222-.392-.535-.29-1.058-.602-1.586-.904-.058-.033-.12-.06-.209-.104v.315c0 2.059-.004 4.118.006 6.176 0 .207-.066.315-.24.412-.525.29-1.038.6-1.557.902-.073.042-.15.079-.266.14v-.32c0-2.068-.005-4.136.007-6.203.001-.24-.08-.36-.28-.47-.584-.326-1.157-.672-1.764-1.027.672-.387 1.318-.763 1.971-1.124.06-.033.185.01.26.053.569.32 1.136.643 1.697.976.136.08.235.09.377.003.518-.317 1.054-.608 1.57-.93.186-.116.32-.097.497.009.597.357 1.204.7 1.808 1.047l-.006-.007zm.006.007c.044-.046.082-.105.135-.136.563-.328 1.126-.658 1.699-.968a.43.43 0 01.351.003c.582.313 1.156.641 1.723.979.078.046.156.168.156.255.009 2.163.008 4.327.004 6.49 0 .07-.018.18-.065.208-.648.386-1.303.761-1.998 1.163v-.329c0-2.084-.002-4.168.004-6.251 0-.177-.042-.284-.208-.375-.608-.338-1.206-.696-1.807-1.046l.006.007zM6.939 18.788a1.423 1.423 0 11-.019-2.846 1.416 1.416 0 011.438 1.414 1.416 1.416 0 01-1.419 1.432zm1.915 4.287a1.35 1.35 0 01-1.36-1.33 1.361 1.361 0 011.332-1.364c.725-.016 1.352.6 1.36 1.337a1.347 1.347 0 01-1.332 1.357zM7.767 11.399c.72.002 1.298.58 1.298 1.295a1.303 1.303 0 01-2.232.915 1.284 1.284 0 01-.363-.923 1.275 1.275 0 011.297-1.287zm17.522 4.906a1.215 1.215 0 110-2.43 1.215 1.215 0 010 2.43zM9.542 8.617a1.09 1.09 0 011.105-1.106 1.101 1.101 0 011.102 1.115 1.103 1.103 0 01-1.11 1.106 1.092 1.092 0 01-1.097-1.115zM24.636 20.91a1.087 1.087 0 01-1.11-1.099 1.108 1.108 0 011.095-1.123 1.107 1.107 0 011.111 1.107 1.087 1.087 0 01-1.096 1.115zm-8.65-14.055a.818.818 0 01-.852.815.823.823 0 01-.807-.862.834.834 0 011.161-.74.826.826 0 01.498.787zm5.771 17.502a.815.815 0 01-.818-.826.822.822 0 01.849-.827c.46.006.82.37.818.83 0 .472-.368.827-.849.823zM17.477 26a.767.767 0 01-.783-.788.78.78 0 01.795-.785.8.8 0 01.791.796.777.777 0 01-.803.777zm2.628-17.723a.71.71 0 11.008-1.42c.384.002.71.331.709.714a.725.725 0 01-.717.706zm-6.538 16.282a.611.611 0 01-.63.61.607.607 0 01-.605-.633.619.619 0 011.064-.42.62.62 0 01.171.443zM24.23 10.58a.534.534 0 01-.518.554.54.54 0 01-.233-1.03.528.528 0 01.205-.045c.299-.01.54.221.546.522v-.001z" fill="#fff"/></svg>