<svg width="32" height="32" fill="none" xmlns="http://www.w3.org/2000/svg"><path d="M16 32c8.837 0 16-7.163 16-16S24.837 0 16 0 0 7.163 0 16s7.163 16 16 16z" fill="#42C1CA"/><path d="M15.932 12.908c.372-1.563.82-2.968 1.296-3.885.175-.438.885-1.487 1.664-2.18 1.297-1.155 2.752-1.448 4.267-.497l-.133.211.133-.211c.773.485 1.083.984.947 1.454-.1.35-.483.63-.688.601-.3.03-.602-.03-.89-.242a1.685 1.685 0 01-.541-.721c-.212-.5-.49-.67-.831-.63-.247.028-.534.186-.625.292l-.235.26a3.89 3.89 0 00-.484.635c-.476.793-.915 2.246-1.524 5.257l4.036.591-.222 1.617-4.096-.6-.175 1.064-.045.266c-.024.138-.05.288-.08.448l4.136.606-.237 1.615-4.233-.62c-.489 2.078-1.133 4.305-1.588 5.184-.176.439-.885 1.486-1.664 2.18-1.297 1.154-2.752 1.448-4.267.497-.773-.485-1.083-.985-.947-1.455.1-.35.483-.629.688-.6.3-.03.602.03.89.241.222.164.406.402.541.722.212.499.49.67.831.63.247-.029.534-.187.625-.293.907-1.01 1.626-2.956 2.535-7.45l-4.036-.592.222-1.617 4.096.6.176-1.063c.039-.239.08-.477.125-.715l-4.12-.603.236-1.615 4.217.618z" fill="#fff"/></svg>