<svg width="32" height="32" fill="none" xmlns="http://www.w3.org/2000/svg"><path d="M16 32c8.837 0 16-7.163 16-16S24.837 0 16 0 0 7.163 0 16s7.163 16 16 16z" fill="#2B61D1"/><path d="M17.963 25.862L16 27l-4.218-2.442 1.915-1.109.048-.028.073.042 4.145 2.399zM25.5 10.5v2.289l-4.152-2.403-1.126-.652-1.126.652-5.278 3.055-1.126.652v1.348l-2.03-1.176-1.127-.652-1.126.652L6.5 15.371V10.5L16 5l9.5 5.5z" fill="#fff"/><path d="M25.5 15.397v6.111l-5.278 3.056-.007-.004-5.27-3.052v-6.11l5.277-3.058 5.278 3.057zm-12.929 2.582v3.514L9.536 23.25 6.5 21.493v-3.514l3.036-1.758 3.035 1.758z" fill="#fff"/></svg>