<svg width="32" height="32" fill="none" xmlns="http://www.w3.org/2000/svg"><path d="M16 32c8.837 0 16-7.163 16-16S24.837 0 16 0 0 7.163 0 16s7.163 16 16 16z" fill="#2D475B"/><path d="M12.869 12.685h11.085v2.488H12.869v-2.488zm11.085 4.144H24v6.543s-8.647 6.265-15.363-.552c0 0-3.68-3.732-2.346-9.168 0 0 1.058-6.771 9.108-7.6 0 0 4.967-.692 8.187 2.994l-1.932 1.888s-4.094-4.238-9.567-.92c0 0-4.462 2.487-2.622 8.752 0 0 2.024 5.436 8.371 4.33 0 0 2.162-.492 3.266-1.444v-2.335H12.87v-2.488h11.084z" fill="#fff"/></svg>