<svg width="32" height="32" fill="none" xmlns="http://www.w3.org/2000/svg"><path d="M16 32c8.837 0 16-7.163 16-16S24.837 0 16 0 0 7.163 0 16s7.163 16 16 16z" fill="#1666AF"/><path d="M15.699 11.006v2.06h-4.7c-.61 0-1.361.214-1.92.61-.693.492-1.08 1.229-1.08 2.327 0 1.098.387 1.835 1.08 2.327.559.396 1.31.61 1.92.61h2V21h-2a5.449 5.449 0 01-3.054-.973C6.717 19.155 6 17.789 6 16.003s.717-3.152 1.945-4.024a5.447 5.447 0 013.053-.973h4.701zm-5 6.182v-2.06h5V21H13.7v-3.812h-3.001zM19 13.06V11h7v10h-9.002v-7.933h2v5.872H24v-5.878l-5-.001z" fill="#fff"/></svg>