<svg width="32" height="32" fill="none" xmlns="http://www.w3.org/2000/svg"><path d="M16 32c8.837 0 16-7.163 16-16S24.837 0 16 0 0 7.163 0 16s7.163 16 16 16z" fill="#EFB914"/><path fill-rule="evenodd" clip-rule="evenodd" d="M21.002 9.855A7.947 7.947 0 0124 15.278l-2.847-.708a5.357 5.357 0 00-3.86-3.667c-2.866-.713-5.76.991-6.465 3.806-.705 2.815 1.05 5.675 3.917 6.388a5.372 5.372 0 005.134-1.43l2.847.707a7.973 7.973 0 01-5.2 3.385L16.716 27l-2.596-.645.644-2.575a8.279 8.279 0 01-1.298-.323l-.643 2.575-2.596-.646.81-3.241c-2.378-1.875-3.575-4.996-2.804-8.081.771-3.085 3.297-5.281 6.28-5.823L15.323 5l2.596.645-.644 2.575c.44.072.875.18 1.298.323l.643-2.575 2.596.646-.81 3.241z" fill="#fff"/></svg>