<svg width="32" height="32" fill="none" xmlns="http://www.w3.org/2000/svg"><path d="M16 32c8.837 0 16-7.163 16-16S24.837 0 16 0 0 7.163 0 16s7.163 16 16 16z" fill="#001D57"/><path d="M20.499 5.288l1.203 1.204-2.277 2.34c.48.73.738 1.591.738 2.479a4.448 4.448 0 01-1.258 3.131 4.183 4.183 0 01-2.217 1.226v2.039c.844.174 1.615.6 2.213 1.22a4.451 4.451 0 011.262 3.136 4.451 4.451 0 01-1.262 3.135 4.262 4.262 0 01-3.07 1.302 4.24 4.24 0 01-3.07-1.302 4.474 4.474 0 01-1.261-3.135c0-1.18.448-2.299 1.258-3.132a4.183 4.183 0 012.217-1.225v-2.04a4.274 4.274 0 01-2.213-1.22A4.474 4.474 0 0111.5 11.31c0-1.18.448-2.299 1.262-3.135a4.262 4.262 0 013.07-1.303c.86 0 1.687.262 2.395.749L20.5 5.288h-.001zm-4.667 14.057a2.53 2.53 0 00-1.857.79 2.75 2.75 0 00-.775 1.928c0 .725.275 1.402.775 1.927a2.58 2.58 0 001.857.79 2.53 2.53 0 001.856-.79c.5-.516.778-1.208.775-1.927 0-.725-.275-1.402-.778-1.931a2.527 2.527 0 00-1.853-.787zm1.853-6.09c.502-.517.781-1.21.778-1.931a2.7 2.7 0 00-.775-1.928 2.578 2.578 0 00-1.856-.79 2.53 2.53 0 00-1.857.79 2.75 2.75 0 00-.775 1.928c0 .725.275 1.402.775 1.927a2.58 2.58 0 001.857.79c.711 0 1.367-.276 1.853-.786z" fill="#fff"/></svg>