<svg width="32" height="32" fill="none" xmlns="http://www.w3.org/2000/svg"><g clip-path="url(#clip0_6_2860)"><path d="M16 32c8.837 0 16-7.163 16-16S24.837 0 16 0 0 7.163 0 16s7.163 16 16 16z" fill="#377E96"/><path fill-rule="evenodd" clip-rule="evenodd" d="M23.625 30.07l.084-.062c-.232-.425-.608-.648-1.031-.749-.604-.144-1.218-.277-1.834-.32-1.369-.099-2.742-.122-4.112-.205-1.526-.093-3.05-.222-4.577-.322-.133-.01-.324.04-.4.135-.4.49-.787.994-1.147 1.514-.176.255-.285.555-.422.83l.105.06c-.602-.23-1.19-.496-1.759-.797.104.02.24.004.291-.047.626-.627 1.232-1.274 1.841-1.914-.455-.364-.9-.687-1.305-1.053-.378-.342-.536-.795-.503-1.314.05-.797.399-1.476.912-2.046.607-.673 1.288-1.28 1.938-1.914.08-.077.163-.148.237-.216-.025-.044-.028-.057-.035-.062l-.19-.11c-2.088-1.204-3.129-3.033-3.156-5.42-.024-2.044.846-3.699 2.385-5.006 1.5-1.273 3.267-1.72 5.206-1.676 1.435.033 2.776.35 4.025 1.063.07.04.246-.007.31-.074.591-.619 1.19-1.232 1.744-1.885.688-.81 1.27-1.69 1.511-2.752.188-.828.108-1.606-.492-2.252-.881-.949-2.397-.821-3.17.26-.152.212-.24.47-.389.687-.055.08-.195.103-.297.153-.024-.09-.08-.183-.067-.266.034-.228.078-.46.153-.676.38-1.09 1.086-1.834 2.27-2 .385-.054.785-.009 1.187-.009-.02-.027-.028-.05-.044-.057a3.917 3.917 0 00-.227-.113 16.535 16.535 0 00-2.332-.86 15.917 15.917 0 014.24 1.894c.008.087.003.11.013.122.883 1.089.77 2.244.214 3.42-.472.995-1.16 1.837-1.903 2.639-.68.734-1.364 1.465-2.049 2.2.028.018.044.038.06.038 1.047.001 2.094.016 3.14-.006.546-.01 1.031-.191 1.368-.674.064-.093.238-.11.362-.162l.07.097c-.29.836-.576 1.673-.882 2.502-.026.07-.18.127-.278.131-.37.016-.74.007-1.11.007h-1.33l.151.3c.72 1.41.911 2.905.547 4.43-.537 2.25-2.009 3.704-4.15 4.46-1.748.618-3.542.596-5.337.167-.159-.038-.405-.07-.49.015-.386.386-.794.775-1.072 1.237-.573.952-.24 1.614.852 1.844l.031.004c1.072.083 2.143.185 3.216.244 1.518.083 3.038.116 4.555.207.919.055 1.826.217 2.654.656 1.066.563 1.821 1.393 2.152 2.606.078-.055.156-.11.234-.167-.623.467-1.28.89-1.97 1.264h.002zm-4.85 1.69c-.97.17-1.955.25-2.94.24.985-.01 1.967-.09 2.94-.24zM32 16.05V16c0-1.38-.175-2.719-.503-3.996A17.29 17.29 0 0132 16.051v-.001zM28.28 5.745c-.927-1.11-2-2.089-3.189-2.912 1.217.88 2.283 1.85 3.19 2.912h-.001zM8.306 30.03c-.79-.434-1.54-.933-2.246-1.493.713.541 1.491 1.005 2.246 1.493zM0 16.031c.002-.852.068-1.703.197-2.546A16.12 16.12 0 000 16.03v.001zm2.916-9.243a17.604 17.604 0 012.11-2.431 16.086 16.086 0 00-2.11 2.43v.001zM11.133.754A16.994 16.994 0 0116 0a15.99 15.99 0 00-4.867.754zm8.433 15.902l-.06-.015c-.035-.484-.054-.97-.106-1.452-.118-1.116-.435-2.17-1.05-3.12-.91-1.408-2.43-1.976-3.888-1.412-1.197.462-1.832 1.412-2.118 2.623-.272 1.146-.25 2.307-.112 3.463.133 1.1.447 2.147 1.08 3.078.814 1.195 1.949 1.717 3.36 1.481 1.34-.222 2.182-1.089 2.525-2.378.197-.736.251-1.51.37-2.268h-.001z" fill="#fff"/></g><defs><clipPath id="clip0_6_2860"><path fill="#fff" d="M0 0h32v32H0z"/></clipPath></defs></svg>