<svg width="32" height="32" fill="none" xmlns="http://www.w3.org/2000/svg"><path d="M16 32c8.837 0 16-7.163 16-16S24.837 0 16 0 0 7.163 0 16s7.163 16 16 16z" fill="#37DCD8"/><path d="M15.99 12.679l-2.784-2.804A32.573 32.573 0 0116 6a32.468 32.468 0 012.79 3.859l-2.8 2.82zm5.718 2.81c.786 2.202 1.939 4.404.84 6.518a7.503 7.503 0 01-3.112 3.135c-3.619 1.92-8.099.51-10.005-3.135-1.11-2.114.183-4.49.97-6.691.721-1.623 1.45-3.119 2.278-4.557l3.31 3.334 3.329-3.352c.875 1.514 1.631 3.072 2.39 4.749v-.001z" fill="#fff"/></svg>