<svg width="32" height="32" fill="none" xmlns="http://www.w3.org/2000/svg"><path d="M16 32c8.837 0 16-7.163 16-16S24.837 0 16 0 0 7.163 0 16s7.163 16 16 16z" fill="#8834FF"/><path d="M7 21.23c.191 0 .392.01.583 0 .363-.027.727-.1 1.082-.19.7-.191 1.355-.52 1.928-.965.164-.127.327-.263.482-.409.327-.327.61-.7.837-1.1.2-.355.345-.737.455-1.128.009-.027.009-.064.018-.091h-1.428a4.102 4.102 0 01-.882-.1.248.248 0 00-.082-.018.131.131 0 01-.037-.028c.082-.181.155-.354.228-.536l.555-1.283a.602.602 0 01.081-.172.207.207 0 01.146-.055c.446-.009.882 0 1.328 0h.118c-.018-.073-.018-.127-.036-.19a4.682 4.682 0 00-.837-1.693 6.423 6.423 0 00-.628-.69 4.664 4.664 0 00-.936-.683 6.34 6.34 0 00-1.11-.491c-.32-.1-.65-.173-.982-.218-.264-.028-.519-.037-.782-.055-.064 0-.128-.009-.191-.018a.082.082 0 01-.055-.055c-.091-.209-.182-.409-.273-.618-.11-.246-.21-.491-.318-.728-.082-.2-.173-.39-.264-.6l.191-.055c.4-.054.81-.072 1.219-.054a8.738 8.738 0 011.928.282c.4.109.8.245 1.182.409.537.227 1.046.51 1.52.846.208.154.417.318.618.482.09.073.181.155.272.236.455.437.855.937 1.192 1.474.336.536.582 1.118.746 1.728.054.2.09.41.136.61a.08.08 0 00.073.054h1.846c.037-.146.064-.291.091-.437.11-.427.255-.837.437-1.228.145-.327.327-.645.536-.936.191-.264.391-.528.61-.773.16-.19.334-.37.518-.537a8.285 8.285 0 011.237-.928c.455-.282.928-.51 1.428-.691.346-.118.691-.227 1.037-.318.263-.064.518-.11.791-.146.218-.036.446-.054.673-.073.146-.009.282-.018.428-.018.218 0 .427-.009.636 0 .21.01.419.055.628.091.009 0 .009.01.027.027l-.155.364c-.163.382-.327.764-.5 1.155a5.843 5.843 0 00-.182.419c-.036.09-.127.054-.19.072-.055.01-.1.01-.155 0a6.307 6.307 0 00-2.683.628c-.392.191-.758.43-1.092.71-.136.118-.29.236-.418.372-.328.328-.61.7-.837 1.11a5.451 5.451 0 00-.436 1.064c-.01.027-.01.064-.019.091h.1c.473 0 .955-.01 1.428 0 .282 0 .564.045.837.136.01.01.018.01.027.019l-.263.6c-.182.427-.373.855-.555 1.291-.055.128-.091.155-.237.155h-1.328c.037.127.064.236.1.346.128.382.31.745.537 1.082.137.2.282.382.437.564.09.109.19.218.29.309.337.327.72.61 1.128.837.346.2.719.364 1.101.49.364.128.746.21 1.137.246l.718.055c.091.01.182.01.273.018.018.01.037.018.046.037.154.363.309.727.473 1.091l.39.891c-.127.028-.245.055-.372.064-.31.018-.628.036-.937.036-.282 0-.564-.027-.837-.063a16.26 16.26 0 01-1.128-.2 8.507 8.507 0 01-1.31-.437 7.936 7.936 0 01-1.436-.8 19.279 19.279 0 01-.691-.537 4.256 4.256 0 01-.419-.391 7.378 7.378 0 01-1.4-2 6.055 6.055 0 01-.455-1.374c-.018-.046-.027-.1-.037-.146 0-.09-.045-.109-.127-.109h-1.837a6.715 6.715 0 01-.437 1.437 5.722 5.722 0 01-.609 1.11c-.19.268-.394.526-.61.773a4.65 4.65 0 01-.509.527c-.282.246-.582.473-.882.7-.36.256-.744.479-1.146.665a8.12 8.12 0 01-2.365.709c-.282.045-.564.073-.845.1-.16.01-.321.01-.482 0-.237 0-.473-.01-.7-.018-.083-.01-.165-.018-.246-.037-.046-.009-.064-.027-.037-.081.182-.419.373-.837.555-1.256.11-.254.21-.49.327-.754v-.001z" fill="#fff"/></svg>