<svg width="32" height="32" fill="none" xmlns="http://www.w3.org/2000/svg"><path d="M16 32c8.837 0 16-7.163 16-16S24.837 0 16 0 0 7.163 0 16s7.163 16 16 16z" fill="#CFA967"/><path d="M16.02 16.945v7.993l5.947-1.602 1.397-15.39H16.02v6.532l.304-.947h.796l-1.1 3.414zm-7.384 7.524L7 6.5h18l-1.636 17.969L15.98 26.5l-7.344-2.031zm5.163-6.793v-.741l-2.469-.984 2.47-.99v-.742l-3.527 1.433v.592l3.526 1.432zm7.933-1.432l-3.527 1.432v-.741l2.47-.987-2.47-.987v-.742l3.527 1.433v.592zm-5.712.7v-2.466l-1.317 4.107h.788l.529-1.641z" fill="#fff"/></svg>