<svg width="32" height="32" fill="none" xmlns="http://www.w3.org/2000/svg"><path d="M16 32c8.837 0 16-7.163 16-16S24.837 0 16 0 0 7.163 0 16s7.163 16 16 16z" fill="#005FFA"/><path fill-rule="evenodd" clip-rule="evenodd" d="M20.694 14.598a3.405 3.405 0 00-1.41-.305h-4.917a1.71 1.71 0 01-1.71-1.71v-5.89H9.239v7.6a3.42 3.42 0 003.42 3.42h4.916a1.71 1.71 0 011.71 1.71v5.89h3.419v-7.6a3.419 3.419 0 00-2.01-3.115zM9.356 19.803v5.744h3.42v-2.325a3.42 3.42 0 00-3.42-3.419zM19.88 6.929h-.714v2.325a3.42 3.42 0 003.42 3.42V6.928H19.88v.001z" fill="#fff"/></svg>