<svg width="32" height="32" fill="none" xmlns="http://www.w3.org/2000/svg"><path d="M16 32c8.837 0 16-7.163 16-16S24.837 0 16 0 0 7.163 0 16s7.163 16 16 16z" fill="#B2A3F6"/><path d="M13.446 12.287c-.76 0-1.375-.601-1.375-1.342 0-.741.615-1.343 1.375-1.343.759 0 1.375.601 1.375 1.343s-.616 1.342-1.375 1.342zm3.927-1.534c-.759 0-1.375-.601-1.375-1.342 0-.742.616-1.343 1.375-1.343.76 0 1.375.601 1.375 1.343 0 .741-.615 1.342-1.375 1.342zm1.573 9.205c-.76 0-1.375-.6-1.375-1.342 0-.742.615-1.343 1.375-1.343.759 0 1.375.601 1.375 1.343s-.616 1.342-1.375 1.342zM5.786 18.04A.777.777 0 015 17.273c0-.423.352-.767.785-.767.433 0 .786.344.786.767a.776.776 0 01-.786.767h.001zm2.16 4.988a.582.582 0 01-.59-.576c0-.318.264-.575.59-.575.326 0 .59.257.59.575a.583.583 0 01-.59.576zm6.285 3.835a.583.583 0 01-.59-.576c0-.318.264-.575.59-.575.326 0 .59.257.59.575a.583.583 0 01-.59.576zm10.215-3.452a.583.583 0 01-.59-.576c0-.318.264-.576.59-.576.325 0 .59.258.59.576a.584.584 0 01-.59.576zm-6.286-1.15a.583.583 0 01-.59-.576c0-.318.265-.575.59-.575.325 0 .59.257.59.575a.582.582 0 01-.59.576zm3.536-2.685a.583.583 0 01-.59-.576c0-.318.264-.575.59-.575.325 0 .59.257.59.575a.584.584 0 01-.59.576zm-4.125 7.287a.777.777 0 01-.786-.767c0-.423.352-.767.786-.767.433 0 .785.343.785.767a.776.776 0 01-.785.767zm3.535-9.59a.776.776 0 01-.785-.767c0-.423.351-.767.785-.767.434 0 .785.344.785.767a.776.776 0 01-.785.767zm1.18 7.672a.778.778 0 01-.786-.767c0-.424.352-.767.785-.767.434 0 .786.343.786.767a.777.777 0 01-.786.767h.001zM6.765 21.11a.971.971 0 01-.982-.959.97.97 0 01.982-.958c.542 0 .982.43.982.958s-.44.959-.982.959zm9.43 3.835c-.76 0-1.375-.601-1.375-1.343s.615-1.343 1.375-1.343c.759 0 1.375.602 1.375 1.343s-.616 1.343-1.375 1.343zm-7.465-6.52c-.76 0-1.375-.602-1.375-1.343s.615-1.343 1.375-1.343 1.375.601 1.375 1.343-.616 1.343-1.375 1.343zm7.465 3.067a.97.97 0 01-.983-.958.97.97 0 01.983-.958.97.97 0 01.982.958.97.97 0 01-.982.958zm-4.715-8.436a.583.583 0 01-.59-.576c0-.318.264-.576.59-.576.326 0 .59.258.59.576a.583.583 0 01-.59.576zm3.732 2.3c-.65 0-1.178-.515-1.178-1.15 0-.636.528-1.152 1.178-1.152.65 0 1.178.516 1.178 1.151 0 .636-.527 1.152-1.178 1.152v-.001zm2.75 1.15a.776.776 0 01-.785-.767c0-.423.351-.767.785-.767.434 0 .785.344.785.767a.776.776 0 01-.785.767zm1.375-9.588a.582.582 0 01-.59-.575c0-.318.264-.576.59-.576.326 0 .59.258.59.576a.582.582 0 01-.59.575zm-2.75-.001a.97.97 0 01-.982-.959.97.97 0 01.982-.958.97.97 0 01.983.958.97.97 0 01-.983.959zm.59 6.137a.776.776 0 01-.785-.767c0-.424.351-.767.785-.767.434 0 .785.344.785.767a.776.776 0 01-.785.767zm-7.465 8.44c-.65 0-1.178-.515-1.178-1.151s.528-1.151 1.178-1.151c.65 0 1.178.515 1.178 1.15 0 .637-.527 1.152-1.178 1.152zm11.393 1.15c-.65 0-1.178-.516-1.178-1.152 0-.635.527-1.15 1.178-1.15.651 0 1.178.515 1.178 1.15 0 .636-.528 1.152-1.178 1.152zm-1.57 2.685c-.651 0-1.179-.516-1.179-1.151 0-.636.528-1.152 1.178-1.152.65 0 1.178.516 1.178 1.152 0 .635-.527 1.15-1.178 1.15l.001.001zm-9.233 0c-.76 0-1.375-.601-1.375-1.343s.616-1.342 1.375-1.342 1.375.6 1.375 1.342c0 .742-.616 1.343-1.375 1.343zm-4.125-9.972c-.65 0-1.178-.516-1.178-1.152 0-.635.527-1.15 1.178-1.15.651 0 1.178.515 1.178 1.15 0 .636-.528 1.152-1.178 1.152z" fill="#fff"/><path opacity=".5" d="M12.07 17.273c-.868 0-1.572-.686-1.572-1.534 0-.847.704-1.534 1.573-1.534s1.572.687 1.572 1.534c0 .848-.704 1.534-1.572 1.534h-.001zm8.25-2.3c-.868 0-1.572-.687-1.572-1.535 0-.847.704-1.534 1.573-1.534.868 0 1.572.687 1.572 1.534 0 .848-.704 1.534-1.572 1.534l-.001.001zm4.321 6.521c-.65 0-1.178-.515-1.178-1.151s.528-1.151 1.178-1.151c.65 0 1.178.515 1.178 1.15 0 .637-.527 1.152-1.178 1.152zm1.18-4.603a1.165 1.165 0 01-1.178-1.152c0-.635.527-1.15 1.178-1.15.65 0 1.177.515 1.177 1.15 0 .636-.527 1.152-1.177 1.152zm-4.518-5.37a.97.97 0 01-.982-.96.97.97 0 01.982-.958.97.97 0 01.982.959.97.97 0 01-.982.958v.001zm.195-3.069a.776.776 0 01-.785-.767c0-.424.352-.767.785-.767.434 0 .786.344.786.767a.777.777 0 01-.786.767zm1.768.767a.583.583 0 01-.59-.575c0-.317.264-.576.59-.576.326 0 .59.258.59.576a.582.582 0 01-.59.575zm3.144 4.604a.584.584 0 01-.59-.576c0-.318.265-.576.59-.576.325 0 .59.258.59.576a.583.583 0 01-.59.576zM9.516 8.836a.582.582 0 01-.59-.575c0-.318.264-.576.59-.576.326 0 .59.258.59.576a.582.582 0 01-.59.575zm-.785 4.987a.583.583 0 01-.59-.576c0-.318.264-.576.59-.576.326 0 .59.258.59.576a.583.583 0 01-.59.576zm1.572.767a.583.583 0 01-.59-.576c0-.318.264-.576.59-.576.326 0 .59.258.59.576a.583.583 0 01-.59.576zm1.963-7.29a.583.583 0 01-.59-.576c0-.318.264-.575.59-.575.326 0 .59.257.59.575a.583.583 0 01-.59.576zM26.41 18.809a.584.584 0 01-.59-.576c0-.318.265-.575.59-.575.325 0 .59.257.59.575a.583.583 0 01-.59.576zm-1.964-6.138c-.76 0-1.375-.6-1.375-1.342 0-.742.615-1.343 1.375-1.343.759 0 1.375.601 1.375 1.343 0 .741-.616 1.342-1.375 1.342zm-1.18 3.068a.971.971 0 01-.982-.958c0-.53.44-.958.982-.958a.97.97 0 01.982.958.97.97 0 01-.982.958zM9.91 11.52a.971.971 0 01-.982-.958c0-.53.44-.959.982-.959s.983.43.983.959a.97.97 0 01-.983.958zm4.32-2.685a.97.97 0 01-.982-.958c0-.53.44-.959.983-.959a.97.97 0 01.982.959.97.97 0 01-.982.958h-.001zm-2.552.384a.776.776 0 01-.785-.767c0-.424.351-.767.785-.767.434 0 .785.344.785.767a.776.776 0 01-.785.767zm-4.322 3.068a.776.776 0 01-.785-.767c0-.423.351-.767.785-.767.434 0 .785.344.785.767a.776.776 0 01-.785.767zm16.5 6.138a.776.776 0 01-.785-.767c0-.424.351-.767.785-.767.434 0 .785.343.785.767a.776.776 0 01-.785.767zm-8.446.384c-.76 0-1.375-.601-1.375-1.343s.616-1.342 1.375-1.342c.76 0 1.375.6 1.375 1.342 0 .742-.615 1.343-1.375 1.343zm-2.554.767a.776.776 0 01-.785-.767c0-.424.351-.767.785-.767.434 0 .785.343.785.767a.776.776 0 01-.785.767zm.392 3.068c-.65 0-1.177-.516-1.177-1.152 0-.635.527-1.15 1.177-1.15s1.178.515 1.178 1.15c0 .636-.527 1.152-1.178 1.152zm0 2.3a.776.776 0 01-.785-.766c0-.424.352-.767.785-.767.433 0 .786.343.786.767a.776.776 0 01-.786.767v-.001z" fill="#fff"/></svg>