<svg width="32" height="32" fill="none" xmlns="http://www.w3.org/2000/svg"><path d="M16 32c8.837 0 16-7.163 16-16S24.837 0 16 0 0 7.163 0 16s7.163 16 16 16z" fill="#57BEEA"/><path d="M7.026 19.009A2.712 2.712 0 014 16.309a2.712 2.712 0 012.682-2.718c.96-4.41 4.87-7.711 9.546-7.711.873 0 1.72.115 2.525.33a2.7 2.7 0 014.167-.411c.507.51.792 1.2.79 1.919 0 .469-.118.91-.326 1.294A9.809 9.809 0 0126 15.698a9.81 9.81 0 01-2.904 6.985c.326.448.518 1.001.518 1.599A2.713 2.713 0 0120.908 27a2.706 2.706 0 01-2.519-1.724c-.709.16-1.433.24-2.16.24-4.241 0-7.851-2.714-9.203-6.507zm.49-.105c1.3 3.568 4.71 6.115 8.712 6.115.695 0 1.372-.077 2.023-.222a2.713 2.713 0 012.657-3.233c.72 0 1.376.283 1.86.744a9.313 9.313 0 002.737-6.61c0-2.41-.91-4.606-2.405-6.26a2.693 2.693 0 01-4.011.2 2.712 2.712 0 01-.79-1.92c0-.374.076-.731.212-1.056a9.252 9.252 0 00-2.283-.284c-4.416 0-8.112 3.101-9.047 7.255a2.715 2.715 0 012.23 2.676 2.718 2.718 0 01-1.896 2.595h.001zm8.712-.484a2.716 2.716 0 01-2.708-2.722 2.714 2.714 0 012.708-2.721 2.715 2.715 0 012.709 2.721 2.715 2.715 0 01-2.709 2.722z" fill="#fff"/></svg>