<svg width="32" height="32" fill="none" xmlns="http://www.w3.org/2000/svg"><path d="M16 32c8.837 0 16-7.163 16-16S24.837 0 16 0 0 7.163 0 16s7.163 16 16 16z" fill="#1C1C1C"/><path d="M24.5 11v10L16 26l-8.5-5V11L16 6l8.5 5zm-8.768 5.407l-.79.467 1.476.862.785-.463 2.099 1.235-3.131 1.84-6.495-3.786-.027 1.843 6.526 3.79 6.27-3.687-3.674-2.162.74-.437-1.476-.862-.735.434-1.03-.606.901-.533-1.476-.863-.897.53-1.754-1.032 3.13-1.841 4.328 2.529 1.586-.938-5.917-3.438-6.27 3.688 3.329 1.959-.628.37 1.476.863.623-.368 1.031.606z" fill="#fff"/></svg>