<svg width="32" height="32" fill="none" xmlns="http://www.w3.org/2000/svg"><path d="M16 32c8.837 0 16-7.163 16-16S24.837 0 16 0 0 7.163 0 16s7.163 16 16 16z" fill="#00D4D5"/><path d="M16.519 5v5.457l4.738-2.725L16.519 5z" fill="#fff"/><path opacity=".9" d="M21.257 7.732v5.457l4.737-2.732-4.737-2.725z" fill="#fff"/><path opacity=".8" d="M16.519 10.457v5.457l4.738-2.725-4.738-2.732zm4.738 2.733v5.456l4.737-2.732-4.737-2.724z" fill="#fff"/><path opacity=".8" d="M16.519 15.914v5.457l4.738-2.725-4.738-2.732z" fill="#fff"/><path d="M21.257 18.646v5.457l4.737-2.732-4.737-2.725z" fill="#fff"/><path opacity=".4" d="M4.273 10.273v5.457l4.738-2.732-4.738-2.725z" fill="#fff"/><path opacity=".2" d="M10.25 12.302v5.457l4.73-2.725-4.73-2.732z" fill="#fff"/><path opacity=".3" d="M6.738 15.753v5.457l4.737-2.732-4.737-2.725z" fill="#fff"/><path opacity=".9" d="M9.86 19.871v5.457l4.73-2.732-4.73-2.725z" fill="#fff"/><path opacity=".7" d="M16.48 22.22v5.458l4.73-2.733-4.73-2.725z" fill="#fff"/><path opacity=".9" d="M11.039 9.607v5.458l4.73-2.725-4.73-2.733z" fill="#fff"/><path opacity=".8" d="M16.519 5v5.457l-4.738-2.725L16.519 5z" fill="#fff"/><path opacity=".6" d="M11.039 7.32v5.456L6.3 10.044l4.739-2.724z" fill="#fff"/><path opacity=".6" d="M15.777 10.02v5.458l-4.738-2.733 4.738-2.725z" fill="#fff"/><path opacity=".95" d="M10.228 12.302v5.457L5.49 15.034l4.738-2.732z" fill="#fff"/><path opacity=".6" d="M16.519 15.914v5.457l-4.73-2.725 4.73-2.732z" fill="#fff"/><path opacity=".55" d="M6.738 17.185v5.457L2 19.909l4.738-2.724z" fill="#fff"/><path d="M25.994 10.457v5.457l-4.737-2.725 4.737-2.732z" fill="#fff"/><path opacity=".95" d="M21.257 13.19v5.456l-4.738-2.732 4.738-2.724z" fill="#fff"/><path opacity=".9" d="M25.994 15.914v5.457l-4.737-2.725 4.737-2.732z" fill="#fff"/><path opacity=".7" d="M21.257 18.646v5.457l-4.738-2.732 4.738-2.725z" fill="#fff"/><path opacity=".4" d="M15.47 20.92v5.457l-4.737-2.725 4.737-2.732z" fill="#fff"/><path d="M21.257 7.732v5.457l-4.738-2.732 4.738-2.725z" fill="#fff"/></svg>