<svg width="32" height="32" fill="none" xmlns="http://www.w3.org/2000/svg"><path d="M16 32c8.837 0 16-7.163 16-16S24.837 0 16 0 0 7.163 0 16s7.163 16 16 16z" fill="#0050DB"/><path d="M16 26a3.625 3.625 0 01-1.844-.505l-5.306-3.12A3.785 3.785 0 017 19.114v-6.23a3.797 3.797 0 011.85-3.259l5.306-3.12c.561-.33 1.2-.504 1.852-.505.645 0 1.28.174 1.836.505l5.306 3.121A3.785 3.785 0 0125 12.885v6.23a3.797 3.797 0 01-1.85 3.26l-5.306 3.12c-.56.33-1.196.505-1.844.505zm-3.052-6.429l-.983 1a2.69 2.69 0 001.957.822c1.53-.002 2.772-1.264 2.774-2.823v-.852c.42.247.897.377 1.382.376a2.662 2.662 0 001.965-.812l-.982-1c-.26.266-.614.416-.983.416a1.398 1.398 0 01-1.382-1.407v-4.696h-1.382v7.984c0 .779-.62 1.41-1.385 1.41a1.37 1.37 0 01-.981-.418z" fill="#fff"/></svg>