<svg width="32" height="32" fill="none" xmlns="http://www.w3.org/2000/svg"><path d="M16 32c8.837 0 16-7.163 16-16S24.837 0 16 0 0 7.163 0 16s7.163 16 16 16z" fill="#005FFF"/><path fill-rule="evenodd" clip-rule="evenodd" d="M13.701 18.007V13.19h1.125c.243 0 .44.194.44.433v.416c0 .452.392.84.849.84.457 0 .804-.388.804-.84v-.4c0-.248.203-.45.455-.45h1.253v1.218c0 .248-.204.45-.455.45h-.425a.824.824 0 00-.828.817c0 .451.424.817.881.817h.375c.25 0 .452.2.452.446v1.07h1.009c.35 0 .633.278.633.62v.367c0 .342-.284.62-.633.62h-.376a.626.626 0 01-.633-.62v-.826H17.37c-.25 0-.451-.2-.451-.446v-.412a.85.85 0 00-.842-.834c-.457 0-.812.4-.812.875v.374c0 .245-.2.443-.448.443h-1.116v.826c0 .342-.283.62-.633.62h-.375a.626.626 0 01-.633-.62v-.367c0-.342.283-.62.633-.62h1.008zm5.935-4.978h-1.01v-.986c0-.342.284-.62.634-.62h.376c.35 0 .633.278.633.62v.367c0 .342-.284.62-.633.62v-.001zm-5.935 0h-1.008a.627.627 0 01-.633-.619v-.367c0-.342.283-.62.633-.62h.375c.35 0 .633.278.633.62v.986zm2.275-1.445a.626.626 0 01-.633-.62v-.367c0-.342.284-.619.633-.619h.376c.35 0 .633.277.633.62v.367a.626.626 0 01-.633.619h-.376zm0 9.796a.626.626 0 01-.633-.62v-.367c0-.342.284-.62.633-.62h.376c.35 0 .633.278.633.62v.368a.626.626 0 01-.633.619h-.376zm4.926-4.979a.627.627 0 01-.633-.619v-.367c0-.342.283-.62.633-.62h.375c.35 0 .633.278.633.62v.367c0 .342-.283.62-.633.62l-.375-.001zm-10.015 0a.627.627 0 01-.633-.619v-.367c0-.342.283-.62.633-.62h.375c.35 0 .634.278.634.62v.367c0 .342-.284.62-.634.62l-.375-.001zm7.766 5.021a.58.58 0 01.75.305.557.557 0 01-.31.734.58.58 0 01-.75-.304.558.558 0 01.31-.735zM13.4 8.897a.58.58 0 01.75.304.559.559 0 01-.31.734.58.58 0 01-.751-.304.559.559 0 01.31-.734h.001zm8.554 4.428a.56.56 0 01.311-.735.58.58 0 01.75.304.558.558 0 01-.31.735.58.58 0 01-.75-.304h-.001zM9.312 18.463a.558.558 0 01.311-.734.579.579 0 01.751.304.559.559 0 01-.31.734.58.58 0 01-.752-.304zm0-5.569a.58.58 0 011.061-.002.557.557 0 01-.312.737.58.58 0 01-.748-.302.558.558 0 01-.001-.433zm9.177-2.959a.559.559 0 01-.31-.734.58.58 0 011.06-.002.558.558 0 01-.313.736.58.58 0 01-.437 0zm3.465 8.098a.579.579 0 011.06-.003.557.557 0 01-.311.737.58.58 0 01-.747-.301.557.557 0 01-.002-.433zm-8.883 4.588a.556.556 0 01.003-1.038.58.58 0 01.746.302.559.559 0 01.001.432.58.58 0 01-.75.304zm8.443-1.63a.334.334 0 01.464 0 .316.316 0 010 .455.334.334 0 01-.535-.104.315.315 0 01.071-.35v-.001zM10.35 9.912a.334.334 0 01.464 0 .318.318 0 010 .455.334.334 0 01-.535-.104.315.315 0 01.071-.35v-.001zm11.164.455a.316.316 0 010-.454.332.332 0 01.464 0 .316.316 0 010 .454.334.334 0 01-.464 0zM10.35 21.446a.316.316 0 010-.454.334.334 0 01.464 0 .316.316 0 010 .454.334.334 0 01-.464 0zm13.53-5.847c0-.178.148-.322.329-.322.181 0 .328.144.328.322a.325.325 0 01-.328.32.325.325 0 01-.328-.32h-.001zm-15.925 0c0-.178.147-.322.329-.322.18 0 .328.144.328.322a.325.325 0 01-.328.32.325.325 0 01-.329-.32zm8.21-7.387a.325.325 0 01-.33-.321c0-.178.148-.322.33-.322.18 0 .328.144.328.322a.325.325 0 01-.329.32l.001.001zm0 15.576a.325.325 0 01-.33-.32c0-.178.148-.322.33-.322.18 0 .328.144.328.321a.323.323 0 01-.329.321h.001zm10.178-8.19c0-.177.148-.32.329-.32.18 0 .328.143.328.32a.324.324 0 01-.328.322.327.327 0 01-.329-.321v-.001zm-21.097-.16c.136 0 .247.108.247.24s-.11.242-.247.242A.244.244 0 015 15.679c0-.133.11-.241.246-.241zM15.672 5.321c0-.177.147-.321.328-.321.181 0 .328.144.328.321a.325.325 0 01-.328.321.325.325 0 01-.328-.32v-.001zm9.725 14.105a.497.497 0 01.909.004.48.48 0 01-.271.632.494.494 0 01-.534-.109.477.477 0 01-.104-.527zm-5.33 5.19a.32.32 0 01.176.421.33.33 0 01-.631-.127.312.312 0 01.098-.227.337.337 0 01.357-.066v-.001zM6.442 11.289a.328.328 0 01.2.298.313.313 0 01-.148.266.331.331 0 01-.483-.147.313.313 0 01.073-.35.336.336 0 01.358-.067zm-.916 8.25a.414.414 0 01.758.003.398.398 0 01-.228.525.414.414 0 01-.532-.22.398.398 0 01.002-.309v.001zM19.863 6.252a.399.399 0 01-.219-.526.414.414 0 01.758.003.398.398 0 01-.227.525c-.1.04-.212.04-.312-.002zm6.141 4.867a.251.251 0 01.189.001.24.24 0 01.107.357.249.249 0 01-.43-.044.236.236 0 01.054-.263.243.243 0 01.08-.051zM11.587 5.95a.247.247 0 01.322-.128.239.239 0 01-.003.445.25.25 0 01-.267-.053.24.24 0 01-.052-.264zm.063 18.962c.032 0 .064.007.095.02a.237.237 0 01.15.223.239.239 0 01-.154.222.248.248 0 01-.319-.132.241.241 0 010-.185.247.247 0 01.228-.148zm11.642-1.7a.334.334 0 01-.536-.104.315.315 0 01.071-.35.33.33 0 01.233-.094.33.33 0 01.303.198.316.316 0 01-.071.351v-.001zM7.935 8.033a.501.501 0 01.803.156.475.475 0 01-.106.525.497.497 0 01-.803-.156.475.475 0 01.106-.525zm15.525.09a.248.248 0 01.4.078.24.24 0 01-.052.262.25.25 0 01-.401-.078.236.236 0 01.053-.262zM8.027 22.735a.248.248 0 01.401.078.237.237 0 01-.053.262.25.25 0 01-.401-.078.237.237 0 01.053-.262zM16.082 27a.406.406 0 01-.41-.401c0-.222.183-.402.41-.402.227 0 .41.18.41.402a.406.406 0 01-.41.401z" fill="#fff"/></svg>