<svg width="32" height="32" fill="none" xmlns="http://www.w3.org/2000/svg"><path d="M16 32c8.837 0 16-7.163 16-16S24.837 0 16 0 0 7.163 0 16s7.163 16 16 16z" fill="#2B6680"/><path d="M5 16a11 11 0 0022 .042v-.084a11.061 11.061 0 00-.301-2.514 1.18 1.18 0 10-2.295.547 8.645 8.645 0 11-6.4-6.395 1.18 1.18 0 00.547-2.296A10.998 10.998 0 005 16z" fill="#fff"/><path d="M21.56 7.954c-.016.015-.026.033-.041.049-.269.284-.433.65-.468 1.04v.187c0 .043-.009.085-.014.128a3.14 3.14 0 01-4.078 2.684 4.046 4.046 0 00-3.716.97c-.04.037-.084.069-.123.108a4.07 4.07 0 005.756 5.757c.168-.171.32-.357.456-.555a4.07 4.07 0 00.622-3.271 3.153 3.153 0 01-.06-.222c0-.011-.006-.021-.009-.033a3.142 3.142 0 012.799-3.838c.023 0 .046-.007.07-.007.066 0 .132-.008.198-.008h.016a1.741 1.741 0 001.075-.506 1.8 1.8 0 00.187-.228 1.754 1.754 0 00-2.67-2.254" fill="#fff"/></svg>