<svg width="32" height="32" fill="none" xmlns="http://www.w3.org/2000/svg"><path d="M16 32c8.837 0 16-7.163 16-16S24.837 0 16 0 0 7.163 0 16s7.163 16 16 16z" fill="#5592D7"/><path d="M20.246 12.667V25.64L9.29 19.333c-3.24-1.897-3.034-3.077-3.034-5.64l11.263 6.512v-5.949l2.726-1.59.001.001z" fill="#fff"/><path opacity=".6" d="M17.52 20.205L6.257 13.692l10.954-6.307c3.24-1.847 4.166-1.077 6.429.205l-11.263 6.513 5.143 2.974v3.128z" fill="#fff"/><path opacity=".2" d="M12.377 14.103L23.64 7.59v12.615c0 3.744-1.131 4.154-3.394 5.436V12.667L15.05 15.64l-2.674-1.538.001.001z" fill="#fff"/></svg>