<svg width="32" height="32" fill="none" xmlns="http://www.w3.org/2000/svg"><path d="M16 32c8.837 0 16-7.163 16-16S24.837 0 16 0 0 7.163 0 16s7.163 16 16 16z" fill="#FF2D55"/><path d="M12.793 11.534l-7.045 8.454A10.912 10.912 0 015 16C5 9.923 9.923 5 16 5c6.078 0 11 4.923 11 11 0 3.36-1.507 6.369-3.883 8.387H8.883A11.51 11.51 0 017.2 22.6h12.562v-4.763l3.965 4.763H24.8l-5.043-6.05-1.392 1.672-5.571-6.688h-.001zM19.758 9.4a2.75 2.75 0 000 5.5 2.75 2.75 0 000-5.5zm-6.963-1.991a1.376 1.376 0 10-.074 2.751 1.376 1.376 0 00.074-2.751zM9.989 25.212h12.023A10.97 10.97 0 0116 27a10.97 10.97 0 01-6.011-1.788zm7.843-6.346l-2.426 2.909H6.639a11.058 11.058 0 01-.891-1.787h7.046V12.82l5.038 6.045v.001z" fill="#16141A"/></svg>