<svg width="32" height="32" fill="none" xmlns="http://www.w3.org/2000/svg"><path d="M16 32c8.837 0 16-7.163 16-16S24.837 0 16 0 0 7.163 0 16s7.163 16 16 16z" fill="#242424"/><path d="M22.257 6.77a1.272 1.272 0 01-1.76 1.174 1.271 1.271 0 01.486-2.444c.704 0 1.274.568 1.274 1.27zm-.918 4.424c-.596 0-1.08-.482-1.08-1.076 0-.594.484-1.075 1.08-1.075.596 0 1.079.481 1.079 1.075s-.483 1.076-1.08 1.076h.001zm-.335 2.653a.91.91 0 11.645-1.553.91.91 0 01-.645 1.553zm-.054 1.372a.78.78 0 11-1.56 0 .78.78 0 011.56 0zm-1.234 1.724a.667.667 0 11-1.337 0 .667.667 0 011.338 0h-.001zm-1.35 1.223a.574.574 0 11-1.149 0 .574.574 0 011.149 0zm6.874-7.409a1.084 1.084 0 01-2.11-.491 1.083 1.083 0 112.11.491zm-.518 2.803a.917.917 0 11-1.786-.417.917.917 0 011.786.417zm-.964 2.237a.775.775 0 01-1.51-.352.776.776 0 011.51.352zM22.516 17.5a.663.663 0 01-1.29-.3.661.661 0 011.29.3zm-1.357 1.189a.57.57 0 11-1.109-.26.57.57 0 011.109.26zm-1.355.751a.49.49 0 01-.952-.222.49.49 0 01.952.222zm7.104-4.856a.923.923 0 01-1.751-.454.918.918 0 01.618-.816.923.923 0 011.133 1.27zm-.961 2.215a.785.785 0 01-1.413-.681.788.788 0 011.448.083.781.781 0 01-.035.598zm-1.208 1.68a.68.68 0 01-1.25-.072.673.673 0 01.03-.516.678.678 0 011.22.589v-.001zm-1.346 1.188a.59.59 0 01-.785.272.588.588 0 11.512-1.056.586.586 0 01.273.784zm-1.355.732a.503.503 0 01-.905-.437.505.505 0 01.905.437zm-1.273.369a.428.428 0 01-.786-.046.426.426 0 11.786.046zm1.036 4.856a1.266 1.266 0 01.306-2.326c.326-.087.673-.042.966.126a1.268 1.268 0 01-.305 2.326 1.276 1.276 0 01-.966-.126h-.001zm-2.99-1.532a1.072 1.072 0 01-.396-1.468 1.08 1.08 0 011.473-.395 1.073 1.073 0 01-.259 1.97 1.08 1.08 0 01-.818-.107zm-2.202-1.84a.909.909 0 01.22-1.667.914.914 0 011.116.642.908.908 0 01-.643 1.115.913.913 0 01-.693-.09zm-1.501-1.974a.778.778 0 11.78-1.347.778.778 0 01-.78 1.347zm-.883-1.926a.666.666 0 01.16-1.223.666.666 0 11.348 1.289.67.67 0 01-.508-.066zm-.389-1.777a.572.572 0 01.139-1.05.576.576 0 01.702.405.572.572 0 01-.841.645zm3.75 9.926a1.082 1.082 0 01-1-1.494 1.08 1.08 0 011-.665c.598 0 1.083.483 1.083 1.08 0 .596-.485 1.079-1.083 1.079zm-2.918-2.138a.912.912 0 01.597-1.58.912.912 0 11.06 1.827.92.92 0 01-.657-.247zm-1.465-1.948a.771.771 0 01-.035-1.093.777.777 0 011.292.801.778.778 0 01-1.257.292zm-.859-1.924a.658.658 0 01.432-1.142.664.664 0 01.683.639.661.661 0 01-1.115.503zm-.356-1.764a.566.566 0 01.37-.981.566.566 0 11.037 1.135.57.57 0 01-.407-.154zm.024-1.546a.485.485 0 01.318-.842.49.49 0 01.35.132.489.489 0 01-.668.71zm.675 8.56a.92.92 0 01.935-1.42.924.924 0 01.731.716.915.915 0 01-.384.946.925.925 0 01-1.282-.242zm-1.446-1.936a.782.782 0 01.795-1.209.787.787 0 01.622.609.78.78 0 01-.327.806.786.786 0 01-1.09-.206zm-.858-1.883a.674.674 0 01.687-1.043.68.68 0 01.54.79.672.672 0 01-.286.433.68.68 0 01-.941-.18zm-.36-1.754a.586.586 0 01.596-.906.59.59 0 01.469.686.584.584 0 01-.248.375.59.59 0 01-.817-.155zm.04-1.536a.5.5 0 01.132-.696.504.504 0 01.699.132.503.503 0 01-.831.564zm.314-1.283a.427.427 0 11.694-.498.427.427 0 01-.694.498zm-4.74-1.542a1.276 1.276 0 011.9.935 1.268 1.268 0 01-.627 1.265 1.276 1.276 0 01-1.899-.934 1.268 1.268 0 01.626-1.266zm2.83-1.81a1.08 1.08 0 011.474.393 1.075 1.075 0 01-1.214 1.576 1.082 1.082 0 01-.79-.898 1.073 1.073 0 01.53-1.072v.001zm2.701-.977a.915.915 0 011.36.67.909.909 0 01-1.14.996.915.915 0 01-.668-.76.908.908 0 01.448-.906zm2.467-.306a.78.78 0 011.142.874.776.776 0 01-.651.57.783.783 0 01-.778-.384.773.773 0 01.287-1.06zm2.114.204a.67.67 0 01.914.245.67.67 0 01-1.16.667.667.667 0 01.246-.912zm1.738.554a.577.577 0 01.843.645.573.573 0 01-.703.406.573.573 0 01-.14-1.051zM7.614 11.24a1.084 1.084 0 011.35.722 1.084 1.084 0 01-2.073.624 1.077 1.077 0 01.723-1.346zm2.694-.953a.915.915 0 01.53 1.75.915.915 0 01-.53-1.75zM12.734 10a.773.773 0 11.447 1.48.773.773 0 01-.447-1.48zm2.1.223a.66.66 0 11-.227.12.659.659 0 01.228-.12h-.001zm1.71.577a.569.569 0 01.328 1.086.568.568 0 01-.328-1.086zm1.33.795a.488.488 0 11.283.933.488.488 0 01-.283-.933zm-7.77-3.707a.92.92 0 01.766 1.52.922.922 0 11-1.112-1.425.92.92 0 01.347-.095h-.001zm2.407-.278a.783.783 0 11.036 1.566.783.783 0 01-.036-1.566zm2.064.204a.677.677 0 01.098 1.348.676.676 0 01-.098-1.348zm1.703.568a.587.587 0 11.039 1.174.587.587 0 01-.039-1.174z" fill="#fff"/></svg>