<svg width="32" height="32" fill="none" xmlns="http://www.w3.org/2000/svg"><path d="M16 32c8.837 0 16-7.163 16-16S24.837 0 16 0 0 7.163 0 16s7.163 16 16 16z" fill="#00ADEF"/><path fill-rule="evenodd" clip-rule="evenodd" d="M14.863 26.986C9.32 26.405 5 21.708 5 16c0-5.708 4.32-10.405 9.863-10.986v3.37A7.7 7.7 0 008.336 16a7.7 7.7 0 006.527 7.616v3.37zM17.038 5c5.23.479 9.403 4.617 9.948 9.837h-3.363a7.7 7.7 0 00-6.585-6.474V5zM27 17.017c-.482 5.29-4.684 9.5-9.962 9.983v-3.363a7.7 7.7 0 006.606-6.62H27z" fill="#fff"/></svg>