<svg width="32" height="32" fill="none" xmlns="http://www.w3.org/2000/svg"><path d="M16 32c8.837 0 16-7.163 16-16S24.837 0 16 0 0 7.163 0 16s7.163 16 16 16z" fill="#104FCA"/><path d="M7 9.568l4.234 7.103V24C8.896 24 7 22.164 7 19.899V9.568z" fill="#fff" fill-opacity=".5"/><path d="M20.765 16.663l4.232-7.099h.002V19.9C25 22.164 23.104 24 20.765 24v-7.337z" fill="#fff" fill-opacity=".6"/><path d="M15.997 16.458L13.88 20.01c-.439-.11-.911-.536-1.416-1.277L7 9.568c2.025-1.133 4.615-.46 5.784 1.5l3.213 5.39z" fill="#fff" fill-opacity=".8"/><path d="M19.216 11.06C20.385 9.098 22.975 8.426 25 9.559l-5.464 9.165A4.267 4.267 0 0116 20.568a4.33 4.33 0 01-1.9-.435l-.22-.123 5.336-8.95z" fill="#fff"/></svg>