<svg data-name="Layer 1" xmlns="http://www.w3.org/2000/svg" viewBox="0 0 15 15"><defs><linearGradient id="a" x1="-2380.38" y1="-1837.25" x2="-2379.92" y2="-1837.25" gradientTransform="matrix(32.01 0 0 -32.01 76204.92 -58809.82)" gradientUnits="userSpaceOnUse"><stop offset="0" stop-color="#c51f5d"/><stop offset="1" stop-color="#2f2361"/></linearGradient></defs><path data-name="path0 fill" d="M15 8.61l-4.91-4.87a.18.18 0 00-.22 0L7.48 6.12 5.14 3.78a.17.17 0 00-.23 0l-.73.72-2.69 2.63-.58.58-.91.84a.16.16 0 000 .12.21.21 0 000 .11l2.43 2.43a.17.17 0 00.23 0L5 8.88l2.36 2.36a.16.16 0 00.22 0L10 8.91l2.35 2.35a.15.15 0 00.11 0 .16.16 0 00.12 0L15 8.83a.16.16 0 000-.12.12.12 0 000-.1zm-.44.2l-1.4-.51-.63-1.38h.36l1.76 1.75-.09.09zm-.79.79l-.41-.89.95.35zM4.13 6.41l-2 .53 2-1.94v1.41zm-2.44 1L3.07 7 3 8.58l-1.7-.8zm1.71-.47l.24-.06.66 1L3.27 9zm1.11.68L4 6.78l.31-.08.75.3zm-.06-1.2v-.59L6.31 6l.47 1.4zM6 8.24l.66.41.12 1.55-.95-.93zm.9.18l-.84-.53.06-.41.8.33a.09.09 0 00.06 0l.8.34.34 1zm1.21-.29L9 7.68l-.62 1.13-.24-.68zm1.21-1l-.8.42.22-1.35 1.12.68zm.85-.44l-1.48-.9-.26-.17.39-.39 1.72.56.16.66-.5.26zm.83-.3l-.4-1.66 1.87 1.86zm0 .32h.35l.37 3.48-1-1L11 6.71zm.67.1l.41.06.58 1.25L12 9.44zM10 4.09l.2.2.28 1.13L9.08 5l.92-.91zM7.59 6.47l.61-.61.24.14-.25 1.75-.25.13-.77-.32-.64-1.91.83.83a.18.18 0 00.23 0zM5 4.13l1 1 .18.53-1.73-.15v-.82zM1.05 8l1.9.9-.05.85-1.7-.3-.81-.78zm1.53 2.84l-1-1 1.28.23v.5zm2.33-2.3l-1.72 1.72v-.73l2.18-2.37.47.19-.09.65-.17 1-.44-.44a.17.17 0 00-.23-.02zM7.5 10.9l-.35-.35L7 8.85l1.28.79.11.34zM10 8.52a.18.18 0 00-.11.05L8.68 9.72l-.17-.49 1-1.83 1.16-.6-.2 2.2-.4-.4a.25.25 0 00-.07-.08zm2.46 2.4l-.31-.32L12 10l.82-1.53.63 1.36z" fill="url(#a)"/></svg>