<svg width="32" height="32" fill="none" xmlns="http://www.w3.org/2000/svg"><path d="M16 32c8.837 0 16-7.163 16-16S24.837 0 16 0 0 7.163 0 16s7.163 16 16 16z" fill="#622FBA"/><path fill-rule="evenodd" clip-rule="evenodd" d="M18.586 17.376c-.087.027-.171.06-.253.098l-3.676-3.821a1.909 1.909 0 00-1.14-2.794V8.186l-.984-.55 2.273-1.315a2.384 2.384 0 012.388 0l4.519 2.616-1.786 1.033a1.91 1.91 0 10-1.341 3.571v3.835zm1.138 0V13.54a1.91 1.91 0 001.092-2.773l2.03-1.174.97.56A2.371 2.371 0 0125 12.207v7.586c0 .846-.451 1.628-1.185 2.053l-4.09 2.368v-3.192a1.91 1.91 0 00-.001-3.646zm-2.227.869a1.911 1.911 0 001.089 2.777v3.851l-1.392.806a2.384 2.384 0 01-2.388 0L9.94 22.863l1.828-1.428a1.91 1.91 0 001.963.303 1.912 1.912 0 001.182-1.766 1.91 1.91 0 00-1.397-1.838v-3.598c.105-.029.207-.067.304-.113l3.677 3.822zm-5.118-.079a1.91 1.91 0 00-1.226 2.308L8.882 22.25l-.697-.403A2.372 2.372 0 017 19.793v-7.586c0-.846.451-1.628 1.185-2.053l3.205-1.856.99.553v2.04a1.91 1.91 0 00-.001 3.613v3.662zM13 13.523a.826.826 0 11-.06-1.652.826.826 0 01.06 1.652zm0 7.275a.826.826 0 11-.06-1.652.826.826 0 01.06 1.652zm6.155-8.255a.827.827 0 11-.06-1.652.827.827 0 01.06 1.652zm0 7.482a.827.827 0 11-.002-1.654.827.827 0 01.002 1.654z" fill="#fff"/></svg>