<svg width="32" height="32" fill="none" xmlns="http://www.w3.org/2000/svg"><path d="M16 32c8.837 0 16-7.163 16-16S24.837 0 16 0 0 7.163 0 16s7.163 16 16 16z" fill="#B3BA00"/><path d="M13.13 10.664l-.13.079L19 20v-9.265L16.004 9l-2.874 1.664zM13 21.165L16.136 23 19 21.328 13 12v9.165zm-3-8.809v7.288L12 21V11l-2 1.356zM20 21l2-1.387v-7.226L20 11v10z" fill="#fff"/><path d="M16 4C9.375 4 4 9.375 4 16s5.375 12 12 12 12-5.375 12-12S22.625 4 16 4zm-.05 19.62l-6.476-3.84v-7.668l6.477-3.83 6.476 3.83v7.669l-6.476 3.838-.001.001z" fill="#fff"/></svg>