<svg width="32" height="32" fill="none" xmlns="http://www.w3.org/2000/svg"><path d="M16 32c8.837 0 16-7.163 16-16S24.837 0 16 0 0 7.163 0 16s7.163 16 16 16z" fill="#1A4199"/><path opacity=".7" d="M10.676 7.125l10.732 6.191v6.319L5 10.159l5.265-3.034a.42.42 0 01.42 0" fill="#fff"/><path opacity=".9" d="M21.408 7l-5.467 3.16 5.467 3.156V7z" fill="#fff"/><path d="M21.408 7l5.264 3.036a.42.42 0 01.22.367v12.389l-5.484-3.157V7z" fill="#fff"/><path opacity=".9" d="M26.881 22.792l-5.264 3.033a.44.44 0 01-.42 0l-10.732-6.19v-6.328l16.416 9.485z" fill="#fff"/><path opacity=".6" d="M5 10.16v12.387a.42.42 0 00.22.368l5.265 3.036V13.307L5 10.16z" fill="#fff"/><path opacity=".7" d="M10.476 25.95l5.465-3.158-5.465-3.157v6.315z" fill="#fff"/></svg>