<svg width="32" height="32" fill="none" xmlns="http://www.w3.org/2000/svg"><path d="M16 32c8.837 0 16-7.163 16-16S24.837 0 16 0 0 7.163 0 16s7.163 16 16 16z" fill="#F80000"/><path d="M20.5 16.842L13.804 26l.247-7.441H12.5l.634-6.532 7.084-.976-2.326 5.925 2.608-.134zm-5.498 6.498v-1.75c0-.13-.11-.236-.246-.236a.241.241 0 00-.247.235v1.751c0 .13.11.236.247.236a.24.24 0 00.246-.236zm-1.832-5.286h1.41l-.065 2.693a.258.258 0 00.079.19c.052.05.123.08.197.08h.012a.27.27 0 00.275-.258l.065-3.177h-1.41l.473-5.219a.213.213 0 00-.059-.165.23.23 0 00-.167-.07h-.04a.223.223 0 00-.226.197l-.544 5.729zm0-6.6L15.778 9.3c.14-2.155-1.27-2.492-1.27-2.492L14.72 6c2.326.673 1.974 3.232 1.974 3.232l3.383 1.414-6.907.808z" fill="#fff"/></svg>