<svg version="1.1" id="Layer_1" xmlns="http://www.w3.org/2000/svg" x="0" y="0" viewBox="0 0 80 80" xml:space="preserve"><style>.st1{fill:#b27528}.st2{fill:#fff}.st3{fill:#b67328}</style><circle id="Oval" cx="40" cy="40" r="40" fill="#003d83"/><path id="Fill-1" class="st1" d="M40 70.9c-17 0-30.7-13.8-30.7-30.7S23 9.5 40 9.5s30.7 13.8 30.7 30.7C70.6 57.1 56.9 70.9 40 70.9zm0-67.1C19.9 3.8 3.5 20.1 3.5 40.2c0 16.9 11.5 31.1 27.1 35.2.2-.5-.3-1.2.1-2.3 0-.2.5-1.4 1.7-1.7 1.1-.2 2 .9 2.2 1.1v.1c-.2.2-.6-.2-1.1-.2 0 0-.5 0-.8.3-.3.3-.2.8-.2.9.1.8.8 1.3.9 1.4.2.2.4.2.5.2.2.1.7.3 1.3.1.1 0 .3-.1.6-.3.2-.2.4-.4.4-.5.1-.2.2-.3.2-.8.1-.5.1-.5.2-.8.1-.2.2-.4.2-.6 0-.1.3-.4.8-.7.2-.1.7-.4 1.3-.3.2.1.3.1.4.2.1.1.3.2.5.3.3.2.8.7.7.8-.1.1-.5 0-.6-.1-.2-.1-.3-.2-.6-.2-.2 0-.2-.1-.3-.1 0 0-.2 0-.4.1-.3.2-.4.6-.4.7v.6c.1.3.2.6.3.7l.4.4c.3.3.5.4.8.5.4.1.8 0 .9-.1s.4-.2.7-.4c.2-.2.3-.4.4-.6.3-.7.3-1.1.5-1.4 0-.1.4-1.2 1.2-1.6 1.2-.4 2.9.8 2.8 1.3 0 .1 0 .1-.1.2-.2.1-.3-.2-.8-.4-.1 0-.2-.1-.5-.1-.2 0-.3 0-.5.1s-.2.2-.3.4c0 .1-.2.4-.2.8s.2.8.2.9c.1.2.3.5.7.7 0 0 .2.1.5.2.2.1.4 0 .5 0 .8-.1 1.3-.5 1.3-.5.4-.3.5-.7.7-1.1.2-.4.3-.9.3-1.2.1-.3.3-.5.4-.7.5-.4 1.1-.7 1.7-.6h.1c.2 0 .6.1 1.2.4.3.2.7.6.7.7 0 .1-.2 0-.5-.1-.7-.1-1-.2-1.2-.1-.1.6-.4 1-.4 1.3 0 .1-.1.3 0 .6.1.6.5 1 .7 1.2 14.9-4.5 25.8-18.4 25.8-34.8C76.4 20.1 60 3.8 40 3.8z"/><path id="Fill-4" class="st2" d="M40 51.6h-.1c-4.6 0-8.9 1-12.4 3.5.5 3.5 2.4 6.8 5.1 9 .1-.1.2-.3.3-.5.2-.3.3-.6.4-.9.1-.3.2-.5.4-.8s.4-.4.7-.5c.3-.2.6-.2.9-.1.3.1.6.3.8.5l.2.2c0 .1 0 .1-.1.1s-.3 0-.4-.1c-.3-.1-.7-.1-1 .2-.2.2-.3.6-.2.9s.4.6.7.8c.2.2.5.2.9.2.2 0 .3-.1.5-.2.1-.1.2-.3.3-.5.2-.3.3-.7.4-1.1 0-.1.1-.2.2-.4.2-.2.4-.5.7-.6.3-.1.7-.1 1 0 .3.1.5.3.6.5 0 .1.1.3.1.4 0 0-.2-.1-.3-.1-.2-.2-.6-.2-.9 0-.2.2-.3.5-.3.8 0 .2.2.5.3.6.2.2.4.3.6.4.3.1.7.2 1 0 .2-.1.3-.2.4-.3.1-.1.1-.2.2-.3.2-.3.2-.7.3-1.1.1-.3.3-.5.5-.7.3-.2.6-.3 1-.3.3 0 .7.2.9.4.1.1.1.2.2.2 0 0 .2.3 0 .2-.1-.1-.2-.1-.4-.2s-.3 0-.5 0c-.3.1-.6.3-.6.7 0 .3.1.7.3.9.2.2.5.5.8.6.2.1.5.1.7 0 .3-.1.5-.3.6-.5.1-.1.2-.2.2-.4v-.3c.1-.3.2-.7.4-.9.2-.3.5-.5.8-.6.3-.1.6 0 .8 0 .2.1.4.2.5.4 0 .1.3.5 0 .4-.1 0-.2-.1-.4-.1h-.5c-.4.3-.6.6-.6 1 0 .2.1.5.2.7.1.2.3.4.5.5h.5c.1-.1.3-.1.5-.3 2.5-2.2 4.2-5.3 4.7-8.6-3.5-2.5-7.7-3.5-12.3-3.5l-.1-.2z"/><path id="Fill-6" class="st2" d="M63.8 49.8l.3-.9c-7.5-4.2-15.7-6.5-24-6.6h-.3c-8.5 0-16.7 2.4-23.9 6.9.1.3.2.6.4.9 7.2-4.5 15.4-6.9 23.8-6.8 8.2 0 16.4 2.3 23.7 6.5"/><path id="Fill-8" class="st2" d="M62.5 52.5c.2-.3.3-.5.4-.8-14.2-8.5-31.2-8.5-45.7.2.1.3.3.5.4.8 14.4-8.5 31-8.5 44.9-.2"/><path id="Fill-10" class="st2" d="M64.8 47c.1-.3.2-.6.2-.9-7.2-4.2-15.8-6.6-24.6-6.7-9.1 0-17.9 2.3-25.3 6.9.1.3.1.6.2.9 7.4-4.6 16-7 25.1-6.9 8.7.1 17.3 2.5 24.4 6.7"/><path id="Fill-12" class="st2" d="M65.3 44.5c.1-.3.1-.7.2-1-15.2-9.5-35.3-9.4-50.9.2.1.3.1.7.1 1 15.5-9.7 35.6-9.8 50.6-.2"/><path class="st2" d="M73.9 43l-.6.7-.2-.9-.8-.3.8-.5v-.8l.7.6.9-.3-.4.9.5.7zM74.3 46.9l-.9-.2-.6.7-.1-.9-.8-.4.8-.4.1-.9.7.6.8-.1-.4.8zM73.5 50.5l-.9-.2-.7.6-.1-.9-.7-.5.8-.3.2-.9.6.7.9-.1-.5.8zM72.2 54l-.9-.3-.7.5v-.9l-.7-.5.9-.3.3-.9.5.8h.9l-.6.7zM70.6 57.3l-.8-.3-.8.4.1-.9-.7-.6.9-.2.4-.9.4.9h1l-.7.7zM68.7 60.4l-.8-.4-.8.4.1-.9-.6-.7.9-.1.4-.9.4.9 1 .1-.7.7zM66.5 63.2l-.8-.5-.9.4.3-.9-.6-.8h.9l.5-.9.4 1 .9.2-.7.6zM64.1 64.9l-.1.9-.7-.6-1 .3.4-.9-.6-.8h1l.6-.7.3.9.9.3zM61.4 67.2l-.1 1-.7-.7-1 .2.4-.9-.5-.9 1 .2.7-.8.2 1 .9.4zM58.5 69.2l-.2 1-.6-.7-1 .1.5-.9-.4-.9 1 .2.7-.7.1 1 .9.5zM55.5 71l-.3.9-.6-.7h-1l.6-.9-.4-.9 1 .3.8-.6v1l.9.6zM25.5 71.9l-.9-.6-.9.4.3-1-.7-.8h1l.6-.9.3 1 1 .2-.8.7zM22.3 69.2l-.1 1-.7-.7-1 .3.4-1-.6-.8 1 .1.7-.8.2 1 .9.3zM19.4 67.1l-.1 1-.7-.7-1 .2.4-.9-.5-.9 1 .2.7-.7.2.9.9.5zM16.6 65.8l-.7-.7-.9.1.5-.9-.4-.9.9.3.8-.7v1l.9.4-.9.4zM14.1 63.2l-.5-.8-1 .1.6-.8-.3-.9.9.2.8-.5v.9l.8.6-1 .3zM12 60.4l-.5-.9h-.9l.6-.7-.3-1 .9.4.8-.5-.1 1 .8.5-.9.3zM9.7 56.5l-.9-.2.6-.6-.1-.9.8.4.8-.4-.1.9.7.6-.9.2-.5.8zM8.2 53.3l-.9-.2.8-.6-.1-1 .8.5.8-.3-.2.9.6.7h-.9l-.5.8zM6.2 49.6l.8-.5v-.9l.7.5.9-.3-.3.9.6.7h-1l-.5.8-.3-.9zM6.3 45.6v-.9l.7.6.9-.3-.3.9.4.8-.9-.1-.5.7-.3-.9-.8-.4zM5.9 41.9l.2-.9.6.7.9-.2-.4.8.4.9-.9-.2-.6.6-.2-.9-.8-.4zM5.9 38.2l.3-.9.5.7h.9l-.5.7.3.8-.8-.2-.7.6V39l-.8-.5zM6.3 34.6l.3-.8.5.7H8l-.6.7.3.8-.8-.2-.7.4v-.8l-.7-.6zM7.1 31.1l.3-.8.5.8h.9l-.6.7.2.9-.8-.4-.8.4.1-.8-.7-.6zM8.2 27.8l.4-.8.4.8.9.1-.7.6.2.9-.8-.5-.8.4.2-.8-.6-.6zM9.7 24.5l.4-.7.3.8.9.2-.7.5.1.9-.8-.5-.8.3.3-.8-.5-.7zM11.5 21.5l.5-.7.2.8.8.3-.7.5v.8l-.7-.5-.8.2.3-.8-.5-.7zM13.5 18.6l.6-.6.1.8.8.3-.7.5-.1.8-.6-.5-.8.1.3-.8-.4-.7zM15.1 15.9l.8.1.6-.6.1.9.7.3-.8.4-.1.9-.5-.7-.9.2.4-.8zM17.7 13.5l.8.2.6-.6.1.9.7.4-.8.3-.2.8-.5-.6h-.8l.4-.7zM20.6 11.3l.8.3.6-.5v.8l.7.5-.8.3-.3.8-.4-.7h-.8l.5-.7zM23.7 9.5l.8.3.6-.4v.8l.6.6-.8.1-.3.8-.5-.7-.8-.1.6-.6zM27 8l.7.4.8-.4-.2.8.6.6-.9.1-.3.7-.4-.7-.8-.1.6-.6zM30.4 6.8l.7.5.8-.3-.2.8.5.6h-.8l-.4.7-.3-.7-.8-.2.6-.5zM34 6.1l.7.5.8-.3-.3.8.5.7-.8-.1-.5.7-.2-.8-.8-.3.6-.4zM37.7 6.5l.1-.8.6.5.8-.2-.3.8.4.7-.8-.1-.5.6-.2-.8-.8-.3zM41.5 6.5l.1-.8.6.6.8-.2-.4.7.4.8-.8-.2-.6.6-.1-.8-.8-.4zM45.1 6.9l.2-.8.5.6h.8l-.4.6.3.8-.8-.2-.6.5-.1-.8-.7-.4zM48.6 7.7l.2-.9.5.7h.8l-.5.7.3.8-.8-.3-.6.5v-.8l-.7-.5zM51.9 8.8l.3-.8.5.7.8.1-.6.6.2.8-.7-.3-.7.4.1-.8-.7-.6zM55.1 10.2l.4-.8.3.8.9.1-.6.6.1.8-.7-.4-.7.4.1-.8-.6-.6zM58.1 11.9l.4-.7.3.8.9.1-.7.6.1.8-.7-.4-.8.3.2-.8-.5-.7zM60.9 13.9l.5-.7.2.8.8.3-.6.5v.8l-.7-.5-.8.3.3-.8-.5-.7zM63.5 16.2l.5-.7.2.9.8.2-.8.5v.8l-.6-.5-.8.2.3-.8-.5-.7zM65.8 18.7l.6-.6.1.8.8.4-.8.3-.1.9-.6-.6-.8.1.3-.7-.4-.8zM68.5 20.9l.1.8.7.4-.7.4-.3.8-.5-.7-.9.1.5-.7-.3-.8.8.2zM70.4 23.9v.8l.7.5-.8.3-.2.8-.5-.7h-.9l.5-.7-.3-.8.8.3zM71.9 27v.9l.7.6-.9.2-.3.8-.5-.7-.8-.1.6-.7-.3-.8.8.3zM73.7 31.9l-.9.1-.4.8-.3-.8-.9-.1.6-.6-.2-.8.8.4.8-.5-.1.9zM74.4 35.5l-.8.1-.5.7-.3-.8-.9-.2.7-.5-.1-.9.7.4.9-.3-.3.8zM74.8 39.3h-.9l-.5.7-.2-.8-.9-.3.7-.5v-.9l.7.5.9-.3-.3.9z"/><g><path class="st3" d="M42.2 55l-1 1 .2 1.5-1.4-.7-1.3.7.2-1.5-1.1-1 1.5-.3.7-1.4.7 1.4zM46.4 56.5l.6-1.4.8 1.4 1.5.2-1.1 1.1.2 1.5-1.4-.7-1.3.7.3-1.5-1.2-1.1zM34.1 57.8l.3 1.5-1.4-.7-1.4.7.3-1.5-1.1-1.1 1.5-.2.7-1.4.7 1.4 1.5.2z"/></g><path class="st2" d="M40 34.3c10 0 19 2.8 25.6 7.2 0-.5.1-.9.1-1.4 0-14.2-11.5-25.7-25.7-25.7S14.3 25.9 14.3 40.1c0 .5 0 1 .1 1.4 6.6-4.4 15.7-7.2 25.6-7.2z"/><path class="st1" d="M40 34.5c6 0 11.6 1 16.7 2.7l2-1.5-2.3-1.7-6.5 1c0-.3-.1-.6-.1-.9l6.1-.7-1.1-.8-5.3.4c-.2-.7-.5-1.3-.8-1.9l4-3.4.2-1.4-4.8 3.7c-.2-.2-.4-.5-.6-.8l5.3-3.9.4-2.8-2.8.4-3.9 5.3c-.2-.2-.5-.4-.8-.6l3.8-4.8-1.3.2-3.5 4c-.6-.3-1.3-.6-2-.8L43 21l-.8-1-.7 6c-.3 0-.6-.1-.9-.1l1-6.5-1.7-2.3-1.7 2.3 1 6.5c-.3 0-.6.1-.9.1l-.7-6-.9 1 .3 5.2c-.7.2-1.3.5-1.8.8l-3.4-3.9-1.4-.1 3.7 4.8c-.2.2-.5.4-.8.6L29.5 23l-2.8-.4.4 2.8 5.3 3.9c-.2.2-.4.5-.6.8L27 26.3l.2 1.4 4 3.4c-.3.6-.5 1.2-.8 1.8l-5.1-.3-1.1.8 6 .7c0 .3-.1.6-.1.9l-6.4-1-2.3 1.7 2 1.5c5-1.7 10.6-2.7 16.6-2.7z"/><path class="st1" d="M40 10.5c-16.3 0-29.5 13.2-29.5 29.5S23.7 69.5 40 69.5 69.5 56.3 69.5 40 56.3 10.5 40 10.5zM40 68c-15.5 0-28-12.5-28-28s12.5-28 28-28 28 12.5 28 28-12.5 28-28 28z"/></svg>