<svg width="32" height="32" fill="none" xmlns="http://www.w3.org/2000/svg"><path d="M16 32c8.837 0 16-7.163 16-16S24.837 0 16 0 0 7.163 0 16s7.163 16 16 16z" fill="#F5D100"/><path d="M15.972 4C9.372 4 4 9.372 4 15.972s5.372 11.982 11.982 11.982c6.609 0 11.981-5.372 11.981-11.982C27.963 9.363 22.582 4 15.973 4h-.001zm0 23.03c-6.092 0-11.058-4.956-11.058-11.058C4.924 9.88 9.88 4.923 15.972 4.923c6.093 0 11.059 4.957 11.059 11.059 0 6.092-4.957 11.049-11.059 11.049v-.001z" fill="#fff"/><path d="M9.774 10.656l.88-.881 4.688 4.687-.881.88-4.687-4.686zm6.818 6.821l.881-.881 4.687 4.687-.881.88-4.687-4.686zm-1.495-1.502l.88-.88.888.886-.88.882-.888-.888zm1.508-1.475l4.687-4.686.88.881-4.686 4.687-.881-.882zm-6.797 6.788l4.686-4.686.881.88-4.686 4.687-.881-.881z" fill="#fff"/></svg>