<svg width="32" height="32" fill="none" xmlns="http://www.w3.org/2000/svg"><path d="M16 32c8.837 0 16-7.163 16-16S24.837 0 16 0 0 7.163 0 16s7.163 16 16 16z" fill="#1C347A"/><path d="M10.065 6.888a10.93 10.93 0 00-3.19 3.196V6.888h3.19zm15.004 3.11a10.93 10.93 0 00-3.134-3.11h3.134v3.11zm-3.088 15.084a10.933 10.933 0 003.088-3.08v3.08h-3.088zM6.875 21.916a10.93 10.93 0 003.144 3.166H6.875v-3.166zM26 16c0 5.514-4.486 10-10 10S6 21.514 6 16 10.486 6 16 6s10 4.486 10 10zm-10 7.292c4.02 0 7.292-3.271 7.292-7.292 0-4.02-3.271-7.292-7.292-7.292-4.02 0-7.292 3.271-7.292 7.292 0 4.02 3.271 7.292 7.292 7.292z" fill="#fff"/></svg>