<svg width="32" height="32" fill="none" xmlns="http://www.w3.org/2000/svg"><path d="M16 32c8.837 0 16-7.163 16-16S24.837 0 16 0 0 7.163 0 16s7.163 16 16 16z" fill="#000"/><path fill-rule="evenodd" clip-rule="evenodd" d="M15.943 26.311c5.74 0 10.088-3.846 10.99-8.878h-4.897c-.732 2.672-3.004 4.628-6.035 4.628-3.009 0-5.31-1.97-6.073-4.628H5c.869 5.05 5.18 8.878 10.943 8.878z" fill="#fff"/><path d="M15.971 10.054a2.527 2.527 0 100-5.054 2.527 2.527 0 000 5.054z" fill="#fff"/><path fill-rule="evenodd" clip-rule="evenodd" d="M9.655 17.433v-.05c0-3.593 2.574-6.526 6.285-6.526 3.712 0 6.34 2.983 6.346 6.576H9.655z" fill="#fff"/></svg>