<svg width="32" height="32" fill="none" xmlns="http://www.w3.org/2000/svg"><path d="M16 32c8.837 0 16-7.163 16-16S24.837 0 16 0 0 7.163 0 16s7.163 16 16 16z" fill="#34445B"/><path d="M15.937 10.222l2.01-3.136a2.03 2.03 0 00.83-3.97 2.03 2.03 0 00-2.04 3.2l-2.494 3.891a7.962 7.962 0 00-4.268 14.08 7.965 7.965 0 005.832 1.769 7.965 7.965 0 007.143-8.706 7.967 7.967 0 00-7.013-7.128zm-.915 12.122a4.22 4.22 0 01-4.224-4.223 4.22 4.22 0 014.224-4.224 4.22 4.22 0 013.95 2.732 2.442 2.442 0 00-4.35 1.19 2.44 2.44 0 001.345 2.495 2.44 2.44 0 002.997-.687 4.214 4.214 0 01-3.942 2.717z" fill="#fff"/><path d="M15.937 10.222l2.01-3.136a2.03 2.03 0 00.83-3.97 2.03 2.03 0 00-2.04 3.2l-2.494 3.891a7.962 7.962 0 00-4.268 14.08 7.965 7.965 0 005.832 1.769 7.965 7.965 0 007.143-8.706 7.967 7.967 0 00-7.013-7.128zm-.915 12.122a4.22 4.22 0 01-4.224-4.223 4.22 4.22 0 014.224-4.224 4.22 4.22 0 013.95 2.732 2.442 2.442 0 00-4.35 1.19 2.44 2.44 0 001.345 2.495 2.44 2.44 0 002.997-.687 4.214 4.214 0 01-3.942 2.717z" fill="#fff"/></svg>