<svg width="32" height="32" fill="none" xmlns="http://www.w3.org/2000/svg"><path d="M16 32c8.837 0 16-7.163 16-16S24.837 0 16 0 0 7.163 0 16s7.163 16 16 16z" fill="#5F45BA"/><path d="M10.443 9.16a1.099 1.099 0 11-1.89-1.12 1.099 1.099 0 011.89 1.12zm-3.75-.488a.777.777 0 11-1.337-.792.777.777 0 011.337.792zm10.439 15.9a8.55 8.55 0 10-2.125-16.965 7.088 7.088 0 00-2.089.524c-.775.38-1.275 1.013-1.275 1.86 0 1.1.892 1.994 1.994 1.994.184 0 .821-.202.973-.254a4.605 4.605 0 016.114 4.644 4.607 4.607 0 01-8.447 2.246v.001c-.92-1.205-.708-3.131-.709-3.156a1.997 1.997 0 00-3.922-.451c-.045.167-.068.656-.061.721a8.547 8.547 0 009.547 8.836zM9.3 12.21a1.424 1.424 0 11-2.446-1.454 1.424 1.424 0 012.445 1.454" fill="#fff"/></svg>