<svg width="32" height="32" fill="none" xmlns="http://www.w3.org/2000/svg"><path d="M16 32c8.837 0 16-7.163 16-16S24.837 0 16 0 0 7.163 0 16s7.163 16 16 16z" fill="#302C2C"/><path d="M26.91 15.696a1.14 1.14 0 00-.215-.3C24.793 13.242 20.922 9 20.922 9l-4.917 5.378-4.98-5.327S7.109 13.33 5.19 15.507c-.25.246-.25.69-.026.952.997 1.136 5.894 6.536 5.894 6.536l4.94-5.414L20.904 23l5.917-6.546s.125-.13.152-.217c.058-.18.016-.376-.063-.541zm-18.992.599c-.16-.189-.106-.486.043-.665.626-.713 3.131-3.4 3.131-3.4l3.49 3.705-3.496 3.824s-2.14-2.284-3.168-3.464zm15.988.126c-.074.126-.16.245-.256.355l-2.71 2.945L17.44 16l3.444-3.775s1.984 2.055 2.893 3.16c.077.096.168.187.207.309.083.239.03.505-.079.726" fill="#fff"/></svg>