<svg width="32" height="32" fill="none" xmlns="http://www.w3.org/2000/svg"><path d="M16 32c8.837 0 16-7.163 16-16S24.837 0 16 0 0 7.163 0 16s7.163 16 16 16z" fill="#ED79AA"/><path opacity=".5" fill-rule="evenodd" clip-rule="evenodd" d="M23.452 8.929l-1.87 1.883a7.238 7.238 0 00-5.152-2.149c-3.915 0-7.11 3.11-7.278 7.01h-.008v7.122A10.003 10.003 0 016.5 16c0-5.523 4.446-10 9.93-10a9.865 9.865 0 017.022 2.929zm0 14.142A9.865 9.865 0 0116.592 26v-2.664a7.238 7.238 0 004.99-2.147l1.87 1.882z" fill="#fff"/><path fill-rule="evenodd" clip-rule="evenodd" d="M11.681 24.784v-9.11h.007C11.828 13.069 13.97 11 16.592 11c2.712 0 4.911 2.214 4.911 4.946 0 2.731-2.199 4.945-4.91 4.945a4.861 4.861 0 01-2.483-.677v5.511a9.82 9.82 0 01-2.429-.94v-.001zm4.911-6.338a2.49 2.49 0 002.483-2.5c0-1.381-1.112-2.5-2.483-2.5a2.491 2.491 0 00-2.482 2.5c0 1.38 1.111 2.5 2.482 2.5z" fill="#fff"/></svg>