<svg width="32" height="32" fill="none" xmlns="http://www.w3.org/2000/svg"><path d="M16 32c8.837 0 16-7.163 16-16S24.837 0 16 0 0 7.163 0 16s7.163 16 16 16z" fill="#444FA1"/><path d="M5 24L16 5l11 19H5zm6.872-9.676c1.285-.858 2.663-1.291 4.128-1.291 1.465 0 2.843.433 4.128 1.291L16 7.194l-4.128 7.13zm-1.951 3.37l-2.997 5.177h18.152l-2.997-5.176c-1.81 1.989-3.843 2.999-6.079 2.999-2.236 0-4.27-1.01-6.08-3h.001zM16 19.565c1.938 0 3.711-.89 5.338-2.7-1.627-1.813-3.4-2.702-5.338-2.702-1.938 0-3.711.89-5.338 2.701 1.627 1.812 3.4 2.702 5.338 2.702v-.001zm0-.483c-1.16 0-2.101-.975-2.101-2.178 0-1.202.94-2.177 2.101-2.177s2.101.975 2.101 2.177c0 1.203-.94 2.178-2.101 2.178zm0-1.13c.559 0 1.012-.469 1.012-1.048 0-.579-.453-1.048-1.012-1.048-.559 0-1.012.47-1.012 1.048 0 .58.453 1.049 1.012 1.049v-.001z" fill="#fff"/></svg>