<svg width="32" height="32" fill="none" xmlns="http://www.w3.org/2000/svg"><path d="M16 32c8.837 0 16-7.163 16-16S24.837 0 16 0 0 7.163 0 16s7.163 16 16 16z" fill="#454545"/><path fill-rule="evenodd" clip-rule="evenodd" d="M11.5 16c0-2.481 2.019-4.5 4.5-4.5s4.5 2.019 4.5 4.5c0 .653-.143 1.272-.394 1.833l-2.97-2.97-2.272 2.273 2.97 2.97A4.47 4.47 0 0116 20.5a4.505 4.505 0 01-4.5-4.5zm11.813 0a7.273 7.273 0 00-1.18-3.978L25 9.154 22.846 7l-2.868 2.868A7.272 7.272 0 0016 8.687a7.28 7.28 0 00-3.978 1.18L9.154 7 7 9.154l2.868 2.868A7.272 7.272 0 008.687 16a7.28 7.28 0 001.181 3.978L7 22.846 9.154 25l2.868-2.868A7.272 7.272 0 0016 23.313a7.272 7.272 0 003.978-1.181L22.846 25 25 22.846l-2.868-2.868A7.272 7.272 0 0023.313 16z" fill="#fff"/></svg>