<svg width="32" height="32" fill="none" xmlns="http://www.w3.org/2000/svg"><path d="M16 32c8.837 0 16-7.163 16-16S24.837 0 16 0 0 7.163 0 16s7.163 16 16 16z" fill="#2E9AD0"/><path d="M25.313 23.636L23.34 21.88l-3.992 2.995a.8.8 0 01-.153.89.786.786 0 01-.553.235.783.783 0 01-.766-.644h-4.31a.783.783 0 01-.765.644.786.786 0 01-.779-.792.8.8 0 01.071-.331l-3.546-2.64a.768.768 0 01-1.07-.036.786.786 0 01-.225-.557c0-.3.164-.561.406-.696l-1.303-4.16A.786.786 0 015.5 16a.786.786 0 01.88-.785l1.281-4.161a.794.794 0 01-.409-.698c0-.437.349-.792.779-.792.202 0 .386.078.524.206l3.573-2.58a.799.799 0 01-.106-.398c0-.437.349-.792.779-.792.38 0 .697.277.765.644h4.31A.783.783 0 0118.642 6c.43 0 .778.355.778.792a.8.8 0 01-.095.38l3.55 2.61a.77.77 0 01.537-.218c.43 0 .778.355.778.792a.796.796 0 01-.354.665l1.276 4.189a.775.775 0 01.83.79.786.786 0 01-.804.792l-1.497 4.83 1.917 1.706a1.15 1.15 0 01.774-.298c.645 0 1.168.532 1.168 1.188 0 .656-.523 1.188-1.168 1.188a1.179 1.179 0 01-1.168-1.188c0-.212.054-.41.15-.582h-.001zm-6.605.783l1.487-3.349a.794.794 0 01-.256-.388l-3.45.502a.795.795 0 01-.188.395l2.047 2.895a.766.766 0 01.36-.055zm.393.15l3.869-2.903-1.668-.726a.772.772 0 01-.753.295l-1.473 3.316a.845.845 0 01.025.017v.001zm-1.065.141l-2.06-2.912a.765.765 0 01-.51 0l-2.06 2.912c.06.075.105.16.135.25h4.36a.793.793 0 01.135-.25zm6.728-8.03a.794.794 0 01-.379-.68c0-.28.142-.525.357-.666l-1.206-3.96-.27 3.874c.31.104.535.401.535.752a.792.792 0 01-.529.75l.266 3.886 1.226-3.956zm-2.254-1.277l-1.584-3.105a.766.766 0 01-.4.022l-1.392 3.067a.797.797 0 01-.009 1.233l1.435 3.054a.771.771 0 01.31.012l1.619-3.11a.795.795 0 01-.246-.576c0-.238.104-.452.267-.597zm.374 1.377a.702.702 0 01-.054-.012l-1.617 3.104a.797.797 0 01.243.704l1.74.758-.312-4.554zm-.006-1.558l.286-4.114a.78.78 0 01-.376-.277l-1.338.559a.811.811 0 01-.195.695l1.604 3.14a.579.579 0 01.019-.003zm-4.108 1.56a.77.77 0 01-.335-.018l-2.123 3.77a.8.8 0 01.145.254l3.468-.504c.04-.181.14-.34.278-.45L18.77 16.78v.002zm.01-1.561l1.397-3.077a.795.795 0 01-.262-.483l-3.475-.505a.794.794 0 01-.164.251l2.139 3.835a.767.767 0 01.366-.021h-.001zm-.682 1.346a.797.797 0 01-.015-1.118l-2.14-3.838a.767.767 0 01-.368.019l-2.207 3.827a.797.797 0 01.212.543c0 .209-.08.41-.227.559l2.168 3.725a.768.768 0 01.47.023l2.107-3.74zm-11.377.085l1.242 3.966.293-3.844A.79.79 0 017.642 16a.79.79 0 01.627-.777l-.303-3.834-1.223 3.975a.795.795 0 01.315.636c0 .27-.134.51-.337.652zm3.888 3.026a.77.77 0 01.348.012l1.37-3.061a.796.796 0 01-.305-.629c0-.248.112-.469.287-.614l-1.392-3.066a.77.77 0 01-.292.005l-1.679 3.091a.796.796 0 01.192.894.796.796 0 01-.178.262l1.65 3.106h-.001zm.324 1.55a.77.77 0 01-.78-.273l-1.35.588a.813.813 0 01-.038.365l3.575 2.662a.81.81 0 01.032-.023l-1.44-3.32.001.001zm-.943-.633a.796.796 0 01.267-.748l-1.613-3.035-.313 4.1a.784.784 0 01.328.263l1.331-.58zm1.53-.299l3.465.494a.793.793 0 01.197-.312l-2.164-3.717a.767.767 0 01-.332.023l-1.39 3.101a.79.79 0 01.224.411zm-.02.397a.794.794 0 01-.222.35l1.463 3.375c.12-.01.241.01.353.056l2.048-2.895a.794.794 0 01-.188-.393l-3.454-.493zm-1.503-9.322l-1.331-.556a.785.785 0 01-.333.272l.32 4.051 1.616-2.976a.795.795 0 01-.272-.79v-.001zm.95-.595l1.375-3.24-3.553 2.566c.037.11.049.227.036.343l1.37.573a.77.77 0 01.772-.242zm.582.873a.795.795 0 01-.263.495l1.396 3.077a.77.77 0 01.378.025l2.182-3.786a.794.794 0 01-.22-.306l-3.473.495zm-.24-.682c.084.08.15.179.193.289l3.465-.494a.795.795 0 01.16-.398l-1.99-2.848a.765.765 0 01-.39.065l-1.437 3.386h-.001zm9.323-.211a.775.775 0 01.668.277l1.36-.568a.813.813 0 01.029-.347L19.14 7.524l1.471 3.232h.001zm-.656.51a.793.793 0 01.29-.375l-1.51-3.313a.774.774 0 01-.41-.062l-1.99 2.848a.811.811 0 01.16.4l3.46.503v-.001zM18.02 7.27a.795.795 0 01-.118-.23H13.54a.794.794 0 01-.119.23l1.994 2.853a.765.765 0 01.61 0L18.02 7.27z" fill="#fff"/></svg>