<svg width="32" height="32" fill="none" xmlns="http://www.w3.org/2000/svg"><path d="M16 32c8.837 0 16-7.163 16-16S24.837 0 16 0 0 7.163 0 16s7.163 16 16 16z" fill="#2A2A2A"/><path d="M10 6.006h8.111c.098-.03.148.06.212.11.764.722 1.45 1.523 2.046 2.39a15.152 15.152 0 011.972 3.946c.482 1.484.71 3.054.65 4.614h-4.135a5 5 0 00.022-.624c-.043-1.471-.497-2.914-1.212-4.192-.765-1.369-1.833-2.55-3.047-3.531-1.322-1.069-2.81-1.913-4.36-2.595-.086-.04-.176-.072-.259-.118zm3.002 7.327c1.387 2.51 2.772 5.02 4.155 7.533.333.606.67 1.21 1 1.817C16.436 23.785 14.72 24.897 13 26V13.333h.002z" fill="#fff"/></svg>