<svg width="32" height="32" fill="none" xmlns="http://www.w3.org/2000/svg"><path d="M16 32c8.837 0 16-7.163 16-16S24.837 0 16 0 0 7.163 0 16s7.163 16 16 16z" fill="#F49352"/><path fill-rule="evenodd" clip-rule="evenodd" d="M12.605 9.155a1.565 1.565 0 01-1.552-1.577c0-.871.695-1.578 1.552-1.578.858 0 1.553.706 1.553 1.578 0 .872-.695 1.577-1.553 1.577zM19.447 26a1.565 1.565 0 01-1.552-1.578c0-.87.695-1.577 1.552-1.577.858 0 1.553.706 1.553 1.577 0 .872-.695 1.578-1.553 1.578zm-6.205-11.79a1.381 1.381 0 01-1.955-.265 1.432 1.432 0 01.26-1.986l7.158-5.562a1.38 1.38 0 011.955.265 1.432 1.432 0 01-.26 1.987l-7.158 5.561zm.053 5.669a1.381 1.381 0 01-1.955-.265 1.432 1.432 0 01.26-1.987l7.158-5.561a1.381 1.381 0 011.955.265 1.432 1.432 0 01-.26 1.986l-7.158 5.562zm0 5.829a1.381 1.381 0 01-1.955-.265 1.432 1.432 0 01.26-1.987l7.158-5.561a1.381 1.381 0 011.955.265 1.432 1.432 0 01-.26 1.986l-7.158 5.562z" fill="#fff"/></svg>