<svg width="32" height="32" fill="none" xmlns="http://www.w3.org/2000/svg"><path d="M16 32c8.837 0 16-7.163 16-16S24.837 0 16 0 0 7.163 0 16s7.163 16 16 16z" fill="#8D181B"/><path d="M25.696 15.732c.72 0 1.304.57 1.304 1.275s-.584 1.275-1.304 1.275c-.55 0-1.021-.334-1.212-.805h-3.72l-1.372 2.44c-.226.402-.845.283-.899-.172l-.308-2.607-1.14 8.454c-.076.562-.917.536-.956-.03l-.935-13.667-.99 9.054c-.06.54-.853.568-.95.033l-1.048-5.756-.484 1.895a.479.479 0 01-.466.356H6.48a.475.475 0 01-.48-.47c0-.26.215-.47.48-.47h4.36l.939-3.671c.126-.492.848-.467.94.032l.849 4.669L14.787 6.42c.063-.571.918-.555.957.018l.981 14.34 1.014-7.524c.074-.549.889-.543.954.007l.582 4.915.784-1.396a.483.483 0 01.421-.243h4.004a1.304 1.304 0 011.212-.805z" fill="#fff"/></svg>