<svg width="32" height="32" fill="none" xmlns="http://www.w3.org/2000/svg"><path d="M16 32c8.837 0 16-7.163 16-16S24.837 0 16 0 0 7.163 0 16s7.163 16 16 16z" fill="#964B9C"/><path opacity=".6" d="M20.507 16.406l-4.472 4.471h8.942l-4.47-4.471z" fill="#fff"/><path opacity=".7" d="M11.528 16.41L16 11.94H7.057l4.472 4.471-.001-.001z" fill="#fff"/><path opacity=".4" d="M16.035 20.878l4.46-4.46-4.48-4.482-8.943 8.942 8.942 8.943 8.943-8.943h-8.922z" fill="#fff"/><path opacity=".8" d="M16.056 3l-8.937 8.937H16l-4.446 4.446 4.502 4.501 8.942-8.942L16.056 3z" fill="#fff"/></svg>