<svg width="32" height="32" fill="none" xmlns="http://www.w3.org/2000/svg"><path d="M16 32c8.837 0 16-7.163 16-16S24.837 0 16 0 0 7.163 0 16s7.163 16 16 16z" fill="#F5342E"/><path d="M6.001 16.124c-.011-1.114.16-2.222.507-3.281a9.995 9.995 0 011.815-3.287 9.788 9.788 0 013.37-2.63 9.454 9.454 0 012.732-.823 9.46 9.46 0 011.72-.096 9.62 9.62 0 013.306.716c.016.007.035.014.037.034.002.026-.021.034-.04.042l-.36.14c-.784.305-1.55.653-2.296 1.044-.827.437-1.621.927-2.358 1.512-.64.509-1.225 1.075-1.7 1.753-.32.456-.572.946-.71 1.493-.176.692-.133 1.377.067 2.056.147.502.368.972.612 1.43.308.58.657 1.135.978 1.707.292.52.564 1.05.744 1.625.125.401.2.812.192 1.234a3.517 3.517 0 01-.412 1.567c-.303.584-.718 1.076-1.18 1.53-.427.419-.891.788-1.37 1.14-.07.052-.125.05-.198.012a9.827 9.827 0 01-1.945-1.301 9.976 9.976 0 01-1.867-2.131 10.172 10.172 0 01-1.644-5.486z" fill="#fff"/><path d="M12.047 25.241c.018-.043.063-.044.097-.056a25.723 25.723 0 002.06-.856c.79-.372 1.559-.784 2.287-1.265.569-.37 1.104-.788 1.6-1.25.488-.46.92-.964 1.256-1.544.272-.47.456-.971.516-1.512.05-.492.003-.989-.137-1.463-.15-.529-.385-1.022-.649-1.503-.316-.577-.675-1.13-1.006-1.698-.281-.483-.543-.975-.733-1.502a3.8 3.8 0 01-.238-1.588c.027-.37.123-.726.272-1.068.224-.514.547-.963.922-1.377.548-.607 1.185-1.11 1.849-1.584.073-.053.134-.059.215-.018.706.354 1.366.776 1.975 1.277.623.513 1.177 1.09 1.66 1.733a9.886 9.886 0 011.972 5.232c.022.315.042.63.033.946a10.24 10.24 0 01-.432 2.713 10.025 10.025 0 01-2.773 4.425 10.194 10.194 0 01-10.648 2.019c-.036-.016-.078-.02-.098-.06v-.001z" fill="#fff"/></svg>