<svg width="32" height="32" fill="none" xmlns="http://www.w3.org/2000/svg"><path d="M16 32c8.837 0 16-7.163 16-16S24.837 0 16 0 0 7.163 0 16s7.163 16 16 16z" fill="#8E9495"/><path d="M7.623 20.711a6.907 6.907 0 01-.506-1.547A5.396 5.396 0 017 18.31h.894a6.133 6.133 0 00.543 2.048c.536 1.136 1.35 1.784 2.532 1.784.924 0 1.64-.37 2.144-1.022.428-.551.67-1.282.67-1.896 0-.787-.298-1.367-.893-1.858-.484-.4-1.041-.68-2.191-1.158l-.203-.084c-1.196-.495-1.748-.767-2.285-1.191-.742-.586-1.136-1.313-1.136-2.244 0-1.115.401-2.06 1.119-2.728A3.663 3.663 0 0110.689 9c1.28 0 2.257.533 2.907 1.467v-1.27h2.888v12.747h.858v-3.577a.922.922 0 010-.088l.894.03v.045a5.958 5.958 0 00.527 2.003c.533 1.135 1.348 1.784 2.529 1.784.924 0 1.64-.37 2.144-1.022.428-.551.67-1.282.67-1.896 0-.787-.298-1.367-.893-1.858-.484-.4-1.041-.68-2.191-1.158l-.203-.084c-1.196-.495-1.748-.767-2.285-1.191-.742-.586-1.136-1.313-1.136-2.244 0-1.115.401-2.06 1.119-2.728A3.663 3.663 0 0121.012 9c1.28 0 2.257.533 2.907 1.467V9.251h.895v4.422h-.895c0-.924-.212-1.86-.629-2.551-.492-.817-1.232-1.263-2.278-1.263a2.75 2.75 0 00-1.873.718c-.54.504-.847 1.225-.847 2.111 0 .66.266 1.15.81 1.58.45.355.954.603 2.071 1.066l.203.084c1.233.511 1.844.82 2.42 1.295.787.65 1.204 1.464 1.204 2.51 0 .796-.302 1.706-.846 2.41-.669.863-1.646 1.367-2.862 1.367-.843 0-1.566-.256-2.16-.73a3.967 3.967 0 01-.896-1.025v1.558H15.59V10.056h-1.1v3.617h-.894c0-.924-.212-1.86-.629-2.551-.492-.817-1.232-1.263-2.278-1.263a2.75 2.75 0 00-1.873.718c-.54.504-.847 1.225-.847 2.111 0 .66.266 1.15.81 1.58.45.355.954.603 2.071 1.066l.203.084c1.233.511 1.844.82 2.42 1.295.787.65 1.204 1.464 1.204 2.51 0 .796-.302 1.706-.846 2.41-.669.863-1.646 1.367-2.862 1.367-.843 0-1.566-.256-2.16-.73a3.993 3.993 0 01-.915-1.053v1.532H7v-4.44h.894v2.908c-.1-.164-.19-.333-.271-.506z" fill="#fff"/></svg>