<svg width="32" height="32" fill="none" xmlns="http://www.w3.org/2000/svg"><path d="M16 32c8.837 0 16-7.163 16-16S24.837 0 16 0 0 7.163 0 16s7.163 16 16 16z" fill="#199248"/><path d="M16 4C9.373 4 4 9.373 4 16s5.373 12 12 12 12-5.373 12-12A12 12 0 0016 4zm2.743 22.236a10.595 10.595 0 01-8.537-19.1 10.596 10.596 0 013.942-1.569 10.597 10.597 0 014.595 20.669z" fill="#fff"/><path d="M18.93 7.287c0 .517 0 1.033.02 1.55a9.75 9.75 0 00-2.146-.562c-.03-.469.104-.984-.033-1.429a13.316 13.316 0 00-1.572-.019c-.026.482-.016.966 0 1.45a9.863 9.863 0 00-2.146.574c.015-.522.02-1.043.013-1.566a9.2 9.2 0 000 17.438c0-.512-.005-1.022-.015-1.532a9.112 9.112 0 002.133.549c0 .469 0 .938-.028 1.402.56.08 1.128.08 1.688 0a26.405 26.405 0 01-.04-1.387 10.122 10.122 0 002.14-.544 24.224 24.224 0 000 1.52 9.2 9.2 0 00-.011-17.437l-.002-.007h-.001zm1.37 13.935c-1.208 1.095-2.924 1.354-4.5 1.331-1.383 0-2.847-.375-3.846-1.376-.53-.512-.83-1.196-1.099-1.875.966-.25 1.963-.334 2.936-.542a1.706 1.706 0 001.138 1.277c.883.276 1.977.315 2.713-.315.522-.433.537-1.38-.11-1.704-1.517-.784-3.407-.518-4.841-1.51-1.975-1.245-2.121-4.547-.188-5.891 1.478-1.037 3.454-1.166 5.168-.75 1.55.392 2.655 1.706 3.187 3.161-.954.165-1.907.334-2.861.495-.251-1.515-2.372-1.875-3.426-.992-.6.499-.446 1.562.304 1.828 1.64.68 3.61.484 5.063 1.622 1.687 1.144 1.863 3.876.361 5.24l.001.001z" fill="#fff"/></svg>