<svg width="32" height="32" fill="none" xmlns="http://www.w3.org/2000/svg"><path d="M16 32c8.837 0 16-7.163 16-16S24.837 0 16 0 0 7.163 0 16s7.163 16 16 16z" fill="#00B098"/><path d="M6 12.391v-.356h8.417v.356H6zm0-1.035V11h8.417v.356H6zm3.55 10.64v-8.893h.338v8.893H9.55zm.98 0v-8.893h.337v8.893h-.337zm15.232-.728l-3.798-4.013.238-.251L26 21.016l-.238.252zM16.519 11l3.798 4.013-.238.251-3.798-4.012.238-.252zm8.55 11l-3.798-4.013.238-.252 3.798 4.013-.238.252zm-9.242-10.268l3.798 4.012-.239.252-3.798-4.012.239-.252zm5.421 4.768l.239-.252 4.275-4.516.238.252-4.275 4.516-.238.252-.454.48-.239.252L16.52 22l-.238-.252 4.275-4.516.238-.252.453-.48zm-.454-.984L25.07 11l.238.252-4.275 4.516-.238.252-.454.48-.239.252-4.274 4.516-.239-.252 4.275-4.516.238-.252.455-.48.237-.252z" fill="#fff"/></svg>