<svg width="32" height="32" fill="none" xmlns="http://www.w3.org/2000/svg"><path d="M16 32c8.837 0 16-7.163 16-16S24.837 0 16 0 0 7.163 0 16s7.163 16 16 16z" fill="#7324F0"/><path d="M27.675 13.462V13a3.004 3.004 0 00-2.99 2.784A2.996 2.996 0 0021.705 13v.462a2.538 2.538 0 012.347 3.51 2.53 2.53 0 01-2.347 1.566V19a3.004 3.004 0 002.99-2.784A2.997 2.997 0 0027.685 19v-.462a2.538 2.538 0 01-2.347-3.508 2.53 2.53 0 012.337-1.568zM11.643 19v-.344L11.633 16h-.443v3h.453zm6-6c-1.653 0-3 1.348-3 3s1.347 3 3 3a3 3 0 000-6zm0 5.538a2.538 2.538 0 110-5.075 2.538 2.538 0 012.346 3.51 2.53 2.53 0 01-2.346 1.565zM9.538 13c-1.653 0-3 1.348-3 3A2.544 2.544 0 014 18.538V19c1.652 0 3-1.348 3-3a2.544 2.544 0 012.538-2.538h3.855V13H9.538z" fill="#fff"/></svg>