<svg width="32" height="32" fill="none" xmlns="http://www.w3.org/2000/svg"><path d="M16 32c8.837 0 16-7.163 16-16S24.837 0 16 0 0 7.163 0 16s7.163 16 16 16z" fill="#0082C6"/><path d="M18.046 15.103a.117.117 0 00-.114.041.11.11 0 00-.022.083.107.107 0 00.045.073C22.334 18.478 16.101 25.754 4 18.011c10.26 9.655 24.547-1.01 14.046-2.908zm-5.844-4.248c-9.086 2.907 1.323 9.763 2.226 6.3a.111.111 0 00-.012-.086.11.11 0 00-.071-.051.12.12 0 00-.064.001c-1.337.435-8.701-1.624-2.08-6.164h.001zM28 12.602c-7.867-5.61-22.628-.984-15.013 2.977a.119.119 0 00.157-.047.11.11 0 00.003-.098C10.05 8.89 25.781 10.88 28 12.602zm-6.528 8.151c4.159-1.89.777-8.361-4.724-7.112a.116.116 0 01-.138-.085.108.108 0 01.04-.11c4.28-3.216 12.314 4.292 4.822 7.307z" fill="#fff"/></svg>