<svg width="32" height="32" fill="none" xmlns="http://www.w3.org/2000/svg"><path d="M16 32c8.837 0 16-7.163 16-16S24.837 0 16 0 0 7.163 0 16s7.163 16 16 16z" fill="#7B346E"/><path d="M8.094 13.678l2.11 2.11H6l2.094-2.11zm2.11 2.55l-2.11 2.094L6 16.228h4.204zm2.852-2.853l-2.11 2.094v-4.203l2.11 2.109zm-2.55 2.094l-2.093-2.094 2.094-2.11-.001 4.204zm2.854-2.413l-2.094-2.094h4.203l-2.109 2.094zm0-4.643l2.109 2.109h-4.203l2.094-2.109zm4.962-.304l-2.11 2.094V6l2.11 2.109zm-2.55 2.094L13.678 8.11 15.772 6v4.203zm-2.716 8.437l-2.11 2.094v-4.203l2.11 2.109zm-4.643 0l2.094-2.109v4.203L8.413 18.64zm10.212-5.584l-2.094-2.094h4.203l-2.109 2.094zm-2.094-2.534l2.094-2.11 2.11 2.11h-4.204zM15.47 21.493l-2.11 2.094-2.093-2.094h4.203zm-2.11-2.55l2.11 2.11h-4.203l2.093-2.11zm10.228-5.568l-2.109 2.094v-4.203l2.109 2.109zm-4.643 0l2.094-2.11v4.204l-2.094-2.094zm-5.266 10.53l2.094-2.108V26l-2.094-2.095zm2.534-2.108l2.11 2.109L16.212 26l.001-4.203zm2.413 1.79l-2.094-2.094h4.203l-2.109 2.094zm0-4.643l2.11 2.11H16.53l2.096-2.11zm2.853-2.413l2.11 2.11-2.11 2.093v-4.203zm-2.534 2.11l2.094-2.11v4.203l-2.094-2.093zm4.947-.32l-2.094-2.093H26l-2.108 2.093zm0-4.643L26 15.788h-4.203l2.095-2.11z" fill="#fff"/></svg>