<svg width="32" height="32" fill="none" xmlns="http://www.w3.org/2000/svg"><path d="M16 32c8.837 0 16-7.163 16-16S24.837 0 16 0 0 7.163 0 16s7.163 16 16 16z" fill="#EF494D"/><path fill-rule="evenodd" clip-rule="evenodd" d="M6 11.386c0-.213.173-.386.387-.386h5.024c2.318 0 3.768 1.196 3.768 2.885 0 .705-.322 1.346-.966 1.923.901.513 1.352 1.282 1.352 2.307C15.565 20.52 13.246 21 11.7 21H6.386A.386.386 0 016 20.614v-1.15c0-.214.173-.387.386-.387H11.7c1.095 0 1.643-.353 1.643-1.058 0-.705-.548-1.09-1.643-1.154H6.386A.386.386 0 016 16.48v-1.15c0-.214.173-.387.386-.387H11.7c.773-.128 1.16-.448 1.16-.961 0-.705-.387-1.058-1.16-1.058H6.386A.385.385 0 016 12.537V11.386zm10.435 0c0-.213.173-.386.386-.386h5.121c.213 0 .387.173.387.386v9.228a.385.385 0 01-.387.386h-1.45a.386.386 0 01-.386-.386V13.31a.387.387 0 00-.386-.387h-2.9a.386.386 0 01-.386-.386l.001-1.151zM23.68 11h1.933c.213 0 .386.173.386.386v1.15a.387.387 0 01-.386.387H23.68a.386.386 0 01-.386-.386v-1.15c0-.214.173-.387.386-.387z" fill="#fff"/></svg>