<svg width="32" height="32" fill="none" xmlns="http://www.w3.org/2000/svg"><path d="M16 32c8.837 0 16-7.163 16-16S24.837 0 16 0 0 7.163 0 16s7.163 16 16 16z" fill="#FFC04E"/><path d="M15.598 11.857h.003l-.03.13-.26 1.227h-.03L13.568 20.5h-2.179l1.747-7.286h-2.932L8.558 20.5H6.162l2.178-9h7.333l-.075.357zm4.141-.357h3.63c3.123.143 2.832 2.214 2.832 2.214H27l-.29.857h-.727c-.217.786-1.67 1.215-1.67 1.215 1.67.214 1.598 1.5 1.598 1.5h.799l-.218.857h-.654c-.167 1.19-1.222 1.768-2.089 2.043a5.35 5.35 0 01-1.62.243H17.56l2.179-8.929zM7.323 13.214H5l.436-1.714h2.323l-.436 1.714zm9.948 6.286l-1.888-4.429.799-3.428 1.887 4.214-.798 3.643zm5.554-4.429c.26 0 .51-.1.693-.282a.956.956 0 000-1.364.987.987 0 00-.693-.282H21.41l-.435 1.928h1.85zm-.489 3.715c.651 0 1.179-.496 1.179-1.107 0-.612-.525-1.108-1.179-1.108h-1.702l-.524 2.215h2.226z" fill="#fff"/></svg>