<svg width="32" height="32" fill="none" xmlns="http://www.w3.org/2000/svg"><path d="M16 32c8.837 0 16-7.163 16-16S24.837 0 16 0 0 7.163 0 16s7.163 16 16 16z" fill="#30C0F2"/><path d="M10.123 7h11.774s.312 1.554 1.98 1.658c0 0 5.522 12.85-7.919 18.342 0 0-12.399-3.938-8.023-18.238 0 0 1.876-.104 2.188-1.762zm11.15 1.023h-10.52l-.014.224c-.088.489-.333.83-.692 1.06a1.89 1.89 0 01-.732.271l-.184.018-.052.178c-.969 3.31-1.002 6.17-.239 8.61.626 2 1.759 3.64 3.252 4.95a12.48 12.48 0 002.595 1.753c.31.157.6.286.859.39.157.063.272.104.335.125l.098.03.095-.04c3.706-1.584 5.948-3.978 6.952-6.96.83-2.46.756-5.079.137-7.559a14.212 14.212 0 00-.472-1.515l-.064-.158-.171-.011c-.486-.032-.795-.23-.986-.548a1.367 1.367 0 01-.185-.56l-.012-.258zm-10.045.545c6.367.001 9.55.002 9.55.003.044.187.115.373.22.55.256.425.667.712 1.243.794.151.423.281.854.39 1.29.596 2.388.666 4.906-.125 7.254-.945 2.807-3.046 5.067-6.551 6.59-.348-.131-.688-.28-1.019-.449a11.935 11.935 0 01-2.481-1.674c-1.421-1.248-2.497-2.804-3.091-4.703-.718-2.295-.699-4.993.194-8.134.278-.064.543-.173.785-.324.436-.273.752-.7.885-1.197zm7.36 5.582h-.303c.03-.608-.105-1.932-1.75-2.3a2.612 2.612 0 00-1.444.066c-.642.228-1.408.801-1.437 2.234h-.223a.86.86 0 00-.86.855v3.575a.86.86 0 00.86.855h5.158a.86.86 0 00.86-.855v-3.575a.86.86 0 00-.86-.855h-.001zm-2.005 4.042h-1.146l.303-1.507a.673.673 0 01.27-1.291.674.674 0 11.27 1.291l.303 1.507zm-2.188-4.042c.028-.468.226-1.576 1.459-1.658 0 0 1.626-.089 1.597 1.658h-3.056z" fill="#fff"/></svg>