<svg xmlns="http://www.w3.org/2000/svg" viewBox="0 0 2000 2000"><linearGradient id="a" gradientUnits="userSpaceOnUse" x1="-2395.238" y1="4701.293" x2="1513.383" y2="792.673"><stop offset=".84" stop-color="#0087d7"/><stop offset="1" stop-color="#0087d7"/></linearGradient><path d="M1517.3 1517.3c-138.2 138.2-321.9 214.3-517.3 214.3-195.4 0-379.1-76.1-517.3-214.3-88.3-88.3-152.8-197.6-186.5-316.3h-218c93.4 430.5 480 742.2 921.7 742.2 441.8 0 828.3-311.7 921.7-742.2h-218c-33.6 118.7-98 228-186.3 316.3z" fill="url(#a)"/><linearGradient id="b" gradientUnits="userSpaceOnUse" x1="1835.356" y1="3303.49" x2="1835.356" y2="98.746"><stop offset=".885" stop-color="#0087d7"/><stop offset="1" stop-color="#0087d7"/></linearGradient><path d="M1727.5 921.9c2.8 26 4.1 52.3 4.1 78.1 0 25.9-1.4 52.1-4.1 78.1H1940c2.2-26.4 3.3-52.7 3.3-78.1 0-25.4-1.1-51.7-3.3-78.1h-212.5z" fill="url(#b)"/><linearGradient id="c" gradientUnits="userSpaceOnUse" x1="164.635" y1="3956.965" x2="164.635" y2="752.214"><stop offset=".373" stop-color="#0087d7"/><stop offset=".622" stop-color="#0087d7"/></linearGradient><path d="M268.4 1000c0-25.8 1.4-52.1 4.1-78.1H60c-2.2 26.3-3.3 52.6-3.3 78.1s1.1 51.8 3.3 78.1h212.5c-2.7-26-4.1-52.3-4.1-78.1z" fill="url(#c)"/><linearGradient id="d" gradientUnits="userSpaceOnUse" x1="-750.389" y1="3786.392" x2="1589.225" y2="-265.939"><stop offset=".557" stop-color="#0087d7"/><stop offset="1" stop-color="#0087d7"/></linearGradient><path d="M482.7 482.7C620.9 344.5 804.6 268.4 1000 268.4c195.4 0 379.1 76.1 517.3 214.3C1605.6 571 1670 680.3 1703.8 799h218c-93.4-430.5-480-742.2-921.7-742.2C558.2 56.7 171.7 368.5 78.3 799h218c33.6-118.7 98-228 186.4-316.3z" fill="url(#d)"/></svg>