<svg width="32" height="32" fill="none" xmlns="http://www.w3.org/2000/svg"><path d="M16 32c8.837 0 16-7.163 16-16S24.837 0 16 0 0 7.163 0 16s7.163 16 16 16z" fill="#408AF1"/><path d="M23.049 10.277a1.575 1.575 0 012.19-.537c.75.47.986 1.47.526 2.237-1.704 2.838-3.627 5.808-5.23 8.076-2.34 3.31-2.847 4.447-4.535 4.447-1.688 0-2.068-1.003-4.475-4.456-1.43-2.05-3.223-4.795-5.27-8.036A1.647 1.647 0 016.73 9.76a1.573 1.573 0 012.202.485c2.023 3.202 6.593 9.876 7.081 10.471.51-.604 5.372-7.667 7.036-10.44v.001z" fill="#fff"/></svg>