<svg width="32" height="32" fill="none" xmlns="http://www.w3.org/2000/svg"><path d="M16 32c8.837 0 16-7.163 16-16S24.837 0 16 0 0 7.163 0 16s7.163 16 16 16z" fill="#3165D4"/><path fill-rule="evenodd" clip-rule="evenodd" d="M8.846 7.428c.551-.473 1.324-.86 1.996-.587 1.21.49 4.456 7.044 4.456 7.044s4.543-6.46 6.174-7.048c.557-.201 1.32.152 1.902.588 2.042 1.528 2.253 3.66 2.077 4.252-.222.744-11.505 15.073-11.505 15.073-.338-.138-7.023-12.557-7.385-14.682-.346-2.031.832-3.411 2.285-4.64z" fill="#fff"/></svg>