<svg width="32" height="32" fill="none" xmlns="http://www.w3.org/2000/svg"><path d="M16 32c8.837 0 16-7.163 16-16S24.837 0 16 0 0 7.163 0 16s7.163 16 16 16z" fill="#B80000"/><path d="M25.893 11.387c.156.265.135.543-.02.815-.232.37-.446.747-.667 1.12-.606 1.036-1.212 2.072-1.82 3.108a6375.667 6375.667 0 01-3.644 6.182.74.74 0 01-.711.387c-.307-.014-.525-.166-.67-.431-.149-.265-.304-.527-.46-.791-.51-.872-1.022-1.742-1.533-2.611-.114-.197-.231-.39-.362-.608-.128.217-.249.41-.363.608l-1.533 2.61c-.157.262-.31.526-.46.792-.145.265-.362.417-.67.431a.746.746 0 01-.711-.387c-.577-.971-1.147-1.942-1.72-2.917a938.3 938.3 0 01-1.924-3.265c-.605-1.036-1.212-2.072-1.82-3.108-.22-.373-.438-.75-.666-1.12-.166-.272-.19-.55-.035-.815.152-.261.397-.387.712-.387 1.968.007 3.937.02 5.905.003.497-.003.794.187 1.026.601.497.887 1.026 1.752 1.537 2.629.214.37.425.743.642 1.113.017.027.045.048.07.071a.273.273 0 00.068-.07c.215-.37.425-.744.643-1.114.514-.877 1.04-1.746 1.537-2.629.231-.414.528-.604 1.025-.6 1.969.016 3.937.003 5.906-.004.321 0 .566.126.718.387zM15.05 17.142a.313.313 0 00.003-.261c-.1-.204-.232-.397-.349-.598-.704-1.202-1.409-2.4-2.11-3.605-.072-.123-.155-.167-.3-.167-1.312.007-2.625.007-3.937.01-.062 0-.124.01-.214.017 1.602 2.733 3.19 5.446 4.797 8.186.138-.23.255-.414.366-.604.586-.99 1.167-1.983 1.744-2.978zm4.01 3.582c1.605-2.74 3.194-5.453 4.8-8.186-.093-.007-.152-.017-.214-.017-1.313-.003-2.625-.003-3.937-.01-.145 0-.228.044-.3.166-.703 1.203-1.406 2.405-2.11 3.606-.118.197-.246.39-.35.598a.315.315 0 000 .261c.58.994 1.161 1.987 1.745 2.978.11.19.228.377.366.604z" fill="#fff"/></svg>