<svg width="32" height="32" fill="none" xmlns="http://www.w3.org/2000/svg"><path d="M16 32c8.837 0 16-7.163 16-16S24.837 0 16 0 0 7.163 0 16s7.163 16 16 16z" fill="#8200FF"/><path fill-rule="evenodd" clip-rule="evenodd" d="M18.414 13.166l-.68.167c-.614.15-1.044.69-1.044 1.31v4.538l-2.247.55a.69.69 0 01-.836-.492.662.662 0 01-.02-.164V11.52c0-.31.215-.58.522-.656l3.448-.844a.69.69 0 01.836.492c.014.053.02.108.02.163v2.491h.001zm-7.586-.042l-.852.209c-.614.15-1.045.69-1.045 1.31v4.58l-2.074.508A.69.69 0 016 19.075V11.52c0-.31.215-.58.522-.656l3.449-.844a.69.69 0 01.836.492c.014.053.02.108.02.163v2.45l.001-.001zm10.867-2.239l3.448-.844a.69.69 0 01.857.655v7.556c0 .31-.215.58-.522.655l-3.449.844a.69.69 0 01-.836-.491.662.662 0 01-.02-.164V11.54c0-.31.215-.58.522-.655z" fill="#fff"/><path opacity=".504" fill-rule="evenodd" clip-rule="evenodd" d="M12.897 13.314v5.761c0 .11.013.22.04.328a1.38 1.38 0 001.511 1.013v.939c0 .31-.215.58-.522.655l-3.448.844a.69.69 0 01-.837-.491.662.662 0 01-.02-.164v-7.556c0-.31.215-.58.522-.655l2.754-.674zm7.586.042v5.74c0 .11.014.22.04.328.186.723.935 1.163 1.674.982l.01-.002v.95a.68.68 0 01-.522.656l-3.449.844a.69.69 0 01-.836-.491.662.662 0 01-.02-.164v-7.556c0-.31.215-.58.522-.655l2.58-.632h.001z" fill="#fff"/></svg>