<svg width="32" height="32" fill="none" xmlns="http://www.w3.org/2000/svg"><path d="M16 32c8.837 0 16-7.163 16-16S24.837 0 16 0 0 7.163 0 16s7.163 16 16 16z" fill="#FAA00D"/><path d="M25.992 14.471l-9.469 11.01-.425.519L6.007 14.582l.032-.013L6 14.563l3.922-6.557.002.002L9.922 8h12.254l-.002.007L26 14.47l-.008.001zm-13.136.459l-2.17 3.674 5.352 6.112 5.363-6.162-2.122-3.635-6.423.011zm-2.778 2.98l1.76-2.979-4.362.007 2.602 2.972zm9.723-3.846l4.954-.008-3.11-5.208-4.882.01 3.038 5.206zm4.771.846l-4.273.007 1.713 2.935 2.56-2.942zm-5.791-.844L16.09 9.454l-2.73 4.62 5.421-.008zm-8.399-5.194l-3.1 5.213 5.06-.009 3.08-5.214-5.04.01z" fill="#fff"/></svg>