<svg width="32" height="32" fill="none" xmlns="http://www.w3.org/2000/svg"><path d="M16 32c8.837 0 16-7.163 16-16S24.837 0 16 0 0 7.163 0 16s7.163 16 16 16z" fill="#4F7AA2"/><path d="M13.309 12h2.738c1.322 0 3.683.803 3.683 4s-2.36 4-3.683 4H13.31l-.001-8zm1.51 6.38h1.134c.944 0 2.077-.578 2.077-2.38s-1.133-2.38-2.077-2.38H14.82l-.001 4.76zM20.77 12h.566l5.098 7.026V12H27v8h-.567l-5.098-6.872V20h-.567l.002-8zM5 12h1.888v2H5v-2zm2.833 0H9.72v2H7.833v-2zm2.832 0h1.889v2h-1.889v-2zm0 3h1.889v2h-1.889v-2zm0 3h1.889v2h-1.889v-2zm-2.832-3H9.72v2H7.833v-2z" fill="#fff"/></svg>