<svg width="32" height="32" fill="none" xmlns="http://www.w3.org/2000/svg"><path d="M16 32c8.837 0 16-7.163 16-16S24.837 0 16 0 0 7.163 0 16s7.163 16 16 16z" fill="#67B2E8"/><path fill-rule="evenodd" clip-rule="evenodd" d="M6.145 11.954A19.83 19.83 0 016 9.636a20.035 20.035 0 014.152-1.779c2.03-.61 4.143-.899 6.262-.853.568.011 1.39.074 2.014.141a6.005 6.005 0 00-3.065 4.19c-.06.314-.093.64-.104.988-.016.536-.068.958-.18 1.353a4.53 4.53 0 01-8.469.672 1.474 1.474 0 01-.1-.3c-.158-.691-.28-1.39-.365-2.094zm16.613 8.56c-.238.37-.49.73-.752 1.085a5.898 5.898 0 00-.73-2.89 5.933 5.933 0 00-2.146-2.263l-.09-.055-.149-.09c-1.137-.723-1.83-1.735-2.074-3.041A4.518 4.518 0 0120.2 8.041c.82-.198 1.63-.17 2.437.083.619.195 1.245.45 2.008.807.44.207.884.437 1.356.704a20.114 20.114 0 01-.452 4.148 20.146 20.146 0 01-2.79 6.731h-.001zm-3.037 3.673A20.518 20.518 0 0116.001 27a20.374 20.374 0 01-8.305-9.361c.74.435 1.566.703 2.42.785a6.026 6.026 0 003.614-.773 4.62 4.62 0 011.706-.569 4.52 4.52 0 014.902 3.206c.335 1.121.237 2.222-.283 3.307-.044.092-.082.166-.172.343l-.044.087a.582.582 0 01-.118.162z" fill="#fff"/></svg>