<svg width="32" height="32" fill="none" xmlns="http://www.w3.org/2000/svg"><path d="M16 32c8.837 0 16-7.163 16-16S24.837 0 16 0 0 7.163 0 16s7.163 16 16 16z" fill="#004A80"/><path fill-rule="evenodd" clip-rule="evenodd" d="M23 19.54L21.517 25H9v-.913l6.79-7.719-6.653-8.376V7h12.331l.43 4.252h-.79c-.521-.969-.963-1.694-1.328-2.175-.364-.481-.689-.78-.975-.899-.202-.098-.48-.168-.834-.21a10.88 10.88 0 00-1.273-.065h-3.503l5.249 6.54v.315l-6.488 7.365h7.405c.364 0 .698-.087 1-.26.302-.174.564-.392.785-.654.232-.27.438-.563.615-.873.19-.329.356-.67.498-1.022l.741.226z" fill="#fff"/></svg>