<svg width="32" height="32" fill="none" xmlns="http://www.w3.org/2000/svg"><path d="M16 32c8.837 0 16-7.163 16-16S24.837 0 16 0 0 7.163 0 16s7.163 16 16 16z" fill="#F60"/><path d="M28 16c0 6.628-5.372 12-12 12S4 22.628 4 16c0-2.681.881-5.156 2.362-7.153l1.96 1.96A9.222 9.222 0 006.728 16c0 5.11 4.153 9.262 9.263 9.262 5.109 0 9.262-4.153 9.262-9.262 0-1.852-.556-3.66-1.594-5.194l1.96-1.96A11.86 11.86 0 0128 16z" fill="#fff"/><path d="M22.637 16A6.644 6.644 0 0116 22.637 6.644 6.644 0 019.362 16c0-1.153.3-2.287.872-3.29L16 18.474l5.766-5.766A6.644 6.644 0 0122.638 16" fill="#fff"/><path d="M23.847 6.925L16 14.762l-5.981-5.971-1.866-1.866A11.907 11.907 0 0116 4c3 0 5.738 1.097 7.847 2.925z" fill="#fff"/></svg>