<svg width="32" height="32" fill="none" xmlns="http://www.w3.org/2000/svg"><path d="M16 32c8.837 0 16-7.163 16-16S24.837 0 16 0 0 7.163 0 16s7.163 16 16 16z" fill="#F60"/><path d="M15.97 5.235c5.985 0 10.825 4.84 10.825 10.824a11.07 11.07 0 01-.558 3.432h-3.226v-9.094l-7.04 7.04-7.04-7.04v9.094H5.704a11.07 11.07 0 01-.557-3.432c0-5.984 4.84-10.824 10.824-10.824h-.001zM14.358 19.02L16 20.635l1.613-1.614 3.051-3.08v5.72h4.547a10.807 10.807 0 01-9.24 5.192c-3.902 0-7.334-2.082-9.24-5.192h4.546v-5.72l3.08 3.08.001-.001z" fill="#fff"/></svg>