<svg width="32" height="32" fill="none" xmlns="http://www.w3.org/2000/svg"><path d="M16 32c8.837 0 16-7.163 16-16S24.837 0 16 0 0 7.163 0 16s7.163 16 16 16z" fill="#D21E2B"/><path d="M16.14 5.855V3l10.626 6.132-2.457 1.428-8.169-4.705zm8.332 14.417v-9.408l2.481-1.428V21.7l-2.48-1.428h-.001zm-8.332 5.009l8.169-4.704 2.457 1.427-10.626 6.132v-2.855zM5.164 22.004l2.48-1.427 8.145 4.704v2.855L5.164 22.004zM5 9.436l2.457 1.428v9.408L5 21.7V9.436zm.164-.304L15.789 3v2.855L7.645 10.56 5.164 9.132zm10.824-3.008L7.797 10.83v9.455l8.191 4.728 8.168-4.728V10.83l-8.168-4.705v-.001zm6.577 8.45l-.351.608-2.34-1.31-2.996 1.684 2.995 1.685 2.34-1.31.352.608-1.966 1.1 1.966 1.1-.351.609-1.966-1.1v2.2h-.726V17.85l-2.995-1.685v3.37l2.317 1.287-.351.597-1.966-1.1v2.2H15.8v-2.2l-1.966 1.1-.374-.608 2.34-1.288v-3.358l-2.996 1.685v2.598h-.749v-2.2l-1.942 1.1-.375-.609 1.966-1.1-1.966-1.1.375-.608 2.317 1.31 3.019-1.685-3.02-1.685-2.316 1.31-.375-.608 1.966-1.1-1.966-1.1.375-.608 1.942 1.1v-2.212h.75v2.598l2.995 1.685v-3.358l-2.317-1.288.351-.608 1.966 1.1v-2.2h.726v2.2l1.966-1.1.35.608-2.316 1.288v3.37l2.995-1.685v-2.61h.726v2.2l1.966-1.1.35.609-1.965 1.1 1.966 1.111.001.001z" fill="#fff"/></svg>