<svg width="32" height="32" fill="none" xmlns="http://www.w3.org/2000/svg"><path d="M16 32c8.837 0 16-7.163 16-16S24.837 0 16 0 0 7.163 0 16s7.163 16 16 16z" fill="#ECB244"/><path d="M15.096 19.846h6.297v3.35h-3.875c.064.958.097 1.847.161 2.804h-3.261v-2.77h-3.876c0-1.093-.129-2.187.065-3.213.097-.547.678-1.026 1.033-1.504a461.926 461.926 0 013.714-4.581c.485-.582.969-1.129 1.518-1.778h-6.04v-3.35h3.586V6h3.132v2.735h3.908c0 1.128.129 2.222-.065 3.248-.097.547-.678 1.026-1.065 1.504a461.926 461.926 0 01-3.714 4.581 37.072 37.072 0 01-1.518 1.778z" fill="#fff"/></svg>