<svg width="32" height="32" fill="none" xmlns="http://www.w3.org/2000/svg"><path d="M16 32c8.837 0 16-7.163 16-16S24.837 0 16 0 0 7.163 0 16s7.163 16 16 16z" fill="#49C1BF"/><path d="M9 7.281l11.114 5.383 2.845-1.282L11.891 6 9 7.281z" fill="#fff" fill-opacity=".304"/><path d="M20.114 12.651l2.845-1.281v2.865l-2.845 1.281v-2.865zm0 13.284v-8.937l2.845-1.295v8.951l-2.845 1.281z" fill="#fff" fill-opacity=".646"/><path d="M9 7.284v2.897l7.693 3.737L9 17.728v2.856l11.114 5.373v-2.874l-7.548-3.671 7.548-3.881v-2.865L9 7.284z" fill="#fff"/></svg>