<svg width="194" height="32" fill="none" xmlns="http://www.w3.org/2000/svg"><g filter="url(#filter0_i_498_1756)"><path d="M70.282 19.04v-.528c0-1.587.524-2.843 1.57-3.768 1.048-.926 2.226-1.322 3.47-1.322 1.7 0 2.879.66 3.533 1.917l-8.573 3.702zm12.238-2.247c0-1.917-.72-3.438-2.094-4.627-1.374-1.19-3.141-1.785-5.236-1.785-1.308 0-2.617.33-3.795.925a7.569 7.569 0 00-3.01 2.777 8.098 8.098 0 00-1.244 4.363c0 2.38.785 4.363 2.356 5.817 1.57 1.454 3.468 2.182 5.628 2.182 2.487 0 4.647-.926 6.479-2.843l-1.898-2.115c-1.112 1.388-2.552 2.049-4.254 2.049-1.701 0-3.076-.595-4.123-1.851l11.191-4.892zM63.417 11.372c-.916.595-1.636 1.455-2.16 2.38v-3.107h-3.272v15.602h3.272v-6.744c0-1.784.393-3.173 1.244-4.23.785-1.058 2.029-1.587 3.6-1.587h.195v-3.305c-1.047 0-2.028.33-2.879.991zM94.17 18.248c-.523-.331-.981-.595-1.44-.794-.457-.198-.916-.396-1.44-.529-.457-.132-1.046-.33-1.7-.462-.655-.133-1.113-.33-1.44-.53-.524-.264-.786-.594-.786-1.123 0-.595.262-.992.72-1.256.458-.265 1.113-.397 1.898-.397 1.44 0 2.814.397 4.123 1.256l1.243-2.446c-1.57-1.058-3.272-1.586-5.039-1.586s-3.206.462-4.319 1.322c-1.113.86-1.702 2.05-1.702 3.504 0 2.049 1.636 3.503 4.843 4.429.066 0 .197.066.328.132 2.028.595 3.075 1.322 3.075 2.116 0 .528-.196.991-.654 1.322-.458.33-.982.529-1.767.529-1.702 0-3.403-.662-5.236-2.05l-1.57 2.579a10.706 10.706 0 003.206 1.718c1.178.397 2.356.595 3.469.595 1.636 0 3.01-.463 4.123-1.322 1.047-.86 1.57-2.05 1.57-3.57.066-1.586-.457-2.71-1.504-3.437zM51.174 15.934c-.72.727-1.964 1.124-3.861 1.124H43.32V8.86h3.469c1.832 0 3.207.265 4.123.86.85.595 1.309 1.586 1.309 2.974-.066 1.455-.393 2.513-1.047 3.24zm2.421-8.462c-1.44-1.19-3.665-1.785-6.74-1.785h-7.003v20.494h3.403v-5.95h3.6c3.01 0 5.17-.595 6.61-1.719 1.439-1.124 2.159-2.975 2.159-5.487.065-2.512-.655-4.363-2.029-5.553zM103.396 23.602c-.72 0-1.244-.198-1.636-.66-.393-.464-.589-1.059-.589-1.786v-7.933h4.057V10.58h-4.057V5.687h-3.272V21.09c0 1.653.458 2.975 1.44 3.9.981.992 2.159 1.455 3.533 1.455 1.375 0 2.618-.529 3.796-1.587l-1.309-2.314c-.589.728-1.309 1.058-1.963 1.058zM118.261 22.148c-.917.925-1.964 1.454-3.273 1.454-1.309 0-2.421-.462-3.337-1.388-.982-.925-1.44-2.181-1.44-3.636 0-1.52.458-2.776 1.374-3.768.916-.992 2.029-1.52 3.338-1.52 1.309 0 2.421.528 3.272 1.52.916.992 1.309 2.248 1.309 3.702.131 1.454-.327 2.644-1.243 3.636zm1.308-8.859c-1.308-1.983-3.01-2.908-5.039-2.908s-3.796.727-5.301 2.181c-1.505 1.455-2.225 3.372-2.225 5.818 0 2.446.72 4.363 2.16 5.884 1.439 1.454 3.141 2.247 5.104 2.247.982 0 1.964-.264 2.88-.727.982-.463 1.767-1.19 2.356-2.05v2.579h3.272V10.579h-3.272l.065 2.71z" fill="#1F0047"/><path d="M171.003 22.082c-.917.925-2.095 1.454-3.469 1.454-1.44 0-2.552-.463-3.468-1.454-.917-.926-1.375-2.182-1.375-3.702s.458-2.71 1.375-3.702c.916-.926 2.094-1.455 3.468-1.455 1.44 0 2.552.463 3.469 1.455.916.925 1.374 2.181 1.374 3.702.065 1.52-.458 2.776-1.374 3.702zm-3.469-11.701c-2.356 0-4.254.793-5.824 2.313-1.571 1.587-2.356 3.438-2.356 5.686 0 2.247.785 4.165 2.356 5.685 1.57 1.587 3.468 2.314 5.824 2.314s4.254-.793 5.825-2.314c1.57-1.587 2.356-3.438 2.356-5.685 0-2.248-.786-4.165-2.356-5.686-1.571-1.52-3.534-2.313-5.825-2.313zM188.673 22.082c-.982.925-2.094 1.388-3.338 1.388-1.243 0-2.356-.463-3.272-1.454-.916-.926-1.309-2.182-1.309-3.636 0-1.455.458-2.71 1.309-3.702.916-.992 1.963-1.455 3.272-1.455 1.309 0 2.422.463 3.338 1.455.916.991 1.374 2.247 1.374 3.702.066 1.586-.393 2.776-1.374 3.702zm2.487-9.52c-1.44-1.454-3.273-2.181-5.301-2.181-2.095 0-3.731.991-5.04 2.974v-2.71h-3.272v21.287h3.272v-8.065c1.571 1.719 3.273 2.578 5.236 2.578 1.963 0 3.665-.727 5.105-2.248 1.439-1.52 2.225-3.437 2.225-5.883 0-2.38-.72-4.297-2.225-5.752zM151.828 10.38a5.862 5.862 0 00-3.011.793 5.309 5.309 0 00-2.094 2.248V4.496h-3.272v21.75h3.272v-8.462c0-1.454.393-2.578 1.244-3.305.85-.728 1.832-1.124 2.945-1.124 2.356 0 3.534 1.454 3.534 4.297v8.594h3.272V16.66c0-2.05-.524-3.57-1.636-4.694-1.113-1.057-2.487-1.586-4.254-1.586zM139.516 16.33c-1.047-.925-2.618-1.653-4.712-2.115-2.094-.53-3.468-.992-4.057-1.455-.655-.463-.982-1.058-.982-1.917 0-.86.327-1.454.982-1.851.654-.397 1.439-.595 2.486-.595.982 0 2.029.198 3.011.529 1.047.33 1.832.793 2.421 1.322l1.833-2.644c-.916-.794-2.029-1.389-3.338-1.851a11.297 11.297 0 00-3.861-.661c-2.029 0-3.73.528-5.039 1.52-1.375 1.058-2.029 2.512-2.029 4.363 0 1.851.589 3.306 1.832 4.231.589.463 1.309.86 2.095 1.19.785.33 1.897.661 3.403.992 1.505.33 2.552.793 3.141 1.19.589.463.916 1.058.916 1.85 0 .794-.327 1.455-.981 1.918-.655.463-1.506.727-2.618.727-2.225 0-4.32-.925-6.414-2.71l-2.159 2.644c2.486 2.182 5.301 3.305 8.442 3.305 2.16 0 3.927-.528 5.236-1.652 1.308-1.124 2.028-2.579 2.028-4.363-.065-1.653-.589-3.041-1.636-3.967z" fill="#E2066F"/><path d="M10.275 24.46c.262-.133.523-.199.785-.33.262-.133.59-.2.85-.331a6.79 6.79 0 011.114-.265c.523-.132 1.047-.198 1.57-.264a23.445 23.445 0 01-.981 2.776v.53a11.934 11.934 0 014.319 0v-.53l-.982-2.776c.524.066 1.047.132 1.57.264.393.066.72.199 1.113.265.328.066.59.198.851.33.262.066.524.198.785.33a13.776 13.776 0 014.778 3.57 16.073 16.073 0 005.497-12.097C31.544 7.14 24.476 0 15.772 0S0 7.14 0 15.932c0 4.826 2.094 9.123 5.497 12.097a15.647 15.647 0 014.778-3.57z" fill="#A0DBE8"/><path d="M11.321 27.37a8.924 8.924 0 012.356-.727v-.529l.982-2.776c-.524.066-1.047.132-1.57.264-.394.066-.72.198-1.113.264-.328.067-.59.199-.851.331l1.178.265-.982 2.908zM8.64 29.088c0-.264.065-.595.065-.925 0-.198.13-.33.327-.33h.262l.981-3.372a13.778 13.778 0 00-4.777 3.57c.72.66 1.505 1.19 2.356 1.719.262-.199.524-.463.785-.662zM21.38 24.46l.982 3.372h.262c.196 0 .327.133.327.33 0 .331 0 .596.066.926.261.199.458.463.72.662.85-.53 1.636-1.058 2.355-1.72-1.308-1.52-2.944-2.71-4.711-3.57zM19.508 24.462l1.178-.265c-.261-.132-.589-.198-.85-.33a6.786 6.786 0 00-1.113-.265c-.523-.132-1.047-.198-1.57-.264.261.925.588 1.85.981 2.776v.53c.785.131 1.57.396 2.356.726l-.982-2.909z" fill="#525353"/><path d="M15.838 27.831h2.226c-.066-.396-.066-.859-.066-1.255a11.932 11.932 0 00-4.32 0c0 .396 0 .793-.065 1.255h2.226zM7.917 29.746c.196.132.391.198.587.33.066-.33.13-.66.13-.99-.26.199-.521.463-.717.66z" fill="#000"/><path d="M11.19 27.831h2.421c.066-.396.066-.859.066-1.256-.785.133-1.57.397-2.356.727l-.13.53zM23.032 29.087c0 .33.065.66.13.989.197-.132.393-.198.588-.33-.195-.197-.457-.461-.718-.66zM20.477 27.833l-.131-.463a8.924 8.924 0 00-2.356-.728c0 .397 0 .794.065 1.257l2.422-.066z" fill="#000"/><path d="M11.19 27.833l.132-.463.85-2.909-1.178-.264c-.261.066-.523.198-.785.33L9.227 27.9h1.113l.85-.066zM20.346 27.369l.131.462h1.964l-.982-3.371c-.262-.132-.523-.198-.785-.33l-1.178.264.85 2.975z" fill="#AA9678"/><path d="M15.83 28.494H9.287c0 .595-.13 1.256-.262 1.85 2.03.992 4.32 1.521 6.741 1.521v-3.371h.066z" fill="#C0B098"/><path d="M22.381 28.494c-.069.069 0 .069 0 0 0 .069 0 .069 0 0zM22.3 28.494h-6.478v3.371c2.421 0 4.712-.529 6.74-1.52-.13-.595-.196-1.19-.261-1.851.065.066 0 .066 0 0z" fill="#AA9678"/><path d="M23.04 29.087c0-.264-.066-.595-.066-.925 0-.198-.131-.33-.327-.33H8.969c-.196 0-.327.131-.327.33 0 .33 0 .595-.066.925 0 .33-.065.661-.13.992.196.132.392.198.588.33.131-.595.197-1.19.262-1.85H22.254c0 .594.13 1.255.262 1.85.196-.066.393-.198.589-.33.065-.33 0-.661-.066-.992z" fill="#8B7460"/><path d="M20.346 25.581c-.064-.065-.064-.13-.128-.195.064.065.064.13.128.195z" fill="#525353"/><path d="M20.738 25.98l-.392-.396c.196.264.392.396.392.396z" fill="#AA9678"/><path d="M26.37 12.428s-.066 0 0 0c-.132-.198-.263-.33-.394-.528l-.196-.199-.065-.066-.131-.132v1.454l.589 2.579v.066l.392.462h.393v-.132a15.69 15.69 0 00-.589-3.504z" fill="#BBBCBD"/><path d="M26.168 15.867v.528c0 .066 0 .131-.065.198l.391-.462-.391-.462c0 .066.065.132.065.198z" fill="#676A6A"/><path d="M26.178 16.33v-.199-.066-.066-.198c0-.066 0-.133-.065-.199v-.066c-.066-.132-.066-.264-.13-.33v-.066l-.066-.067-.066-.066h-.065s-.066 0-.066-.066h-.326-.066s-.066 0-.066.066h-.065l-.066.066-.065.066v.067a.507.507 0 00-.131.33c0 .066 0 .132-.066.199v.264c0 .595.262 1.124.655 1.124.065 0 .13 0 .196-.066 0 0 .066 0 .066-.066h.065l.066-.067.065-.066v-.066s.066-.066.066-.132v-.066c0-.066.065-.132.065-.132s.065-.066.065-.133zm-.589-.397c-.13 0-.261-.198-.261-.397 0-.198.13-.396.261-.396s.262.198.262.396c-.065.265-.13.397-.262.397z" fill="#000"/><path d="M25.58 15.93c.143 0 .26-.177.26-.395 0-.219-.117-.396-.26-.396-.145 0-.262.177-.262.396 0 .218.117.395.261.395z" fill="#fff"/><path d="M25 15.603c.065-.133.065-.265.13-.33v-.067l.066-.066.065-.066h.066s.065 0 .065-.066h.393s.065 0 .065.066h.066l.065.066.066.066v.066c.065.066.13.198.13.33l-.588-2.577-.59 2.578z" fill="#909393"/><path d="M18.06 16.064v-.132-.132c0-.066 0-.066-.066-.132 0-.066 0-.066-.066-.132 0-.067-.065-.067-.065-.133-.066-.132-.131-.264-.262-.33-.13-.133-.262-.265-.458-.33-.066-.067-.196-.067-.262-.067h-.523c-.066 0-.197.066-.262.066-.066.066-.197.066-.262.132l-.196.199c-.131.132-.197.198-.262.33 0 .066-.066.066-.066.133 0 .066 0 .066-.065.132V16.395c0 .066.066.198.066.264.065.199.196.33.327.463.13.132.196.198.327.265.065 0 .065.066.13.066.066 0 .066 0 .132.066h.457c.197 0 .393-.066.59-.132.065-.067.196-.067.261-.133.131-.132.328-.264.393-.396a.503.503 0 00.131-.265v-.529c0 .067 0 0 0 0zm-1.44-.132a.59.59 0 01-.59-.595.59.59 0 111.178 0c-.065.33-.327.595-.589.595z" fill="#000"/><path d="M16.626 15.934a.592.592 0 00.59-.596.592.592 0 00-.59-.595.592.592 0 00-.589.595c0 .33.264.596.59.596z" fill="#fff"/><path d="M15.564 15.009l1.047-3.173v-.397-.132-.132-.067-.066a8.046 8.046 0 00-1.767-.198H14.19a8.146 8.146 0 00-3.01.793c-.786.397-1.571.86-2.226 1.455-.196.132-.327.33-.523.462l-.066.066c-.13.133-.327.331-.458.53 0 .066-.065.066-.065.132-.131.198-.262.33-.458.528l-.066.066c-.13.199-.262.397-.392.53 0 .066-.066.066-.066.132-.065.132-.196.33-.262.462h4.647l4.32-.991z" fill="#BBBCBD"/><path d="M19.498 14.676v-.397-.529-.396-.133c0-.33 0-.66-.065-.991-.066-.066-.197-.132-.328-.199-.065 0-.065-.066-.065-.066s-.065 0-.065-.066h-.066c-.196-.132-.458-.198-.654-.33-.524-.199-1.244-.397-1.636-.53v.728l1.047 3.173c.13.133.196.199.262.33 0 .067.065.067.065.133s.065.066.065.132 0 .066.066.133v.264h1.243c.066-.33.131-.793.131-1.256z" fill="#E2DDDB"/><path d="M18.123 20.626l.785-.793.458-.463c1.047-1.123 1.833-2.181 2.29-3.57v-.132-.198-.132c-.13-.595-.327-1.19-.523-1.719l-.13-.132c-.132-.132-.263-.198-.328-.33-.393-.331-.72-.596-1.113-.86 0 .33.066.66.066.992V14.809c-.066.463-.066.926-.196 1.388l-.131.727c-.328 1.256-.916 2.38-1.44 3.57-.131.33-.262.595-.393.926v.066c.131-.198.328-.33.393-.397 0-.264.13-.396.262-.463z" fill="#FBB040"/><path d="M15.578 15.006l.197-.198c.065-.066.13-.066.261-.133.066-.066.197-.066.262-.066h.524c.065 0 .196.066.262.066.196.066.327.199.458.33l-1.047-3.172-.917 3.173z" fill="#909393"/><path d="M15.245 16.66c-.066-.065-.066-.198-.066-.264v-.264V16v-.066-.133-.132c0-.066 0-.066.066-.132 0-.066.065-.066.065-.133.066-.132.197-.264.262-.33l-4.32 1.058 4.255 1.058a1.986 1.986 0 01-.262-.53z" fill="#676A6A"/><path d="M24.925 15.867s0-.066 0 0c0-.132.066-.199.066-.265l.589-2.578V11.57c-.458-.397-.982-.595-1.44-.595-.654 0-1.243.33-1.701.793-.524.463-.851 1.124-1.178 1.719 0 0 0 .066-.066.066l.262.264.589.595.262.265.327.33c.13.133.262.265.393.397.065.066.13.132.13.198.131.199.328.33.459.53l.065.065h1.244v-.33z" fill="#E2DDDB"/><path d="M5.824 17.717c.065-.265.196-.463.262-.661 0-.066.065-.133.065-.199.065-.198.13-.33.262-.462.065-.066.065-.133.13-.199 0-.066.066-.066.066-.132.066-.132.196-.33.262-.463 0-.066.065-.066.065-.132.131-.198.262-.396.393-.529l.065-.066c.131-.198.262-.397.459-.529 0-.066.065-.066.065-.132.13-.198.327-.33.458-.529l.066-.066c.196-.198.327-.33.523-.463.72-2.38 2.88-4.165 5.432-4.165 1.047 0 2.029.33 2.945.86.916.529 1.636 1.388 2.094 2.314 0 0 0 .066.066.066.392.264.785.529 1.112.86.131.131.262.197.327.33l.131.132s0-.066.066-.066c.392-2.314 1.374-3.967 2.552-3.967.916 0 1.702.926 2.16 2.38.13.132.261.33.392.53v.065-.066c-1.505-4.43-5.628-7.603-10.47-7.603-6.087 0-11.06 5.025-11.06 11.173 0 1.19.196 2.38.523 3.504.065-.33.13-.661.262-.992.196-.264.261-.529.327-.793z" fill="#525353"/><path d="M26.503 16.13l-.392.463c0 .067 0 .133-.066.133v.066c0 .066 0 .066-.065.132v.066l-.066.066c0 .066-.065.066-.065.066h-.066s-.065 0-.065.066c-.065 0-.13.066-.196.066-.327 0-.655-.462-.655-1.123h-1.243c.262.264.458.529.72.859.196.264.458.529.654.86v.066l.59.793.065.066c.196.264.458.595.654.86.393-1.058.589-2.248.589-3.438l-.393-.066z" fill="#fff"/><path d="M14.205 10.908H14.86c.59 0 1.179.066 1.768.199v.33-.264c.392.066 1.112.264 1.636.528.196.067.458.199.654.331h.066s.065 0 .065.066l.065.066c.131.066.262.199.328.199 0 0 0-.066-.066-.066a5.93 5.93 0 00-2.094-2.314 5.68 5.68 0 00-2.945-.86c-2.552 0-4.712 1.72-5.432 4.165.655-.595 1.44-1.058 2.225-1.454.982-.53 2.029-.794 3.076-.926zM22.373 11.703c.458-.463 1.047-.794 1.702-.794.523 0 .981.199 1.44.595l.13.132.066.067.196.198c-.523-1.454-1.309-2.38-2.16-2.38-1.177 0-2.225 1.653-2.552 3.966.327-.66.655-1.256 1.178-1.784z" fill="#000"/><path d="M11.9 26.444c.13.066.196.066.327.132 1.178.396 2.356.661 3.665.661 1.44 0 2.88-.264 4.123-.793.065 0 .13-.066.196-.066.13-.067.196-.067.327-.133.066-.066.197-.066.262-.132h-.065a3.524 3.524 0 01-1.178 0c-2.291-.33-2.814-1.454-2.684-2.578-.196-.066-.327-.198-.523-.33-1.767-1.257-2.814-2.645-2.814-2.645s1.374 1.058 3.403 1.851c.065 0 .065 0 .13.066a3.85 3.85 0 01.328-.925v-.067c.13-.33.262-.66.393-.925.523-1.19 1.112-2.314 1.44-3.57l.13-.727h-1.243c0 .198-.066.397-.131.595-.066.066-.066.198-.13.264-.132.133-.263.33-.394.397a.494.494 0 01-.261.132c-.197.066-.393.132-.59.132h-.13-.327c-.066 0-.066 0-.131-.066-.066 0-.066-.066-.131-.066-.131-.066-.262-.132-.327-.264l-4.254-1.058H6.664c0 .066-.065.066-.065.132-.066.066-.066.133-.131.199-.066.132-.197.33-.262.462 0 .067-.066.133-.066.199-.065.198-.196.396-.261.66-.066.265-.197.53-.262.728-.066.33-.196.661-.262.992.72 2.247 2.16 4.23 4.058 5.553.065.066.13.066.196.132.327.198.655.463.982.595.327 0 .785.264 1.309.463z" fill="#fff"/><path d="M19.569 22.94v.331c0 .198 0 .397.065.595 0 .132.065.265.065.33.066.199.131.331.197.463l.196.397c0 .066.066.066.066.132.065.066.065.132.13.132.066.067.131.133.131.199.197.264.393.396.393.396h.065c.524-.066.982-.198 1.506-.396.261-.066.523-.199.72-.33.065-.067.13-.067.196-.133 2.552-1.256 4.646-3.438 4.646-3.438-3.206 1.72-6.348 1.653-8.377 1.323z" fill="#9F2255"/><path d="M25.655 18.642l-.59-.793v-.066c-.196-.265-.457-.53-.654-.86-.261-.264-.458-.595-.72-.86 0 0 0-.065-.065-.065-.13-.199-.262-.33-.458-.53-.066-.065-.13-.131-.13-.197l-.394-.397c-.065-.132-.196-.199-.327-.33a649.57 649.57 0 00-1.112-1.125c.196.595.458 1.19.523 1.785 0 .133.066.33.066.463.261 2.116-.393 3.438-1.44 5.289-.066.132-.131.264-.262.396a3.137 3.137 0 00-.458 1.124c0 .133-.066.265-.066.33 2.095.331 5.17.397 8.377-1.19 0 0-.654-.925-1.57-2.18-.197-.265-.393-.596-.655-.86 0 .132-.065.066-.065.066z" fill="#E2066F"/><path d="M20.74 25.982l-.392-.397c-.066-.066-.066-.132-.131-.198-.066-.067-.066-.133-.131-.133 0-.066-.066-.066-.066-.132l-.196-.397c-.066-.132-.13-.33-.196-.462 0-.133-.066-.265-.066-.33 0-.2-.065-.398-.065-.596v-.33c0-.133.065-.265.065-.331.066-.33.262-.727.458-1.124.066-.132.131-.264.262-.396 1.047-1.785 1.702-3.174 1.44-5.29 0-.131-.066-.33-.066-.462 0 .132 0 .198-.065.264v.133c-.458 1.388-1.244 2.446-2.29 3.57-.131.132-.262.33-.459.462l-.785.794-.327.33-.393.397c-.13.264-.196.595-.327.925-.066 0-.066 0-.131-.066-2.029-.793-3.403-1.85-3.403-1.85s1.047 1.387 2.814 2.644c.196.132.327.264.524.33-.066 1.124.458 2.248 2.683 2.578.458.133.85.133 1.243.067z" fill="#000"/></g><defs><filter id="filter0_i_498_1756" x="0" y="-3.112" width="193.385" height="35.044" filterUnits="userSpaceOnUse" color-interpolation-filters="sRGB"><feFlood flood-opacity="0" result="BackgroundImageFix"/><feBlend in="SourceGraphic" in2="BackgroundImageFix" result="shape"/><feColorMatrix in="SourceAlpha" values="0 0 0 0 0 0 0 0 0 0 0 0 0 0 0 0 0 0 127 0" result="hardAlpha"/><feOffset dy="-3.112"/><feGaussianBlur stdDeviation="3.112"/><feComposite in2="hardAlpha" operator="arithmetic" k2="-1" k3="1"/><feColorMatrix values="0 0 0 0 0.627451 0 0 0 0 0.658824 0 0 0 0 0.745098 0 0 0 0.5 0"/><feBlend in2="shape" result="effect1_innerShadow_498_1756"/></filter></defs></svg>