<svg width="145" height="30" fill="none" xmlns="http://www.w3.org/2000/svg"><g filter="url(#filter0_i_104_1577)"><path d="M14.982 15.677c0 2.17-.65 3.986-1.899 5.5-1.348 1.564-3.097 2.32-5.194 2.32-2.148 0-3.847-.756-5.195-2.32-1.3-1.464-1.948-3.33-1.948-5.5s.649-3.986 1.948-5.5C4.042 8.663 5.79 7.856 7.889 7.856c2.147 0 3.846.757 5.194 2.321 1.25 1.514 1.899 3.33 1.899 5.5zm-4.246 0c0-.959-.25-1.817-.7-2.473-.5-.756-1.248-1.16-2.197-1.16-.95 0-1.649.404-2.198 1.16-.45.656-.7 1.514-.7 2.473 0 .959.25 1.816.7 2.523.5.757 1.248 1.16 2.198 1.16.949 0 1.648-.403 2.197-1.16.5-.707.7-1.564.7-2.523zm19.58 0c0 2.018-.6 3.784-1.748 5.298-1.249 1.665-2.847 2.472-4.795 2.472-1.399 0-2.548-.403-3.497-1.21 0 .201 0 .605.05 1.362.05.706.05 1.312.05 1.766 0 2.523-.75 3.835-2.248 3.835-.6 0-1.099-.202-1.498-.656-.4-.455-.6-.96-.6-1.615v-16.55c0-.606.2-1.11.6-1.564.4-.454.899-.656 1.498-.656.9 0 1.549.454 1.998 1.362.9-1.11 2.098-1.665 3.647-1.665 1.948 0 3.546.807 4.795 2.472 1.149 1.565 1.748 3.33 1.748 5.349zm-4.246 0c0-.959-.25-1.817-.699-2.473-.5-.756-1.249-1.16-2.198-1.16-.949 0-1.648.404-2.197 1.16-.45.656-.7 1.514-.7 2.473 0 .959.25 1.816.7 2.523.499.757 1.248 1.16 2.197 1.16.95 0 1.649-.403 2.198-1.16.45-.707.7-1.564.7-2.523zm19.631-.454c0 .706-.15 1.21-.5 1.463-.35.252-.849.404-1.548.404h-7.642c0 .807.4 1.463 1.148 1.867.6.353 1.35.504 2.248.504.7 0 1.499-.252 2.498-.706.949-.454 1.598-.707 1.848-.707.5 0 .899.202 1.249.555.35.354.5.808.5 1.312 0 1.16-.85 2.069-2.598 2.725a11.076 11.076 0 01-4.046.757c-2.198 0-3.996-.757-5.345-2.22-1.349-1.464-2.048-3.33-2.048-5.601 0-2.12.7-3.986 2.148-5.5 1.399-1.514 3.197-2.27 5.295-2.27 1.948 0 3.596.706 4.895 2.17 1.249 1.513 1.898 3.228 1.898 5.247zm-4.196-1.11c0-.656-.3-1.262-.899-1.766-.6-.555-1.199-.808-1.848-.808-.65 0-1.299.253-1.848.808-.6.555-.85 1.11-.85 1.766h5.445zm18.432 6.862c0 .605-.2 1.16-.6 1.614-.4.455-.899.657-1.498.657-1.499 0-2.198-1.211-2.198-3.583 0-.454.05-1.16.1-2.17.05-.958.1-1.715.1-2.17 0-2.522-.8-3.784-2.398-3.784s-2.397 1.262-2.397 3.785c0 .454.05 1.16.05 2.17.05 1.009.1 1.715.1 2.169 0 2.372-.75 3.582-2.198 3.582-.6 0-1.1-.201-1.499-.655-.4-.455-.6-.96-.6-1.615V10.429c0-.605.2-1.16.6-1.564.4-.454.9-.656 1.499-.656.999 0 1.698.454 2.098 1.362.699-1.11 1.898-1.665 3.646-1.665 1.598 0 2.897.455 3.846 1.262.95.908 1.449 2.17 1.449 3.784v8.023h-.1zm13.337-.505c0 .959-.6 1.716-1.849 2.321-.999.454-2.048.707-3.147.707-2.147 0-3.846-.757-5.194-2.321-1.299-1.464-1.948-3.33-1.948-5.5s.649-4.037 1.948-5.5c1.298-1.514 3.047-2.27 5.145-2.27 1.248 0 2.297.201 3.196.554 1.25.505 1.849 1.262 1.849 2.322 0 .504-.15 1.009-.5 1.412-.3.404-.75.606-1.249.606-.35 0-.849-.101-1.498-.353-.65-.253-1.15-.354-1.549-.354-.999 0-1.798.354-2.347 1.11-.5.656-.8 1.514-.8 2.523 0 .959.25 1.817.7 2.473.5.807 1.248 1.16 2.198 1.16.4 0 .999-.1 1.698-.353.75-.252 1.249-.353 1.548-.353.45 0 .9.202 1.2.605.399.303.599.757.599 1.211zm15.384.505c0 .605-.2 1.16-.6 1.614-.399.455-.898.657-1.498.657-.899 0-1.598-.455-1.998-1.363-.899 1.11-2.097 1.665-3.646 1.665-1.948 0-3.596-.858-4.845-2.472-1.149-1.514-1.698-3.28-1.698-5.298 0-2.019.549-3.785 1.698-5.298 1.249-1.665 2.897-2.473 4.845-2.473 1.549 0 2.747.555 3.646 1.665.4-.908 1.05-1.362 1.998-1.362.6 0 1.1.202 1.499.656.4.454.6.959.6 1.564v10.445zm-4.246-5.298c0-.959-.25-1.817-.699-2.473-.55-.756-1.249-1.16-2.198-1.16-.949 0-1.648.404-2.197 1.16-.45.656-.7 1.514-.7 2.473 0 .959.25 1.816.7 2.523.549.757 1.298 1.16 2.197 1.16.95 0 1.649-.403 2.198-1.16.45-.707.7-1.564.7-2.523zm15.036-5.55c0 .908-.45 1.564-1.3 1.866-.798.253-1.647.556-2.447.858-.899.505-1.348 1.463-1.348 2.826v5.247c0 .606-.2 1.16-.6 1.615-.4.454-.899.656-1.498.656-.6 0-1.15-.202-1.499-.656-.4-.454-.6-.959-.6-1.615V10.38c0-.606.2-1.16.6-1.564.4-.454.9-.656 1.499-.656.999 0 1.698.454 2.098 1.362.899-1.11 1.898-1.665 2.947-1.665.6 0 1.099.202 1.548.656.4.454.6 1.009.6 1.614zm11.089.15c0 .96-.35 1.565-1.099 1.817-.35.152-1.099.202-2.248.202v8.628c0 .606-.2 1.16-.6 1.615-.399.454-.899.656-1.498.656s-1.099-.202-1.499-.656c-.399-.454-.599-.959-.599-1.615v-8.628c-.849 0-1.498-.1-1.898-.353-.55-.303-.799-.858-.799-1.665s.299-1.362.849-1.665c.4-.202.999-.303 1.898-.303V6.494c0-2.17.699-3.23 2.098-3.23s2.098 1.06 2.098 3.23V8.31c1.149 0 1.898.05 2.248.202.649.252 1.049.858 1.049 1.766zm34.016-2.572c0-1.312-2.398-1.918-8.642-1.918-14.585 0-18.281-.605-22.277-4.844 1.648 2.523 2.597 7.266 18.032 7.064 16.084-.252 6.293 4.188 3.396 9.234 5.195-4.692 9.491-7.77 9.491-9.536zm-20.53 13.472c0 1.21-.999 2.22-2.198 2.22-1.198 0-2.197-1.01-2.197-2.22 0-1.211.999-2.22 2.197-2.22 1.249 0 2.198 1.009 2.198 2.22zm10.09 0c0 1.21-.999 2.22-2.198 2.22-1.198 0-2.197-1.01-2.197-2.22 0-1.211.999-2.22 2.197-2.22 1.199 0 2.198 1.009 2.198 2.22z" fill="url(#paint0_linear_104_1577)"/></g><defs><linearGradient id="paint0_linear_104_1577" x1="72.594" y1="23.293" x2="72.594" y2=".949" gradientUnits="userSpaceOnUse"><stop stop-color="#04B6F0"/><stop offset="1" stop-color="#3ECAF0"/></linearGradient><filter id="filter0_i_104_1577" x=".746" y="-2.169" width="143.807" height="31.368" filterUnits="userSpaceOnUse" color-interpolation-filters="sRGB"><feFlood flood-opacity="0" result="BackgroundImageFix"/><feBlend in="SourceGraphic" in2="BackgroundImageFix" result="shape"/><feColorMatrix in="SourceAlpha" values="0 0 0 0 0 0 0 0 0 0 0 0 0 0 0 0 0 0 127 0" result="hardAlpha"/><feOffset dy="-3.112"/><feGaussianBlur stdDeviation="3.112"/><feComposite in2="hardAlpha" operator="arithmetic" k2="-1" k3="1"/><feColorMatrix values="0 0 0 0 0.627451 0 0 0 0 0.658824 0 0 0 0 0.745098 0 0 0 0.5 0"/><feBlend in2="shape" result="effect1_innerShadow_104_1577"/></filter></defs></svg>