<svg width="152" height="26" fill="none" xmlns="http://www.w3.org/2000/svg"><g filter="url(#filter0_i_104_1454)"><path d="M55.683 15.056v-.413c0-1.239.409-2.22 1.227-2.942a3.97 3.97 0 012.708-1.032c1.328 0 2.248.516 2.759 1.497l-6.694 2.89zm9.555-1.755c0-1.497-.562-2.684-1.635-3.613-1.073-.929-2.452-1.393-4.087-1.393a6.612 6.612 0 00-2.964.722 5.91 5.91 0 00-2.35 2.168 6.322 6.322 0 00-.971 3.407c0 1.858.613 3.406 1.839 4.542 1.226 1.135 2.708 1.703 4.394 1.703 1.942 0 3.628-.723 5.059-2.22l-1.482-1.651c-.868 1.084-1.993 1.6-3.321 1.6-1.329 0-2.402-.464-3.22-1.445l8.738-3.82zM50.323 9.069c-.715.464-1.277 1.135-1.686 1.858V8.501h-2.555v12.181h2.555v-5.264c0-1.394.306-2.478.97-3.304.614-.826 1.585-1.239 2.811-1.239h.153v-2.58c-.817 0-1.584.258-2.248.774zM74.335 14.437a8.33 8.33 0 00-1.124-.62c-.358-.154-.716-.31-1.124-.412-.358-.104-.818-.258-1.33-.362-.51-.103-.868-.258-1.123-.413-.409-.206-.613-.464-.613-.877 0-.465.204-.774.562-.98.357-.207.868-.31 1.481-.31 1.125 0 2.198.31 3.22.98l.97-1.91c-1.226-.826-2.554-1.238-3.934-1.238-1.38 0-2.504.36-3.372 1.032-.87.67-1.329 1.6-1.329 2.736 0 1.6 1.277 2.735 3.781 3.458.051 0 .153.051.256.103 1.584.465 2.401 1.033 2.401 1.652 0 .413-.153.774-.51 1.032-.358.258-.767.413-1.38.413-1.329 0-2.657-.516-4.088-1.6l-1.226 2.013a8.361 8.361 0 002.503 1.342c.92.31 1.84.465 2.709.465 1.277 0 2.35-.362 3.219-1.033.817-.67 1.226-1.6 1.226-2.787.051-1.239-.358-2.116-1.175-2.684zM40.764 12.63c-.562.568-1.533.878-3.015.878h-3.117v-6.4h2.708c1.43 0 2.504.206 3.22.67.664.465 1.021 1.24 1.021 2.323-.05 1.136-.306 1.962-.817 2.53zm1.89-6.606c-1.124-.93-2.861-1.394-5.263-1.394h-5.467V20.63h2.657v-4.646h2.81c2.35 0 4.037-.464 5.161-1.341 1.124-.878 1.686-2.323 1.686-4.285.051-1.961-.51-3.406-1.584-4.335zM81.538 18.618c-.562 0-.97-.155-1.277-.516-.307-.362-.46-.826-.46-1.394v-6.194h3.168V8.45h-3.168V4.63h-2.555v12.027c0 1.29.358 2.323 1.124 3.046.767.774 1.686 1.135 2.76 1.135 1.073 0 2.043-.413 2.963-1.238l-1.022-1.807c-.46.568-1.022.826-1.533.826zM93.144 17.482c-.715.723-1.533 1.136-2.555 1.136-1.022 0-1.89-.361-2.605-1.084-.767-.723-1.125-1.703-1.125-2.839 0-1.187.358-2.168 1.073-2.942.716-.774 1.584-1.187 2.606-1.187 1.022 0 1.891.413 2.555 1.187.716.774 1.022 1.755 1.022 2.89.102 1.136-.255 2.065-.97 2.84zm1.022-6.916c-1.022-1.549-2.35-2.271-3.934-2.271s-2.964.567-4.14 1.703c-1.174 1.136-1.736 2.632-1.736 4.542 0 1.91.562 3.407 1.686 4.594 1.124 1.136 2.452 1.755 3.985 1.755.767 0 1.533-.206 2.249-.568.766-.361 1.38-.929 1.84-1.6v2.013h2.554V8.45h-2.555l.051 2.117z" fill="#1F0047"/><path d="M134.324 17.43a3.722 3.722 0 01-2.708 1.136c-1.124 0-1.993-.361-2.708-1.135-.715-.723-1.073-1.704-1.073-2.89 0-1.188.358-2.117 1.073-2.891a3.722 3.722 0 012.708-1.136c1.124 0 1.993.361 2.708 1.136.716.722 1.074 1.703 1.074 2.89.051 1.187-.358 2.168-1.074 2.89zm-2.708-9.135c-1.839 0-3.321.619-4.547 1.806-1.227 1.239-1.84 2.684-1.84 4.44 0 1.754.613 3.251 1.84 4.438 1.226 1.239 2.708 1.807 4.547 1.807 1.84 0 3.322-.62 4.548-1.807 1.226-1.239 1.84-2.684 1.84-4.439s-.614-3.252-1.84-4.439c-1.226-1.187-2.759-1.806-4.548-1.806zM148.121 17.43c-.766.723-1.635 1.085-2.606 1.085-.971 0-1.839-.362-2.555-1.136-.715-.723-1.022-1.703-1.022-2.839 0-1.135.358-2.116 1.022-2.89.716-.775 1.533-1.136 2.555-1.136 1.022 0 1.891.361 2.606 1.136.716.774 1.073 1.755 1.073 2.89.051 1.239-.306 2.168-1.073 2.89zm1.942-7.432c-1.124-1.136-2.555-1.703-4.139-1.703-1.635 0-2.913.774-3.935 2.322V8.501h-2.554v16.62h2.554v-6.297c1.227 1.342 2.555 2.013 4.088 2.013s2.862-.567 3.986-1.755c1.124-1.187 1.737-2.684 1.737-4.593 0-1.859-.562-3.356-1.737-4.491zM119.353 8.294a4.57 4.57 0 00-2.35.62 4.145 4.145 0 00-1.636 1.754V3.7h-2.555v16.982h2.555v-6.607c0-1.136.307-2.013.971-2.581.665-.568 1.431-.877 2.3-.877 1.839 0 2.759 1.135 2.759 3.355v6.71h2.555v-7.485c0-1.6-.409-2.787-1.278-3.664-.868-.826-1.941-1.24-3.321-1.24zM109.74 12.94c-.818-.723-2.044-1.29-3.679-1.652-1.635-.413-2.708-.774-3.168-1.136-.511-.361-.767-.826-.767-1.497 0-.67.256-1.135.767-1.445.511-.31 1.124-.464 1.942-.464.766 0 1.584.154 2.35.413.818.258 1.431.619 1.891 1.032l1.43-2.065c-.715-.62-1.584-1.084-2.606-1.445a8.813 8.813 0 00-3.014-.516c-1.584 0-2.913.413-3.935 1.187-1.073.826-1.584 1.961-1.584 3.407 0 1.445.46 2.58 1.431 3.303.46.362 1.022.671 1.635.93.613.257 1.482.515 2.657.773 1.175.259 1.993.62 2.453.93.46.36.715.825.715 1.445 0 .62-.255 1.135-.766 1.497-.511.361-1.176.567-2.044.567-1.738 0-3.373-.722-5.008-2.116l-1.686 2.065c1.942 1.703 4.139 2.58 6.592 2.58 1.686 0 3.065-.412 4.087-1.29 1.022-.877 1.584-2.013 1.584-3.406-.051-1.29-.459-2.375-1.277-3.097z" fill="#E2066F"/><path d="M8.83 19.287c.205-.103.41-.155.614-.258.204-.103.46-.155.664-.258.306-.103.562-.155.869-.206.408-.104.817-.155 1.226-.207a18.3 18.3 0 01-.766 2.168v.413a9.32 9.32 0 013.372 0v-.413l-.766-2.168c.408.052.817.103 1.226.207.306.051.562.154.868.206.256.052.46.155.665.258.204.052.409.155.613.258 1.38.62 2.657 1.549 3.73 2.788a12.55 12.55 0 004.292-9.446c0-6.865-5.518-12.44-12.314-12.44S.808 5.764.808 12.63c0 3.768 1.635 7.123 4.292 9.446a12.217 12.217 0 013.73-2.788z" fill="#A0DBE8"/><path d="M9.647 21.56a6.969 6.969 0 011.84-.568v-.413l.766-2.168c-.408.052-.817.103-1.226.207-.306.051-.562.155-.869.206-.255.052-.46.155-.664.258l.92.207-.767 2.27zM7.553 22.901c0-.206.051-.464.051-.722 0-.155.103-.258.256-.258h.204l.767-2.633a10.757 10.757 0 00-3.73 2.787c.562.517 1.175.93 1.84 1.343.204-.155.408-.362.612-.517zM17.502 19.288l.766 2.633h.205c.153 0 .255.103.255.258 0 .258 0 .464.051.722.205.155.358.362.562.517.665-.413 1.278-.826 1.84-1.343-1.022-1.187-2.3-2.116-3.679-2.787zM16.04 19.289l.92-.207c-.205-.103-.46-.155-.665-.258a5.293 5.293 0 00-.869-.206c-.408-.104-.817-.155-1.226-.207.205.723.46 1.445.767 2.168v.413c.613.103 1.226.31 1.84.568l-.767-2.271z" fill="#525353"/><path d="M13.175 21.92h1.737c-.051-.31-.051-.671-.051-.98a9.32 9.32 0 00-3.372 0c0 .309 0 .618-.052.98h1.738zM6.99 23.415c.152.103.305.154.458.257.051-.257.102-.515.102-.772-.204.155-.408.36-.56.515z" fill="#000"/><path d="M9.545 21.92h1.89c.052-.31.052-.671.052-.98-.614.102-1.227.309-1.84.567l-.102.413zM18.791 22.9c0 .257.051.515.102.772.153-.103.306-.154.459-.257a5.612 5.612 0 00-.561-.515zM16.796 21.92l-.102-.36a6.96 6.96 0 00-1.84-.569c0 .31 0 .62.052.981l1.89-.051z" fill="#000"/><path d="M9.546 21.92l.102-.36.664-2.272-.92-.206c-.204.051-.408.154-.613.258l-.766 2.632h.868l.665-.051zM16.695 21.558l.102.362h1.533l-.767-2.633c-.204-.103-.409-.154-.613-.258l-.92.207.665 2.322z" fill="#AA9678"/><path d="M13.169 22.437h-5.11c0 .464-.102.98-.205 1.445 1.585.774 3.373 1.187 5.264 1.187v-2.632h.05z" fill="#C0B098"/><path d="M18.283 22.437c-.054.054 0 .054 0 0 0 .054 0 .054 0 0zM18.22 22.437H13.16v2.632c1.89 0 3.68-.413 5.263-1.187-.102-.464-.153-.929-.204-1.445.05.051 0 .051 0 0z" fill="#AA9678"/><path d="M18.797 22.9c0-.206-.051-.464-.051-.722 0-.155-.102-.258-.255-.258H7.81c-.153 0-.255.103-.255.258 0 .258 0 .464-.051.722 0 .258-.052.517-.103.774.154.104.307.155.46.259.102-.465.154-.93.205-1.446H18.184c0 .465.102.981.204 1.446.154-.052.307-.155.46-.259.051-.258 0-.516-.05-.774z" fill="#8B7460"/><path d="M16.694 20.163c-.05-.05-.05-.102-.1-.152.05.05.05.101.1.152z" fill="#525353"/><path d="M17 20.474l-.307-.309c.154.206.307.31.307.31z" fill="#AA9678"/><path d="M21.396 9.893s-.05 0 0 0c-.102-.154-.204-.258-.306-.413l-.154-.154-.05-.052-.103-.103v1.135l.46 2.013v.052l.307.361h.306v-.103a12.247 12.247 0 00-.46-2.736z" fill="#BBBCBD"/><path d="M21.24 12.578V12.99c0 .051 0 .103-.051.155l.305-.361-.305-.36c0 .051.05.103.05.154z" fill="#676A6A"/><path d="M21.248 12.94v-.156-.051-.052-.155c0-.051 0-.103-.052-.155v-.051c-.05-.104-.05-.207-.102-.258v-.052l-.05-.051-.052-.052h-.051s-.051 0-.051-.052h-.256-.05s-.052 0-.052.052h-.05l-.052.052-.051.051v.052a.396.396 0 00-.102.258c0 .051 0 .103-.051.155v.206c0 .465.204.878.51.878.052 0 .103 0 .154-.052 0 0 .051 0 .051-.052h.051l.051-.051.051-.052V13.3s.051-.051.051-.103v-.051c0-.052.052-.104.052-.104s.05-.051.05-.103zm-.46-.31c-.102 0-.205-.155-.205-.31s.103-.31.205-.31.204.155.204.31c-.051.206-.102.31-.204.31z" fill="#000"/><path d="M20.78 12.628c.113 0 .204-.139.204-.31 0-.17-.091-.308-.204-.308-.113 0-.204.138-.204.309 0 .17.091.309.204.309z" fill="#fff"/><path d="M20.327 12.372c.051-.103.051-.207.102-.258v-.052l.051-.051.052-.052h.05s.052 0 .052-.052h.306s.051 0 .051.052h.052l.05.052.052.051v.052a.396.396 0 01.102.258l-.46-2.013-.46 2.013z" fill="#909393"/><path d="M14.908 12.732v-.103-.103c0-.052 0-.052-.051-.104 0-.051 0-.051-.051-.103 0-.051-.051-.051-.051-.103-.051-.103-.102-.207-.205-.258-.102-.103-.204-.207-.357-.258-.051-.052-.154-.052-.205-.052h-.408c-.052 0-.154.052-.205.052-.05.051-.153.051-.204.103l-.153.155a.905.905 0 00-.205.258c0 .052-.051.052-.051.103 0 .052 0 .052-.051.103v.568c0 .052.051.155.051.207.051.155.153.258.255.361a.9.9 0 00.256.207c.051 0 .051.051.102.051s.051 0 .102.052h.358c.153 0 .307-.052.46-.103.051-.052.153-.052.204-.104.102-.103.256-.206.307-.31a.393.393 0 00.102-.206v-.413c0 .052 0 0 0 0zm-1.124-.103a.46.46 0 01-.46-.465.46.46 0 11.92 0c-.051.258-.256.465-.46.465z" fill="#000"/><path d="M13.79 12.63c.254 0 .46-.208.46-.465a.462.462 0 00-.46-.464.462.462 0 00-.46.464c0 .257.206.465.46.465z" fill="#fff"/><path d="M12.96 11.908l.818-2.478v-.31-.102-.104-.051-.052a6.282 6.282 0 00-1.38-.155h-.51a6.361 6.361 0 00-2.351.62c-.613.31-1.227.67-1.738 1.135-.153.103-.255.258-.408.362l-.051.051a2.943 2.943 0 00-.358.413c0 .052-.051.052-.051.103-.102.155-.205.258-.358.413l-.051.052c-.102.155-.204.31-.307.413 0 .051-.05.051-.05.103-.052.103-.154.258-.205.361h3.628l3.372-.774z" fill="#BBBCBD"/><path d="M16.032 11.648v-.31-.412-.31-.103c0-.258 0-.517-.051-.775-.051-.051-.153-.103-.256-.155-.05 0-.05-.051-.05-.051s-.052 0-.052-.052h-.05c-.154-.103-.359-.155-.512-.258-.409-.155-.97-.31-1.277-.413V9.377l.817 2.478c.102.103.153.154.205.258 0 .051.05.051.05.103s.052.052.052.103c0 .052 0 .052.05.103v.207h.972a5.25 5.25 0 00.102-.98z" fill="#E2DDDB"/><path d="M14.958 16.294l.613-.62c.103-.102.256-.257.358-.36.818-.878 1.43-1.704 1.789-2.788v-.103-.155-.103c-.103-.465-.256-.93-.41-1.342l-.101-.103c-.103-.104-.205-.155-.256-.258a9.831 9.831 0 00-.869-.671c0 .258.052.516.052.774V11.752c-.052.361-.052.723-.154 1.084l-.102.568c-.255.98-.715 1.858-1.124 2.787-.102.258-.204.465-.307.723v.051c.103-.155.256-.258.307-.31 0-.206.102-.31.204-.36z" fill="#FBB040"/><path d="M12.972 11.906l.153-.155c.051-.052.102-.052.204-.103.051-.052.154-.052.205-.052h.409c.05 0 .153.052.204.052.153.051.255.155.358.258l-.818-2.478-.715 2.478z" fill="#909393"/><path d="M12.71 13.198c-.05-.052-.05-.155-.05-.207v-.206-.103-.052-.103-.103c0-.052 0-.052.05-.104 0-.051.052-.051.052-.103.051-.103.153-.206.204-.258l-3.372.826 3.321.826a1.552 1.552 0 01-.204-.413z" fill="#676A6A"/><path d="M20.27 12.578s0-.052 0 0c0-.103.05-.155.05-.207l.46-2.013V9.223c-.357-.31-.766-.465-1.124-.465-.51 0-.97.259-1.328.62-.409.361-.665.877-.92 1.342 0 0 0 .051-.051.051l.204.207.46.464.205.207.255.258.307.31c.05.051.102.103.102.154.102.155.255.259.358.413l.05.052h.972v-.258z" fill="#E2DDDB"/><path d="M5.355 14.023c.051-.207.153-.362.204-.517 0-.051.051-.103.051-.154a.834.834 0 01.205-.362c.051-.051.051-.103.102-.155 0-.051.051-.051.051-.103.051-.103.153-.258.205-.361 0-.052.05-.052.05-.103.103-.155.205-.31.307-.413l.051-.052c.103-.155.205-.31.358-.413 0-.052.051-.052.051-.103.102-.155.256-.258.358-.413l.05-.052c.154-.155.256-.258.41-.361.562-1.858 2.248-3.252 4.24-3.252.818 0 1.585.258 2.3.671.716.413 1.278 1.084 1.635 1.807 0 0 0 .051.051.051.307.207.614.413.87.671.101.104.204.155.255.258l.102.104s0-.052.05-.052c.308-1.807 1.074-3.097 1.994-3.097.715 0 1.328.723 1.686 1.858.102.103.204.258.306.413v.052-.052c-1.175-3.458-4.394-5.936-8.175-5.936-4.752 0-8.636 3.923-8.636 8.724 0 .929.154 1.858.41 2.735.05-.258.101-.516.203-.774.154-.207.205-.413.256-.62z" fill="#525353"/><path d="M21.501 12.784l-.306.361c0 .052 0 .104-.051.104v.051c0 .052 0 .052-.051.103v.052l-.052.052c0 .051-.05.051-.05.051h-.052s-.05 0-.05.052c-.052 0-.103.052-.154.052-.256 0-.511-.362-.511-.878h-.971c.204.207.358.413.562.671.153.207.358.413.511.671v.052l.46.619.051.052c.153.206.358.464.511.67.307-.825.46-1.754.46-2.683l-.307-.052z" fill="#fff"/><path d="M11.9 8.707h.51c.46 0 .92.051 1.38.154v.258-.206c.306.052.869.206 1.277.413.154.052.358.155.511.258h.051s.052 0 .052.052l.05.051c.103.052.205.155.256.155 0 0 0-.052-.051-.052a4.63 4.63 0 00-1.635-1.806 4.435 4.435 0 00-2.3-.671c-1.992 0-3.679 1.342-4.24 3.252.51-.465 1.123-.826 1.737-1.136.766-.413 1.584-.62 2.401-.722zM18.277 9.327c.357-.362.817-.62 1.328-.62.41 0 .767.155 1.124.465l.103.103.05.052.154.154c-.409-1.135-1.022-1.858-1.686-1.858-.92 0-1.738 1.29-1.993 3.097.255-.516.51-.98.92-1.393z" fill="#000"/><path d="M10.1 20.836c.101.052.152.052.255.104.92.31 1.84.516 2.861.516 1.124 0 2.248-.207 3.22-.62.05 0 .102-.051.153-.051.102-.052.153-.052.255-.104.051-.051.153-.051.204-.103h-.05a2.752 2.752 0 01-.92 0c-1.789-.258-2.198-1.135-2.095-2.013-.154-.052-.256-.155-.41-.258a10.94 10.94 0 01-2.197-2.065s1.074.826 2.658 1.446c.05 0 .05 0 .102.051.051-.258.153-.516.255-.722v-.052c.102-.258.205-.516.307-.723.409-.929.869-1.806 1.124-2.787l.102-.568h-.97c0 .155-.052.31-.103.465-.05.051-.05.155-.102.206-.102.104-.204.258-.307.31a.385.385 0 01-.204.103c-.153.052-.306.104-.46.104h-.102-.255c-.052 0-.052 0-.103-.052-.05 0-.05-.052-.102-.052-.102-.051-.204-.103-.255-.206l-3.322-.826H6.011c0 .052-.05.052-.05.103-.052.052-.052.103-.103.155-.051.103-.153.258-.204.361 0 .052-.052.104-.052.155-.05.155-.153.31-.204.516-.051.207-.153.413-.204.568-.051.258-.154.516-.205.774.562 1.755 1.686 3.304 3.168 4.336.051.052.103.052.154.103.255.155.51.362.766.465.256 0 .613.206 1.022.361z" fill="#fff"/><path d="M16.087 18.101v.258c0 .155 0 .31.051.465 0 .103.051.206.051.258.051.155.102.258.153.361l.154.31c0 .051.05.051.05.103.052.052.052.103.103.103.051.052.102.103.102.155.153.206.307.31.307.31h.05a4.946 4.946 0 001.176-.31c.204-.052.409-.155.562-.258.051-.052.102-.052.154-.103 1.992-.981 3.627-2.684 3.627-2.684-2.503 1.342-4.956 1.29-6.54 1.032z" fill="#9F2255"/><path d="M20.839 14.745l-.46-.62v-.051c-.153-.207-.358-.413-.51-.671-.205-.207-.358-.465-.563-.671 0 0 0-.052-.051-.052-.102-.155-.204-.258-.358-.413-.05-.051-.102-.103-.102-.154l-.307-.31c-.05-.103-.153-.155-.255-.258l-.204-.207-.46-.464-.205-.207c.154.465.358.93.41 1.394 0 .103.05.258.05.361.205 1.652-.306 2.684-1.124 4.13-.051.103-.102.206-.204.31a2.45 2.45 0 00-.358.877c0 .103-.051.206-.051.258 1.635.258 4.037.31 6.54-.93 0 0-.51-.722-1.226-1.703-.153-.206-.306-.464-.51-.67 0 .102-.052.05-.052.05z" fill="#E2066F"/><path d="M17.002 20.476l-.307-.31c-.05-.052-.05-.103-.102-.155-.05-.052-.05-.103-.102-.103 0-.052-.051-.052-.051-.104l-.153-.31c-.052-.102-.103-.257-.154-.36 0-.104-.05-.207-.05-.259 0-.154-.052-.31-.052-.464v-.258c0-.104.051-.207.051-.258.051-.258.205-.568.358-.878.051-.103.102-.206.204-.31.818-1.393 1.329-2.477 1.124-4.129 0-.103-.05-.258-.05-.361 0 .103 0 .155-.052.206v.104c-.358 1.084-.97 1.91-1.788 2.787-.102.103-.205.258-.358.361l-.613.62-.256.258-.306.31c-.102.206-.153.464-.256.722-.05 0-.05 0-.102-.052a11.88 11.88 0 01-2.657-1.445s.818 1.084 2.197 2.065c.154.103.256.206.41.258-.052.877.357 1.755 2.094 2.013.358.103.664.103.97.052z" fill="#000"/></g><defs><filter id="filter0_i_104_1454" x=".808" y="-2.922" width="150.992" height="28.044" filterUnits="userSpaceOnUse" color-interpolation-filters="sRGB"><feFlood flood-opacity="0" result="BackgroundImageFix"/><feBlend in="SourceGraphic" in2="BackgroundImageFix" result="shape"/><feColorMatrix in="SourceAlpha" values="0 0 0 0 0 0 0 0 0 0 0 0 0 0 0 0 0 0 127 0" result="hardAlpha"/><feOffset dy="-3.112"/><feGaussianBlur stdDeviation="3.112"/><feComposite in2="hardAlpha" operator="arithmetic" k2="-1" k3="1"/><feColorMatrix values="0 0 0 0 0.627451 0 0 0 0 0.658824 0 0 0 0 0.745098 0 0 0 0.5 0"/><feBlend in2="shape" result="effect1_innerShadow_104_1454"/></filter></defs></svg>