<svg width="119" height="27" fill="none" xmlns="http://www.w3.org/2000/svg"><g filter="url(#filter0_i_104_1567)"><path d="M91.585 20.055c-3.192 0-5.783-2.664-5.783-5.89 0-3.224 2.637-5.842 5.83-5.842 2.36 0 4.441 1.45 5.367 3.6h3.886c-.092-.328-.138-.608-.277-.935l2.221-2.057-1.111-1.963-3.007.841c-.278-.28-.51-.56-.833-.841l.925-2.851-1.943-1.169-2.267 2.104c-.37-.14-.787-.234-1.157-.327l-.694-2.898-2.22-.047-.787 2.991c-.417.094-.833.187-1.25.327l-2.082-2.196-1.943 1.075.833 3.038c-.278.28-.555.514-.787.794L81.5 6.968l-1.157 1.916 2.267 2.244a4.783 4.783 0 00-.277 1.168l-2.915.841-.046 2.244 3.007.794c.093.421.185.795.324 1.216l-2.314 2.01 1.065 1.962 3.1-.84c.231.28.509.513.786.794l-.74 3.131 1.897 1.075 2.267-2.243c.324.14.694.187 1.064.28l.74 3.085h2.221l.74-3.085a11.48 11.48 0 001.204-.327l2.082 2.243 1.99-1.121-.834-2.992c.324-.28.602-.56.88-.888l2.868.888 1.157-1.963-1.805-1.776h-4.626c-1.25 1.59-3.008 2.477-4.859 2.43z" fill="#7ABF42"/><path d="M.251 2.995h4.257l5.32 16.919 5.414-16.966h3.47l5.413 16.966 5.321-16.92h4.118L26.3 25.945h-4.072l-5.32-16.36-5.044 16.36h-4.21L.25 2.993zM35.509 2.995h3.84v9.488h9.809V2.995h3.886v22.809h-3.886v-9.628h-9.809v9.628h-3.84V2.995zM55.68 2.995h4.442l6.57 9.535 6.57-9.535h4.627v22.809h-4.21V8.93l-6.94 10.189-7.126-10.142v16.826h-3.932V2.995zM102.826 19.96v4.254a16.257 16.257 0 007.218 1.87c3.84 0 8.19-1.917 8.19-6.404 0-4.486-2.73-6.356-6.802-7.478-4.072-1.121-4.766-1.87-4.766-3.085 0-1.074.833-2.757 4.627-2.757 1.99 0 3.933.654 5.46 1.963V4.21s-3.146-1.542-6.015-1.542c-2.869 0-7.912.654-7.912 6.823 0 8.086 11.243 4.861 11.243 10.05 0 2.102-1.943 2.757-4.765 2.757-3.147-.047-6.478-2.337-6.478-2.337z" fill="#043855"/><path d="M98.246 4.164A3.762 3.762 0 0094.5 7.996c0 2.104 1.711 3.833 3.794 3.786 2.082 0 3.747-1.73 3.747-3.832a3.79 3.79 0 00-3.794-3.786zm6.061 5.048c-.046.28-.138.514-.231.794l1.388 1.402-.74 1.262-1.851-.56-.555.56.509 1.916-1.249.748-1.342-1.449c-.278.094-.51.14-.787.234l-.509 2.01h-1.434l-.463-2.01c-.231-.047-.462-.094-.694-.187l-1.434 1.449-1.25-.701.463-2.01a2.668 2.668 0 01-.509-.514l-1.99.56-.647-1.261 1.48-1.309c-.092-.28-.138-.514-.23-.794l-1.944-.514.046-1.45 1.897-.513c.047-.28.14-.514.185-.748l-1.48-1.449.786-1.262 1.944.514c.139-.187.324-.374.509-.514l-.51-1.963 1.296-.7L96.35 2.2c.278-.094.51-.14.787-.234l.509-1.916 1.434.047.463 1.916c.277.047.509.14.786.187l1.481-1.355 1.249.747-.601 1.87.555.56 1.943-.56.694 1.308-1.434 1.31c.092.28.185.607.231.887l1.99.514v1.45l-1.99.42-.139-.14z" fill="#D8DADB"/></g><defs><filter id="filter0_i_104_1567" x=".251" y="-3.061" width="117.982" height="29.706" filterUnits="userSpaceOnUse" color-interpolation-filters="sRGB"><feFlood flood-opacity="0" result="BackgroundImageFix"/><feBlend in="SourceGraphic" in2="BackgroundImageFix" result="shape"/><feColorMatrix in="SourceAlpha" values="0 0 0 0 0 0 0 0 0 0 0 0 0 0 0 0 0 0 127 0" result="hardAlpha"/><feOffset dy="-3.112"/><feGaussianBlur stdDeviation="3.112"/><feComposite in2="hardAlpha" operator="arithmetic" k2="-1" k3="1"/><feColorMatrix values="0 0 0 0 0.627451 0 0 0 0 0.658824 0 0 0 0 0.745098 0 0 0 0.5 0"/><feBlend in2="shape" result="effect1_innerShadow_104_1567"/></filter></defs></svg>