<svg width="35" height="35" fill="none" xmlns="http://www.w3.org/2000/svg"><g clip-path="url(#a)"><path d="M17.452 34.233c9.268 0 16.78-7.513 16.78-16.78C34.233 8.183 26.72.67 17.453.67S.672 8.184.672 17.452s7.512 16.78 16.78 16.78z" stroke="#5022ED" stroke-width="1.5" stroke-linecap="round" stroke-linejoin="round"/><path d="M7.767 21.575H5.274v-8.342h2.301c.767 0 1.439.192 1.822.575.384.384.671.96.671 1.726 0 .48-.095.863-.287 1.247a1.324 1.324 0 0 1-.288.383c.192.096.288.288.48.48.287.383.383.863.383 1.342 0 .767-.192 1.343-.671 1.822-.48.48-1.15.767-1.918.767zm-1.15-1.342h1.246c.384 0 .575-.096.767-.288.192-.192.288-.48.288-.959 0-.383-.096-.67-.288-.863-.192-.192-.383-.287-.767-.287H6.616v2.397zm0-3.644H7.67c.384 0 .671-.096.767-.288.192-.191.288-.48.288-.863s-.096-.67-.288-.767c-.191-.191-.48-.287-.863-.287h-.959v2.205zm9.684 4.986h-4.506v-8.342h1.342v7h3.164v1.342zm3.644.096c-.863 0-1.63-.287-2.11-.959-.479-.575-.767-1.438-.767-2.493v-1.63c0-1.055.288-1.918.768-2.493.48-.671 1.246-.959 2.11-.959.862 0 1.63.288 2.109.959.48.575.767 1.438.767 2.493v1.63c0 1.055-.288 1.918-.767 2.493-.575.576-1.247.96-2.11.96zm0-7.287c-.48 0-.863.191-1.055.479-.287.384-.383.863-.383 1.63v1.726c0 .767.096 1.343.383 1.63.288.288.576.48 1.055.48.48 0 .863-.192 1.055-.48.288-.383.384-.959.384-1.63v-1.63c0-.767-.096-1.342-.384-1.63-.192-.384-.575-.575-1.055-.575zm7.288 7.287c-.863 0-1.63-.287-2.11-.959-.48-.575-.767-1.438-.767-2.397v-1.822c0-1.055.288-1.918.671-2.493.48-.575 1.247-.959 2.11-.959.767 0 1.438.192 1.918.671.48.48.767 1.055.767 1.918v.384H28.48v-.288c-.096-.48-.192-.863-.384-1.055-.192-.191-.48-.287-.959-.287-.48 0-.863.191-1.15.479-.288.384-.384.863-.384 1.63v1.726c0 .671.191 1.247.48 1.63.287.384.67.48 1.15.48.48 0 .959-.096 1.247-.384v-1.438h-1.63V17.26h2.972v3.26h-.096a2.617 2.617 0 0 1-1.15.864c-.384.191-.864.287-1.343.287z" fill="#5022ED"/></g><defs><clipPath id="a"><path fill="#fff" d="M0 0h35v35H0z"/></clipPath></defs></svg>