<svg width="32" height="32" fill="none" xmlns="http://www.w3.org/2000/svg"><g clip-path="url(#a)" stroke="#5022ED" stroke-width="1.5" stroke-linecap="round" stroke-linejoin="round"><path d="m20.077 17.008.526-3.156h-3.069v-2.016c0-.877.439-1.666 1.754-1.666h1.402V7.452s-1.227-.175-2.454-.175c-2.455 0-4.12 1.49-4.12 4.208v2.367H11.31v3.156h2.805v7.628c.526.087 1.14.175 1.666.175.614 0 1.14-.088 1.666-.175v-7.628h2.63v0z"/><path d="M16.044 31.386c8.473 0 15.342-6.869 15.342-15.342C31.386 7.57 24.517.7 16.044.7 7.57.701.7 7.571.7 16.044c0 8.473 6.87 15.342 15.343 15.342z"/></g><defs><clipPath id="a"><path fill="#fff" d="M0 0h32v32H0z"/></clipPath></defs></svg>