<svg width="32" height="32" fill="none" xmlns="http://www.w3.org/2000/svg"><g clip-path="url(#a)" stroke="#5022ED" stroke-width="1.5" stroke-linecap="round" stroke-linejoin="round"><path d="M19.112 9.03H12.8c-2.104 0-3.858 1.754-3.858 3.858V19.2c0 2.104 1.754 3.858 3.858 3.858h6.312c2.104 0 3.858-1.754 3.858-3.858v-6.312c.088-2.192-1.666-3.858-3.858-3.858z"/><path d="M16.044 18.762a2.77 2.77 0 0 1-2.806-2.806 2.77 2.77 0 0 1 2.806-2.805 2.77 2.77 0 0 1 2.805 2.805c0 1.578-1.315 2.806-2.805 2.806zm3.682-7.014c-.088 0-.264.088-.351.175 0 .088-.088.176-.088.351 0 .088.088.263.175.35.088.088.176.176.351.176.088 0 .263-.088.35-.175.088-.088.176-.176.176-.351 0-.088-.087-.263-.175-.35-.176-.088-.263-.176-.439-.176z"/><path d="M16.044 31.386c8.473 0 15.342-6.869 15.342-15.342C31.386 7.57 24.517.7 16.044.7 7.57.701.7 7.571.7 16.044c0 8.473 6.87 15.342 15.343 15.342z"/></g><defs><clipPath id="a"><path fill="#fff" d="M0 0h32v32H0z"/></clipPath></defs></svg>