<svg width="32" height="32" fill="none" xmlns="http://www.w3.org/2000/svg"><g clip-path="url(#a)" stroke="#5022ED" stroke-width="1.5" stroke-linecap="round" stroke-linejoin="round"><path d="M12.975 23.058V12.537H9.03v10.52h3.945zM10.959 11.66c1.315 0 2.104-.876 2.104-1.928 0-1.14-.79-1.93-2.104-1.93-1.315 0-2.105.877-2.105 1.93 0 1.052.877 1.928 2.105 1.928zm6.049 2.367v-1.49h-3.77c.088.964 0 10.52 0 10.52h3.77v-4.646c0-.263 0-.614.088-.79.263-.613.789-1.226 1.753-1.226 1.228 0 1.754.964 1.754 2.279v4.384h3.682v-5.875c0-3.156-2.017-4.91-4.208-4.91-1.666 0-2.368.79-2.894 1.404l-.175.35z"/><path d="M16.044 31.386c8.473 0 15.342-6.869 15.342-15.342C31.386 7.57 24.517.7 16.044.7 7.57.701.7 7.571.7 16.044c0 8.473 6.87 15.342 15.343 15.342z"/></g><defs><clipPath id="a"><path fill="#fff" d="M0 0h32v32H0z"/></clipPath></defs></svg>