<svg width="32" height="32" fill="none" xmlns="http://www.w3.org/2000/svg"><g clip-path="url(#a)" stroke="#5022ED" stroke-width="1.5" stroke-linecap="round" stroke-linejoin="round"><path d="M9.38 11.573c1.754 1.84 4.209 2.893 6.751 2.98.35 0 .614-.35.526-.7-.35-1.491.526-2.543 1.403-3.07.877-.525 2.367-.613 3.42.527.35.35 1.402.35 2.015.263-.262.438-.613.964-.964 1.14 0 0-.263.175-.263.438.088 2.367-.789 4.822-2.455 6.575-1.665 1.754-4.032 2.718-6.575 2.718a8.536 8.536 0 0 1-2.98-.526c1.139-.175 2.892-1.228 4.032-2.367.088.175-6.05-3.244-4.91-7.978z"/><path d="M16.044 31.386c8.473 0 15.342-6.869 15.342-15.342C31.386 7.57 24.517.7 16.044.7 7.57.701.7 7.571.7 16.044c0 8.473 6.87 15.342 15.343 15.342z"/></g><defs><clipPath id="a"><path fill="#fff" d="M0 0h32v32H0z"/></clipPath></defs></svg>