<svg width="59" height="59" fill="none" xmlns="http://www.w3.org/2000/svg"><path d="M46.388 47.19l1.785-14.274c5.13-.892 9.143-5.576 9.143-10.928 0-6.245-4.906-11.151-11.15-11.151-2.008 0-4.015.669-5.576 1.56-.223-6.02-5.13-10.704-11.152-10.704-6.021 0-10.928 4.683-11.15 10.705-1.562-1.115-3.346-1.561-5.576-1.561-6.245 0-11.151 4.906-11.151 11.15 0 5.353 4.014 10.037 9.143 10.929L12.49 47.19M47.726 47.19H11.15v10.036h36.576V47.19zM22.525 47.19V33.14M36.576 47.19V33.14" stroke="#5022ED" stroke-width="3" stroke-linecap="round" stroke-linejoin="round"/></svg>