<svg xmlns="http://www.w3.org/2000/svg" viewBox="12.56 54.91 258.35 173.64"><path fill="#D6D4D1" d="M12.56 54.912h258.345v173.642H12.56z"/><path d="M14.676 57.06h254.107v169.403H14.676z"/><path fill="#FFF" d="M14.676 162.944h254.107v63.527H14.676z"/><path fill="#216EB1" d="M14.676 131.18h254.107v31.764H14.676z"/><path fill="#CD0E26" d="M268.783 226.462H141.73L268.783 57.06zM14.676 226.462H141.73L14.676 57.06z"/><path d="M88.548 131.18h106.364c0-.124-.071-.241-.188-.263l-25.848-5.143 21.907-14.634a.27.27 0 00.103-.321.255.255 0 00-.291-.161l-25.849 5.143 14.642-21.915a.246.246 0 00-.035-.329c-.088-.087-.227-.117-.327-.037l-21.915 14.634 5.136-25.839c.029-.124-.034-.248-.151-.292s-.256-.007-.321.095l-14.642 21.908-5.138-25.84c-.06-.248-.467-.248-.522 0l-5.135 25.84-14.649-21.908a.246.246 0 00-.321-.095c-.116.044-.175.168-.152.292l5.143 25.839-21.917-14.634c-.095-.08-.24-.051-.328.037a.248.248 0 00-.036.329l14.642 21.915-25.848-5.143a.266.266 0 00-.292.161.268.268 0 00.103.321l21.9 14.634-25.84 5.143c-.13.021-.195.139-.195.263z" fill="#FCD11A"/></svg>