<svg xmlns="http://www.w3.org/2000/svg" viewBox="2.84 48.38 277.79 186.71"><path fill="#D6D4D1" d="M2.835 48.376h277.794v186.712H2.835z"/><path fill="#E22121" d="M5.119 50.67h273.237v182.156H5.119z"/><path d="M193.659 162.916c-2.996-3.444-5.805-.008-5.805-.008-.659.165-6.928.729-6.928.729.433-.667 2.88-2.854 2.88-2.854 3.467.675 4.667-1.021 5.351-2.22.674-1.192 1.758-1.146 1.758-1.146-1.806-1.499-3.334-.745-3.334-.745-2.815-.934-3.759 2.008-3.759 2.008-2.909 2.645-5.727 3.953-7.178 3.953s-10.565-3.138-10.565-3.138 1.514-1.459 2.258-2.934c.754-1.476-4.424-1.978-7.021-2.981-2.604-.996-5.005-4.526-5.655-5.374-.644-.855-2.103-3.703-1.75-5.326.354-1.624 1.906-.926 2.174-.071.269.863 2.148 6.3 5.656 7.374 3.506 1.075 2.424-1.75 1.67-2.204-.744-.447-3.771-3.451-3.507-6.142.259-2.69 2.785-1.733 3.312.314.525 2.055 2.425 5.93 4.104 7.68 1.68 1.749 3.799 2.549 5.352 2.102 1.554-.455 2.273-2.879-1.226-3.953-3.498-1.075-5.381-6.723-4.329-8.479 1.053-1.75 4.659 2.799 5.979 4.33 1.334 1.521 5.828 8.276 10.527 9.076 4.707.8 7.578-2 7.381-3.796-.195-1.805-1.654-1.483-3.931-1.381-2.276.102-3.719-.173-6.368-1.601-2.652-1.428-4.929-4.95-5.807-6.103-.879-1.146-2.65-4.471-1.757-4.95.907-.471 3.481 2.949 4.832 4.251 1.349 1.302 5.146 3.805 7.875 4.079 2.729.273 7.278-2.181 6.057-4.526-1.224-2.353-2.571-.4-7.075-.329-4.502.078-8.604-5.146-10.158-6.754-1.545-1.6-1.351-2.973-.775-3.396.58-.423 1.576-.298 2.432.777.848 1.074 5.271 3.922 8.881 4.801 3.592.871 7.498-2.824 5.646-5.052s-6.057-.125-7.781-.376c-1.724-.251-7.373-3.373-8.425-5.625-1.052-2.251 1.177-1.2 2.022-.8.849.4 5.084 2.345 8.41 2.526 3.324.172 7.672-2.801 5.693-5.076-1.979-2.283-4.503.8-7.798.965-3.312.173-7.75-3.396-8.534-4.016-.77-.627-1.146-1.302-.783-1.663.359-.361.987-.494 1.787-.267.801.227 2.871 2.337 8.262 2.337 5.381 0 9.547-6.134 7.226-7.954-2.322-1.82-4.378 1.867-7.015 3.091-2.619 1.224-6.724-.627-7.672-1.146-.949-.525-2.676-1.781-2.229-2.628.455-.855 1.277-.604 1.646-.525.377.071 4.926 1.577 9.334-.102 4.4-1.679 5.453-3.954 6.127-5.405.676-1.443-.147-6.126-4.104-2.126-3.953 4.009-8.174 3.899-10.031 3.899-1.859 0-2.646-.816-2.646-1.647 0-.824.503-1.545 2.526-1.545 2.022 0 5.121-1.004 7.073-2.024 1.946-1.027 4.024-2.581 6.401-6.158 2.377-3.577-.096-12.025-4.348-4.346-4.252 7.672-11.482 8.676-11.482 8.676s-.174-.298-1.325-1.098-2.252-.055-2.252-.055-10.104 4.479-11.231 5.005c-1.113.526-1.24.777-.438 4.299.8 3.53-2.157 6.676-5.711 5.499-3.546-1.169-2.667-7.35.056-10.221 2.721-2.879 4.949-3.978 10.676-5.178 5.728-1.2 5.192-2.879 5.192-2.879s-1.381.949-3.317 1.051c-1.938.102-2.313-1.098-2.313-1.098s2.039-.181 5.083-.094c3.036.094 5.239-1.247 6.26-2.683 1.027-1.443-1.35-2.95-2.722-.353-1.373 2.597-7.729 2-7.729 2s1.853-1.726 3.17-2.047c1.332-.33 2.604 1.396 2.604 1.396s.347-2.094-1.476-3.224c-1.826-1.122-3.938-.165-3.938-.165s-1.568-3.859-7.438-1.624c-5.867 2.228-10.354 2.166-10.354 2.166l4.148 2.847c-3.602 1.42-5.555 4.024-5.555 4.024.627-.306 3.577.228 3.577.228-3.452.353-6.04 2.839-6.04 2.839 1.012-.141 2.282.698 2.282.698l-4 3.491-3.992-3.491s1.278-.839 2.282-.698c0 0-2.589-2.486-6.04-2.839 0 0 2.949-.534 3.577-.228 0 0-1.953-2.604-5.554-4.024l4.157-2.847s-4.495.063-10.362-2.173c-5.875-2.228-7.429 1.632-7.429 1.632s-2.118-.965-3.938.165c-1.836 1.122-1.476 3.224-1.476 3.224s1.271-1.726 2.597-1.396c1.326.321 3.178 2.047 3.178 2.047s-6.354.588-7.735-2.008c-1.372-2.597-3.749-1.083-2.722.361 1.027 1.436 3.224 2.777 6.268 2.683 3.036-.086 5.075.094 5.075.094s-.376 1.2-2.313 1.098c-1.938-.102-3.311-1.051-3.311-1.051s-.542 1.671 5.185 2.871c5.727 1.208 7.955 2.307 10.677 5.178 2.729 2.879 3.608 9.052.047 10.229-3.546 1.177-6.495-1.977-5.695-5.499.801-3.53.675-3.773-.454-4.299-1.122-.525-11.226-5.005-11.226-5.005s-1.099-.753-2.252.047c-1.146.8-1.333 1.098-1.333 1.098s-7.217-.996-11.469-8.676c-4.252-7.672-6.73.776-4.354 4.354 2.376 3.578 4.447 5.13 6.408 6.15 1.946 1.028 5.053 2.032 7.076 2.032s2.525.722 2.525 1.545-.792 1.647-2.65 1.647c-1.852 0-6.08.102-10.033-3.899-3.946-4-4.777.675-4.104 2.126.675 1.451 1.727 3.726 6.135 5.405 4.393 1.679 8.942.173 9.319.102.376-.079 1.208-.33 1.655.525.447.847-1.279 2.095-2.228 2.62-.949.526-5.052 2.377-7.681 1.153-2.619-1.224-4.69-4.911-7.005-3.091-2.313 1.813 1.844 7.954 7.226 7.954 5.381 0 7.46-2.11 8.26-2.337.8-.227 1.42-.094 1.788.267.361.361-.008 1.036-.792 1.655-.769.627-5.225 4.197-8.52 4.024-3.302-.172-5.828-3.248-7.805-.973-1.977 2.283 2.377 5.256 5.703 5.083 3.326-.181 7.546-2.126 8.401-2.526.854-.4 3.075-1.452 2.023.8-1.043 2.251-6.699 5.374-8.425 5.625s-5.923-1.851-7.773.376c-1.852 2.22 2.047 5.923 5.647 5.052 3.601-.879 8.025-3.727 8.88-4.801.848-1.075 1.852-1.2 2.424-.777.573.423.777 1.796-.776 3.396-1.553 1.601-5.647 6.833-10.15 6.754-4.503-.071-5.853-2.024-7.076.329-1.224 2.346 3.326 4.8 6.048 4.526 2.723-.274 6.527-2.777 7.876-4.079 1.357-1.302 3.931-4.73 4.825-4.251.909.479-.871 3.804-1.742 4.95-.878 1.153-3.153 4.675-5.805 6.103s-4.103 1.702-6.377 1.6c-2.283-.102-3.727-.423-3.931 1.373-.196 1.805 2.683 4.604 7.374 3.805 4.706-.8 9.209-7.555 10.535-9.076 1.325-1.53 4.926-6.08 5.978-4.33 1.043 1.749-.824 7.405-4.322 8.478-3.507 1.075-2.777 3.499-1.231 3.954 1.545.447 3.679-.353 5.357-2.102 1.671-1.75 3.569-5.625 4.095-7.68.525-2.047 3.044-3.004 3.311-.314.267 2.691-2.762 5.695-3.515 6.141-.745.447-1.82 3.279 1.679 2.205 3.499-1.083 5.397-6.511 5.664-7.374.267-.854 1.819-1.561 2.165.071.345 1.624-1.099 4.471-1.75 5.326-.65.847-3.051 4.377-5.655 5.374-2.597 1.004-7.774 1.499-7.028 2.973.753 1.482 2.259 2.941 2.259 2.941s-9.107 3.138-10.559 3.138c-1.443 0-4.268-1.31-7.17-3.953 0 0-.941-2.941-3.766-2.008 0 0-1.521-.753-3.334.737 0 0 1.075-.047 1.766 1.152.675 1.2 1.883 2.896 5.342 2.221 0 0 2.447 2.188 2.879 2.854 0 0-6.26-.564-6.927-.736 0 0-2.816-3.437-5.797.016 0 0-1.521-.055-1.772 1.271 0 0 1.349-.376 2.149.346.8.729 2.823 2.022 5.279.313l6.926.314-2.619 1.834s-5.609-1.311-6.01 2.967l-.031.102s-.926 1.317-.267 2.896c0 0 .832-1.854 2.04-1.788 1.208.069 2.926 1.6 4.754-2.313l4.667-2.854 4.487 1.514s1.152 3.201 5.311 2.024c0 0 1.6.047 1.922 1.521 0 0 .988-2.581-.98-3.247 0 0-.918-2.572-5.357-1.568l-2.361-1.442 11.813-3.138s3.828 4.26 5.437 1.679c1.607-2.581 7.507-12.912 11.304-12.08 3.804.823-.22 8.276-.973 9.374-.753 1.099-5.648 7.656-9.829 7.602 0 0-1.295.022-2.456-.25-1.145-.274-2.572.33-2.596 1.528-.024 1.2 1.427 2.07 2.973 2.4 1.554.319 4.056.696 5.978-1.132 1.93-1.818 2.274-1.922 2.949-1.475.675.455.408 1.875-.941 3.027s-3.451 3.201-6.4 3.303c-2.958.104-2.432 1.247-2.307 1.555.125.297 1.381 2.524 4.676 1.842 3.302-.674 5.506-3.396 6.024-3.896.533-.502 1.6-1.224 1.6.551 0 1.779-1.945 4.549-3.593 5.199-1.655.651-5.13.434-3.953 2.33 1.177 1.896 3.169 2.273 4.973 1.555 1.805-.729 2.754-2.559 3.68-4.058.926-1.498 1.498-3.2 2.573-1.646 1.074 1.545-.511 6.684-4.103 8.967l6.949 10.637 6.966-10.637c-3.594-2.283-5.186-7.422-4.111-8.967 1.076-1.555 1.647.147 2.574 1.646.926 1.499 1.883 3.326 3.678 4.058 1.797.721 3.807.346 4.981-1.555 1.169-1.896-2.306-1.679-3.952-2.32-1.648-.652-3.609-3.43-3.609-5.209 0-1.772 1.082-1.045 1.602-.551.534.502 2.729 3.23 6.033 3.906 3.302.675 4.549-1.555 4.675-1.852.126-.308.649-1.451-2.299-1.555-2.949-.102-5.054-2.148-6.399-3.303-1.351-1.145-1.633-2.572-.957-3.027.676-.447 1.034-.346 2.957 1.482 1.922 1.82 4.426 1.443 5.971 1.121 1.553-.321 3.004-1.199 2.979-2.399s-1.449-1.805-2.604-1.522c-1.146.275-2.447.244-2.447.244-4.174.057-9.075-6.495-9.829-7.602-.745-1.098-4.776-8.551-.974-9.374 3.806-.823 9.705 9.5 11.305 12.08 1.607 2.581 5.438-1.679 5.438-1.679l11.82 3.138-2.367 1.442c-4.441-1.003-5.352 1.568-5.352 1.568-1.977.676-.988 3.256-.988 3.256.329-1.476 1.93-1.529 1.93-1.529 4.149 1.178 5.303-2.018 5.303-2.018l4.488-1.521 4.666 2.854c1.828 3.913 3.547 2.385 4.754 2.321 1.201-.071 2.032 1.788 2.032 1.788.675-1.585-.251-2.902-.251-2.902l-.039-.102c-.4-4.275-6-2.958-6-2.958l-2.638-1.835 6.935-.322c2.448 1.717 4.479.416 5.279-.306.801-.729 2.148-.354 2.148-.354-.241-1.322-1.763-1.267-1.763-1.267zm-32.93-74.875c1.177 0 2.134.502 2.134 1.122 0 .62-.957 1.122-2.134 1.122-1.178 0-2.135-.502-2.135-1.122 0-.62.957-1.122 2.135-1.122zm-37.983 2.243c-1.185 0-2.142-.502-2.142-1.122 0-.62.957-1.13 2.142-1.13 1.177 0 2.134.51 2.134 1.13 0 .62-.958 1.122-2.134 1.122z"/></svg>