<svg xmlns="http://www.w3.org/2000/svg" viewBox="2.84 48.38 277.79 186.71"><path fill="#D6D4D1" d="M2.835 48.376h277.794v186.712H2.835z"/><path fill="#CD0E26" d="M5.111 50.686h273.237v91.074H5.111z"/><path d="M5.111 141.768h273.237v91.08H5.111z"/><g fill="#FAD611"><path d="M125.751 129.036l-3.217 9.899c0 .023.009.047.032.063a.086.086 0 00.063 0l8.417-6.119 8.417 6.119c.016.008.023.008.031.008.016 0 .031 0 .039-.008.023-.016.023-.04.023-.063l-3.216-9.899 8.417-6.119c.023-.016.023-.039.023-.063-.016-.023-.031-.039-.055-.039h-10.409l-3.217-9.9c-.016-.047-.094-.047-.109 0l-3.217 9.9h-10.401c-.031 0-.047.016-.063.039 0 .023.008.047.031.063l8.411 6.119z"/><path d="M134.277 110.923c15.894 1.671 27.872 14.905 27.872 30.79a31.074 31.074 0 01-11.014 23.737c-.016.017-.023.032-.016.047 0 .017 0 .031.016.047l8.754 6.063c.016.01.023.01.031.01.016 0 .031-.01.047-.018a43.39 43.39 0 003.248-3.504c0-.009.008-.023.008-.039-.008-.017-.008-.031-.023-.039l-2.432-2a38.765 38.765 0 004.117-6.166l2.777 1.482c.022.017.063.009.077-.022a41.92 41.92 0 003.122-7.531c.01-.016.01-.031-.008-.047 0-.008-.018-.024-.031-.024l-3.005-.909c.716-2.361 1.2-4.81 1.442-7.28l3.131.306c.023 0 .063-.016.063-.047a41.49 41.49 0 000-8.158c0-.023-.031-.047-.063-.047l-3.122.306a38.268 38.268 0 00-1.468-7.271l3.021-.918a.055.055 0 00.039-.071 41.88 41.88 0 00-3.122-7.53c-.016-.032-.055-.04-.077-.024l-2.81 1.499c-1.151-2.126-2.56-4.181-4.166-6.119l2.511-2.063c.018-.008.018-.023.023-.04 0-.008-.01-.023-.01-.039a41.874 41.874 0 00-5.771-5.766c-.018-.008-.021-.016-.039-.016-.018.008-.029.008-.039.023l-2.087 2.549a38.807 38.807 0 00-6.166-4.071l1.567-2.941c.018-.023.01-.063-.016-.079a42.256 42.256 0 00-7.539-3.122c-.016 0-.031 0-.039.008-.016.008-.031.016-.031.031l-.971 3.201a38.527 38.527 0 00-7.028-1.42h-.016c-.023 0-.048.023-.048.055l-.769 7.107c0 .016.008.031.016.047.02.005.028.013.044.013zM145.25 173.514l-4.032-2.386c-.016-.008-.031-.008-.047-.008a30.935 30.935 0 01-10.127 1.702c-7.115 0-13.908-2.486-19.619-7.177-.016-.017-.031-.017-.047-.017s-.023.009-.031.023l-4.558 5.553c-.023.023-.016.057.008.079a40.39 40.39 0 006.15 4.157l-1.538 2.871c-.016.031 0 .063.023.078a41.751 41.751 0 007.539 3.121c.031.008.063-.009.063-.039l.926-3.043a37.789 37.789 0 007.264 1.489l-.306 3.122c-.008.031.023.057.055.063 1.35.135 2.714.195 4.071.195s2.729-.063 4.079-.195a.044.044 0 00.039-.022.056.056 0 00.016-.039l-.313-3.112a38.385 38.385 0 007.279-1.443l.91 2.988c.008.031.039.055.07.039a42.684 42.684 0 003.805-1.356c.023-.017.031-.039.031-.071l-1.688-6.542c-.005-.007-.005-.022-.022-.03zM162.006 178.643c0-.017 0-.022-.017-.039-3.938-2.973-8.11-5.914-12.144-8.753l-.049-.031c-8.234-5.797-16.753-11.798-23.908-18.537a.379.379 0 01-.102-.243.318.318 0 01.094-.243.345.345 0 01.479-.016c7.131 6.715 15.626 12.7 23.84 18.481l.038.03c4.058 2.854 8.236 5.806 12.206 8.793.018.023.057.017.07-.008l1.099-1.286c.009-.016.017-.031.009-.048 0-.017 0-.031-.017-.039-.91-.644-1.897-1.349-2.95-2.103-15.074-10.73-43.144-30.702-43.52-38.335 0-.023-.016-.047-.039-.047-.023-.008-.056.008-.063.031-2.815 5.499-3.113 10.574-.886 15.077 2.071 4.182 5.805 6.754 7.845 7.915 0 0 22.458 12.764 35.973 21.752.017.008.022.016.031.016.017 0 .03-.008.047-.021l1.953-2.299c.011-.014.02-.03.011-.047zM175.985 187.955c-1.294-2.103-2.934-3.632-4.777-5.271-.838-.746-1.778-1.498-2.791-2.308-1.39-1.104-2.815-2.243-4.002-3.396a.054.054 0 00-.039-.016c-.016 0-.031.008-.047.022l-3.875 4.56c-.125.141-.134.391-.078.549.047.115.125.194.211.211 3.898.666 5.357 1.944 6.903 3.295.181.156.353.313.525.463 1.161 1.169 1.978 2.472 2.706 3.606.729 1.153 1.357 2.149 2.134 2.691.573.394 1.13.596 1.671.596.737 0 1.381-.399 1.773-1.098.604-1.079.479-2.609-.314-3.904zm-2.361.032c0 .165-.094.33-.242.416-.142.086-.33.086-.479 0s-.244-.251-.244-.416c0-.172.096-.329.244-.415a.429.429 0 01.242-.071c.079 0 .165.023.236.071a.48.48 0 01.243.415zm-3.709-3.115a.483.483 0 01-.485 0 .494.494 0 01-.235-.415c0-.173.096-.33.235-.416a.46.46 0 01.485 0 .485.485 0 010 .831zm-3.956-3.444a.532.532 0 01-.485 0 .485.485 0 01.243-.9c.087 0 .164.021.242.07a.474.474 0 01.235.414.49.49 0 01-.235.416z"/></g></svg>