<svg xmlns="http://www.w3.org/2000/svg" viewBox="2.84 48.38 277.79 186.71"><path fill="#D6D4D1" d="M2.835 48.376h277.794v186.712H2.835z"/><path fill="#CD0E26" d="M5.142 50.658h273.237v182.156H5.142z"/><path fill="#102F7A" d="M5.142 50.658h136.619v91.082H5.142z"/><g fill="#FFF"><path d="M75.397 121.838l-2.801-8.621c-.023-.063-.133-.063-.149 0l-2.808 8.621h-9.061c-.031 0-.07.032-.07.055-.016.039 0 .079.023.094l7.334 5.334-2.808 8.629c-.008.023.008.063.031.079.031.031.07.031.094 0l7.335-5.319 7.334 5.319c.016.016.031.023.047.023s.032-.008.047-.023c.031-.016.047-.055.031-.079l-2.809-8.629 7.343-5.334c.023-.016.039-.055.023-.094a.09.09 0 00-.078-.055h-9.058zM49.274 85.691l-2.236-6.786c-.023-.063-.133-.063-.149 0l-2.235 6.786h-7.241c-.031 0-.063.023-.079.063-.016.023 0 .063.031.094l5.853 4.189-2.236 6.786a.089.089 0 00.023.086c.031.023.079.023.102 0l5.86-4.189 5.852 4.189c.016.016.031.016.047.016s.031 0 .047-.016c.031-.024.047-.055.031-.086l-2.235-6.786 5.86-4.189c.031-.031.031-.07.031-.094-.016-.04-.047-.063-.086-.063h-7.24zM109.566 80.711c-.016-.032-.047-.055-.078-.055h-6.777l-2.103-6.331c-.016-.063-.126-.063-.157 0l-2.086 6.331h-6.786c-.039 0-.07.023-.07.055-.016.039 0 .063.031.094l5.476 3.907-2.087 6.331c-.016.031 0 .063.023.094.024.016.071.016.103 0l5.476-3.914 5.491 3.914c.016.008.031.008.047.008s.031 0 .047-.008c.031-.031.047-.063.031-.094l-2.095-6.331 5.483-3.907c.031-.032.047-.055.031-.094zM68.775 67.54l-2.235 6.785c-.008.039 0 .079.031.094a.083.083 0 00.086 0l5.86-4.189 5.86 4.189c.016.008.031.016.047.016.047 0 .079-.031.079-.079 0-.023 0-.039-.016-.047l-2.228-6.77 5.86-4.197c.023-.016.039-.055.023-.086 0-.031-.031-.055-.07-.055h-7.241l-2.236-6.793c-.023-.071-.133-.071-.149 0l-2.244 6.793h-7.231c-.039 0-.07.023-.078.055-.016.031 0 .07.031.086l5.851 4.198zM86.692 100.69l-1.396-4.283c-.016-.078-.125-.078-.157 0l-1.38 4.283h-4.503a.083.083 0 00-.079.055c-.016.023 0 .063.032.086l3.64 2.644-1.396 4.283c0 .031 0 .063.031.094.032.016.071.016.094 0l3.64-2.644 3.647 2.644a.082.082 0 00.047.016.082.082 0 00.047-.016c.023-.031.04-.063.032-.094l-1.389-4.283 3.64-2.644c.031-.023.047-.063.031-.086-.007-.039-.039-.055-.078-.055h-4.503z"/></g></svg>