<svg xmlns="http://www.w3.org/2000/svg" viewBox="2.84 48.38 277.79 186.71"><path fill="#D6D4D1" d="M2.835 48.376h277.794v186.712H2.835z"/><path fill="#132B83" d="M5.103 50.686H278.34v182.156H5.103z"/><path fill="#FFF" d="M141.722 50.694h-16.419L73.412 85.287 21.521 50.694H5.103v10.943l51.89 34.594-51.89 34.594v10.942h16.418l51.891-34.593 51.891 34.593h16.419v-10.942L89.83 96.231l51.892-34.594z"/><path fill="#E00021" d="M5.103 50.694v5.467l68.309 45.545v-5.475zM141.722 136.3l-68.31-45.545v5.476l68.31 45.536z"/><path fill="#E00021" d="M5.103 141.767h8.205l60.104-40.061v-5.475zM133.516 50.694L73.412 90.763v5.476l68.301-45.545z"/><path fill="#DE0023" d="M141.722 88.261H79.107V50.694h-11.39v37.567H5.103v15.94h62.614v37.566h11.39v-37.566h62.615z"/><path fill="#FFF" d="M63.159 50.694v33.009H5.103v4.558h62.614V50.694zM5.103 108.75h58.056v33.017h4.558v-37.566H5.103zM141.722 104.201H79.107v37.566h4.557V108.75h58.058zM141.722 83.703H83.664V50.694h-4.557v37.567h62.615zM99.282 194.521a.175.175 0 00-.078-.188l-14.136-8.377 9.107-13.674a.176.176 0 00-.008-.203c-.055-.063-.125-.086-.196-.056l-15.375 5.82-5.021-15.633c-.047-.141-.282-.141-.329 0l-5.035 15.634-15.359-5.82c-.079-.031-.157-.008-.196.055a.18.18 0 00-.008.205l9.107 13.672-14.136 8.379a.173.173 0 00-.078.188c.016.07.078.126.149.126l16.363 1.419-2.259 16.271c-.008.072.031.143.102.174s.141.023.196-.031l11.319-11.908 11.32 11.908a.185.185 0 00.125.055.152.152 0 00.071-.021.173.173 0 00.102-.173l-2.259-16.271 16.364-1.42a.168.168 0 00.148-.131zM217.906 197.864l4.142-6.229a.171.171 0 00-.008-.204.176.176 0 00-.195-.056l-6.988 2.65-2.29-7.115c-.047-.141-.28-.141-.329 0l-2.291 7.115-6.988-2.65c-.07-.022-.156-.008-.195.056a.178.178 0 00-.008.204l4.133 6.229-6.432 3.819a.16.16 0 00-.078.181c.016.07.078.125.147.133l7.452.651-1.028 7.405a.175.175 0 00.104.181c.07.023.141.017.195-.04l5.152-5.42 5.154 5.42a.15.15 0 00.125.057.19.19 0 00.068-.017.179.179 0 00.104-.181l-1.035-7.405 7.452-.651a.172.172 0 00.146-.133.164.164 0 00-.078-.181l-6.431-3.819zM175.351 130.472l4.134-6.229a.178.178 0 00-.008-.204.174.174 0 00-.196-.055l-6.989 2.651L170 119.52c-.047-.141-.281-.141-.328 0l-2.291 7.115-6.988-2.651c-.078-.023-.146-.008-.196.055a.178.178 0 00-.008.204l4.136 6.229-6.426 3.82c-.063.031-.095.11-.078.181.018.07.078.125.146.133l7.445.643-1.027 7.414a.172.172 0 00.103.18.169.169 0 00.196-.039l5.152-5.42 5.154 5.42c.03.039.077.055.125.055a.175.175 0 00.172-.196l-1.025-7.414 7.443-.643a.176.176 0 00.148-.133.164.164 0 00-.079-.181l-6.423-3.82zM207.976 89.14l-1.028 7.413a.174.174 0 00.104.181c.07.023.142.016.195-.04l5.153-5.42 5.154 5.42c.03.04.077.055.125.055a.18.18 0 00.173-.197l-1.035-7.413 7.452-.644a.174.174 0 00.147-.133c.016-.07-.017-.149-.078-.18l-6.434-3.82 4.143-6.229a.171.171 0 00-.008-.204.172.172 0 00-.195-.055l-6.989 2.651-2.29-7.115c-.047-.141-.281-.141-.329 0l-2.291 7.115-6.989-2.651c-.069-.024-.156-.008-.194.055a.176.176 0 00-.009.204l4.134 6.229-6.433 3.82c-.063.031-.095.109-.078.18a.176.176 0 00.148.133l7.452.645zM262.25 123.121a.16.16 0 00-.078-.18l-6.424-3.82 4.133-6.229c.039-.063.039-.142-.008-.196-.055-.063-.133-.086-.194-.055l-6.989 2.644-2.29-7.115c-.048-.141-.282-.141-.33 0l-2.29 7.115-6.988-2.644c-.078-.032-.156-.008-.195.055-.047.055-.047.133-.008.196l4.142 6.229-6.44 3.82c-.063.031-.094.109-.078.18a.177.177 0 00.148.133l7.453.651-1.027 7.405a.17.17 0 00.103.181c.063.023.147.016.194-.04l5.154-5.42 5.153 5.42c.032.04.079.055.126.055a.222.222 0 00.07-.016.183.183 0 00.103-.181l-1.028-7.405 7.444-.651a.17.17 0 00.144-.132zM223.358 146.757l-1.813-4.448c-.047-.133-.269-.133-.313 0l-1.812 4.448-4.793.345a.19.19 0 00-.149.118c-.017.063 0 .141.056.18l3.67 3.106-1.145 4.66a.165.165 0 00.063.173.167.167 0 00.188.008l4.079-2.525 4.087 2.525a.15.15 0 00.086.031.178.178 0 00.103-.039.167.167 0 00.063-.173l-1.146-4.66 3.662-3.106c.055-.039.069-.117.055-.18a.189.189 0 00-.147-.118l-4.794-.345z"/></svg>