<svg xmlns="http://www.w3.org/2000/svg" viewBox="2.84 48.38 277.79 186.71"><path fill="#D6D4D1" d="M2.835 48.376h277.794v186.712H2.835z"/><path fill="#00B8E3" d="M5.095 50.686h273.237v61.477H5.095z"/><path fill="#429D33" d="M5.095 171.372h273.237v61.477H5.095z"/><path fill="#E5313C" d="M5.103 112.171H278.34v59.202H5.103z"/><path d="M147.974 164.54c-12.567 0-22.765-10.189-22.765-22.771 0-12.575 10.197-22.765 22.765-22.765 5.726 0 10.888 2.181 14.889 5.664-5.005-6.181-12.567-10.221-21.149-10.221-15.085 0-27.321 12.229-27.321 27.322s12.236 27.322 27.321 27.322c8.582 0 16.145-4.032 21.149-10.223-4.002 3.483-9.163 5.672-14.889 5.672z" fill="#FFF"/><path fill="#FFF" d="M184.678 141.76l-7.97-2.824 3.615-7.641-7.623 3.633-2.832-7.955-2.832 7.962-7.625-3.624 3.623 7.633-7.962 2.84 7.962 2.815-3.608 7.641 7.625-3.632 2.832 7.962 2.832-7.962 7.623 3.616-3.623-7.625z"/></svg>