<svg xmlns="http://www.w3.org/2000/svg" viewBox="2.83 48.38 277.8 186.72"><path fill="#D6D4D1" d="M2.833 48.375h277.798v186.716H2.833z"/><path fill="#FECB09" d="M232.888 232.834L50.739 50.678h182.149z"/><g fill="#1B3086"><path d="M5.194 50.678v182.156h227.694L50.739 50.678zM232.888 50.678h45.545v182.158h-45.545z"/></g><g fill="#FFF"><path d="M30.218 62.947a.18.18 0 00.109-.031.192.192 0 00.063-.188l-3.891-11.933a.178.178 0 00-.165-.118H13.807a.17.17 0 00-.165.118L9.76 62.727c-.032.07 0 .141.055.188a.168.168 0 00.204 0l10.048-7.304 10.057 7.304a.153.153 0 00.094.032zM52.951 85.681a.176.176 0 00.181-.173c0-.039-.008-.079-.032-.102l-3.828-11.767 10.048-7.304c.063-.047.094-.125.063-.196-.016-.071-.078-.118-.157-.118H46.801l-3.844-11.814a.167.167 0 00-.156-.125.178.178 0 00-.166.125L38.8 66.021H26.374a.186.186 0 00-.172.118.203.203 0 00.063.196l10.057 7.304-3.844 11.813c-.016.071.008.149.063.188a.165.165 0 00.204 0l10.057-7.303L52.85 85.64c.03.024.069.041.101.041zM75.676 108.406h.008c.103.016.172-.079.172-.172a.158.158 0 00-.03-.102l-3.821-11.767 10.049-7.304a.176.176 0 00.063-.196.17.17 0 00-.165-.117H69.527l-3.836-11.813a.169.169 0 00-.165-.118.176.176 0 00-.165.118l-3.844 11.813H49.1a.17.17 0 00-.165.117c-.023.071 0 .15.063.196l10.056 7.304-3.844 11.813a.175.175 0 00.063.196.192.192 0 00.204 0l10.049-7.304 10.048 7.304a.252.252 0 00.102.032zM98.409 131.146c.079.008.182-.079.182-.173 0-.04-.016-.07-.04-.102l-3.82-11.767 10.049-7.303a.174.174 0 00-.102-.314H92.26l-3.843-11.813a.17.17 0 00-.166-.117c-.07 0-.142.046-.157.117l-3.844 11.813H71.825a.178.178 0 00-.166.118c-.023.071.008.149.063.196l10.057 7.303-3.844 11.813a.17.17 0 00.063.188.165.165 0 00.204 0l10.049-7.295 10.057 7.295a.151.151 0 00.101.041zM121.135 153.872h.008c.087-.017.173-.078.173-.173a.167.167 0 00-.031-.103l-3.82-11.767 10.049-7.303a.174.174 0 00.063-.196.17.17 0 00-.166-.118h-12.425l-3.837-11.813c-.022-.07-.085-.118-.164-.118s-.142.047-.164.118l-3.837 11.813H94.559a.17.17 0 00-.166.118c-.023.07 0 .149.063.196l10.049 7.303-3.836 11.813a.16.16 0 00.063.188.167.167 0 00.205 0l10.048-7.295 10.049 7.295a.17.17 0 00.101.042zM143.862 176.596c.103-.008.18-.078.18-.172 0-.039-.016-.07-.029-.103l-3.829-11.767 10.05-7.303c.063-.047.086-.126.063-.196s-.088-.118-.165-.118h-12.418l-3.843-11.813a.17.17 0 00-.165-.118c-.071 0-.141.047-.156.118l-3.845 11.813h-12.427a.179.179 0 00-.165.118.19.19 0 00.063.196l10.057 7.303-3.845 11.813c-.023.069.008.147.063.196a.201.201 0 00.204 0l10.049-7.305 10.057 7.305c.031.025.06.033.101.033zM166.594 199.331h.009a.174.174 0 00.173-.173.165.165 0 00-.031-.103l-3.818-11.769 10.048-7.303a.159.159 0 00.063-.188.168.168 0 00-.164-.117h-12.428l-3.836-11.822c-.048-.143-.281-.143-.33 0l-3.836 11.822h-12.426a.17.17 0 00-.165.117c-.022.07 0 .148.063.188l10.05 7.303-3.836 11.814c-.022.07 0 .147.063.195a.164.164 0 00.203 0l10.049-7.304 10.049 7.304a.14.14 0 00.1.036zM189.321 222.049h.008a.17.17 0 00.172-.174.168.168 0 00-.03-.102l-3.817-11.768 10.047-7.305c.063-.047.088-.117.063-.188a.178.178 0 00-.165-.125h-12.426l-3.836-11.813a.172.172 0 00-.165-.118.17.17 0 00-.164.118l-3.836 11.813h-12.428a.177.177 0 00-.164.125c-.022.07 0 .143.063.188l10.05 7.305-3.836 11.813a.18.18 0 00.063.195.194.194 0 00.205 0l10.049-7.305 10.05 7.305c.026.028.066.036.097.036zM218.323 225.116h-12.427l-3.837-11.813a.185.185 0 00-.164-.125.177.177 0 00-.165.125l-3.844 11.813h-12.427c-.069 0-.141.048-.156.118a.183.183 0 00.057.196l10.157 7.373c.031.022.063.03.103.03h12.552c.03 0 .069-.008.096-.03l10.158-7.373c.055-.047.086-.127.063-.196a.183.183 0 00-.166-.118z"/></g></svg>