<svg xmlns="http://www.w3.org/2000/svg" viewBox="2.84 48.38 277.79 186.71"><path fill="#D6D4D1" d="M2.835 48.376h277.794v186.712H2.835z"/><path fill="#142C77" d="M5.103 50.67h91.082v182.148H5.103z"/><path fill="#FDC72B" d="M96.177 50.67h91.074v182.148H96.177z"/><path fill="#142C77" d="M187.243 50.67h91.082v182.148h-91.082z"/><path d="M182.245 109.551s-10.854-.745-21.397 10.26l5.421-.855s-6.291 8.527-9.846 36.164l-9.893-1.476V118.25l8.018 1.601s-12.833-15.61-12.833-23.644c0 8.033-12.833 23.636-12.833 23.636l8.017-1.593v35.395l-9.892 1.476c-3.554-27.637-9.845-36.164-9.845-36.164l5.429.855c-10.551-11.005-21.408-10.26-21.408-10.26 20.796 31.252 18.654 55.295 18.654 55.295l17.062-2.283v24.718l9.634.008v-24.726l17.063 2.283c-.004-.001-2.146-24.044 18.649-55.296z"/></svg>