<svg xmlns="http://www.w3.org/2000/svg" viewBox="2.84 48.38 277.79 186.71"><path fill="#D6D4D1" d="M2.835 48.376h277.794v186.712H2.835z"/><path fill="#E53131" d="M5.11 50.67h273.237v91.074H5.11z"/><path fill="#009E49" d="M5.11 141.752h273.237v91.082H5.11z"/><path d="M130.189 148.49l-7.013 21.563c0 .056.023.103.07.142.04.023.11.023.142 0l18.34-13.334 18.349 13.334c.031.018.047.018.07.018s.063 0 .087-.018c.047-.039.047-.086.047-.142l-7.013-21.563 18.324-13.335c.055-.039.055-.086.055-.141-.031-.047-.07-.078-.117-.078h-22.671l-7.013-21.563c-.031-.11-.204-.11-.235 0l-7.005 21.563h-22.655c-.07 0-.109.031-.133.078 0 .055.008.102.063.141l18.308 13.335z" fill="#FCD11A"/></svg>