<svg xmlns="http://www.w3.org/2000/svg" viewBox="2.84 48.38 277.79 186.71"><path fill="#D6D4D1" d="M2.835 48.376h277.793v186.712H2.835z"/><path d="M96.184 141.745c0-5.248.934-10.268 2.564-14.967L5.103 64.343v154.802l93.646-62.435c-1.632-4.69-2.565-9.71-2.565-14.965z" fill="#3AA63D"/><path d="M172.055 175.647c-8.063 7.217-18.671 11.644-30.334 11.644-11.665 0-22.271-4.427-30.335-11.644l-85.763 57.181h232.194l-85.762-57.181z" fill="#CD0E26"/><path d="M184.692 126.777c1.632 4.699 2.563 9.719 2.563 14.967 0 5.247-.932 10.275-2.563 14.967l93.646 62.436V64.343l-93.646 62.434z" fill="#3AA63D"/><path d="M141.721 96.208c11.663 0 22.271 4.424 30.325 11.634l85.764-57.17H25.631l85.763 57.17c8.056-7.211 18.662-11.634 30.327-11.634z" fill="#CD0E26"/><path fill="#FFF" d="M278.337 50.671H257.81l-116.089 77.392-116.09-77.392H5.103v13.672l116.096 77.402-116.096 77.4v13.682h20.52l116.098-77.403 116.096 77.403h20.52v-13.682l-116.095-77.4 116.095-77.402z"/><path d="M187.257 141.745c0 25.156-20.389 45.545-45.536 45.545-25.149 0-45.537-20.389-45.537-45.545 0-25.149 20.388-45.537 45.537-45.537 25.148 0 45.536 20.386 45.536 45.537z" fill="#FFF"/><path fill="#CD0E26" d="M133.318 118.305l2.793 4.847-2.793 4.849h5.602l2.801 4.855 2.8-4.855h5.592l-2.792-4.849 2.792-4.847h-5.592l-2.8-4.856-2.801 4.856z"/><path d="M141.721 113.449l2.8 4.856h5.593l-2.792 4.848 2.792 4.848h-5.593l-2.8 4.855-2.801-4.855h-5.602l2.793-4.848-2.793-4.848h5.602l2.801-4.856m0-2.275l-.989 1.71-2.471 4.283H131.35l.98 1.703 2.472 4.283-2.472 4.275-.98 1.71H138.261l2.471 4.283.989 1.71.987-1.71 2.472-4.283h6.904l-.979-1.71-2.464-4.275 2.464-4.283.979-1.703h-6.904l-2.472-4.283-.987-1.71z" fill="#3AA63C"/><path fill="#CD0E26" d="M154.522 149.729l2.792 4.848-2.792 4.848h5.601l2.793 4.855 2.8-4.855h5.601l-2.793-4.848 2.793-4.848h-5.601l-2.8-4.854-2.793 4.854z"/><path d="M162.916 144.875l2.801 4.854h5.603l-2.793 4.849 2.793 4.848h-5.603l-2.801 4.854-2.793-4.854h-5.601l2.792-4.848-2.792-4.849h5.601l2.793-4.854m0-2.284l-.986 1.718-2.465 4.282H152.556l.979 1.71 2.463 4.274-2.463 4.283-.979 1.702H159.465l2.465 4.283.986 1.71.988-1.71 2.471-4.283h6.912l-.979-1.702-2.472-4.283 2.472-4.274.979-1.71h-6.912l-2.471-4.282-.988-1.718z" fill="#3AA63C"/><g><path fill="#CD0E26" d="M112.115 149.729l2.793 4.848-2.793 4.848h5.601l2.793 4.855 2.801-4.855h5.6l-2.793-4.848 2.793-4.848h-5.6l-2.801-4.854-2.793 4.854z"/><path d="M120.509 144.875l2.801 4.854h5.601l-2.793 4.849 2.793 4.848h-5.601l-2.801 4.854-2.793-4.854h-5.601l2.793-4.848-2.793-4.849h5.601l2.793-4.854m0-2.284l-.988 1.718-2.463 4.282H110.147l.98 1.71 2.463 4.274-2.463 4.283-.98 1.702H117.058l2.463 4.283.988 1.71.988-1.71 2.471-4.283H130.879l-.98-1.702-2.471-4.283 2.471-4.274.98-1.71H123.968l-2.471-4.282-.988-1.718z" fill="#3AA63C"/></g></svg>