<svg xmlns="http://www.w3.org/2000/svg" viewBox="2.84 48.38 277.79 186.71"><path fill="#D6D4D1" d="M2.835 48.376h277.794v186.712H2.835z"/><path fill="#FFF" d="M5.063 62.06v40.988l273.238 77.415v-40.986z"/><path fill="#F7E017" d="M278.301 50.67H5.063v11.39l273.238 77.417z"/><path d="M5.063 144.027l273.238 77.424v-40.988L5.063 103.048z"/><path fill="#F7E017" d="M5.063 232.826h273.238v-11.375L5.063 144.027z"/><path fill="#F7E017" d="M114.141 160.844l-3.641-5.019-3.766 1.882.879 5.397 2.134 4.267 6.15 8.41 6.276 4.643 4.016 2.384 13.932 2.637 9.915-1.131 5.523-.877 8.283-5.02 3.389-3.64 6.527-7.783 3.389-6.15 1.003-7.027-5.146-2.135-4.392 7.907-3.891 4.896-5.021 4.267-5.145 2.258-6.151 2.511-6.902 1.256-9.163-2.135-7.153-3.137-2.134-1.506-6.528-5.523zM162.211 192.221l6.903-3.889 4.142-3.139.377-3.64.502-3.387-2.636-1.256-5.02 2.384-2.385 1.757-2.135 1.506-6.902 3.64-4.644 1.883.377 8.66 4.644-.877 3.262-1.131z"/><g fill="#CE0D25"><path d="M184.325 188.119c-.604-.094-1.412-.234-1.412-.328.008-.07.229-.51.596-1.131.949-1.567.832-2.736-.393-3.897-.861-.823-2.212-1.294-3.671-1.294-.801 0-1.593.141-2.307.415-.425.173-.888.338-1.099.338-.057 0-.086-.008-.096-.022-.068-.127.307-.746.438-.94.512-.854.668-1.304.724-2.173.086-1.383-.188-2.229-1.004-3.146-.901-.988-1.772-1.389-3.015-1.389h-.021c-1.428 0-2.29.447-4.009 2.078-6.149 5.79-14.167 9.79-21.974 10.959-1.631.242-4.125.408-6.347.408-1.168 0-2.173-.047-2.895-.127-8.699-.979-16.262-4.635-23.125-11.17-2.354-2.252-3.35-2.762-4.919-2.645-1.969.143-3.562 1.741-3.718 3.719-.103 1.539.07 2.188.957 3.482.683.986.784 1.271.761 1.333 0 0-.008.008-.039.008a11.296 11.296 0 01-1.052-.358 7.681 7.681 0 00-2.683-.494c-1.278 0-2.432.345-3.247.965-1.404 1.074-1.734 2.439-.926 3.852.267.455.424.854.424.926-.023.07-.377.308-1.004.533-1.161.424-2.174 1.208-2.581 2-.274.525-.361 2.096-.142 2.463.055.088.126.104.165.104.148 0 .518-.183.792-.354.29-.181 1.161-.541 1.914-.793.895-.298 1.992-.463 3.106-.463.887 0 1.733.104 2.463.29 2.079.542 4.487 1.867 6.613 3.634 1.687 1.396 3.749 2.268 5.373 2.268.346 0 .659-.039.949-.109 1.766-.463 2.487-1.363 2.487-3.121 0-.559.07-.896.109-.988.142.047.62.33 1.263.775 3.357 2.29 8.096 3.938 13.352 4.637 1.624.213 3.389.32 5.248.32 5.938 0 12.261-1.104 16.937-2.957 2.048-.808 3.208-1.428 4.996-2.65.62-.433 1.067-.713 1.226-.809.03.164.03.572-.01 1.139-.078 1.099-.031 1.396.283 1.891.58.91 1.671 1.381 3.247 1.396h.078c1.655 0 2.729-.494 4.44-2.018 1.553-1.391 3.449-2.512 5.225-3.083 1.152-.377 1.726-.455 3.389-.463l.182-.009c2.047 0 3.1.212 4.918.957.433.182 1.271.511 1.396.511.204 0 .243-.599.243-1.093.007-1.877-.943-3.118-2.605-3.377zm-12.598-5.068a.38.38 0 01.273-.108c.155 0 .313.069.385.172a.233.233 0 01.031.188c-.07.196-.274.282-.438.282a.364.364 0 01-.313-.156c-.073-.111-.041-.275.062-.378zm-.957-1.616l-.77.369c-.023.008-.057.047-.057.078v1.342c-.008 1.859-.432 3.067-1.41 4.049-.426.424-.92.76-1.113.76-.174 0-.283-.008-.314-.076-.047-.104.126-.354.55-.871 1.121-1.373 1.396-2.104 1.498-4.118.095-1.749.117-1.844.533-2.032 1.64-.753 2.103-1.033 2.438-1.488.244-.33.424-.494.543-.494.146 0 .172.228.172.416 0 .552-1.004 1.563-2.07 2.065zm-4.456 3.94c.008-.251-.056-.313-.069-.321-.041-.04-.08-.056-.149-.056-.164 0-.433.095-.8.251-.299.126-.446.181-.559.181-.148 0-.227-.086-.393-.29-.471-.581-.415-2.22.095-2.981.354-.523.485-.596 1.177-.596.723 0 .809.047 1.092.611.268.503.307.941.25 2.456-.055 1.624-.117 1.953-.597 2.887-.604 1.177-2.047 2.651-3.161 3.216-.447.235-.863.369-1.121.369-.078 0-.173-.016-.221-.078-.023-.031-.023-.078 0-.142.048-.118.479-.485.965-.815 1.781-1.219 3.491-3.509 3.491-4.692zm-7.209 8.517c0 .252-.22.447-.485.447-.26 0-.479-.195-.479-.439 0-.242.22-.438.479-.438.265 0 .485.196.485.43zm-2.173.135c.259 0 .471.195.471.438s-.212.438-.471.438c-.273 0-.486-.195-.486-.438s.211-.438.486-.438zm-3.146-2.998l-.22 1.027c-.069.337.009.572.298.854.252.25.408.339.848.339.156 0 .347-.017.666-.039 1.893-.147 4.6-1.759 4.6-2.724 0-.195-.204-.524-.455-.723l-.416-.32c-.029-.022-.068-.031-.104-.008l-.729.406c-.707.393-.832.432-.861.439 0 0-.057-.056-.057-.433 0-.274.188-.558.533-.81.736-.518.947-1.139.675-1.952-.183-.558-.165-.706.078-1.091.165-.243.407-.446.549-.446.058 0 .126.022.204.117.259.329.359 1.186.212 1.827-.134.589-.134.91 0 1.074.047.055.144.133.358.133.465 0 1.24.361 1.24.58 0 .097-.233.66-.51 1.265-.597 1.264-1.521 2.134-3.099 2.911-.729.353-1.412.549-2.11.588-.086.008-.181.008-.273.008-1.105 0-2.399-.329-2.604-.667-.298-.455-.148-1.302.368-2.108.463-.729.667-.81.735-.81.023 0 .058.008.072.022.072.095.033.346.002.541zm2.518-4.705a.389.389 0 01.267-.104c.157 0 .314.071.385.165.039.063.063.126.031.195-.055.188-.268.273-.439.273-.141 0-.25-.055-.305-.148-.064-.108-.041-.281.061-.381zm-8.55 8.259c.203-.354.086-.941-.322-1.646a1.43 1.43 0 00-.862-.658c-.299-.08-.479-.135-.519-.244-.055-.133.078-.354.307-.729.243-.408.463-.683.723-.683.211 0 .433.172.77.571 1.225 1.442 1.389 2.535.557 3.772-.281.424-.648.667-1.332.888-.519.163-1.074.424-1.238.571-.174.157-.377.261-.521.261-.116 0-.188-.063-.188-.175 0-.103.117-.446.26-.771.259-.627.523-.769 1.48-.774.445.001.743-.132.885-.383zm-4.629-3.812c-.147-.313-.252-.715-.188-.887.094-.299.705-.714.975-.714.039 0 .068.008.076.022.057.094.109.94.135 2.621.021 1.803-.039 2.705-.229 3.198-.221.604-.369.854-.463.753-.118-.125-.157-.814-.096-2.181.082-1.886.04-2.341-.21-2.812zm-4.597.299l-.109-1.342.541-.394c.321-.22.502-.267.612-.267.07 0 .125.021.172.078.095.133.087.424-.047.848-.102.361-.243 1.199-.29 1.867a22.66 22.66 0 01-.282 2.016c-.095.447-.369 1.044-.62 1.334-.173.204-.29.313-.345.313h-.016c-.016-.021.016-.107.023-.133.275-.861.464-3.129.361-4.32zm-10.958 2.062c-1.256-.055-1.271-.063-1.357-.58-.087-.51-.165-.525-.965-.564-2.565-.117-5.279-.948-5.695-1.732-.329-.637-.502-.762-1.043-.762-.55-.008-2.573-.948-3.106-1.442-.346-.329-.534-.918-.534-1.312-.008-.203.032-.369.134-.455.039-.039.078-.063.126-.063.156 0 .399.204.901.762 1.075 1.192 1.993 1.797 2.723 1.797.407 0 .761-.174 1.066-.541.769-.918 1.185-1.897 1.083-2.543-.079-.479-.023-.643.306-.854.36-.234 1.051-.408 1.42-.408.078 0 .259.008.259.102 0 .104-.306.465-.525.66-.283.273-.612.791-.714 1.129-.118.347-.447 1.082-.737 1.656-.636 1.223-.558 1.701.399 2.336.91.621 2.252.926 4.103.957 1.153.024 1.75.127 1.82.221.063.104.117.386.117.619 0 .149.008.244.056.308.047.087.141.104.298.087 1.632-.243 1.859-.243 2.095-.04.156.126.228.369.164.604-.047.188-.039.313.024.394.141.188.588.103 1.349-.243.815-.369 1.239-.447 1.412-.234.086.103.11.273.055.533-.078.392-.023.558.235.697.212.117.447.172.667.172.353 0 .651-.148.839-.431.4-.612.612-2.558.361-3.351-.181-.604-.165-.658.329-1.053.471-.384.745-.492.863-.359.07.078.07.252.023.511-.07.329-.228 1.396-.345 2.321-.243 1.867-.377 2.234-1.013 2.824-.478.438-1.224.588-2.07.438-.471-.087-.675-.251-.879-.684-.173-.369-.306-.511-.494-.511a.419.419 0 00-.117.022c-.196.039-.824.127-1.452.182a8.283 8.283 0 01-.682.047c-.33 0-.447-.055-.518-.229a.496.496 0 01.086-.479c.181-.172.188-.251.173-.298-.033-.078-.072-.172-1.24-.211zm-14.991-10.127c-1.922-.165-2.314-.408-3.036-1.844-.251-.486-.549-.784-.895-.901-.353-.126-.572-.321-.533-.487.023-.156.243-.25.581-.25.604 0 1.271.564 1.93 1.631.447.724 1.122 1.114 1.891 1.114.572 0 1.161-.212 1.71-.62.447-.313.988-.549 1.271-.549.651 0 1.373.471 1.373.902 0 .643-.863 1.71-1.749 2.156-.479.252-.941.438-1.044.438-.07 0-.188-.282-.22-.746l-.047-.657c-.008-.047-.039-.086-.086-.086l-1.146-.101zm24.027 13.97c-.588 0-1.043-.03-1.278-.094-.307-.078-.683-.243-.84-.369-.141-.125-.203-.22-.18-.298.039-.094.242-.148.596-.148.243 0 .557.023.941.07.557.07 1.192.117 1.584.117.095 0 .181 0 .236-.008 1.858-.204 2.635-.432 2.973-.879.22-.282.274-.674.157-1.312-.103-.596-.056-.743.298-1.043.259-.212.51-.33.706-.33.196 0 .313.104.36.291.031.164-.117.815-.329 1.443-.447 1.245-1.06 1.905-2.126 2.259-.571.193-2.022.301-3.098.301zm-19.281-10.464c-.048-.079.094-.299.557-.98.377-.541.792-1.719 1.02-2.854.063-.354.228-.503.628-.589.141-.031.267-.047.377-.047.211 0 .353.063.407.173.047.133-.031.313-.228.523-.204.222-.572.871-.815 1.43-.243.557-.683 1.316-.988 1.701-.259.328-.644.684-.809.684-.078-.002-.133-.002-.149-.041z"/><path d="M165.506 182.384a.728.728 0 00-.646.385c-.181.329-.134.784.117 1.161.165.251.259.408.399.408.117 0 .221-.087.386-.235.267-.242.354-.541.319-1.013-.041-.541-.127-.706-.575-.706zM115.081 183.295a.482.482 0 00.447-.329c.134-.338.142-.581.031-.729-.063-.11-.196-.166-.368-.166a.609.609 0 00-.494.244c-.126.188-.142.432-.055.666a.47.47 0 00.439.314zM152.75 180.652c-.283 0-.494.104-.588.281-.108.213-.056.502.148.832.212.299.462.479.714.479a.455.455 0 00.399-.219c.147-.213.156-.524.031-.871-.131-.346-.343-.502-.704-.502zM131.704 177.083c-.118 0-.22.063-.369.165-.228.164-.329.416-.243.628.078.211.298.337.564.337.252 0 .471-.126.55-.321.07-.188-.008-.454-.165-.62-.125-.118-.22-.189-.337-.189zM164.478 171.135c.251 0 .446-.117.526-.313.063-.181.031-.358-.08-.531a.925.925 0 00-.76-.387c-.308 0-.549.149-.629.377-.07.213.031.447.252.611.219.157.463.243.691.243zM168.189 169.802a.501.501 0 00.485-.329c.15-.377.158-.706.017-.901a.372.372 0 00-.329-.174.764.764 0 00-.611.313.736.736 0 00-.109.675.58.58 0 00.547.416zM117.02 172.619c.141 0 .29-.055.454-.156.087-.063.188-.126.181-.229-.016-.103-.125-.148-.259-.195-.188-.078-.321-.117-.432-.117-.133 0-.298.063-.298.345 0 .211.133.352.354.352zM118.063 171.701c.148 0 .353-.03.611-.104.299-.086.502-.367.479-.563a.262.262 0 00-.274-.213c-.267 0-1.153.399-1.153.65-.001.088.046.23.337.23zM132.912 166.398c-.274-.203-.432-.211-.502-.103-.079.118-.048.354.321 1.161 1.42 3.138 4.4 5.303 7.773 5.664a16 16 0 002.542-.024c2.59-.267 4.283-1.114 6.063-3.021.769-.815 2.394-3.373 2.095-3.68a.138.138 0 00-.086-.031c-.173 0-.738.291-1.043.463-.519.283-1.318.611-1.797.729a3.491 3.491 0 00-1.607.887c-.91.854-2.33 1.719-2.684 1.719-.086 0-.148-.023-.173-.078-.108-.157-.03-.51.188-.941.416-.83.078-1.984-1.014-3.514-.156-.212-.941-1.287-1.169-1.287-.204.017-1.146 1.311-1.334 1.569-1.224 1.71-1.388 2.368-.8 3.356.22.368.188.525.157.588-.048.078-.165.096-.251.096-.486 0-1.476-.471-2.448-1.381-.862-.81-1.224-1.037-1.694-1.037-.49.002-1.714-.539-2.537-1.135zM140.858 86.496v13.045c0 .047.047.094.094.094h1.733a.09.09 0 00.063-.023.098.098 0 00.029-.063l-.016-6.134 5.74 2.809c.01 0 .023.008.039.008a.13.13 0 00.078-.032c.023-.031.023-.078 0-.117l-3.238-4.331 4.408-1.419c.03-.016.055-.047.055-.079 0-.04-.016-.079-.047-.094l-7.053-3.64v-.016c.525-.157.896-.424.896-.777 0-.51-.784-.894-1.819-.894-1.036 0-1.82.384-1.82.894.003.337.349.604.858.769z"/><path d="M122.455 181.341c3.875 2.307 9.257 4.173 13.696 4.762a39.25 39.25 0 011.844.26c.313.063 1.443.069 2.095.069 1.545 0 3.718-.055 4.84-.155 8.299-.771 14.699-3.295 20.748-8.199 5.719-4.618 10.41-12.127 12.582-20.056 1.035-3.828 1.49-10.543.974-14.661-.62-5.028-2.385-9.962-4.958-13.908-1.059-1.608-3.169-4.275-3.546-4.275a.176.176 0 00-.095.055c-.094.157.213.816.346 1.091 1.318 2.604 2.393 6.338 2.809 9.727.676 5.585-.336 12.943-2.479 17.893-3.152 7.311-9.219 13.341-16.623 16.55-2.439 1.061-5.13 1.867-8.486 2.551-2.135.438-3.437.604-4.613.604-.902 0-1.813-.095-3.044-.33-1.004-.194-2.455-.479-3.231-.627-9.343-1.82-17.964-8.4-22.49-17.17-1.295-2.534-1.992-4.339-2.73-7.162-1.851-7.13-1.545-13.54.957-19.595l.268-.659c.329-.808.596-1.459.643-1.577.023-.063.056-.133.008-.188-.008-.023-.063-.055-.094-.055-.259 0-1.396 1.396-1.906 2.063-5.444 7.217-7.084 17.101-4.762 28.601 2.014 10.036 8.47 19.159 17.247 24.391zm12.92-4.408c-.173 0-.298-.095-.306-.242-.016-.166.109-.377.368-.425.031-.008.055-.008.087-.008.094 0 .212.031.212.313 0 .253-.11.362-.361.362zm20.442 2.792l.057-.086c.219-.321.313-.776.289-1.389-.021-1.146-.965-3.993-1.545-4.69l-.433-.519.424-.55c.274-.359.438-.519.55-.519.133 0 .211.196.274.408.055.212.399 1.302.862 2.696.9 2.811.973 3.994.267 4.92a2.114 2.114 0 01-1.192.801l-.916.251c-.149.047-.283.368-.33.659-.063.337-.252.722-.416.869-.268.229-.926.394-1.373.394-.228 0-.354-.047-.416-.087-.125-.078-.272-.438-.336-.814l-.104-.597c-.008-.04-.047-.077-.086-.077h-1.836v-.854c0-.581.095-.927.251-.927.103 0 .204.134.321.377.133.299.307.432.58.432.244 0 .571-.117 1.021-.354.416-.211.714-.299 1.06-.299.117 0 .252.01.399.031l.463.063c.849.117 1.326.182 1.608.182.345.002.408-.078.557-.321zm-34.946-2.313c-.04.221-.188.377-.361.377-.086 0-.157-.047-.212-.125a.349.349 0 01-.016-.338.438.438 0 01.385-.205.23.23 0 01.164.072c.04.055.064.133.04.219zm-9.594-18.278c-1.451.188-2.063.997-2.071 2.675 0 1.554.399 2.526 1.404 3.476.784.736 1.294.979 1.514.705.157-.194.149-.649-.008-1.349-.173-.722-.228-1.185-.039-1.436.188-.228.557-.274 1.074-.274h.032a4.517 4.517 0 011.882.416c.965.447 2.196 1.68 2.196 2.197 0 .369-1.113 1.412-1.506 1.412-.172 0-.298-.063-.337-.188-.079-.196.055-.51.337-.776.439-.406.447-.445.188-.947-.306-.596-1.593-1.349-2.307-1.349-.07 0-.117.008-.172.016-.479.125-.486.251-.196 1.506.196.888.196.926-.274 1.325-.314.273-.565.393-.855.393-.313 0-.683-.142-1.286-.484-2.056-1.187-3.225-3.483-2.723-5.365.416-1.53 1.451-2.471 2.699-2.471.133 0 .267.008.399.031.644.094.745.203.745.259.002.08-.249.166-.696.228zm7.578 8.315c-.102.022-.384.268-.644.55-.274.313-.934 1.036-1.412 1.554-.502.533-.909 1.098-.917 1.255 0 .118.047.212.125.274.235.188.84.07 1.515-.307.502-.268 1.113-.541 1.364-.598.103-.021.196-.029.306-.029.471 0 1.067.211 1.067.445 0 .212-1.02 1.264-1.482 1.521-.023.017-.039.022-.056.039a.08.08 0 00-.039.086c0 .031.023.063.063.078.109.031.329.07.502.096.164.021.345.037.525.037.298 0 .549-.029.69-.086.439-.172 2.07-1.938 2.651-2.871.204-.307.486-.502.753-.502s.416.182.416.464c0 .233-.103.438-.22.438h-.031c-.134.038-.714.619-1.287 1.303-1.372 1.615-1.788 1.97-3.091 1.97-.329 0-.705-.023-1.027-.048l-1.765-.117h-.008a.099.099 0 00-.071.039l-.454.597c-.307.394-.565.628-.644.628-.016 0-.055-.009-.086-.056-.142-.222-.056-1.027.211-1.554.204-.394.235-.77.079-1.021-.118-.196-.322-.291-.604-.291h-.055c-.439.04-.494-.039-.541-.541s-.181-.628-1.067-1.082c-1.004-.511-1.239-.776-1.239-1.411 0-.33.463-.66.809-.66.055 0 .117.008.172.031.142.055.243.329.243.604 0 .598.573 1.053 1.475 1.201.103.017.188.022.267.022.291 0 .511-.11.918-.471.338-.3.809-.888 1.036-1.335.384-.721.471-.791 1.074-.791.471 0 .659.078.659.267 0 .147-.078.264-.18.272zm5.004 4.621c-1.553 1.623-2.777 3.113-2.777 3.396 0 .156.134.346.377.494.29.188.667.29.91.22.29-.063.455-.269.525-.628.063-.361.228-.549.533-.628.338-.086.572-.056.683.087.078.102.103.268.047.471a1.23 1.23 0 00-.055.299.08.08 0 00.047.069c.016.017.047.017.079.017.055-.022.195-.103.635-.493.549-.472.769-.541.848-.541.031 0 .055.016.07.038.07.135-.125.533-.525 1.1-.416.588-.518.887-.432 1.225.165.644 1.027.987 1.765.987.511 0 .965-.155 1.239-.432.33-.339.424-.62.424-1.239 0-.675.134-1.48.714-1.48.103 0 .173.008.22.055.103.109.095.424.023 1.208l-.008.103c-.125 1.545-.125 1.545-.996 2.102l-.063.031a3.32 3.32 0 01-1.789.525c-.51 0-1.012-.125-1.459-.359-.808-.424-1.012-.801-1.012-1.819v-.636c0-.03-.023-.063-.047-.08-.016-.008-.031-.008-.047-.008s-.031 0-.047.008l-.511.348c-.423.29-.909.438-1.403.438a2.41 2.41 0 01-1.232-.338c-.274-.164-.541-.367-.58-.658-.078-.502.51-1.264 1.765-2.684.957-1.074 1.726-2.078 1.75-2.29 0-.282.172-.321.706-.321.431 0 .697.078.697.156-.015.104-.486.645-1.074 1.257zm4.879 1.78c.039-.212.251-.321.439-.321.196 0 .314.104.314.261 0 .147-.181.288-.408.319-.181.031-.282.018-.33-.039-.038-.056-.03-.149-.015-.22zm6.872 4.3a.45.45 0 01.337.125c.165.172.165.297-.016.58-.195.307-.172.416.095.715.204.234.353.307.862.307.267 0 .644-.021 1.161-.057.549-.039.887-.047 1.13-.047.439 0 .58.039.58.188 0 .116.023.22.079.272.156.166.502.119 1.239-.193l.949-.395.424.395c.234.22.368.267.432.267.049 0 .096-.022.109-.063.07-.108.282-.172.572-.172.369 0 .801.103 1.13.273.384.196.745.243 1.231.165.705-.11 2.307-.849 2.486-1.138.008-.008.008-.023.008-.039.008-.088-.143-.307-.394-.502-.308-.252-.519-.33-.887-.33-.136 0-.29.016-.511.039a5.285 5.285 0 01-.572.039c-.299 0-.354-.07-.354-.274 0-.438.674-.87 1.35-.87.307 0 .949.148 1.412.338.471.18 1.303.385 1.852.455.598.069.91.18.918.297 0 .104-.182.252-1.072.434-.455.086-.988.251-1.084.359 0 .008-.009.018-.017.031-.261.801-2.157 1.922-3.499 2.078-.454.057-1.09-.039-1.662-.229-.463-.155-.775-.229-1.313-.229-.398 0-.908.04-1.606.104-.808.069-1.278.108-1.576.108-.447 0-.542-.077-.683-.267-.173-.235-.447-.329-.957-.329-.393 0-1.247-.056-1.906-.118-1.146-.107-1.177-.125-1.177-.604 0-.604-.07-.619-1.278-.76l-.965-.119c-.031 0-.063.008-.079.03l-.854.927c-.549.598-1.2 1.1-1.758 1.334-.674.291-1.584.455-2.564.455a8.22 8.22 0 01-1.773-.188c-1.349-.313-1.891-.638-2.047-1.229-.055-.274-.055-.434 0-.52a.2.2 0 01.165-.071c.125 0 .29.048.525.144 1.592.658 2.675.939 3.616.939.714 0 1.381-.165 2.095-.523.69-.338 1.02-.629 1.02-.871 0-.149-.142-.299-.424-.432-.329-.156-.518-.4-.541-.707-.055-.589.463-1.311 1.372-1.945.252-.18.519-.273.77-.273.572 0 .973.486.973 1.186 0 .447.055.744.188.935.148.204.36.298.69.298.267 0 .627-.063 1.129-.195.326-.089.521-.128.67-.128zm24.405-3.562c.103.03.212.047.329.047.879 0 1.662-.823 1.662-1.749 0-.234-.234-.761-.519-1.191-.563-.815-.657-1.356-.319-1.693.367-.377.769-.229 1.098.438l.22.446c.017.04.048.048.086.056.04 0 .063-.031.087-.063l.117-.432c.268-.896.753-1.39 1.357-1.39.432 0 .879.222 1.365.651l.154.146c.573.52.573.494 1.208-.761l.183-.36c.557-1.099 1.316-1.688 2.393-1.844.871-.134 1.805-.645 1.969-1.066.063-.157.016-.423-.094-.612-.212-.322-.26-.847-.143-1.208.039-.109.104-.251.229-.29.447-.173.762.439.762 1.451 0 1.112-.494 1.796-1.75 2.432-.934.472-1.104.753-.949 1.576.07.438.008.667-.344 1.067-.33.384-.464.479-1.053.479-.094 0-.212-.008-.337-.008-.118-.008-.228-.016-.321-.016-.494 0-.785.078-1.052.297-.36.299-.407.479-.416 1.797 0 1.24-.078 1.601-.485 2.385-.572 1.083-1.601 2.143-2.502 2.573-.369.173-.564.212-.66.212-.047 0-.107-.016-.133-.063-.047-.119.133-.439.784-.996 1.506-1.287 2.134-2.387 2.463-4.34.039-.26.079-.445-.022-.572-.135-.188-.604-.242-1.633-.367l-.869-.104c-.022 0-.049 0-.07.023a.092.092 0 00-.031.069l.063 1.004c.07 1.006.023 1.179-.453 1.82-.637.887-1.336 1.246-2.387 1.246-.393 0-.854-.047-1.402-.148-.049-.008-.079-.008-.118-.008-.222 0-.243.26-.243 1.162 0 1.271-.195 1.285-.203 1.285-.095 0-.212-.273-.268-1.051-.086-1.105-.84-3.303-1.316-3.844-.229-.269-.221-.377.069-.965.269-.543.455-.66.563-.66.229 0 .347.438.394.801.134.887.369 1.451.589 1.451.143 0 .273-.213.359-.604.056-.308.213-.511.377-.511.117 0 .229.117.229.438-.006.708.448 1.438.983 1.564zm8.142-11.233c-.242.117-.439.274-.471.36 0 .008-.008.023-.008.031.008.055.016.125.07.18.008.017.055.063.147.063.147 0 .347-.103.563-.274.203-.157.455-.259.666-.259.143 0 .308.063.308.243 0 .102-.261.495-.438.746-.242.32-.433.753-.433.957s-.095.462-.22.579c-.203.213-.399.26-.504.135-.086-.103-.102-.321-.047-.604.072-.376 0-.518-.455-.775-.484-.29-.549-.408-.492-1.036.056-.753.502-1.302 1.074-1.302.133 0 .26.031.385.094.251.102.367.228.367.361.014.163-.167.328-.512.501zm5.663-.368c.291-.228.433-.462.464-.723.03-.392-.221-.871-.793-1.498-.572-.643-.783-1.027-.783-1.42 0-.321.094-.549.211-.549.156 0 .862.675 1.287 1.139.752.8 1.152 1.113 1.428 1.113.156 0 .273-.102.4-.313.32-.597-.253-1.647-1.531-2.793-1.09-.988-1.498-1.264-2.188-1.482-.251-.079-.385-.698-.313-1.146.047-.235.125-.369.233-.369.134.016.841.557 2.165 1.75 1.38 1.23 2.018 1.944 2.221 2.447.519 1.286.26 2.148-.896 2.973-.408.291-.737.636-.745.777 0 .133-.313.524-.698.878-.446.399-.769.619-.829.635-.058-.017-.275-.18-.746-.745-1.168-1.42-2.369-2.62-2.849-2.871-.385-.196-.479-.369-.479-.854 0-.408.086-.612.234-.612.377 0 2.77 2.525 3.17 3.342.172.337.336.588.407.659.022.022.063.022.095.016.089-.034.299-.167.535-.354zm-.753-9.163c-.031-.4-.008-.604.071-.69a.162.162 0 01.108-.047c.407.023 3.602 3.444 3.711 3.82.069.219.086.455.022.51-.126-.016-.746-.542-1.481-1.247-.754-.746-1.602-1.412-1.875-1.482-.421-.111-.509-.189-.556-.864zm-13.719 16.623c-.157.039-.338-.063-.416-.252a.38.38 0 01.078-.446c.056-.071.164-.103.275-.103.133 0 .266.055.344.147.07.086.096.188.08.298a.478.478 0 01-.361.356z"/><path d="M146.781 133.649c-.149-.259-.683-.353-1.099-.353-.268 0-.533.039-.753.11-.347.118-.919.533-1.271.925-.433.479-.65.573-.755.573-.194 0-.229-.384-.229-.706 0-.8-.405-1.812-.86-1.835-.463.023-.871 1.036-.871 1.835 0 .322-.031.706-.228.706-.102 0-.313-.094-.753-.573-.353-.392-.926-.808-1.271-.925a2.517 2.517 0 00-.753-.11c-.416 0-.941.094-1.106.353-.133.211.51.925.636 1.075 1.741 1.882 2.086 4 1.066 6.464-.847 2.055-1.138 3.514-1.051 5.356.102 2 .471 2.935 1.412 3.554.212.149.722.472.815.472.047 0 .149 0 .533-.745.463-.918 1.318-1.836 1.569-1.875.251.039 1.099.957 1.562 1.875.385.745.485.745.525.745.104 0 .609-.322.823-.472.94-.619 1.302-1.553 1.411-3.554.087-1.843-.203-3.302-1.053-5.356-1.02-2.463-.674-4.582 1.067-6.464.132-.15.775-.864.634-1.075z"/><path d="M147.627 163.873c-.017-2.071-.328-3.413-1.459-6.252-.723-1.813-.799-2.134-.809-3.467-.008-1.602.29-2.424 1.168-3.24.313-.291.416-.494.361-.651-.063-.156-.274-.228-.676-.228-.689 0-1.766.549-2.299 1.169-.211.235-.346.291-.416.291-.172 0-.313-.291-.398-.816-.063-.376-.346-.965-.645-1.317-.283-.337-.455-.502-.644-.519-.196.017-.369.181-.651.519-.298.353-.588.94-.643 1.317-.087.525-.229.816-.4.816-.07 0-.204-.055-.416-.291-.533-.62-1.608-1.169-2.291-1.169-.407 0-.619.071-.682.228-.056.157.047.361.36.651.879.816 1.177 1.639 1.161 3.24 0 1.333-.078 1.654-.8 3.467-1.138 2.839-1.443 4.181-1.451 6.252-.017 1.639.031 1.867.564 2.949.494 1.004 1.475 2.125 2.04 2.125.227 0 .274-.422.274-.674 0-.3.22-.957.479-1.437.683-1.271 2.078-3.138 2.455-3.428.368.29 1.766 2.157 2.447 3.428.259.479.479 1.137.479 1.437 0 .252.047.674.273.674.564 0 1.547-1.121 2.041-2.125.539-1.082.586-1.311.578-2.949zM175.24 117.105a.25.25 0 00-.243-.157c-.117 0-.838.149-1.451.29-.619.141-1.498.22-2.479.22-1.563 0-3.199-.188-4.26-.494-1.805-.518-4.919-2.079-6.409-3.224-1.521-1.177-3.09-2.063-4.542-2.573-1.6-.557-3.467-.863-5.264-.863-1.891 0-3.616.345-4.848.957-1.14.581-2.205 1.53-2.494 2.236v-5.868a.092.092 0 00-.057-.086c-.031-.008-.07-.008-.095.008l-1.286 1.028-1.294-1.028c-.024-.016-.063-.016-.095-.008-.039.016-.055.047-.055.086v5.867c-.29-.706-1.365-1.655-2.495-2.236-1.231-.612-2.949-.957-4.848-.957-1.796 0-3.663.306-5.271.863-1.443.51-3.012 1.396-4.534 2.573-1.49 1.145-4.604 2.706-6.408 3.224-1.06.306-2.699.494-4.26.494-.98 0-1.859-.079-2.472-.22-.619-.141-1.341-.29-1.459-.29a.273.273 0 00-.251.157c-.195.486.793 2.228 1.852 3.263 1.153 1.122 2.463 1.663 3.993 1.663 1.545 0 3.318-.549 5.428-1.687 1.773-.949 3.923-1.671 4.997-1.671.188 0 .51.031.51.204 0 .102-.125.172-.313.172-.902 0-2.651.604-5.06 1.75-2.581 1.231-4.048 1.749-4.896 1.749-.274 0-.454.079-.533.228-.125.228 0 .596.4 1.169.628.941 1.71 1.412 3.208 1.412h.032c1.451 0 2.251-.322 3.545-1.396 1.694-1.404 5.452-2.965 6.73-2.965.235 0 .307.047.33.079.023.016.039.047.023.102-.031.165-.274.282-.769.353-1.867.29-4.032 1.326-6.269 2.997a32.427 32.427 0 01-1.568 1.122c-.369.212-.346.345-.102.8.415.776 1.436 1.365 2.557 1.482 1.436.157 2.683-.274 3.97-1.357 2.659-2.22 5.161-3.836 5.946-3.836.227 0 .259.039.259.039-.008.008-.008.188-1.099.769a21.508 21.508 0 00-4.283 2.981c-.541.502-1.153.997-1.341 1.106-.228.118-.354.259-.393.431-.047.267.078.581.432 1.036.549.737 1.49 1.067 2.69.941 2.338-.251 4.181-1.389 7.044-4.354 1.114-1.161 2.032-2.023 2.165-2.079.008.008.056.008.063.031.039.086-.071.424-.729 1.153-.934 1.051-1.122 1.655-.762 2.518.235.557.589.8 1.13.8.235 0 .502-.039.832-.125.274-.071.47-.11.619-.11.071 0 .181.008.204.063.031.047.039.212-.385.745-1.066 1.326-.909 2.973.393 4.095.306.259.808.635.98.635.204 0 .549-.447.706-.683.321-.486.612-.761.902-.847.282.086.58.361.896.847.154.235.494.683.696.683.173 0 .683-.376.988-.635 1.302-1.122 1.459-2.77.394-4.095-.425-.533-.416-.698-.386-.745.022-.055.134-.063.203-.063.144 0 .346.039.62.11.328.086.597.125.822.125.551 0 .91-.243 1.129-.8.369-.863.183-1.467-.752-2.518-.658-.729-.77-1.067-.736-1.153.018-.023.063-.023.068-.031.136.055 1.054.918 2.166 2.079 2.863 2.965 4.707 4.103 7.045 4.354 1.207.125 2.143-.204 2.689-.941.354-.455.479-.769.432-1.036-.047-.172-.164-.313-.393-.431-.188-.11-.8-.604-1.341-1.106-1.177-1.075-2.737-2.165-4.283-2.981-1.091-.58-1.099-.761-1.099-.769 0 0 .031-.039.259-.039.792 0 3.287 1.616 5.946 3.836 1.285 1.083 2.525 1.514 3.961 1.357 1.121-.118 2.148-.706 2.564-1.482.242-.455.273-.588-.103-.8-.183-.11-.902-.62-1.568-1.122-2.235-1.671-4.399-2.707-6.269-2.997-.494-.071-.737-.188-.776-.353-.008-.055.009-.086.022-.102.023-.031.103-.079.338-.079 1.277 0 5.035 1.561 6.729 2.965 1.295 1.075 2.088 1.396 3.547 1.396h.022c1.506 0 2.589-.471 3.226-1.412.383-.573.519-.941.393-1.169-.078-.149-.252-.228-.533-.228-.848 0-2.313-.518-4.896-1.749-2.408-1.146-4.158-1.75-5.06-1.75-.188 0-.313-.071-.313-.172 0-.173.322-.204.51-.204 1.074 0 3.226.722 5.006 1.671 2.104 1.137 3.875 1.687 5.421 1.687 1.528 0 2.84-.542 3.992-1.663 1.072-1.035 2.06-2.776 1.856-3.262zM148.898 99.149c-.58-.432-1.31-.722-2.235-.894-1.104-.22-2.369-.243-3.475-.259-.023 0-.057.008-.07.024a.1.1 0 00-.023.07l.009.479v1.318h-2.58v-1.318l.008-.479c0-.031-.008-.047-.032-.07-.023-.016-.039-.024-.063-.024-1.106.016-2.369.04-3.475.259-.926.172-1.655.462-2.236.894-.023.016-.031.031-.039.063a.13.13 0 00.023.07c1.177 1.287 3.828 2.055 7.107 2.079 3.271-.024 5.923-.792 7.101-2.079a.119.119 0 00.021-.07c-.009-.032-.017-.048-.041-.063z"/><path d="M151.747 108.53a72.784 72.784 0 00-.746-1.545c-1.074-2.149-2.086-4.181-1.914-7.232 0-.039-.016-.07-.047-.086-.031-.016-.07-.008-.103.008-1.576 1.169-4.274 1.906-7.122 1.977-2.855-.071-5.554-.808-7.131-1.977-.031-.016-.07-.023-.102-.008-.032.016-.048.047-.048.086.173 3.052-.839 5.083-1.914 7.232-.242.494-.502 1.02-.745 1.545a.115.115 0 00-.016.055c0 .055.032.094.087.094h.008c.016-.008.031-.008.047-.016l3.311-2.377 1.945 2.142a.071.071 0 00.063.032c.031 0 .055-.008.07-.032l2.229-2.604 2.142 2.133c.008.008.008 0 .008 0v.008c.016 0 .031-.008.047 0 .016-.008.023 0 .039 0v-.008s.008.008.008 0l2.142-2.133 2.229 2.604c.017.024.039.032.071.032a.074.074 0 00.063-.032l1.944-2.142 3.312 2.377c.017.008.03.008.047.016h.009c.055 0 .086-.039.086-.094-.004-.023-.012-.039-.019-.055zM199.583 132.488l-.088.055c-.688.447-1.475 1.639-1.977 2.604-.564 1.059-1.02 2.283-1.051 2.84l-.008.125-.135.031c-.479.11-1.17.486-1.766.957-.637.502-1.146 1.083-1.326 1.538-.133.471-.242.878-.32 1.231-.031.133-.063.259-.086.384a.095.095 0 00.055.103c.017.008.022.008.039.008a.083.083 0 00.07-.039c.432-.604 1.256-1.114 2.127-1.616.258-.149.518-.298.782-.447.896-.502 1.813-1.028 2.563-1.608.086-.07.175-.298.244-.604a4.33 4.33 0 01.039-.267c.063-.298.143-.667.268-1.098.424-1.53 1.256-3.02 2.542-4.558.016-.016.03-.047.016-.07a7.199 7.199 0 01.558-4.236c.009-.016.009-.023.009-.039.008-.393-.125-.753-.376-.941a.609.609 0 00-.4-.149.856.856 0 00-.455.157c-.697.463-1.42 2.157-1.332 5.538l.008.101z"/><path d="M197.032 131.711c.135 1.122-.424 2.275-1.051 2.934a.112.112 0 00-.023.047 5.272 5.272 0 01-.291.917c-.375.941-.996 1.938-1.441 2.549-.135.173-.299.518-.473.934a.116.116 0 00.041.118.1.1 0 00.047.008c.031 0 .048-.008.063-.023.117-.11.269-.235.438-.369.604-.471 1.217-.816 1.727-.973.031-.016.063-.039.063-.079.104-.682.486-1.702 1.066-2.8.676-1.271 1.356-2.181 1.992-2.644.023-.016.031-.047.031-.079-.031-1.741.126-3.13.463-4.142a.049.049 0 000-.047 1.308 1.308 0 00-.229-.549c-.095-.118-.182-.165-.307-.165h-.021c-.252 0-.604.22-.91.565-.668.746-1.319 2.253-1.185 3.798z"/><path d="M194.829 133.146c.281-.016.532.032.736.165.188.118.32.298.393.541.008.04.031.063.07.063h.016a.106.106 0 00.078-.039c.434-.706.637-1.499.551-2.134-.127-1.491.393-2.675.705-3.248a.089.089 0 000-.094c-.155-.259-.313-.455-.471-.565a.543.543 0 00-.291-.125h-.086c-.242.032-.541.337-.783.8-.502.957-.879 2.69-1.013 4.534 0 .031.009.055.022.07a.176.176 0 00.073.032zM189.195 169.693c-2.243 0-4.228-.918-5.325-1.742a1.24 1.24 0 01-.26-1.748 1.26 1.26 0 011.749-.26c.165.119 4.119 2.941 7.625-.313a1.254 1.254 0 011.767.063 1.238 1.238 0 01-.07 1.765c-1.783 1.655-3.712 2.235-5.486 2.235z"/><path d="M204.54 127.239a2.335 2.335 0 00-.117-.643c0-.008 0-.016-.008-.023-.078-.149-.166-.228-.283-.267-.021 0-.047-.008-.077-.016a.746.746 0 00-.29.063c-.321.149-.715.557-1.027 1.067-.619 1.035-1.146 2.8-.783 4.699l.016.079-.047.063c-1.312 1.538-2.149 3.012-2.564 4.519a9.355 9.355 0 00-.251 1.075c-.022.094-.039.18-.056.274-.07.345-.133.62-.354.8-.792.612-1.71 1.129-2.604 1.631-.273.157-.541.306-.801.455-1.277.745-1.977 1.326-2.188 1.844-.008.008-.016.016-.016.03-.149.321-.229.479-.338.604a.357.357 0 01-.117.079c-.023.008-.149.008-.204-.032-.095-.078-.095-.133-.095-.196v-.047c-.023-.313.078-.832.233-1.505.175-.722.399-1.522.62-2.181.281-.815.52-1.349.745-1.663.416-.573 1.043-1.561 1.403-2.471.195-.463.307-.895.313-1.2.009-.345-.069-.541-.272-.667-.205-.125-.473-.157-.785-.078-.344.078-.697.274-.934.431a5.499 5.499 0 00-.809.644 3.27 3.27 0 00-.426.494c-.094.188-.297.439-.57.761-.273.33-.628.737-1.027 1.185-.848.941-1.602 1.726-1.953 2.032-.009.008-.017.008-.022.016a6.69 6.69 0 01-.455.337c-.651.486-1.545 1.137-2.313 1.851-.658.604-1.75 1.757-1.719 2.746.008 2.463-.156 15.187-.234 21.063.394-.172.863-.157 1.23.118.165.125 4.119 2.94 7.625-.313.346-.321.84-.393 1.264-.243a291.45 291.45 0 01-.039-8.111c.008-1.914.047-3.632.117-4.966.047-.776.078-1.311.133-1.71.047-.486.104-.77.188-.98.472-1.083 1.687-2.173 2.974-3.317.211-.196.433-.393.65-.581 1.498-1.365 3.17-2.973 3.923-4.785.815-2.063 1.515-5.436 1.897-7.899.212-1.389.369-2.722.424-3.758.03-.546.038-.986.023-1.308z"/><g><path d="M83.79 132.488l.078.055c.69.447 1.475 1.639 1.978 2.604.572 1.059 1.027 2.283 1.059 2.84v.125l.141.031c.463.11 1.161.486 1.766.957.627.502 1.137 1.083 1.317 1.538.142.471.243.878.33 1.231.023.133.055.259.078.384.008.04-.008.086-.055.103-.008.008-.023.008-.039.008a.111.111 0 01-.071-.039c-.432-.604-1.247-1.114-2.117-1.616-.26-.149-.526-.298-.793-.447-.887-.502-1.804-1.028-2.564-1.608-.087-.07-.173-.298-.236-.604a6.12 6.12 0 01-.047-.267c-.063-.298-.133-.667-.259-1.098-.431-1.53-1.263-3.02-2.549-4.558-.008-.016-.031-.047-.016-.07.337-1.914-.204-3.476-.549-4.236-.008-.016-.016-.023-.016-.039-.008-.393.126-.753.377-.941a.603.603 0 01.4-.149.86.86 0 01.455.157c.706.463 1.419 2.157 1.333 5.538l-.001.101z"/><path d="M86.332 131.711c-.134 1.122.423 2.275 1.051 2.934.008.008.023.023.023.047.055.259.149.557.29.917.385.941 1.004 1.938 1.451 2.549.134.173.29.518.463.934.016.039 0 .086-.039.118-.016.008-.031.008-.047.008a.094.094 0 01-.063-.023c-.125-.11-.267-.235-.438-.369-.604-.471-1.216-.816-1.726-.973-.024-.016-.063-.039-.063-.079-.094-.682-.486-1.702-1.066-2.8-.667-1.271-1.357-2.181-1.985-2.644-.031-.016-.039-.047-.039-.079.039-1.741-.109-3.13-.463-4.142v-.047c.056-.235.134-.431.228-.549.095-.118.181-.165.314-.165h.016c.251 0 .604.22.909.565.666.746 1.325 2.253 1.184 3.798z"/><path d="M88.536 133.146c-.282-.016-.534.032-.729.165a.923.923 0 00-.4.541c0 .04-.031.063-.07.063h-.016c-.023 0-.048-.016-.071-.039-.431-.706-.635-1.499-.557-2.134.126-1.491-.393-2.675-.706-3.248a.098.098 0 010-.094c.157-.259.321-.455.471-.565a.544.544 0 01.29-.125h.087c.243.032.541.337.784.8.502.957.886 2.69 1.012 4.534.008.031-.008.055-.023.07a.173.173 0 01-.072.032zM94.168 169.693c2.244 0 4.229-.918 5.334-1.742.558-.406.667-1.19.26-1.748a1.263 1.263 0 00-1.75-.26c-.172.119-4.126 2.941-7.625-.313a1.251 1.251 0 00-1.765.063 1.229 1.229 0 00.063 1.765c1.781 1.655 3.711 2.235 5.483 2.235z"/><path d="M78.832 127.239a2.37 2.37 0 01.11-.643c0-.008.008-.016.008-.016.086-.157.172-.235.282-.274.023 0 .047-.008.086-.016.071 0 .173.016.291.063.314.149.706.557 1.02 1.067.619 1.035 1.145 2.8.784 4.699l-.016.079.047.063c1.31 1.538 2.149 3.012 2.565 4.519.125.416.196.769.251 1.075.023.094.047.18.063.274.07.345.126.62.345.8.793.612 1.719 1.129 2.604 1.631.274.157.542.306.801.455 1.286.745 1.977 1.326 2.196 1.844 0 .008.008.016.016.03.141.321.228.479.337.604a.322.322 0 00.11.079c.016.008.156.008.204-.032.094-.078.094-.133.094-.196v-.047c.023-.313-.07-.832-.235-1.505a25.143 25.143 0 00-.611-2.181c-.291-.815-.526-1.349-.746-1.663-.423-.573-1.051-1.561-1.412-2.471-.195-.463-.306-.895-.306-1.2-.016-.345.071-.541.267-.667.212-.125.471-.157.785-.078.345.078.698.274.941.431.274.188.572.408.8.644.22.204.376.416.424.494.094.188.298.439.58.761.267.33.62.737 1.02 1.185.855.941 1.608 1.726 1.962 2.032 0 .008.016.008.016.016.133.102.29.22.455.337.65.486 1.553 1.137 2.321 1.851.651.604 1.741 1.757 1.71 2.746 0 2.463.165 15.187.243 21.063-.399-.172-.87-.157-1.231.118-.172.125-4.126 2.94-7.625-.313a1.251 1.251 0 00-1.263-.243c.039-2.792.07-5.703.039-8.111a119.044 119.044 0 00-.125-4.966 26.731 26.731 0 00-.126-1.71c-.055-.486-.102-.77-.196-.98-.47-1.083-1.679-2.173-2.973-3.317-.204-.196-.432-.393-.644-.581-1.506-1.365-3.169-2.973-3.93-4.785-.816-2.063-1.506-5.436-1.898-7.899a43.733 43.733 0 01-.424-3.758 12.403 12.403 0 01-.016-1.308z"/></g></g></svg>