<svg xmlns="http://www.w3.org/2000/svg" viewBox="2.84 48.38 277.79 186.71"><path fill="#D6D4D1" d="M2.835 48.376h277.793v186.712H2.835z"/><path fill="#FED524" d="M5.111 232.827V50.671h273.235z"/><path fill="#E85127" d="M278.346 232.827H5.111L278.346 50.671z"/><path d="M223.052 119.097a6.72 6.72 0 00-6.699-6.126 6.733 6.733 0 00-6.73 6.73c0 .204.018.408.031.612.016.086.023.165.031.259l.008.008a8.768 8.768 0 00.58 1.984 6.672 6.672 0 001.93 2.424c.573.22 1.231.549 1.844 1.028.486.181.996.306 1.529.369.354-.274.887-.557 1.641-.69 0 0-.485-.369-.676-2.314-.18-1.953-1.224-1.773-1.224-1.773s3.562-1.09 4.841 2.887c0 0 .195.181.368.486a6.756 6.756 0 002.235-3.216c0-.008-.008-.016-.008-.023-.156-2.471-1.373-2.55-1.373-2.55s.778-.166 1.672-.095zM201.048 167.624c-.118 0-.235.016-.354.016-.502.204-1.137.36-1.835.282a8.237 8.237 0 00-2.84 1.412 4.382 4.382 0 01-.58.485c-1.656 1.521-2.699 3.688-2.699 6.104 0 4.59 3.719 8.309 8.309 8.309s8.3-3.719 8.3-8.309a8.299 8.299 0 00-8.301-8.299zM136.355 165.121c-.376-.11-.879-.188-1.553-.165-1.954.047-1.616-.393-1.616-.393s-1.224 1.506-3.515 1.641c0 0-.98 1.561-1.741 1.867 0 0 .424 1.459-.753 3.146 0 0 .549.627.737 1.616.173.965-.11 3.146 4.229 4.581.454.102.925.155 1.403.155a6.539 6.539 0 002.809-12.448zM123.098 204.421s1.325-.519 1.325-2.91c0 0-1.121-1.231-1.066-2.338a.71.71 0 01-.118-.108c-.431.156-2.008.463-4.816-1.813-.031 0-.063-.01-.094-.01a7.524 7.524 0 00-5.789 2.717c-.031.021-.047.047-.07.078-.095.115-.181.234-.275.359-.689 1.012-1.224 2.33-1.396 4.078v-.021a2.503 2.503 0 00-.023.346c0 4.165 3.381 7.546 7.555 7.546a7.55 7.55 0 007.546-7.546c0-.165-.016-.33-.023-.484-.567.459-1.438.694-2.756.106z" fill="#FFF"/><path d="M234.378 91.478c-1.17-.212-3.563-.934-5.694-.753-2.134.18-2.573 1.012-4.573 1.741s-3.537.337-3.537.337c.627-.157 1.35-1.012 2.213-1.718.861-.698.908-1.796 4.729-2.707 3.819-.91 3.719-3.248 3.719-3.248s-2.202 1.381-5.325 1.012c-3.121-.36-4.009.212-4.658 1.201-.646.988-2.104 1.718-2.104 1.718.022-1.742 2.291-5.436 2.685-6.244.385-.808.125-3.695.406-4.26.282-.573.235-1.459 2.495-3.671 2.269-2.212 1.276-3.742 1.276-3.742-1.436 3.459-4.705 4.032-5.12 5.695-.416 1.663-.573 3.922-1.931 5.326-1.351 1.404-2.81 2.189-2.854 4.966-.048 2.785-.91 3.334-.91 3.334-.909-.291-2.493.62-2.493.62-1.226-1.742-3.642.102-3.642.102s-1.304-1.012-2.494-1.553c-1.198-.549-2.707-.314-2.707-.314s-.753-3.302-3.021-3.82c-2.26-.525-2.854.934-2.854.934s-1.718-1.404-3.922-2.032c-2.213-.62-4.534.863-4.534.863-.597-1.145-1.529-1.953-6.056-3.381-4.521-1.436-1.634-2.628-8.599-5.044-6.975-2.416-8.582-.314-8.582-.314 4.182-.416 8.08 2.369 8.08 2.369l-.551.439c-3.732-2.079-5.013-.753-5.013-.753 2.573.102 4.313 1.867 4.313 1.867-.541.706-.597 2.244-.597 2.244s-5.226-3.177-7.979-3.413c-2.762-.228-3.797 1.357-3.797 1.357s-2.649-.73-4.58-.11c-1.922.627-1.789 1.694-1.789 1.694 3.924-1.898 8.91 1.012 8.91 1.012-.83.133-1.349.887-1.349.887-4.503-.628-4.989.886-4.989.886 1.555-.573 4.236.102 4.236.102-.863 1.82-.55 3.35-.55 3.35s-3.798-1.428-6.291-1.844c-2.494-.416-6.322-.055-8.001 1.506-1.694 1.561-1.594 4.424.847 5.436 2.447 1.012 2.888-.706 2.888-.706s-3.248.079-2.965-1.922c.289-2 3.67-2.023 8.063-1.09 4.394.934 9.616 3.483 9.616 3.483l-1.146.337c-1.679-1.168-3.97-.518-6.62-.933-2.651-.416-2.862-2.338-2.862-2.338-.729 2.597.775 3.35.775 3.35-5.271.157-8.031 3.248-8.031 3.248s-1.271-.306-5.618.267c-4.338.573-4.268 3.224-4.268 3.224 2.267-2.086 6.3-2.393 9.029-1.663 2.729.722 5.766.204 5.766.204-.926.549-.385 2.369-.385 2.369-2.628 1.216-1.404 4.056-1.404 4.056-1.224 1.404-.627 3.043-.627 3.043-5.741 1.969-6.368 6.338-6.368 6.338 2.445-2.573 5.614-2.934 5.614-2.934s-.696 3.146-2.541 5.248c-1.853 2.11-.188 4.448-.188 4.448.056-.855 1.271-3.954 3.482-4.11 2.213-.157 2.918-.675 2.918-.675s-.705 1.773.541 3.459c1.247 1.686 2.91 1.122 2.91 1.122s-.619 1.946-.023 3.53a2.653 2.653 0 002.11 1.718c-1.044 2.032-1.507 1.506-3.772 1.506-2.265 0-2.438 1.247-2.438 1.247 1.978-.8 2.463.863 4.754 1.718 2.29.863 3.608.055 3.608.055-.676 2.134.705 3.64.705 3.64-.629-.392-.957-.031-3.404.079-2.445.102-3.064-1.663-3.064-1.663-.754 2 1.121 2.495 2.57 3.248 1.451.753.832 1.459.832 1.459s-.908-1.067-1.718-1.302c-.802-.235-1.741.204-1.741.204s-.204-1.71-2.307-2.573c-2.11-.855-3.932.337-3.932.337s.07-1.82-1.515-2.675c-1.585-.863-2.729.259-2.729.259s.347-1.224-.721-1.765c-1.068-.549-1.458-1.043-1.774-1.852-.313-.8.079-1.898-1.506-2.495-1.585-.597-2.181-2-2.181-2-.651.933-.055 2.393.596 2.91.651.518.236 2.369.236 2.369s-.707-.832-1.82-1.02c-1.122-.18-1.741.761-1.741.761s-.706-1.122-1.978-1.436c-1.271-.306-2.102.832-2.102.832s-.471-.879-1.727-1.248c-1.239-.361-2.282.863-2.282.863s-.259-2.604-3.719-3.02c-3.459-.416-3.694-1.843-3.694-1.843-.259 2 1.537 2.934 2.181 3.326.659.392.447 2.337.447 2.337s-1.797-1.475-3.719-.306-1.874 3.483-1.874 3.483-1.53-.989-3.279-.055c-1.741.934-1.271 2.965-1.271 2.965-.777-.91-3.585-1.844-4.888-.596-1.294 1.247-2.572 1.192-4.181 1.718-1.616.518-1.146 1.349-1.146 1.349s1.271-.784 2.291-.337c1.004.439 1.71.078 2.259.078.549 0 1.169.542 1.169.542-.776.416-.604 1.718-.604 1.718-1.396 1.043-.125 3.042-.125 3.042-5.021 1.067-2.762 6.01-2.762 6.01-1.835.485-3.035 1.765-5.585 3.687-2.542 1.922-4.55 1.224-4.55 1.224s1.428 2.023 4.213.988c2.784-1.043 3.819-.706 3.819-.706-2.675 3.773-.8 6.009-.8 6.009-2.369 1.067-2.573 4.032-2.573 4.032-1.145.181-2.164 1.066-3.389 1.922-1.224.855-2.282.495-2.282.495.651 1.664 3.82 1.795 3.82 1.795s-.784.183-1.71 1.226c-.941 1.036-2.165.519-2.165.519-.024 1.248 1.403 2.36 1.403 2.36s-1.561-.204-2.651.269c-1.09.463-2.706.047-2.706.047 0 1.201.706 2.447.706 2.447-7.562-1.82-8.268.83-8.268.83 3.091-.055 3.169 1.326 3.169 1.326-.988-.471-1.318-.52-3.922-.338s-2.761.675-5.57-.887c-2.808-1.563-4.338-1.113-6.212-1.014-1.867.104-1.687-.965-4.417-1.199-2.73-.228-3.067 1.953-3.067 1.953 1.898-.965 2.832-.471 4.44.754 1.616 1.225 2.683.705 4.111.597 1.428-.103 2.965.03 4.11.729 1.146.707 4.785 2.156 4.785 2.156-3.381-.619-6.684.29-8.425 1.326-1.742 1.043-4.056 1.247-6.684 1.48-2.62.235-2.683 1.797-2.683 1.797 1.146-.519 2.212-.416 3.279-.291 1.067.136 2.887.604 4.628-.617 1.742-1.225 4.314-.52 4.314-.52-.8 1.529-3.192 2.439-4.879 2.754-1.694.313-3.875.313-5.075 1.688-1.2 1.381-3.146 1.93-4.762 2.057-1.608.133-2.651.414-4.259 2.313-1.608 1.896-4.448 2.445-4.448 2.445 1.93 1.295 4.448-.289 6.919-1.771 2.463-1.481 2.698-.675 4.832-1.013 2.134-.338 4.628-1.797 4.628-1.797-.416 2.425-6.181 3.438-7.923 4.109-1.749.676-3.852 2.526-6.275 5.358-2.416 2.832-6.605 3.403-6.605 3.403 1.82 1.429 4.973-.571 8.041-2.022 3.067-1.46 4.369-1.122 6.268-1.403 1.898-.291 3.138-1.1 4.495-2.166 1.357-1.06 1.922-3.225 3.93-2.988 1.992.234 3.122-.935 3.561-1.248.439-.313 1.71-2.359 3.664-2.571 1.953-.204 2.965-1.845 3.899-3.093.941-1.245 2.102-.86 2.102-.86-.855.212-3.169 3.065-3.687 4.322-.518 1.245-2.683 1.765-2.683 1.765 1.278.775 3.718-.212 4.456-1.247.722-1.043 3.452-2.683 4.471-2.832 1.004-.155 2.439-.392 2.439-.392-1.121 2.133-3.875 3.191-5.404 3.922-1.538.729-1.585 2.268-1.585 2.268 2.542-1.931 3.921-1.931 6.314-2.313 2.393-.394 3.719-2.394 4.158-3.021.447-.619 1.2-2.078 3.146-4.135 1.953-2.056 3.906-2.338 4.91-2.706 1.021-.36 3.334-2.205 4.063-2.879a686.09 686.09 0 003.562-3.46c1.067.463 2.307-.057 2.307-.057.988.967 2.808.158 2.808.158.188 2.133-.564 4.234-.564 4.234s-1.459-.494-2.494-.439c-1.044.058-1.898.699-1.82.936.078.234 1.192.182 1.53.291.337.104 1.224.697 1.145 1.271-.078.571-.572.65-1.294.729-.737.078-1.02.889-1.412 1.922-.393 1.043-1.82 1.225-1.82 1.225 1.898 1.742 4.841-1.013 4.841-1.013s.148.776.541 1.741c.392.957.134 1.741.134 1.741 1.325.104 1.247-1.923 1.843-2.763.597-.832 1.428-.696 1.428-.696-1.066 2.233 1.49 2.134 1.49 2.134-1.412 1.451.722 1.605.722 1.605-1.185.99.023 1.836.142 1.922-.023.011-.126.136-.479.941-.494 1.114-.103 1.428-.103 1.428s-2.887.135-4.659 2.416c-1.757 2.291-.596 5.154-.596 5.154s0 1.295.58 1.82c.564.518 1.317 2.393 1.317 2.393.73-7.279 7.516-7.312 7.516-7.312 3.404 2.81 5.052 1.853 5.052 1.853-.188 1.137 1.059 2.493 1.059 2.493 0 2.394-1.325 2.91-1.325 2.91 3.091 1.381 3.718-1.765 3.718-1.765 1.35-1.979.235-4.291.235-4.291.439-2.471-1.561-4.27-1.561-4.27 1.09.135 2.134-.617 2.134-.617.619 1.584 2.651 1.401 2.651 1.401-.079 1.015.808 1.507 1.639 2.104.832.597.565 4.446.565 4.446 2.636-3.741.549-7.411.549-7.411-.078-4.73-3.765-4.215-3.765-4.215-2.166-2.416-4.032.079-4.032.079-1.114-1.146-2.855-.879-2.855-.879.644-2.888-1.538-2.997-1.538-2.997.048-3.225-2.683-3.563-2.683-3.563-.675-2.676-.157-5.199-.157-5.506 0-.313.816-3.594.816-3.594 1.553 1.066 3.562.676 3.562.676s.753 1.402 1.867 1.795a11.482 11.482 0 012.078 1.014c3.585 2.291 6.111.675 6.111.675-4.66-1.429-4.346-3.688-4.519-4.675-.188-.989-.737-1.616-.737-1.616 1.177-1.688.753-3.146.753-3.146.761-.308 1.741-1.867 1.741-1.867 2.291-.133 3.515-1.64 3.515-1.64s-.338.439 1.616.393c1.945-.056 2.494.675 2.494.675-.393-5.57-4.863-3.797-4.863-3.797-2.103-.651-3.405.438-3.405.438-.65-.385-3.012.988-3.012.988.831-1.067.329-2.314.329-2.314 1.538-.91 1.797-2.313 1.797-2.313s.525.157 1.765-.181c1.255-.337 2.032-.181 2.032-.181-.519-1.146-4.55-3.122-6.786-1.922-2.235 1.192-2.259 3.091-2.259 3.091-1.93 1.482-1.381 4.314-1.381 4.314-.706-.204-1.64 1.169-1.64 1.169-.596-.439-1.718-.463-1.718-.463s-.988-2.236-1.317-3.044c-.346-.809-.063-2.337.541-3.663.596-1.333 0-2.212 0-2.212 1.373-.988.385-3.021.385-3.021 1.333-.596 1.459-2.283 1.459-2.283 2.212.079 2.416-2.525 2.416-2.525 2.84 1.2 4.087-1.325 4.087-1.325 2.965 1.506 4.259-.314 4.259-.314 1.695 2.314 5.256 1.146 5.256 1.146 1.538 1.427 3.538.988 3.538.988 1.718 1.765 4.573 1.561 4.573 1.561 2.934 2.079 5.742 1.067 5.742 1.067 3.021 2.235 6.738 1.481 6.738 1.481 2.133 1.608 3.818.439 3.818.439 1.412.753 2.841.808 2.841.808-1.226 2.134-.188 3.271-.188 3.271-1.584-.723-2.572.267-3.325.392-.753.133-.957-.878-2.29-.91-1.318-.022-1.529.519-1.529.519s1.137.188 1.977 1.122c.832.933 2.941.933 2.941.933s-2.558.627-3.467 2.761c-.91 2.126-2.283 1.766-2.283 1.766.729.909 2.314 1.302 3.854-.416 1.527-1.719 2.729-1.225 2.729-1.225-.291.526-.078.472.203 1.641.283 1.169-.313 2.368-.313 2.368 2.338-.234 2.76-3.278 2.76-3.278.314.212.725.259.725.259.211 2.887 3.436 2.055 3.436 2.055.775 2.91 3.875 2 3.875 2 1.607 2.604 4.598 1.227 4.598 1.227.502 1.584 3.906 2.133 4.814 1.74.91-.393 2.439-.697 3.742.416 1.295 1.121 2.235.809 2.235.809-3.304 2.811-.282 5.227-.282 5.227.157 4.683 3.483 4.524 3.483 4.524 1.741 4.599 6.966 2.651 6.966 2.651s-2.417.392-2.919-1.953c-.485-2.338-1.944-2.157-1.944-2.157 1.428-2.676-.65-3.979-.65-3.979 2.394-2.233 1.923-4.832 1.923-4.832 2.965-.289 3.614-3.225 3.614-3.225 2.347 1.663 4.629-.267 4.629-.267.729 1.356 3.066.313 3.066.313s.707.704 1.381 1.065c.674.369 1.09 1.844 1.09 1.844 1.719-3.741-1.74-5.955-1.74-5.955-.774-2-3.146-1.326-3.146-1.326-1.788-1.012-3.356.11-3.356.11-.047-.494-1.191-.235-1.191-.235 2.102-1.169 1.325-2.91 1.325-2.91.854-.109 1.767-.133 2.784-1.436 1.013-1.294 2.832-.8 2.832-.8-3.303-3.225-6.973-.525-6.973-.525s-1.352-.729-2.699.416c-1.351 1.146-1.021 2.942-1.021 2.942-3.036-.706-3.191 2.313-3.191 2.313-2.109-.337-2.988 1.584-2.988 1.584-1.663-1.922-3.922-1.349-3.922-1.349-2.088-2.573-4.457-1.146-4.457-1.146-1.191-1.122-2.83-.29-2.83-.29-1.295-2.471-3.664-1.843-3.664-1.843-.393-3.248.934-4.472.934-4.472 2.369-2.447 2.27-3.538 3.279-4.942 1.012-1.403 3.23-4.118 4.104-8.69.861-4.573.502-7.743.502-7.743 3.813-2.777 6.447-.832 6.447-.832.676 3.515-2.056 4.346-2.056 4.346 2.181 1.146 4.048-1.326 4.048-1.326-1.818 6.268 2.188 6.942 2.188 6.942s-.674-1.741.26-2.965c.941-1.224.472-2.259.472-2.259 2.989 1.898 2.91 4.212 2.91 4.212 1.169-1.146.571-3.122-.103-4.322-.676-1.192-.832-2.675-.832-2.675 2.395.314 4.785-.439 6.033-1.2 1.246-.753 1.528-1.059 3.584-2.416 2.055-1.349 3.012-.934 3.012-.934 1.885 2.675 4.322 2.754 4.322 2.754 1.742 1.122 3.508.886 3.508.886 3.248.651 4.918-1.765 4.918-1.765s1.662.228 3.226-.808c1.553-1.043 2.157-3.2 2.157-3.2 1.138-.055 1.765-.832 2.029-1.584.252-.753.096-2.526-.965-3.381-1.064-.855-.729-2.157-1.953-3.459-1.224-1.302-3.74-.753-3.74-.753s1.217.079 1.371 2.55c.158 2.471.99 2.785.99 2.785-2.023-.055-2.98 1.71-2.98 1.71.173-1.036-.604-1.742-.604-1.742-1.276-3.977-4.84-2.887-4.84-2.887s1.044-.18 1.226 1.773c.188 1.945.674 2.314.674 2.314-1.606.283-2.228 1.271-2.228 1.271-1.489-1.977-4.235-2.393-4.235-2.393.095-1.192-.078-.808-.737-2.699-.644-1.898-.329-3.153-.329-3.153-1.727 1.82-2.793 4.291-2.793 4.291-1.68-1.114-5.945.29-7.092.651-1.146.368-2.447.988-6.863.055-4.416-.941-4.966-1.506-5.984-2.526-1.004-1.012-4.283-2.518-7.304-3.224-3.021-.698-5.067-4.911-5.067-4.911 1.482.471 2.957.361 2.957.361 2.502 1.067 3.334 1.326 5.539 3.695 2.211 2.369 4.164 1.506 4.164 1.506-1.843-.518-3.066-2.494-3.693-3.561-.629-1.067-1.866-1.945-2.676-2.181-.809-.235-1.451-.604-1.451-.604 1.789-2.125 3.578-2.957 6.756-2.102 3.177.855 4.939-.439 4.939-.439 2.785 0 6.08 2.989 6.707 4.001.629 1.012 1.616 1.663 1.616 1.663s-1.043.291-1.616 1.585c-.572 1.302-2.021 1.616-2.021 1.616 2.822 1.271 4.723-.886 4.723-.886-.675 3.248 1.771 3.64 1.771 3.64a1.43 1.43 0 01.031-2.024c.598-.604 1.351-1.592 1.351-1.592s.125.494 1.065 1.357c.935.855.438 1.898.438 1.898 3.64-1.82.753-5.413.753-5.413 2.369-3.326-2.393-5.326-2.393-5.326.156-.416 2-1.381 2-1.381l2.651 1.302s.392 1.64.579 3.248c.174 1.616-.523 3.562-.523 3.562 2.597-1.789 1.896-6.033 1.896-6.033 4.495 1.561 8.729.447 9.859.212 1.113-.235 3.923-1.247 8.08-.855 4.156.384 3.718 3.718 3.718 3.718.338-.494 1.302-2.502-.597-4.063-1.897-1.553-5.568-1.789-5.568-1.789-.854-5.515-4.416-3.334-4.416-3.334s1.688-.125 1.796 1.898c.104 2.032-2.133 2.628-2.133 2.628.077-5.585-4.349-3.64-4.349-3.64 1.694.886 2.166 1.953 1.334 3.357-.83 1.404-4.164 1.192-4.164 1.192s-.104-1.271.604-2.651c.698-1.381 1.114-2.518 1.317-3.954.211-1.428-.854-2.753-.854-2.753 1.404-.337.022-1.483.022-1.483 2.164-.055.629-1.224.629-1.224s2.832-.439 6.134-1.741c3.303-1.294 3.381-2.675 6.84-3.271 3.451-.604 2.604.181 6.244-.188 3.642-.361 3.719-1.82 3.719-1.82s-2.809.505-3.986.302zm-66.121-2.653l-.934.33-.58.4-1.356-1.012-1.013-.981-.485-.941-.031-.745 1.052.393 2.291 1.373 1.389.98-.333.203zm.888-2.667l-3.075-.989-1.191-.462 1.396-.675 2.031.847 1.23.934.377.549-.768-.204zm-1.076-2.667l-1.388-.564-2.04-.596-.927-.369-1.199-.69-1.169-.432 1.325-.361 1.468.063 1.978.761 2.047 1.279 1.859 1.482.203.455-2.157-1.028zm6.598-1.701l.596.534.879.588.973.737.831.98.628 1.106-1.859-.267h-1.842l-.283-1.75-.03-1.168.107-.76zm-.031 30.231l-.715.283-.776-1.028-1.364-1.436-.542-.423v-1.31l.777-.094 1.192.063 2.211 3.412-.783.533zm-.157-5.914l-.463.063-.996-.981-.815-.581.424-.51 1.217.4 1.138.282 1.39.267.84.125-.433.408-1.138.384-1.164.143zm6.119 2.346l-.283.635-.423.832-.637.557-.729.455-.831.063-.869-1.051-1.062-1.6.636-.016h1.766l1.469-.173 1.482-.267-.519.565zm2.634-22.749l-1.191.212-.746-.024-.463-.659-1.498-1.6-2.479-2.048-1.514-1.137.533-.455 3.537 2.699 1.701 1.043 2.104 1.224.738.588-.722.157zm19.659 23.164l-.784 1.004-.745-.471-1.073-.847-.676-.557-.98-.392-.774-.11-.862-.416-.563-.894 2.142.486 4.26 1.153.771.376-.716.668zm5.146-.431l-.871-.439.965-.675-.094 1.114zm.252-4.017l-.558 1.169-.832.808-1.575.815-.738-.376-2.684-1.098-2.181-.714-3.011-.832-1.352-.33.52-1.059.832-1.13 1.246-.949.996-.4 1.459-.291.313 1.083.142 1.043-.103.934.415-.274.908-.769.879-.996.33-.542 1.938.808.165.651-.018.769-.233.494-.532.69.557.039 1.06-.188.979-.228.918-.439.707.274-.547 1.038zm3.529 5.483l-.895-.204-.69-.251.438-1.31.879-1.263.715-1.138-.096 1.09.08 1.945.438 1.294-.869-.163z" fill="#FFF"/><path d="M238.457 91.085c-.039-.031-.078-.039-.125-.031-.017 0-1.914.329-3.217.329-.289 0-.533-.016-.705-.047-.268-.047-.58-.118-.949-.196-1.1-.251-2.604-.588-4.07-.588-.25 0-.486.008-.723.032-1.35.109-2.039.494-2.854.925-.473.259-1.004.549-1.749.824a6.974 6.974 0 01-2.407.432c-.234 0-.433-.008-.598-.031.33-.204.675-.518 1.052-.863.251-.228.502-.455.771-.674.195-.165.359-.345.518-.542.549-.643 1.239-1.436 4.156-2.134 3.893-.925 3.828-3.294 3.82-3.396a.147.147 0 00-.07-.118c-.047-.023-.102-.023-.141.008-.018.008-1.729 1.051-4.205 1.051-.346 0-.689-.016-1.035-.063-.645-.07-1.191-.11-1.678-.11-1.836 0-2.56.526-3.106 1.373-.479.714-1.412 1.302-1.836 1.545.173-1.42 1.497-3.828 2.235-5.162.188-.345.338-.612.416-.769.219-.462.233-1.49.267-2.486.017-.753.03-1.538.142-1.773.063-.125.109-.251.156-.393.204-.588.518-1.482 2.314-3.239 2.313-2.267 1.342-3.852 1.293-3.922a.14.14 0 00-.125-.063c-.063.008-.104.04-.125.086-.801 1.938-2.205 2.965-3.326 3.781-.862.628-1.607 1.169-1.805 1.93-.086.369-.164.753-.25 1.161-.283 1.428-.604 3.036-1.633 4.111a17.4 17.4 0 01-.723.698c-1.1 1.036-2.135 2.016-2.182 4.362-.047 2.283-.637 3.012-.801 3.177a1.378 1.378 0 00-.377-.047c-.775 0-1.726.471-2.047.643-.369-.471-.863-.706-1.467-.706-.966 0-1.914.612-2.213.816-.313-.235-1.396-1.043-2.439-1.514-.683-.306-1.451-.376-1.977-.376-.299 0-.541.024-.684.04-.156-.628-.987-3.326-3.09-3.805a4.098 4.098 0 00-.941-.118c-1.239 0-1.797.659-1.992.973-.455-.337-1.977-1.42-3.844-1.945a4.517 4.517 0 00-1.187-.157c-1.546 0-2.901.714-3.317.957-.658-1.161-1.818-1.977-6.07-3.318-2.01-.635-2.525-1.216-3.122-1.891-.761-.847-1.624-1.82-5.483-3.153-2.236-.777-4.158-1.169-5.719-1.169-2.299 0-2.988.863-3.021.902-.029.047-.039.109-.008.157.032.047.08.079.144.071a7.38 7.38 0 01.848-.04c3.296 0 6.275 1.812 6.979 2.275l-.32.259c-1.389-.753-2.598-1.137-3.593-1.137-1.06 0-1.498.439-1.515.455-.039.039-.047.102-.031.157.023.047.07.086.125.086 2.174.086 3.767 1.404 4.144 1.749-.385.581-.502 1.538-.542 1.977-.996-.588-5.355-3.099-7.844-3.311-2.473-.204-3.602.996-3.868 1.333-.329-.078-1.442-.337-2.685-.337-.713 0-1.348.086-1.881.259-2.01.651-1.892 1.796-1.883 1.843 0 .047.03.086.069.11.039.024.086.023.133 0 .854-.416 1.845-.627 2.935-.627 2.416 0 4.724 1.051 5.539 1.475a2.37 2.37 0 00-1.035.776 14.6 14.6 0 00-1.914-.149c-2.745 0-3.139 1.09-3.153 1.138-.017.047 0 .11.039.149.04.031.104.047.147.031.4-.149.918-.228 1.539-.228 1.021 0 2.056.204 2.446.291-.597 1.373-.565 2.549-.519 3.043-.848-.313-3.961-1.412-6.096-1.773a13.419 13.419 0 00-2.086-.157c-2.629 0-4.889.635-6.041 1.702-.902.839-1.342 2.079-1.138 3.24.195 1.098.927 1.969 2.039 2.432.533.219 1.004.329 1.429.329 1.342 0 1.646-1.122 1.646-1.129.016-.04 0-.086-.031-.125a.135.135 0 00-.109-.055l-.047.008c-.188 0-1.853-.023-2.511-.792-.233-.259-.313-.581-.269-.973.156-1.043 1.248-1.569 3.257-1.569 1.229 0 2.784.196 4.637.596 3.702.785 8.032 2.746 9.256 3.311l-.722.22c-1.1-.729-2.387-.745-3.893-.753-.871-.008-1.771-.023-2.746-.173-2.502-.392-2.729-2.142-2.735-2.212a.137.137 0 00-.136-.125c-.068-.016-.125.039-.141.102-.533 1.898.078 2.855.518 3.263-4.627.274-7.277 2.8-7.688 3.224-.156-.023-.533-.071-1.246-.071-1.139 0-2.598.118-4.338.345-4.417.581-4.394 3.342-4.394 3.365.008.055.04.11.095.125a.131.131 0 00.148-.023c1.373-1.263 3.577-1.985 6.047-1.985 1.005 0 1.978.125 2.84.353.973.259 2.104.393 3.334.393.871 0 1.607-.071 2.063-.118-.455.643-.233 1.726-.142 2.086-2.337 1.169-1.584 3.624-1.403 4.103-1.005 1.216-.754 2.557-.636 2.981-5.647 2.008-6.323 6.37-6.339 6.417 0 .055.031.118.079.141a.154.154 0 00.172-.023c2.024-2.134 4.581-2.73 5.319-2.863-.188.722-.926 3.232-2.465 4.981-1.897 2.165-.203 4.597-.188 4.621.03.055.095.07.147.055.055-.015.104-.063.104-.125.047-.769 1.19-3.82 3.356-3.977 1.451-.102 2.268-.361 2.666-.533a3.971 3.971 0 00.658 3.263c1.006 1.357 2.291 1.318 2.832 1.224-.146.581-.447 2.086.039 3.396.504 1.31 1.569 1.679 2.024 1.773-.644 1.185-1.044 1.318-1.781 1.318-.188 0-.399-.016-.644-.023-.321-.016-.689-.039-1.129-.039-2.361 0-2.582 1.318-2.582 1.373-.017.047.008.102.047.133.049.031.096.039.143.016.337-.133.645-.204.918-.204.637 0 1.122.345 1.732.784.533.376 1.139.816 2.009 1.138.715.267 1.412.408 2.071.408.627 0 1.099-.133 1.373-.235a3.964 3.964 0 00.523 3.083c-.242-.04-.52 0-.939.055-.463.063-1.101.141-2.071.188-2.321.094-2.91-1.506-2.935-1.569-.017-.063-.078-.094-.134-.094-.055 0-.116.031-.134.086-.689 1.843.736 2.518 2.009 3.122.212.094.425.196.628.306.524.267.831.565.887.847a.527.527 0 01-.008.235c-.3-.306-.996-.996-1.646-1.192a2.136 2.136 0 00-.557-.07c-.463 0-.902.133-1.123.22-.117-.479-.597-1.781-2.369-2.51a4.277 4.277 0 00-1.631-.314 4.822 4.822 0 00-2.213.549c-.039-.549-.268-1.859-1.576-2.565a2.605 2.605 0 00-1.264-.337c-.605 0-1.066.22-1.351.4.022-.439-.063-1.169-.849-1.569-1.065-.549-1.412-1.028-1.702-1.773a3.553 3.553 0 01-.142-.659c-.102-.682-.204-1.451-1.451-1.922-1.506-.564-2.095-1.906-2.103-1.922-.016-.047-.063-.078-.109-.086-.063-.008-.109.016-.133.063-.698 1.004-.087 2.534.619 3.099.408.33.338 1.365.235 1.969a3.3 3.3 0 00-1.71-.863 1.883 1.883 0 00-.298-.031c-.745 0-1.239.447-1.459.69-.251-.337-.91-1.083-1.946-1.333a1.893 1.893 0 00-.471-.063c-.823 0-1.411.525-1.654.792-.212-.291-.729-.863-1.687-1.146a1.971 1.971 0 00-.519-.07c-.784 0-1.428.486-1.726.776-.188-.706-.941-2.526-3.789-2.871-3.286-.392-3.569-1.718-3.569-1.726-.016-.071-.07-.118-.141-.118-.063 0-.126.055-.142.125-.251 1.984 1.428 2.973 2.142 3.396l.118.071c.407.243.423 1.333.392 1.953-.353-.228-1.105-.643-2.039-.643-.564 0-1.122.157-1.632.47-1.632.989-1.898 2.738-1.93 3.374a3.701 3.701 0 00-1.577-.361 3.47 3.47 0 00-1.639.416c-1.334.722-1.436 2.055-1.396 2.722-.644-.51-1.813-.973-2.949-.973-.77 0-1.412.219-1.852.643-.91.878-1.805 1.09-2.855 1.341-.408.094-.816.196-1.271.337-.675.22-1.099.525-1.248.91-.133.353.017.635.024.651a.124.124 0 00.086.063.107.107 0 00.109-.016c.008 0 .745-.447 1.522-.447.235 0 .446.039.635.118a2.64 2.64 0 001.083.235c.282 0 .533-.047.761-.086.181-.031.337-.055.479-.055.337 0 .722.244.926.393-.565.462-.533 1.38-.502 1.663-1.153.925-.471 2.494-.204 3.012-1.365.329-2.314.988-2.809 1.961-.792 1.584-.141 3.498.078 4.048-1.333.392-2.329 1.185-3.812 2.36-.486.393-1.036.831-1.663 1.311-2.464 1.858-4.417 1.199-4.425 1.199a.13.13 0 00-.156.048.127.127 0 000 .164c.031.056.965 1.351 2.792 1.351a4.59 4.59 0 001.585-.306c1.647-.62 2.667-.745 3.239-.745.118 0 .212.008.291.008-2.166 3.177-1.13 5.295-.785 5.852-2.039 1.027-2.432 3.412-2.494 3.97-.926.18-1.773.8-2.683 1.459-.204.156-.424.306-.644.463-.644.455-1.239.549-1.616.549-.329 0-.541-.07-.541-.07-.055-.016-.118 0-.149.039-.039.039-.047.094-.031.149.51 1.302 2.424 1.71 3.389 1.828-.329.18-.769.502-1.255 1.034-.36.408-.808.604-1.325.604-.385 0-.667-.115-.667-.115a.141.141 0 00-.142.016c-.031.023-.063.07-.063.109-.016.934.698 1.771 1.138 2.195-.118-.008-.259-.008-.416-.008-.518 0-1.271.055-1.883.313-.329.142-.737.211-1.224.211-.737 0-1.381-.164-1.389-.164-.039-.017-.086 0-.117.022a.132.132 0 00-.063.11c0 .894.376 1.796.58 2.234-1.647-.378-3.091-.572-4.291-.572-3.396 0-3.835 1.515-3.851 1.576-.008.047 0 .094.031.127.023.029.063.063.11.055h.173c1.882 0 2.525.557 2.745.91-.486-.213-.895-.308-1.678-.308-.502 0-1.161.039-2.008.103-.518.039-.941.086-1.318.125-.439.057-.777.096-1.114.096-.706 0-1.412-.173-3.043-1.091-1.859-1.027-3.122-1.169-4.103-1.169-.479 0-.934.039-1.389.078-.267.022-.533.047-.8.063-.879.057-1.271-.165-1.773-.432-.533-.29-1.208-.645-2.636-.77-2.84-.244-3.216 2.047-3.216 2.069a.157.157 0 00.055.142c.039.032.102.031.149.008.659-.336 1.2-.492 1.702-.492.824 0 1.514.416 2.596 1.23.753.572 1.444.832 2.26.832.376 0 .737-.057 1.114-.104.267-.039.541-.078.832-.103 1.687-.118 3.059.116 4.016.705.769.472 2.604 1.265 3.773 1.75-.384-.03-.785-.056-1.185-.056-2.675 0-4.974.8-6.229 1.553-1.71 1.028-3.985 1.225-6.621 1.459-2.714.243-2.801 1.867-2.809 1.932 0 .056.031.094.063.125.047.022.094.03.141.008.564-.258 1.161-.377 1.851-.377a11.122 11.122 0 011.757.167c.424.063.957.144 1.522.144 1.067 0 1.984-.28 2.792-.849.659-.463 1.522-.697 2.557-.697.644 0 1.192.095 1.467.156-.855 1.373-3.036 2.213-4.699 2.519-.337.063-.69.11-1.059.165-1.451.204-3.099.434-4.087 1.577-1.334 1.521-3.499 1.905-4.668 2-1.749.144-2.785.519-4.361 2.369-1.561 1.836-4.338 2.385-4.369 2.393-.047.009-.094.056-.11.109a.152.152 0 00.063.147c.502.33 1.067.502 1.695.502 1.6 0 3.412-1.09 5.161-2.142l.212-.125c1.42-.849 2.079-.918 2.675-.918.142 0 .267 0 .408.009.157 0 .33.008.502.008.408 0 .792-.031 1.2-.096 1.726-.273 3.647-1.246 4.377-1.646-.636 1.615-3.915 2.551-6.126 3.187-.667.188-1.24.354-1.624.502-1.733.677-3.797 2.438-6.323 5.396-2.361 2.763-6.472 3.356-6.519 3.356a.147.147 0 00-.118.103c-.008.057.008.117.055.148.439.354.973.526 1.616.526 1.475 0 3.255-.896 5.146-1.837.471-.234.941-.471 1.412-.697 2.26-1.066 3.562-1.161 4.833-1.255.439-.031.902-.063 1.396-.142 1.852-.274 3.114-1.043 4.565-2.183.463-.366.832-.854 1.192-1.315.706-.926 1.381-1.789 2.636-1.647.173.022.361.03.534.03 1.491 0 2.416-.744 2.918-1.146.079-.063.149-.116.204-.155.118-.088.267-.252.471-.487.627-.714 1.694-1.905 3.13-2.063 1.828-.195 2.832-1.568 3.726-2.785.094-.125.188-.242.267-.367.526-.689 1.114-.848 1.53-.854-1.09.753-2.91 3.122-3.35 4.183-.486 1.16-2.565 1.68-2.588 1.68a.168.168 0 00-.11.117c0 .055.023.108.07.142.322.204.729.306 1.216.306 1.255 0 2.824-.729 3.42-1.593.698-.996 3.388-2.62 4.376-2.776.737-.108 1.679-.267 2.149-.338-1.035 1.694-3.2 2.691-4.651 3.357-.196.087-.377.173-.542.251a2.849 2.849 0 00-1.663 2.385c-.008.056.023.103.071.134a.143.143 0 00.149-.016c2.212-1.671 3.498-1.867 5.443-2.156.251-.039.525-.088.816-.135 2.36-.384 3.694-2.281 4.196-2.996l.055-.07a9.8 9.8 0 00.33-.511c.471-.745 1.271-2 2.8-3.608 1.593-1.687 3.209-2.164 4.268-2.484.22-.063.416-.126.589-.188 1.043-.367 3.357-2.211 4.11-2.91.659-.611 3.06-2.974 3.498-3.396.29.109.612.173.973.173.581 0 1.083-.155 1.271-.228.345.298.8.445 1.356.445.565 0 1.091-.156 1.357-.252.109 1.711-.377 3.392-.533 3.86-.393-.126-1.538-.455-2.416-.407-.926.047-1.663.524-1.883.83-.063.104-.094.204-.063.291.078.227.455.268 1.051.307.235.017.471.039.58.07.33.104 1.106.658 1.044 1.121-.056.439-.4.518-1.169.604-.801.089-1.114.91-1.506 1.945l-.016.071c-.361.94-1.695 1.129-1.711 1.129a.144.144 0 00-.078.246c.439.408.98.62 1.585.62 1.388 0 2.776-1.06 3.263-1.476.079.307.235.879.502 1.537.361.896.126 1.631.126 1.641-.016.037-.008.086.016.126.023.03.063.055.109.063.989.077 1.287-.896 1.538-1.74.125-.416.243-.816.432-1.075.368-.519.839-.628 1.098-.644-.243.588-.243 1.073-.016 1.441.322.511.996.645 1.404.684-.282.36-.377.684-.267.957.149.393.659.559.996.619-.243.268-.368.551-.353.848.031.472.399.832.611.998a9.889 9.889 0 00-.424.86c-.313.714-.282 1.13-.203 1.365-.73.077-3.013.485-4.534 2.446-1.702 2.211-.737 4.967-.628 5.265.008.204.047 1.381.62 1.897.51.455 1.169 2.057 1.271 2.289-.008.11-.016.213-.016.322 0 4.235 3.451 7.688 7.695 7.688 4.236 0 7.688-3.45 7.688-7.688 0-.148-.016-.298-.016-.439.659-.596.91-1.475.949-1.646 1.278-1.892.4-4.03.243-4.369.337-1.977-.815-3.497-1.35-4.087.753-.029 1.428-.395 1.718-.572.581 1.209 1.945 1.342 2.519 1.342h.047c.016.896.737 1.396 1.443 1.892l.259.188c.636.445.589 3.271.51 4.32 0 .063.039.117.095.143.063.016.133 0 .172-.055 2.511-3.587.77-7.146.565-7.522-.078-4.024-2.77-4.339-3.593-4.339-.11 0-.204.009-.259.009-.636-.69-1.318-1.044-2.024-1.044-1.035 0-1.812.762-2.078 1.066-.941-.863-2.196-.871-2.667-.841.188-.948.07-1.7-.33-2.233-.408-.525-.98-.676-1.239-.724-.016-2.848-2.212-3.459-2.706-3.554-.525-2.182-.268-4.26-.165-5.053.016-.174.031-.289.031-.338 0-.203.447-2.094.753-3.363 1.381.839 2.989.666 3.404.604.188.321.895 1.428 1.898 1.772 1.083.384 2.04.996 2.056 1.004 1.294.823 2.604 1.247 3.883 1.247 1.459 0 2.338-.549 2.377-.572v-.017c.345.056.69.095 1.035.095a6.69 6.69 0 006.684-6.684 6.689 6.689 0 00-2.792-5.43c-.252-3.452-2.032-4.173-3.483-4.173-.745 0-1.35.196-1.521.259a4.619 4.619 0 00-1.318-.204c-1.13 0-1.883.463-2.103.627a.913.913 0 00-.298-.047c-.636 0-1.694.502-2.306.824.376-.8.203-1.585.109-1.875 1.231-.769 1.624-1.835 1.726-2.212.079.008.165.016.282.016.275 0 .738-.04 1.42-.228a5.89 5.89 0 011.49-.212c.307 0 .479.03.479.03.048.017.103-.008.134-.047.039-.04.039-.102.023-.148-.423-.918-2.996-2.377-5.256-2.377-.659 0-1.247.133-1.726.392-2.07 1.106-2.307 2.777-2.338 3.146-1.646 1.317-1.49 3.554-1.412 4.22-.611.016-1.271.824-1.506 1.146-.533-.33-1.317-.399-1.584-.416-.173-.407-.988-2.251-1.287-2.957-.298-.714-.078-2.181.549-3.554.503-1.122.196-1.938.048-2.228 1.113-.918.58-2.526.392-2.989 1.075-.565 1.334-1.804 1.396-2.212 1.852-.023 2.307-1.867 2.408-2.471.463.18.918.267 1.342.267 1.6 0 2.447-1.2 2.683-1.6.753.368 1.475.549 2.134.549 1.146 0 1.812-.558 2.07-.824.723.887 1.836 1.357 3.248 1.357.941 0 1.726-.204 1.977-.283.949.854 2.056 1.035 2.824 1.035.33 0 .58-.031.69-.048 1.412 1.396 3.506 1.554 4.344 1.554.111 0 .188 0 .244-.008 1.545 1.083 3.06 1.31 4.056 1.31a6.09 6.09 0 001.71-.228c1.805 1.31 3.836 1.585 5.232 1.585.76 0 1.31-.079 1.48-.11.762.557 1.555.839 2.338.839.784 0 1.333-.275 1.529-.384a7.543 7.543 0 002.597.769c-.735 1.404-.519 2.369-.289 2.863a2.812 2.812 0 00-.802-.118c-.627 0-1.146.229-1.563.416-.25.11-.455.204-.649.235-.282.055-.479-.103-.745-.307-.329-.259-.753-.588-1.514-.604h-.096c-1.311 0-1.554.549-1.576.612-.016.039-.016.086.017.117a.113.113 0 00.094.07c.019.008 1.106.188 1.897 1.075.551.628 1.615.854 2.322.934-.84.346-2.229 1.114-2.871 2.612-.637 1.482-1.475 1.702-1.922 1.702-.127 0-.195-.016-.195-.016a.142.142 0 00-.156.055.154.154 0 000 .165 2.188 2.188 0 001.727.832c.563 0 1.428-.212 2.346-1.24.918-1.027 1.695-1.239 2.188-1.239.095 0 .173.008.234.017-.126.29-.079.446.03.769.063.181.142.432.234.808.274 1.106-.291 2.26-.299 2.275a.131.131 0 00.016.141c.024.04.072.063.127.063 2.057-.212 2.697-2.502 2.84-3.201.188.086.377.142.502.165.188 1.898 1.688 2.181 2.572 2.181.394 0 .715-.047.887-.086.559 1.836 2.049 2.111 2.91 2.111.455 0 .832-.07 1.006-.109.666 1.027 1.662 1.568 2.887 1.568.77 0 1.42-.22 1.693-.322.533 1.24 2.697 1.82 4.063 1.82.261 0 .627-.021.879-.134a4.087 4.087 0 011.601-.345c.754 0 1.429.242 2 .736.802.684 1.469.862 1.922.879-.861.824-1.293 1.703-1.277 2.604.023 1.35 1.02 2.298 1.264 2.512.172 4.273 2.98 4.571 3.521 4.596.996 2.526 3.053 3.061 4.604 3.061 1.373 0 2.465-.4 2.512-.416a.152.152 0 00.078-.078 8.375 8.375 0 003.772.902c4.651 0 8.448-3.789 8.448-8.449 0-2.125-.809-4.07-2.118-5.563.048-.008.071-.03.095-.069 1.646-3.593-1.381-5.836-1.758-6.104-.502-1.23-1.561-1.49-2.369-1.49-.406 0-.744.071-.877.103a3.287 3.287 0 00-1.586-.416 3.44 3.44 0 00-1.718.463c-.086-.133-.29-.243-.683-.235 1.238-.957 1.059-2.142.934-2.581.809-.094 1.719-.204 2.706-1.467.957-1.23 2.675-.753 2.683-.753a.137.137 0 00.157-.063c.031-.063.031-.134-.017-.174-1.105-1.083-2.368-1.624-3.748-1.624-1.695 0-3.021.824-3.334 1.035-.166-.063-.534-.204-1.028-.204-.627 0-1.224.229-1.757.675-1.139.973-1.131 2.354-1.083 2.87a3.762 3.762 0 00-.698-.069c-1.984 0-2.393 1.851-2.463 2.399a5.388 5.388 0 00-.359-.016c-1.467 0-2.269 1.083-2.535 1.522-1.025-1.091-2.242-1.326-3.104-1.326a4.11 4.11 0 00-.735.063c-.832-.997-1.836-1.53-2.918-1.53-.763 0-1.344.26-1.563.369a2.313 2.313 0 00-1.547-.557c-.549 0-1.026.173-1.246.259-.918-1.624-2.301-1.875-3.053-1.875-.234 0-.424.023-.549.039-.205-1.875.195-3.036.524-3.655.022-.023.086-.133.204-.321.102-.142.182-.221.182-.221 1.561-1.615 2.055-2.65 2.502-3.562.229-.47.446-.917.791-1.396.079-.117.174-.234.27-.368 1.064-1.451 3.051-4.149 3.852-8.385.784-4.134.559-7.162.512-7.695 1.315-.941 2.635-1.42 3.904-1.42 1.225 0 2.023.455 2.243.588.017.016.017.023.03.031.59 3.279-1.865 4.071-1.977 4.11-.048.016-.095.063-.095.118-.008.055.022.11.078.142.394.211.815.313 1.247.313 1.138 0 2.078-.729 2.58-1.231-.532 2.134-.424 3.82.33 5.021.815 1.294 2.07 1.514 2.117 1.528a.148.148 0 00.135-.055c.039-.039.039-.094.022-.141-.009-.017-.637-1.679.234-2.824.646-.839.659-1.592.596-2.024 2.565 1.789 2.534 3.859 2.534 3.883 0 .055.031.11.086.133a.137.137 0 00.157-.031c1.159-1.138.722-3.06-.078-4.487-.521-.91-.729-2.016-.793-2.439.313.031.637.047.965.047 2.104 0 3.985-.69 4.976-1.286.674-.408 1.064-.683 1.601-1.059.463-.33 1.034-.738 1.991-1.365 1.225-.8 2.041-.973 2.512-.973.172 0 .29.023.346.04 1.771 2.518 4.016 2.753 4.36 2.777 1.647 1.051 3.325.91 3.546.886.369.071.736.11 1.09.11 2.33 0 3.625-1.522 3.893-1.867.078 0 .195.008.367.008.598 0 1.758-.11 2.871-.848 1.412-.941 2.049-2.737 2.182-3.185 1.371-.11 1.896-1.2 2.057-1.671.259-.745.143-2.62-1.004-3.538-.502-.4-.676-.91-.871-1.498-.195-.596-.434-1.271-1.061-1.945-.557-.588-1.35-.808-2.055-.879-.361-3.443-3.279-6.142-6.824-6.142-3.422 0-6.244 2.518-6.771 5.797h-.008c-1.476 1.561-2.479 3.624-2.745 4.181-.438-.235-1.035-.361-1.788-.361-1.897 0-4.291.769-5.192 1.051l-.354.118c-.636.212-1.354.447-2.649.447-1.061 0-2.33-.157-3.885-.486-4.346-.918-4.896-1.467-5.898-2.479-1.099-1.098-4.472-2.589-7.381-3.263-2.455-.573-4.291-3.593-4.824-4.55 1.279.337 2.447.29 2.668.282l.406.173c2.182.925 2.998 1.271 5.053 3.467 2.273 2.439 4.283 1.561 4.313 1.545a.133.133 0 00.086-.141c-.008-.063-.038-.11-.103-.125-1.663-.471-2.801-2.118-3.608-3.499-.644-1.09-1.905-2-2.761-2.251a7.592 7.592 0 01-1.271-.502c1.363-1.577 2.658-2.259 4.299-2.259.658 0 1.379.11 2.195.33a7.986 7.986 0 002.135.298c1.693 0 2.684-.596 2.887-.729 2.729.032 5.931 2.926 6.543 3.93.471.753 1.113 1.302 1.441 1.561-.359.173-1.02.604-1.441 1.561-.533 1.216-1.914 1.53-1.932 1.53-.063.016-.108.063-.108.125-.017.063.022.118.077.141a4.493 4.493 0 001.836.416c1.318 0 2.275-.636 2.746-1.028-.143.965.009 1.765.425 2.369.588.855 1.489 1.004 1.528 1.012.07.008.117-.023.147-.078.032-.055.017-.118-.022-.165a1.264 1.264 0 01-.369-.886c0-.345.144-.683.394-.941.447-.447.976-1.098 1.226-1.412.125.235.408.644 1.004 1.185.84.777.425 1.694.408 1.734-.031.055-.017.118.03.165a.14.14 0 00.156.023c1.036-.518 1.663-1.231 1.853-2.118.33-1.514-.705-3.043-.988-3.42.58-.855.77-1.71.533-2.534-.455-1.6-2.33-2.589-2.888-2.855.269-.29 1.146-.816 1.789-1.161l2.533 1.24c.069.321.394 1.765.558 3.169.174 1.561-.511 3.483-.519 3.499a.157.157 0 00.047.165.156.156 0 00.173 0c2.322-1.601 2.087-5.013 1.984-5.938 1.515.494 3.146.745 4.855.745 2.086 0 3.78-.369 4.596-.549l.261-.055c.181-.039.416-.102.684-.172 1.121-.291 2.995-.777 5.498-.777.619 0 1.238.032 1.859.086 1.348.133 2.336.581 2.94 1.341.799.997.649 2.212.649 2.22a.14.14 0 00.095.149.139.139 0 00.165-.047c.563-.832 1.159-2.777-.62-4.244-1.757-1.436-4.895-1.765-5.537-1.82-.519-3.106-1.906-3.765-2.998-3.765-.877 0-1.584.431-1.615.447-.063.031-.077.102-.063.165a.142.142 0 00.135.102c.008 0-.008-.008.063-.008.354 0 1.507.133 1.593 1.765.078 1.585-1.334 2.244-1.854 2.424-.008-1.467-.327-2.534-.973-3.185-.479-.486-1.113-.729-1.891-.729a4.56 4.56 0 00-1.68.345.137.137 0 00-.086.125c0 .055.031.102.078.125.91.479 1.428.988 1.602 1.569.125.471.023.988-.33 1.592-.611 1.02-2.714 1.138-3.592 1.138-.127 0-.236-.008-.314-.008 0-.345.047-1.373.598-2.456.752-1.475 1.138-2.636 1.332-3.993.174-1.192-.479-2.291-.769-2.699.298-.109.479-.274.533-.494.079-.337-.188-.714-.407-.941.549-.055.862-.204.941-.462.094-.291-.143-.596-.33-.792a34.258 34.258 0 005.867-1.702c1.428-.557 2.26-1.138 3.004-1.647.996-.69 1.859-1.279 3.813-1.624.918-.157 1.602-.227 2.158-.227.377 0 .666.031.973.07.377.04.752.079 1.334.079.502 0 1.082-.031 1.764-.102 3.72-.369 3.846-1.883 3.854-1.953.03-.045.015-.084-.016-.115zm-24.301 19.344c1.152 0 3.178-.165 3.836-1.279.399-.667.51-1.263.354-1.812-.165-.596-.646-1.114-1.459-1.592.28-.086.761-.212 1.276-.212.698 0 1.266.22 1.688.644.61.627.91 1.694.896 3.185 0 .047.017.086.055.11.039.031.08.04.119.031.031-.008 2.354-.659 2.242-2.777-.078-1.404-.879-1.835-1.42-1.969a2.959 2.959 0 011.026-.204c1.42 0 2.369 1.255 2.729 3.64a.16.16 0 00.142.118c.03 0 3.64.251 5.478 1.757 1.441 1.185 1.137 2.62.83 3.365a3.395 3.395 0 00-.705-1.828c-.658-.824-1.709-1.31-3.139-1.443a19.147 19.147 0 00-1.893-.094c-2.541 0-4.433.494-5.562.785-.267.07-.503.125-.675.165l-.268.063c-.801.173-2.479.542-4.533.542-.346 0-.69-.016-1.036-.039a3.968 3.968 0 01-.282-1.161c.082-.003.184.005.301.005zm-10.167-20.984a5.21 5.21 0 01.651-.039c.494 0 1.23.063 1.859.353.939.431 1.943 1.153 2.313 1.428-.384.259-1.561.949-3.71 1.239-1.663.235-2.802-.337-3.72-.941a3.758 3.758 0 012.607-2.04zm-2.345-.047c-.635.886-.445 1.718-.346 2.024-.156-.102-.305-.212-.446-.306a9.244 9.244 0 00-.879-.573c.142-1.2.502-1.945 1.114-2.188.934-.384 2.181.502 2.494.737-.596-.219-1.458-.369-1.937.306zm-3.562-2.887c.008-.016.024-.016.024-.023.017-.04.423-.965 1.819-.965.267 0 .563.04.879.11 1.545.353 2.369 2.095 2.714 3.06-.533-.361-1.632-.973-2.542-.604-.689.282-1.105 1.075-1.271 2.314-.195-.102-.375-.204-.533-.29-.51-.283-.879-.479-1.537-.644-.11-1.804.314-2.721.447-2.958zm-42.87 3.185c-1.866-.392-3.451-.596-4.698-.596-2.173 0-3.365.612-3.53 1.812-.07.471.04.871.322 1.2.643.745 2.039.863 2.572.879-.133.267-.486.745-1.303.745-.377 0-.83-.11-1.318-.314-1.026-.423-1.692-1.208-1.865-2.22-.188-1.059.204-2.205 1.051-2.973 1.303-1.208 3.875-1.632 5.846-1.632.713 0 1.418.055 2.039.157 2.455.408 6.229 1.82 6.269 1.835.047.023.104.008.142-.023.039-.032.063-.086.049-.133 0-.016-.291-1.514.531-3.264.018-.039.018-.086 0-.125s-.047-.063-.094-.078c-.049-.008-1.352-.337-2.684-.337-.455 0-.849.039-1.201.118.33-.274 1.061-.635 2.63-.635.579 0 1.237.047 1.961.149.047 0 .103-.016.133-.063.008-.008.494-.706 1.256-.823a.148.148 0 00.117-.11.133.133 0 00-.063-.149c-.031-.023-2.918-1.679-5.994-1.679-1.034 0-1.991.188-2.84.549.078-.314.399-.91 1.681-1.318.502-.165 1.098-.251 1.786-.251 1.404 0 2.691.353 2.699.353a.143.143 0 00.156-.055c.016-.016 1.036-1.521 3.672-1.294 2.69.228 7.867 3.357 7.924 3.389a.134.134 0 00.142 0 .135.135 0 00.069-.118c0-.016.057-1.499.572-2.149a.153.153 0 00-.016-.188c-.063-.07-1.616-1.616-3.971-1.882.221-.086.533-.165.966-.165.965 0 2.157.384 3.538 1.153a.144.144 0 00.156-.016l.549-.439a.162.162 0 00.048-.118c0-.047-.017-.086-.056-.11s-3.459-2.432-7.304-2.432c-.142 0-.282 0-.424.008.384-.235 1.138-.534 2.463-.534 1.529 0 3.42.385 5.634 1.153 3.779 1.31 4.619 2.251 5.356 3.075.627.706 1.169 1.31 3.247 1.969 4.32 1.365 5.373 2.157 5.97 3.311a.136.136 0 00.097.07c.039.008.076.008.107-.016.018-.008 1.568-.988 3.303-.988.385 0 .762.047 1.106.149 1.864.526 3.389 1.624 3.778 1.922-.188.361-.533 1.287-.438 2.934-.172-.031-.359-.071-.563-.102-.283-.047-.533-.079-.771-.11-1.113-.141-1.789-.235-3.72-1.569a21.419 21.419 0 01-1.145-.871c-1.703-1.357-3.188-2.526-7.076-1.42-.229-.141-1.836-1.2-3.279-1.977-1.536-.816-4.854-3.467-4.887-3.499a.156.156 0 00-.182 0l-.518.416c-.031.031-.055.07-.047.117 0 .047.016.086.063.11.031.023 3.719 2.51 5.906 5.342-.901.023-1.686-.079-2.432-.212-.588-1.239-1.688-2.314-2.455-2.785-.69-.423-1.506-1.169-1.521-1.177-.031-.031-.094-.039-.143-.023a.155.155 0 00-.094.102c-.212 1.098.148 3.02.268 3.585a8.352 8.352 0 00-1.317.29c-3.507 1.051-4.188 2.456-4.313 2.879-.109 0-.221.008-.33.016l-.008-.016c-.164-.11-3.978-2.698-4.918-2.785a.139.139 0 00-.148.11c-.01.078-.299 1.812 2.918 3.805-.229.321-.321.667-.243 1.027.157.745.979 1.341 1.914 1.389a2.23 2.23 0 011.208.416c-.814.086-2.949.322-4.698.714-.428-.204-5.418-2.581-9.607-3.475zm28.491-4.267c-.822.227-1.553.353-2.211.392-1.945-2.597-5.193-4.926-5.947-5.452l.283-.228c.549.439 3.404 2.699 4.84 3.459a43.423 43.423 0 013.035 1.829zm-5.366.134a2.582 2.582 0 00-.094-.023c-1.027-.188-2.023-.361-3.201-.243-.094-.463-.422-2.165-.297-3.248.28.251.848.714 1.355 1.028.7.43 1.657 1.38 2.237 2.486zm-9.945 3.011a3.38 3.38 0 00-.848.314c-.299.149-.52.329-.707.525-2.558-1.569-2.823-2.958-2.84-3.396.849.243 3.249 1.788 4.395 2.557zm-4.684 5.218l1.121-.329c2.008-.463 4.533-.706 4.98-.746.423.447.648 1.051.775 1.632a2.986 2.986 0 01-.598-.408.155.155 0 00-.141-.032.148.148 0 00-.096.11c0 .023-.094.573.347 1.185.532.737 1.584 1.216 3.122 1.436 3.207.455 5.443 1.467 6.824 3.099-.611.055-2.338.063-4.504-1.2-2.822-1.64-4.354-1.522-6.949-.91-.809.196-1.411.369-1.938.526-1.137.33-1.825.541-3.224.518h-.01a.147.147 0 00-.133.086.148.148 0 00.047.157c.031.039.645.557 1.806.871-.125.032-.251.079-.376.125 0 0 0-.016-.018-.016-.031-.016-3.844-1.569-4.143-3.185-.272-1.586 3.069-2.905 3.108-2.919zm.73 6.275c-.987.557-1.694 1.655-2.29 2.604l-.023.032c-.965 1.538-3.727 4.777-6.096 5.012a22.79 22.79 0 01-2.33.094c-.861 0-1.701.016-2.705.173.055-.871.455-5.993 2.988-9.061.666-.031 1.49-.039 2.525 0 3.459.118 6.394.4 6.416.4h.017c.636.361 1.2.62 1.498.746zm-15.085-1.013c-1.208 0-2.307-.125-3.255-.384a11.633 11.633 0 00-2.918-.361c-2.384 0-4.534.659-5.961 1.82.141-.706.823-2.306 4.095-2.738 1.741-.235 3.184-.345 4.307-.345.918 0 1.262.078 1.262.078a.165.165 0 00.144-.047c.022-.023 2.774-3.044 7.933-3.201.063 0 .117-.047.133-.11s-.018-.125-.078-.157c-.047-.023-1.2-.643-.824-2.683.275.636.98 1.647 2.816 1.938.988.157 1.906.165 2.793.172 1.363.008 2.558.031 3.554.596-.824.361-3.295 1.577-3.013 3.122.147.839 1.09 1.624 2.047 2.236a118.816 118.816 0 00-5.867-.353c-3.083-.118-4.456.165-4.77.251-.257.033-1.198.166-2.398.166zm.793 6.48c.031-.047.047-.102.016-.149-.048-.118-1.129-2.73 1.334-3.875a.147.147 0 00.078-.165c0-.023-.503-1.71.321-2.204.243-.047.784-.141 1.718-.204-2.494 3.216-2.863 8.362-2.902 9.092-.377.063-.769.157-1.198.283-.105-.386-.342-1.664.633-2.778zm6.746 30.798c-.221-.11-.432-.212-.65-.314-1.232-.58-2.3-1.09-1.962-2.439.321.525 1.185 1.506 3.035 1.436a22.314 22.314 0 002.103-.188c.66-.086.902-.117 1.226.086.063.04.144.024.188-.031.047-.055.047-.133 0-.18-.017-.016-1.316-1.483-.676-3.507a.13.13 0 00-.047-.149.141.141 0 00-.154-.016c-.019.008-.552.33-1.522.33-.628 0-1.286-.134-1.978-.393-.832-.313-1.42-.729-1.945-1.106-.627-.447-1.16-.832-1.891-.832-.229 0-.472.039-.729.118.188-.33.729-.871 2.202-.871.434 0 .793.023 1.115.039 1.379.071 1.897.102 2.783-1.624a.19.19 0 000-.133.182.182 0 00-.117-.071c-.008 0-1.42-.141-1.983-1.624-.572-1.522.022-3.428.03-3.444a.132.132 0 00-.039-.141c-.039-.04-.094-.055-.147-.04 0 0-.251.086-.628.086-.58 0-1.412-.196-2.118-1.153-1.184-1.6-.532-3.302-.532-3.318.03-.063.008-.125-.047-.165-.048-.039-.109-.039-.164 0-.01 0-.716.494-2.841.644-2.048.149-3.256 2.683-3.546 3.852-.359-.69-.997-2.4.359-3.954 1.671-1.906 2.425-4.667 2.551-5.209a24.707 24.707 0 012.55-.282c.086.447.763 3.357 5.101 8.621.463.573.899 1.098 1.31 1.584 3.733 4.479 5.278 6.331 5.688 11.9.107 1.499-.299 2.589-1.217 3.256-1.066.776-2.697.886-4.322.714.039-.11.069-.251.039-.432-.068-.383-.421-.736-1.025-1.05zm-6.59-2.251c.525 0 1.035.102 1.521.298 2 .816 2.229 2.393 2.229 2.463a.14.14 0 00.078.102c.031.023.078.023.125.008 0 0 .563-.267 1.17-.267.164 0 .328.023.479.063.51.149 1.074.667 1.396.988-1.711-.251-3.334-.777-4.174-1.122-.056-.016-2.148-.871-5.035-1.946a4.53 4.53 0 012.211-.587zm-45.23 41.238c-.346.336-2.848 2.793-3.515 3.412-.722.674-3.028 2.502-4.017 2.854-.165.063-.36.126-.58.188-1.083.328-2.738.822-4.386 2.558a22.027 22.027 0 00-2.831 3.655 15.47 15.47 0 01-.33.494l-.047.069c-.486.69-1.772 2.519-4.017 2.888-.282.047-.557.086-.815.125-1.836.274-3.176.479-5.287 2.008a2.59 2.59 0 011.459-1.813c.157-.086.345-.164.533-.251 1.553-.714 3.915-1.796 4.934-3.741a.146.146 0 00-.008-.148.168.168 0 00-.142-.055s-1.428.234-2.447.394c-1.051.155-3.82 1.825-4.565 2.887-.486.698-1.914 1.476-3.185 1.476-.282 0-.518-.039-.737-.109.659-.212 1.993-.762 2.4-1.749.518-1.216 2.824-4.04 3.601-4.229a.142.142 0 00.102-.133c.008-.063-.031-.117-.094-.142 0 0-.196-.063-.486-.063-.471 0-1.176.166-1.773.973-.094.119-.18.244-.274.361-.855 1.168-1.828 2.494-3.53 2.676-1.545.164-2.651 1.412-3.311 2.164-.18.196-.337.369-.416.439a1.572 1.572 0 00-.22.164c-.471.377-1.365 1.083-2.746 1.083a3.61 3.61 0 01-.502-.031c-1.428-.165-2.165.815-2.887 1.757-.353.455-.714.926-1.146 1.264-1.451 1.146-2.644 1.859-4.432 2.135a18.99 18.99 0 01-1.389.134c-1.286.095-2.62.188-4.918 1.278-.479.229-.949.463-1.42.706-1.867.926-3.608 1.804-5.021 1.804-.439 0-.832-.094-1.161-.273 1.067-.211 4.33-1.035 6.338-3.39 2.463-2.887 4.55-4.675 6.213-5.317.376-.143.941-.307 1.6-.494 2.416-.697 6.072-1.74 6.417-3.728a.138.138 0 00-.063-.133.131.131 0 00-.149-.008c-.023.016-2.502 1.442-4.573 1.771-.4.063-.769.096-1.161.096-.172 0-.329-.008-.486-.008-.957-.033-1.663 0-3.248.948l-.204.125c-1.726 1.035-3.499 2.103-5.02 2.103-.455 0-.863-.094-1.24-.28.816-.212 2.871-.871 4.173-2.408 1.647-1.93 2.675-2.144 4.173-2.269 1.216-.094 3.467-.502 4.848-2.104.926-1.059 2.448-1.271 3.922-1.475.376-.055.729-.102 1.067-.164 1.789-.33 4.173-1.271 4.989-2.832a.147.147 0 00.008-.126c-.015-.039-.055-.063-.094-.078a7.117 7.117 0 00-1.718-.204c-1.098 0-2.008.251-2.714.745-.769.533-1.624.792-2.636.801-.549 0-1.043-.079-1.475-.142-.157-.023-.298-.039-.423-.055a9.997 9.997 0 00-1.381-.11c-.635 0-1.192.095-1.718.298.133-.415.635-1.255 2.502-1.419 2.667-.235 4.965-.438 6.738-1.499 1.224-.729 3.459-1.514 6.08-1.514.769 0 1.522.07 2.244.203.078.017.141-.031.165-.104.023-.068-.016-.143-.086-.172-.031-.01-3.64-1.459-4.754-2.143-1.02-.629-2.447-.879-4.196-.754-.298.023-.573.063-.848.104-.369.047-.714.104-1.074.104-.746 0-1.396-.244-2.087-.771-.973-.729-1.789-1.294-2.769-1.294-.479 0-.973.125-1.553.393.196-.558.847-1.711 2.848-1.554 1.365.118 1.977.446 2.51.729.525.281.965.524 1.93.471.274-.016.549-.038.816-.063.455-.039.894-.077 1.357-.077.949 0 2.157.141 3.961 1.137 1.506.841 2.306 1.123 3.185 1.123.354 0 .706-.039 1.146-.097.369-.038.784-.094 1.31-.125a28.428 28.428 0 011.985-.102c.894 0 1.239.125 1.867.423a.15.15 0 00.141-.008.142.142 0 00.063-.125c0-.063-.109-1.443-3.082-1.459.243-.379 1.043-1.186 3.482-1.186 1.247 0 2.77.211 4.526.627.055.017.109-.009.142-.047a.166.166 0 00.016-.158c-.008-.008-.62-1.104-.683-2.194.259.056.737.134 1.278.134.518 0 .973-.078 1.334-.234.564-.242 1.278-.289 1.772-.289.463 0 .8.039.8.039a.15.15 0 00.157-.089c.023-.055 0-.125-.047-.163-.016-.009-1.224-.974-1.334-2.057.134.039.338.07.573.07.415 0 1.012-.117 1.529-.689.895-.986 1.647-1.177 1.647-1.177a.15.15 0 00.109-.157c-.008-.068-.063-.125-.133-.125-.031 0-2.754-.134-3.569-1.46.086.019.204.022.329.022.424 0 1.083-.103 1.781-.596.228-.157.438-.314.65-.471.949-.69 1.766-1.287 2.667-1.429.063-.016.118-.07.126-.133 0-.031.22-2.895 2.487-3.906a.15.15 0 00.078-.103.158.158 0 00-.023-.118c-.079-.094-1.773-2.212.808-5.836.023-.04.031-.086.023-.125a.14.14 0 00-.094-.094c-.048-.016-1.161-.322-3.923.706a4.249 4.249 0 01-1.475.29 3.322 3.322 0 01-2.282-.918c.745.102 2.345.094 4.235-1.333.636-.479 1.185-.925 1.679-1.311 1.507-1.208 2.503-2 3.868-2.36a.144.144 0 00.086-.079.11.11 0 000-.118c-.008-.023-1.004-2.243-.142-3.953.471-.934 1.412-1.561 2.801-1.851a.193.193 0 00.102-.086.185.185 0 00-.008-.134c-.016-.016-1.192-1.897.095-2.847.031-.031.063-.086.047-.133 0-.016-.157-1.208.533-1.577a.177.177 0 00.07-.11c.008-.047-.008-.086-.047-.118-.023-.023-.666-.581-1.263-.581-.173 0-.345.031-.533.063-.204.031-.447.078-.706.078-.33 0-.644-.07-.973-.212a1.89 1.89 0 00-.745-.149c-.636 0-1.231.267-1.515.408a.685.685 0 01.031-.267c.126-.298.486-.549 1.075-.737.439-.141.854-.243 1.247-.337 1.083-.259 2.024-.487 2.997-1.412.376-.369.957-.565 1.647-.565 1.224 0 2.557.596 3.027 1.153.047.047.118.063.173.031.063-.031.094-.094.078-.157 0-.024-.423-1.93 1.2-2.809.479-.259.98-.384 1.506-.384.941 0 1.624.423 1.624.431.048.032.11.032.149 0 .047-.023.07-.07.07-.125 0-.016-.023-2.244 1.805-3.357a2.871 2.871 0 011.49-.432c1.169 0 2.055.722 2.07.729.032.039.095.047.142.023.047-.016.079-.063.087-.118.023-.204.195-2.047-.511-2.471l-.109-.07c-.659-.384-1.945-1.146-2.024-2.604.377.486 1.303 1.185 3.546 1.451 3.303.4 3.593 2.793 3.601 2.887.008.063.039.11.103.126.047.016.109 0 .141-.047.016-.008.761-.871 1.71-.871.149 0 .299.016.439.063 1.161.337 1.624 1.169 1.632 1.177a.124.124 0 00.11.071.155.155 0 00.125-.055c0-.008.612-.824 1.553-.824.134 0 .268.016.408.047 1.192.29 1.883 1.357 1.883 1.365.031.04.078.071.126.071.047 0 .094-.023.109-.063.016-.008.597-.855 1.608-.698 1.043.173 1.726.957 1.733.965a.127.127 0 00.142.047c.047-.008.094-.055.109-.102.039-.204.408-1.953-.29-2.51-.589-.471-1.075-1.655-.69-2.502.251.439.902 1.373 2.142 1.835 1.082.408 1.177 1.036 1.271 1.695.031.243.063.494.157.722.298.792.69 1.333 1.834 1.922.939.486.658 1.553.649 1.6-.016.063.009.125.071.165.047.032.115.024.164-.023a2.232 2.232 0 011.438-.541c.377 0 .752.102 1.129.306 1.459.785 1.437 2.448 1.437 2.534-4.519-1.679-10.825-3.852-14.41-4.322l-.142-.023c-5.303-.698-10.315-1.365-16.865 2.118-5.139 2.73-9.037 9.209-11.594 19.265-.095.369-.188.746-.291 1.138-1.687 6.771-4.243 17.001-15.163 23.614-5.193 3.137-9.068 4.848-11.892 6.104-3.608 1.584-5.789 2.549-7.421 4.902-.643.926-.816 1.396-.612 1.614.063.07.141.103.267.103.502 0 1.545-.579 3.326-1.606 1.765-1.013 3.954-2.269 5.625-2.771 1.388-.407 3.271-.896 5.263-1.411 3.993-1.027 8.52-2.196 10.638-3.2 3.31-1.568 6.103-3.477 10.59-8.582 1.09-1.238 2.031-1.727 2.792-1.475.4.133.73.463 1.005.887l-3.853 4.401zm3.764.336c-.51 0-.918-.142-1.208-.43a.16.16 0 00-.156-.033 3.482 3.482 0 01-1.256.244c-.282 0-.533-.057-.761-.125l3.632-4.136c.785 1.442 1.052 3.72 1.099 4.212-.212.08-.761.268-1.35.268zm2.009 9.625c-.22.3-.346.715-.479 1.162-.228.76-.447 1.475-1.075 1.537.055-.3.11-.927-.18-1.654a10.18 10.18 0 01-.542-1.719c-.008-.047-.047-.086-.094-.104s-.095-.008-.142.029c-.016.018-1.671 1.548-3.247 1.556-.432 0-.824-.126-1.161-.36.463-.117 1.317-.438 1.624-1.246l.023-.07c.376-.988.643-1.702 1.263-1.766.683-.078 1.326-.143 1.428-.849.086-.659-.84-1.312-1.247-1.437-.142-.039-.361-.056-.628-.078-.267-.016-.745-.057-.808-.104.023-.164.745-.714 1.687-.761.815-.039 1.914.267 2.29.385l-.423.917a.139.139 0 00.016.157c.023.03 1.631 1.892 2.98 3.64-.312.028-.862.169-1.285.765zm1.553.816c-.181-.281-.157-.683.031-1.177.494.651.918 1.255 1.192 1.726-.344-.022-.956-.125-1.223-.549zm1.161 1.688c-.094-.229.078-.51.282-.745.157.29.306.549.439.769.094.165.181.313.259.447-.282-.033-.863-.159-.98-.471zm.659 1.552c-.008-.273.141-.549.455-.809.22.472.243.871-.032 1.537-.172-.147-.407-.413-.423-.728zm4.111 22.868c-4.087 0-7.413-3.318-7.413-7.405 0-.103.008-.188.016-.29.008-.008.008-.008.008-.023.165-1.614.628-2.861 1.255-3.836a7.388 7.388 0 016.135-3.264c.016 0 .031 0 .047.008 2.651 2.135 4.252 2 4.816 1.836h.008c-.008 1.027.887 2.109 1.083 2.338-.023 2.205-1.185 2.707-1.231 2.724a.14.14 0 00-.095.133c0 .056.031.108.087.126.541.243 1.043.368 1.498.368.479 0 .862-.142 1.177-.347.016.07.016.149.016.229-.002 4.083-3.328 7.403-7.407 7.403zm8.37-9.633l-.023.055c0 .023-.416 2-2.134 2-.346 0-.722-.07-1.13-.229.416-.289 1.153-1.074 1.153-2.888 0-.039-.008-.069-.039-.094-.008-.017-1.192-1.318-1.027-2.386.008-.047-.017-.088-.056-.127.016-.319.126-1.111.848-1.207.894-.133 2.432.658 2.651.77.094.221.988 2.317-.243 4.106zm5.954-1.655c.047-1.114.047-3.538-.659-4.048-.087-.063-.173-.127-.267-.182-.737-.519-1.365-.966-1.311-1.787.095-.473.307-.793.636-.941.753-.354 1.906.268 1.93.273.313.659 1.537 3.608-.329 6.685zm-6.48-24.334a10.396 10.396 0 00-1.883-.896c-1.036-.359-1.773-1.68-1.789-1.719-.023-.063-.29-.761.173-1.428.408-.588 1.506-1.271 4.439-1.186.095.117.503.658.659 1.498.016.109.031.235.048.368.031.313.078.706.219 1.138-.423-.021-1.436-.016-1.883.611-.266.39-.249.939.017 1.614zm3.961 1.34c-1.169 0-2.361-.385-3.554-1.105v-.008c-.376-.754-.439-1.311-.188-1.672.407-.58 1.529-.51 1.765-.486.416.957 1.404 2.058 3.898 2.889a4.77 4.77 0 01-1.921.382zm9.814-6.894a6.407 6.407 0 01-6.401 6.399c-.486 0-.957-.063-1.411-.165-3.703-1.238-3.915-3.005-4.032-4.07a4.138 4.138 0 00-.056-.386 3.845 3.845 0 00-.689-1.592c.949-1.437.815-2.685.745-3.065.675-.369 1.467-1.529 1.655-1.813a5.33 5.33 0 003.365-1.49c.141.141.518.274 1.679.251a5.069 5.069 0 011.443.149c2.18 1.019 3.702 3.216 3.702 5.782zm-7.406-9.085a4.658 4.658 0 011.412-.234c1.286 0 2.855.635 3.169 3.593-.345-.229-1.043-.526-2.33-.486a7.717 7.717 0 01-.965-.032c-.016-.016-.016-.03-.031-.038-.689-.322-1.129-.762-1.317-1.303-.235-.676-.016-1.319.062-1.5zm-6.385-5.758c.221-.04.424-.071.659-.071 1.945 0 4.182 1.153 4.849 1.985-.322-.016-.934-.016-1.789.219-1.239.33-1.694.182-1.694.182h-.008c-1.153-.235-1.859-.644-2.095-1.208-.228-.526.031-1.021.078-1.107zm-6.369 8.857c.016.016.047.008.063.016.393.298 2.056 1.624 2.495 2.471.031.049.078.08.125.08a.126.126 0 00.063-.018c.079-.039.103-.126.063-.188-.447-.879-2.024-2.143-2.511-2.525.298-.4.957-1.114 1.389-.988.047.016.103.008.134-.023.031-.04.055-.086.047-.133-.008-.032-.51-2.77 1.317-4.181a.126.126 0 00.063-.11c0-.07.055-1.828 2.181-2.973a3.06 3.06 0 01.604-.212 1.534 1.534 0 00-.008 1.146c.267.627 1.004 1.075 2.157 1.333-.102.346-.479 1.373-1.687 2.086-.078.032-1.208.433-1.867.204a.138.138 0 00-.172.095c-.032.069.016.148.086.172.173.063.368.086.564.086.542 0 1.106-.165 1.357-.251.094.321.259 1.199-.313 1.991l-.612.425c-.063.039-.078.133-.039.195.023.039.07.063.117.063a.102.102 0 00.079-.031l.549-.376c.016-.008.031 0 .047-.008.016-.016 1.797-1.043 2.636-1.043.11 0 .188.022.235.055a.152.152 0 00.173-.016c0-.008.753-.612 1.992-.612.369 0 .745.055 1.13.165-.109.282-.267.917-.031 1.592.141.4.408.745.776 1.043a5.113 5.113 0 01-3.318 1.49h-.008c-2 .188-2.69-.438-2.69-.447-.063-.055-.149-.055-.204 0a.155.155 0 000 .204c.031.023.597.565 2.165.565.142 0 .313-.016.471-.031-.298.438-.988 1.364-1.521 1.592 0 0-.008 0-.008.008 0 0-.008-.008-.008 0-1.091.613-1.632.4-1.647.4-.063-.031-.149 0-.181.07s0 .148.07.182c.016.008.142.069.4.069.29 0 .729-.086 1.326-.392.055.406.117 1.521-.738 2.791-2.439-.069-4.016.369-4.659 1.312-.424.604-.329 1.231-.251 1.521-.471.063-1.977.183-3.216-.627.933-3.938-.274-7.743-.604-8.661.337.023 1.018.125 1.419.424zm39.935-12.411a.144.144 0 00-.147.008s-.572.384-1.443.384c-.736 0-1.489-.273-2.213-.823a.132.132 0 00-.108-.023c-.017 0-.61.118-1.498.118-1.373 0-3.364-.274-5.122-1.577a.195.195 0 00-.143-.017s-.676.235-1.68.235c-.965 0-2.432-.22-3.938-1.287-.023-.016-.057-.031-.087-.022 0 0-.103.008-.274.008-.814 0-2.855-.149-4.188-1.53a.163.163 0 00-.134-.039s-.29.063-.714.063c-.729 0-1.796-.173-2.698-1.013-.031-.039-.095-.047-.142-.03 0 0-.895.29-1.961.29-1.412 0-2.463-.463-3.13-1.38a.136.136 0 00-.118-.063.122.122 0 00-.109.063c-.031.03-.628.847-1.961.847-.651 0-1.365-.196-2.126-.581-.031-.016-.07-.023-.102-.008-.048.008-.071.039-.095.069 0 .017-.8 1.569-2.494 1.569-.439 0-.91-.102-1.396-.306a.136.136 0 00-.134.008.148.148 0 00-.07.11c0 .094-.212 2.393-2.181 2.393h-.094a.144.144 0 00-.142.125c0 .016-.142 1.616-1.373 2.173-.039.017-.055.047-.07.079a.132.132 0 000 .11c.016.022.926 1.93-.345 2.839-.063.047-.079.134-.031.195.023.031.549.84-.017 2.071-.329.746-.604 1.647-.674 2.448-.471-1.694-1.287-5.483-.307-8.708 1.357-4.447 4.801-7.459 9.453-8.26 4.84-.839 8.479-.268 17.697 2.776 8.535 2.824 17.164 3.859 18.498 4.009a4.502 4.502 0 00.313 3.443c-.47-.052-1.497-.224-2.502-.766zm1.31 12.975c.157-.416.439-1.317.221-2.22-.096-.392-.188-.645-.252-.832-.125-.369-.142-.408.023-.706a.13.13 0 00.008-.118c-.015-.039-.039-.071-.078-.079a1.276 1.276 0 00-.486-.078c-.549 0-1.41.229-2.398 1.333-.675.753-1.41 1.146-2.134 1.146-.472 0-.91-.172-1.255-.471.531-.039 1.41-.354 2.063-1.875.87-2.04 3.334-2.667 3.364-2.676.063-.016.11-.086.103-.156a.14.14 0 00-.133-.125c-.031 0-2.057-.009-2.841-.887-.627-.714-1.428-1.004-1.819-1.113.156-.125.494-.29 1.187-.29h.086c.677.016 1.035.298 1.351.549.291.219.563.431.965.36.228-.039.463-.148.713-.259.425-.188.888-.392 1.451-.392.308 0 .621.071.94.204-.116.337-.571 1.765-.133 2.706.142.313.377.549.688.689-.047.361-.078 1.491.737 2.236-.072.411-.55 2.685-2.371 3.054zm33.653 18.074c-1.476 0-3.437-.51-4.369-2.958-.103-.518-.022-.894.22-1.112.525-.494 1.702-.174 1.711-.166.008 0 .017-.008.022-.008s.017.008.017.008h.078c.299 0 1.334.149 1.733 2.049.306 1.443 1.317 1.898 2.077 2.039a7.968 7.968 0 01-1.489.148zm-2.063-7.396a3.089 3.089 0 00-.77-.973c.416-.4.723-.816.98-1.226a7.798 7.798 0 00-.234 1.835c.001.127.016.246.024.364zm-.11 2.886c.212-.432.306-.814.354-1.169.148.558.346 1.099.588 1.608a1.709 1.709 0 00-.942-.439zm4.244 4.126c-.737 0-2.041-.243-2.385-1.858-.039-.203-.096-.377-.149-.55a8.451 8.451 0 002.707 2.4c-.055.001-.095.008-.173.008zm12.45-7.375c0 4.503-3.664 8.166-8.158 8.166-4.495 0-8.166-3.663-8.166-8.166a8.118 8.118 0 012.744-6.079c.127-.102.252-.204.369-.313a8.046 8.046 0 012.896-1.467c.107.008.22.021.329.021.563 0 1.073-.135 1.497-.309.109 0 .213-.016.33-.016 4.494.005 8.159 3.669 8.159 8.163zm-15.495-5.309a4.052 4.052 0 001.053-.282 7.996 7.996 0 00-1.092 1.554c.086-.59.071-1.046.039-1.272zm2.95-1.875c.33-.51.521-.988.598-1.239.328.212.676.36 1.035.463a8.364 8.364 0 00-1.633.776zm4.66-1.239c.188-.109.346-.212.439-.282.094.143.228.251.359.346a7.714 7.714 0 00-.798-.064zm2.088.329a5.198 5.198 0 001.428-.338c.195.182.77.715 1.35 1.021.484.269.85 1.226.975 1.601a8.45 8.45 0 00-3.753-2.284zm3.944 2c-.173-.479-.533-1.293-1.043-1.568-.612-.329-1.271-.965-1.334-1.027-.472-.688-.627-1.293-.455-1.795.204-.62.854-.918 1.052-.996.407.279 2.981 2.249 1.78 5.386zm-9.374-12.575c.094-.071 1.459-1.021 3.217-1.021 1.16 0 2.243.408 3.2 1.225-.628-.063-1.757-.017-2.495.934-.917 1.177-1.74 1.271-2.525 1.357l-.142.016c-.862-.165-1.396-.479-1.584-.949-.267-.676.266-1.468.329-1.562zm-24.247-1.812c-.369.502-1.083 1.82-.776 4.354 0 .039.031.079.063.102a.134.134 0 00.108.023c.009-.008.261-.071.645-.071.863 0 2.063.322 2.871 1.844.031.063.109.095.188.056 0 0 .564-.282 1.239-.282.563 0 1.044.188 1.429.549.047.047.117.047.172.016 0 0 .637-.376 1.508-.376 1.033 0 1.961.502 2.762 1.491a.131.131 0 00.143.047s.297-.07.752-.07c.84 0 2.041.234 3.027 1.381.031.03.078.055.125.047.049-.008.096-.039.11-.078.03-.071.735-1.545 2.377-1.545.108 0 .229.016.345.022 0 .425.078 1.82.936 3.508a.144.144 0 00.125.077.178.178 0 00.063-.016.15.15 0 00.063-.195c-.973-1.898-.901-3.477-.901-3.491.008-.095.147-2.291 2.194-2.291.229 0 .479.039.73.094.102.212.346.667.627.769.016.008.031.008.047.008.058 0 .11-.03.127-.086.03-.07 0-.156-.078-.188-.143-.047-.33-.369-.463-.62 0-.016.008-.023.008-.04 0-.016-.307-1.718.974-2.8.472-.408 1.004-.612 1.567-.612.377 0 .666.094.832.157-.188.298-.551 1.02-.281 1.695.219.557.808.925 1.74 1.113.108.299.486 1.68-1.295 2.667a.148.148 0 00-.063.172c.021.071.096.103.165.087 0 0 .29-.063.563-.063.172 0 .438.023.455.18a.153.153 0 00.086.11.135.135 0 00.143-.016c.008 0 .714-.502 1.701-.502.408 0 .802.109 1.178.273-.359.157-.918.479-1.225 1.06-.047.063-.017.148.056.188.022.016.039.016.069.016a.125.125 0 00.117-.07c.416-.777 1.404-1.043 1.404-1.043h.008s.368-.11.854-.11c.698 0 1.601.229 2.056 1.224-.281.125-.926.463-1.146 1.138-.188.557-.047 1.2.408 1.905-.272.111-.895.313-1.49.313-.557 0-.939-.181-1.176-.524.203-.172.658-.58.814-.965.031-.071 0-.159-.07-.188-.07-.032-.147 0-.181.078-.188.424-.839.935-.847.935v.008c-.016.008-1.101.901-2.495.901-.698 0-1.356-.22-1.962-.651a.155.155 0 00-.141-.016.134.134 0 00-.078.102c-.018.023-.66 2.84-3.498 3.115-.033 0-.072.022-.097.055a.187.187 0 00-.03.109c.008.023.424 2.551-1.875 4.707-.039.031-.056.07-.047.117.008.039.03.078.069.102.079.058 1.892 1.24.646 3.695-.33-.07-1.318-.242-1.867.26-.282.268-.395.684-.313 1.215-.628-.039-3.06-.445-3.185-4.377 0-.063.141-1.67 1.043-2.273.063-.039.086-.135.039-.196s-.133-.077-.196-.038c-.792.532-1.06 1.688-1.138 2.221-.338-.346-1.004-1.137-1.012-2.156-.01-.918.484-1.813 1.48-2.66 1.499-1.066 2.434-1.311 2.447-1.311.078-.022.125-.094.103-.172-.017-.078-.103-.125-.165-.104-.047.008-.986.243-2.523 1.333a.85.85 0 01-.269.03c-.33 0-.987-.103-1.819-.814a3.264 3.264 0 00-2.182-.809c-.697 0-1.316.203-1.71.375-.155.072-.438.104-.771.104-1.381 0-3.489-.61-3.844-1.758a.178.178 0 00-.078-.086c-.039-.022-.078-.017-.117 0-.008 0-.775.354-1.719.354-1.177 0-2.086-.52-2.707-1.521a.154.154 0 00-.164-.063s-.438.125-1.02.125c-.973 0-2.229-.354-2.676-2.034-.023-.069-.102-.117-.164-.094-.016 0-.424.103-.957.103-.988 0-2.182-.354-2.307-2.031a.137.137 0 00-.125-.134s-.377-.047-.66-.235c-.901-.761-.689-2.125-.689-2.141.016-.071-.016-.134-.086-.157a1.103 1.103 0 01-.636-.581c-.433-.949.165-2.549.173-2.573.008-.008.016-.008.023-.016a.145.145 0 00-.008-.182c-.039-.039-.957-1.098.193-3.105v-.023a.115.115 0 00.009-.094c-.009-.008 0-.016 0-.022h-.017v-.017c-.01-.008-1.074-1.569-.377-3.601.017-.039.017-.086-.016-.118a.114.114 0 00-.096-.063c-.094-.016-9.412-.98-18.605-4.016-9.271-3.059-12.942-3.64-17.837-2.792-4.761.824-8.291 3.906-9.68 8.463-1.333 4.362.564 9.729.581 9.774.016.016.031.016.039.022.023.118.055.229.086.322.337.792 1.31 2.997 1.334 3.036.016.047 1.741 4.354.643 8.811-.086.338-.815 3.303-.815 3.625 0 .047-.016.146-.031.306-.103.815-.377 2.973.196 5.239.008.056.055.095.117.103.11.017 2.604.36 2.558 3.42 0 .079.055.142.133.142.008 0 .722.047 1.161.629.377.494.463 1.23.243 2.195-.016.039 0 .086.031.125a.14.14 0 00.126.04s.165-.024.424-.024c.525 0 1.498.111 2.228.793-.142.214-.408.729-.518 1.594 0 .079.047.148.125.156h.016c.079 0 .142-.047.142-.116.142-1.067.533-1.563.533-1.563v-.008c.016-.008.824-1.074 1.953-1.074.573 0 1.138.291 1.687.84a1.856 1.856 0 00-1.239 1.178c-.031.068.008.148.079.181.016 0 .031.009.047.009.063 0 .109-.039.141-.096.33-.936 1.231-1.051 1.271-1.061.008 0 .117-.016.298-.016.957 0 3.185.393 3.303 3.938-.416-.181-1.279-.485-1.954-.173-.384.182-.635.533-.753 1.043h-.094c-.533 0-1.852-.125-2.322-1.316a.155.155 0 00-.094-.086.187.187 0 00-.126.021c-.008.008-.996.724-2.023.599-1.898-.688-3.185-.729-3.813-.11-.769.754-.29 2.143-.267 2.196.016.063.078.095.133.095.017 0 .032 0 .048-.008.07-.021.109-.109.086-.182 0-.016-.439-1.271.196-1.897.541-.532 1.765-.471 3.522.173.125.117 1.78 1.727 1.506 3.924-.486-.244-1.813-.84-2.683-.729-.832.118-1.067.987-1.083 1.521a1.902 1.902 0 01-.628.097c-.784 0-2.149-.347-4.126-1.978a.198.198 0 00-.094-.033c-.031 0-1.758.041-3.562.975-1.083-1.924-.157-2.637-.126-2.667.063-.039.079-.134.032-.195a.127.127 0 00-.188-.03c-.055.03-1.177.879.031 3.026a7.32 7.32 0 00-2.307 2.04c-1.074-1.014-.722-2.975-.722-2.988.016-.078-.031-.156-.109-.164a.139.139 0 00-.173.108c-.016.086-.393 2.173.848 3.278-.612.908-1.099 2.056-1.318 3.529-.267-.604-.737-1.593-1.146-1.961-.454-.408-.518-1.39-.533-1.647.644-.579 1.02-.666 1.231-.628a.356.356 0 01.259.182c.032.071.126.104.188.071.078-.032.11-.118.07-.188-.008-.016-.125-.273-.463-.346-.36-.07-.823.143-1.356.604-.212-.65-.808-2.949.644-4.824 1.702-2.205 4.518-2.36 4.541-2.36.017 0 .017-.008.024-.008.016-.009.031 0 .039-.009 0 0 .698-.36 1.883.26.023.016.047.016.07.016.055 0 .102-.021.117-.068.048-.071.017-.158-.055-.196-1.059-.558-1.765-.399-2.031-.306-.063-.127-.142-.473.188-1.201.267-.604.376-.801.407-.854.008-.008.016-.008.023-.017a.138.138 0 00.071-.116c0-.024-.016-.048-.023-.063.494-1.168.211-1.662-.346-2.604-.157-.268-.337-.572-.525-.941-.855-1.615-4.079-5.381-4.573-5.961l.463-.979v-.01c.031-.094.769-2.166.58-4.307-.016-.212-.408-5.021-2.447-5.703-.887-.298-1.93.229-3.091 1.553-4.472 5.068-7.232 6.959-10.512 8.514-2.086.996-6.604 2.156-10.59 3.186-1.992.518-3.875 1.004-5.263 1.42-1.702.502-3.914 1.771-5.687 2.793-1.287.736-3.043 1.758-3.248 1.562 0-.009-.11-.181.643-1.271 1.584-2.291 3.734-3.232 7.295-4.803 2.84-1.255 6.73-2.966 11.923-6.117 11.029-6.678 13.594-16.978 15.297-23.786.094-.393.188-.769.282-1.138 2.541-9.978 6.4-16.395 11.452-19.085 6.479-3.444 11.453-2.785 16.709-2.087l.142.024c4.989.659 16.127 4.911 19.641 6.354 1.773.722 6.902 2.22 9.353.447.996-.722 1.442-1.906 1.325-3.499-.416-5.664-1.979-7.539-5.75-12.064-.408-.494-.848-1.012-1.311-1.585-4.197-5.083-4.936-7.993-5.027-8.464a49.6 49.6 0 013.004-.047c2.395.016 4.291.023 6.078-1.059 1.884-1.138 2.777-2.887 3.578-4.44.486-.949.939-1.852 1.562-2.408.979-.887 1.681-1.271 2.879-1.051-.879.839-4.394 4.926.134 12.794 1.993 3.475 3.633 5.342 5.084 6.99 2.244 2.557 3.866 4.4 5.325 10.605 2.144 9.071-4.211 20.178-5.505 22.32zm3.733-5.531c-.103.135-.188.26-.273.378-.359.493-.58.948-.814 1.436a11.034 11.034 0 01-1.711 2.675c.927-1.663 2.369-4.486 3.517-7.829.306.275.644.361.925.361.126 0 .221-.016.313-.032-.693 1.286-1.414 2.274-1.957 3.011zm4.355-12.95s-.016.008-.016.016c-.024.032-.519.84-1.476.722-.078-.016-.143.047-.156.126a.142.142 0 00.125.157c.078.008.147.016.22.016.604 0 1.028-.314 1.271-.565a32.842 32.842 0 01-.518 4.221v.008l-.016.008c-.018.008-.746.643-1.364.267-.063-.039-.157-.023-.196.047-.039.063-.023.149.055.196.188.118.395.157.58.157.338 0 .637-.141.848-.267a18.105 18.105 0 01-1.584 4.495c-.055.024-.77.314-1.316-.29 1.365-4.079 2.268-8.879 1.239-13.232-1.468-6.276-3.104-8.143-5.382-10.724-1.442-1.64-3.074-3.499-5.053-6.942-4.785-8.346-.393-12.292-.031-12.583.645.165 1.443.487 2.486.981.26.125.502.228.746.329-.221.298-.762 1.153-.941 2.456-2.182.667-3.139 2.016-3.186 2.079a.158.158 0 000 .165.15.15 0 00.156.055c1.303-.361 2.118-.557 2.793-.651-.023.142-.047.4-.031.785-.008.016-.016.016-.031.023-.484 1.051-2.494.816-2.519.816-.069-.016-.147.039-.157.118-.008.079.04.149.118.157.031.008.243.032.55.032.604 0 1.568-.102 2.07-.698.047.463.156 1.051.361 1.781-.56 1.302-2.573.925-2.59.917-.078-.016-.156.04-.164.11a.15.15 0 00.107.173c.04 0 .34.063.738.063.645 0 1.545-.157 2.018-.878.115.369.258.784.424 1.216v.016c.008.008.016.016.016.023.141.361.313.753.486 1.161 0 .016-.018.031-.018.055.031 1.153-1.671 1.38-1.688 1.38-.08.016-.135.086-.117.165 0 .071.063.118.134.118h.022c.588-.07 1.631-.431 1.875-1.263.398.847.9 1.796 1.515 2.847 0 .008-.017.016-.017.024.017.973-1.092 1.145-1.139 1.153-.078.016-.133.086-.117.165.008.07.063.118.143.118h.016c.426-.063 1.161-.369 1.352-1.083.432.729.91 1.49 1.459 2.314.078.11.142.212.203.314 0 .016-.008.016 0 .031.078.855-1.207 1.153-1.225 1.153-.078.023-.126.094-.109.172.017.063.08.11.143.11h.031c.055-.016 1.19-.274 1.412-1.09a51.129 51.129 0 011.679 2.792c-.11.941-1.122 1.146-1.161 1.153-.078.016-.133.086-.117.165.008.071.07.118.133.118.016 0 .023 0 .031-.008.016 0 1.004-.204 1.311-1.067a37.744 37.744 0 011.75 3.64c-.063.746-1.1.879-1.105.879a.13.13 0 00-.117.157c0 .071.063.125.143.125h.017c.039-.008.925-.125 1.239-.753a28.55 28.55 0 011.207 3.75c0 .016-.016.023-.016.039-.127.8-1.225 1.067-1.238 1.067-.08.024-.127.094-.104.173.017.063.071.11.136.11.016 0 .021 0 .029-.008.047-.008.939-.228 1.303-.895.252 1.146.281 1.789.281 1.804v.008c-.004.017.122 1.148.044 3.006zm-8.049-30.836c-.337.047-.69.094-1.099.141a9.087 9.087 0 00-1.035.196 5.94 5.94 0 01.564-1.694c.23.126.818.509 1.57 1.357zm-1.427-1.601c.095-.149.156-.251.203-.306 2.119.839 3.767 1.012 4.479 1.043-.525.392-1.277.581-2.919.816-.837-.971-1.497-1.411-1.763-1.553zm5.121 6.371c-.752.047-1.418.188-1.969.447l-2.117-3.122c.156.016.33.039.519.055.407.047.878.094 1.442.149.07 0 .142.008.22.008.118.172 1.255 1.787 1.905 2.463zm-1.545-2.44c1.781.094 3.547-.133 4.802-.376a1.437 1.437 0 00-.306.494c-.196.533-.965 2.275-2.565 2.298-.472-.392-1.538-1.868-1.931-2.416zm-.666 3.027c-.148.086-.307.172-.438.274-.165.133-.479.267-.823.384-1.162-1.631-2.274-2.588-2.604-2.855-.063-.683 0-1.043.016-1.114.534-.055 1.006-.039 1.608.016l2.241 3.295zm-1.545.761c-.582.181-1.201.33-1.459.393-.473-1.248-.707-2.22-.816-2.934.455.399 1.35 1.256 2.275 2.541zm22.247 25.557c.658 1.177 1.113 2.84.347 3.899-.095-.737-.599-2.479-2.949-3.985a.152.152 0 00-.173.016.13.13 0 00-.031.165c.018.039.408.98-.455 2.118-.77.996-.52 2.298-.359 2.848a3.177 3.177 0 01-1.688-1.333c-.775-1.239-.824-3.043-.148-5.365a.154.154 0 00-.07-.165.145.145 0 00-.18.04c-.01.016-1.209 1.569-2.754 1.569-.283 0-.559-.047-.841-.157.698-.337 2.261-1.443 1.875-4.087.823.416 3.286 1.522 6.599 1.82.041.366.246 1.582.827 2.617zm30.067-15.908c.196.557.386 1.09.863 1.521-1.122 1.499-2.597 1.161-3.052 1.012-.018-.008-.023-.023-.031-.031-.016-.008-.762-.353-.91-2.66-.094-1.538-.596-2.196-.996-2.479.195-.016.432-.032.698-.032.753 0 1.788.142 2.424.824.588.628.8 1.249 1.004 1.845zm-3.349.463c.142 1.169.455 1.75.688 2.04-1.255.102-2.056.871-2.446 1.365a1.952 1.952 0 00-.219-.745 6.942 6.942 0 001.977-2.66zm-6.322-9.241c3.389 0 6.165 2.557 6.542 5.844-.103-.008-.204-.016-.298-.016-.698 0-1.225.11-1.247.11a.137.137 0 00-.11.149.143.143 0 00.135.133c.008 0 1.074.125 1.238 2.361a6.668 6.668 0 01-2.056 3.067 3.137 3.137 0 00-.274-.345c-.871-2.683-2.801-3.083-3.883-3.083-.645 0-1.1.133-1.113.141a.141.141 0 00-.103.165.138.138 0 00.164.11h.048c.195 0 .861.117 1.004 1.639.125 1.31.393 1.93.564 2.212a3.953 3.953 0 00-1.42.627 6.615 6.615 0 01-1.467-.353 7.205 7.205 0 00-1.772-.996 6.672 6.672 0 01-1.945-2.471 28.588 28.588 0 01-.204-.581 7.372 7.372 0 01-.338-1.396c-.023-.235-.055-.479-.055-.729 0-3.631 2.966-6.588 6.59-6.588zm3.639 11.344c-1.389 1.436-2.377 1.247-2.683 1.138v-.008c-.009-.008-.455-.393-.628-2.22-.094-1.036-.432-1.506-.745-1.726a3.97 3.97 0 01.463-.024c1.208-.001 2.808.501 3.593 2.84zm-4.746 2.007a1.684 1.684 0 00-.259.274 6.498 6.498 0 00-.394-.416c.214.056.433.11.653.142zm-4.353-2.62c.22.282.455.542.706.785a13.374 13.374 0 00-.706-.173c.03-.275.023-.455 0-.612zm-31.276-5.734c3.113.722 6.314 2.259 7.256 3.208 1.035 1.027 1.602 1.6 6.032 2.534 1.577.337 2.863.494 3.938.494 1.342 0 2.109-.251 2.738-.463l.353-.11c.887-.29 3.256-1.043 5.106-1.043.775 0 1.381.133 1.779.4a.161.161 0 00.117.023.214.214 0 00.096-.086c0-.016.94-2.173 2.446-3.906-.047.541-.022 1.506.408 2.753.233.69.397 1.075.524 1.349.195.439.242.557.195 1.177-.377.016-1.576.11-2.52.675-.069.039-.086.125-.055.196.03.04.077.063.125.063.031 0 .049 0 .079-.016 1.021-.612 2.425-.644 2.493-.644.118.023 2.62.447 4.048 2.228-.202.353-.753 1.475-.047 2.432a.15.15 0 00.117.055c.03 0 .058-.008.087-.024a.139.139 0 00.031-.196c-.598-.808-.127-1.804.047-2.118a.201.201 0 00.087-.047c.008-.008.604-.91 2.078-1.2.116.047.313.11.589.11.549 0 1.38-.244 2.376-1.255.188.212.599.761.472 1.506-.048.259-.25 1.208-.895 1.592a.147.147 0 00-.049.196.164.164 0 00.127.063c.021 0 .047 0 .068-.016.729-.432.949-1.412 1.014-1.75.048-.086.957-1.631 2.775-1.631.166.063.559.18 1.062.18.696 0 1.606-.243 2.358-1.224.94.871 1.045 2.471.815 3.122-.142.424-.627 1.42-1.882 1.491-.676-.149-.988-.479-.996-.486a.144.144 0 00-.195-.008c-.064.055-.064.142-.017.204.017.016.345.345 1.021.526-.156.462-.77 2.125-2.056 2.988-1.491.997-3.06.792-3.122.785-1.177-.282-1.499-1.192-1.507-1.231a.153.153 0 00-.188-.086c-.07.023-.109.102-.086.181.016.039.354.973 1.514 1.349-.354.423-1.553 1.663-3.586 1.663-.344 0-.695-.04-1.059-.11h-.047s-1.74.212-3.42-.863a.088.088 0 00-.063-.023c-.031 0-2.4-.11-4.205-2.69a.238.238 0 00-.063-.055c-.017-.008-.173-.07-.485-.07-.502 0-1.382.18-2.668 1.02-.957.636-1.537 1.043-2 1.365-.533.376-.918.651-1.576 1.051-.957.572-2.793 1.247-4.832 1.247-.377 0-.754-.023-1.113-.071-3.719-.313-6.362-1.663-6.816-1.914l-.009-.008c-.03-.031-.948-.69-2.479-.69-1.285 0-2.604.479-3.93 1.388-.104-1.145-.855-6.377-5.876-13.837-1.944-2.887-3.099-5.162-3.797-6.927.8-.063 1.858.188 2.118.251.27.509 2.255 4.259 5.15 4.933zm1.215-5.099c.785.227 2.002 1.106 2.59 2.118.77 1.302 1.82 2.84 3.334 3.475-.684.102-2.055.032-3.568-1.584-2.096-2.244-2.986-2.628-5.146-3.538l-.063-.031c.627-.243 1.255-.8 1.459-1.004.203.109.744.375 1.394.564zm10.23-3.413l-.016.008c0 .008-.008.008-.018.008-.008.008-.986.706-2.761.706a8.03 8.03 0 01-2.058-.282c-.846-.228-1.584-.345-2.272-.345-1.772 0-3.162.745-4.629 2.487-.022.023-1.035 1.02-1.78 1.098-.029.008-1.459.102-2.908-.353v-.008c-.05-.008-.66-.173-1.352-.251.645-.181 1.396-.432 1.727-.69.658-.525 1.654-.816 2.854-.824 1.789-.023 2.62-1.906 2.832-2.479.133-.353.407-.58.714-.729.706-.157 1.146-.29 1.161-.29a.15.15 0 00.094-.165c-.008-.071-.063-.11-.142-.118-.039 0-.658.023-1.225.306-1.35.29-3.664.667-5.914.463a86.412 86.412 0 01-1.443-.149c-2.063-.22-2.52-.267-5.256.471.524-.557 1.813-1.64 4.031-1.914.51-.063.941-.118 1.342-.181 0 0 .008.008.017.008.008 0 .022-.008.039-.016 2.04-.282 2.776-.518 3.396-1.129.039-.047.055-.102.031-.157a.153.153 0 00-.134-.086c-.022 0-2.494.07-5.742-1.467-3.428-1.632-4.36-1.459-6.024.039-.644.588-1.121 1.514-1.614 2.486-.784 1.514-1.662 3.232-3.476 4.331-1.719 1.035-3.586 1.02-5.924 1.012-1.71-.016-3.654-.016-5.962.361h-.017c-.03 0-2.948.361-5.342 2.62.354-1.169 1.688-4.212 6.158-5.75 1.771-.518 2.979-.525 4.242-.525.715 0 1.46-.008 2.361-.094 2.464-.243 5.313-3.569 6.308-5.138l.017-.039c.84-1.326 1.789-2.832 3.404-2.832h.094c.854.031 1.892.471 3.201 1.036 1.285.549 2.887 1.224 4.77 1.687 3.781.917 5.906-.275 5.992-.33.063-.031.088-.102.063-.165a.13.13 0 00-.143-.094c-1.506.118-1.875.016-3.278-.934-.313-.212-.61-.416-.896-.612-1.021-.706-1.896-1.31-2.502-1.545-.558-.22-1.004-.125-2.347.133-.596.118-1.333.267-2.353.439-2.338.4-3.859-.275-4.521-.659 1.179-.031 1.867-.235 2.863-.525.524-.149 1.121-.322 1.922-.51 2.524-.604 4.017-.714 6.746.878 2.793 1.624 4.854 1.216 4.94 1.2.049-.008.086-.047.104-.094.021-.039.01-.094-.021-.133-1.412-1.812-3.75-2.926-7.154-3.404-1.443-.196-2.455-.651-2.934-1.31a1.526 1.526 0 01-.3-.706c1.271.941 3.218 1.051 5.101 1.161 1.177.07 2.272.141 3.207.384 2.182.581 3.192 2.173 3.412 2.565-.398.4-2.133 2.354-.597 5.413 1.179 2.361 3.577 2.714 4.896 2.714 1.084 0 2.025-.228 2.465-.455 1.051-.525 3.23-1.631 2.822-5.036-.25-2.142-2.666-3.553-5.035-3.828 0-1.231.33-2.079.988-2.495 1.363-.854 3.719.306 3.732.314.07.039.157.008.188-.063.039-.063.017-.149-.063-.188-.063-.031-1.287-.627-2.525-.651-.031-.879.174-1.53.611-1.914.627-.557 1.537-.4 1.555-.4a.13.13 0 00.155-.102c.108-.408.313-.667.627-.784.849-.322 2.214.416 2.763.745a3.045 3.045 0 00-1.584 1.577c-.023.071-.588 1.687.055 2.91.65 1.232 2.189 1.585 2.252 1.601h.016c.055 0 .094-.016.125-.055.855-1.168 3.469-2.91 4.135-3.279.195-.11.26-.259.269-.361.055-.408-.447-.886-.902-1.31-.094-.094-.188-.18-.267-.259-.387-.4-1.404-1.075-2.764-1.075-.219 0-.455.016-.674.055-.109.016-.203.055-.299.078-.281-.18-2.086-1.326-3.224-.894-.369.141-.628.431-.761.863-.309-.031-1.076-.039-1.664.479-.502.439-.736 1.161-.705 2.126-.424.023-.84.117-1.209.353-.736.463-1.105 1.381-1.105 2.699a6.45 6.45 0 00-.557-.023c-1.35 0-2.551.376-3.483 1.075-.274-.479-1.317-2.063-3.577-2.667-.957-.251-2.07-.322-3.255-.393-1.53-.086-3.083-.188-4.26-.714-.142-.878-.455-1.561-.927-2.024a.065.065 0 00-.03-.031c-.424-.416-.974-.651-1.616-.69-.814-.039-1.521-.541-1.654-1.168-.117-.542.242-1.059.996-1.451 1.945-1.004 3.545.353 3.608.416.063.047.147.047.204-.016.047-.055.047-.149-.016-.196-.019-.016-.85-.722-2.041-.832.166-.423.91-1.663 4.096-2.628a8.377 8.377 0 011.428-.29c0-.008.008 0 .008 0 .008 0 .008-.008.008-.008 1.201-.133 2.196.047 3.232.235 1.584.29 3.217.588 5.766-.173 3.898-1.161 5.352-.008 7.021 1.318.359.291.736.596 1.161.879 1.978 1.38 2.714 1.475 3.844 1.624.228.023.472.055.753.102 1.225.204 1.607.416 2.299.792.203.11.432.235.713.384.299.149.604.369.936.596.9.643 2.009 1.42 3.672 1.42.243 0 .51-.016.775-.055 2.723-.376 3.938-1.349 4-1.404.018-.008 1.1-.824 2.136-.824.549 0 .987.228 1.302.674.039.102.533 1.428-.313 2.212a9.69 9.69 0 01-.674.596c-.629.525-1.305 1.106-1.742 1.82v.008a3.12 3.12 0 00-.33.729c-.116.392-.155.863-.195 1.318-.063.729-.133 1.49-.525 1.812-.173.149-.416.204-.736.173-.629-.071-.957-.565-1.113-.973-.385-.988-.204-2.361.204-2.839.055-.055.047-.141-.017-.196a.129.129 0 00-.188.016c-.533.604-.658 2.118-.26 3.122.268.69.729 1.083 1.343 1.153a1.8 1.8 0 00.204.008c.016 0 .021-.008.029-.008.078.008.188.008.33.008.862 0 2.762-.141 3.217-1.333.525-1.349-1.152-2.62-1.646-2.958.407-.612 1.014-1.137 1.607-1.639.242-.204.479-.408.697-.604.862-.816.533-2.047.408-2.424.297-.157 1.207-.604 1.913-.604.142 0 .267.016.361.047h.016c1.239.329 1.992.902 2.228 1.702.283.934-.233 1.961-.649 2.416a4.99 4.99 0 01-.337.353c-.77.785-1.727 1.765-2.07 4.361-.377 2.848-1.727 3.35-3.066 3.844-1.278.47-3.066-.33-3.082-.337-.188-.079-.479-.267-.848-.51-1.43-.917-4.104-2.636-6.959-2.479-2.802.141-4.01 1.694-5.154 3.796a.123.123 0 00-.077.086v.039c-.181.353-.368.706-.563 1.083-.143.29-.299.58-.455.886-1.618 3.08-3.045 3.747-3.061 3.755zm-23.753-9.593c.346-.016.729-.055 1.13-.118 1.02-.18 1.771-.322 2.369-.439 1.271-.251 1.693-.337 2.182-.149.563.22 1.442.816 2.446 1.514.282.196.58.4.896.612 1.152.776 1.654 1.02 2.604 1.02-.926.283-2.646.565-5.015-.008-1.875-.455-3.389-1.106-4.729-1.671a26.466 26.466 0 00-1.883-.761zm20.662 5.091c.038.392.173.674.274.839-.244.102-.588.188-1.014.259-.094-.11-.848-1.059-.723-2.251.096-.816.598-1.561 1.459-2.228.361.455.715.8 1.121 1.169-.991.878-1.156 1.686-1.117 2.212zm-1.052 1.145a4.981 4.981 0 01-.689.047c-.109-.494-.518-.839-1.389-1.153-.463-.172-.745-.408-.809-.683-.048-.259.094-.573.424-.894.58-.565.674-1.075.77-1.608.031-.204.078-.423.143-.651.086-.298.406-.525.846-.588.439-.07 1.084.031 1.43.549l.156.219c-.926.722-1.467 1.538-1.563 2.44-.117 1.099.431 1.978.681 2.322zm2.386-3.16c.108.102.22.196.337.313.447.416.801.494 1.044.471-.55 1.083-1.507 1.608-2.183 1.954a1.68 1.68 0 01-.25-.738c-.046-.676.314-1.358 1.052-2zm.532.101c-.142-.125-.268-.235-.385-.345-.619-.565-1.065-.965-1.576-1.734-.347-.518-1.012-.776-1.709-.674-.543.086-.957.384-1.067.792a4.974 4.974 0 00-.156.683c-.095.525-.173.949-.69 1.451-.502.502-.549.91-.484 1.161.047.259.268.627.979.886.871.314 1.123.612 1.201.895-1.271-.016-3.451-.393-4.535-2.558-1.615-3.224.525-5.075.612-5.146.909-.722 2.103-1.106 3.451-1.106 2.479 0 5.317 1.389 5.585 3.632.126 1.012 0 1.78-.251 2.416-.111.054-.425.157-.975-.353zm7.5-7.719c-.407.298-.815.612-1.192.934-.282-.274-1.255-1.349-.658-2.871.675-1.702 2.07-1.247 2.134-1.231 0 .008.018 0 .018 0 .063.039.125.078.18.118-.419.28-1.799 1.41-.482 3.05zm-2.119-2.04c-.643 1.632.378 2.824.724 3.162-.36.313-.683.635-.909.925-.322-.094-1.468-.479-1.97-1.436-.589-1.114-.04-2.659-.04-2.675.016-.055.525-1.349 2.023-1.592.205-.039.416-.055.627-.055.455 0 .88.086 1.24.212-.549.063-1.263.376-1.695 1.459zm14.803 2.651c.463.322 1.953 1.475 1.516 2.604-.33.871-1.633 1.09-2.512 1.138.432-.416.502-1.192.572-1.954.04-.439.07-.894.181-1.263.063-.186.15-.351.243-.525zm-13.641 9.877c-.008-.016-.018-.023-.023-.031a5.495 5.495 0 00-.195-.33c-.291-.416-.879-.785-1.113-.918.109-.22.221-.439.328-.643.816.172 5.586 1.247 9.674 3.146-.291.125-.809.408-1.389.847-1.916-.815-6.843-1.969-7.282-2.071zm7.03 2.276a7.92 7.92 0 00-1.373 1.451 8.013 8.013 0 01-1.468-1.051l-.079-.07c-.423-.4-1.066-.997-2.313-1.122-.793-.078-1.264-.635-1.594-1.146 1.131.266 5.068 1.223 6.827 1.938zm-7.885-4.456c1.09-1.993 2.229-3.365 4.77-3.53.148.337.65 1.601.338 2.902a.128.128 0 00.063.149c.017.016.05.023.079.023a.156.156 0 00.078-.023c.078-.055 1.779-1.318 2.484-2.604.668.228 1.305.51 1.875.816.047.149.426 1.616-.846 2.314a.133.133 0 00-.063.157c.008.063.063.11.126.11h.22c.645 0 2.541-.07 3.48-.855.097.039.27.102.502.18-.141.228-.413.738-.782 1.663-.438 1.099-1.931 1.757-2.433 1.954-4.04-1.922-8.833-3.028-9.891-3.256zm5.076-3.539a8.075 8.075 0 012.463.376c-.525.902-1.576 1.812-2.087 2.228.157-1.145-.204-2.171-.376-2.604zm4.941 1.443c.636.353 1.201.714 1.631.996l.684.416c-.792.565-2.234.69-2.965.714.76-.667.729-1.638.65-2.126zm1.279 17.266c-.149.706-.628 1.302-1.403 1.757a1.787 1.787 0 00-.58-1.71c-.879-.808-1.021-1.286-1.021-1.286a.147.147 0 00-.108-.102c-.063-.008-.108.008-.143.055-.018.008-.761.981-1.35 1.569a1.604 1.604 0 00-.471 1.146c0 .251.063.502.188.722a2.283 2.283 0 01-.957-.769c-.433-.628-.533-1.499-.313-2.581.017-.063-.017-.125-.069-.157a.146.146 0 00-.175.031c-.008.016-1.111 1.239-2.848 1.239-.447 0-.9-.078-1.355-.243.494-.188 1.324-.635 1.732-1.569.486-1.098 1.317-1.436 1.49-1.498.502.29 2.023 1.059 3.742 1.059.902 0 1.843-.22 2.722-.839.267.376 1.217 1.811.919 3.176zm-.454-5.819c.211.761.03 1.553-.533 2.361-2.724 2.008-6.301-.196-6.426-.282-.267-.188-.979-.753-1.459-1.538-.611-.996-3.654-3.757-6.386-4.048.558-.4 1.632-1.396 2.81-3.64.156-.306.313-.604.455-.895.03-.055.063-.102.094-.157.221.133.752.471 1.004.832.063.079.117.188.188.306.361.612.902 1.545 2.04 1.655 1.146.118 1.727.651 2.143 1.043l.086.079c.242.228.935.792 1.584 1.122.01.008.01.016.018.023a.129.129 0 00.078.032l.008-.008a2.8 2.8 0 00.502.172c.62.118.902.196.928.204.041.016 2.379 1.027 2.866 2.739zm-.511-4.253c.298-.149.8-.416 1.302-.722l.785.439c0 .384.031.839.094 1.341l-2.181-1.058zm1.585-.886c.188-.125.376-.251.541-.376-.016.165-.023.4-.039.659l-.502-.283zm2.839 2.863c0-.188 0-.644.079-1.161.299.118 1.239.479 2.26.557a4.2 4.2 0 001.004 1.302 14.993 14.993 0 01-3.343-.698zm2.197-.903a8.193 8.193 0 01-2.069-.549c.077-.408.203-.823.424-1.145.094-.149.188-.306.297-.463.338-.518.707-1.075 1.004-1.616-.158 1.037-.205 2.487.344 3.773zm22.151-17.077c-.684.07-1.254.102-1.74.102-.564 0-.939-.04-1.303-.079a7.387 7.387 0 00-1.004-.071c-.572 0-1.271.071-2.205.235-2.017.345-2.9.957-3.931 1.663-.722.502-1.553 1.075-2.934 1.616-3.247 1.278-6.089 1.733-6.11 1.733-.056.016-.104.055-.117.11-.017.055.008.11.055.149.229.165.527.502.464.683-.023.078-.173.267-1.005.282a.127.127 0 00-.125.094.136.136 0 00.039.157c.164.133.619.596.541.895-.039.188-.297.29-.51.345a.13.13 0 00-.103.086.134.134 0 00.022.133c.008.016 1.026 1.302.822 2.652-.188 1.326-.564 2.455-1.302 3.906-.722 1.396-.628 2.675-.62 2.73.008.369.086.714.165.98-2.165-1.969-1.278-5.507-1.052-6.275l.048-.157a.137.137 0 00-.095-.172.14.14 0 00-.174.086s-.017.063-.047.157c-.281.832-.94 1.835-1.521 2.722-.11.157-.204.313-.307.463-.668 1.043-.59 2.792-.582 2.863 0 .008.01.008.01.016 0 .039.589 3.765-1.49 5.616.204-.674.52-2.008.395-3.185a33.731 33.731 0 00-.582-3.255c-.221-1.71-.031-2.832-.031-2.84.009-.063-.016-.125-.069-.149a.143.143 0 00-.165.016c-.722.651-2.564 1.561-2.589 1.569-.298.157-1.655.886-1.992 1.341a15.732 15.732 0 00-.862-.18 2.318 2.318 0 01-.33-.11c1.162-1.553 2.676-2.306 3.028-2.424.095-.032 2.204-.753 2.784-2.189.408-1.012.698-1.529.809-1.694.674.188 1.641.345 2.479.04 1.317-.486 2.81-1.043 3.216-4.056.338-2.502 1.256-3.444 1.993-4.205a7.57 7.57 0 00.345-.353c.455-.51 1.02-1.647.706-2.699-.251-.839-1.004-1.443-2.204-1.812.274-.33.754-1.192.793-3.263.047-2.228.987-3.122 2.086-4.166.244-.22.486-.455.737-.706 1.082-1.129 1.412-2.785 1.71-4.244a18.1 18.1 0 01.251-1.153c.157-.659.832-1.153 1.679-1.773 1.101-.8 2.455-1.78 3.303-3.601.15.518.244 1.71-1.371 3.287-1.852 1.804-2.165 2.73-2.387 3.35a4.177 4.177 0 01-.141.353c-.143.298-.156 1.043-.173 1.906-.022.917-.047 1.953-.243 2.361-.07.157-.22.424-.4.761-.799 1.427-2.272 4.103-2.289 5.538 0 .055.022.102.063.125.048.023.095.031.142.008.063-.031 1.5-.761 2.166-1.765.519-.792 1.146-1.247 2.871-1.247.471 0 1.012.039 1.646.11.346.047.706.063 1.065.063 2.047 0 3.563-.667 4.11-.965-.086.604-.62 2.157-3.586 2.863-3.004.714-3.726 1.553-4.298 2.22a3.46 3.46 0 01-.494.51c-.268.22-.518.455-.77.682-.51.471-.987.91-1.381 1.004a.15.15 0 00-.108.141.14.14 0 00.108.133c.017.008.433.11 1.114.11.839 0 1.679-.149 2.502-.447.761-.282 1.312-.58 1.798-.839.807-.439 1.44-.784 2.743-.894.22-.023.455-.031.688-.031 1.437 0 2.919.337 4.01.58.368.079.697.157.957.204.193.031.455.047.761.047 1.052 0 2.494-.212 3.046-.298-.177.387-.876 1.242-3.528 1.501z"/><path d="M209.16 129.24c.297-.196.697.149 1.442.832.321.29.698.627 1.137.98.612.494 1.24.635 1.759.635.77 0 1.311-.306 1.316-.306a.141.141 0 00.055-.196.142.142 0 00-.195-.055c-.016.008-1.396.784-2.762-.298-.424-.345-.8-.682-1.113-.973-.783-.714-1.303-1.177-1.789-.863-.063.047-.086.133-.047.196a.144.144 0 00.197.048zM204.358 99.023c.022.023.056.031.095.031s.077-.016.104-.047a.13.13 0 00-.018-.196c-.785-.667-1.129-1.247-1.004-1.671.203-.714 1.623-.902 1.631-.91.078-.008.144-.079.125-.157a.131.131 0 00-.156-.118c-.063.008-1.614.212-1.883 1.106-.157.55.22 1.21 1.106 1.962zM196.012 100.333c.016 0 .03.008.047.008a.144.144 0 00.134-.102c.282-.839.775-1.428 1.451-1.749 1.277-.604 2.814-.055 2.831-.047.048.016.11 0 .157-.039a.178.178 0 00.016-.165 1.623 1.623 0 01.329-2.11c.063-.055.079-.141.032-.204-.049-.055-.143-.07-.204-.023-.017.016-1.067.871-.55 2.181-.541-.141-1.694-.337-2.729.149-.753.361-1.286 1.004-1.601 1.922-.031.069.016.148.087.179zM166.916 83.138c.59.18 3.758 1.82 3.789 1.835.023.016.039.016.063.016a.148.148 0 00.116-.055.142.142 0 00-.016-.18c-.174-.18-4.236-4.424-7.875-4.424-.645 0-1.24.133-1.772.4a.152.152 0 00-.079.133c0 .063.048.11.095.126.017.008 1.71.604 2.354 1.066.518.369 1.748.675 2.644.902.289.071.533.134.681.181zm-5.254-2.291a3.737 3.737 0 011.332-.235c2.668 0 5.672 2.463 6.989 3.679-.996-.51-2.563-1.294-2.974-1.428-.156-.047-.407-.11-.705-.18-.824-.212-2.071-.518-2.542-.863-.501-.353-1.552-.776-2.1-.973zM166.328 83.899c-.021 0-.055 0-.078.008-.039.016-1.043.384-1.606.722-.047.023-.069.079-.063.133 0 .055.047.102.094.118L170 86.606c.008.008.023.008.039.008a.16.16 0 00.125-.063.132.132 0 00-.016-.165c-.063-.087-1.631-2.024-3.82-2.487zm-1.254.816a12.353 12.353 0 011.23-.526c1.49.33 2.705 1.404 3.279 1.985l-4.509-1.459z"/></svg>