<svg xmlns="http://www.w3.org/2000/svg" viewBox="2.84 48.38 277.79 186.71"><path fill="#D6D4D1" d="M2.835 48.376h277.793v186.712H2.835z"/><path fill="#48A757" d="M45.58 171.348h232.766v61.479H45.58z"/><path fill="#C7313E" d="M278.346 50.664H5.111l.008 182.163H45.58V171.34h232.766z"/><g fill="#FFF"><path d="M45.58 116.359v-5.969h-1.742v2.989h-1.765v2.98h-1.765v2.989h-1.757v-2.989h-1.757v-2.98h-1.757v-2.989h3.514v-2.989h-5.28v2.989h-1.764v2.989H29.75v2.98h1.757v2.989h1.764v2.989h1.766v2.98h1.757v2.989h1.757v2.989h1.757v-2.989h1.765v-2.989h1.765v-2.98h1.742v-2.989h-1.742v-2.989zM45.58 164.139v-2.981h-1.742v-2.988h-1.765v-2.989h-1.765V152.2h-1.757v2.981h-1.757v2.989h-1.757v2.988h-1.766v2.981h-1.764v2.99H29.75v2.989h1.757v2.98h1.764v2.989h5.28v-2.989h-3.514v-2.98h1.757v-2.989h1.757v-2.99h1.757v2.99h1.765v2.989h1.765v2.98h1.742v-5.969h-1.742v-2.99zM40.387 83.665h1.765v2.989h-1.765zM43.838 131.295v2.981h-1.765v2.989h-1.765v2.989h-1.757v2.98h1.757v2.989h1.765v2.988h1.765v2.989h1.742v-20.905zM6.875 149.211h1.757v-2.988h1.758v-2.989h1.764v-2.98H10.39v-2.989H8.632v-2.989H6.875v-2.981H5.119v20.897h1.756zM8.711 83.46h1.757v2.981H8.711zM26.235 164.139v-2.981h1.757v-2.988h1.757v-2.989h1.757v-2.98h1.765v-2.988h1.765v-14.935h-1.765v-2.981h-1.765v-2.989H29.75v-2.989h-1.757v-2.981h-1.757v-2.988H24.47v2.988h-1.757v2.981h-1.765v2.989h-1.757v2.989h-1.757v2.981h-1.757v14.935h1.757v2.98h1.757v2.989h1.757v2.989h1.765v2.98h1.757v2.989l1.765-.001zm5.272-23.885h1.765v2.98h-1.765v-2.98zm-12.316 2.98h-1.757v-2.98h1.757v2.98zm7.044 14.936H24.47v-2.989h1.765v2.989zm-1.765-32.853h1.765v2.989H24.47v-2.989zm-1.757 23.894v2.98h-1.765v-5.969h1.765v-2.989h1.757v-2.98h-1.757v-2.989h-1.765v-5.97h1.765v2.981h1.757v2.989h1.765v-2.989h1.757v-2.981h1.757v5.97h-1.757v2.989h-1.757v2.98h1.757v2.989h1.757v5.977h-1.757v-2.988h-1.757v-2.988H24.47v2.988h-1.757zM6.875 125.317h1.757v2.989h1.758v2.989h1.764v-2.989h1.758v-2.989h1.765v-2.98h1.757v-2.989h1.757v-2.989h1.757v-2.987h-1.757v-2.982h-1.757v-2.989h-5.28v2.989h3.523v2.982h-1.765v2.987h-1.758v2.989H10.39v-2.989H8.632v-2.987H6.875v-2.982H5.119v5.969h1.756v2.989H5.119v2.989h1.756zM36.872 71.465v-2.981h1.757v-2.989h1.757v-2.988h-1.757v-2.989h-1.757v-2.98h-1.757v2.98h-1.757v2.989h-1.765v2.988h1.765v2.989h1.757v2.981h1.757zm-1.835-5.867v-2.989h1.757v2.989h-1.757zM40.308 53.651v2.989h1.765v2.981h1.765v2.988h1.742V56.64h-1.742v-2.989h1.742v-2.987h-7.029v2.987zM6.875 59.621h1.757V56.64h1.758v-2.989h1.764v-2.987H5.119v2.987h1.756v2.989H5.119v5.969h1.756z"/><path d="M6.875 101.431h1.757v-2.989h1.757v-2.98h1.765v-2.989h1.757v-2.989h1.765v2.989h1.757v2.989h1.757v2.981h1.757v2.989h1.765v2.989h1.757v2.981h1.765v-2.981h1.757v-2.989h1.757v-2.99h1.757v-2.989h1.765v-2.981h1.765v-2.989h1.757v2.989h1.757v2.981h1.757v2.989h1.765v2.989h1.765v2.989h1.742v-5.978h-1.742v-2.989h1.742v-8.958h-1.742v2.988h-1.765v2.989h-1.765v-2.989h-1.757v-2.988h-1.757v-2.981h1.757v-2.989h1.757v-2.981h1.765v2.981h1.765v2.989h1.742v-8.958h-1.742v-2.989h1.742v-5.97h-1.742v2.989h-1.765v2.981h-1.765v2.989h-1.757v2.989h-1.757v2.981h-1.757v-2.981H33.27v-2.989h-1.765v-2.989H29.75v-2.981h-1.757v-2.989h-1.757v-2.989h1.757V59.62h1.757v-2.98h1.757v-2.988h1.765v-2.989h-7.036v5.977H24.47v-5.977h-7.037v2.989h1.757v2.988h1.757v2.98h1.765v2.989h1.757v2.989h-1.757v2.981h-1.765v2.989H19.19v2.989h-1.757v2.989h-1.757v2.981h-1.757v-2.981h-1.765v-2.989H10.39v-2.989H8.632v-2.989H6.875v-2.981H5.119v5.97h1.757v2.989H5.119v8.958h1.757v-2.989h1.757v-2.981h1.757v2.981h1.765v2.989h1.765v2.981h-1.765v2.988H10.39v2.989H8.632v-2.989H6.875v-2.988H5.119v8.958h1.757v2.989H5.119v5.978h1.757l-.001-2.99zm19.36-17.916h1.757v-2.989h1.757v-2.981h1.757v2.981h1.765v2.989h1.765v2.981h-1.765v2.988h-1.765v2.989H29.75v-2.989h-1.757v-2.988h-1.757l-.001-2.981zm0 14.927H24.47v-5.97h1.765v5.97zM24.47 71.567h1.765v5.97H24.47v-5.97zm-8.793 11.948h1.757v-2.989h1.757v-2.981h1.757v2.981h1.765v2.989h1.757v2.981h-1.757v2.988h-1.765v2.989h-1.757v-2.989h-1.757v-2.988h-1.757v-2.981z"/><path d="M19.27 83.46h1.757v2.981H19.27zM13.982 56.539v2.98h-1.757v2.989h-1.757v2.988h1.757v2.989h1.757v2.981h1.757v-2.981h1.765v-2.989h1.765v-2.988h-1.765v-2.989h-1.765v-2.98h-1.757zm1.757 8.958h-1.757v-2.988h1.757v2.988zM29.703 83.46h1.757v2.981h-1.757zM40.245 197.047h1.757v2.98h-1.757z"/><path d="M31.507 229.837v-2.987H29.75v-2.982h-1.757v-2.986h-1.757v-2.988h1.757v-2.979h1.757v-2.988h1.757v-2.989h1.772v-2.979h1.757v-2.989h1.757v2.989h1.757v2.979h1.757v2.989h1.765v2.988h1.765v2.979h1.742v-5.97h-1.742v-2.987h1.742v-8.959h-1.742v2.987h-1.765v2.988h-1.765v-2.988H38.55v-2.987h-1.757v-2.984h1.757v-2.988h1.757v-2.989h1.765v2.989h1.765v2.988h1.742v-8.959h-1.742v-2.988h1.742v-5.969h-1.742v2.979h-1.765v2.988h-1.765v2.988H38.55v2.979h-1.757V194h-1.757v-2.989h-1.765v-2.979h-1.765v-2.988H29.75v-2.988h-1.757v-2.979h-1.757v-2.989H24.47v2.981h-1.757v2.987h-1.765v2.987h-1.757v2.988h-1.757v2.979h-1.757V194h-1.765v-2.989h-1.757v-2.979H10.39v-2.988H8.632v-2.987H6.875v-2.987H5.119v5.977h1.757v2.988H5.119v8.959h1.757v-2.988h1.757v-2.988h1.757v2.988h1.765v2.988h1.765v2.979h-1.765v2.988H10.39v2.987H8.632v-2.987H6.875v-2.988H5.119v8.958h1.757v2.989H5.119v5.969h1.757v-2.979h1.757v-2.987h1.757v-2.989h1.765v-2.979h1.765v-2.989h1.757v2.989h1.757v2.979h1.757v2.989h1.757v2.987h1.765v2.979h1.757v2.989h-1.757v2.986h-1.765v2.981h-1.757v2.988h-1.757v2.989h7.037v-5.979h1.765v5.979h7.044v-2.989h-1.773v.004zm-5.272-32.844h1.757v-2.988h1.757v-2.989h1.757v2.989h1.772v2.988h1.757v2.979h-1.757v2.988h-1.772v2.987H29.75v-2.987h-1.757v-2.988h-1.757l-.001-2.979zm-3.522 2.98v2.988h-1.765v2.988h-1.757v-2.988h-1.757v-2.988h-1.757v-2.98h1.757v-2.987h1.757v-2.989h1.757v2.989h1.765v2.987h1.757v2.98h-1.757zm3.522 11.948H24.47v-5.97h1.765v5.97zm0-20.907H24.47v-5.97h1.765v5.97z"/><path d="M29.679 197.047h1.765v2.98h-1.765zM40.245 217.993H38.48v-2.989h-1.765v-2.979h-1.757v2.979h-1.757v2.989h-1.757v2.988h1.757v2.979h1.757v2.987h1.757v-2.987h1.765v-2.979h1.765v-2.988zm-3.53 2.988h-1.757v-2.988h1.757v2.988zM8.554 196.836h1.757v2.988H8.554zM13.833 212.022v2.98h-1.765v2.988h-1.757v2.988h1.757v2.98h1.765v2.986h1.765v-2.986h1.757v-2.98h1.757v-2.986h-1.757v-2.989h-1.757v-2.979h-1.765v-.002zm1.844 5.867v2.989h-1.765v-2.989h1.765zM43.838 229.837v-2.989h1.742v-5.969h-1.742v2.989h-1.765v2.98h-1.765v2.989h-1.757v2.99h7.029v-2.99zM19.246 197.047h1.765v2.98h-1.765zM10.39 229.837v-2.989H8.632v-2.98H6.875v-2.989H5.119v5.969h1.756v2.989H5.119v2.99h7.035v-2.99zM6.875 170.11h1.757v-2.981h1.758v-2.99h1.764v2.99h1.758v2.981h1.765v2.988h-3.523v2.989h5.28v-2.989h1.757v-2.988h1.757v-2.981h-1.757v-2.99h-1.757v-2.989h-1.757v-2.98h-1.765v-2.989h-1.758v-2.989H10.39v2.989H8.632v2.989H6.875v2.98H5.119v2.989h1.756v2.99H5.119v5.969h1.756z"/></g></svg>