<svg xmlns="http://www.w3.org/2000/svg" viewBox="2.84 48.38 277.79 186.71"><path fill="#D6D4D1" d="M2.835 48.376h277.794v186.712H2.835z"/><path fill="#E2001A" d="M5.134 50.662h68.31v182.164H5.134z"/><path fill="#FFF" d="M73.444 50.662h136.618v182.164H73.444z"/><path fill="#E2001A" d="M210.045 50.662h68.311v182.164h-68.311zM169.036 162.758l24.853-20.191a.675.675 0 00.233-.557.67.67 0 00-.361-.494l-5.206-2.448c-1.396-.494-1.396-.863-.659-3.499.078-.274.156-.581.234-.878l3.797-13.798a.609.609 0 00-.156-.596.624.624 0 00-.58-.181l-14.4 3.028c-1.115.173-1.742-.572-1.867-1.083l-1.854-6.495a.6.6 0 00-.471-.431.59.59 0 00-.598.188l-11.438 12.81c-.784.98-2.087 1.389-2.62.729-.235-.298-.563-1.067-.173-2.902l4.88-25.895a.609.609 0 00-.251-.62.622.622 0 00-.658-.055l-6.559 3.397c-.801.447-1.538.674-2.135.674-.752 0-1.303-.345-1.709-1.059l-9.037-16.857c-.22-.408-.878-.408-1.114 0l-9.019 16.843c-.738 1.318-2.056 1.404-3.875.393l-6.527-3.389a.655.655 0 00-.675.055.626.626 0 00-.235.62l4.88 25.902c.392 1.828.047 2.597-.188 2.895-.533.659-1.805.267-2.62-.753l-11.421-12.787a.625.625 0 00-.612-.188.65.65 0 00-.471.431l-1.852 6.511c-.109.439-.611 1.099-1.537 1.099-.11 0-.22-.008-.282-.023l-14.435-3.036a.644.644 0 00-.596.181c-.142.165-.204.392-.142.596l3.781 13.783c.094.313.157.62.251.894.722 2.636.737 3.004-.722 3.53l-5.146 2.417a.627.627 0 00-.141 1.051l24.867 20.208c.815.627 1.192 1.732.926 2.706l-2.165 7.131a.579.579 0 00.109.588.614.614 0 00.549.22c4.048-.471 7.971-1.06 11.751-1.624 4.189-.635 8.535-1.285 13.038-1.765.109 0 .423.142.769.485.361.354.549.736.549.918l-1.129 26.146c0 .173.047.329.172.463.11.125.267.188.455.188h4.158a.593.593 0 00.438-.188.614.614 0 00.188-.455l-.658-26.083c0-.234.203-.697.596-1.082.283-.281.52-.393.611-.393 4.504.479 8.834 1.13 13.022 1.765 3.796.563 7.702 1.153 11.767 1.624a.64.64 0 00.549-.22.662.662 0 00.127-.589l-2.182-7.13c-.268-.976.094-2.081.926-2.725z"/></svg>