<svg xmlns="http://www.w3.org/2000/svg" viewBox="2.84 48.38 277.79 186.71"><path fill="#D6D4D1" d="M2.835 48.376h277.794v186.712H2.835z"/><path fill="#CE0E21" d="M278.435 50.647v38.715L5.189 232.818v-38.716z"/><path fill="#F8D71A" d="M5.189 182.719v11.383L278.435 50.647h-21.683z"/><path fill="#336EB0" d="M5.189 50.647v132.072L256.752 50.647z"/><path fill="#F8D71A" d="M278.435 100.745V89.362L5.189 232.818h21.689z"/><path fill="#336EB0" d="M278.435 232.818V100.745L26.878 232.818z"/><path d="M39.492 101.812l-6.989 21.549c0 .047 0 .11.047.141.04.016.126.016.126.016l18.364-13.343 18.356 13.328.063.016c.016 0 .039 0 .094-.016.039-.031.039-.094.039-.141l-7.005-21.549L80.904 88.47c.047-.031.047-.079.047-.149-.016-.023-.078-.079-.125-.079H58.17l-7.028-21.561c-.008-.125-.196-.125-.204 0l-7.029 21.561H21.27c-.063 0-.125.055-.141.079 0 .07 0 .118.079.149l18.284 13.342z" fill="#F8D71A"/></svg>