<svg xmlns="http://www.w3.org/2000/svg" viewBox="2.84 48.38 277.79 186.71"><path fill="#D6D4D1" d="M2.835 48.376h277.794v186.712H2.835z"/><path fill="#073380" d="M5.126 50.663h273.237V96.2H5.126z"/><path fill="#FFF" d="M5.126 96.2h273.237v45.545H5.126z"/><path fill="#2B972E" d="M5.126 141.745h273.237v45.537H5.126z"/><path fill="#FFCF05" d="M5.126 187.282h273.237v45.545H5.126z"/><path fill="#D0012B" d="M113.277 50.663h56.934v182.155h-56.934z"/><path d="M39.656 77.765l-4.479 13.798c0 .023 0 .063.032.086.032.008.087.008.087.008l11.75-8.542 11.751 8.535.039.008c.016 0 .032 0 .063-.008.023-.023.023-.063.023-.086l-4.487-13.798 11.728-8.543c.031-.023.031-.055.031-.101-.016-.008-.047-.047-.079-.047H51.611l-4.495-13.798a.072.072 0 00-.142 0l-4.493 13.797H27.992c-.047 0-.079.039-.094.047 0 .046 0 .078.046.101l11.712 8.543z" fill="#FFCF05"/></svg>