<svg xmlns="http://www.w3.org/2000/svg" viewBox="2.84 48.38 277.79 186.71"><path fill="#D6D4D1" d="M2.835 48.376h277.794v186.712H2.835z"/><path fill="#162B74" d="M5.306 50.67h273.237v182.156H5.306z"/><path fill="#FFF" d="M141.925 50.678h-16.418L73.616 85.272 21.725 50.678H5.306v10.943l51.891 34.594-51.891 34.594v10.943h16.419l51.891-34.594 51.891 34.594h16.418v-10.943L90.034 96.215l51.891-34.594z"/><path fill="#E00021" d="M5.306 50.678v5.467l68.31 45.545v-5.475zM141.925 136.284L73.616 90.739v5.476l68.309 45.537z"/><path fill="#E00021" d="M5.306 141.752h8.206l60.104-40.062v-5.475zM133.72 50.678L73.616 90.747v5.476l68.301-45.545z"/><path fill="#DE0023" d="M141.925 88.245H79.311V50.678h-11.39v37.567H5.306v15.94h62.615v37.567h11.39v-37.567h62.614z"/><path fill="#FFF" d="M63.363 50.678v33.009H5.306v4.558h62.615V50.678zM5.306 108.735h58.057v33.017h4.558v-37.567H5.306zM141.925 104.185H79.311v37.567h4.557v-33.017h58.057zM141.925 83.687H83.868V50.678h-4.557v37.567h62.614z"/><g fill="#FFF"><path d="M207.23 105.205l-1.819 5.64c0 .008 0 .023.008.031h.039l4.793-3.491 4.801 3.491h.048c.008-.008.008-.023.008-.031l-1.835-5.64 4.793-3.491c.018-.008.018-.023.018-.039-.01 0-.023-.023-.031-.023h-5.924l-1.844-5.632c0-.031-.048-.031-.056 0l-1.836 5.632h-5.922c-.017 0-.031.023-.031.023-.008.016-.008.031.017.039l4.773 3.491zM222.268 107.573l-3.969 4.409c0 .008-.008.023 0 .031s.031.023.031.023l5.805-1.239 2.957 5.138.021.008s.01 0 .018.008c.017-.008.017-.016.022-.023l.627-5.899 5.79-1.24c.01-.008.018-.016.021-.031 0 0-.008-.023-.016-.031l-5.404-2.408.611-5.899c.008-.032-.039-.047-.056-.024l-3.97 4.401-5.404-2.408c-.016 0-.039.008-.047.008 0 .016-.008.023.008.039l2.955 5.137zM235.266 115.206l-5.42 2.416c-.008.008-.016.016-.008.031l.021.024 5.799 1.231.618 5.899.009.016c.008 0 .016.008.022.016.008 0 .017-.008.022-.016l2.974-5.13 5.798 1.224c.018 0 .021-.008.029-.016.01-.008.018-.031 0-.039l-3.961-4.401 2.957-5.138c.023-.023-.008-.063-.039-.039l-5.412 2.4-3.963-4.393c-.016-.016-.039-.016-.047-.024-.008.024-.016.032-.008.047l.609 5.892zM244.067 127.632l-5.923.008c-.017 0-.022 0-.031.023l.009.031 4.81 3.483-1.837 5.64v.023c.01 0 .01.008.01.024.018 0 .021 0 .039-.008l4.793-3.476 4.801 3.476c.018 0 .021 0 .039-.008.008 0 .021-.016.018-.031l-1.828-5.632 4.785-3.491c.03-.016.017-.063-.017-.055l-5.923-.008-1.836-5.625c0-.016-.021-.032-.021-.032-.023.008-.031.008-.031.032l-1.857 5.626zM246.781 142.637l-5.42-2.399c-.008-.008-.022-.008-.03.008l-.009.031 2.974 5.138-3.969 4.401-.009.022c.009.008 0 .017 0 .023.009.008.017.008.031.016l5.797-1.23 2.974 5.13c.008.008.022.016.03.008.017.008.031-.008.031-.024l.62-5.891 5.797-1.239c.031 0 .04-.047.008-.055l-5.412-2.424.611-5.875c.008-.016-.008-.039-.008-.047-.023 0-.039 0-.047.023l-3.969 4.384zM243.612 157.582l-3.969-4.408c-.008-.008-.016-.008-.031 0l-.023.031.627 5.891-5.42 2.416-.008.017c0 .008-.009.008-.017.023l.022.023 5.799 1.23.635 5.892c0 .017.008.031.023.031.008.008.03 0 .039-.017l2.965-5.122 5.789 1.225c.039.008.056-.032.031-.048l-3.962-4.417 2.957-5.121c.009-.017.009-.04.009-.048-.022-.008-.031-.008-.048 0l-5.418 2.402zM234.45 169.975l-1.835-5.64c0-.008-.017-.023-.032-.023-.008.008-.031.023-.031.023l-1.825 5.64h-5.933l-.016.009c0 .008-.008.008-.016.022-.008.008 0 .017.008.03l4.793 3.481-1.82 5.642c0 .009 0 .031.008.031.008.017.031.017.039.008l4.793-3.481 4.801 3.481c.024.022.063-.008.05-.039l-1.828-5.642 4.785-3.475c.016-.009.022-.031.022-.039-.017-.022-.022-.022-.039-.022l-5.924-.006zM221.028 177.136l.62-5.891c0-.016-.008-.031-.022-.031h-.031l-3.971 4.416-5.412-2.416-.022.008c0 .008-.008 0-.017.008-.017.008-.008.016-.008.031l2.957 5.131-3.953 4.408c-.008.016-.017.031 0 .039 0 .016.017.023.022.023l5.797-1.231 2.974 5.131c.018.031.057.017.057-.008l.628-5.899 5.789-1.229c.008 0 .022-.023.03-.031 0-.022-.008-.022-.03-.03l-5.408-2.429zM205.372 178.691l2.965-5.131c.008-.016 0-.031-.008-.039l-.031-.009-5.42 2.416-3.971-4.407-.016-.009c-.008.009-.016 0-.023 0-.016.009-.016.017-.022.031l.618 5.892-5.412 2.416c-.008.008-.016.023-.008.031-.008.016 0 .031.018.039l5.789 1.23.636 5.893c0 .039.048.039.056.016l2.974-5.131 5.78 1.225c.017.008.039-.008.039-.008.017-.022.008-.031-.008-.048l-3.956-4.407zM190.945 173.615l4.802-3.49c.008-.008.008-.016 0-.039l-.022-.016h-5.933l-1.836-5.642-.008-.008c-.016 0-.016-.008-.023-.016-.016 0-.021.016-.029.023l-1.828 5.634-5.932.008c-.008.008-.022.016-.03.029-.008.01-.008.023.008.031l4.793 3.482-1.825 5.641c-.01.029.029.048.047.039l4.801-3.48 4.793 3.475c.008.008.031.008.039.008.016-.016.016-.023.008-.047l-1.825-5.632zM179.633 162.837l5.798-1.239c.016 0 .022-.016.022-.03-.009-.009-.017-.032-.017-.032l-5.421-2.408.619-5.898-.008-.017c-.017 0-.008-.008-.017-.016-.008-.017-.024 0-.04.008l-3.961 4.4-5.421-2.408c-.008 0-.022.008-.03.016-.017 0-.017.017-.017.039l2.966 5.123-3.962 4.408c-.022.032.008.063.022.063l5.806-1.23 2.966 5.121c0 .008.023.019.031.024.023-.017.023-.017.031-.04l.633-5.884zM173.852 148.49l5.807 1.231c.016 0 .022-.008.03-.016v-.04l-3.978-4.4 2.965-5.137.009-.016c-.017-.008-.009-.016-.009-.024-.008-.016-.023-.016-.039-.016l-5.404 2.416-3.979-4.408h-.039c-.008 0-.022.016-.03.031l.628 5.891-5.413 2.416c-.03.008-.017.055 0 .063l5.806 1.238.619 5.875c0 .017.016.039.016.039.031 0 .031 0 .049-.022l2.962-5.121zM173.773 133.021l4.81 3.491c.008.008.022 0 .03-.008a.098.098 0 00.017-.031l-1.836-5.64 4.803-3.491.008-.008c-.008-.016 0-.023 0-.023 0-.023-.018-.023-.031-.031l-5.923.008-1.836-5.64a.056.056 0 00-.039-.016c-.008-.008-.022 0-.03.016l-1.828 5.632-5.931.008c-.039-.008-.039.047-.022.055l4.802 3.491-1.828 5.625c-.009.008 0 .039 0 .039.03.016.03.016.047 0l4.787-3.477zM180.355 118.956l2.965 5.138c.009.016.022.016.039.008.009 0 .031-.023.031-.023l.612-5.899 5.797-1.231.016-.008c0-.016.016-.016.008-.023.016-.016 0-.023-.016-.039l-5.405-2.4.612-5.907c-.008-.008-.023-.016-.031-.024 0-.008-.016-.008-.039 0l-3.954 4.401-5.42-2.4c-.03-.023-.056.023-.048.039l2.966 5.146-3.962 4.385c-.008.016-.008.039-.008.047.016.023.016.023.047.016l5.79-1.226zM192.185 109.448l.628 5.899c0 .016.008.016.023.023a.166.166 0 00.031-.008l2.965-5.146 5.797 1.232h.016c.008-.016.023-.008.023-.016.016-.008.008-.024 0-.04l-3.969-4.401 2.965-5.138c0-.008-.01-.024-.018-.032 0-.008-.018-.023-.029-.023l-5.412 2.416-3.972-4.4c-.022-.032-.063 0-.055.023l.61 5.899-5.404 2.4c-.008.008-.016.031-.03.039.017.023.017.023.039.032l5.792 1.241z"/></g></svg>