<svg xmlns="http://www.w3.org/2000/svg" viewBox="2.84 48.38 277.79 186.71"><path fill="#D6D4D1" d="M2.835 48.376h277.794v186.712H2.835z"/><path fill="#FFF" d="M96.193 50.662h182.163v91.074H96.193z"/><path fill="#D52C1E" d="M5.119 141.744h273.237v91.082H5.119z"/><path fill="#003E8E" d="M5.111 50.662h91.082v91.082H5.111z"/><path d="M42.34 101.07l-5.036 15.517c0 .031 0 .07.039.094.023.016.094.016.094.016l13.21-9.609 13.226 9.594.039.016c.008 0 .031 0 .07-.016.032-.024.032-.063.032-.094l-5.052-15.517 13.194-9.609c.031-.023.031-.063.031-.11-.016-.016-.063-.055-.094-.055H55.786l-5.06-15.524c-.008-.086-.141-.086-.149 0l-5.06 15.524h-16.3a.14.14 0 00-.102.055c0 .047 0 .086.055.11l13.17 9.608z" fill="#FFF"/></svg>