<svg xmlns="http://www.w3.org/2000/svg" viewBox="2.84 48.38 277.79 186.71"><path fill="#D6D4D1" d="M2.835 48.376h277.793v186.712H2.835z"/><path fill="#047A5D" d="M5.071 50.671h91.073v182.147H5.071z"/><path fill="#CD0E26" d="M96.144 50.671h91.074v182.147H96.144z"/><path fill="#FCD11A" d="M187.21 50.671h91.08v182.147h-91.08zM130.134 148.482l-7.013 21.573c0 .055.023.102.07.135.039.03.11.03.142 0l18.34-13.336 18.349 13.336c.031.022.047.022.069.022s.063 0 .087-.022c.048-.033.048-.08.048-.135l-7.014-21.573 18.332-13.334c.056-.039.056-.086.056-.141-.031-.047-.07-.079-.117-.079h-22.679l-7.013-21.572c-.031-.102-.204-.102-.235 0l-7.005 21.572h-22.663a.139.139 0 00-.134.079c0 .055.008.102.063.141l18.317 13.334z"/></svg>