<svg xmlns="http://www.w3.org/2000/svg" viewBox="2.84 48.38 277.79 186.71"><path fill="#D6D4D1" d="M2.835 48.376h277.793v186.712H2.835z"/><path fill="#DC2B19" d="M5.11 50.655h273.235v182.156H5.11z"/><g fill="#FFDE06"><path d="M63.927 89.782H47.666l-5.028-15.469c-.023-.086-.172-.086-.196 0l-5.029 15.469H21.16c-.047 0-.094.023-.11.071-.016.047 0 .094.047.117l13.147 9.563-5.02 15.469a.106.106 0 00.031.118c.047.031.094.031.125 0l13.163-9.563 13.147 9.563a.119.119 0 00.063.023c.031 0 .047-.008.063-.023.047-.023.063-.07.047-.118l-5.028-15.469L63.99 89.97c.039-.023.055-.07.039-.117-.015-.047-.055-.071-.102-.071zM81.617 80.958a.106.106 0 00.086.047h.032a.1.1 0 00.078-.094l.471-5.35 5.231-1.2c.04-.016.079-.047.087-.094a.123.123 0 00-.071-.11l-4.933-2.103.471-5.342c0-.047-.031-.094-.063-.109-.047-.016-.094-.008-.125.031l-3.53 4.048-4.942-2.103c-.047-.016-.094-.008-.126.023a.107.107 0 00-.008.125l2.77 4.605-3.53 4.048a.124.124 0 00-.016.125c.031.04.078.063.118.055l5.232-1.208 2.768 4.606zM88.3 90.3c-.039.023-.071.071-.055.11 0 .047.031.086.078.094l5.287.918.769 5.318c0 .047.039.079.078.086h.024c.039 0 .07-.016.094-.055l2.51-4.746 5.287.917c.008.008.016.008.023.008.063 0 .11-.047.11-.11 0-.039-.023-.07-.055-.094l-3.727-3.828 2.511-4.754c.031-.039.016-.086-.016-.118-.032-.039-.079-.047-.126-.023l-4.816 2.361-3.734-3.852c-.031-.031-.078-.039-.125-.023-.047.023-.063.071-.063.118l.761 5.311L88.3 90.3zM102.906 109.229a.104.104 0 00-.103-.071l-5.365.188-1.836-5.044c-.023-.047-.063-.079-.109-.071a.095.095 0 00-.095.079l-1.475 5.162-5.365.196c-.047 0-.095.031-.103.078-.008.047.008.094.039.118l4.456 2.997-1.475 5.162c-.016.047.008.094.047.118.016.016.031.016.055.016s.048-.008.071-.016l4.22-3.31 4.456 2.997c.039.023.094.023.125-.008.031-.024.047-.079.031-.118l-1.835-5.044 4.22-3.311c.049-.024.057-.078.041-.118zM87.555 127.82l-5.028-1.891.251-5.365c0-.047-.023-.086-.07-.102s-.094 0-.125.031l-3.357 4.197-5.022-1.898a.11.11 0 00-.118.031.106.106 0 00-.008.126l2.949 4.487-3.357 4.197c-.023.031-.031.086 0 .125.024.031.071.047.118.039l5.186-1.419 2.949 4.487c.016.031.047.047.086.047h.023c.047-.016.079-.055.079-.102l.251-5.365 5.176-1.42a.093.093 0 00.079-.094.125.125 0 00-.062-.111z"/></g></svg>