<svg xmlns="http://www.w3.org/2000/svg" viewBox="2.84 48.38 277.79 186.71"><path fill="#D6D4D1" d="M2.835 48.376h277.793v186.712H2.835z"/><path fill="#CB0525" d="M5.188 50.671v182.156l136.619-91.082z"/><path fill="#0B3087" d="M5.188 50.655v.016l54.637 36.42h218.598V50.655z"/><path fill="#FFF" d="M59.825 87.091l54.644 36.43h163.954v-36.43z"/><path fill="#0B3087" d="M114.469 123.521l27.338 18.224-27.315 18.213h163.931v-36.437z"/><path fill="#FFF" d="M114.492 159.958l-54.652 36.43h218.583v-36.43z"/><path fill="#0B3087" d="M59.84 196.388L5.188 232.827h273.235v-36.439z"/><path d="M44.755 146.898l-5.303 16.426c0 .023 0 .071.031.095.016.016.094.016.094.016l13.979-10.174 13.979 10.159.047.016c.032 0 .032 0 .079-.016.016-.023.016-.071.016-.095l-5.319-16.426 13.963-10.173c.016-.023.016-.063.016-.109 0-.016-.047-.063-.063-.063H58.985l-5.334-16.442c-.016-.071-.141-.071-.172 0l-5.35 16.442H30.871c-.047 0-.094.047-.094.047 0 .063 0 .102.047.125l13.931 10.172z" fill="#FFF"/></svg>