<svg xmlns="http://www.w3.org/2000/svg" viewBox="2.83 48.38 277.8 186.71"><path fill="#D6D4D1" d="M2.833 48.375H280.63v186.714H2.833z"/><path fill="#FFF" d="M5.14 173.625h273.238v13.657H5.14z"/><path fill="#CB061D" d="M5.14 159.959h273.238v13.665H5.14z"/><path fill="#FFF" d="M5.14 146.301h273.238v13.658H5.14z"/><path fill="#003B8A" d="M5.14 187.282h273.238v45.545H5.14zM5.14 50.662h273.238v95.632H5.14z"/><g fill="#FECB09"><path d="M141.988 182.599l-1.82 5.609c0 .008 0 .021.008.029.016.01.039.01.039.01l4.777-3.477 4.771 3.467.016.01s.018 0 .021-.01c.009-.008.01-.021.01-.029l-1.818-5.609 4.77-3.467c.008-.008.008-.023.008-.039-.008-.008-.023-.023-.031-.023h-5.891l-1.828-5.602c-.008-.031-.055-.031-.055 0l-1.828 5.602h-5.89c-.016 0-.031.016-.031.023 0 .016 0 .031.016.039l4.756 3.467zM98.725 123.05l-1.819 5.609c0 .008 0 .023.016.031.008.008.031.008.031.008l4.77-3.475 4.777 3.467.016.008s.008 0 .023-.008.016-.023.016-.031l-1.828-5.609 4.762-3.467c.016-.008.016-.023.016-.039 0-.008-.016-.024-.031-.024h-5.892l-1.827-5.601c0-.031-.047-.031-.055 0l-1.828 5.601h-5.884c-.016 0-.031.016-.039.024 0 .016 0 .031.023.039l4.753 3.467zM125.459 131.75l-1.82 5.609c0 .008 0 .023.008.032.008.008.039.008.039.008l4.77-3.476 4.77 3.468.016.008s.016 0 .031-.008c.008-.008.008-.024.008-.032l-1.827-5.609 4.77-3.467c.016-.008.016-.024.016-.04-.008-.008-.023-.023-.031-.023h-5.899l-1.82-5.601c-.008-.031-.055-.031-.063 0l-1.82 5.601h-5.891c-.016 0-.031.016-.039.023 0 .016 0 .032.023.04l4.759 3.467zM71.991 131.75l-1.82 5.609c0 .008 0 .023.016.032.008.008.031.008.031.008l4.77-3.476 4.777 3.468.016.008s.008 0 .023-.008c.016-.008.016-.024.016-.032l-1.828-5.609 4.761-3.467c.017-.008.017-.024.017-.04 0-.008-.017-.023-.032-.023h-5.891l-1.828-5.601c0-.031-.047-.031-.055 0l-1.828 5.601h-5.883c-.016 0-.031.016-.039.023 0 .016 0 .032.023.04l4.754 3.467zM141.988 154.5l-1.82 5.609c0 .008 0 .022.008.031a.103.103 0 00.039.008l4.777-3.476 4.771 3.468.016.008s.018 0 .021-.008c.009-.009.01-.023.01-.031l-1.818-5.609 4.77-3.467c.008-.008.008-.023.008-.039-.008-.008-.023-.023-.031-.023h-5.891l-1.828-5.601c-.008-.031-.055-.031-.055 0l-1.828 5.601h-5.89c-.016 0-.031.017-.031.023 0 .016 0 .031.016.039l4.756 3.467zM55.455 154.5l-1.82 5.609c0 .008 0 .022.016.031a.08.08 0 00.032.008l4.777-3.476 4.777 3.468.016.008s.008 0 .016-.008c.016-.009.016-.023.016-.031l-1.82-5.609 4.761-3.467c.008-.008.008-.023.008-.039 0-.008-.016-.023-.031-.023H60.32l-1.835-5.601c0-.031-.047-.031-.047 0l-1.835 5.601H50.72c-.016 0-.031.017-.031.023 0 .016 0 .031.016.039l4.75 3.467zM55.455 182.599l-1.82 5.609c0 .008 0 .021.016.029.016.01.032.01.032.01l4.777-3.477 4.777 3.467.016.01s.008 0 .016-.01c.016-.008.016-.021.016-.029l-1.82-5.609 4.761-3.467c.008-.008.008-.023.008-.039 0-.008-.016-.023-.031-.023H60.32l-1.835-5.602c0-.031-.047-.031-.047 0l-1.838 5.601h-5.883c-.016 0-.031.017-.031.022 0 .017 0 .031.016.039l4.753 3.469zM125.459 205.348l-1.82 5.602c0 .017 0 .031.008.039h.039l4.77-3.468 4.77 3.468h.047c.008-.008.008-.022.008-.039l-1.827-5.602 4.77-3.476c.016-.009.016-.017.016-.039 0 0-.023-.017-.031-.017h-5.899l-1.82-5.608c-.008-.031-.055-.031-.063 0l-1.82 5.608h-5.891c-.016 0-.031.017-.031.017-.008.022-.008.03.016.039l4.758 3.476zM71.967 205.348l-1.82 5.602c0 .017 0 .031.008.039h.039l4.777-3.468 4.77 3.468h.039c.008-.008.008-.022.008-.039l-1.82-5.602 4.77-3.476c.008-.009.008-.017.008-.039 0 0-.023-.017-.031-.017h-5.891l-1.828-5.608c-.008-.031-.055-.031-.055 0l-1.828 5.608h-5.891c-.016 0-.032.017-.032.017 0 .022 0 .03.016.039l4.761 3.476zM98.725 214.041l-1.819 5.607c0 .008 0 .023.016.031.008.008.031.008.031 0l4.77-3.467 4.777 3.467c0 .008.008.008.008.008.016 0 .016 0 .031-.008s.016-.023.016-.031l-1.828-5.607 4.762-3.469c.016-.008.016-.023.016-.039 0-.008-.016-.023-.031-.023h-5.892l-1.827-5.602c0-.031-.047-.031-.055 0l-1.828 5.602h-5.884c-.016 0-.031.018-.039.023 0 .016 0 .031.023.039l4.753 3.469z"/></g></svg>