<svg xmlns="http://www.w3.org/2000/svg" viewBox="2.84 48.38 277.79 186.71"><path fill="#D6D4D1" d="M2.835 48.376h277.794v186.712H2.835z"/><path fill="#FFF" d="M5.189 50.67h273.237v182.155H5.189z"/><g fill="#31491C"><path d="M135.305 195.988c.525-.243 1.059-.502 1.568-.745.126-.047-.69-1.091-.854-1.13-.275-.306-2.707 1.31-3.186 1.31-.415 0-1.09-.461-1.467-.619-.36-.164-1.247-.76-1.64-.705-.164-.077-1.027 1.105-.965 1.139.11.259 1.318.619 1.616.753-.463.329-4.212 3.239-4.236 3.208 0 .109.503.438.565.502.463.398.918.793 1.349 1.225.644.676.644.98 1.311.205 1.216-1.391 2.338-2.871 3.467-4.322a88.392 88.392 0 003.303 4.143c.533.627.62.939 1.208.29.651-.753 1.467-1.351 2.188-2.04 0-.006-3.789-2.892-4.227-3.214zM110.508 189.077c.196 1.82 2.464 2.612 3.97 2.871.8.135 1.64.188 2.447.188.596 0 1.2-.039 1.789-.086.242-.017 1.631-.022 1.718-.211.172-.408-2.346-1.914-2.723-2.119a9.958 9.958 0 00-2.839-1.06 7.997 7.997 0 00-2.275-.133c-.181.016-2.103.245-2.087.55zM112.649 186.575c.181 0-.926-2.377-1.09-2.645-.558-.926-1.248-1.75-2.118-2.394-1.13-.848-2.534-1.317-3.962-1.356-.455-.008-1.09-.039-1.529.148-.117.057.125.512.149.564.438 1.033 1.129 1.969 1.945 2.729 1.805 1.682 4.205 2.585 6.605 2.954M127.602 193.156c.172-.017-1.655-2.91-1.923-3.247-.753-1.005-1.654-1.953-2.683-2.684-1.145-.823-2.604-1.467-4.023-1.356-.283.022-.581-.03-.597.29-.039.58.063 1.192.251 1.749.346.957.926 1.757 1.679 2.425 1.976 1.757 4.738 2.47 7.296 2.823M115.089 186.983c.393.408 1.24.645 1.655.148.502-.563-.078-1.563-.502-1.992-.125-.125-1.655-.935-1.694-.338-.055.73.031 1.625.541 2.182.252.273-.188-.221 0 0zM88.128 173.2c-.572.031-.479.148-.385.676.095.51.26 1.026.479 1.506.393.896 1.004 1.67 1.719 2.338 1.428 1.363 3.302 2.313 5.2 2.854.518.147-.51-1.577-.651-1.819-.533-1.004-1.121-1.97-1.835-2.832-1.076-1.327-2.715-2.825-4.527-2.723-.251.008 0 0 0 0zM99.416 180.362c.039.016.298.172.298.031 0-.565-.471-1.381-.658-1.914-.816-2.213-1.906-4.66-3.789-6.205-.675-.564-1.554-1.004-2.479-1.004-.204-.008-.94 0-1.09.234-.142.213.675 1.553.8 1.789 1.083 2.008 2.511 3.852 4.236 5.311 1.599 1.335 1.717 1.318 2.682 1.758zM97.494 182.01c.377 1.856 2.259 3.16 3.898 3.852 1.091.463 2.229.745 3.357.934.706.109 1.396.172 2.095.219.549.041.965.188.486-.336-1.647-1.875-3.632-3.602-6.001-4.457-.273-.095-3.984-.856-3.835-.212zM87.21 165.866c.103.848.228 1.727.228 2.581 0 1.052.863 2.118 1.443 2.927.047.047.471.823.51.415.087-.8.134-1.601.173-2.399.078-1.765.243-3.42-1.271-4.62a4.583 4.583 0 00-1.13-.667c-.361-.151 0 1.504.047 1.763.103.863-.07-.533 0 0zM100.93 181.115c.424.425 1.507.69 1.758-.039.251-.69-.274-1.562-.793-1.97-.212-.148-1.482-.666-1.521-.102-.032.699.069 1.57.556 2.111.251.266-.197-.219 0 0zM98.49 187.799c1.342-.031.29-2.707-1.004-2.4-.737.164.047 2.792 1.004 2.4.298-.007 0 0 0 0zM91.933 181.131c-.737-.148-6.229-.715-6.017.558.368 2.307 4.024 2.84 5.828 2.997a16.5 16.5 0 003.962-.149c.274-.055 1.317-.047.988-.471-1.176-1.483-2.925-2.567-4.761-2.935M86.646 176c.274-.268-.439-1.481-.581-1.671-.36-.558-.862-.997-1.419-1.35-1.593-1.013-3.601-1.312-5.444-1.396-.534-.023-.424.094-.33.523.141.559.306 1.1.557 1.615.4.809 1.004 1.586 1.867 1.923 1.059.394 2.345.394 3.428.416.431.019 1.686.208 1.922-.06.015-.015-.024.008 0 0zM86.049 177.805c-.259 1.671 1.577 2.736 3.052 2.228 1.004-.368.188-1.428-.345-1.804a3.287 3.287 0 00-1.546-.559c-.188-.015-1.113-.078-1.161.135zM82.786 170.243c1.02.588 2.165 1.256 3.342 1.451.949.172.039-1.906-.079-2.188-.392-.941-.808-2.133-1.467-2.935a24.199 24.199 0 00-2.385-2.62c-.886-.839-1.992-1.897-3.2-2.173-.345-.079-.879-.173-.902.259-.07.651-.07 1.326-.016 1.978.079 1.23.337 2.604 1.192 3.561.973 1.114 2.229 1.945 3.515 2.667 1.372.792-1.53-.886 0 0zM111.081 192.199c-1.365.017-.267 2.771.988 2.771 1.742-.001.306-2.771-.988-2.771zM126.558 195.344c0-.211-1.381-.666-1.592-.744a22.717 22.717 0 00-2.017-.723c-1.082-.328-2.204-.563-3.326-.619-1.059-.057-2.149.063-3.13.502-.251.117-1.852 1.404-1.592 1.476 2.196 1.286 4.737 1.914 7.279 1.615a11.81 11.81 0 003.122-.815c.127-.063 1.279-.471 1.256-.692 0-.023 0 .024 0 0zM108.689 189.508c-1.797-1.356-4.361-1.396-6.503-1.238a24.565 24.565 0 00-3.271.486c-.086.016-.447.039-.471.146-.07.243 1.075.939 1.271 1.066 1.805 1.16 4.024 1.701 6.15 1.74 1.114.028 5.074-.497 2.824-2.2"/><g><path d="M154.875 189.077c-.193 1.82-2.479 2.612-3.982 2.871-.803.135-1.641.188-2.434.188-.604 0-1.201-.039-1.805-.086-.229-.017-1.632-.022-1.726-.211-.165-.408 2.377-1.914 2.737-2.119a9.849 9.849 0 012.848-1.06 7.928 7.928 0 012.268-.133c.173.016 2.111.245 2.094.55zM152.743 186.575c-.188 0 .918-2.377 1.066-2.645.557-.926 1.255-1.75 2.117-2.394a6.986 6.986 0 013.97-1.356c.455-.008 1.099-.039 1.522.148.117.057-.127.512-.144.564-.438 1.033-1.13 1.969-1.944 2.729-1.81 1.682-4.21 2.585-6.587 2.954M137.76 193.156c-.149-.017 1.679-2.91 1.93-3.247.776-1.005 1.663-1.953 2.684-2.684 1.168-.823 2.604-1.467 4.023-1.356.298.022.596-.03.596.29a4.437 4.437 0 01-.25 1.749c-.346.957-.927 1.757-1.68 2.425-1.977 1.757-4.738 2.47-7.303 2.823M150.279 186.983c-.376.408-1.239.645-1.655.148-.484-.563.08-1.563.52-1.992.126-.125 1.646-.935 1.688-.338.043.73-.027 1.625-.553 2.182-.243.273.212-.221 0 0zM177.256 173.2c.572.031.479.148.385.676a6.517 6.517 0 01-.479 1.506c-.394.896-1.004 1.67-1.72 2.338-1.442 1.363-3.312 2.313-5.2 2.854-.533.147.51-1.577.65-1.819.531-1.004 1.122-1.97 1.828-2.832 1.07-1.327 2.709-2.825 4.536-2.723.237.008-.015 0 0 0zM165.952 180.362c-.031.016-.298.172-.298.031 0-.565.472-1.381.675-1.914.816-2.213 1.906-4.66 3.773-6.205.689-.564 1.553-1.004 2.479-1.004.205-.008.941 0 1.092.234.142.213-.676 1.553-.801 1.789-1.065 2.008-2.494 3.852-4.236 5.311-1.6 1.335-1.719 1.318-2.684 1.758zM167.891 182.01c-.393 1.856-2.275 3.16-3.915 3.852-1.074.463-2.228.745-3.356.934-.689.109-1.382.172-2.095.219-.534.041-.948.188-.479-.336 1.641-1.875 3.625-3.602 6.019-4.457.249-.095 3.975-.856 3.826-.212zM178.159 165.866c-.087.848-.213 1.727-.213 2.581 0 1.052-.861 2.118-1.451 2.927-.039.047-.479.823-.518.415-.086-.8-.133-1.601-.172-2.399-.079-1.765-.229-3.42 1.277-4.62a5.125 5.125 0 011.139-.667c.345-.151-.015 1.504-.062 1.763-.102.863.071-.533 0 0zM164.439 181.115c-.408.425-1.489.69-1.757-.039-.251-.69.29-1.562.814-1.97.188-.148 1.459-.666 1.498-.102.033.699-.054 1.57-.555 2.111-.251.266.211-.219 0 0zM166.877 187.799c-1.316-.031-.281-2.707 1.021-2.4.737.164-.064 2.792-1.021 2.4-.296-.007 0 0 0 0zM173.452 181.131c.737-.148 6.213-.715 6.019.558-.369 2.307-4.04 2.84-5.847 2.997a16.336 16.336 0 01-3.943-.149c-.29-.055-1.318-.047-.988-.471a8.233 8.233 0 014.759-2.935M178.747 176c-.281-.268.434-1.481.572-1.671.346-.558.848-.997 1.412-1.35 1.607-1.013 3.594-1.312 5.438-1.396.533-.023.422.094.346.523a9.366 9.366 0 01-.559 1.615c-.398.809-.996 1.586-1.883 1.923-1.043.394-2.322.394-3.412.416-.439.019-1.686.208-1.914-.06-.023-.015 0 .008 0 0zM179.334 177.805c.26 1.671-1.601 2.736-3.043 2.228-1.027-.368-.211-1.428.338-1.804.455-.314.988-.51 1.554-.559.164-.015 1.105-.078 1.151.135zM182.599 170.243c-1.013.588-2.181 1.256-3.356 1.451-.935.172-.039-1.906.094-2.188.377-.941.81-2.133 1.476-2.935.696-.926 1.521-1.804 2.377-2.62.888-.839 1.979-1.897 3.201-2.173.327-.079.878-.173.901.259.056.651.056 1.326.017 1.978-.079 1.23-.354 2.604-1.192 3.561-.97 1.114-2.247 1.945-3.518 2.667-1.373.792 1.528-.886 0 0zM154.288 192.199c1.365.017.274 2.771-.973 2.771-1.757-.001-.322-2.771.973-2.771zM138.811 195.344c.016-.211 1.381-.666 1.593-.744a24.2 24.2 0 012.031-.723c1.067-.328 2.188-.563 3.317-.619 1.066-.057 2.158.063 3.123.502.25.117 1.867 1.404 1.615 1.476-2.203 1.286-4.763 1.914-7.296 1.615a11.511 11.511 0 01-3.114-.815c-.14-.063-1.269-.471-1.269-.692 0-.023 0 .024 0 0zM156.696 189.508c1.78-1.356 4.346-1.396 6.487-1.238a23.54 23.54 0 013.263.486c.096.016.471.039.495.146.056.243-1.075.939-1.287 1.066-1.804 1.16-4.009 1.701-6.134 1.74-1.129.028-5.083-.497-2.824-2.2"/></g></g><path d="M211.592 82.417c-1.594-1.82-6.418 1.843-7.688 2.502-1.758.588-6.856 1.161-7.853 3.169-.754 1.514-4.393 3.036-6.182 3.35-.941.157-2.941-.313-3.634-.031-1.012.149-2.815 3.608-3.938 4.181-4.395 2.228-8.67 4.197-13.414 5.64-2.26.683-4.023.204-6.275.573-2.484.063-4.354 2.526-6.55 3.216-1.49.47-3.728.008-5.491.588-1.71.565-3.943.769-5.729.973-3.959.471-8.234-.149-12-.62-.901-.102-2.393-.039-3.098-.627-.314-.251-6.763-.941-7.076-.706-1.553-.016-2.204.432-4.04 0-.847-.408-5.554-2.8-6.338-2.683-2.001-.965-.235 8.464-.338 9.57-.407 4.307-2.368 9.507-7.365 8.213-3.734-.965-6.205-3.294-10.3-2.62-2.902.494-5.256.997-6.99 3.616-2.353 3.53-4.777 8.574-9.844 5.609-1.428-.832-3.232-4.251-4.973-2.604-1.467 2.416.36 4.095 1.176 6.063.769 1.844.235 2.495.518 4.158-.079.471.957 2.102 1.129 2.651.392 1.137-1.051 1.09.596 2.557 1.271 1.146 1.287 1.663 2.934 2.463.761.384.84 3.365 1.255 4.314.941 2.079.941 1.882 3.036 3.208 2.063 1.294 2.612 1.788 4.651 2.313 1.091.729 3.664 1.53 4.958 2.157.918.745 3.476 1.396 4.612 1.562 2.942.463 6.331-2.032 8.998-1.287 2.393.659 3.42.157 4.941 2.832.338.572.926 4.04 1.067 4.095.745.259 7.962.251 6.503-1.436.039-1.515-1.757-2.04-1.192-4.236.369-1.389 3.334-2.958 4.612-3.389 3.06-1.043 5.703-.62 8.936-.393.769.055 1.514.22 1.827-.675.447-1.247 1.867.11 2.628-.321 2.941-.667 5.374-3.105 8.276-3.852 1.767-.447 2.446-.684 3.922-1.515.589-.329.965-1.208 1.515-1.403 1.139-.393 2.434.485 3.49-.086 3.586-2.166.563-8.685 4.465-10.387 1.316-.573 3.146-.251 4.59-.274 2.61-.032 3.381 2.173 5.459 2.408.736.313 2.563-.824 2.957-1.389 1.437-.69 2.862-1.436 4.433-1.404 1.295.463 2.511.008 3.827.785 1.648.965 2.919 1.443 3.271-.542-.94-.933-.808-1.616-1.71-2.973-1.449-2.189-3.271-3.287-4.98-5.225-1.764-2-4.368-4.974-4.604-7.68-.194-2.244 1.451-6.15 3.468-7.366 1.905-1.153 5.655 1.333 6.612-1.844 1.179-3.969 5.567-6.424 9.162-8.025 2.84-1.263 3.897-2.314 6.252-4.071 1.373-1.02 3.287-1.357 4.385-2.737.832-.8.832-2.024 1.837-2.738 1.553-1.13 3.537-1.734 5.17-2.417 1.78.249 4.777-3.634 4.134-5.21z" fill="#F7AC34"/></svg>