<svg xmlns="http://www.w3.org/2000/svg" viewBox="2.84 48.38 277.8 186.71"><path fill="#D6D4D1" d="M2.835 48.375H280.63v186.714H2.835z"/><path fill="#FFF" d="M5.141 50.646V232.803l136.619-91.082z"/><path fill="#70B1DD" d="M5.141 50.639v.007l136.619 91.075h136.618V50.639z"/><path fill="#2FA32F" d="M141.76 141.729L5.141 232.803h273.237v-91.074z"/><path d="M44.708 146.875l-5.303 16.427c0 .022 0 .069.031.094.016.016.094.016.094.016l13.98-10.174 13.979 10.159.047.016c.031 0 .031 0 .079-.016.016-.024.016-.071.016-.094l-5.318-16.427 13.962-10.174c.016-.023.016-.063.016-.11 0-.016-.047-.063-.063-.063h-17.29l-5.334-16.442c-.016-.07-.141-.07-.173 0l-5.35 16.442H30.824c-.047 0-.094.047-.094.047 0 .063 0 .102.047.125l13.931 10.174z" fill="#D7131B"/></svg>