<svg xmlns="http://www.w3.org/2000/svg" viewBox="2.84 48.38 277.79 186.71"><path fill="#D6D4D1" d="M2.835 48.376h277.794v186.712H2.835z"/><path fill="#006B3E" d="M5.142 50.632h273.237v182.163H5.142z"/><path d="M5.149 134.889h273.236v13.665H5.149z"/><path fill="#FFF" d="M5.149 148.554h273.236v13.665H5.149z"/><path d="M134.928 50.639h13.665v182.164h-13.665z"/><path fill="#FCD11A" d="M121.271 50.639h13.665v182.164h-13.665z"/><path fill="#FFF" d="M148.592 50.639h13.666v182.164h-13.666z"/><path fill="#FCD11A" d="M5.149 121.223h273.236v13.665H5.149z"/><path d="M181.61 141.721c0 22.012-17.831 39.842-39.842 39.842-22.012 0-39.851-17.83-39.851-39.842 0-22.011 17.839-39.85 39.851-39.85 22.011 0 39.842 17.839 39.842 39.85z" fill="#D5182F"/><path d="M144.984 114.846h-.03l-.017-.008c-.008 0-.022-.008-.031-.016l-3.138-2.283-3.146 2.291c-.04.031-.149.023-.188-.023-.016-.008-.056-.039-.056-.11 0-.016 0-.031.017-.039l1.192-3.695-3.131-2.291a.173.173 0 01-.07-.125c0-.04.016-.071.039-.102.016-.008.056-.04.118-.04h3.875l1.2-3.702c.016-.055.094-.102.149-.102.07 0 .125.047.141.118l1.2 3.687h3.883c.079 0 .143.071.143.142 0 .016 0 .055-.016.094-.017.016-.023.024-.031.032l-3.139 2.291 1.192 3.695v.039c0 .023 0 .071-.017.094a.153.153 0 01-.07.047c-.023.008-.037.006-.069.006zm-8.103-6.181l2.934 2.141a.139.139 0 01.056.149l-1.13 3.459 2.949-2.142c.047-.04.11-.04.157 0l2.94 2.142-1.121-3.459a.13.13 0 01.047-.149l2.949-2.141h-3.654a.147.147 0 01-.127-.094l-1.112-3.467-1.13 3.467a.128.128 0 01-.126.094h-3.632z"/><path d="M141.847 112.273l2.94 2.142-1.121-3.459a.13.13 0 01.047-.149l2.949-2.141h-3.654a.147.147 0 01-.127-.094l-1.112-3.467-1.13 3.467a.128.128 0 01-.126.094h-3.632l2.934 2.141a.139.139 0 01.056.149l-1.13 3.459 2.949-2.142a.12.12 0 01.157 0z" fill="#006B3E"/><path d="M144.993 168.588c-.009 0-.022 0-.039.008h-.017c-.008.008-.017.017-.031.022l-3.138 2.274-3.146-2.282c-.048-.039-.149-.031-.196.022 0 0-.04.039-.04.109 0 .018 0 .029.009.029l1.192 3.695-3.139 2.291c-.031.022-.063.094-.063.133 0 .031.016.07.031.104.023 0 .063.039.126.039h3.875l1.2 3.702c.023.056.094.095.149.095.07 0 .125-.039.141-.109l1.2-3.688h3.884c.078 0 .148-.068.148-.143 0-.022 0-.063-.023-.103-.016-.008-.023-.022-.031-.03l-3.138-2.291 1.192-3.695v-.029c0-.032 0-.07-.016-.096a.185.185 0 00-.072-.055c-.022-.005-.035-.002-.058-.002zm-8.12 6.19l2.941-2.149c.048-.03.063-.095.056-.142l-1.13-3.459 2.949 2.142c.047.031.11.031.157 0l2.941-2.142-1.123 3.459a.125.125 0 00.049.142l2.949 2.149h-3.647a.16.16 0 00-.134.086l-1.113 3.468-1.13-3.468a.13.13 0 00-.126-.086h-3.639z"/><path d="M141.847 171.168l2.94-2.142-1.121 3.459c-.018.047 0 .11.047.142l2.949 2.149h-3.646a.164.164 0 00-.135.086l-1.112 3.468-1.13-3.468a.13.13 0 00-.126-.086h-3.64l2.941-2.149c.048-.031.063-.095.056-.142l-1.13-3.459 2.949 2.142a.138.138 0 00.158 0z" fill="#006B3E"/><path d="M154.947 118.086c.009 0 .017.008.039.016l.009.008h.03l3.892.008 1.191 3.694c.016.055.109.11.173.094.017 0 .063-.008.103-.063a.055.055 0 00.017-.039l1.208-3.687 3.876-.016c.039.008.103-.031.134-.063a.215.215 0 00.022-.102c-.009-.016-.022-.063-.07-.102l-3.138-2.275 1.208-3.703c.016-.055-.017-.133-.063-.165-.057-.047-.127-.047-.188 0l-3.131 2.283-3.146-2.283c-.056-.039-.155-.023-.194.031-.008.016-.039.047-.039.086 0 .023 0 .039.008.047l1.199 3.695-3.146 2.291c-.008.008-.021.016-.021.023a.177.177 0 00-.041.094c0 .023.008.063.022.079.016.018.023.033.046.049zm10.198-.243l-3.641.016a.14.14 0 00-.125.086l-1.121 3.459-1.123-3.459c-.016-.063-.063-.094-.125-.094h-3.641l2.941-2.133c.039-.04.063-.094.039-.149l-1.114-3.467 2.95 2.142a.14.14 0 00.154 0l2.936-2.149-1.121 3.467c-.021.055.01.118.049.149l2.942 2.132z"/><path d="M159.01 117.85h-3.641l2.941-2.133c.039-.04.063-.094.039-.149l-1.114-3.467 2.95 2.142a.14.14 0 00.154 0l2.936-2.149-1.121 3.467c-.021.055.01.118.049.149l2.939 2.134-3.641.016a.145.145 0 00-.127.086l-1.121 3.459-1.121-3.459c-.012-.064-.059-.096-.122-.096z" fill="#006B3E"/><g><path d="M123.357 161.56c.008.008.023.016.023.031l.016.008c0 .008.016.022.016.031l1.2 3.694 3.883-.008c.063 0 .142.071.142.133.008.008.016.063-.023.118l-.023.023-3.138 2.29 1.192 3.688c.008.048 0 .116-.031.147-.017.031-.056.047-.087.063-.023-.009-.07 0-.117-.039l-3.138-2.282-3.154 2.29c-.047.039-.125.022-.172-.008-.063-.039-.079-.108-.047-.173l1.191-3.688-3.138-2.282c-.063-.047-.078-.149-.039-.204.008-.017.039-.047.087-.063.008-.008.031-.008.039-.008l3.883-.008 1.208-3.695s0-.016.016-.03c.016-.016.047-.048.07-.056.031-.016.071-.016.087-.008.016.012.031.019.054.036zm2.926 9.773l-1.114-3.459a.146.146 0 01.048-.148l2.941-2.142-3.64.009a.134.134 0 01-.126-.095l-1.121-3.467-1.13 3.467a.13.13 0 01-.126.086h-3.64l2.949 2.142c.048.039.063.104.048.148l-1.13 3.467 2.949-2.147c.039-.023.11-.031.157.009l2.935 2.13z"/><path d="M124.393 165.498l-1.121-3.467-1.13 3.467a.13.13 0 01-.126.086h-3.64l2.949 2.142c.048.039.063.104.048.148l-1.13 3.467 2.949-2.147c.039-.023.11-.031.157.009l2.934 2.133-1.114-3.459a.148.148 0 01.048-.148l2.941-2.142-3.64.009a.142.142 0 01-.125-.098z" fill="#006B3E"/></g><g><path d="M166.321 130.347c0 .008.008.023.016.039l.01.008a.583.583 0 01.021.023l3.146 2.283-1.2 3.695c-.022.055.017.149.079.172.008.016.047.04.117.016.008 0 .023-.008.039-.016l3.138-2.275 3.146 2.259c.033.032.104.04.144.023.039-.008.063-.031.087-.063 0-.016.021-.063 0-.125l-1.191-3.687 3.146-2.283c.055-.031.069-.118.055-.172-.03-.063-.086-.11-.157-.102h-3.875l-1.207-3.695c-.017-.071-.108-.11-.174-.094-.016.008-.063.023-.078.055a.176.176 0 00-.031.039l-1.207 3.695h-3.875c-.016 0-.03.008-.049.008-.016.008-.063.031-.078.055a.182.182 0 00-.029.079c0 .016 0 .039.007.063zm8.394 5.805l-2.949-2.134a.144.144 0 00-.157 0l-2.94 2.134 1.129-3.459c.023-.055 0-.11-.055-.149l-2.941-2.142 3.641.008c.057-.008.104-.039.118-.094l1.129-3.467 1.13 3.467c.018.055.07.094.126.094l3.642-.008-2.941 2.142a.142.142 0 00-.057.149l1.125 3.459z"/><path d="M169.741 132.543l-2.941-2.142 3.642.008c.056-.008.104-.039.118-.094l1.129-3.467 1.13 3.467c.017.055.07.094.126.094l3.641-.008-2.94 2.142a.138.138 0 00-.056.149l1.129 3.459-2.948-2.134a.144.144 0 00-.157 0l-2.941 2.134 1.131-3.459c.016-.055-.007-.11-.063-.149z" fill="#006B3E"/><g><path d="M115.207 146.953c.008.008.016.023.008.039l.008.008a.059.059 0 01-.016.04l-1.192 3.695 3.146 2.282c.047.032.07.126.039.188 0 .009-.031.056-.094.079a.075.075 0 00-.031.008l-3.883.009-1.209 3.679a.227.227 0 01-.102.109.23.23 0 01-.109-.009c-.016-.016-.063-.039-.079-.102l-1.192-3.688-3.898.009a.186.186 0 01-.133-.118c-.032-.063 0-.133.063-.173l3.138-2.274-1.208-3.695c-.016-.07.023-.165.094-.181.016-.008.063-.023.094-.008.017.008.032.008.048.022l3.146 2.275 3.146-2.283.031-.016a.19.19 0 01.095 0c.031.008.063.022.07.047.012.019.02.035.02.058zm-3.373 9.625l1.129-3.451a.144.144 0 01.126-.094h3.64l-2.949-2.142c-.047-.032-.063-.094-.047-.149l1.129-3.459-2.949 2.142c-.039.023-.109.031-.148-.009l-2.95-2.141 1.122 3.467c.023.056 0 .117-.047.157l-2.95 2.134h3.648c.055 0 .102.039.125.094l1.121 3.451z"/><path d="M113.732 150.743l1.129-3.459-2.949 2.142c-.039.023-.109.031-.148-.009l-2.95-2.141 1.122 3.467c.023.056 0 .117-.047.157l-2.95 2.134h3.648c.055 0 .102.039.125.094l1.122 3.451 1.129-3.451a.144.144 0 01.126-.094h3.64l-2.949-2.142c-.048-.032-.063-.095-.048-.149z" fill="#006B3E"/></g></g><g><path d="M168.314 146.953v.087l1.2 3.695-3.146 2.282c-.047.032-.07.126-.039.188 0 .017.023.056.086.079a.11.11 0 00.049.008l3.875.009 1.217 3.679a.166.166 0 00.102.102.204.204 0 00.104 0c.009-.016.056-.039.078-.102l1.201-3.688h3.891c.056.009.126-.055.142-.109a.152.152 0 00-.063-.173l-3.139-2.274 1.193-3.695c.031-.07-.018-.156-.087-.181a.17.17 0 00-.095-.008c-.022.008-.03.016-.039.022l-3.153 2.275-3.138-2.283c-.016-.008-.031-.008-.039-.016a.219.219 0 00-.102 0c-.018.008-.049.022-.064.047-.019.017-.019.033-.034.056zm3.38 9.625l-1.137-3.451a.125.125 0 00-.118-.094h-3.64l2.939-2.142c.057-.032.079-.094.057-.149l-1.129-3.459 2.939 2.142a.13.13 0 00.157-.009l2.948-2.141-1.131 3.475c-.016.048.008.118.058.149l2.94 2.134h-3.641c-.057-.008-.109.039-.126.086l-1.116 3.459z"/><path d="M169.797 150.743l-1.131-3.459 2.94 2.142a.13.13 0 00.157-.009l2.947-2.141-1.129 3.475c-.017.048.008.118.057.149l2.939 2.134h-3.64c-.056-.008-.11.039-.126.086l-1.122 3.459-1.137-3.451c-.017-.055-.063-.094-.118-.094h-3.641l2.94-2.142c.064-.032.087-.095.064-.149z" fill="#006B3E"/><g><path d="M117.207 130.347c-.008.008-.008.023-.023.031v.016a.1.1 0 01-.031.023l-3.138 2.283 1.208 3.695c.016.055-.023.149-.086.18-.008.008-.056.024-.118.008a1.507 1.507 0 01-.031-.016l-3.146-2.275-3.146 2.267c-.031.024-.11.032-.142.024-.031-.016-.063-.04-.094-.063.008-.023-.016-.071 0-.133l1.208-3.687-3.153-2.283c-.047-.031-.063-.118-.047-.172a.138.138 0 01.148-.102h3.883l1.192-3.695c.031-.071.118-.118.188-.094.016.008.055.016.078.055a.21.21 0 00.023.039l1.209 3.695h3.883s.016.008.031.008a.14.14 0 01.078.055c.023.023.039.055.031.079a.121.121 0 01-.005.062zm-8.393 5.805l2.95-2.134c.039-.031.109-.023.148 0l2.949 2.134-1.129-3.459a.138.138 0 01.047-.149l2.949-2.142h-3.64c-.047 0-.109-.031-.126-.086l-1.129-3.467-1.122 3.467a.154.154 0 01-.125.094l-3.648-.008 2.95 2.142c.047.031.07.094.047.149l-1.121 3.459z"/><path d="M113.779 132.543l2.949-2.142h-3.64c-.047 0-.109-.031-.126-.086l-1.129-3.467-1.122 3.467a.154.154 0 01-.125.094l-3.648-.008 2.95 2.142c.047.031.07.094.047.149l-1.122 3.459 2.95-2.134c.039-.031.109-.023.148 0l2.949 2.134-1.129-3.459a.141.141 0 01.048-.149z" fill="#006B3E"/></g></g><g><path d="M160.17 161.56c-.017.008-.017.016-.03.031l-.009.008a.16.16 0 00-.022.031l-1.192 3.694-3.891-.008c-.047 0-.126.071-.143.133 0 .017-.016.063.033.118 0 .008.016.023.029.032l3.139 2.281-1.191 3.688c-.016.04 0 .116.023.147a.196.196 0 00.086.055c.016 0 .068.01.125-.029l3.131-2.282 3.146 2.29c.048.039.142.021.181-.008.057-.039.078-.107.057-.173l-1.208-3.688 3.146-2.281c.055-.047.069-.143.039-.204-.017-.016-.039-.047-.078-.055-.017-.017-.031-.017-.047-.017h-3.885l-1.199-3.694c-.009-.017-.017-.023-.023-.039a.246.246 0 00-.069-.056.11.11 0 00-.086-.008.169.169 0 00-.062.034zm-2.925 9.773l1.106-3.459c.022-.055.008-.117-.039-.148l-2.942-2.142 3.641.009a.125.125 0 00.125-.095l1.132-3.467 1.112 3.459c.022.055.078.094.125.094h3.647l-2.948 2.142c-.039.039-.07.104-.047.156l1.137 3.459-2.948-2.141a.13.13 0 00-.156-.01l-2.945 2.143z"/><path d="M159.135 165.498l1.131-3.467 1.113 3.459c.021.055.078.094.125.094h3.646l-2.947 2.142c-.039.039-.07.104-.049.156l1.139 3.459-2.949-2.141a.13.13 0 00-.156-.01l-2.941 2.143 1.105-3.459c.023-.055.008-.117-.039-.148l-2.941-2.142 3.639.009a.127.127 0 00.124-.095z" fill="#006B3E"/><g><path d="M128.582 118.086c-.008 0-.023.016-.039.016l-.008.008h-.04l-3.883.008-1.2 3.694c-.016.055-.094.11-.165.094-.008 0-.055-.008-.102-.063a1.507 1.507 0 00-.016-.031l-1.208-3.694-3.875-.008a.207.207 0 01-.134-.07c-.023-.023-.023-.063-.031-.102.016-.016.023-.063.078-.102l3.13-2.275-1.2-3.703c-.023-.055.017-.133.063-.165.055-.047.133-.047.18 0l3.139 2.283 3.146-2.283c.055-.047.156-.031.196.023.016.023.039.055.039.102 0 .008 0 .031-.008.047l-1.192 3.695 3.138 2.283c.008 0 .016.016.031.023a.192.192 0 01.031.086c0 .031-.008.071-.023.086a.132.132 0 01-.047.048zm-10.206-.236l3.64.008c.063 0 .11.04.126.086l1.13 3.459 1.121-3.459c.016-.063.07-.094.126-.094h3.647l-2.949-2.142a.137.137 0 01-.048-.141l1.13-3.467-2.949 2.142c-.047.031-.118.031-.157 0l-2.949-2.149 1.13 3.467c.016.055 0 .118-.048.149l-2.95 2.141z"/><path d="M124.519 117.85h3.647l-2.949-2.142a.137.137 0 01-.048-.141l1.13-3.467-2.949 2.142c-.047.031-.118.031-.157 0l-2.949-2.149 1.13 3.467c.016.055 0 .118-.048.149l-2.949 2.142 3.64.008c.063 0 .11.04.126.086l1.13 3.459 1.121-3.459c.014-.063.069-.095.125-.095z" fill="#006B3E"/></g></g><g><path d="M145.902 124.33c-.862.62-1.459.981-2.071 1.216.84.636 1.922 1.255 3.021 1.255.783 0 1.49-.33 2.095-.973-.651-.149-1.411-.62-2.213-1.192a6.13 6.13 0 01-.832-.306zM148.743 131.218c-1.984 0-3.859-1.789-4.574-2.456l-.155-.157c-.009 0-.017-.016-.023-.016a.709.709 0 00-.038.298c.047.526.432 1.114.775 1.373.055.055.117.102.188.172.674.636 2.471 2.346 4.291 2.346.783 0 1.489-.33 2.094-.973-.479-.11-1.021-.4-1.584-.769a2.928 2.928 0 01-.974.182z" fill="#8562A2"/><path d="M144.263 128.307l.181.165c.676.643 2.471 2.345 4.299 2.345.784 0 1.482-.329 2.094-.973-.924-.204-2.021-1.035-3.19-1.898a29.215 29.215 0 00-1.052-.769c-.956-.079-1.875-.533-2.637-1.051a.623.623 0 00-.258.157c-.158.157-.229.376-.213.643.038.534.431 1.114.776 1.381z" fill="#8562A2"/><path d="M135.258 125.46c.282.204.839.251 1.38.047.377-.133.69-.353.887-.604.102-.125.259-.384.165-.627-.056-.149-.212-.267-.432-.33a1.818 1.818 0 01-.957.659c-.408.164-.753.454-1.043.855z" fill="#FCD11B"/><path d="M145.243 121.93c-.965-.855-1.867-1.671-2.55-2-.753-.385-1.623-.581-2.533-.581-1.138 0-2.26.329-2.996.878-.519.4-.848 1.036-.989 1.718.071-.008.149-.023.212-.023.636 0 1.027.337 1.153.997.047.211 0 .447-.094.674.306.11.525.291.619.549.118.313.031.667-.235 1.012-.016.023-.055.047-.078.071.683.321 1.553.51 2.549.51.432 0 .871-.031 1.318-.094 1.805-.251 2.4-.439 4.149-1.702l.095-.071.103.055c.854.408 1.521.533 2.399.463-.995-.55-2.077-1.515-3.122-2.456z" fill="#8562A2"/><path d="M136.089 122.879a.297.297 0 01.313.283c.008.172-.109.313-.274.321a.298.298 0 01-.313-.29.297.297 0 01.274-.314"/><path d="M136.387 122.322c-.259 0-.604.071-1.043.212-.581.125-.98.408-1.2.839-.329.651-.251 1.647.228 2.911.392-1.036.996-1.726 1.796-2.056.729-.219 1.075-.808.988-1.231-.094-.479-.314-.675-.769-.675zm-.259 1.161a.298.298 0 01-.313-.29.297.297 0 01.274-.314.297.297 0 01.313.283c.008.172-.109.313-.274.321z" fill="#FCD11B"/><path d="M139.894 122.934c-.62 0-1.106-.33-1.106-.753 0-.416.486-.745 1.106-.745.619 0 1.105.33 1.105.745 0 .423-.486.753-1.105.753zm0-1.2c-.432 0-.808.211-.808.447 0 .243.376.455.808.455s.808-.212.808-.455c-.001-.236-.377-.447-.808-.447z"/><path d="M139.086 122.181c0 .243.376.455.808.455s.808-.212.808-.455c0-.235-.376-.447-.808-.447s-.808.211-.808.447z" fill="#D4182E"/><path d="M139.807 121.804c.196 0 .361.165.354.369a.347.347 0 01-.361.345.35.35 0 01-.353-.361.347.347 0 01.36-.353"/><path d="M153.44 152.743c.079-.228.268-1.043-.156-2.518.533-2.698 0-6.542-1.679-10.817-.785-1.993-2.91-5.24-3.758-6.495.438.157.896.267 1.356.267 1.012 0 1.897-.471 2.637-1.396l.25-.321-.399-.008c-.424-.008-.948-.251-1.515-.596.433-.228.832-.573 1.201-1.036l.25-.314-.399-.008c-.863-.016-2.126-.957-3.343-1.875-.219-.165-.438-.322-.643-.471.848-.11 1.606-.549 2.252-1.349l.241-.322h-.399c-.463-.016-1.043-.298-1.678-.698.438.023.9 0 1.428-.094l.713-.133-.674-.251c-1.09-.408-2.434-1.608-3.625-2.667-.979-.878-1.906-1.71-2.636-2.063a5.979 5.979 0 00-2.707-.628c-1.239 0-2.416.353-3.232.957-.627.494-1.012 1.279-1.152 2.103a4.601 4.601 0 00-.534.141c-.674.149-1.177.51-1.451 1.043-.431.855-.29 2.11.416 3.742l.22.51.157-.533c.117-.432.282-.785.463-1.098.212.141.486.235.823.235.298 0 .612-.055.91-.173.251-.086.463-.22.659-.361.016.008.039.016.055.023a1.77 1.77 0 00-.196.588c-.165.188-.518.636-.572 1.106-.173.165-.416.462-.408.917a.386.386 0 01.016.094c-.228.22-2 2.165-2 11.209 0 5.232 2.455 8.41 4.683 10.222-.047.227-.58 3.364 1.357 4.117.023.157.188 1.067.557 1.742a2.188 2.188 0 00-.683.525c-.016.022-.267.267-.518.643l-3.75.086c-.008-.369-.102-1.129-.635-1.663-.416-.423-1.012-.611-1.766-.557-.94.063-1.615.337-2.008.823a1.54 1.54 0 00-.345.973c-.095.11-.408.394-1.052.22-.267-.069-.384.048-.424.125-.329.542 1.789 2.918 1.813 2.935.07.086.243.267 8.111.267.329.502.815.918 1.396 1.161.557.229.934.384 1.218.384.188 0 .327-.102.471-.259.384.157.675.259.894.259.196 0 .347-.102.485-.267.4.165.691.267.918.267.197 0 .339-.102.48-.259.328.118.682.211 1.004.211.03 0 .063-.008.094-.008.158.353.629 1.232 1.317 1.232.048 0 .103-.017.148-.024.337 1.012.735 1.844 1.159 1.883h.031c.439 0 .776-.832 1.027-1.883.039 0 .07.016.118.016a.758.758 0 00.251-.047c.376-.125.684-.549.902-1.238.383-1.2.463-1.68.485-1.867.532-.229.908-.762.908-1.38a1.49 1.49 0 00-.644-1.231l.108-1.216c.447.871.737 1.491.737 1.506l.229.486.156-.511c.035-.085.615-2.093-.123-4.383zm-3.702-1.051c-.063.031-.651.07-3.711-3.64-2.69-3.279-3.836-7.029-4.33-9.711.393 1.436.927 2.887 1.624 4.235 2.096 4.024 3.797 6.699 6.275 8.479.039.047.078.086.117.141v.008c.057.197.064.44.025.488zm-2.754 1.098a.307.307 0 01-.228-.063c-.346-.274-.486-1.216-.52-1.562 0-.016-.016-.03-.021-.047.313-.479.502-1.138.589-1.529.502.564.918 1.02 1.271 1.364-.11.456-.533 1.743-1.091 1.837zm1.42-1.522c.438.408.755.627.974.737-.181.831-.58 1.913-1.004 1.984a.343.343 0 01-.299-.071c-.298-.212-.447-.815-.479-1.026 0-.008-.008-.008-.008-.017.44-.438.707-1.208.816-1.607zm-1.937-2.04c-.148.839-.557 2.016-1.021 2.016-.645 0-.808-1.294-.808-1.31l-.019-.008c.322-.667.551-1.577.676-2.174.143.188.273.369.424.55.268.337.519.635.762.909a.08.08 0 01-.014.017zm-2.652 1.091c-.078 0-.243-.133-.432-.573-.854-2 .134-3.757.447-4.235.338.611.713 1.216 1.146 1.819-.267 1.412-.791 2.95-1.161 2.989zm-.752-.306c.117.259.354.713.745.713.017 0 .03-.008.055-.008.165-.017.313-.142.455-.313.056.204.134.439.259.659a6.49 6.49 0 00-.008 1.24l-.023.102c-.125.832-.791.746-.813.746a.913.913 0 01-.61-.463c-.414-.715-.218-1.97-.06-2.676zm-.047 3.161c-.126.353-.26.446-.322.471-.094.031-.188-.023-.219-.047-.612-.298-.895-1.592-.98-2.314.518.259.878.393.988.439.023.423.094.832.282 1.161.062.116.157.204.251.29zm.086.651a1.24 1.24 0 00.251-.416c.03.017.071.031.103.047 0 .314.018 1.953.533 2.598-.094.055-.181.094-.289.078-.347-.048-.699-.471-.854-.698.224-.628.256-1.39.256-1.609zm.76-.29c.26-.04.59-.195.809-.564.125.471.354.887.771 1.043a.777.777 0 00.261.055c-.127.581-.494 1.718-1.14 1.859a.237.237 0 01-.204-.047c-.371-.299-.497-1.554-.497-2.346zm1.726.102c-.588-.229-.666-1.404-.635-2.149a.864.864 0 00.492.165.725.725 0 00.426-.165c.055.384.194 1.035.51 1.412-.023.188-.104.596-.33.745-.117.07-.275.07-.463-.008zm.526.416a.61.61 0 00.156-.07c.299-.188.424-.557.479-.816a.655.655 0 00.188.031c.039 0 .069-.008.11-.016.063-.008.117-.039.18-.063.057.251.195.714.486 1.013 0 .008-.008.008-.008.008-.125 1.326-.738 2.173-1.231 2.195h-.017c-.328 0-.627-.706-.723-1.051 0-.016-.018-.016-.018-.031a5.425 5.425 0 00.398-1.2zm.463 3.051a2.5 2.5 0 00.604-.196l3.278.079a1.5 1.5 0 00.008 2.219l-3.953.221a3.591 3.591 0 00-.479-.188c-.871-.267-.785-.996-.771-1.074.003-.033.183-.849 1.313-1.061zm.949-.596a.475.475 0 00-.104-.369c.322-.423.564-1.043.66-1.772a.677.677 0 00.211.039.858.858 0 00.142-.016c.801-.133 1.209-1.71 1.342-2.298a.565.565 0 00.149-.04c.125-.063.172-.172.203-.299.103.142.203.282.299.433l.047 4.399-2.949-.077zm-3.859-18.23c.26.133.486.204.674.204a.627.627 0 00.369-.11c.008-.008.008-.016.023-.023.359.824.745 2.008.502 2.416-.031.055-.086.118-.229.118h-.03c-.792 0-1.845-1.867-2.313-3.059-.048-.102-.164-.157-.268-.11a.193.193 0 00-.109.259c.07.188.479 1.177 1.051 2.024 0 .016-.016.023-.016.039.008.094.047 1.153.361 2.346-1.342-2.589-2.087-5.53-2.322-7.994.204.33.471.706.761 1.051.008.093.258 2.164 1.546 2.839zm.125-2.95c.144.063.283.125.416.125.424.8.394 2.032.394 2.071.017.125.008.424-.117.51-.108.078-.338.039-.628-.118-.714-.369-1.061-1.318-1.216-1.938.299.267.604.447.887.447h.031a.398.398 0 00.368-.228c.085-.179.014-.5-.135-.869zm9.037 13.681a7.122 7.122 0 00-.259-.604c-.823-1.687-1.593-2.549-2.269-3.311-.524-.597-.973-1.106-1.389-1.898l-.022.008c.03-.251.047-.525.016-.854.275.204.667.438 1.021.438a.58.58 0 00.236-.039c.039-.016.063-.03.094-.047 2.274 2.494 2.587 5.028 2.572 6.307zm-2.299-6.605a1.43 1.43 0 00.143-.501 3.33 3.33 0 00.009-.502c.761 1.035.926 1.859.918 2.352a11.612 11.612 0 00-1.07-1.349zm-.258-.541c-.023.196-.086.447-.243.509-.306.11-.935-.36-1.185-.604-.016-.008-.023-.008-.031-.008-.143-.667-.447-1.459-.957-2.346.047-.008.094-.008.143-.023.234-.094.375-.33.406-.698.096-1.028-.267-1.694-.439-1.953.15-.235.188-.502.175-.737.688.486 1.099 1.616 1.104 1.647.007.023 1.184 2.714 1.027 4.213zm-2.268-3.209c-.017.141-.055.313-.164.361-.221.094-.745-.235-1.021-.479-.021-.016-.055-.016-.078-.023a10.346 10.346 0 00-.314-1.036c.252-.251.32-.722.33-1.083.313.267.597.455.814.502.01.009.535.62.433 1.758zm-1.552 1.412c-.07.102-.134.118-.173.126h-.024c-.203 0-.453-.212-.531-.291-.021-.016-.049-.016-.07-.023-.156-.839-.581-1.765-.675-1.961a1.1 1.1 0 00.022-.408c0-.016.008-.212-.008-.479.281.291.682.62 1.051.62.008 0 .008-.008.017-.008.289.855.594 2.118.391 2.424zm-.369-2.824c-.267.055-.832-.486-1.121-.871-.008-.016-.03-.016-.047-.023a3.663 3.663 0 00-.369-1.122.602.602 0 00.039-.423c-.008-.055-.039-.133-.056-.196.235.149.486.267.698.267.031 0 .055-.016.078-.016.234.282.619.737 1.044 1.153.032.478-.046 1.176-.266 1.231zm-.833 8.017c.244.204.52.368.824.493.055.182.438 1.295 1.295 2.62-.729-.893-1.419-1.928-2.119-3.113zm-1.474-4.691c.368.423.784.722 1.2.722h.047c.251-.016.446-.125.565-.322.016-.039.021-.086.039-.125.822 1.75 1.662 4.079 1.229 4.558-.118.133-.394.071-.599-.008-1.868-.714-2.362-3.617-2.481-4.825zm2.142-.055a.82.82 0 00.336.079h.063a.673.673 0 00.473-.298c.164-.251.146-.729.063-1.224.148.102.313.204.502.274 1.498 2.432 1.255 4.031.91 4.542a.159.159 0 01-.126.079c-.274.022-.776-.376-1.06-.667-.009-.017-.022-.009-.031-.017a21.754 21.754 0 00-1.13-2.768zm2.258 3.852a.568.568 0 00.433-.259c.056-.086.11-.212.165-.354.376.636.792 1.114 1.225 1.608.658.745 1.403 1.584 2.203 3.216.809 1.647.949 2.753.941 3.396-.98-2.165-3.083-4.605-3.178-4.715-.016-.023-1.23-1.562-1.819-2.896a.075.075 0 00.03.004zm3.053-4.809c1.161 2.965 1.773 5.546 1.859 7.727a9.643 9.643 0 00-1.146-2.997c.109-.424.29-1.789-1.341-3.647-.252-1.467-.949-3.059-.981-3.138-.021-.063-.563-1.6-1.576-2.016-.029-.086-.055-.141-.055-.141-.009-.031-.203-.917-1.24-2.353-.063-.094-.195-.11-.281-.047s-.108.188-.047.283c.979 1.357 1.168 2.196 1.186 2.243.008.008.282.636.057 1.043h-.01c-.251 0-1.177-.878-2.055-1.945.016-.055.037-.102.029-.181-.029-.792-1.207-3.318-1.342-3.601a.198.198 0 00-.267-.094.198.198 0 00-.095.267c.354.753 1.279 2.84 1.303 3.444v.063c0 .008 0 .008-.008.008-.109.023-.549-.228-.926-.525-.023-.071-.047-.126-.078-.204a20.49 20.49 0 00-1.028-1.977.198.198 0 00-.274-.078.214.214 0 00-.07.282c.01.008.604 1.028 1.006 1.938.181.4.298.737.338.973.021.102.018.157.021.173-.117 0-.463-.196-.729-.416-.008-.008-.016 0-.031-.008-.439-.808-1.044-1.655-1.318-2.032-.07-.086-.196-.11-.282-.039a.201.201 0 00-.047.282c1.075 1.451 1.899 2.942 1.741 3.177h-.016c-.62 0-1.702-1.545-2.243-2.534v-.008a12.341 12.341 0 01.063-2.283c.102-.698.36-1.176.784-1.436.564-.337 1.404-.141 1.664-.07.188.376.438.698.684.878.039.04.104.086.165.149.444.432 1.372 1.302 2.493 1.883.452.674 3.214 4.729 4.093 6.957zm-10.975-13.422h.047c.4 0 .809-.039 1.217-.086.063.188.078.376-.008.557-.157.361-.581.651-.895.737-.307.079-.557-.07-.675-.157.228-.282.337-.65.314-1.051zm3.373 3.099a2.763 2.763 0 00-.91-.07c.117-.094.221-.212.299-.345.172-.298.268-.792-.086-1.483a.843.843 0 00.203-.141c.095.416.313.816.558 1.106a1.215 1.215 0 00-.134.612c.007.109.047.219.07.321zm-2.494-1.679c.133-.086.267-.188.393-.306.203.118.502.228.823.228.063 0 .126-.016.196-.024.25.455.306.847.117 1.161-.211.369-.684.542-.951.542h-.016c-.392-.016-.596-.165-.666-.235.269-.464.213-1.021.104-1.366zm2.291-1.561c-.166.165-.252.384-.291.62-.447.683-1.113.432-1.349.314.031-.055.07-.102.094-.157.11-.251.134-.518.063-.777.565-.086 1.028-.165 1.442-.29.08.055.15.11.229.172-.063.039-.133.063-.188.118zm-2.997 1.781c.095 0 .196-.016.298-.047.008 0 .023-.008.031-.008.079.282.188.941-.384 1.317-.573.377-1.13.149-1.365.016.103-.188.157-.416.173-.675.282-.228.486-.542.541-.855.141.111.384.252.706.252zm.173 1.6a1.09 1.09 0 00.172-.149c.142.125.424.322.918.33h.054c-.337.267-.58.667-.713 1.192-.628-.173-.77-.91-.793-1.208a1.55 1.55 0 00.362-.165zm10.699 2.432c-.604.643-1.312.973-2.094.973-1.82 0-3.617-1.71-4.291-2.346-.07-.07-.136-.118-.188-.172-.345-.259-.729-.847-.776-1.373a.71.71 0 01.039-.298c.008 0 .016.016.023.016l.156.157c.715.667 2.59 2.456 4.574 2.456.336 0 .656-.071.973-.181.564.368 1.105.658 1.584.768zm-3.655-3.859c1.169.863 2.269 1.694 3.192 1.898-.611.644-1.312.973-2.094.973-1.828 0-3.625-1.702-4.301-2.345l-.182-.165c-.346-.267-.736-.847-.775-1.38-.016-.267.057-.486.212-.643a.617.617 0 01.261-.157c.76.518 1.678.973 2.635 1.051.353.242.7.501 1.052.768zm1.302-2.119c-.604.643-1.311.973-2.095.973-1.099 0-2.181-.62-3.021-1.255.61-.235 1.207-.596 2.069-1.216.29.133.563.228.831.306.804.573 1.565 1.043 2.216 1.192zm-11.782-5.601c.736-.549 1.858-.878 2.996-.878.91 0 1.78.196 2.533.581.683.329 1.585 1.145 2.55 2 1.045.941 2.127 1.906 3.122 2.456-.879.07-1.545-.055-2.399-.463l-.103-.055-.095.071c-1.749 1.263-2.346 1.451-4.149 1.702a9.442 9.442 0 01-1.318.094c-.996 0-1.866-.188-2.549-.51.023-.024.063-.047.078-.071.267-.345.354-.698.235-1.012-.094-.259-.313-.439-.619-.549.094-.228.141-.463.094-.674-.126-.659-.518-.997-1.153-.997-.063 0-.141.016-.212.023.141-.682.471-1.318.989-1.718zm-2.793 6.057c-.479-1.263-.557-2.259-.228-2.911.22-.431.619-.714 1.2-.839.439-.141.784-.212 1.043-.212.455 0 .675.196.769.675.087.424-.259 1.012-.988 1.231-.8.329-1.404 1.02-1.796 2.056zm2.267-.777c-.541.204-1.098.157-1.38-.047.29-.4.635-.69 1.043-.855.432-.126.745-.377.957-.659.22.063.376.181.432.33.094.243-.063.502-.165.627-.197.251-.51.47-.887.604zm3.201.604c.039.447-.118.832-.463 1.051-.385.243-.863.212-1.264-.086-.643-.486-.407-1.106-.251-1.38.566.226 1.241.368 1.978.415zm-2.487.58c.078.251.228.494.518.706.291.22.628.33.957.33.149 0 .291-.024.432-.071-.109.22-.329.455-.611.581-.275.118-.69.18-1.153-.196-.243-.196-.369-.408-.385-.651-.009-.275.124-.526.242-.699zm-.549 1.106c.086.196.228.384.432.557.313.251.65.376.988.376.164 0 .337-.039.502-.102-.055.204-.134.369-.282.471-.354.259-.941.165-1.153.079-.259-.094-.549-.542-.564-1.036a.65.65 0 01.077-.345zm-2.064 11.657c0-7.546 1.256-10.048 1.71-10.708.149.376.393.698.69.816.126.039.385.11.69.11.282 0 .589-.063.848-.235.031-.023.047-.047.07-.071.228.141.564.275.957.275.039 0 .086-.008.134-.016.063.549.345 1.325 1.113 1.521-.141.98-.125 2.236.031 3.624 0 .008-.008.023-.008.04 0 .063-.086 5.185 2.636 10.308 0 .008-.008.008-.008.008-.07.086-1.451 1.923-.784 4.229 0 .008-.016.016-.016.016-.017.063-.29.965-.329 1.914-1.159-.45-7.734-3.382-7.734-11.831zm5.908 14.018c-1.537-.455-1.357-2.777-1.263-3.506.611.463 1.185.823 1.679 1.09.008.133.063.753.243 1.389 0 .016-.008.016-.008.031-.056.588-.22.832-.361.926-.141.101-.29.07-.29.07zm.149.4a.878.878 0 00.368-.134c.181-.125.313-.337.408-.604.164.353.393.658.698.808a.588.588 0 00.359.118.134.134 0 00.056-.017c-.022.4-.095.957-.259 1.365v.008c-.125.283-.282.487-.502.487h-.008c-.602.001-.995-1.388-1.12-2.031zm-1.35 5.641c-2.824-.008-7.107-.056-7.617-.165-.415-.472-1.521-1.875-1.702-2.354 1.043.251 1.459-.438 1.475-.471l.039-.055-.008-.07s-.047-.392.251-.753c.322-.392.902-.612 1.727-.674.627-.047 1.113.102 1.443.438.588.581.525 1.569.525 1.577l-.023.22 3.938-.094c-.181.354-.313.761-.313 1.192a2.87 2.87 0 00.265 1.209zm1.781 1.184c-.98-.408-1.646-1.365-1.646-2.393 0-1.021.941-1.938.965-1.97.094-.109.353-.368.611-.454.102.126.22.234.346.306-.275.306-.949 1.145-.949 2.118 0 1.152.722 2.234 1.804 2.722-.151.063-.41-.031-1.131-.329zm1.373 0c-.988-.408-1.647-1.365-1.647-2.393 0-1.021.941-1.938.949-1.954.008-.008.008-.023.016-.039h.008c.323-.008.55-.196.722-.463.079.094.173.204.291.306-.26.274-.981 1.137-.981 2.149 0 1.152.714 2.228 1.789 2.714-.143.072-.394-.006-1.147-.32zm1.404 0c-.98-.408-1.647-1.365-1.647-2.393 0-.902.737-1.727.91-1.906a1.09 1.09 0 00.488.141c.095 0 .182-.03.268-.063-.313.416-.714 1.083-.714 1.828 0 1.161.729 2.243 1.819 2.729-.151.048-.419-.038-1.124-.336zm2.69.298h-.016c-.252.031-.651-.016-1.317-.298-.987-.408-1.647-1.365-1.647-2.393 0-1.021.941-1.938.949-1.954.008-.008.008-.031.018-.047.32-.079.57-.314.775-.597.148.393.455.974.948 1.021-1.317.306-1.528 1.316-1.536 1.365-.072.392.063 1.23 1.043 1.529.721.221 1.073.58 1.168.848.047.117.039.219-.016.306-.04.063-.125.181-.369.22zm.338.322a.945.945 0 00.368-.322c.126-.188.149-.423.063-.667a1.328 1.328 0 00-.394-.525l.3-.017c.133.644.344 1.569.604 2.424-.415.009-.777-.572-.941-.893zm2.267 2.768c-.346-.022-1.035-2.023-1.521-4.321l2.62-.149c-.274 2.368-.778 4.431-1.099 4.47zm1.898-2.862c-.173.542-.393.886-.636.979a.326.326 0 01-.156.008c.18-.87.313-1.835.399-2.619l.377-.023c.094.023.196.031.298.031.055 0 .109-.008.165-.017-.039.228-.142.707-.447 1.641zm1.382-3.13c0 .611-.494 1.098-1.1 1.098a1.097 1.097 0 01-1.105-1.098c0-.612.494-1.106 1.105-1.106.605 0 1.1.494 1.1 1.106zm-1.735-5.28c.463.737.895 1.498 1.256 2.173l-.143 1.679a1.646 1.646 0 00-.479-.079c-.095 0-.188.009-.282.023-.016 0-.016-.008-.029-.008l-.283-.008-.04-3.78zm2.455 3.624c-.557-1.161-1.952-3.892-3.404-5.664 0 0 0-.008-.008-.008a9.598 9.598 0 00-.666-.737c-1.624-1.585-2.424-3.491-2.676-4.166.031 0 .07.023.103.023a.67.67 0 00.519-.212c.273-.313.242-.957.07-1.702a2.4 2.4 0 00.424.267c.541 1.443 1.93 3.193 1.992 3.279.031.031 2.643 3.066 3.381 5.287.502 1.484.39 2.888.265 3.633z"/><g fill="#FCD11B"><path d="M146.679 160.995h.016c.243-.039.329-.156.369-.22.056-.086.063-.188.017-.306-.096-.268-.447-.627-1.17-.848-.979-.298-1.113-1.138-1.043-1.529.008-.048.219-1.06 1.537-1.365-.494-.047-.8-.628-.949-1.021-.203.282-.455.519-.774.597-.009.016-.009.039-.017.047-.009.016-.949.934-.949 1.954 0 1.026.658 1.983 1.646 2.393.665.282 1.066.329 1.317.298zM141.227 160.697c.722.298.98.393 1.13.329-1.082-.486-1.804-1.569-1.804-2.722 0-.974.674-1.813.949-2.118a1.255 1.255 0 01-.346-.306c-.259.086-.518.345-.611.454-.023.031-.965.949-.965 1.97 0 1.028.666 1.985 1.647 2.393z"/><path d="M143.745 161.018c-1.074-.486-1.789-1.562-1.789-2.714 0-1.013.722-1.875.981-2.149a2.608 2.608 0 01-.291-.306c-.172.267-.399.455-.722.463h-.008c-.008.016-.008.031-.016.039-.008.016-.949.934-.949 1.954 0 1.026.659 1.983 1.647 2.393.755.313 1.006.391 1.147.32z"/><path d="M145.125 161.034c-1.09-.485-1.818-1.568-1.818-2.729 0-.746.398-1.412.714-1.828a.767.767 0 01-.269.063c-.029 0-.068 0-.103-.008a1.14 1.14 0 01-.384-.133c-.174.18-.91 1.004-.91 1.906 0 1.026.667 1.983 1.646 2.393.708.297.976.383 1.124.336z"/></g><path d="M130.127 156.994c.181.479 1.287 1.882 1.702 2.354.51.109 4.793.156 7.617.165a2.883 2.883 0 01-.267-1.208c0-.433.133-.839.313-1.192l-3.938.094.023-.22c0-.008.063-.997-.525-1.577-.33-.337-.816-.485-1.443-.438-.824.063-1.404.281-1.727.674-.298.361-.251.746-.251.746l.008.078-.039.055c-.014.03-.43.72-1.473.469z" fill="#9B4A19"/><g fill="#9B4A19"><path d="M149.974 158.093a1.5 1.5 0 01.485-1.106l-3.278-.079a2.416 2.416 0 01-.604.196c-1.13.211-1.311 1.027-1.311 1.059-.016.078-.102.809.77 1.074.172.055.329.118.479.188l3.952-.221a1.502 1.502 0 01-.493-1.111z"/><path d="M152.579 158.093a1.103 1.103 0 10-2.206-.006 1.103 1.103 0 002.206.006z"/></g><g fill="#006B3E"><path d="M147.973 162.21a28.58 28.58 0 01-.604-2.424l-.3.017c.183.156.321.337.394.525.086.243.063.479-.063.667a.974.974 0 01-.368.322c.164.321.526.902.941.893zM149.299 164.085c.32-.039.824-2.103 1.099-4.471l-2.62.149c.486 2.299 1.176 4.299 1.521 4.322zM150.805 159.591c-.086.784-.221 1.75-.399 2.619a.325.325 0 00.156-.008c.243-.094.463-.438.636-.979.307-.935.408-1.412.447-1.641a1.015 1.015 0 01-.165.017 1.26 1.26 0 01-.298-.031l-.377.023z"/></g><g fill="#006B3E"><path d="M143.698 156.131c.109.016.196-.023.29-.078-.519-.645-.532-2.283-.532-2.598-.031-.016-.072-.03-.104-.047-.07.181-.156.313-.251.416 0 .22-.031.981-.259 1.608.158.229.511.651.856.699zM141.917 155.904h.008c.22 0 .376-.204.501-.487v-.008c.166-.408.236-.965.26-1.365a.13.13 0 01-.055.017.587.587 0 01-.36-.118c-.306-.149-.534-.455-.698-.808-.095.267-.228.479-.408.604a.892.892 0 01-.368.134c.124.642.517 2.031 1.12 2.031zM140.647 153.472s.149.031.29-.07c.142-.094.306-.337.361-.926 0-.017.008-.017.008-.031a7.304 7.304 0 01-.243-1.389 13.39 13.39 0 01-1.679-1.09c-.095.729-.275 3.051 1.263 3.506zM143.016 153.174a1.134 1.134 0 01-.251-.291c-.188-.329-.259-.737-.282-1.161-.109-.047-.471-.182-.988-.439.086.723.368 2.017.98 2.314.031.023.125.079.219.047.062-.023.196-.117.322-.47zM144.317 150.405c-.141.172-.29.298-.455.313-.023 0-.039.008-.055.008-.393 0-.628-.455-.745-.713-.157.706-.353 1.961.056 2.675a.92.92 0 00.611.463c.023 0 .689.086.814-.746.008-.031.017-.063.022-.102a6.4 6.4 0 01.008-1.24 3.07 3.07 0 01-.256-.658zM141.721 129.555h-.031c-.494-.008-.776-.204-.918-.33a1.09 1.09 0 01-.172.149 1.486 1.486 0 01-.361.165c.023.298.165 1.035.793 1.208.133-.526.376-.926.713-1.192h-.024zM137.289 129.178c.212.086.8.18 1.153-.079.148-.102.228-.267.282-.471a1.432 1.432 0 01-.502.102c-.338 0-.675-.125-.988-.376a1.558 1.558 0 01-.432-.557.66.66 0 00-.078.345c.016.495.306.942.565 1.036zM140.301 126.134h-.047c.023.4-.086.769-.313 1.051.118.086.368.235.675.157.313-.086.737-.376.895-.737.086-.18.07-.369.008-.557-.41.047-.818.086-1.218.086z"/><path d="M139.258 127.656a1.344 1.344 0 01-.432.071 1.59 1.59 0 01-.957-.33 1.351 1.351 0 01-.518-.706c-.117.172-.251.423-.243.698.016.243.142.455.385.651.463.376.878.314 1.153.196.283-.125.502-.36.612-.58zM150.883 156.594l.283.008c.016 0 .016.008.029.008.096-.016.188-.023.282-.023.165 0 .319.031.479.079l.143-1.679a36.632 36.632 0 00-1.256-2.173l.04 3.78zM139.18 128.378c-.016.259-.07.486-.173.675.235.133.792.361 1.365-.016.572-.376.463-1.035.384-1.317-.008 0-.023.008-.031.008a1.032 1.032 0 01-.298.047c-.321 0-.564-.141-.706-.251-.055.312-.259.626-.541.854zM147.133 132.598c-1.121-.581-2.047-1.451-2.493-1.883-.063-.063-.126-.109-.165-.149-.243-.18-.494-.502-.684-.878-.258-.071-1.1-.267-1.664.07-.424.259-.683.738-.784 1.436a12.43 12.43 0 00-.063 2.283v.008c.541.988 1.623 2.534 2.243 2.534h.018c.155-.235-.668-1.726-1.743-3.177a.201.201 0 01.047-.282c.086-.071.212-.047.282.039.274.376.878 1.224 1.318 2.032.018.008.021 0 .031.008.268.22.609.416.729.416-.008-.016 0-.071-.022-.173-.04-.235-.157-.573-.338-.973a20.42 20.42 0 00-1.005-1.938.215.215 0 01.07-.282.196.196 0 01.273.078c.023.04.62 1.043 1.027 1.977.031.078.056.133.078.204.377.298.815.549.926.525.009 0 .009 0 .009-.008v-.063c-.022-.604-.949-2.69-1.302-3.444a.198.198 0 01.094-.267.2.2 0 01.268.094c.133.283 1.312 2.808 1.342 3.601.008.079-.017.125-.031.181.879 1.067 1.805 1.945 2.056 1.945h.009c.229-.408-.048-1.036-.056-1.043-.017-.047-.204-.886-1.187-2.243a.209.209 0 01.047-.283c.088-.063.222-.047.283.047 1.035 1.436 1.23 2.322 1.239 2.353l.056.141c1.012.416 1.553 1.954 1.576 2.016.031.079.729 1.671.98 3.138 1.631 1.858 1.451 3.224 1.341 3.647a9.584 9.584 0 011.146 2.997c-.086-2.181-.696-4.762-1.857-7.727-.877-2.227-3.639-6.282-4.094-6.957zM142.396 137.713c.103-.047.22.008.267.11.471 1.192 1.522 3.059 2.314 3.059h.031c.142 0 .195-.063.228-.118.243-.408-.142-1.592-.502-2.416-.017.008-.017.016-.022.023a.645.645 0 01-.369.11c-.188 0-.416-.07-.676-.204-1.285-.675-1.537-2.746-1.543-2.84a9.31 9.31 0 01-.761-1.051c.235 2.463.979 5.405 2.322 7.994-.313-1.192-.354-2.251-.361-2.346 0-.016.018-.023.018-.039a11.412 11.412 0 01-1.051-2.024.186.186 0 01.105-.258z"/><path d="M149.597 151.056c-2.479-1.781-4.181-4.456-6.275-8.479-.698-1.35-1.231-2.8-1.624-4.235.494 2.683 1.641 6.433 4.33 9.711 3.061 3.71 3.648 3.671 3.711 3.64.039-.047.031-.291-.023-.487v-.008c-.04-.056-.079-.095-.119-.142zM145.588 153.637c.188.078.346.078.463.008.229-.149.307-.558.33-.745-.313-.377-.455-1.028-.51-1.412a.725.725 0 01-.426.165.856.856 0 01-.492-.165c-.031.745.047 1.922.635 2.149zM143.862 153.535c0 .792.126 2.047.494 2.346.063.047.126.063.204.047.644-.142 1.012-1.279 1.138-1.859-.086-.008-.173-.016-.259-.055-.416-.157-.644-.573-.769-1.043a1.146 1.146 0 01-.808.564zM143.133 127.193a.863.863 0 01-.203.141c.354.69.258 1.185.086 1.483a1.273 1.273 0 01-.299.345c.377-.04.699.023.91.07-.023-.102-.063-.212-.07-.321a1.2 1.2 0 01.134-.612 2.729 2.729 0 01-.558-1.106zM141.784 126.927c.235.118.901.369 1.349-.314.039-.235.125-.455.291-.62.055-.055.125-.079.188-.118a3.04 3.04 0 00-.229-.172c-.414.125-.877.204-1.442.29.071.259.048.526-.063.777-.023.055-.063.101-.094.157zM141.133 127.554c.109.345.165.902-.102 1.365.07.07.274.219.666.235h.016c.268 0 .739-.173.95-.542.188-.314.133-.706-.117-1.161-.069.008-.135.024-.195.024-.321 0-.62-.11-.823-.228a2.93 2.93 0 01-.395.307z"/><path d="M145.25 145.259c.699 1.185 1.391 2.22 2.119 3.113-.854-1.325-1.24-2.438-1.295-2.62a3.163 3.163 0 01-.824-.493zM148.844 141.768c.251.243.879.714 1.185.604.157-.063.22-.313.243-.509.157-1.499-1.02-4.189-1.027-4.213-.008-.031-.416-1.161-1.104-1.647.016.235-.022.502-.175.737.175.259.535.925.439 1.953-.031.369-.172.604-.406.698-.049.016-.096.016-.143.023.51.886.814 1.679.957 2.346.007.001.016.001.031.008zM150.672 141.902a1.32 1.32 0 01-.144.501c.416.455.771.902 1.067 1.349.008-.493-.157-1.317-.918-2.352a3.1 3.1 0 01-.005.502zM148.915 143.196c.416.792.862 1.302 1.39 1.898.675.761 1.442 1.624 2.268 3.311.103.212.181.4.261.604.016-1.279-.299-3.813-2.574-6.308-.03.017-.055.032-.094.047a.57.57 0 01-.234.039c-.354 0-.745-.234-1.021-.438.031.329.016.604-.016.854l.02-.007zM150.131 151.753c-.032.125-.08.235-.205.299a.61.61 0 01-.148.04c-.133.588-.541 2.165-1.342 2.298-.047.008-.094.016-.141.016a.69.69 0 01-.213-.039c-.095.729-.336 1.35-.658 1.772.07.094.125.22.103.369l2.949.077-.047-4.399c-.095-.15-.197-.291-.298-.433z"/><path d="M153.034 152.806c-.738-2.221-3.351-5.256-3.382-5.287-.063-.086-1.45-1.836-1.993-3.279a2.422 2.422 0 01-.423-.267c.173.745.203 1.389-.071 1.702a.667.667 0 01-.518.212c-.031 0-.07-.023-.104-.023.252.674 1.053 2.581 2.676 4.166.221.219.447.471.666.737.009 0 .009.008.009.008 1.452 1.773 2.849 4.502 3.405 5.664.125-.747.237-2.151-.265-3.633zM153.143 151.974c.008-.645-.133-1.75-.941-3.396-.8-1.632-1.545-2.471-2.203-3.216-.433-.495-.849-.973-1.225-1.608a2.055 2.055 0 01-.165.354.563.563 0 01-.433.259h-.03c.589 1.334 1.806 2.871 1.819 2.896.095.106 2.198 2.546 3.178 4.711zM147.079 143.298c.282.289.784.689 1.061.667a.157.157 0 00.126-.079c.345-.511.588-2.11-.91-4.542a2.315 2.315 0 01-.502-.274c.086.494.103.973-.063 1.224a.657.657 0 01-.472.298h-.063a.812.812 0 01-.336-.079c.289.588.791 1.702 1.129 2.769.007.008.022 0 .03.016z"/><path d="M146.859 145.4c.433-.479-.407-2.808-1.231-4.558-.016.039-.021.086-.039.125-.116.196-.313.306-.563.322h-.047c-.416 0-.832-.298-1.2-.722.118 1.208.612 4.11 2.486 4.824.202.08.476.143.594.009zM145.722 139.901c.079.079.329.291.532.291h.023c.039-.008.104-.024.174-.126.202-.306-.104-1.569-.395-2.424-.01 0-.01.008-.018.008-.367 0-.769-.329-1.051-.62.016.267.008.463.008.479.008.016.023.204-.021.408.094.196.52 1.122.675 1.961.025.008.049.008.073.023zM145.297 147.753c-.125.597-.354 1.507-.674 2.165l.017.017c0 .016.164 1.31.808 1.31.463 0 .871-1.177 1.02-2.016 0 0 .01-.008.018-.017a21.99 21.99 0 01-.761-.909c-.153-.181-.286-.361-.428-.55zM146.215 151.119c.009.017.022.031.022.047.031.346.175 1.287.521 1.562a.306.306 0 00.227.063c.559-.094.98-1.381 1.092-1.836-.354-.345-.77-.8-1.271-1.364-.089.39-.277 1.049-.591 1.528zM148.374 153.99c.424-.071.823-1.153 1.004-1.984-.219-.11-.533-.33-.974-.737-.108.399-.376 1.169-.815 1.607 0 .009.01.009.01.017.029.211.181.814.479 1.026a.33.33 0 00.296.071zM147.713 154.131c-.289-.299-.43-.762-.485-1.013-.063.024-.117.056-.181.063-.039.008-.07.016-.109.016a.704.704 0 01-.188-.031c-.057.26-.182.627-.479.816a.575.575 0 01-.156.07c-.03.156-.149.683-.393 1.199 0 .017.016.017.016.031.095.346.394 1.051.722 1.051h.018c.494-.022 1.105-.87 1.23-2.195-.002.001.005.001.005-.007zM143.383 149.746c.188.439.354.573.433.573.369-.039.896-1.577 1.161-2.989a18.329 18.329 0 01-1.146-1.819c-.313.478-1.302 2.234-.448 4.235zM144.915 136.348c.017.008.039.008.047.023.289.384.854.925 1.121.871.222-.055.299-.753.269-1.231-.425-.416-.81-.871-1.044-1.153-.021 0-.049.016-.078.016-.212 0-.463-.118-.698-.267.017.063.048.141.056.196a.602.602 0 01-.039.423c.184.345.303.745.366 1.122zM138.112 127.076c.4.298.879.33 1.264.086.345-.22.502-.604.463-1.051-.737-.047-1.412-.188-1.978-.416-.156.275-.391.894.251 1.381zM143.557 136.426h-.031c-.281 0-.588-.18-.887-.447.156.62.502 1.569 1.216 1.938.29.157.519.196.628.118.125-.086.133-.385.117-.51 0-.039.031-1.271-.393-2.071-.133 0-.273-.063-.416-.125.148.369.221.69.135.871a.4.4 0 01-.369.226zM146.82 138.536c.274.243.8.572 1.021.479.109-.047.148-.22.164-.361.104-1.138-.424-1.75-.432-1.757-.22-.047-.502-.235-.814-.502-.01.361-.078.832-.329 1.083.069.18.194.581.313 1.036.023.007.054.007.077.022z"/></g><path d="M134.739 139.454c0 8.449 6.574 11.381 7.735 11.83.039-.949.313-1.851.329-1.914 0 0 .016-.008.016-.016-.667-2.306.715-4.143.784-4.229 0 0 .008 0 .008-.008-2.722-5.123-2.636-10.245-2.636-10.308 0-.016.008-.032.008-.04-.156-1.388-.172-2.644-.031-3.624-.769-.196-1.051-.973-1.113-1.521-.048.008-.095.016-.134.016-.393 0-.729-.134-.957-.275-.023.024-.039.047-.07.071a1.531 1.531 0 01-.848.235c-.306 0-.564-.071-.69-.11-.298-.118-.541-.439-.69-.816-.455.661-1.711 3.163-1.711 10.709z" fill="#8562A2"/></g></svg>