<svg xmlns="http://www.w3.org/2000/svg" viewBox="2.84 48.38 277.79 186.71"><path fill="#D6D4D1" d="M2.835 48.376h277.794v186.712H2.835z"/><path fill="#FFF" d="M278.489 123.506H160.084V50.639h-36.429v72.867H5.251v36.43h118.404V232.8h36.429v-72.864h118.405z"/><path fill="#052E61" d="M5.235 50.632h118.42v72.874H5.235z"/><path fill="#CD0E26" d="M160.084 50.632h118.39v72.874h-118.39z"/><path fill="#052E61" d="M160.084 159.936h118.39v72.858h-118.39z"/><path fill="#CD0E26" d="M5.235 159.936h118.42v72.858H5.235z"/><path d="M150.389 137.092h-6.723v-8.801h-3.608v8.801h-6.722v3.616h6.722v7.742h.086c.189 0 1.287.023 1.719.792.423-.77 1.537-.8 1.686-.8h.117v-7.735h6.724l-.001-3.615z" fill="#FFF"/><path d="M152.805 128.291l-2.369 2.22-.047.047v15.462c0 .016.079 1.051-.581 1.765-.406.438-1.019.667-1.812.667l-4.447-.007c-.149 0-1.264.03-1.687.8-.432-.77-1.529-.792-1.719-.792h-4.415c-.793 0-1.405-.229-1.813-.667-.651-.706-.58-1.75-.58-1.765v-15.463l-.048-.047-2.369-2.22h21.887m.423-.173h-22.732l2.675 2.51.008 15.382s-.22 2.604 2.55 2.604h4.447c.203 0 1.679.039 1.687 1.326.008-1.287 1.483-1.326 1.687-1.326h4.446c2.771 0 2.559-2.604 2.559-2.604v-15.381l2.673-2.511z" fill="#111211"/><path d="M140.442 148.466h-.008.008z" fill="#CB061F"/><path d="M135.728 148.451h4.329v-7.742h-6.722v5.311c0 .016-.071 1.059.58 1.765.408.437 1.02.666 1.813.666z" fill="#CC0826"/><path fill="#052E61" d="M133.336 137.092h6.722v-8.801h-9.139l2.369 2.22.048.047V137.657z"/><path fill="#CC0826" d="M143.667 128.291v8.801h6.722v.471-7.005l.046-.047 2.37-2.22z"/><path d="M150.389 140.112v.596h-6.723v7.735h-.117l4.447.007c.793 0 1.403-.229 1.812-.667.66-.714.581-1.75.581-1.766v-5.905z" fill="#072E5F"/><path d="M143.188 148.474z" fill="#002F5A"/><path d="M162.077 150.114c-.055-.008-1.35-.157-2.822.901.156-.604.611-2.063 1.451-2.502l.524-.273-.581.086c-.094.015-2.173.359-3.593 3.812a2.214 2.214 0 00-.55-.251.68.68 0 00-.172-.023c-1.067 0-2.434 2.519-2.691 3.004-1.012-.596-2.814-1.31-5.035-1.78-2.77-.596-5.688-.644-6.746-.635-1.059-.008-3.977.039-6.746.635-2.221.471-4.024 1.186-5.036 1.78-.26-.486-1.624-3.004-2.691-3.004a.757.757 0 00-.173.023 2.218 2.218 0 00-.548.251c-1.42-3.452-3.499-3.797-3.594-3.812l-.58-.086.525.273c.84.439 1.295 1.898 1.451 2.502-1.475-1.059-2.769-.909-2.823-.901l-.69.094.69.102c1.562.252 2.18 2.149 2.195 2.174.032.086.88 2.126 1.632 2.997.534.604 1.216 1.034 1.624 1.034.055 0 .103-.015.149-.022a.323.323 0 00.11-.094l.015.007.313-.337c.91 1.498 2.212 3.294 3.813 3.294 1.436 0 2.604-.502 2.965-1.294.22-.455.141-.957-.22-1.428.142-.04.267-.078.408-.117 3.357-.988 6.605-1.012 7.209-1.012.604 0 3.852.023 7.209 1.012.141.04.268.079.408.117-.361.472-.439.974-.221 1.428.361.792 1.529 1.294 2.966 1.294 1.601 0 2.901-1.796 3.813-3.294l.313.337.008-.007c.04.039.07.07.118.094.047.008.095.022.149.022.408 0 1.09-.431 1.623-1.034.752-.871 1.601-2.91 1.631-2.997.017-.023.637-1.922 2.197-2.174l.688-.102-.685-.094zm-34.892 6.188c-.243.078-.941-.243-1.554-.957-.737-.847-1.6-2.918-1.6-2.934-.032-.07-.487-1.467-1.64-2.063.541.086 1.342.33 2.173.997l.22.165-.063-.267c-.009-.079-.33-1.679-1.13-2.534.705.337 1.961 1.224 2.918 3.537-.581.424-.973 1.076-1.052 1.616v.016c-.016.149-.022.29.016.416.212.745 1.303 1.138 1.343 1.153.022.008.463.235.438.714-.006.094-.038.126-.069.141zm.25-.219c-.03-.541-.51-.808-.548-.824 0 0-1.036-.376-1.224-1.02a.956.956 0 01-.024-.268c.039-.031.134-.125.314-.125h.008c.203 0 .431.157.658.447.134.181.33.502.565.917.117.212.258.456.407.707l-.156.166zm6.857 1.899c-.345.714-1.436 1.177-2.792 1.177-1.805 0-3.271-2.534-4.142-4.048-.252-.416-.44-.746-.581-.942-.267-.344-.549-.524-.815-.524h-.008a.661.661 0 00-.268.063c.173-.636.809-1.396 1.594-1.624a.274.274 0 01.116-.024c.808 0 2.048 2.032 2.519 2.919-.455.282-.722.542-.722.714 0 .376.957 2.369 1.931 3.004a.965.965 0 00.563.195.624.624 0 00.26-.055c.479-.204.871-.502 1.231-.761.431-.329.808-.604 1.199-.62.01.172-.007.353-.085.526zm.048-.723c-.44.031-.833.314-1.287.651-.345.259-.729.549-1.177.746-.188.07-.407.039-.651-.126-.03-.023-.07-.063-.101-.086.078-.235.501-.941 2.933-1.741.141.18.235.369.283.556zm14.794-.932c-3.382-.988-6.651-1.021-7.271-1.021-.62 0-3.892.031-7.272 1.021-3.027.894-3.576 1.646-3.671 1.954-.8-.777-1.521-2.338-1.521-2.589 0-.354 2.235-1.663 5.758-2.408 2.753-.588 5.663-.636 6.707-.636 1.042 0 3.953.047 6.707.636 3.522.745 5.758 2.055 5.758 2.408 0 .251-.722 1.812-1.521 2.589-.097-.308-.645-1.061-3.674-1.954zm.533.377c2.434.8 2.854 1.505 2.935 1.741-.03.023-.069.063-.108.086-.236.165-.455.195-.644.126-.447-.196-.832-.487-1.179-.746-.453-.337-.846-.62-1.285-.651a1.47 1.47 0 01.281-.556zm2.558 2.455c-1.355 0-2.447-.463-2.793-1.177a1.117 1.117 0 01-.085-.525c.392.016.769.291 1.198.62.361.259.754.557 1.23.761a.63.63 0 00.26.055.965.965 0 00.563-.195c.974-.636 1.933-2.628 1.933-3.004 0-.173-.27-.433-.725-.714.473-.887 1.711-2.918 2.521-2.918.037 0 .086.008.114.023.785.229 1.423.988 1.595 1.624a.654.654 0 00-.269-.063h-.008c-.269 0-.55.181-.813.524-.144.196-.33.526-.582.942-.869 1.513-2.334 4.047-4.139 4.047zm4.315-3.947c.233-.416.431-.737.563-.917.229-.29.455-.447.658-.447h.008c.181 0 .272.095.313.125.008.095-.01.188-.023.268-.188.643-1.225 1.02-1.225 1.02-.039.017-.519.283-.549.824l-.158-.165c.153-.246.288-.488.413-.708zm3.152-2.8c0 .016-.861 2.087-1.6 2.934-.612.714-1.311 1.035-1.555.957-.031-.016-.063-.047-.069-.141-.024-.479.415-.706.438-.714.039-.016 1.129-.408 1.342-1.153.039-.126.031-.267.016-.416v-.016c-.079-.541-.471-1.192-1.051-1.616.957-2.313 2.212-3.2 2.918-3.537-.801.854-1.121 2.455-1.131 2.534l-.063.267.222-.165c.83-.667 1.631-.91 2.174-.997-1.153.597-1.609 1.992-1.641 2.063z" fill="#211E20"/><g fill="#CD0E26"><path d="M124.032 152.412c0 .016.862 2.087 1.6 2.934.612.714 1.311 1.035 1.554.957.03-.016.063-.047.07-.141.024-.479-.416-.706-.438-.714-.04-.016-1.131-.408-1.343-1.153a1.082 1.082 0 01-.016-.416v-.016c.079-.541.471-1.192 1.052-1.616-.957-2.313-2.213-3.2-2.918-3.537.8.854 1.121 2.455 1.13 2.534l.063.267-.22-.165c-.831-.667-1.632-.91-2.173-.997 1.152.597 1.607 1.992 1.639 2.063z"/><path d="M131.947 158.836a.624.624 0 01-.26.055.967.967 0 01-.563-.195c-.974-.637-1.931-2.628-1.931-3.004 0-.174.267-.433.722-.714-.471-.887-1.711-2.919-2.519-2.919a.29.29 0 00-.116.024c-.785.229-1.421.988-1.594 1.624a.657.657 0 01.268-.063h.008c.267 0 .549.181.815.524.141.196.329.526.581.942.87 1.514 2.337 4.048 4.142 4.048 1.356 0 2.447-.463 2.792-1.177.078-.173.095-.354.086-.525-.392.016-.769.291-1.199.62-.361.258-.753.556-1.232.76zM161.333 150.348c-.541.086-1.342.33-2.174.997l-.221.165.063-.267c.01-.079.33-1.679 1.129-2.534-.704.337-1.961 1.224-2.918 3.537.582.424.974 1.076 1.053 1.616v.016c.018.149.021.29-.016.416-.213.745-1.303 1.138-1.342 1.153-.023.008-.465.235-.438.714.008.094.039.125.069.141.242.078.94-.242 1.555-.957.736-.847 1.6-2.918 1.6-2.934.031-.07.487-1.465 1.64-2.063z"/><path d="M156.948 154.168c.266-.344.547-.524.814-.524h.008c.104 0 .195.031.268.063-.172-.636-.809-1.396-1.594-1.624a.269.269 0 00-.115-.024c-.81 0-2.049 2.032-2.521 2.919.455.282.724.542.724.714 0 .376-.959 2.369-1.932 3.004a.965.965 0 01-.564.195.623.623 0 01-.259-.055c-.479-.204-.87-.502-1.231-.761-.432-.329-.809-.604-1.197-.62-.01.172.007.353.085.525.347.714 1.438 1.177 2.793 1.177 1.806 0 3.271-2.534 4.144-4.048.247-.413.435-.744.577-.941zM127.593 155.918c-.149-.251-.29-.494-.407-.707a10.143 10.143 0 00-.565-.917c-.228-.29-.455-.447-.658-.447h-.008c-.181 0-.275.095-.314.125a.999.999 0 00.024.268c.188.643 1.224 1.02 1.224 1.02.038.017.518.283.548.824l.156-.166z"/><path d="M156.836 155.259s1.037-.376 1.225-1.02a.921.921 0 00.023-.268c-.039-.031-.135-.125-.313-.125h-.008c-.203 0-.431.157-.658.447-.135.181-.33.502-.565.917-.125.22-.258.463-.408.707l.158.165c.029-.54.509-.806.546-.823zM150.67 157.911c.347.259.729.549 1.179.746.188.07.407.039.644-.126.039-.023.078-.063.108-.086-.078-.235-.501-.941-2.935-1.741-.142.18-.234.368-.281.557.44.031.832.313 1.285.65z"/><path d="M141.862 155.306c.62 0 3.89.031 7.271 1.021 3.027.894 3.576 1.646 3.671 1.954.801-.777 1.522-2.338 1.522-2.589 0-.354-2.235-1.663-5.76-2.408-2.754-.588-5.662-.636-6.707-.636-1.044 0-3.954.047-6.707.636-3.522.745-5.758 2.055-5.758 2.408 0 .251.722 1.812 1.521 2.589.095-.308.644-1.061 3.671-1.954 3.385-.989 6.656-1.021 7.276-1.021z"/><path d="M131.124 158.445c.03.023.07.063.101.086.244.165.463.195.651.126.447-.196.832-.487 1.177-.746.454-.337.847-.62 1.287-.651a1.525 1.525 0 00-.283-.557c-2.432.8-2.855 1.505-2.933 1.742z"/></g><path d="M160.461 127.828l-.127-.149c-.029-.039-.735-.855-2.539-1.506-1.353-.479-1.946-.714-2.166-.8.134-.212.228-.408.25-.564.095-.714-.076-.926-2.736-2.26-2.424-1.208-5.646-1.121-6.135-1.098.023-.282.039-.564.023-.8-.096-1.192-2.849-1.138-2.967-1.13H139.655c-.117-.008-2.87-.063-2.965 1.13-.016.235 0 .518.024.8-.487-.023-3.711-.109-6.135 1.098-2.659 1.334-2.832 1.545-2.738 2.26.024.156.118.353.252.564-.22.086-.815.321-2.166.8-1.804.651-2.51 1.467-2.541 1.506l-.126.149 2.166-.149-1.193 1.954.314-.212c.016-.007 1.647-1.082 3.091-1.427 1.632-.384 2.823-.816 3.646-1.318.268-.157.433-.369.479-.62.078-.439-.188-.847-.252-.926a9.146 9.146 0 011.209-.393l.267-.07c1.428-.36 2.558-.651 5.067-.337.847.11 1.42-.039 1.71-.439.408-.549.11-1.404.016-1.616.926-.063 1.82-.031 2.079-.016a18.39 18.39 0 012.079.016c-.095.212-.394 1.067.017 1.616.291.4.862.549 1.709.439 2.512-.313 3.642-.023 5.066.337l.27.07c.393.095.813.236 1.207.393-.063.079-.33.487-.252.926.049.251.205.463.479.62.824.502 2.018.934 3.646 1.318 1.442.345 3.074 1.42 3.092 1.427l.313.212-1.193-1.954 2.169.149zm-28.867-1.804c-.031.204-.172.376-.392.51-.809.486-1.993.918-3.609 1.302-1.09.259-2.29.926-2.84 1.255l.989-1.6-2.07.141c.281-.267 1.019-.832 2.313-1.294a62.548 62.548 0 002.205-.824c.298.416.706.855 1.035 1.13h.008c.11.094.212.172.29.211a.43.43 0 00.188.063c.017 0 .039-.008.063-.016.079-.04.244-.165.463-.345.385-.306.966-.769 1.342-.871.03.111.038.22.015.338zm-.064-.494c-.406.109-.979.564-1.396.902-.203.149-.36.291-.423.313h-.008c-.055 0-.165-.063-.29-.165.063-.408.941-.964 1.977-1.396l-.03.015c-.001.001.1.143.17.331zm8.097-1.734c-.252.345-.77.463-1.554.369-2.534-.314-3.671-.023-5.13.337l-.268.071c-1.349.337-3.153 1.184-3.396 1.898-.495-.432-1.209-1.231-1.264-1.679-.086-.596-.016-.769 2.637-2.095 2.447-1.215 5.733-1.098 6.079-1.082.133.973.478 2.008.808 2.157.047.024.11.032.188.032.485 0 1.333-.423 1.443-.479.181-.094.485-.204.611-.149l.017-.016c.01.228-.03.456-.171.636zm.173-.792c-.22-.055-.62.133-.707.172-.446.228-1.255.549-1.49.439-.095-.039-.196-.212-.298-.456.22-.557 1.271-.784 2.313-.871h-.008c0 .002.142.339.19.716zm2.062-.91c-.62-.031-3.946-.172-4.637.878-.235-.627-.423-1.577-.368-2.314.087-1.035 2.77-.972 2.8-.972H144.066c.031 0 2.714-.063 2.802.972.055.738-.135 1.687-.369 2.314-.69-1.05-4.017-.909-4.637-.878zm2.252.196h-.008c1.042.086 2.094.314 2.313.871-.101.244-.201.417-.297.456-.234.11-1.043-.212-1.49-.439-.086-.04-.485-.228-.704-.172.044-.379.186-.708.186-.716zm6.933 2.283l-.266-.071c-1.459-.36-2.598-.651-5.132-.337-.782.094-1.302-.023-1.554-.369-.143-.18-.182-.408-.172-.636l.016.016c.125-.055.432.055.611.149.107.055.957.479 1.441.479a.413.413 0 00.188-.032c.329-.149.675-1.184.808-2.157.346-.016 3.633-.133 6.08 1.082 2.65 1.326 2.723 1.499 2.637 2.095-.057.447-.77 1.247-1.265 1.679-.237-.714-2.042-1.561-3.392-1.898zm1.319.627l-.031-.015c1.035.432 1.914.988 1.979 1.396-.125.102-.234.165-.281.165h-.017c-.063-.023-.229-.165-.425-.313-.415-.337-.988-.792-1.395-.902.069-.189.161-.323.17-.331zm6.605 3.891c-.551-.329-1.749-.996-2.84-1.255-1.616-.384-2.801-.816-3.608-1.302-.22-.134-.36-.306-.394-.51a.696.696 0 01.018-.337c.376.102.957.564 1.342.871.219.18.385.306.463.345a.224.224 0 00.063.016.43.43 0 00.188-.063c.078-.039.181-.118.291-.211h.006c.33-.274.738-.714 1.037-1.13.172.07.744.298 2.203.824 1.295.463 2.031 1.028 2.313 1.294l-2.07-.141.988 1.599z" fill="#211E20"/><g fill="#052E61"><path d="M131.594 126.024a.696.696 0 00-.016-.337c-.376.102-.957.564-1.342.871-.219.18-.384.306-.463.345-.023.008-.046.016-.063.016a.427.427 0 01-.188-.063 1.706 1.706 0 01-.29-.211h-.008a6.601 6.601 0 01-1.035-1.13c-.173.07-.746.298-2.205.824-1.294.463-2.031 1.028-2.313 1.294l2.07-.141-.989 1.6c.55-.329 1.75-.996 2.84-1.255 1.616-.384 2.801-.816 3.609-1.302.221-.135.361-.307.393-.511z"/><path d="M138.073 124.165c.784.094 1.302-.023 1.554-.369.141-.18.181-.408.173-.636l-.017.016c-.126-.055-.431.055-.611.149-.11.055-.958.479-1.443.479a.418.418 0 01-.188-.032c-.33-.149-.675-1.184-.808-2.157-.346-.016-3.632-.133-6.079 1.082-2.652 1.326-2.723 1.499-2.637 2.095.055.447.769 1.247 1.264 1.679.242-.714 2.047-1.561 3.396-1.898l.268-.071c1.457-.361 2.594-.651 5.128-.337zM160.053 127.632c-.281-.267-1.02-.832-2.313-1.294a63.496 63.496 0 01-2.205-.824 6.558 6.558 0 01-1.035 1.13h-.008a1.617 1.617 0 01-.291.211.43.43 0 01-.188.063c-.019 0-.04-.008-.063-.016-.08-.04-.244-.165-.463-.345-.386-.306-.967-.769-1.343-.871a.71.71 0 00-.017.337c.031.204.173.376.393.51.809.486 1.992.918 3.607 1.302 1.092.259 2.291.926 2.841 1.255l-.988-1.6 2.073.142z"/><path d="M129.413 126.581c.125.102.235.165.282.165h.016c.063-.023.22-.165.423-.313.417-.337.99-.792 1.396-.902-.07-.188-.164-.322-.164-.322l.023-.023c-1.035.43-1.913.987-1.976 1.395zM153.59 126.432c.195.149.361.291.424.313h.008c.055 0 .165-.063.29-.165-.063-.408-.94-.964-1.978-1.396l.031.015s-.103.142-.174.33c.41.11.983.565 1.399.903zM144.631 123.176c.447.228 1.255.549 1.49.439.094-.039.195-.212.297-.456-.219-.557-1.271-.784-2.313-.871h.009s-.144.337-.188.714c.218-.053.619.135.705.174z"/><path d="M145.651 124.165c2.534-.314 3.672-.023 5.131.337l.266.071c1.352.337 3.154 1.184 3.396 1.898.495-.432 1.208-1.231 1.264-1.679.086-.596.017-.769-2.635-2.095-2.449-1.215-5.734-1.098-6.08-1.082-.134.973-.479 2.008-.809 2.157a.418.418 0 01-.188.032c-.486 0-1.334-.423-1.443-.479-.182-.094-.486-.204-.611-.149l-.016-.016c-.01.228.031.456.172.636.252.345.77.463 1.553.369z"/><path d="M141.862 122.094c.62-.031 3.946-.172 4.636.878.233-.627.424-1.577.369-2.314-.088-1.035-2.771-.972-2.803-.972H139.655c-.03 0-2.713-.063-2.8.972-.055.738.133 1.687.368 2.314.693-1.05 4.019-.909 4.639-.878z"/><path d="M137.305 123.16c.102.244.203.417.298.456.235.11 1.044-.212 1.49-.439.087-.04.487-.228.707-.172a2.976 2.976 0 00-.189-.706l.008-.008c-1.043.085-2.095.313-2.314.869z"/></g><path d="M141.415 147.673h.031c.22-.007.393-.078.503-.219.171-.211.164-.533.141-.683a.682.682 0 01-.133-.063c-.149-.086-.385-.094-.628-.032-.228.071-.416.196-.511.361.008.157.032.322.142.447.094.128.251.189.455.189z" fill="#072E5F"/><path d="M140.599 142.873l-.407 2.762s-.048.125.016.235c.078.118.274.181.557.196l.133-2.229c-.093-.022-.172-.047-.228-.118-.116-.148-.086-.36-.086-.36l.015-.486zM141.424 144.881l-.009.251s0 .204.157.307c.157.102.455.054.839-.126l-.047-.824c-.604.032-.933.392-.94.392zM143.424 145.454c.973 1.357 2.353 1.553 2.359 1.553.909 0 1.615-.267 2.094-.792.802-.894.685-2.243.677-2.259v-2.698c-1.443 1.583-2.646 2.447-2.646 2.447-.336 2.667-1.844 1.969-2.519 1.514l.035.235zM143.141 140.458h.023l.502 2.423a1.49 1.49 0 00.761-.118l-.03-5.616-1.161 1.185-.095 2.126z" fill="#CB061F"/><path d="M145.745 142.199l-.031-6.401-1.315 1.349.03 5.616s-.36.174-.762.118l.069.337c0 .017.189.519-.015.871a.646.646 0 01-.416.282l.086.847c.675.456 2.182 1.153 2.518-1.514 0 0 1.201-.863 2.646-2.447v-1.742l-2.81 2.684z" fill="#FFF"/><path d="M143.706 144.067a.673.673 0 01-.424.29l.016.102c.785.682 1.005-.4 1.005-.4a1.034 1.034 0 01-.533-.22c-.018.078-.034.156-.064.228z" fill="#072E5F"/><path d="M144.152 137.225h-4.62l-4.229-4.534-.195-.008v.157l.063.063v6.558l2.879 2.746.023-6.378 2.479 2.518.063 3.883.118.008-.04 1.122c0 .008-.016.18.063.29.04.039.095.055.141.063l.11-1.702.109.008-.273 4.658c0 .009-.009.086-.024.189.126-.134.283-.244.486-.299.268-.078.534-.063.707.04.046.03.108.047.156.069l.031-.007v.023c.11.03.205.055.299.069l-.078-1.324a1.586 1.586 0 01-.628.164.54.54 0 01-.283-.07c-.212-.133-.204-.394-.204-.4l.079-3.413h.125l-.078 3.003c.142-.125.447-.328.925-.353l-.171-3.13h.116l.307 5.539c.063 0 .11.008.11.008.243-.008.423-.079.524-.22.203-.268.104-.698.104-.706l-.535-5.06.109-.007.377 3.458a.505.505 0 00.322-.228c.172-.307.008-.77.008-.77l-.582-2.776.096-.023.095-2.126 2.479-2.534.031 6.401 2.809-2.683v-6.613l.078-.079v-.109h-.174l-4.307 4.515z" fill="#072E5F"/><path d="M140.615 142.418v-.188l-.063-3.883-1.225-1.24-.031 5.641s.738.361 1.224-.173l.023-.164.072.007zM140.128 145.297c-.736.408-1.93.659-2.22-1.655 0 0-1.246-.901-2.737-2.564v2.871c-.008.023-.125 1.373.675 2.267.479.526 1.185.792 2.103.792.016 0 1.161.103 2.117-1.224a.84.84 0 01.016-.188l.046-.299z" fill="#CB061F"/><path d="M137.908 143.641c.29 2.314 1.483 2.063 2.22 1.655l.393-2.722c-.485.534-1.224.173-1.224.173l.031-5.641-1.255-1.278-.023 6.378-2.879-2.746v1.616c1.491 1.664 2.737 2.565 2.737 2.565z" fill="#FFF"/><path d="M140.246 144.694l.196-1.341c-.228.36-.612.667-1.255.729 0 0 .243.949 1.059.612z" fill="#072E5F"/><path d="M148.679 143.948v-11.17l-.125.125v11.053c.008.016.125 1.365-.677 2.259-.479.526-1.185.792-2.094.792-.009 0-1.389-.195-2.359-1.553l-.118-1.083a.648.648 0 00.416-.282c.204-.353.015-.854.015-.871l-.572-2.76-.117.023.58 2.769s.166.471-.008.776a.515.515 0 01-.319.228l-.378-3.458-.109.007.535 5.06c0 .007.102.438-.104.706-.104.142-.283.212-.524.22 0 0-.048-.008-.11-.008l-.307-5.539h-.116l.171 3.13a1.496 1.496 0 00-.925.353l.078-3.003h-.125l-.079 3.413c0 .007-.008.268.204.4a.54.54 0 00.283.069c.173 0 .393-.055.628-.163l.078 1.324a2.845 2.845 0 01-.299-.069v-.023l-.031.007c-.048-.022-.11-.039-.156-.069-.173-.103-.439-.118-.707-.04-.203.055-.36.165-.486.299.016-.104.024-.182.024-.189l.273-4.659-.109-.008-.11 1.702a.257.257 0 01-.141-.063c-.078-.11-.063-.282-.063-.29l.04-1.122-.118-.008v.188l-.071-.007-.463 3.185a.847.847 0 00-.016.188c-.956 1.326-2.102 1.224-2.117 1.224-.918 0-1.624-.267-2.103-.792-.8-.894-.683-2.243-.675-2.267v-11.044l-.125-.125v11.17c0 .055-.126 1.413.713 2.338.495.557 1.231.839 2.182.839.008-.008.03 0 .094 0 .29 0 1.231-.102 2.071-1.2.008 0 0 0 0 0 .102.157.32.235.65.259l-.031.487c0 .017-.126.564.142.886.125.157.313.236.549.236h.031c.268-.008.463-.095.596-.268.181-.22.188-.525.173-.706.251.079.486.086.503.086.28-.008.483-.094.61-.268.252-.313.143-.783.133-.792l-.022-.188c.988 1.263 2.322 1.459 2.339 1.467.956 0 1.688-.282 2.188-.839.835-.929.71-2.288.71-2.342zm-7.107 1.491c-.157-.104-.157-.307-.157-.307l.009-.251c.007 0 .336-.36.941-.393l.047.824c-.385.181-.683.229-.84.127zm-1.365.431c-.063-.109-.016-.235-.016-.235l.407-2.762-.016.479s-.03.22.086.369c.056.071.135.095.228.118l-.133 2.229c-.282-.018-.478-.08-.556-.198zm1.742 1.585c-.11.142-.283.212-.503.219h-.031c-.204 0-.361-.063-.455-.188-.109-.125-.134-.29-.142-.447.095-.165.283-.29.511-.361.243-.063.479-.055.628.032a.682.682 0 00.133.063c.023.148.03.47-.141.682z" fill="#211E20"/><path d="M141.509 141.72l-.078 3.003c.142-.125.447-.328.925-.353l-.171-3.09-.723.439h.047z" fill="#CB061F"/><path d="M142.607 146.78c.063 0 .11.008.11.008.242-.008.423-.079.525-.22.203-.268.103-.698.103-.706l-.535-4.997-.51.376.307 5.539z" fill="#FFF"/><path d="M142.92 140.795l.377 3.458a.509.509 0 00.322-.228c.172-.307.008-.77.008-.77l-.564-2.698-.173.235.03.003z" fill="#CB061F"/><g><path d="M143.148 140.426l-2.306-3.828c-.715-.345-1.49.761-1.733.972-.235.212-.723.086-.723.086l2.196 3.922c.644.251 1.052-.573 1.35-.831.559-.462 1.216-.321 1.216-.321zM143.109 140.191l-2.134-3.53c0-.839 1.036-1.106 1.317-1.255.274-.149.362-.675.362-.675l2.446 3.734c-.048.737-.91.816-1.256 1.004-.62.345-.628.863-.628.863l-.107-.141z" fill="#FFF"/><path d="M142.591 134.504l-.016.11s-.094.502-.346.644c-.046.023-.11.055-.188.079-.345.149-.94.399-1.105.917l-.275.172c-.03 0-.063-.016-.093-.016-.533 0-1.083.565-1.366.863l-.141.142-.079.046a.594.594 0 01-.313.079c-.165 0-.306-.031-.306-.031l-.022-.008c-.017-.023-.064-.047-.064-.047l-.078-.063.04.283c-.008.118-.008.196-.008.25l-.196.126-.039.016 2.424 4.447.023.039 5.286-3.499-3.138-4.549zm-.658 6.244c-.298.258-.706 1.083-1.35.831l-2.196-3.922s.487.126.723-.086c.243-.211 1.019-1.317 1.733-.972l2.306 3.828a1.534 1.534 0 00-1.216.321zm1.914-1.279c-.62.345-.628.863-.628.863l-.109-.142-2.134-3.53c0-.839 1.036-1.106 1.317-1.255.274-.149.362-.675.362-.675l2.446 3.734c-.046.738-.909.817-1.254 1.005z" fill="#211E20"/></g><g><g fill="#E9BF00"><path d="M134.394 132.37a.563.563 0 01.259-.071c.047 0 .109.031.172.063 0-.008 0-.016.016-.023l-.934-1.035.487 1.066zM133.978 131.256l.925 1.028c0-.008.009-.008.017-.016-.047-.156-.047-.29.023-.416l-.965-.596z"/></g><path d="M134.817 132.59c-.039-.047-.007-.157.086-.243.095-.079.205-.11.252-.063.031.047 0 .157-.095.235-.092.094-.203.118-.243.071" fill="#E9BF00"/><g fill="#E9BF00"><path d="M134.732 130.809a.591.591 0 01.25-.039c.063.008.11.047.173.078l.016-.015-.801-1.138.362 1.114zM134.449 129.655l.792 1.122c.008 0 .017 0 .024-.008-.032-.157-.017-.298.07-.408l-.886-.706z"/></g><path d="M135.123 131.083c-.038-.054.016-.164.11-.235.103-.07.22-.094.251-.039.039.055-.016.157-.109.228-.109.077-.22.094-.252.046" fill="#E9BF00"/><g fill="#E9BF00"><path d="M136.614 130.393a.523.523 0 01.267 0c.047.008.102.055.157.094 0-.008.007-.008.007-.008l-.65-1.232.219 1.146zM136.474 129.217l.658 1.208h.016a.555.555 0 01.126-.408l-.8-.8z"/></g><path d="M136.975 130.715c-.03-.063.032-.157.142-.22.109-.063.22-.063.251-.008s-.031.157-.142.211c-.11.064-.219.072-.251.017" fill="#E9BF00"/><path d="M139.359 137.108l-4.329-4.479c.022-.016.047-.039.078-.063.03-.023.03-.055.055-.086l4.346 4.487c.023-.016.039-.04.063-.055l-4.362-4.503c.031-.071.039-.142 0-.181-.039-.055-.125-.04-.212 0a.448.448 0 01.048-.376l.015-.031-1.419-.878.713 1.545.04-.024a.622.622 0 01.259-.071c.031 0 .079.024.117.04-.038.086-.055.165-.016.212a.128.128 0 00.103.047c.031 0 .055-.016.078-.023l4.361 4.502c.031-.024.048-.047.062-.063zm-4.416-5.256c-.07.125-.07.259-.023.416-.008.008-.017.008-.017.016l-.925-1.028.965.596zm-.29.448a.55.55 0 00-.259.071l-.487-1.067.934 1.035c-.016.008-.016.016-.016.023a.463.463 0 00-.172-.062zm.164.29c-.039-.047-.007-.157.086-.243.095-.079.205-.11.252-.063.031.047 0 .157-.095.235-.092.094-.203.118-.243.071z" fill="#111211"/><path d="M139.509 136.967l-4.346-4.487c-.024.031-.024.063-.055.086-.031.023-.056.047-.078.063l4.329 4.479c.048-.047.095-.094.15-.141z" fill="#E9BF00"/><path d="M139.657 136.834l-4.329-5.695c.023-.016.055-.024.078-.047.031-.023.047-.047.07-.079l4.338 5.695c.023-.016.048-.023.078-.04l-4.361-5.718c.048-.071.063-.142.024-.188-.04-.055-.118-.047-.212-.023a.51.51 0 01.078-.361l.031-.032-1.302-1.043.517 1.616.048-.016a.489.489 0 01.267-.039c.031 0 .078.031.11.055-.047.078-.079.156-.04.211.024.031.056.047.103.055.023 0 .048-.008.078-.016l4.361 5.727c.016-.023.049-.039.063-.062zm-4.321-6.472c-.087.109-.103.25-.07.408-.008.008-.017.008-.024.008l-.792-1.122.886.706zm-.354.408a.591.591 0 00-.25.039l-.362-1.114.801 1.138c-.008.008-.016.008-.016.008-.062-.024-.109-.063-.173-.071zm.141.313c-.038-.054.016-.164.11-.235.103-.07.22-.094.251-.039.039.055-.016.157-.109.228-.109.077-.22.094-.252.046z" fill="#111211"/><path d="M139.814 136.708l-4.338-5.695c-.023.031-.039.055-.07.079-.023.023-.055.031-.078.047l4.329 5.695c.048-.039.103-.079.157-.126z" fill="#E9BF00"/><path d="M140.489 136.425l-3.326-5.632a.242.242 0 00.095-.04c.031-.016.047-.039.078-.063l3.373 5.703.07-.04-3.381-5.726c.047-.063.071-.125.047-.18-.03-.055-.117-.063-.211-.047a.441.441 0 01.133-.353l.031-.031-1.177-1.185.33 1.671.038-.008a.433.433 0 01.26-.016c.047.008.078.039.118.07-.056.071-.103.149-.071.204.016.031.056.055.094.063.032.008.055 0 .087 0l3.318 5.625c.031-.007.063-.015.094-.015zm-3.216-6.408a.554.554 0 00-.126.408h-.016l-.658-1.208.8.8zm-.392.376a.523.523 0 00-.267 0l-.22-1.146.658 1.224s-.015.008-.015.016c-.055-.039-.109-.086-.156-.094zm.094.322c-.03-.063.032-.157.142-.22.109-.063.22-.063.251-.008s-.031.157-.142.211c-.11.064-.219.072-.251.017z" fill="#111211"/><path d="M140.568 136.41c.03 0 .063.016.093.016l.048-.031-3.373-5.703c-.031.024-.047.047-.078.063-.032.023-.063.031-.095.04l3.326 5.632c.031-.009.047-.017.079-.017z" fill="#E9BF00"/><g><g fill="#E9BF00"><path d="M149.331 132.37a.573.573 0 00-.26-.071c-.048 0-.109.031-.174.063 0-.008 0-.016-.016-.023l.934-1.035-.484 1.066zM149.745 131.256l-.924 1.028c0-.008-.01-.008-.018-.016.048-.156.048-.29-.021-.416l.963-.596z"/></g><path d="M148.907 132.59c.039-.047.008-.157-.086-.243-.095-.079-.205-.11-.252-.063-.031.047 0 .157.094.235.093.094.205.118.244.071" fill="#E9BF00"/><g fill="#E9BF00"><path d="M148.993 130.809a.603.603 0 00-.252-.039c-.063.008-.109.047-.172.078l-.016-.015.8-1.138-.36 1.114zM149.274 129.655l-.791 1.122c-.008 0-.018 0-.023-.008.031-.157.018-.298-.069-.408l.883-.706z"/></g><path d="M148.601 131.083c.039-.054-.017-.164-.108-.235-.104-.07-.222-.094-.252-.039-.039.055.016.157.11.228.108.077.218.094.25.046" fill="#E9BF00"/><g fill="#E9BF00"><path d="M147.11 130.393a.523.523 0 00-.267 0c-.048.008-.103.055-.157.094 0-.008-.008-.008-.008-.008l.65-1.232-.218 1.146zM147.252 129.217l-.66 1.208h-.016a.555.555 0 00-.125-.408l.801-.8z"/></g><path d="M146.749 130.715c.031-.063-.03-.157-.142-.22-.108-.063-.22-.063-.252-.008-.028.055.032.157.144.211.109.064.219.072.25.017" fill="#E9BF00"/><path d="M146.327 130.017l.029.031a.44.44 0 01.135.353c-.095-.016-.182-.008-.213.047-.023.055 0 .118.049.18l-2.959 5.005.058.078 2.965-5.021c.028.024.047.047.078.063.03.023.063.031.095.04l-3.013 5.09.055.086 3.044-5.154c.031 0 .057.008.086 0a.145.145 0 00.096-.063c.031-.055-.018-.133-.07-.204.039-.031.07-.063.117-.07a.433.433 0 01.26.016l.039.008.328-1.671-1.179 1.186zm.125 0l.801-.8-.659 1.208h-.017a.562.562 0 00-.125-.408zm.047.682c-.109-.055-.172-.157-.144-.211.032-.055.144-.055.252.008s.173.157.142.22c-.031.054-.141.046-.25-.017zm.611-.306a.523.523 0 00-.267 0c-.048.008-.103.055-.157.094 0-.008-.008-.008-.008-.008l.65-1.232-.218 1.146z" fill="#111211"/><path d="M143.549 135.884l3.013-5.09a.242.242 0 01-.095-.04c-.031-.016-.049-.039-.078-.063l-2.965 5.021.125.172z" fill="#E9BF00"/><path d="M148.27 130.346l.032.032c.069.102.094.22.077.361-.094-.023-.172-.032-.211.023-.039.047-.023.117.021.188l-4.229 5.545.057.079 4.229-5.562c.022.031.039.055.07.079.021.023.055.031.078.047l-4.26 5.601.056.078 4.3-5.648c.029.008.055.016.077.016.048-.008.079-.024.103-.055.039-.055.009-.134-.039-.211.031-.024.078-.055.109-.055.078-.016.156 0 .269.039l.047.016.519-1.616-1.305 1.043zm1.004-.691l-.791 1.122c-.008 0-.018 0-.023-.008.031-.157.018-.298-.069-.408l.883-.706zm-.923 1.381c-.095-.071-.149-.172-.11-.228.03-.055.148-.031.252.039.094.071.147.181.108.235-.032.049-.142.032-.25-.046zm.642-.227a.603.603 0 00-.252-.039c-.063.008-.109.047-.172.078l-.016-.015.8-1.138-.36 1.114z" fill="#111211"/><path d="M144.137 136.739l4.26-5.601c-.023-.016-.057-.024-.078-.047a.295.295 0 01-.07-.079l-4.229 5.562.117.165z" fill="#E9BF00"/><path d="M148.663 131.821l.018.031a.46.46 0 01.048.376c-.087-.04-.173-.055-.213 0-.038.039-.03.11 0 .181l-4.308 4.44.057.078 4.299-4.448c.021.031.021.063.057.086.03.023.055.047.078.063l-4.322 4.464.055.07 4.361-4.495c.021.008.047.023.078.023a.13.13 0 00.103-.047c.04-.047.022-.125-.015-.212.037-.016.084-.04.117-.04a.63.63 0 01.258.071l.039.024.715-1.545-1.425.88zm1.082-.565l-.924 1.028c0-.008-.01-.008-.018-.016.048-.156.048-.29-.021-.416l.963-.596zm-.838 1.334c-.039.047-.15.023-.244-.07-.094-.079-.125-.188-.094-.235.047-.047.157-.016.252.063.094.085.125.195.086.242zm.424-.22a.573.573 0 00-.26-.071c-.048 0-.109.031-.174.063 0-.008 0-.016-.016-.023l.934-1.035-.484 1.066z" fill="#111211"/><path d="M144.372 137.092l4.322-4.464c-.023-.016-.046-.039-.078-.063-.031-.023-.031-.055-.055-.086l-4.299 4.448.11.165z" fill="#E9BF00"/></g><g><path d="M141.477 135.626a4.71 4.71 0 01.564-.29c.078-.024.143-.055.188-.079 0 0 .01-.016.018-.016v-2.98h.987v-.769h-.987v-.981h-.771v.981h-.988v.769h.988l.001 3.365z" fill="#EAC000"/><path d="M141.359 135.712c.04-.031.071-.063.118-.086v-3.365h-.988v-.769h.988v-.981h.771v.981h.987v.769h-.987v2.98a.546.546 0 00.117-.118v-2.745h.98v-1.004h-.98v-.98h-1.006v.98h-.98v1.004h.98v3.334z" fill="#211E20"/></g></g><g fill="#E9BF00"><path d="M132.143 155.864c.11-.117.142-.251.087-.393a.314.314 0 00-.235-.227c-.102-.032-.235-.008-.4.054-.142.056-.204.079-.345.142 0 0-.017.008-.017.016-.008.016-.008.023 0 .039.079.18.142.329.197.471.085.196.155.376.258.627 0 .017.017.017.032.024h.03l.032-.017c.047-.022.086-.038.148-.063.024-.008.032-.031.024-.055-.04-.086-.063-.149-.095-.221-.016-.054-.047-.108-.07-.18.023-.016.047-.022.07-.031l.063-.023c.165.126.26.195.424.33.016 0 .031.007.047 0l.079-.032c.047-.017.078-.031.133-.047.016-.008.023-.024.023-.032.008-.023 0-.031-.016-.047-.179-.131-.281-.202-.469-.335zm-.149-.117c-.023.046-.087.094-.174.125-.03.008-.046.024-.07.024l-.046.022h-.017c-.016 0-.03-.008-.03-.022l-.135-.322c-.008-.008-.008-.017 0-.023.008-.016.008-.016.024-.023l.11-.047c.085-.032.156-.048.211-.032.063.008.103.047.134.118.024.068.024.125-.007.18zM133.406 155.778c-.008-.017-.008-.024-.024-.024-.008-.007-.016-.007-.03-.007-.173.055-.26.094-.416.149h-.009c-.046-.104-.062-.165-.108-.275.155-.055.25-.086.407-.141.031 0 .039-.023.031-.048l-.048-.156c-.008-.017-.015-.017-.022-.023-.008-.007-.023-.007-.04-.007-.156.063-.251.094-.408.149l-.077-.229c.172-.063.266-.094.447-.157.022-.008.038-.031.022-.047-.015-.031-.015-.055-.022-.086a.585.585 0 01-.024-.079l-.023-.022a.021.021 0 00-.031 0c-.274.094-.416.141-.69.244-.008 0-.023.007-.023.022-.008.008-.008.023 0 .032.078.212.133.376.195.533.064.18.135.345.213.588l.022.022h.025c.275-.102.408-.141.666-.234.024-.009.04-.031.024-.047-.017-.032-.017-.063-.031-.087-.002-.015-.018-.04-.026-.07zM134.05 154.562c-.103-.039-.235-.039-.4.016l-.048.015c-.109.032-.188.056-.313.095 0 0-.016.016-.016.022-.016.008-.016.024-.008.032.071.196.117.345.165.494.063.195.125.384.204.635.008.024.03.031.047.031h.008l.07-.023c.048-.016.078-.022.126-.039a.067.067 0 00.031-.055c-.047-.117-.071-.204-.102-.306l-.024-.079.079-.023c.156-.055.282-.125.345-.22.07-.094.086-.212.048-.345a.35.35 0 00-.212-.25zm-.04.518a.453.453 0 01-.203.118l-.095.031h-.032c-.017-.009-.017-.017-.017-.023l-.117-.353c-.008-.017-.008-.024.008-.031 0-.008 0-.017.017-.024l.125-.031c.094-.03.165-.038.22-.016.056.016.094.071.117.142.024.076.017.139-.023.187zM135.383 154.137c-.008-.022-.039-.031-.039-.031l-.126.031-.095.023s-.015.007-.015.016c-.016.017-.016.024-.016.032.046.149.07.259.094.369.031.109.063.219.094.361.048.165-.015.267-.172.306a.305.305 0 01-.205-.008c-.046-.031-.078-.079-.101-.165l-.197-.73c-.008-.022-.03-.039-.055-.03l-.053.015c-.048.016-.087.023-.149.039-.024.008-.04.032-.024.055l.017.094c.07.235.109.386.188.645.04.148.118.243.228.306a.54.54 0 00.228.047c.056 0 .11-.008.181-.023a.666.666 0 00.259-.125.415.415 0 00.142-.212.385.385 0 000-.26l-.184-.755zM136.535 154.467c.032-.023.047-.055.063-.079a.381.381 0 00.031-.212c-.031-.109-.095-.195-.188-.228-.093-.032-.235-.031-.415.008-.149.023-.213.04-.354.071l-.016.008c-.031.008-.039.031-.031.047.055.267.103.455.148.659.039.148.071.306.119.51 0 .016.015.032.038.032h.008c.173-.039.267-.063.439-.104a.5.5 0 00.313-.164.379.379 0 00.078-.307.352.352 0 00-.116-.196.29.29 0 00-.117-.045zm-.517.024s-.009 0-.017-.008c0 0 0-.008-.008-.016l-.055-.234c0-.009 0-.017.008-.023.008-.008.008-.008.024-.016.047-.008.07-.008.117-.024a.416.416 0 01.165-.007c.03.016.078.04.086.102.008.07-.008.11-.04.134-.023.031-.07.047-.133.063l-.063.017a.193.193 0 00-.07.016h-.014v-.004zm.423.384c-.022.031-.078.055-.157.079l-.047.008c-.046.008-.07.016-.118.023l-.022-.11c-.016-.055-.023-.11-.04-.18.048-.008.087-.017.135-.024l.03-.007a.339.339 0 01.181 0c.039.015.055.046.071.094.015.07-.009.102-.033.117zM137.721 154.687h-.008a3.955 3.955 0 00-.471.078l-.032-.188c-.047-.267-.078-.463-.141-.785 0-.008-.009-.016-.017-.022-.008-.009-.022-.017-.03-.009l-.087.017c-.039.007-.07.007-.118.022-.015 0-.022.008-.03.017-.008.008-.017.016-.008.031.046.25.086.439.117.627.031.165.063.329.11.542 0 .023.016.039.038.039h.008c.283-.055.425-.078.707-.125 0 0 .016-.008.023-.016.007-.008.008-.015.008-.031l-.031-.165c.001-.023-.016-.032-.038-.032zM138.026 153.644c0-.023-.016-.039-.04-.039h-.008c-.047.008-.078.016-.109.016l-.094.015c-.016.009-.024.009-.032.017s-.008.022-.008.03c.04.274.071.472.103.676.031.148.048.306.078.509.008.016.024.04.048.04v-.008l.077-.009a.62.62 0 01.126-.016c0-.008.017-.008.024-.022.007 0 .007-.017.007-.031a7.762 7.762 0 01-.063-.463c-.038-.222-.07-.426-.109-.715zM139.312 154.491c0-.017-.016-.023-.016-.032-.016-.016-.031-.016-.047-.008-.048.023-.094.04-.141.055a.682.682 0 01-.143.031c-.109.008-.188-.016-.25-.07-.07-.063-.11-.165-.126-.299-.015-.125 0-.227.056-.306a.302.302 0 01.235-.133.794.794 0 01.275.038c.016.009.046-.008.046-.022.017-.039.024-.063.032-.086l.031-.086c0-.016-.008-.039-.031-.047-.11-.046-.235-.063-.377-.046a.729.729 0 00-.337.116.532.532 0 00-.196.26.723.723 0 00-.031.353c.031.211.094.36.219.455a.516.516 0 00.362.125h.093a.966.966 0 00.33-.094c.023-.008.031-.024.031-.04 0-.031 0-.056-.008-.078.001-.031-.007-.054-.007-.086zM139.987 153.392h-.008l-.079.009c-.055 0-.086.007-.148.007-.015 0-.031.016-.039.032-.149.485-.22.729-.36 1.238 0 .009 0 .024.007.031.008.008.016.016.032.016.094-.008.125-.016.211-.016.024 0 .04-.015.04-.031l.03-.109c.017-.063.032-.125.048-.204.157-.007.251-.016.415-.031l.056.134c.031.056.047.103.079.164.015.017.022.032.047.024.078 0 .116-.008.203-.008.016 0 .023-.009.032-.017a.047.047 0 000-.046c-.204-.455-.307-.689-.534-1.169-.008-.015-.016-.024-.032-.024zm.111.691c.016.008.016.015 0 .023 0 .016-.017.023-.024.023-.117.008-.181.008-.306.017-.016 0-.023 0-.03-.009 0-.008-.009-.022 0-.031l.015-.095.056-.181c.007-.039.022-.102.038-.149 0-.047.008-.063.04-.063.015 0 .022.008.039.022 0 0 .008.04.031.079.007.039.016.071.031.086l.048.125a.49.49 0 01.062.153zM141.494 153.337h-.017c-.156 0-.235.008-.392.008-.024 0-.04.023-.04.047.008.408.016.644.032 1.013l.008.173c0 .022.016.047.038.047.135-.008.197-.008.338-.008.22-.008.393-.063.518-.173.118-.11.181-.275.181-.479.008-.205-.055-.354-.181-.463-.109-.11-.274-.165-.485-.165zm.376.628c0 .274-.134.399-.408.399h-.11v-.447c0-.102 0-.204-.007-.329h.15c.249.001.375.119.375.377zM142.936 153.337h-.039a.609.609 0 00-.438.157c-.11.11-.165.267-.173.479 0 .204.048.368.148.486.104.118.251.181.455.188h.031c.173 0 .322-.048.425-.157a.653.653 0 00.188-.463c.016-.212-.033-.376-.136-.494-.1-.125-.256-.188-.461-.196zm-.016 1.06h-.03c-.103-.009-.172-.039-.228-.103-.056-.071-.079-.172-.071-.313 0-.142.032-.235.079-.307a.346.346 0 01.234-.086h.023c.109 0 .189.039.242.109.048.07.08.172.063.306-.009.142-.04.243-.095.306a.277.277 0 01-.217.088zM145.118 153.526c-.108-.016-.172-.016-.299-.031-.017 0-.031.008-.031.016a21.36 21.36 0 00-.408.815l-.008.008c-.086-.321-.133-.518-.233-.878-.009-.015-.017-.031-.039-.031-.108-.008-.172-.016-.299-.022-.017 0-.03.022-.038.04-.039.478-.049.713-.087 1.19 0 .024.016.047.038.047.057 0 .087.009.125.009h.063c.009 0 .024 0 .032-.009.008-.008.008-.015.008-.022l.047-.581c0-.055.008-.103.008-.157.07.25.133.447.211.77 0 .016.019.03.033.03.047 0 .077.008.109.008l.07.017h.007c.016 0 .032-.017.032-.032.156-.306.242-.494.367-.737l-.023.165c-.016.149-.03.251-.038.369l-.022.221c0 .022.017.047.039.047l.086.008c.03.007.063.007.103.015h.009s.018-.008.021-.008c.01-.007.01-.023.018-.031.039-.32.063-.542.096-.792l.047-.393s-.01-.023-.01-.031c-.011-.012-.019-.02-.034-.02zM145.659 153.596l-.063-.007c-.049-.008-.086-.016-.143-.023h-.008c-.017 0-.039.016-.039.039l-.022.148c-.048.385-.078.612-.134 1.036 0 .024.009.039.039.047.047.008.078.008.125.017l.063.008h.017s.017 0 .017-.008c.017 0 .017-.017.017-.024l.016-.046c.056-.448.096-.684.158-1.138 0-.016-.01-.023-.01-.023-.009-.017-.025-.026-.033-.026zM146.907 153.792l-.048-.008c-.016 0-.024 0-.032.008-.016.008-.016.016-.016.023-.021.125-.047.22-.063.313-.018.086-.031.18-.057.307a1.434 1.434 0 00-.021.172 59.497 59.497 0 00-.395-.902c-.008-.016-.015-.024-.029-.024a1.226 1.226 0 01-.174-.03l-.078-.009h-.009c-.022 0-.038.017-.047.032-.069.472-.104.706-.173 1.186-.008.022.008.047.04.047l.047.008a.584.584 0 00.125.016h.031c.008-.008.017-.023.017-.03.038-.244.063-.369.102-.612.01-.055.01-.119.023-.181.143.33.235.542.376.901.009.008.017.023.032.023.093.016.143.022.25.04v.008s.018-.008.031-.008c0-.008.009-.017.017-.032.063-.376.108-.604.175-.917l.047-.251c0-.023-.019-.046-.033-.046-.061-.018-.091-.018-.138-.034zM147.581 153.925c-.07-.008-.109-.023-.182-.03l-.021-.009c-.019 0-.024 0-.032.009-.007 0-.015.016-.015.022l-.086.408c-.049.243-.088.447-.149.761v.031a.101.101 0 00.03.022c.047.009.078.017.108.024l.079.015h.018c.015 0 .028-.015.028-.03.071-.307.11-.511.165-.745l.087-.424v-.039c-.007.002-.015-.007-.03-.015zM148.53 155.173a.066.066 0 00-.039-.016c-.048.008-.103 0-.148 0a.502.502 0 01-.148-.023c-.102-.022-.172-.07-.212-.148a.47.47 0 01-.017-.314.419.419 0 01.164-.273c.07-.056.156-.071.261-.039a.261.261 0 01.133.047.46.46 0 01.108.078c.019.016.049.008.064-.008.016-.031.038-.047.055-.07.018-.023.039-.04.056-.071.019-.008.019-.015.019-.031 0-.008-.019-.015-.019-.015a.764.764 0 00-.354-.181c-.125-.023-.242-.031-.353 0s-.204.086-.274.173a.7.7 0 00-.147.32c-.048.196-.031.369.048.503a.562.562 0 00.393.267.856.856 0 00.268.039c.023 0 .055 0 .078-.008.017 0 .031-.007.031-.031l.047-.157c-.006-.018-.006-.035-.014-.042zM149.573 154.444c0-.016-.016-.031-.031-.031-.055-.016-.094-.031-.141-.039l-.078-.023c-.017-.008-.031 0-.041.016-.306.399-.461.604-.769 1.036-.009.008-.009.023-.009.039.009.008.017.016.033.023a.4.4 0 01.108.031c.03.008.063.016.095.022.016.009.03 0 .047-.016l.063-.094c.039-.055.078-.103.125-.172.136.039.22.063.348.102l.047.017c.016.117.016.188.03.32a.05.05 0 00.021.04c.088.023.127.039.205.063H149.644c.021 0 .038-.024.038-.047v-.017a25.037 25.037 0 00-.109-1.27zm-.164.689c-.008.008-.008.017-.022.017 0 0-.009 0-.017-.009l-.047-.016c-.096-.022-.147-.039-.252-.071-.016 0-.023-.007-.031-.022 0-.008 0-.016.008-.031.039-.055.07-.094.104-.141l.063-.095c.031-.039.078-.102.096-.134.029-.046.029-.054.047-.054h.01c.021 0 .039.022.039.039v.181c.008.086.016.134.016.196l.008.11a.075.075 0 01-.022.03zM151.213 154.993c.008-.017-.01-.039-.024-.047-.047-.016-.077-.031-.108-.039l-.078-.031c-.008 0-.017 0-.031.008-.01 0-.016.017-.016.023l-.205.588c-.017.04-.029.094-.063.173-.079-.346-.143-.557-.252-.958 0-.015-.016-.022-.021-.031l-.109-.03c-.04-.017-.086-.031-.135-.048h-.03c-.017.009-.017.017-.022.031-.078.251-.134.44-.195.628-.047.157-.104.307-.164.511 0 .008 0 .022.008.03 0 .008.016.017.016.017.063.022.096.03.125.047l.063.016c.017 0 .04-.008.048-.031l.188-.588c.019-.055.033-.118.049-.18.103.353.156.564.25.957 0 .016.018.023.023.031.07.023.11.039.165.055l.07.023.008.008c.022 0 .04-.017.047-.031l.134-.385c.08-.238.149-.442.259-.747zM152.052 155.291c0-.023-.017-.031-.031-.039l-.069-.031a1.621 1.621 0 01-.143-.055c-.023-.008-.039 0-.055.015-.346.369-.52.558-.863.957 0 .009-.008.024 0 .031 0 .016.008.024.016.032.063.022.096.031.144.047l.063.032c.016 0 .029 0 .047-.017.039-.039.069-.078.094-.108.039-.04.072-.086.117-.134.148.055.244.094.394.148l-.009.104v.228c0 .015.017.031.031.031l.063.031c.046.016.078.03.133.055h.01c.016 0 .021 0 .029-.008.018 0 .018-.017.018-.031.011-.52.011-.787.011-1.288zm-.203.244c-.009.039-.009.07-.009.094v.219l-.008.086c0 .017 0 .023-.018.031h-.033c-.107-.039-.164-.063-.259-.102l-.039-.017c-.016 0-.022-.008-.03-.023 0-.016 0-.023.017-.031l.063-.07c.031-.047.08-.094.125-.148.031-.039.08-.094.096-.126.039-.047.048-.047.063-.047.016 0 .023 0 .032.016v.118z"/></g><g fill="#E8BE00"><path d="M131.876 123.043c-.126-.086-.298-.11-.494-.063l-.36.071c-.008 0-.024.008-.024.016-.016.015-.016.023-.016.031l.251 1.169c0 .023.017.04.04.04h.007l.33-.071c.211-.047.361-.133.455-.267.094-.133.118-.306.078-.509-.047-.197-.125-.339-.267-.417zm-.407.965l-.165-.761.118-.031c.243-.047.376.047.438.306.024.133.016.235-.031.313-.055.079-.142.126-.274.157l-.086.016zM132.41 122.761l-.189.039c-.008 0-.016.008-.03.023v.023l.242 1.169c.008.023.023.039.04.039h.016l.188-.047s.016-.007.024-.015.008-.016.008-.031l-.252-1.169c-.001-.023-.024-.031-.047-.031zM133.681 122.658a.57.57 0 00-.472-.086.584.584 0 00-.407.267c-.078.133-.094.298-.047.502a.646.646 0 00.251.439.504.504 0 00.306.095c.055 0 .11 0 .165-.016.188-.039.321-.125.393-.259a.71.71 0 00.063-.502c-.048-.204-.126-.353-.252-.44zm-.039.495a.563.563 0 01-.008.321.327.327 0 01-.212.142.28.28 0 01-.243-.047c-.063-.055-.11-.149-.142-.282-.032-.133-.023-.244.016-.322s.11-.125.204-.141c.031-.008.055-.008.079-.008.063 0 .125.016.171.055.064.054.11.148.135.282zM134.903 123.169a.303.303 0 00-.188-.243.76.76 0 00-.219-.063.596.596 0 01-.22-.078.12.12 0 01-.032-.055c0-.039 0-.063.017-.086a.272.272 0 01.108-.055.686.686 0 01.283.008s.015 0 .031-.008c0-.008.016-.016.016-.023l.023-.173c.009-.016-.008-.039-.031-.047a.82.82 0 00-.369 0 .452.452 0 00-.281.157.308.308 0 00-.063.29.318.318 0 00.118.204.661.661 0 00.273.109c.142.023.188.047.22.063s.048.039.048.07c.016.032 0 .063-.016.094a.357.357 0 01-.142.063c-.048.008-.094.016-.141.016l-.017-.008c-.062 0-.125-.008-.172-.016-.017-.007-.031 0-.047.008 0 .008-.017.024-.008.04l.038.181c0 .015.017.031.032.031a.862.862 0 00.352-.008.508.508 0 00.321-.165.339.339 0 00.066-.306z"/></g><g fill="#E8BE00"><path d="M139.846 120.368c-.078-.07-.203-.102-.36-.102h-.346c-.022 0-.047.015-.047.039v1.2c0 .024.024.04.047.04h.188c.031 0 .047-.016.047-.04v-.408h.079a.599.599 0 00.376-.109c.095-.071.142-.181.142-.322a.389.389 0 00-.126-.298zm-.189.471a.352.352 0 01-.203.054h-.095c-.015 0-.031-.015-.031-.039v-.353c0-.016.017-.032.031-.032h.118c.086 0 .149.016.188.047a.21.21 0 01.072.157c0 .079-.032.134-.08.166zM141.148 121.474l-.439-1.184c-.008-.016-.023-.031-.04-.031h-.211c-.016 0-.032.016-.039.031l-.447 1.2v.039c.016.008.023.016.039.016h.204c.016 0 .039-.016.039-.031l.109-.298h.393l.11.298c.008.016.022.031.047.031h.203c.024 0 .048-.016.048-.04 0-.015-.008-.023-.016-.031zm-.423-.509c0 .007-.016.015-.031.015h-.268c-.007 0-.015-.008-.03-.015v-.032l.078-.243a.5.5 0 00.055-.165c.008-.016.024-.031.032-.031.016 0 .022.015.03.023.008.016.008.024.008.04l.017.047c.016.031.016.055.031.079l.078.251c.008.007 0 .023 0 .031zM142.035 120.266h-.902c-.017 0-.031.015-.031.039v.172c0 .016.015.039.031.039h.313v.988c0 .024.016.04.048.04h.188c.032 0 .048-.016.048-.04v-.988h.306c.022 0 .039-.023.039-.039v-.172c-.001-.024-.017-.039-.04-.039zM143.141 121.474l-.307-.486a.34.34 0 00.211-.33c0-.133-.037-.235-.125-.298-.077-.063-.202-.094-.359-.094h-.346c-.016 0-.03.015-.03.039v1.2c0 .024.015.04.03.04h.197a.038.038 0 00.039-.04v-.439h.133l.274.455c0 .016.016.023.031.023h.22c.031 0 .048-.016.048-.04 0-.014 0-.03-.016-.03zm-.392-.659a.327.327 0 01-.188.055h-.118c-.021 0-.038-.023-.038-.039v-.329c0-.016.017-.032.038-.032h.11c.086 0 .148.016.188.039.047.04.068.086.068.157.001.063-.021.118-.06.149zM143.486 120.266h-.204c-.016 0-.031.015-.031.039v1.2c0 .024.018.04.031.04h.204c.015 0 .03-.016.03-.04v-1.2c.001-.024-.016-.039-.03-.039zM144.78 121.474l-.447-1.184c0-.016-.016-.031-.029-.031h-.221c-.017 0-.03.016-.041.031l-.444 1.2c0 .008 0 .023.008.039a.059.059 0 00.04.016h.203a.032.032 0 00.031-.031l.107-.298h.4l.109.297c.008.016.024.031.041.031h.203c.031 0 .047-.016.047-.04.001-.014.001-.022-.007-.03zm-.43-.517c0 .015-.018.015-.023.015h-.268c-.018 0-.023 0-.023-.015-.016 0-.016-.016-.008-.024l.088-.243c.014-.055.029-.109.047-.165 0-.016.017-.031.03-.031.015.008.031.015.031.031s.017.039.017.078a.116.116 0 01.022.063l.094.267c.007.008.007.024-.007.024z"/></g><g fill="#E8BE00"><path d="M148.286 123.153c-.188-.032-.281-.039-.455-.063.063-.345.097-.525.174-.895 0-.007 0-.023-.008-.031-.008-.007-.017-.016-.022-.016-.087-.008-.125-.016-.203-.023-.019 0-.047.008-.047.032-.079.439-.127.658-.197 1.082 0 .016.009.024.009.039.01.008.018.008.031.008.273.039.407.055.676.102h.008c.021 0 .039-.016.047-.039l.022-.149v-.031c-.018-.009-.018-.016-.035-.016zM148.915 122.306c-.008-.008-.018-.016-.03-.016-.048-.008-.08-.016-.118-.016l-.07-.016c-.031 0-.047.016-.047.031l-.023.118a22.69 22.69 0 00-.213.957v.031c.018.008.023.016.031.024l.078.007c.032.008.063.016.109.024h.009a.038.038 0 00.039-.039c.095-.424.142-.628.243-1.067.007-.015-.001-.023-.008-.038zM149.973 122.831a.268.268 0 00-.055-.267c-.078-.063-.188-.11-.36-.149-.11-.024-.173-.032-.251-.047l-.104-.016h-.008c-.016 0-.029.008-.039.031a32.44 32.44 0 00-.26 1.067c0 .016 0 .023.01.031.008.016.021.023.021.023l.063.008c.125.024.211.04.354.071.055.008.103.016.153.016.07 0 .137-.016.189-.039a.342.342 0 00.188-.228c.022-.086.017-.157-.017-.212a.233.233 0 00-.069-.079c.031-.015.047-.031.069-.046a.256.256 0 00.116-.164zm-.439.51c-.039.023-.095.023-.164.008l-.078-.016c-.03-.008-.047-.016-.08-.016.025-.094.041-.165.063-.259.032.008.063.008.095.016l.063.016c.095.016.126.047.157.063.016.023.031.047.016.102-.018.047-.033.078-.072.086zm.086-.447c-.016.008-.039.008-.063.008-.031 0-.057 0-.086-.008-.04-.007-.07-.015-.104-.015l-.031-.008c-.017-.008-.017-.008-.022-.016 0 0-.008-.016-.008-.023.022-.094.03-.134.063-.22 0-.016.016-.032.03-.023l.048.008c.03.008.047.008.077.016.063.016.118.032.142.063.041.032.049.071.033.118-.008.053-.032.085-.079.1zM150.985 122.769c-.008-.016-.017-.024-.031-.024a20.41 20.41 0 00-.658-.165c-.016 0-.047.008-.047.032-.127.416-.188.627-.299 1.059 0 .008 0 .024.008.031.008.008.017.016.023.024.251.054.376.086.627.157h.016c.019 0 .031-.016.039-.032.008-.031.018-.055.024-.071 0-.023.009-.046.017-.078.008-.007 0-.023 0-.031a.1.1 0 00-.033-.023h-.016c-.156-.039-.242-.063-.393-.103.031-.094.048-.157.08-.25.141.039.229.055.383.102.023 0 .04-.008.057-.031l.008-.039c.008-.039.018-.063.031-.102.008-.016.008-.023-.009-.031 0-.016-.015-.023-.022-.023-.155-.04-.244-.063-.385-.102.016-.07.03-.125.063-.204.125.031.211.055.329.086l.086.023c.023.008.048-.008.056-.031a.448.448 0 00.022-.071c.008-.023.017-.047.022-.07.002-.01.002-.026.002-.033zM151.849 123.098c-.063-.086-.165-.141-.322-.196-.125-.031-.194-.055-.321-.086-.029-.007-.047.008-.047.032-.142.416-.203.627-.338 1.043-.008.008 0 .024.008.032 0 .008.018.016.023.023l.079.016c.03.015.055.015.103.031.017.008.039-.008.047-.031.047-.126.063-.204.104-.314l.021-.063a.361.361 0 00.109.032l.039.164c.023.095.048.181.078.306.008.016.023.031.031.031.056.024.086.032.125.047l.07.023h.018c.016 0 .023-.008.031-.016s.015-.023.008-.039c-.057-.204-.086-.321-.143-.51.147-.023.26-.102.299-.228.04-.117.032-.219-.022-.297zm-.315.329c-.021.008-.047.008-.063.008-.032 0-.07-.008-.11-.016a.279.279 0 00-.055-.016c-.017-.008-.022-.008-.038-.008-.018-.008-.023-.015-.031-.023v-.023a.807.807 0 00.038-.11c.017-.047.031-.086.056-.149 0-.016.017-.031.031-.023a.325.325 0 01.094.031.303.303 0 01.158.079c.03.039.03.086.016.141a.168.168 0 01-.096.109zM152.931 123.372c-.33-.118-.494-.18-.847-.291-.019-.007-.041.008-.049.024-.006.031-.017.055-.022.071-.009.031-.017.047-.022.078-.009.008-.009.023 0 .032 0 .008.016.016.022.023l.103.032c.063.016.117.031.188.055l-.017.031c-.117.314-.181.487-.299.816v.032c.008.008.016.023.023.023.039.016.07.023.102.031l.079.031h.009c.022 0 .03-.008.039-.031.125-.329.188-.502.313-.839l.069.023.221.079c.023.008.037 0 .055-.023.016-.063.031-.086.057-.142.006-.015.006-.023 0-.031-.009-.015-.009-.024-.024-.024zM153.559 123.608c-.04-.016-.063-.024-.096-.04-.03-.008-.063-.024-.094-.039-.023-.008-.039 0-.047.008-.347.353-.502.525-.816.871-.014.008-.014.023-.014.039a.054.054 0 00.028.031c.04.016.063.023.097.032a.313.313 0 00.078.032c.016.007.037.007.047-.008.068-.078.108-.125.172-.188l.031-.039c.127.054.203.086.346.141 0 .047 0 .086-.008.133-.01.047-.01.094-.01.157 0 .016.01.032.023.04.064.024.103.039.148.063l.031.016h.033c.016-.016.03-.023.03-.04.018-.384.018-.612.031-.949l.008-.22a.036.036 0 00-.018-.04zm-.189.275c0 .039 0 .063-.009.079-.008.046-.008.086-.008.118v.125c0 .008-.008.016-.015.024-.008.007-.016.007-.016.007l-.018-.007a2.975 2.975 0 01-.174-.063l-.07-.023c-.008-.008-.021-.016-.021-.031 0 0 0-.016.008-.024l.039-.039c.048-.047.078-.086.125-.141.033-.031.063-.079.096-.102.016-.032.016-.032.038-.032h.008c.017 0 .024.024.017.04v.069zM154.774 124.306c-.055-.142-.165-.251-.354-.33-.094-.047-.157-.07-.229-.102l-.103-.04c-.016-.008-.039 0-.049.016-.188.4-.28.596-.453 1.004v.031c0 .008.017.016.022.024.038.016.087.031.117.047.048.023.095.039.165.07a.78.78 0 00.329.079c.055 0 .11-.008.157-.024.147-.046.26-.157.345-.329.091-.164.108-.313.053-.446zm-.549-.165c.023.016.055.023.096.047a.33.33 0 01.194.172c.024.079.017.173-.047.283-.103.22-.259.275-.479.172l-.078-.031c.119-.259.183-.4.299-.643h.015z"/></g><path d="M126.966 147.533c.769.188 1.105 0 1.105 0 .181.322.298.369.298.369.4.118.62.298.73.431.063.235.133.533.235.871-.055-.055-.142-.11-.268-.196-.133-.086-.086-.291-.471-.533 0 0-.172-.165-.94-.173 0 0-.581-.047-.581.056 0 0 .11.345.753.926 0 0 .486.329.762.234 0 0 .313-.164.839.016h.016c.07.212.156.432.251.65-.98-.353-1.562.103-1.562.103-.038.063.07.094.07.094.66.079.44.055.723.433.471.643 1.302.502 1.302.502.016.008.032.022.048.022.063.11.125.204.203.299-.156-.07-.321-.134-.486-.109-.298.039-.393.118-.658.016-.22-.07-.33-.212-.298.047 0 0 .563 1.333 1.568 1.208.228-.031.283-.102.408-.164l.023-.008c.117.235.29.502.548.737 0 0-.116.141-.461.313 0 0-.079.103.313.204 0 0 .213.078.486.133.424-.156.896-.321 1.396-.471.024-.008.039-.024.063-.031 0 0 .009.007.009.016a19.459 19.459 0 011.726-.439c.102-.023.204-.039.306-.063.109-.698-.039-1.146-.039-1.146-.142.039-.51.612-.51.612-.44-.823-1.036-.957-1.036-.957-.109.047.024.243.024.243.055.156.07.298.055.424a.355.355 0 00-.102-.039s.007 0 .007-.008a.303.303 0 00-.298-.298.288.288 0 00-.282.211 2.255 2.255 0 00-1.381-.636s-.173.009-.094.134c0 0 .345.008.408.407 0 0-.134-.079-.503-.079v-.164s-.142-.322.087-.511c.134-.108.729.204 1.027-1.105 0 0-.188-.016-.611.173v-.11s-.095-.29-.047-.65c0 0 .203-.314.203-.439 0 0-.376-.134-1.114.816 0 0-.07-.204-.611-.565 0 0-.298.832-.142 1.302.11.369.118.494.503.762 0 0 .282.133.345.518a4.806 4.806 0 00-.29.039l.008-.008c-.376-.416-.675-.934-.926-1.451-.181-.643-.141-.988-.063-1.161.322-.376.769-.125.769-.125.683.079.895-.689.895-.689.156-.313.281-.463.281-.463.032-.181-.298-.031-.298-.031-.58.148-.604.212-.604.212.016-.165.031-.291.04-.4.046.008.078.017.078.017.831-.096.737-.244.737-.244-.471-.423-.338-.393-.542-.588-.36-.354-.839-.369-.839-.369-.338.055-.533.047-.644.022a2.76 2.76 0 01.455-.446c.156.047.392.141.698.337 0 0 1.255.267 1.545-1.052 0 0-.203.282-.8.11 0 0 .392-.596.361-1.004 0 0-.165.054-.896.227 0 0 .032-.306-.242-.815 0 0-.949.604-.855 1.24 0 0 .157.392.079.714-.142.109-.69.549-1.099 1.373a11.599 11.599 0 01-.188-1.201c.101-.204.298-.644.454-1.192 0 0 .016-.055.009-.173.431-.408.548-.925.626-1.302.009-.007.009-.023.009-.04a1.27 1.27 0 01.227-.023c.275.627.988.558 1.256.432.761-.346.729-.486.729-.486-.031-.047-.173-.031-.313-.031.58-.479.525-.62.525-.62-.086-.069-.494.126-.628.04-.581-.376-1.145-.016-1.145-.016-.369.251-.495.376-.534.438-.016 0-.031.009-.056.009.017-.04.032-.079.048-.11.22-.447.393-.667.487-.761.345-.196.721-.063.721-.063.55.039 1.021-.525 1.021-.525.243-.399.392-.494.392-.494-.016-.141-.148-.118-.148-.118-.338.071-.338.086-.338.086.251-.917.117-.957.117-.957-.086 0-.133.055-.133.055-.142.424-.737.408-.737.408-.032-.612-.157-.526-.157-.526-.094.149-.298.244-.298.244-.573.581-.573.824-.573.824.017.337-.023.651-.055.886-.102.118-.29.354-.533.832a3.334 3.334 0 00-.094.29 1.557 1.557 0 00-.77.526c-.038-.079-.078-.149-.116-.229l.046-.407c.542.086.871-.385.941-.627.196-.761.079-.839.079-.839-.087 0-.251.314-.37.322a.803.803 0 00-.493.228c.039-.228.087-.447.133-.659.628.157 1.021-.376 1.099-.643.235-.824.109-.91.109-.91-.102 0-.282.337-.415.337a.854.854 0 00-.525.22c.03-.118.063-.228.093-.314v.008l.009-.055c.023-.063.039-.109.056-.164.125-.126.313-.275.627-.353 0 0 .407.078.753-.141 0 0 .91-.729 1.021-1.452 0 0-.205.11-.691.157 0 0 .008-.228.023-.572 0 0-.644.118-1.356.855 0 0-.11-.439-.298-.996 0 0-.91 1.184-.612 2.087.125.376.204.431.251.47-.102.306-.259.855-.416 1.545-.023-.023-.039-.047-.054-.063.03-.109.046-.274.046-.549 0 0 .008-.675-.619-.957-.149-.071-.197-.518-.306-.549 0 0-.189.031-.268 1.036-.031.337.173 1.114.974 1.184l-.017.008c.017.016.055.063.173.228-.031.181-.078.361-.11.549a.692.692 0 00-.345-.361c-.102-.047-.142-.345-.204-.376 0 0-.125.031-.188.706 0 0 .117.706.628.801a7.626 7.626 0 00-.063.635 2.532 2.532 0 00-.259.698.84.84 0 00-.22-.29c.007-.125.031-.29.07-.479 0 0 .109-.094-.031-.777-.055-.242-.455-.501-.58-.87 0 0-.11-.118-.221.337 0 0 0-.11-.195-.384 0 0-.385-.22-.518-.573 0 0-.04-.321-.165-.196 0 0-.644 1.356.33 1.961 0 0-.338-.04-.533-.212 0 0-.072-.103-.126-.07 0 0-.196.268.407 1.083 0 0 .393.447.863.376 0 0 .228-.078.518-.016.063.039.188.165.251.455a3.135 3.135 0 00-.345-.211s-.259-.181-1.412.118c0 0 .737.886 1.521.862.18 0 .314-.102.534-.172.03.047.078.103.109.157.031.273.056.573.094.878-.282-.282-.784-.572-.784-.572-.196-.142-.149.142-.149.142-.439-.762-1.592-.823-1.592-.823a.177.177 0 01-.142-.071c-.196 0 .047.384.047.384.346.927.676 1.028.676 1.028-.4.229-1.028-.259-.887.094.622.632 1.03.718 1.03.718zm2.737-.58c.322.204.36.438.36.438.04.134.197.22.37.29-.3.26-.346.424-.346.424l-.345-.651c-.11-.267-.188.031-.188.031-.157.792-.103.862-.103.862.11.424.211.541.211.541.103.118.15.204.174.26a1.164 1.164 0 00-.109.407c-.307-.862-.447-1.607-.479-1.772.134-.328.29-.595.455-.83zm.087-3.413c-.063.314-.157.659-.425.957a2.762 2.762 0 00-.163-.439c.18-.26.384-.424.588-.518zM148.608 153.086c.871.181 1.688.408 2.408.651.204-.008.4-.017.611-.008.108.016.211.022.283.039.305.055.549.086.531.078 0-.008-.037-.022-.087-.047.183.024.386.039.435.008-.252-.133-.487-.195-.754-.282l-.785-.203 2.235-.056-.196-.117c-.375-.142-1.363-.205-1.756-.229a24.699 24.699 0 011.817-.126h.032c.345.024.628.04.609.024 0 0-.021-.008-.055-.017.182.017.337.017.164-.156-.258-.181-1.098-.204-1.379-.196l1.254-.055c.109.007.229.015.314.022.346.047.627.071.609.055l-.016-.008c.281.023.484.023.251-.125-.376-.188-1.208-.36-1.616-.424.234-.141.455-.274.698-.376.368-.157.762-.274 1.159-.392.262-.048.465-.103.56-.142.524-.109.849-.345.133-.228-.479.047-1.059.188-1.467.228l.377-.204c.36-.188.784-.267 1.19-.399.078-.031.049 0 .078-.07l-.069-.023c-.07-.008-.147.023-.222.031.104-.055.275-.118.449-.165a25.657 25.657 0 001.277-.243c.031-.03-.055-.038-.229-.023.194-.055.385-.094.571-.149.087-.022.222-.022.269-.102l-.055-.04c-.096-.039-1.72.212-1.898.244-.157.022-.455.094-.596.094l.518-.212c.502-.141.861-.251.879-.267.023-.023-.047-.023-.165 0 .086-.032.181-.071.272-.095.096-.022.473-.094.52-.18-.102-.047-.188-.024-.328.007-.488.079-.959.204-1.412.346-.103.039-.221.079-.33.117.008-.007.017-.022.03-.031.683-.267.903-.359 1.132-.424.541-.102.947-.172.955-.188h-.008c.087-.023.165-.031.26-.056.182-.031.321-.016.336-.133l-.886-.055c-.298.007-.597.078-.839.086l.29-.243c.155-.125.313-.259.471-.392.181-.047.329-.086.455-.126.173 0 .392.008.454-.023-.234-.234-.298-.118-.518-.234l.272-.33c.063-.086.136-.156.183-.274.022-.047.022-.039.008-.071l-.103.017-.69.563c-.125.086-.094.079-.267.086-.299.023-.598.118-.88.173.33-.259.542-.416.902-.627.154-.102.32-.188.492-.282.135-.07.473-.181.496-.268l-1.067.274c-.211.079-.791.353-.909.455.464-.525 1.186-1.122 1.734-1.545.076-.047.242-.134.266-.211-.047-.017-.063-.023-.104-.023-.291.063-.947.509-1.184.658-.275.181-.566.385-.832.589a2.426 2.426 0 00-.205.141c.174-.18.33-.353.533-.524.049-.056.109-.109.174-.157.063-.048.104-.094.156-.141.126-.095.203-.188.33-.283.219-.196.454-.393.65-.597l.338-.29c.07-.07.297-.204.289-.329-.463.259-.887.541-1.324.847-.221.141-.416.298-.629.447-.156.103-.485.399-.611.463.268-.424.534-.863.861-1.225.408-.455.936-.926 1.396-1.31.135-.102.252-.235.362-.322v-.039c-.11-.008-.472.26-.55.33-.354.259-.689.533-1.004.823l-.235.189c-.524.438-1.075 1.09-1.554 1.818.195-.471.533-.854.813-1.161l.802-.886c.063-.055.096-.102.142-.165.534-.588.793-1.043.901-1.733-.086.134-.229.29-.422.541a2.438 2.438 0 00-.183.221l-1.381 1.577c-.07.069-.144.141-.212.211-.01 0-.01.008-.01.008.096-.282.377-.77.504-.972.22-.338.414-.62.644-.927.155-.22.879-1.146 1.054-1.31 0-.008.045-.055.077-.078.007-.11.108-.173.22-.267.142-.118.166-.173.319-.258-.147-.157-.713.195-.821.274-.707.487-1.226 1.153-1.742 1.828.069-.361.494-1.42.699-1.718.163-.22.32-.518.478-.722l.472-.737c-.109.008-.229.172-.298.243-.047.047-.079.086-.134.134-.055.063-.104.133-.156.196-.039.04-.087.094-.135.165-.454.573-.783 1.2-1.145 1.875.029-.407.397-1.098.596-1.435.267-.447.549-.824.824-1.255-.15-.04-.598.494-.668.604-.195.243-.393.478-.558.752-.229.4-.447.832-.636 1.271-.07.141-.143.291-.203.438.063-.564.563-1.78.8-2.188.144-.251.29-.447.455-.659.069-.079.108-.149.174-.22.116-.149.22-.283.328-.432l.329-.432c-.203-.078-.957.777-1.105.965-.07.079-.117.172-.181.259-.108.134-.203.267-.313.416.094-.408.393-.941.604-1.271.196-.306.415-.557.638-.832.077-.086.141-.173.194-.274-.235-.031-1.199 1.09-1.39 1.341-.088.11-.156.212-.229.322l-.039.055c-.134.188-.268.4-.393.62.047-.408.281-1.208.406-1.569.174-.463.408-.878.612-1.333-.163-.032-.485.408-.571.541l-.369.714c.031-.33.55-1.499.722-1.922-.095.023-.157.172-.25.313-.235.369-.44.729-.659 1.106.031-.376.268-.769.438-1.098-.313.141-.83 1.247-.957 1.6a2.953 2.953 0 00-.155.471l-.063.18c-.017-.854.156-1.718.283-2.549-.08.016-.096.102-.127.181-.031.07-.063.133-.094.211-.047.157-.109.298-.174.471l-.234 1.012c-.359-.502-.455-1.436-1.16-2.495-.234-.338-.313-.369-.613-.581-.016.023-.028.016.019.102.063.11.108.196.142.282-.031-.039-.056-.063-.056-.063-.022.024.056.173.165.338.048.07.104.172.157.274.063.157.125.377.298.926-.079-.079-.173-.211-.252-.313a12.515 12.515 0 01-.58-.902c-.03-.086-.063-.118-.143-.172-.016.055.031.235.078.408l-.016-.008c-.016 0 .031.204.117.455.165.518.29.769.619 1.161.127.204.252.416.361.604-.095-.055-.158-.133-.234-.211-.299-.251-.221-.188-.393-.494a5.515 5.515 0 01-.425-.917 7.24 7.24 0 00-.261-.651c-.03.04-.008-.039-.03.063-.022.079.009.181.017.267.039.361.103.721.166 1.083-.252-.103-.486-.267-.724-.393-.047-.023-.108-.07-.172-.086l-.063.008c-.017.047.031.126.103.22l-.008-.007c-.017.007.125.165.313.345.25.259.438.408.674.541a.44.44 0 01.039.04c.182.431.354.768.637 1.114l.25.321-.549-.557c-.408-.369-.564-.526-1.021-.887.008.133.172.243.252.321l.524.581c-.399-.329-.434-.282.115.244.244.235.52.533.771.855l.393.659a2.094 2.094 0 00-.25-.33l-.66-.847c-.234-.282-.502-.478-.799-.721a3.12 3.12 0 00-.707-.463c-.022.078.078.141.142.188.063.063.127.125.204.188-.229-.157-.125-.008.424.518.611.588 1.334 1.499 1.826 2.283-.242-.133-1.159-1.176-1.387-1.403-.188-.196-.274-.313-.52-.431.018.118.675.878.831 1.043.063.063.096.109.144.165l.291.337c.193.229.541.644.682.896l.195.416c-.009-.04-.394-.549-.447-.604-.086-.118-.156-.195-.25-.306-.221-.235-.58-.643-.848-.823l-.666-.384c-.033.071.106.172.193.243l.251.235c.056.063.157.182.338.346.235.228.485.518.729.824.094.133.188.273.291.416-.088-.048-.15-.125-.215-.196-.094-.094-.125-.118-.219-.196a3.86 3.86 0 00-.455-.368l-1.082-.524c.016.078.375.306.479.359.212.143.557.361.745.565.029.031.055.054.078.085-.143-.103-.078-.008.268.33.078.07.156.165.234.25.009.008.016.016.016.023.134.181.234.313.361.511.125.195.195.369.298.581l.368 1.364c-.116-.447-.338-.941-.502-1.374-.135-.337-.399-1.152-.832-1.003-.156.056-.229.229-.299.369-.102.188-.242-.071-.57.62-.188.384-.307.823-.395 1.255v.017l-.047.163.047-.133c-.008.055-.016.103 0 .157.088-.031.143-.259.174-.361.164-.407.328-.658.549-1.027l.017-.017-.173.801c0 .016-.008.022-.018.04.01-.017.018-.024.018-.032l-.143.62c.109-.023.143-.211.188-.314.142-.36.267-.722.399-1.082.291.204.447.926.557 1.608.031.281.063.611.086.979-.086-.234-.203-.557-.273-.722l-.494-.808c-.281.038-.32.393-.385.611-.078-.109-.164-.298-.359-.273-.174.008-.233.212-.268.416a2.715 2.715 0 000 .51c-.016.165-.016.345-.016.58 0 0 .008-.181.029-.393.018.125.057.4.078.425l.056.063.103-1.161c.024-.016.057-.008.096.016.188.228.438.84.394 1.121-.188 1.192-.299 1.569-.926 2.55a5.82 5.82 0 01-.359.51c-.057.086-.11.165-.175.243l-.219.228c.328-.563.472-.792.705-1.435a6.722 6.722 0 00.367-1.53.75.75 0 00-.008-.25c-.063.031-.086.118-.109.196-.549 1.718-.627 1.78-1.528 3.303l.165-.973c-.079.008-.068.047-.104.142-.021.071-.047.125-.069.196-.023.063-.048.133-.079.195v-.007c0-.016-.046.134-.107.321-.009.023-.018.055-.031.086a3.93 3.93 0 01-.235.479c.017-.103.078-.243.11-.338.093-.321.147-.667.203-.987v-.229c-.095-.008-.104.188-.143.313-.109.345-.273.659-.432.979v-.094c.039-.212.094-.533.047-.753 0 0 .039.055-.021-.079-.089.024-.097.189-.117.269-.024.102-.058.202-.088.305-.156.432-.345.746-.55 1.099.109.009.188.026.258.041zm3.521-6.197c.033-.069.08-.219.143-.251.299.816.416 1.1.637 1.961-.048.024-.056.048-.088.086-.029.087-.063.243-.125.361l-.22-.753c-.078-.273.039-.832-.056-.925-.086.141-.055.172-.078.431 0 0-.008-.016-.008-.031v-.022c-.047-.494-.078-.526-.078-.125-.016-.047-.031-.095-.047-.134-.166-.464-.189-.322-.08-.598z" fill="#086428"/></svg>