<svg xmlns="http://www.w3.org/2000/svg" viewBox="2.84 48.38 277.79 186.71"><path fill="#D6D4D1" d="M2.835 48.376h277.794v186.712H2.835z"/><path fill="#006232" d="M5.118 50.67h136.619v182.155H5.118z"/><path fill="#FFF" d="M141.737 50.67h136.618v182.155H141.737z"/><g fill="#D11234"><path d="M184.709 171.499a40.04 40.04 0 01-26.933 10.377c-22.113 0-40.124-18.001-40.124-40.132 0-22.122 18.011-40.125 40.124-40.125a40.042 40.042 0 0126.933 10.378.475.475 0 00.319.125h.009a.48.48 0 00.485-.479.447.447 0 00-.165-.353c-9.643-13.014-25.029-20.78-41.189-20.78-28.249 0-51.231 22.984-51.231 51.232 0 28.255 22.984 51.239 51.231 51.239 16.189 0 31.612-7.797 41.246-20.852a.467.467 0 00-.063-.636.483.483 0 00-.642.006z"/><path d="M190.168 140.081l-17.461-4.675-.957-18.074a.49.49 0 00-.347-.439.493.493 0 00-.532.204l-9.854 15.179-17.479-4.683a.472.472 0 00-.519.204.463.463 0 00.03.564l11.373 14.049-9.852 15.172a.495.495 0 00.031.563c.133.157.346.22.549.142l16.881-6.479 11.391 14.057a.487.487 0 00.377.181h.009a.474.474 0 00.479-.479c0-.047 0-.094-.017-.133l-.94-17.956 16.883-6.479a.497.497 0 00.313-.479.479.479 0 00-.358-.439z"/></g></svg>