<svg xmlns="http://www.w3.org/2000/svg" viewBox="2.84 48.38 277.79 186.71"><path fill="#D6D4D1" d="M2.835 48.375h277.794v186.714H2.835z"/><path fill="#E31138" d="M5.126 50.638V232.795l273.237-91.074z"/><path fill="#2FA32F" d="M5.126 50.638l273.229 91.075V50.631H5.118"/><path fill="#4D85C0" d="M5.134 232.795h273.221v-91.074z"/><path d="M118.479 147.659a.395.395 0 00-.361-.353.416.416 0 00-.432.243c-1.898 4.644-6.252 8.338-8.433 9.68.533-.815 1.091-1.616 1.647-2.424 4.785-6.989 9.304-13.58 4.667-19.132a.43.43 0 00-.454-.125.405.405 0 00-.275.384c-.063 3.2-2.094 6.332-3.153 7.037 3.036-8.479 5.335-17.979-.039-24.64a.416.416 0 00-.494-.125.431.431 0 00-.243.447c.455 2.659.181 6.989-.494 8.276-.055.07-.094.157-.165.235-.329-5.115-1.138-16.481-6.676-17.258a.411.411 0 00-.423.196c-.079.149-.079.337.031.463 1.325 1.679 2.165 5.264 2.282 9.688-1.271-2.832-2.8-5.091-5.954-7.342-2.91-5.554-7.962-9.649-11.695-12.104a.431.431 0 00-.463-.008.39.39 0 00-.181.408c.51 3.475 1.231 6.229 5.68 9.688-1.083-.337-2.196-1.404-3.365-2.526-1.412-1.357-2.871-2.761-4.409-2.84-.887-.039-1.663.235-2.565.557-.878.306-1.875.667-3.067.667a6.86 6.86 0 01-1.608-.204.388.388 0 00-.439.18.428.428 0 00.016.479c.314.376.73.69 1.122.988.424.322.832.62 1.012.965-.541.267-1.631.094-3.004-.486a.414.414 0 00-.47.66c2.228 2.479 5.342 3.765 7.828 3.255 3.64-.706 7.162-.172 10.284 1.522-.564.165-1.623.251-2.949.251a30.3 30.3 0 01-2.573-.11.397.397 0 00-.407.243.42.42 0 00.07.463c1.702 1.694 3.161 2.895 6.495 2.895 1.498-.008 2.636-.376 3.562-.667.455-.149.965-.306 1.356-.306.283 0 .455.086.612.274 1.765 2.095 3.004 4.181 4.447 6.597l.393.651c-1.694.102-2.204-.941-2.949-2.448-.644-1.294-1.373-2.761-3.106-3.859a.426.426 0 00-.354-.039.415.415 0 00-.251.235c-1.945 4.644 2.699 10.127 6.111 12.535.063 3.907.706 6.762 2.078 9.256l.268.479c.917 1.704 1.977 3.632 1.592 7.39-1.835-1.545-3.554-5.922-3.059-9.57a.421.421 0 00-.597-.423c-.776.376-1.412 1.122-1.852 2.141-.729 1.703-.761 3.883-.063 5.202.871 1.654 1.467 4.832.479 6.229l-.251.337c-.808 1.075-.879 1.239-.871 3.859.031 1.577-.784 3.412-2.117 4.77.25-1.075.446-2.447.345-3.515a.394.394 0 00-.298-.361.416.416 0 00-.447.157c-.541.753-1.279 1.506-2.063 2.306-1.177 1.208-2.377 2.455-2.934 3.734-.188.439-.36.949-.51 1.443-.729 2.29-1.569 4.887-5.287 5.615-5.318 1.053-7.563 1.983-10.739 3.304l-1.106.463c-.275-2.313.431-6.188 1.781-7.742.384-.455.792-.675 1.216-.675.063 0 .133 0 .188.008.165.031.345.047.541.047 1.663 0 4.832-1.098 6.386-3.443.926-1.396 1.121-2.973.58-4.69a.402.402 0 00-.361-.291.438.438 0 00-.415.251c-.565 1.356-1.844 2.84-3.396 3.083.306-.384.635-.77.996-1.169 1.812-2.079 3.883-4.433 2.879-7.758a.458.458 0 00-.361-.299.42.42 0 00-.399.213c-1.153 2.047-2.519 3.562-4.064 4.502.847-1.749 1.098-3.186.675-3.884-.149-.273-.424-.424-.762-.424-.8 0-1.898.849-3.004 2.322-1.13 1.53-1.82 4.699-2.424 7.915-.423-1.341-.667-2.809-.91-4.361-.314-1.938-.636-3.938-1.365-5.719-.58-1.482-.298-2.393.047-2.902.761-1.113 2.479-1.334 3.224-1.199 1.247.328 2.588.518 3.781.518 1.545 0 3.664-.306 4.989-1.733.809-.87 1.225-2.056 1.232-3.515a.436.436 0 00-.252-.392.42.42 0 00-.463.094c-1.529 1.561-4.118 2.149-6.84 1.553 2.142-1.64 4.189-4.291 4.118-6.731-.039-1.192-.564-2.188-1.568-2.965a.405.405 0 00-.408-.063c-.133.063-.243.188-.251.33-.33 2.518-2.251 5.138-4.715 6.425-.494-1.852-.58-3.805-.243-5.985a.405.405 0 00-.251-.447.414.414 0 00-.502.165c-.949 1.443-1.804 3.695-2.604 6.872.071-3.177.698-5.562 1.169-7.358.369-1.388.957-1.584 1.538-1.584.471 0 1.036.157 1.694.337.737.196 1.584.423 2.534.494 1.671.094 4.213-.416 5.594-2.086.666-.808.973-1.781.901-2.879a.404.404 0 00-.274-.361.404.404 0 00-.439.11c-.934 1.02-2.486 1.553-4.275 1.514 2.448-1.498 6.362-4.118 4.471-8.041a.425.425 0 00-.353-.235.398.398 0 00-.369.196l-.181.298c-.722 1.232-1.294 2.22-3.553 2.651.149-.376.282-.792.408-1.216.408-1.294.816-2.62 1.977-3.436a.401.401 0 00.165-.439.426.426 0 00-.368-.306c-3.225-.298-5.515 1.655-6.825 5.766a35.141 35.141 0 00-.541-2.432c-.243-1.02-.455-1.898-.534-3.075 1.341-1.514 1.852-3.694 1.294-5.452-.321-1.051-1.2-2.432-3.443-3.036a.398.398 0 00-.338.063.38.38 0 00-.18.298c-.22 2.102-.157 2.785.306 4.534-1.381-.776-2.848-1.192-4.173-1.192-1.177 0-2.197.329-3.028.98a.411.411 0 00-.165.298c0 .125.039.235.125.322 1.922 1.938 4.173 2.337 6.739 1.169-.416 1.075-1.122 1.577-2.205 1.584-.651 0-1.443-.173-2.628-.557a.412.412 0 00-.455.133.39.39 0 00-.023.471c1.271 2.055 2.895 3.06 4.965 3.06.369 0 .746-.023 1.146-.086 1.216 3.248 1.2 5.789-2.157 10.331.125-3.122-.282-5.193-2.565-7.507-.965-.949-2.032-1.036-2.424-.291-.353.698-.204 2.181 1.161 4.33-1.396-1.263-2.965-3.279-3.773-5.53a.418.418 0 00-.447-.267.401.401 0 00-.353.369c-.353 3.601.439 7.091 2.087 9.139-.181.157-.369.243-.565.243-.706 0-1.538-1.09-2.205-2.024-.094-.157-.298-.219-.479-.157a.408.408 0 00-.259.439c.737 6.377 3.608 8.707 8.535 6.872.047 1.451.078 2.871.102 4.354.055 2.722.118 5.522.267 8.794-2.612-3.64-5.679-6.166-7.46-6.981a.4.4 0 00-.573.314c-.283 2.008 1.537 4.471 2.714 5.97-1.616-.549-4.314-2.471-5.162-3.091a.405.405 0 00-.431-.031.42.42 0 00-.228.376c.086 3.688 4.942 6.677 6.73 7.656-2.879-.267-4.322-1.42-6.119-3.122a.404.404 0 00-.455-.07.41.41 0 00-.243.392c.384 6.589 5.703 7.303 7.962 7.303 2.047 0 3.922-.518 4.809-1.066.118 2.282.259 4.729.416 7.178l.008.234c.157 2.598.314 5.187.447 7.603-1.357-.251-2.023-.589-2.62-.887-.643-.329-1.255-.636-2.628-.769-7.617-.291-12.731-9.21-14.395-13.887a.381.381 0 00-.424-.274.417.417 0 00-.361.361c-.039.243-.047.494-.063.776-.008.416-.031.847-.149 1.287-1.012-2.59-2.251-5.72-3.828-7.642a.42.42 0 00-.494-.11.409.409 0 00-.228.455c.267 1.412.283 2.974.181 5.092a23.564 23.564 0 00-.345-.888c-.439-1.113-.761-1.914-.784-3.654.016-.762.306-1.429.682-2.221.016 0 .016-.008.016-.016l.063-.125c.486-1.012 1.043-2.157.988-3.695-.039-.917-.447-2.353-.886-3.883-.376-1.326-.808-2.84-1.067-4.252a.412.412 0 00-.392-.337.443.443 0 00-.416.321l-.243 1.09c-.502 2.206-.98 4.307-1.741 5.844.165-.996.251-1.914.345-2.753.196-1.859.369-3.459 1.075-4.989 1.168-2.322 2.259-4.51 1.71-6.989a.416.416 0 00-.353-.313.379.379 0 00-.408.211c-.118.212-.212.439-.33.698-.283.683-.62 1.522-1.718 2.871-.157-2.62 2.879-6.582 5.672-8.15 1.302-.674 2.988-2.549 3.553-4.683.22-.816.345-2.024-.235-3.169a.435.435 0 00-.282-.212.395.395 0 00-.337.079c-1.146.878-1.914 1.914-2.997 3.357a68.12 68.12 0 01-2.157 2.753c1.835-6.354 6.095-9.327 13.359-9.358 1.208-.008 3.546-.377 4.699-1.734a.45.45 0 00.031-.494.417.417 0 00-.463-.165c-1.436.408-3.192.479-4.785.196 1.099-1.404 3.138-1.53 5.138-1.53l1.357.008h.188c2.055-.008 4.966-.298 6.472-2.683a.43.43 0 00-.031-.479.403.403 0 00-.455-.133c-1.404.486-3.106.745-4.832.745-1.169 0-2.251-.118-3.146-.361 1.632-.784 3.64-1.302 5.585-1.804 2.675-.698 5.436-1.412 7.311-2.832a.426.426 0 00.165-.353.41.41 0 00-.196-.33c-.871-.525-2.032-.792-3.444-.792-4.205 0-9.798 2.354-13.767 4.801 1.459-1.428 3.177-3.279 4.33-4.911a.446.446 0 00.04-.384.43.43 0 00-.298-.259c-3.389-.729-10.833 7.397-13.704 12.802-2.181 1.247-3.303 3.075-4.181 4.565.557-2.032.878-3.828 1.216-5.585.306-1.679.596-3.263 1.067-4.934a.39.39 0 00-.133-.416.4.4 0 00-.432-.071c-5.719 2.463-5.899 10.817-6.017 16.928-.055 2.306-.102 4.362-.416 5.719.118-3.452-.008-8.762-1.647-11.743a.417.417 0 00-.667-.087c-2.447 2.565-2.659 13.359-.573 22.969a166.94 166.94 0 01-.611-1.326c-.706-1.522-1.436-3.091-1.836-4.872a.384.384 0 00-.361-.313.39.39 0 00-.408.235c-3.153 6.911 2.04 14.716 7.805 22.145-3.052-1.765-6.582-5.224-9.586-9.374a.422.422 0 00-.494-.148.426.426 0 00-.259.431c.981 8.919 8.049 12.942 12.708 15.595 1.632.926 2.965 1.694 3.719 2.439-2.056-.949-4.942-2.235-7.366-2.235-1.192 0-2.11.298-2.816.918a.384.384 0 00-.133.407.43.43 0 00.298.309c4.095.965 6.77 1.992 8.942 3.412 3.468 4.338 10.01 6.455 21.792 7.021-2.486.94-4.181 2.966-4.283 5.217a.438.438 0 00.118.306.44.44 0 00.298.135l14.952-.07a.422.422 0 00.291-.117.455.455 0 00.117-.29c-.023-2.26-1.71-4.269-4.361-5.278 14.889-.479 27.04-5.797 29.84-9.373a.44.44 0 00.079-.377.414.414 0 00-.275-.269c-1.059-.347-2.714-.144-3.992.125-.769.157-1.577.322-2.26.299 4.308-2.156 17.22-10.416 16.084-19.704z" fill="#FDC72B"/></svg>