<svg xmlns="http://www.w3.org/2000/svg" viewBox="2.84 48.38 277.79 186.71"><path fill="#D6D4D1" d="M2.835 48.376h277.794v186.712H2.835z"/><path fill="#D8121C" d="M5.11 171.318h273.237v61.478H5.11z"/><path fill="#04882F" d="M5.11 50.623h273.237v61.484H5.11z"/><path fill="#FDDD09" d="M5.11 112.115h273.253v59.202H5.11z"/><path d="M198.665 141.713c0 31.432-25.485 56.918-56.929 56.918-31.44 0-56.927-25.486-56.927-56.918 0-31.44 25.486-56.927 56.927-56.927 31.442-.001 56.929 25.486 56.929 56.927z" fill="#294B98"/><g fill="#FCDD05"><path d="M129.719 123.404l-15.14-20.851-1.607 1.169 15.147 20.843zM120.69 147.416l-24.505 7.954.611 1.891 24.514-7.963zM170.486 103.722l-1.599-1.169-15.14 20.851 1.6 1.161zM140.74 163.418h1.985v25.768h-1.985zM162.768 147.416l-.612 1.882 24.514 7.963.611-1.891z"/><path d="M158.069 144.074l-3.962-12.048-3.546.016 12.12 37.135 4.644 3.364-8.158-25.102 27.715-20.152c.078-.055.078-.125.078-.204-.047-.07-.102-.125-.172-.125h-5.193l-23.526 17.116z"/><path d="M148.961 126.957H136.19l-1.098 3.365h39.136l4.636-3.365H152.5l-10.6-32.601c-.023-.078-.102-.118-.173-.118-.078 0-.156.04-.18.118l-1.601 4.918 9.015 27.683z"/><path d="M100.797 130.323h29.056l-3.718 11.406 2.862 2.087 11.885-36.5-1.772-5.452-8.15 25.094H96.702a.202.202 0 00-.196.125c0 .079.008.149.094.204l4.197 3.036zM144.592 158.013l10.119-7.491-1.129-3.357-31.474 23.031-1.789 5.468 21.407-15.563 27.729 20.144c.047.039.07.039.104.039.04 0 .095 0 .134-.039.07-.047.07-.117.07-.195l-1.601-4.918-23.57-17.119z"/><path d="M127.147 149.55l9.806 7.153 2.87-2.07-31.103-22.694h-5.727l21.298 15.5-10.605 32.608c0 .08.039.148.109.195.031.021.07.039.109.039a.148.148 0 00.103-.039l4.11-2.979 9.03-27.713z"/></g></svg>