<svg xmlns="http://www.w3.org/2000/svg" viewBox="2.83 48.38 277.8 186.71"><path fill="#D6D4D1" d="M2.833 48.375H280.63v186.714H2.833z"/><path fill="#77B2DD" d="M5.202 50.706h273.24v182.165H5.202z"/><g fill="#FFF"><path d="M135.358 92.822l-3.766 11.603a.22.22 0 00.079.251.222.222 0 00.274 0l9.868-7.17 9.876 7.17a.179.179 0 00.126.047h.017a.229.229 0 00.228-.228.24.24 0 00-.039-.134l-3.749-11.539 9.868-7.177a.222.222 0 00.077-.251.22.22 0 00-.221-.157h-12.188l-3.772-11.602a.236.236 0 00-.22-.165c-.103 0-.181.071-.212.165l-3.718 11.602H125.63a.228.228 0 00-.219.157.22.22 0 00.078.251l9.869 7.177zM97.54 141.78l7.17-9.869c.055-.078.055-.188 0-.267s-.165-.117-.259-.086l-11.594 3.773-7.178-9.869c-.055-.086-.157-.117-.259-.086a.228.228 0 00-.157.22v12.199l-11.594 3.773a.224.224 0 00-.157.211c0 .103.063.188.157.22l11.594 3.773v12.198c0 .094.063.188.157.22.031.008.047.008.078.008a.21.21 0 00.181-.095l7.178-9.868 11.594 3.766c.031.008.047.017.078.017h.008a.229.229 0 00.228-.229.215.215 0 00-.086-.181l-7.139-9.828zM158.1 197.899l-9.829-7.153 3.766-11.595a.249.249 0 00-.078-.267.272.272 0 00-.268 0l-9.876 7.186-9.868-7.186a.284.284 0 00-.274 0 .248.248 0 00-.079.267l3.766 11.595-9.868 7.17c-.078.063-.11.172-.078.269a.226.226 0 00.219.155h12.198l3.773 11.596a.216.216 0 00.212.154.231.231 0 00.22-.154l3.772-11.596h12.206a.24.24 0 00.235-.234.224.224 0 00-.149-.207zM209.966 141.569l-11.603-3.773v-12.199a.23.23 0 00-.155-.22.224.224 0 00-.26.086l-7.171 9.869-11.603-3.773a.222.222 0 00-.252.086.212.212 0 000 .267l7.17 9.869-7.17 9.87a.22.22 0 000 .273c.049.078.156.109.252.078l11.603-3.766 7.171 9.868a.217.217 0 00.182.095c.031 0 .047 0 .078-.008a.236.236 0 00.156-.22v-12.198L209.966 142a.225.225 0 000-.431z"/></g></svg>