<svg xmlns="http://www.w3.org/2000/svg" viewBox="2.83 48.38 277.8 186.71"><path fill="#D6D4D1" d="M2.833 48.375H280.63v186.714H2.833z"/><path fill="#162B74" d="M5.124 50.666h273.239v182.166H5.124z"/><path fill="#FFF" d="M278.363 50.682h-32.837L141.743 119.87 37.961 50.682H5.124v21.885l103.783 69.188-103.783 69.19v21.887h32.837l103.782-69.189 103.783 69.189h32.837v-21.887l-103.781-69.19 103.781-69.188z"/><path fill="#CE102A" d="M5.124 50.682v10.934l136.619 91.091v-10.952zM278.363 221.896l-136.62-91.09v10.949l136.62 91.077z"/><path fill="#CE102A" d="M5.124 232.832h16.411l120.208-80.125v-10.952zM261.953 50.682l-120.21 80.138v10.951l136.605-91.089z"/><path fill="#CE142B" d="M278.363 125.816H153.134V50.682h-22.78v75.134H5.124v31.881h125.23v75.135h22.78v-75.135h125.229z"/><path fill="#FFF" d="M121.238 50.682V116.7H5.124v9.116h125.23V50.682zM5.124 166.795h116.114v66.037h9.116v-75.135H5.124zM278.363 157.697H153.134v75.135h9.116v-66.037h116.113zM278.363 116.7H162.25V50.682h-9.116v75.134h125.229z"/></svg>