<svg xmlns="http://www.w3.org/2000/svg" viewBox="2.83 48.38 277.8 186.71"><path fill="#D6D4D1" d="M2.834 48.375H280.63v186.714H2.834z"/><path d="M163.724 154.869c-4.473 7.452-12.551 12.488-21.886 12.488-9.319 0-17.399-5.036-21.886-12.488l-91.961 55.178h227.703l-91.97-55.178zM141.838 116.125c9.335 0 17.414 5.036 21.886 12.48l91.97-55.178H27.991l91.961 55.178c4.486-7.444 12.567-12.48 21.886-12.48z" fill="#FCD11A"/><path d="M163.724 128.604c2.322 3.852 3.734 8.315 3.734 13.132 0 4.825-1.412 9.281-3.734 13.132l91.97 55.178V73.428l-91.97 55.176z" fill="#047A5D"/><path d="M134.15 144.544l-4.66 14.371c0 .04.008.071.04.086.023.023.07.023.102 0l12.206-8.88 12.222 8.88c.023.017.031.017.047.017s.047 0 .055-.017c.032-.016.032-.047.032-.086l-4.668-14.371 12.206-8.872c.031-.023.031-.055.031-.086-.016-.04-.039-.063-.078-.063h-15.094l-4.675-14.355c-.023-.07-.125-.07-.156 0l-4.66 14.355h-15.093c-.047 0-.07.023-.094.063 0 .031.008.063.047.086l12.19 8.872z" fill="#FCD11A"/><path d="M141.838 116.125c-14.144 0-25.612 11.469-25.612 25.612 0 14.152 11.469 25.621 25.612 25.621 14.151 0 25.621-11.469 25.621-25.621-.001-14.143-11.47-25.612-25.621-25.612zm7.687 28.419l4.668 14.371c0 .04 0 .071-.031.086-.009.017-.039.017-.056.017s-.022 0-.047-.017l-12.222-8.88-12.206 8.88c-.031.023-.078.023-.102 0-.032-.016-.04-.047-.04-.086l4.66-14.371-12.19-8.872c-.039-.023-.047-.055-.047-.086.023-.04.047-.063.094-.063H137.1l4.66-14.355c.031-.07.133-.07.156 0l4.675 14.355h15.094c.039 0 .063.023.078.063 0 .031 0 .063-.031.086l-12.207 8.872z" fill="#CB061F"/><g fill="#FCD11A"><path d="M138.151 64.155l-2.244 6.903c0 .016 0 .032.016.04.016.016.031.016.048 0l5.867-4.268 5.867 4.268c.018.008.023.008.031.008 0 0 .018 0 .024-.008.016-.008.016-.023.016-.04l-2.243-6.903 5.859-4.268c.023-.008.023-.023.023-.039-.008-.023-.023-.031-.039-.031h-7.248l-2.246-6.903c-.016-.031-.07-.031-.078 0l-2.244 6.903h-7.256c-.023 0-.031.008-.039.031 0 .016 0 .031.016.039l5.87 4.268zM138.151 223.555l-2.244 6.903c0 .016 0 .029.016.039.016.016.031.016.048 0l5.867-4.269 5.867 4.269c.018.008.023.008.031.008 0 0 .018 0 .024-.008.016-.01.016-.023.016-.039l-2.243-6.903 5.859-4.267c.023-.01.023-.024.023-.041-.008-.022-.023-.031-.039-.031h-7.248l-2.246-6.902c-.016-.031-.07-.031-.078 0l-2.244 6.902h-7.256c-.023 0-.031.009-.039.031 0 .017 0 .031.016.041l5.87 4.267zM92.606 64.155l-2.244 6.903c0 .016.008.032.016.04.016.016.04.016.048 0l5.867-4.268 5.875 4.268c.017.008.024.008.024.008s.023 0 .031-.008c.016-.008.016-.023.016-.04l-2.243-6.903 5.859-4.268c.023-.008.023-.023.023-.039-.016-.023-.023-.031-.039-.031h-7.256l-2.244-6.903c-.016-.031-.063-.031-.078 0l-2.244 6.903H86.77c-.023 0-.031.008-.047.031 0 .016.008.031.023.039l5.86 4.268zM92.606 223.555l-2.244 6.903c0 .016.008.029.016.039.016.016.04.016.048 0l5.867-4.269 5.875 4.269c.017.008.024.008.024.008s.023 0 .031-.008c.016-.01.016-.023.016-.039l-2.243-6.903 5.859-4.267c.023-.01.023-.024.023-.041-.016-.022-.023-.031-.039-.031h-7.256l-2.244-6.902c-.016-.031-.063-.031-.078 0l-2.244 6.902H86.77c-.023 0-.031.009-.047.031 0 .017.008.031.023.041l5.86 4.267zM183.688 64.155l-2.243 6.903c0 .016.008.032.023.04.016.016.031.016.047 0l5.867-4.268 5.867 4.268c.017.008.017.008.03.008 0 0 .017 0 .017-.008.018-.008.018-.023.018-.04l-2.244-6.903 5.868-4.268c.017-.008.017-.023.017-.039 0-.023-.017-.031-.031-.031h-7.258l-2.242-6.903c-.016-.031-.069-.031-.077 0l-2.244 6.903h-7.256c-.017 0-.031.008-.031.031 0 .016 0 .031.017.039l5.855 4.268zM183.688 223.555l-2.243 6.903c0 .016.008.029.023.039.016.016.031.016.047 0l5.867-4.269 5.867 4.269c.017.008.017.008.03.008 0 0 .017 0 .017-.008.018-.01.018-.023.018-.039l-2.244-6.903 5.868-4.267c.017-.01.017-.024.017-.041 0-.022-.017-.031-.031-.031h-7.258l-2.242-6.902c-.016-.031-.069-.031-.077 0l-2.244 6.902h-7.256c-.017 0-.031.009-.031.031 0 .017 0 .031.017.041l5.855 4.267z"/></g><path d="M5.218 50.654v182.157h273.241V50.654H5.218zm172.625 9.163h7.257l2.243-6.903c.009-.031.064-.031.078 0l2.244 6.903h7.256c.017 0 .031.008.031.031 0 .016 0 .031-.017.039l-5.868 4.268 2.244 6.903c0 .016 0 .032-.018.04 0 .008-.017.008-.017.008-.016 0-.016 0-.03-.008l-5.867-4.268-5.867 4.268c-.018.016-.031.016-.049 0-.016-.008-.021-.023-.021-.04l2.243-6.903-5.858-4.268c-.017-.008-.017-.023-.017-.039.003-.022.018-.031.033-.031zm-45.536 0h7.256l2.244-6.903c.008-.031.063-.031.078 0l2.244 6.903h7.248c.018 0 .031.008.039.031 0 .016 0 .031-.021.039l-5.859 4.268 2.243 6.903c0 .016 0 .032-.016.04-.009.008-.024.008-.024.008-.008 0-.016 0-.029-.008l-5.869-4.268-5.867 4.268c-.017.016-.032.016-.048 0-.016-.008-.016-.023-.016-.04l2.244-6.903-5.868-4.268c-.016-.008-.016-.023-.016-.039.005-.022.013-.031.037-.031zm-45.537 0h7.248l2.244-6.903c.016-.031.063-.031.078 0l2.244 6.903h7.256c.016 0 .023.008.039.031 0 .016 0 .031-.023.039l-5.859 4.268 2.243 6.903c0 .016 0 .032-.016.04-.008.008-.023.008-.023.008s-.016 0-.032-.008l-5.875-4.268-5.867 4.268c-.008.016-.032.016-.048 0a.059.059 0 01-.016-.04l2.244-6.903-5.86-4.268a.042.042 0 01-.023-.039c.014-.022.022-.031.046-.031zm19.085 159.472l-5.859 4.268 2.243 6.902c0 .017 0 .03-.016.039-.008.008-.023.008-.023.008s-.016 0-.032-.008l-5.875-4.268-5.867 4.268c-.008.017-.032.017-.048 0a.058.058 0 01-.016-.039l2.244-6.902-5.86-4.268a.044.044 0 01-.023-.041c.016-.021.023-.031.047-.031h7.248l2.244-6.901c.016-.03.063-.03.078 0l2.244 6.901h7.256c.016 0 .023.01.039.031 0 .016 0 .032-.024.041zm45.538 0l-5.86 4.268 2.244 6.902c0 .017 0 .03-.016.039-.008.008-.024.008-.024.008-.008 0-.016 0-.03-.008l-5.868-4.268-5.867 4.268c-.017.017-.032.017-.048 0-.016-.009-.016-.022-.016-.039l2.244-6.902-5.868-4.268c-.016-.009-.016-.023-.016-.041.008-.021.016-.031.039-.031h7.256l2.244-6.901c.008-.03.063-.03.078 0l2.244 6.901h7.248c.018 0 .031.01.039.031 0 .016 0 .032-.023.041zm45.545 0l-5.868 4.268 2.244 6.902c0 .017 0 .03-.018.039 0 .008-.017.008-.017.008-.016 0-.016 0-.03-.008l-5.867-4.268-5.867 4.268c-.016.017-.031.017-.047 0a.042.042 0 01-.023-.039l2.243-6.902-5.858-4.268c-.017-.009-.017-.023-.017-.041a.03.03 0 01.03-.031h7.257l2.243-6.901c.009-.03.064-.03.078 0l2.244 6.901h7.256c.017 0 .031.01.031.031.001.016.001.032-.014.041zm58.748-9.243H27.983V73.419h227.703v136.627z" fill="#CB061F"/><path d="M48.143 130.73c-3.357-1.106-6.526-2.157-8.299-4.024-.094-.102-.251-.11-.361-.024s-.141.235-.07.353c1.357 2.291 1.129 5.883.902 9.68-.518 8.229-1.153 18.458 14.701 20.13.016.008.031.008.055.008h.008c.142-.017.267-.149.251-.298a.241.241 0 00-.125-.204c-3.091-3.555-5.193-9.406-5.083-14.073 4.746 1.491 9.853 6.095 12.127 9.79a.282.282 0 00.282.125.267.267 0 00.212-.22c2.831-15.46-6.834-18.668-14.6-21.243z" fill="#FCD11A"/><path d="M50.12 142.278c-.055 2.471.518 5.264 1.522 7.892 2.275 1.845 4.659 3.265 6.777 3.954a.474.474 0 00.11.008.296.296 0 00.141-.055c.079-.055.11-.141.11-.235-.172-2.243-.753-4.823-1.647-7.483-2.165-1.806-4.628-3.335-7.013-4.081z" fill="#CB061F"/><path d="M119.952 128.604L27.991 73.428v136.619l91.961-55.178c-2.314-3.852-3.727-8.308-3.727-13.132.001-4.817 1.413-9.28 3.727-13.133zm-57.21 23.37a.27.27 0 01-.212.22c-.109.016-.228-.031-.282-.125-1.129-1.843-2.965-3.906-5.114-5.703.894 2.66 1.475 5.24 1.647 7.476 0 .095-.031.181-.11.235a.318.318 0 01-.141.055c-.039 0-.079 0-.11-.008-2.118-.682-4.487-2.102-6.746-3.938.895 2.313 2.086 4.503 3.53 6.166.07.039.125.118.125.204.016.148-.109.281-.251.298h-.008c-.023 0-.039 0-.055-.008-15.854-1.672-15.218-11.9-14.701-20.13.228-3.797.455-7.39-.902-9.68-.071-.118-.04-.267.07-.353s.267-.078.361.024c1.773 1.867 4.942 2.918 8.299 4.024 7.767 2.574 17.432 5.782 14.6 21.243z" fill="#047A5D"/></svg>