<svg xmlns="http://www.w3.org/2000/svg" viewBox="2.84 48.38 277.79 186.71"><path fill="#D6D4D1" d="M2.835 48.375h277.794v186.714H2.835z"/><path fill="#E32121" d="M278.513 123.515H160.108V50.646h-36.429v72.869H5.275v36.429h118.404v72.867h36.429v-72.867h118.405z"/><path d="M237.439 80.73a.259.259 0 00-.204-.063c-.063.016-6.4.902-13.021 1.248.472-6.182 1.508-12.692 1.508-12.755.016-.078 0-.149-.063-.204a.224.224 0 00-.188-.094h-12.316a.224.224 0 00-.188.094c-.047.055-.077.125-.063.196.018.063.879 6.236 1.239 12.763-6.651-.353-12.69-1.232-12.757-1.248a.273.273 0 00-.202.063c-.048.047-.095.118-.095.188v12.316c0 .079.047.149.095.204a.31.31 0 00.22.047c.063-.008 6.291-1.114 12.771-1.553-.346 6.778-1.256 13.014-1.271 13.077-.018.071.018.142.063.196a.224.224 0 00.188.094h12.332a.252.252 0 00.251-.251.338.338 0 00-.029-.125c-.127-.738-1.162-6.778-1.556-12.959 6.274.455 13.021 1.514 13.085 1.521a.24.24 0 00.204-.055c.047-.047.095-.118.095-.196V80.918a.248.248 0 00-.098-.188z" fill="#E32121"/><path d="M160.108 50.64v72.875h118.404V50.64H160.108zm77.426 42.594a.291.291 0 01-.095.196.245.245 0 01-.204.055c-.063-.008-6.811-1.067-13.085-1.521.394 6.181 1.429 12.221 1.554 12.959a.252.252 0 01-.22.376H213.152a.223.223 0 01-.188-.094c-.047-.055-.078-.125-.063-.196.016-.063.926-6.299 1.271-13.077-6.48.439-12.709 1.545-12.771 1.553a.308.308 0 01-.22-.047c-.048-.055-.095-.125-.095-.204V80.918c0-.07.047-.141.095-.188a.277.277 0 01.204-.063c.063.016 6.104.895 12.755 1.248-.36-6.527-1.224-12.7-1.239-12.763-.016-.07.016-.141.063-.196a.228.228 0 01.188-.094h12.315c.078 0 .142.031.188.094.063.055.078.125.063.204 0 .063-1.035 6.574-1.508 12.755 6.621-.345 12.961-1.232 13.022-1.248a.259.259 0 01.204.063.233.233 0 01.094.188v12.316h.004z" fill="#FFF"/><path d="M237.439 190.027a.215.215 0 00-.204-.063c-.063.008-6.4.894-13.021 1.246.472-6.188 1.508-12.699 1.508-12.764a.203.203 0 00-.063-.203.237.237 0 00-.188-.086h-12.316a.237.237 0 00-.188.086.244.244 0 00-.063.203c.018.063.879 6.236 1.239 12.764-6.651-.36-12.69-1.238-12.757-1.246-.076-.018-.141.008-.202.063a.269.269 0 00-.095.188v12.315c0 .07.047.149.095.196.063.047.144.07.22.055.063-.008 6.291-1.121 12.771-1.561-.346 6.785-1.256 13.014-1.271 13.076-.018.07.018.147.063.203a.237.237 0 00.188.086h12.332a.246.246 0 00.251-.25c0-.039-.016-.086-.029-.125-.127-.729-1.162-6.777-1.556-12.959 6.274.463 13.021 1.521 13.085 1.527a.239.239 0 00.204-.063.27.27 0 00.095-.188v-12.313c-.003-.069-.035-.148-.098-.187z" fill="#E32121"/><path d="M160.108 159.944v72.858h118.404v-72.858H160.108zm77.426 42.587c0 .07-.048.149-.095.188a.254.254 0 01-.204.063c-.063-.01-6.811-1.066-13.085-1.529.394 6.182 1.429 12.229 1.554 12.959a.32.32 0 01.031.125c0 .142-.109.25-.251.25H213.152c-.077 0-.142-.03-.188-.086s-.078-.133-.063-.203c.016-.063.926-6.291 1.271-13.076-6.48.439-12.709 1.553-12.771 1.561a.278.278 0 01-.22-.055.307.307 0 01-.095-.195v-12.316c0-.069.047-.147.095-.188.063-.055.126-.078.204-.063.063.008 6.104.886 12.755 1.246-.36-6.525-1.224-12.699-1.239-12.762a.24.24 0 01.063-.205.24.24 0 01.188-.086h12.315c.078 0 .142.03.188.086a.208.208 0 01.063.205c0 .063-1.035 6.571-1.508 12.762 6.621-.354 12.961-1.238 13.022-1.246a.212.212 0 01.204.063c.063.039.094.117.094.188v12.314h.004z" fill="#FFF"/><path d="M82.606 190.027a.213.213 0 00-.204-.063c-.063.008-6.401.894-13.021 1.246.471-6.188 1.506-12.699 1.506-12.764a.203.203 0 00-.063-.203.235.235 0 00-.188-.086H58.319a.235.235 0 00-.188.086c-.047.055-.079.125-.063.203.016.063.878 6.236 1.24 12.764-6.652-.36-12.692-1.238-12.755-1.246-.079-.018-.141.008-.204.063a.272.272 0 00-.094.188v12.315c0 .07.047.149.094.196.063.047.141.07.219.055.063-.008 6.292-1.121 12.771-1.561-.345 6.785-1.255 13.014-1.271 13.076-.016.07.016.147.063.203.047.056.11.086.188.086h12.332a.247.247 0 00.251-.25.382.382 0 00-.031-.125c-.125-.729-1.161-6.777-1.553-12.959 6.276.463 13.022 1.521 13.084 1.527a.24.24 0 00.204-.063.27.27 0 00.094-.188v-12.313a.225.225 0 00-.094-.187z" fill="#E32121"/><path d="M5.275 159.944v72.858h118.404v-72.858H5.275zM82.7 202.531c0 .07-.047.149-.094.188a.253.253 0 01-.204.063c-.063-.01-6.809-1.066-13.084-1.529.392 6.182 1.428 12.229 1.553 12.959a.359.359 0 01.031.125c0 .142-.11.25-.251.25H58.319c-.078 0-.141-.03-.188-.086s-.079-.133-.063-.203c.016-.063.926-6.291 1.271-13.076-6.479.439-12.708 1.553-12.771 1.561a.274.274 0 01-.219-.055.31.31 0 01-.094-.195v-12.316a.28.28 0 01.094-.188c.063-.055.125-.078.204-.063.063.008 6.103.886 12.755 1.246-.361-6.525-1.224-12.699-1.24-12.762a.24.24 0 01.063-.205.235.235 0 01.188-.086h12.316c.079 0 .141.03.188.086a.208.208 0 01.063.205c0 .063-1.035 6.571-1.506 12.762 6.621-.354 12.959-1.238 13.021-1.246a.21.21 0 01.204.063c.063.039.094.117.094.188l.001 12.314z" fill="#FFF"/><path d="M82.606 80.73a.256.256 0 00-.204-.063c-.063.016-6.401.902-13.021 1.248.471-6.182 1.506-12.692 1.506-12.755.016-.078 0-.149-.063-.204a.223.223 0 00-.188-.094H58.319a.223.223 0 00-.188.094c-.047.055-.079.125-.063.196.016.063.878 6.236 1.24 12.763-6.652-.353-12.692-1.232-12.755-1.248a.276.276 0 00-.204.063c-.047.047-.094.118-.094.188v12.316c0 .079.047.149.094.204a.304.304 0 00.219.047c.063-.008 6.292-1.114 12.771-1.553-.345 6.778-1.255 13.014-1.271 13.077-.016.071.016.142.063.196.047.063.11.094.188.094h12.332a.253.253 0 00.22-.376c-.125-.738-1.161-6.778-1.553-12.959 6.276.455 13.022 1.514 13.084 1.521.079.016.141-.008.204-.055a.293.293 0 00.094-.196V80.918a.238.238 0 00-.094-.188z" fill="#E32121"/><path d="M5.275 50.64v72.875h118.404V50.64H5.275zM82.7 93.234a.29.29 0 01-.094.196c-.063.047-.125.07-.204.055-.063-.008-6.809-1.067-13.084-1.521.392 6.181 1.428 12.221 1.553 12.959a.253.253 0 01-.22.376H58.319a.223.223 0 01-.188-.094c-.047-.055-.079-.125-.063-.196.016-.063.926-6.299 1.271-13.077-6.479.439-12.708 1.545-12.771 1.553a.303.303 0 01-.219-.047c-.047-.055-.094-.125-.094-.204V80.918c0-.07.047-.141.094-.188a.276.276 0 01.204-.063c.063.016 6.103.895 12.755 1.248-.361-6.527-1.224-12.7-1.24-12.763-.016-.07.016-.141.063-.196a.223.223 0 01.188-.094h12.316c.079 0 .141.031.188.094.063.055.078.125.063.204 0 .063-1.035 6.574-1.506 12.755 6.621-.345 12.959-1.232 13.021-1.248a.256.256 0 01.204.063.233.233 0 01.094.188l.001 12.316z" fill="#FFF"/></svg>