<svg xmlns="http://www.w3.org/2000/svg" viewBox="2.84 48.38 277.79 186.71"><path fill="#D6D4D1" d="M2.835 48.376h277.794v186.712H2.835z"/><path fill="#CD0E26" d="M5.134 50.639h273.253v61.485H5.134z"/><path fill="#006B3E" d="M5.134 171.333h273.253v61.479H5.134z"/><path fill="#FCD11A" d="M5.149 112.131h273.253v59.201H5.149z"/><path d="M131.147 147.918l-6.464 19.846c0 .057.031.095.063.126.047.03.109.03.141 0l16.866-12.269 16.88 12.269c.031.022.048.022.078.022.017 0 .047 0 .08-.022.029-.031.029-.069.029-.126l-6.447-19.846 16.864-12.261c.048-.032.048-.079.048-.126-.031-.047-.063-.078-.109-.078h-20.865l-6.448-19.847c-.031-.094-.188-.094-.22 0l-6.433 19.847h-20.851c-.063 0-.094.031-.125.078 0 .047.016.094.063.126l16.85 12.261z"/></svg>