<svg xmlns="http://www.w3.org/2000/svg" viewBox="2.84 48.38 277.8 186.71"><path fill="#D6D4D1" d="M2.835 48.376H280.63v186.712H2.835z"/><path fill="#286FB2" d="M5.118 50.639v182.154l91.082-91.08z"/><path fill="#E1261A" d="M66.604 171.316L5.118 232.793h273.238v-61.477z"/><path fill="#FFF" d="M66.604 112.115L96.2 141.713l-29.596 29.603h211.769v-59.201z"/><path fill="#3D9A2C" d="M5.118 50.639l61.477 61.469h211.761V50.623"/><path d="M164.47 152.522l-1.286-6.222s-.164 2.369-2.212 3.892c-2.047 1.529-1.727 3.256-1.727 3.256s.604 0 1.727-.722c1.13-.723 1.326 1.043 1.326 1.043s-2.01 3.93-5.295 5.938c-3.295 2.008-10.246.847-10.246.847s0 1.2 1.24 1.404c1.254.204 2.377.965 1.498 1.727-.754.65-6.166.948-7.76 1.026-1.593-.078-6.998-.376-7.751-1.026-.879-.762.244-1.521 1.491-1.727 1.239-.204 1.239-1.404 1.239-1.404s-6.942 1.161-10.237-.847c-3.286-2.008-5.295-5.938-5.295-5.938s.196-1.766 1.326-1.043c1.122.722 1.726.722 1.726.722s.321-1.727-1.726-3.256c-2.048-1.521-2.213-3.892-2.213-3.892l-1.286 6.222s-.439 1.851.604 2.533c1.044.683 1.083.917 1.083.917l-.957 2.691s.761 3.577 4.691 5.099c3.938 1.529 9.476 2.009 9.476 2.009v1.482s.526 1.365 3.899 1.569c2.211.133 5.646.133 7.867 0 3.373-.204 3.898-1.569 3.898-1.569v-1.482s5.537-.479 9.477-2.009c3.931-1.521 4.697-5.099 4.697-5.099l-.965-2.691s.041-.234 1.084-.917c1.047-.682.607-2.533.607-2.533z" fill="#FFF"/><path d="M156.438 153.651v-30.35h-29.394v30.35s-.848 6.26 6.98 6.26c7.829 0 7.187.456 7.712 2.205.526-1.749-.118-2.205 7.719-2.205 7.83 0 6.983-6.26 6.983-6.26z" fill="#FFF"/><path d="M141.737 162.234a.118.118 0 01-.11-.079 7.202 7.202 0 01-.117-.439c-.338-1.333-.432-1.693-7.484-1.693-2.627 0-4.58-.698-5.788-2.087-1.616-1.844-1.318-4.205-1.303-4.299l-.008-30.334a.12.12 0 01.118-.118h29.394a.12.12 0 01.116.118v30.35c.009.079.307 2.439-1.31 4.283-1.207 1.389-3.154 2.087-5.789 2.087-7.062 0-7.146.36-7.494 1.693-.031.135-.07.283-.118.439a.113.113 0 01-.107.079zm-14.583-38.822v30.24c0 .04-.291 2.377 1.255 4.142 1.161 1.326 3.052 2 5.616 2 7.226 0 7.328.4 7.704 1.859 0 .016.008.022.008.032 0-.009.008-.017.008-.032.377-1.459.479-1.859 7.711-1.859 2.563 0 4.455-.674 5.625-2.008 1.545-1.765 1.246-4.095 1.246-4.119v-30.254h-29.173z"/><path d="M139.36 136.535s-.008.016-.039.039c-.165.157-.832.714-1.616.251 0 0 .855 1.796-.619 1.953-1.468.165-1.899-.823-1.899-.823s-.965.18-1.709-.62c0 0-.134 1.286-1.475 1.122-1.343-.157-1.021-.612-1.021-.612s-1.412-.109-1.467-.886c-.056-.776 1.286-.745 1.286-.745s.369-.776.769-.91c.408-.133 1.153.102 1.153.102s0-.313.298-.533c.291-.212.746.165.746.165s-.29-.588-.055-.808c.243-.211.722-.29.722-.29s-.636-.62-.636-1.208 1.122-1.043 1.122-1.043-.213-.29-.056-.8c.164-.51 1.209-.376 1.209-.376s-.221-.589.133-1.2c.346-.62 1.521-.565 1.521-.565s-.211-.109.079-.533c.297-.432.808-.267.808-.267s-.486-.486-.11-1.098c.377-.62 1.632-.267 1.632-.267s.62-1.773 2.628-.729c2.001 1.051 1.312 2.306 1.312 2.306s.822-.055 1.278.29c.462.353.673 1.043.673 1.043s.079-.345.346-.502c.27-.165.91 0 .91 0s.079-.62.455-.753c.377-.134 1.428-.134 1.693.965 0 0 .988-.243 1.477.345.479.589-.134 1.232-.134 1.232s1.39-.376 1.897.109c.51.479.432 1.71.432 1.71s1.632.031 1.602 1.42c-.022 1.388-1.099 1.341-1.099 1.341s0 1.067-.989 1.279c-.988.22-1.896-.181-1.896-.181s-.832.933-1.875.824c-1.054-.102-1.806-1.2-1.806-1.2s-.957.291-1.844-.267c-.888-.565-1.287-1.13-1.287-1.13l-1.766.777-1.475-.91s.095 1.749-1.365 1.176c-.878-.345.048.824.048.824" fill="#009B3B"/><path d="M143.4 150.875s-.745-4.864-.745-9.602c0-3.86 2.087-4.997 2.871-5.295a2.024 2.024 0 01-.329-.165 6.953 6.953 0 01-.77-.581c-.87.549-1.797 1.49-1.797 1.49s-.273 1.977-.377 4.331c-.109 2.361.213 10.951.213 10.951s.164 4.975.643 5.24c.479.274.645-.157.645-.157s.533.212 1.043.023c.511-.182.156-2.221-.398-3.051-.567-.823-.999-3.184-.999-3.184z" fill="#72442B"/><path d="M142.255 141.054c.103-2.354.375-4.331.375-4.331s.049-.047.119-.125c.063-.573.125-1.098.164-1.475l-.771.337-.965-.596-.022 1.733c.164.306.282.667.29 1.083.055 1.906.109 12.583.109 12.583s-.023 5.382-.242 6.261a2.178 2.178 0 01-.088.29l.009.141s.055.855.887.855c.468 0 .769-.322.94-.604-.447-.549-.597-5.201-.597-5.201s-.318-8.59-.208-10.951z" fill="#72442B"/><path d="M140.333 135.657c-.204.188-.518.274-1.028.07-.791-.313-.117.612.017.792.016.007.023.016.031.023l.008-.008-.008.008c1.192.996 1.113 1.083 1.138 6.95.023 6.448-2.118 11.798-2.118 11.798s-.854 1.475-.133 1.875c.722.4.909-.291.909-.291s.346.878.934.878 1.02-.345 1.232-1.23c.219-.879.242-6.261.242-6.261s-.055-10.675-.109-12.583c-.026-.97-.582-1.621-1.115-2.021z" fill="#A36628"/><path d="M154.453 133.021c-.393-.408-.988-.502-1.229-.525 0-.33-.017-1.263-.474-1.694-.397-.377-1.254-.282-1.709-.196.172-.298.273-.737-.047-1.129-.432-.525-1.19-.455-1.475-.408-.118-.384-.338-.659-.66-.831a1.582 1.582 0 00-1.16-.11c-.322.118-.455.518-.502.722-.212-.039-.65-.102-.879.039a.815.815 0 00-.291.307c-.107-.251-.305-.604-.604-.832-.354-.274-.901-.321-1.186-.321a1.418 1.418 0 000-.839c-.164-.557-.645-1.043-1.429-1.443-.689-.361-1.294-.439-1.812-.235-.557.22-.832.714-.926.926-.321-.079-1.31-.244-1.663.337a.981.981 0 00-.039 1.012.817.817 0 00-.659.345c-.126.196-.188.36-.173.486-.36.016-1.145.11-1.436.62-.259.462-.227.91-.18 1.137-.329-.015-1.021.008-1.169.463-.11.369-.056.644.008.785-.299.141-1.083.557-1.083 1.098 0 .455.338.91.541 1.137-.172.047-.423.134-.58.275-.173.157-.149.416-.095.628-.18-.079-.407-.126-.595.007a.874.874 0 00-.323.486c-.234-.063-.761-.181-1.09-.07-.376.125-.705.698-.808.902-.22.008-.847.055-1.153.377a.637.637 0 00-.18.494c.055.722 1.066.926 1.443.973a.327.327 0 00.022.165c.11.235.479.392 1.122.471.439.047.8-.039 1.082-.259.283-.228.417-.549.472-.753a2.052 2.052 0 001.584.51c.126.227.58.839 1.647.839.103 0 .212-.008.329-.016.4-.047.683-.204.832-.487.243-.423.103-1.02-.016-1.357.675.235 1.231-.165 1.443-.36.997.839.997 1.043 1.012 5.694v1.105c.024 6.354-2.086 11.704-2.094 11.743-.024.04-.581 1.004-.409 1.624a.64.64 0 00.314.407.937.937 0 00.463.142c.235 0 .4-.134.502-.275.149.283.471.737.934.737.486 0 .848-.22 1.09-.65.103.321.369.705.951.705.382 0 .712-.195.97-.563a.706.706 0 00.309.086.47.47 0 00.408-.22c.107.031.306.079.531.079.174 0 .347-.032.494-.086.117-.048.205-.149.26-.313.203-.636-.117-2.188-.604-2.91-.541-.8-.972-3.115-.972-3.138-.011-.047-.755-4.918-.755-9.585 0-3.688 1.906-4.84 2.763-5.17a2.567 2.567 0 001.476.102c.18.251.879 1.09 1.836 1.192.939.094 1.703-.596 1.914-.808.241.094 1.026.345 1.892.165.87-.188 1.043-.997 1.073-1.287.147-.015.438-.078.684-.306.268-.25.415-.635.423-1.145.012-.405-.113-.742-.365-1.001zm-14.371 24.624c-.502 0-.824-.809-.832-.816a.108.108 0 00-.102-.07h-.008a.128.128 0 00-.102.086s-.095.338-.393.338a.785.785 0 01-.354-.11.433.433 0 01-.203-.274c-.149-.525.376-1.436.392-1.459.016-.055 2.142-5.452 2.118-11.845v-1.114c-.016-4.737-.016-4.958-1.146-5.898 0-.007 0-.007-.008-.016 0 0 0-.008-.007-.016-.017-.008-.024-.016-.04-.023-.274-.361-.377-.597-.353-.644h.032c.016 0 .039.008.063.016h.023c.023.007.063.023.102.039.439.172.793.165 1.06-.032h.008c.314.243.557.526.722.832a2.274 2.274 0 01.282 1.051c.056 1.875.103 12.465.11 12.574l-.017 1.083c-.015 1.608-.077 4.534-.227 5.154v.008c-.024.095-.047.188-.078.268v.008c-.203.585-.541.86-1.042.86zm.416-22.004c.211-.267.274-.651.289-.886l.275.172-.016 1.287a3.425 3.425 0 00-.548-.573zm1.624 22.058c-.714 0-.769-.721-.769-.753l-.009-.118c.031-.086.056-.172.078-.275.221-.886.243-6.07.252-6.291 0-.03-.009-.886-.017-2.148-.015-3.232-.054-9.084-.094-10.434 0-.102-.016-.196-.023-.291l-.047-.211a.234.234 0 00-.016-.071c-.017-.086-.048-.172-.078-.259l-.008-.008a1.303 1.303 0 00-.118-.259v-.008l.016-1.506.793.494a.171.171 0 00.108.008l.589-.259c-.039.337-.086.769-.141 1.231-.057.055-.086.094-.096.094-.017.023-.022.047-.029.07 0 .016-.268 2.008-.378 4.346-.102 2.33.212 10.864.221 10.951v.055c.022.823.108 2.745.298 4.04.078.502.164.91.274 1.106-.156.238-.413.496-.806.496zm1.756-22.874c.063.079.188.22.36.393a11 11 0 00-1.342 1.083c.047-.423.086-.8.117-1.098l.865-.378zm1.366 1.146c-.965.447-2.707 1.741-2.707 5.303 0 4.689.746 9.569.754 9.625.017.094.438 2.392 1.013 3.23.446.659.762 2.126.571 2.707-.021.063-.056.149-.117.172a1.2 1.2 0 01-.416.071c-.305 0-.541-.094-.549-.094-.022-.017-.056-.017-.086 0-.031.008-.047.032-.063.063 0 0-.063.172-.243.172a.484.484 0 01-.233-.07c-.008-.007-.008-.017-.019-.023-.29-.368-.479-2.901-.558-4.746 0-.125-.008-.259-.008-.384-.008-.008-.016-.228-.021-.604-.057-1.624-.213-6.157-.213-8.842-.01-.61 0-1.128.018-1.489.102-2.149.338-4.001.367-4.291a.837.837 0 00.096-.086c.26-.251.939-.886 1.592-1.31.096.079.205.165.322.259.016.015.03.023.047.039a6.103 6.103 0 00.453.298zm8.998-.973c-.275.259-.621.243-.629.243a.116.116 0 00-.086.032.157.157 0 00-.031.086c0 .039-.016.98-.901 1.168-.94.205-1.818-.172-1.826-.18-.047-.016-.104-.008-.136.031-.008.008-.809.895-1.771.793-.986-.103-1.718-1.146-1.727-1.153-.022-.047-.077-.063-.125-.047-.008 0-.715.211-1.45-.103a1.622 1.622 0 01-.3-.157 5.262 5.262 0 01-.359-.244c-.021-.023-.047-.039-.079-.063-.101-.079-.211-.165-.313-.259-.338-.298-.502-.525-.502-.525-.03-.047-.086-.063-.143-.04l-1.71.753-1.419-.878a.11.11 0 00-.118 0 .115.115 0 00-.055.102c0 .008.023.706-.321 1.02a.353.353 0 01-.134.086c-.016.008-.023.016-.039.023a.842.842 0 01-.148.032c-.024 0-.039.008-.063.008-.047 0-.102-.008-.157-.016-.022 0-.055 0-.078-.008a1.308 1.308 0 01-.267-.079 1.45 1.45 0 00-.165-.055h-.008a.588.588 0 00-.118-.016h-.015-.008c-.023 0-.047 0-.071.007h-.007a.22.22 0 00-.063.032.165.165 0 00-.039.047l-.023.023c-.009.016-.009.032-.016.047v.008a.5.5 0 00.023.204.417.417 0 00.039.094c.071.18.196.368.314.518-.221.188-.785.581-1.436.196a.11.11 0 00-.135.015c-.039.032-.047.087-.022.134 0 .007.423.902.133 1.419-.118.212-.337.33-.658.369-1.374.149-1.773-.722-1.789-.761-.016-.047-.055-.07-.103-.07h-.022c-.008.007-.91.172-1.608-.581-.031-.032-.078-.039-.117-.032a.134.134 0 00-.079.102s-.056.51-.432.808c-.235.188-.541.259-.91.211-.744-.086-.91-.266-.94-.337-.024-.055 0-.094 0-.094.022-.039.03-.086.015-.118a.139.139 0 00-.094-.071c-.016 0-1.325-.102-1.373-.776a.403.403 0 01.117-.322c.299-.313 1.044-.306 1.053-.306.055.008.086-.023.108-.063.095-.204.417-.753.707-.847.298-.102.878.039 1.082.102.031.016.071.008.103-.016.022-.023.047-.055.047-.094 0 0 0-.259.243-.439.219-.157.611.157.611.157a.117.117 0 00.142 0c.047-.031.055-.094.031-.141-.078-.165-.212-.549-.078-.667.212-.188.658-.267.666-.267.04-.008.079-.04.086-.078.017-.04 0-.087-.022-.118-.008 0-.612-.589-.612-1.122 0-.416.761-.816 1.052-.934a.138.138 0 00.069-.078.128.128 0 00-.015-.095c-.008-.015-.181-.259-.039-.706.109-.337.816-.329 1.082-.291a.14.14 0 00.103-.047.116.116 0 00.016-.11c0-.008-.189-.549.125-1.106.313-.549 1.412-.51 1.428-.51.039 0 .102-.032.118-.079.008-.055-.008-.11-.063-.133-.022-.016-.047-.118.118-.369.243-.353.659-.227.675-.227.055.015.109 0 .133-.047a.11.11 0 00-.016-.142.77.77 0 01-.086-.957c.321-.533 1.49-.22 1.498-.211.063.015.117-.016.142-.079 0 0 .235-.643.839-.878.455-.181.998-.102 1.625.22.724.376 1.16.816 1.312 1.31.147.471-.047.832-.047.839a.119.119 0 00.008.118.104.104 0 00.104.047s.791-.047 1.207.275c.416.322.629.98.629.989a.115.115 0 00.107.078.112.112 0 00.109-.086s.07-.306.299-.439c.165-.102.588-.047.823.016.03.007.063 0 .086-.016a.145.145 0 00.056-.078c.016-.157.125-.572.377-.659.195-.07.619-.102.979.087.282.157.479.423.563.792a.118.118 0 00.141.087c.01 0 .928-.22 1.357.306.407.51-.109 1.059-.134 1.083a.138.138 0 00-.017.141c.031.04.078.063.127.047.375-.094 1.418-.274 1.796.079.463.439.392 1.616.392 1.624 0 .031.008.063.032.086.022.023.047.039.078.039.008 0 .761.016 1.192.463.211.212.313.494.306.839-.013.444-.13.773-.356.985z"/><path fill="#FFD600" d="M143.298 116.202l.7 1.318-.786 1.263 1.491.055.697 1.31.785-1.263 1.49.055-.697-1.318.784-1.263-1.483-.047-.697-1.318-.793 1.263z"/><path d="M145.582 114.994l.697 1.318 1.482.047-.784 1.263.698 1.318-1.491-.055-.784 1.263-.697-1.31-1.49-.055.785-1.263-.699-1.318 1.49.055.793-1.263m.022-.604l-.282.447-.697 1.114-1.311-.047-.525-.016.242.463.62 1.153-.698 1.122-.272.439.524.023 1.312.039.618 1.168.242.463.283-.447.689-1.114 1.316.039.519.023-.242-.462-.612-1.161.69-1.114.274-.447-.52-.016-1.313-.047-.617-1.161-.24-.461z"/><path fill="#FFD600" d="M150.978 116.838l.408 1.428-1.036 1.074 1.442.361.418 1.435 1.027-1.074 1.444.36-.409-1.435 1.036-1.067-1.444-.361-.407-1.435-1.036 1.074z"/><path d="M153.457 116.124l.407 1.436 1.443.361-1.035 1.067.408 1.435-1.443-.361-1.026 1.075-.418-1.436-1.441-.361 1.036-1.074-.408-1.428 1.442.361 1.035-1.075m.142-.588l-.361.384-.918.941-1.271-.313-.51-.125.143.502.359 1.263-.91.941-.358.376.511.126 1.27.322.361 1.263.148.51.359-.384.918-.941 1.271.314.512.125-.144-.502-.36-1.263.91-.941.36-.376-.511-.133-1.271-.313-.358-1.263-.15-.513z"/><path fill="#FFD600" d="M158.595 118.571l.078 1.483-1.248.808 1.326.682.079 1.483 1.248-.808 1.325.675-.07-1.483 1.247-.816-1.327-.674-.078-1.491-1.254.816z"/><path d="M161.175 118.43l.078 1.49 1.326.675-1.246.816.068 1.482-1.324-.675-1.248.809-.078-1.483-1.326-.682 1.248-.808-.078-1.482 1.326.675 1.254-.817m.276-.541l-.438.29-1.106.714-1.168-.596-.471-.236.029.518.063 1.318-1.099.714-.439.283.471.243 1.168.596.063 1.31.03.526.439-.283 1.104-.722 1.169.596.463.243-.021-.525-.063-1.31 1.099-.722.438-.283-.472-.235-1.168-.596-.07-1.318-.021-.525z"/><path fill="#FFD600" d="M140.175 116.202l-.697 1.318.784 1.263-1.491.055-.697 1.31-.785-1.263-1.491.055.699-1.318-.785-1.263 1.483-.047.698-1.318.792 1.263z"/><path d="M137.893 114.994l-.698 1.318-1.482.047.784 1.263-.698 1.318 1.49-.055.785 1.263.697-1.31 1.491-.055-.784-1.263.697-1.318-1.49.055-.792-1.263m-.016-.604l.274.447.698 1.114 1.311-.047.525-.016-.243.463-.62 1.153.698 1.122.274.439-.518.023-1.317.039-.62 1.168-.244.463-.274-.447-.697-1.114-1.311.039-.525.023.243-.462.611-1.161-.689-1.114-.275-.447.518-.016 1.311-.047.619-1.161.251-.461z"/><path fill="#FFD600" d="M132.512 116.838l-.409 1.428 1.028 1.074-1.443.361-.408 1.435-1.035-1.074-1.444.36.408-1.435-1.036-1.067 1.444-.361.408-1.435 1.035 1.074z"/><path d="M130.025 116.124l-.408 1.436-1.443.361 1.036 1.067-.408 1.435 1.443-.361 1.035 1.075.408-1.436 1.443-.361-1.028-1.074.409-1.428-1.452.361-1.035-1.075m-.141-.588l.36.384.918.941 1.271-.313.51-.125-.141.502-.361 1.263.91.941.361.376-.511.126-1.271.322-.361 1.263-.148.51-.361-.384-.918-.941-1.27.314-.511.125.141-.502.361-1.263-.909-.941-.361-.376.51-.133 1.271-.313.361-1.263.149-.513z"/><path fill="#FFD600" d="M124.887 118.571l-.079 1.483 1.247.808-1.325.682-.079 1.483-1.247-.808-1.325.675.071-1.483-1.24-.816 1.318-.674.077-1.491 1.256.816z"/><path d="M122.305 118.43l-.077 1.49-1.318.675 1.24.816-.071 1.482 1.325-.675 1.247.809.079-1.483 1.325-.682-1.247-.808.079-1.482-1.326.675-1.256-.817m-.273-.541l.439.29 1.105.714 1.169-.596.471-.236-.032.518-.062 1.318 1.098.714.439.283-.463.243-1.177.596-.063 1.31-.031.526-.439-.283-1.106-.722-1.169.596-.462.243.022-.525.071-1.31-1.106-.722-.439-.283.471-.235 1.169-.596.071-1.318.024-.525z"/><path d="M136.716 160.57c0 .148-.087 1.2-1.239 1.389-1.247.204-2.37.965-1.491 1.727.307.259 1.342.463 2.589.619l.032-.055.109-3.68zM121.184 153.769s.573 1.122 1.608 2.479l.023-.022 1.42-2.777s-.604 0-1.726-.722c-1.129-.723-1.325 1.042-1.325 1.042zM146.757 160.57c.009.148.086 1.2 1.24 1.389 1.254.204 2.377.965 1.498 1.727-.3.259-1.352.463-2.599.619l-.03-.055-.109-3.68zM162.298 153.769s-.573 1.122-1.608 2.479l-.022-.022-1.42-2.777s.604 0 1.727-.722c1.127-.723 1.323 1.042 1.323 1.042z" fill="#FFF"/><path d="M164.58 152.499l-1.285-6.221c-.008-.056-.057-.094-.119-.086-.053 0-.102.047-.107.103 0 .023-.181 2.337-2.156 3.813-2.078 1.545-1.787 3.287-1.772 3.364 0 0 .008 0 .008.009v.022l1.396 2.738c-.885 1.161-2.117 2.471-3.601 3.373-1.265.769-3.216 1.161-5.805 1.161-2.329 0-4.339-.329-4.361-.329-.032-.008-.063 0-.094.022a.125.125 0 00-.039.086v.025l.108 3.631c-1.451.173-3.287.307-5.004.384-1.727-.077-3.569-.211-5.021-.384l.11-3.631v-.008-.017a.134.134 0 00-.039-.086c-.032-.022-.063-.031-.095-.022-.023 0-2.023.329-4.346.329-2.597 0-4.55-.393-5.813-1.161-1.482-.902-2.705-2.212-3.601-3.373l1.396-2.738v-.022l.008-.009c.017-.078.313-1.819-1.772-3.364-1.977-1.476-2.157-3.789-2.157-3.813-.008-.055-.055-.103-.109-.103-.056-.008-.103.03-.117.086l-1.288 6.221c-.015.079-.446 1.93.652 2.651.8.518.987.769 1.026.832l-.948 2.644c-.009.023-.009.047-.009.063.009.04.824 3.655 4.771 5.185 3.608 1.396 8.62 1.93 9.405 2v1.381c0 .017 0 .031.008.047.016.055.58 1.436 3.993 1.64a71.07 71.07 0 003.938.094c1.467 0 2.864-.031 3.938-.094 3.421-.204 3.984-1.585 4.009-1.64 0-.016.008-.031.008-.047v-1.381c.776-.07 5.789-.604 9.397-2 3.945-1.529 4.762-5.146 4.77-5.185 0-.017 0-.039-.008-.063l-.949-2.644c.047-.071.252-.321 1.028-.832 1.093-.723.662-2.573.646-2.651zm-5.155 1.043c.025-.008.048-.008.08-.016.008 0 .016-.007.021-.007a.802.802 0 00.174-.048c.022-.008.039-.008.055-.016.056-.016.117-.039.182-.063.023-.009.039-.017.063-.023.08-.031.174-.07.269-.118l.056-.022c.088-.048.174-.086.26-.142l.094-.047c.117-.063.236-.134.361-.22.166-.103.305-.157.438-.157.52 0 .684.902.706 1.083-.095.188-.619 1.146-1.481 2.299l-1.278-2.503zm-12.534 7.843c.055.079.118.165.188.235l.008.008c.039.039.078.071.117.103a.067.067 0 00.03.03c.031.023.07.048.109.07.017.017.03.023.047.032.03.022.069.039.108.063.023.009.039.017.063.024.04.016.087.031.134.047.023.007.039.015.063.023.07.023.142.04.221.047.871.142 1.585.534 1.695.94.054.196-.032.394-.26.589-.018.016-.031.023-.047.039-.01.009-.019.009-.024.017-.015.008-.022.008-.03.016-.26.142-.879.321-2.338.51l-.084-2.793zm-10.308 0l-.086 2.793h-.032c-.086-.016-.172-.023-.258-.04h-.024c-1.223-.172-1.772-.337-2.008-.471-.016-.008-.022-.008-.039-.016-.008-.007-.016-.007-.022-.017-.017-.015-.032-.022-.049-.039-.227-.195-.313-.393-.258-.589.11-.407.824-.8 1.687-.94a.936.936 0 00.22-.047c.023-.009.039-.017.063-.023.047-.008.094-.032.133-.047.024-.008.039-.016.063-.024.039-.022.078-.039.109-.063.016-.008.04-.017.055-.032.032-.022.071-.047.103-.07a.065.065 0 00.031-.03c.048-.031.078-.063.117-.103l.009-.008a1.91 1.91 0 00.186-.234zm-13.799-5.341c-.862-1.152-1.388-2.11-1.482-2.299 0-.007 0-.023.009-.039.039-.251.212-1.043.698-1.043.133 0 .274.055.438.157.126.086.243.157.361.22l.094.047c.087.056.181.094.26.142.015.008.039.016.054.022.095.047.188.086.275.118.015.008.039.016.055.023.063.023.126.047.181.063.016.008.039.008.055.016a.855.855 0 00.173.048c.008 0 .016.007.023.007.031.008.056.008.078.016l-1.272 2.502zm-3.106-1.083c-.965-.635-.557-2.393-.549-2.416l1.16-5.632c.189.824.722 2.306 2.15 3.373 1.679 1.247 1.718 2.644 1.693 3.036h-.007c-.008 0-.016 0-.024-.008a.482.482 0 01-.094-.016c-.016-.008-.031-.008-.047-.016a.643.643 0 01-.118-.031c-.023-.008-.039-.008-.055-.016-.07-.024-.141-.047-.22-.078-.008-.008-.023-.008-.031-.016a1.661 1.661 0 01-.22-.095c-.031-.016-.063-.03-.086-.047-.07-.031-.142-.071-.22-.109-.032-.016-.063-.031-.094-.056-.11-.063-.229-.126-.346-.204-.204-.133-.393-.195-.564-.195-.769 0-.926 1.238-.941 1.316l-.424 1.954c-.147-.163-.43-.398-.963-.744zm.18 3.71l.95-2.659c0-.008.007-.008.007-.008l.417-1.914c.227.416.736 1.264 1.474 2.229h.009c.909 1.191 2.173 2.557 3.71 3.491 1.302.792 3.295 1.191 5.931 1.191 1.984 0 3.733-.234 4.236-.313v.039c-.009.008-.009.023-.009.031a.961.961 0 00-.022.103.585.585 0 00-.024.079.14.14 0 01-.016.054.848.848 0 01-.078.173c-.023.055-.056.103-.086.149-.009.008-.009.016-.017.023-.031.047-.078.095-.117.142l-.023.022a3.34 3.34 0 01-.164.125.193.193 0 00-.04.023 1.1 1.1 0 01-.22.109c-.008 0-.023.009-.039.009-.086.031-.173.063-.282.079-.809.125-1.702.518-1.868 1.098a.74.74 0 00-.022.196v.016l.228 2.487c-.855-.086-5.774-.612-9.312-1.985-3.642-1.411-4.537-4.635-4.623-4.989zm25.809 10.041c-1.076.063-2.473.094-3.932.094s-2.855-.031-3.93-.094c-3.036-.181-3.711-1.333-3.782-1.481v-1.42-.048l-.188-2.07a.348.348 0 00.079.079c.03.022.069.055.108.078a.649.649 0 00.056.022l.094.048c.056.023.118.047.181.07.016 0 .023.008.04.016.235.079.548.149.933.221.039.007.079.016.118.022.055.007.11.023.172.031.126.023.26.04.393.063h.031c1.836.268 4.354.416 5.703.479 1.341-.063 3.86-.212 5.696-.479h.017c.143-.022.273-.039.398-.063.063-.008.118-.024.173-.031.039-.008.089-.016.125-.022.394-.071.699-.142.937-.221.015-.008.021-.016.039-.016.063-.023.125-.047.18-.07l.095-.048.056-.022c.039-.023.078-.056.109-.078a.344.344 0 00.078-.079l-.188 2.07v1.468c-.072.155-.748 1.301-3.791 1.481zm17.956-10.041c-.086.354-.979 3.577-4.61 4.989-3.548 1.373-8.466 1.898-9.319 1.985l.235-2.487c0-.008-.009-.016-.009-.016.009-.079-.01-.142-.022-.196-.165-.581-1.06-.974-1.875-1.099a1.93 1.93 0 01-.28-.078c-.018 0-.033-.009-.039-.009-.08-.03-.158-.07-.222-.109-.009-.008-.017-.008-.022-.017a1.2 1.2 0 01-.433-.485s-.008 0-.008-.008c-.022-.056-.047-.11-.071-.165v-.009c-.029-.102-.055-.188-.063-.267v-.008c.502.071 2.259.306 4.252.306 2.628 0 4.619-.399 5.923-1.191 1.537-.935 2.8-2.3 3.71-3.483 0 0 .008-.008.018-.008a19.786 19.786 0 001.467-2.229l.424 1.914v.008l.944 2.662zm.181-3.71c-.534.346-.816.581-.967.746l-.422-1.954c-.008-.078-.164-1.316-.941-1.316-.174 0-.361.063-.559.195-.125.078-.242.142-.346.204a.818.818 0 01-.104.056c-.077.038-.146.078-.219.109-.022.017-.057.031-.086.047-.078.04-.148.071-.221.095-.008.008-.023.016-.031.016a3.685 3.685 0 01-.22.078c-.017.008-.03.008-.047.016a.698.698 0 01-.126.031c-.016.008-.031.008-.048.016-.039.009-.069.016-.101.016 0 0-.01.008-.019.008h-.009c-.022-.394.018-1.789 1.695-3.036 1.426-1.066 1.961-2.549 2.147-3.373l1.17 5.64c.011.014.419 1.771-.546 2.406z"/><g><path d="M124.166 159.589l-1.114.792a.786.786 0 01-.393.157.724.724 0 01-.4-.094 1.103 1.103 0 01-.344-.321c-.157-.228-.229-.438-.196-.644.022-.196.133-.369.329-.511l1.114-.792.258.368-1.059.745c-.125.094-.204.188-.228.291-.031.094.008.204.095.329.086.118.172.181.273.196.103.008.221-.039.354-.133l1.051-.745.26.362z"/><path d="M124.275 162.375l-.446-.361.29-1.819-.008-.008a7.784 7.784 0 01-.361.485l-.62.776-.313-.25 1.325-1.648.439.354-.282 1.812.017.009c.156-.229.274-.385.344-.472l.628-.775.314.251-1.327 1.646zM124.746 162.625l1.052-1.835.392.229-1.052 1.827-.392-.221zM127.625 162.805c-.134.314-.329.525-.58.62-.251.096-.55.063-.895-.079l-.557-.234.823-1.945.612.259c.313.135.525.322.635.565.103.243.095.509-.038.814zm-.431-.173c.18-.416.078-.706-.291-.862l-.22-.095-.533 1.271.181.071c.399.174.681.04.863-.385zM128.879 164.256l-.016-.524-.737-.196-.282.447-.463-.134 1.271-1.852.525.148.174 2.235-.472-.124zm-.015-.91a24.46 24.46 0 01-.03-.808v-.149c-.063.11-.229.378-.503.81l.533.147zM131.516 163.636c-.056.347-.196.59-.425.746-.219.149-.518.196-.886.142l-.589-.095.329-2.086.652.103c.337.055.587.188.753.392.157.21.213.478.166.798zm-.464-.061c.071-.447-.094-.698-.486-.761l-.235-.04-.219 1.356.195.031c.424.065.675-.124.745-.586z"/></g><g><path d="M150.908 165.127c-.103 0-.197-.007-.268-.022l-.016-.376c.078.022.147.03.211.022.103 0 .174-.031.213-.094.039-.063.055-.157.055-.29l-.063-1.977.445-.017.063 1.978c.01.242-.047.438-.146.563-.11.134-.276.207-.494.213zM153.677 162.187l.133 1.364a.726.726 0 01-.063.416.64.64 0 01-.275.299.974.974 0 01-.454.141c-.269.031-.485-.016-.651-.141-.156-.125-.25-.307-.281-.55l-.135-1.349.439-.047.134 1.286c.017.165.063.274.134.345.078.071.188.094.336.086a.428.428 0 00.307-.147c.057-.087.078-.204.064-.369l-.135-1.287.447-.047zM155.623 163.378a.531.531 0 01-.119.486c-.116.133-.289.22-.531.267a1.328 1.328 0 01-.611-.016l-.076-.408c.154.04.28.055.383.063a.975.975 0 00.273-.009.421.421 0 00.211-.102.222.222 0 00.049-.18.26.26 0 00-.056-.103.72.72 0 00-.118-.07c-.055-.017-.146-.048-.298-.087a1.497 1.497 0 01-.319-.117.884.884 0 01-.188-.165.564.564 0 01-.103-.244.567.567 0 01.103-.47.809.809 0 01.485-.252c.108-.022.211-.03.32-.022.104.008.213.022.321.047l-.069.368a1.813 1.813 0 00-.299-.039.694.694 0 00-.221.016.319.319 0 00-.182.095.24.24 0 00-.039.165c.008.04.024.069.047.094a.6.6 0 00.104.071c.047.016.147.047.308.086.211.055.367.126.455.203a.598.598 0 01.17.323zM157.011 163.614l-.432.126-.479-1.671-.55.157-.109-.361 1.537-.439.104.361-.549.157.478 1.67zM157.982 163.285l-.775-1.961.416-.165.776 1.961-.417.165zM158.964 160.868a.464.464 0 00-.252.354c-.017.157.031.338.142.533.235.408.502.526.81.354a1.55 1.55 0 00.416-.361l.188.329a1.46 1.46 0 01-.455.376c-.269.149-.519.189-.753.102-.229-.077-.434-.273-.604-.58a1.393 1.393 0 01-.183-.557.842.842 0 01.118-.502 1.02 1.02 0 01.395-.376c.18-.094.377-.157.609-.172l.048.392c-.087 0-.173.016-.252.031a.655.655 0 00-.227.077zM160.861 161.7l-1.38-1.601.337-.299 1.383 1.601-.34.299zM162.564 159.652l-.51-.133-.408.65.346.4-.252.408-1.402-1.758.289-.463 2.188.486-.251.41zm-.886-.243a29.636 29.636 0 01-.776-.204.815.815 0 01-.141-.047c.086.094.297.337.627.722l.29-.471z"/></g><g><path d="M140.293 166.485c-.031.282-.141.485-.329.61-.188.135-.439.182-.761.149l-.236-.032-.094.926-.549-.055.267-2.589.823.086c.314.031.55.125.699.274.149.151.204.364.18.631zm-1.278.283l.181.022c.164.017.298-.008.384-.063.095-.063.142-.148.156-.282.017-.125-.007-.228-.078-.291-.063-.07-.164-.109-.313-.125l-.251-.031-.079.77zM142.333 168.321l-.183-.62-.949-.008-.196.611-.589-.008.949-2.596.675.008.886 2.62-.593-.007zm-.306-1.083l-.283-.957a1.299 1.299 0 00-.047-.173c-.04.148-.157.524-.345 1.122l.675.008zM145.119 168.125l-1.932.181-.029-.353 1.073-1.898-1.208.118-.039-.455 1.859-.172.031.354-1.074 1.897 1.27-.118.049.446z"/></g></svg>