<svg xmlns="http://www.w3.org/2000/svg" viewBox="2.84 48.38 277.79 186.71"><path fill="#D6D4D1" d="M2.835 48.376h277.794v186.712H2.835z"/><path fill="#1C5EA6" d="M106.695 50.835h171.677v20.152H106.695z"/><path fill="#FFF" d="M106.695 70.987h171.677v20.152H106.695z"/><path fill="#1C5EA6" d="M106.695 91.139h171.677v20.152H106.695z"/><path fill="#FFF" d="M106.695 111.292h171.677v20.153H106.695z"/><path fill="#1C5EA6" d="M106.695 131.445h171.677v20.944H106.695z"/><path fill="#FFF" d="M65.967 152.389v-41.097h40.713V91.139H65.967V50.435H45.823v40.704H5.126v20.153h40.697v41.097H5.126v20.152h273.246v-20.152z"/><g fill="#1C5EA6"><path d="M65.967 50.835h40.712V91.14H65.967zM65.967 111.292h40.712v41.098H65.967zM5.126 50.835h40.697V91.14H5.126zM5.126 111.292h40.697v41.098H5.126z"/></g><path fill="#1C5EA6" d="M5.126 172.541h273.246v20.152H5.126z"/><path fill="#FFF" d="M5.126 192.694h273.246v20.152H5.126z"/><path fill="#1C5EA6" d="M5.126 212.846h273.246v20.15H5.126z"/></svg>