<svg xmlns="http://www.w3.org/2000/svg" viewBox="2.84 48.38 277.79 186.71"><path fill="#D6D4D1" d="M2.835 48.376h277.794v186.712H2.835z"/><path fill="#FCD11A" d="M96.177 50.67h182.164v91.082H96.177z"/><path fill="#009E49" d="M96.177 141.759h182.164v91.074H96.177z"/><path fill="#CD0E26" d="M5.087 50.678h91.09v182.156H5.087z"/><path d="M40.748 147.525l-6.009 18.457c0 .047.031.086.079.118a.092.092 0 00.109 0l15.705-11.413L66.337 166.1c.031.017.047.017.063.017s.047 0 .063-.017c.047-.03.047-.069.047-.118l-6.009-18.457 15.688-11.421c.063-.023.063-.07.063-.118-.031-.039-.063-.07-.11-.07H56.734l-6.009-18.458c-.031-.086-.172-.086-.188 0l-6.009 18.458H25.137c-.063 0-.094.031-.125.07 0 .047.016.094.063.118l15.673 11.421z"/></svg>