<svg xmlns="http://www.w3.org/2000/svg" xmlns:xlink="http://www.w3.org/1999/xlink" viewBox="-0.5 -0.5 10080.5 5040.5"><defs><clipPath id="a"><path d="M0 0v1.5h7V3H6zm6 0H3v3.5H0V3z"/></clipPath><use id="b" xlink:href="#Star7" transform="scale(2.1)"/></defs><path fill="#00008b" d="M0 0h10080v5040H0z"/><path d="M0 0l5040 2520m0-2520L0 2520" stroke="#fff" stroke-width="504"/><path d="M0 0l6 3m0-3L0 3" stroke="red" stroke-width=".4" clip-path="url(#a)" transform="scale(840)"/><path d="M2520 0v2940M0 1260h5880" stroke="#fff" stroke-width="840"/><path d="M2520 0v2940M0 1260h5880" stroke="red" stroke-width="504"/><path d="M0 2520h5040V0h1680v3360H0z" fill="#00008b"/><g fill="#fff"><use xlink:href="#b" x="2520" y="3780"/><use xlink:href="#Star7" x="7560" y="4200"/><use xlink:href="#Star7" x="6300" y="2205"/><use xlink:href="#Star7" x="7560" y="840"/><use xlink:href="#Star7" x="8680" y="1869"/><use xlink:href="#Star5" x="8064" y="2730"/></g></svg>