<svg xmlns="http://www.w3.org/2000/svg" viewBox="2.84 48.38 277.79 186.71"><path fill="#D6D4D1" d="M2.835 48.376h277.794v186.712H2.835z"/><path fill="#286FB2" d="M5.11 171.333h273.253v61.479H5.11zM5.11 50.639h273.253v61.485H5.11z"/><path fill="#FFF" d="M5.11 112.131h273.27v59.201H5.11z"/><path d="M138.058 143.886l-2.228 6.903v.039c.016.008.047.008.047.008l5.868-4.275 5.882 4.269.017.008s.017 0 .03-.008v-.039l-2.229-6.903 5.868-4.268v-.047l-.019-.023h-7.277l-2.228-6.911c-.016-.023-.063-.023-.079 0l-2.243 6.911h-7.248c-.016 0-.031.016-.031.016 0 .031 0 .047.016.055l5.854 4.265zM92.513 129.091l-2.228 6.903c0 .008 0 .023.016.032l.031.008 5.884-4.268 5.867 4.26.016.008c.016 0 .016 0 .031-.008.016-.008.016-.024.016-.032l-2.243-6.903 5.868-4.275v-.047l-.016-.024H98.49l-2.243-6.903c0-.031-.047-.031-.063 0l-2.244 6.903h-7.264l-.031.024c0 .023 0 .039.016.047l5.852 4.275zM92.513 158.688l-2.228 6.903v.023c.016.016.047.016.047.016l5.884-4.268 5.867 4.259.016.008c.016 0 .016 0 .031-.008 0 0 .016-.023.016-.031l-2.243-6.903 5.868-4.274v-.047l-.016-.024H98.49l-2.243-6.903c0-.03-.047-.03-.063 0l-2.244 6.903h-7.264l-.031.024c0 .022 0 .039.016.047l5.852 4.275zM183.586 129.091l-2.229 6.903c0 .008 0 .023.018.032l.029.008 5.885-4.268 5.866 4.26.017.008c.017 0 .017 0 .031-.008.017-.008.017-.024.017-.032l-2.243-6.903 5.867-4.275v-.047l-.016-.024h-7.266l-2.243-6.903c0-.031-.048-.031-.063 0l-2.242 6.903h-7.266c-.016 0-.029.024-.029.024 0 .023 0 .039.016.047l5.851 4.275zM183.586 158.688l-2.229 6.903v.023a.08.08 0 00.047.016l5.885-4.268 5.866 4.259.017.008c.017 0 .017 0 .031-.008 0 0 .017-.023.017-.031l-2.243-6.903 5.867-4.274v-.047l-.016-.024h-7.266l-2.243-6.903c0-.03-.048-.03-.063 0l-2.242 6.903h-7.266c-.016 0-.029.024-.029.024 0 .022 0 .039.016.047l5.851 4.275z" fill="#286FB2"/></svg>