<svg xmlns="http://www.w3.org/2000/svg" viewBox="2.84 48.38 277.79 186.71"><path fill="#D6D4D1" d="M2.835 48.376h277.794v186.712H2.835z"/><path fill="#233389" d="M5.134 50.67h273.238v91.082H5.134z"/><path fill="#D11234" d="M5.134 141.759h273.238v91.074H5.134z"/><path fill="#FFF" d="M102.326 110.445h78.853v62.623h-78.853z"/><path fill="#FFF" d="M147.463 131.185l-1.992 6.95h1.113zM150.538 131.256l-2.918 6.613 1.099.157zM153.362 133.178l-3.89 6.103 1.066.313z"/><path fill="#F1B611" d="M149.472 139.281l.579-.91-.439-.087-4.895 9.719 3.5-10.048-.597-.086.502-1.146-.659-.101-3.938 11.381 2.416-9.868h-.47l.281-1.011-.673-.048-2.966 11.085.753 3.513 2.886-2.815 4.331-9.398z"/><path d="M153.377 133.146c-.017-.016-.03-.008-.047.008l-3.295 5.177-.408-.086c-.017 0-.047 0-.047.023l-4.611 9.155 3.264-9.429.486.071c.016 0 .031-.016.047-.032l1.818-6.77c0-.016 0-.04-.017-.047-.03 0-.047 0-.063.024l-2.399 5.436-.646-.094c-.016-.008-.029.008-.047.023l-3.64 10.526 2.196-8.951h.611c.017 0 .03-.023.03-.039l.879-6.95c0-.023 0-.047-.03-.047 0 0-.031.008-.047.023l-1.695 5.907-.644-.047s-.03.016-.03.031l-2.98 11.092v.008l.753 3.521c0 .017.017.023.017.031h.031s.016 0 .016-.008l2.888-2.816.017-.008 4.331-9.374.423.125c.03 0 .047-.008.047-.024l2.824-6.417c0-.01 0-.034-.032-.042zm-4.689 4.833l-.471-.071-.534-.07.485-1.106 2.195-4.958-1.675 6.205zm-2.15.117h-1.021l.282-.965 1.554-5.413-.815 6.378zm3.498 1.389l-4.33 9.351-2.824 2.761-.735-3.436 2.966-11.045.598.047-.283.965v.031c.017.016.031.023.048.023h.424l-2.416 9.813c0 .023.017.04.03.047.016.007.048-.008.048-.023l3.938-11.35.58.086-.203.423-.299.675c0 .016 0 .023.016.039 0 .008.017.016.017.016l.55.079-3.482 10.001c0 .022.017.04.031.047.017.016.047 0 .063-.017l4.88-9.688.346.078-.55.848v.031c0 .016.017.023.031.031l.556.167zm.486.055l-.973-.282 3.562-5.601-2.589 5.883z"/><path fill="#FFF" d="M136.042 131.185l1.992 6.95h-1.114zM132.967 131.256l2.918 6.613-1.098.157zM130.143 133.178l3.89 6.103-1.066.313z"/><path fill="#F1B611" d="M134.033 139.281l-.58-.91.44-.087 4.894 9.719-3.498-10.048.596-.086-.502-1.146.659-.101 3.938 11.381-2.416-9.868h.47l-.282-1.011.675-.048 2.965 11.085-.753 3.513-2.887-2.815-4.33-9.398z"/><path d="M130.127 133.146c.016-.016.031-.008.047.008l3.295 5.177.408-.086c.016 0 .047 0 .047.023l4.612 9.155-3.263-9.429-.486.071c-.016 0-.032-.016-.048-.032l-1.819-6.77c0-.016 0-.04.016-.047.031 0 .047 0 .063.024l2.4 5.436.644-.094c.016-.008.031.008.047.023l3.64 10.526-2.196-8.951h-.612s-.031-.023-.031-.039l-.878-6.95c0-.023 0-.047.016-.047.031-.008.047.008.063.023l1.694 5.907.644-.047s.031.016.031.031l2.98 11.092v.008l-.753 3.521c0 .017-.016.023-.016.031h-.031s-.016 0-.016-.008l-2.887-2.816-.016-.008-4.33-9.374-.424.125c-.031 0-.047-.008-.047-.024l-2.824-6.417c-.001-.01-.001-.034.03-.042zm4.691 4.833l.471-.071.533-.07-.486-1.106-2.196-4.958 1.678 6.205zm2.15.117h1.02l-.282-.965-1.554-5.413.816 6.378zm-3.499 1.389l4.33 9.351 2.824 2.761.737-3.436-2.981-11.045-.58.047.282.965v.031c-.016.016-.031.023-.047.023h-.424l2.416 9.813c0 .023-.016.04-.031.047-.015.007-.047-.008-.047-.023l-3.922-11.35-.597.086.188.423.313.675c0 .016 0 .023-.016.039 0 .008-.016.016-.016.016l-.549.079 3.482 10.001c0 .022-.016.04-.031.047-.016.016-.047 0-.063-.017l-4.879-9.688-.346.078.549.848v.031c0 .016-.016.023-.031.031l-.561.167zm-.487.055l.973-.282-3.562-5.601 2.589 5.883z"/><path d="M169.114 143.171l-3.953 2.095c1.944-6.337-.533-8.534-.533-8.534l-3.905 2.762c1.284-2-1.914-6.911-1.914-6.911l-14.687 15.979h-4.738l-14.685-15.979s-3.201 4.911-1.914 6.911l-3.907-2.762s-2.479 2.197-.533 8.534l-3.954-2.095s-1.145 2.143.723 5.201c0 0-1.099 10.731 7.483 8.629l6.73.196 1.333 2.714 9.445 2.337h3.295l9.444-2.337 1.332-2.714 6.729-.196c8.582 2.103 7.484-8.629 7.484-8.629 1.871-3.059.725-5.201.725-5.201z" fill="#233E88"/><path d="M143.4 162.289h-3.295l-9.445-2.338c-.016 0-.031-.008-.031-.023l-1.333-2.689-6.699-.196a8.773 8.773 0 01-2.071.274c-1.506 0-2.745-.511-3.655-1.522-2.212-2.455-1.836-7.123-1.805-7.413-1.835-3.027-.722-5.209-.706-5.225.016-.023.031-.031.047-.023l3.876 2.056c-1.883-6.229.549-8.464.58-8.488 0 0 .016-.016.031-.008l3.766 2.667c-1.035-2.086 1.883-6.605 2.008-6.801 0-.008.016-.016.016-.016l.048.008 14.685 15.971h4.675l14.701-15.971s0-.016.016-.008c.016 0 .031.008.031.016.125.196 3.043 4.714 2.008 6.801l3.766-2.667a.036.036 0 01.031 0c.031.031 2.463 2.267.58 8.496l3.876-2.056c.017-.008.03 0 .047.023.017.016 1.13 2.195-.706 5.225.031.29.408 4.958-1.805 7.413-.91 1.012-2.149 1.522-3.655 1.522-.644 0-1.333-.095-2.071-.274l-6.699.196-1.332 2.689c0 .017-.017.023-.03.023l-9.431 2.338h-.019zm-12.709-2.409l9.43 2.33h3.279l9.413-2.33 1.333-2.707c0-.008.017-.022.03-.022l6.729-.188h.017a8.518 8.518 0 002.057.275c1.49 0 2.697-.502 3.593-1.491 2.261-2.502 1.789-7.327 1.789-7.374v-.024c1.694-2.776.862-4.832.737-5.122l-3.938 2.079s-.018.009-.031-.008c-.018-.008-.018-.022-.018-.039 1.82-5.915-.251-8.229-.484-8.479l-3.893 2.753a.049.049 0 01-.047 0c-.018-.016-.018-.039 0-.055 1.189-1.859-1.568-6.338-1.883-6.833l-14.672 15.948-.016.008h-4.737l-.016-.008-14.669-15.948c-.314.494-3.075 4.974-1.867 6.833 0 .016 0 .04-.016.055a.051.051 0 01-.048 0l-3.891-2.753c-.235.251-2.306 2.565-.486 8.479 0 .017 0 .031-.016.039-.016.017-.031.017-.031.017l-3.938-2.087c-.125.29-.956 2.346.738 5.122v.024c0 .047-.471 4.871 1.788 7.374.895.988 2.103 1.491 3.593 1.491.644 0 1.334-.094 2.056-.275h.016l6.73.188c.016 0 .031.016.031.022l1.338 2.706z"/><path d="M153.99 151.423c2.103-5.821-1.286-5.538-1.286-5.538l-1.334.525c1.961-4.628-1.19-4.197-1.19-4.197l-2.794 2.792-3.264 3.553h-4.738l-3.264-3.553-2.792-2.792s-3.154-.431-1.193 4.197l-1.333-.525s-3.389-.283-1.286 5.538c0 0-2.573-1.051-1.35 3.004.298.941.455 1.875.518 2.746l.628.023 1.349 2.714 9.445 2.337h3.295l9.444-2.337 1.349-2.714.628-.023c.063-.871.22-1.804.519-2.746 1.222-4.054-1.351-3.004-1.351-3.004z" fill="#D52024"/><path d="M143.4 162.289h-3.295l-9.461-2.338c-.016 0-.016-.008-.031-.023l-1.317-2.689-.612-.024c-.016 0-.031-.008-.031-.031a12.827 12.827 0 00-.518-2.745c-.408-1.373-.455-2.314-.095-2.809.188-.243.471-.369.816-.369.251 0 .471.056.596.095-.8-2.235-.878-3.837-.251-4.746.502-.706 1.303-.762 1.522-.762h.094l1.239.495c-.675-1.64-.784-2.824-.329-3.521.392-.565 1.035-.651 1.396-.651.125 0 .204.008.204.008.016 0 .016.008.016.016l2.808 2.784 3.248 3.547h4.706l3.248-3.547 2.81-2.784c0-.008 0-.016.016-.016 0 0 .078-.008.203-.008.361 0 1.004.085 1.396.651.455.697.346 1.883-.329 3.521l1.239-.495h.096c.219 0 1.021.056 1.521.762.629.909.55 2.51-.25 4.746.125-.039.345-.095.596-.095.347 0 .628.125.815.369.359.494.313 1.437-.096 2.809a12.951 12.951 0 00-.518 2.745c0 .023-.016.031-.031.031l-.611.024-1.316 2.689c-.018.017-.018.023-.031.023l-9.443 2.338h-.02zm-12.724-2.409l9.43 2.33h3.295l9.43-2.33 1.316-2.707c0-.008.016-.022.047-.022l.581-.017c.078-.957.251-1.867.519-2.722.408-1.349.455-2.267.109-2.73-.173-.228-.424-.345-.754-.345-.345 0-.627.118-.643.118-.018.016-.031.008-.047-.008v-.039c.813-2.259.894-3.853.267-4.754-.472-.674-1.224-.729-1.442-.729h-.063l-1.333.526c-.017.008-.031 0-.05-.008-.016-.009-.016-.032 0-.047.69-1.655.816-2.849.377-3.53-.358-.542-1.004-.62-1.332-.62-.096 0-.156.008-.188.008l-2.775 2.785-3.265 3.553c-.017 0-.017.008-.03.008h-4.737c-.016 0-.016-.008-.031-.008l-3.264-3.553-2.777-2.785c-.031 0-.094-.008-.188-.008-.33 0-.974.079-1.334.62-.439.682-.313 1.875.377 3.53.016.016 0 .038 0 .047-.017.008-.032.016-.048.008l-1.333-.526h-.063c-.22 0-.974.056-1.443.729-.628.901-.55 2.495.267 4.754v.039c-.016.016-.031.022-.047.008 0 0-.299-.118-.644-.118-.33 0-.581.118-.753.345-.346.464-.299 1.382.109 2.73.267.854.439 1.765.518 2.722l.581.017c.031 0 .047.016.047.022l1.314 2.707z"/><g fill="#F1B611"><path d="M167.34 134.433l2.166-1.671c-.407.667-1.287 2.149-1.49 2.526l-.676-.855zM167.2 134.417l-.926.714-.204-.251c.267-.298.644-.8.563-1.192l.567.729zM167.278 134.488l.564.729c-.377-.141-.94.063-1.317.243l-.173-.251.926-.721zM166.635 133.5c.424-.11 2.07-.557 2.84-.824l-2.182 1.671-.658-.847z"/></g><path d="M163.92 136.127l1.945-1.506.156.18c.251-.298.736-.949.455-1.294v-.04-.031c.047-.016 2.745-.737 3.247-.957 0-.016.063.071.063.071-.361.439-1.759 2.847-1.759 2.879v.008c0 .008-.03 0-.03.008 0 0-.047-.008-.047-.016-.25-.353-.988-.055-1.351.118l.126.18-1.932 1.514-21.965 16.936-.86-1.122 21.952-16.928zm4.096-.839c.203-.376 1.083-1.859 1.49-2.526l-2.166 1.671.676.855zm-.723-.941l2.182-1.671c-.77.267-2.416.714-2.84.824l.658.847zm-.768 1.114c.377-.181.94-.384 1.317-.243l-.564-.729-.926.722.173.25zm-.251-.33l.926-.714-.564-.729c.078.392-.299.894-.563 1.192l.201.251zm-24.129 17.948l.314.431 23.769-18.315-.347-.455-23.736 18.339zm24.459-17.383l-.359-.432-23.723 18.333.329.439 23.753-18.34z"/><path fill="#B1B9BE" d="M142.522 153.596l23.721-18.332.361.432-23.753 18.34z"/><path fill="#F1B611" d="M142.522 153.596l23.721-18.332.361.432-23.753 18.34zM166.228 135.194l-23.769 18.315-.314-.43 23.736-18.34z"/><g fill="#F1B611"><path d="M171.938 141.587l2.4-1.318c-.502.596-1.602 1.922-1.866 2.267l-.534-.949zM171.813 141.548l-1.035.564-.173-.274c.329-.259.769-.69.753-1.09l.455.8zM171.859 141.634l.438.808c-.328-.204-.926-.086-1.317.039l-.142-.274 1.021-.573zM171.374 140.567c.455-.055 2.133-.243 2.935-.384l-2.416 1.318-.519-.934z"/></g><path d="M168.297 142.74l2.148-1.192.126.204c.3-.259.88-.823.646-1.208.016-.008.016-.023.016-.047.016-.016.016-.023.016-.023.047-.008 2.823-.298 3.342-.447 0-.016.063.086.063.086-.438.369-2.165 2.534-2.181 2.564v.008c0 .009-.049 0-.049.009 0 0-.03-.017-.03-.031-.203-.384-.974-.196-1.364-.086l.094.196-2.117 1.199-24.316 13.367-.675-1.23 24.281-13.369zm4.175-.204c.267-.345 1.364-1.671 1.866-2.267l-2.4 1.318.534.949zm-.581-1.035l2.416-1.318c-.801.141-2.479.33-2.934.384l.518.934zm-.911.98c.394-.125.989-.243 1.317-.039l-.438-.808-1.021.573.142.274zm-.203-.368l1.035-.564-.455-.8c.017.4-.424.832-.753 1.09l.173.274zm-26.592 14.041l.235.479 26.293-14.464-.281-.494-26.247 14.479zm26.828-13.431l-.283-.479-26.263 14.48.267.479 26.279-14.48z"/><path fill="#B1B9BE" d="M144.467 156.726l26.263-14.48.283.477-26.28 14.482z"/><path fill="#F1B611" d="M144.467 156.726l26.263-14.48.283.477-26.28 14.482zM170.713 142.168l-26.293 14.464-.235-.478 26.247-14.48z"/><g fill="#F1B611"><path d="M116.164 134.433l-2.181-1.671a72.193 72.193 0 011.506 2.526l.675-.855zM116.305 134.417l.926.714.204-.251c-.267-.298-.644-.8-.58-1.192l-.55.729zM116.227 134.488l-.564.729c.376-.141.941.063 1.317.243l.173-.251-.926-.721zM116.87 133.5c-.424-.11-2.071-.557-2.84-.824l2.181 1.671.659-.847z"/></g><path d="M119.568 136.127l-1.93-1.506-.157.18c-.251-.298-.737-.949-.454-1.294v-.04-.031c-.048-.016-2.762-.737-3.248-.957 0-.016-.063.071-.063.071.36.439 1.757 2.847 1.757 2.879v.008c0 .008.031 0 .031.008 0 0 .047-.008.047-.016.251-.353.989-.055 1.35.118l-.126.18 1.93 1.514 21.965 16.936.863-1.122-21.965-16.928zm-4.079-.839a73.136 73.136 0 00-1.506-2.526l2.181 1.671-.675.855zm.722-.941l-2.181-1.671c.769.267 2.416.714 2.84.824l-.659.847zm.769 1.114c-.376-.181-.941-.384-1.317-.243l.564-.729.926.722-.173.25zm.25-.33l-.926-.714.55-.729c-.063.392.313.894.58 1.192l-.204.251zm24.13 17.948l-.313.431-23.77-18.315.346-.455 23.737 18.339zm-24.459-17.383l.36-.432 23.722 18.333-.329.439-23.753-18.34z"/><path fill="#B1B9BE" d="M140.983 153.596l-23.721-18.332-.361.432 23.753 18.34z"/><path fill="#F1B611" d="M140.983 153.596l-23.721-18.332-.361.432 23.753 18.34zM117.277 135.194l23.77 18.315.313-.43-23.737-18.34z"/><g><g fill="#F1B611"><path d="M111.567 141.587l-2.4-1.318c.502.596 1.6 1.922 1.866 2.267l.534-.949zM111.708 141.548l1.021.564.172-.274c-.329-.259-.769-.69-.753-1.09l-.44.8zM111.646 141.634l-.455.808c.346-.204.941-.086 1.334.039l.141-.274-1.02-.573zM112.132 140.567c-.455-.055-2.134-.243-2.934-.384l2.416 1.318.518-.934z"/></g><path d="M115.207 142.74l-2.149-1.192-.126.204c-.298-.259-.878-.823-.643-1.208-.016-.008-.016-.023-.016-.047-.016-.016-.016-.023-.016-.023-.031-.008-2.824-.298-3.342-.447 0-.016-.063.086-.063.086.439.369 2.165 2.534 2.181 2.564v.008c0 .009.048 0 .048.009 0 0 .031-.017.031-.031.204-.384.973-.196 1.364-.086l-.094.196 2.118 1.199 24.317 13.367.675-1.23-24.285-13.369zm-4.174-.204a130.063 130.063 0 00-1.866-2.267l2.4 1.318-.534.949zm.581-1.035l-2.416-1.318c.8.141 2.479.33 2.934.384l-.518.934zm.91.98c-.393-.125-.988-.243-1.334-.039l.455-.808 1.02.573-.141.274zm.205-.368l-1.021-.564.439-.8c-.016.4.424.832.753 1.09l-.171.274zm26.591 14.041l-.234.479-26.295-14.464.282-.494 26.247 14.479zm-26.827-13.431l.282-.479 26.263 14.48-.267.479-26.278-14.48z"/><path fill="#B1B9BE" d="M139.038 156.726l-26.263-14.48-.282.477 26.279 14.482z"/><path fill="#F1B611" d="M139.038 156.726l-26.263-14.48-.282.477 26.279 14.482zM112.791 142.168l26.295 14.464.234-.478-26.247-14.48z"/></g><g><g fill="#F1B611"><path d="M160.956 130.142l1.853-2.024c-.3.729-.896 2.345-1.035 2.753l-.818-.729zM160.814 130.15l-.8.871-.235-.204c.22-.345.486-.91.36-1.287l.675.62zM160.893 130.213l.689.62c-.393-.078-.908.22-1.238.471l-.221-.22.77-.871zM160.092 129.358c.425-.196 1.945-.918 2.652-1.318l-1.854 2.032-.798-.714z"/></g><path d="M162.963 127.804c-.455.306-2.979 1.49-3.027 1.514v.023c.016.023.016.039.016.047.33.291-.031 1.012-.219 1.349l-.188-.149-1.647 1.828-16.144 17.784v.18l17.807-19.673.439.383-18.248 20.089v.149l18.277-20.176.407.369-18.685 20.623v.148l17.209-18.937 1.615-1.835-.156-.149c.33-.235 1.004-.659 1.317-.361l.048.016c0-.008.03-.008.03-.023v-.008c0-.024.94-2.644 1.224-3.13a.488.488 0 00-.075-.061zm-.218.236l-1.853 2.032-.8-.714c.425-.197 1.946-.918 2.653-1.318zm-2.73 2.981l-.235-.204c.221-.345.486-.91.36-1.287l.675.62-.8.871zm.329.282l-.221-.22.77-.871.689.62c-.391-.078-.908.22-1.238.471zm1.428-.431l-.814-.729 1.852-2.024a76.521 76.521 0 00-1.038 2.753z"/><path fill="#F1B611" d="M141.753 152.146l18.685-20.623-.408-.369-18.277 20.176zM141.753 151.18l18.246-20.089-.439-.384-17.807 19.673z"/></g><g><g fill="#F1B611"><path d="M122.549 130.142l-1.851-2.024c.298.729.894 2.345 1.035 2.753l.816-.729zM122.69 130.15l.784.871.251-.204c-.22-.345-.486-.91-.36-1.287l-.675.62zM122.612 130.213l-.69.62c.393-.078.91.22 1.239.471l.22-.22-.769-.871zM123.412 129.358c-.408-.196-1.945-.918-2.651-1.318l1.852 2.032.799-.714z"/></g><path d="M141.753 152.146l-18.686-20.623.407-.369 18.278 20.176v-.149l-18.23-20.089.423-.384 17.808 19.673v-.18l-16.145-17.784-1.647-1.828-.188.149c-.188-.337-.55-1.059-.22-1.349 0-.008 0-.023.016-.047v-.023c-.047-.024-2.573-1.208-3.028-1.514a.539.539 0 00-.078.063c.282.487 1.224 3.106 1.224 3.13v.008c0 .016.031.016.031.023l.047-.016c.313-.298.988.125 1.318.361l-.157.149 1.632 1.835 17.195 18.937v-.149zm-18.027-21.329l-.251.204-.784-.871.675-.62c-.127.377.14.941.36 1.287zm-.314-1.459l-.8.714-1.852-2.032c.707.4 2.244 1.121 2.652 1.318zm-1.679 1.514a86.508 86.508 0 00-1.035-2.753l1.851 2.024-.816.729zm.189-.04l.69-.62.769.871-.22.22c-.329-.251-.847-.549-1.239-.471z"/><path fill="#F1B611" d="M141.753 151.33l-18.278-20.176-.408.369 18.686 20.623zM141.753 150.38l-17.808-19.673-.423.384 18.231 20.089z"/></g><g><path d="M176.99 162.987c-3.153-.196-6.763-2.4-6.763-2.4s-5.491-2.689-8.299-2.644c-2.809.047-10.67.195-11.359-.588-.643-.723-8.738-1.177-8.738-1.177h-.157s-8.096.455-8.738 1.177c-.69.784-8.551.636-11.359.588-2.808-.047-8.299 2.644-8.299 2.644s-3.608 2.205-6.762 2.4c-2.118.133-3.483 1.051-4.143 1.64v8.393h78.758v-8.393c-.658-.589-2.024-1.507-4.141-1.64z" fill="#106B36"/><path d="M181.131 173.066h-78.758c-.031 0-.047-.022-.047-.048v-8.393s0-.016.016-.022c.628-.565 2.009-1.522 4.174-1.655 3.106-.196 6.715-2.377 6.746-2.4.047-.022 5.428-2.65 8.236-2.65.031 0 .047.008.078.008h.11c.941.016 2.385.039 3.938.039 5.569 0 7.029-.337 7.28-.62.643-.723 8.44-1.169 8.77-1.186h.157c.329.017 8.126.463 8.771 1.186.25.282 1.71.62 7.279.62 1.553 0 2.996-.023 3.938-.039h.11c.03 0 .047-.008.077-.008 2.81 0 8.188 2.628 8.236 2.65.031.023 3.641 2.205 6.748 2.4 2.162.133 3.545 1.09 4.172 1.655.017.008.017.016.017.016v8.4a.046.046 0 01-.048.047zm-78.727-.086h78.697v-8.331c-.628-.558-1.993-1.49-4.11-1.624-3.139-.196-6.746-2.386-6.794-2.408-.047-.023-5.396-2.636-8.188-2.636h-.187c-.939.016-2.385.047-3.938.047-4.486 0-6.965-.221-7.342-.651-.627-.698-8.629-1.153-8.708-1.153h-.157c-.078 0-8.079.455-8.707 1.153-.377.431-2.855.651-7.343.651-1.553 0-2.996-.031-3.938-.047h-.188c-2.793 0-8.143 2.611-8.205 2.644-.031.016-3.64 2.204-6.777 2.4-2.118.133-3.483 1.066-4.111 1.624v8.331h-.004z"/></g><g><path d="M137.626 153.008l-.141-1.255s-.079-.479.407-.534c.455-.063.534.486.534.486l.172 1.185-.972.118z" fill="#FFF"/><path d="M137.485 151.871c-.361-.016-1.067-.165-1.632-1.012 0 0-.69.306-.69 1.185s.863.91.863 1.891c0 0 .235.173.675-.518.282-.471.674-.62.894-.667l-.11-.879zM138.552 152.624l1.287-.102-.455-.605-.942.008z" fill="#FFF"/><path d="M138.976 156.632l-.486-3.733-.753.094.486 3.757c.031.204.204.361.376.361.017 0 .032 0 .063-.008.203-.031.345-.243.314-.471z" fill="#F0B505"/><path d="M139.886 152.538v-.039l-.471-.612a1.507 1.507 0 01-.031-.016l-.895.008-.031-.181s-.063-.588-.581-.519a.533.533 0 00-.345.172c-.126.174-.094.394-.094.408l.016.063c-.377-.023-1.021-.188-1.554-.988-.016-.016-.047-.022-.047-.016-.016.008-.737.321-.737 1.224 0 .447.22.683.439.91.204.243.423.494.423.979 0 .017.017.023.032.039 0 0 .031.023.094.023.126 0 .345-.103.628-.564.267-.432.611-.572.831-.628l.016.204c0 .017.016.023.016.031.016 0 .031.008.031.008l.079-.008.471 3.719c.047.219.22.393.423.393.017 0 .048 0 .063-.009.235-.031.376-.267.36-.518l-.486-3.688.063-.008c.017 0 .017-.008.032-.016v-.031l-.032-.22 1.24-.103c.031.006.031-.003.047-.017zm-3.233.846c-.329.542-.533.542-.58.526-.016-.502-.235-.761-.471-1.012-.204-.229-.393-.439-.393-.855 0-.745.502-1.059.644-1.129.549.808 1.224.973 1.601.996l.016.071.094.736c-.236.056-.612.212-.911.667zm1.805-.438l.486 3.693c.016.204-.11.394-.298.425-.188.03-.346-.118-.377-.322l-.486-3.71.502-.063.173-.023zm-.8.008l-.016-.204-.063-.541-.063-.463s-.031-.196.094-.345c.048-.079.157-.125.282-.142.016 0 .048-.008.063-.008.36 0 .423.439.423.455l.173 1.146-.893.102zm.941-.377l-.094-.612.848-.008.407.525-1.161.095z"/></g><g><path d="M145.879 153.008l.141-1.255s.079-.479-.407-.534c-.454-.063-.534.486-.534.486l-.172 1.185.972.118z" fill="#FFF"/><path d="M146.02 151.871c.361-.016 1.066-.165 1.632-1.012 0 0 .69.306.69 1.185s-.863.91-.863 1.891c0 0-.234.173-.674-.518-.283-.471-.676-.62-.895-.667l.11-.879zM144.954 152.624l-1.287-.102.455-.605.941.008z" fill="#FFF"/><path d="M144.529 156.632l.486-3.733.753.094-.486 3.757c-.031.204-.203.361-.376.361-.016 0-.03 0-.063-.008-.203-.031-.344-.243-.314-.471z" fill="#F0B505"/><path d="M143.62 152.538v-.039l.471-.612.031-.016.896.008.03-.181s.063-.588.58-.519a.499.499 0 01.347.172c.126.174.095.394.095.408l-.018.063c.378-.023 1.021-.188 1.555-.988.018-.016.047-.022.063-.016 0 0 .723.321.723 1.224 0 .447-.221.683-.438.91-.203.243-.425.494-.425.979 0 .017-.016.023-.03.039 0 0-.031.023-.096.023-.125 0-.345-.103-.627-.564-.27-.432-.611-.572-.832-.628l-.018.204c0 .017-.016.023-.016.031a.075.075 0 00-.031.008l-.078-.008-.471 3.719c-.047.219-.22.393-.424.393-.016 0-.047 0-.063-.009-.236-.031-.377-.267-.361-.518l.486-3.688-.063-.008c-.016 0-.016-.008-.03-.016v-.031l.03-.22-1.239-.103c-.032.006-.032-.003-.047-.017zm3.232.846c.329.542.533.542.58.526.016-.502.234-.761.471-1.012.204-.229.393-.439.393-.855 0-.745-.502-1.059-.627-1.129-.563.808-1.238.973-1.617.996l-.016.071-.078.736c.218.056.596.212.894.667zm-1.805-.438l-.486 3.693c-.016.204.109.394.299.425.188.03.36-.118.376-.322l.486-3.71-.502-.063-.173-.023zm.801.008l.016-.204.063-.541.064-.463s.03-.196-.078-.345c-.063-.079-.174-.125-.299-.142-.016 0-.048-.008-.063-.008-.36 0-.424.439-.424.455l-.172 1.146.893.102zm-.942-.377l.095-.612-.848-.008-.408.525 1.161.095z"/></g><g><path d="M123.71 150.232l-.878-1.569s-.361-.588.235-.934c.58-.338.957.345.957.345l.909 1.459-1.223.699z" fill="#FFF"/><path fill="#513615" d="M124.699 149.667l-.643.368 8.534 13.132.628-.409z"/><path d="M133.265 162.736l-8.503-13.062.188-.102c.017-.008.017-.017.017-.032.016-.008.016-.023 0-.031l-.91-1.451c0-.022-.251-.463-.675-.463a.646.646 0 00-.346.103.66.66 0 00-.345.416c-.063.291.095.564.095.573l.909 1.561c0 .016 0 .023.016.023h.032l.298-.173 8.519 13.093c.016.008.016.016.031.016.016 0 .016 0 .031-.008l.628-.408c.015-.016.015-.04.015-.055zm-9.539-12.56l-.862-1.538s-.142-.251-.078-.502c.031-.148.125-.274.298-.369a.616.616 0 01.298-.086c.377 0 .611.408.611.416l.879 1.42-1.146.659zm8.879 12.928l-8.487-13.054.564-.33 8.488 13.021-.565.363z"/><g><path d="M159.795 150.232l.895-1.569s.346-.588-.252-.934c-.58-.338-.957.345-.957.345l-.909 1.459 1.223.699z" fill="#FFF"/><path fill="#513615" d="M158.807 149.667l.643.368-8.535 13.132-.627-.409z"/><path d="M150.24 162.736l8.503-13.062-.188-.102c-.016-.008-.016-.017-.032-.032 0-.008 0-.023.017-.031l.91-1.451c0-.022.25-.463.674-.463.11 0 .235.031.346.103a.66.66 0 01.347.416c.063.291-.094.564-.094.573l-.896 1.561c0 .016-.017.023-.031.023h-.017l-.313-.173-8.52 13.093c-.016.008-.016.016-.031.016-.016 0-.016 0-.031-.008l-.627-.408c-.017-.016-.017-.04-.017-.055zm9.539-12.56l.862-1.538s.143-.251.078-.502c-.03-.148-.125-.274-.299-.369a.612.612 0 00-.297-.086c-.377 0-.611.408-.611.416l-.879 1.42 1.146.659zm-8.88 12.928l8.486-13.054-.563-.33-8.487 13.021.564.363z"/></g></g><g><path d="M134.253 154.279a.896.896 0 00-.251.047l.142-.996-.926-.103-.063.393-17.713-1.765.047-.667-1.083-.282-.454 4.424 1.02-.486.063-.313 4.11.392 13.509 1.192-.11.785 1.083.109.141-.988a.948.948 0 00.486.133.924.924 0 00.926-.934.932.932 0 00-.927-.941z" fill="#F1B611"/><path d="M133.626 157.055l-1.083-.109c-.016-.008-.031-.008-.031-.023 0 0-.016-.016-.016-.031l.109-.737-13.477-1.192-4.048-.392-.063.283c0 .016-.016.022-.031.03l-1.02.486c-.016.008-.031.008-.031 0-.017-.008-.032-.023-.017-.039l.455-4.432v-.024l.031-.016 1.099.282c.016.009.031.023.031.048l-.047.635 17.635 1.75.047-.354c0-.016.031-.039.047-.03l.926.102c.016 0 .031 0 .031.008.016.017.016.023.016.031l-.126.941a.52.52 0 01.188-.032c.55 0 .973.438.973.98 0 .541-.423.98-.973.98a.992.992 0 01-.455-.118l-.125.934c.002.025-.014.039-.045.039zm-1.036-.187l1.005.094.141-.949c0-.016 0-.022.016-.03.016-.009.031-.009.031 0a.979.979 0 00.471.133.9.9 0 00.895-.895.9.9 0 00-.895-.895.715.715 0 00-.235.04c-.016 0-.031 0-.047-.008 0-.017-.016-.032 0-.04l.126-.949-.848-.094-.047.353c-.016.016-.031.04-.047.032l-17.713-1.757c-.031 0-.031-.023-.031-.047l.031-.637-1.004-.259-.439 4.307.941-.454.063-.29c0-.023.016-.04.047-.04l4.095.393 13.509 1.2.031.016a.027.027 0 01.016.023l-.112.753z"/><path d="M138.865 160.829l-6.056-1.765-1.694-3.083-2.243-.196c.142.471.204.965.204 1.482 0 .558-.079 1.099-.235 1.608l.439.079.658 1.247 8.613 2.502 3.153.274v-1.914l-2.839-.234z" fill="#F1B611"/><path d="M141.705 163.017l-3.153-.274-8.629-2.494s-.016-.016-.016-.024l-.659-1.23-.407-.078c-.016 0-.031-.008-.031-.024-.017 0-.017-.016-.017-.03a5.483 5.483 0 00.236-1.593c0-.493-.063-.996-.188-1.475-.016-.008 0-.031 0-.039.016-.008.016-.016.031-.016l2.243.204c.016 0 .031.008.031.022l1.679 3.067 6.04 1.757 2.84.235c.031 0 .048.022.048.039v1.913c0 .009 0 .024-.017.032 0 .008-.015.008-.031.008zm-11.734-2.847l8.597 2.495 3.106.267v-1.827l-2.809-.229-6.071-1.765c-.016-.008-.016-.017-.031-.023l-1.679-3.066-2.149-.188c.126.471.188.949.188 1.437 0 .532-.078 1.059-.235 1.576l.408.071s.016.016.016.023l.659 1.229z"/><path fill="#F1B611" d="M130.896 156.656l-.973-.117.408-3.664.973.11z"/><path d="M130.896 156.696h-.016l-.957-.118c-.031 0-.047-.016-.047-.039l.424-3.671c0-.008.016-.017.016-.023.016-.008.016-.016.031-.016l.957.118c.031 0 .047.022.047.039l-.423 3.671c0 .008 0 .022-.017.031l-.015.008zm-.925-.19l.878.094.408-3.576-.879-.103-.407 3.585z"/><g><path d="M129.076 157.267a5.515 5.515 0 01-5.522 5.522c-3.044 0-5.522-2.471-5.522-5.522s2.479-5.521 5.522-5.521a5.514 5.514 0 015.522 5.521z" fill="#F1B611"/><path d="M123.554 162.83c-3.06 0-5.554-2.495-5.554-5.563 0-3.066 2.494-5.562 5.554-5.562a5.569 5.569 0 015.569 5.562 5.57 5.57 0 01-5.569 5.563zm0-11.038c-3.013 0-5.476 2.455-5.476 5.476s2.463 5.476 5.476 5.476a5.476 5.476 0 000-10.952z"/></g><g><path d="M128.135 157.267a4.577 4.577 0 01-4.581 4.581c-2.526 0-4.565-2.055-4.565-4.581a4.567 4.567 0 014.565-4.58 4.572 4.572 0 014.581 4.58z" fill="#F1B611"/><path d="M123.554 161.887a4.62 4.62 0 010-9.24c2.541 0 4.628 2.07 4.628 4.62 0 2.551-2.087 4.62-4.628 4.62zm0-9.162c-2.495 0-4.534 2.04-4.534 4.542 0 2.503 2.039 4.542 4.534 4.542a4.538 4.538 0 004.534-4.542 4.538 4.538 0 00-4.534-4.542z"/></g><g><path fill="#F1B611" d="M117.478 151.526l.973.11-.415 3.662-.973-.11z"/><path d="M118.031 155.354l-.973-.11c-.016-.008-.031-.023-.031-.047l.423-3.671c0-.009 0-.017.016-.023.016-.007.016-.016.032-.016l.956.117c.032 0 .048.023.048.047l-.424 3.664c0 .008 0 .022-.016.022.001.017-.015.017-.031.017zm-.91-.188l.879.102.407-3.585-.878-.102-.408 3.585z"/></g></g><g><path d="M149.252 154.279c.078 0 .172.022.25.047l-.143-.996.928-.103.063.393 17.713-1.765-.047-.667 1.083-.282.454 4.424-1.02-.486-.064-.313-4.109.392-13.509 1.192.11.785-1.084.109-.155-.988a.924.924 0 01-1.398-.801.935.935 0 01.928-.941z" fill="#F1B611"/><path d="M149.879 157.055l1.082-.109s.031-.008.031-.023c.016-.008.016-.016.016-.031l-.108-.737 13.478-1.192 4.063-.392.047.283c0 .016.017.022.031.03l1.021.486c.017.008.031.008.031 0 .018-.008.031-.023.018-.039l-.455-4.432v-.024a1.507 1.507 0 01-.031-.016l-1.1.282c-.017.009-.03.023-.03.048l.047.635-17.634 1.75-.049-.354c0-.016-.03-.039-.047-.03l-.927.102c-.016 0-.03 0-.03.008-.017.017-.017.023-.017.031l.126.941a.52.52 0 00-.188-.032.97.97 0 00-.974.98c0 .541.425.98.974.98.156 0 .299-.04.455-.118l.125.934c-.001.025.014.039.045.039zm1.036-.187l-1.004.094-.142-.949c0-.016 0-.022-.017-.03a.044.044 0 00-.047 0 .888.888 0 01-.455.133.901.901 0 01-.896-.895.9.9 0 01.896-.895c.063 0 .142.008.234.04.018 0 .031 0 .049-.008 0-.017.016-.032 0-.04l-.128-.949.849-.094.047.353c.017.016.031.04.048.032l17.713-1.757c.03 0 .03-.023.03-.047l-.03-.637 1.004-.259.438 4.307-.94-.454-.063-.29c0-.023-.016-.04-.047-.04l-4.095.393-13.509 1.2a.075.075 0 00-.031.008c-.016.016-.016.031-.016.031l.112.753z"/><path d="M144.64 160.829l6.056-1.765 1.694-3.083 2.243-.196a5.137 5.137 0 00-.203 1.482c0 .558.078 1.099.234 1.608l-.438.079-.659 1.247-8.613 2.502-3.153.274v-1.914l2.839-.234z" fill="#F1B611"/><path d="M141.8 163.017l3.154-.274 8.629-2.494s.017-.016.017-.024l.657-1.23.408-.078c.017 0 .03-.008.03-.024.017 0 .017-.016.017-.03a5.548 5.548 0 01-.233-1.593c0-.493.063-.996.188-1.475.017-.008 0-.031 0-.039-.017-.008-.017-.016-.031-.016l-2.242.204c-.016 0-.031.008-.031.022l-1.679 3.067-6.04 1.757-2.84.235c-.031 0-.047.022-.047.039v1.913c0 .009 0 .024.016.032-.004.008.011.008.027.008zm11.736-2.847l-8.599 2.495-3.106.267v-1.827l2.809-.229 6.071-1.765c.016-.008.016-.017.031-.023l1.678-3.066 2.148-.188a5.573 5.573 0 00-.188 1.437c0 .532.08 1.059.236 1.576l-.408.071s-.018.016-.018.023l-.654 1.229z"/><path fill="#F1B611" d="M152.609 156.656l.974-.117-.409-3.664-.972.11z"/><path d="M152.609 156.696h.017l.957-.118c.03 0 .047-.016.047-.039l-.424-3.671c0-.008-.017-.017-.017-.023-.017-.008-.017-.016-.03-.016l-.957.118c-.031 0-.048.022-.048.039l.425 3.671c0 .008 0 .022.017.031l.013.008zm.927-.19l-.88.094-.407-3.576.879-.103.408 3.585z"/><g><path d="M154.43 157.267a5.514 5.514 0 005.521 5.522c3.043 0 5.521-2.471 5.521-5.522s-2.479-5.521-5.521-5.521a5.514 5.514 0 00-5.521 5.521z" fill="#F1B611"/><path d="M159.952 162.83c3.059 0 5.555-2.495 5.555-5.563 0-3.066-2.496-5.562-5.555-5.562a5.57 5.57 0 00-5.57 5.562 5.57 5.57 0 005.57 5.563zm0-11.038c3.012 0 5.475 2.455 5.475 5.476s-2.463 5.476-5.475 5.476a5.476 5.476 0 010-10.952z"/></g><g><path d="M155.37 157.267a4.577 4.577 0 004.582 4.581c2.525 0 4.565-2.055 4.565-4.581 0-2.533-2.04-4.58-4.565-4.58a4.573 4.573 0 00-4.582 4.58z" fill="#F1B611"/><path d="M159.952 161.887a4.62 4.62 0 000-9.24c-2.541 0-4.629 2.07-4.629 4.62 0 2.551 2.088 4.62 4.629 4.62zm0-9.162c2.494 0 4.533 2.04 4.533 4.542 0 2.503-2.039 4.542-4.533 4.542a4.536 4.536 0 01-4.533-4.542 4.536 4.536 0 014.533-4.542z"/></g><g><path fill="#F1B611" d="M165.475 155.306l.972-.109-.424-3.663-.972.109z"/><path d="M165.475 155.354l.973-.11c.016-.008.031-.023.031-.047l-.424-3.671c0-.009 0-.017-.016-.023-.018-.007-.018-.016-.031-.016l-.957.117c-.031 0-.047.023-.047.047l.422 3.664c0 .008 0 .022.017.022-.001.017.015.017.032.017zm.908-.188l-.877.102-.408-3.585.879-.102.406 3.585z"/></g></g><g><path d="M143.055 155.785h-2.604c-.016 0-.031-.017-.031-.023v-.03l.313-1.491h-.345c-.016 0-.031 0-.047-.017v-.03l.282-1.569h-.346s-.031 0-.031-.016c0-.009-.016-.017 0-.031l.157-1.655-.267.017c-.016 0-.031 0-.031-.017-.016 0-.016-.016-.016-.032l.298-1.718-.361-.022c-.016 0-.016 0-.031-.009 0-.016-.016-.022 0-.03l.251-1.828-.392-.094c-.032 0-.048-.023-.032-.048l.283-1.467-.299-.016c-.016-.008-.031-.017-.031-.023-.016-.008-.016-.023-.016-.032l.267-1.489h-.298s-.016-.008-.031-.008v-.039l.235-1.742-.204-.023c-.016 0-.016-.008-.031-.016v-.032l.329-1.718-.298-.023c-.016 0-.016-.008-.031-.016v-.031l.455-1.718-.298-.023c-.016 0-.032-.008-.032-.016 0 0-.016-.023 0-.031l.33-1.608h-.346s-.031-.008-.031-.023c-.016-.008-.016-.023-.016-.031l.486-1.632-.36.047c-.016 0-.031-.008-.031-.024-.016-.008-.016-.023-.016-.039l.706-1.733-.393-.016s-.031-.008-.031-.023c0-.008-.016-.023 0-.039l.564-1.718-.329.039c-.016.008-.031-.008-.031-.016-.016-.008-.016-.023 0-.039l.596-1.765-.282.055c-.016.008-.031 0-.047-.008v-.039l.141-.871c0-.016.016-.032.047-.032l.974.024.973-.024c.016 0 .047.016.047.032l.142.855v.016c0 .031 0 .047-.031.047h-.017l-.282-.055.596 1.757c0 .008.019.008.019.023 0 .023-.019.039-.048.039l-.329-.039.563 1.718c.018.016 0 .031 0 .039 0 .016-.03.023-.03.023l-.394.016.707 1.718v.031a.047.047 0 01-.049.047l-.359-.047.472 1.616c.017.008.017.016.017.023a.046.046 0 01-.048.047h-.346l.33 1.608c.016.008 0 .023 0 .023 0 .016-.017.023-.032.023l-.298.023.455 1.718v.031c-.017.008-.017.016-.031.016l-.298.023.329 1.718v.032c-.017.008-.017.016-.031.016l-.204.023.235 1.742v.038c-.017 0-.031.009-.031.009h-.298l.268 1.489c0 .009-.017.024-.017.032s-.017.017-.031.023l-.298.016.282 1.467c.016.024 0 .047-.032.047l-.393.095.25 1.828c.018.008 0 .016 0 .03-.016.009-.016.009-.029.009l-.361.022.301 1.702v.024c0 .022-.018.038-.049.038l-.268-.016.156 1.647c.017 0 .017.008.017.008 0 .031-.017.047-.047.047h-.347l.281 1.553v.017c0 .03-.016.047-.047.047h-.345l.313 1.475c0 .008.016.016.016.023 0 .025-.016.049-.047.049zm-2.558-.086h2.511l-.314-1.491c-.016-.016 0-.023 0-.039.018-.008.018-.016.032-.016h.36l-.299-1.562c0-.016 0-.023.017-.04 0-.008.016-.008.03-.008h.346l-.172-1.671c0-.008 0-.023.016-.031 0-.008.016-.016.031-.008l.267.016-.282-1.71v-.03c.018-.009.018-.017.031-.017l.361-.023-.268-1.82c-.018-.016 0-.039.016-.039l.424-.094-.298-1.476c0-.008 0-.022.016-.031 0-.009.017-.017.031-.017l.298-.022-.268-1.49v-.04c.018-.008.033-.016.049-.016h.298l-.251-1.733c0-.016 0-.023.016-.04 0-.008.018-.008.031-.008l.204-.023-.347-1.718v-.031c.018-.008.033-.016.049-.016l.281-.024-.455-1.718v-.031c.017-.008.017-.016.031-.016l.313-.024-.346-1.616v-.039c.017-.008.031-.008.031-.008h.346l-.473-1.639v-.031c.018-.016.018-.024.049-.024l.346.047-.689-1.726v-.031c0-.016.016-.023.03-.023l.394-.023-.58-1.734c0-.016 0-.023.017-.039s.017-.016.03-.016l.33.039-.596-1.773v-.039c.016-.008.029-.016.047-.016l.297.063-.143-.769-.94.016-.941-.016-.126.769.282-.063c.016 0 .032.008.048.016v.039l-.597 1.773.329-.039s.016 0 .031.016c.017.016.017.023.017.039l-.581 1.734.393.023c.016 0 .031.008.031.023 0 .008.016.023 0 .031l-.69 1.726.345-.047c.032 0 .032.008.048.024v.031l-.471 1.639h.345s.016 0 .031.008v.039l-.345 1.616.313.024.031.016v.031l-.455 1.718.283.024s.031.008.047.016v.031l-.33 1.718.188.023c.016 0 .031 0 .031.008.016.016.016.024.016.04l-.251 1.733h.299s.031.008.047.016v.04l-.267 1.49.298.022c.016 0 .031.008.031.017.016.008.016.023.016.031l-.298 1.476.424.094c.016 0 .016.023.016.039l-.267 1.82.36.023c.016 0 .016.008.031.017v.03l-.282 1.71.267-.016c.016-.008.031 0 .031.008.016.008.016.023.016.031l-.172 1.671h.345c.016 0 .031 0 .031.008.016.017.016.024.016.04l-.298 1.562h.36c.017 0 .017.008.032.016 0 .016.016.023 0 .039l-.313 1.491z"/><path d="M143.432 144.027h.298l-.251-1.733c0-.016 0-.022.016-.04 0-.008.016-.008.031-.008l.204-.023-.347-1.718v-.031c.018-.008.033-.016.049-.016l.281-.024-.455-1.718v-.031c.017-.008.017-.016.031-.016l.313-.024-.346-1.616v-.039c.017-.008.031-.008.031-.008h.344l-.471-1.639v-.031c.018-.016.018-.024.049-.024l.346.047-.689-1.726v-.031c0-.016.016-.023.03-.023l.394-.023-.58-1.734c0-.016 0-.023.017-.039s.017-.016.03-.016l.33.039-.596-1.773v-.039c.016-.008.029-.016.047-.016l.297.063-.143-.769-.94.016-.941-.016-.126.769.282-.063c.016 0 .032.008.048.016v.039l-.597 1.773.329-.039s.016 0 .031.016c.017.016.017.023.017.039l-.581 1.734.393.023c.016 0 .031.008.031.023 0 .008.016.023 0 .031l-.69 1.726.345-.047c.032 0 .032.008.048.024v.031l-.471 1.639h.345s.016 0 .031.008v.039l-.345 1.616.313.024.031.016v.031l-.455 1.718.283.024s.031.008.047.016v.031l-.33 1.718.188.023c.016 0 .031 0 .031.008.016.017.016.024.016.04l-.251 1.733h.299s.031.008.047.016v.04l-.267 1.49.298.022c.016 0 .031.009.031.017.016.008.016.023.016.031l-.298 1.476.424.094c.016 0 .016.023.016.039l-.267 1.82.36.023c.016 0 .016.009.031.017v.03l-.282 1.711.267-.017c.016-.008.031 0 .031.008.016.009.016.023.016.031l-.172 1.671h.345c.016 0 .031 0 .031.008.016.017.016.024.016.04l-.298 1.562h.36c.017 0 .017.008.032.016 0 .017.016.023 0 .039l-.314 1.491h2.511l-.314-1.491c-.016-.016 0-.022 0-.039.019-.008.019-.016.032-.016h.359l-.299-1.562c0-.016 0-.023.018-.04 0-.008.018-.008.029-.008h.347l-.172-1.671c0-.008 0-.022.016-.031 0-.008.017-.016.031-.008l.269.017-.283-1.711v-.03c.017-.008.017-.017.031-.017l.36-.023-.269-1.82c-.017-.016 0-.039.017-.039l.424-.094-.298-1.476c0-.008 0-.022.018-.031 0-.008.016-.017.029-.017l.298-.022-.267-1.49v-.04a.113.113 0 01.049-.016zM141.753 163.841c1.583 0 2.964-.47 3.781-1.191v-6.347h-7.563v6.347c.816.721 2.197 1.191 3.782 1.191z" fill="#F1B71A"/><path d="M143.417 158.091a7.04 7.04 0 01-.815.142l-.831 3.545-1.318-3.616a6.96 6.96 0 01-.753-.172.317.317 0 00-.078.165l-.644 3.413-1.004-2.009v1.828l.251.511c.376.274.863.51 1.412.683l.518-2.808 1.13 3.098a8.106 8.106 0 001.084-.007l.782-3.318 1.24 2.847c.455-.18.847-.423 1.146-.689v-2.189l-.688 1.884-1.432-3.308z" fill="#D51F27"/><path d="M141.753 154.678c-2.103 0-3.781.809-3.781 1.805 0 .987 1.679 1.796 3.781 1.796s3.796-.809 3.796-1.796c0-.995-1.694-1.805-3.796-1.805zm0 3.186c-1.601 0-2.919-.62-2.919-1.381 0-.77 1.318-1.389 2.919-1.389 1.6 0 2.917.62 2.917 1.389 0 .762-1.317 1.381-2.917 1.381z" fill="#233E88"/><path d="M141.392 154.687v.416c.126 0 .235-.009.361-.009.125 0 .235.009.36.009v-.416c-.125-.009-.235-.009-.36-.009-.126 0-.235 0-.361.009zM142.113 158.272v-.416c-.125 0-.235.008-.36.008-.126 0-.235-.008-.361-.008v.416c.126 0 .235.008.361.008.125 0 .235-.008.36-.008zM145.502 156.484c0-.063 0-.118-.018-.172-.018-.031-.018-.056-.029-.087 0-.022 0-.038-.018-.055h-.8c.016.047.03.094.047.149.017.055.03.109.03.165a.549.549 0 01-.03.148v.008c-.017.048-.031.103-.047.149h.8c.018-.016.018-.04.018-.055.016-.031.016-.063.029-.086.018-.056.018-.109.018-.164zM138.003 156.484c0 .055 0 .109.016.165.016.023.016.055.031.086 0 .016.016.04.016.055h.8c-.016-.047-.031-.102-.047-.149v-.008a.496.496 0 01-.031-.148c0-.056.016-.11.031-.165a2.7 2.7 0 01.047-.149h-.8c0 .016-.016.031-.016.055-.016.031-.016.056-.031.086-.016.054-.016.108-.016.172z" fill="#87B918"/><path d="M141.753 155.133c-1.585 0-2.871.604-2.871 1.35 0 .729 1.286 1.333 2.871 1.333 1.583 0 2.871-.604 2.871-1.333 0-.745-1.288-1.35-2.871-1.35z" fill="#FFF"/><path d="M137.972 161.7v.949c.815.722 2.196 1.191 3.781 1.191 1.583 0 2.964-.47 3.781-1.191v-.949c-.816.714-2.197 1.185-3.781 1.185-1.585-.001-2.966-.471-3.781-1.185z" fill="#233E88"/><path d="M145.581 156.475v-.016c0-.055 0-.11-.017-.165 0-.032-.017-.047-.017-.071-.017-.039-.03-.078-.047-.117-.328-.784-1.709-1.39-3.39-1.459a5.117 5.117 0 00-.722 0c-1.679.069-3.06.675-3.389 1.459l-.047.117c0 .023-.016.039-.016.071-.016.055-.016.109-.016.165v6.25c.862.729 2.306 1.169 3.828 1.169 1.521 0 2.964-.438 3.812-1.169.018-.008.018-.016.018-.031V156.475h.003zm-3.436-1.74c1.602.078 2.902.627 3.264 1.349h-.816c-.327-.534-1.271-.941-2.445-1.012l-.003-.337zm-.706-.01c.095 0 .204-.008.314-.008h.016c.094 0 .204.008.298.008v.338c-.016-.009-.047-.009-.063-.009h-.502c-.016 0-.048 0-.063.009v-.338zm-.047.425c.047-.009.095-.009.142-.009.063 0 .141-.008.22-.008.078 0 .156.008.22.008.203.009.376.023.563.048.142.023.268.04.394.07h.016c.251.056.486.125.705.212v.009c.503.203.863.493.94.832a.564.564 0 01.031.172c0 .055-.017.109-.031.165-.077.33-.438.619-.94.832v.008a4.537 4.537 0 01-.705.211h-.016c-.126.032-.252.047-.394.071a7.58 7.58 0 01-.563.047h-.44c-.047 0-.095-.009-.142-.009a7.583 7.583 0 01-.424-.038c-.141-.023-.267-.039-.392-.071h-.016a4.696 4.696 0 01-.706-.211v-.008c-.502-.213-.863-.502-.941-.832a.6.6 0 01-.031-.165c0-.063.016-.118.031-.172.047-.196.188-.377.392-.534.157-.118.33-.211.55-.298v-.009c.22-.086.455-.156.706-.212h.016c.109-.03.251-.047.392-.07.14-.016.281-.031.423-.039zm4.017 1.725c-.361.722-1.664 1.271-3.265 1.35v-.337c1.177-.07 2.118-.479 2.446-1.012l.819-.001zm-3.343 1.021v.337c-.094 0-.204.008-.298.008h-.016c-.11 0-.22-.008-.314-.008v-.337h.079c.156.008.313.008.471 0h.078zm-.706-.009v.337c-1.601-.078-2.902-.628-3.264-1.35h.816c.33.535 1.272.943 2.448 1.013zm0-3.152v.337c-1.177.07-2.118.479-2.447 1.012h-.816c.361-.722 1.663-1.271 3.263-1.349zm-3.357 1.685c0-.032 0-.071.016-.109.016-.031.016-.056.031-.087 0-.022.016-.038.016-.055h.8a3.377 3.377 0 00-.047.149.593.593 0 00-.031.165c0 .047.016.102.031.148v.008c.016.048.031.103.047.149h-.8c0-.016-.016-.04-.016-.055-.016-.031-.016-.063-.031-.086-.016-.047-.016-.103-.016-.142v-.022-.063zm7.499 6.213c-.849.729-2.244 1.169-3.75 1.169-1.507 0-2.903-.438-3.75-1.169v-.847c.862.714 2.259 1.146 3.75 1.146s2.887-.432 3.75-1.146v.847zm0-.95c-.849.723-2.244 1.161-3.75 1.161-1.507 0-2.903-.438-3.75-1.161v-4.823c.345.776 1.71 1.381 3.389 1.451.142.008.251.008.361.008.109 0 .22 0 .36-.008 1.68-.07 3.044-.675 3.391-1.451v4.823zm0-5.177c0 .04 0 .094-.018.142-.018.023-.018.055-.029.086 0 .016 0 .04-.018.055h-.8c.016-.047.03-.102.047-.149v-.008a.465.465 0 00.03-.148c0-.056-.016-.11-.03-.165-.017-.056-.031-.103-.047-.149h.8c.018.016.018.031.018.055.016.031.016.056.029.086a.251.251 0 01.018.11V156.506z"/></g><g><path d="M113.105 163.966c-.251 0-.455.142-.58.354-.095-.346-.33-1.027-.769-.863-.565.22-.252 1.169-.252 1.169l-6.149 1.985c-.079-.549.91-1.522.91-1.522.407.369.502.737.502.737 0-1.161 1.333-2.173 1.333-2.173-1.945.148-3.326 1.177-3.326 1.177.816-.11 1.005.022 1.005.022s-2.181 1.96-1.867 2.495c.282.533 3.404 1.098 3.404 1.098-.094.354-.941.776-.941.776 1.538.386 3.64-1.121 3.64-1.121-1.412-.204-2.572-1.026-2.572-1.026.234.697.063.809.063.809-1.569-.369-1.945-.809-1.945-.809l6.149-1.654s.267 1.025.848.878c.471-.117.267-.87.188-1.09a.73.73 0 00.36.102.67.67 0 00.675-.675.677.677 0 00-.676-.669zm0 1.004a.327.327 0 01-.329-.337c0-.18.141-.33.329-.33s.329.149.329.33a.327.327 0 01-.329.337z" fill="#F0B505"/><path d="M106.923 169.324c-.204 0-.392-.022-.564-.063 0 0-.016-.017-.016-.04 0-.018 0-.029.016-.039 0 0 .769-.384.91-.706-.408-.069-3.122-.596-3.404-1.104-.283-.518 1.459-2.164 1.835-2.509-.063-.017-.172-.031-.345-.031s-.361.016-.581.047c-.031 0-.047-.016-.047-.031-.016-.016 0-.039.016-.047s1.428-1.035 3.357-1.184c.016 0 .031.008.047.031.016.016 0 .03-.016.039-.016.016-1.317 1.02-1.317 2.142 0 .016-.016.039-.016.039-.047 0-.063-.008-.079-.031 0 0-.078-.345-.454-.689-.142.164-.879.934-.863 1.411l6.056-1.952c-.063-.188-.251-.98.282-1.186a.389.389 0 01.142-.031c.346 0 .549.486.659.832a.712.712 0 011.286.415c0 .4-.313.714-.722.714a.855.855 0 01-.282-.055c.063.219.141.596 0 .847a.375.375 0 01-.267.203c-.031.009-.079.009-.11.009-.471 0-.706-.697-.769-.887l-6.04 1.624c.142.125.644.463 1.852.745.031-.039.109-.204-.079-.745-.016-.022 0-.04.017-.048.016-.016.031-.016.047 0 0 0 1.16.824 2.557 1.021.016 0 .031.016.031.021 0 .021 0 .039-.016.047-.017.015-1.695 1.191-3.123 1.191zm-.423-.125c.125.031.282.047.423.047 1.224 0 2.62-.887 2.981-1.121-1.13-.188-2.087-.754-2.385-.949.188.604.031.729 0 .736-.016.009-.016.009-.031.009-1.554-.368-1.945-.8-1.961-.823-.016-.008-.016-.023-.016-.04.016-.016.016-.022.031-.022l6.149-1.654h.031c.016.008.016.024.016.032.017.008.235.862.706.862.031 0 .063-.009.095-.009a.33.33 0 00.22-.172c.141-.259 0-.729-.047-.871 0-.022 0-.039.016-.047.016-.016.031-.016.047-.008a.67.67 0 00.329.103.644.644 0 00.644-.636c0-.345-.298-.62-.644-.62a.64.64 0 00-.549.322c0 .017-.016.031-.031.023-.016 0-.031-.017-.048-.031-.063-.259-.25-.855-.596-.855a.232.232 0 00-.094.023c-.534.204-.251 1.114-.251 1.122v.031c0 .008 0 .016-.017.023l-6.149 1.983c-.016 0-.031 0-.047-.008 0 0-.016-.017-.016-.031-.079-.564.894-1.513.94-1.562.017-.008.032-.016.048 0 .235.22.376.432.439.573.109-.901.94-1.663 1.239-1.922-1.49.149-2.651.808-3.044 1.059.157-.008.298-.022.424-.022.329 0 .439.063.439.063.016.017.031.031.031.039 0 .017-.016.031-.016.039-.597.534-2.103 2.032-1.867 2.44.22.406 2.306.886 3.373 1.082.016.008.031.008.047.016v.039c-.075.29-.624.612-.859.737zm6.605-4.182a.382.382 0 01-.376-.384c0-.204.172-.369.376-.369s.377.165.377.369a.384.384 0 01-.377.384zm0-.674a.287.287 0 00-.282.29c0 .165.125.298.282.298s.298-.134.298-.298a.302.302 0 00-.298-.29z"/></g><g><path d="M170.4 163.966c.251 0 .455.142.58.354.095-.346.33-1.027.771-.863.563.22.25 1.169.25 1.169l6.149 1.985c.079-.549-.909-1.522-.909-1.522-.408.369-.503.737-.503.737 0-1.161-1.333-2.173-1.333-2.173 1.93.148 3.326 1.177 3.326 1.177-.816-.11-1.004.022-1.004.022s2.182 1.96 1.865 2.495c-.281.533-3.403 1.098-3.403 1.098.095.354.94.776.94.776-1.537.386-3.639-1.121-3.639-1.121 1.41-.204 2.571-1.026 2.571-1.026-.233.697-.063.809-.063.809 1.568-.369 1.945-.809 1.945-.809l-6.15-1.654s-.267 1.025-.848.878c-.471-.117-.267-.87-.188-1.09a.734.734 0 01-.361.102.67.67 0 01-.675-.675.68.68 0 01.679-.669zm0 1.004a.327.327 0 00.329-.337c0-.18-.141-.33-.329-.33s-.329.149-.329.33c0 .189.14.337.329.337z" fill="#F0B505"/><path d="M176.583 169.324c.203 0 .394-.022.563-.063 0 0 .017-.017.017-.04 0-.018 0-.029-.017-.039 0 0-.769-.384-.91-.706.408-.069 3.122-.596 3.405-1.104.281-.518-1.46-2.164-1.836-2.509.063-.017.173-.031.345-.031.173 0 .36.016.581.047.031 0 .047-.016.047-.031.016-.016 0-.039-.016-.047s-1.428-1.035-3.357-1.184c-.016 0-.031.008-.047.031-.016.016 0 .03.016.039.018.016 1.317 1.02 1.317 2.142 0 .016.017.039.031.039.03 0 .048-.008.063-.031 0 0 .076-.345.453-.689.143.164.879.934.862 1.411l-6.058-1.952c.063-.188.252-.98-.28-1.186a.39.39 0 00-.144-.031c-.345 0-.563.486-.658.832a.714.714 0 00-1.287.415c0 .4.314.714.724.714a.85.85 0 00.282-.055c-.063.219-.143.596 0 .847a.375.375 0 00.267.203c.031.009.079.009.11.009.471 0 .722-.697.77-.887l6.041 1.624c-.143.125-.646.463-1.853.745-.032-.039-.11-.204.077-.745.017-.022 0-.04-.016-.048-.017-.016-.031-.016-.048 0 0 0-1.161.824-2.558 1.021-.016 0-.031.016-.031.021 0 .021 0 .039.016.047.022.015 1.7 1.191 3.129 1.191zm.423-.125a1.88 1.88 0 01-.424.047c-1.226 0-2.621-.887-2.981-1.121 1.13-.188 2.087-.754 2.385-.949-.188.604-.03.729 0 .736.017.009.017.009.032.009 1.553-.368 1.945-.8 1.961-.823.016-.008.016-.023.016-.04-.016-.016-.016-.022-.031-.022l-6.148-1.654h-.029c-.018.008-.018.024-.018.032-.018.008-.234.862-.706.862-.031 0-.063-.009-.097-.009-.107-.03-.172-.086-.201-.172-.157-.259-.018-.729.029-.871 0-.022 0-.039-.016-.047-.016-.016-.031-.016-.048-.008a.666.666 0 01-.329.103.646.646 0 01-.645-.636c0-.345.3-.62.645-.62a.64.64 0 01.549.322c0 .017.016.031.031.023.016 0 .032-.017.048-.031.063-.259.267-.855.597-.855.03 0 .063.009.095.023.532.204.252 1.114.252 1.122v.031c0 .008.016.016.016.016l6.147 1.991c.018 0 .031 0 .049-.008 0 0 .018-.016.018-.031.077-.563-.896-1.512-.927-1.561-.03-.008-.048-.016-.063 0-.233.22-.377.432-.438.573-.109-.901-.939-1.663-1.238-1.922 1.489.149 2.649.808 3.043 1.06-.156-.009-.299-.023-.425-.023-.327 0-.438.063-.438.063-.016.017-.03.031-.03.039 0 .017.017.031.017.039.596.534 2.103 2.032 1.866 2.439-.22.408-2.306.887-3.373 1.082-.017.009-.03.009-.03.017-.017.008-.017.022-.017.039.071.288.621.61.856.735zm-6.606-4.182a.383.383 0 00.377-.384c0-.204-.173-.369-.377-.369s-.377.165-.377.369c0 .212.173.384.377.384zm0-.674c.157 0 .282.133.282.29 0 .165-.125.298-.282.298s-.298-.134-.298-.298a.302.302 0 01.298-.29z"/></g><g><path d="M118.234 162.601a.591.591 0 01-.58.589.595.595 0 01-.596-.589c0-.328.267-.596.596-.596.314 0 .58.268.58.596z" fill="#F0B505"/><path d="M117.654 163.23a.644.644 0 01-.644-.629c0-.353.299-.643.644-.643.346 0 .628.29.628.643a.63.63 0 01-.628.629zm0-1.185a.56.56 0 00-.564.558.56.56 0 00.564.549.542.542 0 00.533-.549.544.544 0 00-.533-.558z"/><path d="M118.234 164.917a.593.593 0 01-.58.596.596.596 0 01-.596-.596c0-.322.267-.588.596-.588a.589.589 0 01.58.588z" fill="#F0B505"/><path d="M117.654 165.551a.646.646 0 01-.644-.635c0-.345.299-.636.644-.636a.637.637 0 010 1.271zm0-1.184a.56.56 0 00-.564.549c0 .306.251.549.564.549a.537.537 0 00.533-.549.541.541 0 00-.533-.549z"/><path d="M116.964 164.917a.6.6 0 01-.611.596.593.593 0 010-1.184.596.596 0 01.611.588z" fill="#F0B505"/><path d="M116.353 165.551a.637.637 0 010-1.271.636.636 0 110 1.271zm0-1.184a.542.542 0 00-.534.549c0 .306.235.549.534.549a.554.554 0 00.564-.549.56.56 0 00-.564-.549z"/><path d="M119.522 162.601a.591.591 0 01-.58.589.586.586 0 01-.597-.589c0-.328.251-.596.597-.596.313 0 .58.268.58.596z" fill="#F0B505"/><path d="M118.941 163.23a.634.634 0 01-.644-.629.64.64 0 01.644-.643c.345 0 .627.29.627.643a.63.63 0 01-.627.629zm0-1.185a.561.561 0 00-.565.558.56.56 0 00.565.549.542.542 0 00.533-.549.544.544 0 00-.533-.558z"/><path d="M119.522 164.917a.593.593 0 01-.58.596.586.586 0 01-.597-.596.59.59 0 011.177 0z" fill="#F0B505"/><path d="M118.941 165.551a.635.635 0 11-.017-1.27.635.635 0 01.017 1.27zm0-1.184a.56.56 0 00-.565.549c0 .306.251.549.565.549a.537.537 0 00.533-.549.541.541 0 00-.533-.549z"/><g><path d="M120.839 164.917a.583.583 0 01-.58.596.597.597 0 01-.597-.596c0-.322.268-.588.597-.588a.58.58 0 01.58.588z" fill="#F0B505"/><path d="M120.259 165.551a.636.636 0 01-.644-.635.64.64 0 01.644-.636c.345 0 .628.291.628.636a.632.632 0 01-.628.635zm0-1.184a.556.556 0 00-.549.549.55.55 0 00.549.549.55.55 0 00.549-.549.556.556 0 00-.549-.549z"/></g><g><path d="M118.878 163.801a.59.59 0 01-.58.588.595.595 0 01-.597-.588c0-.329.267-.596.597-.596.313.001.58.267.58.596z" fill="#F0B505"/><path d="M118.298 164.429a.633.633 0 01-.644-.628c0-.353.282-.635.644-.635a.63.63 0 01.627.635.628.628 0 01-.627.628zm0-1.176a.555.555 0 00-.565.549.56.56 0 00.565.549.556.556 0 00.549-.549.551.551 0 00-.549-.549z"/></g><g><path d="M117.561 163.801a.605.605 0 01-.597.588.595.595 0 01-.596-.588c0-.329.267-.596.596-.596a.608.608 0 01.597.596z" fill="#F0B505"/><path d="M116.964 164.429a.644.644 0 01-.644-.628c0-.353.299-.635.644-.635a.63.63 0 01.628.635.628.628 0 01-.628.628zm0-1.176a.541.541 0 00-.549.549c0 .298.235.549.549.549.298 0 .55-.251.55-.549a.552.552 0 00-.55-.549z"/></g><g><path d="M120.165 163.801a.58.58 0 01-.581.588.595.595 0 01-.596-.588c0-.329.267-.596.596-.596.33.001.581.267.581.596z" fill="#F0B505"/><path d="M119.584 164.429a.643.643 0 01-.643-.628c0-.353.298-.635.643-.635a.63.63 0 01.628.635.628.628 0 01-.628.628zm0-1.176a.55.55 0 00-.549.549c0 .298.251.549.549.549a.545.545 0 00.549-.549.541.541 0 00-.549-.549z"/></g></g><g><path d="M165.129 162.601a.596.596 0 01-.596.589.593.593 0 010-1.185c.329 0 .596.268.596.596z" fill="#F0B505"/><path d="M164.534 163.23a.63.63 0 01-.629-.629c0-.353.282-.643.629-.643.359 0 .627.29.627.643a.62.62 0 01-.627.629zm0-1.185c-.3 0-.551.251-.551.558 0 .298.251.549.551.549a.546.546 0 00.549-.549.548.548 0 00-.549-.558z"/><path d="M165.129 164.917a.597.597 0 01-.596.596.592.592 0 010-1.184.593.593 0 01.596.588z" fill="#F0B505"/><path d="M164.534 165.551a.631.631 0 01-.629-.635c0-.345.282-.636.629-.636.359 0 .627.291.627.636a.622.622 0 01-.627.635zm0-1.184c-.3 0-.551.251-.551.549 0 .306.251.549.551.549a.541.541 0 00.549-.549.546.546 0 00-.549-.549z"/><path d="M163.842 164.917c0 .329-.266.596-.596.596s-.58-.267-.58-.596a.58.58 0 01.58-.588.591.591 0 01.596.588z" fill="#F0B505"/><path d="M163.247 165.551a.636.636 0 11.018-1.27.636.636 0 01-.018 1.27zm0-1.184a.556.556 0 00-.55.549.55.55 0 001.099 0 .556.556 0 00-.549-.549z"/><path d="M166.415 162.601a.595.595 0 01-.596.589.583.583 0 01-.581-.589c0-.328.253-.596.581-.596.329 0 .596.268.596.596z" fill="#F0B505"/><path d="M165.819 163.23a.63.63 0 01-.628-.629c0-.353.283-.643.628-.643a.636.636 0 110 1.272zm0-1.185a.548.548 0 00-.549.558c0 .298.234.549.549.549a.555.555 0 00.549-.549.557.557 0 00-.549-.558z"/><path d="M166.415 164.917a.596.596 0 01-.596.596.584.584 0 01-.581-.596c0-.322.253-.588.581-.588.329 0 .596.265.596.588z" fill="#F0B505"/><path d="M165.819 165.551a.632.632 0 01-.628-.635c0-.345.283-.636.628-.636.36 0 .645.291.645.636a.637.637 0 01-.645.635zm0-1.184a.546.546 0 00-.549.549.54.54 0 00.549.549.55.55 0 00.549-.549.555.555 0 00-.549-.549z"/><g><path d="M167.733 164.917a.583.583 0 01-.581.596.598.598 0 01-.61-.596c0-.322.268-.588.61-.588a.58.58 0 01.581.588z" fill="#F0B505"/><path d="M167.152 165.551a.636.636 0 01-.644-.635.636.636 0 11.644.635zm0-1.184a.558.558 0 00-.563.549c0 .306.25.549.563.549.3 0 .534-.243.534-.549a.541.541 0 00-.534-.549z"/></g><g><path d="M165.772 163.801a.595.595 0 01-.598.588.595.595 0 01-.596-.588.597.597 0 011.194 0z" fill="#F0B505"/><path d="M165.176 164.429a.628.628 0 01-.627-.628c0-.353.281-.635.627-.635s.644.282.644.635a.643.643 0 01-.644.628zm0-1.176a.55.55 0 00-.549.549c0 .298.25.549.549.549a.546.546 0 00.549-.549.541.541 0 00-.549-.549z"/></g><g><path d="M164.439 163.801a.59.59 0 01-.58.588.595.595 0 01-.597-.588c0-.329.267-.596.597-.596.313.001.58.267.58.596z" fill="#F0B505"/><path d="M163.858 164.429a.634.634 0 01-.645-.628c0-.353.283-.635.645-.635.346 0 .611.282.611.635a.614.614 0 01-.611.628zm0-1.176a.554.554 0 00-.564.549.56.56 0 00.564.549.542.542 0 00.533-.549.537.537 0 00-.533-.549z"/></g><g><path d="M167.059 163.801a.58.58 0 01-.58.588.596.596 0 01-.598-.588c0-.329.268-.596.598-.596.329.001.58.267.58.596z" fill="#F0B505"/><path d="M166.479 164.429a.634.634 0 01-.645-.628c0-.353.283-.635.645-.635a.63.63 0 01.627.635.63.63 0 01-.627.628zm0-1.176a.541.541 0 00-.55.549c0 .298.235.549.55.549a.556.556 0 00.549-.549.552.552 0 00-.549-.549z"/></g></g><g><path d="M135.571 161.7c1.098 0 1.035-.809 1.035-.809v-2.117c0-1.443-1.13-1.333-1.13-1.333v-1.099h-.627v1.122c-.502 0-.439.746-.439.746v2.714c0 1.036-.125 1.554-.235 1.813-.455.118-.753.337-.753.596 0 .377.659.683 1.475.683s1.475-.306 1.475-.683c0-.321-.455-.58-1.082-.659-.142-.408-.142-.973-.142-.973l.423-.001zm-.533-2.142c0-.847.22-1.529.486-1.529s.486.683.486 1.529c0 .848-.22 1.53-.486 1.53s-.486-.682-.486-1.53z" fill="#F0B505"/><path d="M134.897 164.052c-.848 0-1.521-.32-1.521-.722 0-.267.298-.502.769-.635.094-.251.22-.753.22-1.773v-2.714c0-.016-.031-.438.172-.659a.422.422 0 01.283-.125v-1.083c0-.03.016-.047.031-.047h.627c.031 0 .048.017.048.047v1.051c.204 0 1.129.07 1.129 1.381v2.117c0 .009.016.307-.204.55-.188.195-.486.298-.878.298h-.377c0 .133.016.564.126.894.658.094 1.098.361 1.098.698-.002.402-.676.722-1.523.722zm0-7.671v1.083c0 .024-.016.047-.047.047a.35.35 0 00-.251.095c-.173.195-.157.597-.157.597v2.722c0 .839-.078 1.467-.235 1.828 0 .008-.016.023-.016.023-.455.117-.722.329-.722.557 0 .345.659.636 1.428.636.784 0 1.428-.291 1.428-.636 0-.29-.424-.541-1.035-.62-.016 0-.031-.016-.048-.022-.141-.408-.141-.966-.141-.988 0-.024.031-.047.047-.047h.424c.36 0 .644-.086.8-.268.22-.22.188-.494.188-.494v-2.117c0-1.2-.784-1.294-1.035-1.294h-.032c-.016 0-.031-.009-.047-.009l-.016-.03v-1.06h-.533v-.003zm.627 4.746c-.33 0-.534-.8-.534-1.569 0-.776.204-1.568.534-1.568.329 0 .518.792.518 1.568 0 .769-.188 1.569-.518 1.569zm0-3.059c-.204 0-.455.611-.455 1.49 0 .88.251 1.49.455 1.49s.438-.611.438-1.49c0-.878-.233-1.49-.438-1.49z"/><g><path d="M147.934 161.7c-1.098 0-1.035-.809-1.035-.809v-2.117c0-1.443 1.13-1.333 1.13-1.333v-1.099h.627v1.122c.503 0 .438.746.438.746v2.714c0 1.036.127 1.554.236 1.813.455.118.752.337.752.596 0 .377-.658.683-1.476.683-.813 0-1.476-.306-1.476-.683 0-.321.455-.58 1.082-.659.143-.408.143-.973.143-.973l-.421-.001zm.533-2.142c0-.847-.219-1.529-.486-1.529-.266 0-.486.683-.486 1.529 0 .848.221 1.53.486 1.53.268 0 .486-.682.486-1.53z" fill="#F0B505"/><path d="M148.608 164.052c-.848 0-1.521-.32-1.521-.722 0-.337.439-.604 1.1-.698.109-.329.126-.761.126-.894h-.377c-.394 0-.688-.103-.878-.298-.221-.243-.204-.541-.204-.558v-2.109c0-1.311.926-1.381 1.129-1.381v-1.051c0-.03.032-.047.048-.047h.627c.018 0 .032.017.032.047v1.083a.433.433 0 01.282.125c.203.221.172.645.172.659v2.714c0 1.021.126 1.522.22 1.773.472.133.771.369.771.635-.004.402-.679.722-1.527.722zm-.628-6.572c-.25 0-1.035.094-1.035 1.294v2.117s-.03.274.188.494c.156.182.438.268.8.268h.424c.017 0 .047.022.047.047 0 .022 0 .581-.141.988-.017.008-.031.022-.048.022-.611.079-1.035.33-1.035.62 0 .345.658.636 1.428.636s1.428-.291 1.428-.636c0-.228-.267-.439-.722-.557 0 0-.017-.017-.017-.023-.156-.361-.234-.989-.234-1.828v-2.714s.016-.408-.157-.604a.353.353 0 00-.251-.095c-.031 0-.047-.022-.047-.047v-1.083h-.533v1.06l-.016.022c-.016.008-.031.017-.047.017.001.002-.015.002-.032.002zm0 3.647c-.329 0-.519-.8-.519-1.569 0-.776.188-1.568.519-1.568s.534.792.534 1.568c.001.769-.203 1.569-.534 1.569zm0-3.059c-.203 0-.438.611-.438 1.49 0 .88.235 1.49.438 1.49.204 0 .455-.611.455-1.49 0-.878-.25-1.49-.455-1.49z"/></g></g><g><path d="M124.229 164.579a.596.596 0 01-1.194 0c0-.329.268-.588.597-.588s.597.259.597.588z" fill="#F0B505"/><path d="M123.632 165.214a.631.631 0 01-.628-.635c0-.345.283-.636.628-.636.345 0 .644.291.644.636a.646.646 0 01-.644.635zm0-1.184a.556.556 0 00-.549.549.55.55 0 00.549.549.541.541 0 00.549-.549.546.546 0 00-.549-.549z"/><path d="M126.393 163.826a.596.596 0 11-1.192 0c0-.321.267-.588.596-.588s.596.266.596.588z" fill="#F0B505"/><path d="M125.797 164.461a.646.646 0 01-.644-.636.644.644 0 011.288 0 .646.646 0 01-.644.636zm0-1.184c-.298 0-.549.243-.549.549s.251.549.549.549.549-.243.549-.549-.251-.549-.549-.549z"/><g><path d="M127.915 164.948a.59.59 0 01-.597.588.589.589 0 110-1.176c.33 0 .597.258.597.588z" fill="#F0B505"/><path d="M127.318 165.575a.629.629 0 01-.627-.627.63.63 0 01.627-.636c.346 0 .644.282.644.636a.643.643 0 01-.644.627zm0-1.176a.55.55 0 10.55.549.54.54 0 00-.55-.549z"/></g><g><path d="M159.277 164.579a.596.596 0 101.193 0c0-.329-.266-.588-.596-.588s-.597.259-.597.588z" fill="#F0B505"/><path d="M159.874 165.214c.36 0 .645-.282.645-.635a.64.64 0 00-.645-.636.65.65 0 00-.644.636c0 .352.298.635.644.635zm0-1.184c.297 0 .549.251.549.549a.551.551 0 01-.549.549.541.541 0 01-.549-.549c0-.298.235-.549.549-.549z"/><path d="M157.112 163.826a.598.598 0 001.195 0 .597.597 0 00-.599-.588.594.594 0 00-.596.588z" fill="#F0B505"/><path d="M157.708 164.461a.632.632 0 00.629-.636.63.63 0 00-.629-.635c-.345 0-.644.282-.644.635s.299.636.644.636zm0-1.184a.55.55 0 010 1.098c-.297 0-.549-.243-.549-.549s.252-.549.549-.549z"/><g><path d="M155.59 164.948a.59.59 0 00.597.588.59.59 0 00.597-.588.59.59 0 00-.597-.588.588.588 0 00-.597.588z" fill="#F0B505"/><path d="M156.187 165.575a.629.629 0 00.627-.627.63.63 0 00-.627-.636.644.644 0 00-.644.636c0 .344.297.627.644.627zm0-1.176a.55.55 0 11-.55.549c0-.307.237-.549.55-.549z"/></g></g></g><g><path d="M129.358 161.424h-.848s-.016-1.105.519-1.012l.518.463s2.479.447 1.977 2.243c-.502 1.789-2.338.815-2.338.815s-1.396-.722-1.302-1.576c0 0 .109-.313.941-.056.831.27 2.463.474.533-.877z" fill="#FFF"/><path d="M131.43 161.919c-.502-.8-1.711-1.059-1.852-1.082l-.518-.455a.075.075 0 01-.031-.008.329.329 0 00-.314.102c-.251.26-.235.919-.235.949 0 .024.016.04.031.04h.832c.815.581.895.809.878.886-.016.071-.141.11-.329.11-.345 0-.769-.102-1.051-.196a2.113 2.113 0 00-.581-.102c-.345 0-.424.181-.424.196-.094.871 1.271 1.577 1.334 1.607a2.34 2.34 0 001.067.274c.454 0 1.066-.196 1.317-1.114.142-.454.094-.853-.124-1.207zm-2.653-1.388c.063-.071.142-.086.236-.079l.502.432-.188.502h-.769c.001-.148.032-.65.219-.855zm2.7 2.573c-.188.697-.612 1.051-1.239 1.051-.534 0-1.036-.259-1.036-.259-.016-.009-1.349-.715-1.286-1.522.016-.023.078-.133.345-.133.157 0 .346.04.55.102.282.095.737.204 1.082.204.235 0 .377-.063.408-.165.063-.195-.235-.51-.895-.973l.173-.486c.22.039 1.317.307 1.772 1.036.204.337.251.721.126 1.145z"/></g><g><path d="M154.147 161.424h.848s.016-1.105-.518-1.012l-.518.463s-2.479.447-1.979 2.243c.502 1.789 2.338.815 2.338.815s1.381-.722 1.304-1.576c0 0-.109-.313-.941-.056-.832.27-2.464.474-.534-.877z" fill="#FFF"/><path d="M152.077 161.919c.502-.8 1.709-1.059 1.85-1.082l.521-.455c.017 0 .031-.008.031-.008a.33.33 0 01.313.102c.252.26.252.919.234.949 0 .024-.018.04-.029.04h-.832c-.815.581-.896.809-.879.886.016.071.141.11.328.11.348 0 .77-.102 1.053-.196a2.1 2.1 0 01.58-.102c.346 0 .424.181.424.196.078.871-1.271 1.577-1.334 1.607a2.342 2.342 0 01-1.065.274c-.455 0-1.067-.196-1.317-1.114-.146-.454-.099-.853.122-1.207zm2.651-1.388c-.063-.071-.142-.086-.235-.079l-.502.432.188.502h.771c-.003-.148-.033-.65-.222-.855zm-2.7 2.573c.188.697.612 1.051 1.24 1.051.533 0 1.035-.259 1.035-.259.016-.009 1.349-.715 1.285-1.522-.017-.023-.078-.133-.344-.133-.158 0-.348.04-.552.102-.28.095-.735.204-1.082.204-.233 0-.377-.063-.407-.165-.063-.195.234-.51.896-.973l-.173-.486c-.204.039-1.317.307-1.772 1.036-.204.337-.251.721-.126 1.145z"/></g><g><path d="M138.567 164.845a.783.783 0 00-.659.354.746.746 0 00-.689-.463.744.744 0 00-.675.399c-.142-.251-.393-.423-.69-.423s-.549.165-.675.408a.756.756 0 00-.69-.423.744.744 0 00-.674.416.78.78 0 00-.723-.486.765.765 0 00-.737.573.772.772 0 00-1.444.377.77.77 0 00.77.768.75.75 0 00.737-.58c.141.235.392.4.674.4a.784.784 0 00.69-.416.761.761 0 001.381.086.777.777 0 00.69.423.792.792 0 00.675-.408.765.765 0 001.333.064.77.77 0 00.706.471.77.77 0 000-1.54zm-6.886 1.106c-.204 0-.377-.171-.377-.375s.173-.376.377-.376c.203 0 .376.172.376.376s-.173.375-.376.375zm1.411-.188a.362.362 0 01-.36-.368.37.37 0 01.36-.378c.22 0 .377.174.377.378a.365.365 0 01-.377.368zm1.396.078c-.203 0-.36-.172-.36-.376s.157-.376.36-.376c.204 0 .377.172.377.376s-.173.376-.377.376zm1.366.017a.376.376 0 01-.377-.369c0-.212.173-.376.377-.376s.361.165.361.376a.362.362 0 01-.361.369zm1.365.023a.388.388 0 01-.393-.385c0-.204.173-.369.393-.369.188 0 .36.165.36.369 0 .212-.173.385-.36.385zm1.348.101a.364.364 0 01-.376-.368c0-.211.156-.376.376-.376.204 0 .377.165.377.376a.373.373 0 01-.377.368z" fill="#EFB500"/><path d="M138.567 166.422a.83.83 0 01-.722-.424.771.771 0 01-.627.313.792.792 0 01-.69-.386.824.824 0 01-.675.368.824.824 0 01-.69-.384.813.813 0 01-1.397-.078.785.785 0 01-.675.368.76.76 0 01-.643-.336.828.828 0 01-.769.525.826.826 0 01-.816-.815.82.82 0 01.816-.809c.267 0 .502.125.658.338a.805.805 0 01.753-.525c.314 0 .581.172.723.438a.796.796 0 01.674-.36.8.8 0 01.69.376.814.814 0 011.365.024.797.797 0 011.381.063.808.808 0 01.643-.322c.455 0 .816.369.816.816.002.45-.36.81-.815.81zm-.706-.548c.016 0 .031.008.031.023a.72.72 0 00.675.445.731.731 0 00.722-.729.726.726 0 00-.722-.729.705.705 0 00-.611.337c-.016.017-.031.017-.048.017 0 0-.031-.008-.031-.017a.713.713 0 00-.658-.446.74.74 0 00-.644.377c-.016.022-.031.022-.031.022-.016 0-.047-.008-.047-.022a.73.73 0 00-1.288-.01s-.016.017-.031.017c-.016 0-.031-.008-.031-.024-.142-.243-.376-.399-.659-.399a.723.723 0 00-.643.392c0 .016-.016.024-.031.024-.032 0-.032-.009-.032-.024a.758.758 0 00-.69-.463.703.703 0 00-.689.549c-.016.017-.016.023-.048.031-.016 0-.031-.008-.047-.023a.714.714 0 00-.627-.376.722.722 0 00-.722.729c0 .398.313.729.722.729a.73.73 0 00.706-.549c0-.016.016-.031.031-.031s.031.009.047.023c.125.228.36.377.627.377a.732.732 0 00.644-.4c.016-.008.031-.016.047-.016s.016.008.032.023a.72.72 0 00.674.463.74.74 0 00.644-.386c.016-.016.016-.022.031-.016.016 0 .031 0 .047.016.126.251.361.4.644.4a.738.738 0 00.628-.376c.016-.016.031-.023.047-.023s.031.009.031.023a.74.74 0 00.659.398.753.753 0 00.611-.345c-.001-.004.015-.011.03-.011zm.706.155a.406.406 0 01-.407-.416c0-.235.172-.416.407-.416a.416.416 0 010 .832zm0-.752a.327.327 0 00-.329.337c0 .181.141.329.329.329s.33-.147.33-.329a.328.328 0 00-.33-.337zm-6.886.713a.407.407 0 01-.408-.416c0-.229.173-.416.408-.416a.42.42 0 01.423.416.42.42 0 01-.423.416zm0-.752c-.188 0-.33.157-.33.337s.142.337.33.337.329-.157.329-.337-.142-.337-.329-.337zm5.538.682a.413.413 0 01-.424-.424.41.41 0 01.424-.408c.22 0 .407.188.407.408a.418.418 0 01-.407.424zm0-.753c-.188 0-.346.149-.346.329 0 .188.157.337.346.337a.338.338 0 00.329-.337.337.337 0 00-.329-.329zm-1.365.73a.415.415 0 01-.424-.408c0-.235.188-.423.424-.423.22 0 .408.188.408.423a.411.411 0 01-.408.408zm0-.745a.342.342 0 00-.346.337c0 .181.157.33.346.33a.336.336 0 00.329-.33.338.338 0 00-.329-.337zm-1.366.729a.416.416 0 010-.832c.235 0 .408.188.408.416a.406.406 0 01-.408.416zm0-.746a.326.326 0 00-.329.33c0 .188.142.33.329.33.188 0 .33-.141.33-.33 0-.18-.141-.33-.33-.33zm-1.396.676a.417.417 0 01-.407-.416.42.42 0 01.407-.425.42.42 0 110 .841zm0-.754a.338.338 0 00-.329.338c0 .18.157.328.329.328.188 0 .346-.148.346-.328a.343.343 0 00-.346-.338z"/></g><g><path d="M144.938 164.845c.281 0 .518.142.659.354a.745.745 0 01.69-.463c.297 0 .549.156.688.399a.753.753 0 01.675-.423c.3 0 .552.165.677.408a.757.757 0 01.688-.423c.298 0 .549.165.675.416a.78.78 0 01.723-.486c.346 0 .658.243.736.573a.772.772 0 011.446.377.77.77 0 01-.77.768.747.747 0 01-.736-.58.807.807 0 01-.676.4.782.782 0 01-.689-.416.763.763 0 01-1.381.086.775.775 0 01-.69.423.793.793 0 01-.675-.408.767.767 0 01-1.333.064.771.771 0 01-.706.471.77.77 0 01-.001-1.54zm6.887 1.106c.203 0 .377-.171.377-.375s-.174-.376-.377-.376-.377.172-.377.376.174.375.377.375zm-1.412-.188a.36.36 0 00.36-.368.368.368 0 10-.737 0c0 .203.157.368.377.368zm-1.396.078c.204 0 .36-.172.36-.376s-.156-.376-.36-.376-.377.172-.377.376.173.376.377.376zm-1.366.017a.376.376 0 00.377-.369c0-.212-.173-.376-.377-.376s-.359.165-.359.376a.36.36 0 00.359.369zm-1.363.023a.388.388 0 00.393-.385c0-.204-.174-.369-.393-.369a.372.372 0 00-.361.369c-.001.212.172.385.361.385zm-1.35.101a.363.363 0 00.376-.368.366.366 0 00-.376-.376.377.377 0 00-.377.376c0 .205.172.368.377.368z" fill="#EFB500"/><path d="M144.938 166.422c-.455 0-.816-.36-.816-.808s.361-.816.816-.816a.81.81 0 01.643.322.798.798 0 01.707-.431c.282 0 .533.141.689.368a.773.773 0 01.675-.384c.267 0 .533.133.675.36.144-.235.408-.376.69-.376s.519.133.675.361a.805.805 0 01.723-.439c.344 0 .627.211.752.525a.81.81 0 01.66-.338c.438 0 .814.361.814.809a.825.825 0 01-.814.815.79.79 0 01-.754-.525.81.81 0 01-.658.336.828.828 0 01-.689-.368.772.772 0 01-.706.438.826.826 0 01-.677-.36.825.825 0 01-.688.384.833.833 0 01-.675-.368.795.795 0 01-.688.386.776.776 0 01-.629-.313.842.842 0 01-.725.422zm0-1.538a.727.727 0 00-.723.729c0 .399.33.729.723.729a.72.72 0 00.675-.445c0-.017.017-.023.031-.023s.03.008.03.016a.761.761 0 00.613.345c.28 0 .531-.156.656-.398 0-.016.018-.022.031-.022.018 0 .029.008.048.022a.731.731 0 00.627.376.69.69 0 00.646-.399c.016-.017.031-.017.047-.017s.016 0 .031.017a.72.72 0 00.644.383.725.725 0 00.675-.462c.016-.017.016-.023.031-.023s.031.008.047.017c.125.242.377.399.645.399s.502-.147.627-.377c.017-.016.031-.022.047-.022.018 0 .031.016.031.03a.73.73 0 00.707.549.72.72 0 00.721-.729.718.718 0 00-1.35-.353c-.016.017-.031.023-.047.023a.181.181 0 01-.047-.031.703.703 0 00-.689-.549.756.756 0 00-.689.463c0 .017-.018.024-.031.024s-.029-.008-.029-.024a.73.73 0 00-.646-.392.758.758 0 00-.659.399c0 .017-.018.032-.029.024-.018 0-.031-.008-.031-.008a.716.716 0 00-.646-.394.73.73 0 00-.646.394c0 .016-.016.031-.029.031s-.031-.017-.047-.031a.739.739 0 00-.645-.377.71.71 0 00-.658.446c0 .009-.03.017-.03.017-.019 0-.032 0-.05-.017a.704.704 0 00-.612-.34zm0 1.145a.416.416 0 010-.832c.234 0 .408.18.408.416a.408.408 0 01-.408.416zm0-.752a.328.328 0 00-.33.337c0 .181.143.329.33.329s.329-.147.329-.329a.328.328 0 00-.329-.337zm6.887.713a.421.421 0 01-.424-.416c0-.229.188-.416.424-.416s.407.188.407.416a.406.406 0 01-.407.416zm0-.752c-.188 0-.33.157-.33.337s.144.337.33.337c.188 0 .329-.157.329-.337s-.141-.337-.329-.337zm-5.537.682a.418.418 0 01-.408-.424c0-.22.188-.408.408-.408.25 0 .422.188.422.408a.412.412 0 01-.422.424zm0-.753a.336.336 0 00-.33.329c0 .188.156.337.33.337a.34.34 0 00.344-.337.341.341 0 00-.344-.329zm1.363.73a.4.4 0 01-.406-.408c0-.235.172-.423.406-.423s.424.188.424.423a.414.414 0 01-.424.408zm0-.745a.337.337 0 00-.329.337c0 .181.156.33.329.33a.341.341 0 00.346-.33.341.341 0 00-.346-.337zm1.366.729a.407.407 0 01-.408-.416.407.407 0 11.815 0 .406.406 0 01-.407.416zm0-.746a.326.326 0 00-.329.33c0 .188.141.33.329.33s.329-.141.329-.33c0-.18-.14-.33-.329-.33zm1.396.676a.422.422 0 01-.424-.416c0-.235.188-.425.424-.425.221 0 .407.188.407.425a.417.417 0 01-.407.416zm0-.754a.343.343 0 00-.346.338c0 .18.157.328.346.328.172 0 .33-.148.33-.328a.34.34 0 00-.33-.338z"/></g><g><path d="M115.396 160.35l-3.452-2.988-.188-.863s-1.021.22-1.225 1.248l.926.016 2.981 2.77.958-.183z" fill="#F1B611"/><path d="M111.19 156.75l-4.283-3.545a.282.282 0 00-.392.039.258.258 0 00.047.376l4.236 3.506c.126-.165.267-.283.392-.376z" fill="#513615"/><path d="M106.876 153.886c-.596.07-1.585.313-1.208 1.138.518 1.16.753.979-.863 1.23-1.615.259-1.788.408-1.741.573.031.165 1.647.181 1.647.181s2.73-.126 2.212-1.122c-.502-.987.267-.839 1.161-.635.267.055.439.086.564.103l-1.772-1.468z" fill="#D52022"/><path d="M117.168 159.857l-4.455-1.891-.738-.628-.172-.854c0-.009-.016-.017-.016-.023-.016-.008-.031-.008-.031-.008-.017.008-.268.063-.565.243l-4.268-3.522a.28.28 0 00-.188-.07.313.313 0 00-.251.109.304.304 0 00.047.439l.251.204c-.439.07-.973.212-1.161.557-.109.172-.109.384 0 .635.078.182.157.337.22.455.125.235.188.376.157.455-.048.086-.299.125-.754.188a9.622 9.622 0 01-.455.07c-1.317.212-1.662.346-1.741.479-.031.047-.047.086-.031.141.031.173 1.083.204 1.694.22.078-.008 1.914-.102 2.26-.714.078-.141.078-.298 0-.471-.157-.298-.188-.502-.126-.612.031-.079.142-.118.329-.118.235 0 .55.071.91.149.22.047.408.079.549.102l2.118 1.742a1.43 1.43 0 00-.267.604c0 .008 0 .022.016.031 0 .008.016.016.031.016l.91.022.644.589v.016l.628 2.675c0 .017.016.031.031.031.031-.008.047-.031.047-.055l-.612-2.573.722.667.785 1.732c0 .023.016.031.031.031s.016 0 .031-.008.016-.031.016-.055l-.706-1.554 1.349 1.264c.017 0 .032.008.032.008h.016l.957-.18c0-.009.016-.023.016-.039.016-.008 0-.024 0-.04l-.973-.839 1.412.722c.016.008.016.008.031.008 0 0 .031-.008.031-.022 0-.016 0-.048-.016-.056l-1.71-.879-1.303-1.105 4.236 1.789s0 .008.016.008.031-.017.047-.031c0-.015-.015-.038-.031-.054zm-9.084-4.652c-.345-.078-.675-.149-.91-.149-.219 0-.345.056-.407.165-.079.134-.048.361.125.69.079.142.079.274.016.393-.329.564-2.149.667-2.196.667-.737-.008-1.553-.069-1.616-.148-.016-.039 0-.056.017-.079.094-.133.611-.268 1.693-.439.173-.031.33-.055.455-.079.519-.07.754-.102.816-.228.047-.11-.016-.259-.157-.525-.063-.125-.141-.274-.22-.455-.094-.22-.094-.407-.016-.564.204-.345.816-.479 1.177-.525l1.177.974.471.392c-.111-.019-.252-.051-.425-.09zm2.715 1.859l-2.118-1.749-1.773-1.468-.329-.259a.234.234 0 01-.031-.322.237.237 0 01.188-.086c.047 0 .094.023.141.056l4.252 3.514c-.016 0-.016.016-.031.024-.048.03-.079.063-.126.102-.031.024-.047.04-.047.063a.2.2 0 00-.094.086c-.017.016-.017.023-.032.039zm4.502 3.263l-.847.165-1.491-1.381v-.008c0-.017-.016-.023-.031-.023l-1.443-1.349c0-.009-.016-.009-.031-.009l-.878-.023c.063-.274.188-.486.345-.659.016-.016.047-.039.063-.063.031-.03.063-.063.11-.086.016-.023.063-.055.094-.078.22-.157.439-.243.533-.268l.173.824c0 .008.016.016.016.016l2.229 1.938 1.158 1.004z"/><g><path d="M168.109 160.35l3.452-2.988.188-.863s1.021.22 1.226 1.248l-.927.016-2.98 2.77-.959-.183z" fill="#F1B611"/><path d="M172.314 156.75l4.283-3.545a.284.284 0 01.394.039.259.259 0 01-.049.376l-4.234 3.506a1.95 1.95 0 00-.394-.376z" fill="#513615"/><path d="M176.629 153.886c.596.07 1.584.313 1.207 1.138-.519 1.16-.752.979.863 1.23 1.614.259 1.787.408 1.74.573-.029.165-1.646.181-1.646.181s-2.729-.126-2.211-1.122c.502-.987-.269-.839-1.162-.635a9.029 9.029 0 01-.563.103l1.772-1.468z" fill="#D52022"/><path d="M166.336 159.857l4.457-1.891.735-.628.175-.854c0-.009.016-.017.016-.023.016-.008.031-.008.031-.008.016.008.267.063.563.243l4.27-3.522a.28.28 0 01.188-.07.306.306 0 01.204.548l-.252.204c.438.07.973.212 1.161.557.109.172.109.384 0 .635-.094.182-.156.337-.221.455-.125.235-.188.376-.156.455.048.086.299.125.754.188.125.023.281.047.455.07 1.315.212 1.662.346 1.74.479.03.047.047.086.03.141-.03.173-1.082.204-1.692.22-.078-.008-1.914-.102-2.26-.714-.078-.141-.078-.298 0-.471.155-.298.188-.502.125-.612-.031-.079-.142-.118-.328-.118-.235 0-.552.071-.91.149-.221.047-.408.079-.549.102l-2.119 1.742c.125.165.221.361.268.604v.031c-.016.008-.031.016-.047.016l-.91.022-.645.589v.016l-.627 2.675c0 .017-.017.031-.03.031-.032-.008-.048-.031-.048-.055l.611-2.573-.723.667-.784 1.732c0 .023-.017.031-.03.031-.018 0-.018 0-.031-.008-.016-.008-.016-.031-.016-.055l.704-1.554-1.349 1.264c-.018 0-.032.008-.032.008h-.017l-.957-.18c0-.009-.016-.023-.016-.039-.017-.008 0-.024 0-.04l.973-.839-1.412.722c-.016.008-.016.008-.03.008 0 0-.03-.008-.03-.022 0-.016 0-.048.016-.056l1.711-.879 1.303-1.105-4.236 1.789s0 .008-.016.008-.031-.017-.031-.031c-.016-.015-.001-.038.014-.054zm9.084-4.652c.346-.078.676-.149.91-.149.221 0 .346.056.406.165.079.134.049.361-.125.69a.406.406 0 00-.016.393c.328.564 2.148.667 2.195.667.736-.008 1.555-.069 1.615-.148.016-.039 0-.056-.016-.079-.096-.133-.612-.268-1.694-.439-.173-.031-.329-.055-.454-.079-.519-.07-.754-.102-.816-.228-.047-.11.017-.259.156-.525.063-.125.144-.274.222-.455.094-.22.094-.407.016-.564-.202-.345-.813-.479-1.177-.525l-1.178.974-.471.392c.114-.019.256-.051.427-.09zm-2.712 1.859l2.117-1.749 1.772-1.468.329-.259a.233.233 0 00.031-.322.237.237 0 00-.188-.086.255.255 0 00-.142.056l-4.252 3.514c.016 0 .016.016.029.024.049.03.096.063.126.102.017.024.048.04.048.063.047.022.08.055.096.086.017.016.017.023.034.039zm-4.504 3.263l.848.165 1.49-1.381v-.008c0-.017.018-.023.031-.023l1.443-1.349c0-.009.016-.009.031-.009l.879-.023a1.43 1.43 0 00-.346-.659c-.018-.016-.047-.039-.063-.063-.031-.03-.063-.063-.11-.086-.016-.023-.063-.055-.094-.078a1.87 1.87 0 00-.533-.268l-.173.824c0 .008-.017.016-.017.016l-2.229 1.938-1.157 1.004z"/></g></g><g><path fill="#126B37" d="M144.09 124.275l-.156-2.001-.644-.737-.737-.73-.8.134-.801-.134-.737.73-.643.737-.157 2.001-.612 3.506.219 2.33 1.193 1.898 1.459.125v.016l.079-.008.078.008v-.016l1.459-.125 1.192-1.898.22-2.33z"/><path d="M141.831 132.197l-.078-.008-.079.008c-.016 0-.031-.008-.031-.016h-.016l-1.412-.133c-.016-.008-.031-.008-.031-.016l-1.192-1.898s0-.008-.016-.016l-.204-2.33v-.016l.597-3.507.172-1.992v-.023l.644-.737.737-.738c.016-.008.016-.016.047-.008l.785.133.784-.133c.031-.008.031 0 .047.008l.737.738.644.737v.023l.172 2 .599 3.499v.016l-.204 2.33c-.016.008-.016.016-.016.016l-1.192 1.898c0 .008-.016.008-.03.016l-1.413.125s0 .008-.016.008c-.004.009-.019.016-.035.016zm-.078-.094l.047.008c.016-.008.016-.016.031-.016l1.427-.125 1.178-1.867.22-2.322-.612-3.499-.154-1.993-.629-.722-.723-.714-.769.125h-.032l-.769-.125-.722.714-.627.722-.157 1.985-.612 3.506.22 2.322 1.177 1.867 1.428.125c.016 0 .016.008.031.016l.047-.007z"/></g><g><path d="M158.838 119.999c-2.526-4.212-12.521-1.592-12.521-1.592 1.615-1.499 3.311-1.2 3.311-1.2l.143-.486.895.392c.156-.228-.377-1.177-.377-1.177.221 0 1.443.855 1.443.855l-.518-.753 2.117.8-.676-.973c.91.51 1.867.337 1.867.337-5.771-4.244-11.924 1.475-12.771 2.322-.848-.847-6.998-6.566-12.771-2.322 0 0 .957.173 1.867-.337l-.675.973 2.118-.8-.518.753s1.224-.855 1.443-.855c0 0-.533.949-.377 1.177l.895-.392.142.486s1.694-.298 3.311 1.2c0 0-9.994-2.62-12.521 1.592 0 0 .769.369 1.883-.808l-.109 1.004 1.663-1.224-.565 1.169 1.239-.902.032.902 1.537-1.584-.173.902 1.396-.51-.125.408s-6.135 2.283-5.068 4.659l1.161-1.106.408 1.13.439-1.491.471 1.075.8-2.032.142 1.389.941-1.467.392.714.832-1.35.376.612.737-.878.11.714 1.459-.957.109.557.816-.753.267.51.784-.612-.031.416.377.251s-6.401 1.608-8.206 4.503l.973-.495.377.957.408-.98.078.636.471-.534.329.683.251-.902.268.785.423-.98.534.925.862-1.592.157.863.376-.957.377.588.188-.98.267.612.659-.902.298.313s-2.181 2.573-2.228 4.479l1.176-1.099.502 1.467.346-1.616.393.832.141-1.341.377.047-.031-1.004.282.243.047-1.028.22.094.22-1.373.407.392.252-.635.564-.22-.173.808.486.274-1.177.832.879.023s-1.585.439-1.726 2.134l1.49-.69s-1.475 1.098-1.601 2.275l.926-.753s-.941 1.561-.69 2.369l.753-.761s-.471 2.597.675 3.405l.063-2.377 1.835 1.765-.988-2.4s1.02 1.278 1.647 1.349l-1.13-2.055s.863.925 1.318 1.051l-1.412-2.157s.878.737 1.412.69l-1.146-1.883.848.385-.628-1.781.628.337-.581-1.467.581.094-.095-1.004.832-.549.832.549-.095 1.004.58-.094-.58 1.467.627-.337-.627 1.781.849-.385-1.146 1.883c.534.047 1.412-.69 1.412-.69l-1.412 2.157c.455-.125 1.318-1.051 1.318-1.051l-1.131 2.055c.629-.071 1.646-1.349 1.646-1.349l-.986 2.4 1.836-1.765.047 2.377c1.16-.808.688-3.405.688-3.405l.753.761c.251-.808-.689-2.369-.689-2.369l.926.753c-.125-1.177-1.6-2.275-1.6-2.275l1.488.69c-.143-1.694-1.727-2.134-1.727-2.134l.88-.023-1.179-.832.486-.274-.173-.808.565.22.25.635.408-.392.219 1.373.221-.094.047 1.028.283-.243-.032 1.004.377-.047.142 1.341.394-.832.347 1.616.502-1.467 1.178 1.099c-.049-1.906-2.229-4.479-2.229-4.479l.299-.313.658.902.267-.612.205.98.36-.588.36.957.173-.863.862 1.592.533-.925.424.98.268-.785.251.902.329-.683.471.534.078-.636.408.98.377-.957.973.495c-1.805-2.895-8.205-4.503-8.205-4.503l.377-.251-.031-.416.783.612.269-.51.815.753.125-.557 1.442.957.11-.714.736.878.377-.612.832 1.35.391-.714.941 1.467.143-1.389.8 2.032.471-1.075.438 1.491.408-1.13 1.162 1.106c1.064-2.376-5.068-4.659-5.068-4.659l-.125-.408 1.396.51-.174-.902 1.537 1.584.031-.902 1.24.902-.564-1.169 1.662 1.224-.109-1.004c1.119 1.177 1.888.808 1.888.808z" fill="#126B37"/><path d="M144.922 132.472h-.018c-.016-.008-.016-.023-.016-.039l-.049-2.275-1.771 1.694c-.016.016-.029.016-.047.008-.018-.016-.029-.039-.018-.055l.863-2.149c-.299.368-.988 1.098-1.476 1.153-.031.008-.031-.008-.047-.016-.017-.008-.017-.031 0-.047l.973-1.78c-.282.282-.8.753-1.13.839-.016.008-.031 0-.047-.016v-.047l1.287-1.945c-.283.22-.848.581-1.256.541 0 0-.031-.008-.031-.023v-.039l1.083-1.765-.737.33c0 .008-.016.008-.031-.008-.016-.008-.031-.023-.016-.039l.596-1.687-.549.29c0 .008-.016 0-.031-.008s-.031-.031-.016-.039l.564-1.404-.52.086c-.018 0-.029 0-.029-.016-.018-.008-.018-.016-.018-.031l.096-.98-.786-.518-.785.518.095.965v.016c0 .031-.016.047-.031.047h-.016l-.519-.086.565 1.388v.024c0 .023-.016.039-.031.039h-.016l-.55-.29.597 1.671v.016c0 .031-.016.055-.031.055h-.016v-.008l-.738-.33 1.083 1.765v.039c0 .016-.031.023-.031.023-.408.04-.973-.321-1.255-.541l1.271 1.938c.016.008.016.016.016.031 0 .023-.016.04-.047.04-.33-.086-.848-.557-1.13-.839l.973 1.772c0 .008.016.024.016.032 0 .023-.031.047-.047.039-.016.008-.016 0-.016 0-.486-.055-1.177-.785-1.475-1.153l.862 2.141v.016c0 .031 0 .047-.031.047-.016 0-.031 0-.031-.008l-1.772-1.694-.047 2.275c0 .016 0 .031-.017.039-.016.008-.031 0-.047-.008-1.02-.714-.8-2.769-.722-3.311l-.675.667c-.016.016-.016.016-.031.016-.016-.008-.031-.016-.031-.039-.204-.651.361-1.757.597-2.205l-.754.612c-.016.016-.031.016-.047.008s-.016-.023-.016-.039c.095-.894.926-1.726 1.35-2.102l-1.192.549a.049.049 0 01-.047 0c-.016-.016-.016-.023-.016-.039.109-1.333 1.129-1.906 1.553-2.095l-.659-.016c-.016 0-.031-.016-.031-.031-.016-.016 0-.031 0-.031l1.13-.808-.439-.235c0-.008-.016-.023-.016-.047l.157-.73-.471.181-.235.627c-.016.008-.016.016-.031.016-.017.008-.017 0-.032-.008l-.36-.337-.22 1.294c0 .016 0 .024-.016.032s-.016.008-.031 0l-.173-.071-.047.965c0 .016 0 .031-.016.039s-.031 0-.047-.008l-.204-.18.016.894c.016.008.016.008.016.016 0 .024-.016.04-.047.04l-.33-.047-.141 1.31c0 .016-.016.031-.031.031-.016.008-.047-.008-.047-.016l-.346-.722-.313 1.491c0 .016-.016.031-.048.031 0 0-.016-.008-.031-.023l-.486-1.412-1.129 1.059c-.016.016-.031.016-.047.008-.017-.008-.032-.023-.032-.039.048-1.796 1.978-4.189 2.229-4.479l-.251-.251-.628.863c0 .008-.016.024-.031.016-.031 0-.031-.008-.031-.024l-.22-.486-.173.847c0 .016-.016.032-.031.032s-.031 0-.047-.016l-.313-.518-.346.879c0 .016-.031.023-.047.023s-.031-.016-.031-.032l-.157-.745-.784 1.491c-.016.008-.031.023-.047.023s-.032-.016-.048-.023l-.486-.863-.376.902c-.016.023-.031.031-.047.031s-.032-.016-.032-.031l-.235-.651-.203.777c0 .008-.016.023-.031.023-.017.008-.048-.008-.048-.023l-.313-.627-.424.494c-.016.008-.031.016-.047.008-.016 0-.031-.016-.031-.031l-.047-.486-.361.839c0 .016-.016.023-.031.023-.016 0-.047-.008-.047-.023l-.346-.91-.941.463c-.016.008-.031.008-.047-.008s-.016-.032 0-.047c1.679-2.683 7.343-4.291 8.127-4.495l-.282-.196c-.016-.008-.031-.023-.031-.039l.031-.322-.722.557s-.016.008-.031.008c-.016-.008-.016-.016-.031-.023l-.235-.471-.769.722c-.016.008-.032.016-.048.008 0 0-.016-.016-.016-.023l-.125-.502-1.381.917a.049.049 0 01-.047 0c-.016-.008-.016-.016-.016-.031l-.11-.62-.674.808c-.017.016-.032.023-.048.023-.016-.008-.016-.016-.031-.023l-.329-.557-.785 1.294c-.016.008-.031.016-.047.016s-.031-.008-.031-.023l-.36-.644-.926 1.404c0 .016-.016.023-.031.023-.016-.008-.032-.023-.032-.039l-.109-1.216-.737 1.867c-.016.016-.031.032-.047.024-.016 0-.031-.008-.031-.024l-.425-.978-.408 1.389c0 .008-.016.023-.031.023-.031 0-.047-.008-.047-.023l-.393-1.075-1.113 1.059c0 .016-.017.016-.032.016s-.016-.016-.031-.024c-.172-.384-.172-.784 0-1.2.77-1.851 4.723-3.365 5.068-3.499l.109-.321-1.334.486c-.016.008-.031 0-.031-.008-.016-.008-.016-.024-.016-.04l.142-.769-1.443 1.498a.051.051 0 01-.048 0c-.016 0-.016-.016-.016-.039l-.031-.824-1.176.863a.086.086 0 01-.063 0c-.016-.016-.016-.039-.016-.055l.502-1.028-1.537 1.13c-.016.008-.031.016-.047 0-.017-.008-.017-.023-.017-.04l.11-.878c-.659.643-1.177.785-1.521.785-.204 0-.33-.055-.33-.055-.016-.008-.016-.016-.016-.031v-.031c.957-1.601 3.091-2.416 6.308-2.416 2.729 0 5.412.604 6.087.761-1.099-.949-2.212-1.098-2.793-1.098-.22 0-.36.023-.36.023-.016.008-.031-.008-.047-.023l-.126-.447-.847.369c-.017.016-.032.008-.048-.008-.156-.204.188-.886.33-1.137-.267.102-.91.525-1.35.823-.016.016-.031.016-.047 0s-.016-.039-.016-.055l.455-.643-1.993.753c-.016.008-.031 0-.047-.016v-.047l.564-.839a3.02 3.02 0 01-1.333.298c-.251 0-.393-.023-.408-.031-.016 0-.016-.008-.016-.032-.016-.016 0-.031 0-.039 1.412-1.036 2.95-1.561 4.597-1.561 4.048 0 7.484 3.146 8.206 3.852.722-.706 4.157-3.852 8.205-3.852 1.647 0 3.187.525 4.598 1.561 0 .008.017.023 0 .039 0 .024 0 .032-.016.032a1.792 1.792 0 01-.408.031 3.02 3.02 0 01-1.334-.298l.549.832c.018.008.018.016.018.031 0 .024-.018.047-.029.047-.017 0-.018-.008-.018-.008l-1.993-.753.438.635c.017.008.017.016.017.031a.046.046 0 01-.047.047s-.017-.008-.017-.016c-.438-.298-1.082-.722-1.351-.823.142.251.486.933.33 1.137-.017.016-.03.023-.063.008l-.832-.369-.141.447c0 .016-.016.031-.031.023-.017 0-.142-.023-.359-.023-.58 0-1.694.149-2.795 1.098.677-.157 3.357-.761 6.09-.761 3.216 0 5.352.815 6.307 2.416v.031c0 .016 0 .023-.016.031 0 0-.126.055-.33.055-.346 0-.861-.142-1.521-.785l.109.871v.016c0 .024-.016.04-.048.04l-.017-.008-1.537-1.13.486 1.02c.016.008.016.016.016.023 0 .031-.016.047-.047.047-.017 0-.017-.008-.03-.008l-1.177-.863-.031.824c0 .023 0 .039-.016.039a.055.055 0 01-.05 0l-1.442-1.498.143.761v.016c0 .024-.016.04-.031.04h-.016l-1.334-.486.109.321c.346.133 4.299 1.646 5.066 3.499.174.416.174.816 0 1.2-.018.008-.018.024-.029.024-.017 0-.031 0-.031-.016l-1.114-1.059-.394 1.075c0 .016-.017.023-.047.023-.017 0-.031-.016-.031-.023l-.407-1.389-.425.973c0 .016-.017.032-.03.024-.017 0-.031-.008-.048-.024l-.736-1.867-.109 1.216c0 .016-.016.031-.031.039-.016 0-.03-.008-.03-.023l-.927-1.404-.359.644c0 .016-.018.031-.029.023-.018 0-.031-.008-.049-.016l-.783-1.294-.33.557c-.017.008-.017.016-.031.023-.016 0-.03-.008-.047-.023l-.674-.808-.111.62c0 .016 0 .023-.016.031a.049.049 0 01-.047 0l-1.396-.917-.108.502c0 .008 0 .023-.017.023-.016.008-.03 0-.047-.008l-.771-.722-.233.471c-.018.008-.018.016-.031.023h-.031l-.723-.565.031.322c0 .016-.017.031-.031.039l-.281.196c.783.204 6.447 1.812 8.127 4.487.016.008.016.016.016.032 0 .023-.016.039-.047.039 0 0-.016 0-.016-.008l-.941-.463-.346.91c0 .016-.031.023-.047.023s-.031-.008-.031-.023l-.359-.839-.049.486c0 .016-.016.031-.031.031-.016.008-.03 0-.047-.008l-.424-.494-.313.627c0 .016-.031.031-.047.023-.018 0-.031-.016-.031-.023l-.204-.777-.235.651c0 .016-.016.031-.031.031-.014 0-.029-.008-.047-.031l-.377-.902-.485.863c-.017.008-.03.023-.048.023-.016-.008-.029-.016-.047-.023l-.785-1.491-.154.745c0 .016-.018.032-.032.032s-.047-.008-.047-.023l-.346-.879-.313.518c-.017.016-.029.016-.047.016s-.029-.016-.029-.032l-.174-.847-.221.486c0 .016 0 .024-.031.024-.017.008-.029-.008-.029-.016l-.627-.863-.254.251c.254.291 2.166 2.675 2.229 4.464v.016a.046.046 0 01-.047.047c-.017 0-.017-.008-.031-.016l-1.114-1.059-.502 1.412c-.017.016-.017.023-.048.023-.017 0-.03-.016-.03-.031l-.313-1.491-.347.722c0 .008-.03.023-.047.016a.033.033 0 01-.031-.031l-.142-1.31-.329.047c-.017 0-.017 0-.031-.008v-.04l.017-.902-.204.18c-.018.008-.031.016-.047.008-.018-.008-.018-.023-.018-.039l-.047-.965-.172.071c-.018.008-.031.008-.031.008-.017-.016-.017-.024-.017-.04l-.22-1.294-.36.337c-.017.008-.017.016-.032.008-.016 0-.016-.008-.031-.016l-.233-.627-.471-.181.155.73c0 .023-.016.039-.016.047l-.439.235 1.132.8s.016.023 0 .039c0 .016-.017.031-.031.031l-.659.016c.424.188 1.43.761 1.555 2.079v.023c0 .015-.018.039-.049.039l-.016-.008-1.191-.549c.424.369 1.256 1.2 1.35 2.086v.016c0 .023-.016.039-.03.039-.017 0-.03 0-.03-.008l-.754-.612c.234.447.801 1.553.596 2.205 0 .023-.016.031-.03.039-.017 0-.017 0-.03-.016l-.675-.667c.077.542.297 2.597-.724 3.311-.011.012-.027.012-.043.012zm-7.029-3.483h.016c.017.016.032.031.017.047 0 .023-.424 2.479.611 3.318l.047-2.298c0-.016.016-.032.032-.04 0 0 .031 0 .047.016l1.679 1.624-.895-2.212c-.016-.023 0-.047.016-.055s.031-.008.047.008.91 1.153 1.538 1.318l-1.083-1.984c-.016-.016-.016-.04.016-.055 0-.008.031-.008.047.008.017.008.722.785 1.177.997l-1.333-2.047a.038.038 0 010-.055c.016-.008.031-.008.063 0 0 0 .8.659 1.317.683l-1.113-1.828c-.016-.016-.016-.031 0-.047s.031-.016.047-.008l.769.353-.611-1.694c0-.023 0-.039.016-.047.016-.016.031-.016.047-.008l.533.291-.533-1.365c-.016-.016 0-.024 0-.04.016-.016.016-.023.047-.016l.533.086-.094-.949c-.016-.016 0-.031.016-.039l.815-.549a.086.086 0 01.063 0l.815.549c.016.008.031.023.016.039l-.094.949.533-.086c.031-.008.031 0 .047.016 0 .016.016.023 0 .04l-.533 1.365.533-.291c.016-.008.031-.008.047.008.016.008.016.024.016.047l-.609 1.694.77-.353c.016-.008.03-.008.047.008s.017.031 0 .047l-1.113 1.828c.519-.023 1.318-.675 1.318-.675.029-.016.047-.016.063-.008a.038.038 0 010 .055l-1.35 2.047c.472-.212 1.178-.989 1.191-.997.018-.016.047-.016.047-.008.031.016.031.04.018.055l-1.082 1.984c.627-.165 1.521-1.302 1.521-1.318.031-.016.048-.016.063-.008.016.008.031.032.016.055l-.895 2.212 1.68-1.624c.016-.016.047-.016.047-.016.016.008.031.024.031.04l.047 2.298c1.035-.839.611-3.295.611-3.318-.018-.016 0-.031.017-.039s.03-.008.047.008l.706.706c.172-.8-.706-2.259-.723-2.275-.016-.016 0-.039.017-.055 0-.008.031-.008.047 0l.847.69c-.188-1.098-1.553-2.126-1.553-2.142-.031-.016-.031-.031-.016-.055.016-.016.031-.023.047-.016l1.428.659c-.173-1.584-1.679-2.024-1.693-2.024a.05.05 0 01-.03-.047c0-.016.017-.031.047-.039l.753-.016-1.082-.761c0-.008-.018-.023-.018-.039 0-.008.018-.023.031-.031l.455-.251-.173-.776c0-.023 0-.031.017-.047.017-.008.031-.008.047-.008l.564.228c.016 0 .016.008.031.016l.204.58.376-.345c.016-.016.031-.016.047-.016.016.008.016.023.031.039l.203 1.318.174-.079c.016-.008.031-.008.031.008.016 0 .031.016.031.031l.047.934.203-.18c0-.008.031-.016.031-.016.031.016.031.031.031.047l-.018.957.313-.047c.017 0 .03 0 .03.008.017.008.017.023.017.023l.126 1.208.329-.698c.017-.016.031-.023.047-.023.017 0 .031.016.031.031l.313 1.467.472-1.326c0-.016.016-.023.03-.023.017-.008.031 0 .031.008l1.113 1.028c-.143-1.859-2.213-4.33-2.229-4.346-.017-.023-.017-.047 0-.063l.299-.314c0-.008.017-.016.031-.016.017 0 .017.008.03.016l.611.847.251-.541c0-.016.018-.031.048-.031.017.008.017.023.03.039l.173.878.313-.502c0-.016.017-.023.03-.016.017 0 .031.008.048.023l.313.816.143-.714c0-.016.017-.023.03-.031.018 0 .029.008.047.023l.814 1.522.502-.863c.018-.016.018-.024.031-.024.031 0 .031.016.047.024l.361.886.234-.683c.018-.016.031-.031.048-.031.03 0 .03.016.047.031l.22.8.282-.588c0-.008.017-.016.031-.016.017-.008.03 0 .047.008l.394.471.063-.542c0-.023.017-.039.047-.039.019-.008.032.008.032.023l.376.887.329-.863c.017-.008.017-.016.031-.023h.031l.846.424c-1.883-2.761-8.03-4.338-8.096-4.354-.016-.008-.031-.023-.031-.039s0-.031.018-.039l.348-.228-.018-.392c0-.024 0-.032.018-.04.016-.008.029-.008.047 0l.735.581.251-.471c.018-.008.018-.016.031-.016.018-.008.018 0 .029.008l.756.706.107-.494c0-.008.018-.023.031-.023.016-.008.016-.008.031 0l1.396.925.108-.651c0-.016.017-.031.03-.039.017 0 .031.008.048.023l.688.832.33-.565c.016-.008.03-.016.047-.016.018 0 .018.008.031.016l.801 1.287.344-.644c.018-.016.031-.023.049-.023.017 0 .017.008.031.023l.895 1.365.109-1.279c0-.016.017-.031.031-.039.016 0 .03.008.047.031l.77 1.938.424-.988c0-.016.031-.023.049-.023.016 0 .029.016.029.031l.408 1.373.377-1.012c0-.008 0-.016.017-.023.03 0 .03 0 .048.016l1.098 1.059a1.361 1.361 0 00-.016-1.083c-.785-1.867-5.005-3.444-5.035-3.459-.019-.008-.033-.016-.033-.031l-.125-.416c0-.016 0-.031.017-.039s.031-.016.048-.008l1.317.486-.157-.832c0-.023 0-.039.016-.047.031-.008.047-.008.047.008l1.477 1.521.031-.808c0-.016 0-.032.031-.04 0-.008.017-.008.031.008l1.112.808-.485-1.028c-.017-.016 0-.039 0-.055.031-.008.047-.008.063 0l1.584 1.169-.108-.91c0-.016 0-.031.016-.039.031-.008.048-.008.048.008.69.706 1.208.847 1.553.847.11 0 .188-.016.252-.031-.957-1.545-3.06-2.338-6.213-2.338-3.122 0-6.196.8-6.229.808-.016.008-.047 0-.047-.016v-.055c1.176-1.075 2.369-1.231 2.98-1.231.156 0 .281.016.329.016l.142-.455c0-.016 0-.024.016-.024.018-.008.031-.008.031 0l.85.376c.076-.188-.188-.761-.379-1.106-.016-.008-.016-.023 0-.039 0-.008.018-.016.031-.016.188 0 .926.486 1.287.737l-.377-.581c-.016-.016-.016-.031 0-.047 0-.016.016-.016.031-.016l1.992.761-.58-.871c-.031-.016-.016-.032 0-.047s.031-.016.047-.008a2.989 2.989 0 001.724.345c-1.363-.98-2.871-1.475-4.455-1.475-4.063 0-7.531 3.208-8.173 3.852-.016.023-.048.023-.063 0-.643-.643-4.11-3.852-8.174-3.852-1.584 0-3.09.494-4.455 1.475a2.989 2.989 0 001.725-.345c.016-.008.031-.008.047.008s.031.031 0 .047l-.58.871 1.992-.761c.016 0 .031 0 .031.016.016.016.016.031 0 .047l-.376.581c.36-.251 1.098-.737 1.286-.737.016 0 .031.008.031.016.016.016.016.031 0 .039-.188.345-.455.918-.376 1.106l.847-.376c0-.008.016-.008.031 0 .016 0 .016.008.016.024l.142.455c.047 0 .173-.016.329-.016.612 0 1.805.157 2.981 1.231v.055c0 .016-.031.023-.047.016-.032-.008-3.107-.808-6.229-.808-3.154 0-5.256.792-6.213 2.338a.972.972 0 00.251.031c.345 0 .862-.141 1.553-.847 0-.016.016-.016.047-.008.016.008.016.023.016.039l-.109.91 1.585-1.169c.016-.008.031-.008.063 0 0 .016.016.039 0 .055l-.486 1.028 1.113-.808c.016-.016.031-.016.031-.008.032.008.032.023.032.04l.031.808 1.475-1.521c0-.016.016-.016.047-.008.016.008.016.024.016.047l-.156.832 1.317-.486c.016-.008.031 0 .047.008s.016.023.016.039l-.125.416c0 .016-.016.023-.031.031-.031.016-4.252 1.592-5.036 3.459a1.37 1.37 0 00-.016 1.083l1.098-1.059c.016-.016.031-.016.047-.016 0 0 .017.016.017.023l.376 1.012.408-1.373c0-.016.016-.031.031-.031.031 0 .047.008.047.023l.424.988.769-1.938c.016-.023.031-.031.047-.031.016.008.031.023.031.039l.11 1.279.894-1.365c.017-.016.017-.023.032-.023s.031.008.047.023l.345.644.801-1.287c.016-.008.016-.016.031-.016.016 0 .031.008.031.016l.345.565.69-.832c.016-.016.031-.023.047-.023.016.008.031.023.031.039l.11.651 1.396-.925c.016-.008.031-.008.031 0 .016 0 .031.016.031.023l.11.494.753-.706c.016-.008.016-.016.031-.008l.031.016.251.471.737-.581a.049.049 0 01.047 0c.016.008.016.016.016.04l-.016.392.346.228c.016.008.016.023.016.039s-.016.031-.031.039c-.063.016-6.213 1.593-8.096 4.354l.847-.424h.031c.017.008.017.016.032.023l.329.863.377-.887c0-.016.016-.031.031-.023.031 0 .047.016.047.039l.063.542.393-.471c.016-.008.031-.016.047-.008.016 0 .031.008.031.016l.282.588.22-.8c.016-.016.016-.031.047-.031.016 0 .032.016.048.031l.235.683.36-.886c.016-.008.016-.024.047-.024.016 0 .016.008.032.024l.502.863.815-1.522c0-.016.031-.023.047-.023.016.008.031.016.031.031l.142.714.313-.816c.016-.016.031-.023.047-.023.017-.008.032 0 .032.016l.313.502.173-.878.031-.031c.031-.008.047.008.047.023l.251.541.612-.847c.016-.008.016-.016.031-.016 0 0 .031.008.031.016l.298.314c.016.016.016.039 0 .063-.016.016-2.087 2.487-2.228 4.346l1.113-1.028c.016-.008.016-.016.031-.008.016 0 .032.008.032.023l.47 1.326.314-1.467c0-.016.016-.031.031-.031s.031.008.047.023l.33.698.125-1.2s.016-.023.016-.031.016-.008.031-.008l.314.047-.016-.957c0-.016.016-.031.016-.039.016-.008.047 0 .047.008l.204.18.047-.934c0-.016.016-.031.031-.031 0-.016.016-.016.031-.008l.173.079.204-1.318c.016-.016.016-.031.031-.039.016 0 .031 0 .047.016l.376.345.204-.58c.017-.008.017-.016.032-.016l.564-.228c.016 0 .031 0 .047.008.016.016.016.023.016.047l-.173.776.455.251c.016.008.032.023.032.031 0 .016-.017.031-.017.039l-1.082.761.753.016c.031.008.047.023.047.039 0 .023-.016.039-.031.047 0 0-1.521.439-1.694 2.024l1.428-.659c.016-.008.031 0 .047.016.016.023.016.039-.016.055 0 .016-1.365 1.043-1.553 2.142l.847-.69c.016-.008.047-.008.047 0 .016.016.031.04.016.055s-.894 1.475-.722 2.275l.706-.706c.01-.016.026-.016.042-.016z"/></g><g><path d="M143.102 112.249c-1.208-.651-2.604-.91-2.698-.369 0 0 0 .283.251.392.251.11.22.549.109.792-.109.251-1.176 1.341-.925 1.843.172.337.706.934 1.317 1.287l.031-.847c.251-.086.235-.321.785-.133.047.008.078.031.125.055l-.047 1.2c.863.008 1.224-.424 1.224-.424s.408-.486.221-1.42c-.189-.934.798-1.725-.393-2.376z" fill="#233E88"/><path d="M143.51 114.806c-.408-.416-.973-.895-1.443-.918-.502-.023-1.208-.165-1.71-.274-.313.423-.675.973-.518 1.294.031.04.047.079.078.126.455.259 1.02.376 1.239.321.282-.07.235-.337.816-.141.329.11.737.627 1.021 1.051.188-.11.281-.22.281-.22s.346-.431.236-1.239z" fill="#D52024"/><path d="M141.973 115.214c-.55-.188-.534.047-.785.133l-.188 5.154.831.722.267-5.954c-.047-.024-.078-.047-.125-.055z" fill="#F1B71A"/><path d="M143.118 112.217c-.754-.408-1.583-.667-2.135-.667-.471 0-.596.173-.627.33 0 .016.016.314.282.432.125.063.157.22.157.313a1.01 1.01 0 01-.063.432c-.031.055-.141.18-.235.322-.063.07-.109.133-.172.204v.008c-.251.329-.503.722-.55 1.035 0 0 0 .016-.016.016v.141s0 .008.016.016c0 .047.016.086.031.125.016.031.032.078.079.125.22.369.706.855 1.224 1.168l-.157 4.283c0 .008 0 .023.016.031l.832.722c.016 0 .031.008.031.008.016 0 .016 0 .016-.008.031 0 .031-.016.031-.031l.204-4.714c.424 0 .722-.102.926-.204.203-.118.298-.228.313-.235v-.016c.047-.063.329-.486.235-1.247 0-.063-.017-.126-.031-.188-.063-.33.031-.635.108-.934.143-.533.285-1.043-.515-1.467zm.14 3.797s-.016.008-.016.023h-.017a.858.858 0 01-.233.172c-.236-.361-.566-.792-.865-.973h-.016c-.047-.031-.078-.055-.125-.063a1.274 1.274 0 00-.361-.079c-.141 0-.22.063-.298.118-.047.031-.095.063-.142.086-.016.008-.031.016-.047.016-.188.047-.753-.063-1.192-.314a.599.599 0 01-.063-.118.247.247 0 01-.031-.11c-.016 0-.016-.008-.016-.008 0-.047 0-.094.016-.133v-.016a.87.87 0 01.109-.306c.031-.055.047-.11.095-.165v-.008l.094-.165.016-.008c.016-.04.063-.086.078-.133.016-.016.031-.024.031-.04.032-.039.063-.086.095-.125l.016-.008c.502.11 1.192.251 1.679.267.455.023 1.021.502 1.412.902.095.772-.219 1.188-.219 1.188zm-3.215-.863c.423.204.894.291 1.098.251l-.031.722a4.31 4.31 0 01-1.067-.973zm1.757 5.985l-.769-.659.156-4.283.031-.816.031-.016a.815.815 0 00.126-.078c.078-.055.142-.102.251-.102.094 0 .204.023.329.07a.28.28 0 01.095.047l-.25 5.837zm.345-5.789c.22.157.486.463.77.902a1.99 1.99 0 01-.832.18l.062-1.082zm1.302-.713c0 .023 0 .039.017.063-.407-.393-.94-.832-1.396-.847-.471-.024-1.13-.149-1.632-.267.047-.047.078-.102.126-.149.109-.157.203-.282.235-.345a.956.956 0 00.078-.471c-.016-.188-.078-.329-.204-.376-.22-.102-.22-.345-.22-.345.047-.219.313-.259.533-.259.55 0 1.365.251 2.104.651.722.4.611.847.471 1.373-.096.305-.176.626-.112.972z"/></g><g><path d="M169.961 170.132l2.416-1.396s-3.767.612-7.076-.172c-3.312-.785-6.559-2.619-7.563-2.619-1.004 0-1.021.635-1.021.635s.188.863 2.195.229c0 0-4.563 2.205-17.163 2.215-12.599-.01-17.164-2.215-17.164-2.215 2.008.637 2.196-.229 2.196-.229s-.016-.635-1.02-.635-4.252 1.834-7.563 2.619c-3.31.784-7.075.172-7.075.172l2.416 1.396-2.495.902c2.135.447 3.876.369 3.876.369 5.021 0 9.507-2.408 9.507-2.408v.423c6.841 2.229 16.254 2.377 17.273 2.394h.095c1.02-.017 10.433-.164 17.273-2.394v-.423s4.487 2.408 9.508 2.408c0 0 1.741.078 3.875-.369l-2.49-.902z" fill="#FFF"/><path d="M124.62 166.805v.009c.11.055.784.354 2.165.713v-.949s-.188.855-2.165.227zM158.885 166.805v.009c-.109.055-.784.354-2.165.713v-.949s.189.855 2.165.227z" fill="#FFF"/><path d="M172.472 171.003l-2.416-.879 2.337-1.356s.031-.022.016-.04c0-.021-.016-.039-.031-.031-.016 0-1.428.229-3.246.229-1.412 0-2.697-.133-3.813-.397-1.789-.424-3.563-1.153-4.975-1.742-1.191-.486-2.135-.878-2.604-.878-1.021 0-1.064.665-1.064.665v.918c-2.479.646-7.201 1.482-14.92 1.49-7.72-.008-12.426-.847-14.921-1.49v-.909s-.047-.673-1.066-.673c-.471 0-1.412.392-2.589.877-1.428.59-3.2 1.318-4.989 1.742-1.113.268-2.4.398-3.813.398-1.819 0-3.231-.229-3.247-.229-.016-.008-.031.008-.031.031-.016.018 0 .039.016.039l2.338 1.356-2.417.879c-.016 0-.016.017-.016.039 0 .016 0 .03.031.039 1.616.329 3.044.368 3.578.368.188 0 .298-.008.298-.008 4.659 0 8.911-2.096 9.46-2.377v.354c0 .021.016.039.031.039 6.825 2.221 16.191 2.377 17.289 2.393h.095c1.098-.016 10.464-.172 17.29-2.393.017 0 .031-.018.031-.039v-.354c.549.281 4.801 2.377 9.459 2.377 0 0 .11.008.299.008.533 0 1.961-.039 3.578-.368.03-.009.03-.023.047-.039-.005-.024-.02-.039-.035-.039zm-15.722-4.252a.26.26 0 01.047.055c.018.016.05.032.063.057l.017.008c.017.009.031.031.063.048h.017a.541.541 0 00.188.094h.018c.047.017.076.022.125.031.016 0 .016.008.03.008a.688.688 0 00.125.019c.017.008.017.008.031.008.047 0 .108.008.173.008.188 0 .376-.023.609-.063-.358.116-.846.272-1.506.445v-.718zm-31.502.266c.235.039.424.063.611.063.063 0 .126-.009.173-.009.016 0 .016 0 .031-.008.031 0 .095-.01.126-.018.016 0 .016-.008.016-.008.063-.01.094-.018.141-.031a.485.485 0 00.204-.094h.016c.031-.018.048-.039.079-.049v-.008c.047-.039.078-.078.109-.108v.714a22.589 22.589 0 01-1.506-.444zm-10.323 4.346h-.298c-.519 0-1.867-.03-3.421-.336l2.369-.855s.016-.023.016-.031c0-.023 0-.039-.016-.047l-2.243-1.277c.471.055 1.631.195 3.043.195 1.428 0 2.715-.143 3.828-.408 1.805-.424 3.577-1.152 4.989-1.74 1.192-.485 2.118-.879 2.573-.879.91 0 .988.524.988.597v.009s0 .008-.016.018c0 .008 0 .016-.016.029v.021c-.016.01-.016.023-.031.039 0 0-.016.018-.016.023-.016.016-.031.031-.063.055 0 .008-.017.008-.017.018-.031.021-.063.04-.078.063-.016 0-.031.008-.047.016a.97.97 0 01-.126.056s-.016.008-.031.008a1.411 1.411 0 01-.455.063c-.345 0-.737-.069-1.208-.219-.016 0-.031-.01-.047-.01-.016-.008-.047 0-.047.018v.031l-.173 2.155c-.311.16-4.672 2.388-9.457 2.388zm44.117-1.969c-6.824 2.204-16.207 2.361-17.242 2.369v.008h-.095v-.008c-1.035-.008-10.417-.165-17.242-2.369v-.398l.173-2.127c.188.086.863.361 2.149.699h.016c2.495.643 7.217 1.488 14.952 1.488 7.734 0 12.457-.848 14.951-1.488h.016c1.287-.338 1.963-.613 2.15-.699l.172 2.127v.398zm9.837 1.969h-.299c-4.785 0-9.146-2.229-9.461-2.394l-.156-2.155v-.031c-.018-.018-.047-.023-.063-.018-.017 0-.03.01-.047.01-.472.147-.863.219-1.208.219-.188 0-.346-.022-.455-.063-.016 0-.031-.008-.047-.008-.031-.017-.079-.039-.109-.056-.017-.008-.031-.017-.031-.017-.03-.022-.063-.04-.094-.063 0-.008-.017-.008-.017-.016-.031-.021-.047-.039-.063-.055 0-.008-.017-.016-.017-.023-.017-.016-.017-.031-.031-.039v-.021c-.016-.018-.016-.021-.016-.031l-.017-.016v-.01c0-.069.08-.596.987-.596.455 0 1.396.394 2.573.879 1.412.588 3.186 1.316 4.988 1.74 1.113.268 2.399.408 3.828.408 1.412 0 2.572-.143 3.043-.195l-2.244 1.277c-.016.008-.016.023-.016.047 0 .008.016.023.016.023l2.369.863a17.953 17.953 0 01-3.413.341z"/></g><g><path d="M125.546 169.23l.345-1.443.33.078-.298 1.248.831.203-.047.205-1.161-.291zM127.586 168.187l.031.022a3.79 3.79 0 01-.361.424l-.22-.047c.095-.181.188-.338.235-.472l.315.073zM130.158 168.689l-.172.948a.45.45 0 01-.157.267.605.605 0 01-.298.136 1.29 1.29 0 01-.455-.017c-.251-.048-.439-.135-.565-.252a.497.497 0 01-.125-.438l.173-.941.329.063-.173.927c-.016.118 0 .22.063.29.079.07.188.126.346.148.313.063.502-.022.533-.268l.173-.918.328.055zM132.088 170.501l-.407-.063-.816-1.326h-.016v.068c0 .126-.016.235-.031.348l-.126.761-.298-.048.235-1.467.393.063.815 1.316h.016c0-.017 0-.069.016-.172.016-.096.016-.174.016-.229l.126-.77.298.047-.221 1.472zM132.621 170.58l.188-1.475.346.037-.204 1.477-.33-.039zM135.383 170.156c-.031.242-.142.424-.313.533-.188.116-.424.155-.737.116-.299-.03-.534-.125-.675-.272-.157-.157-.22-.354-.188-.599.032-.241.126-.413.313-.532.173-.108.424-.147.737-.117.299.039.519.134.675.283.141.148.203.344.188.588zm-1.569-.172c-.017.181.016.32.109.422.094.11.235.174.439.197.188.022.345-.009.455-.087.109-.086.172-.212.203-.399.017-.182-.016-.32-.109-.433-.078-.102-.22-.163-.424-.188-.203-.021-.36.01-.471.088-.108.085-.17.218-.202.4zM137.422 171.082l-.407-.039-.91-1.264h-.016v.416l-.063.77-.314-.031.126-1.476.408.032.894 1.263h.016v-.173c0-.104.017-.174.017-.229l.063-.774.298.021-.112 1.484zM139.038 171.175l-.345-.023.078-1.481 1.161.056-.016.203-.831-.039-.017.473.77.029-.017.204-.769-.03-.014.608zM141.486 171.254l-.204-.416-.77-.022-.22.407-.345-.008.8-1.476.361.009.737 1.514-.359-.008zm-.283-.628l-.172-.407c-.016-.03-.031-.071-.063-.134-.031-.063-.031-.102-.047-.125-.031.078-.063.172-.109.268l-.204.383.595.015zM142.113 171.254v-1.481h.33v1.481h-.33zM142.977 171.254l-.016-1.481.328-.009.03 1.278.863-.016v.211l-1.205.017zM145.267 171.199l-.078-1.481.345-.017.063 1.271.862-.047.016.211-1.208.063zM148.09 171.01l-.25-.394-.771.057-.173.432-.346.03.644-1.553.377-.031.862 1.437-.343.022zm-.343-.595l-.221-.384c-.016-.031-.048-.07-.063-.127-.047-.056-.063-.103-.063-.125-.03.086-.047.182-.094.283l-.157.398.598-.045zM149.77 170.838l-.329.039-.173-1.476 1.146-.142.016.195-.816.103.063.465.771-.097.017.212-.752.087.057.614zM152.641 169.669a.711.711 0 01-.174.597c-.141.157-.359.259-.674.313-.299.047-.533.016-.723-.086a.66.66 0 01-.328-.525c-.049-.243 0-.439.141-.598.156-.156.377-.258.691-.305.297-.047.549-.018.721.086.188.11.299.282.346.518zm-1.553.243a.576.576 0 00.203.394c.125.07.283.103.484.063a.648.648 0 00.426-.204c.076-.109.108-.251.076-.438-.029-.181-.094-.307-.219-.385-.109-.078-.27-.102-.455-.07-.204.031-.348.104-.438.213-.077.106-.109.247-.077.427zM153.377 169.676l.127.589-.33.063-.299-1.459.58-.107c.252-.056.455-.056.598-.008.141.047.22.133.251.273.03.181-.078.346-.313.472l.689.532-.376.069-.597-.485-.33.061zm-.03-.194l.235-.041c.141-.039.25-.078.313-.133s.079-.117.063-.203c0-.078-.063-.135-.142-.158a.845.845 0 00-.345.018l-.221.048.097.469zM155.512 168.5c-.188.048-.329.126-.424.252-.078.116-.094.267-.063.438.047.172.125.299.251.359.126.068.282.078.486.031.078-.018.156-.039.234-.078.078-.021.156-.063.234-.104l.047.203a1.907 1.907 0 01-.52.188c-.28.069-.531.055-.704-.031-.204-.095-.313-.259-.378-.494-.03-.157-.03-.299.031-.424.031-.134.125-.243.269-.337.125-.096.28-.165.485-.212.203-.048.393-.056.58-.04l-.063.229a2.062 2.062 0 00-.234-.017c-.076.002-.153.021-.231.037zM157.834 169.23l-1.115.313-.393-1.437 1.113-.307.047.193-.783.222.094.385.754-.194.048.188-.737.204.125.455.784-.22.063.198z"/></g></svg>