<svg xmlns="http://www.w3.org/2000/svg" viewBox="2.84 48.38 277.79 186.71"><path fill="#D6D4D1" d="M2.835 48.376h277.794v186.712H2.835z"/><path fill="#FFF" d="M5.11 50.615h273.262v18.214H5.11zM5.11 214.556h273.262v18.215H5.11zM5.126 91.602h273.261V191.79H5.126z"/><path fill="#094191" d="M5.126 68.83h273.261v22.765H5.126zM5.126 191.792h273.261v22.765H5.126zM165.945 141.697l7.75-13.438 4.347-7.515h-24.194l-7.758-13.438-4.332-7.507-4.347 7.507-7.75 13.438H105.468l4.346 7.515 7.751 13.438-7.751 13.43-4.346 7.516H129.661l7.75 13.437 4.347 7.507 4.332-7.507 7.758-13.437h24.194l-4.347-7.516-7.75-13.43zm3.42-15.94l-6.315 10.927-6.313-10.927h12.628zm-9.21 15.94l-9.201 15.939h-18.403l-9.193-15.939 9.193-15.94h18.403l9.201 15.94zm-18.394-31.88l6.307 10.927h-12.614l6.307-10.927zm-27.613 15.94h12.629l-6.322 10.927-6.307-10.927zm0 31.879l6.307-10.935 6.322 10.935h-12.629zm27.613 15.932l-6.308-10.926h12.614l-6.306 10.926zm14.974-15.932l6.314-10.935 6.313 10.935h-12.627z"/></svg>