<svg xmlns="http://www.w3.org/2000/svg" viewBox="2.84 48.38 277.79 186.71"><path fill="#D6D4D1" d="M2.835 48.376h277.793v186.712H2.835z"/><path fill="#11892E" d="M5.165 171.309h273.252v61.479H5.165z"/><path fill="#F2963B" d="M5.165 50.615h273.252v61.484H5.165z"/><path fill="#FFF" d="M5.149 112.115h273.269v59.202H5.149z"/><path d="M166.619 138.449c-1.805-13.712-14.388-23.369-28.1-21.564-13.728 1.812-23.376 14.387-21.572 28.099 1.805 13.712 14.387 23.361 28.114 21.564 13.712-1.813 23.362-14.386 21.558-28.099zm-2.966 4.888c-.675-.071-1.302.399-1.381 1.074a1.23 1.23 0 001.036 1.396 26.83 26.83 0 01-.346 1.522l-11.453-3.75-5.428-1.06c.029-.157.063-.313.078-.471l5.489.384 12.05-.651c.003.52-.029 1.037-.045 1.556zm-43.724-3.241a1.263 1.263 0 001.38-1.074c.095-.675-.376-1.287-1.051-1.404.094-.502.22-1.012.345-1.514l11.453 3.75 5.444 1.059a4.131 4.131 0 00-.078.471l-5.508-.384-12.033.651c0-.519.015-1.037.048-1.555zm.329 5.711a1.241 1.241 0 001.051-1.396 1.255 1.255 0 00-1.38-1.074 25.385 25.385 0 01-.048-1.553l12.033.651 5.523-.384c.016.079 0 .157.016.243 0 .079.031.148.047.228l-5.444 1.06-11.453 3.75a43.591 43.591 0 01-.345-1.525zM151.651 141l-5.507.384c-.016-.078 0-.157-.016-.243 0-.078-.031-.157-.047-.228l5.428-1.059 11.453-3.75c.125.502.25 1.012.346 1.522a1.234 1.234 0 00-1.036 1.396c.079.667.69 1.145 1.365 1.074.03.518.063 1.043.063 1.554l-12.049-.65zm10.826-6.503c.157.486.329.98.472 1.482l-11.814 2.487-5.209 1.796c-.063-.149-.141-.29-.202-.439l4.974-2.424 10.09-6.582c.266.447.502.902.735 1.373a1.26 1.26 0 00-.646 1.624c.249.62.972.925 1.6.683zm-4.299-5.351a1.248 1.248 0 001.71.251c.313.424.58.863.832 1.31l-10.747 5.452-4.581 3.091c-.096-.126-.173-.267-.282-.385l4.157-3.624 8.048-8.974c.36.369.724.745 1.067 1.146a1.249 1.249 0 00-.204 1.733zm-3.813-3.821a1.248 1.248 0 001.727-.204c.394.337.771.69 1.146 1.059l-8.974 8.049-3.642 4.173c-.125-.102-.233-.204-.377-.29l3.106-4.589 5.444-10.747c.438.259.877.542 1.315.832-.387.549-.294 1.31.255 1.717zm-4.675-2.698a1.25 1.25 0 001.615-.643c.471.227.94.47 1.381.729l-6.589 10.096-2.416 4.958c-.143-.071-.299-.118-.455-.172l1.818-5.232 2.465-11.79c.502.133 1.004.29 1.506.463-.25.627.048 1.332.675 1.591zm-6.292-2.761c-.063.667.408 1.278 1.083 1.365s1.286-.369 1.396-1.043c.52.102 1.021.22 1.521.353l-3.749 11.453-1.052 5.436c-.174-.031-.313-.07-.486-.086l.393-5.507-.657-12.034c.516 0 1.049.025 1.551.063zm-4.314 1.365a1.267 1.267 0 001.099-1.365 25.471 25.471 0 011.538-.063l-.644 12.034.376 5.522c-.078.008-.156 0-.235.008-.078.008-.172.047-.251.063l-1.051-5.436-3.75-11.461a31.267 31.267 0 011.522-.345c.11.674.722 1.129 1.396 1.043zm-5.208 1.396c.643-.259.926-.973.69-1.608a23.53 23.53 0 011.49-.447l2.479 11.79 1.789 5.217a9.657 9.657 0 00-.424.204l-2.432-4.973-6.574-10.104c.439-.251.895-.495 1.365-.722.283.612.989.902 1.617.643zm-4.66 2.698a1.24 1.24 0 00.235-1.726c.439-.291.863-.565 1.334-.824l5.428 10.747 3.106 4.589c-.125.086-.267.181-.392.282l-3.624-4.165-8.975-8.049c.393-.369.753-.722 1.161-1.059a1.244 1.244 0 001.727.205zm-3.813 3.821a1.263 1.263 0 00-.204-1.733c.314-.392.69-.769 1.052-1.146l8.048 8.974 4.174 3.632c-.094.118-.204.251-.298.377l-4.581-3.091-10.747-5.452c.251-.447.533-.894.831-1.318.533.392 1.318.29 1.725-.243zm-2.714 4.667a1.24 1.24 0 00-.644-1.624c.235-.463.471-.926.737-1.373l10.088 6.582 4.974 2.424a4.298 4.298 0 00-.172.447l-5.24-1.804-11.798-2.479c.141-.51.298-.996.454-1.49a1.248 1.248 0 001.601-.683zm-1.6 15.124a42.54 42.54 0 01-.454-1.49l11.798-2.486 5.224-1.789c.048.148.126.291.188.432l-4.974 2.433-10.088 6.58a19.997 19.997 0 01-.737-1.373c.628-.274.91-.996.644-1.623a1.235 1.235 0 00-1.601-.684zm4.314 5.351a1.258 1.258 0 00-1.726-.243c-.298-.433-.58-.871-.831-1.318l10.747-5.452 4.581-3.099c.094.134.188.267.298.393l-4.174 3.624-8.048 8.966a19.818 19.818 0 01-1.052-1.138 1.26 1.26 0 00.205-1.733zm3.813 3.819a1.244 1.244 0 00-1.726.204 32.855 32.855 0 01-1.161-1.059l8.975-8.048 3.64-4.182c.125.109.251.211.376.29l-3.106 4.589-5.428 10.754a23.138 23.138 0 01-1.334-.832 1.23 1.23 0 00-.236-1.716zm4.66 2.69a1.256 1.256 0 00-1.616.65 23.154 23.154 0 01-1.365-.729l6.574-10.096 2.432-4.966c.141.071.298.125.439.173l-1.805 5.239-2.479 11.79a21.155 21.155 0 01-1.49-.455 1.262 1.262 0 00-.69-1.606zm6.307 2.77a1.267 1.267 0 00-1.099-1.365 1.247 1.247 0 00-1.396 1.036 19.33 19.33 0 01-1.522-.345l3.75-11.453 1.051-5.436c.173.03.33.069.486.086l-.376 5.499.644 12.042a16.933 16.933 0 01-1.538-.064zm4.298-1.365a1.25 1.25 0 00-1.083 1.365 25.99 25.99 0 01-1.553.056l.658-12.034-.394-5.522c.078-.008.175.008.235-.008.076-.008.173-.039.251-.055l1.052 5.436 3.749 11.453c-.502.133-1.004.251-1.521.345a1.243 1.243 0 00-1.394-1.036zm5.209-1.405a1.242 1.242 0 00-.675 1.607c-.502.172-1.004.321-1.506.455l-2.465-11.79-1.803-5.216c.141-.063.28-.133.438-.211l2.416 4.98 6.589 10.096c-.438.259-.91.502-1.381.729a1.254 1.254 0 00-1.613-.65zm4.675-2.69c-.549.408-.643 1.176-.251 1.727-.438.282-.862.564-1.317.823l-5.442-10.754-3.104-4.589a2.21 2.21 0 00.393-.273l3.624 4.165 8.974 8.048c-.376.369-.753.722-1.146 1.059-.429-.52-1.198-.622-1.731-.206zm3.813-3.819a1.255 1.255 0 00.204 1.726c-.329.4-.707.777-1.067 1.146l-8.048-8.966-4.174-3.632c.095-.125.203-.251.299-.385l4.581 3.099 10.747 5.444c-.252.455-.534.894-.832 1.326a1.233 1.233 0 00-1.71.242zm2.698-4.667c-.269.627.031 1.341.644 1.624a27.19 27.19 0 01-.737 1.372l-10.088-6.58-4.958-2.425c.063-.141.11-.298.173-.446l5.225 1.796 11.8 2.486c-.126.502-.3 1.005-.455 1.482-.631-.236-1.354.07-1.604.691z" fill="#21296F"/></svg>