<svg xmlns="http://www.w3.org/2000/svg" viewBox="2.84 48.38 277.79 186.71"><path fill="#D6D4D1" d="M2.835 48.376h277.794v186.712H2.835z"/><path d="M5.251 171.301h273.253v61.478H5.251z"/><path fill="#CD0E26" d="M5.251 50.615h273.253V112.1H5.251z"/><path fill="#FFF" d="M5.236 112.1h273.269v59.201H5.236z"/><g fill="#03793B"><path d="M174.174 123.537l.016.008c.125.094.234.141.329.141a.228.228 0 00.188-.102c.125-.149.172-.486-.205-1.945-.485-1.859-.83-2.596-1.662-2.471-.52.079-.596.385-.549.965.047.729 1.271 2.957 1.883 3.404zM171.288 127.836l.017.008c.532.22 1.098.322 1.632.322 1.021 0 1.961-.385 2.65-1.091.268-.274.422-.369.688-.369.204 0 .487.055.896.149.927.211 1.429.204 1.992-.032.52-.211.926-.651 1.146-1.231a2.551 2.551 0 00-.078-2.008c-.173-.337-.424-.557-.628-.557a.27.27 0 00-.203.086c-.079.094-.095.235-.063.432.078.392-.736 1.781-1.129 1.945-.018 0-.033.008-.096.008-.281 0-.8-.133-1.302-.321l-1.161-.447a.123.123 0 00-.126.031l-.831.934c-.736.816-1.49 1.161-2.572 1.161-.299 0-.627-.032-1.005-.086-.407-.063-.628-.086-.769-.086-.078 0-.235 0-.299.118-.047.118.047.243.142.345.172.211.659.508 1.099.689zM187.038 121.152c-.22 0-.423.298-.752.8l-.048.086c-.282.424-1.239 1.42-2.149 2.212-.078.063-1.692 1.498-1.692 1.859 0 .235.329.675.628.965l.563.534v23.479h-3.104v-11.431c0-4.338-.03-11.633-.251-11.782a.172.172 0 00-.078-.031c-.346 0-1.662 1.443-1.805 1.608-.848.926-1.867 1.914-2.29 2.197-.552.376-.957 1.106-.849 1.498.047.157.188.251.36.251.063 0 .282.125.502.369.298.314.345 1.647.345 8.888v8.434h-3.09v-8.198c0-2.212-.031-4.299-.063-5.875-.063-2.565-.109-2.565-.251-2.565-.222 0-1.459 1.341-1.82 1.749-.831.918-1.882 1.93-2.308 2.212-.549.369-.861.863-.801 1.279.031.274.222.486.535.588.519.181.674.879.58 2.754l-.064 1.419-1.098-.077c-1.664-.11-3.105.345-4.111 1.302-1.301 1.247-1.661 2.557-1.786 6.377 0 .031 0 .063.03.094l-.143 3.216c-.016.032 0 .063.031.086a.1.1 0 00.079.039h25.399c.063 0 .108-.055.108-.118v-17.917c0-6.589 0-10.559-.063-12.982-.057-2.84-.214-3.319-.544-3.319zm-20.897 29.935v-.77c0-1.238 1.099-2.369 2.291-2.369h.814v3.139h-3.105zM200.704 149.918c-.031-.023-.063-.047-.142-.047-.22 0-.706.306-1.067.564-.8.596-1.064.651-3.168.651h-2.213v-8.966c0-8.025 0-8.025 1.004-8.684l.078-.055c.11-.071.221-.165.235-.314.016-.259-.267-.572-1.13-1.373a48.645 48.645 0 01-2.416-2.487c-.377-.423-1.098-1.153-1.411-1.153-.048 0-.079.016-.126.031-.141.102-.299.212-.299 13.767l-.016.008v13.517c0 .031.016.063.047.086.017.022.047.032.078.032l9.444-.143c.063 0 .108-.047.125-.102l.144-1.436c.076-.776.328-1.906.563-2.511.113-.279.426-1.197.27-1.385zM97.863 157.794c-.016-.024-.048-.04-.095-.04a.095.095 0 00-.078.04l-2.997 3.224a.114.114 0 000 .165l1.491 1.624s0 .016.016.016l1.459 1.608c.016.023.063.039.094.039a.097.097 0 00.078-.039l2.997-3.216a.123.123 0 000-.172l-2.965-3.249zM147.958 150.146c-.172 0-.408.125-.957.471-.91.581-1.287.659-3.277.659h-2.149v-8.927c0-8.001 0-8.001 1.004-8.66l.077-.055c.11-.063.222-.157.235-.314.016-.251-.268-.564-1.113-1.365a41.72 41.72 0 01-2.416-2.471c-.377-.423-1.099-1.145-1.412-1.145a.217.217 0 00-.126.031c-.125.094-.313.212-.313 13.728v13.454c0 .031.016.063.047.086.016.022.047.031.078.031l9.416-.142a.105.105 0 00.107-.109l.157-1.42c.078-.785.313-1.859.519-2.394.359-.91.424-1.2.313-1.356a.237.237 0 00-.19-.102z"/><path d="M129.806 134.009c-.016-.008-.047-.008-.047-.008-.503 0-4.754 3.255-5.507 4.118-.016.024-.031.047-.031.079v5.633h-14.042c1.961-2.911 12.441-18.176 13.21-18.709.596-.023.926-.141 1.082-.376.126-.228.095-.534-.125-.996-.298-.667-.596-1.867-.988-4.024-.031-.188-.157-.792-.439-.792-.078.008-.125.008-9.884 14.207-4.754 6.919-9.884 14.402-10.229 14.936a.169.169 0 000 .125c.016.039.063.063.11.063h24.961a.128.128 0 00.125-.125v-8.268l1.569-1.294 1.521 1.02v11.68h-29.511v-4.016c0-4.269-.22-4.269-.329-4.269-.377 0-1.71 1.962-1.883 2.479-.063.196-.581.753-1.224 1.239-.612.463-1.271.965-1.475 1.122-.408.32-.33.518 0 1.065.204.337.533 1.043.737 1.577l.298.8c-2.024-.031-4.157-.148-4.472-.306-.047-.714-1.224-3.734-1.584-4.056a.333.333 0 00-.251-.11c-.235 0-.455.273-.91 1.169-.486.996-.863 1.388-1.632 1.757-.549.268-1.099.69-1.099.989 0 .282.424.925.832 1.38 1.13 1.31 1.569 3.13 1.146 4.754-.33 1.278-1.161 2.251-2.291 2.659-.141.055-.36.086-.627.086-.989 0-2.433-.377-3.217-.832-.329-.188-.502-.181-.581-.04-.031.094-.125.298 1.02 1.671.58.69 1.459 1.404 2.008 1.616.518.204 1.177.313 1.898.313 1.192 0 2.322-.289 2.966-.761 1.129-.832 1.945-2.283 2.463-4.322l.392-1.584h41.246c.079 0 .126-.047.126-.117v-17.267a.112.112 0 00-.047-.094c-1.521-1.237-5.081-4.115-5.285-4.171z"/></g></svg>