<svg xmlns="http://www.w3.org/2000/svg" viewBox="2.84 48.38 277.79 186.71"><path fill="#D6D4D1" d="M2.835 48.376h277.794v186.712H2.835z"/><path fill="#D8091B" d="M5.166 171.3h273.237v61.477H5.166z"/><path fill="#219F3A" d="M5.166 50.615h273.221V112.1H5.166z"/><g fill="#FFF"><path d="M254.696 103.401h16.238v1.255h-16.238z"/><path d="M277.163 103.401v4.996h-1.239v-4.996h-1.256v4.996h-1.238v-4.996h-1.256v2.501h-4.988v3.743h3.749v-1.248h-2.495v-1.247h3.734v2.495h6.244v-6.244zM255.952 107.15h3.734v2.495h6.244v-3.743h-3.734v1.248h2.494v1.247h-3.749v-2.495h-6.245v3.743h1.256z"/><path d="M257.191 108.397h1.255v1.248h-1.255zM267.153 112.108h-1.255V110.9h-11.233v1.208h-1.239V110.9h-11.234v1.208h-1.238V110.9h-11.235v1.208h-1.254V110.9h-11.218v1.208h-1.254V110.9h-11.219v1.208h-1.254V110.9h-11.219v1.208h-1.254V110.9h-11.218v1.208h-1.254V110.9h-11.219v1.208h-1.254V110.9h-11.234v1.208h-1.239V110.9h-11.233v1.208h-1.239V110.9h-11.234v1.208h-1.239V110.9h-11.233v1.208h-1.255V110.9h-11.218v1.208h-1.255V110.9H92.505v1.208h-1.254V110.9H80.033v1.208h-1.255V110.9H67.56v1.208h-1.255V110.9H55.072v1.208h-1.239V110.9H42.599v1.208H41.36V110.9H30.126v1.208h-1.239V110.9H17.654v1.208h-1.255V110.9H5.181l.016 61.594h11.218v-1.201h1.254v1.201h11.234v-1.201h1.239v1.201H41.36v-1.201h1.255v1.201h11.233v-1.201h1.239v1.201h11.218v-1.201h1.255v1.201h11.233v-1.201h1.24v1.201h11.233v-1.201h1.239v1.201h11.234v-1.201h1.239v1.201h11.233v-1.201h1.24v1.201h11.233v-1.201h1.239v1.201h11.234v-1.201h1.239v1.201h11.233v-1.201h1.239v1.201h11.234v-1.201h1.238v1.201h11.235v-1.201h1.239v1.201h11.233v-1.201h1.239v1.201h11.234v-1.201h1.238v1.201h11.235v-1.201h1.238v1.201h11.234v-1.201h1.239v1.201h11.234v-1.201h1.238v1.201h11.235v-1.201h1.238v1.201h11.234v-1.201h1.239v1.201h11.233l.017-61.594h-11.219zM229.75 103.401h16.225v1.255H229.75z"/><path d="M242.224 109.645h3.75v-1.248h-2.494v-1.247h3.733v2.495h6.245v-6.244h-1.256v4.996h-1.239v-4.996h-1.255v4.996h-1.241v-4.996h-1.254v2.501h-4.989zM231.006 107.15h3.734v2.495h6.244v-3.743h-3.749v1.248h2.495v1.247h-3.735v-2.495h-6.245v3.743h1.256z"/><path d="M232.247 108.397h1.238v1.248h-1.238zM204.79 103.401h16.225v1.255H204.79z"/><path d="M217.263 109.645h3.75v-1.248h-2.494v-1.247h3.733v2.495h6.245v-6.244h-1.241v4.996h-1.254v-4.996h-1.239v4.996h-1.257v-4.996h-1.254v2.501h-4.989zM206.045 107.15h3.734v2.495h6.244v-3.743h-3.749v1.248h2.495v1.247h-3.735v-2.495h-6.244v3.743h1.255z"/><path d="M207.286 108.397h1.238v1.248h-1.238zM179.829 103.401h16.223v1.255h-16.223z"/><path d="M192.317 109.645h3.734v-1.248h-2.493v-1.247h3.749v2.495h6.229v-6.244h-1.241v4.996h-1.253v-4.996h-1.241v4.996h-1.256v-4.996h-1.238v2.501h-4.99zM181.084 107.15h3.734v2.495h6.245v-3.743h-3.734v1.248h2.479v1.247h-3.735v-2.495h-6.244v3.743h1.255z"/><path d="M182.325 108.397h1.254v1.248h-1.254zM154.883 103.401h16.207v1.255h-16.207z"/><path d="M167.356 109.645h3.734v-1.248h-2.478v-1.247h3.734v2.495h6.244v-6.244h-1.256v4.996h-1.238v-4.996h-1.256v4.996h-1.239v-4.996h-1.255v2.501h-4.99zM156.124 107.15h3.75v2.495h6.228v-3.743h-3.734v1.248h2.494v1.247h-3.75v-2.495h-6.229v3.743h1.241z"/><path d="M157.379 108.397h1.238v1.248h-1.238zM129.923 103.401h16.222v1.255h-16.222z"/><path d="M142.396 109.645h3.75v-1.248h-2.495v-1.247h3.734v2.495h6.244v-6.244h-1.255v4.996h-1.239v-4.996h-1.239v4.996h-1.256v-4.996h-1.255v2.501h-4.989zM131.179 107.15h3.734v2.495h6.244v-3.743h-3.749v1.248h2.494v1.247h-3.734v-2.495h-6.245v3.743h1.256z"/><path d="M132.418 108.397h1.239v1.248h-1.239zM104.962 103.401h16.223v1.255h-16.223z"/><path d="M117.451 109.645h3.734v-1.248h-2.495v-1.247h3.75v2.495h6.228v-6.244h-1.239v4.996h-1.255v-4.996h-1.239v4.996h-1.256v-4.996h-1.239v2.501h-4.989zM106.217 107.15h3.735v2.495h6.244v-3.743h-3.735v1.248h2.48v1.247h-3.734v-2.495h-6.245v3.743h1.255z"/><path d="M107.458 108.397h1.255v1.248h-1.255zM80.017 103.401h16.207v1.255H80.017z"/><path d="M92.49 109.645h3.734v-1.248h-2.479v-1.247h3.734v2.495h6.244v-6.244h-1.255v4.996h-1.256v-4.996h-1.239v4.996h-1.239v-4.996h-1.255v2.501H92.49zM81.257 107.15h3.749v2.495h6.229v-3.743h-3.734v1.248h2.495v1.247h-3.75v-2.495h-6.229v3.743h1.24z"/><path d="M82.496 108.397h1.255v1.248h-1.255zM55.056 103.401h16.223v1.255H55.056z"/><path d="M67.529 109.645h3.75v-1.248h-2.495v-1.247h3.734v2.495h6.244v-6.244h-1.255v4.996h-1.239v-4.996h-1.24v4.996h-1.255v-4.996h-1.255v2.501h-4.989zM56.295 107.15h3.75v2.495h6.245v-3.743h-3.75v1.248h2.494v1.247H61.3v-2.495h-6.244v3.743h1.239z"/><path d="M57.551 108.397h1.239v1.248h-1.239zM30.095 103.401h16.222v1.255H30.095z"/><path d="M42.568 109.645h3.749v-1.248h-2.494v-1.247h3.734v2.495h6.244v-6.244h-1.255v4.996h-1.239v-4.996h-1.24v4.996h-1.255v-4.996h-1.255v2.501h-4.989zM31.35 107.15h3.734v2.495h6.245v-3.743h-3.75v1.248h2.494v1.247h-3.734v-2.495h-6.244v3.743h1.255z"/><path d="M32.59 108.397h1.255v1.248H32.59zM5.134 103.401h16.222v1.255H5.134z"/><path d="M17.623 109.645h3.733v-1.248h-2.494v-1.247h3.75v2.495h6.244v-6.244h-1.255v4.996h-1.255v-4.996h-1.24v4.996h-1.239v-4.996h-1.255v2.501h-4.989zM6.389 107.15h3.735v2.495h6.244v-3.743h-3.75v1.248h2.494v1.247h-3.734v-2.495H5.134v3.743h1.255z"/><path d="M7.628 108.397h1.255v1.248H7.628zM254.696 173.756h16.207v1.248h-16.207z"/><path d="M277.147 178.746h-1.254v-4.99h-1.24v4.99h-1.256v-4.99h-1.238v2.495h-4.991v3.741h3.735v-1.246h-2.494v-1.24h3.75v2.486h6.243v-6.236h-1.255zM262.181 177.506h2.493v1.24h-3.75v-2.495h-6.228v3.741h1.241v-2.486h3.733v2.486h6.245v-3.741h-3.734z"/><path d="M257.191 178.746h1.239v1.246h-1.239zM229.735 173.756h16.223v1.248h-16.223z"/><path d="M252.187 178.746h-1.24v-4.99h-1.255v4.99h-1.24v-4.99h-1.255v2.495h-4.989v3.741h3.75v-1.246h-2.495v-1.24h3.734v2.486h6.244v-6.236h-1.254zM237.219 177.506h2.494v1.24h-3.733v-2.495h-6.245v3.741h1.256v-2.486h3.734v2.486h6.244v-3.741h-3.75z"/><path d="M232.23 178.746h1.255v1.246h-1.255zM204.79 173.756h16.207v1.248H204.79z"/><path d="M227.241 178.746h-1.255v-4.99h-1.239v4.99h-1.256v-4.99h-1.239v2.495h-4.989v3.741h3.734v-1.246h-2.495v-1.24h3.75v2.486h6.245v-6.236h-1.256zM212.274 177.506h2.495v1.24h-3.75v-2.495h-6.229v3.741h1.24v-2.486h3.749v2.486h6.229v-3.741h-3.734z"/><path d="M207.286 178.746h1.238v1.246h-1.238zM179.829 173.756h16.223v1.248h-16.223z"/><path d="M202.28 178.746h-1.238v-4.99h-1.256v4.99h-1.241v-4.99h-1.253v2.495h-4.991v3.741h3.75v-1.246h-2.493v-1.24h3.734v2.486h6.244v-6.236h-1.256zM187.314 177.506h2.494v1.24h-3.735v-2.495h-6.244v3.741h1.255v-2.486h3.734v2.486h6.245v-3.741h-3.749z"/><path d="M182.325 178.746h1.254v1.246h-1.254zM154.883 173.756h16.207v1.248h-16.207z"/><path d="M177.334 178.746h-1.253v-4.99h-1.241v4.99h-1.256v-4.99h-1.238v2.495h-4.99v3.741h3.734v-1.246h-2.493v-1.24h3.749v2.486h6.244v-6.236h-1.256zM162.368 177.506h2.494v1.24h-3.75v-2.495h-6.229v3.741h1.241v-2.486h3.75v2.486h6.228v-3.741h-3.734z"/><path d="M157.379 178.746h1.238v1.246h-1.238zM129.923 173.756h16.222v1.248h-16.222z"/><path d="M152.374 178.746h-1.239v-4.99h-1.256v4.99h-1.239v-4.99h-1.255v2.495h-4.989v3.741h3.75v-1.246h-2.495v-1.24h3.734v2.486h6.244v-6.236h-1.255zM137.408 177.506h2.494v1.24h-3.734v-2.495h-6.245v3.741h1.256v-2.486h3.734v2.486h6.244v-3.741h-3.749z"/><path d="M132.418 178.746h1.255v1.246h-1.255zM104.978 173.756h16.207v1.248h-16.207z"/><path d="M127.429 178.746h-1.255v-4.99h-1.239v4.99h-1.256v-4.99h-1.239v2.495h-4.989v3.741h3.734v-1.246h-2.495v-1.24h3.75v2.486h6.228v-6.236h-1.239zM112.461 177.506h2.496v1.24h-3.75v-2.495h-6.229v3.741h1.239v-2.486h3.75v2.486h6.229v-3.741h-3.735z"/><path d="M107.473 178.746h1.239v1.246h-1.239zM80.017 173.756H96.24v1.248H80.017z"/><path d="M102.468 178.746h-1.239v-4.99h-1.256v4.99h-1.239v-4.99h-1.255v2.495H92.49v3.741h3.75v-1.246h-2.495v-1.24h3.734v2.486h6.244v-6.236h-1.255zM87.501 177.506h2.495v1.24h-3.735v-2.495h-6.244v3.741h1.255v-2.486h3.734v2.486h6.245v-3.741h-3.75z"/><path d="M82.512 178.746h1.255v1.246h-1.255zM55.056 173.756h16.223v1.248H55.056z"/><path d="M77.523 178.746h-1.255v-4.99h-1.24v4.99h-1.255v-4.99h-1.239v2.495h-4.99v3.741h3.735v-1.246h-2.495v-1.24h3.75v2.486h6.228v-6.236h-1.239zM62.556 177.506h2.494v1.24H61.3v-2.495h-6.244v3.741h1.255v-2.486h3.75v2.486h6.229v-3.741h-3.734z"/><path d="M57.566 178.746h1.24v1.246h-1.24zM30.111 173.756h16.223v1.248H30.111z"/><path d="M52.562 178.746h-1.24v-4.99h-1.255v4.99h-1.239v-4.99h-1.255v2.495h-4.989v3.741h3.75v-1.246h-2.496v-1.24h3.735v2.486h6.244v-6.236h-1.255zM37.594 177.506h2.495v1.24h-3.734v-2.495h-6.244v3.741h1.255v-2.486H35.1v2.486h6.244v-3.741h-3.75z"/><path d="M32.605 178.746h1.255v1.246h-1.255zM5.15 173.756h16.222v1.248H5.15z"/><path d="M27.616 178.746h-1.255v-4.99h-1.239v4.99h-1.24v-4.99h-1.255v2.495h-4.989v3.741h3.734v-1.246h-2.495v-1.24h3.75v2.486h6.229v-6.236h-1.24zM12.649 177.506h2.495v1.24h-3.75v-2.495H5.15v3.741h1.255v-2.486h3.75v2.486h6.228v-3.741h-3.734z"/><path d="M7.66 178.746h1.239v1.246H7.66z"/></g><g fill="#D8091B"><path d="M164.407 139.092c-.848-6.95-5.615-12.284-13.068-14.638-.03-.008-.063.008-.094.039-.017.032 0 .079.03.094.031.039 4.252 3.381 6.888 9.013 2.447 5.193 4.002 13.454-2.416 23.298-.016.03-.016.069.018.094 0 .016.029.023.047.023s.029 0 .047-.008c5.975-3.67 9.427-10.871 8.548-17.915zM139.133 123.976c.69 0 1.726-.212 2.651-1.216.925 1.004 1.945 1.216 2.634 1.216 1.209 0 2.386-.643 3.026-1.655.581-.925.63-1.992.144-3.02a.19.19 0 00-.063-.047.101.101 0 00-.079.039c-.908 1.64-1.93 2.471-3.027 2.471-1.459 0-2.571-1.499-2.571-1.514-.031-.039-.109-.039-.125 0-.017.016-1.13 1.514-2.589 1.514-1.099 0-2.118-.832-3.028-2.471-.016-.023-.047-.039-.063-.039-.031 0-.063.023-.079.047-.486 1.028-.438 2.095.142 3.02a3.64 3.64 0 003.027 1.655z"/><path d="M145.769 159.55c.581-.337 3.028-1.844 5.429-4.486 2.543-2.792 5.522-7.452 5.413-13.822-.644-12.324-7.218-16.23-7.28-16.27-.031-.016-.078-.016-.094.016-.031.023-.031.063-.016.094.031.04 2.934 4.346 3.701 10.339.707 5.499-.297 13.579-9.053 20.928l.754-17.555v-13.03c0-.031-.031-.063-.063-.071-.94-.235-2.713-2.267-2.729-2.283-.016-.023-.031-.031-.047-.031-.031 0-.047.008-.063.031-.017.016-1.789 2.048-2.73 2.283-.031.008-.063.04-.063.071v13.03l.753 17.555c-8.755-7.35-9.759-15.429-9.053-20.928.769-5.993 3.671-10.292 3.703-10.339.016-.031.016-.07-.016-.094-.032-.032-.063-.032-.095-.016-.063.04-6.637 3.946-7.279 16.27-.11 6.37 2.871 11.029 5.412 13.822 2.4 2.644 4.849 4.149 5.429 4.486-.706.329-3.295 1.311-8.519 1.311-.032 0-.063.031-.079.069 0 .032.016.071.047.079a19.472 19.472 0 006.464 1.122c2.275 0 3.813-.431 4.111-.518l1.897 2.487c0 .008.017.016.017.016v.008c.016.008.031.016.047.016.031 0 .047 0 .063-.016 0 0 .016-.016.016-.022l1.896-2.487c.299.086 1.836.518 4.11.518 2.165 0 4.347-.376 6.464-1.122.031-.008.047-.047.047-.086s-.047-.063-.078-.063c-5.221-.001-7.81-.983-8.516-1.312z"/><path d="M125.389 133.609c2.636-5.632 6.856-8.982 6.888-9.021.031-.016.047-.063.031-.094s-.063-.047-.094-.039c-7.452 2.354-12.222 7.688-13.069 14.638-.878 7.043 2.573 14.246 8.566 17.917 0 .009.016.009.031.009a.075.075 0 00.079-.079c0-.023 0-.039-.017-.056-6.415-9.838-4.846-18.082-2.415-23.275z"/></g></svg>