<svg xmlns="http://www.w3.org/2000/svg" viewBox="2.84 48.38 277.79 186.71"><path fill="#D6D4D1" d="M2.835 48.376h277.794v186.712H2.835z"/><path fill="#003787" d="M5.15 50.647h77.425v71.722H5.15zM121.287 50.647h157.131v71.722H121.287zM121.279 161.081h157.132v71.723H121.279zM5.158 161.081h77.425v71.723H5.158z"/><path fill="#D3031C" d="M278.418 153.111v-22.772H113.309V50.647H90.544v79.692H5.158v22.772h85.386v79.692h22.765v-79.692z"/><g fill="#FFF"><path d="M90.544 130.339V50.647h-7.969v71.722H5.15v7.97zM113.309 50.647v79.692h165.086v-7.97H121.279V50.647zM113.309 153.111v79.692h7.97v-71.722h157.116v-7.97zM90.544 232.803v-79.692H5.15v7.97h77.425v71.722z"/></g></svg>