<svg xmlns="http://www.w3.org/2000/svg" viewBox="2.84 48.38 277.79 186.71"><path fill="#D6D4D1" d="M2.835 48.375h277.794v186.714H2.835z"/><path fill="#CD0E26" d="M5.181 50.653v182.156L141.8 141.735z"/><path fill="#027A3D" d="M97.4 171.333L5.181 232.809h273.23v-61.476z"/><path fill="#FFF" d="M97.4 112.13l44.4 29.605-44.4 29.598h181.026V112.13z"/><path d="M97.385 112.124h181.026V50.646H5.165"/><path d="M50.639 144.741l-6.032-3.64 3.859-5.915c.04-.055.04-.133-.016-.18-.031-.055-.102-.079-.172-.055l-6.605 2.463-2.181-6.707c-.023-.063-.086-.11-.157-.11s-.125.047-.149.11l-2.196 6.707-6.598-2.463c-.07-.023-.141 0-.172.055-.055.047-.055.125-.016.18l3.859 5.915-6.032 3.64a.153.153 0 00-.079.172c.016.063.079.109.141.117l7.021.659-.934 6.997a.17.17 0 00.086.165c.031.017.047.017.07.017a.151.151 0 00.118-.048l4.881-5.091 4.879 5.091c.031.031.055.048.118.048.102.016.165-.071.165-.157a.222.222 0 00-.016-.07l-.926-6.95 7.021-.658c.063-.009.125-.056.141-.118.016-.073-.015-.144-.078-.174z" fill="#FFF"/></svg>