<svg xmlns="http://www.w3.org/2000/svg" viewBox="2.84 48.38 277.79 186.71"><path fill="#D6D4D1" d="M2.835 48.376h277.794v186.712H2.835z"/><path d="M5.118 50.623h273.253v54.652H5.118z"/><path fill="#076629" d="M5.118 178.141h273.253v54.652H5.118z"/><path fill="#BB0D1D" d="M5.118 114.383h273.269v54.652H5.118z"/><path fill="#FFF" d="M5.126 105.276h273.261v9.107H5.126z"/><path d="M173.09 194.842l-53.654-92.924c.823-3.185-.934-6.213-2.637-9.155-4.753-8.236-10.088-13.728-13.72-16.881-.047-.031-.109-.047-.141-.008-.056.024-.071.071-.063.126.91 4.73 2.989 12.096 7.759 20.34 1.694 2.942 3.443 5.978 6.597 6.848l53.648 92.925c.021.04.07.063.107.063a.09.09 0 00.057-.023l1.992-1.139c.039-.022.055-.047.063-.078s.008-.062-.008-.094z" fill="#FFF"/><path d="M170.988 196.357a.32.32 0 01-.259-.142l-53.616-92.877c-3.186-.918-4.935-3.962-6.637-6.903-4.77-8.252-6.863-15.65-7.773-20.403a.288.288 0 01.125-.306.311.311 0 01.369.023c3.64 3.169 8.997 8.676 13.759 16.92 1.718 2.973 3.468 6.009 2.667 9.225l53.625 92.862c.021.047.047.117.021.229a.297.297 0 01-.148.188l-1.983 1.14c-.039.035-.117.044-.15.044zM103.087 76.133c.926 4.73 3.013 12.01 7.704 20.121 1.678 2.903 3.404 5.907 6.494 6.754.04.016.079.039.103.086l53.616 92.877 1.896-1.09-53.624-92.872a.185.185 0 01-.016-.141c.8-3.099-.918-6.087-2.589-8.982-4.712-8.148-9.96-13.591-13.584-16.753z"/><path d="M110.414 194.842l53.656-92.924c-.823-3.185.935-6.213 2.636-9.155 4.754-8.236 10.088-13.728 13.721-16.881.048-.031.109-.047.142-.008.058.024.071.071.063.126-.909 4.73-2.988 12.096-7.758 20.34-1.695 2.942-3.443 5.978-6.599 6.848l-53.648 92.925a.132.132 0 01-.109.063.09.09 0 01-.056-.023l-1.992-1.139a.117.117 0 01-.063-.078.124.124 0 01.007-.094z" fill="#FFF"/><path d="M112.517 196.357a.316.316 0 00.259-.142l53.616-92.877c3.187-.918 4.935-3.962 6.637-6.903 4.771-8.252 6.864-15.65 7.772-20.403a.283.283 0 00-.125-.306.31.31 0 00-.368.023c-3.64 3.169-8.997 8.676-13.759 16.92-1.719 2.973-3.467 6.009-2.668 9.225l-53.625 92.862c-.023.047-.047.117-.023.229a.305.305 0 00.149.188l1.984 1.14c.04.035.118.044.151.044zm67.901-120.224c-.926 4.73-3.015 12.01-7.703 20.121-1.68 2.903-3.404 5.907-6.495 6.754a.182.182 0 00-.103.086L112.5 195.973l-1.898-1.092 53.624-92.871a.185.185 0 00.016-.141c-.8-3.099.918-6.087 2.59-8.982 4.713-8.149 9.961-13.592 13.586-16.754z"/><path fill="#FFF" d="M5.126 169.035h273.261v9.106H5.126z"/><path d="M169.066 141.713c0 30.176-12.221 54.644-27.313 54.644-15.101 0-27.322-24.468-27.322-54.644 0-30.186 12.222-54.652 27.322-54.652 15.093 0 27.313 24.467 27.313 54.652z" fill="#BB0D1D"/><path d="M118.102 168.996c2.322-8.032 3.671-17.336 3.671-27.283 0-9.955-1.349-19.25-3.671-27.291-2.322 8.041-3.671 17.336-3.671 27.291 0 9.946 1.348 19.25 3.671 27.283zM165.396 168.996c2.321-8.032 3.671-17.336 3.671-27.283 0-9.955-1.35-19.25-3.671-27.291-2.321 8.041-3.671 17.336-3.671 27.291 0 9.946 1.35 19.25 3.671 27.283z"/><path d="M146.436 141.713c0-3.177-1.436-5.852-3.389-6.691.432-.91 4.533-9.931 4.533-23.902 0-14.669-4.525-23.894-4.572-23.98a.123.123 0 00-.144-.07c-.063.016-.102.063-.102.125v47.718a3.419 3.419 0 00-1.012-.165 3.42 3.42 0 00-1.013.165V87.194a.126.126 0 00-.094-.125.128.128 0 00-.149.07c-.047.086-4.573 9.312-4.573 23.98 0 13.971 4.103 22.992 4.534 23.902-1.953.839-3.389 3.514-3.389 6.691 0 3.169 1.436 5.852 3.389 6.691-.432.902-4.534 9.923-4.534 23.902 0 14.668 4.526 23.887 4.573 23.979.024.049.071.07.118.07h.031a.136.136 0 00.094-.125v-47.726c.33.109.667.173 1.013.173.345 0 .682-.063 1.012-.173v47.729c0 .055.038.108.102.125h.023c.048 0 .095-.022.116-.07.047-.094 4.574-9.312 4.574-23.979 0-13.979-4.104-22.999-4.535-23.901 1.958-.842 3.394-3.525 3.394-6.694z" fill="#FFF"/></svg>