<svg xmlns="http://www.w3.org/2000/svg" viewBox="2.84 48.38 277.79 186.71"><path fill="#D6D4D1" d="M2.835 48.375h277.794v186.714H2.835z"/><g fill="#FFE500"><path d="M178.84 143.729c1.459.149 2.967.306 4.361.306 2.967 0 4.928-.697 6.322-2.267.063-.063.063-.157.018-.228a.196.196 0 00-.205-.086 9.903 9.903 0 01-2.51.298c-2.4 0-4.896-.722-7.313-1.42-2.416-.706-4.707-1.365-6.95-1.365-.377 0-.735.023-1.082.055 2.103-.832 4.706-.98 7.231-1.122 4.031-.212 8.205-.439 10.244-3.609.047-.07.031-.165-.017-.227-.063-.055-.142-.079-.219-.055-1.351.581-2.919.863-4.785.863-1.664 0-3.405-.22-5.084-.431-1.647-.212-3.342-.416-4.927-.416-1.207 0-2.274.125-3.231.392 1.962-1.168 4.487-1.718 6.966-2.243 3.955-.847 8.049-1.726 9.555-5.178.049-.07.018-.165-.029-.219a.213.213 0 00-.234-.016c-2.793 1.741-6.291 1.859-9.681 1.961-2.918.102-5.711.188-8.049 1.239 1.739-1.443 4.157-2.377 6.524-3.294 3.768-1.451 7.672-2.965 8.629-6.605a.195.195 0 00-.078-.204.21.21 0 00-.233.016c-2.463 2.157-5.933 2.816-9.257 3.459-2.87.549-5.602 1.075-7.75 2.479 1.506-1.703 3.75-3.004 5.931-4.275 3.498-2.024 7.123-4.126 7.483-7.876a.17.17 0 00-.109-.188c-.078-.031-.173-.016-.22.047-2.104 2.518-5.413 3.71-8.599 4.864-2.762.996-5.383 1.938-7.265 3.663 1.207-1.914 3.216-3.553 5.177-5.146 3.14-2.557 6.387-5.193 6.166-8.95 0-.086-.063-.149-.142-.173s-.155.023-.22.086c-1.68 2.816-4.754 4.502-7.734 6.15-2.559 1.404-4.988 2.753-6.604 4.746.908-2.079 2.635-4.009 4.313-5.883 2.715-3.02 5.508-6.134 4.689-9.813a.173.173 0 00-.156-.141c-.078-.016-.172.039-.203.11-1.227 3.051-4.001 5.201-6.668 7.288-2.309 1.796-4.52 3.506-5.789 5.734.563-2.204 1.961-4.385 3.344-6.503 2.194-3.396 4.471-6.911 3.104-10.417a.2.2 0 00-.188-.118c-.078.008-.156.063-.174.141-.736 3.208-3.138 5.766-5.46 8.237-2.008 2.134-3.905 4.173-4.815 6.566.221-2.251 1.256-4.628 2.274-6.935 1.646-3.703 3.343-7.531 1.443-10.778a.198.198 0 00-.204-.086.208.208 0 00-.157.165c-.22 3.279-2.194 6.181-4.095 8.99-1.646 2.424-3.2 4.73-3.733 7.24-.142-2.267.519-4.77 1.177-7.209 1.037-3.915 2.119-7.954-.281-10.873-.047-.055-.141-.078-.204-.047-.078.023-.125.102-.125.188.298 3.271-1.192 6.448-2.636 9.516-1.256 2.651-2.434 5.169-2.56 7.734-.485-2.212-.233-4.785.017-7.303.424-4.024.862-8.189-1.96-10.692-.063-.055-.141-.063-.22-.016-.063.039-.094.118-.094.204.815 3.185-.173 6.558-1.114 9.821-.815 2.808-1.584 5.475-1.302 8.025-.848-2.103-.988-4.691-1.114-7.217-.235-4.032-.455-8.221-3.624-10.252-.078-.039-.157-.039-.22.016-.078.055-.078.141-.047.22 1.286 3.02.831 6.503.408 9.876-.361 2.903-.706 5.664-.032 8.135-1.145-1.945-1.694-4.479-2.228-6.95-.847-3.961-1.726-8.056-5.178-9.563-.078-.031-.156-.008-.219.055a.187.187 0 00-.016.22c1.741 2.785 1.851 6.291 1.961 9.68.094 2.926.188 5.711 1.239 8.041-1.443-1.734-2.385-4.158-3.295-6.511-1.459-3.773-2.965-7.68-6.604-8.629a.18.18 0 00-.204.079.189.189 0 00.016.22c2.165 2.486 2.824 5.93 3.451 9.256.55 2.879 1.083 5.617 2.479 7.758-1.695-1.499-3.013-3.742-4.268-5.923-2.04-3.499-4.143-7.123-7.876-7.491-.095-.016-.157.039-.188.11-.031.078-.016.165.063.219 2.511 2.11 3.703 5.413 4.849 8.605.988 2.753 1.945 5.366 3.671 7.264-1.93-1.208-3.562-3.216-5.146-5.177-2.557-3.146-5.208-6.394-8.958-6.174-.078.008-.142.071-.173.149a.183.183 0 00.095.204c2.808 1.687 4.503 4.762 6.134 7.735 1.412 2.565 2.762 5.004 4.754 6.605-2.07-.895-4-2.62-5.883-4.307-2.651-2.377-5.397-4.84-8.504-4.84-.439 0-.879.047-1.302.142a.218.218 0 00-.157.172c-.016.079.047.157.11.188 3.059 1.231 5.208 4 7.295 6.683 1.788 2.307 3.499 4.503 5.727 5.782-2.181-.573-4.377-1.969-6.495-3.342-2.667-1.734-5.444-3.522-8.174-3.522-.785 0-1.538.141-2.244.424a.196.196 0 00-.125.188c.016.079.063.149.156.165 3.201.737 5.758 3.146 8.237 5.459 2.134 2.008 4.157 3.907 6.558 4.817-2.243-.204-4.628-1.255-6.935-2.275-2.541-1.129-5.146-2.282-7.546-2.282-1.208 0-2.26.274-3.232.847a.185.185 0 00-.094.204c.031.079.094.142.173.142 3.278.227 6.181 2.196 8.989 4.103 2.416 1.647 4.723 3.2 7.232 3.726a8.223 8.223 0 01-.627.031c-2.087 0-4.361-.604-6.574-1.192-2.181-.581-4.424-1.177-6.432-1.177-1.805 0-3.248.471-4.44 1.443-.047.055-.078.141-.047.22.031.079.109.118.188.118.267-.023.549-.039.831-.039 2.98 0 5.884 1.365 8.691 2.683 2.651 1.247 5.178 2.424 7.751 2.542-.848.188-1.789.291-2.887.291-1.443 0-2.966-.157-4.44-.306-1.459-.149-2.981-.306-4.377-.306-2.966 0-4.927.698-6.308 2.267-.063.063-.078.157-.031.228.047.07.126.102.204.086.8-.196 1.616-.298 2.511-.298 2.416 0 4.91.722 7.311 1.42 2.432.706 4.723 1.365 6.95 1.365h.016c.361 0 .722-.023 1.083-.055-2.118.832-4.707.98-7.217 1.122-4.048.212-8.237.438-10.261 3.607a.18.18 0 00.016.229.173.173 0 00.142.063c.031 0 .047-.008.078-.008 1.349-.581 2.918-.863 4.77-.863 1.679 0 3.42.221 5.099.433 1.632.211 3.326.423 4.91.423 1.224 0 2.291-.133 3.248-.393-1.961 1.161-4.503 1.71-6.966 2.244-3.97.848-8.064 1.727-9.57 5.169a.197.197 0 00.047.221c.031.03.078.047.126.047a.153.153 0 00.094-.031c2.793-1.742 6.307-1.852 9.696-1.961 2.918-.094 5.694-.188 8.032-1.239-1.741 1.451-4.157 2.385-6.511 3.295-3.766 1.451-7.688 2.965-8.629 6.605-.031.078.016.165.078.211.031.008.063.022.095.022a.178.178 0 00.125-.047c2.479-2.157 5.931-2.815 9.272-3.452 2.871-.557 5.601-1.083 7.734-2.485-1.49 1.702-3.734 3.004-5.915 4.274-3.498 2.024-7.122 4.126-7.499 7.876-.016.086.047.157.11.188.031.016.063.016.078.016.063 0 .109-.021.142-.063 2.117-2.519 5.412-3.71 8.612-4.863 2.746-.997 5.366-1.938 7.265-3.664-1.208 1.914-3.217 3.554-5.178 5.146-3.138 2.557-6.385 5.193-6.182 8.951a.214.214 0 00.157.173c.016 0 .016.008.047.008a.179.179 0 00.157-.087c1.694-2.823 4.754-4.51 7.734-6.158 2.558-1.404 5.005-2.753 6.605-4.746-.895 2.079-2.636 4.009-4.314 5.883-2.699 3.021-5.491 6.135-4.691 9.813a.17.17 0 00.173.142h.016a.197.197 0 00.173-.109c1.239-3.051 4-5.199 6.667-7.278 2.322-1.796 4.519-3.515 5.79-5.734-.55 2.196-1.962 4.378-3.342 6.495-2.197 3.396-4.456 6.911-3.091 10.42.031.068.094.125.172.125h.017c.094-.018.156-.07.172-.148.737-3.201 3.122-5.766 5.46-8.237 1.992-2.134 3.891-4.173 4.801-6.565-.22 2.26-1.239 4.637-2.274 6.942-1.632 3.694-3.326 7.522-1.428 10.771a.173.173 0 00.156.096h.031c.095-.021.157-.096.157-.173.22-3.278 2.196-6.183 4.095-8.989 1.647-2.424 3.217-4.729 3.75-7.24.125 2.268-.533 4.771-1.177 7.209-1.036 3.914-2.118 7.954.267 10.872a.197.197 0 00.141.063c.017 0 .048 0 .079-.016.063-.023.125-.103.109-.188-.282-3.271 1.208-6.448 2.651-9.517 1.256-2.651 2.416-5.17 2.542-7.728.502 2.204.235 4.784-.016 7.295-.408 4.024-.848 8.188 1.961 10.692a.212.212 0 00.126.047.354.354 0 00.109-.023.202.202 0 00.078-.203c-.8-3.193.173-6.565 1.13-9.822.8-2.809 1.585-5.481 1.302-8.03.832 2.108.989 4.688 1.114 7.217.22 4.039.455 8.222 3.624 10.244a.16.16 0 00.095.03.214.214 0 00.125-.039.194.194 0 00.048-.221c-1.287-3.02-.848-6.502-.424-9.875.376-2.901.705-5.664.031-8.136 1.161 1.945 1.71 4.479 2.243 6.95.848 3.962 1.726 8.057 5.161 9.563.031.008.063.018.078.018a.18.18 0 00.143-.07.169.169 0 00.031-.22c-1.742-2.785-1.867-6.291-1.979-9.681-.077-2.936-.188-5.711-1.237-8.049 1.441 1.75 2.385 4.166 3.295 6.52 1.459 3.779 2.965 7.68 6.621 8.629.016.008.016.018.029.018.063 0 .143-.039.174-.096a.223.223 0 00-.018-.22c-2.165-2.486-2.823-5.925-3.467-9.259-.551-2.879-1.066-5.614-2.479-7.757 1.694 1.498 3.013 3.743 4.283 5.923 2.022 3.498 4.126 7.121 7.875 7.49h.017a.2.2 0 00.174-.108c.031-.078 0-.164-.047-.22-2.526-2.109-3.721-5.414-4.863-8.604-1.006-2.754-1.946-5.366-3.672-7.266 1.914 1.217 3.545 3.225 5.146 5.187 2.464 3.028 5.021 6.174 8.599 6.184.108 0 .234-.01.346-.018.094-.008.156-.063.188-.148a.26.26 0 00-.096-.203c-2.809-1.688-4.518-4.762-6.134-7.734-1.429-2.565-2.763-5.005-4.771-6.605 2.088.902 4.018 2.62 5.898 4.308 2.65 2.385 5.381 4.84 8.503 4.84.424 0 .879-.047 1.302-.142a.179.179 0 00.143-.173c.017-.078-.03-.156-.108-.188-3.044-1.225-5.192-4.001-7.28-6.685-1.804-2.306-3.514-4.503-5.742-5.772 2.213.564 4.377 1.961 6.512 3.333 2.668 1.733 5.443 3.521 8.176 3.521.77 0 1.521-.141 2.243-.424.077-.031.125-.102.108-.188a.175.175 0 00-.142-.165c-3.201-.738-5.772-3.139-8.237-5.46-2.133-2-4.173-3.907-6.558-4.816 2.259.22 4.628 1.263 6.935 2.283 2.525 1.122 5.146 2.274 7.547 2.274 1.191 0 2.244-.273 3.231-.847.063-.04.095-.125.078-.204s-.078-.133-.173-.141c-3.278-.229-6.165-2.196-8.989-4.104-2.416-1.646-4.724-3.2-7.231-3.727.219-.016.424-.031.645-.031 2.086 0 4.359.604 6.572 1.2 2.164.573 4.408 1.169 6.416 1.169 1.82 0 3.265-.471 4.455-1.443a.19.19 0 00.047-.22c-.029-.078-.107-.11-.201-.118-.27.023-.551.04-.832.04-2.967 0-5.867-1.365-8.678-2.683-2.649-1.247-5.178-2.424-7.766-2.542.862-.188 1.805-.29 2.902-.29 1.435-.013 2.957.143 4.446.292zm-37.087 26.492c-15.783 0-28.57-12.804-28.57-28.579 0-15.783 12.787-28.578 28.57-28.578s28.585 12.794 28.585 28.578c0 15.775-12.802 28.579-28.585 28.579z"/><path d="M141.689 133.892c-.423.298-.862.62-1.271.949-.047.023-.047.063-.047.094 0 .047 0 .086.047.102.408.313.848.643 1.271.98 0 .016.048.023.063.023.031 0 .063-.008.078-.023a43.77 43.77 0 011.271-.98c.03-.016.047-.055.047-.102a.125.125 0 00-.047-.094c-.425-.322-.847-.643-1.271-.949-.046-.031-.093-.031-.141 0zM144.577 127.813c0 .055.016.102.078.118a69.87 69.87 0 011.49.839c.016.016.031.016.063.016.018 0 .031 0 .047-.008 4.145-1.726 8.553-2.651 13.086-2.769.048 0 .095-.023.109-.07.031-.04 0-.094-.017-.133-.282-.306-.55-.604-.815-.887-.031-.031-.078-.047-.094-.039a37.217 37.217 0 00-13.869 2.832.106.106 0 00-.078.101zM143.415 130.041c0-.047-.031-.086-.078-.11a26.028 26.028 0 00-1.521-.839c-.031-.023-.078-.023-.126-.008-.518.274-1.035.565-1.521.847-.047.023-.063.063-.063.11s.031.086.063.102c.533.282 1.035.565 1.521.847a.12.12 0 00.063.016c.031 0 .047 0 .063-.016.502-.282 1.004-.565 1.521-.847.046-.017.078-.055.078-.102zM133.657 131.146c.016.016.031.016.047.016.047 0 .063-.008.078-.023.439-.33.832-.612 1.192-.863.048-.031.063-.071.063-.118s-.031-.086-.063-.102a34.953 34.953 0 00-12.096-2.683c-.031.008-.079.016-.095.047-.203.267-.392.549-.58.824a.124.124 0 00-.016.125c.031.039.063.071.109.071a34.03 34.03 0 0111.361 2.706zM131.853 132.684c.031-.031.047-.071.031-.118 0-.039-.031-.079-.078-.094a32.627 32.627 0 00-10.417-2.761c-.063 0-.095.016-.126.063a24.128 24.128 0 00-3.122 11.869c0 2.911.518 5.773 1.538 8.497a.118.118 0 00.109.078c.063-.009.125-.031.125-.078a39.865 39.865 0 0111.94-17.456zM148.467 130.159c0 .047.017.086.063.118.346.235.706.502 1.192.863.03.016.047.023.077.023.017 0 .031 0 .048-.016a34.08 34.08 0 0111.375-2.706c.03 0 .077-.032.094-.071s.017-.086 0-.125c-.188-.274-.394-.557-.58-.824-.03-.031-.063-.039-.108-.047a34.767 34.767 0 00-12.08 2.683c-.049.015-.065.054-.081.102zM137.25 128.778c.031.008.031.008.047.008.031 0 .047 0 .078-.016.486-.29.989-.573 1.491-.832.047-.023.063-.07.063-.125a.116.116 0 00-.078-.102 37.148 37.148 0 00-13.854-2.832.129.129 0 00-.095.039c-.267.283-.549.581-.831.887-.016.039-.031.094 0 .133 0 .047.063.07.094.07 4.55.117 8.943 1.044 13.085 2.77zM141.658 139.462c-6.244 6.346-9.68 14.779-9.68 23.737v.094c0 .04.016.087.063.11a23.26 23.26 0 009.712 2.11c3.373 0 6.636-.706 9.71-2.11.047-.022.078-.07.078-.11v-.094c0-8.958-3.451-17.391-9.694-23.737-.047-.047-.125-.047-.189 0zM136.183 135.046a.127.127 0 00.047-.102c0-.04-.031-.071-.063-.094a29.65 29.65 0 00-1.521-.934c-.031-.023-.094-.016-.142.016-6.322 5.421-10.637 12.598-12.488 20.75 0 .032 0 .07.016.102a23.362 23.362 0 001.71 2.283.111.111 0 00.095.047s.016-.008.031-.008a.205.205 0 00.094-.102 37.374 37.374 0 0112.221-21.958zM137.736 131.445c-.393.267-.784.557-1.239.894-.031.023-.047.063-.047.11 0 .039.031.079.063.102a27.5 27.5 0 011.521.871c.031.016.031.023.063.023s.063-.008.079-.023c.392-.298.8-.604 1.255-.91a.127.127 0 00.047-.102c0-.047-.031-.086-.063-.11a42.188 42.188 0 00-1.554-.863c-.031-.024-.078-.016-.125.008zM141.705 126.518c.017.008.032.016.048.016s.031-.008.047-.016a38.756 38.756 0 0114.873-3.106.115.115 0 00.109-.079.145.145 0 00-.031-.141 23.544 23.544 0 00-14.998-5.428c-5.46 0-10.778 1.93-14.983 5.428-.047.031-.063.086-.047.141a.119.119 0 00.109.079c5.178.055 10.183 1.099 14.873 3.106zM162.243 129.773c-.017-.047-.048-.063-.127-.063a32.844 32.844 0 00-10.416 2.761c-.031.016-.064.055-.064.094-.016.047 0 .086.031.118 5.478 4.628 9.586 10.668 11.924 17.447a.172.172 0 00.125.086.116.116 0 00.111-.078 24.147 24.147 0 001.553-8.497 23.998 23.998 0 00-3.137-11.868z"/><path d="M139.823 137.767a.109.109 0 00.047-.086.11.11 0 00-.047-.094 28.85 28.85 0 00-1.271-1.051c-.047-.039-.109-.031-.156.008-6.684 6.08-10.811 14.426-11.61 23.494a.13.13 0 00.047.103c.612.502 1.256.988 1.93 1.442a.185.185 0 00.079.017s.031-.008.047-.017a.107.107 0 00.063-.102c.22-4.314 1.192-8.488 2.918-12.41a34.671 34.671 0 017.953-11.304zM149 133.931c-.031-.031-.095-.039-.142-.008-.485.283-1.004.596-1.521.926a.112.112 0 00-.047.094c0 .039 0 .079.029.102 6.465 5.656 10.811 13.453 12.237 21.957.017.048.047.087.094.103.017 0 .017.008.017.008.047 0 .08-.022.109-.047a23.217 23.217 0 001.694-2.283c.03-.031.03-.069.016-.102-1.833-8.151-6.148-15.329-12.486-20.75zM145.644 131.437c-.519.274-1.035.564-1.554.863-.031.023-.047.063-.047.11 0 .039.016.078.047.102.408.291.832.597 1.255.91a.107.107 0 00.063.023.149.149 0 00.076-.023c.455-.282.975-.581 1.521-.871a.128.128 0 00.048-.102c.016-.047-.017-.086-.048-.11a34.59 34.59 0 00-1.239-.894.11.11 0 00-.122-.008z"/><path d="M145.125 136.544c-.047-.039-.108-.047-.172-.008-.425.337-.849.69-1.271 1.051-.017.023-.05.055-.05.094 0 .031.019.063.05.086 3.389 3.224 6.087 7.021 7.952 11.304a34.771 34.771 0 012.92 12.41c0 .039.029.079.063.102a.256.256 0 00.047.017c.047 0 .063-.008.078-.017.69-.454 1.317-.94 1.945-1.442a.193.193 0 00.031-.103c-.798-9.068-4.908-17.415-11.593-23.494z"/></g><g fill="#E31A30"><path d="M5.149 50.553v182.156h273.223V50.553H5.149zm184.376 91.215c-1.396 1.57-3.356 2.267-6.323 2.267-1.396 0-2.902-.156-4.361-.306-1.488-.149-3.012-.306-4.438-.306-1.099 0-2.04.102-2.9.29 2.588.117 5.112 1.294 7.766 2.542 2.809 1.317 5.711 2.683 8.676 2.683.282 0 .564-.016.832-.04.094.008.172.04.203.118a.192.192 0 01-.047.22c-1.192.973-2.637 1.443-4.455 1.443-2.01 0-4.252-.597-6.417-1.169-2.212-.597-4.487-1.2-6.573-1.2-.22 0-.424.016-.645.031 2.511.525 4.816 2.079 7.231 3.727 2.824 1.906 5.712 3.875 8.989 4.104.096.008.156.063.173.141s-.017.165-.077.204c-.988.573-2.039.847-3.232.847-2.399 0-5.021-1.153-7.545-2.274-2.309-1.021-4.676-2.063-6.937-2.283 2.386.91 4.427 2.815 6.56 4.815 2.463 2.322 5.035 4.723 8.235 5.46.078.017.142.086.142.165.017.086-.03.157-.108.188a6.118 6.118 0 01-2.243.424c-2.73 0-5.508-1.789-8.175-3.522-2.134-1.372-4.298-2.769-6.511-3.332 2.229 1.271 3.938 3.467 5.742 5.772 2.086 2.683 4.234 5.459 7.278 6.684a.17.17 0 01.109.188.18.18 0 01-.144.174 6.115 6.115 0 01-1.302.142c-3.122 0-5.853-2.456-8.503-4.841-1.883-1.687-3.813-3.403-5.898-4.307 2.008 1.601 3.342 4.04 4.771 6.605 1.616 2.973 3.326 6.048 6.134 7.732a.268.268 0 01.096.205.209.209 0 01-.188.148 4.866 4.866 0 01-.347.016c-3.575-.008-6.135-3.152-8.598-6.182-1.601-1.961-3.23-3.971-5.146-5.187 1.726 1.898 2.667 4.511 3.672 7.266 1.146 3.192 2.337 6.495 4.862 8.604.048.056.078.142.048.222a.197.197 0 01-.173.107h-.016c-3.75-.367-5.854-3.992-7.875-7.49-1.271-2.182-2.591-4.426-4.283-5.924 1.412 2.142 1.93 4.881 2.479 7.76.645 3.334 1.303 6.771 3.467 9.256.049.063.049.148.016.221-.029.055-.107.094-.172.094-.016 0-.016-.008-.031-.016-3.654-.949-5.16-4.848-6.619-8.629-.91-2.354-1.854-4.771-3.297-6.521 1.054 2.338 1.162 5.114 1.24 8.05.109 3.389.234 6.896 1.979 9.68a.174.174 0 01-.031.221c-.031.047-.095.07-.142.07a.308.308 0 01-.078-.018c-3.438-1.506-4.313-5.601-5.162-9.563-.533-2.471-1.082-5.004-2.243-6.949.676 2.472.346 5.232-.029 8.135-.424 3.373-.863 6.855.422 9.876a.188.188 0 01-.047.22.218.218 0 01-.125.039.163.163 0 01-.096-.031c-3.169-2.021-3.402-6.205-3.624-10.242-.125-2.526-.28-5.107-1.112-7.219.283 2.551-.502 5.226-1.304 8.033-.957 3.256-1.93 6.629-1.13 9.82a.205.205 0 01-.078.204.303.303 0 01-.109.022.219.219 0 01-.126-.047c-2.809-2.502-2.369-6.668-1.961-10.691.251-2.51.518-5.092.016-7.295-.126 2.557-1.286 5.074-2.542 7.727-1.443 3.067-2.934 6.244-2.651 9.516.016.086-.047.164-.109.188-.031.017-.063.017-.079.017a.19.19 0 01-.141-.063c-2.385-2.918-1.303-6.958-.267-10.872.644-2.438 1.302-4.94 1.177-7.209-.533 2.51-2.103 4.815-3.75 7.24-1.898 2.809-3.875 5.711-4.095 8.987 0 .08-.063.149-.157.166 0 0-.016.008-.031.008a.168.168 0 01-.156-.094c-1.898-3.248-.204-7.076 1.428-10.771 1.035-2.308 2.055-4.685 2.274-6.942-.91 2.394-2.809 4.432-4.801 6.565-2.338 2.472-4.723 5.034-5.46 8.235-.016.078-.078.133-.172.148h-.017c-.078 0-.141-.055-.172-.125-1.365-3.507.894-7.021 3.091-10.418 1.38-2.117 2.792-4.299 3.342-6.495-1.271 2.22-3.468 3.938-5.79 5.734-2.667 2.079-5.428 4.229-6.667 7.28a.199.199 0 01-.173.107h-.016a.17.17 0 01-.173-.143c-.8-3.68 1.992-6.793 4.691-9.813 1.679-1.875 3.42-3.804 4.314-5.883-1.601 1.993-4.048 3.342-6.605 4.746-2.98 1.646-6.04 3.334-7.734 6.156a.176.176 0 01-.157.089c-.031 0-.031-.009-.047-.009a.214.214 0 01-.157-.174c-.203-3.758 3.044-6.394 6.182-8.951 1.961-1.592 3.97-3.231 5.178-5.146-1.898 1.726-4.519 2.667-7.265 3.664-3.2 1.152-6.495 2.345-8.612 4.862a.172.172 0 01-.142.063c-.016 0-.047 0-.078-.017-.063-.032-.126-.103-.11-.188.377-3.75 4.001-5.852 7.499-7.876 2.181-1.271 4.425-2.573 5.915-4.275-2.134 1.404-4.863 1.931-7.734 2.486-3.342.636-6.793 1.294-9.272 3.452a.178.178 0 01-.125.047c-.032 0-.063-.016-.095-.022-.063-.048-.109-.134-.078-.212.941-3.64 4.863-5.153 8.629-6.604 2.354-.91 4.77-1.844 6.511-3.295-2.338 1.051-5.114 1.146-8.032 1.239-3.39.109-6.903.22-9.696 1.961a.158.158 0 01-.094.03.179.179 0 01-.126-.047.195.195 0 01-.047-.22c1.506-3.444 5.601-4.322 9.57-5.169 2.463-.534 5.005-1.083 6.966-2.244-.957.259-2.024.393-3.248.393-1.584 0-3.278-.213-4.91-.424-1.679-.212-3.42-.432-5.099-.432-1.852 0-3.421.282-4.77.863-.031 0-.047.008-.078.008a.172.172 0 01-.142-.063c-.063-.063-.063-.156-.016-.228 2.023-3.169 6.213-3.396 10.261-3.608 2.51-.141 5.099-.291 7.217-1.122-.361.032-.722.056-1.083.056h-.016c-2.228 0-4.519-.659-6.95-1.365-2.4-.698-4.895-1.42-7.311-1.42-.895 0-1.711.102-2.511.298a.196.196 0 01-.204-.086c-.047-.071-.031-.165.031-.228 1.381-1.569 3.342-2.267 6.308-2.267 1.396 0 2.918.157 4.377.306 1.475.149 2.997.306 4.44.306 1.098 0 2.039-.102 2.887-.291-2.573-.118-5.1-1.294-7.751-2.542-2.808-1.318-5.711-2.683-8.691-2.683-.282 0-.564.016-.831.039-.079 0-.157-.039-.188-.118-.031-.079 0-.165.047-.22 1.192-.973 2.636-1.443 4.44-1.443 2.008 0 4.251.596 6.432 1.177 2.213.588 4.487 1.192 6.574 1.192.203 0 .424-.016.627-.031-2.51-.526-4.816-2.079-7.232-3.726-2.809-1.906-5.711-3.875-8.989-4.103-.079 0-.142-.063-.173-.142a.184.184 0 01.094-.204c.973-.573 2.024-.847 3.232-.847 2.4 0 5.005 1.153 7.546 2.282 2.307 1.02 4.691 2.071 6.935 2.275-2.4-.91-4.424-2.809-6.558-4.817-2.479-2.314-5.036-4.722-8.237-5.459-.094-.016-.141-.086-.156-.165 0-.086.047-.157.125-.188a5.993 5.993 0 012.244-.424c2.729 0 5.507 1.789 8.174 3.522 2.118 1.373 4.314 2.769 6.495 3.342-2.228-1.279-3.938-3.475-5.727-5.782-2.087-2.683-4.236-5.452-7.295-6.683-.063-.032-.126-.11-.11-.188a.22.22 0 01.157-.172 6.018 6.018 0 011.302-.142c3.106 0 5.853 2.463 8.504 4.84 1.883 1.688 3.813 3.412 5.883 4.307-1.992-1.601-3.342-4.04-4.754-6.605-1.631-2.973-3.326-6.048-6.134-7.735a.184.184 0 01-.095-.204c.031-.078.095-.141.173-.149 3.75-.22 6.401 3.028 8.958 6.174 1.585 1.961 3.217 3.969 5.146 5.177-1.726-1.898-2.683-4.511-3.671-7.264-1.146-3.192-2.338-6.495-4.849-8.605a.177.177 0 01-.063-.219c.031-.071.094-.125.188-.11 3.733.369 5.836 3.993 7.876 7.491 1.255 2.181 2.572 4.424 4.268 5.923-1.396-2.142-1.93-4.879-2.479-7.758-.627-3.326-1.286-6.77-3.451-9.256a.189.189 0 01-.016-.22.18.18 0 01.204-.079c3.64.949 5.146 4.856 6.604 8.629.91 2.354 1.852 4.777 3.295 6.511-1.052-2.33-1.146-5.115-1.239-8.041-.11-3.389-.22-6.895-1.961-9.68a.185.185 0 01.016-.22c.063-.063.141-.086.219-.055 3.452 1.506 4.331 5.601 5.178 9.563.533 2.471 1.083 5.005 2.228 6.95-.674-2.471-.329-5.232.032-8.135.423-3.373.878-6.856-.408-9.876-.031-.079-.031-.165.047-.22.063-.055.142-.055.22-.016 3.169 2.032 3.389 6.221 3.624 10.252.126 2.526.267 5.115 1.114 7.217-.282-2.55.486-5.217 1.302-8.025.941-3.264 1.929-6.637 1.114-9.821 0-.086.031-.165.094-.204.079-.047.157-.039.22.016 2.826 2.502 2.385 6.668 1.96 10.692-.252 2.518-.502 5.091-.016 7.303.125-2.565 1.303-5.083 2.557-7.734 1.443-3.067 2.936-6.244 2.638-9.516 0-.086.047-.165.125-.188.063-.031.157-.008.204.047 2.398 2.918 1.316 6.958.281 10.873-.657 2.439-1.316 4.942-1.176 7.209.533-2.51 2.086-4.816 3.732-7.24 1.898-2.809 3.875-5.711 4.096-8.99a.21.21 0 01.156-.165.196.196 0 01.204.086c1.897 3.248.203 7.076-1.442 10.778-1.021 2.306-2.057 4.683-2.275 6.935.91-2.393 2.81-4.432 4.816-6.566 2.321-2.471 4.723-5.028 5.459-8.237.018-.078.094-.133.174-.141.063-.008.156.04.188.118 1.365 3.506-.908 7.021-3.104 10.417-1.381 2.118-2.776 4.299-3.342 6.503 1.271-2.228 3.481-3.938 5.789-5.734 2.668-2.087 5.442-4.236 6.668-7.288.03-.071.125-.125.202-.11a.172.172 0 01.157.141c.814 3.679-1.979 6.793-4.689 9.813-1.681 1.875-3.404 3.804-4.313 5.883 1.614-1.993 4.047-3.342 6.604-4.746 2.979-1.647 6.055-3.334 7.732-6.15.063-.063.143-.11.22-.086.078.024.144.086.144.173.22 3.757-3.028 6.393-6.166 8.95-1.961 1.593-3.971 3.232-5.178 5.146 1.883-1.726 4.502-2.667 7.264-3.663 3.186-1.153 6.496-2.346 8.599-4.864.048-.063.142-.078.22-.047a.17.17 0 01.109.188c-.359 3.75-3.984 5.852-7.482 7.876-2.182 1.271-4.426 2.573-5.932 4.275 2.148-1.404 4.88-1.93 7.75-2.479 3.326-.643 6.794-1.302 9.258-3.459a.211.211 0 01.234-.016c.063.039.094.125.078.204-.957 3.64-4.863 5.154-8.629 6.605-2.368.917-4.785 1.851-6.526 3.294 2.338-1.051 5.131-1.137 8.049-1.239 3.39-.102 6.888-.22 9.681-1.961a.21.21 0 01.234.016c.047.055.078.149.031.219-1.506 3.452-5.602 4.331-9.555 5.178-2.479.525-5.006 1.075-6.967 2.243.957-.267 2.023-.392 3.231-.392 1.584 0 3.276.204 4.926.416 1.681.211 3.421.431 5.084.431 1.866 0 3.437-.282 4.785-.863a.232.232 0 01.22.055c.047.063.063.157.016.227-2.039 3.169-6.213 3.397-10.243 3.609-2.526.141-5.132.29-7.231 1.122.344-.032.704-.055 1.082-.055 2.242 0 4.533.659 6.949 1.365 2.416.698 4.911 1.42 7.313 1.42.895 0 1.727-.094 2.511-.298a.194.194 0 01.202.086c.037.088.037.182-.026.245z"/><path d="M141.753 113.064c-15.783 0-28.57 12.794-28.57 28.578 0 15.775 12.787 28.579 28.57 28.579s28.585-12.804 28.585-28.579c0-15.782-12.802-28.578-28.585-28.578zm18.983 14.357c.188.267.392.549.58.824.017.039.017.086 0 .125s-.063.071-.094.071a34.09 34.09 0 00-11.375 2.706c-.017.016-.031.016-.048.016a.152.152 0 01-.077-.023 41.13 41.13 0 00-1.192-.863.13.13 0 01-.063-.118c.016-.047.031-.086.078-.102a34.79 34.79 0 0112.08-2.683c.047.008.081.015.111.047zm-2.118-2.504c.268.283.533.581.815.887.017.039.048.094.017.133-.017.047-.064.07-.109.07-4.533.118-8.941 1.043-13.086 2.769-.016.008-.029.008-.047.008-.031 0-.047 0-.063-.016a69.87 69.87 0 00-1.49-.839c-.063-.016-.078-.063-.078-.118 0-.047.031-.086.078-.102a37.22 37.22 0 0113.869-2.832c.016-.006.062.01.094.04zm-11.562 7.532a.128.128 0 01-.048.102c-.549.29-1.066.588-1.521.871a.146.146 0 01-.078.023.109.109 0 01-.063-.023c-.424-.313-.848-.62-1.256-.91a.13.13 0 01-.047-.102c0-.047.017-.086.047-.11.52-.298 1.037-.588 1.555-.863a.116.116 0 01.125.008c.408.282.816.572 1.24.894.03.024.061.063.046.11zm-20.286-9.256a23.47 23.47 0 0114.983-5.428c5.458 0 10.777 1.93 14.998 5.428a.145.145 0 01.031.141.119.119 0 01-.109.079 38.76 38.76 0 00-14.873 3.106c-.016.008-.031.016-.047.016s-.031-.008-.048-.016c-4.69-2.008-9.695-3.051-14.873-3.106a.117.117 0 01-.109-.079c-.016-.055 0-.11.047-.141zm15.045 7.797c-.016.016-.031.016-.063.016-.016 0-.031 0-.063-.016a44.172 44.172 0 00-1.521-.847.12.12 0 01-.063-.102c0-.047.016-.086.063-.11a45.773 45.773 0 011.521-.847c.048-.016.095-.016.126.008.533.267 1.035.557 1.521.839.047.023.078.063.078.11s-.031.086-.078.102c-.517.282-1.019.565-1.521.847zm1.333 3.946c0 .047-.017.086-.047.102a43.77 43.77 0 00-1.271.98c-.016.016-.047.023-.078.023-.016 0-.063-.008-.063-.023-.423-.337-.862-.667-1.271-.98-.047-.016-.047-.055-.047-.102 0-.032 0-.071.047-.094.408-.33.848-.651 1.271-.949a.12.12 0 01.142 0c.423.306.847.627 1.271.949a.12.12 0 01.046.094zm-3.67-2.526a.129.129 0 01-.047.102c-.455.306-.863.612-1.255.91-.016.016-.048.023-.079.023s-.031-.008-.063-.023a28.155 28.155 0 00-1.521-.871c-.031-.023-.063-.063-.063-.102 0-.047.016-.086.047-.11a39.02 39.02 0 011.239-.894c.047-.024.094-.032.125-.008.55.29 1.067.58 1.554.863.031.024.063.063.063.11zm-15.407-6.605c.282-.306.564-.604.831-.887a.127.127 0 01.095-.039 37.148 37.148 0 0113.854 2.832.116.116 0 01.078.102c0 .055-.016.102-.063.125-.502.259-1.005.542-1.491.832-.031.016-.047.016-.078.016-.016 0-.016 0-.047-.008-4.142-1.726-8.535-2.651-13.085-2.769-.031 0-.094-.023-.094-.07-.031-.041-.015-.095 0-.134zm-1.867 2.439c.188-.274.377-.557.58-.824.016-.031.063-.039.095-.047a34.935 34.935 0 0112.096 2.683c.032.016.063.055.063.102s-.016.086-.063.118c-.36.251-.753.533-1.192.863-.016.016-.031.023-.078.023-.016 0-.031 0-.047-.016a34.006 34.006 0 00-11.359-2.706c-.047 0-.078-.032-.109-.071a.12.12 0 01.014-.125zm-2.291 21.895c0 .047-.063.069-.125.078a.116.116 0 01-.109-.078 24.132 24.132 0 01-1.538-8.497c0-4.166 1.083-8.268 3.122-11.869.031-.047.063-.063.126-.063a32.627 32.627 0 0110.417 2.761c.047.016.078.055.078.094.016.047 0 .086-.031.118a39.876 39.876 0 00-11.94 17.456zm3.954 6.965a.075.075 0 00-.031.008.11.11 0 01-.095-.047 23.362 23.362 0 01-1.71-2.283c-.016-.031-.016-.069-.016-.102 1.852-8.15 6.166-15.329 12.488-20.75.048-.031.11-.039.142-.016.518.298 1.035.612 1.521.934.031.023.063.055.063.094a.127.127 0 01-.047.102 37.384 37.384 0 00-12.222 21.957.194.194 0 01-.093.103zm5.083 4.377a.108.108 0 01-.063.102c-.016.009-.047.017-.047.017a.182.182 0 01-.079-.017 25.822 25.822 0 01-1.93-1.442.128.128 0 01-.047-.103c.8-9.067 4.927-17.415 11.61-23.494.047-.039.109-.047.156-.008.408.322.848.675 1.271 1.051a.112.112 0 01.047.094.109.109 0 01-.047.086 34.696 34.696 0 00-7.955 11.304 35.176 35.176 0 00-2.916 12.41zm22.592 1.811c0 .04-.031.087-.078.11a23.196 23.196 0 01-9.709 2.11c-3.357 0-6.637-.706-9.712-2.11-.047-.022-.063-.07-.063-.11v-.094c0-8.958 3.436-17.391 9.68-23.737.063-.047.142-.047.188 0 6.243 6.346 9.694 14.779 9.694 23.737v.094zm5.147-3.152c-.628.502-1.255.988-1.944 1.442-.017.009-.031.017-.063.017 0 0-.049-.008-.063-.017-.031-.022-.063-.063-.063-.102a34.806 34.806 0 00-2.918-12.41c-1.867-4.283-4.565-8.08-7.954-11.304a.111.111 0 01-.049-.086c0-.04.031-.071.049-.094a47.39 47.39 0 011.271-1.051c.063-.039.127-.031.174.008 6.684 6.08 10.793 14.427 11.594 23.494a.25.25 0 01-.034.103zm4.785-5.358a23.336 23.336 0 01-1.694 2.283c-.031.024-.063.047-.095.047 0 0-.017-.008-.031-.008-.047-.016-.077-.055-.094-.103-1.429-8.503-5.772-16.301-12.237-21.957-.031-.023-.031-.063-.031-.102 0-.04.018-.071.047-.094a47.03 47.03 0 011.521-.926.12.12 0 01.143.008c6.338 5.421 10.651 12.598 12.487 20.75a.09.09 0 01-.016.102zm.769-25.009a23.973 23.973 0 013.137 11.869c0 2.911-.531 5.773-1.553 8.497a.118.118 0 01-.109.078.172.172 0 01-.125-.086c-2.338-6.778-6.447-12.819-11.924-17.447-.03-.031-.047-.071-.03-.118 0-.039.03-.079.063-.094a32.841 32.841 0 0110.418-2.761c.075 0 .107.016.123.062z"/></g></svg>