<svg xmlns="http://www.w3.org/2000/svg" viewBox="2.84 48.38 277.79 186.71"><path fill="#D6D4D1" d="M2.835 48.375h277.794v186.714H2.835z"/><path fill="#223A8D" d="M5.095 50.678h273.237v45.537H5.095zM5.095 187.297h273.237v45.545H5.095z"/><path fill="#DE0226" d="M5.118 96.223h273.237v91.083H5.118z"/><path d="M201.409 174.134h-2.979v-5.759h-2.98v-4.918h-2.95v-3.71h-1.771v-2.871h-2.611c-.676-.438-1.412-1.255-1.672-2.164l-.008-.039v-9.28c.29-1.122 1.255-2.11 1.93-2.298l.157-.04v-9.242h-.212c-.706 0-1.208.479-1.529.926v-2.855l-.078-.071c-.394-.298-.849-.321-1.39-.047l-.108.063v.815h-1.468v-4.134h-.22c-.354 0-.542.369-.745.8-.269.541-.558 1.145-1.208 1.145-.173 0-.221-.063-.251-.102-.103-.196-.022-.635.22-1.035.394-.69.771-1.553.203-3.075l-.22-.565-.195.573c-.235.714-.714 1.02-.84 1.043 0 0-.008-.04.017-.125.094-.361.25-.636.399-.895.353-.612.69-1.192.155-2.596l-.281-.777-.125.816c-.126.8-.424 1.083-.604 1.059-.031-.047-.063-.173 0-.369.063-.243.142-.455.228-.651.267-.674.485-1.255-.103-2.463l-.258-.542-.144.588c-.188.777-.368 1.028-.447 1.106-.022-.07-.077-.228-.077-.518v-.125c0-1.49.008-3.177-1.945-3.859-.055-.408-.268-1.467-1.027-1.467-.77 0-.98 1.059-1.043 1.467-1.945.683-1.945 2.369-1.945 3.859v.125c0 .29-.047.447-.078.518-.07-.078-.25-.329-.438-1.106l-.143-.588-.268.542c-.588 1.208-.354 1.789-.094 2.463.078.196.156.408.228.651.056.196.022.321-.048.384-.125 0-.432-.267-.557-1.075l-.125-.816-.291.777c-.525 1.404-.195 1.984.156 2.596.148.259.307.534.399.895a.255.255 0 01.017.094c-.156-.024-.611-.33-.84-1.012l-.188-.573-.214.565c-.58 1.522-.194 2.385.195 3.075.236.4.314.839.213 1.035-.031.04-.078.102-.252.102-.648 0-.939-.604-1.207-1.145-.205-.432-.393-.8-.746-.8h-.211v7.256h-1.914v-.361l-.103-.063c-.274-.204-.761-.212-1.146-.031l-.125.055v.416h-11.297l.017-6.675-.3.11a2.142 2.142 0 00-1.332 1.529v.973h-1.012c-.05 0-.479-.071-.479-.941 0-.612.125-1.64 1.034-1.64l.221.008v-2.769l-.234.031c-.022 0-1.304.188-1.992 1.357v-.683h-.213c-.926 0-1.004 1.122-1.004 3.122h-.228v-2.33c.022-.596.337-.887.666-1.192.308-.291.628-.581.644-1.083.008-.063.166-1.475-.234-2.165l-.268-.447-.134.502c-.243.957-.58 1.208-.745 1.208-.133 0-.229-.172-.229-.4 0-.479.33-.98.996-1.985.158-.243.338-.51.535-.808.392-.597.172-2.322-.361-2.981l-.307-.393-.069.502c-.181 1.419-.386 1.898-.785 1.898-.117 0-.463 0-.463-.729 0-.502.212-.855.463-1.255.149-.251.321-.518.433-.847.368-.988.156-2.079-.525-2.714l-.291-.267-.069.392c-.047.282-.078.534-.116.753-.135.879-.174 1.004-.425 1.02-.173-.063-.28-.157-.329-.291-.195-.518.424-1.521.659-1.898l.086-.149.031-.055c.251-.965-.438-1.757-.464-1.789l-.26-.282-.117.361c-.26.816-.398 1.106-.524 1.106-.056 0-.116-.016-.155-.023-.109-.031-.164-.086-.188-.188-.063-.228.063-.643.463-1.043.494-.487.471-1.232-.063-1.813l-.203-.228-.143.275c-.204.384-.455.557-.611.557a.119.119 0 01-.086-.031c-.022-.023-.031-.079-.017-.149l.446-2.212h-.532l.188-1.459h-.684l.172-1.208h-1.176l.115-1.231h-1.072c-.008-.353-.07-1.177-.52-1.632a1.026 1.026 0 00-.736-.329c-.29.016-.533.118-.737.329-.423.455-.494 1.279-.502 1.632h-1.082l.117 1.231h-1.161l.157 1.208h-.675l.188 1.459h-.525l.399 2.243c-.008.063-.047.157-.117.157-.102 0-.33-.118-.549-.565l-.142-.275-.212.228c-.533.581-.564 1.326-.063 1.813.4.4.525.815.471 1.043a.283.283 0 01-.188.188c-.055.008-.118.023-.165.023-.125 0-.274-.29-.533-1.106l-.141-.424-.244.369c-.086.118-.784 1.185-.423 1.82l.094.149c.228.376.855 1.38.659 1.898-.047.134-.165.228-.33.291-.242-.016-.298-.141-.423-1.02a31.86 31.86 0 00-.118-.753l-.078-.392-.29.267c-.675.635-.887 1.726-.526 2.714.118.329.283.596.439.847.243.4.463.753.463 1.255 0 .729-.353.729-.463.729-.399 0-.596-.479-.784-1.898l-.063-.502-.321.393c-.534.659-.746 2.384-.354 2.981l.533.808c.667 1.004.996 1.506.996 1.985 0 .228-.102.4-.235.4-.148 0-.486-.251-.745-1.208l-.133-.502-.267.447c-.393.69-.235 2.102-.228 2.149.016.518.337.808.635 1.098.338.306.651.596.667 1.192v2.33h-.204c-.008-2.149-.031-3.122-1.074-3.122h-.22v.667c-.698-1.161-1.953-1.342-1.977-1.342l-.243-.031v2.542l.047.228.228-.008c.854 0 .98 1.028.98 1.64 0 .886-.439.941-.471.941h-1.169v-1.036c-.023-.039-.298-1.027-1.404-1.467l-.298-.11v6.675h-10.841v-.416l-.126-.055c-.384-.188-.87-.173-1.161.031l-.086.063v.361h-1.852v-7.256h-.211c-.36 0-.541.369-.745.8-.267.541-.557 1.145-1.208 1.145-.173 0-.22-.055-.251-.102-.117-.196-.023-.635.204-1.035.408-.69.784-1.553.204-3.075l-.204-.565-.196.573c-.235.714-.714 1.02-.839 1.043 0 0-.008-.04.016-.125.094-.361.251-.636.399-.895.354-.612.69-1.192.157-2.596l-.282-.777-.134.816c-.125.8-.431 1.083-.596 1.059-.031-.047-.063-.173 0-.369.063-.243.142-.455.228-.651.251-.674.486-1.255-.103-2.463l-.267-.542-.133.588c-.188.777-.377 1.028-.447 1.106-.031-.07-.078-.228-.078-.518v-.124c0-1.49.008-3.177-1.954-3.859-.047-.408-.267-1.467-1.035-1.467-.753 0-.973 1.059-1.027 1.467-1.953.683-1.953 2.369-1.945 3.859v.125c0 .29-.048.447-.087.518-.07-.078-.251-.329-.439-1.106l-.141-.588-.259.542c-.589 1.208-.369 1.789-.103 2.463.087.196.165.408.235.651.056.196.024.321-.047.384-.125 0-.432-.267-.564-1.075l-.126-.816-.282.777c-.533 1.404-.196 1.984.157 2.596.148.259.298.534.4.895a.27.27 0 01.016.094c-.157-.024-.612-.33-.84-1.012l-.188-.573-.212.565c-.627 1.647-.109 2.542.196 3.075.235.4.313.839.212 1.035-.031.04-.094.102-.251.102-.651 0-.941-.604-1.208-1.145-.204-.432-.393-.8-.745-.8h-.22v4.134h-1.521v-.815l-.126-.063c-.533-.267-.996-.251-1.389.047l-.078.071v2.824c-.321-.439-.808-.895-1.506-.895h-.212v9.242l.156.04c.675.188 1.632 1.176 1.93 2.298v9.343c-.259.894-.988 1.71-1.662 2.141h-2.715v2.871h-1.772v3.71h-2.95v4.918h-2.98v5.759h-2.98v6.196h119.345v-6.194h.001z" fill="#FFF"/><path d="M201.409 174.008h-2.854v-5.633c0-.069-.057-.133-.125-.133h-2.85v-4.787a.139.139 0 00-.134-.133h-2.823v-3.577a.125.125 0 00-.125-.125h-1.641v-2.746c0-.069-.055-.125-.133-.125h-2.567c-.58-.384-1.334-1.145-1.593-2.07l-.009-9.272c.291-1.075 1.199-2.008 1.844-2.188l.157-.039c.055-.023.094-.07.094-.125v-9.242a.138.138 0 00-.133-.133h-.212c-.526 0-.996.235-1.396.69v-2.487a.128.128 0 00-.048-.102l-.087-.07c-.423-.33-.941-.353-1.529-.055l-.107.055a.125.125 0 00-.071.118v.682h-1.198v-4a.137.137 0 00-.135-.133h-.22c-.433 0-.646.431-.871.886-.261.525-.511 1.067-1.082 1.067-.108 0-.126-.031-.136-.047-.076-.133-.016-.502.205-.902.416-.722.809-1.608.211-3.185l-.211-.565a.128.128 0 00-.117-.086h-.01a.14.14 0 00-.115.094l-.188.573c-.148.408-.359.667-.525.808a3.78 3.78 0 01.338-.683c.354-.612.722-1.239.164-2.714l-.281-.769c-.023-.055-.078-.102-.143-.079-.047 0-.078.031-.103.071.039-.424-.03-.926-.369-1.608l-.259-.549a.13.13 0 00-.133-.071c-.057.008-.096.047-.118.102l-.133.588c-.097.392-.183.643-.261.8-.008-.047-.008-.109-.008-.18v-.125c0-1.514 0-3.224-1.961-3.954-.078-.502-.338-1.499-1.146-1.499s-1.074.997-1.16 1.499c-1.961.729-1.961 2.51-1.961 3.954v.305a3.533 3.533 0 01-.261-.8l-.141-.588a.146.146 0 00-.119-.102c-.063-.016-.102.023-.125.071l-.267.549c-.33.683-.407 1.185-.369 1.601a.135.135 0 00-.103-.071c-.063-.016-.117.031-.133.086l-.291.769c-.541 1.475-.181 2.103.166 2.714.133.228.25.431.336.674a1.878 1.878 0 01-.524-.8l-.188-.573a.142.142 0 00-.117-.094.14.14 0 00-.125.086l-.213.565c-.596 1.577-.203 2.471.213 3.185.221.392.281.777.203.91 0 .008-.016.039-.133.039-.563 0-.832-.549-1.091-1.075-.212-.447-.432-.878-.862-.878h-.213a.132.132 0 00-.133.133v7.13H167v-.235a.117.117 0 00-.056-.102l-.087-.063c-.313-.228-.861-.243-1.294-.055l-.126.063a.142.142 0 00-.07.118v.291H154.33l.018-6.55c0-.047-.018-.086-.057-.11-.031-.023-.086-.031-.108-.016l-.308.118a2.274 2.274 0 00-1.412 1.647v.84h-.877s-.36-.04-.36-.808c0-.69.165-1.514.901-1.514l.229.008c.039-.008.068-.008.094-.031s.039-.063.039-.094v-2.769a.153.153 0 00-.039-.102.157.157 0 00-.102-.031l-.235.031c-.022 0-1.104.165-1.853 1.075v-.267a.137.137 0 00-.133-.133h-.213c-.77 0-1.021.651-1.099 1.789v-.855c.017-.549.298-.808.628-1.106.307-.291.65-.62.684-1.161 0-.063.164-1.506-.26-2.244l-.26-.455c-.023-.039-.063-.063-.133-.063a.157.157 0 00-.11.102l-.125.502c-.243.917-.557 1.114-.628 1.114-.031 0-.102-.094-.102-.274 0-.439.32-.926.973-1.914.165-.243.337-.51.541-.808.408-.643.204-2.424-.368-3.138l-.313-.384c-.03-.047-.086-.055-.133-.047a.136.136 0 00-.096.11l-.063.494c-.196 1.499-.4 1.796-.659 1.796-.103 0-.329 0-.329-.604 0-.471.204-.8.455-1.208.148-.259.307-.518.432-.855.377-1.035.148-2.173-.558-2.84l-.298-.274a.1.1 0 00-.118-.031.14.14 0 00-.095.102l-.069.392c-.056.282-.086.541-.118.753-.117.808-.164.902-.281.91-.156-.063-.205-.141-.221-.204-.117-.306.096-.91.65-1.789l.086-.165.023-.063c.274-1.004-.406-1.82-.486-1.914l-.25-.282a.12.12 0 00-.125-.039.133.133 0 00-.096.086l-.109.361c-.203.636-.354.973-.407 1.02l-.017-.016s0 .008-.008.016a1.006 1.006 0 00-.109-.023c-.055-.024-.078-.04-.086-.094-.047-.165.031-.533.424-.918.55-.533.525-1.357-.055-1.992l-.213-.228c-.022-.031-.056-.047-.103-.04-.048 0-.087.032-.108.063l-.135.282c-.173.322-.354.455-.471.479v-.023l.445-2.212a.124.124 0 00-.03-.11.143.143 0 00-.095-.04h-.385l.172-1.318a.149.149 0 00-.039-.094.117.117 0 00-.094-.047h-.525l.143-1.067a.132.132 0 00-.039-.102.104.104 0 00-.087-.047h-1.035l.103-1.083c.009-.039-.008-.071-.022-.102a.166.166 0 00-.103-.039h-.948c-.017-.455-.134-1.169-.541-1.601a1.162 1.162 0 00-.84-.36 1.114 1.114 0 00-.823.36c-.408.439-.518 1.146-.541 1.601h-.957c-.032 0-.071.016-.087.039a.16.16 0 00-.031.102l.094 1.083h-1.02c-.047 0-.086.016-.102.047a.162.162 0 00-.031.102l.141 1.067h-.525c-.039 0-.07.016-.102.047-.023.023-.031.063-.023.094l.164 1.318h-.376a.15.15 0 00-.103.04c-.023.031-.031.07-.023.11l.393 2.22v.023c-.063-.016-.235-.125-.424-.486l-.149-.282c-.016-.031-.047-.063-.086-.063a.12.12 0 00-.117.04l-.204.228c-.589.635-.612 1.451-.071 1.992.4.385.479.753.447.918-.016.055-.047.07-.102.094-.047.008-.095.023-.103.023 0 0-.008-.008-.023-.016v.008c-.078-.055-.211-.392-.415-1.012l-.134-.423c-.008-.047-.055-.079-.094-.086-.056-.016-.11.008-.126.047l-.259.369c-.133.211-.815 1.278-.416 1.961l.087.149c.541.878.769 1.483.65 1.789-.031.063-.07.141-.235.204-.102-.008-.156-.102-.274-.91l-.008-.031a8.652 8.652 0 00-.117-.722l-.071-.392c-.008-.047-.039-.086-.086-.102s-.086-.008-.125.031l-.291.274c-.714.667-.934 1.805-.564 2.84.125.345.298.612.455.878.243.4.439.714.439 1.185 0 .604-.235.604-.33.604-.259 0-.463-.298-.658-1.796l-.063-.494a.157.157 0 00-.086-.11.173.173 0 00-.149.047l-.306.392c-.58.698-.784 2.487-.368 3.13.195.298.376.573.533.808.65.988.98 1.475.98 1.914 0 .18-.07.274-.11.274-.063 0-.368-.196-.619-1.122l-.142-.502c-.008-.047-.055-.079-.102-.094-.047-.008-.103.023-.134.063l-.251.455c-.439.745-.259 2.212-.259 2.212.023.572.377.902.69 1.192.321.298.604.557.611 1.098v.518c-.094-.918-.36-1.443-1.145-1.443h-.22c-.07 0-.126.063-.126.133v.259c-.745-.91-1.819-1.067-1.819-1.067l-.259-.031c-.047-.008-.071.008-.103.031-.031.024-.039.063-.039.102v2.573l.039.219c.023.055.071.102.134.102l.228-.008c.745 0 .847.949.847 1.514 0 .769-.337.808-.337.808h-1.036v-.863l-.016-.07a2.498 2.498 0 00-1.475-1.553l-.298-.118a.152.152 0 00-.117.016.136.136 0 00-.056.11v6.55h-10.59v-.291a.121.121 0 00-.078-.118l-.118-.055c-.423-.204-.973-.181-1.294.047l-.086.063c-.023.024-.056.063-.056.102v.235h-1.584v-7.13a.137.137 0 00-.134-.133h-.212c-.431 0-.643.423-.862.878-.259.525-.525 1.075-1.091 1.075-.109 0-.125-.031-.133-.047-.079-.125-.016-.51.204-.902.415-.714.808-1.608.211-3.185l-.211-.565a.128.128 0 00-.118-.086h-.008a.148.148 0 00-.118.094l-.195.565a1.917 1.917 0 01-.518.824c.086-.267.211-.479.337-.69.353-.612.706-1.239.165-2.714l-.291-.769a.11.11 0 00-.133-.079c-.047 0-.078.031-.103.071.04-.424-.039-.926-.368-1.608l-.259-.549a.126.126 0 00-.134-.071.142.142 0 00-.117.102l-.142.588a3.504 3.504 0 01-.259.8v-.305c0-1.514 0-3.224-1.961-3.954-.078-.502-.338-1.499-1.161-1.499-.808 0-1.066.997-1.146 1.499-1.961.729-1.961 2.432-1.961 3.954v.125c0 .071 0 .125-.008.18a4.565 4.565 0 01-.259-.8l-.142-.588c-.016-.055-.055-.094-.109-.102a.126.126 0 00-.134.071l-.259.549c-.329.683-.407 1.185-.376 1.608-.016-.04-.047-.071-.095-.071a.109.109 0 00-.133.079l-.29.769c-.542 1.475-.188 2.103.164 2.722.126.204.243.408.33.667a1.823 1.823 0 01-.519-.8l-.195-.573c-.016-.055-.055-.094-.11-.094a.139.139 0 00-.125.086l-.212.565c-.644 1.702-.11 2.627.212 3.185.22.392.282.777.204.902 0 .016-.023.047-.134.047-.572 0-.839-.549-1.091-1.075-.219-.447-.431-.878-.862-.878h-.22a.139.139 0 00-.134.133v4h-1.271v-.682a.13.13 0 00-.07-.118l-.11-.063c-.58-.29-1.098-.259-1.521.063l-.094.07a.125.125 0 00-.048.102v2.463c-.399-.439-.862-.667-1.372-.667h-.21a.139.139 0 00-.134.133v9.242c0 .055.047.102.095.125l.164.039c.628.181 1.546 1.113 1.828 2.188v9.312c-.267.91-1.004 1.654-1.569 2.031H92.74c-.078 0-.133.056-.133.125v2.746h-1.64a.125.125 0 00-.126.125v3.577h-2.824a.138.138 0 00-.133.133v4.793l-2.848-.008a.137.137 0 00-.086.041.12.12 0 00-.047.094v5.632h-2.848c-.071 0-.118.056-.118.126v6.197c0 .07.047.125.118.125h21.211c.016 0 .031.008.031.008h7.837c.023 0 .031-.008.031-.008h26.483l.031.008h7.835c.017 0 .023-.008.023-.008h26.688s.021.008.038.008h7.837l.031-.008h21.267c.069 0 .118-.055.118-.125v-6.197c.011-.073-.036-.128-.107-.128zM95.164 138.041h93.239v2.307H95.164v-2.307zm0 4.88v-2.315h93.239v2.315H95.164zm84.971-18.309c0-.039.009-.094.031-.172.056-.235.142-.439.213-.635.086-.204.164-.408.211-.628l-.078.526c-.086.595-.275.838-.377.909zm-4.863-6.542a.145.145 0 00.087-.102c.056-.408.259-1.357.909-1.357.645 0 .84.949.895 1.357a.142.142 0 00.088.102c1.865.651 1.865 2.212 1.865 3.734v.125c0 .243.031.376.057.471-2.823 2.495-5.404.384-5.82.008.021-.094.063-.235.063-.479l-.009-.125c-.002-1.522-.002-3.083 1.865-3.734zm-2.8 3.278l.103-.22.055.243c.195.785.386 1.067.479 1.161v.008c.032.016 1.381 1.302 3.231 1.302.935 0 1.992-.322 3.074-1.302.094-.102.291-.384.479-1.169l.055-.243.103.22c.564 1.161.361 1.694.096 2.361-.07.196-.165.408-.229.659a.892.892 0 00-.008.4c-3.477 3.012-6.66.573-7.305 0a.598.598 0 00.008-.4c-.07-.251-.164-.471-.234-.667-.269-.666-.473-1.191.093-2.353zm-.33 2.456c.071.18.149.4.22.635a.553.553 0 01.016.181c-.094-.086-.28-.345-.367-.918l-.078-.518c.045.212.131.416.209.62zm-.408 2.408c-.354-.612-.651-1.138-.157-2.495l.127-.314.047.337c.117.745.393 1.067.604 1.146.269.243 1.858 1.6 4.009 1.6 1.17 0 2.479-.408 3.838-1.616.219-.094.453-.416.57-1.13l.057-.337.116.314c.502 1.357.204 1.883-.155 2.495-.148.251-.313.533-.416.925-.008.047 0 .055-.008.086-3.932 3.483-7.539.612-8.189.031v-.008a.582.582 0 00-.023-.11 3.852 3.852 0 00-.42-.924zm-.823.078l.094-.235.078.235c.196.581.549.926.81 1.043l-.009.008c.031.031 1.914 1.812 4.486 1.812 1.271 0 2.723-.447 4.196-1.765.212-.078.651-.408.879-1.098l.07-.235.095.228c.549 1.475.188 2.306-.195 2.973-.148.259-.26.573-.268.839-5.005 4.503-9.586.188-9.798-.023a1.697 1.697 0 00-.243-.816c-.376-.667-.745-1.498-.195-2.966zm-1.907 2.346c.267 0 .416.274.627.737.268.542.597 1.216 1.326 1.216.181 0 .291-.063.354-.172.008-.008 0-.023.008-.031.533.462 2.502 1.984 5.066 1.984 1.46 0 3.115-.518 4.816-1.992 0 .008 0 .031.008.039.063.11.182.172.354.172.729 0 1.061-.674 1.325-1.224.22-.455.36-.729.628-.729h.094v4.008c0 .071.057.125.126.125h1.468c.069 0 .116-.055.116-.125v-.737l.056-.023c.479-.243.901-.235 1.248.031l.03.031v2.793c0 .055.039.102.095.118.056.023.104 0 .143-.047.406-.58.886-.871 1.42-.871h.094v1.718h-19.492v-7.021h.09zm-31.394-19.47h.377c.031 0 .07-.024.094-.047s.04-.07.031-.102l-.172-1.31h.533c.039 0 .07-.016.086-.047a.13.13 0 00.039-.102l-.141-1.067h1.02c.039 0 .07-.016.087-.039.031-.023.047-.063.039-.094l-.095-1.09h.934c.07 0 .118-.055.118-.125.016-.33.086-1.129.486-1.553a.852.852 0 01.635-.282c.259 0 .471.094.651.282.406.424.471 1.224.479 1.553 0 .071.055.125.126.125h.933l-.102 1.09c0 .031.016.071.039.094.016.023.055.039.087.039h1.026l-.143 1.067c-.016.04.01.071.021.102a.125.125 0 00.097.047h.533l-.165 1.31a.25.25 0 00.021.102c.032.023.063.047.104.047h.366l-.405 2.055c-.017.078.008.125.03.18-3.757 3.334-7.177.212-7.438-.031.008-.031.031-.031.039-.071v-.047l-.37-2.086zm-.745 3.373c-.447-.432-.408-1.106.07-1.632l.079-.094.063.118c.243.463.502.627.667.627 0 0 .016-.008.031-.008.102.11 1.757 1.616 4.009 1.616 1.161 0 2.486-.4 3.835-1.632.234-.023.502-.251.676-.604l.063-.118.078.094c.494.534.518 1.2.078 1.632-.446.439-.572.902-.502 1.168.031.126.126.188.22.228-4.251 3.648-8.158.816-9.107.016.118-.047.212-.117.251-.243.07-.266-.063-.729-.511-1.168zm-1.113 2.086l-.079-.141c-.267-.455.134-1.279.408-1.687l.109-.149.056.165c.211.683.345.988.486 1.122h-.008l.008.008.023.024c.188.172 2.243 2.032 5.052 2.032 1.459 0 3.105-.518 4.793-2.024.148-.094.29-.4.533-1.161l.047-.141.104.11c.069.086.666.808.438 1.663l-.103.18c-.386.62-.863 1.49-.677 2.008l.009.008c-5.319 4.809-10.175.353-10.536.008l.008-.008c.199-.526-.287-1.404-.671-2.017zm-.659 3.86a5.926 5.926 0 01-.432-.832c-.337-.941-.142-1.969.494-2.573l.118-.11.039.165c.039.267.078.502.109.714v.032c.126.815.173 1.114.557 1.129.024.008.032 0 .032 0a.91.91 0 00.259-.149c.274.251 2.51 2.228 5.546 2.228 1.607 0 3.436-.564 5.295-2.235a.57.57 0 00.243.149c.022.008.039.008.047.008.386-.016.424-.314.549-1.129.04-.212.071-.463.126-.746l.023-.165.117.11c.644.604.84 1.632.502 2.573-.117.314-.269.565-.432.832-.25.4-.479.777-.479 1.318 0 .165.022.306.063.424-6.237 5.632-12.097.251-12.364.008.032-.125.056-.259.056-.432.003-.542-.225-.918-.468-1.319zm-.988 3.758c-.165-.235-.346-.51-.534-.808-.36-.549-.156-2.212.346-2.832l.133-.157.016.204c.181 1.333.377 2.016.918 2.016a.522.522 0 00.408-.196c.4.369 2.98 2.581 6.456 2.581 1.852 0 3.979-.651 6.143-2.581a.503.503 0 00.407.196c.55 0 .737-.682.918-2.016l.022-.204.127.157c.494.62.697 2.283.345 2.832-.196.298-.376.565-.533.816-.683 1.02-1.021 1.529-1.021 2.047 0 .055.017.11.022.157-6.464 5.797-12.551.588-13.187.016a.43.43 0 00.031-.172c.002-.519-.335-1.029-1.017-2.056zm.007 4.338c-.306-.274-.581-.542-.604-1.012-.039-.274-.117-1.49.22-2.063l.11-.188.047.204c.345 1.294.854 1.459 1.105 1.192.589.526 3.287 2.722 6.864 2.722 1.977 0 4.229-.698 6.525-2.73.234.282.762.118 1.105-1.185l.057-.204.108.188c.313.549.269 1.687.22 2.087-.017.447-.307.714-.604.988-.339.321-.685.643-.706 1.294v2.196h-13.748v-2.205c-.016-.641-.362-.963-.699-1.284zm-2.871 2.424l-.126.008-.023-.094v-2.4l.102.008c.009.008 1.217.188 1.883 1.287a.145.145 0 00.142.063c.063-.024.102-.071.102-.125v-.542h.087c.87 0 .941.729.941 2.997 0 .071.063.125.133.125h14.435c.07 0 .117-.055.133-.125 0-2.04.086-2.997.871-2.997h.086v.557c0 .055.039.11.086.125.063.016.119-.008.158-.063.65-1.122 1.883-1.294 1.892-1.302l.094-.008v2.495l-.094-.008c-.745 0-1.169.635-1.169 1.773 0 .431.109.659.229.816h-19.071c.126-.157.228-.385.228-.816-.005-1.139-.405-1.774-1.119-1.774zm-2.11.337c1.004.392 1.286 1.279 1.318 1.365l.008 1.012c0 .07.055.125.125.125h1.122v.008h19.837v-.016l.041.008h1.012c.07 0 .133-.055.133-.125v-.957c0-.04.173-1.004 1.256-1.42l.109-.047-.016 6.362h-25.065v-6.362l.12.047zm-12.465 6.55c.07 0 .125-.055.125-.126v-.29l.04-.031c.235-.165.69-.181 1.027-.023l.047.023v.337c0 .071.063.134.134.134h47.468c.07 0 .125-.063.125-.134v-.337l.056-.023c.33-.157.793-.142 1.021.023l.039.031v.29c0 .071.063.126.133.126h1.853v.023h19.674v1.867H95.164v-1.867h19.689v-.023h1.813zm-5.452-11.28c0-.039.016-.102.031-.172.071-.235.149-.455.22-.635.079-.204.165-.416.212-.628l-.078.526c-.087.556-.267.823-.385.909zm-6.723-2.816c0-1.514 0-3.075 1.867-3.726.039-.016.078-.055.078-.102.04-.322.235-1.357.902-1.357.675 0 .871 1.035.91 1.357a.144.144 0 00.086.102c1.867.651 1.867 2.212 1.867 3.734v.125c0 .243.031.376.055.471-2.815 2.495-5.412.384-5.828.008.031-.094.063-.228.063-.479v-.133zm-.933-.448l.103-.22.055.243c.188.785.385 1.067.479 1.161v.008c.016.016 1.381 1.302 3.232 1.302.933 0 1.984-.322 3.074-1.302h-.008c.008-.008.008 0 .008 0 .095-.102.291-.384.479-1.169l.055-.243.103.22c.564 1.161.36 1.687.094 2.361-.07.188-.164.408-.228.659a.638.638 0 00-.008.4c-3.475 3.02-6.66.573-7.318 0 .047-.086.063-.204.023-.4-.07-.251-.165-.479-.235-.659-.269-.674-.473-1.199.092-2.361zm-.329 2.456c.086.219.157.408.22.635a.553.553 0 01.016.181c-.095-.086-.282-.345-.369-.918l-.095-.534c.055.22.142.424.228.636zm-.409 2.4c-.353-.604-.658-1.13-.156-2.487l.117-.314.055.337c.11.745.393 1.067.597 1.146.259.235 1.858 1.6 4.009 1.6 1.168 0 2.494-.408 3.852-1.632.227-.102.455-.447.564-1.114l.055-.337.118.314c.502 1.357.204 1.883-.157 2.495a3.551 3.551 0 00-.416.925c-.016.047-.008.055-.008.094-3.945 3.491-7.562.581-8.197.016v-.023c0-.016-.008-.047-.016-.086-.102-.385-.259-.659-.417-.934zm-.823.079l.094-.228.079.235c.195.588.549.926.808 1.051.023.031 1.898 1.82 4.472 1.82 1.278 0 2.729-.455 4.212-1.773.212-.086.636-.416.863-1.098l.078-.235.094.228c.55 1.475.181 2.306-.195 2.973a1.818 1.818 0 00-.267.839c-5.005 4.503-9.578.196-9.798-.023a1.68 1.68 0 00-.251-.824c-.291-.51-.786-1.373-.189-2.965zm-6.746 7.655c.525 0 .996.283 1.396.839.04.047.087.063.149.047.047-.016.079-.07.079-.117v-2.762l.039-.031c.353-.267.761-.274 1.255-.031l.039.023v.737c0 .071.063.125.142.125h1.521c.078 0 .125-.055.125-.125v-4.008h.095c.267 0 .407.274.628.729.267.549.596 1.224 1.325 1.224.165 0 .29-.063.353-.172 0 0 0-.023.008-.023.534.463 2.503 1.977 5.061 1.977 1.467 0 3.122-.518 4.809-1.992.008.016.008.031.023.039.063.11.172.172.353.172.729 0 1.06-.674 1.326-1.231.212-.447.36-.722.627-.722h.095v7.021H95.164v-1.718l.087-.001zm.392 9.241h92.273c-.619.369-1.285 1.152-1.568 2.079H97.204c-.274-.925-.941-1.71-1.561-2.079zm88.658 11.43v-9.092h2v9.092h-2zm-87.042-9.092h1.914v9.092h-1.914v-9.092zm2.173 0h3.601v9.092h-3.601v-9.092zm3.859 0h3.601v9.092h-3.601v-9.092zm3.852 0h3.601v9.092h-3.601v-9.092zm3.859 0h3.601v9.092h-3.601v-9.092zm3.859 0h3.602v9.092h-3.602v-9.092zm3.86 0h3.602v9.092h-3.602v-9.092zm3.86 0h3.601v9.092h-3.601v-9.092zm3.859 0h3.601v9.092h-3.601v-9.092zm3.852 0h3.601v9.092h-3.601v-9.092zm3.859 0h3.601v9.092h-3.601v-9.092zm3.852 0h3.601v9.092h-3.601v-9.092zm3.867 0h3.593v9.092h-3.593v-9.092zm3.86 0h3.593v9.092h-3.593v-9.092zm3.851 0h3.603v9.092h-3.603v-9.092zm3.852 0h3.601v9.092h-3.601v-9.092zm3.859 0h3.603v9.092h-3.603v-9.092zm3.86 0h3.601v9.092h-3.601v-9.092zm3.86 0h3.601v9.092h-3.601v-9.092zm3.86 0h3.602v9.092h-3.602v-9.092zm3.858 0h3.601v9.092h-3.601v-9.092zm3.853 0h3.602v9.092h-3.602v-9.092zm3.858 0h3.601v9.092h-3.601v-9.092zm-83.237 9.351h89.167c.26.8.84 1.459 1.363 1.882H95.839c.533-.423 1.114-1.083 1.365-1.882zm-1.741 2.142l.008-.008v.008h95.14v2.611H92.866v-2.611h2.597zm-2.801 2.871h98.064v-.009.009h1.64v3.442H91.101v-3.442h1.561zm-1.797 3.71h101.592v-.039c.022.008.022.039.039.039h2.823v4.659H88.151v-4.659h2.714zm-2.949 4.919H198.295v5.498H85.171v-5.498h2.745zm113.353 11.696h-55.741H137.726 82.205v-5.938H201.269v5.938z"/></svg>