<svg xmlns="http://www.w3.org/2000/svg" viewBox="2.83 48.38 277.8 186.72"><path fill="#D6D4D1" d="M2.833 48.375H280.63v186.716H2.833z"/><path d="M278.363 191.878c-4.408.259-8.762 1.741-12.982 3.192-4.596 1.585-8.935 3.074-13.256 3.074s-8.66-1.489-13.268-3.074c-4.643-1.602-9.451-3.248-14.331-3.248s-9.688 1.646-14.332 3.248c-4.597 1.585-8.942 3.074-13.265 3.074-4.314 0-8.66-1.489-13.258-3.074-4.651-1.602-9.461-3.248-14.332-3.248-4.879 0-9.688 1.646-14.34 3.248-4.598 1.585-8.936 3.074-13.256 3.074-4.322 0-8.661-1.489-13.266-3.074-4.644-1.602-9.452-3.248-14.332-3.248-4.871 0-9.68 1.646-14.331 3.248-4.597 1.585-8.943 3.074-13.258 3.074-4.322 0-8.668-1.489-13.265-3.074-4.651-1.602-9.452-3.248-14.332-3.248s-9.688 1.646-14.332 3.248c-4.604 1.585-8.943 3.074-13.265 3.074-4.322 0-8.66-1.489-13.257-3.074-4.22-1.451-8.566-2.934-12.983-3.192v12.794c3.875.268 7.79 1.608 11.908 3.021 4.652 1.6 9.453 3.255 14.332 3.255 4.879 0 9.688-1.655 14.332-3.255 4.597-1.577 8.943-3.075 13.265-3.075 4.322 0 8.66 1.498 13.257 3.075 4.652 1.6 9.46 3.255 14.34 3.255 4.872 0 9.681-1.655 14.332-3.255 4.597-1.577 8.942-3.075 13.257-3.075 4.322 0 8.669 1.498 13.266 3.075 4.644 1.6 9.452 3.255 14.332 3.255 4.879 0 9.68-1.655 14.331-3.255 4.598-1.577 8.943-3.075 13.266-3.075 4.314 0 8.66 1.498 13.259 3.075 4.649 1.6 9.46 3.255 14.332 3.255 4.879 0 9.688-1.655 14.34-3.255 4.599-1.577 8.937-3.075 13.257-3.075 4.323 0 8.669 1.498 13.266 3.075 4.646 1.6 9.455 3.255 14.334 3.255s9.68-1.655 14.332-3.255c4.117-1.412 8.031-2.754 11.906-3.021v-12.794h-.003z" fill="#FFF"/><path d="M266.457 207.694c-4.651 1.6-9.453 3.255-14.332 3.255s-9.688-1.655-14.334-3.255c-4.596-1.577-8.939-3.075-13.265-3.075-4.321 0-8.659 1.498-13.257 3.075-4.652 1.6-9.461 3.255-14.34 3.255-4.872 0-9.682-1.655-14.332-3.255-4.598-1.577-8.942-3.075-13.258-3.075-4.321 0-8.668 1.498-13.266 3.075-4.65 1.6-9.451 3.255-14.332 3.255s-9.688-1.655-14.332-3.255c-4.597-1.577-8.943-3.075-13.266-3.075-4.314 0-8.66 1.498-13.257 3.075-4.651 1.6-9.46 3.255-14.332 3.255-4.879 0-9.688-1.655-14.34-3.255-4.597-1.577-8.935-3.075-13.257-3.075s-8.668 1.498-13.265 3.075c-4.644 1.6-9.453 3.255-14.332 3.255-4.879 0-9.68-1.655-14.332-3.255-4.118-1.412-8.033-2.754-11.908-3.021v28.131h273.24v-28.131c-3.872.267-7.786 1.609-11.903 3.021z" fill="#004088"/><path d="M278.363 167.287c-4.408.259-8.762 1.741-12.982 3.192-4.596 1.584-8.935 3.074-13.256 3.074s-8.66-1.49-13.268-3.074c-4.643-1.602-9.451-3.248-14.331-3.248s-9.688 1.646-14.332 3.248c-4.597 1.584-8.942 3.074-13.265 3.074-4.314 0-8.66-1.49-13.258-3.074-4.651-1.602-9.461-3.248-14.332-3.248-4.879 0-9.688 1.646-14.34 3.248-4.598 1.584-8.936 3.074-13.256 3.074-4.322 0-8.661-1.49-13.266-3.074-4.644-1.602-9.452-3.248-14.332-3.248-4.871 0-9.68 1.646-14.331 3.248-4.597 1.584-8.943 3.074-13.258 3.074-4.322 0-8.668-1.49-13.265-3.074-4.651-1.602-9.452-3.248-14.332-3.248s-9.688 1.646-14.332 3.248c-4.604 1.584-8.943 3.074-13.265 3.074-4.322 0-8.66-1.49-13.257-3.074-4.22-1.451-8.566-2.936-12.983-3.192v12.794c3.875.268 7.79 1.607 11.908 3.021 4.652 1.601 9.453 3.256 14.332 3.256 4.879 0 9.688-1.655 14.332-3.256 4.597-1.578 8.943-3.075 13.265-3.075 4.322 0 8.66 1.497 13.257 3.075 4.652 1.601 9.46 3.256 14.34 3.256 4.872 0 9.681-1.655 14.332-3.256 4.597-1.578 8.942-3.075 13.257-3.075 4.322 0 8.669 1.497 13.266 3.075 4.644 1.601 9.452 3.256 14.332 3.256 4.879 0 9.68-1.655 14.331-3.256 4.598-1.578 8.943-3.075 13.266-3.075 4.314 0 8.66 1.497 13.259 3.075 4.649 1.601 9.46 3.256 14.332 3.256 4.879 0 9.688-1.655 14.34-3.256 4.599-1.578 8.937-3.075 13.257-3.075 4.323 0 8.669 1.497 13.266 3.075 4.646 1.601 9.455 3.256 14.334 3.256s9.68-1.655 14.332-3.256c4.117-1.412 8.031-2.754 11.906-3.021v-12.794h-.003z" fill="#FFF"/><path d="M31.364 148.961c4.322 0 8.661-1.491 13.265-3.076 4.644-1.592 9.453-3.248 14.332-3.248s9.68 1.647 14.332 3.248c4.597 1.585 8.943 3.076 13.265 3.076 4.314 0 8.661-1.491 13.258-3.076 4.651-1.6 9.46-3.248 14.331-3.248 4.88 0 9.688 1.655 14.332 3.248 4.604 1.585 8.943 3.076 13.266 3.076s8.66-1.491 13.256-3.076c4.65-1.6 9.461-3.248 14.34-3.248 4.871 0 9.681 1.647 14.332 3.248 4.598 1.585 8.943 3.076 13.258 3.076 4.322 0 8.668-1.491 13.265-3.076 4.644-1.6 9.452-3.248 14.332-3.248s9.688 1.655 14.331 3.248c4.605 1.585 8.944 3.076 13.268 3.076 4.322 0 8.66-1.491 13.256-3.076 4.223-1.451 8.566-2.926 12.977-3.192V50.654H5.124v92.039c4.417.259 8.763 1.741 12.983 3.192 4.597 1.585 8.935 3.076 13.257 3.076z" fill="#CD0E26"/><path d="M266.457 183.1c-4.651 1.602-9.453 3.256-14.332 3.256s-9.688-1.654-14.334-3.256c-4.596-1.576-8.939-3.074-13.265-3.074-4.321 0-8.659 1.498-13.257 3.074-4.652 1.602-9.461 3.256-14.34 3.256-4.872 0-9.682-1.654-14.332-3.256-4.598-1.576-8.942-3.074-13.258-3.074-4.321 0-8.668 1.498-13.266 3.074-4.65 1.602-9.451 3.256-14.332 3.256s-9.688-1.654-14.332-3.256c-4.597-1.576-8.943-3.074-13.266-3.074-4.314 0-8.66 1.498-13.257 3.074-4.651 1.602-9.46 3.256-14.332 3.256-4.879 0-9.688-1.654-14.34-3.256-4.597-1.576-8.935-3.074-13.257-3.074s-8.668 1.498-13.265 3.074c-4.644 1.602-9.453 3.256-14.332 3.256-4.879 0-9.68-1.654-14.332-3.256-4.118-1.412-8.033-2.752-11.908-3.021v11.799c4.417.26 8.763 1.741 12.983 3.192 4.597 1.585 8.935 3.073 13.257 3.073 4.322 0 8.661-1.488 13.265-3.073 4.644-1.603 9.453-3.248 14.332-3.248s9.68 1.646 14.332 3.248c4.597 1.585 8.943 3.073 13.265 3.073 4.314 0 8.661-1.488 13.258-3.073 4.651-1.603 9.46-3.248 14.331-3.248 4.88 0 9.688 1.646 14.332 3.248 4.604 1.585 8.943 3.073 13.266 3.073s8.66-1.488 13.255-3.073c4.651-1.603 9.461-3.248 14.34-3.248 4.871 0 9.682 1.646 14.332 3.248 4.599 1.585 8.942 3.073 13.259 3.073 4.321 0 8.668-1.488 13.265-3.073 4.645-1.603 9.452-3.248 14.332-3.248s9.688 1.646 14.331 3.248c4.604 1.585 8.942 3.073 13.269 3.073 4.321 0 8.66-1.488 13.256-3.073 4.222-1.451 8.574-2.935 12.981-3.192v-11.799c-3.873.269-7.787 1.609-11.904 3.021z" fill="#004088"/><path d="M278.363 142.693c-4.408.259-8.762 1.741-12.982 3.192-4.596 1.585-8.935 3.076-13.256 3.076s-8.66-1.491-13.268-3.076c-4.643-1.592-9.451-3.248-14.331-3.248s-9.688 1.647-14.332 3.248c-4.597 1.585-8.942 3.076-13.265 3.076-4.314 0-8.66-1.491-13.258-3.076-4.651-1.6-9.461-3.248-14.332-3.248-4.879 0-9.688 1.647-14.34 3.248-4.598 1.585-8.936 3.076-13.256 3.076-4.322 0-8.661-1.491-13.266-3.076-4.644-1.592-9.452-3.248-14.332-3.248-4.871 0-9.68 1.647-14.331 3.248-4.597 1.585-8.943 3.076-13.258 3.076-4.322 0-8.668-1.491-13.265-3.076-4.651-1.6-9.452-3.248-14.332-3.248s-9.688 1.655-14.332 3.248c-4.604 1.585-8.943 3.076-13.265 3.076-4.322 0-8.66-1.491-13.257-3.076-4.22-1.451-8.566-2.934-12.983-3.192v12.803c3.875.259 7.79 1.601 11.908 3.012 4.652 1.601 9.453 3.255 14.332 3.255 4.879 0 9.688-1.655 14.332-3.255 4.597-1.577 8.943-3.075 13.265-3.075 4.322 0 8.66 1.498 13.257 3.075 4.652 1.601 9.46 3.255 14.34 3.255 4.872 0 9.681-1.655 14.332-3.255 4.597-1.577 8.942-3.075 13.257-3.075 4.322 0 8.669 1.498 13.266 3.075 4.644 1.601 9.452 3.255 14.332 3.255 4.879 0 9.68-1.655 14.331-3.255 4.598-1.577 8.943-3.075 13.266-3.075 4.314 0 8.66 1.498 13.259 3.075 4.649 1.601 9.46 3.255 14.332 3.255 4.879 0 9.688-1.655 14.34-3.255 4.599-1.577 8.937-3.075 13.257-3.075 4.323 0 8.669 1.498 13.266 3.075 4.646 1.601 9.455 3.255 14.334 3.255s9.68-1.655 14.332-3.255c4.117-1.412 8.031-2.753 11.906-3.012v-12.803h-.003z" fill="#FFF"/><path d="M266.457 158.507c-4.651 1.601-9.453 3.255-14.332 3.255s-9.688-1.655-14.334-3.255c-4.596-1.577-8.939-3.075-13.265-3.075-4.321 0-8.659 1.498-13.257 3.075-4.652 1.601-9.461 3.255-14.34 3.255-4.872 0-9.682-1.655-14.332-3.255-4.598-1.577-8.942-3.075-13.258-3.075-4.321 0-8.668 1.498-13.266 3.075-4.65 1.601-9.451 3.255-14.332 3.255s-9.688-1.655-14.332-3.255c-4.597-1.577-8.943-3.075-13.266-3.075-4.314 0-8.66 1.498-13.257 3.075-4.651 1.601-9.46 3.255-14.332 3.255-4.879 0-9.688-1.655-14.34-3.255-4.597-1.577-8.935-3.075-13.257-3.075s-8.668 1.498-13.265 3.075c-4.644 1.601-9.453 3.255-14.332 3.255-4.879 0-9.68-1.655-14.332-3.255-4.118-1.412-8.033-2.753-11.908-3.012v11.791c4.417.259 8.763 1.741 12.983 3.192 4.597 1.584 8.935 3.074 13.257 3.074 4.322 0 8.661-1.49 13.265-3.074 4.644-1.602 9.453-3.248 14.332-3.248s9.68 1.646 14.332 3.248c4.597 1.584 8.943 3.074 13.265 3.074 4.314 0 8.661-1.49 13.258-3.074 4.651-1.602 9.46-3.248 14.331-3.248 4.88 0 9.688 1.646 14.332 3.248 4.604 1.584 8.943 3.074 13.266 3.074s8.66-1.49 13.255-3.074c4.651-1.602 9.461-3.248 14.34-3.248 4.871 0 9.682 1.646 14.332 3.248 4.599 1.584 8.942 3.074 13.259 3.074 4.321 0 8.668-1.49 13.265-3.074 4.645-1.602 9.452-3.248 14.332-3.248s9.688 1.646 14.331 3.248c4.604 1.584 8.942 3.074 13.269 3.074 4.321 0 8.66-1.49 13.256-3.074 4.222-1.451 8.574-2.936 12.981-3.192v-11.791c-3.873.259-7.787 1.601-11.904 3.012z" fill="#004088"/><path d="M118.939 142.748l-.65.273c1.404.235 2.8.565 4.188.957l-.22-1.23.589-3.334.58-3.334 1.694-2.926v-.008l1.687-2.926 2.597-2.173 2.589-2.181 3.185-1.153h.008l3.169-1.161h6.771l3.177 1.161 3.177 1.153 2.598 2.181 2.596 2.173 1.695 2.926v.008l1.693 2.926.58 3.334.589 3.334-.22 1.23a39.42 39.42 0 014.188-.957l-.65-.273 16.316-6.896-17.697-.902 12.977-12.065-16.93 5.209 8.063-15.768-14.136 10.676 2.188-17.579-9.633 14.873-3.953-17.266-3.954 17.266-9.633-14.873 2.188 17.587-14.135-10.682 8.064 15.768-16.929-5.209 12.975 12.065-17.697.902 16.316 6.894z" fill="#FCD11A"/><path d="M117.465 142.748l-.298.125c.714.086 1.42.212 2.126.353l1.138-.479-15.266-6.448 16.552-.847-12.144-11.28 15.847 4.872-7.555-14.748 13.218 9.986-2.048-16.442 9.006 13.916 3.703-16.152 3.702 16.152 9.005-13.916-2.047 16.442 13.219-9.986-7.555 14.748 15.846-4.872-12.144 11.28 16.552.847-15.266 6.448 1.138.479a27.871 27.871 0 012.126-.353l-.298-.125 17.367-7.342-18.834-.957 13.813-12.849-18.027 5.546 8.582-16.795-15.045 11.374 2.33-18.717-10.254 15.838-4.211-18.387-4.213 18.387-10.253-15.838 2.322 18.717-15.038-11.374 8.582 16.795-18.026-5.546 13.813 12.849-18.834.957 17.369 7.342z" fill="#BC9B0A"/><path d="M104.765 144.286c3.091-.926 6.221-1.647 9.382-1.647 2.182 0 4.347.361 6.488.871v-4.479l1.278-3.499 1.278-3.499 2.385-2.847v-.008l2.393-2.84 3.225-1.867 3.216-1.859 3.663-.643.008-.008 3.664-.643 3.663.651 3.655.643 3.231 1.859 3.225 1.859 2.385 2.848v.008l2.393 2.847 1.279 3.499 1.264 3.499.017 3.718h-.017v.761c2.147-.51 4.313-.871 6.502-.871 3.162 0 6.291.723 9.375 1.647l6.699-1.538-18.983-4.354 16.349-10.583-19.328 2.4 11.742-15.532-17.345 8.864 5.728-18.615-13.259 14.261-.987-19.446-7.585 17.94-7.586-17.94-.988 19.455-13.266-14.27 5.734 18.615-17.352-8.864 11.751 15.532-19.329-2.4 16.349 10.583-18.983 4.354 6.687 1.538z" fill="#FCD11A"/><path d="M103.636 144.616a76.4 76.4 0 012.267-.659l-5.256-1.208 17.87-4.095-15.392-9.962 18.191 2.259-11.053-14.622 16.316 8.346-5.389-17.517 12.488 13.422.934-18.301 7.131 16.881 7.129-16.889.935 18.309 12.487-13.422-5.39 17.517 16.316-8.346-11.054 14.622 18.19-2.259-15.392 9.962 17.869 4.095-5.256 1.208c.754.204 1.515.424 2.26.659l8.143-1.867-20.105-4.613 17.313-11.202-20.459 2.542 12.435-16.458-18.362 9.397 6.063-19.713-14.051 15.101-1.043-20.6-8.032 18.999-8.033-18.991-1.043 20.592-14.05-15.101 6.063 19.713-18.363-9.39 12.434 16.45-20.467-2.542 17.32 11.202-20.104 4.613 8.14 1.868z" fill="#BC9B0A"/><path d="M128.479 145.885c4.604 1.585 8.943 3.076 13.266 3.076s8.66-1.491 13.256-3.076c3.568-1.224 7.231-2.471 10.951-2.989 0-.047.016-.094.016-.148 0-13.453-10.911-24.365-24.372-24.365-13.445 0-24.357 10.912-24.357 24.365 0 .047.016.086.016.133 3.81.487 7.568 1.749 11.224 3.004z" fill="#FCD11A"/><path d="M117.826 142.928c0-.063-.016-.118-.016-.18 0-13.116 10.668-23.784 23.784-23.784 13.117 0 23.8 10.668 23.8 23.784 0 .086-.023.157-.023.234.385-.063.771-.086 1.162-.125 0-.039.008-.07.008-.109 0-13.751-11.188-24.938-24.944-24.938-13.743 0-24.93 11.186-24.93 24.938 0 .031.008.055.008.086.383.04.766.032 1.151.094z" fill="#BC9B0A"/><g><g fill="#BC9B0A"><path d="M182.566 64.162a.322.322 0 00.141-.369.301.301 0 00-.328-.211c-.143.016-14.686 1.914-22.562 2.243-8.11.353-11.626.808-16.489 4.229-2.039 1.443-3.577 2.855-4.659 4.032-1.287-2.055-4.597-5.201-12.943-5.797-12.19-.878-24.475-3.585-24.601-3.608a.298.298 0 00-.329.149.319.319 0 00.047.369c.22.212 5.334 5.146 16.834 6.44 7.39.824 12.99 3.146 16.05 5.201l-1.13.086c-.518-.384-2.996-2.071-5.741-2.071-1.428 0-2.699.455-3.766 1.349l-5.837.18a.307.307 0 00-.298.283c0 .063-.094 1.443.659 2.259.36.384.831.58 1.428.58 1.726 0 5.35-.008 6.134-.016.723.895 5.335 6.126 13.775 6.126 4.126 0 8.519-1.537 12.457-3.2h10.197c.096 0 .188-.04.234-.118.063-.079.08-.181.063-.274-.346-1.208-1.883-1.954-4.533-2.22 2.26-.957 4.188-1.663 5.568-1.663.896 0 1.004 0 1.004-.314 0-.117 0-.196-.345-.251v-.063c-.05.008-.188.008-.438.008-.974-.079-3.092-.118-7.846-.212-3.169-.055-6.32-.118-7.672-.141l3.529-3.993c1.62-.124 17.952-1.521 31.397-9.013zm-44.337 10.395c-.941 1.067-1.506 1.875-1.71 2.197l-1.459.016c.047-.542-.016-1.577-.816-2.73-1.208-1.718-4.314-3.915-12.269-4.589-9.507-.808-15.328-2.534-18.152-3.585 4.362.855 13.132 2.416 21.854 3.036 8.285.595 11.407 3.717 12.552 5.655zm-20.473-3.538c-7.045-.792-11.688-3.013-14.199-4.581 2.84 1.074 8.66 2.8 18.372 3.624 7.688.659 10.652 2.706 11.798 4.307.644.933.737 1.749.722 2.22-1.82-1.296-7.171-4.495-16.693-5.57zm43.348 10.777h-8.252c.563-.243 1.112-.486 1.647-.722.125-.063.25-.118.375-.173l1.271-.565c2.638.119 4.347.638 4.959 1.46zm-10.308-9.122l-4.063 4.589c-2.84 3.216-5.443 4.809-7.781 4.683-2.071-.094-3.169-1.577-3.169-1.584-.11-.142-.298-.173-.424-.071a.312.312 0 00-.078.432c.047.07 1.255 1.726 3.624 1.843.094 0 .188.008.282.008 2.416 0 5.083-1.616 7.923-4.793 3.075.055 9.288.165 13.147.259-1.647.518-3.594 1.381-5.711 2.33l-.941.423c-.645.283-1.302.565-1.961.855-4.001 1.71-8.504 3.35-12.692 3.35-8.849 0-13.336-5.938-13.383-5.993-.047-.078-.156-.125-.251-.125 0 0-4.33.008-6.275.008-.424 0-.737-.125-.973-.376-.157-.165-.251-.376-.329-.596h6.385a.307.307 0 00.313-.306.314.314 0 00-.313-.314H117.6a2.33 2.33 0 01-.031-.306l5.647-.165a.385.385 0 00.188-.078c.973-.848 2.134-1.279 3.452-1.279 2.823 0 5.428 2 5.459 2.016.063.055.142.07.22.063l2.071-.149h.031l2.055-.023c.063 0 .11-.016.142-.047.016 0 .016-.008.016-.008a.269.269 0 00.11-.102s.078-.141.251-.376c0-.016.016-.039.031-.055.047-.063.094-.125.141-.204.032-.039.079-.086.095-.133.047-.055.094-.11.141-.172.047-.071.11-.142.157-.212.047-.047.078-.102.126-.157.063-.086.141-.172.219-.267.048-.047.079-.094.11-.141.094-.102.188-.212.282-.322.031-.039.078-.086.109-.125a29.158 29.158 0 015.068-4.495c4.737-3.342 8.017-3.758 16.144-4.103 4.976-.22 12.566-1.043 17.572-1.64-4.033.886-10.434 2.149-15.281 2.455-1.16.071-2.244.11-3.248.157-5.727.251-9.508.416-14.4 4.479-5.601 4.66-6.605 5.53-6.621 5.538a.31.31 0 00.204.542.249.249 0 00.188-.079c.016-.008 1.035-.871 6.635-5.522 4.724-3.93 8.223-4.087 14.012-4.338 1.021-.047 2.104-.094 3.277-.165 5.947-.369 14.168-2.165 17.619-2.965-13.431 6.621-28.617 7.64-28.789 7.648a.26.26 0 00-.206.108z"/><path d="M136.269 83.907c.078.023.847.235 2.259.235 2.447 0 6.777-.612 12.771-3.805a.314.314 0 00.144-.423.32.32 0 00-.424-.125c-9.24 4.918-14.527 3.538-14.591 3.522-.156-.047-.329.055-.376.22a.297.297 0 00.217.376z"/></g><g fill="#FCD11A"><path d="M117.756 71.019c9.522 1.075 14.873 4.275 16.692 5.569.016-.471-.078-1.287-.722-2.22-1.146-1.601-4.11-3.648-11.798-4.307-9.712-.824-15.532-2.55-18.372-3.624 2.511 1.568 7.155 3.789 14.2 4.582z"/><path d="M158.892 68.045c-5.789.251-9.288.408-14.01 4.338-5.604 4.652-6.621 5.515-6.637 5.522a.256.256 0 01-.188.079.31.31 0 01-.204-.542c.016-.008 1.021-.878 6.621-5.538 4.895-4.063 8.676-4.228 14.402-4.479 1.004-.047 2.086-.086 3.246-.157 4.85-.306 11.25-1.569 15.28-2.455-5.005.596-12.598 1.42-17.569 1.64-8.127.345-11.406.761-16.146 4.103-2.322 1.631-3.97 3.255-5.068 4.495-.031.04-.078.086-.109.125-.094.11-.188.22-.282.322a.846.846 0 01-.11.141c-.078.094-.156.181-.219.267-.048.055-.079.11-.126.157-.047.07-.11.141-.157.212-.047.063-.094.117-.141.172-.016.047-.063.094-.095.133-.047.079-.094.141-.141.204-.016.016-.031.039-.031.055-.173.235-.251.376-.251.376a.269.269 0 01-.11.102s0 .008-.016.008c-.031.031-.078.047-.142.047l-2.055.023h-.031l-2.071.149a.282.282 0 01-.22-.063c-.031-.016-2.636-2.016-5.459-2.016-1.318 0-2.479.431-3.452 1.279a.393.393 0 01-.188.078l-5.647.165c0 .086.016.196.031.306h6.526c.173 0 .313.141.313.314a.308.308 0 01-.313.306h-6.385c.078.22.172.432.329.596.235.251.549.376.973.376 1.945 0 6.275-.008 6.275-.008.095 0 .204.047.251.125.047.055 4.534 5.993 13.383 5.993 4.188 0 8.691-1.639 12.692-3.35.658-.29 1.316-.572 1.961-.855l.939-.423c2.119-.949 4.063-1.813 5.711-2.33-3.857-.094-10.07-.204-13.146-.259-2.84 3.177-5.507 4.793-7.923 4.793-.095 0-.188-.008-.282-.008-2.369-.118-3.577-1.773-3.624-1.843a.313.313 0 01.078-.432c.126-.102.313-.071.424.071 0 .008 1.098 1.49 3.169 1.584 2.338.125 4.941-1.467 7.781-4.683l4.063-4.589a.274.274 0 01.205-.11c.172-.008 15.357-1.028 28.789-7.648-3.451.8-11.672 2.596-17.619 2.965-1.173.074-2.255.12-3.275.167zm-22.467 15.266c.063.016 5.351 1.396 14.591-3.522a.32.32 0 01.424.125.312.312 0 01-.142.423c-5.993 3.193-10.323 3.805-12.771 3.805-1.412 0-2.181-.212-2.259-.235a.3.3 0 01-.22-.376c.048-.165.221-.267.377-.22zM154.5 81.076c-.535.235-1.084.479-1.646.722h8.252c-.609-.824-2.32-1.342-4.957-1.459l-1.271.565a6.095 6.095 0 00-.378.172z"/><path d="M136.52 76.752c.204-.322.769-1.13 1.71-2.197-1.146-1.938-4.268-5.06-12.552-5.656-8.723-.62-17.492-2.181-21.854-3.036 2.824 1.051 8.646 2.777 18.152 3.585 7.954.674 11.061 2.871 12.269 4.589.801 1.153.863 2.188.816 2.73l1.459-.015z"/></g><path d="M127.404 76.989a.862.862 0 01-.863.871.872.872 0 01-.863-.871c0-.471.393-.863.863-.863a.86.86 0 01.863.863z" fill="#BC9B0A"/></g></svg>