<svg xmlns="http://www.w3.org/2000/svg" viewBox="2.84 48.38 277.79 186.71"><path fill="#D6D4D1" d="M2.835 48.376h277.794v186.712H2.835z"/><path fill="#318B2D" d="M5.283 50.678v182.155l136.618-91.074z"/><path fill="#FCC522" d="M5.283 50.67v.016l68.293 45.529h204.945V50.67z"/><path fill="#FFF" d="M73.576 96.215l68.318 45.537h136.627V96.215z"/><path fill="#CB061F" d="M141.894 141.752l.007.007-68.309 45.537h204.929v-45.544z"/><path fill="#3F72B3" d="M73.592 187.296L5.283 232.833h273.238v-45.537z"/><path d="M66.76 181.021c-18.442-4.188-31.323-20.332-31.323-39.262 0-18.937 12.881-35.08 31.323-39.261a.353.353 0 00.274-.353.352.352 0 00-.274-.345 41.229 41.229 0 00-9.107-1.027c-22.6 0-40.987 18.387-40.987 40.987s18.387 40.986 40.987 40.986c3.043 0 6.103-.354 9.107-1.026a.358.358 0 00.274-.346.353.353 0 00-.274-.353z" fill="#FFF"/><path d="M64.265 116.077l-1.671 5.169c0 .008 0 .024.008.032h.031l4.401-3.201 4.401 3.201h.039c.008-.008.008-.024.008-.032l-1.679-5.169 4.393-3.2c.008-.008.008-.024.008-.04 0 0-.016-.016-.023-.016h-5.437l-1.679-5.169c-.008-.031-.047-.031-.055 0l-1.687 5.169h-5.429c-.016 0-.031.016-.031.016 0 .016 0 .032.016.04l4.386 3.2zM64.265 134.284l-1.671 5.169c0 .008 0 .023.008.031s.031.008.031.008l4.401-3.201 4.401 3.192.016.008s.008 0 .023-.008c.008-.008.008-.023.008-.031l-1.679-5.169 4.393-3.201c.008-.008.008-.016.008-.031 0 0-.016-.023-.023-.023h-5.437l-1.679-5.169c-.008-.031-.047-.031-.055 0l-1.687 5.169h-5.429c-.016 0-.031.016-.031.016 0 .023 0 .031.016.039l4.386 3.201zM64.265 152.491l-1.671 5.169c0 .008 0 .022.008.031.008.008.031.008.031.008l4.401-3.208 4.401 3.2.016.008s.008 0 .023-.008c.008-.009.008-.023.008-.031l-1.679-5.169 4.393-3.201c.008-.008.008-.023.008-.039 0 0-.016-.016-.023-.016h-5.437l-1.679-5.169c-.008-.032-.047-.032-.055 0l-1.687 5.169h-5.429c-.016 0-.031.016-.031.016 0 .016 0 .031.016.039l4.386 3.201zM64.265 170.697l-1.671 5.17s0 .021.008.031c.008.008.031.008.031.008l4.401-3.2 4.401 3.192.016.008s.008 0 .023-.008c.008-.01.008-.023.008-.023l-1.679-5.178 4.393-3.201c.008-.008.008-.016.008-.03 0-.008-.016-.022-.023-.022h-5.437l-1.679-5.168c-.008-.024-.047-.024-.055 0l-1.687 5.168h-5.429c-.016 0-.031.017-.031.017 0 .022 0 .03.016.039l4.386 3.197z" fill="#FFF"/></svg>