<svg xmlns="http://www.w3.org/2000/svg" viewBox="2.84 48.38 277.79 186.71"><path fill="#D6D4D1" d="M2.835 48.375h277.794v186.714H2.835z"/><path fill="#E4252A" d="M5.142 85.951h273.245v111.58H5.142z"/><path fill="#14509C" d="M5.142 202.081h273.245v30.742H5.142z"/><path fill="#FFF" d="M5.142 197.522h273.245v4.559H5.142zM5.142 81.4h273.245v4.558H5.142z"/><path fill="#14509C" d="M5.142 50.659h273.245v30.742H5.142z"/><path d="M141.753 141.741c0 21.995-17.839 39.85-39.843 39.85-21.995 0-39.842-17.854-39.842-39.85 0-21.987 17.847-39.85 39.842-39.85 22.004 0 39.843 17.861 39.843 39.85z" fill="#FFF"/><path d="M109.794 131.261l-7.491-23.071c-.102-.345-.675-.345-.776 0l-7.499 23.071H69.756c-.196 0-.337.148-.424.321-.023.125.024.345.173.447l19.658 14.276-7.546 23.142c-.023.182.031.354.165.425a.372.372 0 00.494 0l19.634-14.302 19.643 14.302c.087.055.173.055.275.055.039 0 .148 0 .227-.055.126-.071.165-.243.149-.425l-7.515-23.142 19.635-14.276c.148-.103.188-.322.172-.447-.094-.173-.228-.321-.424-.321h-24.278z" fill="#E4252A"/></svg>