<svg xmlns="http://www.w3.org/2000/svg" viewBox="2.84 48.38 277.79 186.71"><path fill="#D6D4D1" d="M2.835 48.375h277.794v186.714H2.835z"/><path fill="#FFF" d="M5.149 50.713h273.223v182.155H5.149z"/><path d="M103.15 116.033c-7.123 10.668-4.244 25.079 6.424 32.193 10.661 7.1 25.063 4.229 32.194-6.44 7.122-10.668 21.523-13.54 32.193-6.456 10.668 7.13 13.547 21.542 6.416 32.208-14.207 21.338-43.026 27.111-64.363 12.855-21.336-14.202-27.117-43.023-12.864-64.36" fill="#003577"/><path d="M109.574 148.227c10.661 7.1 25.063 4.229 32.194-6.44 7.122-10.668 21.523-13.54 32.193-6.456 10.322 6.918 13.343 20.655 7.074 31.189 13.383-21.203 7.469-49.35-13.517-63.36-21.337-14.246-50.165-8.464-64.371 12.873-.243.345-.439.674-.651 1.02-6.272 10.535-3.253 24.271 7.078 31.174z" fill="#C50F2F"/><path d="M54.742 111.899l6.417 4.299c.047.016.086.047.125.047h.031c.055-.031.11-.063.126-.118L87.21 77.509a.244.244 0 00.023-.149c-.008-.047-.055-.094-.07-.125l-6.456-4.299c-.078-.031-.212-.023-.267.063l-25.753 38.634c-.063.086-.055.219.055.266zM51.518 109.758c.039.023.063.039.118.039 0 0 .016-.008.039-.008a1.22 1.22 0 00.125-.078l25.746-38.649c.063-.079.023-.204-.055-.275l-6.448-4.275c-.032-.024-.086-.047-.142-.024-.047.016-.094.032-.133.071L45.03 105.184c-.063.11-.031.22.047.267l6.441 4.307zM90.371 79.384c-.094-.063-.211-.047-.274.063l-25.753 38.618c-.032.055-.04.102-.032.149a.32.32 0 00.071.125l6.456 4.307a.439.439 0 00.102.008c.071 0 .134-.008.165-.071l25.753-38.626c.048-.102.04-.235-.047-.282l-6.441-4.291z"/><g><path d="M232.01 173.807a.254.254 0 00-.156-.022c-.031.008-.086.056-.125.078l-11.782 17.721c-.071.078-.048.203.039.268l6.44 4.283c.031.029.078.047.102.047s.031-.008.047-.008a.227.227 0 00.127-.096l11.805-17.688c.057-.115.039-.22-.055-.268l-6.442-4.315zM216.769 189.716a.442.442 0 00.126.016h.023c.047-.008.107-.047.125-.086l11.807-17.705c.063-.086.047-.22-.063-.272l-6.427-4.291c-.104-.056-.22-.048-.267.069l-11.814 17.688c-.047.095-.037.196.049.274l6.441 4.307zM214.838 192.595l-6.439-4.291c-.031-.039-.086-.039-.148-.039-.03 0-.094.047-.125.087l-11.799 17.704c-.031.063-.039.096-.031.157a.438.438 0 00.078.118l6.448 4.307c.031.023.079.023.103.023a.19.19 0 00.164-.088l11.822-17.705c.047-.077.015-.21-.073-.273zM200.68 178.977l6.433 4.282c.048.023.063.048.11.048h.031c.063-.032.102-.056.133-.11l11.799-17.688c.07-.102.039-.204-.04-.273l-6.448-4.308a.463.463 0 00-.148-.008c-.039.008-.094.016-.125.071l-11.791 17.711c-.079.087-.048.22.046.275zM218.056 194.736a.17.17 0 00-.142-.021c-.063 0-.086.029-.125.076l-11.814 17.723c-.055.07-.008.204.063.273l6.457 4.274c.016.017.055.04.094.04.063 0 .125-.04.172-.095l11.8-17.688c.069-.117.03-.236-.056-.275l-6.449-4.307zM205.286 186.264c-.033-.022-.057-.086-.111-.126l-6.407-4.273c-.125-.063-.235-.023-.272.047l-11.83 17.705c-.022.047-.022.108-.022.155 0 .063.047.095.077.126l6.449 4.283a.146.146 0 00.117.055c.047 0 .108-.047.155-.103l11.798-17.704c.046-.04.053-.101.046-.165z"/></g><g><path d="M219.946 91.99l11.782 17.721c.039.023.094.063.125.078.022 0 .039.008.039.008a.165.165 0 00.118-.039l6.439-4.307c.094-.047.108-.157.055-.267L226.7 87.471c-.039-.023-.072-.063-.128-.07a.18.18 0 00-.147.039l-6.439 4.283c-.088.063-.111.181-.04.267zM217.79 88.782c.039.047.063.071.125.079h.055c.017 0 .057 0 .088-.031l6.447-4.299c.086-.039.125-.157.056-.274l-11.8-17.699c-.07-.086-.195-.11-.266-.047l-6.457 4.275a.17.17 0 00-.07.133.374.374 0 00.008.142l11.814 17.721zM212.422 122.575a.138.138 0 00.127.079h.039c.047 0 .07 0 .107-.008l6.448-4.307c.079-.071.108-.173.04-.274l-11.801-17.688a.186.186 0 00-.272-.071l-6.433 4.291c-.049.047-.088.063-.096.133-.008.055 0 .102.047.142l11.794 17.703zM198.491 101.655c.016.063.088.078.149.078.039 0 .077-.016.125-.016l6.409-4.291c.055-.031.078-.094.109-.118.008-.07 0-.125-.049-.165l-11.798-17.697a.182.182 0 00-.272-.063l-6.449 4.291c-.03.039-.077.063-.077.125 0 .047 0 .102.022.157l11.831 17.699zM222.096 116.127c.016.055.063.086.125.118h.031c.031 0 .068-.031.108-.047l6.427-4.299c.107-.047.125-.18.063-.267l-25.762-38.634c-.055-.086-.18-.094-.269-.063l-6.446 4.299c-.023.031-.063.079-.078.125a.201.201 0 00.031.149l25.77 38.619z"/></g><g><path d="M71.105 160.991c-.07-.071-.188-.118-.267-.063l-6.456 4.308a.577.577 0 00-.071.102.25.25 0 00.032.172l25.753 38.625c.039.056.118.103.149.103.055 0 .102-.021.125-.055l6.44-4.283c.087-.047.095-.173.047-.281l-25.752-38.628zM61.159 167.375l-6.417 4.291c-.047.048-.071.063-.102.127-.008.063 0 .109.047.148l11.806 17.703c.016.039.07.078.125.086h.024a.38.38 0 00.118-.016l6.448-4.309a.226.226 0 00.047-.272l-11.814-17.688c-.055-.117-.165-.125-.282-.07zM75.412 188.351a.21.21 0 00-.267-.048l-6.456 4.291c-.063.022-.071.071-.079.118 0 .07 0 .094.016.156l11.814 17.705c.039.063.102.086.172.086.016 0 .063 0 .094-.022l6.456-4.308c.016-.023.063-.07.07-.117a.28.28 0 00-.023-.157l-11.797-17.704zM51.8 173.863c-.063-.086-.188-.125-.282-.056l-6.433 4.313c-.055.009-.071.056-.079.125-.023.018 0 .088.023.143l25.738 38.618c.047.055.118.095.172.095.04 0 .086-.023.103-.04l6.448-4.274a.186.186 0 00.079-.133c0-.063 0-.119-.023-.143L51.8 173.863z"/></g></svg>