<svg xmlns="http://www.w3.org/2000/svg" viewBox="2.84 48.38 277.8 186.71"><path fill="#D6D4D1" d="M2.835 48.376H280.63v186.712H2.835z"/><path fill="#FCD11A" d="M229.108 50.761h-16.419L5.125 189.135v10.952zM54.388 232.917h16.419L278.363 94.541V83.597z"/><path fill="#009E49" d="M212.689 50.761H5.133l-.008 138.374z"/><path fill="#CD0E26" d="M278.363 94.541L70.807 232.917h207.564z"/><path d="M99.149 175.393l6.142-16.42c.095-.242-.228-.493-.439-.353l-14.621 9.681-13.736-10.928c-.103-.086-.251-.071-.384-.008-.071.063-.142.204-.103.33l4.691 16.929-14.678 9.694c-.102.088-.141.213-.102.313.039.143.141.229.282.229l17.549.737 4.674 16.929c.024.069.079.109.135.158.022.016.085.068.148.068.102.021.204-.063.275-.173l6.157-16.474 17.539.76c.127.01.244-.094.299-.172.023-.142.008-.291-.094-.385l-13.734-10.915zM203.072 106.362l6.143-16.418c.096-.243-.228-.494-.438-.353l-14.623 9.68-13.734-10.928c-.103-.086-.25-.07-.383-.008-.072.063-.144.204-.104.33l4.689 16.928-14.678 9.695c-.104.086-.142.212-.104.314.039.142.143.228.283.228l17.547.737 4.677 16.929c.022.07.077.11.133.156.024.016.087.071.149.071.103.023.203-.063.272-.173l6.158-16.473 17.54.761c.125.008.243-.094.298-.173.022-.141.011-.29-.094-.384l-13.731-10.919z" fill="#FFF"/><path d="M229.108 50.761L5.125 200.087v32.829h49.263l223.975-149.32V50.761h-49.255zM112.68 186.87l-17.539-.762-6.157 16.474c-.071.11-.174.196-.275.173-.063 0-.126-.055-.148-.07-.056-.047-.11-.087-.135-.156L83.752 185.6l-17.549-.737c-.141 0-.243-.086-.282-.229-.039-.102 0-.227.102-.313l14.678-9.695-4.691-16.929c-.04-.125.032-.268.103-.33.133-.063.282-.078.384.008l13.736 10.928 14.621-9.681c.212-.142.534.11.439.353l-6.142 16.419 13.735 10.92c.102.094.117.243.094.385-.056.077-.173.178-.3.171zm103.924-69.031l-17.54-.761-6.158 16.473c-.07.11-.172.197-.273.173-.063 0-.125-.055-.148-.071-.055-.046-.107-.086-.133-.156l-4.678-16.929-17.547-.737c-.142 0-.244-.086-.283-.228-.037-.102 0-.228.105-.314l14.678-9.695-4.69-16.928c-.04-.125.03-.267.103-.33.133-.063.281-.078.383.008l13.736 10.928 14.622-9.68c.212-.142.533.11.438.353l-6.143 16.418 13.734 10.919c.104.094.115.244.094.384-.057.079-.175.18-.3.173z"/></svg>