<svg xmlns="http://www.w3.org/2000/svg" viewBox="-25 -5 625 305"><clipPath id="a"><path d="M0 0h60v30H0z"/></clipPath><path d="M0 0h600v300H0z" fill="#00247d"/><g clip-path="url(#a)" transform="scale(5)"><path d="M0 0h60v30H0z" fill="#00247d"/><path d="M0 0l60 30M0 30L60 0" stroke="#fff" stroke-width="6"/><path d="M0 0l60 30M0 30L60 0" stroke="#cf142b" stroke-width="4"/><path d="M0 0h5l30 15L65 0h-5L30 15M-5 30l30-15 30 15h5L30 15 0 30" fill="#fff"/><path d="M0 15h60M30 0v30" stroke="#fff" stroke-width="10"/><path d="M0 15h60M30 0v30" stroke="#cf142b" stroke-width="6"/></g><path d="M525 150c0 41.421-33.579 75-75 75s-75-33.579-75-75 33.579-75 75-75 75 33.579 75 75z" fill="#fff"/><path d="M399.85 198.421c.982 2.62 8.023 6.06 16.21 1.638 5.568-3.111 9.171-7.533 12.61-15.393.982-1.965 1.474-4.421-.819-5.895-1.801-1.31-4.749-2.784-6.059-4.094-.655-.655-1.31-1.146-1.801-1.638.327.328.655.655.982 1.147 3.276 3.93-.163 9.661-3.766 13.1-2.62 2.456-7.369 8.515-14.247 2.784-1.473-1.31-4.912 4.094-3.11 8.351zM499.412 198.421c-1.146 2.62-8.188 6.06-16.212 1.638-5.567-3.111-9.17-7.533-12.773-15.393-.818-1.965-1.31-4.421.983-5.895 1.801-1.31 4.749-2.784 6.059-4.094.655-.655 1.146-1.146 1.801-1.638-.327.328-.655.655-.982 1.147-3.275 3.93.163 9.661 3.602 13.1 2.62 2.456 7.533 8.515 14.41 2.784 1.475-1.31 4.75 4.094 3.112 8.351z" fill="#fcea83" stroke="#000" stroke-width=".49116199"/><path d="M449.63 212.504c13.1 0 33.243-5.895 44.05-26.528 1.802-3.439 0-5.24-2.128-6.386-2.293-.983-5.077-3.275-6.55-4.75 2.62 2.62 2.128 4.422.327 7.37-8.351 13.919-19.814 20.96-35.698 20.96s-27.348-7.041-35.699-20.96c-1.801-2.948-2.293-4.75.164-7.37-1.31 1.475-4.258 3.767-6.55 4.75-2.13 1.146-3.93 2.947-2.13 6.386 10.809 20.633 31.114 26.528 44.215 26.528z" fill="#fcea83" stroke="#000" stroke-width=".49116199"/><g fill="#db161c" stroke="#000" stroke-width="3"><path d="M419.336 184.83c-.328-1.638-2.456-.983-3.111.982-.82-1.146-1.638-2.292-2.293-3.602-1.965-2.948-2.293-4.913.491-7.697 1.31-1.31 3.93-2.784 5.732-1.146 3.766 3.111 1.801 8.188-.82 11.463zM479.761 184.83c.328-1.638 2.62-.983 3.276.982.818-1.146 1.637-2.292 2.292-3.602 1.965-2.948 2.293-4.913-.655-7.697-1.146-1.31-3.766-2.784-5.731-1.146-3.603 3.111-1.802 8.188.818 11.463zM399.85 198.421c-1.638-2.456-2.949-8.842-3.276-10.48-.491-1.474-.655-2.784 1.146-3.439s3.44 1.638 4.258 3.603 2.129 4.913 3.602 8.515c-3.602-2.129-6.55-.655-5.73 1.801zM499.412 198.421c1.474-2.456 2.784-8.842 3.275-10.48.328-1.474.655-2.784-1.146-3.439s-3.439 1.638-4.258 3.603-2.129 4.913-3.602 8.515c3.602-2.129 6.386-.655 5.731 1.801z" stroke-width=".49125"/></g><path d="M480.253 124.404v31.932c0 27.675-13.1 37.173-30.622 44.706-17.522-7.533-30.786-17.031-30.786-44.706v-31.932z" fill="#fff"/><path d="M449.63 151.424c1.474 0 3.767-1.31 5.732-3.275 2.129-2.293 5.731-3.112 9.498 0 3.766 3.111 6.059 1.801 8.024 0 1.965-1.802 3.602-2.457 7.369-2.457v-21.288h-61.408v21.288c3.766 0 5.404.655 7.369 2.457 1.965 1.801 4.257 3.111 8.024 0 3.93-3.112 7.369-2.293 9.661 0 1.801 1.965 4.094 3.275 5.732 3.275z" fill="#cf142b"/><g fill="#0b50a0"><path d="M449.63 167.8c1.966 0 5.896-2.13 6.878-2.62 3.603-2.13 6.223-.165 8.352.818 2.292.982 6.55 2.129 9.17 0s4.094-1.965 5.895-1.965c.328-2.456.328-4.913.328-7.697v-1.965c-2.293-.49-3.44.164-5.895 2.293s-5.24 1.637-8.843.327c-3.44-1.473-6.878-4.093-10.317 0-.982 1.147-3.275 2.784-5.567 2.784-2.457 0-4.586-1.637-5.568-2.784-3.603-4.093-6.878-1.473-10.317 0-3.602 1.31-6.55 1.802-9.006-.327-2.293-2.129-3.439-2.784-5.895-2.293v1.965c0 2.784.163 5.24.49 7.697 1.802 0 3.112-.164 5.732 1.965s7.042.982 9.17 0c2.293-.983 4.913-2.948 8.516-.819.982.491 4.749 2.62 6.878 2.62zM449.63 174.84c2.457 0 5.404-.982 8.025-2.456 3.275-1.8 5.567-.982 8.842.655 3.44 1.638 6.223 1.147 8.188 0 .983-.655 1.801-1.965 3.93-1.473-.982 4.094-2.456 7.696-4.257 10.644-3.276.818-5.077.818-8.516-.655-3.439-1.638-7.696-2.62-9.989-1.147-2.129 1.31-4.421 1.965-6.222 1.965s-4.094-.655-6.223-1.965c-2.293-1.473-6.55-.49-9.99 1.147-3.438 1.473-5.24 1.473-8.514.655-1.802-2.948-3.276-6.55-4.258-10.644 2.129-.492 2.948.818 3.93 1.473 1.801 1.147 4.749 1.638 8.024 0 3.439-1.637 5.731-2.456 9.007-.655 2.62 1.474 5.567 2.457 8.024 2.457zM449.63 201.042c6.55-2.784 12.61-5.896 17.522-10.153-1.31-.492-2.128-.164-3.275-.983s-4.585-1.146-7.532.491c-3.112 1.474-4.422 1.802-6.714 1.802s-3.603-.328-6.714-1.802c-2.948-1.637-6.387-1.31-7.533-.49s-1.965.49-3.275.982c4.912 4.257 10.808 7.369 17.522 10.153z"/></g><g fill="#fff" stroke="#000" stroke-width="3"><path d="M437.021 124.24c-2.128.492-3.602.655-5.567-1.146-1.31-1.31-.983-3.602.327-4.421 1.474-.983 2.784-1.638 4.585-1.146s6.55 4.912 5.404 5.076c-1.146 0-2.947 1.146-4.749 1.637zM442.098 116.38c.655-.491 1.474-.819 3.602-.982 1.966-.164 3.44-.164 3.93 1.31.656 1.801 1.147 3.93 2.457 4.912-.819.492-4.913.983-6.387.164-1.965-.982-2.456-4.749-3.602-5.404zM456.18 116.544c.656-.491 1.475-.491 3.603-.328s2.948.328 3.44 1.802c.49 1.637 0 3.766.982 5.24-.983.327-4.258.327-5.404-.819-1.801-1.31-1.638-5.076-2.62-5.895z" stroke-width=".49125"/></g><g fill="#073163" stroke="#000" stroke-width="3"><path d="M466.006 117.527c-1.474-.328-2.456-.492-3.111 0 .818.982.163 4.912 1.801 6.222 1.146.819 4.094.983 4.749-.819.819-1.637.819-4.093-3.439-5.403zM449.14 115.889c.49-.491 1.473-.655 3.438-.655 2.129 0 3.439.327 4.094 1.637.655 1.638.491 3.767 1.638 5.077-.492.655-4.913.655-6.223-.328-1.801-1.146-1.965-4.912-2.948-5.731zM435.22 117.363c0-.819 1.146-.983 4.094-1.147 2.948-.327 3.111-.163 4.094 1.966.491 1.146 1.146 3.11 2.456 3.766-3.602.819-4.749 1.31-6.714.164-1.474-.82-3.111-2.784-3.439-3.603-.163-.491-.163-.982-.49-1.146z" stroke-width=".49125"/></g><g stroke="#000" stroke-width="1.35"><g fill="#f9d050"><path d="M443.08 100.66c-3.438-2.62-7.532-5.077-11.299-5.568 2.457 1.474 9.334 6.878 11.136 8.68" stroke-width=".22106250000000002"/><path d="M445.045 98.203c-4.093-2.783-8.842-5.895-13.427-6.222 3.438 1.801 8.515 6.059 11.299 9.498M450.286 93.618c2.292-5.076 4.748-7.86 8.024-10.971-1.638 3.439-3.44 10.48-4.258 13.264" stroke-width=".22106250000000002"/><path d="M453.888 92.8c1.638-3.603 4.094-6.714 8.352-8.68-2.13 2.13-5.404 8.516-6.223 11.955" stroke-width=".22106250000000002"/><path d="M455.362 96.075c1.965-2.784 5.895-8.024 12.937-10.808-4.094 4.094-10.153 11.626-11.627 14.574M457.655 99.677c2.947-1.637 8.842-4.257 13.1-3.439-2.62.983-10.48 4.586-13.92 7.86" stroke-width=".22106250000000002"/><path d="M457 98.53c2.783-2.947 7.86-7.368 13.264-9.17-3.93 3.767-12.282 12.282-13.428 13.592M449.14 96.73c-1.966-6.06-4.913-11.79-9.335-13.592 2.457 3.603 5.568 8.843 7.205 16.703M445.373 96.566c-3.275-3.93-7.697-7.86-12.773-8.68 3.439 1.966 9.17 7.697 11.3 13.265" stroke-width=".22106250000000002"/><path d="M447.174 96.402c-4.094-7.369-7.205-8.679-9.006-10.153 1.474 2.784 5.076 10.153 7.205 13.264" stroke-width=".22106250000000002"/></g><g fill="none"><path d="M438.986 95.91c1.966 1.147 4.913 3.931 5.896 5.732M438.986 99.35c.983.818 2.784 1.801 4.422 3.275M458.473 101.806c1.638-1.31 5.24-3.439 7.042-4.094M457.327 100.66c1.638-2.13 4.913-5.077 6.059-6.06M461.912 90.507c-1.474 1.638-4.912 5.731-6.223 7.696M457.655 89.033c-1.147 1.474-3.44 5.732-4.094 7.205M444.718 89.36c.982 2.62 2.784 7.042 3.439 8.843M443.244 92.145c.655.982 1.965 3.275 2.456 4.912" stroke-width=".22106250000000002"/></g></g><g stroke="#000" stroke-width="1.35"><g fill="#f9d050"><path d="M448.812 91.326c0-1.474.982-3.112 1.965-3.112 1.146 0 1.965 1.965 1.965 3.112 0 1.31-.983 2.456-1.965 2.456s-1.965-.982-1.965-2.456z" stroke-width=".22106250000000002"/><path d="M446.683 92.636c.164-1.638 1.31-2.948 2.293-2.784s1.473 2.129 1.31 3.275c-.164 1.31-1.31 2.293-2.13 2.129-.818 0-1.637-1.146-1.473-2.62zM451.104 93.127c-.327-1.474.328-3.111 1.31-3.275s1.965 1.474 2.13 2.784c.327 1.31-.492 2.62-1.31 2.62-.82.164-1.966-.655-2.13-2.129z" stroke-width=".22106250000000002"/><path d="M448.648 94.437c0-1.637.983-3.111 1.965-3.111 1.146 0 1.965 1.801 1.965 3.111s-.982 2.456-1.965 2.456-1.965-.982-1.965-2.456z" stroke-width=".22106250000000002"/><path d="M445.7 95.256c0-1.474 1.147-3.111 2.13-3.111s1.964 1.965 1.964 3.11c0 1.31-1.146 2.457-1.965 2.457-.982 0-2.129-.982-2.129-2.456zM451.76 94.6c0-1.473.982-3.11 1.964-3.11 1.147 0 1.965 1.965 1.965 3.11 0 1.31-.982 2.457-1.965 2.457s-1.965-.982-1.965-2.456z" stroke-width=".22106250000000002"/><path d="M451.104 95.91c0-1.637 1.147-3.11 2.13-3.11s1.964 1.8 1.964 3.11-.982 2.457-1.965 2.457-2.129-.982-2.129-2.456z" stroke-width=".22106250000000002"/><path d="M448.484 97.385c0-1.638.983-3.112 1.965-3.112 1.147 0 1.965 1.965 1.965 3.112 0 1.31-.982 2.456-1.965 2.456s-1.965-.983-1.965-2.456zM444.39 97.385c0-1.638.82-3.112 1.638-3.112s1.474 1.965 1.474 3.112c0 1.31-.819 2.456-1.474 2.456-.819 0-1.638-.983-1.638-2.456zM453.56 97.057c0-1.474.82-2.947 1.638-2.947s1.638 1.8 1.638 2.947c0 1.474-.983 2.456-1.638 2.456-.819 0-1.637-.982-1.637-2.456z" stroke-width=".22106250000000002"/><path d="M454.543 99.841c.328-1.638 1.31-2.948 1.965-2.784s.819 2.129.492 3.275c-.164 1.474-1.147 2.293-1.802 2.13s-.982-1.311-.655-2.621z" stroke-width=".22106250000000002"/><path d="M451.432 99.35c.164-1.474 1.146-2.948 1.965-2.784.982 0 1.474 1.965 1.31 3.111-.164 1.474-.983 2.457-1.801 2.293-.82 0-1.638-1.146-1.474-2.62zM446.847 99.841c-.492-1.638-1.474-2.784-2.13-2.62s-.818 2.129-.49 3.275c.327 1.31 1.31 2.129 1.965 1.965.491-.164.982-1.31.655-2.62z" stroke-width=".22106250000000002"/><path d="M445.7 99.513c0-1.473.82-2.947 1.638-2.947.983 0 1.638 1.801 1.638 2.947 0 1.474-.82 2.457-1.638 2.457-.655 0-1.638-.983-1.638-2.457z" stroke-width=".22106250000000002"/><path d="M448.157 100.168c0-1.637.982-3.11 1.965-3.11 1.146 0 1.965 1.8 1.965 3.11s-.983 2.457-1.965 2.457-1.965-.983-1.965-2.457z" stroke-width=".22106250000000002"/></g><path d="M448.976 82.155c-.328 1.31-1.474 2.457-.655 4.258-1.474-.491-2.784-.655-3.93.655 1.473-.164 2.783.328 3.438 1.31-1.31-.164-1.965.491-2.292 1.31 1.146-.327 2.292-.655 2.784-.491-.492.491-1.31 1.31-1.474 1.965.982-.819 2.129-.655 2.784-1.146-.492 1.146.49 2.292 1.31 3.439-.164-1.638.818-2.784.327-3.603 1.474.327 1.638 1.637 3.766 1.637-.818-.49-1.31-2.128-2.292-2.128.491-.164 2.456-.328 2.784 0-.328-.655-1.474-1.31-2.13-1.31.656-.655 1.802-1.965 2.621-2.293-1.146.164-2.948.328-3.603 1.31 1.638-1.31 1.31-3.766 3.112-4.094-.983-.164-2.457.491-3.603 1.638.491-.983.491-2.293 1.146-2.62-1.31.327-2.783 1.965-3.275 2.784 0-.82-.49-2.13-.818-2.62z" fill="#f9d050" stroke-width=".22106250000000002"/><g fill="none"><path d="M449.794 84.776c0 .49 0 1.473-.163 1.8M451.923 84.612c-.327.327-.982 1.474-.982 2.456M452.906 86.577c-.492.327-.983.819-1.147 1.474" stroke-width=".22106250000000002"/></g></g><g stroke="#000" stroke-width="3"><path d="M435.548 102.789c-1.147 0-2.13-.492-2.784-1.31-1.146-1.474-4.258-2.13-5.568-.82-.491.328-1.146.328-1.637.492-.82 0-1.802.819-1.474 2.456.655-.49.819 0 1.31 0 .327-.163.164.164.164.492 0 .818 1.8 2.456 3.438 2.292 1.802 0 2.62.655 2.948.983.491.491.164.327.491 1.146.492.491.655.655-.163 1.31-1.147.983-1.966 3.275 0 5.076 2.128 1.638 7.532 4.094 13.591-.655 5.895-4.585 15.066-1.965 15.72-.327.82 1.637 1.147 2.62 1.31 3.439.164.655.983 1.31 2.13 1.146 1.146 0 2.456.491 3.11.983.82.49 1.966.327 1.638-1.147-.655-4.585-3.438-5.24-3.766-7.369 1.638.164 2.784.164 3.439-.49.491-.656 1.146-1.802 1.801-2.13.491-.327.491-.655-.164-.491-.818.164-1.31.491-2.783.327-7.533-.818-28.657-6.55-32.751-5.403z" fill="#059334" stroke-width=".49125"/><path d="M468.954 108.356c-.82.492-1.638 1.31-3.112 3.275-1.637 2.13-6.55 4.258-12.609 4.258-5.895 0-9.498-.983-12.118-3.111-1.473-1.147-2.62-1.802-3.602-2.293-1.802-.819-2.13-2.62-1.638-4.094-.491.819-.819 1.638-1.801 1.474-.655 0-1.965 0-1.638.655-.163-.328-.163-.819-.327-.983l-.328-.327c.492.327 1.638-.655 2.457-.655.655.164 1.473-.655 1.31-1.638-.164-.818-.328-1.473-.492-2.128 1.31-.655 18.505 2.456 21.944 2.783 3.438.164 13.264 1.638 11.954 2.784z" stroke-width=".49125"/><path d="M437.84 102.134c1.638-1.638 3.603-2.457 5.568-1.966h.491c.983-.818 3.275-.982 4.585-.327h.655c1.965-.655 5.732 0 7.042 1.31l.491.328c4.421-.328 7.041 1.637 10.153 4.748.327.328.819.983 1.637 1.147.983.163 1.147.655.328 1.146-.983.491-1.801 1.31-3.439 3.111-1.474 1.965-6.223 3.93-12.118 3.93-5.731 0-9.17-.982-11.79-2.947-1.474-1.146-2.62-1.801-3.439-2.293-.983-.327-2.293-1.637-1.801-2.947.327-1.31-.492-2.948-1.147-4.585.492-.328 1.802-.82 2.457-.492z" fill="#059334" stroke-width=".49125"/><g fill="#00493d"><path d="M466.825 106.227c-3.112-3.11-5.732-5.076-10.153-4.748 0 .163 0 .655-.164.982 2.62.983 6.387 3.93 8.024 6.059.655-.655 1.802-1.474 2.293-2.293zM456.18 101.151c-1.31-1.31-5.076-1.965-7.04-1.31 0 .655 0 1.638-.328 2.293 1.146.49 2.129 1.637 3.111 2.783.655-.163 2.293-.655 3.111-.818.328-.655.983-2.13 1.147-2.948zM448.484 99.841c-1.31-.655-3.602-.491-4.585.327-.327.656-.491 1.966-.491 2.62.655 0 1.637.492 1.965.82.982-.328 2.293-.983 2.784-1.474.164-.655.491-1.638.327-2.293zM437.84 102.134c1.638-1.638 3.603-2.457 5.568-1.966-.328.492-.491 1.474-.491 2.457-1.802-.164-4.094.327-5.077.982v-1.473z" stroke-width=".49125"/><path d="M463.877 108.848c-1.474-2.13-5.076-4.586-7.532-5.732 0 .164-.328.819-.492 1.31.983 1.474 2.948 4.749 3.767 6.55.818-.327 3.111-1.31 4.257-2.128zM451.432 112.45c.327-2.292.491-5.568.491-6.714.819-.164 2.456-.655 3.111-.819.82 1.31 2.784 4.75 3.603 6.387-1.965.491-5.24 1.31-7.205 1.146zM445.7 104.59c.82-.328 1.966-.983 2.784-1.638.655.492 1.965 1.638 2.457 2.293 0 1.474-.492 5.731-.655 7.205-1.31 0-3.44-.327-4.586-.982.164-2.457.328-5.24 0-6.878zM437.513 106.555c.163-.328.327-1.474.327-1.965 1.31-.819 4.585-1.638 7.042-.328.163 1.638 0 5.732-.164 6.714-2.129-1.637-5.568-3.93-7.205-4.421z" stroke-width=".49125"/></g></g><path d="M429.325 103.607c-.328 0-.491-.982-1.146-.982-.164 0-.655.164-.82 0 0 .327.165.655.328.819.164.49.983.163 1.638.163z"/><g fill="none" stroke="#000" stroke-width="3"><path d="M429.325 106.391c1.965 0 2.293-2.456 3.275-2.62M430.471 106.555c1.474.655 2.62-2.784 3.767-2.62M427.524 102.297c.49 0 .818-.655 1.637.164.328.328.819.491 1.146.491M429.98 104.754c-.655.982-1.801 1.637-2.456 1.31M427.196 100.66c-.491.327-.819.982-1.146 1.474M425.559 103.116v.819" stroke-width=".49125"/></g><g stroke="#000" stroke-width="3"><path d="M445.373 132.428c.164.328-.164 1.146 0 1.474.327.655.327.983.819 1.31h1.146c3.603 0 7.86-1.474 11.463-1.474 3.439 0 5.568 1.147 7.533 1.147 1.146 0 2.128-.82 2.128-1.638s-1.31-1.31-4.093-1.31c-3.93 0-6.06.982-9.335.982-4.912 0-5.73-1.8-5.73-2.62s.818-1.965 3.438-1.965c.819 0 1.474-.163 1.801-.49.164-.328.655-.983 1.638-1.475 1.146-.655 3.439 0 4.585-.818 0 .655-.983 1.637-1.801 1.965 1.637-.492 3.438-.492 3.766.818-.819-.49-2.129-.163-2.62 0-.655.164-.983.328-1.638.492.655-.164.983 1.146 1.965 1.146-.982.819-2.62.819-4.257.164-.492-.164-1.802-.655-2.62-.655-1.638 0-2.62.327-2.62.982 0 .819.982 1.31 3.93 1.31s4.585-.819 9.006-.819c-.327-.49.164-.982-.491-1.473 1.638 0 3.439.49 4.094 1.637-.164-1.146.819-2.129.491-3.111.983.164 1.801 1.146 1.965 1.965 0-.491.655-.491.655-.983.983.492 1.474 1.638 1.31 2.62.492-.818.983-.49 1.31-1.473.328.655.164 2.62-.982 3.275.982-.655 2.456-.655 3.439.491-.983-.164-1.474.328-1.965.491-1.966 1.147-5.24 1.802-7.697 1.638-2.62-.164-2.948-.655-4.585-.655.982.164 2.948 2.129 4.749 2.129 1.146 0 1.965 0 2.456-.164s1.31 0 1.965.327c.491.492 1.474.983 2.129.82-.164.654-.491.982-.983 1.145.82.492.328.82 1.147 1.474-.328 0-.655.328-1.147.164.492.491.492 1.146.983 1.474-.164 0-.655.164-.983 0 .492.655 0 1.474.492 1.801.491.655-.492 1.474-1.31.819.163.491-.328.982-.82.819s-.818-.655-.654-.82c0-.163 0-.163.164-.327-.328.492-.983.492-1.31.328-.164-.164-.328-.328-.328-.491-1.146.327-1.637-.655-1.474-1.147s1.147-.655 1.474-.491.655.328.983 0a.9.9 0 00.49-.819c0-.491-.49-1.965-2.62-1.801-2.455.164-6.386-.491-8.35-1.146-.164-.164-.328-.164-.492-.328 0 .655-.655.983-.655 1.638 0 .818.328 1.474 1.31 1.801-.491.819-1.31.655-1.637.164 0 .491-.655.819-.655 1.474-.164-.328-.328-.492-.492-.82-.491 1.147-1.801 1.802-2.456 1.475-.819.655-1.801.49-2.129-.164-.491.327-1.146.327-1.474 0 0 .491-.327.327-.49.982 0 .328-.656.492-.983.328s-.492-.819-.164-1.146c-.491.327-.983.327-1.31 0 0-.328 0-.82.327-.983h.328c-.328-.164-.819 0-1.147-.164-.327-.327-.327-.655-.163-.982.163-.164.655-.491.982-.164l.164.164c0-.328.164-.655.328-.655.327-.164.818-.164 1.31.327.327.492.655.492 1.637.328.819 0 2.129-.819 3.111-1.638-2.783-.491-1.146-2.292-.327-2.947-.655-.164-1.638-.164-2.293.163-3.438 1.802-7.041 3.93-9.334 3.275 0 .328.164.656.328.983-.491 0-1.474 0-1.801-.491-.164.327-.492 1.146-.164 1.801-.328-.327-1.31-.655-1.802-.819.328.328 0 .983.164 1.474-.491-.491-1.31-.819-1.637-.491s-.983.491-1.474.327a2.547 2.547 0 01-1.31.983c0-.328 0-.819-.164-.983-.164.492-.655 1.147-1.31 1.474 0-.327 0-.819-.164-1.146 0 .655-1.31.982-1.473 1.474.163-.492.163-.983.163-1.31-.327.49-.819.982-1.637 1.146.163-.328.327-.655.163-.983-.163.655-1.146.983-1.965.82 0 .327-.655.818-1.473.327-.492-.164-.82-.655-.492-.983-.655 0-1.31-.655-.982-1.146 0-.164.164-.328.164-.491-.492-.328-.655-.983-.164-1.474.164-.164.655-.164.982-.164 0-1.31 1.147-1.31 1.638-.328.327.492 1.31 1.31 2.129 1.147.327 0 .491-.164.818-.164.983-.327 2.948-1.146 4.094-2.129.164-.491.164-.819.164-1.146-.655.327-1.31.655-1.637 1.146v-.491c-.492 0-1.31-.164-1.638-.164.164-.164.328-.982.655-1.146-.819.164-1.638 0-2.293-.164.328-.327.328-.819.492-1.31-.328.164-1.147-.164-1.802 0 .164-.491.328-1.146.82-1.31-.656.164-1.475 0-2.293-.327.655 0 .982-.82 1.473-.82-1.31 0-1.637-.654-2.292-.982.491.164.819-.327 1.31-.327-.491-.164-1.31-.983-.983-1.474-.163.164-.327.491-.655.655s-.982 0-1.473-.491c-.328-.655-.164-1.474.49-1.638a.784.784 0 01-.49-1.31c.163-.327.818-.819 1.146-.327.164.163.327.49.491.655-.164-.328-.164-.983-.164-1.474.164-.491.492-.491.983-.655.491 0 .819.491.819.982s.163.82.327 1.474c0-.164.164-.491.164-.655 0-.655.819-.491 1.31-.327s.655 1.146 0 1.637c-.328.328-.164.819.164 1.146 1.146 1.802 3.111 3.276 4.749 3.44 0-.656.327-1.31.818-1.802 0-.328.164-.819.328-1.146.164-.983.655-1.474 1.31-1.147-.164-.163-.328-.327-.328-.49-.49-.492-.982-1.31-.655-1.966s1.31-.491 1.638-.164c-.164-.982.982-1.801.982-2.292.164.491.492 1.146.328 1.637.164-.655 1.31-1.473 2.129-1.801-.328.491.655 1.31.491 1.801.328-.818 1.638-1.31 2.62-1.31-.327.328-.327.983-.327 1.31.49 0 1.31-.163 1.637-.655 0 .655-.327 1.31-.655 1.638.164-.164.819-.164 1.31-.164-.491.491-.327.983-.819 1.31.655-.327 1.474-.327 1.638.328.327.49-.164 1.31-.491 1.8-.328.165-.655.492-.82.492z" fill="#f9d050" stroke-width=".49125"/><g fill="none"><path d="M435.22 134.393c-1.146.492-1.474 1.638-1.637 2.293M435.056 135.54c-1.637.982-2.292 1.8-1.965 3.602M435.875 140.452c.983-.327 1.638-.655 2.456-2.129" stroke-width=".49125"/><path d="M437.84 138.978c-.327.655 0 1.802-.491 2.293.819-.491 1.474-1.146 1.637-2.293" stroke-width=".49125"/><path d="M438.168 140.78c.655-.328 1.637-1.31 2.129-2.457-.164.492 0 1.31-.328 1.802.819-.82 1.146-1.31 1.31-2.13 0 .165.164.492.164.656.327-.328.655-.655.655-1.31M442.098 137.832v.819c.655-.491.819-1.146.819-1.965M442.753 137.668c.982-.655 1.146-1.637 1.146-3.111M443.9 136.195c.654-.492.818-.82.818-2.293M442.59 129.48c-.328 0-.656.164-.656.656 0 .327-.491.818-.491 1.31-.164.655-.491.818-.983.655-.491-.328-.491-.328-.491-.82 0-.654.819-.818.819-1.473.164-.327.327-.819.491-.819-.819.492-1.965.164-2.129-.818" stroke-width=".49125"/><path d="M444.063 129.972c-.328.164-.655-.328-1.146-.164-.164 0-.655.164-.82 0" stroke-width=".49125"/><path d="M441.77 130.79c.164.164.983.492 1.802.164-.655.164-1.147-.655-.492-1.146M440.297 129.153c-.655 0-1.147.491-.983.983s.819.49 1.31.163M439.15 137.34c.164-.163.328-.49.328-.654.327 0 .655-.164.819-.328.655 0 1.146-.49 1.31-.982.327 0 .49-.819.655-1.146.163.163.49 0 .655-.656.327.164.818 0 .982-.49M437.185 131.937c0 .164-.327.491-.655.655.164.327 0 1.146-.327 1.31.163.328 0 .819-.164 1.146 0 .164.164.655.164.82M437.84 128.662c-.327.819-.164 1.801.491 1.965" stroke-width=".49125"/><path d="M438.168 131.282c-.164.819-.164 1.965-.328 2.456-.164.328-.491 1.474.819 1.802 1.474.327 2.293.163 3.111-2.293M444.227 139.633c0 .164-.164.492-.492.492M445.373 139.306c0 .327-.328.819-.491.982M446.52 138.978c0 .328 0 .82-.328.983M436.53 128.826c.164 0 .328.327.491.655-.49-.328-.982.49-.655.982M436.039 131.61c-.164.163-.491.327-.655.49M435.548 133.083c-.164 0-.328.164-.492.164M427.687 130.136c0-.164 0-.164.164-.328M426.214 129.644c-.164 0-.164 0-.328-.163M426.377 131.937h.328M425.722 130.954c-.327-.327-.818-.49-.982-.49M434.729 137.013c-1.146.983-1.638 1.802-1.801 2.948M435.875 137.832a3.866 3.866 0 01-1.31 1.474M429.489 142.745c-1.31.327-2.293.164-3.275-.491-.164-.164-.328-.164-.492-.328M434.401 140.452c-.163.655-.327 1.474-.655 1.638 1.31-.655 2.457-1.638 2.62-3.112M424.904 143.564c.49-.164.982.163 1.31-.164M453.397 138.16c.327.163.819.327.982.49.164-.327.82-.818 1.31-.982M441.77 141.598c-.163-.655.164-1.473 1.147-1.8M435.384 144.382c.164-.327.164-.818.327-1.146M428.179 144.874c-.164.327-.492.655-.492.982M425.722 145.201s0-.164.164-.164c.328-.163.819-.49.983-.818M447.993 142.909c-.327.163-.491 0-.655-.164M447.83 143.727s-.164.164-.328.164M448.648 144.546c-.164.164-.327.328-.491.328M453.397 144.874c.327-.164.491-.492.655-1.147M451.268 144.71c.491-.164.819-.491 1.31-.983M455.853 143.4c0-.328 0-.655.164-.983M467.971 144.874c-.327-.328-.327-.82.164-1.147.327-.163.491-.327.819-.491M457.982 139.142c-2.62-1.146-2.456-2.62-4.585-2.456M469.609 144.219c.163.163 0 .655 0 .818M471.082 144.219c-.163.49-.163.655-.163 1.146M458.473 128.826h-1.31M444.718 134.393c0 .328.491.983 1.801.983-.164 0-.327-.164-.327-.164" stroke-width=".49125"/><path d="M445.373 132.428c-.164.164-.328 0-.328 0-.327-.327.164-.982.655-1.31-.49.164-.818.164-1.146.164-.327.982-1.31 1.474-1.965.819-.164.655-.982 1.473-1.637 1.31-.655-.328-.82-.819-.655-1.31-.82.982-1.802.327-2.13 0-.163-.328 0-1.147.328-2.13" stroke-width=".49125"/></g></g><path d="M455.853 138.65c-.491.328-.982 0-1.474.492-.327.328.164.491.492.491-.164.492-.164.655.655.655-.328.492.655.655.491 1.31.491-.49.491-1.146.328-1.637s-.983-.819-.492-1.31z"/><g fill="#073163"><path d="M440.952 133.41c-.655-.327-.82-.818-.655-1.31a.9.9 0 01-.82.492c-.654 1.474-1.473 2.784-2.456 2.784-1.146.164-.982 1.31-.163 1.31 1.801.327 2.62-.328 4.094-3.275zM424.74 129.48c.491-.49.164-.982-.164-1.146-.491-.163-1.474 0-1.965.82.491-.165.983-.165 1.146.163s.492.655.983.164zM425.559 126.533c1.146 0 1.473.164 1.637.655.164.328-.164.819-.491.819-.491 0-.983-.328-.819-.491.164-.328.164-.82-.327-.983zM428.834 129.153c.818.164 1.146-.327.655-.982-.164-.492-.655-.82-1.474-.655.819.49 0 1.31.819 1.637zM422.775 131.937c.491.819 1.31.819 1.637.655.492-.164.655-.655.492-.983-.328-.49-.82-.655-.983 0-.327.655-.819.492-1.146.328zM425.231 141.926c-.327-.655-1.31-.655-2.129 0 .328-.164.983 0 1.147.328s.49.327.655.327c.163-.164.49-.327.327-.655zM426.541 140.943c0-.818-1.146-.982-1.801-.655.327 0 .819.328.819.655.163.328.49.492.655.492.327-.164.49-.328.327-.492zM424.904 143.891c-.983-.164-1.474.983-1.474 1.801.164-.49.655-.818 1.146-.655.491 0 .655-.163.655-.49.164-.328 0-.492-.327-.656zM425.067 146.675c.328.164.655-.164.82-.655 0-.328.654-.328.818-.164.327.164.327.819-.164 1.146-.327.164-1.146.328-1.474-.327zM447.83 141.762c-.328-.164-1.147-.491-1.802 0 .491-.164.819.164.982.492 0 .327.492.49.656.163.163-.163.327-.491.163-.655zM446.355 142.909c-.655-.328-1.473.49-1.637 1.146.164-.164.819-.491 1.146-.491.328.163.655 0 .655-.328.164-.164.164-.327-.164-.327zM447.174 144.219c-.491 0-1.146.655-1.146 1.31.164-.328.491-.492.819-.328.327 0 .819-.164.819-.491s-.164-.491-.492-.491zM448.648 145.529c-.327-.164-.819 0-.819.49s0 .983-.163 1.147c.327-.327.655-.491.982-.655.164-.164.328-.655 0-.982zM467.152 144.055c-.327-.328-.818-.164-.982.164s-.328 1.146 0 1.8c0-.327.327-.818.655-.818.491-.164.655-.819.327-1.146zM468.135 144.71c-.655.327-.655 1.474-.164 2.129 0-.328.164-.82.491-.983.492 0 .655-.655.492-.982-.328-.328-.655-.164-.82-.164zM470.1 145.365c-.328-.164-.655.164-.655.491-.164.491.164 1.146.655 1.474 0-.328.164-.655.327-.819.492-.327.328-.982-.327-1.146zM471.574 145.201c-.328 0-.655.491-.328.983.164.327.491.49 1.147.327-.164 0-.492-.491-.328-.655.164-.327 0-.655-.491-.655z"/></g><g fill="#f9d050"><path d="M434.238 150.605l-3.112 9.662h-10.153l8.188 5.895-3.111 9.661 8.188-5.895 8.187 5.895-3.111-9.661 8.188-5.895h-10.153zM465.187 150.605l2.948 9.662h10.316l-8.351 5.895 3.111 9.661-8.024-5.895-8.187 5.895 3.11-9.661-8.35-5.895h10.152z"/><path d="M449.63 168.454l-3.11 9.662h-10.154l8.188 5.895-3.111 9.662 8.188-5.896 8.187 5.896-3.111-9.662 8.188-5.895h-10.153z"/></g><g fill="#024919"><path d="M434.238 153.553l-2.457 7.532h-8.024l6.55 4.75-2.62 7.696 6.55-4.75 6.387 4.75-2.456-7.697 6.55-4.749h-8.024zM465.187 153.553l2.293 7.532h8.188l-6.55 4.75 2.456 7.696-6.387-4.75-6.55 4.75 2.456-7.697-6.55-4.749h8.024zM449.63 171.402l-2.456 7.533h-8.024l6.55 4.749-2.62 7.696 6.55-4.749 6.387 4.749-2.456-7.696 6.55-4.586h-8.024z"/></g><g fill="#00493d"><path d="M409.347 183.684l-1.31.655c-.328.163-.328.49-.328.655h-.163l-.655-1.474h.163c0 .164.164.327.492.164l2.783-1.474c.328-.164.328-.328.164-.492l.164-.163.819 1.637h-.164c-.164-.164-.328-.327-.655-.164l-1.146.656.49.982 1.31-.491c.328-.164.165-.491.165-.655h.163l.655 1.474c-.163-.164-.327-.328-.655-.164l-2.783 1.474c-.328.163-.328.327-.164.49l-.164.165-.819-1.474.164-.164c.164.164.328.328.655.164l1.31-.655zM412.13 185.812c.328-.163.328-.327.164-.655h.164l1.638 2.457-1.147.818v-.163c.655-.492.655-1.147.492-1.31s-.328-.328-.328-.492c-.164 0-.164-.163-.491.164-.164.164-1.146.819-1.146.819.163.164.327.655 1.146.164h.164l-1.802 1.31v-.164c.82-.655.492-1.146.328-1.31l-1.146.819c-.328.163-.328.327-.328.49.164 0 .164.165.328.328.163.328.655.655 1.473.328l.164.164-1.31.49-1.637-2.62h.163c.164.165.328.328.655.165zM414.75 192.035l-1.146.983a.498.498 0 000 .655h-.163l-1.147-1.147.164-.163c.164.163.328.327.655 0l2.129-2.13c.328-.163.328-.327.164-.654l1.146 1.31a.498.498 0 00-.655 0l-.982.982.818.819.983-.819c.327-.327.164-.491 0-.655l.164-.164 1.146 1.31h-.164c-.164 0-.327-.163-.655.164l-2.129 1.965c-.327.328-.327.492-.163.655v.164l-1.147-1.31c.164 0 .492.164.655 0l1.147-1.146zM417.207 195.474l.491.491.655-1.474s-.49.164-1.31.655l.164.328-.164.164-.327-.328c-.164.164-.328.164-.491.328-.492.327-.328.49-.164.655v.163l-.819-.818h.164s.327 0 .655-.164l3.275-1.801.164.163s-.164.164-1.638 3.44c0 .327-.164.49 0 .818l-1.31-1.146.164-.164c.164.327.491.327.655 0 0-.164.164-.491.164-.655l-.492-.491zM418.517 198.749l.164-.164c.164.164.327.164.655 0l2.129-2.784-.164-.163c-.328-.164-.819-.164-1.31.327v-.164l.655-.818 2.456 1.8-.819.983h-.163c.491-.49.327-1.146 0-1.31v-.163l-2.13 2.783c-.327.164-.163.492 0 .655h-.163z"/><path d="M422.775 199.404l-.819 1.146c-.164.328 0 .492.164.655l-.164.164-1.31-.982v-.164c.327.164.491.164.655-.164l1.801-2.456c.164-.328 0-.492-.163-.655l.163-.164 1.31.982v.164c-.327-.164-.491-.164-.655.164l-.818 1.146.982.655.819-1.146c.164-.328 0-.491-.164-.655l.164-.164 1.31.983v.163c-.164-.163-.491-.163-.655.164l-1.638 2.62c-.327.164-.163.328 0 .492v.163l-1.474-.982h.164c.164 0 .328 0 .492-.164l.818-1.31zM426.05 203.99l.164-.165c.163.164.49.164.655-.163l1.31-2.784c.163-.328 0-.491-.164-.655l2.784 1.31-.655 1.31-.164-.164c.491-.655 0-1.31-.164-1.474-.164 0-.327-.163-.491-.163s-.164 0-.328.327c-.163.164-.655 1.146-.655 1.146.164.164.492.492 1.147-.327h.163l-.982 1.965-.164-.164c.491-.982-.164-1.146-.327-1.146l-.655 1.31c-.164.327 0 .491.163.491v.164zM430.799 206.282c-.492-.328-.492-1.31 0-2.293.327-.982.982-1.801 1.637-1.474.492.164.328 1.147 0 2.13-.491 1.145-1.146 1.8-1.637 1.637h-.164c1.146.49 1.965-.164 2.456-1.31.492-.983.328-2.13-.655-2.62s-1.965.163-2.456 1.31-.328 2.292.655 2.62zM435.875 206.61l.655-1.966c.164-.327 0-.491-.164-.655l.82.164v.164c-.165 0-.328 0-.492.327l-.655 1.965c-.328.819-.819 1.474-1.801 1.146-.655-.163-1.147-.982-.82-1.8l.82-2.13c.163-.327 0-.49-.164-.655v-.163l1.474.655v.163c-.164-.163-.492-.163-.492.164l-.818 2.129c-.164.655-.164 1.31.327 1.474s.983-.164 1.31-.983z"/><path d="M437.349 204.48c0-.163 0-.163-.164-.163l1.146.163.983 3.112.491-1.965c.164-.328 0-.492-.163-.655l.982.163-.164.164c-.163 0-.327 0-.491.328l-.819 3.602h-.164l-1.31-3.93-.818 2.62c0 .491.163.491.327.655v.164l-.982-.328v-.163c.163.163.49 0 .49-.328l.82-2.947zM442.917 207.755c-.328 1.474-.983 1.802-1.31 1.802h-.328s-.164-.164 0-.328l.491-3.275c.164-.164.164-.327.328-.164h.327c.328 0 .655.655.492 1.965l.49.164c.328-1.637-.327-2.292-1.145-2.456-.655-.164-1.638-.328-1.638-.328v.164c.164.164.491.164.328.655l-.492 2.948c-.163.327-.327.491-.491.491h-.164l1.638.328c.819.163 1.637 0 1.965-1.802zM444.39 206.445c0-.327-.327-.49-.49-.49v-.165l2.947.328-.164 1.31c0-.819-.491-1.146-.819-1.146-.164-.164-.327-.164-.491-.164s-.164 0-.164.491c0 .164-.164 1.31-.164 1.31.164 0 .655.164.983-.819l-.164 2.13h-.164c0-.983-.49-.983-.655-.983l-.163 1.474c0 .327 0 .327.163.327 0 0 .328 0 .328.164.491 0 .982-.164 1.31-1.146h.164l-.328 1.31-3.111-.328c.327 0 .491-.164.655-.491zM454.543 209.72c0 .328.164.328.491.328v.164l-1.8.164c.163-.164.49-.328.49-.655l-.327-3.112c-.164-.327-.328-.327-.655-.327v-.164l1.801-.164c-.164.164-.491.328-.327.655zM456.18 210.048v-.164c.165 0 .328-.163.328-.491l-.655-3.439h-.164c-.327.164-.655.491-.49 1.146h-.165l-.163-1.146 2.947-.491.164 1.146h-.164c0-.655-.491-.819-.982-.819h-.164l.655 3.44c0 .327.164.49.491.49v.164zM463.222 206.773l-.655-1.965c0-.328-.327-.328-.491-.328v-.163l.819-.328v.164c-.164.164-.164.164-.164.491l.655 2.129c.164.655.164 1.637-.819 1.965-.655.164-1.474-.164-1.637-1.146l-.655-2.13c-.164-.327-.328-.327-.492-.327l-.163-.163 1.637-.492v.164c-.164.164-.327.328-.164.655l.492 2.129c.163.655.655.982 1.146.982.491-.163.655-.818.491-1.637zM465.024 205.627c.818-.328.655-.82.49-1.31s-.49-.82-.818-.655c-.164 0-.327.163-.164.327l.492 1.638.163.163.328 1.31c.164.328.491.328.655.164v.164l-1.474.655-.164-.164c.328-.164.328-.327.328-.655l-1.147-2.784c-.163-.49-.327-.327-.655-.327v-.164l1.638-.655c.655-.164 1.31 0 1.638.655.163.819-.164 1.31-.82 1.638-.163 0-.327.163-.327.163zM469.281 201.533h-.327l.982-.655 2.948 1.637-.983-1.801c-.164-.327-.491-.327-.655-.327v-.164l.819-.328c-.164.164-.328.328 0 .655l1.638 3.275-.164.164-3.603-1.965 1.31 2.456c.164.328.491.328.655.164v.164l-.819.491v-.164c.164-.163.164-.327 0-.655l-1.31-2.62zM476.65 202.024v-.164c0-.163.164-.327 0-.655l-1.965-2.784h-.164c-.327.164-.491.82 0 1.31l-.163.164-.655-1.146 2.456-1.638.655.983c-.491-.491-.983-.491-1.31-.328l-.164.164 1.965 2.784c.164.328.491.328.655.164v.164zM478.451 198.094l.983 1.146a.498.498 0 00.655 0v.164l-1.31 1.146v-.163c.164-.164.164-.328 0-.656l-1.965-2.456c-.164-.327-.328-.164-.655-.164l1.31-1.146v.164c0 .164-.164.327 0 .655l.819.982.982-.655-.819-1.146c-.163-.327-.49-.164-.655-.164l1.31-1.146v.164c-.163.164-.163.327 0 .655l1.966 2.456c.163.164.327.164.49 0l.165.164-1.31 1.146-.164-.164c.163-.163.327-.327.163-.655l-.982-1.146zM479.925 194.655a.498.498 0 00-.655 0v-.164l2.129-1.965.983.983h-.164c-.491-.655-1.146-.328-1.474-.164 0 .164-.164.164-.328.328 0 0 0 .163.164.49l.983.983c.164-.163.655-.49 0-1.31h.164l1.31 1.474v.164c-.82-.819-1.147-.328-1.31-.164l.982.983c.164.327.328.327.328.327l.49-.491c.165-.164.328-.655 0-1.638h.165l.655 1.147-2.13 2.128-.163-.163c.164-.164.328-.328 0-.655zM483.855 190.07c-.163.164-.163.491.164.655.328.327.655.327 1.31 0 .328-.164.983-.328 1.474.164.819.818.491 1.474.327 1.801-.163.164-.49.328-.655.491-.163 0-.163 0-.163.164v.164l-1.147-.983h.164c.655.328 1.31.492 1.638 0 .327-.327 0-.655-.164-.819-.328-.327-.655-.327-1.146 0-.492.164-1.147.164-1.638-.163-.655-.655-.655-1.147-.327-1.638.163-.164.49-.327.655-.491.163 0 .163 0 0-.328l1.146.82h-.164c-.819-.328-1.31-.165-1.474.163zM485.33 188.76c-.328-.164-.492 0-.656.164h-.164l1.802-2.62 1.146.818-.164.164c-.655-.491-1.31-.164-1.474 0 0 .164-.163.328-.163.491-.164 0-.164.164.163.328.164.164 1.147.819 1.147.819.163-.164.491-.492-.164-1.147v-.163l1.637 1.31c-.982-.492-1.146 0-1.31.163l1.147.82c.327.163.491.163.491.163 0-.164.164-.328.328-.491.163-.328.327-.82-.328-1.474l.164-.164.819.983-1.638 2.456h-.164c.164-.328.164-.491-.164-.819zM489.75 185.812l-.49.82c-.656-.656-.983-1.147-.983-1.147l1.474.327h.327c.164 0 .491.164.655.164.491.164.328.328.164.655h.164l.818-1.474c-.327.328-.49.164-.818.164-3.44-.655-3.767-.819-3.767-.819v.164l2.62 2.948c.164.163.164.49.164.655h.164l.491-.82-.164-.163c-.163.328-.327.491-.655 0l-.327-.327.491-1.147zM488.768 182.21c-.164.163-.164.491.328.655s.655 0 1.146-.328.982-.655 1.637-.327c.983.491.82 1.31.655 1.637-.163.164-.327.492-.49.655v.328l-1.31-.655c.818.164 1.473 0 1.637-.491.163-.328-.164-.656-.328-.82-.327-.163-.655 0-1.146.328-.491.492-.983.655-1.638.328s-.982-.819-.655-1.31c0-.328.328-.492.492-.655 0-.164 0-.164-.164-.328v-.164l1.31.655h-.164c-.819-.163-1.31.164-1.31.492zM449.794 208.41c0 1.474-.49 1.966-.982 1.966-.164-.164-.164-.164-.328-.164 0 0-.163 0-.163-.164l.163-3.439c0-.164 0-.164.164-.164h.328c.327 0 .818.492.818 1.965h.655c0-1.637-.818-2.128-1.637-2.128-.655-.164-1.638-.164-1.638-.164v.164c.164 0 .492.163.492.49l-.164 3.112c0 .328-.164.492-.328.492v.163h1.474c.819 0 1.638-.327 1.801-2.129zM469.117 206.118c-.49.164-1.146-.491-1.637-1.638-.491-.982-.491-1.965 0-2.128s1.146.49 1.637 1.473.492 1.965 0 2.293c.983-.328 1.31-1.474.82-2.62-.492-.983-1.475-1.638-2.457-1.31-.983.491-1.31 1.637-.819 2.62.491 1.146 1.474 1.801 2.456 1.31z"/></g><path d="M480.253 124.404v31.932c0 27.675-13.1 37.173-30.622 44.706-17.522-7.533-30.786-17.031-30.786-44.706v-31.932z" fill="none" stroke="#000" stroke-width=".49116199"/></svg>