<svg xmlns="http://www.w3.org/2000/svg" viewBox="2.84 48.38 277.79 186.71"><path fill="#D6D4D1" d="M2.835 48.376h277.794v186.712H2.835z"/><path fill="#03B0CA" d="M5.126 50.654h273.229v182.147H5.126z"/><path d="M36.292 173.426c1.891-.147 3.24-.784 3.993-1.922 1.506-2.274.165-5.757.149-5.797-.07-.148-7.17-14.928-7.727-15.986a9.06 9.06 0 01-.996-3.044c-.079-.542.157-1.49.761-2.188a2.557 2.557 0 011.984-.902c.063 0 .126.009.196.009 2.283.141 2.753 2.22 2.753 2.769 0 .863-.439 2.495-2.086 2.495-.949 0-1.396-.596-1.412-1.186-.008-.407.204-.854.627-.878h.047c.188 0 .337.063.447.188.322.361.235 1.13.235 1.138s0 .023.008.031c.016.008.023.016.04.008.274-.047.471-.172.596-.369.212-.337.142-.776.11-.918.636-.086.91-.588.918-.611.008-.017.008-.031 0-.039-.235-.299-.769-.494-.91-.55.102-.313.086-.581-.047-.8-.235-.399-.753-.495-.777-.495-.016-.008-.031.009-.039.024-.008.016-.008.031.008.039.22.22.102.62.055.737a2.19 2.19 0 00-.635-.103c-.706 0-1.365.361-1.765.957-.471.714-.502 1.647-.086 2.612.667 1.553 2 1.789 2.738 1.789.211 0 .392-.017.518-.039-.769.533-.714 1.373-.714 1.388s.016.023.032.031.031 0 .039-.017c.125-.165.447-.188.627-.188.071 0 .133 0 .172.008-.737 1.263-.612 1.859-.604 1.891 0 .009.008.023.023.023.016.008.023.008.039 0 .549-.376.895-.455 1.09-.455.157 0 .243.055.283.079-.408 1.043-.4 1.977.023 2.769.847 1.593 3.083 2.103 3.099 2.11a.067.067 0 00.047-.016c.008-.017.008-.039 0-.047-1.663-2.314-1.616-3.382-1.561-4.512.008-.204.023-.416.023-.635 0-.785.337-2.377.635-3.781.251-1.168.486-2.267.486-2.714 0-.534-.423-2.604-2.071-3.789.455-.195.745-.485.745-.815 0-.321-.29-.612-.745-.808 1.647-1.185 2.071-3.256 2.071-3.789 0-.455-.235-1.553-.486-2.714-.298-1.404-.635-3.004-.635-3.789 0-.22-.016-.432-.023-.636-.055-1.122-.102-2.188 1.561-4.502a.049.049 0 000-.047c-.008-.016-.023-.024-.047-.016-.016.008-2.251.518-3.099 2.103-.424.8-.432 1.733-.023 2.777-.04.023-.126.079-.283.079-.196 0-.542-.079-1.09-.455-.016-.008-.031-.008-.039-.008-.016.008-.023.016-.023.031-.008.023-.134.627.604 1.891-.039 0-.102.008-.172.008-.18 0-.502-.023-.627-.188-.008-.016-.023-.023-.039-.016a.034.034 0 00-.032.032c0 .008-.055.855.714 1.38a4.18 4.18 0 00-.518-.031c-.737 0-2.071.228-2.738 1.781-.416.973-.384 1.906.086 2.62.4.597 1.051.949 1.765.949.211 0 .431-.031.635-.094.047.118.165.51-.055.729-.016.016-.016.031-.008.047a.042.042 0 00.039.023c.024-.008.542-.094.777-.494.133-.22.149-.494.047-.8.141-.055.674-.251.91-.549.008-.016.008-.031 0-.039a1.266 1.266 0 00-.918-.62c.032-.134.102-.581-.11-.91-.125-.196-.321-.322-.596-.376-.016 0-.024.008-.04.016-.008.008-.008.016-.008.031 0 .008.094.769-.235 1.138-.118.133-.282.196-.494.188-.423-.023-.635-.471-.627-.878.016-.588.463-1.185 1.412-1.185 1.647 0 2.086 1.624 2.086 2.487 0 .549-.471 2.628-2.753 2.769-.07.008-.133.008-.196.008a2.531 2.531 0 01-1.984-.902c-.604-.69-.839-1.639-.761-2.181a9.054 9.054 0 01.996-3.043c.557-1.059 7.656-15.838 7.727-15.987.016-.039 1.357-3.53-.149-5.797-.761-1.137-2.102-1.781-3.993-1.922 1.891-.133 3.231-.776 3.993-1.922 1.506-2.267.165-5.758.149-5.797-.07-.149-7.17-14.92-7.727-15.979a9.171 9.171 0 01-.996-3.043c-.079-.549.157-1.498.761-2.188a2.557 2.557 0 011.984-.902c.063 0 .126 0 .196.008 2.283.141 2.753 2.22 2.753 2.769 0 .863-.439 2.487-2.086 2.487-.949 0-1.396-.588-1.412-1.177-.008-.416.204-.863.627-.886h.047c.188 0 .337.071.447.196.322.361.235 1.122.235 1.129 0 .016 0 .031.008.039.016.008.023.008.04.008.274-.047.471-.172.596-.369.212-.337.142-.776.11-.917.636-.094.91-.588.918-.612a.049.049 0 000-.047c-.235-.29-.769-.494-.91-.541.102-.314.086-.588-.047-.808-.235-.39-.753-.484-.777-.484-.016-.008-.031 0-.039.016s-.008.039.008.047c.22.22.102.612.055.729a2.144 2.144 0 00-2.4.855c-.471.722-.502 1.647-.086 2.62.667 1.553 2 1.788 2.738 1.788.211 0 .392-.023.518-.039-.769.533-.714 1.373-.714 1.381 0 .016.016.031.032.039.016 0 .031 0 .039-.016.125-.165.447-.188.627-.188h.172c-.737 1.263-.612 1.867-.604 1.891 0 .016.008.023.023.031s.023 0 .039-.008c.549-.369.895-.447 1.09-.447.157 0 .243.047.283.079-.408 1.043-.4 1.969.023 2.769.847 1.593 3.083 2.103 3.099 2.103.023.008.039 0 .047-.016a.049.049 0 000-.047c-1.663-2.306-1.616-3.373-1.561-4.502.008-.204.023-.416.023-.636 0-.784.337-2.377.635-3.789.251-1.161.486-2.259.486-2.707 0-.541-.423-2.604-2.071-3.797.455-.196.745-.479.745-.808 0-.33-.29-.612-.745-.808 1.647-1.192 2.071-3.255 2.071-3.797 0-.447-.235-1.545-.486-2.706-.298-1.412-.635-3.004-.635-3.789 0-.22-.016-.431-.023-.635-.055-1.13-.102-2.196 1.561-4.503a.049.049 0 000-.047c-.008-.016-.023-.023-.047-.016-.016 0-2.251.51-3.099 2.102-.424.8-.432 1.726-.023 2.769-.04.032-.126.079-.283.079-.196 0-.542-.079-1.09-.447-.016-.008-.031-.016-.039-.008-.016.008-.023.016-.023.032-.008.023-.134.627.604 1.89h-.172c-.18 0-.502-.023-.627-.188-.008-.016-.023-.016-.039-.016-.016.008-.032.023-.032.039 0 .008-.055.847.714 1.381-.125-.016-.306-.04-.518-.04-.737 0-2.071.235-2.738 1.789-.416.973-.384 1.898.086 2.62a2.144 2.144 0 002.4.855c.047.118.165.51-.055.729-.016.008-.016.031-.008.047s.023.023.039.016c.024 0 .542-.094.777-.486.133-.22.149-.494.047-.808.141-.047.674-.251.91-.542a.049.049 0 000-.047 1.27 1.27 0 00-.918-.612c.032-.141.102-.581-.11-.918-.125-.196-.321-.322-.596-.369-.016 0-.024 0-.04.008-.008.008-.008.023-.008.039 0 .008.086.769-.235 1.13-.118.141-.282.204-.494.196-.423-.024-.635-.471-.627-.887.016-.588.463-1.177 1.412-1.177 1.647 0 2.086 1.624 2.086 2.487 0 .549-.471 2.628-2.753 2.769-.07.008-.133.008-.196.008a2.557 2.557 0 01-1.984-.902c-.604-.69-.839-1.64-.761-2.189a9.171 9.171 0 01.996-3.043c.125-.243.604-1.224 1.506-3.075l.416-1.153c.008-.008.4-1.428-.291-2.346-.4-.518-1.059-.784-1.969-.784h-.023c-.212 0-1.326.039-2.173.776-.847-.737-1.953-.776-2.165-.776h-.023c-.91 0-1.577.267-1.969.784-.69.918-.298 2.338-.298 2.354l.416 1.129.008.016c.894 1.851 1.373 2.832 1.506 3.075.518.996.847 1.993.996 3.043.078.549-.165 1.499-.761 2.189a2.587 2.587 0 01-1.985.902c-.071 0-.133 0-.196-.008-2.291-.141-2.761-2.22-2.761-2.769 0-.863.439-2.487 2.087-2.487.957 0 1.396.588 1.412 1.177.016.416-.204.863-.62.887h-.047a.563.563 0 01-.455-.196c-.321-.361-.235-1.122-.228-1.13a.058.058 0 00-.016-.039c-.008-.008-.023-.008-.023-.008-.282.047-.479.173-.604.369-.212.337-.149.777-.118.918-.627.094-.902.588-.918.612-.008.016 0 .031.008.047.235.291.761.494.91.542-.102.314-.086.588.039.808.235.392.753.486.777.486.016.008.031 0 .039-.016.016-.016.008-.04 0-.047-.22-.22-.102-.612-.063-.729.212.063.424.094.644.094a2.12 2.12 0 001.757-.949c.471-.722.502-1.647.094-2.62-.667-1.553-2-1.789-2.738-1.789-.211 0-.392.023-.525.04.769-.534.714-1.373.714-1.381a.043.043 0 00-.023-.039c-.016 0-.031 0-.047.016-.126.165-.447.188-.628.188h-.172c.737-1.263.612-1.867.612-1.89a.064.064 0 00-.031-.032c-.008 0-.023 0-.032.008-.549.369-.894.447-1.09.447-.165 0-.251-.047-.282-.079.408-1.043.4-1.969-.023-2.769-.847-1.592-3.083-2.102-3.106-2.102-.016-.008-.031 0-.039.016a.049.049 0 000 .047c1.663 2.307 1.608 3.373 1.553 4.503-.008.204-.016.416-.016.635 0 .785-.337 2.377-.643 3.789-.243 1.161-.479 2.259-.479 2.706 0 .542.423 2.604 2.071 3.797-.455.196-.753.486-.753.808 0 .329.298.612.753.808-1.647 1.192-2.071 3.256-2.071 3.797 0 .447.235 1.545.479 2.707.306 1.412.643 3.004.643 3.789 0 .22.008.432.016.636.055 1.129.11 2.196-1.553 4.502a.049.049 0 000 .047c.008.015.023.023.039.016.023 0 2.259-.51 3.106-2.103.423-.8.431-1.726.023-2.769.031-.031.118-.079.282-.079.196 0 .542.079 1.09.447.008.008.024.016.032.008 0 0 .023-.016.031-.031 0-.023.125-.627-.612-1.891h.172c.181 0 .502.023.628.188.016.016.031.016.047.016a.042.042 0 00.023-.039c0-.008.055-.848-.714-1.381.133.016.314.039.525.039.737 0 2.071-.235 2.738-1.788.408-.973.376-1.898-.094-2.62a2.12 2.12 0 00-1.757-.949c-.22 0-.432.031-.644.094-.039-.117-.165-.51.063-.729.008-.008.016-.031 0-.047-.008-.016-.023-.023-.039-.016-.024 0-.542.094-.777.486-.125.22-.141.494-.039.808-.149.047-.675.251-.91.541-.008.016-.016.032-.008.047.016.023.291.518.918.612-.031.141-.094.581.118.917.125.196.322.322.596.369 0 0 .023 0 .031-.008a.058.058 0 00.016-.039c-.008-.008-.094-.769.228-1.129.125-.142.29-.204.502-.196.416.023.636.471.62.886-.016.588-.455 1.177-1.412 1.177-1.647 0-2.087-1.624-2.087-2.487 0-.549.471-2.628 2.761-2.769.063-.008.125-.008.196-.008.988 0 1.624.494 1.985.902.596.69.839 1.639.761 2.188a9.382 9.382 0 01-.996 3.043c-.557 1.059-7.656 15.83-7.735 15.987-.008.031-1.357 3.522.149 5.789.761 1.146 2.11 1.789 3.993 1.922-1.883.141-3.232.785-3.993 1.922-1.506 2.267-.157 5.758-.141 5.797.071.149 7.17 14.928 7.727 15.987.518.988.847 1.984.996 3.043.078.542-.165 1.491-.761 2.181a2.56 2.56 0 01-1.985.902c-.071 0-.133 0-.196-.008-2.291-.141-2.761-2.22-2.761-2.769 0-.863.439-2.487 2.087-2.487.957 0 1.396.596 1.412 1.185.016.408-.204.855-.62.878a.62.62 0 01-.502-.188c-.321-.369-.235-1.13-.228-1.138 0-.016-.008-.023-.016-.031s-.023-.016-.023-.016c-.282.055-.479.18-.604.376-.212.33-.149.776-.118.91-.627.094-.902.596-.918.62-.008.008 0 .023.008.039.235.298.761.494.91.549-.102.306-.086.58.039.8.235.4.753.486.777.494a.043.043 0 00.039-.023c.016-.016.008-.031 0-.047-.22-.22-.102-.612-.063-.729.212.063.424.094.644.094a2.1 2.1 0 001.757-.949c.471-.722.502-1.647.094-2.62-.667-1.553-2-1.781-2.738-1.781-.211 0-.392.016-.525.031.769-.525.714-1.373.714-1.38 0-.016-.008-.032-.023-.032-.016-.008-.031 0-.047.016-.126.165-.447.188-.628.188-.063 0-.125-.008-.172-.008.737-1.263.612-1.867.612-1.891a.062.062 0 00-.031-.031h-.023c-.557.384-.902.463-1.099.463a.448.448 0 01-.282-.079c.408-1.043.4-1.977-.023-2.777-.847-1.584-3.083-2.095-3.106-2.103-.016 0-.031 0-.039.016a.049.049 0 000 .047c1.663 2.314 1.608 3.381 1.553 4.502-.008.204-.016.416-.016.636 0 .784-.337 2.385-.643 3.789-.243 1.161-.479 2.259-.479 2.714 0 .533.423 2.604 2.071 3.789-.455.196-.753.486-.753.808 0 .33.298.62.753.815-1.647 1.186-2.071 3.255-2.071 3.789 0 .447.235 1.545.479 2.714.306 1.404.643 2.997.643 3.781 0 .22.008.431.016.635.055 1.13.11 2.197-1.553 4.512-.008.008-.008.03 0 .047a.058.058 0 00.039.016c.023-.008 2.259-.518 3.106-2.11.423-.792.431-1.726.023-2.769a.458.458 0 01.282-.079c.196 0 .542.079 1.09.455a.024.024 0 00.032 0l.031-.023c0-.031.125-.628-.612-1.891.047-.008.11-.008.172-.008.181 0 .502.022.628.188.016.017.031.024.047.017s.023-.017.023-.031.055-.854-.714-1.388c.133.022.314.039.525.039.737 0 2.071-.235 2.738-1.789.408-.965.376-1.898-.094-2.612a2.107 2.107 0 00-1.757-.957c-.22 0-.432.04-.644.103-.039-.118-.165-.511.063-.737.008-.008.016-.023 0-.039a.043.043 0 00-.039-.024c-.024 0-.542.095-.777.495-.125.219-.141.486-.039.8-.149.056-.675.251-.91.55-.008.008-.016.022-.008.039.016.022.291.525.918.611-.031.142-.094.581.118.918.125.196.322.322.596.369.008.008.023 0 .031-.008s.016-.023.016-.031c-.008-.008-.094-.776.228-1.138.125-.142.29-.204.502-.188.416.023.636.472.62.878-.016.589-.455 1.186-1.412 1.186-1.647 0-2.087-1.632-2.087-2.495 0-.549.471-2.628 2.761-2.769.063 0 .125-.009.196-.009.988 0 1.624.494 1.985.902.596.698.839 1.646.761 2.188a9.257 9.257 0 01-.996 3.044c-.557 1.059-7.656 15.838-7.735 15.986-.008.04-1.357 3.522.149 5.797.761 1.138 2.11 1.772 3.993 1.922-1.883.134-3.232.776-3.993 1.923-1.506 2.269-.157 5.75-.141 5.789.071.148 7.17 14.928 7.727 15.986.518.988.847 1.984.996 3.044.078.549-.165 1.49-.761 2.188-.361.406-.997.9-1.985.9-.071 0-.133-.008-.196-.008-2.291-.143-2.761-2.223-2.761-2.771 0-.861.439-2.494 2.087-2.494.957 0 1.396.598 1.412 1.193.016.398-.204.846-.62.877h-.047a.588.588 0 01-.455-.195c-.321-.359-.235-1.121-.228-1.137 0-.009-.008-.022-.016-.031-.008-.01-.023-.01-.023-.01-.282.049-.479.174-.604.369-.212.338-.149.776-.118.918-.627.086-.902.588-.918.611-.008.016 0 .031.008.04.235.298.761.493.91.549-.102.313-.086.588.039.808.235.395.753.486.777.494.016-.008.031-.016.039-.031.016-.016.008-.021 0-.039-.22-.219-.102-.618-.063-.735.212.063.424.103.644.103.706 0 1.365-.359 1.757-.957.471-.713.502-1.646.094-2.611-.667-1.553-2-1.788-2.738-1.788a4.02 4.02 0 00-.525.039c.769-.533.714-1.373.714-1.382 0-.022-.008-.03-.023-.039-.016 0-.031 0-.047.017-.126.165-.447.188-.628.188-.063 0-.125 0-.172-.008.737-1.265.612-1.859.612-1.893-.008-.008-.016-.021-.016-.021-.023-.008-.039-.008-.047 0-.549.377-.894.455-1.09.455a.472.472 0 01-.282-.078c.408-1.045.4-1.979-.023-2.771-.847-1.593-3.083-2.104-3.106-2.109a.055.055 0 00-.039.017c-.008.016-.008.04 0 .048 1.663 2.313 1.608 3.381 1.553 4.51a16.06 16.06 0 00-.016.637c0 .783-.337 2.377-.643 3.789-.243 1.16-.479 2.258-.479 2.705 0 .533.423 2.604 2.071 3.789-.455.204-.753.486-.753.815 0 .321.298.612.753.81-1.647 1.184-2.071 3.254-2.071 3.797 0 .445.235 1.545.479 2.705.306 1.412.643 3.004.643 3.789 0 .221.008.432.016.635.055 1.131.11 2.188-1.553 4.513-.008.008-.008.022 0 .038.008.017.023.017.039.017.023 0 2.259-.519 3.106-2.103.423-.801.431-1.733.023-2.776a.467.467 0 01.282-.078c.196 0 .542.078 1.09.454 0 0 .024.01.032.01a.084.084 0 00.031-.031c0-.023.125-.627-.612-1.892.047 0 .11-.009.172-.009.181 0 .502.023.628.195.016.009.031.017.047.009.016 0 .023-.017.023-.031 0-.008.055-.854-.714-1.381.133.019.314.03.525.03.737 0 2.071-.228 2.738-1.779.408-.975.376-1.896-.094-2.62a2.099 2.099 0 00-2.401-.844c-.039-.127-.165-.518.063-.737.008-.017.016-.032 0-.048a.042.042 0 00-.039-.023c-.024.008-.542.096-.777.494-.125.221-.141.494-.039.809-.149.048-.675.244-.91.541-.008.018-.016.031-.008.048.016.017.291.519.918.612-.031.142-.094.58.118.91.125.202.322.32.596.375 0 0 .023 0 .031-.016.008 0 .016-.016.016-.031 0 0-.094-.77.228-1.138a.583.583 0 01.455-.188h.047c.416.023.636.479.62.879-.016.59-.455 1.192-1.412 1.192-1.647 0-2.087-1.632-2.087-2.494 0-.55.471-2.628 2.761-2.771.063-.008.125-.008.196-.008a2.59 2.59 0 011.985.901c.596.688.839 1.642.761 2.183a9.26 9.26 0 01-.996 3.043c-.134.252-.628 1.256-1.506 3.082l-.008.018-.416 1.129c0 .016-.393 1.428.298 2.346.392.525 1.059.793 1.969.793h.023c.212 0 1.318-.039 2.165-.776.855.737 1.961.776 2.173.776h.023c.91 0 1.577-.268 1.969-.793.69-.918.298-2.322.291-2.346l-.416-1.146c-.886-1.825-1.38-2.83-1.506-3.082a9.04 9.04 0 01-.996-3.043c-.079-.541.157-1.489.761-2.182a2.557 2.557 0 012.18-.893c2.283.143 2.753 2.221 2.753 2.771 0 .862-.439 2.494-2.086 2.494-.949 0-1.396-.604-1.412-1.191-.008-.399.204-.854.627-.879.212-.009.376.057.494.188.322.368.235 1.13.235 1.13 0 .022 0 .039.008.039.016.017.023.017.04.017.274-.056.471-.174.596-.377.212-.328.142-.77.11-.908.636-.097.91-.599.918-.613.008-.014.008-.03 0-.047-.235-.297-.769-.494-.91-.541.102-.313.086-.588-.047-.809-.235-.398-.753-.486-.777-.494a.044.044 0 00-.039.022c-.008.015-.008.03.008.048.22.221.102.61.055.737a1.952 1.952 0 00-.635-.104c-.706 0-1.365.354-1.765.949-.471.723-.502 1.646-.086 2.62.667 1.554 2 1.78 2.738 1.78.211 0 .392-.016.518-.031-.769.525-.714 1.373-.714 1.381 0 .016.016.031.032.031.016.008.031 0 .039-.008.125-.172.447-.196.627-.196.071 0 .133.009.172.009-.737 1.264-.612 1.866-.604 1.891 0 .017.008.022.023.031.016 0 .023 0 .039-.009.549-.376.895-.454 1.09-.454.157 0 .243.055.283.078-.408 1.043-.4 1.977.023 2.777.847 1.584 3.083 2.102 3.099 2.102h.016s.023 0 .031-.016.008-.031 0-.039c-1.663-2.322-1.616-3.381-1.561-4.512.008-.203.023-.414.023-.635 0-.785.337-2.377.635-3.789.251-1.16.486-2.261.486-2.705 0-.543-.423-2.613-2.071-3.799.455-.195.745-.484.745-.809 0-.329-.29-.611-.745-.814 1.647-1.186 2.071-3.257 2.071-3.789 0-.447-.235-1.545-.486-2.705-.298-1.412-.635-3.006-.635-3.789 0-.222-.016-.434-.023-.638-.055-1.129-.102-2.194 1.561-4.51.008-.008.008-.032 0-.048-.008-.01-.023-.018-.047-.018-.016.008-2.251.52-3.099 2.11-.424.792-.432 1.726-.023 2.771-.04.022-.126.078-.283.078-.196 0-.542-.078-1.09-.455-.016-.008-.031-.008-.039 0-.016 0-.023.017-.023.022-.008.031-.134.628.604 1.892-.039.008-.102.008-.172.008-.18 0-.502-.022-.627-.188-.008-.018-.023-.021-.039-.018-.016.01-.032.018-.032.039 0 .01-.055.85.714 1.383a3.623 3.623 0 00-.518-.039c-.737 0-2.071.234-2.738 1.788-.416.965-.384 1.897.086 2.61.4.599 1.051.957 1.765.957.211 0 .431-.039.635-.102.047.117.165.51-.055.736-.016.017-.016.022-.008.039s.023.031.039.031c.024-.009.542-.103.777-.494.133-.221.149-.494.047-.809.141-.055.674-.251.91-.549.008-.01.008-.023 0-.04a1.25 1.25 0 00-.918-.61c.032-.143.102-.58-.11-.918-.125-.195-.321-.32-.596-.369-.016 0-.024 0-.04.01-.008.008-.008.021-.008.031 0 .016.094.769-.235 1.137a.57.57 0 01-.447.195h-.047c-.423-.031-.635-.479-.627-.877.016-.599.463-1.193 1.412-1.193 1.647 0 2.086 1.632 2.086 2.494 0 .549-.471 2.629-2.753 2.771-.07 0-.133.008-.196.008a2.563 2.563 0 01-1.984-.901c-.604-.697-.839-1.641-.761-2.188a9.045 9.045 0 01.996-3.044c.557-1.06 7.656-15.838 7.727-15.985.016-.039 1.357-3.521-.149-5.789-.762-1.152-2.102-1.796-3.993-1.93zm-6.119 38.54c.173.432.722 1.813 1.632 3.633.706 1.381.941 2.502.644 2.987a.445.445 0 01-.4.22c-.023 0-.055 0-.078-.008-.636-.07-1.514-.697-1.773-.886-.008 0-.016-.009-.024-.009l-.023.009c-.251.188-1.137.815-1.772.886-.204.023-.369-.047-.471-.212-.298-.485-.063-1.606.635-2.987a41.224 41.224 0 001.63-3.633zm0-4.73c-.18-.367-1.105-1.866-3.859-2.117 2.754-.26 3.679-1.758 3.859-2.118.188.36 1.106 1.858 3.868 2.118-2.762.251-3.68 1.75-3.868 2.117zm0-135.739a40.756 40.756 0 00-1.631-3.632c-.698-1.38-.934-2.502-.635-2.988a.436.436 0 01.4-.22h.071c.635.078 1.521.698 1.772.886.016.016.032.016.047 0 .259-.188 1.137-.808 1.773-.886.211-.024.369.047.479.22.298.486.063 1.608-.644 2.988-.91 1.82-1.459 3.2-1.632 3.632zm0 4.73c.188.369 1.106 1.867 3.868 2.118-2.761.251-3.679 1.749-3.868 2.118-.18-.369-1.105-1.867-3.859-2.118 2.753-.251 3.679-1.749 3.859-2.118zm2.832 29.55s-.07-.58.267-.965c.204-.227.51-.345.91-.345.447 0 .769.172.949.51.259.502.133 1.231-.07 1.538a.049.049 0 000 .047c.016.016.031.016.047.016.016-.008 1.545-.635 1.451-2.008.196-.031 1.114-.219 1.467-.91a.049.049 0 000-.047c-.031-.031-.627-.823-1.49-.808.039-.173.141-.714-.142-1.216-.228-.393-.635-.667-1.224-.8 0 0-.031 0-.039.016-.008.008-.008.023-.008.039.008.008.369.887.031 1.436-.165.251-.455.4-.871.424 0 0-.094-.008-.243-.008-.573 0-1.914.086-2.44.847l-.172-4.707s-.063-.337.172-.651c.259-.322.738-.51 1.436-.549 0 0 .055-.008.157-.008.274 0 .824.039 1.389.298.016.008.031.008.039-.008.016-.008.023-.023.016-.031 0-.024-.384-2.408-3.067-2.408-.149 0-.298.008-.455.016.314-.196.941-.706.941-1.687 0-.024.04-1.82-1.859-3.342-.008-.016-.032-.016-.047 0-1.898 1.522-1.859 3.318-1.859 3.334 0 .988.627 1.498.949 1.694-.157-.008-.314-.016-.455-.016-2.683 0-3.067 2.384-3.075 2.408 0 .008.008.023.016.031.016.016.023.016.039.008a3.479 3.479 0 011.396-.298c.094 0 .157.008.157.008.69.039 1.176.227 1.428.549.243.314.18.651.18.651l-.172 4.707c-.526-.761-1.875-.847-2.44-.847-.157 0-.251.008-.251.008-.416-.023-.706-.172-.863-.424-.337-.549.023-1.427.023-1.436.008-.016.008-.031-.008-.039-.007-.016-.023-.016-.039-.016-.581.133-.996.408-1.216.8-.291.502-.188 1.043-.141 1.216h-.032c-.847 0-1.435.776-1.459.808-.008.016-.008.032-.008.047.361.69 1.271.878 1.475.91-.094 1.373 1.436 2 1.451 2.008.016 0 .031 0 .039-.016.016-.016.016-.031.008-.047-.212-.306-.337-1.036-.071-1.538.181-.337.495-.51.949-.51.4 0 .706.118.902.345.337.385.267.957.267.957-.314 1.961-1.969 2.173-2.659 2.173-.235 0-.384-.024-.384-.024-1.177-.165-1.985-.635-2.393-1.396-.792-1.436.109-3.459.125-3.475l8.142-17.305 8.15 17.305c.008.016.91 2.04.126 3.475-.416.761-1.216 1.231-2.393 1.396-.008 0-.157.024-.385.024-.695.001-2.342-.211-2.664-2.164zm-2.832.84c1.177 2.644 3.436 3.279 4.699 3.42-1.263.149-3.522.785-4.699 3.428-1.176-2.644-3.428-3.279-4.69-3.428 1.262-.141 3.514-.777 4.69-3.42zm-2.832 7.687s.071.58-.267.957c-.196.228-.502.345-.902.345-.455 0-.769-.172-.949-.51-.267-.494-.141-1.224.071-1.529.008-.016.008-.032-.008-.047-.008-.016-.023-.016-.039-.016-.016.008-1.545.635-1.451 2-.204.039-1.114.22-1.475.917 0 .008 0 .032.008.04.024.031.612.808 1.459.808h.032c-.047.173-.149.722.141 1.216.22.4.635.667 1.216.8.016.008.031 0 .039-.008.016-.016.016-.031.008-.047 0-.008-.361-.887-.023-1.428.157-.259.447-.4.863-.432 0 0 .094.008.251.008.565 0 1.914-.086 2.44-.847l.172 4.707s.063.337-.18.651c-.251.33-.729.51-1.428.549 0 0-.063.008-.157.008a3.49 3.49 0 01-1.396-.298c-.016 0-.023 0-.039.008a.059.059 0 00-.016.04c.008.023.392 2.408 3.075 2.408.141 0 .298-.008.455-.024a1.95 1.95 0 00-.949 1.695c0 .016-.04 1.82 1.859 3.341.016.008.04.008.047 0 1.898-1.521 1.859-3.326 1.859-3.341 0-.981-.627-1.499-.941-1.695.157.016.306.024.455.024a2.955 2.955 0 003.067-2.408c.008-.016 0-.032-.016-.04-.008-.008-.023-.008-.039-.008a3.423 3.423 0 01-1.389.298c-.102 0-.157-.008-.157-.008-.698-.04-1.176-.22-1.428-.549-.243-.314-.18-.643-.18-.659l.172-4.699c.526.761 1.867.847 2.44.847.149 0 .243-.008.243-.008.416.032.706.173.871.432.337.541-.023 1.42-.031 1.428 0 .016 0 .031.008.047a.12.12 0 00.023.016c.604-.141 1.012-.408 1.239-.808.283-.494.181-1.043.142-1.216h.023c.847 0 1.443-.776 1.467-.808.008-.008.008-.032 0-.04-.353-.698-1.271-.878-1.467-.917.094-1.365-1.436-1.993-1.451-2-.016 0-.031 0-.047.016a.049.049 0 000 .047c.204.306.329 1.035.07 1.529-.181.337-.502.51-.949.51-.4 0-.706-.117-.91-.345-.337-.377-.267-.957-.267-.957.322-1.954 1.969-2.165 2.667-2.165.228 0 .377.023.385.023 1.177.165 1.977.635 2.393 1.396.784 1.435-.118 3.451-.126 3.467l-8.15 17.305-8.143-17.296c-.016-.023-.918-2.04-.125-3.475.408-.761 1.216-1.232 2.393-1.396 0 0 .149-.023.384-.023.689-.001 2.344.211 2.658 2.164zm2.832 25.306c.188.369 1.106 1.867 3.868 2.118-2.761.251-3.679 1.757-3.868 2.118-.18-.361-1.105-1.867-3.859-2.118 2.753-.251 3.679-1.749 3.859-2.118zm2.832 29.55c0-.008-.07-.58.267-.965.204-.229.51-.346.91-.346.447 0 .769.174.949.51.259.502.133 1.23-.07 1.537a.053.053 0 000 .049c.016.016.031.016.047.008.016 0 1.545-.628 1.451-2.001.196-.031 1.114-.22 1.467-.909.008-.018.008-.032 0-.04-.023-.039-.62-.815-1.467-.815-.008 0-.016.008-.023.008.039-.172.141-.72-.142-1.222-.228-.393-.635-.659-1.224-.801 0 0-.031.009-.039.017-.008.016-.008.031-.008.039.008.008.369.895.031 1.436-.165.259-.455.398-.871.424h-.243c-.573 0-1.914.078-2.44.839l-.172-4.706s-.063-.33.172-.644c.259-.33.738-.518 1.436-.557h.157c.274 0 .824.04 1.389.291.016.008.031.008.039 0 .016-.009.023-.023.016-.04 0-.023-.384-2.408-3.067-2.408a4.45 4.45 0 00-.455.024c.314-.204.941-.715.941-1.695 0-.017.04-1.82-1.859-3.341-.008-.017-.032-.017-.047 0-1.898 1.521-1.859 3.325-1.859 3.341 0 .98.627 1.491.949 1.695a4.289 4.289 0 00-.455-.024c-2.683 0-3.067 2.385-3.075 2.408 0 .016.008.031.016.04.016.008.023.008.039 0a3.587 3.587 0 011.396-.291h.157c.69.04 1.176.228 1.428.557.243.306.18.644.18.651l-.172 4.698c-.526-.761-1.875-.839-2.44-.839h-.251c-.416-.023-.706-.165-.863-.424-.337-.541.023-1.428.023-1.436.008-.008.008-.023-.008-.039a.059.059 0 00-.039-.017c-.581.142-.996.408-1.216.801-.291.502-.188 1.05-.141 1.222-.008 0-.016-.008-.032-.008-.847 0-1.435.776-1.459.815-.008.008-.008.022-.008.04.361.689 1.271.878 1.475.909-.094 1.373 1.436 2.001 1.451 2.001.016.008.031.008.039-.008.016-.016.016-.032.008-.049-.212-.307-.337-1.035-.071-1.537.181-.336.495-.51.949-.51.4 0 .706.116.902.346.337.385.267.957.267.965-.314 1.953-1.969 2.165-2.659 2.165-.235 0-.384-.023-.384-.023-1.177-.172-1.985-.635-2.393-1.396-.792-1.436.109-3.451.125-3.475l8.142-17.299 8.15 17.299c.008.021.91 2.039.126 3.475-.416.762-1.216 1.225-2.393 1.396-.008 0-.157.023-.385.023-.695.001-2.342-.211-2.664-2.164zm-2.832.84c1.177 2.645 3.436 3.279 4.691 3.428-1.255.143-3.515.776-4.691 3.412-1.176-2.636-3.428-3.271-4.69-3.412 1.262-.149 3.514-.786 4.69-3.428zm-2.832 7.687s.071.58-.267.965c-.196.229-.502.346-.902.346-.455 0-.769-.172-.949-.512-.267-.502-.141-1.229.071-1.535.008-.018.008-.039-.008-.049-.008-.016-.023-.016-.039-.016-.016.008-1.545.635-1.451 2.008-.204.031-1.114.222-1.475.91 0 .016 0 .031.008.047.024.031.612.801 1.459.801h.032c-.047.174-.149.723.141 1.225.22.395.635.667 1.216.801a.058.058 0 00.039-.016c.016-.01.016-.031.008-.04 0-.009-.361-.896-.023-1.437.157-.26.447-.398.863-.424h.251c.565 0 1.914-.078 2.44-.84l.172 4.707s.063.329-.18.645c-.251.328-.729.519-1.428.558 0 0-.063.008-.157.008-.275 0-.824-.047-1.396-.298-.016-.008-.023-.008-.039 0a.054.054 0 00-.016.039c.008.021.392 2.406 3.075 2.406.141 0 .298-.008.455-.021-.322.204-.949.715-.949 1.694 0 .022-.04 1.817 1.859 3.342.016.017.04.017.047 0 1.898-1.521 1.859-3.317 1.859-3.342 0-.979-.627-1.49-.941-1.694.157.018.306.021.455.021a2.955 2.955 0 003.067-2.406c.008-.018 0-.031-.016-.039-.008-.008-.023-.008-.039 0a3.567 3.567 0 01-1.389.298c-.102 0-.157-.008-.157-.008-.698-.039-1.176-.229-1.428-.558-.243-.308-.18-.645-.18-.65l.172-4.699c.526.762 1.867.842 2.44.842h.243c.416.021.706.162.871.424.337.541-.023 1.426-.031 1.435 0 .009 0 .032.008.04a.12.12 0 00.023.016c.604-.134 1.012-.408 1.239-.801.283-.502.181-1.051.142-1.225h.023c.847 0 1.443-.77 1.467-.799.008-.018.008-.031 0-.047-.353-.69-1.271-.881-1.467-.91.094-1.373-1.436-2-1.451-2.008-.016 0-.031 0-.047.016-.008.008-.008.031 0 .047.204.306.329 1.035.07 1.537-.181.338-.502.51-.949.51-.4 0-.706-.117-.91-.346-.337-.385-.267-.957-.267-.957.322-1.961 1.969-2.172 2.667-2.172.228 0 .377.021.385.021 1.177.165 1.977.637 2.393 1.396.784 1.437-.118 3.459-.126 3.476l-8.15 17.297-8.142-17.297c-.016-.017-.918-2.039-.125-3.476.408-.76 1.216-1.23 2.393-1.396 0 0 .149-.021.384-.021.688-.005 2.343.208 2.657 2.161z" fill="#FCC517"/><g fill="#FCC517"><path d="M120.51 165.575c3.97 2.353 5.06 4.456 5.06 4.456s6.08 1.191 8.99 1.404c1.247.086 2.58.358 3.859.799.776-.901 1.451-1.678 2.078-2.281-.541-.4-1.066-.645-1.615-.698-1.711-.165-32.107-2.526-39.419-34.42 0 0-3.741-3.138-1.31 8.245 0 0-2.268-3.467-3.672-10.425 0 0-2.181-4.071-2.393.564-.211 4.636 4.354 13.069 4.354 13.069s-3.091-1.969-5.829-7.24c0 0-1.333-1.961-2.737-1.122-1.412.847.274 3.09.274 3.09s5.978 9.279 7.664 10.189c0 0-4.009-2.04-7.1-5.828 0 0-1.121-1.757-2.455-.564 0 0-.988.564 2.526 4.142 3.514 3.584 7.444 6.887 7.444 6.887s-.047 1.239-4.542-1.545-.023 2.573-.023 2.573 4.032 3.443 7.546 5.248c0 0-.4.494-2.887.235-2.479-.26 2.322 1.992 2.322 1.992s3.797 1.311 4.236 1.311c0 0-1.451.683-3.931.518 0 0 .377 1.31 6.629 2.149 0 0-2.204.533-3.209.604-1.012.071-.329.684.604.777.941.094 4.754.354 5.97 1.333 0 0-2.291 1.45-2.997 1.356 0 0 6.487 5.248 14.826 4.269 0 0-6.205-.802-10.315-4.729l.385-1.828s-1.758.385-2.738-.848l.809-.949s-2.919-.91-3.06-1.789c0 0 1.161-.523-.416-1.292-1.584-.776-2.745-1.373-2.745-1.373l1.302-.425-5.373-3.615 2.07-.455s-3.231-2.182-2.737-4.079c0 0 1.161-.172 2.737.706 0 0-2.039-2.354-2.141-4.746 0 0 3.475-1.192 8.11 3.624 4.645 4.809 4.009 5.727 4.009 5.727s5.87 2.622 9.84 4.984zM157.183 179.968s.313 1.547-1.897 1.789c0 0 1.858 1.797-2.464 2.816 0 0-2.495.627-9.131.627-6.637 0-9.414 1.726-9.869 4.221 0 0 .698 1.264 5.092-2.04 0 0-.385 2.456.424 2.526.808.07 3.161-2.77 3.161-2.77s-.181 2.666.98 2.736c1.161.068 3.23-2.707 3.23-2.707s-.172 2.534.736 2.534c.918 0 2.676-2.494 2.676-2.494s.525 2.212 1.615 2c1.083-.212 2.143-2.108 2.143-2.108s.979 1.584 2.072 1.373c1.09-.214 2.319-2.496 2.319-2.496s.628 1.688 1.478 1.477c.838-.212 1.856-2.738 1.856-2.738s2.001 1.719 3.334 1.053c1.334-.668 1.062-3.406 1.062-3.406s1.93 1.932 4.25 1.154c2.313-.77 1.646-2.88 1.646-2.88s-8.987-1.897-14.713-.667zM143.722 98.176a2.005 2.005 0 01-4.009 0c0-1.105 1.945-8.292 2-8.292.048 0 2.009 7.186 2.009 8.292zM143.722 156.35a2.013 2.013 0 00-2.009-2.009c-1.105 0-2 .902-2 2.009 0 1.105 1.945 8.292 2 8.292.048 0 2.009-7.185 2.009-8.292zM138.003 98.34a2.002 2.002 0 01-1.569 2.361 2.006 2.006 0 01-2.353-1.577c-.22-1.083.282-8.511.345-8.527.039-.007 3.365 6.661 3.577 7.743zM149.354 155.401a2.003 2.003 0 00-2.354-1.577 2.01 2.01 0 00-1.576 2.354c.22 1.09 3.521 7.758 3.584 7.742.039-.008.565-7.437.346-8.519zM132.434 99.619a2.006 2.006 0 01-3.703 1.537c-.423-1.021-1.372-8.401-1.317-8.425.038-.022 4.596 5.869 5.02 6.888zM154.696 153.37a2 2 0 00-3.695 1.529c.416 1.02 4.967 6.919 5.021 6.896.039-.016-.902-7.406-1.326-8.425zM127.225 101.965a2.004 2.004 0 01-3.334 2.228c-.612-.925-2.988-7.978-2.941-8.009.038-.024 5.655 4.863 6.275 5.781zM159.543 150.333a2.005 2.005 0 10-3.334 2.228c.619.917 6.222 5.813 6.274 5.78.041-.022-2.328-7.091-2.94-8.008zM122.565 105.275a2.009 2.009 0 010 2.84 2.014 2.014 0 01-2.832 0c-.785-.784-4.495-7.24-4.448-7.28.031-.031 6.495 3.664 7.28 4.44zM163.702 146.411a1.999 1.999 0 00-2.832 0 1.997 1.997 0 000 2.832c.784.785 7.232 4.495 7.279 4.448.032-.031-3.664-6.495-4.447-7.28zM118.643 109.44a1.997 1.997 0 01.55 2.777 2.003 2.003 0 01-2.777.549c-.918-.612-5.813-6.221-5.781-6.268.022-.039 7.09 2.323 8.008 2.942zM167.02 141.752a2.016 2.016 0 00-2.785.557 2.006 2.006 0 00.559 2.776c.918.612 7.961 2.989 8.008 2.942.014-.039-4.864-5.655-5.782-6.275zM115.606 114.281a1.998 1.998 0 011.083 2.612 1.997 1.997 0 01-2.612 1.083c-1.02-.423-6.919-4.965-6.896-5.021.017-.039 7.406.902 8.425 1.326zM169.357 136.543c-1.021-.423-2.196.063-2.62 1.083s.063 2.196 1.09 2.612c1.021.424 8.396 1.381 8.418 1.326.015-.04-5.868-4.597-6.888-5.021zM113.575 119.623a2.007 2.007 0 011.577 2.354 2.011 2.011 0 01-2.354 1.577c-1.091-.22-7.759-3.522-7.743-3.585.009-.049 7.438-.566 8.52-.346zM170.635 130.974a1.997 1.997 0 00-2.354 1.569 1.994 1.994 0 001.569 2.353c1.09.22 8.503-.282 8.52-.345.007-.04-6.653-3.366-7.735-3.577zM112.626 125.255c1.106 0 2.008.902 2.008 2.008s-.901 2-2.008 2c-1.105 0-8.291-1.945-8.291-2 0-.047 7.186-2.008 8.291-2.008zM170.809 125.255c-1.114 0-2.01.902-2.01 2 0 1.114.896 2.008 2.002 2.008 1.104 0 8.283-1.945 8.283-2 .008-.047-7.178-2.008-8.275-2.008z"/><g><path d="M112.799 130.974a2 2 0 012.354 1.569 2.012 2.012 0 01-1.577 2.361c-1.082.211-8.511-.291-8.52-.354-.008-.039 6.652-3.365 7.743-3.576zM169.859 119.623a1.995 1.995 0 00-1.577 2.354 2.008 2.008 0 002.354 1.577c1.082-.22 7.742-3.522 7.734-3.585-.008-.049-7.429-.566-8.511-.346z"/></g><g><path d="M114.077 136.543c1.02-.423 2.188.063 2.612 1.083s-.063 2.188-1.083 2.62c-1.02.416-8.4 1.373-8.425 1.318-.015-.04 5.877-4.597 6.896-5.021zM167.827 114.281a1.996 1.996 0 00-1.09 2.612 2.002 2.002 0 002.62 1.083c1.021-.423 6.911-4.965 6.888-5.021-.016-.039-7.398.902-8.418 1.326z"/></g><g><path d="M116.415 141.752a2.005 2.005 0 012.777.557 1.997 1.997 0 01-.55 2.776c-.918.612-7.97 2.989-8.009 2.942-.023-.039 4.864-5.655 5.782-6.275zM164.792 109.433a2.02 2.02 0 00-.558 2.785 2.003 2.003 0 002.776.549c.927-.612 5.82-6.221 5.773-6.268-.013-.04-7.074 2.322-7.991 2.934z"/></g><g><path d="M119.733 146.411a1.999 1.999 0 012.832 0 1.999 1.999 0 010 2.832c-.785.785-7.241 4.495-7.28 4.448-.031-.031 3.663-6.495 4.448-7.28zM160.87 105.275a1.997 1.997 0 000 2.832 2.006 2.006 0 002.832.008c.783-.784 4.486-7.24 4.447-7.28-.031-.031-6.503 3.664-7.279 4.44z"/></g><g><path d="M123.891 150.333a1.997 1.997 0 012.777-.549 2.006 2.006 0 01.557 2.777c-.62.917-6.229 5.813-6.275 5.78-.04-.022 2.328-7.091 2.941-8.008zM156.209 101.965a2 2 0 00.558 2.777 2.004 2.004 0 002.776-.549c.61-.925 2.987-7.978 2.94-8.009-.037-.024-5.662 4.863-6.274 5.781z"/></g><g><path d="M128.73 153.37a2.01 2.01 0 012.62-1.083 1.997 1.997 0 011.083 2.612c-.424 1.02-4.966 6.919-5.021 6.896-.038-.016.896-7.406 1.318-8.425zM150.993 99.619a2.014 2.014 0 001.092 2.62 1.997 1.997 0 002.611-1.083c.424-1.021 1.381-8.401 1.325-8.425-.039-.022-4.604 5.869-5.028 6.888z"/></g><g><path d="M134.081 155.401a1.998 1.998 0 012.353-1.577 1.996 1.996 0 011.569 2.354c-.212 1.09-3.522 7.758-3.577 7.742-.047-.008-.565-7.437-.345-8.519zM145.424 98.34a2.013 2.013 0 001.576 2.361 2.008 2.008 0 002.354-1.577c.221-1.083-.282-8.511-.346-8.527-.047-.007-3.364 6.661-3.584 7.743z"/></g><path d="M165.615 127.263c0 13.194-10.7 23.894-23.902 23.894-13.194 0-23.894-10.7-23.894-23.894 0-13.202 10.699-23.902 23.894-23.902 13.202 0 23.902 10.7 23.902 23.902zM197.221 144.811c-1.334-1.192-2.463.564-2.463.564-3.092 3.789-7.092 5.828-7.092 5.828 1.687-.91 7.654-10.189 7.654-10.189s1.688-2.243.282-3.09c-1.403-.839-2.735 1.122-2.735 1.122-2.746 5.271-5.839 7.24-5.839 7.24s4.565-8.433 4.354-13.069c-.202-4.636-2.383-.564-2.383-.564-1.404 6.958-3.682 10.425-3.682 10.425 2.438-11.382-1.311-8.245-1.311-8.245-7.305 31.895-37.699 34.255-39.409 34.42-1.703.164-3.232 2.182-5.782 5.13-2.549 2.949-5.852 3.515-8.621 4.755-2.761 1.238-1.984 2.394-1.984 2.394-3.004 1.284-1.71 3.554-1.71 3.554.282-1.1 1.805-1.191 1.805-1.191-.377.471-.283.848-.283.848.793-.706 7.609-1.389 13.14-.988 5.522.4 5.099-.047 5.099-.047-.479-.432-4.142-.307-4.142-.307-2.659-.063-3.749-.697-3.749-.697-1.836.861-3.123.008-3.123.008l1.373-1.577-1.105-.22 1.898-1.459-5.225 1.199s.259.77-.541 1.296c-.793.532-1.538-.103-1.538-.103-.636.258-.871-.07-.871-.07.126-.221.644-.533 1.248-.823a.423.423 0 00-.032.142c0 .289.236.524.526.524s.533-.235.533-.524a.538.538 0 00-.313-.479c.808-.359 1.561-.644 1.561-.644s5.867-2.918 7.837-5.021c1.969-2.109 5.412-3.304 8.322-3.515 2.918-.213 8.996-1.403 8.996-1.403s1.093-2.104 5.062-4.456c3.972-2.361 9.837-4.989 9.837-4.989s-.636-.918 3.993-5.727c4.636-4.816 8.11-3.624 8.11-3.624-.104 2.393-2.143 4.746-2.143 4.746 1.584-.878 2.745-.706 2.745-.706.485 1.897-2.745 4.079-2.745 4.079l2.078.455-5.381 3.616 1.302.424s-1.159.596-2.737 1.373c-1.584.769-.424 1.292-.424 1.292-.142.879-3.06 1.789-3.06 1.789l.815.949c-.988 1.23-2.746.848-2.746.848l.394 1.828c-4.11 3.93-10.315 4.729-10.315 4.729 8.34.979 14.818-4.269 14.818-4.269-.697.094-2.997-1.356-2.997-1.356 1.224-.979 5.036-1.239 5.97-1.333.941-.096 1.616-.706.612-.777-1.012-.07-3.209-.604-3.209-.604 6.252-.84 6.629-2.149 6.629-2.149-2.485.165-3.938-.518-3.938-.518.447 0 4.236-1.31 4.236-1.31s4.809-2.251 2.321-1.993c-2.479.259-2.879-.235-2.879-.235 3.515-1.804 7.538-5.248 7.538-5.248s4.472-5.357-.023-2.573c-4.494 2.785-4.541 1.545-4.541 1.545s3.938-3.303 7.443-6.887c3.521-3.579 2.54-4.143 2.54-4.143z"/></g></svg>