<svg xmlns="http://www.w3.org/2000/svg" viewBox="2.84 48.38 277.79 186.71"><path fill="#D6D4D1" d="M2.835 48.375h277.794v186.714H2.835z"/><path fill="#E42528" d="M5.236 187.156h273.253v45.537H5.236zM5.236 50.536h273.253v45.537H5.236z"/><path fill="#FFF" d="M5.22 96.082h273.27v91.082H5.22z"/><path d="M170.77 157.495c-2.197-1.475-2.244-2.485-.109-3.819 2.117-1.333 3.891.148 6.196 1.442 2.29 1.303 5.287 0 5.287 0s-6.479-4.823-8.974-7.601c-2.479-2.769-4.676-2.698-4.676-2.698s-3.313.211-3.813-.973c-.502-1.192 4.958-1.514 4.958-1.514s7.97.22 8.283-1.083c.33-1.294-7.342-3.06-7.342-3.06s-6.371-1.263-5.899-2.557c.471-1.294 5.005-.361 7.516.11 2.525.471 2.854.172 2.636-.4-.22-.573-6.261-4.213-8.002-5.225-1.726-1.004-5.396-4.393-5.396-4.393s-1.772-2.016-4.581-3.24-1.979-2.306-1.979-2.306c1.555-1.726 4.865.22 4.865.22 3.67 1.224 7.12.722 7.12.722-6.321-2.526-9.489-6.197-9.489-6.197.752-.431 5.758 0 5.758 0-5.758-5.083-7.752-6.229-14.012-7.742-6.275-1.514-8.395-8.825-8.395-8.825s-2.196 4.173-5.538 6.73c-3.357 2.565-5.554 5.334-5.554 5.334s1.035-.51 3.311-1.043c2.274-.541 1.082.22.533 1.153-.533.933-5.68 3.561-5.68 3.561s-3.389 2.126-3.059 2.707c.313.573 1.004.251 1.004.251s1.663-.941 2.589.643c.94 1.593-.612 1.765-.612 1.765s-3.813.11-4.675 2.667c-.863 2.558-3.311 3.208-3.311 3.208s-6.135 3.24-7.358 4.613c-1.224 1.365.22 1.506 1.992 1.475 1.758-.039 4.534-2.165 6.01-.039 1.475 2.125.219 3.491-1.664 5.766-1.866 2.267-4.173 2.376-5.365 2.769-1.192.4-5.256 4.291-6.118 5.404-.863 1.114-3.17 1.043-.612 2.487 2.558 1.444 4.863-1.043 4.863-1.043s2.26-3.169 4.645-.471c2.369 2.698-2.056 4.533-4.896 6.048-2.855 1.514-6.448 5.083-8.174 6.848-1.726 1.766-4.33 1.153-4.33 1.153s1.663 2.228 6.229 1.333c4.581-.902 7.201-3.608 10.888-4.942 3.672-1.326 4.503 1.404 2.919 3.279-1.585 1.875-11.093 4.04-14.309 5.695-3.2 1.654 2.416 2.376 2.416 2.376 3.53.792 11.626-2.988 15.344-4.651 3.719-1.655 4.612-1.404 6.009-.753 1.412.651 3.279 2.125 2.855 5.296-.439 3.168-4.142 7.672-4.142 7.672s-3.468 4-6.229 4.394c-2.777.394-4.252 2.126-4.252 2.126s-2.354 2.589-1.632 2.697c.722.109 1.02-.394 2.887-2.017 1.867-1.616 4.503-1.295 7.201-1.797 2.699-.502 5.084-2.81 5.946-3.601.863-.793 3.2-1.766 4.142-1.514.942.25.941.83 2.307.83s2.369-.511 2.369-.511 1.804-.792 1.945.832c.142 1.623 1.379 2.269 1.379 2.269s.754.432 3.703 2.918c2.949 2.479 1.584-.07.832-1.545-.754-1.482.03-1.014 3.813-.975 3.778.031 4.862 1.943 4.862 1.943s2.022 3.201 4.645 3.162c2.637-.03-2.811-3.994-2.811-3.994s-4.61-4.18-6.619-7.489c-2.023-3.312-.221-10.81-.221-10.81 2.118-3.922 5.478-.862 5.478-.862 2.087 2.094 9.005 1.693 11.53 1.514 2.511-.18 6.086.212 10.842 3.781 4.754 3.567 5.787 1.835 5.787 1.835 1.638-3.666-11.871-9.863-14.066-11.338zm-23.314-30.648c-.754 2.267-2.307 1.365-2.979 1.083-.688-.291.862-2.346 2.008-2.887 1.159-.542.971 1.804.971 1.804zm-1.946-10.52c1.554-.031 1.412 1.584 1.412 1.584s-.801.573-2.309.291c-1.519-.289-.64-1.836.897-1.875zm-4.424 11.344l-2.777-.973s2.997-2.157 4.393-1.185c1.411.973-1.616 2.158-1.616 2.158zm-11.092-11.735c.172-1.514 1.584-1.083 1.584-1.083s1.726.141 0 1.757c-1.725 1.624-1.772.831-1.584-.674zm1.866 5.185s2.275-2.597 3.248-1.514-1.192 3.24-1.192 3.24-.33.542-3.028 1.294c-2.699.76.972-3.02.972-3.02zm-5.334 22.545c-.424 2.195-6.872 3.671-7.53 3.099-.644-.581-1.789-3.53-1.789-3.53s9.759-1.766 9.319.431zm-4.094-12.536s-2.087-2.016.393-2.957c2.479-.934 4 3.569 4 3.569-2.887 1.946-4.393-.612-4.393-.612zm7.765 25.965c-1.035.259-2.541-3.201-2.29-4.824.251-1.616 2.698.471 2.698.471.833 1.545.644 4.102-.408 4.353zm-.344-27.047c-1.521 1.914-1.914.219-1.914.219s-.188-.219-.581-1.655c-.392-1.443.91-1.334 2.966-1.412 2.038-.071 1.034.941-.471 2.848zm1.647 8.142c-.251-1.192 2.274.141 2.274.141s1.287 1.554.534 1.805c-.753.25-2.557-.761-2.808-1.946zm4.754 17.83c-.22 1.514-1.475-.29-1.475-.29s-1.443-1.616-.754-2.236c.69-.611 1.945.832 1.945.832s.504.18.284 1.694zm.831-35.911c-1.082-1.333 1.757-2.558 3.702-3.381 1.946-.831 1.271 2.048 1.271 2.048s-3.89 2.666-4.973 1.333zm.753 18.371s-.722-1.083.393-1.945c1.13-.863 1.302.894 1.302.894-.424 3.57-1.695 1.051-1.695 1.051zm4.832 14.873c-.219.902-2.496 3.71-2.496 3.71s-2.008-4.071-1.035-4.503c.974-.43 3.751-.109 3.531.793zm-.282-11.453c-1.443-1.153-1.082-1.875-.267-3.42.833-1.553 2.211 1.436 2.211 1.436 1.288 2.707-.517 3.137-1.944 1.984zm4.456.934s-1.586-.753-.863-2.228c.723-1.483 1.412 1.145 1.412 1.145.423 1.664-.549 1.083-.549 1.083zm10.088-7.703c.471-2.095 2.918-1.302 2.918-1.302s1.051.039.863 1.655c-.174 1.624-1.365 1.553-1.365 1.553s-2.887.18-2.416-1.906zm-8.205-16.967c.063-1.694 2.697-1.475 2.697-1.475.974 1.906-.438 2.487-.909 2.738-.472.25-1.868.43-1.788-1.263zm2.76 12.065s-2.29-.322-1.727-2.086c.58-1.765 3.531-1.334 3.531-1.334s2.164-.141 1.803 2.377c-.359 2.524-3.607 1.043-3.607 1.043zm8.833 20.527c-2.165 1.481-3.42 1.043-4.832.369-1.396-.69-.753-1.412-.753-1.412s3.702-2.667 5.836-1.766c2.118.903-.251 2.809-.251 2.809zm6.511 3.248s-1.726-.221-3.168-.541c-1.442-.322-.502-1.985 1.334-3.208 1.834-1.225 1.978-1.043 3.748.109 1.773 1.153-1.914 3.64-1.914 3.64z" fill="#1EA451"/></svg>