<svg xmlns="http://www.w3.org/2000/svg" viewBox="2.84 48.38 277.79 186.71"><path fill="#D6D4D1" d="M2.835 48.376h277.793v186.712H2.835z"/><path fill="#102F7A" d="M5.11 50.562h273.228v91.073H5.11z"/><path fill="#CD0E26" d="M5.11 141.643h273.228v91.081H5.11z"/><path d="M68.767 74.047c-2.29 0-4.157 1.859-4.157 4.149s1.867 4.15 4.157 4.15c2.291 0 4.142-1.859 4.142-4.15s-1.851-4.149-4.142-4.149M67.355 69.404c0-.228.063-.439.165-.627l-2.33-1.248-3.499 1.875 3.499 1.867 2.33-1.248a1.307 1.307 0 01-.165-.619zM68.767 67.992c.22 0 .424.071.62.165l1.247-2.33-1.867-3.499-1.875 3.499 1.247 2.33c.189-.095.393-.165.628-.165zM72.344 67.529l-2.337 1.248c.094.188.165.4.165.627 0 .22-.07.432-.165.62l2.337 1.248 3.491-1.867-3.491-1.876zM65.833 100.083l1.6-14.41-2.871-.142c-.063 6.315-1.538 12.677-2.558 16.364 1.194-.997 2.606-1.538 3.829-1.812z" fill="#FFD93D"/><path d="M64.445 88.262c.071-.902.118-1.82.118-2.73-10.025-2.204-21.604-6.448-27.777.439-4.981 5.554-2.644 13.971-1.553 17.022 2.032.055 3.593.91 4.746 1.969-5.632-12.3-1.365-16.677-1.365-16.677 5.537-6.614 24.599-.431 25.831-.023zM75.529 101.895c-1.028-3.687-2.495-10.049-2.573-16.364l-2.871.142 1.608 14.41c1.232.274 2.644.815 3.836 1.812z" fill="#FFD93D"/><path d="M100.741 85.971c-6.182-6.887-17.744-2.644-27.785-.439.016.91.063 1.828.125 2.73 1.232-.408 20.293-6.589 25.839.023 0 0 4.252 4.377-1.373 16.677 1.153-1.051 2.715-1.914 4.746-1.969 1.092-3.052 3.421-11.469-1.552-17.022zM68.767 82.542c.769 0 1.389.62 1.389 1.388a1.393 1.393 0 01-2.785 0c0-.767.628-1.388 1.396-1.388M32.275 99.26a1.961 1.961 0 110 3.922 1.961 1.961 0 010-3.922M31.647 95.211c1.083 0 1.961.878 1.961 1.961s-.878 1.953-1.961 1.953-1.961-.871-1.961-1.953c0-1.083.879-1.961 1.961-1.961M31.616 91.078c1.083 0 1.961.878 1.961 1.961s-.878 1.953-1.961 1.953-1.961-.871-1.961-1.953.879-1.961 1.961-1.961M32.495 87.108a1.961 1.961 0 110 3.922 1.961 1.961 0 010-3.922" fill="#FFD93D"/><path d="M34.393 83.5c1.09 0 1.969.878 1.969 1.961a1.961 1.961 0 01-1.969 1.953 1.953 1.953 0 01-1.953-1.953c0-1.083.871-1.961 1.953-1.961" fill="#FFD93D"/><path d="M37.35 80.714c1.083 0 1.954.879 1.954 1.961s-.871 1.961-1.954 1.961c-1.09 0-1.969-.878-1.969-1.961s.879-1.961 1.969-1.961" fill="#FFD93D"/><path d="M41.014 78.841a1.961 1.961 0 110 3.922 1.961 1.961 0 010-3.922" fill="#FFD93D"/><path d="M44.983 78.072c1.083 0 1.961.871 1.961 1.953a1.961 1.961 0 01-3.922 0c0-1.083.878-1.953 1.961-1.953M49.062 78.205a1.962 1.962 0 11-.001 3.923 1.962 1.962 0 01.001-3.923" fill="#FFD93D"/><path d="M53.031 78.786a1.962 1.962 0 11-.001 3.923 1.962 1.962 0 01.001-3.923" fill="#FFD93D"/><path d="M57.079 79.506a1.962 1.962 0 11-.001 3.923 1.962 1.962 0 01.001-3.923M65.057 81.39a1.962 1.962 0 11-.001 3.923 1.962 1.962 0 01.001-3.923" fill="#FFD93D"/><path d="M61.048 80.542a1.961 1.961 0 110 3.922 1.961 1.961 0 010-3.922M105.243 99.26a1.962 1.962 0 10.001 3.923 1.962 1.962 0 00-.001-3.923M105.871 95.211c-1.083 0-1.953.878-1.953 1.961s.87 1.953 1.953 1.953 1.961-.871 1.961-1.953a1.961 1.961 0 00-1.961-1.961M105.902 91.078c-1.082 0-1.961.878-1.961 1.961s.879 1.953 1.961 1.953c1.083 0 1.961-.871 1.961-1.953s-.878-1.961-1.961-1.961M105.023 87.108a1.962 1.962 0 10.001 3.923 1.962 1.962 0 00-.001-3.923" fill="#FFD93D"/><path d="M103.126 83.5a1.962 1.962 0 00-1.962 1.961 1.96 1.96 0 001.962 1.953 1.96 1.96 0 001.961-1.953 1.962 1.962 0 00-1.961-1.961" fill="#FFD93D"/><path d="M100.176 80.714c-1.09 0-1.961.879-1.961 1.961s.871 1.961 1.961 1.961a1.961 1.961 0 000-3.922" fill="#FFD93D"/><path d="M96.505 78.841a1.961 1.961 0 100 3.922 1.961 1.961 0 000-3.922" fill="#FFD93D"/><path d="M92.535 78.072a1.956 1.956 0 00-1.961 1.953 1.962 1.962 0 003.923 0 1.955 1.955 0 00-1.962-1.953M88.456 78.205c-1.082 0-1.961.879-1.961 1.961s.879 1.961 1.961 1.961a1.961 1.961 0 000-3.922" fill="#FFD93D"/><path d="M84.487 78.786a1.962 1.962 0 10.001 3.923 1.962 1.962 0 00-.001-3.923" fill="#FFD93D"/><path d="M80.44 79.506a1.962 1.962 0 10.001 3.923 1.962 1.962 0 00-.001-3.923M72.462 81.39a1.961 1.961 0 100 3.922 1.961 1.961 0 000-3.922" fill="#FFD93D"/><path d="M76.471 80.542a1.961 1.961 0 100 3.922 1.961 1.961 0 000-3.922" fill="#FFD93D"/><path d="M100.545 103.251l1.2-3.562.078-7.852-1.49-4.299s-3.311-2.808-3.562-2.808c-.235 0-5.114-.832-5.114-.832h-6.041l-6.369 1.49-7.437 1.906 1.71 13.375c-2.361-1.02-4.754-.871-4.754-.871s-2.4-.149-4.769.871l1.718-13.375-7.444-1.906-6.362-1.49h-6.032s-4.879.832-5.13.832c-.243 0-3.554 2.808-3.554 2.808l-1.49 4.299.086 7.852 1.192 3.562c-2.166-.612-5.036-.282-8.723 2.165 0 0 3.875 4.134 6.275 11.406 2.4 7.28 4.958 9.178 4.958 9.178s4.142 3.883 28.773 3.883h.996c24.639 0 28.765-3.883 28.765-3.883s2.565-1.898 4.958-9.178c2.4-7.271 6.291-11.406 6.291-11.406-3.701-2.446-6.556-2.775-8.729-2.165zM68.767 74.047c.416 0 .808.086 1.192.196l.675-1.263-1.255-2.33a1.366 1.366 0 01-.612.157c-.235 0-.439-.063-.627-.157l-1.247 2.33.682 1.263c.377-.109.769-.196 1.192-.196z" fill="#FFD93D"/><path d="M68.767 67.992c-.784 0-1.412.636-1.412 1.412a1.408 1.408 0 101.412-1.412" fill="#FFD93D"/><path d="M109.479 105.104c-1.146-.753-2.243-1.326-3.311-1.742a2.333 2.333 0 001.412-2.142 2.34 2.34 0 00-.941-1.859 2.324 2.324 0 001.569-2.188c0-.902-.519-1.671-1.255-2.063a2.34 2.34 0 001.286-2.071 2.335 2.335 0 00-1.679-2.236c.486-.423.8-1.043.8-1.733a2.337 2.337 0 00-2.29-2.33 2.332 2.332 0 00-1.945-3.616c-.252 0-.471.047-.69.118.039-.188.078-.369.078-.564a2.343 2.343 0 00-2.338-2.338c-.502 0-.957.157-1.333.424a2.35 2.35 0 00-2.338-2.298 2.29 2.29 0 00-1.757.823 2.332 2.332 0 00-2.213-1.592c-.909 0-1.694.526-2.07 1.287a2.337 2.337 0 00-2.009-1.153 2.34 2.34 0 00-2.157 1.459 2.317 2.317 0 00-1.812-.878 2.33 2.33 0 00-2.212 1.632 2.31 2.31 0 00-1.835-.91c-1.098 0-2.008.769-2.259 1.789a2.328 2.328 0 00-1.71-.753 2.325 2.325 0 00-2.228 1.687 2.33 2.33 0 00-1.781-.839c-.07 0-.133.016-.196.023a4.505 4.505 0 001.02-2.84 4.521 4.521 0 00-2.785-4.173l.463-.863a.353.353 0 000-.353l-1.098-2.047c.102-.078.18-.157.259-.251l2.047 1.09a.34.34 0 00.172.047.373.373 0 00.181-.047l3.491-1.867a.378.378 0 00.196-.33.36.36 0 00-.196-.33l-3.491-1.875a.398.398 0 00-.353 0L70.124 68.3a1.983 1.983 0 00-.251-.259l1.09-2.04a.353.353 0 000-.353l-1.867-3.491a.371.371 0 00-.659-.008l-1.875 3.499a.398.398 0 000 .353l1.09 2.04a1.92 1.92 0 00-.251.251l-2.04-1.09a.381.381 0 00-.345 0l-3.506 1.875a.373.373 0 00-.196.33c0 .133.079.259.196.33l3.506 1.867c.047.031.11.047.173.047s.125-.016.172-.047l2.04-1.09c.079.094.157.173.251.251l-1.09 2.047a.398.398 0 000 .353l.463.863a4.534 4.534 0 00-2.785 4.173c0 1.083.392 2.063 1.027 2.84-.07-.008-.141-.023-.211-.023-.714 0-1.342.33-1.781.839a2.318 2.318 0 00-2.228-1.687c-.675 0-1.278.29-1.71.753-.251-1.02-1.161-1.789-2.259-1.789a2.31 2.31 0 00-1.835.91 2.332 2.332 0 00-2.212-1.632 2.32 2.32 0 00-1.812.878 2.34 2.34 0 00-2.157-1.459c-.855 0-1.6.471-2.008 1.153a2.31 2.31 0 00-2.071-1.287 2.332 2.332 0 00-2.212 1.592 2.292 2.292 0 00-1.757-.823 2.35 2.35 0 00-2.337 2.298 2.282 2.282 0 00-1.326-.424 2.345 2.345 0 00-2.345 2.338c0 .196.039.376.086.564a2.306 2.306 0 00-.698-.118 2.337 2.337 0 00-2.33 2.338c0 .471.149.91.385 1.278a2.338 2.338 0 00-2.291 2.33c0 .69.314 1.31.8 1.733a2.335 2.335 0 00-1.679 2.236c0 .902.534 1.687 1.287 2.071a2.326 2.326 0 00-1.255 2.063c0 1.012.659 1.875 1.568 2.188a2.34 2.34 0 00-.941 1.859 2.34 2.34 0 001.427 2.149c-1.074.408-2.181.98-3.318 1.734a.388.388 0 00-.165.267c-.016.11.023.22.094.306.047.04 3.859 4.15 6.205 11.265 2.408 7.303 4.981 9.28 5.06 9.335.173.165 4.519 3.985 29.024 3.985h.996c24.498 0 28.852-3.82 28.993-3.962.11-.078 2.69-2.055 5.091-9.358 2.338-7.099 6.166-11.225 6.197-11.272a.38.38 0 00.11-.298.369.369 0 00-.173-.267zm-2.651-3.883a1.585 1.585 0 11-3.17-.001 1.585 1.585 0 013.17.001zm-2.902-9.407c-.047-.267-.11-.526-.173-.792.188.125.393.212.612.274a2.173 2.173 0 00-.439.518zm.266 2.793c.173.196.393.361.628.486a2.612 2.612 0 00-.644.486c.016-.32.016-.642.016-.972zm-.297 3.782c.156.243.345.463.58.635a2.316 2.316 0 00-.792.471c.07-.361.148-.723.212-1.106zm3.561-1.217c0 .871-.706 1.584-1.585 1.584a1.596 1.596 0 01-1.585-1.584c0-.879.722-1.593 1.585-1.593a1.588 1.588 0 011.585 1.593zm.031-4.133a1.585 1.585 0 11-3.17-.001 1.585 1.585 0 013.17.001zm-2.464-5.555a1.585 1.585 0 110 3.167 1.585 1.585 0 010-3.167zm-1.568 15.22c-.204-.023-.424-.071-.628-.079.063-.204.142-.423.212-.659.087.275.228.526.416.738zm-.329-18.828a1.59 1.59 0 011.584 1.584 1.589 1.589 0 01-3.177 0c0-.878.714-1.584 1.593-1.584zm-.048 3.915c-.125.181-.22.384-.282.596a6.78 6.78 0 00-.376-.714c.212.071.423.11.658.118zm-2.902-6.699c.871 0 1.585.706 1.585 1.584a1.59 1.59 0 01-1.585 1.584 1.585 1.585 0 010-3.168zm.612 4.401c-.157-.172-.33-.337-.494-.494.195-.008.384-.047.572-.102a2.24 2.24 0 00-.078.565v.031zm-4.283-6.276a1.584 1.584 0 110 3.168 1.584 1.584 0 010-3.168zm1.435 4.103c-.228-.118-.463-.212-.698-.314.212-.07.416-.165.597-.29 0 .212.047.414.101.604zm-3.302-1.131a15.332 15.332 0 00-.91-.165c.22-.125.408-.29.581-.479.078.237.188.449.329.644zm-2.103-3.75c.879 0 1.585.714 1.585 1.584 0 .879-.706 1.593-1.585 1.593-.87 0-1.584-.714-1.584-1.593a1.59 1.59 0 011.584-1.584zm-1.992 2.778c.142.235.313.439.533.612h-.109c-.298 0-.604.016-.91.031.204-.189.36-.407.486-.643zm-2.087-2.636a1.585 1.585 0 010 3.169 1.59 1.59 0 01-1.584-1.584 1.59 1.59 0 011.584-1.585zm-1.804 3.044a2.2 2.2 0 00.502.471c-.282.039-.581.078-.863.118a2.44 2.44 0 00.361-.589zm-2.165-2.463a1.584 1.584 0 110 3.169 1.584 1.584 0 010-3.169zm-1.835 3.012c.181.228.4.424.651.573-.361.071-.729.149-1.09.22.196-.228.345-.494.439-.793zm-2.212-2.29a1.585 1.585 0 11-.003 3.17 1.585 1.585 0 01.003-3.17zm-1.702 3.169c.212.228.463.408.745.541-.376.094-.745.181-1.122.267.181-.236.306-.51.377-.808zm-2.267-2.135a1.584 1.584 0 110 3.167 1.584 1.584 0 010-3.167zm-1.773 3.083c.188.228.439.423.706.564-.384.094-.769.188-1.161.275.204-.241.361-.532.455-.839zm2.792.849c4.573-1.114 9.303-2.267 13.477-2.267 4.188 0 7.295 1.185 9.491 3.64 4.715 5.256 2.636 13.281 1.554 16.434a7.418 7.418 0 00-3.577 1.177c4.801-11.39.941-15.618.769-15.791-.047-.055-.109-.102-.157-.157-.016-.031-.047-.055-.078-.079-1.804-1.945-4.926-2.934-9.312-2.934-6.597 0-14.206 2.251-16.229 2.887a38.902 38.902 0 01-.078-1.93c1.356-.307 2.744-.643 4.14-.98zm21.643 14.692V89.321c.675 1.333 1.624 4.517 0 10.221zm-.745-11.265v13.555a38.465 38.465 0 01-1.239 3.028c-.377.369-.706.753-1.013 1.137V86.731c.91.4 1.655.918 2.252 1.546zm-2.997 18.771c-.094.157-.188.313-.267.455-.22-2.809-1.051-4.581-1.992-5.711V85.885a13.62 13.62 0 012.259.557V107.048zm-3.004-21.265v15.258a5.25 5.25 0 00-2.252-1.138V85.634c.801.015 1.553.063 2.252.149zm-3.005-.158v14.222c-.784.016-1.537.125-2.243.298V85.72a37.109 37.109 0 012.243-.095zm-2.996.166v14.551c-.801.259-1.554.596-2.244.98V86.058a49.12 49.12 0 012.244-.267zm-2.997.376v15.618a14.95 14.95 0 00-2.25 1.796V86.575a57.009 57.009 0 012.25-.408zm-2.988 18.16a19.842 19.842 0 00-1.985 2.557 9.665 9.665 0 00-.291-1.537c0-.008.008-.016.008-.031V87.233a62.26 62.26 0 012.26-.51v17.572c0 .016.008.024.008.032zm-3.013-16.906v16.136a7.254 7.254 0 00-1.529-1.867 104.3 104.3 0 01-.722-2.847V88.025c.635-.179 1.396-.383 2.251-.604zm-12.449-1.497l2.079.11-1.53 13.759c-.917.228-1.914.588-2.855 1.177.981-3.726 2.181-9.398 2.306-15.046zm-1.804 9.35v-7.029c.392.118.706.22.91.283-.172 2.353-.518 4.643-.91 6.746zm3.271-10.025c.29-.204.525-.479.698-.792.126.408.393.722.738.949-.032.016-.079.032-.11.055-.008-.008 0-.023 0-.023a.434.434 0 00-.274-.133l-1.052-.056zm.793-2.824c.157.063.313.11.479.149-.134.102-.228.22-.322.353a2.375 2.375 0 00-.157-.502zm.549 1.507c0-.565.455-1.012 1.02-1.012a1.01 1.01 0 011.012 1.012 1.016 1.016 0 01-2.032 0zm2.674.532c.173.306.4.58.69.784l-1.043.055a.386.386 0 00-.267.133c-.008.008 0 .023-.008.031-.039-.031-.086-.039-.118-.063.354-.217.613-.539.746-.94zm-.572-1.889a5.36 5.36 0 00.471-.141 2.014 2.014 0 00-.149.486 1.876 1.876 0 00-.322-.345zm2.745 3.349c.11 5.648 1.318 11.319 2.291 15.045-.934-.588-1.93-.949-2.848-1.177l-1.53-13.759 2.087-.109zm.879 2.605c.22-.063.525-.165.91-.283v7.037a65.43 65.43 0 01-.91-6.754zm-1.012-6.762a1.584 1.584 0 010 3.169 1.584 1.584 0 110-3.169zm-4.73-12.363c0-.573.463-1.036 1.035-1.036a1.03 1.03 0 11-1.035 1.036zm4.612-1.451l2.699 1.451-2.699 1.443-1.883-1.012c.032-.142.079-.283.079-.432 0-.157-.047-.298-.079-.439l1.883-1.011zm-5.02-2.126l1.443-2.706 1.443 2.706-1.012 1.883c-.141-.039-.274-.086-.432-.086-.157 0-.298.047-.439.086l-1.003-1.883zm-2.134 5.02l-2.699-1.443 2.699-1.451 1.882 1.012c-.039.142-.094.283-.094.439 0 .149.055.29.094.432l-1.882 1.011zm3.138.251c.141.031.282.086.439.086.149 0 .283-.055.432-.086l1.012 1.883-.439.816a4.267 4.267 0 00-1.004-.125c-.345 0-.69.047-1.012.125l-.432-.816 1.004-1.883zm-3.342 7.099a3.78 3.78 0 013.781-3.773 3.773 3.773 0 11-3.781 3.773zm.071 3.57a1.584 1.584 0 110 3.169 1.584 1.584 0 010-3.169zm-1.781 3.075c-.392-.086-.769-.181-1.161-.275.274-.141.518-.337.706-.564.095.305.251.596.455.839zm-2.228-3.924a1.584 1.584 0 110 3.167 1.584 1.584 0 010-3.167zm-1.89 2.943c-.376-.094-.745-.18-1.122-.267.282-.133.534-.313.753-.541.063.298.189.572.369.808zm-2.079-3.977a1.585 1.585 0 010 3.169 1.585 1.585 0 010-3.169zm-1.773 3.083a44.672 44.672 0 00-1.09-.22c.251-.149.463-.345.651-.573.094.299.235.565.439.793zm-2.275-3.805a1.59 1.59 0 011.584 1.584 1.59 1.59 0 01-1.584 1.585 1.585 1.585 0 010-3.169zm-1.804 3.051c-.282-.04-.572-.079-.863-.118.196-.125.361-.291.502-.471.094.221.22.417.361.589zm-2.165-3.632c.871 0 1.584.714 1.584 1.585s-.713 1.584-1.584 1.584a1.585 1.585 0 010-3.169zm-2.079 2.636c.118.235.274.455.479.644a16.978 16.978 0 00-.895-.031c-.047 0-.078 0-.125.008.22-.181.4-.385.541-.621zm-2-2.778a1.59 1.59 0 010 3.177 1.587 1.587 0 01-1.584-1.593 1.584 1.584 0 011.584-1.584zm-1.765 3.107c.165.188.353.353.572.479-.313.047-.612.11-.91.165.142-.196.26-.408.338-.644zm-2.204-2.329a1.584 1.584 0 110 3.167 1.584 1.584 0 010-3.167zm-.73 3.788a9.472 9.472 0 00-.706.322c.055-.196.102-.4.102-.612.189.126.392.22.604.29zm6.283-.423c4.166 0 8.896 1.153 13.477 2.267 1.396.337 2.777.674 4.142.98a82.981 82.981 0 01-.078 1.93c-2.04-.635-9.649-2.887-16.238-2.887-4.4 0-7.53 1.004-9.319 2.934a.192.192 0 00-.063.071c-.047.047-.11.094-.141.149-.196.188-4.056 4.417.745 15.807a7.418 7.418 0 00-3.577-1.177c-1.083-3.146-3.161-11.17 1.553-16.434 2.196-2.455 5.303-3.64 9.499-3.64zm15.83 16.262a66.197 66.197 0 01-.737 2.847 7.401 7.401 0 00-1.522 1.867V87.421c.863.22 1.616.424 2.251.604v10.818h.008zm-2.996 6.503c-.125.471-.235.98-.29 1.537a19.375 19.375 0 00-1.984-2.549c0-.016.016-.023.016-.039V86.724c.784.165 1.545.337 2.251.51v18.082c-.001.008.007.022.007.031zm-3.012-18.772v17.007a15.304 15.304 0 00-2.244-1.796V86.167c.769.125 1.522.259 2.244.408zm-2.997-.511v15.265a11.558 11.558 0 00-2.243-.98V85.791c.753.07 1.506.164 2.243.273zm-2.996-.344v14.426a10.98 10.98 0 00-2.259-.298V85.625c.753.009 1.506.04 2.259.095zm-3.005-.086v14.269c-.502.102-1.373.4-2.251 1.138V85.783a22.166 22.166 0 012.251-.149zm-3.004.251v15.901c-.933 1.129-1.757 2.91-1.977 5.719-.079-.142-.181-.298-.283-.455 0-.008.016-.016.016-.023V86.434a13.425 13.425 0 012.244-.549zm-2.997.839v19.274a9.564 9.564 0 00-1.02-1.137 42.243 42.243 0 01-1.224-3.021V88.277c.597-.628 1.334-1.146 2.244-1.553zm-2.996 2.605V99.55c-1.616-5.687-.675-8.872 0-10.221zm-3.695 13.296c-.212.008-.423.055-.635.079.188-.22.33-.471.423-.745.071.233.141.461.212.666zm-.251-14.834c.228-.008.447-.055.651-.118-.134.235-.251.479-.377.722a2.358 2.358 0 00-.274-.604zm2.204-2.895c.188.055.376.094.581.102-.173.157-.346.33-.502.502v-.039a2.286 2.286 0 00-.079-.565zm.698-3.804c.871 0 1.577.706 1.577 1.584 0 .871-.706 1.584-1.577 1.584a1.592 1.592 0 01-1.592-1.584c0-.879.714-1.584 1.592-1.584zm-2.957 2.784c.878 0 1.592.706 1.592 1.584a1.589 1.589 0 01-3.177 0 1.59 1.59 0 011.585-1.584zM30.91 89.07c0-.878.706-1.584 1.584-1.584s1.584.706 1.584 1.584a1.584 1.584 0 01-3.168 0zm2.44 6.517a2.333 2.333 0 00-.651-.494c.235-.125.455-.29.643-.494-.008.338 0 .66.008.988zm-.188-4.291a2.57 2.57 0 00.612-.282c-.063.274-.118.542-.165.808a3.011 3.011 0 00-.447-.526zm.47 7.084c.063.384.133.753.211 1.122a2.37 2.37 0 00-.8-.479c.236-.171.44-.392.589-.643zm-3.6-5.341a1.58 1.58 0 011.584-1.584 1.584 1.584 0 11-1.584 1.584zm.023 4.133c0-.879.714-1.593 1.592-1.593a1.59 1.59 0 010 3.177 1.59 1.59 0 01-1.592-1.584zm.635 4.049a1.59 1.59 0 011.584-1.584 1.584 1.584 0 010 3.168 1.59 1.59 0 01-1.584-1.584zm71.95 15.484c-1.396 4.244-2.855 6.621-3.813 7.86-4.346-1.624-16.152-2.792-30.06-2.792-13.916 0-25.729 1.168-30.075 2.792-.941-1.231-2.4-3.608-3.797-7.86-2.04-6.189-5.106-10.088-6.072-11.217 2.244-1.412 4.314-2.126 6.197-2.126 5.256 0 7.327 5.758 7.342 5.813a.37.37 0 00.424.243.37.37 0 00.313-.361c0-8.182 4.565-8.464 4.754-8.472 7.272 0 11.194 7.648 11.233 7.727a.374.374 0 00.423.196.37.37 0 00.283-.361c0-7.405 6.605-7.978 8.621-7.978.204 0 .321.008.368.008.016 0 .126-.008.33-.008 2.024 0 8.613.573 8.613 7.978a.383.383 0 00.721.165c.032-.078 3.954-7.727 11.217-7.727.048 0 4.77.243 4.77 8.472 0 .18.126.337.314.361a.355.355 0 00.407-.243c.023-.055 2.079-5.813 7.358-5.813 1.867 0 3.954.714 6.189 2.126-.962 1.13-4.021 5.029-6.06 11.217z"/><path d="M68.767 88.748c-.792 0-1.436.644-1.436 1.428 0 .792.644 1.436 1.436 1.436.785 0 1.428-.643 1.428-1.436 0-.784-.643-1.428-1.428-1.428zM68.767 92.121c-.917 0-1.663.746-1.663 1.655 0 .918.746 1.663 1.663 1.663.91 0 1.655-.745 1.655-1.663a1.66 1.66 0 00-1.655-1.655zM68.767 95.949c-1.02 0-1.843.824-1.843 1.844 0 1.012.824 1.843 1.843 1.843a1.845 1.845 0 001.836-1.843 1.84 1.84 0 00-1.836-1.844zM68.767 85.649c-.714 0-1.302.58-1.302 1.294 0 .706.588 1.294 1.302 1.294a1.294 1.294 0 000-2.588z" fill="#FFD93D"/><path d="M73.309 107.112a.368.368 0 00-.51-.008c-1.146 1.036-1.851 1.248-2.251 1.248-1.027 0-1.326-1.522-1.412-2.424a.375.375 0 00-.369-.345.382.382 0 00-.376.345c-.094.902-.392 2.424-1.412 2.424-.393 0-1.099-.212-2.251-1.248a.376.376 0 00-.541.518c.047.047 3.781 4.66 4.205 9.044a.37.37 0 00.376.337.374.374 0 00.369-.337c.423-4.385 4.165-8.998 4.205-9.044a.376.376 0 00-.033-.51zM90.167 109.936a.323.323 0 00-.439-.125c-1.232.62-1.898.643-2.244.549-.878-.235-.784-1.624-.65-2.424a.333.333 0 00-.244-.384.346.346 0 00-.407.212c-.282.761-.895 2.008-1.781 1.773-.337-.094-.909-.447-1.654-1.608a.336.336 0 00-.447-.11c-.149.079-.219.275-.149.432.031.047 2.196 4.911 1.537 8.809a.332.332 0 00.236.376.342.342 0 00.407-.204c1.381-3.695 5.703-6.825 5.742-6.856a.32.32 0 00.093-.44zM47.36 109.936a.323.323 0 01.439-.125c1.231.62 1.898.643 2.235.549.887-.235.792-1.624.659-2.424a.34.34 0 01.243-.384.338.338 0 01.4.212c.291.761.91 2.008 1.789 1.773.345-.094.91-.447 1.663-1.608a.326.326 0 01.439-.11c.157.079.22.275.141.432-.016.047-2.181 4.911-1.522 8.809a.329.329 0 01-.251.376.328.328 0 01-.392-.204c-1.396-3.695-5.711-6.825-5.758-6.856-.14-.095-.172-.299-.085-.44zM101.98 113.669a.244.244 0 00-.322-.165c-1.09.376-1.623.313-1.874.188-.644-.313-.307-1.498-.048-2.173.048-.141 0-.29-.125-.353-.118-.063-.267-.008-.346.125-.376.62-1.098 1.608-1.749 1.294-.251-.118-.635-.494-.996-1.592-.047-.141-.188-.204-.329-.149-.142.047-.22.204-.204.353.016.047.792 4.495-.471 7.758-.047.149 0 .298.125.361.126.063.283 0 .354-.125 1.796-2.997 5.781-5.13 5.828-5.154.126-.069.204-.226.157-.368zM35.554 113.669c.031-.149.18-.212.313-.165 1.09.376 1.616.313 1.867.188.659-.313.313-1.498.063-2.173-.063-.141-.016-.29.11-.353.125-.063.283-.008.361.125.376.62 1.098 1.608 1.742 1.294.251-.118.627-.494 1.004-1.592.047-.141.188-.204.33-.149.133.047.22.204.188.353 0 .047-.784 4.495.479 7.758.055.149 0 .298-.118.361-.125.063-.282 0-.361-.125-1.789-2.997-5.789-5.13-5.828-5.154a.306.306 0 01-.15-.368z"/></svg>