<svg xmlns="http://www.w3.org/2000/svg" viewBox="2.84 48.38 277.8 186.71"><path fill="#D6D4D1" d="M2.835 48.378H280.63v186.708H2.835z"/><path fill="#F9B60F" d="M5.141 50.645H278.37v182.151H5.141z"/><path fill="#8B1726" d="M103.068 66.584h159.379v150.28H103.068z"/><path fill="#E85824" d="M54.089 66.584h33.024v150.28H54.089z"/><path fill="#005640" d="M21.081 66.584h33.008v150.28H21.081z"/><path d="M236.64 108.786c-3.303 0-2.385 3.349-2.385 3.349-1.906 0-5.178-3.153-9.633-6.417-4.455-3.271-8.785-6.918-19.367-6.918s-14.739 6.275-14.739 10.213c0 3.946 3.303 7.06 3.303 7.06-1.373 1.498-1.231 3.216-1.231 3.216s0 1.601 1.256 3.24c1.238 1.64 1.363.212 1.363-.494s.629-2.243 2.041-2.243 5.992 2.863 12.989 2.863 8.755-1.537 14.448-1.537c5.68 0 7.029 2.408 7.029 4.463s-1.178 4.157-5.478 5.608c-4.299 1.451-8.36 1.043-8.36 1.043s-7.5-.385-9.729.251c-2.229.635-5.663.745-8.66.651-3.012-.102-10.425-.196-10.425-.196-.251-.385-1.229-.777-1.229-.777h1.412s-1.664-1.977-1.76-3.059c-.094-1.075-.471-2.212-.471-2.212 1.797 1.302 2.087 1.192 2.309.761.219-.432-.91-2.589-.988-3.514-.094-.926-.229-1.679-.229-1.679 1.286 1.663 1.179-2.236 1.343-7.334.172-5.091-1.867-6.307-1.867-6.307 3.403-3.075 3.39-7.005 3.39-7.005-1.726 1.537-2.81 2.463-3.718 2.463-.918 0-1.428-.078-2.244-.886a9.598 9.598 0 00-3.437-2.142c-1.397-.487-1.476.023-1.602.706-.125.674-1.052 2.157-1.052 2.157-2.338-2.557-4.52-3.255-5.508-3.201-1.004.055-.438 1.138-.918 2.746-.486 1.6-2.297-.863-4-1.318-1.701-.455-5.121.251-5.121.251 1.459 2.408-1.084 3.969-2.213 4.251-1.129.275-2.393-.047-3.688.353-1.278.408-1.984.737-3.043.808-1.067.071-2.637.369-2.637.369.252-1.004.291-3.82-2.684-3.82-2.98 0-3.139 2.746-3.139 2.746 0 3.954 2.195 6.142 3.091 7.005.901.855 1.692 1.906 2.729 3.067 1.035 1.161 2.838 1.898 2.838 1.898-.172-.941-.154-2.212-.154-2.212s1.263 1.2 1.883 1.616c.619.416.957.376.996-.18.039-.557.523-1.663.523-1.663.815 1.757 3.932 5.444 3.932 5.444-3.021.04-6.85-1.137-9.907-2.385-3.062-1.239-5.091-2.479-5.507-1.192-.415 1.294 2.134 2.996 2.134 2.996-1.536-.431-2.821 5.868-2.821 5.868 2.228 0 5.237-.792 5.237-.792l-1.198 2.424c1.631-.18 4.008-1.106 4.008-1.106s1.209 1.852 1.805 1.852c.598 0 .65-.471.816-1.467.155-.996.25-.525 1.129 1.177.887 1.702 1.631 1.687 1.631 1.687s.213.047.563-.745c.361-.784 1.279-1.428 1.806-1.428.525 0 .988.706.988 1.279 0 .565-.533 1.655-3.053 3.153-2.52 1.49-4.979 3.545-7.271 6.424-2.299 2.871-3.514 8.221-3.514 10.268s.783 4.824.783 4.824c-3.469-3.931-10.221-10.237-10.221-10.237 2.611-1.412 2.432-3.2 2.432-3.2 0-4.048-4.26-2.965-4.26-2.965s.737-9.295.737-19.65c0-10.346 1.859-22.701 3.106-25.007 1.239-2.298-1.224-.455-1.224-.455-6.526 4.816-8.08 11.955-8.802 16.661-.714 4.707-.94 9.688-.94 17.939 0 8.244.423 10.684.423 10.684-.337-.416-4.565-1.051-4.565 2.518s5.444 4.291 5.444 4.291-1.239-.086-1.239.887c0 .965.58 1.161.58 1.161-1.381-.031-1.443 1.051-1.443 1.051.086 1.796 1.773 1.914 1.773 1.914s-.973.298-.973 1.184c0 .887 1.224 1.357 1.224 1.357s-.644-.188-.612.973c.031 1.161 1.381 1.655 1.381 1.655-.471.117-.439 1.191-.439 1.191 0 .997-1.521-.022-1.521-.022s-1.663-.471-1.663.965c0 1.443 1.113 1.443 2.714 1.553 1.608.11-1.106 2.628-1.106 2.628s1.357 1.437 1.357 3.186c0 1.741-1.381 2.792-1.381 2.792-.502-.832-1.694-1.828-2.572-.525-.895 1.303 1.185 2.966 2.792 3.186 1.601.219-1.694 2.244-1.694 2.244l3.106.635s.385 2.684 1.521 2.572c1.13-.109 1.687-2.658 1.687-2.658l3.044-.524c-2.267-1.546-2.016-2.269-2.016-2.269s1.687-.22 2.871-1.248c1.191-1.02.502-2.377-.519-2.549-1.027-.164-1.584 1.137-1.584 1.137-1.741-.743-1.852-3.623-1.052-4.673.801-1.052.941-1.271.142-2.079-.8-.8-.973-2.125-.973-2.125 1.836.91 3.467.463 3.467-.645 0-1.105-1.607-1.489-2.353-1.412-.754.087-1.052-.023-1.052-.023-.063-.384-.471-.745-.471-.745 1.303.275 2.134-.612 2.134-.612.023 1.577 1.741-.165 1.741-.165 0 .361 1.099 1.106 1.381 1.437.274.337.22 2.188.22 2.188s-.188 3.853.69 4.73c.894.886.973-.188 1.051-.581.087-.384 1.304-.604 1.304-.604s1.856 2.433 5.537 4.842c3.688 2.406 7.607-3.625 7.607-3.625 6.262 4.205 6.854 3.137 6.854 3.137s2.574 5.043 2.574 10.613c0 5.563-7.578 3.482-9.648 4.274-2.069.784-3.568 5.421-2.524 5.421 1.035 0 2.698-1.186 2.698-1.186s.329 1.186 1.943 1.186c1.617 0 2.889-1.232 2.889-1.232s.91 1.248 2.484 1.248c1.578 0 3.053-1.185 3.053-1.185.775.831 2.386 1.192 3.152 1.192.776 0 2.771-.471 2.771-2.937 0-2.463-1.688-4.259 1.498-5.312 3.187-1.051 5.005-3.766 4.979-4.346-.021-.588-5.065-.195-5.065-2.524 0-2.322 3.459-6.997 3.459-6.997 3.104-.471 5.727-2.188 12.784-5.154 7.063-2.958 10.467-2.212 10.467-2.212 0 6.676 4.564 9.829 6.087 12.457s1.151 10.574 1.151 10.574c-1.992 2.628-4.793.735-7.506 2.134-2.707 1.396-2.94 4.299-1.867 4.299 1.082 0 2.949-1.449 2.949-1.449s.815 1.426 2.369 1.426c1.553 0 2.588-1.45 2.588-1.45s.094 1.468 2.119 1.468c2.016 0 2.446-1.389 2.446-1.389s1.991 1.412 3.192 1.412c1.199 0 1.592-.746 1.592-.746.164 1.953 3.342-.65 3.342-.65s.424 1.396 1.945 1.396c1.521 0 2.824-1.428 2.824-1.428s.871 1.387 2.713 1.387c1.836 0 2.308-1.355 2.308-1.355.407.557 2.313 1.381 3.624 1.381 1.316 0 1.38-.675 1.208-1.529-.165-.861-2.494-2.965-2.494-5.428 0-2.464 2.117-3.5 2.808-4.041.699-.541 3.955-3.216.559-4.142-3.391-.927-3.442-6.589-3.442-6.589 0-8.048 4.502-11.335 4.502-20.16 0-8.833-4.188-11.97-4.188-11.97 2.308-1.703 4.771-4.754 4.771-7.664 0-2.902-2.511-8.487-9.304-8.487-6.776 0-10.229 1.098-16.44 1.098-6.197 0-4.252-3.946-5.656-3.946-1.412 0-2.973 2.597-2.973 2.597s-1.264-.934-1.264-2.84c0-1.914 3.632-3.161 3.632-3.161-4.879-3.506-7.517 1.475-7.517 1.475s-2.305-.251-2.305-3.569 3.731-3.444 3.731-3.444 1.437-.063 1.688.808c.241.871.77.933.77.933 1.844 0 1.311-4.212 1.311-4.212 3.342 0 5.498 2.988 5.498 5.043s-1.748 4.44-1.748 4.44c4.069 0 6.104-3.279 6.104-5.248 0-1.977-.832-3.342-.832-3.342 3.429 0 4.109 3.342 4.109 4.275 0 .934-.494 2.346-1.35 3.507-.848 1.161.174 1.02.174 1.02 3.813 0 4.666-3.993 4.666-3.993.684 1.953 4.11 3.82 5.209 4.11 1.105.298 1.828.149.871-.722s-1.443-3.828-1.443-3.828c2.354.667 7.859 7.334 11.924 7.334 4.078 0 4.299-3.632 4.299-3.632s.587-3.43-2.708-3.43zm-11.799 71.633c-.354.722-1.238 1.247-4.313 1.914-3.075.659-4.399 3.208-4.399 3.208s.143-1.467-.416-3.131c-.549-1.653-.61-2.705.308-4.094.917-1.382 3.381-3.516 3.381-5.179 0-1.653-4.435.888-4.435-2.823 0 0-.021-1.852 1.938-3.537 0 0 6.699 3.481 7.444 5.944.744 2.467.854 6.985.492 7.698z" fill="#F9B605"/><path d="M238.985 109.445c-.524-.62-1.312-.941-2.346-.941-1.035 0-1.806.314-2.274.934-.597.776-.541 1.82-.455 2.385-1.287-.251-3.225-1.773-5.617-3.656-1.051-.815-2.233-1.749-3.498-2.675l-.721-.533c-4.283-3.169-8.716-6.44-18.818-6.44-10.361 0-15.021 6.142-15.021 10.496 0 3.506 2.479 6.323 3.2 7.076-1.255 1.514-1.13 3.153-1.13 3.2 0 .071.016 1.718 1.312 3.413.446.596.809.871 1.137.871.485 0 .738-.518.738-1.538 0-.557.518-1.961 1.758-1.961.383 0 1.146.282 2.103.635 2.243.832 6.008 2.228 10.888 2.228 3.702 0 5.93-.424 8.079-.832 1.897-.361 3.694-.706 6.369-.706 4.354 0 6.746 1.49 6.746 4.181 0 2.392-1.726 4.134-5.287 5.342-2.644.894-5.192 1.083-6.871 1.083-.847 0-1.364-.055-1.381-.055-.031 0-2.306-.118-4.69-.118-2.533 0-4.252.125-5.129.377-1.539.439-3.859.674-6.724.674-.628 0-1.247-.016-1.858-.031-2.746-.094-9.271-.181-10.291-.196a2.088 2.088 0 00-.236-.211h.283a.29.29 0 00.297-.283.266.266 0 00-.125-.228c-.471-.581-1.584-2.063-1.646-2.855a10.44 10.44 0 00-.269-1.506c.802.534 1.16.651 1.429.651.416 0 .581-.321.646-.439.172-.33-.031-.91-.439-1.993-.234-.612-.486-1.294-.525-1.679-.031-.376-.07-.714-.117-.996a.907.907 0 00.125.016c.863 0 .949-1.726 1.062-5.977.017-.643.039-1.318.056-2.024.133-4.095-1.131-5.773-1.719-6.33 3.217-3.083 3.239-6.825 3.239-6.989 0-.11-.063-.212-.166-.259s-.22-.024-.306.047c-1.664 1.482-2.729 2.393-3.528 2.393-.88 0-1.304-.071-2.05-.8a9.67 9.67 0 00-3.537-2.212c-.398-.141-.723-.212-.973-.212-.801 0-.91.62-1.004 1.129-.078.416-.52 1.232-.816 1.75-2.211-2.306-4.368-3.067-5.475-3.02-.863.055-.91.745-.941 1.412-.022.423-.055.941-.234 1.529-.095.337-.22.337-.281.337-.313 0-.849-.376-1.365-.737-.611-.432-1.311-.918-2.008-1.106-.4-.102-.927-.157-1.554-.157-1.692 0-3.606.393-3.694.408a.26.26 0 00-.195.165c-.047.079-.031.181.017.259.423.698.502 1.373.243 2-.4.973-1.577 1.655-2.283 1.828-.486.118-1.004.118-1.553.118-.689.008-1.404.008-2.148.243-.313.102-.604.196-.863.282-.784.267-1.364.463-2.125.51-.746.047-1.719.204-2.26.306.094-.761.039-1.898-.611-2.729-.534-.683-1.35-1.02-2.424-1.02-3.201 0-3.422 2.973-3.422 3.02 0 4.166 2.394 6.456 3.187 7.209.563.533 1.099 1.168 1.653 1.835.33.384.677.792 1.054 1.216 1.073 1.2 2.862 1.938 2.94 1.969a.3.3 0 00.108.024.295.295 0 00.299-.283c0-.047-.017-.094-.03-.133-.08-.463-.11-1.004-.127-1.419.424.392 1.035.933 1.428 1.192.33.22.589.322.816.322.164 0 .564-.063.611-.714.023-.251.156-.659.281-1.012.849 1.451 2.525 3.545 3.295 4.479-3.264-.125-7.123-1.514-9.192-2.354-.589-.235-1.13-.479-1.64-.698-1.365-.588-2.439-1.059-3.178-1.059-.689 0-.957.4-1.066.737-.359 1.106.957 2.337 1.74 2.941-1.35.895-2.258 5.036-2.446 5.946a.275.275 0 00.063.235c.055.071.133.11.221.11 1.662 0 3.718-.423 4.722-.659l-.94 1.883a.284.284 0 00.031.282.28.28 0 00.258.125c1.381-.157 3.24-.816 3.867-1.043.447.651 1.303 1.789 1.914 1.789.816 0 .926-.667 1.075-1.592l.009-.063c.063.118.125.251.195.384.117.235.251.51.414.832.91 1.75 1.727 1.835 1.893 1.835.273 0 .541-.298.822-.91.33-.722 1.16-1.263 1.538-1.263.329 0 .706.533.706.996 0 .274-.221 1.31-2.91 2.91-2.785 1.655-5.186 3.773-7.352 6.487-2.354 2.941-3.576 8.362-3.576 10.448 0 1.263.283 2.785.52 3.789-3.139-3.405-7.986-8.009-9.195-9.146 2.393-1.451 2.244-3.201 2.236-3.254 0-2.941-2.103-3.381-3.35-3.381-.346 0-.659.031-.879.07.134-1.835.714-10.205.714-19.305 0-10.409 1.883-22.685 3.067-24.866.369-.698.471-1.098.313-1.357-.047-.086-.173-.219-.423-.219-.494 0-1.365.627-1.522.753-6.338 4.667-8.095 11.46-8.919 16.849-.69 4.503-.949 9.374-.949 17.979 0 6.229.235 9.139.361 10.213a4.628 4.628 0 00-1.161-.141c-.784 0-3.342.228-3.342 3.13 0 2.753 2.902 3.905 4.565 4.338-.22.188-.36.462-.36.839 0 .424.094.736.228.949a1.424 1.424 0 00-1.091 1.278c.055 1.138.706 1.727 1.317 1.992-.267.235-.518.581-.518 1.09 0 .628.471 1.067.863 1.334-.181.211-.259.541-.251 1.004.023.902.706 1.451 1.169 1.719-.228.392-.228.973-.228 1.121 0 .157-.023.157-.095.157-.267 0-.753-.259-.988-.416a.26.26 0 00-.078-.039c-.016 0-.298-.086-.651-.086-.87 0-1.372.486-1.372 1.326 0 1.64 1.271 1.718 2.745 1.82l.235.016c.157.008.235.047.235.071.094.267-.612 1.23-1.521 2.071a.318.318 0 00-.087.195c0 .07.023.149.079.204.008.008 1.278 1.381 1.278 2.989 0 1.162-.69 2-1.051 2.369-.385-.518-.973-1.013-1.632-1.013-.33 0-.8.134-1.224.755-.314.445-.346.973-.11 1.514.439.988 1.828 1.931 3.099 2.109.134.016.181.047.196.039-.031.268-.957 1.043-1.992 1.68-.103.063-.157.172-.134.289s.109.205.228.229l2.902.597c.126.689.604 2.737 1.804 2.619 1.146-.107 1.727-2.039 1.883-2.689l2.871-.494a.272.272 0 00.22-.219.284.284 0 00-.109-.299c-1.396-.949-1.773-1.547-1.875-1.798.541-.108 1.796-.438 2.753-1.271.612-.519.848-1.191.667-1.844a1.686 1.686 0 00-1.325-1.19c-.91-.149-1.499.61-1.75 1.034-.471-.297-.823-.815-.996-1.498-.251-.958-.125-2.086.29-2.627.84-1.106 1.06-1.498.118-2.447-.424-.424-.659-1.027-.784-1.451.518.188 1.02.29 1.49.29 1.113 0 1.866-.564 1.866-1.412 0-1.176-1.419-1.701-2.432-1.701a2.15 2.15 0 00-.234.016c-.393.04-.651.024-.801.008-.016-.063-.047-.117-.07-.172a2.526 2.526 0 001.31-.431c.157.384.455.431.612.431.424 0 .926-.369 1.247-.643.173.212.439.438.784.736.188.157.385.321.463.416.11.157.188 1.075.157 1.993-.016.408-.173 4 .776 4.95.29.29.533.423.769.423.55 0 .667-.667.729-1.027l.023-.102c.063-.11.479-.274.918-.376.455.563 2.274 2.667 5.491 4.769.628.408 1.294.612 1.992.612 2.77 0 5.209-3.169 5.852-4.079 3.092 2.063 5.303 3.152 6.387 3.152.103 0 .188-.017.267-.03.502 1.082 2.416 5.491 2.416 10.235 0 3.758-3.718 3.767-6.698 3.772-1.161 0-2.148 0-2.761.233-1.875.716-3.265 4.144-3.028 5.383.096.542.473.589.598.589.848 0 2.039-.698 2.571-1.054.283.479.927 1.054 2.07 1.054 1.317 0 2.399-.745 2.854-1.114.369.395 1.239 1.131 2.519 1.131 1.325 0 2.56-.762 3.028-1.092.935.824 2.519 1.1 3.177 1.1 1.06 0 3.053-.674 3.053-3.217 0-.714-.135-1.381-.26-1.961-.308-1.498-.494-2.408 1.562-3.082 3.192-1.061 5.217-3.806 5.178-4.63-.022-.423-.572-.51-1.562-.657-1.396-.211-3.508-.541-3.508-1.853 0-2.022 2.862-6.071 3.334-6.738 2.01-.321 3.813-1.152 6.763-2.502a174.29 174.29 0 015.979-2.644c4.724-1.984 7.789-2.275 9.193-2.275.407 0 .705.017.879.04.086 4.91 2.635 7.962 4.502 10.206.668.8 1.246 1.49 1.633 2.148 1.373 2.386 1.146 9.459 1.113 10.33-1.066 1.343-2.347 1.351-3.828 1.356-1.146 0-2.322.009-3.529.628-2.166 1.113-2.809 3.1-2.573 4.088.11.471.424.744.832.744.94 0 2.321-.926 2.888-1.334.328.447 1.146 1.311 2.432 1.311 1.146 0 2.009-.696 2.464-1.168.241.511.831 1.186 2.243 1.186 1.576 0 2.273-.785 2.558-1.255.604.397 2.069 1.276 3.083 1.276.714 0 1.178-.233 1.467-.463.157.282.438.439.809.439.824 0 1.983-.793 2.543-1.208.305.558.957 1.231 2.063 1.231 1.247 0 2.338-.855 2.793-1.278a3.6 3.6 0 002.745 1.239c1.396 0 2.087-.715 2.386-1.178.736.579 2.359 1.199 3.545 1.199.635 0 1.066-.143 1.316-.445.314-.395.268-.936.174-1.42-.07-.347-.359-.771-.77-1.357-.729-1.035-1.727-2.463-1.727-4.016 0-1.971 1.459-2.957 2.321-3.548.147-.102.28-.194.385-.272.902-.707 2.394-2.071 2.156-3.271-.125-.627-.705-1.09-1.709-1.355-3.14-.862-3.231-6.269-3.231-6.322 0-3.883 1.053-6.604 2.147-9.483 1.162-3.005 2.354-6.111 2.354-10.677 0-7.641-3.061-11.067-4.024-11.961 2.338-1.82 4.604-4.832 4.604-7.672 0-2.746-2.416-8.77-9.586-8.77-3.482 0-6.104.291-8.629.573-2.463.267-4.785.525-7.813.525-3.971 0-4.377-1.6-4.676-2.761-.156-.581-.308-1.185-.98-1.185-1.277 0-2.549 1.718-3.027 2.447-.338-.353-.926-1.153-.926-2.408 0-1.404 2.486-2.565 3.443-2.895a.28.28 0 00.071-.495c-1.201-.863-2.386-1.302-3.515-1.302-2.472 0-3.914 2.047-4.308 2.691-.502-.134-1.883-.737-1.883-3.255 0-3.004 3.326-3.162 3.516-3.162.125 0 1.186.016 1.349.604.3 1.02.94 1.129 1.044 1.137.393 0 .729-.149.988-.455.792-.886.697-2.949.635-3.75 2.997.181 4.902 2.871 4.902 4.753 0 1.938-1.67 4.252-1.688 4.275a.278.278 0 00.221.447c4.109 0 6.385-3.271 6.385-5.53a7.355 7.355 0 00-.643-3.036c3.209.321 3.355 3.93 3.355 3.969 0 .926-.533 2.299-1.294 3.342-.229.314-.519.785-.338 1.153.108.204.33.313.636.313h.104c2.979-.008 4.26-2.322 4.723-3.514 1.16 1.875 4.188 3.389 5.082 3.624.91.243 1.49.181 1.641-.196.143-.361-.22-.753-.51-1.012-.598-.549-1.053-2.173-1.256-3.161.848.432 2.023 1.42 3.264 2.447 2.525 2.103 5.672 4.714 8.283 4.714 4.291 0 4.581-3.859 4.581-3.867-.004-.071.264-1.719-.67-2.817zm-92.319 9.342c.071-.211.188-.353.535-.353.61 0 1.646.447 2.948 1.012.511.22 1.065.463 1.647.706 2.203.894 6.408 2.4 9.853 2.4.353.479 1.065 1.521 1.372 2.565.063.204.07.361.008.416-.203.228-1.191.016-1.851-.125-.33-.07-.644-.133-.941-.18a14.035 14.035 0 00-2.235-.149c.572-.831.637-1.443.637-1.467a.304.304 0 00-.07-.212.305.305 0 00-.204-.102c-4.745-.149-8.745-1.506-9.672-1.844-.615-.415-2.309-1.788-2.027-2.667zm-15.17-8.487c.808-5.287 2.525-11.931 8.691-16.48.368-.275.854-.565 1.113-.628-.023.102-.094.322-.313.722-1.239 2.291-3.138 14.465-3.138 25.141 0 9.633-.644 18.45-.722 19.517-.267.243-.957.973-.957 1.718 0 .612.447 1.24.722 1.569-.36.235-1.286.65-3.239.65-1.962 0-2.573-.383-2.746-.548.204-.298.589-.973.589-1.702 0-.714-.346-1.263-.534-1.514-.07-.486-.407-3.24-.407-10.551 0-8.575.258-13.423.941-17.894zm-5.083 31.095c0-2.314 1.945-2.565 2.776-2.565.722 0 1.208.165 1.286.22 0 .016.016.016.031.023.142.188.424.628.424 1.185 0 .761-.58 1.506-.58 1.514a.296.296 0 00-.063.235c.047.18.376 1.067 3.365 1.067 2.957 0 3.788-.895 3.867-1.004a.27.27 0 00-.016-.376c-.221-.212-.77-.878-.77-1.404 0-.486.533-1.082.801-1.326.148-.031.549-.11 1.051-.11 1.852 0 2.785.949 2.785 2.848.008.063.117 1.624-2.283 2.918-.008.008-.016.016-.016.022-.518.235-3.373 1.382-9.037.386-1.527-.488-3.621-1.539-3.621-3.633zm10.637 8.299c.055 0 .117-.023.172-.031-.109.11-.22.22-.329.345-.165-.282-.479-.549-.879-.792.095-.031.188-.069.267-.118a.737.737 0 00.22.385.831.831 0 00.549.211zm-.252-.801c0-.438.651-1.23 1.067-1.64.149-.157.644-.588.996-.588.07 0 .118.023.165.055.023.017.047.039.047.095.031.306-.393.934-.706 1.302-.298.384-1.146 1.263-1.49.94a.23.23 0 01-.079-.164zm-.047 5.946a2.308 2.308 0 00-.729-.737c.071-.03.134-.055.204-.086a.726.726 0 00.259.425.847.847 0 00.439.156c-.063.085-.126.163-.173.242zm-.141-2.768a.662.662 0 00.313.079c.031 0 .063-.009.086-.009-.063.07-.125.134-.18.204-.032-.047-.056-.094-.095-.141-.038-.047-.085-.094-.124-.133zm-.235-3.861c-.031.086-.346.792-1.49.4a.25.25 0 00-.134-.009c-1.325-.541-2.895-.94-3.766-1.145-.086-.055-.368-.251-.368-.887 0-.519.541-.604.926-.604 1.349.211 4.157.839 4.753 1.78.11.168.126.316.079.465zm-6.621.589c.008-.079.087-.776 1.146-.785 2.816.667 5.664 1.773 5.569 2.425-.016.04-.251.98-1.161.823-1.082-.462-2.549-.775-3.992-.832-.023 0-.031-.016-.055-.016-.056-.007-1.436-.124-1.507-1.615zm6.66 3.099c-.086-.063-.165-.125-.267-.196.055-.023.102-.055.148-.086a.677.677 0 00.119.282zm-5.859-.017c0-.541.502-.8.69-.886 1.475.047 2.823.361 3.78.761a.356.356 0 00.126.055c0 .009 0 0 0 0 .533.243.941.503 1.145.754.118.141.165.259.149.368-.055.11-.102.213-.134.307-.282.376-.909.423-1.113.423-1.443-.588-3.295-.722-3.734-.745-.329-.158-.909-.543-.909-1.037zm5.569 5.625c.611-.071 2.039.243 2.039 1.129 0 .628-.706.848-1.302.848-.542 0-1.146-.157-1.757-.462a.28.28 0 00-.4.289c.008.056.188 1.437 1.043 2.299.651.643.62.683-.156 1.701-.526.684-.69 1.993-.393 3.114.251.965.8 1.671 1.553 1.992.142.063.314 0 .377-.148 0-.008.471-1.099 1.271-.965.408.07.761.385.879.784.125.438-.055.896-.494 1.271-1.106.949-2.714 1.178-2.729 1.178a.286.286 0 00-.229.188c-.07.196-.133.902 1.569 2.196l-2.377.416a.27.27 0 00-.228.22c-.204.899-.769 2.369-1.482 2.433-.635 0-1.059-1.568-1.169-2.33a.291.291 0 00-.228-.234l-2.424-.502c.848-.572 1.789-1.342 1.663-1.906-.031-.181-.181-.406-.675-.479-1.074-.148-2.29-.965-2.651-1.78-.156-.354-.141-.675.056-.965.227-.329.486-.503.761-.503.502 0 1.043.525 1.333 1.021.047.07.11.118.188.134a.345.345 0 00.235-.056c.055-.047 1.49-1.16 1.49-3.02 0-1.459-.862-2.684-1.255-3.169.589-.565 1.726-1.789 1.475-2.479-.063-.188-.243-.416-.737-.446l-.22-.017c-1.584-.109-2.228-.188-2.228-1.255 0-.353.094-.761.808-.761.204 0 .385.039.463.055.173.118.784.486 1.255.486.408 0 .659-.274.659-.729-.008-.353.07-.729.173-.854.408.07 1.49.291 2.181.549.109.11.267.313.298.494a.295.295 0 00.188.228c.047.012.376.121 1.177.035zm-1.052-1.287a2.18 2.18 0 01-.446-.047c-.023 0-.04.008-.056.008-.729-.251-1.726-.455-2.149-.532-.023-.017-.031-.032-.055-.04-.008-.009-1.177-.455-1.2-1.404-.008-.455.095-.604.142-.651.016-.022.039-.039.109-.039a.286.286 0 00.188-.016c.863.055 2.282.251 3.357.69.016.008.047.016.063.022.784.321 1.357.776 1.381 1.388 0 .023 0 .047.016.063-.008.022-.008.039-.016.063-.18.158-.659.495-1.334.495zm1.914-.384c-.008-.016-.016-.022-.016-.047.031-.259.22-.886 1.052-1.428.729-.463 1.02-.511 1.098-.511.031.063.173.472-.879 1.632-.298.298-.862.736-1.129.736-.11.002-.126-.232-.126-.382zm13.476 12.144c-.58 0-1.152-.182-1.678-.527-3.595-2.353-5.443-4.751-5.469-4.775a.292.292 0 00-.273-.109c-.525.094-1.42.33-1.521.832l-.031.141c-.063.337-.125.525-.181.557 0 0-.117-.008-.368-.259-.581-.581-.683-3.083-.612-4.525.016-.589.031-2-.282-2.378-.109-.133-.313-.298-.533-.485-.22-.18-.628-.525-.753-.706.69-.792 1.02-1.437.94-1.906a.645.645 0 00-.219-.424c-.103-.118-.283-.149-.518-.11.023-.022.047-.055.078-.078.823-.909.518-2.109.502-2.156a.287.287 0 00-.346-.204.293.293 0 00-.203.345s.243.957-.377 1.631c-.329.369-1.342 1.476-1.788 1.146-.079-.056-.079-.173-.063-.26a.51.51 0 01.048-.212c.063-.109.125-.228.156-.368a3.388 3.388 0 011.49-1.39.29.29 0 00.142-.376.274.274 0 00-.055-.078c.965-.997 1.02-2.495 1.02-2.564a.28.28 0 00-.274-.29c-.165.016-.282.118-.29.273 0 .017-.063 1.758-1.264 2.526-.689.439-.878.33-.878.33-.047-.047-.071-.29.094-.675.267-.612 1.278-1.38 1.647-1.616a.297.297 0 00.078-.393.355.355 0 00-.141-.109c.141-.149.235-.275.267-.314.149-.165.894-1.051.831-1.71a.653.653 0 00-.267-.479.768.768 0 00-.51-.172c-.651 0-1.325.674-1.389.745a6.167 6.167 0 00-.635.714.965.965 0 01-.056-.118c-.407-.651-1.482-1.122-2.572-1.459.047 0 .086.008.125.008 2.699 0 4.26-.542 4.84-.792.988.934 6.912 6.526 10.049 10.08l.008.008c.558 1.239 2.62 5.389 6.629 8.825-.589.82-2.919 3.856-5.398 3.856zm63.672 19.272c-.909 0-2.502-.979-3.035-1.356a.262.262 0 00-.251-.039.289.289 0 00-.173.18c-.016.05-.416 1.192-2.18 1.192-1.721 0-1.836-1.159-1.836-1.208a.292.292 0 00-.205-.251.295.295 0 00-.313.11c0 .008-.974 1.333-2.354 1.333-1.365 0-2.119-1.271-2.119-1.286a.288.288 0 00-.194-.134.264.264 0 00-.229.056c-.502.385-1.969 1.389-2.775 1.389-.135 0-.234-.103-.281-.313-.173-.706.32-2.438 2.281-3.451 1.084-.559 2.203-.564 3.279-.564 1.515-.008 3.082-.017 4.321-1.646a.402.402 0 00.056-.156c.017-.328.359-8.063-1.186-10.729-.408-.698-1.004-1.412-1.688-2.229-1.922-2.306-4.308-5.169-4.36-9.914 1.671-.056 6.346.125 9.672 3.585 3.231 3.349 5.099 4.604 5.853 5.027-1.742 1.679-1.732 3.403-1.732 3.476 0 1.004.313 1.709.936 2.094.541.33 1.207.379 1.852.379l.689-.01c.887 0 .957.148.957.36 0 1.052-1.146 2.378-2.15 3.546-.461.533-.894 1.035-1.185 1.476-.995 1.515-.887 2.69-.338 4.347.486 1.459.425 2.77.408 2.975l-.377 1.176c-.017.012-.338.585-1.343.585zm2.283-2.635a9.03 9.03 0 00-.439-2.291c-.518-1.545-.604-2.519.275-3.853.272-.407.688-.901 1.137-1.42 1.066-1.237 2.291-2.649 2.291-3.914 0-.926-.988-.926-1.521-.926l-.688.008c-.56 0-1.132-.039-1.556-.298-.446-.273-.666-.801-.666-1.607 0-.017.008-1.662 1.693-3.199 1.044.563 6.495 3.584 7.131 5.693.737 2.416.831 6.863.518 7.483-.297.604-1.09 1.104-4.125 1.765-2.089.449-3.391 1.719-4.05 2.559zm22.654-72.418c0 .133-.267 3.365-4.017 3.365-2.407 0-5.459-2.542-7.922-4.589-1.594-1.318-2.967-2.463-3.924-2.738a.303.303 0 00-.268.063.287.287 0 00-.094.259c.021.125.52 3.059 1.535 3.985.197.18.283.298.322.369-.133.016-.519-.008-.934-.118-.996-.267-4.361-2.079-5.014-3.93a.28.28 0 00-.289-.188.267.267 0 00-.252.219c-.016.04-.848 3.766-4.393 3.766h-.104c-.086 0-.125-.016-.125 0 0-.024-.01-.165.289-.573.83-1.146 1.396-2.62 1.396-3.671 0-.965-.738-4.557-4.395-4.557-.094 0-.188.055-.243.141s-.047.196.008.282c0 .016.785 1.326.785 3.201 0 1.6-1.601 4.667-5.271 4.95.518-.816 1.48-2.558 1.48-4.142 0-2.173-2.251-5.326-5.779-5.326a.321.321 0 00-.222.094.285.285 0 00-.063.22c.094.761.203 2.887-.463 3.64a.693.693 0 01-.524.259c-.017 0-.347-.07-.534-.729-.268-.941-1.521-1.012-1.896-1.012h-.06c-.047 0-4.017.172-4.017 3.726 0 3.538 2.533 3.851 2.558 3.851a.277.277 0 00.282-.149c.017-.023 1.396-2.573 3.914-2.573.869 0 1.797.298 2.744.902-1.043.439-3.311 1.576-3.311 3.224 0 2.024 1.326 3.028 1.381 3.067.063.047.148.07.229.047a.282.282 0 00.182-.125c.416-.69 1.702-2.463 2.729-2.463.211 0 .273.157.433.761.298 1.192.813 3.185 5.226 3.185 3.059 0 5.396-.259 7.875-.533 2.512-.275 5.113-.565 8.565-.565a8.673 8.673 0 019.021 8.205c0 2.761-2.338 5.718-4.66 7.437a.282.282 0 00-.108.228c0 .086.039.172.108.227.039.024 4.08 3.177 4.08 11.743 0 4.463-1.178 7.516-2.313 10.473-1.122 2.934-2.188 5.702-2.188 9.695 0 .235.094 5.883 3.654 6.856.775.211 1.208.523 1.295.926.148.769-.902 1.906-1.953 2.714-.095.078-.211.157-.354.259-.895.604-2.564 1.741-2.564 4.01 0 1.727 1.051 3.238 1.819 4.346.329.464.636.9.675 1.13.102.511.086.793-.048.956-.142.164-.431.242-.878.242-1.247 0-3.061-.799-3.389-1.263a.297.297 0 00-.269-.116.293.293 0 00-.233.188c-.017.048-.439 1.169-2.041 1.169-1.654 0-2.446-1.2-2.479-1.255a.288.288 0 00-.212-.125.268.268 0 00-.229.086c-.017.017-1.238 1.333-2.621 1.333-1.285 0-1.662-1.146-1.678-1.199a.292.292 0 00-.188-.181c-.032-.017-.063-.017-.088-.017a.311.311 0 00-.182.063c-.438.367-1.756 1.312-2.471 1.312-.164 0-.337-.039-.384-.416l.36-1.146c.03-.063 1.334-2.438 4.205-3.061 3.276-.707 4.107-1.271 4.51-2.063.399-.811.289-5.355-.479-7.898-.776-2.551-7.312-5.979-7.594-6.117-.017-.008-.017-.008-.017-.018-.022-.008-1.897-.793-6.041-5.083-4.299-4.479-10.715-3.726-10.776-3.718-.017 0-.022.008-.031.008a8.88 8.88 0 00-.722-.022c-1.442 0-4.598.298-9.413 2.313-2.464 1.035-4.425 1.938-5.993 2.651-2.684 1.231-4.398 2.016-6.165 2.376 4.188-6.895 4.031-13.586 4.031-13.657-.009-.157-.156-.273-.298-.273a.273.273 0 00-.268.29c0 .07.164 6.997-4.33 13.955a.245.245 0 00-.047.125c-.684.957-3.351 4.815-3.351 6.941 0 1.796 2.399 2.165 3.985 2.406.397.063.885.136 1.073.214-.157.588-1.788 2.987-4.784 3.977-2.525.841-2.244 2.244-1.931 3.734.125.588.242 1.19.242 1.853 0 2.618-2.377 2.649-2.486 2.649-.666 0-2.22-.321-2.948-1.099a.27.27 0 00-.377-.03c-.017.016-1.412 1.12-2.879 1.12-1.404 0-2.25-1.12-2.268-1.129a.255.255 0 00-.204-.109.274.274 0 00-.22.079c-.01.008-1.192 1.146-2.684 1.146-1.373 0-1.664-.94-1.68-.979a.316.316 0 00-.173-.188.315.315 0 00-.267.031c-.439.313-1.759 1.137-2.525 1.137-.031-.021-.117-.259 0-.869.268-1.326 1.35-3.516 2.627-4.002.512-.203 1.469-.203 2.564-.203 2.887-.008 7.265-.017 7.265-4.338 0-4.737-1.858-9.139-2.433-10.379 0-.021 0-.055-.017-.078-1.978-5.544-.408-10.729-.392-10.776a.288.288 0 00-.182-.361.292.292 0 00-.354.188c-.063.212-1.537 5.099.234 10.629-.031 0-.063.008-.108.008-.564 0-2.148-.416-6.308-3.217 0 0-.008 0-.016-.008-4.262-3.584-6.314-8.024-6.707-8.936-.15-.571-.729-2.878-.729-4.604 0-2.016 1.185-7.256 3.449-10.095 2.119-2.659 4.473-4.738 7.201-6.354 2.762-1.647 3.186-2.832 3.186-3.396 0-.706-.563-1.561-1.271-1.561-.627 0-1.64.683-2.056 1.592-.172.376-.299.525-.346.573-.156-.039-.697-.274-1.35-1.53-.164-.314-.299-.588-.416-.816-.393-.784-.51-1.027-.793-1.027-.328 0-.393.384-.455.753l-.016.11c-.164.996-.219 1.122-.518 1.122-.236 0-.974-.823-1.563-1.726-.069-.11-.213-.157-.338-.11-.022.008-1.897.737-3.42 1.012l.957-1.938a.26.26 0 00-.031-.306.29.29 0 00-.282-.094c-.03.008-2.705.706-4.832.777.502-2.267 1.521-5.319 2.321-5.319h.031c.746.283 4.754 1.687 9.586 1.906-.096.291-.313.777-.801 1.341a.289.289 0 00-.031.314.279.279 0 00.269.157c.017 0 1.315-.094 2.722.118.291.047.598.11.901.173.563.125 1.114.243 1.563.243.354 0 .649-.079.838-.283.197-.219.236-.541.109-.965-.354-1.184-1.146-2.322-1.507-2.792-.008-.023-.016-.055-.03-.078-.031-.032-3.09-3.671-3.892-5.374a.274.274 0 00-.25-.165c-.11.008-.221.07-.26.172-.056.118-.511 1.169-.55 1.75-.01.165-.047.196-.057.196-.047 0-.188-.016-.502-.228-.596-.4-1.826-1.577-1.842-1.584a.296.296 0 00-.309-.063.29.29 0 00-.172.259c0 .047-.008.91.086 1.749-.588-.29-1.607-.863-2.273-1.616-.369-.416-.714-.824-1.044-1.208-.571-.683-1.112-1.318-1.694-1.875-.752-.714-3.012-2.879-3.02-6.786.008-.102.18-2.479 2.863-2.479.895 0 1.553.274 1.977.808.658.839.564 2.11.432 2.667a.298.298 0 00.07.259.27.27 0 00.26.086c.016-.008 1.561-.306 2.598-.369.83-.055 1.467-.267 2.259-.541.269-.086.549-.181.862-.274.658-.212 1.334-.212 1.984-.22.557 0 1.129 0 1.67-.133.77-.188 2.174-.941 2.684-2.157.281-.69.252-1.42-.096-2.165.637-.11 1.994-.322 3.201-.322.58 0 1.051.047 1.412.141.596.165 1.248.62 1.818 1.02.645.447 1.209.839 1.695.839.272 0 .644-.125.832-.737.188-.651.219-1.216.25-1.663.039-.769.077-.855.407-.878h.095c1.082 0 3.09.815 5.186 3.106a.266.266 0 00.234.094.278.278 0 00.213-.133c.094-.157.957-1.545 1.098-2.275.096-.565.156-.651.439-.651.188 0 .455.063.785.18 1.189.408 2.398 1.169 3.323 2.079.849.832 1.412.965 2.448.965.9 0 1.865-.737 3.382-2.063-.166 1.232-.802 3.915-3.239 6.111a.328.328 0 00-.095.235.351.351 0 00.133.22c.022.008 1.892 1.231 1.732 6.056-.017.706-.039 1.38-.056 2.024-.063 2.432-.133 5.193-.485 5.428 0 0-.095-.016-.29-.283a.314.314 0 00-.213-.094c-.684-.572-2.831-2.494-3.246-4.549-.542-2.675-1.641-3.036-1.768-3.067a.279.279 0 00-.266.078.27.27 0 00-.078.274c.533 1.883.229 3.396 0 4.126-.754-.878-2.354-1.882-2.564-2.016a.28.28 0 00-.385.094.268.268 0 00.086.384c.65.408 2.394 1.592 2.676 2.259a.273.273 0 00.25.173.272.272 0 00.26-.157c.039-.079.85-1.734.416-4.173.273.369.597 1.02.814 2.134.486 2.369 2.941 4.471 3.547 4.958.047.282.125.824.188 1.451.03.463.297 1.153.549 1.828.203.541.518 1.357.471 1.538-.069.133-.094.133-.143.133-.367 0-1.41-.753-1.748-.996-.039-.032-.086-.04-.143-.047-2.141-1.231-4.354-4.142-4.369-4.173a.287.287 0 00-.25-.11.3.3 0 00-.236.149l-1.051 2.016-2-1.663a.28.28 0 00-.463.204c-.023.51-.486 1.459-.814 2.055-.629-.722-1.963-1.875-2.143-2.032a.286.286 0 00-.4.031.287.287 0 00.031.4c.784.675 2.104 1.883 2.309 2.244a.272.272 0 00.234.149.254.254 0 00.25-.141c.094-.149.754-1.279 1.004-2.173l1.898 1.584a.27.27 0 00.234.063.283.283 0 00.188-.149l1.021-1.938c.674.839 2.479 2.942 4.299 3.977.102.322.345 1.192.422 2.024.08.832.936 2.071 1.451 2.746h-.822c-.031 0-.055.023-.078.031-3.357-.431-5.443-2.557-5.46-2.581a.3.3 0 00-.407-.008.286.286 0 000 .4c.094.102 2.321 2.377 6 2.769.361.165.816.416.936.596 0 0 .017.016.021.023a.166.166 0 01.023.031c.063.063 1.365 1.263 2.432 1.977-.58.204-1.818.447-4.096.149a.291.291 0 00-.313.22c-.016.086-.408 1.945-.289 3.231-.715-.055-2.533-.298-4.824-1.451a.283.283 0 00-.328.055c-.565.604-2.119 2.149-3.061 2.628-.863-2.236-2.127-5.625-2.166-5.978 0-.125-.104-.235-.234-.259a.288.288 0 00-.307.165c-.008.032-1.277 3.052-2.156 4.487-.815-1.145-1.623-2.345-1.68-2.549a.277.277 0 00-.234-.274c-.125-.031-.26.047-.313.165-.008.032-1.052 2.573-2.194 3.483l-.802-2.91a.259.259 0 00-.28-.204.293.293 0 00-.269.235c-.017.117-.438 2.753-3.13 3.804-.385-1.584-.729-3.263-.69-3.522a.294.294 0 00-.094-.267.27.27 0 00-.274-.047c-.022.008-1.834.627-2.949.878.551-.925 1.625-2.824 1.884-3.781a.282.282 0 00-.204-.345.285.285 0 00-.346.204c-.313 1.185-2.103 4.126-2.125 4.157a.277.277 0 000 .291.27.27 0 00.259.141c.729-.055 2.542-.635 3.312-.894.108.949.588 2.941.752 3.624a.319.319 0 00.143.18.317.317 0 00.142.031c.031 0 .056 0 .078-.008 2.157-.706 3.106-2.298 3.522-3.357l.627 2.307a.287.287 0 00.156.188.292.292 0 00.242-.008c1.092-.565 2.08-2.447 2.526-3.404.313.549.894 1.404 1.726 2.549a.283.283 0 00.235.118.27.27 0 00.22-.118c.666-.941 1.641-3.083 2.133-4.212.494 1.499 1.647 4.518 2.072 5.601.047.141.203.211.344.172 1.062-.345 2.871-2.181 3.404-2.73 2.98 1.459 5.131 1.428 5.217 1.428s.166-.039.213-.102a.273.273 0 00.063-.228c-.173-.917.079-2.494.196-3.098 3.48.408 4.611-.455 4.658-.494a.271.271 0 00.104-.243c0-.094-.063-.173-.143-.22-.668-.376-1.615-1.161-2.203-1.679 1.969.031 7.256.11 9.654.188.613.016 1.24.031 1.875.031 2.031 0 4.871-.125 6.879-.69.803-.235 2.527-.361 4.975-.361 2.369 0 4.638.118 4.638.118.022 0 .558.055 1.437.055 1.717 0 4.33-.196 7.06-1.114 3.813-1.294 5.664-3.208 5.664-5.875 0-1.773-.94-4.746-7.312-4.746-2.729 0-4.55.353-6.479.714-2.118.408-4.321.824-7.97.824-4.777 0-8.479-1.373-10.691-2.188-1.091-.408-1.813-.675-2.299-.675-1.547 0-2.322 1.616-2.322 2.526 0 .706-.125.941-.172.973 0 0-.203-.008-.689-.643-1.16-1.538-1.191-3.059-1.191-3.099 0-.016-.118-1.616 1.16-2.996a.298.298 0 00-.016-.4c-.031-.031-3.217-3.075-3.217-6.856 0-4.118 4.486-9.931 14.457-9.931 9.914 0 14.27 3.216 18.473 6.331l.729.533c1.263.918 2.438 1.851 3.489 2.667 2.811 2.212 4.85 3.805 6.309 3.805a.278.278 0 00.276-.353c-.01-.016-.377-1.42.289-2.283.354-.471.974-.714 1.82-.714.854 0 1.498.251 1.914.737.797.898.57 2.341.554 2.388z"/><path d="M172.732 124.835a.286.286 0 00-.345.063c-.259.29-.902 1.436-1.2 1.969-1.271-.847-2.385-2.675-2.393-2.698a.284.284 0 00-.385-.094.266.266 0 00-.096.384c.047.094 1.334 2.22 2.84 3.052a.268.268 0 00.221.023.301.301 0 00.164-.133c.338-.604.854-1.522 1.139-1.945.597.36 2.291 1.498 2.572 3.083a.296.296 0 00.142.204.314.314 0 00.251.008c.031-.016.714-.337 1.005-.996.345.329.909.847 1.554 1.388 0 .016-.009.039 0 .063.164 1.616-.048 2.769-.221 3.373-1.146-1.302-3.891-2.714-4.031-2.784a.266.266 0 00-.283.023.282.282 0 00-.125.259c.047.447-.307 1.475-.597 2.204-.706-1.333-2.259-3.099-2.338-3.185a.267.267 0 00-.25-.094.271.271 0 00-.212.157c-.512 1.059-1.663 1.953-2.299 2.393-.047-.926-.408-2.212-.455-2.393-.031-.125-.156-.196-.299-.196-.125.008-.234.118-.25.251-.031.267-.91 1.263-1.82 2.165l-.572-2.722a.282.282 0 00-.337-.212.284.284 0 00-.22.33l.689 3.224c.017.094.094.18.188.204a.28.28 0 00.281-.063c.486-.463 1.443-1.404 1.971-2.134.164.698.32 1.608.234 2.016-.022.11.022.22.109.29a.285.285 0 00.305.016c.088-.047 1.885-1.09 2.777-2.557.58.69 1.93 2.354 2.235 3.311.039.11.134.188.251.196.126 0 .229-.063.273-.165.088-.188.723-1.64.871-2.612 1.139.62 3.225 1.898 3.758 2.824a.279.279 0 00.244.141h.008a.305.305 0 00.25-.165c.022-.055.597-1.365.447-3.687.721.573 1.481 1.09 2.094 1.341a.44.44 0 00.11.016.36.36 0 00.116-.023.314.314 0 00.148-.172l.597-2.04a.277.277 0 00-.188-.353.286.286 0 00-.346.196l-.518 1.718c-1.616-.808-4.096-3.271-4.127-3.295a.28.28 0 00-.299-.063.285.285 0 00-.181.251c-.022.392-.272.683-.494.855-.593-1.954-2.86-3.155-2.963-3.21zM186.201 113.673a.278.278 0 00.008.4l2.205 2.165a.254.254 0 00.188.079.289.289 0 00.204-.086.29.29 0 000-.4l-2.196-2.157a.294.294 0 00-.409-.001zM179.158 115.791a.293.293 0 00-.26.306c.008.023.148 1.749-.636 2.941l-1.679-1.828a.28.28 0 00-.299-.07.267.267 0 00-.188.243c-.048.729-.235 1.781-.511 2.235l-1.403-1.71a.278.278 0 00-.347-.071.302.302 0 00-.142.322c.126.479.361 1.757.142 2.589l-2.385-1.647a.273.273 0 00-.377.055c-.047.055-.996 1.216-1.41 1.93-.629-.298-2.322-1.239-2.496-2.8a.277.277 0 00-.313-.251.283.283 0 00-.251.314c.251 2.243 2.974 3.326 3.091 3.365a.213.213 0 00.102.023.282.282 0 00.261-.173c.181-.416.887-1.341 1.287-1.851l2.463 1.702a.274.274 0 00.233.039.279.279 0 00.183-.141c.313-.612.306-1.498.219-2.204l.901 1.114a.3.3 0 00.378.055c.532-.337.774-1.467.878-2.22l1.482 1.616a.29.29 0 00.211.086.287.287 0 00.211-.102c1.14-1.357.967-3.515.957-3.608a.283.283 0 00-.302-.259zM164.552 113.461c.306 0 .822-.055 1.199-.361.273-.22.416-.525.447-.91.077-1.13-.666-1.593-1.066-1.687a.295.295 0 00-.346.212.285.285 0 00.219.337c.063.023.689.204.629 1.098-.016.228-.094.393-.235.51-.306.251-.847.251-1.026.228-.057-.008-1.264-.165-1.264-1.357 0-1.278 1.176-1.671 1.6-1.671.486 0 1.506.259 2.793.98 1.16.651 3.312 1.859 6.473 1.859a.273.273 0 00.242-.141.306.306 0 000-.291l-.775-1.239c1.217.565 3.521 1.169 7.248.463a.282.282 0 00.221-.196.32.32 0 00-.07-.282l-1.646-1.616a.275.275 0 00-.393 0 .286.286 0 000 .4l1.256 1.239c-5.186.824-7.279-1.067-7.295-1.083a.288.288 0 00-.377-.016.289.289 0 00-.063.369l1.138 1.82c-2.723-.118-4.558-1.145-5.672-1.781-1.381-.776-2.494-1.051-3.074-1.051-.754 0-2.166.651-2.166 2.235 0 1.365 1.154 1.852 1.759 1.914.007.01.102.018.244.018zM178.123 109.006h.047c.017 0 2.572-.376 4.832-.667 2.338-.298 4.221-1.945 4.299-2.016a.285.285 0 00.023-.4.284.284 0 00-.4-.023c-.016.016-1.836 1.608-4 1.882-2.26.291-4.815.659-4.84.667a.289.289 0 00-.244.321.28.28 0 00.283.236z"/><g><path d="M109.501 208.211l-.157 2.416s1.914-.398 4.91.879c2.997 1.277 6.425.408 8.44-2.762 2.023-3.161.848-7.231 1.554-9.522.706-2.29 1.553-5.317 1.819-9.688 0 0-1.796 3.875-4.511 5.854-2.722 1.979-13.711 2.27-13.711 7.721.001-.005-.196 2.554 1.656 5.102z" fill="#F9B605"/><path d="M126.13 189.315c-.016 0-.063-.009-.07-.009a.23.23 0 00-.196.117l-.016.04c-.321.658-2.039 4-4.424 5.732-.855.621-2.558 1.066-4.519 1.594-4.142 1.09-9.287 2.455-9.287 6.307-.016.273-.087 2.745 1.654 5.178l-.164 2.346c0 .07.023.125.078.182a.253.253 0 00.157.063c.008 0 .031-.008.047-.008 0 0 .274-.056.761-.056.84 0 2.228.157 4.009.91a7.055 7.055 0 002.808.596c2.369 0 4.534-1.255 5.923-3.437 1.31-2.047 1.31-4.407 1.317-6.494v-.047c.008-1.146.008-2.229.26-3.045.8-2.58 1.568-5.545 1.819-9.733.016-.119-.062-.22-.157-.236zm-17.665 12.071l.008-.022c-.165.297-.29.61-.368.949v-.009c.078-.321.195-.635.36-.918zm1.27 6.832a.245.245 0 00-.047-.147c-1.694-2.308-1.631-4.69-1.615-4.967 0-3.498 4.957-4.816 8.942-5.875 1.93-.502 3.741-.979 4.675-1.654.51-.377.895-.896 1.342-1.364l.109-.109c1.138-1.237 2.103-2.571 2.612-3.481-.313 3.593-1.012 6.229-1.726 8.543-.268.877-.275 2.008-.283 3.207 0 2.022 0 4.322-1.239 6.252-1.302 2.056-3.325 3.225-5.538 3.225-.894 0-1.772-.18-2.627-.541-1.844-.792-3.303-.965-4.189-.965a5.49 5.49 0 00-.572.031l.156-2.155zm-.078-8.212c.016-.008.016-.016.031-.031.047-.031.095-.07.142-.109a.557.557 0 00.039-.021c-.07.052-.149.107-.212.161z"/><g><path d="M256.007 208.211l.164 2.416s-1.914-.398-4.91.879-6.432.408-8.447-2.762c-2.018-3.161-.84-7.231-1.546-9.522-.706-2.29-1.554-5.317-1.819-9.688 0 0 1.788 3.875 4.502 5.854 2.723 1.979 13.713 2.27 13.713 7.721-.002-.005.203 2.554-1.657 5.102z" fill="#F9B605"/><path d="M239.384 189.315c.017 0 .057-.009.064-.009.094 0 .172.056.201.117l.018.04c.313.658 2.039 4 4.424 5.732.848.621 2.55 1.066 4.52 1.594 4.143 1.09 9.287 2.455 9.287 6.307.016.273.078 2.745-1.663 5.178l.173 2.346c0 .07-.031.125-.078.182a.264.264 0 01-.156.063s-.039-.008-.047-.008c0 0-.281-.056-.77-.056-.84 0-2.229.157-4.009.91a7.059 7.059 0 01-2.802.596c-2.367 0-4.533-1.255-5.93-3.437-1.304-2.047-1.312-4.407-1.318-6.494v-.047c0-1.146 0-2.229-.25-3.045-.801-2.58-1.568-5.545-1.827-9.733-.009-.119.07-.22.163-.236zm17.666 12.071l-.016-.022c.172.297.299.61.377.949v-.009a3.726 3.726 0 00-.361-.918zm-1.271 6.832c0-.056.016-.103.049-.147 1.687-2.308 1.623-4.69 1.614-4.967 0-3.498-4.957-4.816-8.942-5.875-1.93-.502-3.748-.979-4.674-1.654-.519-.377-.902-.896-1.351-1.364-.031-.039-.07-.07-.108-.109-1.131-1.237-2.104-2.571-2.604-3.481.306 3.593 1.004 6.229 1.727 8.543.268.877.268 2.008.273 3.207.008 2.022.008 4.322 1.238 6.252 1.312 2.056 3.334 3.225 5.545 3.225.889 0 1.773-.18 2.621-.541 1.853-.792 3.304-.965 4.188-.965.233 0 .423.016.572.031l-.148-2.155zm.079-8.212c-.017-.008-.022-.016-.03-.031-.049-.031-.096-.07-.148-.109a.12.12 0 00-.039-.021c.075.052.146.107.217.161z"/></g></g><g><path d="M109.501 75.237l-.157-2.416s1.914.4 4.91-.879c2.997-1.278 6.425-.408 8.44 2.761 2.023 3.161.848 7.232 1.554 9.523s1.553 5.318 1.819 9.688c0 0-1.796-3.875-4.511-5.852-2.722-1.977-13.711-2.267-13.711-7.719.001 0-.196-2.557 1.656-5.106z" fill="#F9B605"/><path d="M126.13 94.133c-.016 0-.063.008-.07.008a.227.227 0 01-.196-.118l-.016-.039c-.321-.659-2.039-4-4.424-5.734-.855-.62-2.558-1.066-4.519-1.592-4.142-1.09-9.287-2.455-9.287-6.307-.016-.274-.087-2.746 1.654-5.177l-.164-2.345a.24.24 0 01.235-.244c.008 0 .031.008.047.008 0 0 .274.055.761.055.84 0 2.228-.157 4.009-.91a7.038 7.038 0 012.808-.596c2.369 0 4.534 1.255 5.923 3.436 1.31 2.047 1.31 4.409 1.317 6.495v.047c.008 1.146.008 2.228.26 3.044.8 2.581 1.568 5.546 1.819 9.734.016.117-.062.219-.157.235zm-17.665-12.072c0 .008 0 .016.008.023a3.645 3.645 0 01-.368-.949v.008c.078.322.195.636.36.918zm1.27-6.832a.26.26 0 01-.047.149c-1.694 2.306-1.631 4.691-1.615 4.965 0 3.499 4.957 4.816 8.942 5.875 1.93.502 3.741.98 4.675 1.655.51.376.895.895 1.342 1.365l.109.109c1.138 1.24 2.103 2.573 2.612 3.483-.313-3.592-1.012-6.228-1.726-8.542-.268-.879-.275-2.008-.283-3.208 0-2.024 0-4.322-1.239-6.252-1.302-2.055-3.325-3.224-5.538-3.224-.894 0-1.772.18-2.627.541-1.844.792-3.303.965-4.189.965a5.49 5.49 0 01-.572-.031l.156 2.15zm-.078 8.213c.016.008.016.016.031.031.047.031.095.07.142.11a.21.21 0 01.039.023c-.07-.055-.149-.11-.212-.164z"/><g><path d="M256.007 75.237l.164-2.416s-1.914.4-4.91-.879c-2.996-1.278-6.432-.408-8.447 2.761-2.018 3.161-.84 7.232-1.546 9.523s-1.554 5.318-1.819 9.688c0 0 1.788-3.875 4.502-5.852 2.723-1.977 13.713-2.267 13.713-7.719-.002 0 .203-2.557-1.657-5.106z" fill="#F9B605"/><path d="M239.384 94.133c.017 0 .057.008.064.008a.223.223 0 00.201-.118l.018-.039c.313-.659 2.039-4 4.424-5.734.848-.62 2.55-1.066 4.52-1.592 4.143-1.09 9.287-2.455 9.287-6.307.016-.274.078-2.746-1.663-5.177l.173-2.345c0-.071-.031-.125-.078-.181a.264.264 0 00-.156-.063s-.039.008-.047.008c0 0-.281.055-.77.055-.84 0-2.229-.157-4.009-.91a7.042 7.042 0 00-2.802-.596c-2.367 0-4.533 1.255-5.93 3.436-1.304 2.047-1.312 4.409-1.318 6.495v.047c0 1.146 0 2.228-.25 3.044-.801 2.581-1.568 5.546-1.827 9.734-.009.117.07.219.163.235zm17.666-12.072c0 .008-.008.016-.016.023.172-.298.299-.612.377-.949v.008a3.696 3.696 0 01-.361.918zm-1.271-6.832c0 .055.016.102.049.149 1.687 2.306 1.623 4.691 1.614 4.965 0 3.499-4.957 4.816-8.942 5.875-1.93.502-3.748.98-4.674 1.655-.519.376-.902.895-1.351 1.365-.031.039-.07.07-.108.109-1.131 1.24-2.104 2.573-2.604 3.483.306-3.592 1.004-6.228 1.727-8.542.268-.879.268-2.008.273-3.208.008-2.024.008-4.322 1.238-6.252 1.312-2.055 3.334-3.224 5.545-3.224.889 0 1.773.18 2.621.541 1.853.792 3.304.965 4.188.965.233 0 .423-.016.572-.031l-.148 2.15zm.079 8.213c-.017.008-.022.016-.03.031-.049.031-.096.07-.148.11a.174.174 0 01-.039.023c.075-.055.146-.11.217-.164z"/></g></g></svg>