<svg xmlns="http://www.w3.org/2000/svg" viewBox="2.83 48.38 277.8 186.72"><path fill="#D6D4D1" d="M2.834 48.375H280.63v186.716H2.834z"/><path fill="#BE0A31" d="M5.109 216.383h273.247v16.514H5.109z"/><path fill="#FFF" d="M5.109 199.762h273.247v16.621H5.109z"/><path fill="#BE0A31" d="M5.109 183.256h273.247v16.506H5.109z"/><path fill="#FFF" d="M5.109 166.635h273.247v16.621H5.109z"/><path fill="#BE0A31" d="M5.109 150.122h273.247v16.514H5.109z"/><path fill="#FFF" d="M5.109 133.499h273.247v16.623H5.109z"/><path fill="#112A64" d="M5.109 50.725h82.775v82.767H5.109z"/><path fill="#BE0A31" d="M87.884 116.994v16.497H5.109v.008h273.246v-16.505z"/><path fill="#FFF" d="M87.884 100.372h190.472v16.622H87.884z"/><path fill="#BE0A31" d="M87.884 83.858h190.472v16.513H87.884z"/><path fill="#FFF" d="M87.884 67.236h190.472v16.623H87.884z"/><path fill="#BE0A31" d="M87.884 50.74h190.472v16.504H87.884z"/><path d="M37.255 97.493l-5.601 17.266c0 .039.016.078.047.102a.075.075 0 00.11 0l14.669-10.669 14.685 10.668c.031.016.047.016.063.016s.047 0 .063-.016c.031-.023.031-.063.031-.102l-5.601-17.266 14.669-10.66c.031-.032.031-.063.031-.11-.031-.04-.047-.071-.094-.071H52.191L46.59 69.4c-.032-.079-.157-.079-.204 0l-5.601 17.25h-18.12c-.063 0-.094.031-.11.071 0 .047 0 .078.047.11l14.653 10.662z" fill="#FFF"/></svg>