<svg xmlns="http://www.w3.org/2000/svg" viewBox="2.84 48.38 277.79 186.71"><path fill="#D6D4D1" d="M2.835 48.375h277.794v186.714H2.835z"/><path fill="#009642" d="M5.118 178.048h273.253v54.645H5.118z"/><path fill="#233389" d="M5.118 50.536h273.253v54.645H5.118z"/><path fill="#FFF" d="M5.103 105.188h273.269v72.867H5.103z"/><path d="M169.788 166.343l-4.705-10.135a.126.126 0 00-.158-.056l-2.367.902-13.366-17.736c4.377-9.186 4.251-15.022 4.251-15.062 0-.047.438-4.84-2.588-9.241-1.883-2.738-4.223-3.365-4.896-3.483-.58-.11-1.506-.408-2.511-1.177-1.099-.824-2.322-.824-3.405.008-1.02.761-1.93 1.059-2.525 1.169-.675.125-2.997.745-4.879 3.483-3.044 4.401-2.604 9.194-2.604 9.225 0 .055-.126 5.899 4.251 15.077l-13.351 17.736-2.385-.902c-.047-.022-.126 0-.157.063l-4.707 10.127c-.016.056 0 .117.048.147.078.063 8.425 6.473 28.005 7.007h.016c19.579-.542 27.911-6.942 28.004-7.007.029-.027.045-.09.029-.145zm-40.289 2.024l-4.016-.736-.518-1.624 2.745-.941 1.789 3.301zm-2.148-4.949l-3.217.979-1.208-3.646c.815.101 4.079.635 4.425 2.667zm9.538.36l5.884.282.408.965-4.472 1.867-1.82-3.114zm-1.569 2.77l1.883 3.027-4.817-.572-.407-1.334 3.341-1.121zm3.953-46.11c.063.557.095.949.063 1.522-.095 1.592-3.938 4.981-3.97 5.021-.047.031-.063.078-.031.125.016.047.063.086.109.086l3.169.063c0 .243-.016.847-.078 1.757-.063 1.231.173 3.161.188 3.224 0 .016-.095 1.867-1.035 2.588a4.221 4.221 0 00-1.256 1.499c-2.871-5.53-3.216-11.735-3.216-11.79 0-9.084 5.13-10.19 6.04-10.315-.218 3.765-.076 5.24.017 6.22zm-4.941 44.509l-3.122 1.115-1.443-3.374c.815.031 4.079.259 4.565 2.259zm9.883-50.73c.927.125 6.057 1.231 6.057 10.307-.016.063-.359 6.268-3.23 11.798a4.08 4.08 0 00-1.256-1.499c-.94-.722-1.021-2.573-1.021-2.573 0-.079.251-2.008.173-3.24-.047-.91-.063-1.514-.079-1.757l3.187-.063c.047 0 .095-.04.108-.086a.12.12 0 00-.03-.125c-.047-.039-3.875-3.428-3.983-5.021-.032-.573 0-.965.063-1.522.089-.978.248-2.453.011-6.219zm3.782 49.287c.36-.086.705-.125 1.004-.125 1.49 0 1.728 1.02 1.758 1.316l-3.437 1.702-1.554-2.384c.268-.062.879-.203 2.229-.509zm-1.961 6.086l-5.646.134-.753-1.576 4.457-1.656 1.942 3.098zm5.741-3.551l2.024 2.367c-.486.197-2.071.763-3.42.763-1.271 0-2.01-.486-2.182-1.451l3.578-1.679zm5.084-4.096c.563.172.878.416.894.713.08.848-1.93 2.104-2.84 2.581l-1.646-2.267 3.592-1.027zm1.742 2.486c1.351.863 1.663 2.087 1.726 2.494-.705.047-3.373.736-3.922.879l-.611-1.13 2.807-2.243zm4.8-3.969l-2.087 2.958-1.71-2.472c.393-.273 1.805-1.23 2.824-1.23.518-.001.832.242.973.744zm.879 1.993l1.098 2.283-2.307.957c-.125-.456-.47-2.087 1.209-3.24zm-45.576 1.145l1.38-2.902.895 2.26-2.275.642zm3.263 2.667l-2.589-1.106 2.26-.635.329 1.741z"/></svg>