<svg xmlns="http://www.w3.org/2000/svg" viewBox="2.84 48.38 277.79 186.71"><path fill="#D6D4D1" d="M2.835 48.376h277.794v186.712H2.835z"/><path fill="#1E9F46" d="M5.189 187.163h273.254v45.545H5.189z"/><path fill="#E30C19" d="M5.189 50.545h273.254v45.544H5.189z"/><path d="M5.189 96.089H278.46v91.081H5.189z"/><g fill="#FFF"><path d="M136.27 164.399c-12.567 0-22.765-10.19-22.765-22.765 0-12.583 10.197-22.772 22.765-22.772 5.727 0 10.889 2.189 14.889 5.672-5.005-6.189-12.567-10.222-21.148-10.222-15.093 0-27.33 12.229-27.33 27.322s12.237 27.321 27.33 27.321c8.581 0 16.144-4.04 21.148-10.221-4.002 3.484-9.163 5.665-14.889 5.665z"/><path d="M160.713 145.595l1.566 12.488c0 .017.018.056.049.056.016.008.063-.017.063-.017l6.104-11.037 12.379 2.408.03-.008c.031-.008.031-.008.048-.031 0-.023-.017-.047-.017-.07l-8.582-9.217 6.088-11.029c.017-.023 0-.047-.017-.078 0-.008-.047-.024-.063-.024l-11.421 5.334-8.598-9.225c-.031-.047-.11-.008-.11.047l1.522 12.52-11.406 5.325c-.031.009-.047.056-.047.056.016.047.031.07.063.07l12.349 2.432z"/></g></svg>