<svg xmlns="http://www.w3.org/2000/svg" viewBox="2.84 48.38 277.79 186.71"><path fill="#D6D4D1" d="M2.835 48.375h277.794v186.714H2.835z"/><path fill="#C0282C" d="M5.11 50.721h273.223v182.155H5.11z"/><path d="M170.377 135.323a.19.19 0 00-.188-.126h-21.588l-6.715-20.592c-.031-.078-.094-.133-.173-.133a.213.213 0 00-.188.133l-6.668 20.576-21.604.023c-.095 0-.157.055-.188.134a.182.182 0 00.063.211l17.478 12.717-6.652 20.599c-.031.08 0 .166.063.213a.22.22 0 00.109.039.176.176 0 00.109-.039c5.084-3.727 14.528-10.573 17.478-12.715l17.509 12.707a.19.19 0 00.22 0 .224.224 0 00.079-.221l-6.685-20.566 17.479-12.74a.192.192 0 00.062-.22zm-20.255 4.628h6.025l-4.863 3.562-1.162-3.562zm-8.409 10.527l-5.522-4.031 2.118-6.496h6.824l2.103 6.496-5.523 4.031zm4.063 2.935l3.028-2.188 1.836 5.734-4.864-3.546zm-5.929-18.216l1.866-5.734 1.868 5.727-3.734.007zm-7.03 21.761l1.836-5.734 3.028 2.182-4.864 3.552zm.502-17.007l-1.16 3.562-4.864-3.546 6.024-.016z" fill="#006232"/></svg>