<svg xmlns="http://www.w3.org/2000/svg" viewBox="2.84 48.38 277.79 186.71"><path fill="#D6D4D1" d="M2.835 48.376h277.793v186.712H2.835z"/><path fill="#D4AF3B" d="M5.071 50.714h273.236v182.161H5.071z"/><path fill="#C32125" d="M16.445 62.096h250.471v159.391H16.445z"/><path d="M142.081 154.801h15.721c.219-.871.078-5.993-1.084-10.943-1.16-4.95 1.005-8.777 1.005-8.777l-3.859-4.299c-4.438 2.346-10.292.33-11.782-.25-1.475.58-7.343 2.596-11.782.25l-3.859 4.299s2.165 3.827 1.004 8.777c-1.146 4.95-1.302 10.072-1.083 10.943h15.719z" fill="#195F92"/><path d="M183.076 140.045c12.348-3.192 12.002-10.346 12.002-10.346-7.217 5.42-9.351 4.91-9.351 4.91 9.994-3.867 8.786-11.468 8.786-11.468-5.695 6.393-9.335 7.687-9.335 7.687 10.573-7.091 7.97-15.547 7.97-15.547-3.468 7.318-7.044 9.759-7.044 9.759 8.832-10.842 3.78-18.341 3.78-17.909 0 .424-.313 1.436-.313 1.436-2.385 8.613-5.317 12.033-5.317 12.033 2.369-5.279 2.888-9.186 2.888-9.186 1.255-10.543-1.992-12.638-1.992-12.638.674 2.455-1.867 13.257-3.026 14.262-1.179.996.769-.785 1.004-7.938.233-7.154-3.153-10.599-3.153-10.599.047.895-1.224 15.007-1.914 14.175-.675-.847-.8.087-.8.087s-.33 2.98-2.088 6.503c-1.772 3.522-3.403 5.279-3.403 5.279s-.659-3.044-1.24-1.554c-.563 1.491-2.433 4.307-4.722 7.006-2.291 2.69-2.855 3.828-2.637 5.632.221 1.813 2.069 3.082 2.59 3.412.502.321 1.757.831 1.363 2.58-.375 1.749-4.268 1.428-5.082 1.482-.802.056-.91.722-.91.722-.737 1.844-2.183 1.828-2.183 1.828-.202-4.777 1.962-7.733 1.962-7.733l-5.789-6.802-.861.393c-1.256-1.436-1.192-3.311-1.192-3.311s2.103.706 1.49-.722c-.612-1.42-.173-4.103-.173-4.103.848.949 1.93 1.475 1.945-.047.016-1.515 1.176-2.722 1.176-2.722s1.555 1.059 3.563.446c2.04-.619 3.105-2.525 3.105-2.525s3.123 1.772 5.898.627c2.776-1.129 2.321-3.718 1.883-4.573-.453-.847-.926-1.475-1.113.212-.172 1.671-2.26 2.573-4.018 1.75-1.771-.84-4.644-.079-4.644-.079.735-.737 1.771-1.718 3.198-1.694 1.412.023 1.586 1.192 2.024 1.373.423.173.58-.957.58-.957.425-5.546-4.927-3.655-4.927-3.655-1.631-4.275-7.641-.824-7.641-.824-2.699.494-4.724-1.153-4.724-1.153l.438-1.403s.957-.244 1.113-.698c.141-.455-.723-1.028-.723-1.028.299-1.788 2.275-2.165 2.275-2.165s.406.095.813.016c.408-.086.533-.463.533-.463s.659-.203.896-.761c.234-.564-.268-1.529-.268-1.529.581-.377.533-1.459.533-1.459s.502-.087.406-.965c-.094-.871-.926-.879-.926-.879-.063-.659-.926-1.663-.926-1.663.518-1.655-1.238-1.42-1.238-1.42-.563-.4-2.039-1.138-2.039-1.138-.049-1.412-1.396-.847-1.396-.847-1.759-.432-2.997-.675-2.997-.675-1.788-.941-2.9-1.012-2.9-1.012 1.789-3.177-1.317-3.836-1.317-3.836l-.11-.651 1.161.126.095-1.781-1.082.063.141-1.067h-2.195l.142 1.067-1.066-.063.078 1.781 1.161-.126-.11.651s-3.106.659-1.302 3.836c0 0-1.146.07-2.918 1.012 0 0-1.239.243-3.013.675 0 0-1.317-.565-1.381.847 0 0-1.49.737-2.039 1.138 0 0-1.758-.235-1.239 1.42 0 0-.863 1.004-.926 1.663 0 0-.832.008-.926.879-.095.878.408.965.408.965s-.048 1.082.533 1.459c0 0-.486.965-.267 1.529.235.558.895.761.895.761s.125.377.533.463c.407.079.815-.016.815-.016s1.992.377 2.291 2.165c0 0-.879.573-.722 1.028.141.454 1.098.698 1.098.698l.439 1.403s-2.023 1.647-4.723 1.153c0 0-6.009-3.451-7.625.824 0 0-5.365-1.891-4.957 3.655 0 0 .173 1.13.611.957.424-.181.612-1.35 2.024-1.373 1.396-.023 2.447.957 3.185 1.694 0 0-2.855-.761-4.644.079-1.773.823-3.844-.079-4.017-1.75-.188-1.687-.659-1.059-1.098-.212-.471.855-.91 3.444 1.866 4.573 2.793 1.146 5.884-.627 5.884-.627s1.098 1.906 3.106 2.525c2.023.612 3.577-.446 3.577-.446s1.16 1.207 1.176 2.722c.017 1.521 1.099.996 1.946.047 0 0 .454 2.683-.173 4.103-.612 1.428 1.475.722 1.475.722s.094 1.875-1.177 3.311l-.862-.393-5.789 6.802s2.164 2.956 1.977 7.733c0 0-1.459.016-2.197-1.828 0 0-.109-.666-.925-.722-.816-.055-4.691.267-5.067-1.482-.377-1.749.862-2.259 1.364-2.58.518-.33 2.385-1.6 2.589-3.412.22-1.804-.345-2.941-2.636-5.632-2.29-2.699-4.142-5.515-4.723-7.006-.564-1.49-1.239 1.554-1.239 1.554s-1.647-1.757-3.404-5.279c-1.741-3.522-2.087-6.503-2.087-6.503s-.125-.934-.8-.087c-.69.832-1.945-13.28-1.914-14.175 0 0-3.404 3.444-3.153 10.599.235 7.153 2.181 8.935 1.02 7.938-1.161-1.005-3.702-11.807-3.044-14.262 0 0-3.247 2.095-1.992 12.638 0 0 .502 3.906 2.902 9.186 0 0-2.949-3.42-5.334-12.033 0 0-.313-1.012-.313-1.436 0-.432-5.052 7.067 3.78 17.909 0 0-3.576-2.44-7.044-9.759 0 0-2.604 8.456 7.97 15.547 0 0-3.64-1.294-9.319-7.687 0 0-1.239 7.601 8.771 11.468 0 0-2.134.51-9.351-4.91 0 0-.345 7.153 12.002 10.346 0 0-5.146-.321-10.621-4.009 0 0-.534 7.594 11.17 8.126 0 0-3.562.684-7.954-1.104l-.298-.98s-.095-.33-.69.016c-.596.345-.769.392-.895.376-.109-.017-.22-.446-.298-1.317 0 0 0-.597-.502-.393s-1.757.729-1.757.729-.33.149-.142.486c.188.33.879 1.507.879 1.507l-1.443.407s-.346.056-.204.408c.125.359.815 1.938.815 1.938s.095.329.455.126a45.14 45.14 0 001.083-.628l.36 1.451s-1.772.604-1.317 1.239c.471.636 1.16.195 2.133 1.396.974 1.2 1.758 4.157 2.024 7.868.267 3.718 1.286 6.487 4.157 8.989 0 0-1.177 2.299 1.256 3.325 0 0-.801 4.542 2.385 7.523 0 0-2.182 1.112-2.275 2.51-.078 1.412 1.412 2.84 1.412 2.84s-1.318 2.022 2.243 3.06c0 0-.078 2.369 2.871 1.836 0 0 1.208-.707 1.067 1.304-.157 2.008-.55 3.169.407 2.84.957-.33.832-.706 1.585-.269.769.425 1.694 1.066 1.741.408.048-.66-.173-2.056.69-2.197.863-.155 2.228-.596 1.679-1.051-.564-.455-3.2-1.428-3.169-2.229.047-.8.329-1.333.659-1.632.313-.282 1.38-1.364 2.385-3.247.94-1.805 5.303-4.001 5.82-4.252.016.142.047.298.078.439.581 2.272 1.522.688 2.464-.049.94-.705 2.871-2.134 4.346-2.572 0 0 .988 2.479 1.898 1.146.909-1.351 5.428-7.733 7.75-9.092l.533.243s-.91 2.346-1.521 3.021c-.612.688-4.377 4.322-2.024 7.036 0 0-2.055 1.49-2.103 4.725 0 0-.407.154-.753 1.254 0 0-1.93 1.316-2.776 2.399-.832 1.082-3.734 1.004-2.809 2.698.925 1.693 4.174 1.535 4.174 1.535s-2.15 3.484-.377 3.75c1.741.283 3.357-.735 3.357-.735s-1.066 3.828.753 3.044c1.82-.785 3.436-1.396 3.436-1.396s-.675 2.308.11 3.39c.784 1.065 1.302 1.944 2.008.909.706-1.02 1.428-1.727 1.428-1.727s.91 4.455 3.311 5.805c2.417-1.35 3.311-5.805 3.311-5.805s.722.707 1.428 1.727c.706 1.035 1.226.156 2.009-.909.783-1.082.108-3.39.108-3.39s1.632.61 3.438 1.396c1.817.784.752-3.044.752-3.044s1.602 1.021 3.373.735c1.758-.266-.394-3.75-.394-3.75s3.265.158 4.174-1.535c.91-1.694-1.961-1.616-2.81-2.698-.848-1.083-2.762-2.399-2.762-2.399-.359-1.1-.752-1.254-.752-1.254-.063-3.232-2.119-4.725-2.119-4.725 2.354-2.714-1.396-6.348-2.022-7.036-.61-.675-1.521-3.021-1.521-3.021l.533-.243c2.321 1.357 6.842 7.741 7.75 9.092.896 1.333 1.913-1.146 1.913-1.146 1.459.438 3.39 1.866 4.33 2.572.927.723 1.853 2.29 2.448.109 1.71.611 4.85 1.758 5.962 2.291 1.553.753 2.229 1.943 3.969 2.289 1.728.314 13.445-2.762 14.89-5.178 1.459-2.432-.03-3.326-.03-3.326.407-1.207-.533-2.147-.533-2.147.784-4.754-4.032-7.013-4.032-7.013l.063-1.64s.424.298.815.494c.424.203.58-.221.58-.221s.454-1.442.58-1.812c.125-.377-.299-.408-.299-.408s-.345-.07-.736-.11c-.393-.063-.188-.313-.188-.313s.188-.268.424-.69c.251-.438-.142-.524-.142-.524s-1.442-.439-2.01-.581c-.549-.125-.486.354-.486.354s-.016.354.018.949c.031.596-.438.196-.939-.142-.52-.338-.627.228-.627.228s-.314 1.044-.486 1.766c-.188.706.298.604.298.604l1.161-.016-.879 1.389c-5.773-.229-7.279 4.274-7.279 4.274-1.74.715-1.602 2.361-1.602 2.361-1.853 1.537-1.082 3.23-.645 3.718.426.486 2.024 2.81 1.396 3.062-.424.156-3.437-2.275-5.303-3.844 1.131-.158 1.74-.599 1.74-.599-1.757-.438-2.523-1.856-2.523-1.856 1.051-.283 1.662-1.305 1.662-1.305-1.521-.212-4.455-1.45-4.455-1.45.644-.597.769-1.468.769-1.468-7.405-1.23-7.672-5.945-7.672-5.945s.235 2.26 3.593 2.628c3.357.354.221-3.178.221-3.178 4.33 4.182 8.738 1.554 8.738 1.554-1.191-.698-1.303-1.671-1.303-1.671 6.322 1.836 8.283-2.125 8.283-2.125-2.65-.229-3.482-1.122-3.482-1.122 8.064 1.693 7.986-2.81 7.986-2.81-1.538.017-3.609-1.098-3.609-1.098 8.237 1.23 8.018-4.581 8.018-4.581-3.732 1.012-6.291.431-6.291.431 10.699-.29 9.808-6.173 9.808-6.173-4.485 1.874-8.158 1.168-8.158 1.168 11.703-.533 11.171-8.126 11.171-8.126-5.475 3.692-10.621 4.013-10.621 4.013zm-32.35-48.195s2.714 1.404 2.809 3.334c.125 1.922-.752 1.922.125 3.389 0 0-1.035.212-1.615.486-.563.267-1.176.056-1.316-.706-.003 0 3.024-1.247-.003-6.503zm-17.289 6.503c-.126.762-.753.973-1.318.706-.58-.274-1.6-.486-1.6-.486.862-1.467 0-1.467.094-3.389.126-1.93 2.824-3.334 2.824-3.334-3.044 5.256 0 6.503 0 6.503zm-40.336 47.678l-.533-1.302 1.082-.196c.094.329.251.69.486 1.066l-1.035.432zm24.662 21.053s.126.871.77 1.468c0 0-2.934 1.238-4.456 1.45 0 0 .612 1.02 1.663 1.303 0 0-.753 1.42-2.525 1.858 0 0 1.035.753 2.934.612-1.052.926-2.777 2.055-4.942 2.165-3.64.157-6.73-.126-6.73-.126s.329-3.373-2.84-6.754c0 0 .769-1.992-1.568-3.459 0 0 .376-4.565-2.762-9.053-2.808-4.001-3.153-8.646-2.683-10.27 1.208 1.404 3.671 2.754 8.66 2.887 0 0-2.572.581-6.291-.431 0 0-.22 5.813 8.032 4.581 0 0-2.086 1.113-3.608 1.098 0 0-.078 4.503 7.971 2.81 0 0-.832.895-3.483 1.122 0 0 1.961 3.961 8.284 2.125 0 0-.11.973-1.303 1.671 0 0 4.409 2.628 8.755-1.553 0 0-3.153 3.529.204 3.177 3.357-.368 3.608-2.628 3.608-2.628s-.285 4.717-7.69 5.947zm26.906-72.26c-.203-2.244-.627-3.829-.58-4.503 0 0 2.979.934 3.576 3.295.598 2.353-.485 2.055.049 4.142 0 0-.896.22-1.352.729-.453.509-1.726.109-1.943-.134-.219-.243-1.021-.438-1.021-.438s1.492-.833 1.271-3.091zm-8.173-1.208c.596-2.361 3.577-3.295 3.577-3.295.047.674-.377 2.259-.597 4.503-.22 2.259 1.271 3.091 1.271 3.091s-.769.195-.988.438c-.219.243-1.49.644-1.961.134-.455-.51-1.35-.729-1.35-.729.55-2.088-.549-1.79.048-4.142zm-2.165 12.879c2.729.973 6.62 1.099 7.75 1.122 1.146-.023 5.021-.149 7.766-1.122 0 0 .016 2.542 2.572 3.405 0 0-1.615 2.267-3.75 2.455 0 0 0 .698 1.287 1.153 0 0-2.104 2.368-4.299 2.854 0 0 .03 1.373 1.35 1.906 0 0-2.588 2.919-4.299 3.405 0 0-.472 1.71 1.35 2.651 0 0-.879 2.337-1.977 2.714-1.099-.377-1.977-2.714-1.977-2.714 1.819-.941 1.349-2.651 1.349-2.651-1.694-.486-4.299-3.405-4.299-3.405 1.318-.533 1.35-1.906 1.35-1.906-2.196-.486-4.299-2.854-4.299-2.854 1.286-.455 1.302-1.153 1.302-1.153-2.148-.188-3.765-2.455-3.765-2.455 2.558-.863 2.589-3.405 2.589-3.405zm17.54 56.393c-3.97 1.922-6.81 2.307-9.79 5.806-2.996-3.499-5.82-3.884-9.79-5.806-4.126-1.978-5.538-6.244-5.538-6.244h30.657s-1.412 4.267-5.539 6.244zm-8.174-11.782s.188-.455.518-.016c.33.432.502.416.426.706-.079.281-.395 1.004-.753 1.224-.361.22-1.412-.753-2.087.604 0 0-.895.174-1.192 1.178h-4.832c.125-.394.235-.863.298-1.396.157-1.451.941-3.687 1.883-4.023 0 0 1.977.432 5.522-.854-.002-.003-.52 1.746.217 2.577zm3.31.721c-.172-.337-.832-1.255.424-2.03 0 0 1.035 1.693 3.438 1.481 0 0-.096-.628.375-.518.486.108.629.165.629.165s.689.878-.347 1.944c0 0-2.134.017-2.29 1.264 0 0-.533.055-.863.667h-2.432c.188-.386.424-.793.706-1.178.737-.995.517-1.457.36-1.795zm10.795 2.974h-3.86c1.507-2.69.91-4.361.802-5.734-.111-1.389-.535-1.443-1.555-1.475-1.02-.023-1.286-.519-1.286-.519-.016-1.105-.424-1.766-.424-1.766 2.997-.439 3.437-1.043 3.703-1.459.282-.416.485-1.702-.11-2.432-.58-.729-1.632-.949-2.98-1.02-1.35-.071-1.896-.181-3.09-.354-1.209-.164-2.119-.714-1.866-1.482.25-.761 1.065-.792 1.866-.494.77.298 2.056.486 3.654.109 1.602-.376 1.93-1.278 1.992-1.49.063-.204.063-.792-.502-.502-.58.29-1.113.031-2.102-.125-1.006-.165-2.135.031-2.746.337-.611.306-1.553.432-2.698 1.099-1.13.674-1.459 2.228.329 3.381 1.789 1.153 6.307.455 6.307 1.812 0 1.342-3.09 1.114-3.09 1.114-2.762-.902-6.949-.369-6.949-.369s-.314-.886-.52-1.263c-.203-.385 1.146-.51 1.773-.8.627-.282-1.179-1.601-1.412-1.867-.222-.259 1.035-.831 1.334-1.169.297-.345-.646-1.051-.91-1.294-.268-.243.063-.51.22-.55.142-.031.61-.368.549-.862-.063-.502-1.161-.51-1.569-.533-.406-.023-.203-.416-.219-.588-.018-.166-.095-.252-.346-.408-.267-.148-.926-.307-1.632.031-.706.346-.706.109-1.804.252-1.083.141-1.083.58-1.083.58s-1.271.258-1.883.47c-.596.212-.251 1.216-.109 1.545.142.346-.549.447-.879-.267-.329-.714-.486-.643-.486-.643s-.486.031-.471.925c.016.895.91 1.476 1.569 1.562.675.078.424.142.502.887.078.737 1.663.439 1.71.784.047.345-1.271.337-1.992.564-.706.235-1.224 1.491-1.224 1.491s-.941-.009-1.459-.878c-.55-.879-.581-2.354-.581-2.558s.204-1.121.282-2.142c.11-1.012-.125-1.317-.329-1.404-.204-.078-.11.377-.346.816-.235.432-.188-.055-.298-.486-.125-.439-.643-.744-.879-.541-.219.203-.016.948-.203 1.16-.188.204-.659-.784-1.067-.533-.392.251.11.636-.016 1.114-.125.486 0 1.043.173 1.302.141.267.439.698.267.918-.157.22-.313.039-.533-.157-.235-.188-.408-.769-.722-.604-.33.165-.22 1.122.392 2.149s1.538.815 1.538.815.125.895.58 2.871c.439 1.978 2.667 1.476 2.667 1.476l.157.572c-.644.831-.439 1.601-.408 2.182.016.58.848.306.848.306s-.644 4.394-2.087 4.448-1.271 1.027-1.271 1.027a1.55 1.55 0 00-1.067.667h-3.593c-.219-.871-.063-5.993 1.083-10.943 1.161-4.95-1.004-8.777-1.004-8.777l3.859-4.299c4.439 2.346 10.308.33 11.782-.25 1.49.58 7.343 2.596 11.783.25l3.858 4.299s-2.165 3.827-1.005 8.777c1.162 4.949 1.305 10.074 1.086 10.945z" fill="#BA6C26"/><path d="M141.155 84.978v-.973s-.627.188-1.066.949l1.066.024z" fill="#1B6093"/><circle cx="137.688" cy="102.252" fill="#D5B039" r=".738"/><path d="M136.057 91.442c0 .275-.235.503-.55.503-.298 0-.549-.228-.549-.503 0-.274.251-.494.549-.494.314 0 .55.219.55.494zM134.896 94.337a.556.556 0 01-.549.549.56.56 0 01-.565-.549c0-.307.251-.565.565-.565.298 0 .549.259.549.565zM138.3 89.12c0 .274-.235.502-.549.502s-.549-.228-.549-.502.235-.502.549-.502.549.228.549.502zM133.672 89.638c0 .204-.173.376-.408.376s-.407-.172-.407-.376c0-.212.172-.377.407-.377s.408.165.408.377zM130.314 91.819c0 .204-.188.369-.424.369s-.424-.165-.424-.369c0-.212.188-.377.424-.377s.424.165.424.377zM128.729 95.176a.563.563 0 01-.549.557.566.566 0 01-.564-.557c0-.306.251-.564.564-.564.299 0 .549.258.549.564z" fill="#D5B039"/><path d="M139.555 87.771c-.722.118-1.71.644-1.71.644s.612-.031.863.502c.251.518-.486 1.043-.486 1.043s-.518.321-1.02-.125c-.502-.447-.204-.934-.204-.934s-1.601.894-2.495 1.93c-.926 1.043-1.694 3.036-1.851 3.655-.173.636-.597 2.989 1.663 3.373 0 0-.188-.22-.142-.557.063-.321.204-.784.11-1.192 0 0 .203-.165.658.377.471.541.988 1.027.988 1.027s.408-.533.157-1.357c-.235-.823-.518-1.459.126-3.02.643-1.554 2.823-3.397 3.341-3.499 0 0 .471-.055.55-.934.08-.878.158-1.035-.548-.933zm-5.208 7.759a1.03 1.03 0 01-1.036-1.036 1.027 1.027 0 112.056 0 1.028 1.028 0 01-1.02 1.036zm1.16-3.005c-.533 0-1.004-.4-1.004-.895 0-.502.471-.895 1.004-.895.55 0 .989.393.989.895 0 .494-.439.895-.989.895z" fill="#D5B039"/><path d="M136.166 88.901s-1.161.243-2.023.533c0 0 .031.502-.455.831-.502.338-.957-.023-.957-.023s-1.506.604-2.118 1.177c0 0 .346.604-.078 1.099-.439.494-1.067.204-1.067.204s-.596 1.027-.784 1.632c0 0 .58.471.361 1.082-.235.604-.722.675-.722.675s-.188.848.376 1.106c.564.267.988.392 1.506 1.161 0 0 .33-.495.22-1.342-.125-.855-1.035-4.071 3.499-6.096-.001 0 .25-.784 2.242-2.039zM139.068 99.098s.377 1.067 1.443.989c1.052-.087 1.192-.754 1.192-.754s.204 1.146-.58 1.146c-.8.008-3.655.031-3.97-.039-.298-.07-1.004-.644-1.051-1.066 0 0 .8.784 1.632.729.815-.048.8-1.044.8-1.044l.534.039z" fill="#D5B039"/><path d="M137.735 98.753s-.486-.181-.832-.385c-.329-.195-.658-.086-.658-.086s-.063.902.643 1.004c.706.103.847-.533.847-.533zM139.665 98.903s.659-.62 1.146-.604c.471.008.611.393.596.573 0 .188-.188.494-.753.486-.55-.016-.989-.455-.989-.455zM135.994 98.934c0 .125-.11.243-.251.243-.126 0-.236-.118-.236-.243 0-.142.11-.243.236-.243.141 0 .251.101.251.243zM134.629 96.604s.455.486.815.761a.92.92 0 01.361.973s-.848.173-1.067-.298c-.219-.471-.109-1.436-.109-1.436zM133.672 99.028s.235-.173.392-.479c.173-.313 1.036.087 1.099.385.063.29-.063.518-.267.525-.22.008-.393-.008-.611-.173-.222-.164-.613-.258-.613-.258z" fill="#D5B039"/><path d="M133.013 99.358s1.035.769 1.616.792c.596.031.957-.22 1.13-.659 0 0 .156.902-.519 1.146-.658.259-1.913.753-3.436-.063.001 0 1.115-.228 1.209-1.216zM132.04 99.483s-1.584-.965-1.772-.321c-.205.642 1.145 1.058 1.772.321zM128.573 97.647s1.679.926 1.317 1.24c-.375.321-1.819.682-1.317-1.24zM129.875 99.695c0 .126-.126.228-.282.228-.157 0-.267-.102-.267-.228 0-.118.109-.212.267-.212.156 0 .282.093.282.212zM133.201 102.284l1.57.391-1.334.982-1.24-.527zM133.656 105.892s-1.647 1.372-4.189 1.278c0 0 1.601 1.334.597.91-.988-.439-1.992-2.243-5.727-2.33 0 0-1.82.031-2.51 1.239-.69 1.216.658.871.988.762.345-.11 1.098-.519 2.887.36 1.819.887 3.436 1.789 5.789 1.083 2.354-.698 2.165-3.302 2.165-3.302z" fill="#D5B039"/><path d="M124.462 109.116c0 .369-.329.659-.737.659-.392 0-.722-.29-.722-.659 0-.368.33-.65.722-.65.408-.001.737.281.737.65zM131.271 125.957s.611 1.734 1.286 2.511c0 0-1.521-.306-2.243-.848 0 0 .832-.94.957-1.663zM135.476 123.557s.393 2.997-.58 5.296c0 0 3.938.353 6.291-1.161 0 0-1.506-2.017-1.835-3.122 0 0-1.805.204-3.106-.69 0 0 .753 1.827 1.93 2.204-.001-.001-1.084.439-2.7-2.527z" fill="#D5B039"/><path d="M141.108 122.059c-.047-.384-.33-.329-.941-.572-.628-.243-3.311-2.495-3.499-3.334-.188-.84.032-.675.393-.918.393-.243.675-.784.675-.784s-2.369-.651-4.299-3.522c0 0 .345.047.8-.376 0 0-1.506-.902-3.044-2.542 0 0-3.027.887-6.149-.848 0 0-.282 1.64-1.428 1.177-1.161-.479-.926-1.663-.926-1.663s-2.447-1.467-4.283-1.035c-1.835.439-2.274 2.848-1.647 3.742 0 0 .534-1.49 2.432-1.436 1.883.055 2.762 1.436 3.609 2.031.831.597 2.432 1.601 2.023 2.22-.408.62-2.087 1.256-4.032.322 0 0 .659 1.687 2.338 1.741 1.679.047 3.075-.675 3.075-.675s2.306 1.381 2.149 4.071c0 0 .988-.125 1.239-1.718 0 0 1.412 1.867.627 5.499 0 0 1.209-.188 1.428-.651 0 0 .126-.156.157.251.016.416.298 3.915 2.463 5.664 0 0 1.239-3.153.393-7.515 0 0 1.757 2.086 3.828 2.251 2.055.166 2.666-.995 2.619-1.38zm-9.052-4.173s-3.436-2.142-3.813-2.793c-.392-.644 0-.729.299-.596.298.141 1.897 1.412 2.321 1.38 0 0 .565-.894-1.475-3.059-2.071-2.172 3.076 1.279 2.668 5.068zm.706 3.789l.628-.235s-.063 2.4.392 4.683c-.001-.001-.754-.055-1.02-4.448zm2.447-1.789l.188-.408s.612 1.169 3.028 2.393c.001-.001-.847.455-3.216-1.985z" fill="#D5B039"/><path d="M112.728 110.708s.156 2.298 2.839 2.494c2.699.204 3.028-1.945 8.52.322 0 0 .769.337 0 .839-.753.51-1.443-.22-1.632-.329-.173-.103-1.317-.879-3.546-.338-2.243.542-3.138.973-4.439.737-1.287-.234-2.81-1.717-1.742-3.725z" fill="#C62427"/><path d="M124.117 147.867c-.188.4-.471.667-.8.792-.33.126-.33.056-.204.008.125-.039.753-.618.91-1.012.109-.282.36-.471.486-.557.345-1.616.643-3.516.611-5.154 0 0-1.192.181-2.4-1.161-1.224-1.356-1.819-1.521-3.718-1.443-1.898.087-3.122-1.726-3.138-2.432-.032-.714.078-2.228 1.804-3.044 1.741-.807 2.902-2.078 2.902-3.514 0-1.435-2.306-4.181-4.314-6.369-2.008-2.196-2.84-4.503-2.84-4.503s-.611.77-.423 3.091c0 0-3.468-1.757-4.252-.455-.769 1.303 1.71 4.119 1.71 4.119s-.109.36-1.805-.84c-1.71-1.192-2.934-.447-3.2.228-.267.667.063 1.608 1.208 2.251 1.146.651 1.601 1.161.612.926s-2.244-.235-2.714.644c-.439.894.925 2.063 2.07 2.298 1.13.236 2.196.557 1.334.699-.863.156-2.244-.088-2.447 1.105-.188 1.191 1.615 1.968 2.228 2.102.611.125 2.416.251 1.13.753-1.271.51-1.867.926-1.601 2.259.282 1.334 2.651.902 3.06.832.392-.07 1.066.142.486.58-.581.432-1.522.949-.69 1.891.831.941 2.541.706 2.934.51.376-.196 1.757-.557.91.048-.848.611-1.758.965-1.271 2.117.519 1.161 2.417 1.177 2.935 1.013.533-.165 1.788-1.036 1.396.125-.408 1.161-.785 2.455.58 3.052 1.35.597 2.307-.432 2.824-.722.533-.29.518-.486.815-.306.298.18-.047.524-.142.792-.094.267-.345 2.242 2.495 2.134 0 0 .408-1.295.784-3.044-.076-.025-.17-.011-.265.187zm-16.834-21.556s1.601.706 1.71.855c0 0 .298.345-.125.251-.439-.102-1.585-1.106-1.585-1.106zm-.628 3.758c-.078-.135 2.181.156 2.385.289 0 0 .377.244-.047.268-.424.024-2.259-.432-2.338-.557zm1.412 4.353c-.156-.26 1.554-.598 1.726-.525 0 0 .519.125.11.273-.392.149-1.678.494-1.836.252zm3.185 2.855c-.423.321-1.694.588-1.694.588s1.13-.887 1.601-.887c-.001 0 .548-.031.093.299zm.424-12.731c-.455-.283-1.271-1.177-1.192-1.216.11-.032 1.192.604 1.381 1.02-.001 0 .235.486-.189.196zm2.887 15.343c-.329.431-1.804 1.074-2.039 1.035-.235-.047 1.302-1.224 1.804-1.311-.001.001.565-.156.235.276zm2.902 2.471c-.078.533-1.914 1.459-2.4 1.333-.486-.125 1.726-1.066 2.087-1.451-.001 0 .392-.423.313.118zm3.546 2.604c-.282.479-1.584 1.271-1.914 1.263-.313-.017 1.224-1.325 1.679-1.514-.001 0 .517-.213.235.251z" fill="#D5B039"/><path d="M123.364 151.64s-1.554.078-2.322-1.139c-.753-1.208-.502-.94-2.212-.705-1.71.242-3.075-2.235-2.667-3.396 0 0-1.506.58-3.028-.558-1.506-1.138-1.286-2.36-1.286-2.36s-1.066-.016-2.008-.981c-.926-.956-.628-1.929-.628-1.929s-1.616.017-2.4-1.537c-.784-1.545.455-2.675.455-2.675s-1.978-.486-2.118-2.017c-.173-1.537.91-2.117.91-2.117s-1.867-.611-2.009-1.984c-.141-1.372 1.067-1.953 1.852-1.992 0 0-1.051-.533-.973-2.251.063-1.718 2.902-1.647 3.373-1.522 0 0-.675-1.804.157-2.706.831-.902 2.447-.651 3.718.126 0 0 .424.267.11-.832-.314-1.098-1.71-2.055-2.636-3.977-.91-1.931-2.981-6.354-2.981-7.688 0-1.341-.8.048-1.051.534-.235.494-1.443 3.561-.597 6.056.848 2.494 2.73 4.589 2.73 5.099 0 .51-.142.282-.659-.525-.486-.808-1.852-2.816-2.228-3.271-.377-.447-1.694-3.263-1.694-3.318 0-.063-.486-1.051-.957.573-.471 1.624-.204 3.106.486 4.573.675 1.459 2.745 3.593 2.918 3.938.188.338.675 1.06-.157.268-.831-.801-2.557-2.676-3.106-3.507-.549-.832-.926-1.373-1.051-1.64-.126-.267-.282-.776-.8.321-.503 1.106.345 4.119 2.337 5.829 1.993 1.718 1.554 1.992.706 1.231-.847-.753-2.761-2.597-3.075-2.958-.298-.36-1.02-1.451-1.239.291-.22 1.733 1.13 3.318 1.945 4.243.832.918 1.616 1.734 1.883 1.914.267.181.941.901-.047.424-1.004-.463-2.965-1.883-3.311-2.142-.345-.251-.8-.753-.627.745.156 1.491 1.804 3.757 3.702 4.841 1.883 1.082 1.428 1.137.863.988-.581-.143-2.229-1.068-3.06-1.279-.831-.221-1.177-.031-.926 1.012.267 1.043 1.239 2.941 4.221 3.428 2.965.486-.926.611-1.067.611-.156 0-2.228-.102-1.852 1.013.377 1.129 2.809 2.518 4.362 2.525 1.553.023 1.333.745.047.706-1.286-.031-2.887.479-2.024 1.687.863 1.208 2.684 1.679 4.942 1.295 2.243-.377 1.177.486.455.611-.737.134-3.169.078-2.322 1.562.848 1.482 3.954 1.278 4.534 1.225.581-.049 2.558-.361 1.208.273-1.349.627-2.604.988-2.039 1.835.564.855 3.278.91 4.157.455s1.601-.337.815.291c-.8.635-2.887.809-2.714 1.953.173 1.137 2.997 1.043 4.425.611 1.427-.433 3.482-1.68 2.321-.346-1.192 1.333-3.169 1.035-2.118 2.604 1.052 1.568 5.555.471 6.276-1.177.003-.001-.232-1.304.081-3.162zm-15.108-33.456l1.443 2s.424.69-.204.087c-.644-.612-1.412-1.978-1.412-1.978s-.329-.556.173-.109zm-2.542 2.777s-.329-.558.173-.11l1.428 2.001s.439.689-.188.086c-.644-.612-1.413-1.977-1.413-1.977zm-2.15 2.416s-.235-.408.142-.079l1.035 1.46s.314.51-.141.055c-.47-.44-1.036-1.436-1.036-1.436zm-.909 3.545s-.299-.36.125-.102l1.271 1.278s.393.447-.141.087c-.533-.368-1.255-1.263-1.255-1.263zm1.444 5.217c-.722-.361-1.727-1.311-1.727-1.311s-.407-.377.157-.125l1.757 1.326c0 .001.55.471-.187.11zm.407 3.372c-.549.008-1.428-.251-1.428-.251s-.36-.102.063-.125l1.443.259c.001 0 .472.109-.078.117zm1.271 4.143c-.675.063-1.758-.173-1.758-.173s-.439-.087.079-.149l1.788.173c.001-.001.565.085-.109.149zm3.216 4.188c-.879.195-2.354.077-2.354.077s-.611-.03.078-.212l2.385-.094c.001.002.77.025-.109.229zm2.698 2.871c-.831.36-2.29.518-2.29.518s-.597.079.031-.229l2.322-.532c.001 0 .769-.125-.063.243zm3.107 2.369c-.611.558-1.819 1.114-1.819 1.114s-.503.243-.032-.204l1.852-1.138c-.001.001.627-.328-.001.228zm2.746 2.722c-.534.463-1.616.934-1.616.934s-.439.188-.016-.181l1.632-.957s.549-.274 0 .204zm3.624 2.651c-.534.463-1.616.935-1.616.935s-.424.195-.016-.182l1.632-.948c0-.001.549-.275 0 .195z" fill="#D5B039"/><path d="M105.589 108.888s-1.303-6.314-1.632-13.547c0 0-5.271 10.08.298 19.729 0 0-.235-1.694.126-2.809 0 0-1.522-5.318-1.13-7.844 0 0 .659 6.126 1.286 6.966 0 0 .079-1.036 1.052-2.495zM101.98 113.658s-2.935-5.021-3.405-13.908c0 0-4.031 6.81 1.318 19.219 0 0 .094-.996.973-1.49 0 0-1.867-3.451-1.992-7.993 0 0 .847 6.071 2.729 8.104.001-.002-.297-1.194.377-3.932zM99.987 121.172s-2.683-2.148-5.945-12.99c0 0-3.373 8.292 5.083 17.109 0 0-.408-1.248-.361-2.275 0 0-2.51-2.714-3.059-6.024 0 0 1.897 4.55 3.247 5.491 0 0-.282-.949 1.035-1.311zM99.03 126.366s-4.785-3.498-7.923-10.143c0 0-1.333 7.193 7.656 13.657 0 0-.486-.996-.188-1.781 0 0-3.655-2.988-3.859-4.11 0 0 3.248 3.389 3.954 3.688 0-.001-.126-.652.36-1.311zM99.815 131.463s-4.738-1.262-9.837-7.294c0 0-.204 6.589 9.271 10.157 0 0-.141-.564-.047-1.168 0 0-4.079-2.07-5.083-3.389 0 0 4.55 3.105 5.099 3.09 0 0 .11-.814.988-.705.001.001-.422-.22-.391-.691zM99.705 135.363s-3.875-.212-10.197-4.729c0 0 1.804 6.471 11.014 8.526 0 0-.675-1.671 1.38-1.805 0 0-5.224-.848-6.573-2.259 0 0 4.33 1.914 5.915 1.718-.001 0-1.429-.628-1.539-1.451zM101.666 140.65s-5.616-.51-10.746-3.688c0 0 1.224 6.676 12.033 6.605 0 0-.393-.557.016-1.263 0 0-4.848-.439-6.166-1.538 0 0 5.036 1.506 6.495 1.153 0 0 .188-.251.941-.353 0 .002-2.306-.289-2.573-.916zM103.502 144.54s-3.766 1.004-9.476-.84c0 0 .878 6.56 12.315 4.205 0 0-.941-.926-.612-1.82 0 0-3.2 1.036-4.785.165 0 0 4.111.078 4.268-.675 0 .001-1.49-.486-1.71-1.035z" fill="#D5B039"/><path d="M107.723 148.58s-5.036 2.039-10.323.706c0 0 2.745 6.824 11.798 1.819 0 0-.095-.792.424-1.475 0 0-3.106 1.224-4.927 1.035 0 0 3.797-.564 4.252-1.654a1.813 1.813 0 01-1.224-.431zM109.903 151.561s-2.651 2.715-7.829 3.356c0 0 2.589 4.526 11.124-.353 0 0-1.318-.455-1.225-1.766 0 0-2.212 1.663-3.357 1.576 0 0 2.777-1.302 3.641-2.432 0 .004-1.35.269-2.354-.381zM115.692 155.161s.031-.753-2.354.573c-2.385 1.325-4.691 2.896-6.369 2.918 0 0 3.859 3.036 8.425.329 0 0 2.243-1.545.815-3.546 0 0-1.898 2.023-3.577 2.33.001.001 2.354-1.544 3.06-2.604zM117.56 157.437s-1.538 2.871-3.091 4.071c0 0 5.396 3.389 8.786-5.452 0 0-1.35 1.302-2.871 1.381 0 0-1.852 2.737-3.342 2.737 0 0 1.333-.762 2.525-2.565 0 0-1.663.266-2.007-.172zM123.6 157.303s-1.13 3.468-2.103 4.291c-.973.8.22 1.45.895 1.238.675-.212 2.023-.195 2.573-2.36 0 0-.455-.407-.455-.815 0 0-.926.494-1.114 1.06 0 0 .094-1.027.863-1.515 0-.001-.518-.847-.659-1.899zM125.827 161.532s-.769 4.463-6.604 5.608c0 0 1.098 1.114 5.742.055 0 0-.22.754-4.989.754 0 0 2.008 1.843 6.009 1.231 0 0-1.412 3.654.58 6.103 0 0 .973-3.647 1.459-4.33 0 0-.706 3.185-.706 3.53 0 0 4.032-5.39 6.81-7.727 0 0-1.569-.62-2.307-.997 0 0-2.243 1.766-2.338 2.243 0 0-.188-.918 1.758-2.542 0 0-2.291-1.112-2.84-1.6 0 0-.675 1.356-1.836 1.6 0 0 .941-.948 1.13-2.03-.001 0-1.538-1.091-1.868-1.898z" fill="#D5B039"/><path d="M119.19 168.764s-1.945 1.004-3.059 1.238c0 0 2.745 1.749 4.91 1.443 0 0-2.369 3.695-1.553 6.283 0 0 4.173-3.122 5.554-3.702 0 0-.597-1.867-.282-3.287 0 0-2.103 1.797-2.479 2.771 0 0 .11-1.49 1.632-3.006 0 0-1.992 0-4.723-1.74z" fill="#D5B039"/><path d="M116.257 171.557s-.674 1.229-1.537 1.514c0 0 3.027.329 3.608-.863 0-.001-1.851-.001-2.071-.651zM132.981 182.186s-2.291 1.914-2.369.233c0 0-2.07 3.642-4.816 4.785-2.729 1.113-.706 1.681-.063 1.853.675.203 2.855.895 4.723-.58 1.882-1.506 3.451-2.776 3.451-2.776s-1.6.36-.926-3.515zm-4.534 5.664c-1.475.392.471-.408.471-.408s1.898-1.381 2.291-2.196l.36.22c0-.001-1.631 1.991-3.122 2.384zM135.555 184.649s-.769 1.71-1.381 1.428c0 0-1.992 2.04-4.142 3.389-2.149 1.365-2.95 2.918-1.836 3.5 1.099.579 5.209-1.146 8.394-5.006 0-.002-1.71-.675-1.035-3.311zm-4.033 5.93c-1.475.393.486-.408.486-.408s1.883-1.381 2.275-2.195l.345.203c.001-.001-1.631 1.991-3.106 2.4z" fill="#D5B039"/><path d="M138.833 185.575s-.392 1.836-1.631 2.322c0 0-.502 1.804-3.813 3.576-3.311 1.771-2.087 3.922-1.663 3.719a17.22 17.22 0 013.671-1.412c1.867-.502 4.361-2.823 4.628-4.754 0 0-.957-.989-1.192-3.451zm-4.204 7.201c-1.475.393.471-.408.471-.408s1.914-1.363 2.29-2.195l.361.219c0-.001-1.647 1.991-3.122 2.384z" fill="#D5B039"/><path d="M140.292 189.45s-.862 2.322-2.729 3.624c-1.867 1.287-2.636 2.729-2.039 4.205.596 1.459 1.255 1.161 2.368-.22 1.114-1.381 2.182-1.772 2.73-2.434.533-.689 1.098-2.117 1.161-3.75 0 .001-.863.143-1.491-1.425zm-1.428 4.816c-1.255.973-1.584 1.601-1.71 1.758-.141.172-.486.455-.345-.157.157-.612.879-1.459 1.663-1.978.784-.519 1.553-1.351 1.553-1.351s.111.754-1.161 1.728z" fill="#D5B039"/><path d="M143.007 84.978v-.973s.627.188 1.066.949l-1.066.024z" fill="#1B6093"/><path d="M142.363 98.855a.281.281 0 00-.282-.282.281.281 0 00-.282.282c0 .157.125.291.282.291a.288.288 0 00.282-.291zM142.567 97.404a4.91 4.91 0 01-.486-.909v-.008.008c-.094.228-.282.627-.502.909-.298.393.063 1.013.502.934.44.078.784-.542.486-.934zM142.583 94.392a.516.516 0 00-.502-.502.506.506 0 00-.502.502c0 .274.22.494.502.494.267 0 .502-.22.502-.494zM142.583 91.873a.51.51 0 00-.502-.502.499.499 0 100 .996.508.508 0 00.502-.494zM142.583 89.489a.516.516 0 00-.502-.502c-.282.008-.502.228-.502.502s.22.494.502.494c.267 0 .502-.22.502-.494z" fill="#D5B039"/><path d="M143.837 91.638c-.172-1.443-.297-3.655-.297-3.655-.66.353-1.179.416-1.459.416-.282 0-.8-.063-1.459-.416 0 0-.11 2.212-.298 3.655-.188 1.451-1.161 4.283.784 5.853l.973-1.451.988 1.451c1.931-1.57.942-4.402.768-5.853zm-1.756 3.985a1.026 1.026 0 01-.988-1.012c0-.549.455-.996.988-1.027.549.031.988.479.988 1.027 0 .548-.439.997-.988 1.012zm0-2.517a1.033 1.033 0 01-.988-1.021c0-.549.455-.996.988-1.012.549.016.988.463.988 1.012 0 .558-.439.996-.988 1.021zm0-2.441a1.033 1.033 0 01-.988-1.02c0-.549.455-.996.988-1.02.549.023.988.471.988 1.02s-.439 1.005-.988 1.02z" fill="#D5B039"/><path d="M144.184 86.477h-4.205s.424 1.302 2.103 1.349c1.693-.047 2.102-1.349 2.102-1.349z" fill="#1B6093"/><path d="M144.214 85.285h-1.678v-1.404c-.049-.039-.865-.039-.912 0v1.404h-1.694s-.142.423-.047.792h4.393c.097-.369-.062-.792-.062-.792zM143.886 81.551l-1.303.133.25-1.146H141.344l.235 1.146-1.303-.133.016 1.074 1.303-.18-.047 1.098h1.082l-.063-1.098 1.302.18zM142.081 102.879l1.475-.768-1.475-.691-1.475.691 1.475.768z" fill="#D5B039"/><circle cx="146.474" cy="102.252" fill="#D5B039" r=".737"/><path d="M148.561 101.02c-2.62-.259-5.742-.203-6.479-.18-.737-.023-3.859-.079-6.464.18-2.997.283-3.044.879-1.898 1.067 1.13.173 1.521.518 1.521.518l.188.564s-2.51 1.538-1.381 1.538c1.099 0 4.394-.949 8.033-.776 3.655-.173 6.95.776 8.049.776 1.113 0-1.381-1.538-1.381-1.538l.154-.564s.408-.345 1.555-.518c1.131-.188 1.083-.784-1.897-1.067zm-10.873 2.762c-.69 0-1.256-.557-1.256-1.247s.565-1.247 1.256-1.247c.689 0 1.239.557 1.239 1.247s-.549 1.247-1.239 1.247zm6.166-1.036l-1.772.91-1.773-.91c-.454-.251-.047-.77-.047-.77l1.82-.925 1.82.925c-.001.001.407.519-.048.77zm2.62 1.036c-.674 0-1.256-.557-1.256-1.247s.582-1.247 1.256-1.247c.689 0 1.256.557 1.256 1.247s-.566 1.247-1.256 1.247zM148.105 91.442c0 .275.251.503.549.503.314 0 .551-.228.551-.503 0-.274-.236-.494-.551-.494-.298 0-.549.219-.549.494zM149.283 94.337c0 .298.234.549.549.549a.555.555 0 00.549-.549.563.563 0 00-.549-.565.554.554 0 00-.549.565zM145.862 89.12c0 .274.251.502.55.502.297 0 .549-.228.549-.502s-.252-.502-.549-.502c-.299 0-.55.228-.55.502zM150.49 89.638c0 .204.188.376.408.376.234 0 .423-.172.423-.376 0-.212-.188-.377-.423-.377-.219 0-.408.165-.408.377zM153.863 91.819c0 .204.188.369.408.369.234 0 .423-.165.423-.369 0-.212-.188-.377-.423-.377-.219 0-.408.165-.408.377zM155.433 95.176c0 .298.251.557.549.557a.553.553 0 00.549-.557.553.553 0 00-.549-.564.564.564 0 00-.549.564z" fill="#D5B039"/><path d="M144.623 87.771c.707.118 1.694.644 1.694.644s-.612-.031-.879.502c-.251.518.502 1.043.502 1.043s.519.321 1.021-.125c.519-.447.221-.934.221-.934s1.585.894 2.494 1.93c.895 1.043 1.68 3.036 1.852 3.655.157.636.581 2.989-1.679 3.373 0 0 .188-.22.142-.557-.047-.321-.188-.784-.109-1.192 0 0-.203-.165-.674.377-.455.541-.974 1.027-.974 1.027s-.407-.533-.173-1.357c.268-.823.52-1.459-.109-3.02-.644-1.554-2.822-3.397-3.343-3.499 0 0-.485-.055-.549-.934s-.159-1.035.563-.933zm5.209 7.759a1.04 1.04 0 001.035-1.036 1.044 1.044 0 00-2.087 0c0 .573.471 1.036 1.052 1.036zm-1.178-3.005c.551 0 .989-.4.989-.895 0-.502-.438-.895-.989-.895-.549 0-.988.393-.988.895 0 .494.439.895.988.895z" fill="#D5B039"/><path d="M148.012 88.901s1.161.243 2.022.533c0 0-.063.502.438.831.502.338.957-.023.957-.023s1.506.604 2.116 1.177c0 0-.346.604.096 1.099s1.066.204 1.066.204.597 1.027.77 1.632c0 0-.563.471-.348 1.082.222.604.724.675.724.675s.173.848-.394 1.106c-.563.267-.986.392-1.506 1.161 0 0-.33-.495-.203-1.342.108-.855 1.004-4.071-3.5-6.096.005 0-.277-.784-2.238-2.039zM145.093 99.098s-.36 1.067-1.428.989c-1.066-.087-1.207-.754-1.207-.754s-.205 1.146.596 1.146c.783.008 3.64.031 3.953-.039.299-.07 1.005-.644 1.052-1.066 0 0-.8.784-1.616.729-.831-.048-.814-1.044-.814-1.044l-.536.039z" fill="#D5B039"/><path d="M146.427 98.753s.486-.181.832-.385c.328-.195.674-.086.674-.086s.047.902-.658 1.004c-.707.103-.848-.533-.848-.533zM144.513 98.903s-.676-.62-1.146-.604c-.486.008-.627.393-.611.573 0 .188.188.494.754.486.548-.016 1.003-.455 1.003-.455zM148.184 98.934c0 .125.095.243.235.243a.25.25 0 00.25-.243c0-.142-.108-.243-.25-.243-.142 0-.235.101-.235.243zM149.548 96.604s-.455.486-.83.761c-.361.267-.439.722-.361.973 0 0 .848.173 1.066-.298.22-.471.125-1.436.125-1.436zM150.49 99.028s-.234-.173-.393-.479c-.172-.313-1.035.087-1.098.385-.047.29.063.518.28.525.22.007.394-.008.597-.173.222-.164.614-.258.614-.258z" fill="#D5B039"/><path d="M151.149 99.358s-1.021.769-1.616.792c-.58.031-.957-.22-1.13-.659 0 0-.155.902.502 1.146.69.259 1.931.753 3.452-.063 0 0-1.113-.228-1.208-1.216zM152.138 99.483s1.553-.965 1.757-.321c.204.642-1.145 1.058-1.757.321zM155.589 97.647s-1.68.926-1.303 1.24c.361.321 1.805.682 1.303-1.24zM154.287 99.695c0 .126.125.228.282.228.142 0 .267-.102.267-.228 0-.118-.125-.212-.267-.212-.157 0-.282.093-.282.212zM150.96 102.284l-1.552.391 1.318.982 1.238-.527zM147.666 105.272c-2.008-.368-4.785-.368-5.583-.353-.8-.016-3.577-.016-5.585.353 0 0 1.317.659 5.585.589 4.266.07 5.583-.589 5.583-.589z" fill="#D5B039"/><path d="M150.003 105.75l-1.506-.399c-3.105.901-5.681.854-6.417.823-.722.031-3.295.078-6.417-.823l-1.49.399s3.891 1.389 7.907 1.208c4.018.181 7.923-1.208 7.923-1.208zM150.505 105.892s1.646 1.372 4.188 1.278c0 0-1.584 1.334-.596.91 1.004-.439 1.99-2.243 5.729-2.33 0 0 1.818.031 2.51 1.239.688 1.216-.645.871-.988.762-.346-.11-1.082-.519-2.902.36-1.804.887-3.42 1.789-5.773 1.083-2.34-.698-2.168-3.302-2.168-3.302z" fill="#D5B039"/><path d="M159.699 109.116c0 .369.33.659.737.659.408 0 .724-.29.724-.659 0-.368-.313-.65-.724-.65-.407-.001-.737.281-.737.65zM152.891 125.957s-.612 1.734-1.271 2.511c0 0 1.506-.306 2.228-.848 0 0-.831-.94-.957-1.663zM148.687 123.557s-.393 2.997.564 5.296c0 0-3.938.353-6.275-1.161 0 0 1.49-2.017 1.852-3.122 0 0 1.805.204 3.105-.69 0 0-.77 1.827-1.945 2.204-.001-.001 1.082.439 2.699-2.527z" fill="#D5B039"/><path d="M143.054 122.059c.047-.384.328-.329.957-.572.628-.243 3.295-2.495 3.498-3.334.173-.84-.031-.675-.424-.918-.377-.243-.645-.784-.645-.784s2.354-.651 4.283-3.522c0 0-.359.047-.784-.376 0 0 1.49-.902 3.043-2.542 0 0 3.015.887 6.136-.848 0 0 .268 1.64 1.428 1.177 1.162-.479.927-1.663.927-1.663s2.446-1.467 4.282-1.035c1.852.439 2.273 2.848 1.664 3.742 0 0-.551-1.49-2.448-1.436-1.897.055-2.761 1.436-3.608 2.031-.83.597-2.432 1.601-2.023 2.22.408.62 2.089 1.256 4.033.322 0 0-.645 1.687-2.338 1.741-1.68.047-3.061-.675-3.061-.675s-2.322 1.381-2.165 4.071c0 0-.988-.125-1.239-1.718 0 0-1.412 1.867-.611 5.499 0 0-1.238-.188-1.441-.651 0 0-.126-.156-.143.251-.03.416-.313 3.915-2.479 5.664 0 0-1.225-3.153-.393-7.515 0 0-1.758 2.086-3.813 2.251-2.071.166-2.683-.995-2.636-1.38zm9.052-4.173s3.437-2.142 3.813-2.793c.392-.644 0-.729-.283-.596-.299.141-1.914 1.412-2.321 1.38 0 0-.597-.894 1.476-3.059 2.054-2.172-3.092 1.279-2.685 5.068zm-.706 3.789l-.628-.235s.063 2.4-.408 4.683c0-.001.77-.055 1.036-4.448zm-2.432-1.789l-.188-.408s-.628 1.169-3.044 2.393c0-.001.847.455 3.232-1.985z" fill="#D5B039"/><path d="M171.451 110.708s-.173 2.298-2.871 2.494c-2.684.204-3.013-1.945-8.504.322 0 0-.752.337 0 .839.771.51 1.443-.22 1.633-.329.172-.103 1.316-.879 3.563-.338 2.243.542 3.122.973 4.408.737 1.316-.234 2.838-1.717 1.771-3.725z" fill="#C62427"/><path d="M160.044 147.867c.188.4.472.667.801.792.33.126.33.056.203.008-.108-.039-.736-.618-.909-1.012a1.4 1.4 0 00-.486-.557c-.345-1.616-.627-3.516-.61-5.154 0 0 1.191.181 2.416-1.161 1.225-1.356 1.818-1.521 3.717-1.443 1.885.087 3.107-1.726 3.14-2.432.032-.714-.078-2.228-1.817-3.044-1.742-.807-2.902-2.078-2.902-3.514 0-1.435 2.306-4.181 4.299-6.369 2.008-2.196 2.855-4.503 2.855-4.503s.609.77.422 3.091c0 0 3.469-1.757 4.236-.455.783 1.303-1.693 4.119-1.693 4.119s.107.36 1.804-.84c1.694-1.192 2.935-.447 3.217.228.267.667-.079 1.608-1.224 2.251-1.146.651-1.602 1.161-.612.926 1.004-.235 2.259-.235 2.714.644.439.894-.925 2.063-2.055 2.298-1.146.236-2.212.557-1.35.699.879.156 2.244-.088 2.445 1.105.188 1.191-1.6 1.968-2.229 2.102-.61.125-2.415.251-1.131.753 1.271.51 1.885.926 1.603 2.259-.269 1.334-2.649.902-3.044.832-.407-.07-1.064.142-.484.58.563.432 1.506.949.674 1.891-.83.941-2.541.706-2.918.51-.394-.196-1.771-.557-.926.048.848.611 1.772.965 1.256 2.117-.502 1.161-2.4 1.177-2.918 1.013-.533-.165-1.789-1.036-1.396.125.408 1.161.785 2.455-.564 3.052-1.365.597-2.322-.432-2.84-.722-.533-.29-.533-.486-.814-.306-.281.18.063.524.142.792.097.267.347 2.242-2.494 2.134 0 0-.393-1.295-.782-3.044.051-.025.161-.011.254.187zm16.834-21.556s-1.602.706-1.693.855c0 0-.313.345.125.251.423-.102 1.568-1.106 1.568-1.106zm.629 3.758c.078-.135-2.166.156-2.369.289 0 0-.408.244.031.268.424.023 2.274-.432 2.338-.557zm-1.412 4.353c.156-.26-1.555-.598-1.727-.525 0 0-.52.125-.125.273.424.149 1.695.494 1.852.252zm-3.185 2.855c.438.321 1.711.588 1.711.588s-1.131-.887-1.617-.887c-.001 0-.533-.031-.094.299zm-.409-12.731c.438-.283 1.271-1.177 1.162-1.216-.097-.032-1.162.604-1.365 1.02 0 0-.235.486.203.196zm-2.901 15.343c.329.431 1.819 1.074 2.039 1.035.235-.047-1.286-1.224-1.788-1.311 0 .001-.581-.156-.251.276zm-2.903 2.471c.078.533 1.914 1.459 2.4 1.333.486-.125-1.742-1.066-2.088-1.451.002 0-.39-.423-.312.118zm-3.546 2.604c.298.479 1.601 1.271 1.914 1.263.313-.017-1.224-1.325-1.679-1.514.001 0-.532-.213-.235.251z" fill="#D5B039"/><path d="M160.798 151.64s1.553.078 2.307-1.139c.77-1.208.518-.94 2.229-.705 1.709.242 3.074-2.235 2.666-3.396 0 0 1.506.58 3.028-.558 1.521-1.138 1.271-2.36 1.271-2.36s1.066-.016 2.01-.981c.939-.956.645-1.929.645-1.929s1.615.017 2.399-1.537c.771-1.545-.455-2.675-.455-2.675s1.978-.486 2.134-2.017c.157-1.537-.926-2.117-.926-2.117s1.867-.611 2.008-1.984c.143-1.372-1.064-1.953-1.835-1.992 0 0 1.035-.533.974-2.251-.078-1.718-2.918-1.647-3.39-1.522 0 0 .677-1.804-.155-2.706-.832-.902-2.463-.651-3.72.126 0 0-.424.267-.108-.832.313-1.098 1.709-2.055 2.636-3.977.926-1.931 2.981-6.354 2.981-7.688 0-1.341.813.048 1.051.534.233.494 1.441 3.561.596 6.056-.848 2.494-2.729 4.589-2.729 5.099 0 .51.141.282.644-.525.519-.808 1.866-2.816 2.243-3.271.377-.447 1.693-3.263 1.693-3.318 0-.063.502-1.051.973.573.472 1.624.188 3.106-.502 4.573-.689 1.459-2.729 3.593-2.918 3.938-.188.338-.674 1.06.158.268.83-.801 2.57-2.676 3.104-3.507.549-.832.907-1.373 1.051-1.64.125-.267.282-.776.802.321.502 1.106-.347 4.119-2.339 5.829-1.991 1.718-1.554 1.992-.704 1.231.846-.753 2.774-2.597 3.073-2.958.298-.36 1.021-1.451 1.239.291.22 1.733-1.114 3.318-1.946 4.243-.831.918-1.601 1.734-1.882 1.914-.268.181-.939.901.063.424.987-.463 2.965-1.883 3.295-2.142.346-.251.799-.753.644.745-.172 1.491-1.806 3.757-3.702 4.841-1.896 1.082-1.441 1.137-.879.988.581-.143 2.229-1.068 3.061-1.279.832-.221 1.178-.031.926 1.012-.25 1.043-1.223 2.941-4.221 3.428-2.979.486.926.611 1.084.611.141 0 2.211-.102 1.834 1.013-.393 1.129-2.809 2.518-4.361 2.525-1.553.023-1.332.745-.047.706 1.271-.031 2.888.479 2.023 1.687-.861 1.208-2.668 1.679-4.927 1.295-2.261-.377-1.179.486-.455.611.724.134 3.151.078 2.308 1.562-.849 1.482-3.953 1.278-4.533 1.225-.582-.049-2.56-.361-1.209.273 1.365.627 2.604.988 2.039 1.835-.549.855-3.264.91-4.156.455-.879-.455-1.602-.337-.801.291.785.635 2.888.809 2.699 1.953-.175 1.137-2.998 1.043-4.427.611-1.428-.433-3.481-1.68-2.306-.346 1.177 1.333 3.152 1.035 2.104 2.604-1.035 1.568-5.556.471-6.275-1.177-.009-.001.226-1.304-.087-3.162zm15.108-33.456l-1.428 2s-.439.69.188.087c.645-.612 1.412-1.978 1.412-1.978s.33-.556-.172-.109zm2.543 2.777s.328-.558-.174-.11l-1.428 2.001s-.439.689.203.086c.629-.612 1.399-1.977 1.399-1.977zm2.148 2.416s.236-.408-.125-.079l-1.051 1.46s-.33.51.141.055c.471-.44 1.035-1.436 1.035-1.436zm.91 3.545s.299-.36-.125-.102l-1.271 1.278s-.392.447.143.087c.531-.368 1.253-1.263 1.253-1.263zm-1.459 5.217c.736-.361 1.742-1.311 1.742-1.311s.422-.377-.158-.125l-1.74 1.326c0 .001-.566.471.156.11zm-.377 3.372c.55.008 1.412-.251 1.412-.251s.359-.102-.063-.125l-1.429.259c.002 0-.468.109.08.117zm-1.287 4.143c.691.063 1.759-.173 1.759-.173s.438-.087-.079-.149l-1.771.173c-.002-.001-.583.085.091.149zm-3.199 4.188c.879.195 2.338.077 2.338.077s.596-.03-.063-.212l-2.4-.094c0 .002-.769.025.125.229zm-2.714 2.871c.831.36 2.29.518 2.29.518s.597.079-.031-.229l-2.322-.532s-.769-.125.063.243zm-3.107 2.369c.611.558 1.835 1.114 1.835 1.114s.486.243.018-.204l-1.852-1.138c-.001.001-.629-.328-.001.228zm-2.745 2.722c.549.463 1.615.934 1.615.934s.439.188.031-.181l-1.646-.957s-.55-.274 0 .204zm-3.64 2.651c.549.463 1.632.935 1.632.935s.439.195.031-.182l-1.646-.948c-.002-.001-.551-.275-.017.195z" fill="#D5B039"/><path d="M178.574 108.888s1.303-6.314 1.631-13.547c0 0 5.271 10.08-.297 19.729 0 0 .234-1.694-.127-2.809 0 0 1.538-5.318 1.114-7.844 0 0-.644 6.126-1.271 6.966.001 0-.078-1.036-1.05-2.495zM182.166 113.658s2.949-5.021 3.42-13.908c0 0 4.049 6.81-1.315 19.219 0 0-.095-.996-.957-1.49 0 0 1.867-3.451 1.992-7.993 0 0-.849 6.071-2.745 8.104-.002-.002.295-1.194-.395-3.932zM184.175 121.172s2.697-2.148 5.945-12.99c0 0 3.373 8.292-5.084 17.109 0 0 .394-1.248.36-2.275 0 0 2.524-2.714 3.074-6.024 0 0-1.896 4.55-3.265 5.491.005 0 .287-.949-1.03-1.311zM185.132 126.366s4.783-3.498 7.922-10.143c0 0 1.35 7.193-7.655 13.657 0 0 .485-.996.172-1.781 0 0 3.673-2.988 3.892-4.11 0 0-3.264 3.389-3.953 3.688-.003-.001.109-.652-.378-1.311zM184.347 131.463s4.738-1.262 9.837-7.294c0 0 .22 6.589-9.272 10.157 0 0 .144-.564.063-1.168 0 0 4.063-2.07 5.083-3.389 0 0-4.564 3.105-5.114 3.09 0 0-.11-.814-.989-.705 0 .001.423-.22.392-.691zM184.457 135.363s3.875-.212 10.197-4.729c0 0-1.804 6.471-11.029 8.526 0 0 .707-1.671-1.362-1.805 0 0 5.237-.848 6.571-2.259 0 0-4.33 1.914-5.897 1.718-.002 0 1.425-.628 1.52-1.451zM182.511 140.65s5.602-.51 10.73-3.688c0 0-1.238 6.676-12.033 6.605 0 0 .408-.557-.017-1.263 0 0 4.863-.439 6.149-1.538 0 0-5.006 1.506-6.479 1.153 0 0-.188-.251-.939-.353.001.002 2.322-.289 2.589-.916zM180.66 144.54s3.766 1.004 9.478-.84c0 0-.896 6.56-12.315 4.205 0 0 .941-.926.629-1.82 0 0 3.186 1.036 4.754.165 0 0-4.08.078-4.252-.675-.003.001 1.486-.486 1.706-1.035z" fill="#D5B039"/><path d="M176.439 148.58s5.036 2.039 10.309.706c0 0-2.729 6.824-11.783 1.819 0 0 .097-.792-.424-1.475 0 0 3.123 1.224 4.928 1.035 0 0-3.797-.564-4.252-1.654-.001.001.642.056 1.222-.431zM174.274 151.561s2.651 2.715 7.813 3.356c0 0-2.59 4.526-11.125-.353 0 0 1.334-.455 1.209-1.766 0 0 2.229 1.663 3.373 1.576 0 0-2.762-1.302-3.642-2.432.003.004 1.369.269 2.372-.381zM168.47 155.161s-.016-.753 2.354.573c2.385 1.325 4.69 2.896 6.369 2.918 0 0-3.844 3.036-8.425.329 0 0-2.259-1.545-.815-3.546 0 0 1.898 2.023 3.577 2.33-.001.001-2.355-1.544-3.06-2.604zM166.603 157.437s1.538 2.871 3.075 4.071c0 0-5.382 3.389-8.771-5.452 0 0 1.35 1.302 2.887 1.381 0 0 1.836 2.737 3.326 2.737 0 0-1.334-.762-2.525-2.565 0 0 1.647.266 2.008-.172zM160.563 157.303s1.13 3.468 2.118 4.291c.973.8-.221 1.45-.895 1.238-.69-.212-2.039-.195-2.591-2.36 0 0 .472-.407.472-.815 0 0 .91.494 1.1 1.06 0 0-.094-1.027-.863-1.515-.001-.001.517-.847.659-1.899zM160.343 133.92l-5.036-5.845c-7.673 3.075-12.378.486-13.226-.047v-.008.008c-.832.533-5.569 3.122-13.21.047l-5.052 5.845s1.852 2.423 1.852 7.553c0 5.131-1.758 7.217-1.758 12.747 0 5.529 4.048 9.123 8.284 10.646 3.78 1.356 8.849 4.143 9.884 6.118 1.036-1.977 6.103-4.762 9.883-6.118 4.236-1.521 8.301-5.115 8.301-10.646 0-5.531-1.773-7.616-1.773-12.747 0-5.13 1.851-7.553 1.851-7.553zm-2.15 22.183c-1.255 5.97-7.845 8.111-10.668 9.146-2.434.871-4.816 3.179-5.444 3.813-.628-.635-3.028-2.941-5.444-3.813-2.808-1.034-9.413-3.177-10.684-9.146-1.255-5.962.549-9.17.925-11.72.393-2.549 1.178-5.914-1.207-9.451l4.377-5.014s5.93 2.816 12.033-.446c6.103 3.263 12.034.446 12.034.446l4.377 5.014c-2.386 3.537-1.584 6.902-1.209 9.451.377 2.55 2.181 5.758.91 11.72z" fill="#D5B039"/><path fill="#D5B039" d="M142.081 155.161h-15.657l.188.95h30.938l.188-.95zM158.335 161.532s.752 4.463 6.619 5.608c0 0-1.113 1.114-5.759.055 0 0 .222.754 4.989.754 0 0-2.008 1.843-6.01 1.231 0 0 1.412 3.654-.579 6.103 0 0-.974-3.647-1.459-4.33 0 0 .704 3.185.704 3.53 0 0-4.03-5.39-6.793-7.727 0 0 1.568-.62 2.291-.997 0 0 2.26 1.766 2.338 2.243 0 0 .188-.918-1.758-2.542 0 0 2.308-1.112 2.84-1.6 0 0 .676 1.356 1.837 1.6 0 0-.941-.948-1.132-2.03.005 0 1.542-1.091 1.872-1.898z"/><path d="M164.971 168.764s1.946 1.004 3.06 1.238c0 0-2.729 1.749-4.895 1.443 0 0 2.354 3.695 1.537 6.283 0 0-4.157-3.122-5.555-3.702 0 0 .598-1.867.268-3.287 0 0 2.117 1.797 2.494 2.771 0 0-.094-1.49-1.615-3.006 0 0 1.977 0 4.706-1.74z" fill="#D5B039"/><path d="M167.89 171.557s.689 1.229 1.553 1.514c0 0-3.027.329-3.593-.863 0-.001 1.836-.001 2.04-.651zM149.548 171.297c-.973-1.035-1.961-3.421-1.961-3.421-1.914.69-4.849 3.985-5.506 4.738-.644-.753-3.577-4.048-5.491-4.738 0 0-1.02 2.386-1.992 3.421-.973 1.021-3.169 3.312-2.165 5.603 0 0 .251.393 1.428-.282 1.16-.659.815-2.087 1.71-2.729 0 0-1.334 3.277-.55 5.021.801 1.726 2.966-1.914 3.217-3.091 0 0 .298.486-.439 2.715-.753 2.212.313 3.577 1.004 3.186.69-.377 1.82-4.063 1.82-4.063s.173 4.048.8 4.52c.251.188.471.268.659.281a1.26 1.26 0 00.66-.281c.627-.472.783-4.52.783-4.52s1.146 3.688 1.836 4.063c.689.394 1.758-.974 1.004-3.186-.736-2.229-.439-2.715-.439-2.715.253 1.177 2.416 4.816 3.201 3.091.802-1.741-.532-5.021-.532-5.021.909.644.532 2.069 1.71 2.729 1.177.675 1.428.282 1.428.282.985-2.292-1.212-4.582-2.185-5.603zm-15.798 3.75s-.627 1.788-.376.313c.251-1.459 1.726-2.841 1.726-2.841l-1.35 2.528zm3.295-.062c-.078.77-1.051 2.51-1.051 2.51s-.017-1.191.627-2.337c.644-1.13.424-.173.424-.173zm1.898 3.499s.078-1.021.439-1.853c.345-.815.345-.031.345-.031-.046.894-.784 1.884-.784 1.884zm3.435-.065c0 .69-.156.957-.297 1.052-.142-.095-.298-.359-.298-1.052 0-.926-.063-1.286.298-1.396.361.11.297.471.297 1.396zm2.057-1.819s0-.784.359.031c.347.832.424 1.853.424 1.853s-.72-.99-.783-1.884zm2.682-1.615s-.234-.957.424.173c.645 1.146.645 2.337.645 2.337s-.991-1.743-1.069-2.51zm3.295.062l-1.334-2.525s1.477 1.381 1.711 2.84c.234 1.473-.377-.315-.377-.315z" fill="#D5B039"/><path d="M152.984 182.359c.581-2.871-1.631-4.738-1.631-4.738-.785.017-1.538-.58-1.538-.58l-.017 1.065s1.035.863 1.521 1.537c.486.66-1.476-.895-1.476-.895-.438 2.104-1.475 1.459-1.475 1.459l-.031.407s.533.233.689 1.489c.157 1.271-1.867-2.493-1.867-2.493.096 1.146-.83 2.776-.83 2.776s.328.455.375 1.553c.063 1.1-1.004-1.381-1.004-1.381-1.238.109-1.757-1.428-1.757-1.428-.267 1.866-1.489 2.307-1.489 2.307s-.033.472-.063 1.82c-.018.657-.173.926-.313 1.021-.157-.095-.298-.361-.313-1.021-.048-1.351-.063-1.82-.063-1.82s-1.224-.438-1.49-2.307c0 0-.533 1.537-1.741 1.428 0 0-1.083 2.479-1.02 1.381.063-1.098.376-1.553.376-1.553s-.926-1.633-.831-2.776c0 0-2.024 3.766-1.852 2.493.157-1.256.675-1.489.675-1.489l-.031-.407s-1.02.645-1.49-1.459c0 0-1.946 1.555-1.443.895.471-.674 1.506-1.537 1.506-1.537l-.016-1.065s-.737.597-1.538.58c0 0-2.196 1.867-1.632 4.738 0 0 1.491-.142 2.4-1.318 0 0-.769 4.001.503 3.72 1.286-.283 2.134-1.633 2.134-1.633s-.816 4.581.611 3.953c1.412-.596 2.385-3.607 2.385-3.607s.471 6.072 2.871 5.992c2.4.08 2.886-5.992 2.886-5.992s.957 3.014 2.369 3.607c1.442.628.597-3.953.597-3.953s.848 1.35 2.134 1.633c1.287.281.52-3.72.52-3.72.909 1.176 2.399 1.318 2.399 1.318z" fill="#D5B039"/><path d="M151.181 182.186s2.291 1.914 2.385.233c0 0 2.07 3.642 4.785 4.785 2.745 1.113.723 1.681.063 1.853-.644.203-2.84.895-4.723-.58-1.852-1.506-3.42-2.776-3.42-2.776s1.584.36.91-3.515zm4.518 5.664c1.475.392-.471-.408-.471-.408s-1.883-1.381-2.275-2.196l-.358.22c-.002-.001 1.63 1.991 3.104 2.384zM148.607 184.649s.77 1.71 1.381 1.428c0 0 1.992 2.04 4.157 3.389 2.134 1.365 2.935 2.918 1.836 3.5-1.099.579-5.226-1.146-8.394-5.006 0-.002 1.711-.675 1.02-3.311zm4.033 5.93c1.475.393-.471-.408-.471-.408s-1.898-1.381-2.291-2.195l-.36.203c0-.001 1.631 1.991 3.122 2.4z" fill="#D5B039"/><path d="M145.33 185.575s.406 1.836 1.631 2.322c0 0 .519 1.804 3.813 3.576 3.312 1.771 2.087 3.922 1.646 3.719-.424-.235-1.771-.926-3.64-1.412-1.883-.502-4.36-2.823-4.646-4.754.002 0 .959-.989 1.196-3.451zm4.203 7.201c1.475.393-.471-.408-.471-.408s-1.898-1.363-2.273-2.195l-.377.219c0-.001 1.647 1.991 3.121 2.384z" fill="#D5B039"/><path d="M143.869 189.45s.863 2.322 2.73 3.624c1.883 1.287 2.636 2.729 2.039 4.205-.596 1.459-1.256 1.161-2.354-.22-1.113-1.381-2.197-1.772-2.746-2.434-.533-.689-1.113-2.117-1.16-3.75 0 .001.864.143 1.491-1.425zm1.427 4.816c1.257.973 1.586 1.601 1.711 1.758.142.172.502.455.33-.157-.144-.612-.85-1.459-1.647-1.978-.784-.519-1.554-1.351-1.554-1.351s-.11.754 1.16 1.728zM144.639 196.745c-1.616-1.005-2.308-2.057-2.558-2.495-.251.438-.941 1.49-2.542 2.495 0 0 .314 3.294 2.542 4.534 2.228-1.24 2.558-4.534 2.558-4.534zm-2.558 1.742c-.393-.313-.408-2.651-.408-2.651h.816c0-.002-.015 2.336-.408 2.651z" fill="#D5B039"/><path d="M164.421 172.616s1.633 1.208 3.607 1.334c0 0 3.608 2.588 4.785 3.624 1.178 1.021 2.775 1.021 2.354-.347-.438-1.363-.66-1.631-1.396-2.558-.735-.909-1.065-2.823.078-3.396 1.13-.557 1.663 1.906 1.866 2.611.203.723.645 3.014 3.152 3.092 2.496.063 3.608-1.113 4.145-2.918.549-1.82 1.914-1.537 2.541-.91.611.611.611 1.646-.58 2.195-1.191.551-2.071 2.637-.313 2.729 1.74.078 3.481-1.161 3.732-3.026.281-1.885 1.74-.408 1.867-.078.125.328.471 1.883-1.914 2.871-2.387 1.02-8.725 3.748-12.237 3.687-3.499-.031-2.432-1.224-6.009-2.902-3.563-1.663-4.754-2.399-4.754-2.399s.347-.881-.924-3.609zM175.294 169.062s-.377 1.23-.313 1.858c0 0-.862-.039-.737-.619.109-.563.471-.587.596-.87.124-.274.14-.4.454-.369z" fill="#D6B139"/><path d="M186.794 174.404s.61.424 1.16.503c0 0-.063 1.537-1.506 1.93-1.476.36-1.693.094-1.758-.095-.063-.172-.188-.94.988-1.239 1.179-.315 1.116-1.099 1.116-1.099zM175.813 172.114s5.255 1.255 6.871 1.302c0 0-.267.472-.455 1.083-.188.596-1.554 1.71-3.403 1.256-1.852-.458-3.013-3.641-3.013-3.641z" fill="#195F92"/><path d="M184.802 170.787s.078.722-.174 1.153c-.234.455.252.533.438.58.188.048.612.205.486-.313-.122-.502-.75-1.42-.75-1.42zM189.273 172.411s.643.346.439 1.428c0 0 .031.157-.471-.031-.486-.173-.156-.988.032-1.397z" fill="#D6B139"/><path d="M186.104 165.955l-.974 3.546 3.906 1.012c.003-.001-.029-3.091-2.932-4.558zM182.197 164.685l-1.082 3.897-4.519-1.059c.001.002 1.46-2.924 5.601-2.838z" fill="#195F92"/><path d="M184.88 159.672s-.299-.135-.313.212c-.017.337.017 1.043-.063 1.185-.063.157-.047.212-.377.212-.328-.016-.83-.604-.939-.65-.096-.031-.204-.07-.268.126l-.281 1.23s-.078.243.251.172c.346-.078.94-.133.94-.133s.502-.039.36.368c-.142.408-.628 1.381-.628 1.381s-.298.471.204.597l.862.243s.438.195.455-.283c.016-.47.095-1.537.095-1.537s.016-.502.471-.273c.455.243.878.667 1.082.273.204-.415.519-1.138.078-1.146-.454 0-1.567.11-1.302-.298.25-.408.563-.935.563-.935s.251-.376-.154-.493c-.393-.109-1.036-.251-1.036-.251zM185.053 169.963c-.659-.142-.472-.862-.472-.862l1.084-3.602c-.863-.649-3.015-.9-3.015-.9s-.61 2.683-.847 3.655c-.221.979-1.227.689-1.227.689l-4.33-.973c-.422.761-.688 1.883-.769 2.571-.095.69.377.675.377.675s4.706.957 6.149 1.256c1.428.283 1.16.188 1.35.031.221-.142.486-.173.77-.377.268-.188.455-1.828.455-1.828s1.146.049 1.271 1.469c.109 1.41.771 1.693 1.1 1.818.346.11 1.066.471 1.615-.22.551-.69.551-2.386.551-2.386-.203-.192-3.403-.873-4.062-1.016zm-7.766.58a.932.932 0 01-.939-.94c0-.525.406-.949.939-.949a.944.944 0 010 1.889zm2.621.676a.944.944 0 010-1.889.95.95 0 01.956.949c0 .515-.424.94-.956.94zm2.603.597a.949.949 0 01-.94-.941c0-.524.423-.934.94-.934a.93.93 0 01.941.934.949.949 0 01-.941.941zm.707-2.244a.944.944 0 01-.941-.949c0-.524.424-.948.941-.948.517 0 .939.424.939.948a.943.943 0 01-.939.949zm.658-2.306a.944.944 0 010-1.89c.517 0 .939.425.939.941a.943.943 0 01-.939.949zm3.624 5.537a.938.938 0 110-1.878c.521 0 .941.416.941.939a.943.943 0 01-.941.939z" fill="#D6B139"/><path d="M177.773 169.517c0 .251-.22.446-.471.446a.434.434 0 01-.439-.446c0-.243.188-.455.439-.455s.471.212.471.455zM180.44 170.16a.46.46 0 01-.455.455.44.44 0 01-.455-.455c0-.235.188-.446.455-.446a.467.467 0 01.455.446zM183.044 170.787a.449.449 0 01-.455.447.46.46 0 01-.455-.447c0-.259.205-.471.455-.471a.455.455 0 01.455.471zM183.735 168.513a.455.455 0 01-.909 0c0-.243.203-.455.454-.455s.455.212.455.455zM184.378 166.206c0 .26-.188.455-.439.455a.45.45 0 01-.454-.455c0-.251.204-.446.454-.446a.434.434 0 01.439.446zM188.019 171.785a.465.465 0 01-.455.454.464.464 0 01-.455-.454c0-.252.203-.463.455-.463.25 0 .455.211.455.463zM119.536 172.756s-.848 2.229-.957 3.467c0 0-5.522 3.201-7.766 6.465 0 0-.031-.94-.941-1.553 0 0-.675 2.433-1.192 2.258 0 0 .36-.908-.282-1.316 0 0 .549-1.459-.486-2.588-1.036-1.146-.801.125-.816.268 0 .155-.141.549-.329.77l-.22-.346s.345-.485-.126-1.24c-.486-.736.126-.518.941-.359.8.157 1.71.784 2.385.706.659-.079-1.082-.675-1.381-.769-.313-.11-2.337-.582-3.278-.408-.941.156-.377.345-.33.628.047.298.283 1.333-.549 1.631-.848.299-1.302.235-2.023-.658-.706-.862-.031-2.071.36-2.433.408-.376 1.161-1.02 3.279-.957 2.118.031 5.318.095 6.197-.063.878-.125 2.887-.551 4.769-2.479-.001-.003 1.992-.333 2.745-1.024zM110.279 189.811s-.235 1.113-.141 1.475c0 0-.565-.581-.863-.689l.346-.814.658.028z" fill="#D6B139"/><path d="M109.386 186.704s1.302 1.537 2.023 1.771c.722.221 1.02.533.126.645-.895.109-1.867-.109-1.867-.109s-1.099 1.897-1.459 1.615c-.346-.267.109-.328.047-1.679-.063-1.333-.8-1.961-.8-1.961s1.428.048 1.93-.282zM109.95 182.043s-.142 1.006-.564 1.443c0 0 .502.173.596.55-.001.001.706-.831-.032-1.993zM107.55 179.785s-.455 1.333-.722 1.521c0 0 .722-.016 1.083.252 0-.001.25-1.145-.361-1.773zM105.479 178.484s.048.549-.109.925c0 0 .502.032.659.221-.001-.003.171-.77-.55-1.146zM105.259 179.864s.863-.016 1.036.675c.156.675-.282 1.035-.628 1.208-.329.188-1.177.549-1.255-.016-.079-.564.267-.737.628-1.35.36-.596.219-.517.219-.517zM103.831 181.449s.048.862.424 1.521c0 0-.69.127-1.129-.973-.439-1.082.705-.548.705-.548z" fill="#D6B139"/><path d="M106.2 182.233s.157-.502.754-.329c.596.155 1.333.36 1.035 1.521-.299 1.178-1.303.408-2.495 1.035-1.192.629-.643 1.114-1.866.816-1.24-.314-2.432-.533-2.589-1.271-.157-.722-.095-1.082 1.082-.957 1.161.125 1.585.471 2.103.394.518-.063.439-.253.486-.55.031-.298.69.077 1.49-.659zM107.283 184.649s.611-.235.895-.502c.267-.268 1.333-.125 1.475.393.156.502.313 1.02-.753 1.225-1.036.221-2.024.095-2.809.879-.784.814-2.087.188-2.196.048-.11-.128-.863-.755.267-.646 1.113.127 1.177-.455 1.412-.688.25-.207 1.709-.709 1.709-.709zM101.321 178.561s-1.35.425-1.318 1.49c.032 1.051.738 2.338 2.275 2.182 0 0 .282-.424-.204-1.35-.486-.925-1.035-.815-.753-2.322zM102.325 176.663s.848-.675 1.506-.77c0 0 .706-2.776-2.29-6.183 0 0-1.052-1.06-1.318 1.005-.251 2.073.989 5.006 2.102 5.948zM101.117 167.885c0 .722-.58 1.303-1.302 1.303s-1.303-.581-1.303-1.303c0-.723.581-1.294 1.303-1.294s1.302.572 1.302 1.294zM94.167 146.118s-.502 1.592-.063 3.467c.439 1.884 1.412 4.981 2.541 6.699 1.13 1.718 2.981 4.645 2.793 7.343-.173 2.684-1.13 1.819-1.49 1.554-.361-.282-2.604-3.1-3.311-7.397-.707-4.298-.863-6.935-2.023-8.221-1.146-1.271-2.275-1.514-2.275-1.514s1.208-.832 2.369-.394c0 0 .346-.871 1.459-1.537zM89.555 141.819l1.49-.652.377 1.852 1.599-.573.456 1.577-1.553.352.972 2.017-1.365.666-.595-2.424-1.35.981-.549-1.372 1.553-.73z" fill="#D6B139"/><path d="M142.081 168.694c2.98-3.499 5.82-3.884 9.79-5.806 4.127-1.978 5.539-6.244 5.539-6.244h-30.657s1.412 4.268 5.538 6.244c3.97 1.922 6.794 2.307 9.79 5.806z" fill="#6E8D3F"/><path d="M130.33 154.832h1.051s-.392-.847-1.051 0zM131.711 154.832h1.051s-.392-.847-1.051 0zM148.654 154.832h1.053s-.394-.847-1.053 0zM150.302 154.832h1.035s-.392-.847-1.035 0z" fill="#D6B139"/><path d="M131.554 154.535s1.02-1.027 1.616.298h1.443s.329.109.549-.973c.22-1.067.581-2.754.895-3.24.313-.471.063-.886-.298-1.663-.361-.769-.895-1.073-1.083.338-.204 1.404-.094 1.836-.988 3.067-.895 1.224-.926 1.012-1.334 1.074-.423.047-1.365.148-.8 1.099z" fill="#D6B139"/><path d="M149.957 154.801s.91-1.295 1.647.03h1.412s1.129-1.334 1.129-3.356c0-2.009.063-3.334-.8-3.507-.879-.172-1.898-.031-2.149-1.688-.251-1.671-.675-2.424-2.87-2.518-2.197-.087-4.959.188-4.959.188s.612.713-.125.823c-.753.126-1.428.078-1.428.078s-.031 2.274-1.459 1.317c0 0-.863 2.902-2.26.274 0 0-1.004 2.612-2.212-.572 0 0-1.428 1.459-1.6.541 0 0-.424.313-.455.753 0 .447.203.879.549.762.329-.117.862-.611 1.302-.611.44 0 .988 1.804 1.067 2.196 0 0 1.098-3.209 2.683-.486 0 0 .22-.895 1.066-1.342 0 0-.909 1.161.361.706 1.286-.463 3.044-1.239 5.742-1.177 0 0 .784.087.815-.251.029-.346-.36-.29-.832-.29s-2.65.359-2.416.077c.252-.273 2.604-.463 3.139-.455.549.023.455.472.439.849-.031.376-.031 2.854 2.432 3.317 0 0-.11-.84.722-.493.831.353 1.429.329 1.476.792.047.471.471 1.537-.849 2.485.001.004-2.587.083-1.567 1.558zM141.799 154.832s.926-1.42.707.023l-.707-.023zM140.811 154.832s.909-1.42.706.023l-.706-.023z" fill="#D6B139"/><path d="M142.818 154.825h2.057s.393-.039.723-.996c.328-.965.895-.485.973-1.42.078-.934-.832-1.593-.533-2.204.313-.611 1.239-.455 1.16-1.577-.063-1.121-2.557-.644-3.012-.094-.438.549-.52 1.451-.204 1.922 0 0 .233.009.313-.455 0 0 1.004.831.849 1.641-.157.814-.706 1.765-1.317 1.741-.611-.009-1.256-.464-1.758.337 0 0-.078.299.359.267.422-.027.564.233.39.838zM134.189 136.429s.22 1.381 2.134 1.271c0 0 .706-.109.706.361s-.941.368-.941.368-2.212-.133-1.899-2z" fill="#D6B139"/><path d="M143.729 140.618c-.329-.393-1.004-1.507-2.542-1.192 0 0-.063-.565-.549.078-.502.644-.8.502-.471.149.313-.354.784-1.06.518-1.655 0 0-1.883.228-1.208-.063.69-.29.815.268 1.208-.973 0 0 .33.55.69-.016.345-.557.957-1.584.235-1.788-.722-.203-1.082.196-1.334 1.192 0 0-.234-.181-.203-.683.031-.51.109-1.113-1.114-.957-1.224.15-1.083.612-1.083.612s-2.259.125-2.228.761c0 0 .016.204.095.306 0 0 .454-.031.454.181 0 .204-.392.243-.407.337 0 .086-.079.385.329.4.393.023 1.318.156 1.318.698 0 .541-1.146.69-1.224.753-.048.063-.268.384.376.4.628.023 2.04.148 2.228.847 0 0-.203.393-1.819.855-1.632.479-1.978.479-2.542 1.984 0 0 2.416-1.475 2.432-1.027 0 .438-.518 1.176.142.807.644-.377 1.412-.901 1.177-.337-.235.58-.299 1.562.188 1.152.47-.407 1.066-1.185.988-.494-.095.684-.895 1.499-1.318 1.186-.423-.307-.376-1.364-.376-1.364s-1.287.753-1.459.392c-.173-.359-.079-.557-.079-.557s-2.259.494-2.07 1.749c.172 1.255.706 1.585.706 1.585s1.788-2.62 1.819-1.781c.031.84-.188 1.875.565 2.691 0 0 .815-2.174 1.113-1.75.298.424.142 1.138.941 1.687 0 0 .628-2.62 1.051-2.165.424.472.644.737.879.801 0 0 0-1.905.533-1.78.533.126 1.412 1.026 1.24.055-.173-.965-1.271-1.843-1.209-2.267.079-.424.737-.29 1.256-.313.503-.025 1.114-.112.754-.496zm-4.676-4.212a.595.595 0 01-.596-.588.596.596 0 111.193 0 .595.595 0 01-.597.588z" fill="#D6B139"/><path d="M140.073 134.68s.471-.133.815-.32c.345-.197.941-.104.973.117.016.219.142.273-.313.32-.455.049-.957.236-1.099.369l-.376-.486zM142.818 135.394s.91.094.848.274c-.063.181-.156.486-.814.667-.675.18-.815.259-.815.259s.219-.683.235-1.027c.013-.346.546-.173.546-.173zM140.936 137.74s.471-.322.581-.51c.094-.188.533-.424 1.066-.228.549.195 1.224.769 1.271 1.059 0 0 .079.204-.878.4-.957.204-.879.518-1.318.627-.455.11-.502-.298-.518-.51-.016-.219-.204-.838-.204-.838zM128.745 138.72s.268.423.471.557l-.267.251s-.36-.236-.204-.808zM129.546 135.99s.471-.078.658.604l-.392.204c.001 0 .094-.251-.266-.808zM130.91 135.378s.393.016.393.675l-.345.094s.063-.321-.048-.769zM132.291 135.77s.22.322.016.667l-.22-.164s.142-.095.204-.503zM131.758 136.703s.612-.204.518.267c0 0-.345 1.342-.36 2.079-.016.745.251 1.671.674 2.573.439.895.597 1.027.91 1.082.282.057.502.063.393.4-.11.329-.424 1.318-.424 1.655 0 0-1.286-.009-1.757-1.114-.439-1.098-.173-2.698-.801-2.918-.627-.228-.753.212-1.364-.345-.597-.558-.173-.777-.095-.832.079-.047.298-.031.486.126.188.156.675.117.69-.267.031-.393.063-.737-.267-1.044-.329-.306-.737-1.059-.313-1.333s.957.29.957.29.109-.173-.047-.502c-.142-.33-.063-.361.109-.377.157-.016.377.173.471.525.094.356.377.105.22-.265zM152.578 140.751c-1.476-.173-3.688-.424-4.832-.706-1.162-.282-1.728-2.11.422-2.533 2.149-.416.408.251 3.153.251 2.746 0 2.997-1.271 2.997-1.271s-.234.291-1.191.126c-.957-.157-1.238-.369-2.463-.313-1.24.055-.438.235-2.525.808-2.088.564-2.213 1.436-2.213 1.836 0 .407.486 1.364 2.182 1.882 1.693.519 5.771 0 5.771 1.742 0 1.727-3.104 1.562-3.104 1.562l.472.572c1.442 0 3.766-.463 3.766-1.844-.004-1.381-.961-1.931-2.435-2.112zm-.598-3.937c.957.164 1.036.094 1.036.094s-.252.432-1.538.22c-1.303-.22-1.693-.212-1.693-.212s1.222-.275 2.195-.102z" fill="#D6B139"/></svg>