<svg xmlns="http://www.w3.org/2000/svg" viewBox="2.84 48.38 277.79 186.71"><path fill="#D6D4D1" d="M2.835 48.375h277.794v186.714H2.835z"/><path fill="#0E2C64" d="M5.134 50.689h273.238v182.164H5.134z"/><path fill="#F49B07" d="M278.372 62.079L5.134 197.569v11.374L278.372 96.235z"/><path fill="#FFF" d="M278.372 97.371L5.134 210.087v11.392l273.238-89.952zM107.347 107.428l-27.518-2.11 16.364-6.659a.207.207 0 00.125-.228c-.031-.095-.109-.157-.22-.142l-17.477 2.416 14.026-10.559c.078-.063.109-.165.063-.251-.047-.078-.157-.118-.251-.078l-16.332 6.855 11.014-13.9a.2.2 0 00-.016-.259.19.19 0 00-.251-.016l-13.9 11.006 7.013-16.324a.21.21 0 00-.078-.243c-.079-.047-.188-.023-.251.055L68.831 91.026l2.526-17.485a.19.19 0 00-.141-.212c-.094-.024-.188.023-.235.118l-6.652 16.246-2.118-27.439c0-.094-.079-.173-.188-.173-.094 0-.188.079-.188.173l-2.104 27.438-6.667-16.246c-.047-.094-.142-.141-.235-.118a.191.191 0 00-.142.212l2.542 17.485-10.841-14.033c-.063-.079-.172-.102-.251-.055-.079.055-.125.149-.079.243l7.013 16.324-13.9-11.006a.19.19 0 00-.251.016c-.079.07-.079.172-.016.259l11.013 13.9-16.332-6.855c-.094-.04-.188 0-.251.078-.047.086-.016.188.063.251l14.01 10.559-17.462-2.416c-.11-.016-.188.047-.22.142a.207.207 0 00.125.228l16.364 6.659-27.519 2.11a.19.19 0 00-.172.196c0 .094.079.181.172.188l27.519 2.103-16.364 6.667a.207.207 0 00-.125.228c.031.095.11.157.22.142l17.462-2.416-14.01 10.551a.196.196 0 00-.063.251.217.217 0 00.251.086l16.332-6.855-11.013 13.9c-.063.07-.063.188.016.251.063.07.172.086.251.023l13.9-11.014-7.013 16.332c-.047.086 0 .188.079.243.079.039.188.031.251-.055l10.841-14.034-2.542 17.485c-.016.094.047.181.142.212.094.023.188-.023.235-.118l6.667-16.253 2.103 27.439c0 .104.094.173.188.173.11 0 .188-.069.188-.173l2.118-27.439 6.652 16.253c.031.079.11.126.188.126.11 0 .204-.094.204-.196a.169.169 0 00-.031-.086l-2.51-17.423 10.825 14.034c.032.055.094.078.157.078.11 0 .204-.086.204-.188 0-.055-.031-.094-.047-.125l-6.997-16.285 13.9 11.014a.158.158 0 00.109.039h.016c.11 0 .188-.086.188-.196 0-.07-.031-.117-.078-.165l-10.982-13.854 16.332 6.855c.031.008.047.008.078.008.095.008.204-.086.204-.188a.187.187 0 00-.125-.181l-13.994-10.527 17.477 2.416h.031c.11 0 .204-.086.204-.188a.2.2 0 00-.156-.188l-16.348-6.659 27.518-2.103a.195.195 0 00.173-.188.192.192 0 00-.173-.197z"/></svg>