<svg xmlns="http://www.w3.org/2000/svg" viewBox="2.84 48.38 277.79 186.71"><path fill="#D6D4D1" d="M2.835 48.375h277.794v186.714H2.835z"/><path fill="#D10D1C" d="M5.095 50.576h273.253v182.156H5.095z"/><path d="M171.318 141.656c0 16.349-13.257 29.598-29.605 29.598s-29.589-13.25-29.589-29.598 13.241-29.604 29.589-29.604c16.349 0 29.605 13.258 29.605 29.604zM115.968 115.896l-73.534-65.32H5.095l105.617 72.177c1.521-2.473 3.217-4.816 5.256-6.857zM167.475 115.896l73.518-65.321h37.34l-105.617 72.177c-1.508-2.472-3.202-4.815-5.241-6.856zM167.475 167.419l73.518 65.313h37.34l-105.617-72.176c-1.508 2.477-3.202 4.822-5.241 6.863zM115.968 167.419l-73.534 65.313H5.095l105.617-72.176c1.521 2.477 3.217 4.822 5.256 6.863zM177.563 135.829c.313 1.906.58 3.828.58 5.828 0 1.616-.268 3.154-.471 4.715l100.66 8.417v-27.385l-100.769 8.425zM105.284 141.656c0-2 .282-3.922.596-5.828L5.095 127.403v27.385l100.676-8.417c-.205-1.56-.487-3.098-.487-4.715zM141.713 178.086c-1.819 0-3.561-.274-5.318-.533l-4.612 55.179h19.862l-4.611-55.179c-1.744.259-3.5.533-5.321.533zM141.713 105.22c1.79 0 3.515.282 5.225.525l4.611-55.17h-19.673l4.613 55.17c1.726-.243 3.436-.525 5.224-.525z" fill="#FFE700"/></svg>