<svg xmlns="http://www.w3.org/2000/svg" viewBox="2.84 48.38 277.79 186.71"><path fill="#D6D4D1" d="M2.835 48.376h277.794v186.712H2.835z"/><path fill="#FACA0D" d="M5.087 50.635h273.269v61.485H5.087z"/><path fill="#E42D3B" d="M5.087 171.33h273.269v61.477H5.087z"/><path fill="#45A838" d="M5.087 112.128h273.269v59.202H5.087z"/><path d="M116.784 156.269l-15.141 46.587c0 .125.063.219.142.297.078.08.235.08.298 0l39.646-28.78 39.63 28.78a.202.202 0 00.142.049c.031 0 .172 0 .203-.049.096-.078.096-.172.096-.297l-15.172-46.587 39.6-28.781c.095-.087.095-.188.095-.298-.063-.118-.126-.188-.251-.188h-48.947l-15.143-46.588c-.078-.228-.438-.228-.502 0l-15.156 46.588H77.42c-.188 0-.267.07-.298.188 0 .109 0 .211.11.298l39.552 28.781z" fill="#FFF"/></svg>