<svg xmlns="http://www.w3.org/2000/svg" viewBox="2.84 48.38 277.79 186.71"><path fill="#D6D4D1" d="M2.835 48.376h277.793v186.712H2.835z"/><path fill="#C3282E" d="M5.22 50.714h91.073v182.161H5.22z"/><path fill="#005197" d="M96.293 50.714h91.089v182.161H96.293z"/><path fill="#C3282E" d="M187.367 50.714h91.09v182.161h-91.09z"/><g fill="#FAD009"><path d="M64.822 121.384c0-.102-.079-.18-.173-.203a.224.224 0 00-.235.117 14.923 14.923 0 01-13.665 8.935 14.916 14.916 0 01-13.649-8.935.224.224 0 00-.235-.117c-.094.023-.172.102-.172.203v.103c-.016.047-.016.094-.016.148 0 7.751 6.323 14.072 14.073 14.072 7.766 0 14.089-6.321 14.089-14.072 0-.055-.016-.102-.016-.148l-.001-.103z"/><path d="M50.749 128.147c5.68 0 10.308-4.621 10.308-10.3 0-5.68-4.628-10.3-10.308-10.3-5.664 0-10.292 4.62-10.292 10.3 0 5.679 4.628 10.3 10.292 10.3zM50.749 105.46c3.593 0 6.527-2.918 6.527-6.519 0-1.64-.644-2.4-1.114-2.966-.282-.313-.47-.533-.47-.808 0-.196.063-.424.109-.667.188-.839.424-1.992-1.129-3.287a.225.225 0 00-.283.008.198.198 0 00-.031.268c.486.815.235 1.208-.109 1.757-.251.408-.565.879-.565 1.608 0 .87.204 1.302.376 1.671.141.329.267.611.267 1.161 0 .58-.471 1.035-1.051 1.035s-1.051-.455-1.051-1.035c0-.519.251-1.06.518-1.671.361-.785.753-1.655.753-2.746 0-1.961-.33-2.604-1.302-4.205a14.13 14.13 0 00-.722-1.066c-.894-1.224-1.365-1.961-.564-2.769.078-.063.078-.172.031-.259-.047-.094-.157-.118-.251-.094-1.601.534-1.381 2.291-1.208 3.687.063.455.125.879.125 1.239 0 .706-.283 1.295-.581 1.915-.33.722-.69 1.467-.69 2.494 0 1.099.298 1.687.565 2.212.204.4.392.745.392 1.264 0 .58-.471 1.035-1.051 1.035s-1.051-.455-1.051-1.035c0-.55.126-.832.267-1.161.172-.369.376-.801.376-1.671 0-.729-.314-1.2-.565-1.608-.345-.549-.596-.941-.11-1.757a.198.198 0 00-.031-.268.226.226 0 00-.282-.008c-1.553 1.295-1.318 2.448-1.13 3.287.047.243.11.471.11.667 0 .274-.188.494-.471.808-.471.565-1.114 1.326-1.114 2.966-.001 3.6 2.932 6.518 6.51 6.518zM35.625 137.802H23.026a.202.202 0 00-.204.204v60.512c0 .108.094.203.204.203h12.598c.125 0 .22-.095.22-.203v-60.512c0-.118-.094-.204-.219-.204zM78.487 137.802H65.888c-.125 0-.219.086-.219.204v60.512c0 .108.094.203.219.203h12.599a.209.209 0 00.204-.203v-60.512a.204.204 0 00-.204-.204zM63.363 147.882H38.15a.23.23 0 00-.22.22v5.036c0 .117.11.22.22.22h25.212c.109 0 .204-.103.204-.22v-5.036c0-.118-.094-.22-.203-.22zM63.363 183.174H38.15c-.11 0-.22.094-.22.219v5.037c0 .108.11.221.22.221h25.212c.109 0 .204-.11.204-.221v-5.037c0-.125-.094-.219-.203-.219zM50.655 145.756c.031.016.063.038.094.038.047 0 .079-.022.11-.038l12.614-7.562c.079-.048.125-.149.094-.236a.216.216 0 00-.204-.156H38.15c-.094 0-.172.063-.204.156-.032.087.016.188.094.236l12.615 7.562zM63.363 190.737H38.15c-.094 0-.172.063-.204.156a.197.197 0 00.094.233l12.614 7.563a.214.214 0 00.094.029c.047 0 .079-.016.11-.029l12.614-7.563a.2.2 0 00.094-.233.215.215 0 00-.203-.156zM44.708 179.566c.031 0 .063.016.094.016a.235.235 0 00.172-.063.231.231 0 000-.28 7.136 7.136 0 01-1.443-4.3c0-3.984 3.248-7.216 7.217-7.216 3.389 0 6.15-2.754 6.15-6.144 0-3.381-2.762-6.135-6.15-6.135-7.06 0-12.818 5.742-12.818 12.818a12.85 12.85 0 006.778 11.304zm6.041-15.681a2.293 2.293 0 01-2.291-2.308 2.29 2.29 0 012.291-2.299 2.294 2.294 0 012.307 2.299 2.297 2.297 0 01-2.307 2.308z"/><path d="M56.805 156.966a.248.248 0 00-.267.047.22.22 0 000 .273 7.125 7.125 0 011.443 4.291c0 3.985-3.247 7.217-7.232 7.217-3.373 0-6.134 2.763-6.134 6.144 0 3.39 2.761 6.148 6.134 6.148 7.076 0 12.818-5.758 12.818-12.824a12.813 12.813 0 00-6.762-11.296zm-6.056 15.665a2.3 2.3 0 012.307 2.307 2.292 2.292 0 01-2.307 2.307 2.288 2.288 0 01-2.291-2.307 2.297 2.297 0 012.291-2.307z"/></g></svg>