<svg xmlns="http://www.w3.org/2000/svg" viewBox="2.84 48.38 277.79 186.71"><path fill="#D6D4D1" d="M2.835 48.375h277.794v186.714H2.835z"/><path fill="#FFF" d="M5.142 50.713h136.619v182.164H5.142z"/><path fill="#CE142B" d="M141.761 50.713H278.38v182.164H141.761z"/><path d="M44.505 106.879H34.087V94.696a4.843 4.843 0 01-4.612-4.612h-12.19V79.666h12.19a4.838 4.838 0 014.612-4.613v-12.19h10.417v12.19a4.837 4.837 0 014.612 4.613h12.19v10.417h-12.19c-.109 2.486-2.118 4.495-4.612 4.612l.001 12.184zm-9.947-.463h9.476V94.241h.235a4.39 4.39 0 004.393-4.393v-.235h12.174v-9.484H48.663v-.227a4.39 4.39 0 00-4.393-4.393h-.235V63.334h-9.476v12.174h-.235a4.4 4.4 0 00-4.393 4.393v.228H17.755v9.484h12.174v.235a4.4 4.4 0 004.393 4.393h.235l.001 12.175z" fill="#96887D"/><path d="M48.663 89.849v-.235h12.174V80.13H48.663v-.228a4.39 4.39 0 00-4.393-4.393h-.235V63.334h-9.476v12.174h-.235a4.4 4.4 0 00-4.393 4.393v.228H17.755v9.484h12.174v.235a4.4 4.4 0 004.393 4.393h.235v12.175h9.476V94.241h.235a4.392 4.392 0 004.395-4.392z" fill="#CCCBCB"/><path d="M45.29 83.557l-.8-.651s0-.008 0 0c0 0-.267.023-.533-.181-.283-.219-.816-.259-.832-.259 0 0-.016 0-.016.008-.172.291-.784.612-.878.659-.141-.291-.439-.486-.502-.534.125-.251-.376-.871-.439-.949.22-.212.408-.447.549-.612h.016c.031 0 .157-.008.298-.149a.161.161 0 00.142-.016c.047-.039.078-.133.063-.274-.016-.204-.047-.322-.094-.353h-.032c-.047-.008-.565-.079-.8-.157-.188-.07-.549-.063-.674-.055a.354.354 0 00.047-.369s-.016-.016-.016-.008c-.016 0-.157.008-.376.18-.094-.055-.22-.016-.282.008.016-.109-.032-.416-.22-.651-.173-.22-.393-.322-.69-.322-.753 0-.91.644-.926.706-.141-.023-.298-.023-.423.055-.047-.024-.283-.125-.502-.055a.372.372 0 00-.235.212c-.079 0-.471-.023-.581.282v.016l.016.008c.047 0 .471.008.722.157.016 0 .016.008.016.008-.235-.031-1.098-.157-1.49-.376h-.016c-.016 0-.408.078-.471.361-.079.016-.534.102-.502.596-.079-.032-.33-.079-.502.063-.172.141-.251.408-.204.816-.079.016-.377.079-.439.565-.016.07-.016.141-.031.196-.032.275-.063.471.031.542.063.055.172.047.329-.016.016.055.016.22-.157.267v.016c0 .008.11.33.534.33.047 0 .094 0 .141-.016.016 0 .282-.063.533-.337.204-.235.487-.416.565-.463-.016.11-.031.22-.047.353 0 .008-.016.023-.031.055-.032-.008-.22-.063-.267.008-.031.055.016.149.157.306 0 .008.016.008.016.008 0 .016 0 .031.016.04.016.047.047.07.094.086.016.039.047.11.141.11.016.04.079.11.172.102 0 .023.047.07.173.063l.659.557c-.423.181-.659.769-.722.997-.016 0-.455.063-1.004-.298-.22-.133-.408-.165-.549-.094-.22.11-.313.393-.313.596-.032.345.282.832.298.863 0 0 .063.063.031.142-.016.078-.11.157-.282.219-.188.071-.298.173-.345.298-.031.11 0 .212.031.251 0 .023.047.157.22.196l-.031.228.11.329v.016h.016l.094-.031c.016.071.047.314.219.345h.016v-.016c0-.008-.125-.314.031-.549.047.016.298.047.392-.094.079-.094.063-.251-.047-.471l.094-.008v-.031s-.125-.149-.141-.29c.063-.016.267-.071.376-.243.079-.118.094-.259.047-.424v-.008s-.251-.322-.439-.518c-.063-.071-.079-.125-.047-.173.047-.063.172-.094.251-.055l.079.039c.22.11.737.376.957.196.329.808 1.396 1.098 1.506 1.129.016.055.047.314-.094.729-.047.157-.047.275.016.345.078.102.235.079.267.079.282.039.533.133.737.235l-.22.274-.706.094c-.016 0-.016.008-.016.008l-.267.322-.879.07-1.428-.039-.016.008c0 .016 0 .016.016.023l2.04.322-1.632-.079c-.016 0-.016.008-.016.016 0 0-.016.016 0 .016l.502.424v.008l7.201.008.565-.447v-.008-.016l-.957-.518c.063-.039.11-.094.125-.11.172.031.298-.079.329-.094.11.079.346.212.644.267a.401.401 0 00.11.016c.376 0 .549-.408.549-.408.016-.016.016-.016 0-.023 0-.008 0-.008-.016-.008a.121.121 0 01-.078-.031c-.035-.049-.035-.12-.035-.12v-.008l-.016-.016c-.125 0-.141-.11-.141-.11 0-.016 0-.016-.016-.016 0 0-.016 0-.016.016 0 .204-.11.353-.125.376-.11.078-.282-.016-.424-.133.33-.157.8-1.067.863-1.161l.251-.071h.016c.016-.063 0-.102-.031-.133a.172.172 0 00-.094-.063c-.016-.055-.032-.086-.079-.118a.23.23 0 00-.157-.023c0-.032 0-.055-.016-.071-.016-.031-.047-.031-.047-.031h-.016c-.235.039-.282.643-.282.722l-.596.4c-.016-.063-.047-.228-.11-.33-.094-.118-.361-.564-.361-.564-.047-.11-.063-.181-.032-.212.063-.047.188.016.235.031.377.353.659.267.675.267.251-.094.393-.353.455-.581l.313.157h.016c0-.008.016-.016.016-.016l-.032-.196.298.008s.016 0 .016-.008 0-.016-.016-.023l-.157-.102.094-.086c.016 0 .016-.008.016-.016l-.016-.008a4.255 4.255 0 01-.298-.047c0-.016.016-.055.031-.094v-.016l-.016-.008-.251-.008-.282-.549v-.008l-.235-.016-.204-.463v-.008h-.016c-.282.18-.424.361-.408.533.016.173.188.298.298.369-.11-.008-.392-.055-.565-.204 0-.008-.016-.008-.016 0v.023c0 .007.173.22.298.313h-.063s-.016.008-.016.016a.286.286 0 00.094.172c.11.071.267.047.313.039.016.094.188.228.22.259 0 .039-.063.157-.157.18-.094.023-.204-.039-.33-.18-.141-.149-.282-.235-.423-.235-.173 0-.267.102-.267.11a.337.337 0 00-.126.282c0 .267.251.518.33.581l-.188.125a4.468 4.468 0 00-.298-.33c.063-.918.785-1.75.8-1.757v-.016c0-.008-.016-.008-.016-.008-.016-.008-.032-.008-.047-.008-.455 0-1.004.659-1.051.722a5.309 5.309 0 00-.784-.533c-.016-.047-.063-.22-.125-.447l.11-.039c.518.118 1.631-.306 1.757-.353.22.188.439.118.486.102.063.039.439.313.597.635.063.118.109.165.157.165h.016c.031 0 .063-.047.079-.094.141.423.471.462.58.462h.047l.016-.008v-.016l-.486-.863h-.016s-.251-.204-.753-.596c-.408-.33-.973-.314-1.145-.306.581-.431.659-.949.659-1.043.11 0 .785-.016.941.125.157.157.486.243.549.259a.405.405 0 00.267.188c.22.047.423-.102.439-.102v-.016c.003.006.003-.002.003-.01zm-4.048-1.922c-.172.165-.376.33-.565.432-.596.33-1.177.525-1.192.533h-.016a.29.29 0 01-.22-.102c-.204-.243-.141-.808-.125-.902l.079-.008c0 .086-.031.439.063.729.032.125.11.188.22.188h.016c.047-.008.455-.079 1.192-.588a4.619 4.619 0 001.161-1.122h.141c-.08.111-.393.503-.754.84zm-1.914 1.42c-.016-.023-.094-.11-.534-.423-.486-.353-.439-.675-.439-.675s.125-.51-.33-.832c-.392-.267-.361-.494-.345-.542.173-.07.314-.117.455-.117.157 0 .235.063.251.063.016.031.251.369.596.471l.298.149-.016.675v.008l.204.643c-.094-.016-.141-.063-.172-.172-.11-.314-.063-.722-.063-.722v-.016s0-.008-.016-.016l-.11.016c-.016 0-.016 0-.016.016 0 .023-.094.667.125.941.063.07.157.11.251.11a3.206 3.206 0 01-.063.486l-.076-.063zm.078.094l-.063.165v-.212l.063.047zm-.8-2.965s.031.125-.079.235c-.031-.023-.11-.11-.188-.353a.649.649 0 01.267-.102.509.509 0 000 .22zm.031 0a.542.542 0 010-.228c.016 0 .032-.008.047-.008h.031c.376.032.706.149.706.149.016.008.235.079.345.016v.016c-.016.125-.109.18-.109.18v.016c0 .243-.047.377-.142.377-.031 0-.078-.032-.078-.032-.016 0-.016 0-.016.008-.094.188-.188.228-.251.228-.047 0-.063-.016-.063-.016h-.016l-.11.079c-.298-.094-.518-.376-.565-.439.047-.031.079-.055.11-.078 0 0 .016 0 .016-.008.127-.119.095-.26.095-.26zm0-.267c.047-.204.173-.298.173-.298.016 0 .204-.141.423-.141.157 0 .298.063.393.212.109.141.157.274.141.384-.094.079-.329-.008-.329-.008s-.33-.118-.706-.149h-.095zm.989.785l-.094.141-.235.204s-.016 0-.016.008v.055l-.267-.125.079-.063c.047.024.204.071.345-.211a.185.185 0 00.078.023c.032 0 .063-.016.094-.047l.016.015zm-1.13-.267a.643.643 0 01-.094.063c-.031-.016-.11-.063-.251-.063l-.204-.063c.047-.055.188-.188.36-.291.079.236.158.323.189.354zm1.004 2.189c.032-.008.094-.032.22-.079 0 .055 0 .243-.157.384l-.11.141a4.54 4.54 0 00.047-.446zm1.647-1.107l-.22-.267c.471-.055.612-.172.644-.204h.047c-.11.135-.266.299-.471.471zm-.376-1.827a.3.3 0 01-.063.353v.016l.016.008s.471-.023.706.055.769.149.8.157h.016c.016.016.063.071.079.33.016.125 0 .211-.063.243-.047.039-.11.008-.11.008h-.031c-.11.125-.204.141-.251.149.094-.125.157-.212.157-.212.016-.008.016-.016.016-.016 0-.008-.016-.016-.016-.016h-.173c-.016 0-.016 0-.016.008 0 0-.079.102-.204.251v-.008h-.079s-.126.149-.659.212c-.016 0-.016.008-.016.008v.016l.251.282c-.141.118-.282.243-.455.361a4.165 4.165 0 01-.941.51c-.016-.031-.078-.173-.157-.573-.094-.486.298-.988.298-.996.078-.071.69-.761.596-.934a.238.238 0 00-.047-.04c.189-.133.315-.164.346-.172zm-.376.18l.047.047c.063.133-.408.69-.58.894-.016.008-.408.518-.314 1.02.079.4.125.542.157.581-.125.047-.204.063-.204.063l-.204-.651.016-.683v-.079l.251-.196.565-.98c.015-.008.171-.078.266-.016zm-1.177-.965c.282 0 .502.102.659.306.204.251.235.581.219.659l-.455.8-.015-.008a.76.76 0 00.063-.33c.016-.016.094-.078.11-.196.031-.141-.016-.298-.141-.471a.51.51 0 00-.424-.228c-.22 0-.423.149-.439.157 0 0-.047.04-.094.11a2.195 2.195 0 00-.377-.118c.015-.061.156-.681.894-.681zm-2.62 1.161c.11-.29.534-.243.534-.243h.016a.352.352 0 01.235-.212c.219-.07.486.055.486.055h.016c.251-.181.769.063.8.063a.638.638 0 00-.079.196.79.79 0 00-.298.118c-.22.125-.392.306-.423.345-.047 0-.33-.016-.581-.165-.236-.141-.612-.157-.706-.157zm-1.569 3.178c-.235.267-.502.33-.502.33-.455.078-.612-.204-.643-.275.204-.07.157-.313.157-.313v-.008l-.016-.008c-.173.071-.267.071-.33.032-.079-.063-.047-.251-.016-.51.016-.063.016-.125.031-.196.063-.534.408-.542.424-.542h.016v-.016c-.047-.4.016-.675.188-.8.204-.165.487-.063.487-.063h.016s.016-.008.016-.016c-.031-.518.455-.581.486-.581 0 0 0-.008.016-.016.047-.251.392-.337.439-.345.471.251 1.568.384 1.568.384l.016-.008c.251.125.502.125.502.125.016 0 .016 0 .016-.008l.016-.008.141.039a1.39 1.39 0 00-.455.133c-.47.235-.502.385-.502.439-.078.016-.376.125-.439.345-.063.031-.486.188-.549.542-.047.031-.361.274-.486.871 0 0 0-.008 0 0-.001.002-.346.205-.597.473zm.424.251c-.157-.173-.157-.235-.141-.259.016-.04.141-.016.219.008-.031.07-.078.164-.078.251zm.627.423c.016-.008.047-.016.047-.031.047-.078.016-.228-.016-.298.031.016.079.031.11.047l1.396.91.439.627-.8-.251-1.176-1.004zm.22-.486c-.204-.313-.125-.564-.11-.604.031-.023.219-.165.376-.369.047-.016.549-.243.737-.416-.031.235 0 .533.235.753.016.086.22 1.028.549 1.216-.157.04-.69.165-.862.243l-.926-.612c.031-.008.047-.016.047-.023.016-.039.001-.094-.046-.188zm.298-1.02a.705.705 0 00.173-.361h.063a.713.713 0 00.533-.259 2.693 2.693 0 00-.047.204c-.142.142-.565.345-.722.416zm-1.491 3.263l-.079-.039a.29.29 0 00-.298.063c-.016.04-.047.11.047.212.188.196.408.494.439.525a.457.457 0 01-.032.385c-.125.188-.376.235-.376.235-.016 0-.016.008-.016.016 0 .125.094.251.125.306l-.063.008s-.016 0-.016.008v.016c.109.211.125.368.063.462-.11.133-.376.079-.376.079-.016 0-.016 0-.031.008-.141.204-.079.463-.047.549-.141-.063-.157-.33-.157-.337v-.008c-.016-.008-.016-.008-.016 0l-.11.031-.094-.306.047-.235c0-.016-.016-.024-.016-.024-.173-.031-.22-.165-.22-.172v-.008c-.032-.031-.063-.125-.032-.228.047-.118.157-.212.33-.274.173-.063.282-.149.298-.243.032-.102-.031-.173-.031-.173 0-.008-.329-.494-.298-.839.016-.196.094-.463.282-.565.157-.07.33-.039.533.094.518.33.926.306 1.004.298 0 .031-.016.047-.016.055v.008c.016.102.047.204.079.298-.185.172-.703-.095-.923-.205zm2.636 2.479s-.173.023-.251-.063c-.047-.063-.047-.172 0-.314.157-.479.094-.753.094-.761s-.016-.008-.016-.008c-.016-.008-1.428-.345-1.584-1.428.016-.063.251-.871.753-1.067l.502.432v.008l.847.267h.016c.016-.008.016-.016 0-.023l-.471-.667v-.008l-.376-.243c.22-.094.847-.235.878-.243.345.125 1.679.267 1.851.291 0 .086-.016.557.393 1.075h-.016c0 .008-.549.51-1.099.51-.047 0-.094 0-.125-.008l-.408.008c-.016 0-.016.008-.016.016s-.016.588-.235.643v.024s.094.573-.345.886v.023c0 .007.251.573.8.737h.016c0-.008.11-.102.267-.063.157.031.392.196.612.776-.094.016-.471.047-.596-.07-.11-.118-.172-.118-.204-.102a2.478 2.478 0 00-.518-.376 2.244 2.244 0 00-.769-.252zm3.295-1.961c.063.086.188.102.361.063.031.016.125.094.282.141l-.094.22c-.549-.361-1.287-.612-2.087-.267-.016 0-.016.016-.016.016 0 .016.016.016.016.016.016 0 .722-.079.8.345v.016h.016s.22-.016.345.102c.063.055.094.141.094.243v.016h.016s.141 0 .22.086a.259.259 0 01.079.188v.016h.016s.109-.039.204 0a.195.195 0 01.094.125v.008h.016s.094-.031.188.016c.063.031.11.086.141.172-.079-.047-.392-.172-.612-.172h-.016l-.659-.518-.016-.008c-.737.243-1.083.118-1.098.094-.015-.024-.031-.141-.047-.22.235-.29.016-.886 0-.949.549-.008 1.099-.51 1.114-.518.141.18.329.361.596.541 0 .04-.016.15.047.228zm-2.526.47c.125.196.125.384.125.565a.93.93 0 000 .298c.016.063.047.11.094.126.125.047.313-.079.345-.11.33.157.988-.086 1.067-.118.047.016.157.086.22.055.016-.008.031-.023.031-.047.016-.071.094-.079.125-.079a.647.647 0 00.157.212l-.941.228a.658.658 0 00-.471-.11c-.204.031-.408.172-.58.408-.314-.196-.486-.525-.518-.588.346-.259.361-.674.346-.84zm2.024.667s0-.008-.016-.008c-.031 0-.125.016-.157.11 0 .008 0 .016-.016.016-.032.016-.142-.023-.188-.055 0-.008-.016-.008-.016 0 0 0-.737.283-1.051.118h-.016c0 .008-.204.157-.33.11a.156.156 0 01-.078-.102.879.879 0 010-.29c0-.188.016-.408-.157-.627.204-.094.235-.565.235-.659l.376-.008c.047.008.079 0 .11.008.016 0 .267.644.016.934v.008c0 .023.016.204.047.243.031.063.439.149 1.129-.071l.785.612c-.124.022-.485.046-.673-.339zm-1.098.918l.125-.055v.023l-.094.071c0-.015-.016-.023-.031-.039zm-.926.188c.11.071.22.141.298.204-.314.188-.518.172-.581.157l.283-.361zm5.067 1.004l-.533.424-7.17-.008-.471-.392 1.898.086s.016 0 .016-.016c0-.008-.016-.016-.016-.016l-2.086-.33 1.192.032.879-.071.016-.008.251-.322.675-.086-.047.063v.016a.347.347 0 00.141.023c.11 0 .283-.031.518-.18.11.086.172.149.172.157h.016s.047-.031.188.094c.079.079.251.094.392.094.125 0 .235-.016.251-.016l.016-.008v-.008c-.126-.306-.251-.518-.377-.659l.079-.063c.079.142.251.439.471.439l-.047.29c-.047.04-.172.142-.157.196.016.016.032.031.079.031.031 0 .063-.008.125-.016.33-.078.659-.204.737-.228.032.055.11.212.298.228 0 0 .016-.008.016-.016 0 0 .031-.078.016-.133a.187.187 0 00.094 0v.008a.786.786 0 00.172.031c.157 0 .298-.07.345-.094.141.141.392.023.439 0 .157.07.298-.032.33-.063a.2.2 0 00.141-.008v.008l.941.521zm.895-3.294c-.016.055-.031.094-.016.102 0 .008 0 .023.282.055l-.094.079v.024l.141.086-.251-.008v.008s-.016 0-.016.008l.016.18-.282-.141c.047-.172.047-.329.047-.329v-.008l-.031-.063.204.007zm-1.538-.282c.22.125.518.141.534.141.016.008.047.016.047.023-.047.055-.204.07-.33.07a1.002 1.002 0 01-.251-.234zm-.439 1.615c.063.079.094.125.094.125.016.016.016.016.031.008v-.023s-.031-.047-.094-.11l.204-.149v-.024s-.33-.283-.33-.565c0-.094.032-.188.11-.267 0 0 .094-.094.251-.094.125 0 .267.079.392.228.141.149.251.212.361.188.141-.031.188-.204.204-.211 0 0 0-.016-.016-.016-.063-.047-.22-.188-.22-.259v-.008l-.016-.008s-.188.039-.314-.039c-.032-.031-.063-.071-.063-.125.094 0 .408.016.471-.11v-.008c0-.008 0-.008-.016-.008 0 0-.376-.157-.408-.408-.016-.157.11-.329.376-.494l.188.455.016.008.235.016.313.628c0 .063-.047.753-.502.91 0 0-.267.079-.644-.259-.016-.008-.188-.102-.267-.031-.047.039-.047.118.016.251 0 0 .267.447.361.573.078.117.109.337.109.337s0 .008.016.008c0 .008 0 .008.016 0l.612-.423h.016c0-.016.047-.675.251-.706 0 0 .031 0 .031.016.02.014.02.037.02.069v.016l.016.008s.094-.031.157.016c.031.023.063.055.063.102 0 .008.016.016.016.016s.063.008.094.047c.016.024.016.055.016.094l-.251.071h-.016c0 .016-.518 1.012-.847 1.161a1.484 1.484 0 01-.251-.259c-.016-.008-.016-.008-.031 0v.023c.016.024.471.604.753.416v-.008s.094-.125.125-.322c.016.04.063.071.125.071 0 .031 0 .086.031.125.032.031.047.047.094.047-.047.094-.251.432-.627.361-.424-.078-.722-.329-.722-.329-.016-.008-.016-.008-.031 0v.023l.078.055c-.031.016-.157.11-.298.079 0-.008-.016 0-.016 0 0 .008-.11.18-.282.125h-.016s-.141.141-.298.063h-.016s-.298.149-.424 0c-.016-.008-.016-.008-.031 0 0 0-.22.134-.455.071v-.008s.094-.11-.031-.228c.016-.039.047-.133 0-.188-.032-.039-.094-.055-.173-.047l-.015.007s-.141.133-.298.228l-.157-.149c.063-.071.141-.188.094-.345l-.016-.008c-.016 0-.016.008-.016.023.047.141-.031.251-.094.322v.008a.268.268 0 01-.079.063c-.016.016-.125.118-.094.173.016.031.047.047.141.031.251-.047.502-.282.533-.322.079-.008.125.008.141.04.047.047 0 .157 0 .157-.016.008-.016.016 0 .023.126.102.047.196.047.196a.261.261 0 01-.157 0l-.016.008v.023c.031.031.016.086 0 .118-.188-.016-.251-.212-.251-.212l-.016-.016h-.016s-.376.141-.753.235c-.141.031-.157 0-.157 0 0-.023.063-.102.141-.157v-.016l.078-.306v-.007l.063-.267-.016-.016c-.016 0-.016 0-.016.016l-.063.251h-.016c-.22 0-.392-.314-.439-.439-.016-.031-.031-.047-.031-.055v-.008h-.016l-.157.078a.478.478 0 00-.173-.094.37.37 0 00-.298.07.926.926 0 01-.22-.102c.172-.235.345-.361.549-.392.267-.039.455.11.455.11.016 0 .016.008.016 0l.973-.235a.68.68 0 00.393.125c.078 0 .141-.016.141-.016.016 0 .016-.008.016-.016v-.016l-.125-.094c.235 0 .612.172.612.18h.016c0 .023.016.047.016.071.016.008.016.016.016.016s.298.016.329.22c0 0 .063.063.173.063.047 0 .094-.016.172-.031 0-.008.016-.016 0-.023 0 0 0-.016-.016-.008-.204.063-.282 0-.298-.016-.047-.196-.282-.235-.345-.235-.047-.149-.11-.251-.204-.298a.279.279 0 00-.204-.016c-.016-.063-.047-.102-.094-.125a.328.328 0 00-.204-.016.255.255 0 00-.079-.188.349.349 0 00-.235-.094.343.343 0 00-.094-.251c-.125-.11-.313-.11-.376-.11-.063-.337-.518-.369-.722-.361 1.399-.534 2.576.729 2.905 1.129zm-1.789 1.326c-.063.031-.125.055-.204.071s-.094 0-.11-.016c0-.016.047-.094.094-.126 0 0 .031-.031.078-.063l.142.134zm2.244-3.444h.016c-.125.149-.706.902-.784 1.726-.157-.141-.345-.314-.565-.455l.094-.228c.079.023.172.031.282.031.047 0 .11 0 .157-.008h.016s.016-.023.016-.055c-.016-.047-.063-.149-.251-.306.03-.046.58-.705 1.019-.705zm-1.867.173h.016c.894.549 1.035.769 1.051.839v.023c-.063.008-.109.008-.157.008-.392 0-.565-.18-.565-.18l-.016-.008c-.172.047-.298.031-.345-.04-.079-.079-.047-.22-.047-.22v-.016c-1.114-.737-1.004-1.624-1.004-1.624v-.023c-.016-.008-1.522-.157-1.883-.291-.345-.125-.565-1.208-.565-1.208v-.023c-.455-.392-.125-1.075-.125-1.083v-.023c-.016-.008-.031 0-.031 0-.188.306-.439.353-.581.353-.047 0-.063-.008-.063-.008h-.016s0 .008-.016.016c-.047.384-.564.776-.564.776-.016 0-.016.008-.016.008 0 .008-.109.283.11.635.063.11.063.142.047.157 0 0-.016.008-.031.008-.063 0-.188-.071-.188-.071h-.016c0 .008-.016.016 0 .023.016.055.063.228.031.306-.016.016-.031.023-.063.031h-.032c-.11 0-.11-.055-.11-.055v-.008c-.016-.008-.016-.008-.031-.008 0 .008-.016.008-.031.008-.094 0-.11-.094-.11-.094-.016-.008-.016-.016-.016-.016l-.016.008c-.094 0-.11-.086-.11-.086 0-.016-.016-.023-.016-.023-.047-.008-.063-.031-.079-.063-.063-.133.11-.392.11-.4.031-.941.518-1.239.533-1.239v-.016c.063-.353.534-.518.534-.518s.016-.008.016-.016c.047-.228.423-.337.423-.337s.016-.008.016-.023c0 0-.032-.157.486-.408l.031-.016c-.016.086-.016.306.361.564.424.306.313.785.313.792 0 .016-.047.337.455.714.455.33.518.4.534.408v.33c0 .008.016.008.016.016.627.031.957.274 1.177.518.206.207.583 1.587.583 1.603zm3.765-1.875a.433.433 0 01-.251-.18s0-.008-.016-.008c0 0-.361-.086-.534-.243-.172-.173-.941-.142-.973-.142-.016 0-.016.008-.016.016s-.016.596-.69 1.066c-.016.008-.016.016-.016.024s.016.008.016.008c.016 0 .69-.094 1.192.29.471.369.722.573.753.596l.471.832c-.094 0-.455-.023-.58-.494l-.016-.016c-.016 0-.016.008-.016.008-.016.039-.032.133-.079.133-.016.008-.047-.008-.125-.149-.173-.353-.612-.644-.612-.651h-.016s-.235.11-.486-.102c0 0 0-.008-.016-.008 0 .008-1.208.486-1.726.361h-.013l-.125.047c-.125-.432-.314-1.004-.439-1.138-.235-.243-.549-.494-1.177-.525l.079-.235.141-.196c.188-.157.172-.369.172-.416.22-.094.581-.243.941-.439.188-.102.393-.259.565-.423.063.07.581.706.439.925v.024s.361.211.518.541v.008c0 .008.016.008.016 0 .032-.008.706-.353.894-.675.079.008.549.055.8.251.267.196.502.188.549.188l.784.636c-.063.031-.236.125-.408.086z"/><g fill="#97887D"><path d="M40.426 79.862c.016.008.031.024.047.04.094.172-.518.863-.596.934 0 .008-.393.51-.298.996.079.4.141.542.157.573.188-.071.518-.212.941-.51.173-.118.314-.243.455-.361l-.251-.282v-.016s0-.008.016-.008c.533-.063.659-.212.659-.212h.079v.008c.125-.149.204-.251.204-.251 0-.008 0-.008.016-.008h.173s.016.008.016.016v.016s-.079.086-.173.212c.047-.008.141-.023.251-.149h.016s.079.031.126-.008c.063-.032.078-.118.063-.243-.016-.259-.063-.314-.079-.33h-.016c-.031-.008-.565-.079-.8-.157-.235-.079-.69-.055-.69-.055h-.016l-.016-.008v-.016a.3.3 0 00.063-.353 1.005 1.005 0 00-.347.172zM36.08 83.918l1.177 1.004.8.251-.439-.627-1.396-.91c-.031-.016-.079-.031-.11-.047.031.07.063.22.016.298-.001.015-.032.023-.048.031zM38.7 79.705c.047-.07.094-.11.094-.11.016-.008.22-.157.439-.157a.51.51 0 01.424.228c.125.172.172.33.141.471-.016.118-.094.18-.11.196a.748.748 0 01-.063.33l.016.008.455-.8c.016-.079-.016-.408-.219-.659-.157-.204-.377-.306-.659-.306-.737 0-.878.62-.895.683.189.038.362.109.377.116z"/><path d="M40.128 79.886l-.565.98-.251.196v.079l-.016.683.204.651s.079-.016.204-.063c-.031-.039-.078-.181-.157-.581-.094-.502.298-1.012.314-1.02.172-.204.643-.761.58-.894l-.047-.047c-.094-.062-.25.008-.266.016zM38.81 88.641c-.079-.063-.188-.133-.298-.204l-.282.361c.062.015.266.031.58-.157z"/><path d="M38.951 88.24h-.016c-.549-.165-.8-.729-.8-.737v-.016c.439-.321.345-.886.345-.886v-.024-.008c.22-.055.235-.635.235-.643 0-.008 0-.016.016-.016l.408-.008a.577.577 0 00.125.008c.549 0 1.099-.502 1.099-.51h.016c-.408-.518-.393-.989-.393-1.075-.172-.023-1.506-.165-1.851-.291-.031.008-.659.149-.878.243l.376.243v.008l.471.667c.016.008.016.016 0 .023h-.016l-.847-.267v-.008l-.502-.432c-.502.196-.737 1.004-.753 1.067.157 1.083 1.569 1.42 1.584 1.42 0 0 .016.008.016.016s.063.282-.094.761c-.047.142-.047.251 0 .314.078.086.251.063.251.063.298.039.564.141.769.251.282.157.471.329.518.376.032-.016.094-.016.204.102.125.118.502.086.596.07-.22-.58-.455-.745-.612-.776-.157-.036-.267.057-.267.065zM36.833 82.051h-.063a.709.709 0 01-.173.361c.157-.071.581-.274.722-.416.016-.078.031-.149.047-.204a.713.713 0 01-.533.259z"/><path d="M44.552 87.111s-.016-.008-.016-.016c0-.047-.031-.079-.063-.102-.063-.047-.157-.016-.157-.016h-.015v-.016c0-.04 0-.063-.016-.079 0-.016-.031-.016-.031-.016-.204.031-.251.69-.251.698l-.016.008-.612.423c-.016.008-.016.008-.016 0h-.016s-.031-.228-.109-.345c-.094-.126-.361-.573-.361-.573-.063-.133-.063-.212-.016-.251.079-.071.251.023.267.031.377.337.644.259.644.259.455-.157.502-.847.502-.91l-.313-.628-.235-.016h-.016l-.188-.463c-.267.165-.393.337-.376.494.031.251.408.408.408.408.016 0 .016 0 .016.008v.008c-.063.125-.376.11-.471.11 0 .055.031.094.063.125.125.078.314.039.314.039h.016v.016c0 .071.157.212.22.259.016 0 .016.008.016.008-.016.016-.063.188-.204.22-.11.024-.22-.039-.361-.188-.125-.149-.267-.228-.392-.228-.157 0-.251.094-.251.094a.364.364 0 00-.11.267c0 .282.33.565.33.565v.024l-.204.149c.063.063.094.11.094.11v.023c-.016.008-.016.008-.031-.008 0 0-.031-.047-.094-.125-.33-.4-1.506-1.663-2.903-1.129.204-.008.659.023.722.361.063 0 .251 0 .376.11a.343.343 0 01.094.251c.047 0 .157.016.235.094a.259.259 0 01.079.188.32.32 0 01.204.016c.047.023.078.063.094.125.047-.016.11-.023.204.016.094.047.157.149.204.298.063 0 .298.039.345.235.016.016.094.078.298.016.016-.008.016 0 .016 0 .016.016 0 .023 0 .031-.079.016-.125.031-.172.031-.11 0-.157-.055-.157-.055l-.016-.008c-.031-.204-.313-.22-.313-.22-.016 0-.016-.008-.032-.016 0-.023-.016-.047-.016-.071h-.016c0-.008-.376-.18-.612-.18l.125.094v.016c0 .008 0 .016-.016.016 0 0-.063.016-.141.016a.68.68 0 01-.393-.125l-.973.235c0 .008 0 0 0 0s-.204-.149-.471-.11c-.204.031-.376.157-.549.392.063.04.141.079.22.102a.37.37 0 01.298-.07c.063.016.11.047.173.094l.157-.078h.016v.01c0 .008.016.023.031.055.047.125.22.439.439.439h.016l.063-.251c0-.016 0-.016.016-.016l.016.008-.063.274v.008l-.078.306v.016c-.079.055-.141.133-.141.157 0 0 .016.031.157 0 .376-.094.753-.235.753-.235h.016l.016.008c0 .008.063.204.251.22.016-.031.031-.086 0-.118v-.016l.016-.016a.262.262 0 00.157 0s.079-.094-.047-.196c-.016-.008-.016-.016 0-.023 0 0 .047-.11 0-.157-.016-.032-.063-.047-.141-.04-.031.04-.282.275-.533.322-.094.016-.125 0-.141-.031-.031-.055.078-.157.094-.173 0 0 .047-.023.079-.063v-.008c.063-.071.141-.181.094-.322 0-.016 0-.023.016-.023l.016.008c.047.157-.031.274-.094.345l.157.149c.157-.094.298-.228.298-.228l.016-.008c.079-.008.141.008.173.047.047.055.016.149 0 .188.125.118.047.228.047.228l-.016.008c.235.063.455-.071.455-.071.016-.008.016-.008.031 0 .125.149.424 0 .424 0h.016c.157.079.298-.063.298-.063h.016c.172.055.282-.118.282-.125 0 0 .016-.008.016 0 .141.031.267-.063.298-.079-.047-.031-.078-.055-.078-.055v-.023c.016-.008.016-.008.031 0 0 0 .298.251.722.329.376.071.581-.267.627-.361-.047 0-.063-.016-.094-.047-.031-.04-.031-.094-.031-.125-.063 0-.11-.031-.125-.071-.031.196-.125.322-.125.322v.008c-.282.188-.737-.392-.753-.416v-.023c.016-.008.016-.008.031 0 0 .008.11.142.251.259.33-.149.847-1.145.847-1.161h.016l.251-.071c0-.039 0-.07-.016-.094-.039-.038-.102-.046-.102-.046z"/><path d="M43.924 82.749c-.251-.196-.722-.243-.8-.251-.188.322-.862.667-.894.675 0 .008-.016.008-.016 0v-.008c-.157-.33-.502-.541-.502-.541l-.016-.008V82.6c.141-.219-.376-.855-.439-.925a2.749 2.749 0 01-.565.423c-.361.196-.722.345-.941.439 0 .047.016.259-.172.416l-.141.196-.079.235c.627.031.941.282 1.177.525.125.133.314.706.439 1.138L41.1 85h.016c.518.125 1.726-.353 1.726-.361h.016c.251.22.486.11.486.11h.016c0 .008.439.298.612.651.078.141.109.157.125.149.047 0 .063-.094.079-.125 0 0 0-.016.016-.016l.016.016c.125.471.486.494.58.494l-.471-.832c-.031-.023-.282-.228-.753-.596-.502-.384-1.177-.29-1.192-.29 0 0-.016 0-.016-.008s0-.016.016-.024c.675-.471.69-1.059.69-1.066s0-.016.016-.016c.031 0 .8-.031.973.142.173.157.534.243.534.243.016 0 .016.008.016.008a.433.433 0 00.251.18c.172.039.345-.055.408-.086l-.784-.636c-.049 0-.285.008-.552-.188zM42.638 88.923a.273.273 0 01-.141 0c-.032.031-.173.133-.33.063-.047.023-.298.141-.439 0-.047.023-.188.094-.345.094-.047 0-.11-.016-.172-.031v-.008a.187.187 0 01-.094 0c.016.055-.016.133-.016.133 0 .008-.016.016-.016.016-.188-.016-.267-.172-.298-.228-.079.024-.408.149-.737.228-.063.008-.094.016-.125.016-.047 0-.063-.016-.079-.031-.016-.055.11-.157.157-.196l.047-.29c-.22 0-.392-.298-.471-.439l-.079.063c.126.141.251.353.377.651v.016l-.016.008c-.016 0-.126.016-.251.016-.141 0-.313-.016-.392-.094-.141-.125-.188-.094-.188-.094h-.016a.977.977 0 00-.172-.157c-.235.149-.408.18-.518.18a.367.367 0 01-.141-.023v-.008-.008l.047-.063-.675.086-.251.322-.016.008-.879.071-1.192-.032 2.086.33s.016.008.016.016c0 .016-.016.016-.016.016l-1.898-.086.471.392 7.17.008.533-.424-.941-.521zM37.304 80.224c.251.149.533.165.581.165.031-.039.204-.22.423-.345a.79.79 0 01.298-.118.628.628 0 01.079-.196c-.032 0-.549-.243-.8-.063h-.016s-.267-.125-.486-.055a.352.352 0 00-.235.212h-.016s-.424-.047-.534.243c.094-.001.47.015.706.157z"/><path d="M33.695 83c.063.039.157.039.33-.032l.016.008v.008s.047.243-.157.313c.031.071.188.353.643.275 0 0 .267-.063.502-.33.251-.267.596-.471.596-.471 0-.008 0 0 0 0 .125-.596.439-.839.486-.871.063-.353.486-.51.549-.542.063-.22.361-.33.439-.345 0-.055.032-.204.502-.439a1.39 1.39 0 01.455-.133l-.141-.039-.016.008v.008s-.267 0-.518-.125l-.016.008s-1.098-.133-1.568-.384c-.047.008-.393.094-.439.345-.016.008-.016.016-.016.016-.031 0-.518.063-.486.581v.016h-.031s-.283-.102-.487.063c-.172.125-.235.4-.188.8v.016h-.016c-.016 0-.361.008-.424.542-.016.07-.016.133-.031.196-.031.257-.062.445.016.508zM34.841 87.409v-.008-.016l.078-.008c-.031-.055-.125-.18-.125-.306 0-.008 0-.016.016-.016 0 0 .251-.047.376-.235a.457.457 0 00.032-.385c-.032-.031-.251-.329-.439-.525-.094-.102-.063-.172-.047-.212a.295.295 0 01.298-.063l.079.039c.22.11.737.376.926.204a1.812 1.812 0 01-.079-.298v-.008c0-.008.016-.023.016-.055-.079.008-.486.031-1.004-.298-.204-.133-.376-.165-.533-.094-.188.102-.267.369-.282.565-.031.345.298.832.298.839 0 0 .063.071.031.173-.016.094-.125.18-.298.243s-.282.157-.33.274c-.031.102 0 .196.032.228v.008c0 .008.047.141.22.172 0 0 .016.008.016.024l-.047.235.094.306.11-.031c0-.008 0-.008.016 0v.008c0 .008.016.274.157.337-.031-.086-.094-.345.047-.549l.016-.008s.282.055.392-.079c.059-.093.043-.25-.066-.461zM39.72 82.545c-.125.047-.188.071-.22.079a4.609 4.609 0 01-.047.447l.11-.141c.157-.142.157-.33.157-.385zM35.312 83.236c-.016.023-.016.086.141.259 0-.086.047-.181.078-.251-.078-.024-.204-.048-.219-.008zM39.438 80.066s.235.086.329.008c.016-.11-.031-.243-.141-.384a.442.442 0 00-.393-.212c-.22 0-.408.141-.423.141 0 0-.125.094-.173.298h.094c.377.032.707.149.707.149zM38.339 80.066c.078.243.157.33.188.353.11-.11.079-.235.079-.235a.509.509 0 010-.22.674.674 0 00-.267.102z"/><path d="M38.543 80.443v.008c-.047.023-.078.047-.125.078.047.063.267.345.565.439l.11-.079h.016s.016.016.063.016c.063 0 .157-.039.251-.228v-.008h.016s.047.032.078.032c.094 0 .142-.134.142-.377v-.016s.094-.055.109-.18v-.008c-.109.055-.329-.016-.345-.024 0 0-.33-.117-.706-.149h-.031c-.015 0-.032.008-.047.008a.542.542 0 000 .228c-.002.001.03.142-.096.26zM44.646 86.397v-.016l.094-.079c-.282-.031-.282-.047-.282-.055-.016-.008 0-.047.016-.102l-.204-.008.031.063v.008s0 .157-.047.329l.282.141-.016-.18v-.008l.016-.008.251.008-.141-.086v-.007zM40.489 88.734a.288.288 0 00-.094.126c.016.016.031.031.11.016a.766.766 0 00.204-.071l-.141-.133c-.048.031-.079.054-.079.062zM41.242 81.635c.361-.337.674-.729.753-.839h-.141a4.619 4.619 0 01-1.161 1.122c-.737.51-1.145.58-1.192.588h-.016c-.11 0-.188-.063-.22-.188-.094-.29-.063-.643-.063-.729l-.079.008c-.016.094-.079.659.125.902a.29.29 0 00.22.102h.016c.016-.008.596-.204 1.192-.533a2.88 2.88 0 00.566-.433z"/><path d="M39.218 82.522c-.22-.275-.125-.918-.125-.941 0-.016 0-.016.016-.016l.11-.016.016.008v.016s-.047.416.063.729c.031.11.078.157.172.172l-.204-.643v-.008l.016-.675-.298-.149c-.345-.102-.581-.439-.596-.471-.016 0-.094-.063-.251-.063-.141 0-.282.047-.455.117-.016.047-.047.275.345.542.455.322.33.824.33.824 0 .008-.047.33.439.683.439.313.518.4.534.423l.079.063c.016-.063.047-.243.063-.486a.337.337 0 01-.254-.109zM42.967 85.361h-.016c-.439 0-.988.659-1.02.706.188.157.235.259.251.306 0 .031-.016.047-.016.047s0 .008-.016.008c-.047.008-.109.008-.157.008-.11 0-.204-.008-.282-.031l-.094.228c.22.141.408.314.565.455.08-.824.66-1.577.785-1.727zM41.21 87.668l-.785-.612c-.69.22-1.098.134-1.129.071-.032-.039-.047-.22-.047-.243v-.008c.251-.29 0-.934-.016-.934-.031-.008-.063 0-.11-.008l-.376.008c0 .094-.031.565-.235.659.173.22.157.439.157.627a.879.879 0 000 .29.159.159 0 00.078.102c.125.047.33-.102.33-.11h.016c.314.165 1.051-.118 1.051-.118 0-.008.016-.008.016 0 .047.032.157.071.188.055.016 0 .016-.008.016-.016.031-.094.125-.11.157-.11h.016c.187.394.548.37.673.347z"/><path d="M39.328 83.416c0-.008-.016-.008-.016-.016v-.33c-.016-.008-.079-.078-.534-.408-.502-.376-.455-.698-.455-.714 0-.008.11-.486-.313-.792-.376-.259-.376-.479-.361-.564l-.031.016c-.518.251-.486.408-.486.408v.023c-.016 0-.393.11-.439.337v.016c-.016 0-.486.165-.549.518v.016c-.016 0-.502.298-.533 1.239 0 .008-.173.267-.11.4.016.032.031.055.079.063l.016.016s.016.094.11.094l.016-.008s0 .008.016.016c0 0 .016.094.11.094.016 0 .031 0 .031-.008.016 0 .016 0 .016.008 0 0 .016 0 .016.008 0 0 0 .055.11.055h.032a.128.128 0 00.063-.031c.031-.079-.016-.251-.031-.306-.016-.008 0-.016 0-.023h.016s.125.071.188.071a.075.075 0 00.031-.008c.016-.016.016-.047-.047-.157-.22-.353-.11-.627-.11-.635v-.008s.534-.392.581-.776l.016-.008c0-.008 0-.008.016-.008 0 0 .016.008.063.008.141 0 .393-.047.581-.345 0 0 .016-.016.031-.008v.023c0 .007-.33.69.125 1.083v.016s.22 1.09.565 1.216c.361.133 1.867.282 1.883.291v.008c0 .016-.11.902 1.004 1.639v.016s-.031.141.047.22c.047.071.172.086.345.04l.016.008s.173.18.565.18c.047 0 .094 0 .157-.008v-.023c-.016-.071-.157-.291-1.051-.839h-.016c0-.016-.377-1.396-.581-1.601-.225-.248-.555-.491-1.182-.522zM43.187 86.099c.125 0 .283-.016.33-.07 0-.008-.031-.016-.047-.023a1.35 1.35 0 01-.534-.141c.063.077.172.194.251.234z"/></g><path d="M39.296 91.66c-3.734 0-6.778-3.043-6.778-6.785s3.044-6.785 6.778-6.785c3.75 0 6.793 3.043 6.793 6.785s-3.043 6.785-6.793 6.785zm0-13.5a6.723 6.723 0 00-6.715 6.715c0 3.703 3.012 6.715 6.715 6.715s6.715-3.012 6.715-6.715a6.723 6.723 0 00-6.715-6.715z" fill="#97887D"/><path d="M31.044 86.366l.596-.094-.047-.274a.176.176 0 00-.063-.133c-.031-.024-.094-.032-.173-.032v-.039l.502-.086.016.047c-.063.008-.11.023-.125.047a.165.165 0 00-.063.063v.125l.047.267.471-.071c.078-.016.125-.023.157-.039.016-.016.031-.031.031-.055.016-.039.016-.07.016-.109l-.016-.055h.047l.109.643-.047.008-.016-.055a.147.147 0 00-.063-.125c-.032-.016-.095-.016-.188 0l-.973.157c-.079.016-.125.023-.142.04-.016.008-.031.023-.047.055s-.016.063-.016.102l.016.055-.047.008-.173-1.122.33-.071v.04a.535.535 0 00-.141.094.286.286 0 00-.063.102c0 .04 0 .102.016.181l.049.326zM30.855 83.84a.698.698 0 01.298-.486.783.783 0 01.581-.157.802.802 0 01.549.298.64.64 0 01.157.549.652.652 0 01-.283.502c-.157.125-.361.172-.596.141a.733.733 0 01-.564-.314.8.8 0 01-.142-.533zm.079.031a.446.446 0 00.11.345c.125.11.298.188.533.22.251.031.455 0 .596-.094a.386.386 0 00.188-.298c.016-.149-.016-.274-.125-.376-.094-.11-.267-.172-.502-.204-.267-.032-.455 0-.596.078a.448.448 0 00-.204.329zM33.287 81.329l-.172.369-.863.18c-.016.04-.031.063-.031.094 0 0-.016.016-.016.023s-.016.023-.016.032l.408.18c.079.039.141.055.172.047a.14.14 0 00.094-.094l.031-.063.032.016-.267.604-.031-.016.016-.055c.032-.063.032-.11 0-.157a.66.66 0 00-.141-.086l-.895-.4c-.094-.039-.157-.055-.188-.047a.242.242 0 00-.094.102l-.016.055-.047-.023.235-.51c.063-.141.125-.251.172-.314a.441.441 0 01.204-.125.35.35 0 01.235.023c.094.04.157.102.188.181a.545.545 0 01.016.322l.534-.11a.712.712 0 00.251-.086.303.303 0 00.141-.157l.048.015zm-1.161.667c0-.008.016-.023.016-.031s0-.016.016-.023c.047-.133.063-.251.047-.345a.332.332 0 00-.188-.196.277.277 0 00-.235-.008c-.094.024-.141.086-.188.173a1.734 1.734 0 00-.047.172l.579.258zM36.049 76.992l.251.416-.031.016a.732.732 0 00-.267-.172.454.454 0 00-.361.039c-.172.086-.282.22-.298.4a.891.891 0 00.094.479.865.865 0 00.251.322.632.632 0 00.314.141c.11 0 .204-.016.283-.055a.558.558 0 00.251-.211l-.188-.4c-.047-.071-.063-.11-.094-.125a.102.102 0 00-.063-.023.226.226 0 00-.125.039l-.016-.039.518-.267.031.04-.031.016c-.047.023-.079.063-.079.102 0 .032.016.086.047.157l.204.423a.886.886 0 01-.172.204c-.079.063-.157.11-.235.157-.267.126-.518.142-.737.047a.747.747 0 01-.376-.369.818.818 0 01-.079-.393c0-.165.047-.306.125-.439a.815.815 0 01.314-.267c.047-.023.094-.039.141-.055a.925.925 0 01.204-.031c.047 0 .079-.016.094-.016 0-.008.016-.016.016-.031 0-.016 0-.047-.016-.079l.03-.026zM38.261 77.494l-.581.102-.063.251c-.016.063-.016.11-.016.141.016.023.016.039.047.055a.369.369 0 00.141.008l.016.047-.471.078-.016-.047c.063-.016.094-.039.11-.063.047-.04.063-.118.094-.235l.33-1.334.031-.008.737 1.169c.063.094.11.157.157.173.032.031.079.031.142.031l.016.039-.596.102-.016-.047c.063-.008.11-.024.126-.047.016-.016.016-.047.016-.063 0-.031-.031-.086-.063-.149l-.141-.203zm-.031-.079l-.361-.565-.157.651.518-.086zM40.661 77.619l.047.008-.172.4-1.192-.118.016-.047.047.016c.063 0 .125-.016.157-.055a.328.328 0 00.031-.165l.094-.98c.016-.094.016-.157 0-.181a.165.165 0 00-.125-.063l-.063-.008v-.039l.69.07v.039c-.078-.008-.141-.008-.172.008-.032.008-.063.024-.079.055-.016.016-.016.079-.031.165l-.094.957c-.016.063 0 .102 0 .134.016.016.016.031.047.031.016.016.063.023.172.031l.11.016c.11.008.204.008.251 0a.264.264 0 00.125-.078.85.85 0 00.141-.196zM42.497 78.215l.031.023-.283.337-1.098-.416.016-.047.047.023c.063.023.11.023.157-.008a.45.45 0 00.078-.149l.346-.926c.047-.086.047-.149.047-.18-.016-.04-.063-.071-.11-.094l-.047-.016v-.04l.659.243-.016.047a.552.552 0 00-.173-.047c-.031.008-.063.016-.078.032a.66.66 0 00-.079.157l-.345.902c-.016.055-.031.102-.031.125 0 .016.016.032.031.047s.063.039.157.071l.109.047c.11.039.188.063.235.063s.11-.016.157-.047a.911.911 0 00.19-.147zM43.814 78.953l-.486-.345-.22.133c-.047.032-.094.063-.109.086s-.016.039 0 .07c0 .024.031.063.094.11l-.031.032-.392-.283.031-.031c.063.031.094.047.125.039a.82.82 0 00.235-.102l1.161-.713.031.023-.298 1.349c-.032.11-.032.181-.032.228a.331.331 0 00.094.125l-.031.039-.485-.361.031-.031a.277.277 0 00.11.047c.031 0 .047-.016.063-.031.016-.031.047-.078.063-.157l.046-.227zm.032-.087l.141-.659-.581.345.44.314zM45.462 79.007l.251.33-.329 1.436.69-.541a.427.427 0 00.125-.125.26.26 0 00-.047-.142l-.031-.039.031-.023.329.423-.031.016-.031-.039c-.047-.047-.094-.07-.141-.07-.031 0-.079.031-.141.078l-1.02.792-.031-.031.361-1.553-.737.58c-.079.055-.125.102-.125.134-.016.039 0 .078.047.125l.032.047-.032.023-.331-.416.032-.031.031.047c.047.047.079.079.141.07.016 0 .063-.023.141-.078l.832-.651c.016-.07.031-.118.031-.141 0-.031-.016-.07-.031-.11-.016-.023-.031-.055-.047-.086l.031-.025zM47.407 82.357l-.329.149-.016-.04c.063-.031.094-.055.109-.086.032-.032.063-.079.063-.118 0-.047 0-.094-.031-.157l-.079-.196-1.083.423c-.094.04-.141.071-.157.094a.212.212 0 000 .141l.031.047-.047.016-.235-.596.031-.016.031.047c.016.063.047.094.094.11a.402.402 0 00.172-.047l1.083-.424-.063-.173c-.032-.063-.047-.109-.079-.133a.197.197 0 00-.11-.063.427.427 0 00-.172.008l-.016-.031.345-.118.458 1.163zM46.278 84.961l-.047-.4.659-.588v-.094-.031c-.016-.008-.016-.023-.016-.039l-.439.047c-.094.008-.157.023-.172.047a.131.131 0 00-.032.133v.063l-.047.008-.063-.659h.047v.055c.016.063.031.11.079.133.031.016.078.016.172 0l.988-.094c.094-.008.142-.023.173-.047.031-.031.031-.079.031-.141v-.055h.031l.063.557c.016.157.016.282 0 .361a.375.375 0 01-.33.306.33.33 0 01-.251-.07c-.079-.047-.141-.141-.173-.267l-.408.361a.819.819 0 00-.188.204c-.032.055-.032.125-.032.212h-.045v-.002zm.674-1.153v.062a.531.531 0 00.126.314c.078.07.157.094.251.086a.368.368 0 00.235-.11.417.417 0 00.063-.243c-.016-.047-.016-.109-.047-.172l-.628.063zM47.564 86.695l-.094.533-.047-.016.016-.023c0-.023 0-.055-.016-.086 0-.047-.031-.079-.047-.118a1.155 1.155 0 00-.141-.141l-.502-.471-.376-.071c-.094-.016-.157-.016-.173 0-.047.016-.063.063-.078.125l-.016.047-.031-.008.11-.636h.047l-.016.055c0 .063 0 .118.047.149.016.016.063.039.157.055l.345.063.706-.29a.67.67 0 00.157-.079.269.269 0 00.094-.094c.016-.016.016-.031.016-.063l.047.008-.125.643-.031-.008v-.031c.016-.031 0-.071 0-.102-.016-.031-.031-.055-.063-.055-.032-.008-.079.008-.157.04l-.549.228.408.376c.063.063.11.094.141.094.016.008.047 0 .063 0 .016-.016.031-.024.047-.047.016-.016.016-.047.032-.078l.029.001z"/><path d="M39.296 93.809c-4.926 0-8.927-4.008-8.927-8.935 0-4.927 4.001-8.935 8.927-8.935 4.926 0 8.942 4.008 8.942 8.935 0 4.927-4.015 8.935-8.942 8.935zm0-17.798c-4.895 0-8.864 3.978-8.864 8.864 0 4.887 3.969 8.864 8.864 8.864s8.864-3.977 8.864-8.864c0-4.887-3.969-8.864-8.864-8.864z" fill="#97887D"/><path d="M49.682 79.141a5.385 5.385 0 00-4.644-4.644V62.102H33.57v12.395c-2.416.306-4.346 2.228-4.644 4.644H16.532V90.61h12.394c.298 2.416 2.228 4.338 4.644 4.644v12.387h11.468V95.253a5.384 5.384 0 004.644-4.644h12.379V79.141H49.682zm11.626 10.943h-12.19c-.109 2.486-2.118 4.495-4.612 4.612v12.183H34.087V94.696a4.843 4.843 0 01-4.612-4.612h-12.19V79.666h12.19a4.838 4.838 0 014.612-4.613v-12.19h10.417v12.19a4.837 4.837 0 014.612 4.613h12.19v10.418h.002z" fill="#E42031"/><g><path d="M48.051 78.733c-.534.526-1.553.376-2.275-.337-.722-.722-.863-1.733-.33-2.267.533-.533 1.538-.384 2.259.337.721.721.863 1.734.346 2.267z" fill="#96887D"/><path d="M47.094 76.842l.204.204-1.255.612-.22-.212.612-1.255.204.204-.376.729c-.032.047-.047.094-.079.141-.047.063-.063.094-.078.118.047-.039.125-.086.251-.165l.737-.376zM46.654 78.286l.941-.941.204.204-.941.934-.204-.197z" fill="#CCCBCB"/></g><g><path d="M45.446 93.622c-.533-.534-.392-1.546.33-2.268.722-.722 1.741-.871 2.275-.337.518.533.376 1.545-.345 2.267-.722.714-1.726.863-2.26.338z" fill="#96887D"/><path d="M47.329 92.673l-.204.195-.612-1.247.22-.22 1.239.612-.188.204-.738-.377c-.047-.031-.094-.055-.141-.086-.063-.039-.094-.055-.11-.07.032.039.079.125.157.251l.377.738zM45.886 92.233l.941.941-.204.196-.926-.934.189-.203z" fill="#CCCBCB"/></g><g><path d="M30.558 91.017c.533-.534 1.538-.385 2.259.337.721.722.863 1.733.33 2.268-.518.525-1.538.376-2.26-.338-.722-.722-.863-1.733-.329-2.267z" fill="#96887D"/><path d="M31.499 92.908l-.204-.204 1.255-.62.22.22-.612 1.247-.204-.196.376-.729c.032-.048.047-.095.095-.149.031-.055.047-.087.063-.11a1.7 1.7 0 01-.251.157l-.738.384zM31.938 91.465l-.941.941-.188-.204.926-.934.203.197z" fill="#CCCBCB"/></g><g><path d="M33.147 76.128c.533.534.392 1.545-.33 2.267-.722.714-1.726.863-2.259.337-.534-.533-.393-1.545.329-2.267s1.741-.87 2.26-.337z" fill="#96887D"/><path d="M31.264 77.078l.204-.196.611 1.247-.204.22-1.255-.62.204-.196.722.376c.047.023.094.055.141.086.063.031.094.055.125.071-.047-.047-.094-.126-.172-.251l-.376-.737zM32.707 77.509l-.941-.934.204-.196.941.933-.204.197z" fill="#CCCBCB"/></g><path d="M39.861 92.5h-.346v-.345c0-.048-.047-.095-.094-.095h-.25c-.047 0-.094.047-.094.095v.345h-.346a.101.101 0 00-.094.094v.251c0 .048.047.095.094.095h.345v.337c0 .055.047.095.094.095h.251c.047 0 .094-.04.094-.095v-.337h.346c.047 0 .094-.047.094-.095v-.251a.101.101 0 00-.094-.094zM43.924 91.433a.458.458 0 01-.471.455.455.455 0 01-.455-.455.463.463 0 11.926 0zM35.594 91.433c0 .252-.204.455-.455.455s-.471-.203-.471-.455c0-.259.22-.47.471-.47s.455.211.455.47z"/></svg>