<svg xmlns="http://www.w3.org/2000/svg" viewBox="2.84 48.38 277.79 186.71"><path fill="#D6D4D1" d="M2.835 48.375h277.794v186.714H2.835z"/><path fill="#D1132B" d="M5.142 50.666h273.252v182.156H5.142z"/><path fill="#007D3A" d="M50.687 90.507H232.85v102.465H50.687z"/><path d="M163.647 177.627c-17.195-3.265-29.683-18.35-29.683-35.881 0-17.524 12.488-32.617 29.683-35.88.109-.016.188-.118.188-.235a.235.235 0 00-.188-.228 37.233 37.233 0 00-6.936-.659c-20.412 0-37.008 16.599-37.008 37.002 0 20.402 16.599 37.003 37.008 37.003 2.291 0 4.629-.221 6.936-.65a.244.244 0 00.188-.236.24.24 0 00-.188-.236z" fill="#FFF"/></svg>