<svg xmlns="http://www.w3.org/2000/svg" viewBox="2.84 48.38 277.79 186.71"><path fill="#D6D4D1" d="M2.835 48.375h277.794v186.714H2.835z"/><path d="M5.095 50.536h273.253v61.485H5.095z"/><path fill="#289D2D" d="M5.095 171.232h273.253v61.478H5.095z"/><path fill="#CD0E26" d="M5.11 112.028h273.253v59.204H5.11z"/><g fill="#CC0826"><path d="M141.73 59.651c-1.036 0-1.883 1.757-1.883 3.93 0 0 .063 6.283 1.883 13.461 1.804-7.178 1.866-13.461 1.866-13.461 0-2.173-.831-3.93-1.866-3.93zM147.079 59.879c-1.02-.086-2.009 1.592-2.195 3.757 0 0-.504 6.268.689 13.571 2.432-6.989 3.027-13.241 3.027-13.241.205-2.166-.486-3.993-1.521-4.087zM152.397 60.585c-1.004-.181-2.148 1.404-2.51 3.545 0 0-1.036 6.197-.504 13.579 3.029-6.747 4.188-12.928 4.188-12.928.379-2.141-.154-4.016-1.174-4.196zM157.653 61.745c-1.004-.267-2.275 1.216-2.824 3.311 0 0-1.584 6.087-1.679 13.484 3.608-6.456 5.287-12.512 5.287-12.512.565-2.093.205-4.016-.784-4.283zM162.768 63.361c-.973-.353-2.369 1.012-3.105 3.051 0 0-2.086 5.923-2.841 13.289 4.158-6.119 6.354-12.01 6.354-12.01.753-2.039.564-3.976-.408-4.33zM167.726 65.417c-.94-.439-2.447.8-3.356 2.769 0 0-2.604 5.719-3.986 12.99 4.678-5.734 7.375-11.406 7.375-11.406.924-1.969.908-3.922-.033-4.353zM172.495 67.896c-.91-.518-2.511.588-3.593 2.463 0 0-3.091 5.476-5.099 12.598 5.146-5.311 8.346-10.723 8.346-10.723 1.083-1.882 1.241-3.829.346-4.338zM177.014 70.775c-.848-.588-2.542.369-3.781 2.149 0 0-3.563 5.177-6.197 12.096 5.616-4.833 9.258-9.947 9.258-9.947 1.253-1.78 1.566-3.701.72-4.298zM181.28 74.046c-.8-.667-2.572.141-3.969 1.804 0 0-4.001 4.856-7.217 11.516 6.009-4.33 10.088-9.107 10.088-9.107 1.397-1.664 1.883-3.546 1.098-4.213zM185.234 77.67c-.737-.729-2.573-.078-4.095 1.459 0 0-4.409 4.479-8.205 10.841 6.354-3.789 10.841-8.197 10.841-8.197 1.538-1.53 2.181-3.374 1.459-4.103zM188.858 81.631c-.658-.792-2.559-.306-4.221 1.09 0 0-4.77 4.087-9.1 10.088 6.668-3.224 11.516-7.217 11.516-7.217 1.664-1.396 2.481-3.169 1.805-3.961zM192.138 85.891c-.612-.847-2.526-.525-4.3.722 0 0-5.131 3.647-9.946 9.248 6.919-2.627 12.097-6.181 12.097-6.181 1.771-1.248 2.728-2.942 2.149-3.789zM195.008 90.417c-.519-.895-2.463-.746-4.329.345 0 0-5.429 3.193-10.731 8.347 7.122-2.016 12.598-5.106 12.598-5.106 1.882-1.084 2.98-2.69 2.462-3.586zM197.487 95.179c-.439-.941-2.385-.957-4.346-.039 0 0-5.68 2.714-11.406 7.389 7.266-1.389 12.99-3.992 12.99-3.992 1.963-.919 3.201-2.416 2.762-3.358zM199.542 100.136c-.358-.973-2.289-1.152-4.33-.415 0 0-5.883 2.204-12.018 6.369 7.374-.753 13.305-2.848 13.305-2.848 2.023-.744 3.404-2.133 3.043-3.106zM136.363 59.879c-1.035.094-1.726 1.922-1.521 4.087 0 0 .596 6.252 3.027 13.241 1.177-7.303.69-13.571.69-13.571-.187-2.165-1.176-3.844-2.196-3.757zM131.029 60.585c-1.004.18-1.538 2.055-1.161 4.197 0 0 1.146 6.181 4.189 12.928.549-7.382-.486-13.579-.486-13.579-.392-2.143-1.522-3.727-2.542-3.546zM125.789 61.745c-.988.267-1.35 2.189-.784 4.283 0 0 1.679 6.056 5.287 12.512-.095-7.397-1.663-13.484-1.663-13.484-.581-2.094-1.836-3.577-2.84-3.311zM120.675 63.361c-.973.353-1.161 2.291-.408 4.33 0 0 2.196 5.891 6.354 12.01-.753-7.366-2.839-13.289-2.839-13.289-.754-2.038-2.135-3.404-3.107-3.051zM115.717 65.417c-.941.432-.957 2.385-.031 4.354 0 0 2.698 5.672 7.374 11.406-1.381-7.271-3.985-12.99-3.985-12.99-.927-1.97-2.432-3.208-3.358-2.77zM110.947 67.896c-.895.51-.737 2.455.346 4.338 0 0 3.2 5.413 8.361 10.723-2.023-7.123-5.114-12.598-5.114-12.598-1.082-1.875-2.698-2.981-3.593-2.463zM106.429 70.775c-.847.596-.533 2.518.722 4.299 0 0 3.655 5.114 9.257 9.947-2.636-6.919-6.197-12.096-6.197-12.096-1.24-1.781-2.935-2.738-3.782-2.15zM102.161 74.046c-.784.667-.298 2.549 1.099 4.212 0 0 4.079 4.777 10.088 9.107-3.216-6.66-7.217-11.516-7.217-11.516-1.397-1.661-3.169-2.47-3.97-1.803zM98.208 77.67c-.737.729-.078 2.573 1.459 4.103 0 0 4.487 4.408 10.841 8.197-3.796-6.362-8.189-10.841-8.189-10.841-1.538-1.538-3.374-2.189-4.111-1.459zM94.584 81.631c-.675.792.142 2.565 1.804 3.961 0 0 4.849 3.993 11.516 7.217-4.33-6.001-9.1-10.088-9.1-10.088-1.678-1.396-3.561-1.882-4.22-1.09zM91.32 85.891c-.596.847.361 2.542 2.134 3.789 0 0 5.193 3.554 12.112 6.181-4.849-5.601-9.963-9.256-9.963-9.256-1.772-1.24-3.702-1.561-4.283-.714zM88.434 90.417c-.518.895.581 2.502 2.464 3.585 0 0 5.475 3.099 12.598 5.106-5.303-5.153-10.731-8.347-10.731-8.347-1.883-1.089-3.814-1.238-4.331-.344zM85.955 95.179c-.439.934.8 2.439 2.761 3.357 0 0 5.727 2.604 12.991 3.992-5.727-4.674-11.406-7.388-11.406-7.388-1.961-.918-3.922-.903-4.346.039zM83.899 100.136c-.36.973 1.004 2.361 3.06 3.106 0 0 5.915 2.095 13.272 2.84-6.118-4.157-12.002-6.361-12.002-6.361-2.039-.737-3.984-.557-4.33.415zM199.433 107.463c1.192-.636 1.93-1.482 1.726-2.204-.267-1.004-2.181-1.357-4.283-.793 0 0-3.467.965-7.953 2.997h10.51zM84.01 107.463h10.512c-4.487-2.032-7.954-2.997-7.954-2.997-2.103-.564-4.017-.203-4.284.793-.188.714.533 1.568 1.726 2.204zM141.73 81.051c-17.353 0-32.131 11.006-37.732 26.412h75.448c-5.602-15.406-20.381-26.412-37.716-26.412z"/></g></svg>