<svg xmlns="http://www.w3.org/2000/svg" viewBox="2.83 48.38 277.8 186.72"><path fill="#D6D4D1" d="M2.833 48.375H280.63v186.716H2.833z"/><path fill="#FFF" d="M5.164 219.801h273.231v13.014H5.164zM5.164 193.78h273.231v13.016H5.164zM5.164 167.76h273.231v13.015H5.164z"/><path fill="#CB0F1D" d="M5.164 206.788h273.231v13.014H5.164zM5.164 180.767h273.231v13.014H5.164zM5.164 154.738h273.231v13.021H5.164z"/><path fill="#FFF" d="M141.784 141.739h136.611v13.006H141.784zM141.784 115.711h136.611v13.014H141.784z"/><path fill="#CB0F1D" d="M141.784 102.697h136.611v13.014H141.784z"/><path fill="#FFF" d="M141.784 89.69h136.611v13.015H141.784z"/><path fill="#CB0F1D" d="M141.784 76.686h136.611v13.006H141.784z"/><path fill="#FFF" d="M141.784 63.671h136.611v13.014H141.784z"/><path fill="#CB0F1D" d="M141.784 50.657h136.611v13.014H141.784z"/><g fill="#FECB09"><path d="M77.725 130.756a29.744 29.744 0 01-9.711 1.624c-16.363 0-29.667-13.272-29.667-29.581S51.65 73.217 68.014 73.217c3.546 0 7.013.612 10.308 1.828a.363.363 0 00.455-.18c.094-.165.031-.369-.125-.479a34.174 34.174 0 00-19.156-5.836c-18.889 0-34.264 15.32-34.264 34.155 0 18.834 15.375 34.154 34.264 34.154a34.296 34.296 0 0018.56-5.437.378.378 0 00.125-.479.37.37 0 00-.456-.187z"/><path d="M121.451 108.674l-14.042-5.945 14.058-5.899a.359.359 0 00.22-.424c-.031-.181-.173-.282-.377-.29l-15.313.588 10.041-11.264a.368.368 0 00.016-.479.356.356 0 00-.455-.102l-13.539 7.013 4.032-14.41a.37.37 0 00-.188-.431.38.38 0 00-.471.11L96.349 89.19l-2.761-14.7c-.048-.181-.188-.306-.377-.306a.367.367 0 00-.36.298l-2.824 14.7-9.038-12.08a.384.384 0 00-.471-.11.37.37 0 00-.188.431l3.985 14.418-13.508-7.051a.385.385 0 00-.471.102.369.369 0 00.016.479l10.009 11.296-15.312-.635a.393.393 0 00-.377.29.396.396 0 00.22.424l14.042 5.938-14.057 5.907a.355.355 0 00-.22.424.343.343 0 00.376.29l15.313-.588-10.057 11.263a.379.379 0 00-.016.471.37.37 0 00.471.102l13.54-7.005-4.033 14.402a.38.38 0 00.188.439.39.39 0 00.471-.11l9.069-12.057 2.776 14.708a.373.373 0 00.377.298.367.367 0 00.36-.298l2.824-14.692 9.037 12.072a.378.378 0 00.471.118.382.382 0 00.188-.439l-3.984-14.418 13.508 7.052a.34.34 0 00.188.047c.204.032.377-.164.377-.376a.359.359 0 00-.173-.313l-9.947-11.226 15.313.635a.38.38 0 00.377-.29c.031-.183-.063-.363-.22-.426z"/></g><path d="M5.164 50.666v104.072h136.62V50.666H5.164zm72.891 80.757a34.296 34.296 0 01-18.56 5.437c-18.889 0-34.264-15.32-34.264-34.154 0-18.835 15.375-34.155 34.264-34.155a34.177 34.177 0 0119.156 5.836c.157.11.22.314.125.479a.363.363 0 01-.455.18 29.663 29.663 0 00-10.308-1.828c-16.363 0-29.667 13.273-29.667 29.582s13.304 29.581 29.667 29.581c3.326 0 6.589-.549 9.711-1.624a.368.368 0 01.455.188.376.376 0 01-.124.478zm43.396-22.749a.385.385 0 01.22.424.379.379 0 01-.377.29l-15.313-.635 9.947 11.226c.109.07.173.18.173.313 0 .212-.173.408-.377.376a.336.336 0 01-.188-.047l-13.508-7.052 3.984 14.418a.38.38 0 01-.188.439.378.378 0 01-.471-.118l-9.037-12.072-2.824 14.692a.368.368 0 01-.36.298.374.374 0 01-.377-.298l-2.776-14.708-9.069 12.057a.389.389 0 01-.471.11.381.381 0 01-.188-.439l4.033-14.402-13.54 7.005a.368.368 0 01-.471-.102.378.378 0 01.016-.471l10.057-11.265-15.313.588a.342.342 0 01-.376-.29.355.355 0 01.22-.424l14.057-5.907-14.042-5.938a.396.396 0 01-.22-.424.393.393 0 01.377-.29l15.312.635-10.009-11.294a.37.37 0 01-.016-.479.387.387 0 01.471-.102l13.508 7.052-3.985-14.418a.37.37 0 01.188-.431.383.383 0 01.471.11l9.038 12.08 2.824-14.7a.368.368 0 01.36-.298c.188 0 .329.125.377.306l2.761 14.7 9.084-12.049a.38.38 0 01.471-.11.37.37 0 01.188.431l-4.032 14.41 13.539-7.013a.356.356 0 01.455.102c.11.141.11.345-.016.479l-10.041 11.264 15.313-.588c.204.008.346.109.377.29a.359.359 0 01-.22.424l-14.058 5.899 14.042 5.946z" fill="#12225F"/><path fill="#CB0F1D" d="M141.784 128.726v13.013h136.611v-13.013z"/></svg>