<svg xmlns="http://www.w3.org/2000/svg" viewBox="2.84 48.38 277.79 186.71"><path fill="#D6D4D1" d="M2.835 48.376h277.793v186.712H2.835z"/><path fill="#FFF" d="M5.087 109.343h273.235v5.695H5.087z"/><path fill="#007168" d="M278.337 109.343V50.714H5.087l87.951 58.629z"/><path fill="#FFF" d="M5.087 168.543h273.235v5.703H5.087z"/><path d="M101.619 168.543h176.735v-53.505H101.588l40.147 26.756z"/><path fill="#FCE106" d="M93.069 174.247L5.118 232.891h273.219v-58.644z"/><path fill="#D11234" d="M5.118 50.722V232.891l136.617-91.097z"/><path d="M37.641 149.483l-8.001 24.639a.17.17 0 00.079.143c.047.047.125.047.157 0l20.96-15.22 20.945 15.22c.047.03.063.03.078.03s.079 0 .11-.03c.047-.03.047-.078.047-.143l-8.017-24.639 20.929-15.227c.063-.039.063-.094.063-.156-.047-.055-.078-.094-.142-.094h-25.87l-8.019-24.632c-.031-.117-.22-.117-.267 0l-8.001 24.632H16.838c-.095 0-.142.039-.157.094 0 .063 0 .117.063.156l20.897 15.227z" fill="#FCE106"/><path d="M66.461 140.43l-1.694-1.805c-.094-.078-2.306-1.702-8.331-1.702-1.616 0-3.389.126-5.271.361-1.867-.235-3.64-.361-5.271-.361-6.024 0-8.221 1.624-8.347 1.718l-1.632 1.719-4.659 15.264 1.992 2.196.11-.031c2.589-.769 5.554-1.191 8.378-1.191 2.855 0 5.208.432 6.134 1.13 1.836 1.373 3.248 1.42 3.295 1.42h.016c.047 0 1.459-.047 3.294-1.42.926-.698 3.279-1.13 6.134-1.13 2.824 0 5.79.424 8.378 1.191l.11.031 1.993-2.196-4.629-15.194zm4.079 14.738c-.439-.251-1.287-.666-2.479-1.082l-3.09-14.692 1.145 1.193 4.424 14.581zm-6.056-16.284l3.153 15.062c-3.31-1.051-8.974-1.875-16.269.832v-17.125a40.634 40.634 0 015.067-.345c5.476 0 7.751 1.389 8.049 1.576zm-13.508-1.231v17.125c-7.295-2.707-12.959-1.883-16.27-.832l3.154-15.062c.361-.228 2.651-1.576 8.033-1.576 1.569 0 3.279.117 5.083.345zm-14.747 2.934l1.146-1.201-3.091 14.7c-1.208.416-2.055.84-2.495 1.082l4.44-14.581zm-2.872 16.795l-1.584-1.759c.973-.588 8.111-4.511 18.968-.524-.581.273-1.898.988-2.84 2.196-1.098-.668-3.404-1.082-6.166-1.082-2.808 0-5.789.414-8.378 1.169zm17.808 1.38c-.079-.008-1.318-.086-2.95-1.255 1.146-1.421 2.871-2.143 2.95-2.174.094.031 1.82.753 2.949 2.174-1.616 1.169-2.856 1.247-2.949 1.255zm17.822-1.38c-2.604-.755-5.569-1.169-8.378-1.169-2.761 0-5.067.414-6.166 1.081-.941-1.207-2.259-1.922-2.855-2.195 10.873-3.985 18.011-.063 18.984.524l-1.585 1.759z"/><g fill="#FFF"><path d="M33.357 157.382c2.589-.755 5.57-1.169 8.378-1.169 2.761 0 5.067.414 6.166 1.081.941-1.207 2.259-1.922 2.84-2.195-10.856-3.985-17.995-.063-18.968.524l1.584 1.759zM54.114 157.507c-1.129-1.42-2.855-2.143-2.949-2.174-.079.031-1.804.754-2.95 2.174 1.632 1.169 2.871 1.247 2.95 1.255.093-.008 1.333-.086 2.949-1.255z"/><path d="M50.976 154.778v-17.125a40.88 40.88 0 00-5.083-.345c-5.46 0-7.75 1.389-8.033 1.576l-3.154 15.062c3.311-1.051 8.975-1.875 16.27.832zM31.789 155.168c.439-.251 1.287-.666 2.495-1.082l3.091-14.692-1.146 1.193-4.44 14.581zM60.609 156.213c2.809 0 5.773.414 8.378 1.169l1.585-1.759c-.973-.588-8.111-4.511-18.984-.524.596.273 1.914.988 2.855 2.196 1.099-.668 3.405-1.082 6.166-1.082z"/><path d="M56.436 137.308c-1.553 0-3.279.117-5.067.345v17.125c7.295-2.707 12.959-1.883 16.269-.832l-3.153-15.062c-.361-.227-2.652-1.576-8.049-1.576zM70.54 155.168l-4.424-14.582-1.145-1.201 3.09 14.7c1.192.417 2.04.841 2.479 1.083z"/></g><path d="M56.499 133.66l2.354-2.023c.172.055 1.177.377 1.443 1.23.016.023.031.039.047.039.016.01.031.01.063-.008l7.029-5.827c.094.055.345.181.659.181.282 0 .533-.103.737-.298.612-.573 11.484-11.265 11.594-11.375a.083.083 0 000-.086c-.031-.023-.063-.031-.094-.008l-12.833 8.919-.173-.109c.11-.188.408-.793-.125-1.248a.65.65 0 00-.408-.156c-.502 0-.973.525-1.083.658-.204-.047-1.224-.313-2.165-1.42-.016-.016-.047-.023-.063-.016-.031.008-.047.032-.047.056l-.236 2.228-3.06 2.816-2.463-.071c-.016 0-.031 0-.047.017l-3.593 3.529c0 .008-.016.008-.016.016s-.11.195-.204.486l-.408-.51c0-.016-.016-.023-.031-.023-.016-.008-.047 0-.063.016l-2.149 2.055-5.773-6.494.313-1.146c0-.023 0-.047-.016-.063l-3.844-4.26c-.016-.008-.016-.016-.031-.016-.581-.228-1.114-.338-1.601-.338-2.274 0-2.683 2.558-2.729 2.84-.188.173-.549.259-1.067.259-.847 0-1.82-.251-1.835-.251-.016-.008-.016-.008-.032 0l-1.709.338s-.016.008-.032.023l-8.786 12.534a.07.07 0 000 .078l4.974 6.095c.016.017.031.023.047.023.032 0 .047-.008.063-.023l10.135-12.753c0-.016 0-.024.016-.04l.298-3.059 1.726 1.953c0 .008.016.016.032.016.298.078.596.117.878.117.627 0 1.004-.188 1.129-.259l5.648 6.252-.848.808c-.016.023-.016.055 0 .086l1.083 1.216c.032.023.079.031.094.008l.8-.651.157.181-.988.776c-.22-.109-1.396-.784-1.302-2.173 0-.023 0-.047-.031-.055a.041.041 0 00-.063.008l-3.608 2.941c-.016.009-.016.024-.016.032l-.125.549-9.696 8.055-.957.135c-.031 0-.047.022-.047.055l-.188 2.926c0 .032.016.048.031.063.032.008.047.008.079-.008l6.668-5.438c.016-.016.016-.031.016-.047v-.393l.376.306c.016.017.063.017.078 0l4.896-3.836.031.04-4.346 3.852c-.016 0-.032.017-.032.031l-.125.432-.533.494-.455-.33c-.031-.016-.063-.016-.079.008l-5.977 5.312-.848.04c-.016 0-.031.008-.047.016l-3.279 3.286a1.51 1.51 0 00-.36-.039c-.439 0-1.35.143-2.416 1.067a531.118 531.118 0 00-5.648 4.997c-.031.016-.031.063-.016.086l3.844 4.564c.016.017.267.29.69.29.376 0 .753-.228 1.146-.667.988-1.177 7.358-8.88 7.421-8.949.031-.031.611-.676.659-1.568l4.22-3.813c.094.023.439.086.706.086.235 0 .376-.055.408-.173.047-.164-.126-.259-.314-.353-.094-.063-.235-.143-.235-.204 0-.031.031-.07.094-.11.345-.251.674-.502.8-.596l.486.667-.973 1.177-1.208.017c-.016 0-.031.008-.047.016l-2.448 2.196c-.016.016-.016.03-.016.047 0 .022 0 .031.016.047l1.02.973 1.584 4.395c.016.016.031.03.047.039.016.008.047 0 .063-.009l2.165-1.529c.016-.023.031-.047.016-.07l-1.192-4.291 2.62-2.887a.07.07 0 000-.078l-.926-1.506.424-.559c.659.386 7.578 4.479 11.186 4.479.737 0 1.302-.181 1.679-.519.016-.008.016-.03.016-.038l.173-4.3c0-.03-.016-.063-.047-.07-.078-.009-7.499-.801-9.272-2.221-.471-.384-.643-.775-.502-1.177.235-.674 1.333-1.192 1.914-1.192.11 0 .188.023.235.056.031.008.063.008.079 0s.031-.032.031-.056v-.212c0-.016 0-.023-.016-.039l-.973-1.364.063-.22 1.49 1.858c0 .017.016.024.032.024s.031 0 .047-.017l3.718-3.161 21.933 25.032c.016.023.031.031.047.023 2.102-.416 1.851-2.252 1.851-2.275v-.031l-21.62-24.639.079-.07c.093-.07 2.148-1.811 2.039-2.753zm-2.416-.501l-1.538 1.225-.125-.135 1.49-1.436c.047.119.11.236.173.346z"/></svg>