<svg xmlns="http://www.w3.org/2000/svg" viewBox="2.84 48.38 277.79 186.71"><path fill="#D6D4D1" d="M2.835 48.375h277.794v186.714H2.835z"/><path fill="#003780" d="M229.147 50.736H5.181V200.04z"/><path fill="#009642" d="M54.444 232.875h223.967V83.564z"/><path fill="#FFF" d="M278.411 83.564V50.736h-49.264L5.181 200.04v32.835h49.263z"/><path fill="#D11234" d="M278.411 72.614V50.736h-32.838L5.181 210.991v21.884h32.853z"/><g fill="#FED000"><path d="M81.46 100.243c0-.063-.047-.125-.094-.141l-10.998-4.063 7.483-9.006a.167.167 0 00.016-.188.195.195 0 00-.141-.063h-.015l-11.547 1.993 1.993-11.563c0-.063-.016-.125-.079-.157-.047-.016-.11 0-.173.016L58.9 84.555l-4.064-10.968c-.031-.125-.22-.125-.267 0l-4.063 10.967-9.021-7.484c-.031-.031-.11-.047-.157-.016-.063.031-.079.094-.079.157l1.993 11.563-11.547-1.994h-.031c-.047 0-.094.031-.125.063a.167.167 0 00.016.188l7.483 9.006-10.982 4.063c-.063.016-.11.078-.11.141s.047.126.11.142l10.982 4.048-7.483 9.005a.144.144 0 00-.016.173c.031.047.079.078.125.078h.031l11.547-1.977-1.993 11.547c0 .063.016.126.079.157.047.031.125.031.157-.016l9.021-7.499 4.063 10.997c.031.063.079.11.141.11.047 0 .11-.047.125-.11l4.063-10.997 9.005 7.499a.222.222 0 00.094.031h.016c.079 0 .142-.078.142-.157 0-.016 0-.047-.016-.063l-1.977-11.5 11.547 1.977h.016c.063 0 .11-.031.141-.078a.141.141 0 00-.016-.173l-7.483-9.005 10.998-4.048c.049-.013.095-.077.095-.139zm-11.938 0c0 8.174-6.652 14.811-14.811 14.811-8.174 0-14.81-6.637-14.81-14.811s6.636-14.826 14.81-14.826c8.158 0 14.811 6.651 14.811 14.826z"/><path d="M54.711 86.671c-7.483 0-13.571 6.087-13.571 13.571s6.087 13.556 13.571 13.556c7.468 0 13.555-6.072 13.555-13.556 0-7.484-6.087-13.571-13.555-13.571z"/></g></svg>