<svg xmlns="http://www.w3.org/2000/svg" viewBox="2.84 48.38 277.79 186.71"><path fill="#D6D4D1" d="M2.835 48.376h277.794v186.712H2.835z"/><path fill="#013875" d="M5.251 50.643h273.253v61.477H5.251zM5.251 171.329h273.253v61.477H5.251z"/><path fill="#FFF" d="M5.251 112.128h273.253v59.202H5.251z"/><path fill="#003874" d="M123.577 152.503l18.324-31.746 18.342 31.746z"/><path fill="#FECF47" d="M141.901 121.58l-17.618 30.514h35.238z"/><path fill="#003874" d="M141.901 122.412l-16.896 29.267h33.794z"/><path fill="#FFF" d="M141.901 123.243l-16.174 28.02h32.35z"/><g fill="#BDD8EF"><path d="M142.607 133.653l1.442-6.691-.627-1.091-1.066 7.719c.079.015.173.039.251.063zM143.611 134.178l2.399-3.813-.344-.597-2.261 4.26c.081.048.144.096.206.15zM143.141 133.864l2.023-4.973-.438-.77-1.82 5.633c.078.04.157.079.235.11zM141.823 133.527c.078 0 .142.008.204.023l.36-9.46-.486-.848-.486.848.361 9.444c.016.001.032-.007.047-.007zM140.349 133.959l-2.212-4.189-.346.589 2.354 3.749c.062-.063.14-.102.204-.149zM139.894 134.303l-2.511-3.231-.298.518 2.62 2.887c.063-.063.126-.119.189-.174zM141.446 133.566l-1.066-7.695-.628 1.091 1.443 6.644a2.13 2.13 0 01.251-.04zM140.882 133.7l-1.805-5.578-.438.771 2.008 4.91c.078-.041.157-.064.235-.103zM144.615 135.465l3.326-1.765-.251-.439-3.186 1.992c.049.062.08.141.111.212zM144.945 138.132l7.265 2.958-.627-1.091-6.604-2.11c-.018.078-.018.164-.034.243zM144.02 134.562l2.697-2.973-.297-.518-2.573 3.311c.064.055.111.118.173.18zM145.008 137.01l4.957.188-.346-.604-4.627.181c.001.078.016.156.016.235zM144.788 138.705l9.492 5.979-1.035-1.813-8.377-4.416c-.034.085-.049.171-.08.25zM145.008 137.567l5.897 1.271-.438-.761-5.443-.761c-.001.086-.016.165-.016.251zM144.349 135.002l2.997-2.329-.268-.463-2.871 2.596c.064.055.094.118.142.196zM144.945 136.476l4.252-.58-.282-.518-4.017.878c.017.072.032.142.047.22zM139.501 134.719l-2.776-2.51-.268.463 2.887 2.243c.048-.07.11-.141.157-.196zM144.819 135.959l3.734-1.208-.268-.455-3.547 1.443c.018.079.05.149.081.22zM138.639 137.347l-5.303.729-.439.761 5.742-1.239v-.251zM142.467 140.979l1.412 10.284h1.129l-2.243-10.378a.936.936 0 01-.298.094zM141.823 141.049h-.079l-.392 10.214h1.1l-.394-10.222c-.078.008-.157.008-.235.008zM143.141 140.72l3.389 10.543h1.225l-4.36-10.692-.254.149zM140.38 140.642l-4.33 10.621h1.239l3.357-10.473c-.093-.038-.188-.101-.266-.148zM141.039 140.94l-2.244 10.323h1.13l1.412-10.253a6.734 6.734 0 01-.298-.07zM144.663 139.034c-.048.078-.078.165-.125.243l10.275 9.319.377-.558.471-.454-10.998-8.55zM143.706 140.328l5.789 10.937h1.443l-7.014-11.147c-.062.069-.14.139-.218.21zM144.176 139.826l8.41 10.842.455-.494.563-.368-9.257-10.207a1.165 1.165 0 01-.171.227zM139.814 140.218l-6.949 11.045h1.459l5.727-10.841c-.079-.07-.157-.133-.237-.204zM138.67 137.927l-6.448 2.071-.628 1.091 7.139-2.903c-.032-.086-.032-.172-.063-.259zM138.654 136.767l-4.456-.173-.36.604 4.801-.18c.015-.087.015-.165.015-.251zM139.188 135.19l-3.06-1.93-.267.439 3.2 1.694c.048-.069.08-.14.127-.203zM138.937 135.684l-3.42-1.389-.267.455 3.607 1.169c.033-.085.048-.157.08-.235zM138.764 136.21l-3.875-.831-.282.518 4.11.564c.015-.094.031-.164.047-.251zM138.811 138.524l-8.252 4.346-1.035 1.813 9.366-5.892c-.033-.086-.048-.173-.079-.267zM139.36 139.701l-9.163 10.104.565.368.455.494 8.33-10.739c-.062-.071-.124-.149-.187-.227zM139.03 139.128l-10.888 8.458.486.455.36.557 10.183-9.218c-.062-.087-.094-.173-.141-.252z"/></g><path d="M158.077 151.263l-4.221-7.327c-1.177 0-2.871.024-4.988.165-4.252.282-11.736.087-11.736.087s-3.953-.118-7.248-.142l-4.157 7.217h32.35z" fill="#E20025"/><path d="M158.077 151.263l-4.221-7.327c-1.177 0-2.871.024-4.988.165-4.252.282-11.736.087-11.736.087s-3.953-.118-7.248-.142l-4.157 7.217h32.35z" fill="#FFF"/><path d="M136.567 144.478s8.268.212 12.943-.087a95.451 95.451 0 014.503-.172l-.157-.283c-1.177 0-2.871.024-4.988.165-4.253.282-11.736.087-11.736.087s-3.953-.118-7.248-.142l-.173.306c3.357.039 6.856.126 6.856.126z" fill="#003874"/><g fill="#E42531"><path d="M153.401 143.168l-.188-.329c-.031.376-.094.736-.156 1.098h.234c.047-.252.079-.511.11-.769zM141.901 130.382c1.68 0 3.279.368 4.723 1.027l-.203-.353a11.579 11.579 0 00-4.52-.91c-1.601 0-3.122.321-4.519.91l-.188.353a11.23 11.23 0 014.707-1.027zM130.543 144.054h.235a14.245 14.245 0 01-.188-1.225l-.188.338c.031.306.078.59.141.887z"/></g><g fill="#F6A954"><path d="M153.213 142.839l-.203-.361a11.69 11.69 0 01-.188 1.467c.078-.008.156-.008.235-.008.063-.361.125-.722.156-1.098zM141.901 130.609c1.773 0 3.438.416 4.911 1.153l-.188-.354a11.337 11.337 0 00-4.723-1.027c-1.679 0-3.278.368-4.706 1.027l-.204.354a10.99 10.99 0 014.91-1.153zM130.778 144.054h.235c-.11-.51-.188-1.035-.22-1.577l-.204.354c.048.416.11.831.189 1.223z"/></g><g fill="#F8E822"><path d="M141.901 130.852c1.852 0 3.607.463 5.131 1.278l-.22-.368a10.944 10.944 0 00-4.911-1.153c-1.757 0-3.436.416-4.91 1.153l-.22.368a10.868 10.868 0 015.13-1.278zM153.01 142.477l-.221-.368a12.265 12.265 0 01-.203 1.835h.233c.096-.471.159-.973.191-1.467zM131.014 144.054c.078.008.156.008.235.008a9.961 9.961 0 01-.235-1.953l-.22.368a10.1 10.1 0 00.22 1.577z"/></g><g fill="#0FAB8D"><path d="M141.901 131.08c1.961 0 3.781.525 5.366 1.443l-.235-.393a10.863 10.863 0 00-5.131-1.278c-1.851 0-3.608.463-5.13 1.278l-.22.393a10.58 10.58 0 015.35-1.443zM152.586 143.944c.107-.588.188-1.208.203-1.835l-.221-.393v.031c0 .745-.078 1.491-.234 2.204.095-.007.157-.007.252-.007zM131.014 142.109c.016.667.094 1.317.235 1.953h.251a10.184 10.184 0 01-.267-2.314v-.023l-.219.384z"/></g><g fill="#159AD3"><path d="M131.735 144.07a10.3 10.3 0 01-.267-2.322c0-.156 0-.306.016-.447l-.251.416v.031c0 .801.094 1.569.267 2.314.063 0 .141.008.235.008zM141.901 131.307c2.057 0 3.984.596 5.602 1.632l-.233-.416a10.64 10.64 0 00-5.366-1.443 10.58 10.58 0 00-5.35 1.443l-.251.416a10.347 10.347 0 015.598-1.632zM152.334 141.748c0 .753-.078 1.491-.234 2.204h.234c.155-.713.234-1.459.234-2.204v-.023l-.234-.424v.447z"/></g><g fill="#013875"><path d="M131.971 144.07a10.247 10.247 0 01-.267-2.322c0-.313.016-.604.031-.901l-.251.454c-.016.142-.016.291-.016.447 0 .801.094 1.569.267 2.322h.236zM141.901 131.535c2.182 0 4.205.69 5.854 1.858l-.252-.454a10.353 10.353 0 00-5.602-1.632c-2.055 0-3.984.596-5.601 1.632l-.251.454a10.097 10.097 0 015.852-1.858zM152.115 141.748c0 .753-.095 1.499-.251 2.213.078 0 .156 0 .235-.01.155-.713.235-1.45.235-2.204v-.447l-.269-.454c.035.298.05.588.05.902z"/></g><g fill="#503389"><path d="M132.206 144.078a10.37 10.37 0 01-.282-2.33c0-.486.047-.949.109-1.412l-.298.511c-.016.298-.031.588-.031.901 0 .801.094 1.577.267 2.322.078 0 .156 0 .235.008zM141.901 131.77c2.322 0 4.456.8 6.15 2.126l-.299-.503a10.094 10.094 0 00-5.854-1.858c-2.181 0-4.204.69-5.852 1.858l-.298.503a9.967 9.967 0 016.153-2.126zM151.879 141.748c0 .761-.094 1.515-.25 2.221.078 0 .156-.008.233-.008.156-.715.251-1.46.251-2.213a8.54 8.54 0 00-.047-.901l-.299-.511c.082.463.112.925.112 1.412z"/></g><path d="M152.931 144.611a19.38 19.38 0 011.303-.008l-.126-.212c-.22.008-1.977.022-2.104.103-.125.094.143.148.927.117zM153.355 145.043c.485-.017.896-.017 1.13-.017l-.109-.188c-.502 0-1.852.022-1.961.103-.127.078.14.142.94.102zM153.888 145.576c.346-.016.659-.016.909-.016l-.125-.188c-.58.009-1.631.032-1.728.096-.123.092.16.139.944.108zM154.579 145.976c.156-.008.297-.008.438-.008l-.11-.196c-.549.023-1.191.047-1.255.094-.125.079.141.141.927.11z" fill="#003874"/><path d="M129.633 148.518c1.945.479 1.992.243 3.42-.008 1.396-.26 1.616-.33 3.656.069 2.023.4 3.765-.572 3.765-.572s1.616 1.036 3.593.432c1.977-.611 3.688-.407 4.487-.07.784.346 2.526.268 2.948.188.408-.071 1.806-.502 2.621-.291.58.157 1.631.526 2.558.55l-1.334-2.299-.173.023s-2.307.463-4.11-2.871l-1.427.022-.534 1.522s-.455-.29-1.255-1.992l-1.082-.018-.77 1.828s-.863-1.004-1.537-2.242l-1.443.063s-.549 1.671-1.396 2.62c0 0-.69-.848-1.632-2.974l-1.224.134-1.632 3.403s-1.475-1.858-2.604-4.063l-1.035.071s-.847 4.134-5.021 4.471l-1.004 1.718c.549.003 1.27.051 2.165.286z" fill="#0FAB8D"/><path d="M133.508 142.039c.078.966.612 4.088 3.97 6.637.188.008.376.008.549 0-.502-.479-2.369-2.298-2.965-3.992 0 0 1.882 2.619 4.048 3.836.282-.079.533-.157.737-.235-.486-.259-2.009-1.16-2.699-2.274l-.016.031s-1.475-1.859-2.604-4.063l-1.02.06zM142.874 146.902s.612-.926.235-1.326l-.769.824-.424-.416s1.192-1.356 1.569-3.152l-.471.022s-.549 1.671-1.396 2.62c0 0-.69-.848-1.632-2.974l-1.224.134v.031c.11.8.502 3.146 1.679 5.357l.031-.017s.879.564 2.149.611c-.928-.658-2.714-2.156-2.479-3.646 0 0 1.051 2.165 3.467 3.577.142-.023.3-.063.455-.11.347-.109.69-.188 1.021-.251-.72-.35-1.96-.986-2.211-1.284zM146.766 143.208l-.77 1.813c.078.142.172.274.299.377 0 0 .596-1.075.813-2.182l-.342-.008zM146.311 145.835s.345-.211.455-.597c.125-.399.313-.416.313-.416s-.108.322-.031.519c.078.195-.233.785-.233.785l-.504-.291zM149.637 143.693l-.534 1.522a1.4 1.4 0 00.394.329s.344-.941.519-1.859l-.379.008z" fill="#FFE01A"/><path d="M141.133 144.753c.047.063.078.125.109.181.283-.016.581-.016.801-.008a.832.832 0 01.125-.204c-.36.015-.769.023-1.035.031zM148.601 144.611c.03.047.063.104.095.143h.564l.063-.165a84.43 84.43 0 00-.722.022zM145.792 144.799c.11-.008.205-.008.299-.008l.063-.135h-.471c.047.058.077.097.109.143zM128.817 145.914c.58.048 1.051.125 1.364.196.142-.056.268-.118.408-.188-.141-.135-1.02-.204-1.647-.243l-.125.235zM131.061 145.647c.078-.063.157-.11.22-.165-.016-.016-.047-.022-.078-.039-.55-.322-1.365-.307-1.978-.234l-.125.188c1.05-.088 1.663.109 1.961.25zM129.366 144.958c1.365-.213 2.149-.071 2.494.03.048-.055.095-.103.142-.165a.929.929 0 00-.109-.047c-.565-.282-1.616-.212-2.338-.134l-.189.316zM136.74 145.513c.22-.017.424-.047.392-.134-.016-.047-.267-.07-.549-.078.063.079.11.15.157.212zM136.379 145.019h.047c.251-.016.785-.023.754-.142-.032-.078-.55-.095-.957-.095.062.08.109.159.156.237z" fill="#003874"/><g fill="#003874"><path d="M157.842 150.855c-.646.063-1.647.149-2.447.048-1.24-.157-2.057-.148-2.684.047-.627.188-2.463.447-4-.07-1.539-.525-3.188-.07-3.703-.031-.52.031-1.867.056-3.546-.51-1.679-.564-3.059.087-3.702.134-.628.047-.988.125-2.667-.4-1.694-.51-2.196.394-3.389.274-1.208-.117-.69-.479-2.762-.651-1.035-.078-1.819-.022-2.354.063l-.125.22a5.86 5.86 0 013.389.313c-.235-.048-1.616-.251-3.624.108l-.235.385c.36-.108 1.302-.345 2.855-.281 2.023.063 1.835.212 3.231.376 1.412.148 2.229-.164 2.683-.164.424 0 1.914.022 3.013.549h4.408c-.125-.126-.407-.282-1.02-.251-1.035.039-1.365.424-2.683-.243 0 0 1.898-1.177 4.032.494h3.482c.25-.165.783-.463 1.271-.4.485.057.957.251 1.489.4h3.828c.359-.126.94-.282 1.506-.243.849.039 2.729.29 3.892.086l-.138-.253zm-22.404-.298c-.141.078-2.745-.016-2.745-.016.627-.4 1.475-.425 2.181-.299.705.142.705.237.564.315zM128.754 148.925c.973.118 1.585.51 2.651.51 1.067 0 1.914-.454 2.699-.407.784.039 1.286.384 2.651.455 1.364.078 2.212-.385 3.091-.322.878.079 1.49.204 1.992.425.502.212 1.553.345 2.588.385 1.035.031 2.07-.173 2.652-.157.596.031 1.441.368 2.588.549 1.16.182 1.742-.008 2.729-.204.986-.203 2.416-.18 3.342.023.598.142 1.256 0 1.646-.117l-.096-.165c-.25.079-.658.165-1.19.118-.878-.063-1.819-.361-2.979-.181-1.16.18-2.4.549-3.859.195-1.459-.36-1.866-.581-4.141-.424-2.275.157-2.686-.147-3.721-.438-1.066-.274-2.29-.268-3.185-.023s-2.4-.086-3.169-.329c-.753-.228-2.149.039-2.542.156-.393.126-1.365.307-2.745-.078-.69-.196-1.727-.196-2.589-.149l-.142.244c.38-.058 1.071-.144 1.729-.066zM154.844 148.69s.347.519 1.867.471h.158l-.097-.18c-.173-.009-.313-.023-.313-.023s-1.033-.04-1.615-.268z"/><path d="M148.711 149.388c-1.24-.282-1.412-.486-3.076-.329-1.662.141-2.385.306-3.654-.196-1.287-.51-2.024-.32-2.182-.188-.156.118.299.039.361.022.063-.008 1.177.031 1.867.377.675.354 1.788.4 2.369.337.58-.069 1.71-.259 2.353-.212.646.04 1.178.143 2.135.494.941.354 2.479.079 2.841.008.36-.069 1.411-.359 2.636-.188.988.133 1.82.368 2.811.172l-.158-.274c-.141.023-.219.049-.219.049s-.438.125-1.961-.354c-1.506-.471-.975-.463-2.699-.298-1.74.164-1.914.267-3.45-.055-1.554-.314-3.356-.659-4.69.078 0 0 1.725-.282 2.493-.196.785.086 2.716.572 3.642.604.924.023 3.373-.274 3.277-.031-.099.235-3.442.455-4.696.18zM155.786 150.424c-1.349-.165-1.693-.269-3.295-.04-1.584.22-1.584.51-3.562.056-1.992-.455-3.231-.181-3.733-.148-.518.022-2.604-.135-4.032-.572-1.428-.433-2.902.141-3.64.211-.737.056-1.396-.017-2.745-.431-1.365-.408-1.632.147-2.715.163-1.098.023-2.354-.281-2.965-.414-.471-.11-1.146-.196-2.165-.088l-.11.182c.565-.056 1.177-.086 1.711-.023 1.38.173 1.646.51 3.294.541 1.663.023 1.443-.596 3.153-.063 1.711.532 2.229.376 2.793.273.58-.094 1.757-.455 2.824-.259 1.066.204 2.181.698 4.173.667 1.993-.031 1.381-.33 3.954.102 2.571.447 1.897.369 4.017-.047 2.133-.407 2.965.354 4.801.047l.125-.022-.125-.235a5.18 5.18 0 01-1.758.1z"/></g><path d="M142.372 135.12c-.22 0-.375 0-.5-.008-.109-.008-.204-.008-.313-.008a.63.63 0 00-.455.172c-.142.149-.22.4-.204.706v.023s.016.008.031 0h.188c.188 0 .329.032.518.095.094.031.157.078.142.125 0 .055-.063.103-.173.103-.329 0-.58.086-.784.282-.235.228-.282.753-.282 1.537 0 .039 0 .087-.016.11 0 .055 0 .086.031.102.016.023.047.023.063.023.047 0 .094.008.125.008.031.008.063.008.095.008.22.816.36 1.091.706 1.271.109.047.203.07.282.07.173 0 .298-.126.298-.313 0-.103 0-.228.016-.354 0-.109.016-.243.016-.368 0-.196.047-.196.143-.196h.236c.107.008.219.008.344.008.188 0 .377-.039.377-.346 0-.078 0-.228.017-.423 0-.361.017-.848.017-1.357-.008-.675-.51-1.27-.918-1.27z" fill="#E63E45"/><g fill="#FECF47"><path d="M117.788 140.532l1.271.087-.047.706-3.295-.228.063-.957c.031-.447.126-.777.314-.973.172-.212.423-.307.753-.283a.893.893 0 01.518.188c.142.126.251.282.329.486.77-.455 1.271-.745 1.49-.878l-.047.769-1.317.706-.032.377zm-.565-.031l.016-.228c.016-.22-.016-.384-.078-.502-.063-.102-.173-.165-.329-.181-.157-.008-.282.031-.346.142-.078.109-.125.267-.141.502l-.016.204.894.063zM119.765 135.935l-.408 1.867-3.231-.698.392-1.859.565.126-.251 1.177.706.148.235-1.098.564.125-.235 1.099.831.181.251-1.185.581.117zM118.73 131.88c.329.134.549.33.658.612.095.267.079.596-.063.98l-.109.282 1.098.408-.235.666-3.106-1.152.361-.988c.141-.377.329-.644.564-.777.235-.133.517-.141.832-.031zm-.048 1.678l.079-.22c.063-.204.078-.368.047-.494a.434.434 0 00-.298-.282c-.157-.055-.283-.055-.393 0-.094.055-.188.181-.251.353l-.11.299.926.344zM119.749 127.715l1.867 1.051c.22.118.376.267.486.455.109.196.156.393.141.628-.031.22-.094.471-.235.706-.204.376-.471.604-.784.706-.298.094-.612.055-.941-.134l-1.867-1.051.346-.604 1.772.988c.22.134.408.173.564.142.157-.023.283-.149.393-.354.126-.195.157-.368.094-.525-.047-.148-.188-.282-.407-.407l-1.773-.997.344-.604zM120.784 126.224l.659-.809c.282-.368.549-.588.784-.667.235-.086.471-.039.706.149.142.118.251.267.282.416a.502.502 0 01-.047.424l.016.016c.173-.134.329-.196.486-.188.157.008.313.086.486.212a.858.858 0 01.346.698c0 .282-.126.564-.361.854l-.769.965-2.588-2.07zm1.475.267l.251-.307c.11-.156.173-.274.188-.384a.34.34 0 00-.157-.282c-.094-.079-.188-.103-.298-.056a.736.736 0 00-.329.283l-.235.29.58.456zm.424.352l.675.541.282-.36c.126-.149.188-.282.188-.393 0-.125-.063-.228-.188-.329-.204-.173-.439-.103-.675.204l-.282.337zM125.695 125.573l-2.244-2.424.518-.486 1.852 2.008.988-.918.393.432-1.507 1.388zM128.048 123.533l-1.961-2.667.565-.416 1.977 2.676-.581.407zM129.555 119.251c-.235.133-.361.321-.377.564-.031.243.031.518.22.831.361.636.784.824 1.271.558.204-.126.408-.314.644-.573l.298.51a2.38 2.38 0 01-.722.597c-.407.235-.8.298-1.177.165-.36-.134-.674-.432-.957-.902a2.558 2.558 0 01-.282-.879 1.34 1.34 0 01.188-.784c.125-.243.329-.439.611-.597.283-.156.597-.243.957-.267l.079.604a3.29 3.29 0 00-.393.047c-.141.023-.251.07-.36.126zM134.622 120.035l-.502-.651-1.13.424.047.823-.706.267-.078-3.521.8-.299 2.275 2.699-.706.258zm-.879-1.146a76.766 76.766 0 01-.769-1.004c-.063-.078-.109-.134-.142-.181.032.188.063.69.11 1.49l.801-.305zM140.396 117.187c.063.541-.031.973-.313 1.294-.268.33-.706.525-1.287.589l-.926.117-.392-3.294 1.035-.118c.533-.063.973.031 1.302.274.33.251.518.628.581 1.138zm-.722.102c-.078-.706-.439-1.027-1.066-.941l-.361.032.251 2.141.298-.031c.674-.079.972-.487.878-1.201zM143.659 118.905l-1.915-.047.11-3.318 1.898.063-.018.573-1.208-.031-.017.722 1.13.031-.031.572-1.112-.031-.031.855 1.209.039-.015.572zM149.354 120.058l-.861-.235-.738-2.793-.016-.008c-.095.432-.156.745-.203.926l-.408 1.498-.611-.164.879-3.201.85.243.735 2.77h.017c.094-.416.155-.714.205-.887l.405-1.506.61.165-.864 3.192zM150.562 120.56l1.303-3.044.644.282-1.303 3.044-.644-.282zM155.018 119.697a.749.749 0 00-.689-.055c-.221.103-.425.306-.598.612-.376.635-.313 1.098.173 1.372.188.118.472.204.815.275l-.299.51a2.459 2.459 0 01-.877-.307c-.408-.243-.66-.557-.737-.933-.063-.385.03-.816.298-1.287.173-.29.377-.525.627-.683a1.3 1.3 0 01.754-.251c.282 0 .549.079.814.235.283.165.533.393.723.683l-.471.385a2.251 2.251 0 00-.252-.314 1.346 1.346 0 00-.281-.242zM156.9 124.459l.313-.769-.941-.761-.689.463-.58-.471 2.996-1.859.674.541-1.176 3.326-.597-.47zm.55-1.333c.266-.69.438-1.083.471-1.177a.785.785 0 01.095-.204c-.156.117-.58.393-1.239.839l.673.542zM159.521 125.227l-.94.863-.472-.533 2.447-2.212.659.714c.298.329.455.627.486.901.016.267-.097.519-.348.745a.821.821 0 01-.484.22 1.032 1.032 0 01-.564-.094 212.38 212.38 0 00-.424 1.694l-.52-.58.408-1.436-.248-.282zm.422-.384l.157.165c.143.172.281.274.408.298.125.031.25-.008.359-.118.109-.109.174-.22.143-.345-.031-.126-.11-.267-.268-.439l-.143-.157-.656.596zM161.513 129.926l.518-.628-.659-1.012-.783.243-.424-.643 3.42-.848.486.722-2.148 2.809-.41-.643zm.926-1.089c.472-.581.737-.902.815-.974.047-.07.108-.141.142-.172-.188.055-.659.204-1.429.423l.472.723zM164.525 131.755l.533 1.192-1.569.698a2.981 2.981 0 01-.376-.494 2.874 2.874 0 01-.282-.511c-.188-.455-.22-.862-.047-1.224.156-.36.485-.65.987-.87.485-.22.94-.251 1.334-.095.394.157.706.494.926.988.142.314.204.636.204.973l-.611.016a1.535 1.535 0 00-.125-.753c-.127-.274-.313-.455-.582-.549-.25-.078-.549-.055-.86.086-.33.142-.552.314-.659.526-.126.211-.126.455 0 .705.047.134.125.268.221.4l.627-.282-.25-.58.529-.226zM167.631 136.688l-2.086.518a1.228 1.228 0 01-.66-.008c-.203-.055-.375-.18-.532-.353a1.663 1.663 0 01-.313-.675c-.108-.416-.078-.761.078-1.051.156-.274.408-.463.784-.558l2.071-.518.172.683-1.977.494c-.252.063-.424.157-.502.282-.096.134-.109.314-.047.534.047.234.141.368.28.446.157.063.347.071.599.016l1.961-.494.172.684zM164.76 140.767l.77-.306-.095-1.208-.8-.173-.063-.753 3.404.91.063.854-3.218 1.428-.061-.752zm1.334-.517c.705-.282 1.099-.432 1.177-.463a1.59 1.59 0 01.235-.078c-.205-.031-.69-.142-1.477-.313l.065.854z"/></g><g fill="#FECF47"><path d="M117.944 145.537c.267-.055.471-.022.644.078a.667.667 0 01.298.495c.047.242.016.438-.094.588-.126.149-.313.251-.565.307-.251.047-.471.016-.643-.086-.157-.096-.267-.268-.314-.494-.031-.235 0-.424.11-.589.126-.15.313-.252.564-.299zM118.399 153.296l.706-.612-.564-1.263-.941.108-.346-.792 4.017-.33.393.896-2.918 2.785-.347-.792zm1.24-1.068c.644-.564 1.004-.895 1.099-.965.078-.063.142-.126.204-.165-.235.039-.801.118-1.71.228l.407.902zM120.486 156.809l1.867-2.502-.016-.008c-.455.376-.785.627-.941.745l-1.428 1.051-.424-.588 3.075-2.236.627.887-1.804 2.433.016.016 2.902-.949.644.896-3.075 2.234-.439-.61 1.459-1.052c.063-.056.142-.117.235-.173.095-.063.329-.228.737-.485l-.016-.023-2.98.957-.439-.593zM124.989 161.744l-1.601-1.49 2.573-2.776 1.6 1.482-.438.479-1.021-.934-.564.611.941.862-.439.494-.957-.87-.659.714 1.021.941-.456.487zM127.892 162.104l-.8 1.216-.675-.438 2.102-3.169.91.611c.439.29.706.572.8.862.11.299.048.604-.156.918a1.122 1.122 0 01-.486.408c-.188.07-.408.078-.659.047.016 1.02.016 1.687.016 1.992l-.737-.502.047-1.702-.362-.243zm.36-.541l.22.142c.204.142.393.203.533.203a.448.448 0 00.377-.228c.094-.156.126-.298.063-.423-.063-.134-.204-.274-.423-.416l-.204-.134-.566.856zM130.276 165.187l1.632-3.42.721.345-1.631 3.42-.722-.345zM135.266 163.767c-.283-.094-.55-.063-.77.103-.235.164-.407.446-.533.831-.251.801-.078 1.311.533 1.498.251.079.581.118.973.104l-.203.643c-.33.031-.69-.016-1.052-.133-.518-.157-.878-.447-1.051-.863-.173-.406-.173-.91.016-1.506.125-.377.298-.675.518-.918.235-.234.502-.393.8-.463.314-.07.628-.047.973.063.361.109.675.313.973.589l-.438.541a4.97 4.97 0 00-.346-.29 1.15 1.15 0 00-.393-.199zM139.36 167.799l-.157-.926-1.365-.188-.392.863-.863-.118 1.836-3.593.973.126.831 3.953-.863-.117zm-.251-1.624c-.142-.848-.22-1.317-.252-1.428-.016-.117-.016-.196-.031-.26-.078.204-.313.729-.706 1.555l.989.133zM145.196 164.498c-.298.038-.518.181-.645.432-.141.235-.188.563-.141.965.108.848.471 1.216 1.112 1.146.251-.031.563-.143.927-.322l.096.667a2.637 2.637 0 01-1.021.322c-.533.069-.973-.049-1.316-.33-.33-.299-.533-.762-.611-1.382a2.535 2.535 0 01.078-1.059c.109-.313.281-.557.533-.745.25-.196.549-.313.91-.354a2.577 2.577 0 011.129.118l-.172.683a4.78 4.78 0 00-.439-.118c-.157-.023-.298-.032-.44-.023zM150.452 166.506l-2.087.61-1.081-3.632 2.102-.611.189.619-1.316.394.22.8 1.239-.361.188.628-1.24.361.283.941 1.317-.394.186.645zM155.222 164.333l-.927.462-2.762-1.813-.017.008c.251.439.438.753.532.949l.802 1.584-.646.33-1.709-3.381.91-.455 2.744 1.788.016-.008c-.233-.432-.406-.737-.502-.918l-.813-1.601.646-.321 1.726 3.376zM158.077 162.316l-.644.486-1.884-2.486-.814.627-.408-.524 2.274-1.741.407.533-.814.619 1.883 2.486zM159.599 159.006l1.051.996-.549.589-2.761-2.598.752-.808c.361-.369.691-.589.988-.636.313-.056.596.055.879.306.156.157.268.338.313.55.031.203.018.432-.063.658 1.004.173 1.662.274 1.961.322l-.611.643-1.68-.337-.28.315zm-.487-.448l.188-.188c.174-.195.269-.354.283-.493.03-.149-.031-.283-.158-.416-.141-.11-.266-.157-.405-.118-.144.031-.313.148-.487.338l-.154.18.733.697zM164.368 155.209l-.895-.274-.754 1.169.597.722-.472.723-2.463-3.2.533-.824 3.924.957-.47.727zm-1.569-.479c-.832-.235-1.286-.368-1.396-.398-.109-.023-.188-.056-.25-.079.156.173.518.604 1.113 1.311l.533-.834zM165.514 153.091l-3.469-1.507.313-.737 2.871 1.247.611-1.411.611.267-.937 2.141zM165.561 147.075c-.268-.056-.455-.156-.564-.307-.108-.148-.142-.345-.095-.58a.691.691 0 01.298-.502c.174-.103.393-.126.646-.071.251.048.438.143.563.308.109.155.141.345.109.571-.047.235-.157.408-.33.511-.157.093-.361.117-.627.07z"/></g></svg>