<svg xmlns="http://www.w3.org/2000/svg" viewBox="2.84 48.38 277.79 186.71"><path fill="#D6D4D1" d="M2.835 48.375h277.794v186.714H2.835z"/><path fill="#E53132" d="M5.134 50.659h77.425v71.729H5.134zM121.271 50.659h157.132v71.729H121.271zM121.263 161.092h157.132v71.729H121.263zM5.142 161.092h77.425v71.729H5.142z"/><path fill="#112A64" d="M278.402 153.124v-22.766H113.293V50.659H90.528v79.699H5.142v22.766h85.386v79.698h22.765v-79.698z"/><g fill="#FFF"><path d="M90.528 130.358V50.659h-7.969v71.73H5.134v7.969zM113.293 50.659v79.699h165.086v-7.969H121.263v-71.73zM113.293 153.124v79.698h7.97v-71.73h157.116v-7.968zM90.528 232.822v-79.698H5.134v7.968h77.425v71.73z"/></g></svg>