<svg xmlns="http://www.w3.org/2000/svg" viewBox="51.49 34.38 180.48 214.71"><path fill="#D6D3D0" d="M121.969 147.721H231.971l-14.748-9.271L59.174 39.195l-7.68-4.82V249.09h171.55l-8.526-8.561z"/><path fill="#DA143B" d="M202.837 139.321L59.883 49.545v191.148h142.954L101.751 139.321z"/><path d="M59.883 49.545l142.955 89.776H101.751l101.086 101.372H59.883V49.545m-3.37-6.098v200.626h154.445L109.89 142.701h104.663L56.513 43.447z" fill="#123B8E"/><path d="M122.193 104.045a.193.193 0 00-.208.112 29.386 29.386 0 01-12.13 14.395l-2.057-1.538 4.441-3.317a.239.239 0 00.068-.182.212.212 0 00-.138-.147l-5.356-1.364 2.834-4.77a.244.244 0 00-.018-.19c-.035-.061-.104-.086-.173-.077l-5.478.795.795-5.486a.266.266 0 00-.069-.173.2.2 0 00-.207-.009l-4.752 2.825-1.365-5.365c-.018-.069-.052-.121-.139-.139a.173.173 0 00-.173.078l-3.317 4.433-3.317-4.433c-.035-.061-.104-.086-.173-.078a.19.19 0 00-.139.139l-1.364 5.365-4.735-2.825c-.069-.034-.155-.034-.207.009a.213.213 0 00-.087.173l.795 5.486-5.46-.795c-.069-.009-.138.017-.173.077a.156.156 0 00-.017.19l2.816 4.77-5.356 1.364a.325.325 0 00-.138.147c0 .069.034.13.086.182l4.424 3.317-2.039 1.538c-5.581-3.361-9.763-8.329-12.147-14.395-.018-.077-.104-.129-.19-.112a.187.187 0 00-.155.182c0 15.249 12.372 27.656 27.578 27.656 15.224 0 27.596-12.407 27.596-27.656a.188.188 0 00-.156-.182zM122.245 188.224l-10.42-4.433 6.809-9.063c.052-.052.052-.121.017-.183-.034-.062-.104-.086-.173-.086l-11.231 1.392 1.383-11.268c.017-.067-.018-.129-.087-.164-.052-.033-.121-.024-.173.01l-9.037 6.843-4.424-10.454c-.017-.062-.086-.104-.155-.104s-.121.043-.155.104l-4.406 10.454-9.037-6.843c-.052-.034-.139-.043-.19-.01a.199.199 0 00-.086.164l1.382 11.268-11.231-1.392c-.069 0-.121.024-.156.086s-.035.131 0 .183l6.826 9.063-10.42 4.433c-.069.026-.104.087-.104.155s.035.13.104.156l10.42 4.432-6.826 9.063a.17.17 0 000 .182c.035.063.086.097.156.086l11.231-1.391-1.382 11.266a.2.2 0 00.086.166c.052.033.138.025.19-.01l9.037-6.843 4.406 10.454c.034.061.086.104.155.104s.139-.043.155-.104l4.424-10.454 9.037 6.843c.035.02.069.035.104.035.087.008.173-.078.173-.174 0-.025 0-.052-.017-.068l-1.383-11.215 11.231 1.392h.035c.086.01.173-.076.173-.173a.18.18 0 00-.069-.131l-6.791-9.026 10.42-4.433c.052-.025.104-.088.104-.156-.001-.069-.053-.13-.105-.156z" fill="#FFF"/></svg>