<svg xmlns="http://www.w3.org/2000/svg" viewBox="2.84 48.38 277.79 186.71"><path fill="#D6D4D1" d="M2.835 48.375h277.794v186.714H2.835z"/><path fill="#102F7A" d="M5.15 50.666h273.237v182.148H5.15z"/><path fill="#FCC522" d="M5.15 133.197h273.237v17.077H5.15z"/><path d="M107.465 178.5l-14.184-3.546 10.496-10.159c.078-.078.11-.195.047-.298a.249.249 0 00-.282-.109l-14.041 4.015 4-14.049a.21.21 0 00-.094-.273c-.094-.063-.22-.039-.298.039l-10.167 10.504-3.545-14.176c-.055-.22-.416-.22-.471 0l-3.545 14.176-10.167-10.504c-.079-.078-.188-.104-.291-.039a.224.224 0 00-.102.273l4.008 14.049-14.049-4.017a.239.239 0 00-.274.109.236.236 0 00.039.298l10.504 10.159-14.183 3.546a.248.248 0 00-.18.234.25.25 0 00.18.233l14.183 3.554-10.504 10.16c-.079.077-.102.194-.039.289a.235.235 0 00.274.109l14.049-4.008-4.008 14.049c-.04.104.008.212.102.273.102.049.212.041.291-.048l10.167-10.504 3.545 14.185c.024.095.133.172.235.172s.212-.077.235-.172l3.545-14.185 10.167 10.504a.245.245 0 00.298.048c.094-.063.142-.173.094-.273l-4-14.049 14.041 4.008c.11.031.22-.016.282-.109.063-.095.031-.212-.047-.289l-10.496-10.16 14.184-3.554a.252.252 0 00.172-.233.25.25 0 00-.171-.232z" fill="#FFF"/></svg>