<svg xmlns="http://www.w3.org/2000/svg" viewBox="2.84 48.38 277.8 186.71"><path fill="#D6D4D1" d="M2.835 48.375H280.63v186.714H2.835z"/><path fill="#162B74" d="M5.165 50.659h273.236v182.156H5.165z"/><path fill="#FFF" d="M141.784 50.667h-16.427L73.475 85.261 21.576 50.667H5.165v10.951l51.883 34.586-51.883 34.593v10.944h16.411l51.899-34.595 51.882 34.595h16.427v-10.944l-51.9-34.593 51.9-34.586z"/><path fill="#CB152B" d="M5.165 50.667v5.476l68.31 45.536v-5.475z"/><path fill="#CB152B" d="M141.784 136.272L73.475 90.736v5.468l68.309 45.537zM5.165 141.741h8.205l60.105-40.062v-5.475z"/><path fill="#CB152B" d="M133.579 50.667L73.475 90.736v5.474l68.293-45.543z"/><path fill="#CB152B" d="M141.784 88.233H79.169V50.667h-11.39v37.566H5.165v15.94h62.614v37.568h11.39v-37.568h62.615z"/><path fill="#FFF" d="M63.214 50.667v33.008H5.165v4.558h62.614V50.667zM5.165 108.731h58.049v33.01h4.565v-37.568H5.165zM141.784 104.173H79.169v37.568h4.55v-33.01h58.065zM141.784 83.675H83.719V50.667h-4.55v37.566h62.615z"/><path d="M259.653 115.243c-.016-.047-.046-.087-.108-.087h-5.711l-1.756-5.428c-.031-.095-.188-.095-.221 0l-1.773 5.428h-5.709c-.049 0-.096.04-.109.087-.016.047 0 .094.047.125l4.611 3.357-1.758 5.437c-.016.039 0 .094.031.125.049.032.096.032.143 0l4.627-3.357 4.613 3.357c.03.017.047.024.078.024a.104.104 0 00.063-.024.198.198 0 00.047-.125l-1.772-5.437 4.629-3.357c.028-.033.044-.078.028-.125z" fill="#CB152B"/><path d="M264.33 113.72c-.017-.047-.047-.086-.108-.086h-9.287l-2.854-8.825c-.031-.094-.188-.094-.221 0l-2.871 8.825h-9.287c-.048 0-.095.039-.109.086-.016.04 0 .095.048.126l7.499 5.46-2.871 8.833c-.016.039.016.094.047.125a.102.102 0 00.063.023c.031 0 .047-.008.078-.023l7.517-5.46 7.515 5.46a.08.08 0 00.063.023c.063 0 .123-.055.123-.117a.133.133 0 00-.029-.071l-2.854-8.793 7.516-5.46c.022-.032.037-.087.022-.126zm-4.707 1.648l-4.627 3.357 1.771 5.437a.193.193 0 01-.047.125c-.016.017-.047.024-.063.024a.152.152 0 01-.08-.024l-4.611-3.357-4.629 3.357c-.047.032-.094.032-.143 0-.029-.031-.047-.086-.029-.125l1.756-5.437-4.611-3.357c-.047-.031-.063-.078-.047-.125s.063-.087.109-.087h5.711l1.771-5.428c.031-.095.188-.095.221 0l1.758 5.428h5.711c.063 0 .092.04.106.087a.12.12 0 01-.027.125z" fill="#FFF"/><path d="M215.537 87.551l-2.134 6.542c0 .039.017.094.048.125a.119.119 0 00.141 0l5.556-4.04 5.569 4.04c.017.016.031.023.063.023a.104.104 0 00.063-.023c.048-.031.063-.086.048-.125l-2.134-6.542 5.57-4.04c.029-.031.063-.086.047-.125-.018-.047-.063-.086-.11-.086h-6.888l-2.117-6.534c-.031-.094-.188-.094-.221 0l-2.117 6.534h-6.873c-.063 0-.094.04-.108.086-.017.039 0 .094.031.125l5.566 4.04z" fill="#CB152B"/><path d="M233.046 81.864c-.018-.047-.063-.086-.109-.086h-10.449l-3.23-9.923c-.03-.094-.188-.094-.221 0l-3.23 9.923h-10.434c-.063 0-.096.04-.109.086-.018.04 0 .094.029.125l8.457 6.143-3.23 9.938c-.018.039 0 .095.047.126.032.031.096.031.126 0l8.456-6.143 8.457 6.143a.107.107 0 00.063.023h.017c.063 0 .108-.055.108-.118a.13.13 0 00-.03-.07l-3.218-9.899 8.457-6.143a.212.212 0 00.043-.125zm-4.722 1.648l-5.57 4.04 2.136 6.542c.016.039 0 .094-.048.125a.102.102 0 01-.063.023.084.084 0 01-.063-.023l-5.569-4.04-5.554 4.04c-.047.031-.094.031-.143 0a.194.194 0 01-.048-.125l2.136-6.542-5.57-4.04c-.03-.031-.047-.086-.03-.125.017-.047.047-.086.108-.086h6.873l2.117-6.534c.03-.094.188-.094.221 0l2.117 6.534h6.887c.048 0 .096.04.111.086.015.037-.017.092-.048.125z" fill="#FFF"/><path d="M181.304 125.644l-2.133-6.526c-.031-.094-.188-.094-.221 0l-2.117 6.526h-6.873c-.047 0-.094.039-.108.086-.017.04 0 .095.047.126l5.554 4.04-2.117 6.542a.12.12 0 00.031.126.119.119 0 00.141 0l5.556-4.04 5.567 4.04c.018.016.05.023.063.023.031 0 .048-.008.063-.023.047-.031.063-.079.047-.126l-2.118-6.542 5.554-4.04c.049-.031.063-.086.049-.126-.017-.047-.063-.086-.109-.086h-6.876z" fill="#CB152B"/><path d="M192.96 124.215c-.017-.047-.063-.086-.108-.086h-10.449l-3.231-9.932c-.029-.094-.188-.094-.219 0l-3.218 9.932h-10.448c-.063 0-.095.039-.108.086-.017.039 0 .095.03.126l8.457 6.142-3.231 9.932c-.017.039.017.094.047.125a.123.123 0 00.144 0l8.438-6.142 8.456 6.142a.109.109 0 00.063.023h.017c.063 0 .108-.055.108-.117 0-.023 0-.055-.017-.07l-3.231-9.893 8.457-6.142c.043-.03.06-.087.043-.126zm-4.722 1.64l-5.554 4.04 2.118 6.542c.016.047 0 .095-.047.126-.018.016-.031.023-.063.023a.104.104 0 01-.063-.023l-5.567-4.04-5.556 4.04a.119.119 0 01-.141 0c-.031-.031-.048-.079-.031-.126l2.117-6.542-5.554-4.04c-.047-.031-.063-.086-.047-.126.017-.047.063-.086.108-.086h6.873l2.117-6.526c.03-.094.188-.094.221 0l2.133 6.526h6.871c.048 0 .096.039.111.086.018.041.003.096-.046.126z" fill="#FFF"/><path d="M221.483 185.325l-2.479-7.633c-.029-.094-.188-.094-.219 0l-2.479 7.633h-8.032c-.047 0-.094.039-.108.086-.018.048 0 .095.047.126l6.496 4.724-2.496 7.639c0 .041.018.097.049.127a.119.119 0 00.141 0l6.495-4.723 6.495 4.723a.137.137 0 00.078.022.115.115 0 00.064-.022.203.203 0 00.047-.127l-2.494-7.639 6.511-4.724a.122.122 0 00.03-.126c-.017-.047-.047-.086-.108-.086h-8.038z" fill="#CB152B"/><path d="M234.302 183.889c-.018-.048-.049-.086-.11-.086h-11.594l-3.593-11.029c-.031-.096-.188-.096-.221 0l-3.576 11.029h-11.609a.118.118 0 00-.109.086c-.017.039 0 .094.047.125l9.381 6.824-3.592 11.037c-.017.039.016.094.047.126.047.031.094.031.143 0l9.382-6.825 9.396 6.825c.018.017.033.022.063.022.063 0 .125-.055.125-.117a.13.13 0 00-.03-.07l-3.578-10.998 9.397-6.824c.031-.031.046-.086.031-.125zm-4.707 1.648l-6.512 4.724 2.494 7.639a.193.193 0 01-.048.127c-.016.017-.047.022-.063.022a.159.159 0 01-.078-.022l-6.495-4.723-6.495 4.723c-.047.031-.094.031-.143 0a.203.203 0 01-.047-.127l2.494-7.639-6.494-4.724c-.049-.031-.063-.078-.049-.126.019-.047.063-.086.11-.086h8.032l2.479-7.633c.031-.094.188-.094.221 0l2.479 7.633h8.033c.063 0 .094.039.108.086.021.047.005.093-.026.126z" fill="#FFF"/></svg>