<svg xmlns="http://www.w3.org/2000/svg" viewBox="2.84 48.38 277.79 186.71"><path fill="#D6D4D1" d="M2.835 48.376h277.794v186.712H2.835z"/><path fill="#FFF" d="M5.118 50.642h273.253v61.477H5.118z"/><path fill="#0D812E" d="M5.118 171.328h273.253v61.479H5.118z"/><path fill="#DA181C" d="M5.126 112.127h273.253v59.201H5.126z"/><path fill="#DA181C" d="M5.126 50.65h91.082v182.155H5.126z"/><path d="M44.591 83.299s9.264 12.833 25.267 25.965l.769-.102s3.961 3.891 5.844 5.209c1.882 1.326 1.702 2.251.369 2.251-1.35 0-5.067-.181-11.681-6.017l.283-.165s-11.516-8.26-24.53-25.393l-.337.086s-5.232-9.256-7.327-13.947c-2.094-4.691-3.279-7.656-2.581-8.104.667-.463 3.703 3.428 4.887 5.005 1.185 1.561 8.629 13.187 9.507 14.952l-.47.26z" fill="#FFF"/><g fill="#D91A1B"><path d="M32.048 65.115a.414.414 0 00-.408.4c0 .228.188.4.408.4a.405.405 0 00.416-.4c0-.211-.189-.4-.416-.4zM75.781 114.238c-1.655-1.13-5.138-4.55-5.177-4.573a.11.11 0 00-.118-.032l-4.22 1.114c-.055.016-.079.047-.094.094a.11.11 0 00.031.118c.016.023 1.608 1.506 3.915 3.036 2.22 1.475 5.067 2.385 6.433 2.385.494 0 .769-.11.839-.337.038-.15.172-.582-1.609-1.805zm1.365 1.717c-.031.102-.259.165-.596.165-1.106 0-3.883-.737-6.299-2.337a33.334 33.334 0 01-3.695-2.848l3.93-1.043c.431.439 3.585 3.483 5.154 4.558 1.545 1.058 1.521 1.443 1.506 1.505z"/><path d="M75.341 114.873c-.455.079-.745.063-.847-.039-.094-.071-.086-.259-.07-.463.008-.243.031-.533-.102-.816a.744.744 0 00-.494-.439c-.502-.142-1.122.211-1.373.368-.141.102-.298.149-.423.196.109-.165.251-.369.337-.541.196-.377.032-.69-.188-.997-.172-.243-.165-.431-.165-.439 0-.047-.032-.102-.079-.118-.055-.024-.102-.024-.141.016-.322.298-.439.282-.486.259-.102-.055-.125-.337-.125-.525 0-.047-.016-.094-.063-.118-.039-.023-.102-.023-.125.008-.047.016-.69.455-.863 1.302-.071.313-.165.408-.228.408-.079 0-.22-.173-.267-.502-.094-.628-.291-.659-.753-.722-.103-.008-.212-.031-.346-.055-.204-.039-.329-.094-.36-.172-.016-.086.094-.259.282-.424.204-.18.51-.345 1.027.04.196.149.354.141.455.11.306-.118.408-.581.424-.628.016-.07-.023-.141-.094-.149-.071-.016-.133.023-.157.094-.023.118-.125.376-.259.432-.023.008-.086.039-.228-.055-.494-.376-.934-.384-1.35-.039-.157.141-.416.416-.345.682.055.188.243.314.557.369.142.023.259.039.361.047.408.047.463.055.542.502.055.455.259.737.502.745.125 0 .361-.086.486-.627.102-.471.361-.792.549-.98.032.188.086.408.275.486.165.086.353.039.588-.149.031.094.078.228.172.353.204.267.291.494.172.737a9.053 9.053 0 01-.51.769.119.119 0 000 .141c.032.047.071.071.118.071.008 0 .439-.039.847-.306.173-.109.753-.463 1.161-.337.157.039.259.133.337.306.102.204.086.447.071.675-.016.267-.032.518.149.674.118.11.282.157.541.157.141 0 .314-.016.518-.047.078-.016.125-.086.117-.149-.021-.072-.068-.119-.147-.111z"/><path d="M76.55 114.269c-1.859-1.294-5.79-5.162-5.821-5.201a.173.173 0 00-.11-.04l-.729.118C54.938 96.839 45.768 84.664 44.787 83.338l.346-.188c.047-.024.078-.102.047-.165-.855-1.702-8.331-13.367-9.531-14.967-1.42-1.906-3.961-5.099-4.855-5.099a.494.494 0 00-.212.047c-.737.51.228 3.075 2.542 8.268 2.071 4.644 7.295 13.869 7.342 13.963a.148.148 0 00.149.07l.251-.07c12.025 15.838 22.905 24.169 24.341 25.236l-.102.055a.108.108 0 00-.063.102c-.008.04.016.086.039.11 4.55 4.024 8.495 6.056 11.759 6.056.604 0 1.012-.188 1.129-.534.157-.51-.353-1.2-1.419-1.953zM40.646 84.993c-.541-.957-5.318-9.46-7.28-13.854-1.247-2.808-3.333-7.483-2.636-7.954.016 0 .032-.008.063-.008.557 0 2.337 1.906 4.644 4.981 1.185 1.577 8.386 12.794 9.453 14.826l-.353.188-3.671 1.749-.22.072zm.462.102l3.451-1.64c.832 1.138 9.994 13.359 25.024 25.761l-2.518.659c-.102-.612.196-1.192.204-1.192a.152.152 0 00-.039-.18c-.063-.039-.134-.023-.181.039-.408.486-1.035.777-1.538.738-.188-.016-.447-.086-.596-.322-.369-.604.188-1.098.204-1.114.055-.055.063-.134.023-.188-.055-.055-.125-.055-.18-.008-.275.212-.659.808-.275 1.428.173.282.455.431.8.471.439.023.941-.149 1.365-.479-.055.251-.094.564-.031.871l-1.357.361c-.822-.597-11.969-8.912-24.356-25.205zm36.61 31.049c-.079.219-.392.353-.878.353-3.169 0-7.013-1.969-11.453-5.875l.102-.047 4.385-1.177.714-.102c.447.431 4.04 3.961 5.805 5.185 1.122.784 1.412 1.372 1.325 1.663z"/><path d="M41.924 79.455l-2.667 1.224a.18.18 0 00-.063.086c-.008.031-.008.07.016.094l1.773 3.271a.126.126 0 00.11.063c.016 0 .039 0 .055-.016l2.714-1.294c.031 0 .055-.039.063-.07a.095.095 0 00-.008-.102l-1.828-3.201c-.031-.062-.11-.078-.165-.055zm-.777 4.44l-1.655-3.036 2.44-1.122 1.702 2.989-2.487 1.169z"/><path d="M41.665 80.02l-1.82.839a.103.103 0 00-.07.079.156.156 0 00.008.102l1.419 2.487c.024.047.071.063.118.063.016 0 .039 0 .055-.008l1.796-.855c.039-.031.071-.047.086-.086a.148.148 0 00-.016-.102l-1.412-2.455c-.038-.072-.101-.08-.164-.064zm-.392 3.106l-1.09-1.914 1.208.644-.118 1.27zm-1.028-2.173l1.295-.588-.126 1.216-1.169-.628zm1.279 2.267l.125-1.231 1.161.62-1.286.611zm.141-1.521l.118-1.185 1.027 1.804-1.145-.619z"/><path d="M44.576 82.962a.129.129 0 00-.008-.094l-2.275-3.883v-.008c-.031-.04-2.761-4.409-4.464-6.982l-.094-.141c-3.311-4.965-5.703-8.26-6.676-8.095-.094.008-.165.063-.212.157-.525 1.036 3.475 8.825 3.93 9.704l3.695 7.146v.008l2.267 3.938c.023.039.07.063.11.063a.15.15 0 00.063-.016l3.593-1.71a.138.138 0 00.071-.087zM31.075 64.033l.016-.023h.055c.439 0 1.365.996 2.4 2.314l-1.592.753c-.636-1.538-1.036-2.73-.879-3.044zm3.93 9.468c-.941-1.851-2.118-4.259-2.95-6.197l1.655-.761c1.404 1.828 2.989 4.212 3.797 5.452l.094.142c1.546 2.322 3.938 6.126 4.393 6.856l-3.357 1.553-3.632-7.045zm5.899 10.967l-2.134-3.703 3.357-1.545 2.142 3.663-3.365 1.585zM65.058 107.421c.188.039.298.22.298.22a.13.13 0 00.181.039c.063-.023.086-.118.047-.172a.753.753 0 00-.479-.337c-.212-.039-.432.031-.651.204-.204.172-.4.235-.596.204-.228-.023-.393-.18-.424-.243a.204.204 0 00-.07-.07c-.094-.125-.188-.259-.196-.698-.008-.016-.016-.04-.023-.047.306-.4.557-.533.557-.533.063-.031.094-.118.055-.172-.024-.055-.11-.094-.173-.055-.016.008-.4.196-.792.808-.086.141-.181.212-.267.204-.125 0-.251-.157-.29-.219-.039-.063-.118-.079-.188-.04-.047.032-.07.11-.031.188.023.016.22.322.51.337.149 0 .275-.079.393-.22.047.345.165.486.259.604.008.031.031.047.047.063a.952.952 0 00.612.361h.102c.235 0 .463-.094.675-.267.161-.128.31-.183.444-.159zM62.124 106.048c-.047.071-.023.142.023.188.024.008.047.016.086.016.031 0 .07-.016.094-.047.039-.055.761-1.106.102-1.694-.62-.542-.949-.722-2.008-.471-.071.023-.11.086-.094.157.016.063.086.11.157.094.98-.235 1.224-.079 1.78.416.487.423-.133 1.341-.14 1.341zM59.99 103.647c.173-.188.361-.416.314-.667-.023-.188-.165-.353-.432-.51a5.757 5.757 0 00-.502-.251c-.345-.165-.384-.181-.494-.738a.13.13 0 00-.141-.094c-.063 0-.11.055-.118.125 0 0 0 .039-.055.094-.047.047-.204.133-.597.109-.07-.008-.133.055-.141.126-.008.063.055.133.125.133.33.016.581-.024.745-.142.102.385.235.455.565.62.125.055.283.125.479.243.196.11.298.219.322.329.016.133-.125.291-.259.447-.071.079-.149.165-.204.251-.094.157-.055.251-.008.314.055.078.149.102.251.102s.212-.024.282-.047c.071-.023.11-.086.086-.157-.016-.063-.086-.11-.149-.094a.827.827 0 01-.251.039c.008 0 .008-.016.016-.023.048-.067.103-.138.166-.209zM58.311 100.854c-.133.04-.267.11-.4.229a.134.134 0 00-.008.181.123.123 0 00.094.047.169.169 0 00.086-.031c.525-.455 1.184-.133 1.208-.125.07.039.141.008.172-.047.031-.063.008-.149-.055-.18-.016-.008-.392-.196-.847-.141a2.288 2.288 0 00-.965-.997c-.369-.204-.824-.18-1.208-.094-.055-.11-.079-.463-.055-.746.008-.063-.04-.118-.102-.133s-.125.023-.141.071c-.102.267-.22.408-.361.463-.22.078-.534-.079-.847-.235-.416-.228-.447-1.083-.416-1.404a.15.15 0 00-.125-.141.136.136 0 00-.133.125c-.008.055-.094 1.287.565 1.647.369.196.729.361 1.043.251.094-.047.188-.094.259-.181.016.125.039.251.07.345-.298.094-.518.212-.533.22-.071.031-.086.11-.055.172.04.055.11.086.173.055.008-.008 1.09-.557 1.749-.196.479.265.73.65.832.845z"/></g><path d="M56.734 83.299s-9.264 12.833-25.251 25.965l-.777-.102s-3.954 3.891-5.836 5.209c-1.89 1.326-1.702 2.251-.36 2.251 1.333 0 5.06-.181 11.665-6.017l-.267-.165s11.508-8.26 24.53-25.393l.33.086s5.24-9.256 7.319-13.947c2.102-4.691 3.287-7.656 2.588-8.104-.674-.463-3.702 3.428-4.879 5.005-1.185 1.561-8.645 13.187-9.523 14.952l.461.26z" fill="#FFF"/><g fill="#D91A1B"><path d="M69.286 65.115c.228 0 .408.188.408.4 0 .228-.18.4-.408.4s-.408-.173-.408-.4c0-.211.18-.4.408-.4zM25.561 114.238c1.655-1.13 5.138-4.55 5.169-4.573.04-.032.079-.047.125-.032l4.221 1.114a.174.174 0 01.102.094c.016.04-.008.094-.031.118-.031.023-1.624 1.506-3.922 3.036-2.22 1.475-5.068 2.385-6.44 2.385-.486 0-.761-.11-.839-.337-.033-.15-.174-.582 1.615-1.805zm-1.357 1.717c.023.102.251.165.581.165 1.122 0 3.883-.737 6.307-2.337 1.844-1.224 3.232-2.424 3.687-2.848l-3.915-1.043c-.439.439-3.601 3.483-5.153 4.558-1.555 1.058-1.531 1.443-1.507 1.505z"/><path d="M26 114.873c.455.079.737.063.847-.039.094-.071.079-.259.071-.463-.016-.243-.04-.533.094-.816.118-.228.274-.376.494-.439.502-.142 1.138.211 1.373.368.149.102.298.149.432.196a3.693 3.693 0 01-.338-.541c-.196-.377-.031-.69.188-.997.173-.243.165-.431.165-.439 0-.047.031-.102.078-.118a.13.13 0 01.149.016c.306.298.431.282.462.259.118-.055.157-.337.141-.525 0-.047.016-.094.063-.118.039-.023.086-.023.141.008.016.016.675.455.847 1.302.071.313.165.408.22.408.086 0 .22-.173.267-.502.094-.628.291-.659.761-.722.094-.008.212-.031.345-.055.204-.039.33-.094.354-.172.023-.086-.079-.259-.267-.424-.211-.18-.518-.345-1.027.04-.204.149-.369.141-.471.11-.298-.118-.408-.581-.424-.628-.008-.07.032-.141.11-.149.063-.016.125.023.149.094.023.118.125.376.259.432.023.008.086.039.22-.055.502-.376.941-.384 1.357-.039.157.141.423.416.345.682-.047.188-.235.314-.565.369a4.318 4.318 0 01-.353.047c-.416.047-.463.055-.541.502-.055.455-.259.737-.495.745-.133 0-.376-.086-.494-.627a1.917 1.917 0 00-.549-.98c-.031.188-.102.408-.274.486-.165.086-.353.039-.58-.149-.047.094-.103.228-.188.353-.188.267-.29.494-.165.737.149.282.495.753.51.769a.119.119 0 010 .141c-.032.047-.071.071-.118.071-.008 0-.447-.039-.855-.306-.165-.109-.746-.463-1.153-.337-.157.039-.259.133-.345.306-.094.204-.086.447-.063.675.016.267.023.518-.157.674-.109.11-.282.157-.533.157-.141 0-.322-.016-.518-.047-.079-.016-.126-.086-.11-.149.016-.072.07-.119.141-.111z"/><path d="M24.792 114.269c1.859-1.294 5.789-5.162 5.82-5.201a.169.169 0 01.102-.04l.737.118c14.945-12.307 24.107-24.482 25.095-25.808l-.345-.188a.116.116 0 01-.047-.165c.855-1.702 8.331-13.367 9.539-14.967 1.428-1.906 3.954-5.099 4.848-5.099.079 0 .149.016.204.047.753.51-.212 3.075-2.534 8.268-2.063 4.644-7.288 13.869-7.334 13.963a.142.142 0 01-.149.07l-.243-.07c-12.042 15.838-22.914 24.168-24.35 25.235l.11.055a.172.172 0 01.063.102c0 .04-.023.086-.039.11-4.558 4.024-8.504 6.056-11.759 6.056-.62 0-1.028-.188-1.138-.534-.149-.509.353-1.199 1.42-1.952zm35.912-29.276c.542-.957 5.311-9.46 7.28-13.854 1.239-2.808 3.326-7.483 2.636-7.954-.031 0-.047-.008-.079-.008-.549 0-2.33 1.906-4.644 4.981-1.184 1.577-8.377 12.794-9.452 14.826l.345.188 3.687 1.749.227.072zm-.471.102l-3.459-1.64c-.831 1.138-9.986 13.359-25.016 25.761l2.518.659c.094-.612-.196-1.192-.196-1.192-.031-.07-.016-.141.04-.18a.12.12 0 01.172.039c.408.486 1.043.777 1.538.738.188-.016.447-.086.604-.322.361-.604-.188-1.098-.22-1.114-.039-.055-.055-.134-.008-.188.039-.055.125-.055.172-.008.275.212.659.808.275 1.428-.181.282-.447.431-.8.471-.447.023-.941-.149-1.365-.479.047.251.095.564.032.871l1.357.361c.831-.597 11.954-8.912 24.356-25.205zm-36.61 31.049c.07.219.392.353.887.353 3.153 0 7.005-1.969 11.453-5.875l-.11-.047-4.385-1.177-.722-.102c-.439.431-4.04 3.961-5.805 5.185-1.114.784-1.412 1.372-1.318 1.663z"/><path d="M59.417 79.455l2.66 1.224c.039.023.063.047.063.086.016.031.016.07 0 .094l-1.773 3.271a.125.125 0 01-.109.063c-.016 0-.04 0-.055-.016l-2.722-1.294c-.039 0-.063-.039-.07-.07-.016-.032-.008-.071.008-.102l1.843-3.201c.03-.062.1-.078.155-.055zm.785 4.44l1.647-3.036-2.432-1.122-1.71 2.989 2.495 1.169z"/><path d="M59.684 80.02l1.812.839c.039.008.063.04.078.079 0 .023 0 .063-.008.102l-1.428 2.487c-.023.047-.07.063-.117.063-.016 0-.032 0-.047-.008l-1.82-.855c-.031-.031-.063-.047-.07-.086-.008-.031-.008-.078.008-.102l1.419-2.455c.04-.072.11-.08.173-.064zm.384 3.106l1.098-1.914-1.216.644.118 1.27zm1.036-2.173l-1.294-.588.118 1.216 1.176-.628zm-1.279 2.267l-.125-1.231-1.169.62 1.294.611zm-.141-1.521l-.118-1.185-1.051 1.804 1.169-.619z"/><path d="M56.758 82.962a.19.19 0 01.008-.094l2.283-3.883s0-.008.008-.008c.023-.04 2.753-4.409 4.463-6.982l.094-.141c3.302-4.965 5.695-8.26 6.667-8.095.094.008.165.063.212.157.51 1.036-3.475 8.825-3.93 9.704l-3.695 7.146v.008l-2.267 3.938c-.016.039-.063.063-.109.063a.139.139 0 01-.055-.016l-3.608-1.71a.116.116 0 01-.071-.087zm13.508-18.929c-.016-.023-.016-.023-.023-.023h-.047c-.439 0-1.357.996-2.393 2.314l1.585.753c.635-1.538 1.035-2.73.878-3.044zm-3.938 9.468c.957-1.851 2.134-4.259 2.958-6.197l-1.647-.761c-1.412 1.828-2.989 4.212-3.805 5.452l-.094.142c-1.553 2.322-3.93 6.126-4.385 6.856l3.342 1.553 3.631-7.045zm-5.891 10.967l2.134-3.703-3.357-1.545-2.157 3.663 3.38 1.585zM36.284 107.421c-.188.039-.298.22-.298.22a.128.128 0 01-.18.039c-.063-.023-.086-.118-.047-.172 0-.016.173-.283.471-.337.228-.039.432.031.667.204.196.172.392.235.581.204a.617.617 0 00.431-.243.282.282 0 01.063-.07c.102-.125.196-.259.212-.698 0-.016.008-.04.023-.047-.306-.4-.565-.533-.565-.533-.055-.031-.094-.118-.047-.172.024-.055.102-.094.157-.055.031.008.408.196.792.808.094.141.188.212.267.204.133 0 .259-.157.298-.219a.13.13 0 01.181-.04c.063.032.086.11.047.188-.031.016-.228.322-.518.337h-.008c-.133 0-.267-.079-.392-.22-.04.345-.157.486-.251.604-.008.031-.031.047-.055.063-.071.118-.283.306-.604.361h-.102a1.03 1.03 0 01-.667-.267c-.174-.128-.322-.183-.456-.159zM39.218 106.048c.039.071.031.142-.023.188a.226.226 0 01-.079.016c-.039 0-.086-.016-.102-.047-.031-.055-.761-1.106-.102-1.694.611-.542.949-.722 2.008-.471.071.023.118.086.094.157-.008.063-.086.11-.157.094-.973-.235-1.224-.079-1.781.416-.486.423.142 1.341.142 1.341zM41.352 103.647c-.165-.188-.361-.416-.314-.667.032-.188.173-.353.439-.51.212-.118.369-.196.502-.251.345-.165.384-.181.486-.738a.131.131 0 01.141-.094c.063 0 .11.055.11.125 0 0 0 .039.063.094.047.047.196.133.596.109.07-.008.125.055.141.126 0 .063-.055.133-.125.133-.337.016-.581-.024-.737-.142-.11.385-.235.455-.573.62a4.72 4.72 0 00-.479.243c-.188.11-.298.219-.314.329-.016.133.118.291.259.447.07.079.141.165.204.251.086.157.055.251.008.314-.055.078-.157.102-.259.102s-.204-.024-.274-.047c-.07-.023-.118-.086-.094-.157.016-.063.094-.11.157-.094a.781.781 0 00.243.039s-.008-.016-.016-.023c-.039-.067-.102-.138-.164-.209zM43.022 100.854c.141.04.267.11.408.229.047.047.047.125.016.181a.152.152 0 01-.102.047.114.114 0 01-.086-.031c-.526-.455-1.185-.133-1.208-.125-.063.039-.134.008-.173-.047-.023-.063-.008-.149.063-.18.016-.008.392-.196.839-.141.086-.204.361-.675.957-.997.369-.204.823-.18 1.2-.094.055-.11.086-.463.055-.746 0-.063.055-.118.102-.133.063-.016.133.023.149.071.102.267.22.408.369.463.212.078.526-.079.832-.235.424-.228.455-1.083.432-1.404-.008-.063.055-.133.118-.141.071 0 .133.055.141.125 0 .055.086 1.287-.565 1.647-.376.196-.729.361-1.051.251a.942.942 0 01-.267-.181.937.937 0 01-.07.345c.306.094.525.212.541.22.063.031.086.11.055.172-.032.055-.118.086-.173.055-.008-.008-1.083-.557-1.741-.196-.487.265-.738.65-.841.845z"/></g><g><path d="M64.979 84.601v2.008h-1.185c-.463-.91-1.53-1.537-2.785-1.537-1.231 0-2.307.627-2.777 1.537h-1.844c-.211-.486-.573-.855-1.012-1.012v-7.24s-2.385.094-2.385-1.655h-.22v-1.789h-.33v-3.365h-.384v-1.969h.188v-1.106c1.043-.353 1.851-1.043 2.157-1.891.078.024.165.024.259.024.573 0 1.028-.345 1.028-.777 0-.431-.455-.761-1.028-.761a.92.92 0 00-.259.031c-.361-1.004-1.404-1.789-2.722-2.055a.608.608 0 00.016-.11c0-.423-.463-.769-1.027-.769-.573 0-1.036.345-1.036.769 0 .031.008.071.016.11-1.318.267-2.353 1.051-2.714 2.055a1.012 1.012 0 00-.267-.031c-.572 0-1.027.33-1.027.761 0 .432.455.777 1.027.777.094 0 .181 0 .267-.024.298.847 1.106 1.538 2.157 1.891v1.106h.181v1.969h-.384v3.365h-.322v1.789h-.204s-.298 1.655-2.408 1.655v7.374a1.904 1.904 0 00-.62.651c-.259-.337-.62-.541-1.012-.541-.487 0-.91.306-1.161.769h-.008c-.471-.91-1.538-1.537-2.777-1.537-1.248 0-2.314.627-2.785 1.537H36.18v-2.008H23.921v6.77h12.261v-2.698h1.412c.471.91 1.538 1.545 2.785 1.545 1.239 0 2.306-.635 2.777-1.545h.008c.251.471.674.776 1.161.776.392 0 .753-.204 1.012-.541.165.274.376.502.62.651v.565s-.212 2.729-.51 2.91c-.298.181-8.088.479-8.088.479s-11.609.157-11.609 2.361 11.516 4.456 11.516 4.456 5.405 1.067 8.841 1.067c3.459 0 9.272-.816 9.272-7.743v-3.954c.439-.157.8-.533 1.012-1.027h1.844c.47.91 1.545 1.545 2.777 1.545 1.255 0 2.322-.635 2.785-1.545h1.185v2.698h12.261v-6.77l-12.264-.001z" fill="#FFF"/><g fill="#D91A1B"><path d="M70.917 88.594a.611.611 0 00.612-.604.613.613 0 00-.612-.612.604.604 0 00-.596.612c0 .33.267.604.596.604zm0-1.036a.424.424 0 010 .848.418.418 0 01-.416-.416c0-.243.188-.432.416-.432zM65.928 86.029c.055.047.133.047.18 0l.228-.228.267.267c.055.055.134.055.181 0l.259-.267.235.228c.023.023.047.047.094.047.031 0 .063-.023.086-.047l.235-.228.259.274c.031.016.055.031.086.031.047 0 .071-.016.094-.031l.267-.274.165.172c.055.055.125.055.18 0l.173-.172.228.243c.055.047.133.047.18 0l.243-.243.22.228c.055.047.133.047.18 0l.228-.228.235.228a.124.124 0 00.173 0l.228-.228.22.228a.143.143 0 00.188 0l.235-.228.188.204c.055.047.133.047.18 0l.196-.204.259.259c.047.055.125.055.181 0l.259-.259.22.228c.047.047.125.047.18 0l.22-.228.211.22c.055.047.134.047.181 0l.212-.22.188.188c.055.055.141.055.188 0l.188-.188.235.243c.047.055.142.047.188 0l.235-.243.235.243c.031.016.055.031.102.031.023 0 .055-.016.086-.031l.235-.243.259.274c.023.016.07.031.094.031a.194.194 0 00.094-.031c.047-.047.047-.133 0-.188l-.267-.267.267-.259c.047-.055.047-.133 0-.181-.047-.055-.133-.055-.188 0l-.259.259-.235-.235c-.047-.047-.142-.047-.188 0l-.235.235-.235-.241c-.023-.016-.063-.032-.094-.032s-.07.016-.094.032l-.235.243-.188-.188c-.047-.055-.133-.055-.188 0l-.188.188-.212-.212c-.047-.047-.125-.047-.181 0l-.211.212-.22-.22c-.055-.047-.133-.047-.18 0l-.22.22-.259-.259c-.055-.047-.134-.047-.181 0l-.259.259-.196-.196c-.047-.047-.125-.047-.18 0l-.188.196-.235-.228a.143.143 0 00-.188 0l-.22.228-.228-.228a.124.124 0 00-.173 0l-.235.228-.228-.228c-.047-.047-.125-.047-.18 0l-.22.228-.243-.235c-.047-.047-.125-.047-.18 0l-.228.235-.173-.165a.133.133 0 00-.18 0l-.165.165-.267-.259a.119.119 0 00-.18 0l-.259.259-.235-.228c-.04-.047-.134-.047-.181 0l-.235.228-.259-.259a.109.109 0 00-.086-.047.125.125 0 00-.094.047l-.267.259-.228-.228c-.047-.047-.125-.047-.18 0-.047.055-.047.133 0 .18l.228.228-.228.228c-.047.054-.047.133 0 .18zm9.594-.549l.133.141-.133.141-.149-.141.149-.141zm-.667-.008l.149.149-.149.149-.149-.149.149-.149zm-.612.055l.094.094-.094.102-.094-.102.094-.094zm-.588-.024l.125.118-.125.125-.118-.125.118-.118zm-.604-.008l.125.125-.125.133-.133-.133.133-.125zm-.659-.031l.157.157-.157.173-.173-.173.173-.157zm-.643.055l.102.102-.102.11-.086-.11.086-.102zm-.597-.031l.134.133-.134.141-.149-.141.149-.133zm-.635 0l.125.133-.125.141-.133-.141.133-.133zm-.643 0l.141.133-.141.141-.125-.141.125-.133zm-.636-.008l.149.141-.149.141-.141-.141.141-.141zm-.588.071l.086.07-.086.079-.071-.079.071-.07zm-.612-.095l.181.165-.181.173-.165-.173.165-.165zm-.666.032l.141.133-.141.141-.141-.141.141-.133zm-.675-.032l.165.165-.165.173-.172-.173.172-.165zM76.291 89.904c-.047-.055-.133-.055-.188 0l-.259.267-.235-.235c-.047-.047-.142-.047-.188 0l-.235.235-.235-.251a.188.188 0 00-.094-.031.202.202 0 00-.094.031l-.235.251-.188-.188c-.047-.055-.133-.055-.188 0l-.188.188-.212-.22c-.047-.047-.125-.047-.181 0l-.211.22-.22-.228c-.055-.047-.133-.047-.18 0l-.22.228-.259-.259c-.055-.055-.134-.055-.181 0l-.259.259-.196-.196c-.047-.055-.125-.055-.18 0l-.188.196-.235-.235a.166.166 0 00-.188 0l-.22.235-.228-.235a.143.143 0 00-.173 0l-.235.235-.228-.235c-.047-.039-.125-.039-.18 0l-.22.235-.243-.235c-.047-.047-.125-.047-.18 0l-.228.235-.175-.173c-.055-.055-.125-.055-.18 0l-.165.172-.267-.267a.119.119 0 00-.18 0l-.259.267-.235-.235c-.04-.039-.134-.039-.181 0l-.235.235-.259-.267a.127.127 0 00-.086-.039.149.149 0 00-.094.039l-.267.267-.228-.235c-.047-.039-.125-.039-.18 0-.047.055-.047.141 0 .188l.228.228-.228.228c-.047.047-.047.125 0 .18.055.047.133.047.18 0l.228-.228.267.259c.055.055.134.055.181 0l.259-.259.235.228c.023.023.047.031.094.031a.119.119 0 00.086-.031l.235-.228.259.259c.031.032.055.047.086.047a.103.103 0 00.094-.047l.267-.259.165.157c.055.055.125.055.18 0l.173-.157.228.235c.055.047.133.047.18 0l.243-.235.22.228c.055.047.133.047.18 0l.228-.228.235.228a.124.124 0 00.173 0l.228-.228.22.228a.143.143 0 00.188 0l.235-.228.188.196c.055.047.133.047.18 0l.196-.196.259.251c.047.055.125.055.181 0l.259-.251.22.22c.047.047.125.047.18 0l.22-.22.211.212c.055.047.134.047.181 0l.212-.212.188.188c.055.047.141.047.188 0l.188-.188.235.243c.047.047.142.047.188 0l.235-.243.235.235c.031.016.055.031.102.031.023 0 .055-.016.086-.031l.235-.235.259.259c.023.032.07.047.094.047a.122.122 0 00.094-.047c.047-.047.047-.125 0-.18l-.267-.259.267-.267c.049-.054.049-.133.002-.18zm-9.594.62l-.172-.172.172-.173.165.173-.165.172zm.675-.039l-.141-.133.141-.142.141.142-.141.133zm.666.039l-.165-.172.165-.173.181.173-.181.172zm.612-.102l-.071-.07.071-.079.086.079-.086.07zm.588.07l-.141-.141.141-.149.149.149-.149.141zm.636-.007l-.125-.133.125-.142.141.142-.141.133zm.643 0l-.133-.133.133-.142.125.142-.125.133zm.635 0l-.149-.133.149-.142.134.142-.134.133zm.597-.024l-.086-.109.086-.11.102.11-.102.109zm.643.047l-.173-.157.173-.173.157.173-.157.157zm.659-.031l-.133-.125.133-.134.125.134-.125.125zm.604-.008l-.118-.118.118-.125.125.125-.125.118zm.588-.016l-.094-.102.094-.102.094.102-.094.102zm.612.047l-.149-.149.149-.149.149.149-.149.149zm.667-.008l-.149-.141.149-.149.133.149-.133.141z"/><path d="M69.254 87.598v.776h.581c.016.031.039.071.039.11l-.4.416.542.549.416-.416c.031.016.071.031.102.047v.573h.777v-.573c.047-.016.07-.031.118-.047l.408.416.541-.549-.416-.416c.023-.039.04-.079.055-.11h.58v-.776h-.58a.753.753 0 00-.055-.11l.416-.408-.541-.557-.408.416c-.047-.016-.071-.031-.118-.047v-.581h-.777v.581c-.031.016-.071.031-.102.047l-.416-.416-.542.557.4.408c0 .039-.023.07-.039.11h-.581zm.753-.235l-.283-.283.291-.298.282.29.086.086.125-.055c.023-.016.063-.023.094-.039l.118-.047V86.5h.4v.517l.133.047c.032.016.055.023.086.039l.118.055.102-.086.274-.29.29.298-.282.283-.094.086.047.118c.016.032.039.063.047.094l.039.118h.534v.416h-.534l-.039.118a.36.36 0 01-.047.094l-.047.118.094.094.282.283-.29.282-.274-.282-.102-.094-.116.06c-.031.008-.055.024-.086.032l-.133.047v.525h-.4v-.525l-.118-.047c-.031-.008-.071-.024-.094-.032l-.125-.063-.086.094-.282.282-.291-.282.283-.283.094-.094-.055-.118a.332.332 0 01-.039-.094l-.04-.118h-.533v-.414h.533l.04-.118a.468.468 0 01.039-.094l.055-.118-.096-.085z"/><path d="M77.24 84.468H64.979c-.063 0-.125.063-.125.133v1.891h-.98c-.51-.918-1.593-1.554-2.863-1.554-1.255 0-2.346.636-2.848 1.554h-1.687c-.22-.455-.565-.808-.973-.981V83.323v-4.966c0-.032-.008-.063-.039-.086-.024-.023-.063-.047-.094-.04h-.047c-.361 0-2.173-.07-2.204-1.506.016-.039.008-.086-.031-.11-.023-.039-.055-.047-.094-.047H52.9v-1.655c0-.079-.055-.141-.125-.141h-.196v-3.224c0-.063-.063-.118-.134-.118h-.243v-1.718h.047c.07 0 .133-.063.133-.134v-1.02c.996-.361 1.765-1.012 2.102-1.844a.664.664 0 00.181.016c.643 0 1.161-.408 1.161-.902 0-.486-.518-.902-1.161-.902-.063 0-.118 0-.181.023-.392-.965-1.388-1.718-2.651-2.016 0-.502-.525-.902-1.161-.902s-1.161.4-1.161.902c-1.263.298-2.267 1.051-2.659 2.016-.063-.023-.11-.023-.181-.023-.635 0-1.153.416-1.153.902 0 .494.518.902 1.153.902.071 0 .125 0 .181-.016.337.832 1.114 1.483 2.102 1.844v1.02c0 .071.071.134.141.134h.047v1.718h-.251a.122.122 0 00-.125.118v3.224h-.196c-.07 0-.133.063-.133.141v1.655h-.071c-.016 0-.023 0-.047.008l-.008.008c-.016.008-.016.016-.031.023l-.008.008c-.008 0-.016.016-.016.023-.008.008-.008.016-.008.024v.008c-.008.023-.313 1.561-2.291 1.561-.063 0-.125.063-.125.126v7.311a1.692 1.692 0 00-.502.502c-.274-.283-.627-.455-1.004-.455-.471 0-.879.259-1.161.667-.526-.855-1.577-1.443-2.785-1.443-1.271 0-2.354.636-2.871 1.554h-1.2v-1.891c0-.071-.063-.133-.125-.133H23.921c-.07 0-.125.063-.125.133v6.77c0 .071.055.125.125.125h12.261a.128.128 0 00.125-.125v-2.565h1.2c.518.91 1.6 1.545 2.871 1.545 1.208 0 2.259-.588 2.785-1.443.282.416.69.667 1.161.667.376 0 .729-.165 1.004-.455.133.204.306.376.502.51v.486c-.102 1.239-.298 2.667-.439 2.808a.768.768 0 01-.157.031h-.016c-.267.04-.784.079-1.53.125 0 0 0 .008-.016.008-1.694.102-4.338.22-6.331.291-1.192.023-11.719.228-11.719 2.495 0 2.251 10.417 4.346 11.602 4.581.055.008 3.49.683 6.612.957.055.008.103.008.157.016h.078c.094 0 .181.008.267.023a.93.93 0 01.149.008c.079.008.149.016.22.016.063.008.118.008.18.008.063.008.118.008.173.016.079 0 .157.008.228.008.039 0 .07.008.11.008.243.008.486.008.706.008 6.15 0 9.397-2.73 9.397-7.868v-3.867c.408-.172.753-.526.973-.98h1.687c.502.91 1.592 1.545 2.848 1.545 1.271 0 2.354-.636 2.863-1.545h.98v2.565c0 .071.063.125.125.125h12.261c.071 0 .133-.055.133-.125v-6.771a.134.134 0 00-.131-.135zm-16.23.73c1.114 0 2.071.525 2.557 1.294h-.949a1.897 1.897 0 00-1.608-.91c-.659 0-1.239.361-1.601.91h-.949c.486-.769 1.452-1.294 2.55-1.294zm-1.365 1.396c.306-.455.8-.753 1.365-.753.525 0 .988.251 1.302.651h-.024c-.063 0-.133.055-.133.117v2.063c0 .078.071.133.133.133h.024c-.314.384-.777.643-1.302.643-.565 0-1.059-.298-1.365-.761v-2.079-.014zm-3.459-.102h-.565c-.181-.251-.432-.393-.698-.393s-.51.141-.698.393h-.565c.283-.51.746-.84 1.263-.84s.98.33 1.263.84zm-.762.172v1.961c-.141.188-.314.306-.502.306-.172 0-.33-.094-.471-.259v-2.056c.141-.165.298-.259.471-.259.188.001.361.119.502.307zm-.588 3.232l-.243.204-.282-.22.094-.079c.133.056.282.095.431.095zm-8.15.008c.157 0 .306-.023.447-.079l.071.055-.275.22-.243-.196zm1.184-4.118a.26.26 0 01.251-.259c.149 0 .259.118.259.259s-.109.259-.259.259a.26.26 0 01-.251-.259zm4.04 1.216v1.294h-3.491a3.006 3.006 0 000-1.294h3.491zm.761 1.882l.274.22-.274.22-.274-.22.274-.22zm-1.161-.172l-.274.228-.274-.228.212-.165h.125l.211.165zm-1.286-.165h.118l.211.165-.282.228-.267-.228.22-.165zm.329 1.718l-.282.22-.267-.22.267-.228.282.228zm-.549-.777l.267-.219.282.219-.282.228-.267-.228zm.478 3.475l.274-.219.267.219-.267.228-.274-.228zm.071.393l-.282.219-.267-.219.267-.228.282.228zm-.282-.55l-.267-.228.267-.22.282.22-.282.228zm-.197.157l-.274.228-.282-.228.282-.219.274.219zm0 .777l-.274.22-.282-.22.282-.22.274.22zm0 .769l-.274.22-.282-.22.282-.22.274.22zm-.07-.377l.267-.228.282.228-.282.22-.267-.22zm.753.157l.267.22-.267.22-.274-.22.274-.22zm-.275-.549l.274-.22.267.22-.267.22-.274-.22zm.479-.384l.274-.228.274.228-.274.219-.274-.219zm0-.777l.274-.22.274.22-.274.228-.274-.228zm-.204-.165l-.274-.22.274-.22.267.22-.267.22zm-.486-.384l-.267-.228.267-.212.282.212-.282.228zm-.197.165l-.274.22-.282-.22.282-.22.274.22zm-.486.384l-.267.228-.274-.228.274-.22.267.22zm0 .777l-.267.219-.274-.219.274-.228.267.228zm0 .776l-.267.22-.274-.22.274-.228.267.228zm0 .769l-.267.219-.274-.219.274-.22.267.22zm0 .769l-.267.22-.274-.22.274-.22.267.22zm-.07-.385l.282-.22.274.22-.274.211-.282-.211zm.486-.384l.267-.22.282.22-.282.219-.267-.219zm.753.165l.267.22-.267.211-.274-.211.274-.22zm.204-.165l.274-.22.274.22-.274.219-.274-.219zm0-.769l.274-.228.274.228-.274.22-.274-.22zm.486-.392l.267-.22.274.22-.274.22-.267-.22zm0-.777l.267-.219.274.219-.274.228-.267-.228zm0-.768l.267-.22.274.22-.274.22-.267-.22zm-.212-.165l-.274-.228.274-.212.274.212-.274.228zm-.478-.393l-.274-.211.274-.22.267.22-.267.211zm-.486-.384l-.267-.212.267-.227.282.227-.282.212zm-.197.173l-.274.211-.282-.211.282-.22.274.22zm-.486.376l-.267.228-.274-.228.274-.212.267.212zm-.471.393l-.274.22-.274-.22.274-.22.274.22zm0 .768l-.274.228-.274-.228.274-.219.274.219zm0 .777l-.274.22-.274-.22.274-.22.274.22zm0 .769l-.274.22-.274-.22.274-.22.274.22zm0 .776l-.274.211-.274-.211.274-.22.274.22zm-.478.385l-.274.22-.274-.22.274-.22.274.22zm0 .768l-.274.228-.274-.228.274-.211.274.211zm-.071-.384l.274-.22.274.22-.274.228-.274-.228zm.753.173l.267.211-.267.228-.274-.228.274-.211zm.197-.173l.282-.22.274.22-.274.228-.282-.228zm.486-.384l.267-.22.282.22-.282.22-.267-.22zm.753.164l.267.22-.267.228-.274-.228.274-.22zm.204-.164l.274-.22.274.22-.274.22-.274-.22zm.486-.385l.267-.22.274.22-.274.211-.267-.211zm0-.776l.267-.22.274.22-.274.22-.267-.22zm.471-.377l.274-.228.274.228-.274.22-.274-.22zm0-.776l.274-.228.274.228-.274.219-.274-.219zm0-.777l.274-.22.274.22-.274.228-.274-.228zm0-.777l.274-.212.274.212-.274.228-.274-.228zm-.204-.165l-.267-.211.267-.22.274.22-.274.211zm-.479-.384l-.274-.212.274-.227.274.227-.274.212zm-.478-.384l-.274-.22.274-.22.267.22-.267.22zm-.683-.22l-.274.22-.282-.22.282-.22.274.22zm-.486.392l-.267.212-.274-.212.274-.227.267.227zm-.471.385l-.274.211-.274-.211.274-.22.274.22zm-.478.376l-.274.228-.274-.228.274-.212.274.212zm0 .777l-.274.228-.274-.228.274-.22.274.22zm0 .777l-.274.219-.274-.219.274-.228.274.228zm0 .776l-.274.22-.274-.22.274-.228.274.228zm0 .769l-.274.219-.274-.219.274-.22.274.22zm-.478.384l-.275.211-.274-.211.274-.22.275.22zm0 .769l-.275.228-.274-.228.274-.22.275.22zm-.479.384l-.275.228-.274-.228.274-.211.275.211zm0 .777l-.275.22-.274-.22.274-.22.275.22zm-.071-.384l.274-.22.275.22-.275.22-.274-.22zm.753.164l.274.22-.274.22-.274-.22.274-.22zm.204-.164l.274-.22.274.22-.274.22-.274-.22zm.753.164l.267.22-.267.22-.274-.22.274-.22zm.197-.164l.282-.22.274.22-.274.22-.282-.22zm.486-.393l.267-.211.282.211-.282.228-.267-.228zm.753.173l.267.22-.267.22-.274-.22.274-.22zm.204-.173l.274-.211.274.211-.274.228-.274-.228zm.486-.384l.267-.22.274.22-.274.228-.267-.228zm.471-.384l.274-.22.274.22-.274.22-.274-.22zm0-.769l.274-.22.274.22-.274.219-.274-.219zm.479-.392l.274-.22.274.22-.274.22-.274-.22zm0-.769l.274-.22.274.22-.274.22-.274-.22zm0-.777l.274-.219.274.219-.274.228-.274-.228zm0-.768l.274-.22.274.22-.274.22-.274-.22zm0-.769l.274-.22.274.22-.274.211-.274-.211zm-.205-.173l-.274-.212.274-.227.274.227-.274.212zm-.478-.384l-.267-.22.267-.22.274.22-.274.22zm-.479-.384l-.274-.22.274-.228.274.228-.274.22zm-.478-.385l-.274-.22.274-.228.267.228-.267.22zm-.275-.996l.274-.22.267.22-.267.22-.274-.22zm-.408 0l-.274.22-.282-.22.282-.22.274.22zm0 .777l-.274.22-.282-.22.282-.228.274.228zm-.486.384l-.267.22-.274-.22.274-.228.267.228zm-.471.384l-.274.22-.274-.22.274-.22.274.22zm-.478.392l-.274.212-.274-.212.274-.227.274.227zm-.478.385l-.275.211-.274-.211.274-.22.275.22zm0 .769l-.275.22-.274-.22.274-.22.275.22zm0 .768l-.275.228-.274-.228.274-.219.275.219zm0 .777l-.275.22-.274-.22.274-.22.275.22zm0 .769l-.275.22-.274-.22.274-.22.275.22zm-.479.392l-.275.219-.274-.219.274-.22.275.22zm0 .769l-.275.22-.274-.22.274-.22.275.22zm-.478.384l-.275.228-.274-.228.274-.22.275.22zm0 .777l-.275.22-.274-.22.274-.22.275.22zm0 .776l-.275.22-.274-.22.274-.228.275.228zm.203.157l.275.227-.275.22-.274-.22.274-.227zm.204-.157l.274-.228.275.228-.275.22-.274-.22zm.753.157l.274.227-.274.22-.274-.22.274-.227zm.204-.157l.274-.228.274.228-.274.22-.274-.22zm.753.157l.267.227-.267.22-.274-.22.274-.227zm.197-.157l.282-.228.274.228-.274.22-.282-.22zm.486-.392l.267-.22.282.22-.282.22-.267-.22zm.753.165l.267.228-.267.22-.274-.22.274-.228zm.204-.165l.274-.22.274.22-.274.22-.274-.22zm.486-.384l.267-.22.274.22-.274.22-.267-.22zm.471-.393l.274-.211.274.211-.274.228-.274-.228zm.479-.384l.274-.22.274.22-.274.228-.274-.228zm0-.769l.274-.22.274.22-.274.211-.274-.211zm.478-.384l.274-.22.282.22-.282.219-.274-.219zm0-.769l.274-.228.282.228-.282.22-.274-.22zm0-.776l.274-.228.282.228-.282.219-.274-.219zm0-.777l.274-.22.282.22-.282.228-.274-.228zm0-.777l.274-.212.282.212-.282.228-.274-.228zm0-.761l.274-.227.282.227-.282.212-.274-.212zm-.204-.172l-.274-.22.274-.22.274.22-.274.22zm-.479-.384l-.274-.22.274-.228.274.228-.274.22zm-.478-.385l-.267-.22.267-.228.274.228-.274.22zm-.479-.384l-.274-.228.274-.219.274.219-.274.228zm-.478-1.161l-.016-.008h.023l-.007.008zm-.957 0l-.008-.008h.008v.008zm-.541-.008h.125l.204.165-.267.228-.274-.228.212-.165zm.329.941l-.267.228-.274-.228.274-.219.267.219zm-.471.393l-.274.22-.274-.22.274-.228.274.228zm-.478.384l-.274.22-.274-.22.274-.228.274.228zm-.478.384l-.275.22-.274-.22.274-.22.275.22zm-.479.392l-.275.212-.274-.212.274-.227.275.227zm0 .761l-.275.228-.274-.228.274-.212.275.212zm0 .777l-.275.228-.274-.228.274-.22.275.22zm0 .777l-.275.219-.274-.219.274-.228.275.228zm0 .776l-.275.22-.274-.22.274-.228.275.228zm-.478.377l-.275.22-.274-.22.274-.22.275.22zm0 .776l-.275.211-.274-.211.274-.22.275.22zm-.479.385l-.275.22-.274-.22.274-.22.275.22zm0 .768l-.275.228-.274-.228.274-.211.275.211zm0 .777l-.275.22-.274-.22.274-.22.275.22zm-.478.392l-.275.22-.274-.22.274-.228.275.228zm.203.157l.275.227-.275.22-.274-.22.274-.227zm.479.392l.275.219-.275.22-.274-.22.274-.219zm.275.997l-.275.212-.274-.212.274-.228.275.228zm-.071-.392l.274-.22.275.22-.275.22-.274-.22zm.478-.385l.274-.219.275.219-.275.22-.274-.22zm.753.165l.274.22-.274.22-.274-.22.274-.22zm.204-.165l.274-.219.274.219-.274.22-.274-.22zm.753.165l.267.22-.267.22-.274-.22.274-.22zm.197-.165l.282-.219.274.219-.274.22-.282-.22zm.486-.385l.267-.227.282.227-.282.22-.267-.22zm.753.165l.267.219-.267.22-.274-.22.274-.219zm.204-.165l.274-.227.274.227-.274.22-.274-.22zm.486-.384l.267-.228.274.228-.274.22-.267-.22zm.471-.392l.274-.22.274.22-.274.22-.274-.22zm.479-.384l.274-.22.274.22-.274.22-.274-.22zm.478-.393l.274-.211.282.211-.282.228-.274-.228zm0-.768l.274-.22.282.22-.282.22-.274-.22zm.486-.385l.267-.22.274.22-.274.211-.267-.211zm0-.776l.267-.22.274.22-.274.22-.267-.22zm0-.769l.267-.22.274.22-.274.22-.267-.22zm0-.777l.267-.219.274.219-.274.228-.267-.228zm0-.768l.267-.22.274.22-.274.22-.267-.22zm0-.769l.267-.22.274.22-.274.211-.267-.211zm0-.777l.267-.22.274.22-.274.22-.267-.22zm-.212-.164l-.274-.22.274-.228.282.228-.282.22zm-.478-.385l-.274-.22.274-.228.274.228-.274.22zm-.204-.612l-.274.228-.274-.228.274-.219.274.219zm-.753-.165l-.267-.22.267-.22.274.22-.274.22zm-.008-.776h.016l-.008.008-.008-.008zm-2.855 0l-.008.008-.008-.008h.016zm.266.557l-.274.22-.274-.22.274-.22.274.22zm-.478.384l-.274.228-.274-.228.274-.219.274.219zm-.478.393l-.275.22-.274-.22.274-.228.275.228zm-.479.384l-.275.22-.274-.22.274-.228.275.228zm-.478.384l-.275.22-.274-.22.274-.22.275.22zm-.479.392l-.275.212-.274-.212.274-.227.275.227zm.204.165l.275.22-.275.211-.274-.211.274-.22zm.275.989l-.275.22-.274-.22.274-.22.275.22zm0 .768l-.275.228-.274-.228.274-.219.275.219zm0 .777l-.275.22-.274-.22.274-.22.275.22zm-.479.392l-.275.22-.274-.22.274-.228.275.228zm0 .769l-.275.219-.274-.219.274-.22.275.22zm-.478.384l-.275.211-.274-.211.274-.22.275.22zm0 .769l-.275.228-.274-.228.274-.22.275.22zm0 .777l-.275.22-.274-.22.274-.22.275.22zm-.487.384l-.267.22-.274-.22.274-.22.267.22zm0 .776l-.267.22-.274-.22.274-.227.267.227zm.212.165l.275.219-.275.22-.274-.22.274-.219zm.478.385l.275.22-.275.22-.274-.22.274-.22zm.275.996l-.275.212-.274-.212.274-.22.275.22zm.204.165l.275.22-.275.219-.274-.219.274-.22zm.204-.165l.274-.22.275.22-.275.212-.274-.212zm.478-.384l.274-.228.275.228-.275.212-.274-.212zm.753.164l.274.22-.274.212-.274-.212.274-.22zm.204-.164l.274-.228.274.228-.274.212-.274-.212zm.753.164l.267.22-.267.212-.274-.212.274-.22zm.197-.164l.282-.228.274.228-.274.212-.282-.212zm.486-.392l.267-.22.282.22-.282.22-.267-.22zm.753.164l.267.228-.267.212-.274-.212.274-.228zm.204-.164l.274-.22.274.22-.274.22-.274-.22zm.486-.385l.267-.219.274.219-.274.22-.267-.22zm.471-.385l.274-.227.274.227-.274.22-.274-.22zm.479-.384l.274-.228.274.228-.274.22-.274-.22zm.478-.392l.274-.22.282.22-.282.22-.274-.22zm.486-.384l.267-.22.274.22-.274.22-.267-.22zm0-.777l.267-.22.274.22-.274.228-.267-.228zm.471-.384l.274-.22.274.22-.274.22-.274-.22zm0-.769l.274-.22.274.22-.274.219-.274-.219zm0-.769l.274-.228.274.228-.274.22-.274-.22zm0-.776l.274-.228.274.228-.274.219-.274-.219zm0-.777l.274-.22.274.22-.274.228-.274-.228zm0-.777l.274-.212.274.212-.274.228-.274-.228zm0-.761l.274-.227.274.227-.274.212-.274-.212zm0-.776l.274-.228.274.228-.274.22-.274-.22zm-.204-.165l-.267-.22.267-.228.274.228-.274.22zm-.479-.384l-.274-.228.274-.219.282.219-.282.228zm-.164-.91h.337l-.173.133-.164-.133zm-.793.133l-.172-.141c.008 0 .016.008.016.008h.322l-.166.133zm-.282-2.196h-.416l.149-.118h.133l.133.102.001.016zm-1.381 0l.157-.118h.141l.149.118h-.447zm-.949 0l.149-.118h.141l.149.118h-.439zm-.957 0l.142-.118h.149l.149.118h-.44zm-.282 1.804h.086l.211.165-.274.228-.141-.11a2.05 2.05 0 00.118-.283zm-.243.51l.063.047-.26.204c.071-.071.142-.165.197-.251zm-1.373 1.208l-.275.22-.274-.22.274-.228.275.228zm-.478.384l-.22.181c.008-.118.016-.235.031-.33l.189.149zm0 .777l-.275.211-.039-.023c.016-.133.039-.267.055-.4l.259.212zm.203.165l.275.212-.275.228-.274-.228.274-.212zm.275.988l-.275.228-.274-.228.274-.22.275.22zm0 .777l-.275.219-.274-.219.274-.228.275.228zm-.478.384l-.275.22-.274-.22.274-.22.275.22zm0 .769l-.275.22-.274-.22.274-.22.275.22zm-.487.392l-.267.219-.274-.219.274-.22.267.22zm0 .769l-.267.22-.274-.22.274-.22.267.22zm0 .768l-.267.228-.274-.228.274-.211.267.211zm-.479.393l-.219.172v-.353l.219.181zm0 .776l-.196.157c-.008-.11-.008-.22-.016-.33l.212.173zm0 .769l-.148.126c-.016-.086-.016-.181-.024-.275l.172.149zm-.062.385l.274-.22.267.22-.267.22-.274-.22zm.062.392l-.094.071c-.008-.055-.008-.11-.016-.165l.11.094zm.691-.228l.275.228-.275.212-.274-.212.274-.228zm.275.997l-.275.219-.274-.219.274-.22.275.22zm.203.164l.275.212-.275.235-.274-.235.274-.212zm.479.392l.275.212-.275.228-.274-.228.274-.212zm.204-.18l.274-.212.275.212-.275.235-.274-.235zm.478-.376l.274-.22.275.22-.275.219-.274-.219zm.753.164l.274.212-.274.235-.274-.235.274-.212zm.204-.164l.274-.22.274.22-.274.219-.274-.219zm.753.164l.267.212-.267.235-.274-.235.274-.212zm.197-.164l.282-.22.274.22-.274.219-.282-.219zm.486-.385l.267-.22.282.22-.282.212-.267-.212zm.753.165l.267.22-.267.219-.274-.219.274-.22zm.204-.165l.274-.22.274.22-.274.212-.274-.212zm.486-.384l.267-.228.274.228-.274.212-.267-.212zm.471-.392l.274-.22.274.22-.274.22-.274-.22zm.479-.385l.274-.219.274.219-.274.22-.274-.22zm.478-.385l.274-.227.282.227-.282.22-.274-.22zm.486-.384l.267-.228.274.228-.274.22-.267-.22zm.471-.392l.274-.22.274.22-.274.22-.274-.22zm0-.777l.274-.211.274.211-.274.228-.274-.228zm.479-.384l.282-.22.267.22-.267.228-.282-.228zm0-.769l.282-.22.267.22-.267.211-.282-.211zm0-.776l.282-.22.267.22-.267.22-.282-.22zm0-.769l.282-.22.267.22-.267.22-.282-.22zm0-.777l.282-.219.267.219-.267.228-.282-.228zm0-.768l.282-.22.267.22-.267.22-.282-.22zm0-.769l.282-.22.267.22-.267.211-.282-.211zm0-.777l.282-.22.267.22-.267.22-.282-.22zm-.205-.933l-.274-.228.023-.023c.086.086.188.157.282.22l-.031.031zm-.478-.393l-.267-.22.118-.102c.063.094.133.188.204.275l-.055.047zm-1.467-.776v-1.804h2.032v1.804h-2.032zm3.091-3.985c-1.099.235-2.659.353-4.644.353-1.922 0-3.444-.118-4.519-.361v-1.067c1.09.228 2.612.345 4.519.345 1.977 0 3.522-.118 4.644-.345v1.075zm-8.762-2.706a.523.523 0 00.518-.518.516.516 0 00-.918-.314v-.447c1.098.274 2.612.408 4.519.408 1.977 0 3.522-.126 4.644-.4v.439a.503.503 0 00-.408-.196.516.516 0 00-.518.51c0 .283.235.518.518.518a.488.488 0 00.408-.204v.188c-1.099.274-2.659.408-4.644.408-1.922 0-3.444-.149-4.519-.408v-.188a.474.474 0 00.4.204zm-.26-.518a.26.26 0 01.259-.251.26.26 0 01.259.251.263.263 0 01-.259.267.263.263 0 01-.259-.267zm8.873 0a.263.263 0 01-.259.267c-.141 0-.251-.118-.251-.267 0-.133.11-.251.251-.251a.26.26 0 01.259.251zm.149-2.84v1.145h-1.161c.282-.157.463-.416.463-.714a.756.756 0 00-.274-.572c.399.102.768.133.972.141zm-.957.431c0 .353-.4.651-.902.651-.494 0-.902-.298-.902-.651 0-.345.408-.643.902-.643.502 0 .902.299.902.643zm-5.044-.384c0-.565.635-1.036 1.412-1.036.792 0 1.419.471 1.419 1.036s-.627 1.036-1.419 1.036c-.777 0-1.412-.471-1.412-1.036zm.557 1.098h-1.169c.267-.149.439-.392.455-.659a1.5 1.5 0 00.714.659zm2.432-.658c.016.267.196.51.462.659h-1.176c.322-.15.58-.385.714-.659zm.651-1.993c.079.494.353.832.683 1.043-.055-.008-.118-.008-.181-.008-.471 0-.871.22-1.051.525v-.008c0-.267-.11-.518-.291-.714l.84-.838zm-1.028.659c-.298-.243-.729-.393-1.2-.393-.455 0-.879.142-1.177.377l-.777-.785h3.954l-.8.801zm2.801-12.457c.494 0 .902.282.902.635 0 .369-.408.651-.902.651s-.903-.282-.903-.651c0-.353.408-.635.903-.635zm-.44-.188c-.416.133-.714.455-.714.824 0 .376.298.698.714.839a2.67 2.67 0 01-.659.895c-.377-.636-.549-1.294-.51-1.961a3.615 3.615 0 01.462-1.553c.315.273.558.595.707.956zm-.91-1.114a3.849 3.849 0 00-.518 1.694c-.031.737.157 1.451.565 2.157-.063.047-.118.102-.188.149-.502-.745-.753-1.506-.706-2.291.04-.753.346-1.388.644-1.851.07.032.133.087.203.142zm-2.643-1.6c.494 0 .894.282.894.643 0 .361-.4.643-.894.643-.502 0-.902-.282-.902-.643 0-.361.4-.643.902-.643zM46.67 66.48c-.494 0-.902-.282-.902-.651 0-.353.408-.635.902-.635s.902.282.902.635c0 .369-.408.651-.902.651zm.447.189c.416-.141.706-.463.706-.839s-.29-.69-.706-.824c.141-.361.392-.682.698-.957.243.424.439.957.471 1.553.031.667-.134 1.326-.51 1.977-.29-.275-.525-.581-.659-.91zm.855 1.074c.416-.698.604-1.42.573-2.157-.039-.674-.267-1.239-.518-1.71.063-.04.133-.094.204-.125.298.463.604 1.098.643 1.851.04.785-.204 1.545-.706 2.291l-.196-.15zm1.161.604h-.008a4.915 4.915 0 01-.738-.321c.542-.792.792-1.608.746-2.44-.04-.808-.369-1.49-.675-1.977.33-.188.698-.314 1.106-.416.142.376.581.643 1.106.643.518 0 .973-.267 1.106-.643.408.094.776.228 1.114.416-.321.486-.643 1.168-.683 1.977-.047.832.212 1.647.745 2.44a5.391 5.391 0 01-.745.321c-.125.039-.251.071-.376.118l-.361.071h-.039a1.906 1.906 0 01-.353.039s-.016.016-.023.016a12.58 12.58 0 01-.777 0c-.008 0-.016-.016-.023-.016-.118 0-.228-.016-.353-.039h-.031a4.536 4.536 0 01-.738-.189zm.141 1.099h-.055v-.792a3.06 3.06 0 00.305.071c.023.016.047.016.063.024.103.016.212.039.314.047h.04c.235.047.479.07.729.07.243 0 .494-.023.722-.07h.039c.11-.008.212-.031.313-.047.016-.008.04-.008.071-.024.086-.016.18-.039.267-.063.016-.008.024-.008.032-.008v.792h-.055-2.785zm2.66.267v1.718H49.4v-1.718h2.534zm-2.911 1.976h3.295v1.522h-3.294l-.001-1.522zm0 1.773h3.294v1.31h-3.294v-1.31zm-.329 1.569H52.639v1.538h-3.946l.001-1.538zm-.267 1.914l.871.863a1.103 1.103 0 00-.298.737v.008c-.188-.306-.588-.525-1.059-.525-.165 0-.33.031-.471.086.589-.369.855-.887.957-1.169zm-.486 1.341c.502 0 .902.298.902.643 0 .353-.4.651-.902.651s-.902-.298-.902-.651c0-.344.4-.643.902-.643zm-1.852.212a2.937 2.937 0 001.067-.228c-.228.165-.369.4-.369.659 0 .298.181.557.455.714h-1.153v-1.145zm0 1.412h9.163v.408c-1.099.267-2.659.408-4.644.408-1.922 0-3.444-.141-4.519-.408v-.408zm0 2.189c1.098.267 2.612.392 4.519.392 1.977 0 3.522-.125 4.644-.392v1.122c-1.099.228-2.659.353-4.644.353-1.922 0-3.444-.125-4.519-.361v-1.114zm0 2.722c1.09.227 2.612.353 4.519.353 1.977 0 3.522-.125 4.644-.353v.604a1.616 1.616 0 00-.33-.039c-.494 0-.934.251-1.263.651a.49.49 0 00.071-.251.51.51 0 00-.518-.51c-.283 0-.51.22-.51.51 0 .282.228.518.51.518a.494.494 0 00.353-.157c-.039.07-.094.149-.134.211h-5.255c-.016-.016-.024-.039-.04-.063a.51.51 0 00-.016-1.02.521.521 0 00-.51.439 1.532 1.532 0 00-.926-.33 1.41 1.41 0 00-.596.133l.001-.696zm7.382.965c0 .141-.118.259-.259.259s-.251-.118-.251-.259c0-.142.11-.259.251-.259s.259.117.259.259zm-13.092-.588c1.098 0 2.063.525 2.542 1.294h-.941c-.353-.549-.941-.91-1.6-.91-.667 0-1.263.361-1.608.91h-.957c.485-.769 1.45-1.294 2.564-1.294zm-1.381 1.396a1.674 1.674 0 011.381-.753c.518 0 .98.251 1.286.651h-.016c-.078 0-.133.055-.133.117v2.063c0 .078.055.133.133.133h.016a1.656 1.656 0 01-1.286.643 1.662 1.662 0 01-1.381-.761s.008-.008.008-.016v-2.063c0 .001-.008-.007-.008-.014zm-2.957 4.644H24.047v-6.511h11.994v1.765h-1.13c-.07 0-.133.055-.133.117v2.063c0 .078.063.133.133.133h1.13v2.433zm-.997-2.691v-1.804h3.703v1.804h-3.703zm5.335 1.546c-1.114 0-2.079-.526-2.565-1.287h.957c.345.541.941.902 1.608.902.659 0 1.255-.361 1.6-.902h.941c-.478.761-1.443 1.287-2.541 1.287zm1.396-1.546v-1.804h2.29v1.804h-2.29zm2.55.776c-.384 0-.722-.188-.965-.518h.84c.008 0 .016-.008.031-.008.031 0 .063.008.094.008.518 0 .941-.518.941-1.161 0-.635-.423-1.153-.941-1.153-.032 0-.063 0-.094.008-.016-.008-.023-.008-.031-.008h-.809c.228-.337.549-.518.934-.518.722 0 1.294.745 1.294 1.671s-.573 1.679-1.294 1.679zm0-.776v-1.804c.376 0 .682.408.682.902 0 .502-.306.902-.682.902zm1.168.361c.118-.149.204-.337.267-.534.173.486.518.808.926.808.581 0 1.043-.675 1.043-1.538s-.463-1.545-1.043-1.545c-.408 0-.753.322-.926.816a1.956 1.956 0 00-.267-.542c.283-.439.706-.722 1.192-.722.855 0 1.553.895 1.553 1.993 0 1.106-.698 2-1.553 2-.486.001-.909-.29-1.192-.736zm.408-1.263c0-.698.361-1.287.784-1.287.432 0 .785.588.785 1.287s-.353 1.287-.785 1.287c-.423-.001-.784-.589-.784-1.287zm.236 2.149l.11.086-.157.125v-.235c.008.009.031.016.047.024zm-.267 2.267l.102-.086.275.22-.275.22-.149-.118.047-.236zm.102.683l.275.219-.275.228-.274-.228.274-.219zm-.636.51l.102-.086c.031-.008.063-.016.078-.023l.243.212-.267.219-.18-.149c.017-.056.017-.119.024-.173zm-.07.47l.016.016-.016.016v-.032zm-.039.4l.267-.22.267.228-.267.22-.274-.22c-.001 0 .007 0 .007-.008zm-.047.306l.102.078-.117.094c.007-.054.015-.109.015-.172zm-.055.73l.157.125-.172.141c.007-.094.007-.18.015-.266zm.156.894l-.211.181c.008-.118.008-.228.016-.337l.195.156zm-12.739-1.953l.479-.243c.337-.031.69-.063 1.02-.079l-1.553.816c.023-.165.023-.33.054-.494zm-.078.792l2.212-1.146c.33-.031.659-.039.965-.055l-3.208 1.67c.007-.155.015-.312.031-.469zm-2.103 2.996l-1.984-1.788 2-1.357a11.25 11.25 0 00-.016 3.145zm-2.18-1.968l-1.02-.91a.12.12 0 00-.181.008.134.134 0 00.008.181l.973.871-.957.651c-.063.047-.07.118-.039.18.031.04.07.055.11.055.023 0 .055 0 .07-.024l1.02-.682 2.267 2.04c0 .063.016.125.047.188-2.495-.8-4.604-1.733-4.604-2.604 0-.855 2.11-1.412 4.604-1.742-.016.079-.047.173-.055.267l-2.243 1.521zm4.118 3.098a4.205 4.205 0 00-.235-.063c-.439-.125-.878-.259-1.317-.392-.4-1.843-.181-3.554-.008-4.479.495-.055 1.012-.11 1.569-.165-.251 1.687-.141 3.656.016 5.107-.017-.008-.025-.008-.025-.008zm.126-3.357l3.82-1.993.926-.023-4.754 2.479c0-.157 0-.306.008-.463zm-.008.753l5.342-2.792c.274-.016.596-.023.957-.031l-6.291 3.271c-.008-.15-.008-.299-.008-.448zm.016.729l6.879-3.577.965-.047-7.821 4.071a45.693 45.693 0 01-.023-.447zm.039.73l8.417-4.377c.313-.023.643-.031.965-.055l-9.343 4.872a6.996 6.996 0 01-.039-.44zm.047.721l9.955-5.185c.337-.016.667-.031.981-.055l-10.889 5.671a4.532 4.532 0 00-.047-.431zm.337.573l10.661-5.562a6.529 6.529 0 00-.071.494l-10.001 5.224c-.197-.054-.393-.108-.589-.156zm.965.251l9.594-5.004a9.71 9.71 0 00-.055.479l-8.959 4.666c-.188-.047-.384-.093-.58-.141zm.972.236l8.55-4.456c-.016.157-.016.306-.031.471l-7.915 4.126a80.577 80.577 0 01-.604-.141zm.989.227l7.515-3.915c-.008.157-.008.306-.023.463l-6.88 3.585c-.188-.039-.393-.086-.612-.133zm1.506.314c-.157-.023-.322-.063-.494-.094l6.479-3.381v.463l-5.844 3.043c-.094-.023-.141-.031-.141-.031zm.557.102l5.444-2.832c0 .157 0 .298.008.447l-4.801 2.502a7.098 7.098 0 01-.651-.117zm1.075.188l4.393-2.291c0 .149.016.306.031.447l-3.757 1.953a4.89 4.89 0 01-.667-.109zm1.09.189l3.349-1.757c.016.149.032.298.04.432l-2.707 1.419-.682-.094zm1.122.156l2.314-1.2c.008.141.032.282.055.423l-1.671.871c-.243-.023-.471-.062-.698-.094zm1.138.148l1.271-.667c.023.157.047.29.079.423l-.635.322c-.253-.014-.472-.046-.715-.078zm1.184.135l.211-.11c.008.047.008.094.023.142-.069-.009-.156-.024-.234-.032zm1.726.125h-.165c-.055 0-.117-.008-.165-.008-.055-.008-.11-.008-.165-.016-.063-.008-.126-.008-.196-.016-.039 0-.094 0-.133-.008l-.251-.023c-.032 0-.063 0-.086-.008-.016 0-.039 0-.063-.008-.306-1.381-.69-4.158-.149-7.821.573-.031.997-.07 1.271-.102-.212 1.373-.557 4.526.165 8.009l-.063.001zm.093-1.317v-.008l.008.008h-.008zm-.039-.385h-.008l.267-.22.267.22-.267.212-.259-.212zm.11.879a7.172 7.172 0 01-.023-.196l.172-.133.267.212-.267.235-.149-.118zm.197.839c-.016-.008-.024-.008-.032-.008-.031-.102-.047-.227-.078-.345l.063-.04.267.212-.22.181zm.399.008l.031-.024.023.024h-.054zm.032-.345l-.274-.228.274-.212.275.212-.275.228zm.526.337h-.102l-.22-.18.274-.212.275.212-.227.18zm.431-.016zm.588-.023c-.079.008-.133.008-.196.016l-.188-.157.274-.212.275.212-.165.141zm.094-.526l.274-.212.275.212-.275.228-.274-.228zm1.012.408c-.149.016-.29.04-.447.047l-.086-.071.274-.212.274.212-.015.024zm.22-.18l-.274-.228.274-.212.274.212-.274.228zm.29.093l.188-.149.102.086c-.094.017-.188.04-.29.063zm.761-.172c-.047.016-.094.023-.141.031l-.235-.18.282-.212.274.212-.18.149zm.11-.541l.267-.212.282.212-.282.235-.267-.235zm.525.353l.228-.173.079.063a3.043 3.043 0 01-.307.11zm.589-.22l-.157-.133.274-.212.235.196c-.117.047-.227.102-.352.149zm.596-.29l-.267-.219.267-.22.274.22-.274.219zm.478-.392l-.274-.212.274-.22.274.22-.274.212zm.479-.384l-.274-.212.274-.228.274.228-.274.212zm.478-.386l-.274-.22.274-.22.282.22-.282.22zm.699-.564l-.22.18-.267-.22.267-.219.267.211c-.024.017-.04.04-.047.048zm.188-.259l-.204-.165.274-.227.118.094a3.263 3.263 0 01-.188.298zm.321-.518l-.047-.031.102-.086c-.007.039-.031.078-.055.117zm.307-.643l-.071.055-.282-.22.282-.22.165.133c-.031.08-.063.166-.094.252zm.18-.509l-.055-.047.086-.063c.001.039-.016.07-.031.11zm.18-.628l-.235-.188.274-.22.031.023c-.023.126-.046.259-.07.385zm.134-.816l-.094.078-.274-.219.274-.22.125.102c-.016.086-.023.173-.031.259zm.078-.831l-.173.141-.274-.22.274-.228.181.141c0 .056-.008.118-.008.166zm.016-.793l-.188.157-.274-.219.274-.228.188.157v.133zm0-.768l-.188.157-.274-.228.274-.22.188.149v.142zm0-.769l-.188.149-.274-.228.274-.212.188.141v.15zm0-.769l-.188.141-.274-.212.274-.227.188.149v.149zm0-.776l-.188.149-.274-.22.274-.228.188.157v.142zm-.33-.691c-.518 0-.98-.33-1.263-.839h.565c.188.243.432.376.698.376s.518-.133.698-.376h.565c-.282.51-.745.839-1.263.839zm.761-1.098v-1.804h3.71v1.804h-3.71zm5.327 1.546c-1.098 0-2.063-.526-2.55-1.287h.949c.361.541.941.902 1.601.902.675 0 1.263-.361 1.608-.902h.949c-.486.761-1.443 1.287-2.557 1.287zm1.412-1.546v-1.804h3.702v1.804h-3.702zm14.692 2.691H65.112v-2.432h1.146c.07 0 .125-.055.125-.133V86.61c0-.063-.055-.117-.125-.117h-1.146v-1.765h12.002v6.51z"/><path d="M24.862 86.029a.143.143 0 00.188 0l.22-.228.267.267c.055.055.141.055.181 0l.267-.267.228.228a.145.145 0 00.086.039c.04 0 .079-.016.094-.039l.235-.228.259.267a.13.13 0 00.086.039c.039 0 .07-.016.094-.039l.267-.267.172.172c.047.055.126.055.181 0l.165-.172.228.243a.143.143 0 00.188 0l.235-.243.227.228c.047.047.126.047.181 0l.22-.228.235.228c.039.047.125.047.172 0l.235-.228.228.228c.047.047.118.047.172 0l.235-.228.188.204c.055.047.133.047.181 0l.196-.204.259.259a.119.119 0 00.18 0l.259-.259.22.228a.133.133 0 00.18 0l.22-.228.22.22c.047.047.125.047.188 0l.196-.22.188.188c.063.055.133.055.18 0l.188-.188.251.243c.039.047.125.047.188 0l.228-.243.243.243a.217.217 0 00.094.031c.04 0 .063-.016.079-.031l.243-.243.267.267c.016.023.055.039.102.039.023 0 .047-.016.086-.039.039-.047.039-.125 0-.181l-.267-.267.267-.259c.039-.055.039-.133 0-.181a.128.128 0 00-.188 0l-.267.259-.243-.235c-.039-.047-.133-.047-.172 0l-.243.235-.227-.241c-.032-.016-.063-.032-.094-.032a.162.162 0 00-.094.032l-.251.243-.188-.188c-.047-.055-.117-.055-.18 0l-.188.188-.196-.212c-.063-.047-.142-.047-.188 0l-.22.212-.22-.22a.133.133 0 00-.18 0l-.22.22-.259-.259a.133.133 0 00-.18 0l-.259.259-.196-.196c-.047-.047-.126-.047-.181 0l-.188.196-.235-.228c-.055-.047-.125-.047-.172 0l-.228.228-.235-.228c-.047-.047-.133-.047-.172 0l-.235.228-.22-.228c-.055-.047-.133-.047-.181 0l-.227.228-.235-.235a.143.143 0 00-.188 0l-.228.235-.165-.165c-.055-.047-.133-.047-.181 0l-.172.165-.267-.259c-.047-.055-.125-.055-.181 0l-.259.259-.235-.228a.133.133 0 00-.18 0l-.228.228-.267-.259a.11.11 0 00-.086-.047.11.11 0 00-.094.047l-.267.259-.22-.228a.143.143 0 00-.188 0c-.047.055-.047.133 0 .18l.228.228-.228.228a.13.13 0 00-.002.18zm9.594-.549l.134.141-.134.141-.149-.141.149-.141zm-.659-.008l.149.149-.149.149-.157-.149.157-.149zm-.619.055l.094.094-.094.102-.102-.102.102-.094zm-.573-.024l.11.118-.11.125-.133-.125.133-.118zm-.62-.008l.125.125-.125.133-.134-.133.134-.125zm-.659-.031l.157.157-.157.173-.172-.173.172-.157zm-.627.055l.094.102-.094.11-.118-.11.118-.102zm-.612-.031l.133.133-.133.141-.141-.141.141-.133zm-.636 0l.134.133-.134.141-.141-.141.141-.133zm-.635 0l.133.133-.133.141-.133-.141.133-.133zm-.643-.008l.149.141-.149.141-.141-.141.141-.141zm-.581.071l.071.07-.071.079-.079-.079.079-.07zm-.619-.095l.172.165-.172.173-.165-.173.165-.165zm-.675.032l.142.133-.142.141-.133-.141.133-.133zm-.667-.032l.172.165-.172.173-.181-.173.181-.165zM34.535 89.935c-.039-.047-.133-.047-.172 0l-.243.235-.228-.251a.155.155 0 00-.094-.031c-.04 0-.071.008-.094.031l-.251.251-.188-.188c-.047-.055-.117-.055-.18 0l-.188.188-.196-.22c-.063-.047-.142-.047-.188 0l-.22.22-.22-.228a.133.133 0 00-.18 0l-.22.228-.259-.259a.119.119 0 00-.18 0l-.259.259-.196-.196c-.047-.055-.126-.055-.181 0l-.188.196-.235-.235c-.055-.039-.125-.039-.172 0l-.228.235-.235-.235c-.047-.039-.133-.039-.172 0l-.235.235-.22-.235c-.055-.039-.133-.039-.181 0l-.227.235-.235-.235a.143.143 0 00-.188 0l-.228.235-.167-.172c-.055-.055-.133-.055-.181 0l-.172.172-.267-.267c-.047-.055-.125-.055-.181 0l-.259.267-.235-.235a.153.153 0 00-.18 0l-.228.235-.267-.267a.13.13 0 00-.086-.039.13.13 0 00-.094.039l-.267.267-.22-.235a.166.166 0 00-.188 0c-.047.055-.047.141 0 .188l.228.228-.228.228c-.047.047-.047.125 0 .18a.143.143 0 00.188 0l.22-.228.267.259c.055.055.141.055.181 0l.267-.259.228.228a.132.132 0 00.086.031c.04 0 .079-.008.094-.031l.235-.228.259.259a.107.107 0 00.086.047c.039 0 .07-.016.094-.047l.267-.259.172.157c.047.055.126.055.181 0l.165-.157.228.235a.143.143 0 00.188 0l.235-.235.227.228c.047.047.126.047.181 0l.22-.228.235.228c.039.047.125.047.172 0l.235-.228.228.228c.047.047.118.047.172 0l.235-.228.188.196c.055.047.133.047.181 0l.196-.196.259.251a.119.119 0 00.18 0l.259-.251.22.22a.133.133 0 00.18 0l.22-.22.22.212c.047.047.125.047.188 0l.196-.212.188.188c.063.047.133.047.18 0l.188-.188.251.243c.039.047.125.047.188 0l.228-.243.243.235a.217.217 0 00.094.031c.04 0 .063-.016.079-.031l.243-.235.267.259c.016.032.055.047.102.047.023 0 .047-.016.086-.047.039-.047.039-.125 0-.18l-.267-.259.267-.267c.039-.055.039-.133 0-.18a.128.128 0 00-.188 0l-.267.267-.242-.236zm-8.904.589l-.181-.172.181-.173.172.173-.172.172zm.667-.039l-.133-.133.133-.142.142.142-.142.133zm.675.039l-.165-.172.165-.173.172.173-.172.172zm.619-.102l-.079-.07.079-.079.071.079-.071.07zm.581.07l-.141-.141.141-.149.149.149-.149.141zm.643-.007l-.133-.133.133-.142.133.142-.133.133zm.635 0l-.141-.133.141-.142.134.142-.134.133zm.636 0l-.141-.133.141-.142.133.142-.133.133zm.612-.024l-.118-.109.118-.11.094.11-.094.109zm.627.047l-.172-.157.172-.173.157.173-.157.157zm.659-.031l-.134-.125.134-.134.125.134-.125.125zm.62-.008l-.133-.118.133-.125.11.125-.11.118zm.573-.024l-.102-.094.102-.102.094.102-.094.094zm.619.055l-.157-.149.157-.149.149.149-.149.149zm.659-.008l-.149-.141.149-.149.134.149-.134.141zM31.53 88.374v-.776h-.581c-.016-.04-.031-.071-.047-.11l.408-.408-.541-.557-.408.416c-.039-.016-.07-.031-.118-.047v-.581h-.776v.581c-.032.016-.071.031-.102.047l-.416-.416-.541.557.408.408c-.016.039-.031.07-.047.11h-.588v.776h.588c.016.031.031.071.047.11l-.408.416.541.549.416-.416a.51.51 0 00.102.039v.581h.776v-.581c.047-.008.079-.023.118-.039l.408.416.541-.549-.408-.416c.016-.039.031-.079.047-.11h.581zm-.76.243l.282.283-.282.282-.275-.282-.102-.094-.102.062c-.047.008-.071.024-.102.032l-.133.047v.525h-.4v-.525l-.118-.047c-.047-.008-.07-.024-.102-.032l-.109-.063-.094.094-.283.282-.29-.282.282-.283.086-.094-.039-.118c-.024-.023-.04-.063-.055-.094l-.031-.118h-.533v-.414h.525l.039-.118.047-.094.047-.118-.086-.086-.282-.283.29-.298.283.29.094.086.109-.055c.032-.016.055-.023.102-.039l.118-.047v-.517h.4v.517l.133.047c.031.016.055.023.102.039l.102.055.102-.086.275-.29.282.298-.282.283-.086.086.047.118c.024.032.04.063.04.094l.039.118h.541v.416h-.533l-.039.118a.214.214 0 01-.047.094l-.047.118.085.093z"/><path d="M29.859 87.378a.606.606 0 00-.604.612.604.604 0 001.208 0 .611.611 0 00-.604-.612zm0 1.028a.424.424 0 010-.848c.243 0 .432.188.432.432a.422.422 0 01-.432.416zM51.573 86.303a.517.517 0 00.518-.518.506.506 0 00-.518-.51c-.282 0-.51.22-.51.51 0 .283.228.518.51.518zm0-.776c.149 0 .259.118.259.259s-.11.259-.259.259a.267.267 0 01-.259-.259c0-.142.125-.259.259-.259zM51.573 82.115a.51.51 0 100-1.02.516.516 0 00-.51.518c0 .274.228.502.51.502zm0-.761c.149 0 .259.11.259.259 0 .141-.11.259-.259.259a.267.267 0 01-.259-.259.26.26 0 01.259-.259zM53.212 82.028a.516.516 0 00.518-.51.516.516 0 00-.518-.51.509.509 0 100 1.02zm0-.761c.141 0 .259.11.259.251 0 .149-.118.267-.259.267s-.251-.118-.251-.267c0-.141.11-.251.251-.251zM49.761 86.303c.282 0 .51-.235.51-.518a.504.504 0 00-.51-.51c-.29 0-.518.22-.518.51 0 .283.228.518.518.518zm0-.776c.133 0 .259.118.259.259s-.125.259-.259.259a.257.257 0 01-.259-.259c0-.142.11-.259.259-.259zM49.761 82.115c.282 0 .51-.228.51-.502a.516.516 0 00-.51-.518.517.517 0 00-.518.518.51.51 0 00.518.502zm0-.761c.133 0 .259.11.259.259a.266.266 0 01-.259.259.257.257 0 01-.259-.259c0-.149.11-.259.259-.259zM48.121 82.028a.516.516 0 00.518-.51.516.516 0 00-.518-.51.51.51 0 100 1.02zm0-.761a.25.25 0 01.259.251.258.258 0 01-.259.267c-.133 0-.251-.118-.251-.267 0-.141.118-.251.251-.251zM51.832 65.829c0-.486-.525-.902-1.161-.902s-1.161.416-1.161.902c0 .494.525.902 1.161.902.635.001 1.161-.408 1.161-.902zm-2.063 0c0-.353.4-.635.902-.635.494 0 .894.282.894.635 0 .369-.4.651-.894.651-.502 0-.902-.282-.902-.651z"/></g></g></svg>