<svg xmlns="http://www.w3.org/2000/svg" viewBox="2.84 48.38 277.8 186.71"><path fill="#D6D4D1" d="M2.835 48.378H280.63v186.708H2.835z"/><path fill="#CD0E26" d="M278.441 232.818V50.676H5.22z"/><path d="M5.22 232.818h273.221L5.22 50.676z"/><path d="M62.976 206.541l-3.271 10.033c0 .023.016.047.031.063.023.016.047.016.063 0l8.55-6.205 8.535 6.205h.079c.016-.016.016-.039.016-.063l-3.271-10.033 8.527-6.205c.031-.016.031-.039.031-.063-.031-.031-.031-.039-.063-.039H71.659l-3.255-10.041c-.023-.047-.094-.047-.11 0l-3.271 10.041H54.489c-.031 0-.047.008-.063.039 0 .021 0 .047.032.063l8.518 6.205zM94.126 157.146l-3.279 10.041c0 .022.016.047.031.063.032.017.048.017.063 0l8.55-6.204 8.55 6.204h.063c.031-.016.031-.039.031-.063l-3.279-10.041 8.534-6.205c.031-.017.031-.04.031-.063-.031-.031-.031-.039-.063-.039H102.8l-3.248-10.041c-.031-.047-.094-.047-.11 0l-3.278 10.041H85.638c-.031 0-.047.008-.063.039 0 .023 0 .047.031.063l8.52 6.205zM31.67 159.742l-3.271 10.041c0 .023.016.047.031.063.023.016.047.016.063 0l8.551-6.203 8.542 6.203h.07c.023-.016.023-.039.023-.063L42.4 159.742l8.535-6.205c.032-.016.032-.039.032-.063-.032-.031-.032-.039-.063-.039h-10.55l-3.256-10.041c-.023-.048-.094-.048-.11 0l-3.271 10.041H23.182c-.031 0-.047.008-.063.039 0 .023 0 .047.031.063l8.52 6.205zM62.976 125.236l-3.271 10.041c0 .023.016.047.031.063.023.016.047.016.063 0l8.55-6.205 8.535 6.205h.079c.016-.016.016-.039.016-.063l-3.271-10.041 8.527-6.205c.031-.016.031-.039.031-.063-.031-.031-.031-.039-.063-.039H71.659l-3.255-10.041c-.023-.047-.094-.047-.11 0l-3.271 10.041H54.489c-.031 0-.047.008-.063.039 0 .023 0 .047.032.063l8.518 6.205zM79.613 180.568l-1.631 5.029c0 .008.016.021.016.029.016.008.031.008.031 0l4.284-3.105 4.267 3.105h.032c.016-.008.016-.021.016-.029l-1.631-5.029 4.268-3.1c.016-.008.016-.021.016-.029-.016-.018-.016-.023-.031-.023h-5.29l-1.632-5.021c0-.021-.047-.021-.047 0l-1.631 5.021h-5.271c-.016 0-.023.008-.031.023 0 .008 0 .021.016.029l4.249 3.1z" fill="#FFF"/><path d="M236.106 138.273s-.604-8.794-3.797-12.653c-3.192-3.859-2.244-3.396-1.718-3.106.518.298 2.619 2.354 2.822 1.655.205-.706-1.199-3.734-1.021-3.938.183-.204 1.97 1.067 2.581 1.632.604.565 2.645 1.694 2.645 1.694s-.888-6.149-4-10.801l2.125.722s-3.938-7.319-8.183-11.256c0 0 .494-.408 1.983-.494 0 0-2.979-3.703-10.08-7.593 0 0 1.568-1.098 4.088-1.835 0 0-10.322-5.985-20.85.07 0 0-.283-.824 2.744-2.949 3.02-2.126 2.165-3.012 1.992-3.161-.188-.157-2.087-1.271-1.428-1.812.675-.541 2.471-1.655 2.697-2.589 0 0-.393-.98-2.729-.863 0 0-.222-.408 1.442-2.361 1.646-1.961.762-2.424-1.866-2.023 0 0 3.229-4.879-1.113-3.255 0 0 0-.729 1.442-3.146 1.429-2.408 1.615-3.491-.473-2.51-2.103.973-9.271 5.326-12.974 11.202s-1.224 12.794-1.351 14.104c-.142 1.31-.799 6.691-3.983 4.84-3.185-1.859-4.487-2.652-5.711-4.095s-2.464-2.393-6.165-1.287c-3.719 1.106-8.361.313-10.561-.047 0 0 1.916 1.2 4.205 2.103 2.274.902 3.403 1.624 4.33 2.847.926 1.216 2.307 1.083 4.707 2.353 2.398 1.263 4.424 2.98 3.247 4.762-1.178 1.788-3.403.815-5.853-.337-2.434-1.153-8.535-4.989-15.549 2.102-6.996 7.099-9.977 16.473-9.662 16.473s2.729-2.031 4.47-3.906c0 0-.188 1.467-.878 2.777-.705 1.311.472.722.736.542.283-.181 2.494-1.898 4.611-2.659 0 0 .314.243-.25 1.733-.564 1.49.047 2.259 1.176.926 1.131-1.334 2.824-2.369 2.824-2.369s-.078 1.286-.611 2.533c-.518 1.239.252 1.938.252 1.938s4.849-4.675 5.332-4.565c.504.118.283 1.357.096 1.946-.188.588-.518 1.898-.188 2.376 0 0 5.162-5.248 5.68-5.091.519.165.252 1.718.158 2.557-.095.839-.222 2.212-.019 2.416 0 0 4.032-3.883 5.054-6.26 0 0-1.695 10.778 13.225 19.823 0 0 .611-.879.189-4.04 0 0 3.779 3.71 5.756 4.487 0 0-.108-1.624.36-2.918 0 0 8.063 9.294 18.138 12.096 0 0-.652-1.992-2.3-4.839 0 0 2.888 1.176 3.702 1.137 0 0-4.542-6.33-4.95-8.025 0 0 1.382-.047 2.38.157 0 0-3.688-4.613-5.107-6.754-1.428-2.149.697-1.765 1.514-1.153 0 0-.994-3.326-1.27-4.659-.269-1.334-.041-1.491 1.449-.722 1.489.769 6.439 4.792 6.143 1.2 0 0 10.613 8.127 15.258 15.422 0 0-1.688 20.724-21.878 14.276 0 0 5.608 7.114 15.132 2.832 9.516-4.275 9.516-11.932 9.516-11.932s10.244 24.953-15.781 24.042c0 0 11.806 6.33 19.336-5.06 7.548-11.394-3.238-24.712-3.238-24.712zm-18.261-17.289s-.408-1.271 1.082-.683c1.49.588 6.135 4.479 6.213.408 0 0 5.178 4.487 7.287 12.99 0 .001-8.982-9.828-14.582-12.715z" fill="#FCD11A"/></svg>