<svg xmlns="http://www.w3.org/2000/svg" viewBox="2.84 48.37 277.8 186.72"><path fill="#D6D4D1" d="M2.835 48.373H280.63v186.718H2.835z"/><path fill="#FFF" d="M5.172 50.664v182.16l136.623-91.084z"/><path fill="#CD0E26" d="M141.795 141.74L5.172 232.824h273.245V141.74z"/><path fill="#234292" d="M5.172 50.656v.008l136.607 91.076h136.638V50.656z"/><g fill="#FCD11A"><path d="M87.597 139.418a.178.178 0 00-.126-.047l-16.607 1.083a17.538 17.538 0 00-.079-.792l15.141-1.993a.186.186 0 00.141-.11.16.16 0 00-.047-.165l-1.805-1.813a.178.178 0 00-.141-.039l-13.509 2.683a17.031 17.031 0 00-2.447-5.899l11.453-7.656a.155.155 0 00.07-.133v-2.55a.185.185 0 00-.086-.149.172.172 0 00-.173.023l-12.12 9.296a13.68 13.68 0 00-.51-.62l12.513-10.975a.157.157 0 00.055-.125v-3.122a.16.16 0 00-.157-.165h-3.13a.166.166 0 00-.118.055l-10.982 12.512c-.188-.165-.392-.33-.612-.51l9.296-12.12c.039-.047.039-.11.016-.165-.023-.055-.086-.086-.149-.086h-2.549a.155.155 0 00-.134.071l-7.656 11.445a16.87 16.87 0 00-5.899-2.439l2.683-13.509a.149.149 0 00-.039-.149l-1.812-1.804a.134.134 0 00-.157-.039c-.063.016-.102.07-.11.133l-1.993 15.14c-.251-.023-.518-.055-.8-.071L56.1 108c.008-.047-.008-.086-.047-.125l-2.212-2.212a.167.167 0 00-.22 0l-2.212 2.212c-.032.039-.055.078-.047.125l1.083 16.615c-.282.016-.549.047-.8.071l-1.993-15.14a.14.14 0 00-.11-.133.134.134 0 00-.157.039l-1.804 1.804c-.047.039-.063.094-.047.149l2.683 13.509a16.952 16.952 0 00-5.899 2.439l-7.656-11.445a.156.156 0 00-.134-.071h-2.549c-.063 0-.125.032-.149.086-.023.055-.023.118.023.165l9.296 12.12c-.212.173-.424.337-.62.51l-10.983-12.512a.15.15 0 00-.11-.055h-3.138a.16.16 0 00-.157.165v3.122c0 .047.016.094.055.125l12.513 10.975a9.431 9.431 0 00-.502.62l-12.128-9.296a.158.158 0 00-.165-.023.167.167 0 00-.086.149v2.55c0 .055.016.102.063.133l11.453 7.656a17.012 17.012 0 00-2.447 5.899l-13.509-2.683a.187.187 0 00-.141.039l-1.804 1.813a.142.142 0 00-.039.165c.023.055.07.102.133.11l15.141 1.993c-.031.251-.047.51-.079.792l-16.607-1.083a.175.175 0 00-.118.047l-2.22 2.212a.161.161 0 000 .228l2.22 2.212a.174.174 0 00.118.048l16.607-1.091c.031.29.047.55.079.801l-15.141 1.991a.163.163 0 00-.133.11c-.024.055-.008.118.039.165l1.804 1.804a.162.162 0 00.141.047l13.509-2.689a17.007 17.007 0 002.447 5.907l-11.453 7.647a.157.157 0 00-.063.133v2.559c0 .063.031.118.086.141a.142.142 0 00.165-.016l12.128-9.296c.157.212.329.416.502.62l-12.513 10.974c-.039.024-.055.071-.055.118v3.13c0 .086.071.157.157.157h3.138c.039 0 .086-.017.11-.056l10.982-12.512c.196.173.408.345.62.51l-9.296 12.12c-.047.047-.047.117-.023.172.023.056.086.086.149.086h2.549a.153.153 0 00.134-.07l7.656-11.453a16.97 16.97 0 005.899 2.448l-2.683 13.508c-.016.047 0 .103.047.142l1.804 1.812c.04.041.11.058.157.032.063-.017.11-.071.11-.126l1.993-15.147c.259.032.518.055.8.079l-1.083 16.605a.149.149 0 00.047.126l2.212 2.212c.031.031.063.047.11.047s.079-.016.11-.047l2.212-2.212a.127.127 0 00.047-.126l-1.083-16.605c.282-.023.541-.047.8-.079l1.993 15.147a.153.153 0 00.11.126.144.144 0 00.157-.032l1.812-1.812c.039-.039.055-.095.039-.142l-2.683-13.508a16.907 16.907 0 005.899-2.448l7.656 11.453c.031.047.079.07.134.07h2.557c.094.009.165-.07.165-.156a.165.165 0 00-.063-.134l-9.272-12.088c.22-.173.424-.337.612-.51l10.982 12.512c.032.04.071.056.118.056h3.13a.158.158 0 00.157-.157v-3.13c0-.047-.016-.094-.055-.118l-12.513-10.975c.173-.204.345-.408.51-.62l12.12 9.296c.047.039.11.047.173.016a.16.16 0 00.086-.141v-2.559a.163.163 0 00-.07-.133l-11.453-7.647a16.996 16.996 0 002.447-5.907l13.509 2.689a.156.156 0 00.141-.047l1.805-1.804c.047-.047.063-.11.047-.165a.17.17 0 00-.141-.11l-15.141-1.991c.031-.251.055-.511.079-.801l16.607 1.091a.216.216 0 00.126-.048l2.212-2.212a.161.161 0 000-.228l-2.211-2.212zM19.355 84.741l1.514 6.496a.167.167 0 00.141.125h.016a.175.175 0 00.149-.094l2.832-6.032 6.645.564h.016a.16.16 0 00.165-.165c0-.063-.04-.11-.086-.141l-4.833-4.534 2.589-6.143c.016-.063 0-.141-.047-.18-.047-.047-.125-.055-.188-.024l-5.836 3.216-5.036-4.361a.18.18 0 00-.188-.016.146.146 0 00-.078.165l1.255 6.55-5.711 3.452a.152.152 0 00-.07.165c.016.071.07.118.133.133l6.618.824zM24.007 198.253l-2.832-6.041c-.032-.055-.094-.104-.165-.086a.163.163 0 00-.141.117l-1.514 6.494-6.621.832a.162.162 0 00-.133.125c-.016.063.016.135.07.174l5.711 3.45-1.255 6.543c-.016.063.016.134.078.175a.226.226 0 00.079.016.145.145 0 00.11-.04l5.036-4.354 5.836 3.209c.032.016.063.031.086.023.086-.016.165-.071.165-.157a.165.165 0 00-.039-.108l-2.565-6.097 4.864-4.565a.153.153 0 00.031-.18.172.172 0 00-.157-.095l-6.644.565zM120.976 141.591l-6.292-2.189-.141-6.668a.169.169 0 00-.11-.149.16.16 0 00-.18.055l-4.024 5.318-6.386-1.938c-.063-.016-.126.008-.173.063a.166.166 0 000 .188l3.805 5.468-3.805 5.477a.155.155 0 000 .181c.047.063.11.078.173.063l6.386-1.931 4.024 5.312c.031.04.086.063.133.063.016 0 .031 0 .047-.008a.159.159 0 00.11-.148l.141-6.66 6.292-2.189a.169.169 0 00.109-.157.162.162 0 00-.109-.151z"/></g></svg>