<svg xmlns="http://www.w3.org/2000/svg" viewBox="2.84 48.38 277.79 186.71"><path fill="#D6D4D1" d="M2.835 48.376h277.794v186.712H2.835z"/><path fill="#FFF" d="M5.149 50.65h91.082v182.155H5.149z"/><path fill="#02411D" d="M96.224 50.642h182.14v182.156H96.224z"/><g fill="#FFF"><path d="M232.702 160.009a.275.275 0 00-.354.032 44.708 44.708 0 01-2.148 2.055A43.066 43.066 0 01201.553 173a43.231 43.231 0 01-32.28-14.488c-7.647-8.621-11.5-19.696-10.817-31.212.676-11.5 5.789-22.051 14.41-29.707.668-.596 1.396-1.2 2.307-1.906a.266.266 0 00.078-.345.275.275 0 00-.328-.141c-19.84 6.338-33.157 24.577-33.157 45.404 0 26.287 21.376 47.663 47.661 47.663 18.615 0 35.646-10.959 43.381-27.909.043-.131.01-.272-.106-.35z"/><path d="M194.224 123.415l11.014 2.409 1.106 11.225c.016.118.102.22.22.243.017.008.039.008.063.008a.278.278 0 00.233-.133l5.703-9.727 11.006 2.408a.22.22 0 00.063.008h.017a.28.28 0 00.282-.282.322.322 0 00-.125-.235l-7.452-8.378 5.702-9.719a.283.283 0 00-.031-.33.278.278 0 00-.32-.071l-10.332 4.519-7.49-8.417a.269.269 0 00-.313-.079.278.278 0 00-.172.283l1.104 11.217-10.332 4.519a.278.278 0 00-.154.29c.005.117.09.219.208.242z"/></g></svg>