<svg xmlns="http://www.w3.org/2000/svg" viewBox="2.84 48.38 277.8 186.71"><path fill="#D6D4D1" d="M2.835 48.378H280.63v186.708H2.835z"/><path fill="#FFF" d="M81.983 112.144l37.009 29.604-37.001 29.596h196.387v-59.2z"/><path fill="#CE022A" d="M5.141 50.669V232.82l113.851-91.072z"/><path fill="#007737" d="M81.991 171.344L5.141 232.82h273.222v-61.476z"/><path d="M5.109 50.661l.016.149v-.141l76.842 61.467h196.388V50.661z"/><g fill="#CE022A"><path d="M168.803 160.943c-9.728-2.283-15.798-8.738-16.63-17.704-1.043-11.233 5.021-19.493 16.63-22.67.047-.016.069-.055.063-.094 0-.039-.031-.07-.07-.078a29.543 29.543 0 00-2.486-.102c-5.898 0-11.045 1.851-14.896 5.365-3.709 3.365-5.953 8.15-6.33 13.461-.455 6.172 1.396 11.813 5.179 15.883 3.766 4.048 9.257 6.269 15.461 6.269 1.004 0 2.04-.063 3.083-.172.029 0 .063-.032.063-.071a.087.087 0 00-.067-.087z"/><path d="M186.641 135.85c-.017-.032-.047-.055-.078-.055h-11.438l-3.875-10.998c-.016-.039-.047-.063-.078-.063-.039 0-.068.023-.078.063l-3.672 10.998h-11.428c-.039 0-.063.023-.078.055-.008.039 0 .07.03.094 3.945 2.942 5.279 4.056 9.271 7.123l-3.229 10.777c-.008.031 0 .07.031.087.017.008.03.016.047.016s.039-.008.039-.016l9.288-6.684c1.566 1.027 4.722 3.225 9.49 6.479a.13.13 0 00.096-.009c.029-.023.039-.07.029-.094-.596-1.702-1.844-5.405-3.672-10.777l9.272-6.903c.033-.023.04-.054.033-.093z"/></g></svg>