<svg xmlns="http://www.w3.org/2000/svg" viewBox="2.84 48.37 277.79 186.72"><path fill="#D6D4D1" d="M2.836 48.374h277.792v186.718H2.836z"/><path fill="#D52C1E" d="M5.142 50.633h273.259v61.478H5.142z"/><path fill="#234292" d="M5.142 171.323h273.259v61.479H5.142z"/><path fill="#FFF" d="M5.158 112.119h273.259v59.204H5.158z"/><path d="M154.221 139.144c-.298.157-.392.542-.486.643-.077.11-.329.244-.329.244.518-1.083.69-3.201.424-3.483-.267-.282-.55.644-.55.644s-.108-.706-.36-.792c-.25-.094-.344 1.185-.344 1.185-.158-.518-.551-.988-.551-.988.706-.792 1.036-.808 1.271-.973.25-.165.47-.533.392-.714-.063-.18-.502-.039-.831.322-.346.361-.377.792-.377.792l-.281.282c.407-1.812-.048-3.436-.268-3.546-.235-.109-.393.777-.393.777s-.347-.769-.533-.706c-.174.063-.094 1.208-.094 1.208-.205-.416-.816-.91-.816-.91.439-.393.533-.816.393-.879-.156-.063-.502.424-.564.549-.047.125-.063.423-.063.423l-.125.228c0-.847-.533-2.22-.736-2.188-.203.031-.125.604-.125.604s-.33-.518-.473-.369.125.816.125.816c-.063-.086-.688-.51-.734-.385-.063.118.125.439.125.439l-.377-.298c0-.291-.52-.824-.754-1.059-.25-.235-1.381-1.13-1.507-.918-.126.22.503.832.503.832-.109-.063-1.113-.4-1.1-.172.016.229.926.753.926.753s-.58-.086-.975.047c-.391.133.158.393 1.021.581.85.188 1.773.04 1.773.04l.234.18c-.221-.086-.425-.063-.377.102.031.157.485.557.485.557s-.61-.078-.627.094c0 .173.298.369.847.573.533.204 1.209.243 1.209.243l-.173.102c-.142-.086-.313-.016-.534.125-.219.133-.423.486-.141.486.298-.008.675-.494.675-.494l.22-.11c.018.071.424.69.424.69s-.676-.314-.861-.188c-.204.118.107.596 1.004 1.294.896.698 1.663.879 1.663.879l-.438.031c-.328-.298-.896-.039-1.178.228-.268.267-.143.353.235.353.377 0 .815-.345.815-.345.017.329.313 1.027.313 1.027s-.313-.29-.677-.369c-.344-.078-.25.439.313 1.146a6.27 6.27 0 001.177 1.161c-.063.023-.107.118-.107.118-.395-.134-1.067.204-1.083.369-.017.172.233.204.233.204-.107.447.049.981.157 1.318.095.329.519 1.403.519 1.403-.125-.188-.234-.022-.234-.022-.156-.172-1.004-.29-1.021 0-.016.291.724.471.724.471-.157.354-.269.777-.269.777-.281-.91-.346-.965-.502-.981-.156-.016-.267.354-.346 1.13-.078.785.11 2.009.11 2.009l-.204.117c-.157-.173-.393-.291-.393-.291s.078-.29-.109-.399c-.188-.11-.424.204-.424.204-.439-.071-.252.259-.252.259s-.658.934-1.066 1.82a6.392 6.392 0 00-.502 1.646l-.094-.542c.156-.376.188-.996-.439-1.506-.628-.518-.439.353-.439.353-2.354 1.608-2.696 3.522-2.696 3.522-3.766 3.106-5.695 1.2-5.695 1.2s-.393 1.694 1.568 1.545c1.978-.157 4.174-2.22 4.174-2.22 1.035.814 3.642.368 3.642.368s1.363-.274 1.065-.722-1.646-.526-1.646-.526c.392-.195 1.02-.722 1.02-.722.126.063.689.684.8.824s.503.643.644.761c.144.125 1.132.525.707-.204-.407-.722-.784-.854-1.209-.926-.424-.07-.721-.392-.721-.392.768.18 2.463-.142 2.854-.26.408-.109 1.602-.525 1.49-.808-.125-.291-1.051-.267-1.051-.267s.957-.486.783-.801c-.154-.306-1.521.095-1.521.095v-.023c.095-.063.723-.722.723-.722.484-.023.926.291 1.381.447.473.148.91.102 1.021-.11.094-.204-.313-.4-.707-.525-.394-.133-.549-.055-.862.095-.298.141-.675.016-.675.016 2.07-1.098 2.996-2.612 2.84-2.863s-.909.259-.909.259c.407-.643.376-.973.172-1.012-.188-.047-1.051.8-1.051.8.078-.22.235-1.113.235-1.113.769-.165.988-.095 1.381-.04.392.055.957-.196.926-.4-.016-.196-.564-.212-.91-.172-.33.031-.486.243-.645.361-.156.108-.438.125-.438.125 1.114-.981 1.853-2.895 1.71-3.138-.141-.243-.722.447-.722.447s.173-.683-.017-.871c-.172-.196-.77.886-.77.886.018-.157-.078-.957-.078-.957s.36-.282.801-.502c.455-.22 1.053-.243 1.209-.729.154-.487-.598-.134-.897.023zm-4.581-5.444l.313-.455s.019.354.205.863c0 0-.424-.33-.518-.408zm1.6 3.153s.235-.071.424-.094l.078.149s0 .322.063.612c0 0-.298-.455-.565-.667zm-5.302 13.595c.298-.361.706-1.287.706-1.287.329.141.533.957.533.957-.377-.007-1.239.33-1.239.33zm6.212-6.542s-.22-.079-.314-.157c0 0 .018-.267-.029-.361a3.33 3.33 0 00.343.518zm-.753-3.248c.235-.016.423-.118.423-.118-.047.259-.031.683-.031.683-.094-.204-.392-.565-.392-.565zm.408 3.937s.047-.502.016-.729l.347.148c-.002 0-.299.472-.363.581zm.424-4.525s.267.18.394.235h-.299c-.002 0-.033-.086-.095-.235zm.282.91s-.078-.377-.156-.573l.313-.008c-.001 0-.109.361-.157.581z" fill="#0C9C35"/><path d="M155.13 138.908c-.017-.039-.077-.063-.155-.063-.22 0-.612.188-.771.274-.22.118-.328.353-.406.51a1.26 1.26 0 01-.08.141 1.2 1.2 0 01-.25.196c.471-1.083.658-3.146.377-3.436a.166.166 0 00-.127-.063c-.202 0-.359.423-.438.62-.03-.196-.155-.644-.36-.714-.016-.008-.016-.008-.029-.008-.204 0-.299.761-.329 1.09-.157-.416-.438-.777-.503-.863.533-.581.832-.73 1.052-.839.078-.04.142-.071.204-.11.251-.165.484-.542.407-.746-.017-.063-.078-.094-.173-.094-.188 0-.485.165-.707.408-.328.337-.377.729-.393.792l-.22.22c.377-1.789-.063-3.381-.298-3.491-.016-.008-.031-.008-.047-.008-.188 0-.314.518-.361.729-.078-.188-.329-.659-.486-.659-.016 0-.031 0-.031.008-.172.055-.142.808-.125 1.122-.219-.353-.644-.714-.754-.8.33-.298.473-.62.439-.785 0-.063-.031-.102-.078-.118 0-.008-.016-.008-.031-.008-.188 0-.502.455-.549.565-.064.125-.064.384-.064.431l-.094.149c-.016-.753-.408-1.836-.658-2.079-.03-.039-.063-.055-.096-.047-.172.023-.172.353-.172.533-.078-.125-.234-.33-.361-.33a.098.098 0 00-.078.04c-.107.125.018.549.078.745-.154-.133-.502-.345-.643-.345-.031 0-.048.016-.063.031-.047.086.016.251.078.361l-.269-.22c-.017-.267-.423-.722-.771-1.059-.219-.204-1.146-.957-1.441-.957-.063 0-.078.023-.096.047-.108.181.236.588.408.769-.203-.078-.627-.204-.848-.204-.078 0-.126.016-.143.039a.094.094 0 00-.03.063c.017.196.597.564.849.714a3.114 3.114 0 00-.313-.016c-.22 0-.407.032-.563.079-.095.031-.142.079-.142.133.017.22.896.432 1.16.494.282.063.61.094.973.094.394 0 .707-.039.802-.055h.016l.125.094c-.125-.023-.233-.008-.266.047-.031.023-.049.063-.031.118.031.133.313.4.438.518v.008a1.328 1.328 0 00-.204-.016c-.233 0-.358.047-.358.141-.018.181.267.376.847.596.438.165.957.228 1.146.243l-.094.055a.335.335 0 00-.142-.04c-.125 0-.267.079-.408.165-.156.102-.313.322-.282.447.016.039.047.086.157.086.298-.008.659-.447.69-.502l.188-.086c.063.11.268.439.359.596-.141-.063-.454-.188-.658-.188-.063 0-.109.008-.141.031-.047.023-.063.063-.063.118-.017.228.377.683 1.067 1.216a5.352 5.352 0 001.537.847l-.299.024a.542.542 0 00-.375-.134c-.301 0-.63.188-.816.369-.125.125-.174.211-.141.282.029.079.154.11.391.11.33 0 .676-.235.801-.322.018.267.188.706.268.895-.108-.086-.346-.251-.597-.306-.03-.008-.047-.008-.078-.008a.149.149 0 00-.142.086c-.094.18.109.612.486 1.106.484.62 1.035 1.043 1.16 1.146a.277.277 0 00-.078.094.464.464 0 00-.188-.032c-.394 0-.896.259-.91.424-.017.141.144.204.233.22-.094.439.049.933.144 1.271l.017.032c.078.267.377 1.02.485 1.302a.191.191 0 00-.063-.017c-.049 0-.096.032-.109.056-.125-.095-.424-.165-.645-.165-.252 0-.393.079-.408.204-.016.274.564.446.707.485v.009a7.02 7.02 0 00-.221.667c-.267-.855-.346-.902-.502-.919h-.016c-.096 0-.251.118-.361 1.153-.063.729.096 1.843.11 1.993l-.173.102c-.127-.141-.313-.242-.361-.273.016-.07.049-.306-.125-.408a.206.206 0 00-.095-.024c-.156 0-.313.174-.36.221-.142-.017-.234.008-.281.07-.031.079 0 .181.017.221-.079.118-.677.987-1.067 1.812a6.56 6.56 0 00-.471 1.515l-.078-.4c.096-.211.298-.925-.438-1.53-.221-.18-.377-.211-.455-.108-.094.117-.031.399-.018.471-2.259 1.545-2.667 3.381-2.697 3.521-1.429 1.178-2.747 1.766-3.938 1.766-1.13 0-1.726-.565-1.726-.565-.016-.008-.016-.016-.031-.008 0 0-.016.008-.016.016 0 .009-.142.684.22 1.146.235.29.627.438 1.146.438.078 0 .156 0 .251-.008 1.866-.141 3.953-2.022 4.157-2.204.424.314 1.13.479 2.104.479.832 0 1.537-.118 1.553-.125.033-.008.975-.196 1.115-.534.029-.07.016-.148-.031-.227-.268-.394-1.287-.502-1.586-.526.347-.204.849-.604.94-.675.128.094.659.675.771.808 0 .008.471.627.644.77.079.069.425.22.644.22.096 0 .156-.024.188-.079.048-.079.017-.204-.079-.376-.439-.753-.814-.871-1.238-.941-.299-.047-.533-.228-.645-.321.143.022.299.03.486.03.848 0 1.992-.219 2.307-.313 0 0 1.318-.384 1.49-.722a.15.15 0 000-.118c-.094-.243-.705-.283-.957-.283.188-.11.645-.384.723-.627a.253.253 0 00-.017-.157c-.048-.086-.173-.133-.392-.133-.361 0-.896.133-1.101.188.173-.148.61-.604.675-.674h.031c.313 0 .58.125.879.26.143.063.298.133.455.188.172.055.359.086.533.086.251 0 .438-.079.502-.204a.234.234 0 000-.148c-.078-.172-.426-.322-.706-.416a1.24 1.24 0 00-.358-.071c-.189 0-.314.071-.504.157l-.017.008a.839.839 0 01-.329.063c-.107 0-.221-.016-.282-.03 1.663-.902 2.651-2.118 2.792-2.667.032-.095.032-.157 0-.196-.029-.055-.094-.086-.172-.086-.204 0-.52.18-.675.273.22-.376.313-.675.233-.847a.14.14 0 00-.125-.109c-.017-.009-.017-.009-.031-.009-.188 0-.783.55-.987.745.079-.282.188-.894.204-1.004a3.78 3.78 0 01.783-.102c.174 0 .299.016.438.039l.142.023c.031 0 .078.008.125.008.283 0 .629-.125.771-.282a.225.225 0 00.063-.149c-.03-.188-.407-.22-.645-.22-.094 0-.203.008-.298.016-.267.032-.424.173-.549.283-.032.031-.079.063-.11.086-.094.079-.251.102-.345.118 1.065-.988 1.804-2.855 1.663-3.122-.032-.039-.063-.063-.127-.063-.172 0-.454.298-.579.439.047-.196.108-.643-.048-.808-.016-.016-.031-.032-.063-.032-.188 0-.563.612-.69.847-.016-.243-.078-.761-.078-.855.064-.047.379-.298.785-.486.125-.063.268-.11.394-.149.347-.118.706-.235.831-.596.03-.104.03-.175-.018-.222zm-1.412-2.392c.031 0 .064.016.096.047.251.259.094 2.346-.424 3.444l-.126.079c.299-1.051.079-2.589.032-2.887v-.008c.062-.19.25-.675.422-.675zm-.83-.102s.016 0 .016.008c.204.071.313.565.346.722v.008c0 .024.299 1.82-.047 2.965l-.031.023c.031-.949-.455-2.275-.563-2.573.028-.447.137-1.153.279-1.153zm-.362 1.114c.017.024.017.04.032.063v.008c.125.322.596 1.64.564 2.565l-.047.031c-.031-.086-.08-.133-.144-.133-.048 0-.095.023-.144.07-.406-.439-.877-2.212-.973-2.597v-.008a6.764 6.764 0 01-.063-.62v-.008c0-.141.031-.345.108-.369.048-.016.095.031.142.079.008.009.37.432.525.919zm.126 2.847l-.281.008-.017-.055h.267l.047.008c-.016.016-.016.024-.016.039zm-.141.487c-.031-.117-.078-.298-.125-.431l.234-.008c-.015.077-.078.274-.109.439zm-.172-.58c-.019-.024-.032-.079-.063-.142.063.04.173.094.251.142h-.188zm-.629-3.342c0 .078.017.274.047.479-.094-.134-.281-.393-.471-.557.078-.016.234-.055.36-.071l.063.118v.031zm.786-.903v-.016c0-.008.047-.424.377-.777.234-.259.532-.392.674-.392.078 0 .109.023.125.063.063.165-.141.518-.393.683a.924.924 0 01-.188.11c-.235.11-.533.267-1.067.855-.017-.023-.047-.039-.063-.055l.252-.188.283-.283zm-.612-3.263c.016 0 .016 0 .031.008.219.102.644 1.741.25 3.506l-.109.086c.063-1.294-.424-2.707-.486-2.863.047-.298.172-.737.314-.737zm-.863.078h.016c.11 0 .361.424.486.69 0 .008 0 .008.016.008.08.243.551 1.616.471 2.863l-.016.016c0-.157-.094-.776-1.064-2.408-.018-.439-.035-1.129.091-1.169zm-.126 1.201v.008c1.114 1.867 1.036 2.401 1.036 2.409l-.016.016a.086.086 0 00-.063 0c-.047.016-.078.055-.095.118-.125-.102-.879-.722-1.584-2.487v-.016c-.188-.502-.203-.848-.203-.855v-.008c.016-.047.031-.078.063-.086.031-.016.063.008.063.008.093.077.611.516.799.893zm-.957-.738c0 .118.048.384.157.722a9.693 9.693 0 00-.424-.337l.267-.385zm-.047-.078v-.016s0-.298.063-.416c.047-.125.359-.542.502-.542l.017.008c.03.008.047.04.047.079.03.157-.11.463-.438.753-.017-.008-.047-.008-.078 0a.258.258 0 00-.08.141l-.25.354.063-.134c.017 0 .017 0 .017-.008l.137-.219zm-.895-1.954c.019 0 .032 0 .063.039.251.243.644 1.365.644 2.103l-.063.149c-.031-.243-.174-.878-.753-1.733-.016-.165-.032-.534.109-.558zm-.58.228c.109-.102.348.243.424.369l.018.008c.645.941.736 1.608.736 1.757-.016-.031-.203-.612-1.034-1.35-.081-.18-.238-.666-.144-.784zm-.611.424c0-.008.016-.008.016-.008.142 0 .55.267.658.369v.008c.722.62.974 1.137 1.052 1.302-.126-.063-.267-.118-.346-.055-.016.016-.031.039-.031.063-.125-.079-.645-.432-1.224-1.255v-.008c-.048-.087-.173-.33-.125-.416zm-2.495-1.828c0-.008.016-.023.047-.023.268 0 1.161.706 1.412.941.471.471.723.816.736 1.012-.219-.361-1.412-.988-1.727-1.145-.171-.173-.562-.628-.468-.785zm-.613.643c0-.016.016-.024.016-.032s.033-.023.111-.023c.266 0 .862.204.94.251h.016c.345.173 1.585.832 1.71 1.153-.031.031-.063.039-.063.047h-.016c-.439.016-1.49-.51-1.789-.659v-.008c-.249-.141-.91-.556-.925-.729zm.957 1.357c-.77-.172-1.113-.353-1.129-.447 0-.031.047-.063.109-.086.142-.047.33-.078.549-.078.204 0 .361.023.408.031.22.118 1.066.542 1.601.644-.157.016-.36.031-.581.031a4.455 4.455 0 01-.957-.095zm1.821.063a.165.165 0 00.063-.047v-.008-.016l.346.267a.786.786 0 00.047.079l-.251-.118-.205-.157zm-.173.275c0-.031 0-.063.017-.079.048-.055.188-.055.345.008l.313.149h.017c.564.769 1.051 1.091 1.146 1.146 0 .031 0 .071.016.11-.094-.016-.484-.133-1.363-.777v-.016c-.129-.111-.46-.416-.491-.541zm.69 1.208c-.688-.259-.813-.439-.813-.549 0-.055.125-.086.313-.086.109 0 .221.008.268.016.941.698 1.318.784 1.396.8 0 .024.017.04.017.063-.145-.017-.711-.064-1.181-.244zm1.036.463c-.016 0-.016.008-.016.008 0 .008-.378.479-.659.486-.063 0-.096-.023-.109-.055-.017-.094.109-.298.266-.393.128-.078.27-.149.379-.149a.22.22 0 01.126.031c.017.008.03.008.03 0l.142-.086c.017.024.017.047.03.063l-.189.095zm.251-.087c0-.008-.016-.016-.016-.023a.16.16 0 01-.031-.086v-.008a.746.746 0 01-.048-.243h.017v-.023c0-.023 0-.047.016-.055.063-.063.283.047.408.133.078.063.408.322.485.385.722 1.804 1.491 2.432 1.616 2.534-.109-.016-.784-.165-2.04-1.93-.203-.3-.407-.645-.407-.684zm.549 1.773c-.8-.612-1.064-1.012-1.051-1.177 0-.031.016-.063.047-.079.016-.016.063-.023.109-.023.234 0 .658.196.722.22 1.036 1.459 1.679 1.828 1.946 1.914l-.143.023c-.093-.031-.813-.243-1.63-.878zm1.648.926s.016 0 .016-.008l.235-.032c0 .047 0 .086-.017.125l-.03-.063c0-.008-.017-.016-.017-.016-.156.023-.347.07-.408.086-.017-.016-.047-.047-.078-.07l.299-.022zm-1.726.486c-.016-.039 0-.102.125-.235.188-.165.502-.353.785-.353a.5.5 0 01.313.102c-.079.047-.095.188-.095.228-.063.047-.438.337-.784.337-.203-.001-.328-.032-.344-.079zm1.192-.243s-.017-.196.095-.212c.094-.008.156.079.188.11.22.18.471.533.532.635.078.283.563 2.197 1.005 2.66 0 .016-.017.023-.031.039-.108-.086-.784-.643-1.489-2.189.016-.008.016-.016 0-.023-.002-.008-.3-.699-.3-1.02zm-.064 1.789c-.422-.542-.549-.926-.485-1.059.017-.047.079-.063.157-.047.281.063.549.274.628.345.722 1.593 1.411 2.157 1.536 2.251-.016.008-.016.024-.03.04l-.063-.016c-.108-.055-.346-.204-.377-.22-.063-.118-.156-.142-.188-.142a6.207 6.207 0 01-1.178-1.152zm1.163 1.199c.031 0 .109.016.156.125a.749.749 0 01.094.228l.031.102c.079.165.143.455.157.541-.313 1.302-.157 2.816-.157 2.824v.008l-.047.047c-.063-.141-.471-1.027-.471-2.588.016-.008.016-.016.016-.023 0 0-.016-.424.031-.675 0-.008.031-.345.109-.479a.224.224 0 01.081-.11zm-.268 1.162c-.109-.165-.268-.361-.329-.447.157-.016.282-.063.345-.086-.016.172-.016.4-.016.533zm-.91-.691c.016-.118.455-.384.863-.384.063 0 .125.016.173.023-.063.149-.095.4-.095.455a1.142 1.142 0 01-.393.109c-.096-.086-.172-.125-.234-.109a.148.148 0 00-.11.07c-.046-.007-.204-.046-.204-.164zm.392 1.507l-.017-.04c-.094-.337-.233-.839-.142-1.263 0-.008.031-.055.095-.063.047-.008.108.023.188.102 0 .008.269.33.377.533-.016 1.679.455 2.597.486 2.667-.031.047-.063.086-.078.11l-.313-.134v-.063c.11.079.282.133.299.141.017 0 .017-.008.031-.016 0-.008 0-.017-.017-.023-.143-.165-.33-.51-.33-.51-.017-.008-.03-.016-.03-.008-.017-.024-.017-.04-.031-.047-.046-.123-.423-1.081-.518-1.386zm.597 1.969l.282.118a15.53 15.53 0 01-.299.463c.017-.151.034-.417.017-.581zm0-.386c.063.095.142.229.222.33-.064-.031-.158-.07-.222-.117 0-.032.017-.125 0-.213zm-.22-.242c.031 0 .063.022.078.055.017.008.017.016.031.032.016.039.047.165.063.502v.024a4.29 4.29 0 01-.031.698c-.896 1.608-1.064 2.958-1.082 3.043a.239.239 0 00-.063.04l-.063-.212c.313-.549.313-.832.313-.839s.017-.071-.047-.11c-.047-.022-.142-.016-.25.023.016-.416.33-1.671.393-1.945v-.008c0-.008.125-.424.268-.777v-.008c.063-.133.188-.408.281-.455h.016v-.008s.046-.055.093-.055zm-4.189 6.794c.078-.149.879-1.694 1.992-2.675v-.017c.063-.055.143-.11.204-.165.879-.698 1.099-.689 1.161-.659.031.017.031.056.031.056 0 .008 0 .438-.611 1.263-1.538.854-2.62 2.173-2.652 2.197h-.125zm2.997-2.425l.031.094c-.048.022-.095.055-.157.086.047-.063.079-.125.126-.18zm.079.07l-.047-.109.047-.095.063.173-.063.031zm0-4.392c.016-.133.251-.149.359-.149.234 0 .502.063.598.142-.109.094-.234.353-.282.446-.205-.056-.675-.22-.675-.439zm-.393 1.403c.108-.973.25-1.113.313-1.113h.018c.141.016.203.069.471.949-.063.267-.377 1.561-.393 1.983v.008a2.753 2.753 0 00-.3.157c.001-.061-.187-1.23-.109-1.984zm-.125 2.135c0 .008.016.008.016.008a5.034 5.034 0 00-.408.306c-.047.039-.094.07-.125.109.078-.229.141-.58.156-.698.078.039.235.142.361.275zm-1.162-.44c.031-.039.095-.055.205-.047l-.188.204c-.017-.047-.047-.11-.017-.157zm-1.05 2.032c.407-.871 1.051-1.796 1.066-1.82l.251-.259c0-.008.173-.22.329-.22.016 0 .048.008.063.022.172.095.109.361.109.369 0 0-.109.573-.204.809-1.177 1.035-2.008 2.69-2.008 2.706v.009c-.047 0-.078.008-.095.008.018-.094.112-.809.489-1.624zm-1.444-.518c.063-.078.188-.03.377.118.722.588.502 1.279.424 1.476v.016l.094.542c-.016 0-.031.008-.047.008-.031-.133-.22-.792-.518-.94.156-.384.173-.644.063-.762-.126-.125-.345-.063-.424-.04-.016-.105-.047-.331.031-.418zm.315 1.263c.266.142.438.753.485.895-.313.008-.927.221-1.146.298.284-.36.597-1.06.661-1.193zm-.347-.792c.017 0 .267-.103.377.016.108.103.095.361-.063.729 0 0-.408.918-.705 1.271-1.271.408-2.057 1.169-2.274 1.404.107-.4.626-2.024 2.665-3.42zm-6.84 6.228c-.627.047-1.082-.094-1.333-.416-.313-.376-.251-.91-.22-1.059.142.118.722.557 1.726.557 1.177 0 2.479-.58 3.876-1.71-.017.071-.032.165.017.243 0 .016.03.031.047.047-.017.017-.017.079.031.143-.175.148-2.262 2.047-4.144 2.195zm8.864-2.534c.047.063.047.118.031.181-.143.313-1.066.502-1.082.502 0 0-.724.125-1.537.125-.957 0-1.681-.165-2.088-.479-.031-.031-.031-.07-.031-.094.078.055.221.086.408.086.125 0 .299-.016.485-.047 1.226-.196 2.009-.667 2.196-.792.129.009 1.352.102 1.618.518zm-1.584-.588h-.018s-.016.009-.016.017c-.018 0-.018.008-.031.008v.008c-.188.125-.957.588-2.182.785-.658.102-.879 0-.94-.102-.047-.103.017-.229.047-.299.017-.008.849-.987 2.339-1.467.094-.031.861-.322 1.209-.322l.016.009v-.009c.016 0 .644-.108.814.135.156.227-.268.541-.281.549 0-.001-.58.476-.957.688zm1.914-.195c.408.07.769.181 1.19.918.11.195.11.281.078.33-.017.039-.063.055-.142.055-.205 0-.532-.149-.611-.212-.143-.11-.502-.588-.645-.761-.095-.125-.597-.684-.77-.809.018-.008.018-.016.031-.022l.125.094v.016c.022.005.305.32.744.391zm3.592-1.476c.017.023.017.047 0 .078-.125.251-1.034.581-1.459.698-.313.094-1.442.313-2.291.313-.219 0-.391-.016-.532-.047l-.142-.102c.017-.017.031-.023.047-.039.017 0 1.49-.126 3.373-1.153h.031c.424.001.896.065.973.252zm-.595-1.161c.188 0 .313.031.346.103.017.039.017.079.017.118-.094.29-.782.643-.782.643-1.681.918-3.029 1.114-3.313 1.146.047-.039.076-.095.107-.149.019 0 1.162-.518 2.448-1.663.017.008.017.008.031.008.001-.01.69-.206 1.146-.206zm-1.177.134c-1.177 1.043-2.212 1.561-2.432 1.662a.22.22 0 00-.032-.234c-.078-.11-.234-.157-.393-.165.158-.196 1.192-1.381 2.621-2.165.895-.494 1.129-.455 1.177-.394.077.079-.017.299-.22.581-.219.229-.643.667-.721.715zm3.577-3.68c.063 0 .109.017.141.056.018.03.018.086-.016.156-.109.425-.973 1.688-2.809 2.667-.018 0-.018.017-.018.024s0 .016.018.022c0 0 .156.056.346.056a.706.706 0 00.346-.078h.016c.188-.094.313-.157.486-.157.094 0 .203.024.346.071.377.125.627.267.674.392a.105.105 0 010 .103c-.047.109-.219.181-.453.181-.174 0-.348-.032-.52-.086a4.209 4.209 0 01-.455-.188c-.281-.125-.58-.259-.895-.259.078-.102.156-.234.204-.353.017-.008.896-.667 1.853-2.283.047-.033.485-.324.736-.324zm-.596-.689h.016c.049.008.079.04.096.086.03.079.078.313-.283.895-.832 1.396-1.601 2.071-1.805 2.236.016-.071.016-.134-.016-.173l-.031-.017c.424-.683.926-2.008 1.004-2.235.218-.221.847-.792 1.019-.792zm-1.051.736c-.018.017-.549 1.522-1.021 2.268-.109-.039-.33.016-.645.157.031-.221.221-1.499 1.065-3.005.063-.102.361-.572.361-.58.077-.095.282-.346.377-.291.108.063.094.298.077.393-.01.11-.135.824-.214 1.058zm1.02-1.309c.031-.023.079-.055.109-.094.125-.11.268-.235.519-.26.095-.016.204-.016.298-.016.361 0 .581.063.598.172 0 .039-.031.079-.049.103-.125.133-.438.273-.736.273-.047 0-.077-.008-.125-.008-.047-.008-.078-.016-.127-.023a2.945 2.945 0 00-.454-.038c-.203 0-.454.03-.769.094v-.04l.281-.039v.008c.016.001.297-.014.455-.132zm1.161-3.051c.03 0 .063.008.077.039.127.212-.596 2.109-1.693 3.091l-.141.016c.736-1.074 1.098-2.438 1.16-2.667.11-.135.439-.479.597-.479zm-.69-.4c.016 0 .03 0 .03.016.157.157.048.69.017.816v.008c0 .008-.359 1.544-1.178 2.713l-.047.009c.361-.651.455-2.354.471-2.66.142-.251.533-.902.707-.902zm-.754.847c0 .023-.094 1.953-.455 2.667 0-.094-.031-.203-.109-.242-.063-.031-.141 0-.219.055-.017-.204-.127-1.561.155-2.746 0 0 .017-.008.017-.016.031-.22.143-.573.143-.581a.82.82 0 01.078-.149v-.008c.063-.078.109-.141.173-.141.03 0 .097.047.155.243-.001.023.077.698.062.918zm1.946-2.157c-.125.337-.438.447-.8.564-.127.04-.268.086-.408.149-.376.188-.676.416-.77.479-.017-.023-.017-.047-.031-.063l.33-.196v.008c.016-.008.25-.142.328-.243a.693.693 0 00.096-.157c.078-.165.188-.384.392-.494.11-.063.519-.267.738-.267.063 0 .108.016.125.047.015.031.015.086 0 .173z"/><path d="M146.628 153.194s-1.68 1.333-3.719-.142c-2.026-1.467-2.622-1.687-2.622-1.687l-3.64-2.872.8.934-1.239-1.137.502.714-1.35-1.294-.078.063-.769-1.2.078.416-.424-.723-.22-.854-.016.376-.22-.839v.502l-.329-1.553-.031 1.521-.188-2.079-.078.612-.031-.784-.126.471.031-.918-.016-.713-.313 1.466.188-2.046-.157.4.078-.863-.141.275.267-1.099-.22.243.408-1.043-.204.228.439-.997-.706.832.611-1.122-.502.533.518-1.036-.204.149 1.192-1.428-.815.447 1.224-1.24.455-.274.518-.337.346-.079-.612-.07.988-.345-.847-.031 1.396-.439-1.507.149 1.898-.471-.831.008.847-.157-.267-.094.581-.063-.91-.11 1.521-.181-.345-.07 1.098-.094-.564-.157.628.039-.157-.141.424.086.424.016-.738-.416.644.125-.408-.188 1.005.078-1.805-.502.564-.118 1.13.376-.753-.4.91-.125-.77-.102 1.915-.306-.597-.055.455-.157-1.71.22.251-.157-.564.102.486-.267-.895.204 1.365-.894-1.412.643.596-.902-1.004 1.004.533-.973-1.02 1.153.611-1.271-.737.965-.376.298.611-1.373-.957 1.318.346-1.208-.706 1.357.345-1.584-1.271 2.142.047-.337.22-.376-.142.071.299-1.13-.659 1.577-.267.267.471-1.467-.91 1.804.267-1.506-.675 1.875.126-1.969-.455 1.883-.173.18.063-1.545-.251 1.099.095-.958-.486 1.789.235-1.475-.801 2.11.11-2.244-.597 2.973-.016-2.4-.313 2.22-.204.627-.031-2.448-.33 2.377-.329-1.522.126 2.173-.471-1.875.188 2.346-.658-1.828.392 2.173-.518-1.749.267 2.761-.722-2.024.424 2.149-.69-1.545.393 1.514-.628-1.106.941 2.816-1.066-1.718.862 2.071-1.035-1.616.627 1.624.11.667-.957-1.742.502 1.404-.533-.659 1.099 2.197.063.298-1.303-1.247 1.146 1.6-1.161-1.106 1.554 2.055-1.507-1.075 1.867 1.985-1.553-.879 1.568 1.412-1.647-.973 1.412 1.192.486.542-1.553-.785 1.867 1.442.251.307-2.182-1.083 2.103 1.592-1.741-.588.564.345-.392-.055 2.432 1.247-1.977-.479 1.679.777-.597-.086 1.021.542-1.852-.268 2.541.863-1.883-.022 2.071.463-1.819-.023 1.286.282.549.22-1.146.298 1.727-.055.611.196-1.93.432 1.554-.063.627.125-1.349.549 2.29-.4.439.11-1.114.228 1.225.149-1.758.815 2.479-.588-1.554 1.028 1.318-.549h1.082l-1.71.965 2.369-.745-1.459 1.098 2.745-1.325.565-.009.109-.086 2.84 1.82c.006 0 2.502 1.829 3.694-.681z" fill="#079D38"/><path d="M146.644 153.177c-.016-.008-.016-.008-.032 0 0 .008-.704.549-1.726.549-.659 0-1.333-.234-1.961-.689-1.945-1.412-2.573-1.671-2.636-1.695l-3.624-2.863c0-.008-.016-.008-.031 0v.032l.533.627-.941-.862c0-.009-.016-.009-.031 0-.015.008-.016.022 0 .03l.36.502-1.177-1.122c0-.008-.016-.008-.031 0l-.063.048-.737-1.178c-.016-.008-.016-.016-.031-.008 0 0-.016.017-.016.023l.047.291-.346-.588-.016-.048-.22-.823c0-.009-.016-.017-.016-.017-.016 0-.031.008-.031.024v.211l-.188-.682c0-.017-.016-.024-.031-.024 0 .008-.016.016-.016.032v.267l-.282-1.326c0-.016 0-.016-.016-.016s-.031.008-.031.022l-.016 1.075-.142-1.632c0-.016-.016-.022-.016-.022h-.016c-.016 0-.016.008-.016.022l-.047.322-.016-.494c0-.016-.016-.023-.031-.023-.016-.008-.016 0-.031.017l-.063.259.031-.698-.016-.713c0-.008-.016-.016-.031-.023 0 0-.016.008-.016.023l-.235 1.075.142-1.655c0-.008 0-.023-.016-.023-.017-.008-.017 0-.032.016l-.094.243.063-.698c0-.008 0-.023-.016-.023s-.016 0-.031.016l-.031.071.22-.879c0-.016 0-.023-.016-.031 0 0-.016 0-.031.008l-.126.149.346-.926c0-.008 0-.023-.016-.031 0 0-.016 0-.031.008l-.095.109.393-.847c0-.016 0-.023-.016-.031s-.032-.008-.032 0l-.549.651.502-.917c0-.008 0-.023-.016-.031s-.016-.008-.031.008l-.377.408.424-.878c.016-.016.016-.024 0-.032 0-.008-.016-.008-.031 0l-.047.032 1.066-1.279c.016-.008.016-.016 0-.031 0-.008-.016-.008-.031 0l-.674.361 1.098-1.114h.016l.455-.274.518-.337.33-.078c.016-.008.016-.016.016-.024 0-.016 0-.023-.016-.023l-.502-.055.878-.314c.016 0 .016-.016.016-.023 0-.016-.016-.023-.016-.023l-.706-.032 1.256-.392c.016 0 .031-.016.031-.023-.016-.016-.016-.023-.031-.023l-1.177.118 1.584-.393s.016-.016.016-.023c0-.016-.016-.023-.031-.023l-.549.008.58-.11s.016-.016.016-.023c0-.007-.016-.032-.016-.032l-.172-.063.471-.039c.016-.008.031-.016.031-.031 0 0-.016-.016-.031-.024l-.706-.086 1.317-.157c.016 0 .031-.016.031-.023 0-.016-.016-.023-.031-.023l-.157-.031.926-.079c0-.008.016-.016.016-.023 0-.016 0-.023-.016-.031l-.36-.094.408.023c.016 0 .016-.016.016-.023 0-.007 0-.023-.016-.023l-.079-.071.346.063.424.016c.016 0 .016-.008.016-.023 0-.008 0-.016-.016-.024l-.581-.337.486.094c.016.008.016-.008.016-.023 0-.008 0-.016-.016-.023l-.282-.133.863.07h.016l.016-.016c0-.023 0-.031-.016-.031l-1.695-.472.455-.102 1.114.376h.016c.016 0 .016-.008.016-.023 0-.008 0-.016-.016-.023l-.675-.361.832-.118c.016 0 .031-.008.031-.023 0-.008-.016-.023-.031-.023l-.597-.079 1.742-.283c.016-.008.016-.016.016-.023 0-.016-.016-.023-.016-.023l-.471-.047.329-.118c.016-.008.016-.016.016-.032 0-.008-.016-.016-.016-.016l-1.601.212.157-.102c0-.008.016-.023 0-.031 0-.008-.016-.016-.016-.016l-.424.079.361-.196v-.031c0-.016-.016-.016-.031-.016l-.754.172 1.256-.824v-.031c0-.008-.016-.016-.031-.008l-1.318.604.533-.832v-.031c-.016-.008-.031-.008-.031 0l-.879.894.439-.824c.016-.016 0-.023 0-.031-.016-.008-.031-.008-.031 0l-.91 1.027.533-1.114c0-.016 0-.023-.016-.031 0-.008-.016-.008-.031.008l-.722.949-.298.235.564-1.279c.016-.008 0-.023 0-.023-.016-.016-.031-.008-.031-.008l-.879 1.216.299-1.075v-.023c-.016-.008-.031 0-.047.008l-.612 1.192.298-1.404c0-.016 0-.023-.016-.031 0 0-.016 0-.031.008l-1.192 2.032.031-.204.22-.369s0-.023-.016-.031c0-.008-.016-.008-.031-.008l-.078.047.267-1.075c.016-.016 0-.031-.016-.031 0-.008-.016 0-.032.016l-.643 1.569-.188.188.424-1.365c.016-.016 0-.023-.016-.031 0-.008-.016 0-.031.008l-.816 1.655.235-1.333c0-.016 0-.023-.016-.031-.016 0-.031.008-.031.016l-.628 1.71.126-1.796c0-.016-.016-.023-.016-.031-.016 0-.031.008-.031.023l-.455 1.867-.047.063-.079.071.063-1.475c0-.016-.017-.023-.032-.023-.016-.008-.016.008-.031.016l-.156.706.063-.549c0-.016-.016-.032-.016-.032-.016 0-.031.008-.031.016l-.377 1.373.157-1.051c0-.008 0-.023-.016-.023-.016-.008-.016 0-.031.016l-.738 1.961.11-2.087c0-.008-.016-.023-.031-.023s-.016.008-.016.023l-.55 2.738-.016-2.165c0-.016-.016-.023-.031-.023-.016 0-.016.008-.031.016l-.298 2.188c-.016.008-.016.008-.016.016v.047l-.142.447-.031-2.291s-.016-.023-.031-.023-.016.008-.031.023l-.299 2.236-.313-1.389c0-.008-.016-.016-.031-.016 0 0-.016.016-.016.023l.109 1.915-.392-1.624c-.016-.016-.016-.016-.031-.016s-.031.008-.031.023l.172 2.165-.58-1.655c-.016-.016-.016-.016-.031-.016s-.031.016-.016.031l.298 1.726-.377-1.318c0-.008-.016-.016-.031-.016-.016.008-.016.016-.016.031l.063.667v.031l.173 1.859-.644-1.835c0-.008-.016-.016-.031-.016-.016.008-.016.016-.016.031l.361 1.93-.581-1.349c-.016-.008-.016-.016-.031-.008-.016 0-.016.016-.016.023l.33 1.341-.534-.941c0-.016-.016-.023-.031-.016 0 .008-.016.023 0 .032l.863 2.612-.941-1.537c-.016-.008-.031-.016-.031-.008-.017.008-.017.023-.017.023l.754 1.828-.895-1.389c0-.008-.016-.016-.031-.008s-.016.024-.016.032l.627 1.624.048.196.016.274-.848-1.569c-.016-.008-.016-.016-.031-.008s-.016.016-.016.031l.439 1.271-.439-.549c0-.016-.016-.016-.031-.008 0 .008-.016.023 0 .031l1.098 2.197v.016l.032.204-1.225-1.192c-.016-.016-.031-.016-.047-.008v.039l1.004 1.396-.988-.934c-.016-.008-.031-.008-.031 0-.016.008-.016.023-.016.031l1.459 1.922-1.365-.973c0-.008-.016-.008-.031 0v.04l1.758 1.858-1.412-.792c0-.008-.016-.008-.031 0v.04l1.38 1.239-1.428-.839c0-.009-.016-.009-.031.008v.031l1.412 1.185.393.447-1.428-.729c-.016-.008-.031 0-.031.008-.016.017-.016.023 0 .031l1.867 1.443.172.212-2.07-1.027c-.017-.008-.032 0-.032.009v.03l1.978 1.506-1.585-.542c-.016-.008-.031 0-.031.009 0 .016 0 .022.016.03l.455.291-.282-.04c-.016 0-.031.009-.031.017 0 .016 0 .022.016.03l2.259 1.146-1.788-.423c-.016-.008-.032 0-.032.016 0 .008 0 .023.017.031l1.521.706-.408-.063c-.016 0-.031.009-.031.017 0 .016 0 .022.016.03l.895.479-1.726-.251c-.016 0-.031.008-.031.016 0 .017 0 .032.016.032l2.416.808-1.742-.016s-.016.008-.016.023c0 .008 0 .022.016.022l1.836.408-1.584-.016c-.016 0-.016.008-.032.022 0 .008.017.023.032.023l1.286.281.471.196h-.016l-1.067.274c0 .008-.016.016-.016.032 0 .008.016.016.031.016l1.727-.055.518.165-1.836.416c-.016 0-.031.016-.031.023.016.017.016.023.031.023l1.554-.063.549.11-1.271.518c-.016.008-.016.017-.016.032s.016.016.031.016l2.274-.392.33.078-1.005.204c-.016 0-.016.008-.016.022 0 .008 0 .023.016.023l1.13.142-1.679.776c0 .008-.016.022-.016.031.016.016.016.022.031.016l2.354-.557-1.443.957c-.016.008-.016.016-.016.03.016.009.031.017.031.009l1.318-.55h.988l-1.632.917c-.016.009-.016.017-.016.032 0 .008.016.017.031.017l2.243-.706-1.349 1.012v.031c.016.016.016.016.031.016l2.745-1.318.55-.008c.016 0 .016-.008.016-.008l.094-.078 2.824 1.813c.018.008.896.643 1.854.643.814 0 1.459-.447 1.865-1.333.015-.013.015-.022-.001-.03zm-5.884-1.538l-.58.196.109-.438c.031.008.173.07.471.242zm-3.922-2.965l3.31 2.62-.407-.149c-.016-.008-.016-.008-.031-.008h-.016c0-.008-.017 0-.017.008l-.471.125c-.063-.117-.203-.281-.36-.463v-.008c0-.016 0-.031-.016-.031l-.031-.008a27.066 27.066 0 00-1.365-1.396l-.596-.69zm-1.649 2.19l1.13-.017.048.017s.031 0 .031-.017l.737-.016h.016l1.271.659-.235.069-2.998-.695zm-2.211-.957l.737.126 1.443.485-.141.009-2.039-.62zm-1.883-3.922l1.647 1.137.299.596-.11-.063c0-.008-.016-.008-.031 0v.039l.22.204-.549-.26-.502-.563c0-.008 0-.017-.017-.017l-.141-.156c0-.009 0-.017-.016-.023l-.8-.894zm-1.333-4.323l-.047-.274-.142-1.177h.016c0-.008.016-.016.016-.031l-.078-.455-.079-.706.816 2.581c0 .008 0 .008.016.016l.267.847-.785-.801zm.376-4.487l.299 1.004.016.008-.016 2.103-.048-.071s.016-.008.016-.016l-.267-3.028zm.33 3.805v.016l.392.808v.016l.283.588c.016 0 .016.008.016.008l.031.917-.502-.886.016-.008-.455-1.898.219.439zm.423-4.731l.079 1.349v.023l.047.588-.142-.761s-.016-.016-.031-.016c0 0-.016.008-.016.023l-.125 1.443-.11-.557c0-.008.016-.008.016-.016l.282-2.076zm.345-.957l.063 1.129-.282 1.028-.031-.526v-.008l.25-1.623zm.11 1.137l.22-.776.032-.125-.204 2.275v.016l-.283 1.012-.094-1.231.329-1.153v-.018zm1.24-1.866l-.393 1.561v.016l-.329.541.047-.455c0-.016 0-.024-.016-.024-.016-.008-.031 0-.031.016l-.017.086.017-.353c.032-.228.361-.8.722-1.388zm.973-1.507l-.722 1.969v.016l-.424.408.267-1.028c.345-.556.69-1.098.879-1.365zm.47-.416l.047-.055v-.008l.016-.016.313-.4-.016.142v.008l-.69 1.278-.518.62.346-.941c.016 0 .016 0 .016-.008l.486-.62zm1.679-.76l-.11.353v.023l-.345.306.486-.887-.031.205zm.407-.008l-1.271 1.679h-.016l-.533.345.376-.745.016-.008 1.428-1.271zm1.114.549l-.22-.063.204-.212.361.063.078.016-.423.196zm.471-.165l.988.486-1.38-.306.392-.18zm-.706-.133l.157.016-.565.581-.251-.047.659-.55zm-.109-.063l.078-.078.235.016.298.149-.298-.047-.313-.04zm.721.086l-.361-.18.282-.306.502-.094h.016l1.334-.196-1.773.776zm-.408-.196l-.235-.016c-.016 0-.016 0-.031.008l-.126.125-.675.361.33-.447 1.302-.675-.565.644zm-.344.157l.078.008-1.49 1.248.329-.361c.016-.008.016-.023 0-.031 0-.008-.016-.016-.031-.008l-.784.51.471-.612 1.427-.754zm-2.276 3.593l-.016.016h-.016l-.22.118-.016.008-2.087 1.106.078-.22 1.867-.997.016-.008.738-.392-.344.369zm-.564.353l-1.978 1.412.157-.455h.016l1.805-.957zm-1.696.612l.079-.228.016-.008.188-.282v0l1.364-.361-1.647.879zm1.836-.981l-1.521.408.172-.243 2.04-.541-.691.376zm-1.678.573l.424-1.208v-.008l1.083-1.043-1.507 2.259zm.957-1.365h.016l.848.094-1.067.22.203-.314zm.031-.047l.408-.612 1.726-1.114-1.679 1.773-.455-.047zm.768-.918v.016l-.298.188.204-.306c.016-.008.016-.023 0-.031s-.016-.008-.031 0l-.298.298c.329-.753 1.035-1.64 1.317-2l-.894 1.835zm.158-.934V133c-.251.361-.502.761-.659 1.13 0 .008 0 .016.016.023l-.847.816.235-.643c.016 0 .016 0 .016-.008l.58-.675v-.008l.016-.016.754-.902-.111.276zm-.016-.376l-.016.008-.047.243-.455.542.533-.988-.015.195zm-1.601 2.541l-.502.848.126-.479s.016 0 .016-.008l.36-.361zm-.909 1.625v-.016l.909-1.498-1.066 2.957.157-1.443zm-.392 3.192c-.126.165-.22.274-.267.306l-.047-.275.172-1.733c0-.008-.016-.008-.016-.016l.518-1.765-.36 3.483zm.188-1.255l.016-.267h.016l1.224-.934-1.256 1.201zm1.553-1.428v-.016l.157-.118-1.757 1.985.031-.345v-.008l1.569-1.498zm-.36 2.299h.016l.047-.055c-.251.486-1.161 2.244-1.334 2.542l-.109-.573 1.38-1.914zm-.911 4.409a1.799 1.799 0 01-.126.376l-.58-1.294c0-.008 0-.008-.016-.008l-.063-2.84.078.4v.008l.707 3.358zm.989-1.61l.016.322-.047.918v.008l-.22 2.651-.282-.62v-.008c.25-.469.47-2.604.533-3.271zm1.176 5.728h.016l.031.251-1.035-.612v-.008l-.33-.627c.016-.008 0-.016 0-.023l-.016-.008-.689-1.326v-.008l-.063-.109 2.086 2.47zm-.408-2.645l.408 2.559-.424-.502-.172-2.896.172.824c.001.008.001.015.016.015zm.628 2.997l-.11-.069-.392-2.448.251.698v.008l.251 1.811zm1.726 1.248l-.973-1.858-.063-.274c.298.431 1.333 1.985 1.553 2.306l-.517-.174zm1.239.455c.095.118.173.204.204.259l-2.008-.518h-.016l-1.177-.706 2.997.965zm-1.475-.793l.173.322-1.443-.463v-.023l-.33-.322c0-.008-.016-.016-.016-.022h-.016l-1.098-1.075 2.714 1.584h.016zm-1.427-.878l-.235-1.655.737 1.938-.502-.283zm-1.773-2.227l-.69-.832a.044.044 0 00-.047 0v.03l.078.134-.204-.221-.455-2.063 1.318 2.952zm-1.381-3.022l.047.275-.078-.142c.016-.008.031-.016.031-.031v-.102zm-.628-3.693l.502 1.388c0 .008 0 .008.017.016l.031 1.35-.251-.526-.299-2.228zm.236 2.086l-.329-.675.157-.518.172 1.193zm.408-3.154l-.142 1.452c-.016.008-.016.016-.016.023l.016.855-.298-.832.44-1.498zm-.393 1.162l-.109-.572.109-1.436.173.902v.016l.031.392-.204.698zm-.031.07c0 .008 0 .016.016.016l-.063.172-.204-.58c0-.016-.016-.016-.031-.016s-.016.016-.016.023l.126 1.012v.008l-.173.549v-.032l.016-2.785.329 1.633zm-.22 2.572l-.156-.298-.126-.4.078-.22.204.918zm-.171-1.489l-.235-.494c0-.008-.016-.016-.031-.008-.017 0-.017.016-.017.031l.235.965c-.016.008-.016.008-.016.016l-.078.204-.8-2.479.909 1.601c.016.008.016.016.032.016v-.008l.001.156zm.093 1.435l.753 1.389c.016.008.016.017.031.017v-.009l.267 1.208-.438-.549-.346-1.185c0-.009 0-.017-.016-.023l-.157-.541-.094-.307zm.314 1.208l-1.035-1.2.941.871.094.329zm.015.094c0 .008 0 .008.016.008l.188.644-.973-1.208-.016-.009-.424-.823 1.209 1.388zm.236.778c0 .008.016.016.016.016l.487.604.094.368-.706-.784c0-.009-.016-.017-.031-.009-.015.009-.016.023 0 .031l.471.91-.142-.102-1.113-2.182.924 1.148zm0 .391l.612.698v.008c0 .008.016.008.016.016l.313.354.659 1.239-.596-.4v-.008l-1.004-1.907zm2.118 3.279l.879.854-.564-.148-1.554-1.286 1.239.58zm.299.754c0 .008 0 .008.016.008l.643.165.299.29-.361-.109c0-.008-.016 0-.031.009 0 .016 0 .03.016.03l.329.204-.847-.204-1.365-.729 1.287.337.014-.001zm.047.438h.016l.926.229s.016-.008.031-.008l.957.572c0 .009.016.009.016 0l.393.204-.957-.156-1.303-.636c0-.008 0-.016-.016-.016l-.706-.345.643.156zm2.416 1.06c.016 0 .016 0 .031-.008l1.066.549-.737.008-1.851-.793 1.491.244zm-.487.251l-.22.016-1.522-.518.628.031s.016 0 .016-.009l1.098.48zm-.47.086h.032l.22-.023h.016v.009s0-.009.016-.009l.251-.022c.016 0 .016 0 .031-.008l.628.273-1.224.017c-.016 0-.016.008-.016.008l-.988-.165 1.02-.079h.014zm.659-.566l3.091.792c.172.188.313.354.392.479l-.659.181-2.824-1.452zm.69-1.553l1.066.98.016.008c.22.211.816.8 1.271 1.286l-.627-.157c-.142-.282-1.114-1.333-1.365-1.6l-.361-.517zm-1.005-.721l1.334 1.278c0 .009 0 0 .016.009.235.259 1.13 1.224 1.317 1.538l-.471-.118v-.008c-.016-.04-.094-.134-.203-.274 0-.016 0-.024-.016-.032h-.016a100.984 100.984 0 00-2.009-2.36l.048-.033zm-.109.04a85.041 85.041 0 011.993 2.322l-.596-.188a264.174 264.174 0 00-1.647-2.455c-.016-.008-.031-.016-.031-.008-.016.008-.016.016-.016.022l.047.235-.393-.745-.047-.283.69 1.1zm-.69-.778c0 .008.016.008.016.008l.455.863v.024c0 .008 0 .008.016.016l.737 1.396-.564-.328-.91-2.417.25.438zm-.644-1.208c0 .016 0 .023.016.016.016 0 .031-.008.031-.022v-.204l.173.651v.008l.016.031v.016l1.004 2.651-.219-.118v-.017l-1.146-3.059v-.008l-.063-.337v-.275l.188.667zm-.518-1.685l.047.22v.008l.173 3.13-.251-.313V145.42l.031-1.31zm-.235-.534l.157 1.844v1.679l-.346-.407.142-2.73v-.008l.047-.378zm-.125-.251l.031.596-.142 2.714-.188-.228-.016-.031v-.016l.22-2.73.095-.305zm-.157-.895c-.079.69-.282 2.667-.502 3.178l-.126-.282v-.017l.393-1.812v-.016l.235-1.051zm-.111-.831l-.156 1.812-.393 1.851-.251-.557s.016-.008.016-.016l.69-2.848.094-.242zm-.078-.51l-.063.729-.69 2.832-.095-.229v-.008c.142-.172.707-2.816.785-3.192l.063-.132zm-.125.142c0 .008 0 .016.016.016-.173.769-.439 1.969-.612 2.644l-.157-.722.973-2.777-.22.839zm.203-.934l-.973 2.785-.109-.542c.22-.274.863-1.843.973-2.141l.109-.102zm-.125.039c-.016.023-.722 1.765-.973 2.141l-.078-.336h.016c.063-.11.957-1.835 1.286-2.479l-.251.674zm.549-1.616l-.36.8-1.381 1.922-.095-.455 1.225-1.562c.016 0 .016 0 .016-.008l.595-.697zm-.109-.282l-.518.934-1.225 1.553-.063-.282 1.443-1.813.363-.392zm-.408.361l-1.412 1.781-.047-.251c.204-.118 1.601-2.079 1.82-2.385l.109-.086-.47.941zm.329-.91v.008l-.016.016a80.713 80.713 0 01-1.459 1.992l.063-.682h.016l1.961-2.22.486-.369-1.051 1.255zm.894-1.192l-2.196 1.687.188-.526v-.008l1.475-.878c.016 0 .016.008.016 0l.517-.275zm-.502.203l-1.49.887.094-.243 2.338-1.655.126-.071-1.068 1.082zm1.648-1.49l-.313.196.313-.345.393-.11-.393.259zm.722-.384l-.188.039-1.443.384 1.177-.471.454.048zm-.471-.095l-1.506.604c-.016 0-.016 0-.016.008l-.941.243.36-.534c0 .008 0 .008.016.008l2.855-.604-.768.275zm.721-.314l-1.585.337v-.008l-.454-.047.188-.204 1.334-.102.517.024zm.596-.439l-1.16.369c-.016 0-.016 0-.016.008l-1.209.094.173-.196.941-.149 1.271-.126zm.424-.345l-1.663.416-.909.149.376-.416 1.569-.141.627-.008zm.126-.18l-.753.141-1.507.133.204-.22 1.883-.118.173.064zm.188-.149l-.314.031-1.883.118.031-.039h.033l.329-.283h.016l1.099.086.689.087zm.674-.299l-1.364.165-1.067-.079.22-.181 2.056.063.155.032zm-.187-.086s0 .008-.016.008l-1.962-.063.424-.345.251.039c0 .016 0 .024.016.032 0 0 0 .008.016.008 0 0 0-.008.016-.008l.016-.016 1.773.306-.534.039zm.972-.078l-.251.023c0-.008-.016-.008-.016-.008l-1.914-.33.109-.102h.016l1.585.283c.016 0 .016.008.016.008l.455.126zm.11-.141l-.518-.032-1.632-.282.188-.188.251.079 1.616.345.095.078zm-.063-.126l-.848-.423 1.507.51-.251-.008-.408-.079zm.612.024l-1.819-.62.439-.188.847.494s0 .008.016.016l.517.298zm-.078-.26l-.408-.086-.267-.157.455.126v.008l.22.109zm1.616-1.38l-.22.079c-.016.008-.016.016-.016.031 0 .008 0 .016.016.016l.393.039-1.711.275c-.016 0-.016.016-.016.023 0 .016.016.023.016.023l.581.079-.722.102c-.016 0-.016.008-.016.008 0 .023 0 .031.016.039l.486.267-.863-.29v-.008l-.564.125c-.016 0-.031.016-.031.023s.016.023.031.023l1.537.432-.722-.055-.658-.188-.393-.235 1.396-.62 1.46-.188zm-1.35.055l-.125.086-.581.086.314-.102.392-.07zm-.109-.149l-.329.181-.017.008-.518.165s0 .008-.016.008l-.58.086.047-.071s.016 0 .659-.219c0 .008.016.008.016.008l.738-.166zm.329-.596l-1.051.698c-.235.071-.533.172-.644.212l.047-.079s.016 0 .016-.008l.519-.313c.016 0 .016 0 .016-.008l1.097-.502zm-.675-.228l-.438.683-.471.282.094-.133.815-.832zm-.438.024l-.424.784-.314.463-.454.086.298-.337h.016l.016-.023c.016-.008.016-.016.016-.016l.846-.957zm-1.005.682l.597-.776-.502 1.027v.008l-1.224.628.722-.588c0 .008.016.008.031 0l.376-.299zm.094-.886l-.502 1.114v.008l-.91.753h-.016v.008l-.393.533v.008l-.549.282.659-.871c.016 0 .016 0 .016-.008l.894-.902-.047.18c-.016.016 0 .023 0 .031.016.008.031 0 .031-.008l.817-1.128zm-.785.839l-.329.337.533-1.043-.204.706zm-.423.431l-.424.439.69-1.75-.267 1.302c-.014.002.001.009.001.009zm.22-1.318l-.706 1.742-.503.447.095-.314 1.114-1.875zm-1.349 1.688v-.008l.533-1.263-.204.808v.023c.016.008.032.008.032 0l.063-.031-.157.29h-.016l-.612 1.138-.438.392.533-1.075s0-.008.016-.008l.25-.266zm-.518-.636l-.22 1.216c0 .016 0 .024.016.032.016 0 .016 0 .031-.016l.753-1.521-.345 1.129c-.016 0-.016 0-.016.008 0 0-.346.393-.706.91l.094-.235c.016-.016 0-.023 0-.031-.016-.008-.031-.008-.031 0l-.204.235.031-.11c0-.008 0-.008.016-.016l.581-1.601zm-.518-.102l-.079 1.114v.008l-.298.361.377-1.483zm-.738.667l-.063.667c0 .016 0 .032.016.032s.031-.008.031-.023l.188-.832-.047 1.278v.008l-.298.377.094-.259c.016-.008 0-.023 0-.023-.016-.008-.031-.008-.031.008-.031.032-.204.291-.439.651l.095-.353c.016.008.031 0 .031-.016l.423-1.515zm-.267.266l-.188 1.13v.016l-.188.612c-.11.18-.235.376-.361.573l.016-.455.721-1.876zm-1.192 2.613l.518-2.644-.094 1.898-.031.549-.047.086c-.126.188-.235.384-.346.565v-.454zm-.062-2.087l.016 2v.62a9.677 9.677 0 00-.376.722l.078-1.412v-.023l.282-1.907zm-.409 3.514c0 .008-.016.016-.016.023v.008l-.016.495v.016l-.329 1.129.204-2.267c0-.008 0-.016-.016-.016l.109-.384v-.008l.126-.393-.062 1.397zm-.14-3.114l.031 2.126-.173.596-.157-.651v-.008l.299-2.063zm-.613.846l.267 1.161-.016.008.204.8-.188.643-.063-1.224c0-.016-.016-.023-.031-.023-.016 0-.016.008-.016.023l-.047.29-.11-1.678zm-.329.276l.393 1.593c.016 0 .016.008.016.008l-.173 1.161-.047-.706c0-.008-.016-.024-.032-.024l-.157-2.032zm-.439.518l.549 1.545c0 .008.016.016.016.016l-.109.839-.126-.51.017-.008-.347-1.882zm.267 1.835v.008l.157.62c0 .008.016.016.016.016l-.094.737-.455-2.393-.048-.432.424 1.444zm-.33-.494l.392 2.016v.008l-.047.384-.078-.361-.126-.486v-.008l-.141-1.553zm-.769.407l.565 1.279c0 .008.016.016.031.016.016-.008.016-.016.016-.031l-.345-1.828.596 1.679c-.016 0-.016.008-.016.008l.142.525v.165l-.33-1.083c-.016-.016-.016-.024-.031-.024-.016.008-.031.016-.016.032l.11 1.42-.408-.91v-.016l-.314-1.232zm-.219.369l.455.824v.008l.471 1.035s.016.016.031.016l.078.957-.188-.29-.847-2.55zm-.095 1.138l.91 1.459v.008l.22.322h.016l.047.651-.455-.682-.738-1.758zm.706 1.812s0 .008.016.008l.549.824s.017 0 .017.008v.22l-.737-1.31.155.25zm-.91-1.412l.424.651v.008l.063.604-.487-1.263zm-.203.596l.769 1.412.047.376-.424-.643v-.016l-.392-1.129zm-.032.675l.346.432v.016l.518.776.078.644-.942-1.868zm-.078 1.255l1.099 1.059c0 .008 0 0 0 0l.847.863.142.463-1.146-1.067-.942-1.318zm.031 1.436l1.303.925c.016.008.031.008.031 0 .016-.008.016-.022 0-.031l-1.381-1.812.91.863 1.02 2-.188-.142v-.008l-1.695-1.795zm.314 1.075l1.334.745.282.22v.008l.298.565-.518-.275v-.008l-1.396-1.255zm1.334 1.277v.009l.612.329.267.534-1.192-.792h-.016l-1.036-.878 1.365.798zm-.11.268l1.271.847.549 1.021-.407-.282v-.008l-.973-1.091v-.008l-.44-.479zm-.926-.15l1.317.659.863.965-.486-.345h-.031l-1.663-1.279zm-.062.66l1.961.965c0 .008.016.008.031 0l.596.684-.722-.229-1.866-1.42zm.345.964l1.521.519h.031l.754.234.094.11-2.009-.62c0-.008-.016-.016-.016-.016l-.375-.227zm.643 1.043l1.757.423.031-.016c0-.016-.016-.031-.016-.031l-2.322-1.177.204.022 2.165.668.439.479-.644-.298c-.016 0-.016 0-.031.008v.04l1.004.816-1.224-.299-1.363-.635zm1.004.66l.439.063c.016.009.031 0 .031-.008l1.192.29.549.447-1.381-.353-.83-.439zm-.722.29l1.585.228 1.317.698-.581-.134c0-.008-.016-.016-.016-.016l-2.305-.776zm.644.799l1.584.024.801.384h-.565l-1.82-.408zm.25.448l1.585.016c.016 0 .016 0 .016-.008l.628.008.455.221-1.601-.009h-.016l-1.067-.228zm1.193.283h1.584l.628.306-.486-.079c-.016 0-.031.008-.031.016 0 .017 0 .031.016.031l-.706-.039c-.016 0-.016.008-.031.017 0 .008.016.008.016.008l-.597-.103-.393-.157zm.329.234l.564.172-1.412.048.848-.22zm1.271.416c.016-.008.016-.008.016-.016l.69.212-1.098.086c-.016 0-.016.008-.016.024v.016l-1.256.047 1.664-.369zm.267.494c.017 0 .017-.016.017-.022 0-.008-.017-.023-.017-.023l-.204-.039.77.125s.016 0 .016-.008l.313.079-2.039.353 1.144-.465zm1.365.259c.016 0 .016-.008.016-.022v-.017l2.071.486-2.056-.125-.988-.125.957-.197zm.847.597v-.031c0-.008-.016-.016-.032-.008l-2.228.534 1.522-.715h.016l2.102.125-1.835.502c0 .009-.016.017-.016.031 0 .008.016.023.031.023h.125l-1.035.432 1.35-.893zm1.506.697s.016-.016 0-.022c0-.017-.016-.017-.031-.017l-2.149.676 1.521-.848s0-.008.016-.016l1.82.008-2.432 1.168 1.255-.949zm1.836-.273l-.55.008-3.059-.023 1.804-.493h.016v.008c.016 0 .016-.008.016-.017l.988-.274v.008s0-.008.017-.008v-.008l.486-.125.533.181-.157.667-.094.076zm4.785 2.377c-.94 0-1.819-.627-1.819-.635l-2.825-1.813.032-.157.643-.212v-.008c.408.235 1.067.659 2.087 1.404.645.463 1.316.698 1.992.698.848 0 1.459-.361 1.679-.503-.407.817-1.021 1.226-1.789 1.226z"/><path d="M139.003 145.756h-.032l-.031-.023c-.031-.031-.047-.063-.047-.086v-.032l1.051-3.192-2.714-1.977c-.031-.016-.047-.047-.047-.086v-.023l.016-.023a.1.1 0 01.094-.055h3.358l1.035-3.201c.016-.039.047-.07.094-.07s.095.039.11.086l1.035 3.185h3.357c.029 0 .063.016.077.047l.031.023v.031c0 .055-.05.086-.063.094l-2.699 1.969 1.035 3.225c0 .016 0 .047-.031.077l-.016.024-.063.008s-.016 0-.047-.016l-2.73-1.984-2.729 1.993-.044.006zm-1.507-5.326l2.651 1.921-1.02 3.131 2.651-1.938 2.651 1.93-1.004-3.122 2.65-1.921h-3.279l-1.021-3.122-1.004 3.122h-3.275z"/><path fill="#FDDF07" d="M144.431 145.473l-1.004-3.122 2.651-1.921h-3.28l-1.019-3.122-1.004 3.122h-3.279l2.651 1.921-1.019 3.131 2.651-1.938z"/><path d="M141.779 157.437c-8.66 0-15.705-7.053-15.705-15.72 0-8.661 7.045-15.713 15.705-15.713 8.678 0 15.721 7.052 15.721 15.713 0 8.667-7.043 15.72-15.721 15.72zm0-30.946c-8.394 0-15.219 6.833-15.219 15.227s6.825 15.227 15.219 15.227c8.395 0 15.234-6.833 15.234-15.227.001-8.395-6.84-15.227-15.234-15.227z" fill="#111211"/><g><path d="M124.584 144.061l1.146-.133.094.848-3.138.368-.109-1.026c-.11-.848.156-1.311.769-1.39.36-.038.659.103.91.439l1.255-1.075.109.957-1.066.8.03.212zm-.644.079l-.016-.156c-.031-.299-.173-.433-.439-.4-.22.024-.313.181-.282.471l.031.173.706-.088zM125.635 140.046l-.078 1.875-3.153-.125.078-1.875.675.032-.031 1.02.486.016.047-.941.675.023-.031.949.596.023.032-1.02.704.023zM124.004 136.948c.345.07.596.228.753.463.141.243.173.549.109.925l-.047.235 1.02.204-.156.839-3.106-.612.219-1.067c.079-.392.221-.675.424-.832.203-.163.469-.211.784-.155zm.125 1.49l.031-.149c.031-.125.016-.235-.047-.322-.047-.086-.141-.141-.267-.172-.204-.04-.345.055-.377.29l-.047.212.707.141zM124.271 133.354l1.757.698c.393.149.644.376.769.675.126.306.11.659-.063 1.067-.157.4-.376.667-.659.8-.298.133-.627.125-1.02-.024l-1.789-.706.314-.792 1.726.675c.204.086.377.102.502.063.126-.039.22-.133.282-.282.063-.165.063-.298 0-.408-.078-.11-.203-.212-.423-.29l-1.711-.683.315-.793zM124.788 132.366l.58-.926c.235-.369.455-.604.675-.706.22-.11.439-.094.675.047a.9.9 0 01.313.361.584.584 0 010 .431l.031.016a.75.75 0 01.439-.228c.157-.008.299.039.471.141.235.157.377.369.393.635.031.267-.063.565-.251.879l-.659 1.035-2.667-1.685zm1.475-.071l.142-.219c.063-.102.094-.196.078-.283 0-.078-.047-.149-.125-.204-.157-.094-.299-.024-.439.196l-.126.204.47.306zm.533.33l.55.353.172-.251c.142-.228.11-.4-.078-.518-.094-.055-.173-.071-.267-.039a.549.549 0 00-.235.219l-.142.236zM129.04 131.667l-2.369-2.094.564-.636 1.852 1.64.8-.91.518.455-1.365 1.545zM130.734 129.864l-2.103-2.369.644-.564 2.102 2.361-.643.572zM131.565 126.042a.521.521 0 00-.251.471c0 .196.079.424.251.667.33.502.69.62 1.083.361.109-.079.204-.165.298-.275.095-.102.173-.22.251-.337l.408.596a2.294 2.294 0 01-.644.644c-.392.267-.784.361-1.146.274-.36-.086-.689-.345-.988-.776-.188-.275-.298-.542-.329-.816-.031-.275 0-.534.125-.777.11-.235.299-.447.565-.62.282-.188.58-.314.926-.361l.156.698a2.37 2.37 0 00-.36.086 1.26 1.26 0 00-.345.165zM135.864 126.608l-.376-.479-.941.416.094.604-.862.384-.33-3.318 1.036-.455 2.228 2.479-.849.369zm-.831-1.043l-.33-.416a8.293 8.293 0 01-.282-.369c-.109-.149-.204-.251-.235-.321.016.07.031.196.063.361.047.172.094.51.172 1.02l.612-.275zM140.367 123.87c.079.518 0 .941-.235 1.271-.251.322-.627.526-1.146.612l-1.004.157-.502-3.114 1.083-.173c.502-.078.909-.016 1.224.204.314.212.502.557.58 1.043zm-.862.165c-.048-.282-.142-.486-.282-.612-.126-.118-.314-.157-.534-.125l-.251.039.267 1.75.188-.031c.267-.04.439-.142.533-.314.095-.166.126-.401.079-.707zM142.94 125.526l-1.867-.023.048-3.162 1.882.031-.018.683-1.02-.016-.016.502.958.016-.017.683-.941-.016-.016.596 1.021.016-.014.69zM143.38 125.565l.502-3.122.83.133-.375 2.439 1.19.188-.094.683-2.053-.321zM149.781 125.141c-.126.33-.33.542-.597.644s-.563.078-.927-.063l-.219-.086-.394.965-.784-.314 1.178-2.926 1.004.408c.377.149.61.337.736.573.128.234.128.501.003.799zm-1.49-.157l.156.063c.11.047.221.055.314.016a.408.408 0 00.219-.235c.079-.196.016-.345-.203-.432l-.203-.078-.283.666zM150.958 128.333l.172-.581-.862-.541-.455.416-.784-.502 2.557-2.134.957.604-.799 3.24-.786-.502zm.407-1.262l.157-.518c.031-.11.079-.259.142-.439.047-.173.094-.306.125-.376a5.058 5.058 0 01-.25.267c-.125.118-.377.361-.754.706l.58.36zM153.296 128.726l-.785.848-.627-.581 2.134-2.322.769.698c.629.581.737 1.098.313 1.553-.251.274-.563.361-.974.267l-.25 1.632-.707-.651.283-1.302-.156-.142zm.422-.47l.127.102c.22.204.424.211.596.016.143-.165.109-.337-.109-.542l-.108-.11-.506.534z"/><path d="M155.13 132.499l.377-.479-.611-.816-.564.228-.563-.753 3.14-1.083.689.91-1.896 2.737-.572-.744zm.832-1.043l.33-.416c.078-.102.172-.22.281-.369.127-.141.203-.243.268-.306a8.015 8.015 0 01-.329.157c-.157.07-.486.204-.957.4l.407.534zM157.986 133.755l.612 1.224-1.538.753a4.414 4.414 0 01-.706-1.012c-.203-.439-.251-.839-.108-1.2.125-.361.438-.659.909-.887.455-.227.878-.274 1.255-.133.377.133.69.439.926.91.078.18.143.353.188.525.047.181.063.337.078.479l-.722.055c0-.259-.063-.502-.174-.746a.723.723 0 00-.472-.416c-.22-.047-.455-.008-.722.125-.268.125-.438.282-.52.463-.094.172-.078.369.018.581.063.11.126.212.188.298l.438-.219-.235-.51.585-.29zM160.841 138.046l-1.836.486c-.393.11-.735.079-1.021-.094-.269-.165-.471-.463-.58-.886-.108-.416-.094-.761.063-1.043.158-.282.425-.471.832-.581l1.852-.494.221.832-1.789.479c-.22.055-.359.133-.438.243-.078.102-.096.235-.047.392.047.173.125.283.234.33.125.047.297.047.519-.016l1.771-.471.219.823zM158.001 141.301l.582-.188-.08-1.027-.596-.118-.063-.934 3.229.816.079 1.138-3.091 1.247-.06-.934zm1.272-.415l.502-.165c.109-.039.251-.094.439-.149l.375-.118c-.063-.008-.188-.023-.359-.047l-1.004-.188.047.667zM159.854 143.788l1.114.675-.11.917-1.788-1.247-1.224-.141.094-.855 1.192.142 2.056-.816-.11.926-1.224.399z"/></g><path d="M141.779 162.096c-11.233 0-20.38-9.139-20.38-20.379 0-11.234 9.146-20.381 20.38-20.381 11.25 0 20.381 9.147 20.381 20.381 0 11.241-9.131 20.379-20.381 20.379zm0-40.265c-10.967 0-19.894 8.919-19.894 19.886 0 10.966 8.927 19.894 19.894 19.894s19.895-8.928 19.895-19.894c-.001-10.967-8.928-19.886-19.895-19.886z" fill="#111211"/><path d="M141.779 166.763c-13.807 0-25.04-11.232-25.04-25.046 0-13.807 11.233-25.048 25.04-25.048 13.822 0 25.057 11.242 25.057 25.048-.001 13.815-11.234 25.046-25.057 25.046zm0-49.105c-13.273 0-24.067 10.794-24.067 24.06 0 13.273 10.794 24.067 24.067 24.067s24.067-10.794 24.067-24.067c.001-13.267-10.793-24.06-24.067-24.06z" fill="#111211"/></svg>