<svg xmlns="http://www.w3.org/2000/svg" viewBox="2.83 48.38 277.8 186.71"><path fill="#D6D4D1" d="M2.834 48.377H280.63v186.71H2.834z"/><path fill="#FFF" d="M84.845 70.899l45.536-10.12-45.536-10.111v-.008l-79.689.008V232.82l79.689-.007 45.536-10.119-45.536-10.12 45.536-10.119-45.536-10.12 45.536-10.127-45.536-10.117 45.536-10.121-45.527-10.118 45.527-10.113-45.536-10.118 45.536-10.119-45.536-10.12 45.536-10.119-45.536-10.118 45.536-10.127z"/><path fill="#8C183D" d="M84.845 50.66v.008l45.536 10.111-45.536 10.12 45.536 10.119-45.536 10.127 45.536 10.118-45.536 10.119 45.536 10.12-45.536 10.119 45.536 10.118-45.527 10.113 45.527 10.118-45.536 10.121 45.536 10.117-45.536 10.127 45.536 10.12-45.536 10.119 45.536 10.12-45.536 10.119h193.543V50.66z"/></svg>