<svg xmlns="http://www.w3.org/2000/svg" viewBox="2.84 48.38 277.79 186.71"><path fill="#D6D4D1" d="M2.835 48.376h277.794v186.712H2.835z"/><path fill="#189FD6" d="M5.134 50.635h273.253v91.082H5.134z"/><path fill="#1E5F3D" d="M5.134 187.26h273.253v45.537H5.134z"/><path fill="#FAD207" d="M5.134 141.717h273.269v45.537H5.134z"/><g fill="#E4BE06"><path d="M226.01 88.366c-4.314 0-7.821 3.506-7.821 7.821 0 4.307 3.507 7.821 7.821 7.821 4.307 0 7.813-3.515 7.813-7.821-.001-4.314-3.507-7.821-7.813-7.821z"/><path d="M255.614 96.187l-20.23-1.239 19.213-6.425-19.854 4.048 16.896-11.186-18.131 9.044 13.424-15.179-15.172 13.438 9.045-18.128v-.008l-11.18 16.896 4.041-19.854-6.427 19.219-1.229-20.231-1.239 20.231-6.425-19.219 4.048 19.854-11.187-16.889 9.045 18.128-15.172-13.43 13.422 15.171-18.129-9.037 16.896 11.178-19.854-4.04 19.219 6.425-20.223 1.231 20.223 1.24-19.219 6.424 19.854-4.048-16.896 11.179 18.129-9.037-13.422 15.173 15.172-13.43-9.045 18.128 11.178-16.889-4.038 19.854 6.425-19.219 1.238 20.223 1.23-20.223 6.426 19.219-4.041-19.854 11.181 16.889v.008l-9.046-18.136 15.172 13.43-13.424-15.171 18.131 9.045-16.898-11.187 19.854 4.048-19.212-6.432 20.224-1.232h.007zm-29.604 8.731c-4.816 0-8.73-3.915-8.73-8.731s3.914-8.73 8.73-8.73c4.809 0 8.723 3.914 8.723 8.73 0 4.816-3.915 8.731-8.723 8.731z"/></g></svg>