<svg xmlns="http://www.w3.org/2000/svg" viewBox="2.83 48.38 277.8 186.72"><path fill="#D6D4D1" d="M2.833 48.375H280.63v186.716H2.833z"/><path fill="#FCD11A" d="M5.124 222.594v10.268h15.399l257.84-171.889V50.705h-15.399z"/><path fill="#004091" d="M262.964 50.712l-257.84-.007v171.897z"/><path fill="#225A32" d="M20.523 232.87h257.84V60.98z"/><g fill="#FFF"><path d="M39.311 89.377h.008c.157 0 .267-.11.267-.267a.382.382 0 00-.031-.157l-2.573-8.252 6.738-5.115a.247.247 0 00.086-.298.272.272 0 00-.251-.188l-8.292.016-2.557-8.299c-.079-.235-.463-.235-.526 0l-2.542 8.299-8.307-.016c-.118 0-.212.094-.267.188-.024.126 0 .235.102.298l6.746 5.115-2.589 8.331a.248.248 0 00.11.298c.031.031.11.047.157.047a.21.21 0 00.142-.047l6.715-5.162 6.691 5.162a.35.35 0 00.173.047zM94.214 89.394h.016c.157 0 .267-.11.267-.282a.471.471 0 00-.039-.157l-2.572-8.252 6.746-5.115c.078-.063.133-.172.078-.298a.272.272 0 00-.251-.188l-8.292.016-2.557-8.299c-.078-.235-.463-.235-.525 0l-2.542 8.299-8.308-.016c-.118 0-.22.094-.267.188-.023.126 0 .235.103.298l6.747 5.115-2.589 8.331c-.039.125.008.251.11.298a.26.26 0 00.157.063c.055 0 .11-.031.142-.063l6.715-5.162 6.691 5.162a.42.42 0 00.17.062zM94.214 139.748h.016c.157 0 .267-.11.267-.282a.471.471 0 00-.039-.157l-2.572-8.236 6.746-5.115c.078-.079.133-.188.078-.314a.272.272 0 00-.251-.188l-8.292.031-2.557-8.315c-.078-.22-.463-.22-.525 0l-2.542 8.315-8.308-.031c-.118 0-.22.094-.267.188-.023.126 0 .235.103.314l6.747 5.115-2.589 8.331a.254.254 0 00.11.298c.031.031.102.047.157.047a.21.21 0 00.142-.047l6.715-5.162 6.691 5.162a.395.395 0 00.17.046zM66.766 114.559h.008c.157 0 .267-.11.267-.267a.382.382 0 00-.031-.157l-2.573-8.252 6.738-5.115c.086-.063.134-.172.086-.298a.272.272 0 00-.251-.188l-8.292.016-2.557-8.299c-.079-.235-.463-.235-.526 0l-2.542 8.299-8.307-.016c-.118 0-.212.094-.267.188-.023.126 0 .235.102.298l6.747 5.115-2.589 8.331a.248.248 0 00.11.298c.031.031.11.047.157.047a.207.207 0 00.141-.047l6.715-5.162 6.691 5.162c.048.03.126.047.173.047zM39.311 139.748h.008c.157 0 .267-.11.267-.282a.438.438 0 00-.031-.157l-2.573-8.236 6.738-5.115c.086-.079.133-.188.086-.314a.272.272 0 00-.251-.188l-8.292.031-2.557-8.315c-.079-.22-.463-.22-.526 0l-2.542 8.315-8.307-.031c-.118 0-.212.094-.267.188-.024.126 0 .235.102.314l6.746 5.115-2.589 8.331a.254.254 0 00.11.298c.031.016.11.047.157.047.055 0 .11-.031.142-.047l6.715-5.162 6.691 5.162c.047.013.125.046.173.046z"/></g></svg>