<svg xmlns="http://www.w3.org/2000/svg" viewBox="2.84 48.38 277.79 186.71"><path fill="#D6D4D1" d="M2.835 48.375h277.794v186.714H2.835z"/><path fill="#FFF" d="M5.142 141.732h273.229v91.083H5.142z"/><path fill="#E31F38" d="M5.142 50.659h273.229v91.074H5.142z"/><g fill="#FFF"><path d="M69.481 125.423a29.166 29.166 0 01-28.02-29.221 29.166 29.166 0 0128.02-29.22c.094 0 .173-.063.173-.149a.164.164 0 00-.11-.188 31.314 31.314 0 00-10.339-1.749c-17.258 0-31.299 14.042-31.299 31.307 0 17.266 14.042 31.308 31.299 31.308 3.53 0 7.013-.588 10.339-1.749a.162.162 0 00.11-.188c0-.087-.078-.151-.173-.151z"/><path d="M65.653 88.477c-.016-.063-.094-.118-.172-.118l-5.366.008-1.663-5.381c-.031-.149-.282-.142-.329 0l-1.647 5.381-5.381-.008c-.079 0-.141.055-.172.118a.204.204 0 00.063.204l4.361 3.311-1.663 5.389c-.032.063 0 .142.063.188a.216.216 0 00.11.039.166.166 0 00.094-.039l4.346-3.334 4.346 3.334c.016.023.063.031.094.031h.016a.174.174 0 00.173-.173.234.234 0 00-.031-.102l-1.647-5.334 4.346-3.311c.059-.055.091-.14.059-.203zM101.173 88.477c-.016-.063-.094-.118-.172-.118l-5.366.008-1.663-5.381c-.031-.149-.282-.149-.329 0l-1.647 5.381-5.381-.008c-.079 0-.142.055-.173.118a.204.204 0 00.063.204l4.361 3.311-1.662 5.389c-.032.063 0 .142.063.188a.166.166 0 00.094.039.175.175 0 00.11-.039l4.346-3.334 4.33 3.334a.197.197 0 00.109.031c.11 0 .188-.078.188-.173a.234.234 0 00-.031-.102l-1.663-5.334 4.361-3.311a.21.21 0 00.062-.203zM80.511 83.826h.016c.094 0 .173-.071.173-.181 0-.031-.016-.063-.031-.102l-1.663-5.334 4.361-3.311c.063-.047.095-.125.063-.196-.016-.071-.094-.126-.172-.126l-5.366.016-1.647-5.381c-.047-.149-.298-.149-.345 0l-1.647 5.381-5.381-.016c-.078 0-.141.055-.172.126-.016.07 0 .149.063.196l4.377 3.311-1.679 5.389a.158.158 0 00.063.196.283.283 0 00.109.032.22.22 0 00.094-.032l4.346-3.341 4.33 3.341c.03.016.077.032.108.032zM72.023 108.771l-5.381.016-1.647-5.397c-.047-.133-.298-.133-.345 0l-1.647 5.397-5.381-.008c-.063 0-.142.039-.157.109-.016.071 0 .157.063.196l4.361 3.326-1.679 5.381c-.031.071 0 .149.079.196.016.023.047.031.094.031.032 0 .079-.008.094-.039l4.346-3.326 4.346 3.326a.166.166 0 00.094.039h.016c.094 0 .172-.086.172-.18 0-.031-.016-.079-.016-.103l-1.679-5.326 4.361-3.326a.16.16 0 00.063-.196c-.031-.07-.078-.116-.157-.116zM94.584 108.771l-5.381.016-1.647-5.397c-.048-.133-.299-.133-.346 0l-1.647 5.397-5.381-.008c-.063 0-.126.039-.173.109-.016.071 0 .157.079.196l4.362 3.326-1.679 5.381c-.032.071 0 .149.063.196a.168.168 0 00.109.031.188.188 0 00.11-.039l4.33-3.326 4.346 3.326a.172.172 0 00.109.039c.095-.016.173-.086.173-.18 0-.031 0-.079-.031-.103l-1.663-5.326 4.361-3.326a.16.16 0 00.063-.196c-.016-.07-.094-.116-.157-.116z"/></g></svg>