<svg xmlns="http://www.w3.org/2000/svg" viewBox="2.84 48.38 277.79 186.71"><path fill="#D6D4D1" d="M2.835 48.376h277.794v186.712H2.835z"/><path fill="#FFF" d="M5.126 50.634h273.246v61.477H5.126z"/><path fill="#E1161F" d="M5.134 171.32H278.38v61.479H5.134z"/><path fill="#194F9A" d="M5.142 112.119h273.253v59.201H5.142z"/><path d="M96.607 86.539a53.874 53.874 0 00-22.945-5.162 53.89 53.89 0 00-22.953 5.162c-.031.016-.047.047-.047.086l1.867 27.44a29.649 29.649 0 006.417 16.552 29.64 29.64 0 0014.693 9.955c.008.008.016.008.023.008.007 0 .016 0 .024-.008a29.678 29.678 0 0014.692-9.955 29.707 29.707 0 006.417-16.552l1.858-27.44c.001-.039-.014-.071-.046-.086z" fill="#1C509A"/><g fill="#FFF"><path d="M57.315 120.599a5.683 5.683 0 004.895 2.824c.98 0 1.961-.259 2.816-.753a5.84 5.84 0 012.903-.784c1.02 0 2.023.274 2.91.784a5.659 5.659 0 005.64 0c.886-.51 1.89-.784 2.91-.784s2.024.274 2.902.784a5.651 5.651 0 007.712-2.071s.69-1.938.878-2.809c0-.016 0-.023-.008-.031l-8.589-11.46c-.016-.016-.055-.016-.063 0l-3.397 4.526-5.13-10.245c-.016-.031-.055-.031-.071 0l-5.13 10.245-3.389-4.526c-.016-.016-.055-.016-.071 0l-8.589 11.46c-.008.008-.008.016-.008.031.196.872.879 2.809.879 2.809zM85.107 128.553a5.788 5.788 0 01-2.895-.784 5.68 5.68 0 00-5.648 0c-.879.51-1.883.784-2.903.784s-2.024-.274-2.91-.784a5.659 5.659 0 00-5.64 0 5.839 5.839 0 01-2.902.784c-.22 0-.439-.023-.651-.047.306.4.628.784.965 1.161a26.553 26.553 0 0011.124 7.389c.008.008.008.008.016.008s.008 0 .008-.008a26.553 26.553 0 0011.124-7.389c.337-.377.659-.761.973-1.161a5.995 5.995 0 01-.661.047z"/><path d="M82.213 124.466a5.68 5.68 0 00-5.648 0 5.834 5.834 0 01-5.813 0 5.659 5.659 0 00-5.64 0 5.832 5.832 0 01-2.902.777 5.876 5.876 0 01-3.522-1.185c.393.753.816 1.482 1.271 2.196a5.663 5.663 0 002.259.479c.973 0 1.953-.267 2.808-.761a5.833 5.833 0 015.813 0 5.667 5.667 0 002.824.761c.989 0 1.961-.267 2.816-.761.886-.51 1.89-.777 2.91-.777s2.024.267 2.902.777a5.66 5.66 0 002.816.761 5.74 5.74 0 002.252-.471c.455-.722.887-1.451 1.271-2.204a5.876 5.876 0 01-3.522 1.185 5.781 5.781 0 01-2.895-.777z"/></g><g fill="#FDDD09"><path d="M75.545 93.779c-.008-.008-.016-.016-.031-.008l-1.412.322-.423-1.373c0-.031-.04-.031-.04 0l-.423 1.373-1.412-.322c-.016-.008-.023 0-.031.008 0 .016 0 .023.008.031l.98 1.059-.98 1.051c-.008.016-.008.031-.008.031.008.016.016.023.031.016l1.412-.321.423 1.38c0 .008.008.016.023.016a.017.017 0 00.016-.016l.423-1.38 1.412.321c.016.008.023 0 .031-.016 0 0 0-.016-.008-.031l-.98-1.051.98-1.059c.009-.008.009-.015.009-.031zM69.097 85.19c-.008-.008-.016-.016-.031-.008l-1.404.322-.423-1.38a.025.025 0 00-.047 0l-.423 1.38-1.404-.322c-.016-.008-.023 0-.031.008 0 .008 0 .023.008.031l.988 1.059-.988 1.051c-.008.016-.008.024-.008.032.008.008.016.023.031.008l1.404-.322.423 1.389c.008.008.016.016.024.016.016 0 .023-.008.023-.016l.423-1.389 1.404.322c.016.016.023 0 .031-.008s0-.016-.008-.032l-.98-1.051.98-1.059c.008-.008.016-.024.008-.031zM80.997 86.28l.989-1.059c0-.008.008-.023 0-.031 0-.008-.016-.016-.032-.008l-1.404.322-.424-1.38a.025.025 0 00-.047 0l-.424 1.38-1.404-.322c-.016-.008-.023 0-.032.008-.008.008-.008.023.008.031l.98 1.059-.98 1.051c-.016.016-.016.024-.008.032s.016.023.032.008l1.404-.322.424 1.389c0 .008.008.016.023.016s.023-.008.023-.016l.424-1.389 1.404.322c.016.016.032 0 .032-.008.008-.008 0-.016 0-.032l-.988-1.051z"/></g><path d="M96.607 86.539c-.58-.274-1.16-.518-1.749-.769-.023.032-.063.063-.063.102l-1.898 28.067c-.776 11.445-8.323 21.109-19.235 24.647-10.912-3.538-18.458-13.202-19.234-24.647l-1.906-28.067c0-.039-.031-.07-.063-.102-.588.251-1.168.495-1.749.769-.031.016-.047.047-.047.086l1.867 27.44a29.649 29.649 0 006.417 16.552 29.64 29.64 0 0014.693 9.955c.008.008.016.008.023.008.007 0 .016 0 .024-.008a29.678 29.678 0 0014.692-9.955 29.707 29.707 0 006.417-16.552l1.858-27.44c0-.039-.015-.071-.047-.086z" fill="#E01920"/></svg>