<svg xmlns="http://www.w3.org/2000/svg" viewBox="2.84 48.38 277.79 186.71"><path fill="#D6D4D1" d="M2.835 48.375h277.794v186.714H2.835z"/><path fill="#FFF" d="M5.134 50.634H278.38v61.477H5.134z"/><path fill="#E1161F" d="M5.134 171.322H278.38v61.477H5.134z"/><path fill="#194F9A" d="M5.142 112.119h273.253v59.203H5.142z"/><path d="M52.279 137.652c0 25.895 18.364 39.16 34.672 47.805 16.301-8.646 34.665-21.91 34.665-47.805 0-21.557-.871-35.52-1.185-39.881H53.463c-.314 4.361-1.184 18.34-1.184 39.881z" fill="#E2131F"/><path d="M54.954 99.373h63.987c.369 5.53 1.083 18.787 1.083 38.28 0 24.655-17.359 37.56-33.072 45.992-9.994-5.373-17.125-10.729-22.364-16.787-7.209-8.331-10.716-17.886-10.716-29.205-.001-19.471.713-32.743 1.082-38.28m-2.966-3.195s-1.302 14.904-1.302 41.474c0 26.577 18.544 40.328 36.257 49.608 17.721-9.28 36.265-23.031 36.265-49.608 0-26.569-1.302-41.474-1.302-41.474H51.988z" fill="#FFF"/><path d="M113.583 160.999c-1.334-2.135-4.408-6.252-8.378-6.252-5.35 0-7.569 4.377-7.569 4.377-4.119-10.019-10.387-9.5-10.692-9.523-.385.039-6.636-.313-10.684 9.523 0 0-2.22-4.377-7.57-4.377-3.985 0-7.083 4.164-8.401 6.282a45.719 45.719 0 004.299 5.828c5.24 6.058 12.371 11.414 22.364 16.787 9.766-5.24 20.159-12.214 26.631-22.645z" fill="#174F9B"/><path d="M66.626 138.64c4.73-1.388 13.077-1.788 17.469-1.914v13.445c1.562-.604 2.69-.558 2.848-.572.126.008 1.278-.07 2.879.549v-13.421c4.4.126 12.724.526 17.446 1.914 0 0-.251-1.615-.251-4.737 0-3.13.251-4.746.251-4.746-4.723 1.389-13.046 1.796-17.446 1.914v-9.327c3.727.141 10.127.564 13.838 1.891 0 0-.204-1.616-.204-4.738 0-3.13.204-4.746.204-4.746-3.711 1.326-10.111 1.758-13.838 1.898v-.541s.683-8.339 1.875-12.559c0 0-2.181.267-4.738.267-2.55 0-4.738-.267-4.738-.267 1.192 4.22 1.875 12.559 1.875 12.559v.541c-3.718-.141-10.143-.564-13.861-1.898 0 0 .211 1.616.211 4.746h-.008c0 3.122-.204 4.738-.204 4.738 3.718-1.326 10.143-1.75 13.861-1.891v9.335c-4.393-.126-12.739-.525-17.469-1.922 0 0 .251 1.616.251 4.746 0 3.121-.251 4.736-.251 4.736z" fill="#FFF"/></svg>