<svg xmlns="http://www.w3.org/2000/svg" viewBox="2.84 48.38 277.79 186.71"><path fill="#D6D4D1" d="M2.835 48.375h277.794v186.714H2.835z"/><path fill="#4D85C0" d="M5.149 50.713h273.223v182.155H5.149z"/><path d="M170.417 135.315a.19.19 0 00-.188-.125h-21.588l-6.715-20.591c-.031-.079-.094-.133-.172-.133a.21.21 0 00-.188.133l-6.668 20.576-21.604.023c-.094 0-.157.055-.188.134a.181.181 0 00.063.211l17.478 12.716-6.652 20.6a.182.182 0 00.063.211.21.21 0 00.109.039.17.17 0 00.11-.039c5.083-3.726 14.527-10.573 17.478-12.715l17.509 12.708a.185.185 0 00.219 0 .222.222 0 00.079-.22l-6.685-20.566 17.479-12.741a.197.197 0 00.061-.221z" fill="#FFF"/></svg>