<svg xmlns="http://www.w3.org/2000/svg" viewBox="2.84 48.38 277.8 186.71"><path fill="#D6D4D1" d="M2.835 48.378H280.63v186.708H2.835z"/><path fill="#387D3D" d="M5.157 50.645h273.246v36.429H5.157zM5.157 196.375h273.246v36.429H5.157z"/><path fill="#B40E2D" d="M5.172 105.296h273.246v72.865H5.172z"/><path fill="#FFF" d="M5.172 87.073h273.261v18.214H5.172zM5.172 178.153h273.261v18.213H5.172z"/><path d="M128.868 149.269l-7.853 24.16c0 .063.031.11.079.149.047.031.125.031.156 0l20.536-14.938 20.551 14.938c.031.021.049.021.08.021.029 0 .068 0 .094-.021.055-.039.055-.088.055-.149l-7.852-24.16 20.527-14.935c.063-.039.063-.094.063-.149-.039-.055-.088-.102-.135-.102h-25.398l-7.844-24.145c-.047-.125-.235-.125-.267 0l-7.845 24.145h-25.384c-.078 0-.125.047-.149.102 0 .055.009.11.071.149l20.515 14.935z" fill="#EBC71F"/></svg>