<svg xmlns="http://www.w3.org/2000/svg" viewBox="2.83 48.37 277.8 186.72"><path fill="#D6D4D1" d="M2.833 48.372H280.63v186.72H2.833z"/><path fill="#2FA32F" d="M5.14 50.632h273.263v50.096H5.14zM5.14 182.706h273.263v50.097H5.14z"/><path fill="#FFCF05" d="M5.155 100.735H278.42v81.97H5.155z"/><path fill="#D11234" d="M5.132 50.632V232.81l91.085-91.1z"/><path fill="#D11234" d="M5.132 50.624v182.192l91.085-91.106z"/><path d="M158.387 136.641l-4.949-15.241c-.063-.235-.446-.235-.519 0l-4.941 15.241h-16.043c-.134 0-.219.104-.282.212-.008.079.023.229.118.299l12.991 9.43-4.991 15.28c-.015.127.024.235.11.283.103.086.221.086.33 0l12.968-9.446 12.982 9.446c.047.039.108.039.172.039.03 0 .103 0 .155-.039.079-.048.11-.156.095-.283l-4.957-15.28 12.967-9.43c.104-.07.119-.22.119-.299-.063-.108-.156-.212-.282-.212h-16.043zM226.707 136.641l-4.939-15.241c-.071-.235-.455-.235-.52 0l-4.949 15.241h-16.043c-.127 0-.221.104-.282.212-.009.079.022.229.126.299l12.98 9.43-4.979 15.28c-.018.127.016.235.107.283a.232.232 0 00.321 0l12.97-9.446 12.981 9.446c.056.039.118.039.181.039.023 0 .096 0 .156-.039.079-.048.104-.156.094-.283l-4.965-15.28 12.969-9.43c.102-.07.123-.22.117-.299-.063-.108-.15-.212-.283-.212h-16.042z"/></svg>