<svg xmlns="http://www.w3.org/2000/svg" viewBox="2.84 48.38 277.79 186.71"><path fill="#D6D4D1" d="M2.835 48.376h277.793v186.712H2.835z"/><path fill="#CD0E26" d="M5.126 50.667h273.235v61.477H5.126z"/><path d="M5.126 171.352h273.235v61.479H5.126z"/><path fill="#FFF" d="M5.126 112.151h273.25v59.201H5.126z"/><path d="M82.142 146.063l-4.487 13.807c0 .031.017.063.048.078s.078.016.094 0l11.735-8.527 11.735 8.527c.016.016.031.016.047.016s.047 0 .063-.016c.031-.016.031-.047.031-.078l-4.502-13.807 11.734-8.535c.048-.023.048-.055.048-.086-.031-.032-.063-.063-.095-.063H94.097l-4.487-13.791c-.031-.071-.141-.071-.157 0l-4.486 13.791H70.47c-.047 0-.063.031-.079.063 0 .031 0 .063.031.086l11.72 8.535zM186.567 146.063l-4.487 13.807c0 .031.018.063.039.078.031.016.078.016.094 0l11.736-8.527 11.742 8.527c.016.016.031.016.047.016.018 0 .04 0 .057-.016.031-.016.031-.047.031-.078l-4.496-13.807 11.735-8.535c.039-.023.039-.055.039-.086-.022-.032-.056-.063-.086-.063h-14.505l-4.487-13.791c-.022-.071-.133-.071-.147 0l-4.486 13.791h-14.496c-.057 0-.07.031-.087.063 0 .031 0 .063.03.086l11.727 8.535z" fill="#027A3D"/></svg>