<svg xmlns="http://www.w3.org/2000/svg" viewBox="2.83 48.38 277.8 186.71"><path fill="#D6D4D1" d="M2.833 48.375H280.63v186.714H2.833z"/><path fill="#006A4D" d="M5.187 50.666h273.24v36.43H5.187z"/><path fill="#FFCF05" d="M5.187 87.095h273.24v36.43H5.187z"/><path fill="#006A4D" d="M5.187 123.525h273.24v36.43H5.187z"/><path fill="#FFCF05" d="M5.187 159.956h273.24v36.431H5.187z"/><path fill="#006A4D" d="M5.187 196.386h273.24v36.43H5.187z"/><path fill="#D00225" d="M5.155 50.673h109.298v109.298H5.155z"/><path d="M47.791 112.332l-7.295 22.419c0 .055.031.11.094.142.031.031.094.031.125 0l19.085-13.87 19.085 13.869a.114.114 0 00.079.023c.016 0 .047 0 .07-.023.055-.032.055-.086.055-.142l-7.295-22.419 19.062-13.885c.079-.032.079-.086.079-.149-.039-.047-.079-.078-.134-.078h-23.58l-7.303-22.427c-.04-.102-.212-.102-.235 0L52.38 98.219H28.822a.169.169 0 00-.149.078c0 .063.016.118.079.149l19.039 13.886z" fill="#FFF"/></svg>