<svg xmlns="http://www.w3.org/2000/svg" viewBox="2.84 48.38 277.79 186.71"><path fill="#D6D4D1" d="M2.835 48.376h277.793v186.712H2.835z"/><path fill="#D10E1D" d="M5.134 50.667h273.243v52.37H5.134z"/><path fill="#076629" d="M5.134 180.46h273.243v52.369H5.134z"/><path fill="#FFF" d="M5.142 103.06h273.251v77.417H5.142z"/><g fill="#F7C200"><path d="M159.048 154.284s-4.439 4.103-9.641 2.086c-5.209-2.016-6.416-6.966-6.416-12.684v-3.114s.094-2.989 3.137-2.989c0 0 1.68-.039 2.689 1.561 0 0 .398-.902.398-2.22s-.688-7.554-7.458-7.554c-6.763 0-7.46 6.236-7.46 7.554 0 1.318.407 2.22.407 2.22 1.004-1.6 2.69-1.561 2.69-1.561 3.044 0 3.139 2.989 3.139 2.989v3.114c0 5.718-1.209 10.668-6.417 12.684-5.209 2.016-9.642-2.086-9.642-2.086-5.679 10.52-14.959 4.432-14.959 4.432.549 6.158 6.652 5.993 6.652 5.993 8.182 0 8.966-7.578 8.966-7.578 2.809 4.62 7.139 4.542 7.139 4.542 7.036 0 9.484-8.4 9.484-8.4s2.457 8.4 9.492 8.4c0 0 4.321.078 7.14-4.542 0 0 .784 7.578 8.958 7.578 0 0 6.111.165 6.66-5.993.001-.001-9.278 6.086-14.958-4.432zm-17.32-16.003s-1.6-3.06-5.357-2.44c0 0 .683-4.636 5.357-4.636 4.675 0 5.35 4.636 5.35 4.636-3.758-.619-5.35 2.44-5.35 2.44z"/><path d="M143.391 163.227s.22-1.594-1.63-3.373c-1.852 1.779-1.632 3.373-1.632 3.373a6.179 6.179 0 00-2.926.769c2.141 3.012 4.558 2.824 4.558 2.824s2.423.188 4.564-2.824c.001-.001-1.263-.769-2.934-.769zM158.46 164.732s.463-1.545-1.082-3.585c-2.11 1.467-2.144 3.075-2.144 3.075-1.646-.26-3.021.298-3.021.298 1.646 3.311 4.072 3.507 4.072 3.507s2.359.557 4.948-2.079c.004 0-1.126-.957-2.773-1.216zM125.067 164.732s-.463-1.545 1.083-3.585c2.109 1.467 2.141 3.075 2.141 3.075 1.647-.26 3.013.298 3.013.298-1.647 3.311-4.063 3.507-4.063 3.507s-2.361.557-4.95-2.079c-.001 0 1.128-.957 2.776-1.216zM141.76 167.737c-13.964 0-25.056 3.701-25.056 3.701l1.318 4.487c12.888-3.789 23.737-3.499 23.737-3.499s10.856-.29 23.737 3.499l1.325-4.487c.001 0-11.091-3.701-25.061-3.701zM139.469 114.614l-1.396 4.283c0 .008.008.016.016.023.008.007.023.008.031 0l3.641-2.651 3.646 2.651c.008.008.008.008.016.008 0 0 .009 0 .017-.008.009-.008.009-.016.009-.023l-1.396-4.283 3.646-2.651c.008-.008.008-.016.008-.023-.008-.016-.016-.023-.021-.023h-4.503l-1.395-4.283c0-.016-.04-.016-.048 0l-1.388 4.283h-4.503c-.016 0-.023.008-.023.023 0 .008 0 .016.008.023l3.635 2.651zM121.843 119.266l-1.389 4.283c0 .016.008.023.008.023.016.008.023.008.031 0l3.64-2.644 3.647 2.644.008.008c.016 0 .016 0 .023-.008.008 0 .008-.008.008-.023l-1.396-4.283 3.647-2.651c.008 0 .008-.016.008-.023-.008-.008-.016-.016-.023-.016h-4.503l-1.396-4.283c0-.023-.039-.023-.039 0l-1.396 4.283h-4.495c-.023 0-.023.008-.031.016 0 .008 0 .023.008.023l3.64 2.651zM157.095 119.266l-1.396 4.283c0 .016.008.023.016.023a.04.04 0 00.023.008l3.646-2.651 3.641 2.644a.025.025 0 00.016.008h.018c.018-.008.018-.016.018-.031l-1.396-4.283 3.64-2.651c.017 0 .017-.016.017-.023-.008-.008-.017-.016-.03-.016H160.8l-1.389-4.283c-.01-.023-.039-.023-.048 0l-1.396 4.283h-4.494c-.018 0-.023.008-.023.016s0 .023.008.023l3.637 2.65zM108.962 132.241l-1.396 4.283s.008.016.016.016a.023.023 0 00.031 0l3.64-2.644 3.641 2.644a.025.025 0 00.016.008h.016c.016-.008.016-.016.016-.016l-1.396-4.291 3.64-2.651c.016-.008.016-.016.016-.031-.008-.008-.016-.016-.031-.016h-4.503l-1.388-4.283a.025.025 0 00-.048 0l-1.396 4.283h-4.495c-.016 0-.023.008-.023.008 0 .023 0 .031.008.039l3.636 2.651zM104.302 149.796l-1.396 4.283s.008.016.016.024c.016.008.023.008.031 0l3.64-2.651 3.647 2.651c.008.008.008.008.016.008 0 0 .008 0 .016-.008.008-.009.008-.017.008-.017l-1.396-4.291 3.647-2.65c.008-.009.008-.017.008-.032-.008-.008-.016-.016-.023-.016h-4.503l-1.396-4.283c0-.017-.039-.017-.039 0l-1.396 4.283h-4.503c-.016 0-.016.008-.023.016 0 .016 0 .023.008.032l3.638 2.651zM169.976 132.241l-1.389 4.283s.008.016.016.016a.039.039 0 00.023.008l3.641-2.651 3.646 2.644c.008.008.008.008.017.008h.016c.009-.008.009-.016.009-.016l-1.39-4.291 3.642-2.651c.008-.008.008-.016.008-.031-.008-.008-.018-.016-.023-.016h-4.502l-1.396-4.283c0-.023-.039-.023-.039 0l-1.396 4.283h-4.495c-.016 0-.021.008-.029.016 0 .016 0 .023.016.031l3.625 2.65zM174.636 149.796l-1.396 4.283s.008.016.016.024c.01.008.023.008.031 0l3.642-2.651 3.646 2.651c0 .008.008.008.008.008.008 0 .018 0 .018-.008.018-.009.018-.017.018-.017l-1.396-4.291 3.64-2.65c.017-.009.017-.017.017-.032-.008-.008-.017-.016-.03-.016h-4.503l-1.389-4.283c-.01-.017-.039-.017-.049 0l-1.389 4.283h-4.502c-.018 0-.023.008-.023.008 0 .022 0 .031.008.04l3.633 2.651z"/></g></svg>