<svg xmlns="http://www.w3.org/2000/svg" viewBox="2.84 48.38 277.79 186.71"><path fill="#D6D4D1" d="M2.835 48.376h277.794v186.712H2.835z"/><path fill="#D20C1D" d="M5.126 50.639v182.164h.008V50.647l159.384 91.074L5.134 232.803h273.229V50.639z"/><path d="M5.134 50.647v182.156l91.074-91.082z"/><path fill="#FECA14" d="M5.134 50.647l91.074 91.074-91.074 91.082 159.384-91.082z"/><path d="M34.033 150.107l2.133 17.132c.008.023.032.063.071.07.024.009.094-.022.094-.022l8.37-15.125 16.959 3.295.047-.008c.031-.016.031-.016.063-.047.008-.031-.016-.07-.023-.094l-11.759-12.639 8.354-15.115c.008-.031-.016-.063-.032-.11-.008-.016-.07-.031-.086-.031l-15.665 7.311-11.782-12.646c-.047-.063-.157-.008-.157.071l2.095 17.164-15.634 7.288c-.047.022-.071.086-.071.086.031.055.047.094.094.094l16.929 3.326z" fill="#FFF"/></svg>