<svg xmlns="http://www.w3.org/2000/svg" viewBox="2.84 48.37 277.79 186.72"><path fill="#D6D4D1" d="M2.836 48.374h277.792v186.718H2.836z"/><path fill="#DF001A" d="M5.142 50.664h273.259v182.161H5.142z"/><path d="M141.779 96.209c-25.118 0-45.546 20.427-45.546 45.538 0 25.11 20.428 45.539 45.546 45.539 25.104 0 45.547-20.429 45.547-45.539 0-25.111-20.444-45.538-45.547-45.538zm25.73 57.423a.186.186 0 010 .22c-.047.07-.125.094-.219.078l-13.963-4.542-8.632 11.884a.19.19 0 01-.155.079c-.017 0-.031-.008-.063-.016-.079-.024-.126-.095-.126-.182V146.47l-13.964-4.542a.176.176 0 01-.141-.181c0-.086.047-.157.141-.18l13.964-4.542v-14.686c0-.086.047-.157.126-.18a.192.192 0 01.219.063l8.632 11.885 13.963-4.542c.094-.016.172.008.219.078a.186.186 0 010 .22l-8.629 11.885 8.628 11.884zm-16.661-38.902c-14.889 0-27.017 12.12-27.017 27.017 0 14.896 12.128 27.017 27.017 27.017a26.902 26.902 0 0018.278-7.131.204.204 0 01.267 0c.078.063.078.173.03.251-6.432 8.81-16.771 14.066-27.646 14.066-18.858 0-34.202-15.346-34.202-34.203 0-18.858 15.344-34.203 34.202-34.203 10.856 0 21.183 5.24 27.613 14.026a.177.177 0 01.078.149c0 .11-.095.196-.203.196a.27.27 0 01-.144-.055 26.894 26.894 0 00-18.273-7.13z" fill="#FFF"/></svg>