<svg xmlns="http://www.w3.org/2000/svg" viewBox="2.84 48.38 277.79 186.71"><path fill="#D6D4D1" d="M2.835 48.378h277.793v186.708H2.835z"/><path fill="#E00E1B" d="M5.133 50.669h273.238v182.15H5.133z"/><g fill="#FFF"><path d="M156.777 165.963a36.276 36.276 0 01-26.905 11.986c-19.964 0-36.201-16.238-36.201-36.202 0-19.963 16.237-36.2 36.201-36.2a36.255 36.255 0 0126.905 11.994.142.142 0 00.104.039c.07-.008.125-.055.125-.125a.132.132 0 00-.047-.102c-8.41-13.241-22.778-21.14-38.438-21.14-25.117 0-45.543 20.426-45.543 45.535 0 25.109 20.426 45.537 45.543 45.537 15.665 0 30.043-7.916 38.46-21.172.039-.055.022-.125-.03-.172-.055-.032-.134-.032-.174.022z"/><path d="M194.438 128.327c-.03-.047-.094-.063-.142-.047l-15.609 5.067-9.633-13.264a.122.122 0 00-.148-.047.117.117 0 00-.087.117v16.402l-15.603 5.067a.134.134 0 000 .25l15.603 5.067v16.401a.13.13 0 00.087.125h.039a.141.141 0 00.109-.047l9.633-13.271 15.609 5.066c.047.017.108 0 .142-.047a.13.13 0 000-.148l-9.647-13.272 9.647-13.272c.03-.037.03-.1 0-.147z"/></g></svg>