<svg xmlns="http://www.w3.org/2000/svg" viewBox="2.83 48.38 277.8 186.71"><path fill="#D6D4D1" d="M2.834 48.378H280.63v186.708H2.834z"/><path fill="#5C98B1" d="M5.179 50.669h273.232V232.82H5.179z"/><path fill="#FFF" d="M141.794 50.669h-16.418L73.487 85.262l-51.89-34.593H5.179v10.942l51.89 34.593-51.89 34.594v10.942h16.418l51.89-34.593 51.889 34.593h16.418v-10.942L89.905 96.204l51.889-34.593z"/><path fill="#CE102A" d="M5.179 50.669v5.467l68.308 45.544v-5.476z"/><path fill="#CE102A" d="M141.794 136.273L73.487 90.729v5.475l68.307 45.536zM5.179 141.74h8.205l60.103-40.06v-5.476z"/><path fill="#CE102A" d="M133.589 50.669L73.487 90.737v5.476l68.3-45.544z"/><path fill="#CE142B" d="M141.794 88.235H79.182V50.669h-11.39v37.566H5.179v15.939h62.613v37.566h11.39v-37.566h62.612z"/><path fill="#FFF" d="M63.234 50.669v33.008H5.179v4.558h62.613V50.669zM5.179 108.724h58.055v33.016h4.558v-37.566H5.179zM141.794 104.174H79.182v37.566h4.558v-33.016h58.054zM141.794 83.677H83.74V50.669h-4.558v37.566h62.612z"/><path d="M244.681 79.622l-3.334 10.221c-.016.039 0 .07.031.094a.125.125 0 00.107 0l8.678-6.323 8.668 6.331a.136.136 0 00.056.008c.016 0 .03 0 .047-.008a.117.117 0 00.03-.102l-3.324-10.221 8.691-6.314c.029-.023.039-.063.029-.094-.016-.031-.047-.063-.087-.063l-10.724.008-3.311-10.221c-.031-.071-.142-.071-.164 0l-3.304 10.221-10.731-.008c-.039 0-.069.032-.078.063-.016.031 0 .071.022.094l8.698 6.314zM222.019 162.12l-3.311-10.221c-.018-.071-.144-.071-.158 0l-3.309 10.221-10.732-.008c-.03 0-.063.016-.077.063-.017.031 0 .07.03.095l8.69 6.307-3.325 10.221c-.017.031 0 .079.022.095.03.023.069.023.104 0l8.676-6.321 8.675 6.338c.017.009.032.009.056.009.016 0 .031 0 .047-.009.031-.03.039-.063.031-.109l-3.326-10.223 8.684-6.305c.031-.023.047-.063.031-.095-.016-.03-.047-.063-.078-.063l-10.73.005zM252.626 140.784l-3.293-10.222c-.033-.071-.144-.071-.174 0l-3.304 10.222-10.729-.008c-.039 0-.07.032-.086.063 0 .031 0 .071.029.094l8.692 6.307-3.327 10.221c-.008.047 0 .078.029.094.031.023.07.023.096 0l8.677-6.322 8.685 6.338a.1.1 0 00.047.008c.023 0 .039 0 .057-.008.023-.024.031-.063.023-.11l-3.326-10.221 8.684-6.307c.031-.023.047-.063.031-.094 0-.031-.031-.063-.07-.063l-10.741.008zM118.223 205.466l-3.311-10.221c-.023-.071-.142-.071-.157 0l-3.31 10.221h-10.731c-.031 0-.07.023-.078.055-.016.039 0 .07.031.104l8.684 6.299-3.326 10.235c-.008.031 0 .07.031.095a.1.1 0 00.103 0l8.676-6.338 8.676 6.338c.016.008.031.019.047.019s.031-.011.047-.019c.031-.022.047-.063.031-.095l-3.326-10.221 8.691-6.313c.031-.024.047-.063.031-.097-.016-.039-.047-.063-.078-.063h-10.731v.001zM161.813 163.382l3.317-10.236c.017-.031 0-.071-.03-.086-.031-.023-.063-.023-.095 0l-8.676 6.322-8.677-6.322c-.03-.023-.069-.023-.095 0-.031.016-.047.055-.031.086l3.318 10.229-8.684 6.307c-.031.023-.047.063-.031.094.008.039.047.057.078.057l10.731-.01 3.311 10.238c.008.03.047.055.08.055a.088.088 0 00.076-.055l3.313-10.238 10.729.01c.049 0 .088-.031.088-.07 0-.029-.023-.063-.057-.078l-8.665-6.303zM189.771 121.236l3.318 10.221c0 .047.031.063.07.063s.068-.016.086-.063l3.311-10.221 10.73.016c.047 0 .077-.047.077-.094a.088.088 0 00-.047-.079l-8.676-6.299 3.323-10.221c.018-.04 0-.071-.029-.102-.031-.023-.068-.023-.104 0l-8.668 6.33-8.676-6.33c-.031-.023-.078-.023-.102 0-.031.016-.039.063-.031.094l3.316 10.229-8.669 6.314c-.031.016-.047.047-.031.094.01.031.039.047.08.047l10.722.001zM221.626 107.116l3.311 10.236c.008.032.031.047.078.047a.086.086 0 00.078-.047l3.311-10.236 10.73.016c.049 0 .08-.047.08-.086s-.016-.07-.049-.086l-8.676-6.299 3.334-10.221c.008-.032 0-.071-.031-.094s-.07-.023-.104 0l-8.676 6.322-8.678-6.33a.073.073 0 00-.094 0c-.031.031-.048.063-.031.102l3.317 10.221-8.684 6.315c-.031.016-.048.063-.031.094.017.032.047.063.079.063l10.736-.017zM199.238 189.848l3.326-10.221a.093.093 0 00-.031-.095c-.031-.017-.07-.017-.095 0l-8.676 6.322-8.685-6.322c-.022-.017-.07-.017-.103 0-.031.022-.039.056-.031.095l3.326 10.221-8.676 6.314c-.031.024-.048.063-.031.095 0 .031.031.063.069.063l10.738-.008 3.295 10.229c.017.032.047.056.078.056.047 0 .078-.023.086-.056l3.312-10.229 10.729.008h.008c.049 0 .078-.039.078-.086 0-.039-.016-.069-.047-.078l-8.67-6.308zM161.813 199.607l3.317-10.229c.017-.031 0-.063-.03-.086-.031-.023-.063-.023-.095 0l-8.676 6.322-8.677-6.322c-.03-.023-.069-.023-.095 0-.031.023-.047.055-.031.086l3.318 10.229-8.684 6.314c-.031.016-.047.063-.031.094.008.039.047.055.078.055l10.731-.008 3.311 10.237c.008.031.047.047.08.047.029 0 .063-.016.076-.047l3.313-10.237 10.729.008c.049 0 .088-.039.088-.078s-.023-.068-.057-.086l-8.665-6.299z" fill="#FFCF05"/></svg>