<svg xmlns="http://www.w3.org/2000/svg" viewBox="2.83 48.38 277.8 186.71"><path fill="#D6D4D1" d="M2.834 48.375H280.63v186.714H2.834z"/><path fill="#E1001A" d="M5.132 50.689h273.254v182.156H5.132z"/><path fill="#162A81" d="M5.148 50.681h136.62v91.09H5.148z"/><g fill="#FFF"><path d="M73.458 79.094c-9.445 0-17.132 7.688-17.132 17.132 0 9.444 7.688 17.125 17.132 17.125 9.437 0 17.125-7.68 17.125-17.125-.001-9.445-7.689-17.132-17.125-17.132zM69.457 77.242h.031c1.146-.282 2.573-.431 4.04-.431 1.373 0 2.714.133 3.891.392.008.008.016.008.031.008a.136.136 0 00.125-.133.234.234 0 00-.016-.071l-3.985-14.85c-.023-.109-.211-.109-.243 0l-4 14.928a.13.13 0 00.032.118.14.14 0 00.094.039zM60.404 81.8c.008 0 .023.008.031.008a.166.166 0 00.094-.039c1.428-1.365 4.103-3.13 6.848-3.993a.169.169 0 00.086-.094.142.142 0 00-.04-.125L56.529 66.66a.13.13 0 00-.157-.016c-.047.023-.071.086-.055.141l3.993 14.92a.142.142 0 00.094.095zM54.819 90.225a.127.127 0 00.086.039c.016 0 .023-.008.031-.008.047-.008.079-.047.094-.086.557-1.898 1.992-4.762 3.93-6.887a.122.122 0 00.031-.125c-.008-.04-.047-.071-.086-.086l-14.889-3.985a.137.137 0 00-.149.055c-.023.055-.016.118.023.157l10.929 10.926zM54.348 100.352a.127.127 0 00.086-.039.138.138 0 00.039-.118c-.462-1.922-.659-5.115-.039-7.931.008-.047 0-.094-.039-.126-.032-.031-.079-.039-.118-.031L39.388 96.1a.127.127 0 00-.094.125c0 .055.039.11.094.125l14.92 3.993c.017.009.025.009.04.009zM59.031 109.28c.008-.047 0-.094-.031-.126-1.365-1.428-3.13-4.103-4-6.848a.109.109 0 00-.086-.086.121.121 0 00-.125.031l-10.897 10.896a.146.146 0 00-.023.157.139.139 0 00.118.063h.031l14.92-4.001c.046-.008.078-.047.093-.086zM60.514 110.715c-.031-.032-.079-.04-.126-.032a.15.15 0 00-.086.094l-3.985 14.889a.126.126 0 00.055.141c.023.016.047.016.071.016.031 0 .063-.008.086-.04l10.928-10.919c.031-.031.047-.079.031-.125-.008-.047-.047-.079-.086-.094-1.899-.557-4.762-1.985-6.888-3.93zM77.427 115.21c-1.146.274-2.581.423-4.04.423-1.38 0-2.722-.133-3.891-.392a.142.142 0 00-.125.04c-.032.031-.04.078-.032.125l3.993 14.881a.128.128 0 00.126.094c.055 0 .109-.04.125-.094l3.993-14.92a.121.121 0 00-.031-.125c-.032-.032-.079-.048-.118-.032zM86.511 110.652a.121.121 0 00-.125.031c-1.436 1.357-4.104 3.122-6.849 3.993-.047.016-.078.047-.086.094-.016.04 0 .086.031.118l10.896 10.896c.024.031.063.04.095.04.023 0 .047 0 .063-.016.047-.031.078-.086.063-.141l-4-14.928c-.017-.04-.049-.079-.088-.087zM92.096 102.227c-.039-.04-.078-.047-.125-.04a.143.143 0 00-.094.094c-.558 1.891-1.985 4.754-3.931 6.879-.031.04-.039.086-.031.126.016.047.047.078.095.086l14.889 3.993h.031a.124.124 0 00.109-.063c.031-.047.023-.11-.023-.157l-10.92-10.918zM107.519 96.101L92.599 92.1a.122.122 0 00-.126.031c-.031.032-.047.079-.031.126.463 1.914.651 5.114.031 7.931a.138.138 0 00.039.118.127.127 0 00.087.039c.016 0 .023-.008.039-.008l14.881-3.985a.133.133 0 00.102-.125.127.127 0 00-.102-.126zM87.884 83.173c-.016.039 0 .086.031.125 1.357 1.428 3.122 4.095 3.993 6.848a.15.15 0 00.094.086h.031a.12.12 0 00.087-.032l10.896-10.902c.047-.04.055-.102.023-.157a.127.127 0 00-.141-.055L87.97 83.079c-.039.015-.078.047-.086.094zM86.394 81.73a.127.127 0 00.086.039c.016 0 .023 0 .039-.008.039-.016.079-.047.087-.086l3.992-14.889a.13.13 0 00-.063-.149.148.148 0 00-.157.023l-10.92 10.928c-.04.032-.047.079-.04.118.016.047.047.086.094.094 1.892.557 4.756 1.984 6.882 3.93z"/></g></svg>