<svg xmlns="http://www.w3.org/2000/svg" viewBox="2.84 48.37 277.8 186.72"><path fill="#D6D4D1" d="M2.835 48.373H280.63v186.718H2.835z"/><path fill="#101211" d="M5.102 50.664h273.253v30.053H5.102z"/><path fill="#FCDD05" d="M5.102 80.725h273.253v30.508H5.102z"/><path fill="#D70C1C" d="M5.102 111.232h273.253v30.516H5.102z"/><path fill="#101211" d="M5.102 141.748h273.253v30.507H5.102z"/><path fill="#FCDD05" d="M5.102 172.255h273.253v30.517H5.102z"/><path fill="#D70C1C" d="M5.102 202.771h273.253v30.053H5.102z"/><path d="M170.193 141.74c0 15.722-12.74 28.469-28.461 28.469s-28.469-12.747-28.469-28.469c0-15.721 12.748-28.46 28.469-28.46s28.461 12.74 28.461 28.46z" fill="#FFF"/><path d="M153.382 140.478c-.023-.463-.996-.738-1.694-.973-.698-.228-9.123-4.346-9.782-4.589-.667-.251-.879-.032-.879-.032s-.957-6.401 1.083-7.774c2.022-1.396 2.464-3.632 2.464-4.401 0-.102-.023-.251-.064-.416l2.949-.683-.039-.133c-1.277-5.154-5.311-5.923-7.615-5.923-2.949 0-4.001 1.185-4.04 1.232l-.055.07 1.812 3.318c-.714.816-.87 1.835-.87 2.197 0 .643.298 1.051.298 1.051s-4.425 1.185-4.095 1.954c.321.753 4.095.008 4.095.008s-.863.776-.863 1.694c0 .926.926 1.098.926 1.098-1.844 1.702-4.848 5.413-4.848 9.477 0 4.071 2.706 6.205 2.706 6.205l.298-.234c2.754 3.356 4.903 3.529 4.903 3.529l2.126 2.071s.07 1.216.188 2.377c.108 1.161-.149 2-.149 2s-1.93-.51-7.154-.148c-5.24.36-3.632 6.009-3.632 6.009l1.059-2.44c.063 1.727.965 2.166.965 2.166-.22-1.789.486-3.075.486-3.075s.04 2.079.714 2.103c.675.016.126-.58 1.114-2.173.988-1.608 2.463-.935 4.314-.832 1.852.086 2.071.008 2.071.008.5 3.483.596 7.813.596 7.813-5.946-.588-6.754 1.672-6.754 1.672 1.593-.274 3.734.07 3.734.07-2.095 2.143-1.169 3.161-1.169 3.161 4.526-4.519 10.449-3.146 10.449-3.146-.848-1.938-4.417-1.82-4.417-1.82-.596-3.075-.485-6.966-.399-7.563.096-.604 2.229-.195 3.885-.195 1.654 0 1.355-1.694 1.02-2.173-.334-.479-2.33-3.365-1.718-3.978.627-.62 4.737.337 4.737.337.525.659.848 1.71.848 1.71l.212-.384c.103 1.247-.212 1.788-.212 1.788 1.42-.494 1.646-2.432 1.646-2.432.361 3.805-3.09 5.334-3.09 5.334.125.234.735.463.735.463-1.897 1.812 1.49.251 1.49.251-1.043 1.663.957.549.957.549l-1.16 1.741c.878.51 6.95-3.193 6.95-9.5-.001-6.308-7.132-8.439-7.132-8.439zm-8.002-22.436c.744.808 1.373 1.898 1.758 3.373l-2.691.628a4.414 4.414 0 00-.744-1.42l1.677-2.581zm-5.577-2.221c1.475 0 3.711.33 5.396 2.016l-1.678 2.573c-.65-.737-1.664-1.365-3.154-1.365-.298 0-.564.031-.815.063l.181-3.287h.07zm-3.782 1.075c.251-.228 1.255-.997 3.451-1.067l-.188 3.326c-.683.165-1.185.463-1.569.824l-1.694-3.083zm8.018 37.051l-.125-3.945c1.568 1.02 2.063 1.804 2.424 3.177.352 1.38-2.299.768-2.299.768z" fill="#101211"/><path d="M150.895 146.69c-1.78-1.75-3.765-2.918-3.765-2.918l.172-.125s-1.129-1.294-2.408-2.063c-1.277-.761-3.146-1.506-2.533-3.177.619-1.655 4.188.376 4.188.376s2.041.957 4.66 1.647l-.735-.8 1.825.518s-3.567-1.647-4.801-2.244c-1.229-.604-5.151-2.526-5.624-2.691-.017-.008-.024-.016-.032-.016-.282-.07-.58-.118-.769-.039-.173.079-.384.361-.58.698a1.868 1.868 0 00-.173.431c-.408 1.365.023 5.217 2.526 6.519 2.493 1.287 3.06.698 5.772 2.463 2.715 1.757 4.346 4.935 4.346 4.935l.048-.464c.001.003-.328-1.308-2.117-3.05zM141.301 142.76s1.232 1.733 1.984 2.291c.754.557 1.1.91 1.1.91l-.174.234s-.996-.722-2.854.188c-.002.001-.786-1.324-.056-3.623zM139.544 127.071l.228.133s-3.052 6.44-.597 9.241l-1.161-.086.377 1.224-1.208-.157.557 1.02-.98-.243.142 1.208-.737-.408-.188 1.412c-.002 0-3.422-4.982 3.567-13.344zM141.748 120.654s1.38.33 1.38 2.385-2.724 3.475-3.231 2.346c-.51-1.138 1.318-.816 1.758-2.44.439-1.632.093-2.291.093-2.291z" fill="#9AA59B"/><path d="M151.813 140.862l-.666-.181c-2.621-.69-4.685-1.647-4.707-1.655v-.008l-.017-.016c-.016-.008-1.75-.98-2.936-.98-.627 0-.8.274-.878.479-.424 1.145.472 1.75 1.867 2.542l.549.322c1.304.785 2.433 2.048 2.472 2.104l.069.078c.534-.078 1.546.071 1.546.071-.445-.503-1.355-1.231-1.355-1.231 1.082.047 3.311.651 3.311.651-.313-.737-1.74-1.931-1.74-1.931 1.021.016 4.094 1.616 4.094 1.616l-1.609-1.861z" fill="#FFF"/><path d="M138.328 127.275c.251-.393.047-.267.321-.542 0 0 .07-.322-.447-.745a6.38 6.38 0 00-.87-.588l-.212.18c0 .008-.77.706-.77 1.499 0 .706.683.839.722.847l.11.016c.322-.11.958-.369 1.146-.667zM153.312 140.729l-2.346-.792.525.565.393.11.078.016.047.07 1.607 1.853.887 1.051-1.209-.644c-.61-.321-2.039-1.021-3.06-1.374.425.416.896.941 1.065 1.357l.221.494-.52-.141c-.021 0-1.334-.354-2.416-.541.252.219.525.47.724.682l.485.542-.723-.109s-.611-.079-1.113-.079c-.142 0-.268 0-.354.016l-.104.008c.017.017.039.031.047.031.502.196 1.508.792 3.477 2.604 1.506 1.389 2.104 2.612 2.291 3.515l.07-.133.063.871a5.32 5.32 0 01-.031 1.271c.793-.659.941-1.914.941-1.914l.299-2.463.229 2.456c.298 3.193-1.984 4.879-2.889 5.413.11.063.235.125.361.173l.398.141-.313.29c-.188.182-.298.314-.377.408.408-.079 1.161-.376 1.585-.581l.801-.369-.471.737c-.173.282-.234.447-.252.518.221-.016.628-.195.863-.328l.947-.526-.604.902-.895 1.341c1.623-.393 6.213-3.899 6.213-9.249.01-6.035-6.877-8.177-6.94-8.192z" fill="#D8091B"/><path d="M139.536 123.094a.55.55 0 01-.55.541.539.539 0 010-1.075c.299 0 .55.243.55.534zM133.119 125.588c.957-.251 2.941-.745 3.922-.792.079 0 .126-.063.126-.133-.008-.071-.047-.133-.142-.125-1.082.055-3.303.62-4.173.847.047.086.141.148.267.203z" fill="#FFF"/><path d="M139.732 115.821l-.181 3.287c.251-.031.518-.063.815-.063 1.49 0 2.502.627 3.154 1.365l1.679-2.573c-1.687-1.687-3.923-2.016-5.397-2.016h-.07z" fill="#FDDD09"/><path d="M137.716 119.979c.385-.361.887-.659 1.569-.824l.188-3.326c-2.196.071-3.2.84-3.451 1.067l1.694 3.083zM143.701 120.623c.385.486.612.996.745 1.42l2.691-.628c-.386-1.475-1.013-2.565-1.759-3.373l-1.677 2.581z" fill="#D8091B"/></svg>