<svg xmlns="http://www.w3.org/2000/svg" viewBox="2.83 48.38 277.8 186.71"><path fill="#D6D4D1" d="M2.833 48.375H280.63v186.714H2.833z"/><path fill="#0C9AB5" d="M5.101 50.658h273.255v56.928H5.101z"/><path fill="#3AA63D" d="M5.108 175.905h273.255v56.927H5.108z"/><path fill="#FFF" d="M5.108 113.281h273.271v56.927H5.108z"/><path fill="#CD0E26" d="M278.378 113.281l-.015-5.695H5.116v5.695zM5.116 170.208h273.262v5.695H5.116z"/><g fill="#FFF"><path d="M53.101 57.883c.016 0 .023-.016.023-.032 0 0-.008-.031-.023-.031a21.311 21.311 0 00-3.601-.322 21.486 21.486 0 00-15.305 6.339c-4.087 4.079-6.33 9.516-6.33 15.289 0 5.781 2.243 11.217 6.33 15.296 4.095 4.087 9.523 6.338 15.305 6.338a20.67 20.67 0 003.601-.329c.016 0 .023-.016.023-.032 0-.008-.008-.023-.023-.023-10.417-1.765-17.972-10.692-17.972-21.25a21.488 21.488 0 0117.972-21.243zM93.673 65.673c0 .016 0 .031.008.031a.022.022 0 00.039 0l2.519-1.828 2.525 1.828s.008.008.016.008c.016 0 .031-.008.031-.031v-.023l-.957-2.95 2.519-1.828c.008-.008.016-.032.008-.04 0 0-.008-.016-.031-.016h-3.106l-.973-2.965c-.008-.031-.047-.031-.063 0l-.957 2.965h-3.122a.06.06 0 00-.032.016c0 .008 0 .032.017.04l2.518 1.828-.959 2.965zM110.609 65.673c0 .016.008.031.008.031.016.016.039.016.047 0l2.518-1.828 2.519 1.828c.008.008.016.008.023.008.016 0 .031-.008.031-.031 0 0 0-.016-.008-.023l-.957-2.95 2.519-1.828c.016-.008.016-.032.016-.04a.058.058 0 00-.039-.016h-3.106l-.965-2.965c-.017-.031-.056-.031-.063 0l-.957 2.965h-3.13c-.008 0-.016.008-.016.008-.008.016-.008.04.008.047l2.519 1.828-.967 2.966zM127.553 65.673a.036.036 0 000 .031c.016.016.031.016.048 0l2.518-1.828 2.519 1.828c.008.008.016.008.023.008.016 0 .031-.008.031-.031 0 0 0-.016-.008-.023l-.957-2.95 2.525-1.828c.016-.008.016-.032.016-.04a.058.058 0 00-.039-.016h-3.114l-.965-2.965c-.008-.031-.055-.031-.055 0l-.965 2.965h-3.114a.058.058 0 00-.039.016c-.008.008 0 .032.016.04l2.518 1.828-.958 2.965zM97.548 77.753l-.965-2.957c-.016-.04-.063-.04-.063 0l-.965 2.957h-3.114c-.023 0-.031.008-.031.023-.008.016 0 .032.008.04l2.518 1.835-.957 2.958c-.008.016 0 .023.008.039h.04l2.518-1.835 2.526 1.835h.016c.023 0 .039-.016.039-.031 0-.008 0-.016-.008-.016l-.965-2.95 2.525-1.835c.016-.008.016-.023.016-.04-.008-.016-.016-.023-.031-.023h-3.115zM114.484 77.753l-.957-2.957c-.016-.04-.063-.04-.07 0l-.965 2.957h-3.114c-.017 0-.024.008-.024.023-.008.016 0 .032 0 .04l2.526 1.835-.965 2.958c0 .016 0 .023.016.039h.039l2.526-1.835 2.51 1.835h.023c.023 0 .039-.016.039-.031 0-.008 0-.016-.008-.016l-.965-2.95 2.526-1.835c0-.008.008-.023.008-.04-.008-.016-.016-.023-.031-.023h-3.114zM134.535 77.753h-3.107l-.973-2.957c-.008-.04-.055-.04-.063 0l-.957 2.957h-3.122c-.008 0-.023.008-.023.023-.008.016 0 .032.008.04l2.519 1.835-.965 2.958c0 .016 0 .023.016.039h.039l2.518-1.835 2.519 1.835h.031s.031-.016.031-.031c0-.008-.008-.016-.008-.016l-.957-2.95 2.519-1.835c.008-.008.008-.023.008-.04-.002-.015-.009-.023-.033-.023zM80.596 77.753l-.949-2.957c-.016-.04-.063-.04-.07 0l-.957 2.957h-3.123c-.016 0-.016.008-.031.023 0 .016 0 .032.016.04l2.526 1.835-.973 2.958c-.008.016 0 .023.016.039h.039l2.518-1.835 2.526 1.835h.016c.023 0 .039-.016.039-.031 0-.008 0-.016-.008-.016l-.965-2.95 2.519-1.835c.016-.008.023-.023.016-.04-.008-.016-.023-.023-.031-.023h-3.124zM97.336 94.697l-.973-2.958c0-.031-.047-.031-.063 0l-.957 2.958h-3.122c-.008 0-.023.016-.031.031 0 0 0 .023.016.031l2.526 1.828-.965 2.958c-.008.023 0 .039.008.047.016.008.039.008.047 0l2.518-1.835 2.519 1.835c.008.008.016.008.023.008.016 0 .023-.016.023-.039v-.023l-.965-2.95 2.525-1.828c.009-.008.017-.031.009-.031 0-.016-.017-.031-.032-.031l-3.106-.001zM114.272 94.697l-.965-2.958c-.008-.031-.063-.031-.07 0l-.949 2.958h-3.114c-.016 0-.031.016-.039.031-.008 0 0 .023.016.031l2.518 1.828-.965 2.958c0 .023 0 .039.008.047.016.008.039.008.047 0l2.519-1.835 2.518 1.835c.008.008.016.008.023.008.017 0 .032-.016.032-.039 0 0 0-.016-.008-.023l-.965-2.95 2.525-1.828c.016-.008.016-.031.016-.031 0-.016-.016-.031-.031-.031l-3.116-.001zM131.209 94.697l-.957-2.958c-.016-.031-.063-.031-.063 0l-.973 2.958h-3.106c-.016 0-.031.016-.039.031-.008 0 0 .023.016.031l2.519 1.828-.957 2.958c-.008.023 0 .039.008.047a.049.049 0 00.047 0l2.519-1.835 2.51 1.835c.016.008.023.008.031.008.016 0 .023-.016.023-.039 0 0 0-.016-.008-.023l-.949-2.95 2.519-1.828c.016-.008.016-.031.016-.031-.008-.016-.023-.031-.039-.031l-3.117-.001zM80.392 94.697l-.965-2.958c-.008-.031-.055-.031-.071 0l-.949 2.958h-3.122c-.008 0-.023.016-.032.031 0 0 0 .023.016.031l2.518 1.828-.957 2.958c-.016.023 0 .039 0 .039.016.016.039.016.047.008l2.518-1.835 2.518 1.835a.025.025 0 00.016.008h.008c.016 0 .04-.016.04-.039l-.008-.023-.965-2.95 2.527-1.828s.016-.031 0-.031c0-.016 0-.031-.023-.031l-3.116-.001zM63.456 94.697l-.965-2.958c-.008-.031-.055-.031-.07 0l-.965 2.958h-3.114c-.016 0-.024.016-.024.031 0 0 0 .023.008.031l2.518 1.828-.957 2.958c-.008.023 0 .039.016.047.008.008.024.008.04 0l2.518-1.835 2.518 1.835a.025.025 0 00.016.008.037.037 0 00.039-.039v-.023l-.965-2.95 2.518-1.828c.008-.008.016-.031.008-.031 0-.016-.016-.031-.031-.031l-3.108-.001z"/></g></svg>