<svg xmlns="http://www.w3.org/2000/svg" viewBox="2.84 48.38 277.79 186.71"><path fill="#D6D4D1" d="M2.835 48.375h277.793v186.714H2.835z"/><path fill="#216EB1" d="M5.283 50.658h79.691v182.155H5.283z"/><path fill="#FCD11A" d="M84.966 50.658h113.846v182.155H84.966z"/><path fill="#009F61" d="M198.796 50.658h79.699v182.155h-79.699z"/><g fill="#009F61"><path d="M141.673 148.227c-.101-.204-.423-.204-.533 0l-13.916 27.84a.27.27 0 000 .267l13.916 27.851a.304.304 0 00.268.164c.11 0 .22-.063.266-.164l13.924-27.851a.32.32 0 000-.267l-13.925-27.84zM138.191 141.261l-13.916-27.848c-.11-.196-.439-.196-.533 0l-13.924 27.848a.31.31 0 000 .266l13.924 27.842a.294.294 0 00.268.163c.109 0 .21-.063.266-.163l13.916-27.842a.266.266 0 00-.001-.266zM173.003 141.261l-13.922-27.848c-.104-.196-.435-.196-.535 0l-13.924 27.848a.317.317 0 000 .266l13.924 27.842c.057.103.156.163.268.163s.213-.063.268-.163l13.924-27.842a.313.313 0 00-.003-.266z"/></g></svg>