<svg xmlns="http://www.w3.org/2000/svg" viewBox="2.84 48.38 277.79 186.71"><path fill="#D6D4D1" d="M2.835 48.379h277.793v186.707H2.835z"/><path fill="#D9231D" d="M5.196 50.724H278.41v182.15H5.196z"/><path d="M170.458 135.324a.19.19 0 00-.188-.125h-21.587l-6.715-20.591c-.031-.078-.094-.133-.173-.133a.213.213 0 00-.188.133l-6.668 20.575-21.604.023c-.094 0-.156.055-.188.133a.182.182 0 00.063.212l17.477 12.715-6.651 20.599a.185.185 0 00.063.213.22.22 0 00.11.039.176.176 0 00.109-.039c5.083-3.727 14.527-10.574 17.477-12.714l17.509 12.708a.19.19 0 00.22 0 .224.224 0 00.078-.221l-6.685-20.566 17.479-12.74a.195.195 0 00.062-.221z" fill="#F5E600"/></svg>