<svg xmlns="http://www.w3.org/2000/svg" viewBox="2.83 48.38 277.8 186.71"><path fill="#D6D4D1" d="M2.834 48.375H280.63v186.714H2.834z"/><path d="M5.148 213.312l125.229-71.572L5.156 70.183z"/><path fill="#FFE147" d="M278.378 138.328H138.064L5.156 62.377v7.806l125.221 71.557L5.148 213.312v7.806l132.916-75.965h140.314z"/><path d="M140.614 128.074L5.14 50.666v11.711l132.924 75.951h140.314v-10.254z"/><path fill="#C90039" d="M140.614 128.074h137.764V50.658H5.156v.016z"/><path d="M138.064 145.153L5.14 221.118v11.713l135.482-77.426h137.756v-10.252z"/><path fill="#6AB023" d="M140.622 155.405L5.14 232.831h273.238v-77.426z"/><path d="M69.684 138.398c-.416-6.041-3.099-12.057-7.358-16.505-4.558-4.777-10.559-7.405-16.874-7.405-.588 0-1.192.023-1.796.071-6.362.479-12.033 3.396-15.963 8.213-3.781 4.628-5.452 10.37-4.699 16.184.651 5.177 3.012 9.5 6.817 12.504 3.475 2.745 7.97 4.291 12.982 4.455 4.448.157 8.856-1.938 11.735-5.521 2.722-3.389 3.687-7.617 2.729-11.923 0-.031-.039-.055-.07-.055-.031.008-.055.024-.063.063-.879 8.66-7.178 12.543-13.038 12.543-.291 0-.588-.024-.887-.032-6.275-.408-12.865-4.33-13.43-12.15-.581-8.127 5.444-15.242 13.43-15.854.392-.031.785-.047 1.177-.047 8.307 0 15.5 6.974 16.019 15.556.306 5.107-1.538 10.433-4.95 14.261-3.162 3.568-7.405 5.585-12.261 5.859-.039 0-.063.039-.063.079v10.244c0 .023.016.039.023.057a.1.1 0 00.047.017h.008c9.202-.638 16.552-4.495 21.25-11.171 3.823-5.409 5.729-12.5 5.235-19.443z" fill="#FFE044"/><path d="M36.455 129.863c-.023-.008-.039-.023-.063-.023-.815-.69-.878-1.499-.878-1.499.471.024 1.004.283 1.389.502a3.091 3.091 0 01-.094-.495c.588.165 1.059.487 1.443.863-.07-.345-.008-.534-.008-.534.973.439 1.553 1.24 1.891 1.961-.055-.471 0-.8 0-.8a3.867 3.867 0 011.459 1.506c-.016-.016-.023-.04-.031-.063-.047-.549.102-.847.102-.847.926.651 1.342 1.679 1.522 2.51-.008-.04-.016-.094-.039-.133-.032-.557.094-.879.094-.879.745.518 1.153 1.271 1.388 1.985-.016-.039-.023-.079-.039-.118 0-.525.157-.753.157-.753 1.31 1.098 1.389 3.279 1.389 3.766l-.008-.008.384.392c-.808-1.718-.141-2.973-.141-2.973 1.326 1.279 1.075 3.491 1.02 3.891l-.016-.016c.149.149.282.306.416.463v-.008c-.628-1.867.07-2.902.07-2.902 1.247 1.419.895 3.428.8 3.891.157.196.314.384.455.557-.58-1.89.22-2.926.22-2.926 1.146 1.357.667 3.538.565 3.946.141.18.275.369.408.549v-.008c-.549-2.197.369-3.146.369-3.146 1.106 1.616.369 3.75.251 4.04 0-.008-.008-.008-.008-.008.133.195.267.376.376.557-.376-2.032.635-2.981.635-2.981.902 1.663.165 3.499-.039 3.954.612 1.021.878 1.64.878 1.64l-.376.267a22.711 22.711 0 00-.627-1.224c-2.565.33-3.766-1.719-3.766-1.719.283-.063.565-.063.847-.03a.08.08 0 00.032.008c-1.13-.502-1.647-1.443-1.647-1.443.33-.071.651-.063.98 0 .298.133.635.251 1.036.322a7.15 7.15 0 011.2.706c-.142-.211-.282-.431-.432-.635-2.714-.047-3.522-2.094-3.522-2.094a1.97 1.97 0 01.486-.008c.016.008.031.008.047.016-1.702-.502-2.11-1.742-2.11-1.742a4.01 4.01 0 01.62 0 .222.222 0 00.07.016c-1.687-.361-2.322-1.757-2.322-1.757 1.051-.173 2.283.502 2.91.91a41.157 41.157 0 00-.996-1.004c-2.832.431-3.883-1.53-3.883-1.53.07-.008.133-.023.196-.039.024.008.032.008.047.008-1.373-.322-2.079-1.302-2.079-1.302.094-.039.188-.055.274-.071.047.016.086.024.134.04-1.24-.369-1.804-1.255-1.804-1.255a.386.386 0 00.094-.016c.031.008.039.016.063.016a3.33 3.33 0 01-1.498-.996 3.795 3.795 0 01-1.922-1.271c0-.003.58-.269 1.631-.026zm13.375 13.422c.016 0 .024.009.024.009.69.282 1.287.697 1.624.973-.188-.337-.392-.667-.588-.988a3.697 3.697 0 01-1.06.006zm-2.236-3.278c.651.228 1.287.627 1.655.902-.204-.274-.408-.549-.62-.808a5.24 5.24 0 01-1.043-.094h.008zm-1.71-1.797c.016 0 .023 0 .039.008.769.165 1.467.588 1.891.894a18.3 18.3 0 00-.8-.902 5.457 5.457 0 01-1.13 0zm-.965-2.557c.039.047.094.086.133.133v-.008c-.055-.133-.102-.259-.149-.384v-.016c.009.118.016.212.016.275zm-4.361-3.774c.032.157.04.274.04.29.094.079.204.149.313.22a3.762 3.762 0 01-.353-.51zm1.639 1.263v-.008c.008.142.016.22.023.243l-.008-.008c.079.063.149.118.228.173a2.706 2.706 0 01-.243-.4zm1.53 1.467a5.223 5.223 0 01-.432-1.012v-.023c.039.376.039.644.039.698.173.149.353.298.518.439-.039-.039-.086-.071-.125-.102zm-.902.228c.62.164 1.177.462 1.569.682-.29-.267-.581-.542-.863-.792a5.215 5.215 0 01-.706.11zm-1.31-1.295a7.432 7.432 0 011.357.604 21.209 21.209 0 00-.823-.698 4.111 4.111 0 01-.659.102c.038-.008.078-.008.125-.008zm-1.232-1.231c.282.102.534.196.753.306-.165-.118-.314-.235-.471-.353-.063.008-.172.032-.306.047h.024z" fill="#FFE146"/><path d="M34.815 129.879c.016-.008.291-.133.808-.133.235 0 .471.023.714.063-.769-.667-.847-1.451-.847-1.467l.008-.008.016-.008c.471.032.989.275 1.365.486a2.96 2.96 0 01-.086-.463l.008-.016h.008a3.248 3.248 0 011.42.848c-.047-.33-.008-.502 0-.502 0-.008.008-.008.016-.008h.008c.934.416 1.514 1.177 1.859 1.891-.047-.423.016-.722.016-.722h.016c.643.353 1.083.863 1.396 1.38-.024-.51.102-.776.109-.784 0 0 .008-.008.016-.008v.008c.84.565 1.255 1.443 1.475 2.22-.008-.462.086-.722.086-.722l.008-.016c.008-.008.016-.008.023 0 .667.479 1.083 1.153 1.326 1.812.008-.479.149-.682.149-.69 0 0 .008-.008.008-.016.008 0 .016.008.023.008 1.31 1.114 1.389 3.326 1.396 3.773.094.102.204.212.306.306-.745-1.655-.117-2.879-.117-2.887.008-.008.016-.008.016-.008h.023c1.318 1.263 1.083 3.444 1.02 3.891.126.125.235.251.345.369-.581-1.796.094-2.824.094-2.832 0 0 .008-.008.016-.008.008-.008.016 0 .016 0 1.255 1.436.887 3.491.8 3.907l.4.494c-.533-1.835.243-2.863.243-2.871l.016-.016c.008 0 .016.008.016.008 1.138 1.349.675 3.514.565 3.954.125.157.243.314.353.479-.502-2.134.385-3.075.4-3.083 0-.008 0-.008.008-.008 0 0 .016 0 .016.008 1.106 1.624.361 3.78.259 4.04.11.172.212.33.313.494-.321-1.977.644-2.918.651-2.934l.016-.008s.008.008.008.016c.895 1.647.212 3.436-.031 3.96.612 1.013.878 1.624.886 1.64 0 0 0 .008-.008.016l-.376.259c0 .008-.008.008-.008.008h-.008l-.008-.008a26.282 26.282 0 00-.644-1.216 2.945 2.945 0 01-.525.039c-2.173 0-3.216-1.757-3.224-1.765-.008-.009-.008-.017 0-.023v-.008c.243-.047.51-.063.785-.031a3.764 3.764 0 01-1.561-1.412v-.016s0-.008.008-.008a2.35 2.35 0 01.91-.008 3.42 3.42 0 01-.91-.636c-.542-.51-.745-1.027-.745-1.027v-.024s.008 0 .016-.008a2.89 2.89 0 01.376-.008c-.581-.196-.988-.463-1.263-.714-.541-.486-.706-.973-.706-.973-.008-.016 0-.016 0-.023 0 0 0-.008.008-.008a2.63 2.63 0 01.502 0c-1.53-.424-2.134-1.702-2.149-1.718v-.008c.008-.008.016-.008.016-.016.118-.016.235-.024.361-.024.91 0 1.867.502 2.439.863-.306-.313-.588-.612-.886-.894a5.38 5.38 0 01-.785.055c-2.22 0-3.098-1.585-3.106-1.601v-.008s0-.008.008-.008c.039-.023.086-.023.141-.031-1.294-.361-1.977-1.287-1.985-1.287v-.023s0-.008.008-.008c.079-.023.149-.04.228-.063-1.098-.392-1.624-1.177-1.632-1.192v-.008l.016-.016.023-.008a3.49 3.49 0 01-1.373-.957 3.763 3.763 0 01-1.922-1.271c-.003.004-.003-.005-.003-.02zm2.08-1.02c-.376-.212-.902-.463-1.365-.494.016.125.141.847.871 1.467.024.008.055.008.071.008.071.023.141.039.204.063a.19.19 0 01.071.016c.086.023.172.055.251.078.016.008.016.008.023.008.204.079.408.165.62.275-.016-.024-.031-.047-.047-.063a5.724 5.724 0 01-.157-.211c-.023-.031-.039-.047-.055-.07-.016-.031-.04-.055-.047-.086-.031-.039-.063-.079-.094-.133 0 0 0-.023-.016-.031l-.047-.094c-.008-.016-.008-.023-.008-.023a3.04 3.04 0 01-.196-.447s0-.016-.008-.016a2.41 2.41 0 00-.063-.196v-.008s-.008-.035-.008-.043zm.062.102c.032.125.086.251.149.392l.008.023c.024.063.055.118.086.181.024.047.04.094.079.141l.031.055c.023.04.055.086.079.118a.41.41 0 00.071.11c.016.023.031.055.055.079.078.102.165.211.267.313a.92.92 0 00.125.125c.04.047.086.086.141.126.031.031.071.063.102.094.063.047.118.094.172.125.047.032.086.063.134.094.039.031.086.063.141.094.063.031.133.063.196.102.04.023.079.039.11.063.141.063.29.133.462.196-.533-.384-.886-.612-.988-.683h-.008l-.016-.016c-.008 0 0-.008-.008-.008v-.016c.008-.008.023-.008.023-.008.008.008.023.016.031.023.228.133.455.282.706.447l.447.306a.164.164 0 01.047.032c-.008-.024-.008-.04-.016-.063v-.016c-.172-.463-.988-2.495-2.753-3.02.002.065.033.301.127.591zm1.294-.259c-.008.055-.039.227.023.51.745.737 1.161 1.694 1.302 2.079l.008.008c.008.04.023.071.032.11h.008v.031s.008.008.008.016v.016c.008 0 .008.008.008.008l.008.008a.778.778 0 00.165.11l.565.4c.031.023.07.039.094.071l.118.063c-.048-.308-.456-2.559-2.339-3.43zm2.37 3.467c.07.055.149.102.228.157-.094-.11-.173-.235-.259-.361l.039.196-.008.008zm-.463-2.29c-.023.086-.063.369 0 .753.228.494.353.949.416 1.247.11.172.22.345.337.494l.251.188c.204.141.416.298.628.463.094.07.188.141.282.219.039.032.086.063.125.094 0-.039-.008-.102-.023-.188v-.008a5.294 5.294 0 00-.627-1.851h-.008c-.307-.532-.738-1.05-1.381-1.411zm2.212 3.6c-.047-.086-.102-.165-.149-.251.008.079.008.125.016.141.047.032.086.071.133.11zm-.706-3.012c-.023.071-.125.353-.086.816l.016.023c.039.071.07.141.102.212a.203.203 0 01.039.071c.04.07.071.133.094.204a.122.122 0 01.023.063c.031.07.063.141.086.212.008.016.008.031.008.047.031.079.063.141.071.212.008.016.016.023.023.039.016.071.031.141.055.204v.016c.016.078.039.141.047.204v.016c.024.055.024.118.032.172 0 0 .008 0 .008.008.016.055.016.11.023.149.079.149.157.275.243.4a.142.142 0 01.031.023c.283.235.565.455.832.675.008-.094 0-.33-.031-.636a5.757 5.757 0 00-.141-.776v-.016c-.189-.8-.612-1.734-1.475-2.338zm1.686 3.797c.11.094.22.18.322.274a5.445 5.445 0 01-.337-.784c.015.259.015.439.015.51zm-.101-2.306a2.618 2.618 0 00-.079.839c.071.298.118.557.141.8.102.322.235.651.424.988.172.149.345.299.51.447.204.173.392.354.588.519.031.031.039.039.071.063-.008-.063-.008-.149-.008-.251v-.008c-.008-.055-.024-.11-.032-.165v-.016c0-.063 0-.126-.016-.196-.109-.847-.47-2.22-1.599-3.02zm1.686 3.687c.023.032.055.047.078.071-.031-.071-.055-.141-.086-.212.008.047.008.11.008.141zm-.188-2.573c-.031.063-.133.29-.133.729.22.62.291 1.2.314 1.593.039.118.094.243.133.376.039.032.071.063.102.086.329.306.643.604.957.918 0-.517-.11-2.628-1.373-3.702zm1.624 1.192c-.071.157-.581 1.357.157 2.918.063.063.125.125.188.196.22.235.447.463.659.698.07-.493.266-2.588-1.004-3.812zm2.282 5.248c.094-.471.408-2.44-.785-3.836-.086.157-.627 1.177-.063 2.863.008.023.031.031.039.055.125.125.235.267.353.4.071.071.125.133.18.204.094.11.181.212.259.306.001.001.01.001.017.008zm1.24 1.561c.125-.486.542-2.565-.557-3.875-.094.142-.737 1.169-.204 2.902.039.055.086.102.125.157.094.125.188.243.282.361.023.031.063.063.079.094.086.109.172.235.259.345.008.009.008.016.016.016zm1.027 1.444c.133-.353.815-2.408-.243-3.977-.11.141-.855 1.106-.353 3.114v.008c.211.29.4.549.565.815.016.008.031.032.031.04zm.973 1.521c.243-.549.894-2.282.031-3.882-.125.133-.941 1.09-.604 2.95a.829.829 0 00.102.172c.125.18.228.361.329.525.032.063.063.109.095.157.016.024.031.055.047.078zm-1.004-.737c-.188.032-.377.032-.549.032-.125 0-.259 0-.384-.017a6.783 6.783 0 011.498.926 58.499 58.499 0 00-.565-.941zm-2.04-.282a2.569 2.569 0 00-.815.031c.125.195 1.161 1.726 3.185 1.726.173 0 .337 0 .518-.032-.086-.141-.157-.281-.243-.431-.306-.243-.917-.706-1.639-1.012a2.99 2.99 0 01-.596-.125h-.009a2.353 2.353 0 01-.401-.157zm-1.592-1.444c.102.18.847 1.365 2.377 1.663h.031a3.924 3.924 0 001.193.032c-.133-.22-.282-.447-.416-.659a7.433 7.433 0 00-1.192-.689 4.59 4.59 0 01-1.036-.33 2.79 2.79 0 00-.957-.017zm3.13.957a12.74 12.74 0 00-.384-.548 6.03 6.03 0 01-.683-.063c.439.195.808.431 1.067.611zm-1.773-2.416c-.313 0-.604-.032-.863-.063.534.204 1.036.51 1.412.769-.188-.243-.369-.47-.549-.706zm-1.639-.235a1.438 1.438 0 00-.455.008c.039.094.259.549.729.996.494.471 1.357 1.036 2.738 1.067-.251-.361-.51-.706-.761-1.043-.408-.29-1.012-.667-1.632-.878a3.25 3.25 0 01-.439-.094c-.023-.008-.055-.016-.078-.023-.032-.009-.063-.025-.102-.033zm-2.032-1.726c.039.094.22.526.698.949.298.274.761.581 1.451.777l.039.008c.408.118.887.188 1.451.196-.267-.337-.533-.659-.792-.973-.447-.313-1.122-.706-1.867-.886a1.922 1.922 0 01-.384-.071c-.11-.008-.212-.016-.314-.016-.094 0-.196.008-.282.016zm2.761.863c-.235-.275-.463-.542-.69-.8-.204.031-.392.031-.588.031-.11 0-.212 0-.321-.008.626.173 1.191.495 1.599.777zm-4.063-2.628c-.11 0-.22.008-.33.023a3.474 3.474 0 002.338 1.726c.031.016.07.016.118.023.204.04.423.055.659.055.188 0 .369 0 .549-.031l-.479-.526c-.032-.039-.071-.07-.102-.102a2.944 2.944 0 00-.212-.227c-.541-.361-1.577-.941-2.541-.941zm2.572.918c.149.157.298.314.439.471.063.071.125.149.196.212a36.385 36.385 0 011.121 1.286l.298.345c.016.024.039.04.047.071l.094.118c.086.094.157.188.235.274v.008c.204.267.408.526.612.792l.008.008c.055.079.11.149.172.228.04.063.094.133.133.204.165.204.314.416.463.627.142.212.291.424.424.635h.008l.008.008c.016.032.039.079.07.109.071.11.134.204.196.314.055.086.11.157.165.251v.008c.211.337.423.684.612 1.021v.008h.008c.016.008.023.031.031.055.023.023.031.047.047.071.063.11.11.211.181.321v.008c.22.399.423.8.627 1.2l.345-.243a18.374 18.374 0 00-.957-1.772c-.039-.07-.086-.133-.125-.195-.039-.071-.086-.149-.133-.229-.055-.071-.094-.149-.149-.22-.157-.251-.322-.51-.51-.792-.086-.118-.18-.251-.267-.376-.008-.024-.023-.032-.039-.055-.094-.133-.188-.274-.283-.408-.133-.181-.267-.353-.408-.542-.125-.172-.251-.337-.376-.502 0 0-.031-.023-.031-.039-.11-.142-.228-.283-.337-.424-.22-.274-.447-.557-.706-.847-.04-.047-.079-.094-.118-.133-.125-.149-.267-.306-.4-.463-.023-.023-.039-.039-.055-.063a42.53 42.53 0 00-5.067-4.801c-.031-.023-.055-.047-.079-.063a27.837 27.837 0 00-.737-.573c-.008-.016-.023-.023-.039-.031a35.12 35.12 0 00-1.569-1.153c-.086-.063-.181-.125-.274-.188a21.37 21.37 0 01-.565-.393c-.047-.031-.094-.055-.133-.086.031.023.07.047.102.07.04.032.079.063.118.086.094.071.196.141.29.228.086.047.157.102.235.165.102.071.204.149.306.228.04.039.086.071.125.102.149.11.306.228.463.353.024.016.04.031.055.047.298.235.62.494.949.769.008 0 .016.016.031.023.251.22.533.447.816.698.023.023.063.047.086.063.047.055.102.094.157.141a.77.77 0 00.125.11c.078.086.165.157.251.228.008.016.023.024.023.024l.008.008c.055.055.11.102.165.149.243.22.471.439.714.659.149.149.306.291.447.439.079.063.149.133.22.196.039.047.094.086.133.141.34.329.677.666.998 1.011zm-5.648-5.029c-.055.008-.125.024-.219.04.188.063.376.149.564.22-.125-.087-.235-.174-.345-.26zm1.483 1.192a4.448 4.448 0 01-.471.071c.384.125.776.306 1.177.525a39.867 39.867 0 00-.706-.596zm1.475 1.271a3.59 3.59 0 01-.612.103 6.821 6.821 0 011.373.596c-.204-.188-.408-.385-.604-.549-.055-.055-.102-.103-.157-.15zm-2.008.016l-.016.008a.44.44 0 00-.149.023c.102.173.988 1.562 3.059 1.562.244 0 .495-.016.753-.055-.055-.063-.11-.118-.173-.181-.157-.149-.306-.29-.455-.439-.047-.047-.102-.086-.149-.134a6.094 6.094 0 00-1.561-.682h-.039c-.086 0-.157 0-.235.008h-.142c-.102-.008-.188-.008-.275-.008-.031-.008-.063-.008-.086-.016-.086-.008-.173-.016-.259-.032-.008 0-.032-.008-.04-.008l-.233-.046zm-1.758-1.373c-.078.016-.165.032-.251.063.126.149 1.012 1.224 2.589 1.365.016.008.039.008.047.017h.228c.04 0 .079.008.11.008.024 0 .04-.008.063-.008h.243c.228-.024.463-.063.714-.118-.016-.008-.023-.008-.039-.024-.071-.07-.149-.133-.212-.188-.04-.039-.071-.071-.11-.094-.094-.079-.188-.165-.275-.243a7.417 7.417 0 00-1.349-.604h-.047c-.118.016-.243.016-.369.023h-.063c-.008 0-.016.008-.031.008-.125 0-.251-.016-.376-.023a.669.669 0 01-.125-.016 2.074 2.074 0 01-.251-.039c-.063-.008-.118-.032-.165-.032-.078-.023-.149-.039-.211-.063-.041-.016-.08-.016-.12-.032zm-1.615-1.224h-.023c.094.134.635.847 1.687 1.192.102.047.204.071.322.094.039.008.086.023.125.031.094.016.18.032.274.04.039 0 .071.016.118.016.125.008.259.016.392.016h.063c.125-.008.251-.008.384-.023.18-.016.361-.047.525-.079-.023-.031-.047-.047-.07-.079a5.293 5.293 0 01-.337-.274 1.726 1.726 0 01-.181-.149c-.086-.063-.165-.125-.259-.196a.723.723 0 00-.149-.118 5.8 5.8 0 00-.729-.306c-.188.023-.423.055-.714.055-.11 0-.228 0-.353-.016h-.023c-.102-.016-.212-.023-.322-.039-.016-.008-.031-.008-.031-.008-.11-.016-.212-.04-.322-.063-.008 0-.023-.008-.023-.008a2.283 2.283 0 01-.313-.094c-.01.001-.034.001-.041.008zm.055-.046c.102.039.196.07.298.102 0 0 .023 0 .031.008.102.023.204.039.314.063h.031c.11.024.22.032.322.047h.023c.118.008.235.008.361.008.118 0 .235 0 .353-.008h.008a4.128 4.128 0 00.588-.086c-.055-.031-.102-.079-.149-.11a6.865 6.865 0 01-.251-.196c-.102-.063-.188-.133-.275-.196-.094-.071-.18-.141-.282-.212-.031-.016-.063-.047-.102-.063-.094-.032-.204-.079-.306-.118 0 0-.04-.024-.063-.024a.763.763 0 00-.18-.086.234.234 0 00-.079-.032.608.608 0 00-.11.016c-.016 0-.023.008-.031.016h-.023a4.156 4.156 0 01-.832.078c-.306 0-.667-.039-1.043-.133.424.47.91.76 1.397.926zm-1.451-.981a4 4 0 001.106.149c.298 0 .549-.031.737-.063.039-.008.063-.008.094-.008l.008-.008c.031-.008.055-.016.078-.016l.023-.008c-.023-.016-.055-.031-.078-.047-.055-.031-.102-.055-.149-.086-.047-.031-.086-.047-.133-.079-.063-.039-.126-.086-.181-.125-.039-.031-.079-.063-.125-.094a1.183 1.183 0 00-.102-.094 1.346 1.346 0 01-.157-.149c-.04-.031-.071-.063-.102-.094a.506.506 0 01-.055-.063 6.626 6.626 0 00-.667-.29c-.008-.008-.023-.016-.023-.016-.094-.032-.181-.063-.267-.079-.024-.016-.055-.023-.079-.031a2.943 2.943 0 00-.22-.055 3.528 3.528 0 00-.832-.102c-.432 0-.69.094-.769.126.59.698 1.257 1.067 1.893 1.232z"/><g><path d="M52.191 129.863c.016-.008.039-.023.063-.023.816-.69.878-1.499.878-1.499-.471.024-1.004.283-1.389.502 0 .008-.008.023-.008.023.086-.314.094-.518.094-.518a3.439 3.439 0 00-1.443.863c.063-.345.016-.534.016-.534-.965.439-1.553 1.24-1.898 1.961.063-.471 0-.8 0-.8-.683.392-1.138.941-1.451 1.506a.581.581 0 01.039-.063c.039-.549-.11-.847-.11-.847-.926.651-1.333 1.679-1.53 2.51a.867.867 0 00.039-.133c.032-.557-.086-.879-.086-.879-.737.518-1.161 1.271-1.389 1.985.008-.039.023-.079.031-.118 0-.525-.157-.753-.157-.753-1.302 1.098-1.38 3.279-1.38 3.766v-.008l-.377.392c.816-1.718.142-2.973.142-2.973-1.334 1.279-1.083 3.491-1.02 3.891 0 0 .008-.008.008-.016l-.416.463.008-.008c.627-1.867-.071-2.902-.071-2.902-1.239 1.419-.894 3.428-.792 3.891-.165.196-.313.384-.462.557.581-1.89-.22-2.926-.22-2.926-1.153 1.357-.667 3.538-.565 3.946-.141.18-.282.369-.408.549v-.008c.549-2.197-.369-3.146-.369-3.146-1.106 1.616-.369 3.75-.259 4.04 0-.008.008-.008.008-.008-.126.195-.259.376-.369.557.369-2.032-.635-2.981-.635-2.981-.91 1.663-.165 3.499.04 3.954-.612 1.021-.879 1.64-.879 1.64l.369.267c.204-.416.416-.824.635-1.224 2.558.33 3.766-1.719 3.766-1.719a2.568 2.568 0 00-.855-.03l-.032.008c1.146-.502 1.655-1.443 1.655-1.443a2.414 2.414 0 00-.98 0 4.5 4.5 0 01-1.035.322 8.182 8.182 0 00-1.216.706c.157-.211.298-.431.447-.635 2.722-.047 3.522-2.094 3.522-2.094a1.97 1.97 0 00-.486-.008c-.016.008-.039.008-.039.008 1.694-.495 2.11-1.734 2.11-1.734a4.113 4.113 0 00-.628 0c-.023.008-.039.016-.063.016 1.687-.361 2.314-1.757 2.314-1.757-1.051-.173-2.283.502-2.91.91.337-.345.667-.682.996-1.004 2.832.431 3.883-1.53 3.883-1.53a1.387 1.387 0 01-.196-.039c-.023.008-.039.008-.047.008 1.373-.322 2.079-1.302 2.079-1.302-.094-.039-.188-.055-.274-.071-.04.016-.086.024-.133.04 1.231-.369 1.804-1.255 1.804-1.255a.442.442 0 01-.102-.016.144.144 0 01-.055.016 3.339 3.339 0 001.499-.996 3.718 3.718 0 001.914-1.271c-.001-.003-.574-.269-1.625-.026zm-13.382 13.422s-.008.009-.016.009a6.732 6.732 0 00-1.624.973c.196-.337.384-.667.588-.988.385.054.738.054 1.052.006zm2.243-3.278c-.651.228-1.286.627-1.655.902.204-.274.416-.549.627-.808.384 0 .729-.031 1.043-.094h-.015zm1.71-1.797s-.032 0-.04.008c-.776.165-1.467.588-1.89.894.267-.313.525-.612.792-.902a5.53 5.53 0 001.138 0zm.973-2.557c-.047.047-.094.086-.142.133v-.008c.055-.133.103-.259.142-.384v-.016.275zm4.353-3.774a2.07 2.07 0 00-.039.29c-.102.079-.204.149-.298.22.125-.165.243-.353.337-.51zm-1.631 1.263v-.008c-.023.142-.031.22-.031.243v-.008c-.07.063-.141.118-.212.173.086-.133.172-.266.243-.4zm-1.53 1.467c.196-.376.329-.714.423-1.012v-.023c-.039.376-.039.644-.039.698-.172.149-.353.298-.518.439a.614.614 0 01.134-.102zm.886.228c-.604.164-1.177.462-1.569.682.306-.267.588-.542.871-.792.251.055.494.094.714.11h-.016zm1.318-1.295a7.688 7.688 0 00-1.357.604c.282-.243.549-.479.816-.698.228.055.455.086.667.102-.039-.008-.087-.008-.126-.008zm1.232-1.231a6.346 6.346 0 00-.745.306c.165-.118.314-.235.463-.353.07.008.173.032.298.047h-.016z" fill="#FFE146"/><path d="M53.823 129.879c-.008-.008-.282-.133-.8-.133-.235 0-.471.023-.722.063.777-.667.847-1.451.847-1.467v-.008l-.016-.008c-.463.032-.996.275-1.365.486a2.96 2.96 0 00.086-.463l-.008-.016h-.016a3.215 3.215 0 00-1.412.848c.047-.33 0-.502 0-.502 0-.008 0-.008-.008-.008 0 0-.008-.008-.016 0-.933.416-1.514 1.177-1.859 1.891.039-.423-.008-.722-.008-.722h-.024c-.651.353-1.091.863-1.396 1.38.023-.51-.102-.776-.11-.784 0 0 0-.008-.008-.008l-.016.008c-.824.565-1.248 1.443-1.459 2.22.008-.462-.094-.722-.094-.722l-.008-.016h-.021c-.683.479-1.083 1.153-1.318 1.812-.023-.479-.149-.682-.149-.69 0 0-.016-.008-.023-.016-.008 0-.008.008-.008.008-1.326 1.114-1.396 3.326-1.404 3.773a5.52 5.52 0 01-.306.306c.737-1.655.11-2.879.11-2.887l-.008-.008h-.024c-1.318 1.263-1.091 3.444-1.028 3.891-.11.125-.228.251-.337.369.581-1.796-.094-2.824-.094-2.832l-.016-.008c0-.008-.008 0-.016.008-1.255 1.428-.894 3.483-.8 3.899l-.4.494c.526-1.835-.235-2.863-.251-2.871l-.008-.016-.008.016c-1.153 1.341-.69 3.506-.573 3.946a7.019 7.019 0 00-.353.479c.494-2.134-.384-3.075-.384-3.075-.008-.016-.023-.016-.031-.016l-.008.008c-1.106 1.624-.361 3.78-.259 4.04-.11.172-.219.33-.321.494.33-1.977-.635-2.918-.644-2.934l-.016-.008c-.008 0-.008.008-.016.016-.894 1.647-.204 3.436.04 3.96-.604 1.013-.879 1.624-.887 1.64l.008.016.376.259v.008h.016l.016-.008c.188-.407.408-.815.627-1.216.18.031.353.039.533.039 2.165 0 3.216-1.757 3.224-1.765v-.023c0-.008 0-.008-.008-.008a2.499 2.499 0 00-.776-.031c1.059-.51 1.561-1.396 1.561-1.412v-.016l-.008-.008a2.35 2.35 0 00-.91-.008c.384-.188.682-.416.91-.636.534-.51.746-1.027.746-1.027v-.024l-.008-.008a2.886 2.886 0 00-.376-.008c.572-.196.98-.463 1.255-.714.541-.486.706-.973.706-.973v-.023l-.008-.008a2.628 2.628 0 00-.502 0c1.537-.424 2.133-1.702 2.142-1.718v-.008c-.008-.008-.008-.008-.008-.016a2.681 2.681 0 00-.369-.024c-.894 0-1.859.502-2.432.863.298-.313.596-.612.887-.894.267.039.533.055.784.055 2.228 0 3.099-1.585 3.106-1.601v-.008l-.008-.008c-.047-.023-.094-.023-.142-.031 1.303-.361 1.969-1.287 1.969-1.287.016-.008.016-.008.016-.023l-.008-.008c-.086-.023-.157-.04-.228-.063 1.098-.392 1.632-1.177 1.632-1.192v-.008l-.008-.016c-.024 0-.032-.008-.047-.008a3.434 3.434 0 001.389-.957 3.74 3.74 0 001.922-1.271c.008 0 .008-.008.008-.024h-.014v.004zm-2.063-1.02c.369-.212.886-.463 1.357-.494-.016.125-.141.847-.878 1.467-.016.008-.04.008-.063.008-.07.023-.133.039-.204.063-.031 0-.047.008-.07.016-.086.023-.165.055-.251.078 0 0-.008.008-.016.008a5.521 5.521 0 00-.628.275.516.516 0 01.047-.063c.008-.016.016-.023.023-.031.047-.063.094-.125.133-.181.023-.031.039-.047.055-.07a.59.59 0 01.055-.086.377.377 0 00.071-.133c.016-.008.023-.023.031-.031l.047-.094c.008-.016.008-.023.008-.023a3.04 3.04 0 00.196-.447l.008-.016c.023-.079.047-.133.063-.196v-.008s.007-.034.016-.042zm-.071.102c-.039.125-.078.251-.141.392 0 0-.008.023-.016.023-.024.063-.055.118-.079.181-.031.047-.063.094-.086.141-.008.016-.016.039-.032.055a.578.578 0 01-.071.118c-.031.04-.047.071-.078.11-.023.023-.031.055-.063.079-.078.102-.157.211-.259.313a.92.92 0 01-.125.125c-.039.047-.086.086-.133.126-.031.031-.079.063-.118.094a.815.815 0 01-.165.125c-.047.032-.094.063-.133.094-.047.031-.086.063-.142.094-.063.031-.133.063-.196.102-.032.023-.071.039-.11.063a12.92 12.92 0 01-.455.196c.533-.384.879-.612.973-.683h.016l.016-.016v-.024l-.016-.008c-.016.008-.016.016-.031.023-.228.133-.455.282-.706.447-.149.102-.298.204-.455.306-.008.008-.023.016-.039.032 0-.024.008-.04.023-.063v-.016c.165-.463.98-2.495 2.746-3.02-.007.065-.031.301-.125.591zm-1.302-.259c.016.055.032.227-.008.51-.745.737-1.161 1.694-1.31 2.079v.008a.331.331 0 00-.039.11h-.008s0 .016-.008.031c0 0-.008.008-.008.016v.032c-.063.047-.11.078-.165.11-.188.133-.384.267-.572.4-.04.023-.071.039-.094.071l-.11.063c.039-.308.439-2.559 2.322-3.43zm-2.361 3.467c-.071.055-.149.102-.228.157.094-.11.172-.235.251-.361a3.98 3.98 0 01-.031.196l.008.008zm.471-2.29c.008.086.047.369 0 .753a6.293 6.293 0 00-.432 1.247 2.69 2.69 0 01-.345.494l-.235.188a14.022 14.022 0 00-.909.682c-.047.032-.079.063-.126.094 0-.039.016-.102.016-.188v-.008c.063-.376.22-1.122.636-1.851.304-.532.743-1.05 1.395-1.411zm-2.221 3.6a4.13 4.13 0 00.149-.251c-.008.079-.008.125-.016.141a1.01 1.01 0 00-.133.11zm.699-3.012c.031.071.125.353.094.816 0 0-.008.016-.016.023a2.381 2.381 0 00-.141.283 1.2 1.2 0 00-.094.204.157.157 0 01-.032.063c-.023.07-.047.141-.079.212-.008.016-.008.031-.023.047-.023.079-.039.141-.063.212 0 .016 0 .023-.008.039-.023.071-.039.141-.055.204-.008.008-.008.016-.008.016a1.295 1.295 0 00-.047.204s-.008.008-.008.016c-.008.055-.024.118-.032.172v.008c-.008.055-.016.11-.031.149-.07.149-.157.275-.235.4-.016.008-.031.023-.031.023-.29.235-.557.455-.839.675a5.918 5.918 0 01.18-1.412v-.016c.197-.8.613-1.734 1.468-2.338zm-1.679 3.797l-.322.274c.141-.274.251-.525.337-.784-.015.259-.015.439-.015.51zm.094-2.306c.031.078.109.384.086.839-.07.298-.118.557-.141.8a4.437 4.437 0 01-.431.988c-.165.149-.337.299-.51.447-.188.173-.392.354-.581.519-.023.031-.047.039-.07.063a1.99 1.99 0 00.016-.251v-.008c.008-.055.008-.11.016-.165v-.016c.008-.063.016-.126.023-.196.117-.847.47-2.22 1.592-3.02zm-1.679 3.687c-.024.032-.055.047-.071.071.023-.071.047-.141.079-.212-.008.047-.008.11-.008.141zm.181-2.573c.031.063.141.29.149.729a5.53 5.53 0 00-.313 1.593c-.047.118-.094.243-.149.376a.815.815 0 01-.094.086c-.33.306-.644.604-.957.918.007-.517.108-2.628 1.364-3.702zm-1.616 1.192c.078.157.58 1.357-.157 2.918a4.44 4.44 0 00-.188.196c-.228.235-.447.463-.667.698-.071-.493-.259-2.588 1.012-3.812zM40 139.512c-.102-.471-.416-2.44.785-3.836.086.157.627 1.177.055 2.863l-.04.055c-.118.125-.235.267-.353.4-.07.071-.125.133-.188.204-.086.11-.165.212-.259.306v.008zm-1.254 1.561c-.118-.486-.533-2.565.565-3.875.094.142.737 1.169.204 2.902-.047.055-.078.102-.125.157a9.365 9.365 0 00-.283.361c-.023.031-.055.063-.079.094-.094.109-.172.235-.259.345 0 .009-.008.016-.023.016zm-1.028 1.444c-.126-.353-.8-2.408.251-3.977.118.141.855 1.106.361 3.114l-.016.008c-.196.29-.384.549-.564.815 0 0-.024.032-.032.04zm-.965 1.521c-.243-.549-.895-2.282-.032-3.882.125.133.949 1.09.612 2.95l-.023.031c-.031.047-.063.102-.086.141-.11.18-.228.361-.33.525-.032.063-.063.109-.094.157-.015.024-.031.055-.047.078zm1.012-.737c.181.032.369.032.541.032.126 0 .259 0 .377-.017a7.023 7.023 0 00-1.483.926c.173-.321.369-.635.565-.941zm2.032-.282c.298-.031.565-.023.816.031-.125.195-1.161 1.726-3.185 1.726-.165 0-.345 0-.518-.032.079-.141.165-.281.235-.431.314-.243.933-.706 1.647-1.012.204-.023.4-.063.597-.125h.008c.141-.04.274-.095.4-.157zm1.592-1.444c-.102.18-.847 1.365-2.369 1.663h-.031a3.996 3.996 0 01-1.201.032c.141-.22.274-.447.424-.659.267-.188.69-.471 1.192-.689.361-.071.69-.181 1.035-.33.346-.064.66-.064.95-.017zm-3.13.957c.125-.188.251-.369.384-.548.243-.008.471-.031.675-.063a7.177 7.177 0 00-1.059.611zm1.773-2.416c.314 0 .604-.032.871-.063-.541.204-1.043.51-1.42.769.188-.243.361-.47.549-.706zm1.632-.235c.165-.024.314-.016.471.008-.055.094-.267.549-.745.996-.479.471-1.357 1.036-2.729 1.067.251-.361.494-.706.761-1.043.4-.29 1.012-.667 1.64-.878a4.81 4.81 0 00.439-.094.328.328 0 01.071-.023c.031-.007.06-.025.092-.033zm2.04-1.726c-.032.094-.22.526-.69.949-.306.274-.769.581-1.451.777-.023 0-.032.008-.055.008a5.38 5.38 0 01-1.443.196c.267-.337.526-.659.792-.973.447-.313 1.122-.706 1.867-.886.133-.008.259-.039.384-.071.11-.008.212-.016.314-.016.093 0 .187.008.282.016zm-2.762.863c.228-.275.463-.542.69-.8.204.031.4.031.581.031.11 0 .228 0 .33-.008-.628.173-1.193.495-1.601.777zm4.056-2.628c.118 0 .228.008.337.023a3.45 3.45 0 01-2.337 1.726c-.047.016-.079.016-.118.023a3.51 3.51 0 01-.667.055c-.172 0-.361 0-.549-.031.157-.173.322-.353.486-.526.032-.039.063-.07.094-.102.079-.086.149-.157.228-.227.541-.361 1.569-.941 2.526-.941zm-2.565.918l-.447.471a5.116 5.116 0 01-.196.212l-.173.196c-.33.369-.643.729-.941 1.09-.102.11-.196.228-.298.345-.016.024-.031.04-.047.071-.039.04-.07.079-.102.118-.07.094-.149.188-.228.274v.008c-.204.267-.416.526-.611.792l-.008.008c-.063.079-.103.149-.165.228-.055.063-.094.133-.157.204-.149.204-.298.416-.447.627-.149.212-.291.424-.431.635v.008c-.032.032-.055.079-.079.109-.071.11-.133.204-.196.314-.055.086-.118.157-.165.251v.008c-.22.337-.416.684-.62 1.021v.008h-.008c0 .008-.016.031-.031.055-.008.023-.031.047-.031.071-.063.11-.125.211-.188.321v.008c-.22.399-.431.8-.627 1.2l-.345-.243c.047-.103.345-.753.957-1.772.047-.07.079-.133.125-.195.04-.071.086-.149.141-.229l.126-.22c.165-.251.345-.51.525-.792.086-.118.181-.251.259-.376.023-.024.031-.032.039-.055l.291-.408c.125-.181.267-.353.408-.542.125-.172.251-.337.385-.502.008-.016.008-.023.023-.039.109-.142.228-.283.337-.424.22-.274.455-.557.706-.847.04-.047.079-.094.118-.133.125-.149.267-.306.4-.463.023-.023.039-.039.055-.063a42.96 42.96 0 015.06-4.801l.086-.063c.243-.196.486-.384.729-.573a.097.097 0 01.047-.031 35.12 35.12 0 011.569-1.153 8.82 8.82 0 00.267-.188c.188-.125.384-.259.581-.393.039-.031.078-.055.125-.086l-.094.07c-.047.032-.086.063-.118.086a6.025 6.025 0 00-.306.228 3.188 3.188 0 00-.228.165c-.094.071-.196.149-.306.228a.837.837 0 01-.133.102c-.149.11-.298.228-.455.353h-.008c-.008.016-.031.031-.039.047a22.98 22.98 0 00-.949.769c-.023 0-.023.016-.023.016l-.008.008c-.267.22-.549.447-.816.698h-.008a.616.616 0 01-.078.063c-.063.055-.11.094-.157.141-.047.04-.086.079-.133.11-.086.086-.173.157-.251.228-.008.016-.024.024-.032.032-.055.055-.11.102-.165.149l-.706.659c-.157.149-.314.291-.463.439-.07.063-.133.133-.204.196-.047.047-.094.086-.141.141-.347.328-.668.665-.997 1.01zm5.648-5.029c.055.008.133.024.22.04-.196.063-.376.149-.557.22.109-.087.227-.174.337-.26zm-1.491 1.192c.157.032.313.055.471.071a6.818 6.818 0 00-1.161.525c.235-.211.471-.407.69-.596zm-1.467 1.271c.204.055.408.087.612.103a6.626 6.626 0 00-1.373.596c.204-.188.408-.385.604-.549.055-.055.102-.103.157-.15zm2.008.016l.023.008c.047 0 .094.008.149.023-.11.173-.997 1.562-3.067 1.562-.243 0-.502-.016-.753-.055.055-.063.117-.118.172-.181.157-.149.306-.29.455-.439.047-.047.094-.086.141-.134a6.339 6.339 0 011.561-.682h.055c.07 0 .157 0 .228.008H46.244c.094-.008.18-.008.274-.008.031-.008.055-.008.071-.016.094-.008.188-.016.274-.032 0 0 .016-.008.039-.008l.229-.046zm1.758-1.373c.07.016.157.032.243.063-.125.149-1.004 1.224-2.581 1.365-.016.008-.031.008-.047.017h-.228c-.04 0-.079.008-.11.008-.016 0-.047-.008-.063-.008h-.235a6.37 6.37 0 01-.722-.118c.016-.008.031-.008.031-.024.078-.07.157-.133.22-.188.039-.039.07-.071.109-.094.086-.079.173-.165.267-.243a7.7 7.7 0 011.357-.604h.039c.134.016.259.016.385.023h.063c.008 0 .008.008.008.008.141 0 .267-.016.393-.023.047 0 .086-.008.133-.016.079-.008.165-.023.251-.039.055-.008.102-.032.165-.032.063-.023.133-.039.204-.063.039-.016.078-.016.118-.032zm1.615-1.224h.031c-.094.134-.643.847-1.687 1.192-.109.047-.22.071-.321.094-.047.008-.094.023-.142.031-.086.016-.172.032-.259.04-.047 0-.086.016-.125.016a5.914 5.914 0 01-.384.016h-.063c-.134-.008-.267-.008-.393-.023-.18-.016-.353-.047-.541-.079.031-.031.063-.047.086-.079.11-.086.228-.18.337-.274.063-.047.125-.094.181-.149.086-.063.172-.125.259-.196.047-.047.102-.086.141-.118.251-.125.486-.22.737-.306.181.023.424.055.714.055.11 0 .235 0 .361-.016h.008c.11-.016.22-.023.337-.039.008-.008.016-.008.031-.008.102-.016.204-.04.314-.063l.023-.008c.11-.023.204-.055.314-.094.018.001.026.001.041.008zm-.054-.046c-.094.039-.188.07-.298.102-.016 0-.023 0-.039.008-.094.023-.196.039-.306.063h-.031c-.11.024-.22.032-.33.047h-.008c-.118.008-.243.008-.369.008-.118 0-.235 0-.345-.008h-.008a4.762 4.762 0 01-.353-.039 4.128 4.128 0 01-.243-.047c.055-.031.102-.079.157-.11.078-.063.165-.133.251-.196.094-.063.18-.133.267-.196.094-.071.181-.141.282-.212.031-.016.063-.047.094-.063.11-.032.212-.079.306-.118.023-.008.039-.024.063-.024a.981.981 0 01.188-.086c.023-.016.055-.024.07-.032.031 0 .071.008.118.016.008 0 .024.008.024.008s.023.008.031.008c.188.039.479.078.832.078.306 0 .667-.039 1.043-.133-.424.47-.918.76-1.396.926zm1.451-.981a4 4 0 01-1.106.149c-.306 0-.549-.031-.729-.063h-.008c-.031-.008-.07-.008-.094-.008-.008-.008-.016-.008-.016-.008-.024-.008-.047-.016-.071-.016l-.023-.008a.786.786 0 00.079-.047c.055-.031.102-.055.149-.086.047-.031.086-.047.133-.079.063-.039.125-.086.18-.125a.81.81 0 00.118-.094c.031-.031.063-.063.102-.094a.959.959 0 00.165-.149c.032-.031.063-.063.102-.094.008-.016.04-.04.055-.063a5.51 5.51 0 01.675-.29c0-.008.008-.016.023-.016.078-.032.172-.063.259-.079a.228.228 0 01.078-.031 2.36 2.36 0 01.228-.055c.291-.07.557-.102.824-.102.439 0 .69.094.769.126a3.697 3.697 0 01-1.892 1.232z"/></g></svg>