<svg width="27" height="27" fill="none" xmlns="http://www.w3.org/2000/svg"><g clip-path="url(#clip0)" stroke="#5022ED" stroke-width="1.5" stroke-linecap="round" stroke-linejoin="round"><path d="M13.2 25.7c6.904 0 12.5-5.596 12.5-12.5S20.104.7 13.2.7C6.297.7.7 6.296.7 13.2s5.597 12.5 12.5 12.5zM2.5 8.3H24M2.5 18.2H24M13.2.8v25"/><path d="M13.2 25.7c3.424 0 6.2-5.596 6.2-12.5S16.624.7 13.2.7C9.776.7 7 6.296 7 13.2s2.776 12.5 6.2 12.5z"/></g><defs><clipPath id="clip0"><path fill="#fff" d="M0 0h26.5v26.5H0z"/></clipPath></defs></svg>