<svg xmlns="http://www.w3.org/2000/svg" viewBox="2.84 48.38 277.79 186.71"><path fill="#D6D4D1" d="M2.835 48.375h277.794v186.714H2.835z"/><path fill="#144895" d="M5.205 50.708h273.221v182.149H5.205z"/><path d="M66.039 101.024l-2.793 8.629c0 .008 0 .039.016.047 0 .008.047.008.047.008l7.342-5.342 7.343 5.334.016.008c.031 0 .031 0 .047-.008v-.047l-2.792-8.629 7.342-5.334v-.063s-.016-.032-.031-.032h-9.085l-2.793-8.629c-.016-.039-.063-.039-.094 0l-2.793 8.629h-9.068a.057.057 0 00-.047.024c0 .039 0 .055.016.07l7.327 5.335zM94.514 94.191l-2.793 8.629c0 .008 0 .039.016.047 0 .008.047.008.047.008l7.343-5.342 7.342 5.334.016.008c.032 0 .032 0 .048-.008v-.047l-2.793-8.629 7.343-5.334v-.063s-.016-.032-.031-.032h-9.084l-2.793-8.629c-.016-.039-.063-.039-.094 0l-2.793 8.629H87.22a.06.06 0 00-.047.024c0 .039 0 .055.016.07l7.325 5.335zM122.973 89.634l-2.792 8.629c0 .008 0 .039.016.047s.047.008.047.008l7.342-5.342 7.343 5.334.031.008c.016 0 .016 0 .031-.008.017-.008.017-.039.017-.047l-2.793-8.629 7.326-5.334v-.063s-.016-.032-.031-.032h-9.068l-2.808-8.629c0-.039-.063-.039-.079 0l-2.808 8.629h-9.068c-.016 0-.047.024-.047.024 0 .039 0 .055.031.07l7.31 5.335zM151.433 89.634l-2.777 8.629v.047c.017.008.063.008.063.008l7.342-5.342 7.343 5.334.017.008s.017 0 .047-.008v-.047l-2.793-8.629 7.344-5.334v-.063l-.031-.032h-9.084l-2.793-8.629c-.018-.039-.078-.039-.094 0l-2.811 8.629h-9.065c-.017 0-.032.024-.032.024 0 .039 0 .055.018.07l7.306 5.335zM179.909 94.191l-2.794 8.629c0 .008 0 .039.017.047s.048.008.048.008l7.343-5.342 7.342 5.334.032.008c.017 0 .017 0 .03-.008.016-.008.017-.039.017-.047l-2.793-8.629 7.327-5.334v-.063s-.018-.032-.031-.032h-9.084l-2.793-8.629c0-.039-.063-.039-.078 0l-2.809 8.629h-9.068a.064.064 0 00-.047.024c0 .039 0 .055.018.07l7.323 5.335zM208.359 101.024l-2.769 8.629v.047c.016.008.047.008.047.008l7.351-5.342 7.343 5.334.017.008c.016 0 .016 0 .03-.008.018-.008.018-.039.018-.047l-2.793-8.629 7.324-5.334v-.063l-.016-.032h-9.084l-2.791-8.629c-.017-.039-.08-.039-.096 0l-2.809 8.629h-9.062c-.016 0-.03.024-.03.024 0 .039 0 .055.017.07l7.303 5.335z" fill="#FFF"/><path d="M186.952 158.351c.252-.125.549-.079.832-.165.313-.103.643-.423.879-.651-.627-.281-1.131-.502-1.287-1.224-.047-.235-.424-.416-.58-.565-.252-.259-.125-.611-.047-.901-.268.108-.549.251-.832.32-.283.063-.58.023-.861.086-.268.048-.486.134-.77.103-.205-.023-.645-.229-.832-.11-.393.251-.707.486-.801.957-.109.525-.722.729-1.177.502-.519-.259-.69-.729-.815-1.263-.016-.117-.109-.596-.298-.549a5.69 5.69 0 01-.771.133c-.438.047-1.129-.125-1.475-.376-.142-.094-.406-.251-.486-.4-.094-.227.096-.485.188-.674.235-.471-.77-.745-1.064-.862-.221-.095-.408-.182-.646-.071-.188.094-.377.259-.597.259-.502 0-.957.298-1.459.133-.58-.195-1.082-.588-1.647-.831-.141-.055-.267-.156-.423-.173-.22-.031-.33.133-.52.212-.674.274-.939-.416-1.506-.542-.252-.063-.549.056-.814.094-.251.031-.52.017-.785.056-.232.04-.454.165-.705.165-.299 0-.484-.188-.689-.376-.549-.494.785-1.178 1.035-1.538.094-.133.017-.229-.047-.354-.096-.234-.017-.392.016-.627.063-.424-.156-.745.252-1.083.22-.188.675-.133.644-.534-.017-.164-.017-.32-.063-.479-.076-.251 0-.423.063-.667.109-.384.22-.777.486-1.075.267-.393.423-.792.596-1.23-.519.078-1.034-.079-1.553.047-.282.063-.502.234-.753.33-.299.102-.612.03-.895-.056-.502-.148-1.005-.298-1.396-.658-.188-.182-.188-.346-.174-.589 0-.267-.234-.518-.455-.628-.25-.125-.532-.116-.799-.125-.269 0-.52-.079-.785-.086-.533-.022-.926.346-1.442.463-.612.134-.722-.368-.784-.832-.031-.259-.188-.385-.393-.526a2.754 2.754 0 01-.659-.698c-.313-.455-.519-.957-.847-1.396-.408-.549.063-1.02.188-1.569.063-.267.079-.4-.094-.612-.126-.196-.234-.4-.251-.636-.047-.604-.047-.98-.581-1.349-.251-.18-1.035-.627-1.145-.071-.047.228.047.447-.047.675-.127.251-.425.439-.69.494-.486.11-.974-.243-1.208-.651a.958.958 0 01-.096-.714c.08-.33.017-.384-.234-.557-.408-.282-.393-.784-.471-1.216-.063-.298-.188-.581-.313-.863-.142-.267-.394-.424-.424-.745-.031-.243 0-.471.126-.683.109-.18.313-.306.313-.542 0-.227-.188-.455-.25-.667-.108-.337-.36-.314-.66-.274-.502.055-1.033.016-1.348-.432-.174-.243-.313-.573-.566-.737-.344-.228-.219.549-.344.674-.33.337-1.066.612-1.555.612-.406 0-.736-.432-1.051-.651-.221-.141-.377-.329-.564-.51-.203-.204-.393-.282-.658-.408-.549-.204-.849-.094-1.381.063-.268.079-.549.071-.814.181a4.85 4.85 0 00-.77.345c-.408.243-.927-.345-1.271-.495-.204-.094-.408-.196-.519-.392-.078-.118-.125-.51-.297-.51-.565 0-.894-.071-1.349-.416-.424-.306-.675-.815-1.239-.761-.549.055-1.035-.353-1.585-.361-.251 0-.471-.031-.658-.212-.142-.149-.204-.502-.063-.674.157-.181.299-.322.534-.369.125-.023.454-.047.486-.227.031-.157-.235-.298-.314-.4-.141-.188-.141-.479.079-.612.376-.212.909-.235 1.317-.274.486 0 .22-.62 0-.847-.173-.181-.424-.267-.58-.479-.142-.204-.251-.424-.408-.62-.173-.228-.408-.322-.612-.518-.188-.18-.282-.416-.423-.627-.079-.133-.471-.125-.612-.141a2.468 2.468 0 00-.831.016c-.188.047-.346.102-.299.337.079.282.142.541.063.832-.142.494-.706.392-1.067.282-.549-.172-1.13.086-1.694-.102-.36-.125-.815-.564-1.098-.102-.268.462-.519.784-.957 1.129-.393.314-.722.824-1.177 1.059-.235.125-.471.125-.722.204-.283.063-.565-.118-.848-.07-.251.031-.471.149-.706.188-.267.047-.549-.039-.8-.031-.314.008-.597.079-.91.079-.094 0-.204.008-.313 0-.095 0-.157-.118-.251-.094-.188.047.298.337.313.353.204.141.377.29.518.51.11.181.173.376.126.588-.047.149-.408.463-.22.525.502.188 1.082.11 1.553.353.393.196.973.432 1.099.895.094.274-.016.502 0 .776 0 .188.471.337.596.416.455.251.879.792 1.13 1.239.251.432.063 1.09-.063 1.538-.142.479-.737.784-1.192.886-.142.032-.533.071-.597.228-.031.055.439.33.486.353.565.4-.188.769.079 1.185.109.235.22.494.172.761-.047.204-.392.306-.564.408-.204.141-.361.337-.596.423-.283.11-.33.165-.424.455-.142.494-.612.714-1.067.839-.643.173-.941-.361-1.506-.439-.376-.055-.659.573-.926.792-.407.322-.753.863-.941 1.357-.156.424-.36.895-.926.746-.235-.063-.438-.291-.627-.439-.235-.18-.408.079-.628.22-.329.22-.895.635-.973 1.067-.031.235-.047.431-.173.643-.156.298-.22.369.048.643.156.165.376.291.518.471.141.181.235.416.329.62.22.479.8.667 1.255.886.142.071 1.146.667.518.816-.267.086-.549.149-.831.229-.267.086-.455.306-.722.423-.471.22-1.082.133-1.521.399-.22.126-.361.314-.55.472-.235.188-.518.306-.722.533-.36.376-.596.784-1.113.988-.455.196-.988-.102-1.365-.345-.518-.321-.784-.519-1.412-.298-.549.204-1.146.188-1.726.22-.22.031-.345.211-.533.337-.22.149-.393.032-.644.047-.564.039-1.13.056-1.632.337-.471.259-1.02.313-1.506.558-.142.079-.377.156-.471.313-.109.229.078.745.126.98.156.627.016.996-.299 1.545-.125.22-.203.479-.36.683-.173.211-.439.4-.675.541-.879.565-2.322.376-3.248-.008-.533-.229-.973-.463-1.568-.322-.564.133-1.161-.031-1.694-.251-.518-.228-1.036-.659-1.616-.736-.251-.039-.502-.056-.769-.134-.298-.102-.581-.204-.91-.204-.549.009-.737.386-1.02.801-.157.22-.313.438-.424.689-.109.282-.094.627-.142.925-.125 1.106.832 2.104 1.695 2.637.36.22.769.33 1.113.557.346.22.518.502.801.785.329.329.815.518 1.113.878.251.322-.518.769-.706.988-.298.36-.564.746-.847 1.138-.33.471-.439.729-.22 1.278.063.173.109.353.204.51.094.165.235.313.313.494.173.471-.313.854-.471 1.255.204-.157.439-.268.675-.369.235-.086.549 0 .8 0 .22 0 .455.165.644.251.313.125.486.416.69.667.172.22.329.439.518.643.173.182.407.274.596.425.519.384 1.208.604 1.789.862.407.181 1.051.447 1.114.927.047.234.047.392.266.541.268.195.314.377.377.697.063.268.126.408.393.502.251.08.36.252.471.486.094.229-.063.533-.157.744-.109.252.22.479.393.612.376.313.8.479 1.066.918.204.337.393.901.047 1.216-.125.125-.407.251-.486.408-.109.22.079.392.22.541.33.354.801.628 1.02 1.064.268.494.424.975.283 1.539-.157.563-.031 1.06.094 1.6.549 1.113 1.71-.116 2.542.314.141.069.267.147.407.211.11.047.33-.164.439-.211.518-.236.926-.378 1.459-.104.235.126.361.195.502.432.079.135.188.502.33.564.502.242 1.066.291 1.568.55.22.116.299.235.424.438.126.203.329.32.502.471.157.142.471.117.675.164.298.072.549.166.831.299.455.234.926.463 1.365.738.502.313.973.86 1.396 1.276.393.408.753.849 1.114 1.286.36.434.753.854.988 1.365.251.523.329 1.146.455 1.701.141.637.471 1.105.815 1.641.313.463.564.848.69 1.391.047.25.142.531.109.782-.031.321-.188.597-.172.927 0 .281.125.549.125.84 0 .272-.109.518-.142.785-.063.58.534 1.012.926 1.332.299.242.848.582.848 1.012.031.291.031.582.109.854.095.308.283.58.424.863.235.479.298.996.533 1.475.126.229.22.472.346.69.172.251.376.462.376.775.142.918-.36 2.289-1.317 2.588-.549.174-.753.377-1.02.888 0 .589.611 1.036.564 1.641-.063.58-.564.769-1.035.94-.235.086-.455.086-.518.353-.032.347-.032.698-.032 1.046.017.609-.109 1.159.048 1.756.125.485.471.871.518 1.381.016.213.063.149.267.149.125 0 .251 0 .376.022.235.047.377.154.519-.071.094-.142.172-.376.345-.431.298-.127.502-.079.659-.387.141-.272.267-.57.423-.84.11-.195.377-.102.55-.107s.471-.299.596-.416c.22-.196.361-.559.628-.715.298-.18 1.098.156 1.412.229.486.118 1.208.173 1.663-.018 1.066-.484 1.992-1.08 2.949-1.739-.628-.511-1.239-1.021-1.867-1.538-.313-.26-.298-.385-.047-.696.235-.313.486-.62.722-.94-.173-.127-.549-.291-.627-.51-.079-.205.094-.504.172-.69a2.54 2.54 0 00.142-.771c0-.289-.095-.385-.235-.627-.235-.408-.706-.783-.785-1.255-.047-.243-.109-.512-.125-.763 0-.282.22-.604.329-.854.079-.143-.031-.519-.047-.684-.016-.188-.047-.58.079-.736.392-.479.815-.935 1.207-1.396.424-.473.832-.939 1.256-1.42.408-.473.957-.801 1.475-1.161.173-.117.424-.397.644-.384.298.016.58.037.878.055.314.021.628.039.941.063.173.017.753.017.879-.117.36-.438.706-.854 1.019-1.342.222-.33.737-.729 1.146-.775.597-.07 1.207-.135 1.805-.196.313-.039.645-.077.957-.125.313-.077.395-.241.581-.503.155-.202.233-.32.485-.368.297-.047.58-.134.861-.194.581-.133 1.067-.564 1.555-.879.328-.211.783-.433 1.021-.746.282-.375.55-.61.926-.877.253-.183.63-.486.941-.565.202-.056.502.017.722.03.235.01.52-.016.737.057.345.117.549.479.909.549.221.031.502.023.676.182.125.125.22.307.313.455.156.26.424.268.658.447.268.202.078.76.047 1.051 0 .022.737.313.801.354.377.259.645.502.926.854a17.323 17.323 0 011.602 2.434c.096.188.204.367.299.549.109.188.094.143.281.143.438 0 .737-.078 1.146-.242.346-.135.629-.354.927-.564.173-.126.313-.134.519-.079.156.048.297-.086.454-.03-.267-.408-.69-.996-.377-1.481.377-.599.722-1.208.974-1.867.109-.188-.047-.479.109-.659.174-.193.486-.337.689-.479.58-.399 1.209-.637 1.742-1.105.549-.484.861-.947.973-1.679.031-.212.063-.455.328-.455.347 0 .771-.069 1.084.063.267.109.533.26.814.268.109 0 .36.008.438-.07.077-.07.126-.195.233-.234.252-.094.676-.174.941-.174.33.018.58.261.895.291-.095-.377-.031-.762-.016-1.146.016-.36-.047-.722-.063-1.083-.032-.736 1.363-.195 1.691-.039.348.157.564.307.832.557.313.291.628.51 1.066.439.359-.055.736-.086 1.099-.221.377-.147.724-.305 1.146-.32-.156-.212-.33-.432-.438-.667-.094-.228-.155-.463-.298-.667-.313-.438-.803-.77-.975-1.286-.094-.251-.047-.792-.438-.494-.395.298-.926.274-1.191-.196-.109-.188-.143-.407-.281-.58-.157-.219-.282-.368-.361-.627-.156-.645.471-.957.439-1.545-.018-.394-.252-.918.281-1.105.221-.078.424 0 .611.107.251.158.549.205.848.136.127-.023.313 0 .407-.095.063-.041.031-.213.063-.273a.62.62 0 01.188-.309c.377-.397.939-.424 1.396-.155.158.095.393.329.58.291.234-.039.33-.11.502-.274.174-.181.221-.416.347-.636.173-.29.235-.638.313-.965.078-.282.078-.589.029-.88-.047-.299-.203-.424-.359-.666-.25-.407-.485-.762-.533-1.247-.031-.447.785-.724 1.113-.919.205-.116.377-.29.564-.424.221-.142.281-.385.473-.541.438-.354.484-.918 1.051-1.146.358-.181.408-.274.596-.62.143-.275.408-.188.628-.33.108-.079-.267-.518-.313-.62-.125-.267-.172-.581.031-.824.204-.259.486-.432.814-.542.33-.117.66-.022.988-.102.234-.055.534-.243.736-.384.143-.095.031-.282.031-.408 0-.165.031-.337.109-.486.108-.298 0-.438-.221-.689-.188-.229-.533-.423-.611-.729-.047-.228.047-.549.269-.65.233-.095.597-.103.688-.338.047-.133.143-.259.156-.399.016-.165-.016-.329-.016-.486.006-.334.195-.554.477-.687.204-.094-.173.078 0 0z" fill="#FECA0A"/></svg>