<svg xmlns="http://www.w3.org/2000/svg" viewBox="2.84 48.37 277.8 186.72"><path fill="#D6D4D1" d="M2.835 48.373H280.63v186.718H2.835z"/><path fill="#425CA3" d="M5.086 50.64h273.262v31.881H5.086zM5.086 200.928h273.262v31.881H5.086z"/><path fill="#B0111D" d="M5.102 96.187h273.261v91.083H5.102z"/><path fill="#FFDA00" d="M5.094 82.521H278.37v13.666H5.094zM5.094 187.262H278.37v13.666H5.094zM221.748 126.271H63.239A1.27 1.27 0 0161.968 125c0-.714.565-1.279 1.271-1.279h158.509c.715 0 1.278.565 1.278 1.279 0 .699-.564 1.271-1.278 1.271z"/><path d="M228.761 122.066l-6.024 2.118c.181.22.29.51.29.816 0 .306-.109.58-.29.8l6.024 2.118 8.314-2.918-8.314-2.934z" fill="#FFF"/><path d="M237.666 123.329l-8.309-2.934-.598-.196-.579.196-8.315 2.934-.023.023a1.65 1.65 0 00-.588-.196.492.492 0 00-.519.274 2.05 2.05 0 00-.753-.274.509.509 0 00-.533.274 1.973 1.973 0 00-.744-.274.498.498 0 00-.551.337H63.239c-.832 0-1.506.675-1.506 1.506 0 .815.675 1.49 1.506 1.49h152.884c.071.212.26.353.479.353.022 0 .056 0 .079-.008a2.12 2.12 0 00.736-.274c.095.172.26.282.455.282.03 0 .063 0 .094-.008.205-.031.472-.125.738-.274.078.172.25.282.445.282.021 0 .057 0 .086-.008a2.59 2.59 0 00.581-.188l.047.008 8.315 2.934.578.196.599-.196 8.31-2.934 4.715-1.655-4.714-1.67zm-18.178 2.33c.079-.196.143-.416.143-.674 0-.267-.063-.487-.135-.675a.739.739 0 01.385.675c-.001.344-.189.548-.393.674zm-1.27 0a1.79 1.79 0 00.134-.674c0-.267-.056-.487-.134-.675.188.118.385.313.385.675 0 .344-.197.548-.385.674zm3.53.384h-1.19c.202-.274.345-.62.345-1.059s-.133-.777-.328-1.043h1.178c.58 0 1.059.479 1.059 1.059a1.06 1.06 0 01-1.064 1.043zM62.188 125c0-.581.471-1.059 1.051-1.059H216.21a.458.458 0 00.336.22c.031.008.777.125.777.824 0 .674-.73.831-.816.839a.518.518 0 00-.328.22H63.239A1.046 1.046 0 0162.188 125zm166.573 2.918l-5.805-2.04a1.43 1.43 0 00.297-.878c0-.33-.108-.636-.289-.879l5.797-2.055 8.314 2.934-8.314 2.918z"/><path d="M211.425 134.006H52.907a1.279 1.279 0 01-1.278-1.279c0-.698.572-1.271 1.278-1.271h158.518c.705 0 1.277.573 1.277 1.271a1.278 1.278 0 01-1.277 1.279z" fill="#FFDA00"/><path d="M218.438 129.801l-6.024 2.126c.174.22.291.494.291.8 0 .314-.117.589-.291.808l6.024 2.126v-.008l8.315-2.926-8.315-2.926z" fill="#FFF"/><path d="M227.333 131.072l-8.315-2.934-.58-.204-.58.204-8.315 2.934-.029.008a2.65 2.65 0 00-.581-.196.542.542 0 00-.524.274 2.37 2.37 0 00-.754-.274.535.535 0 00-.523.274 2.423 2.423 0 00-.754-.274.515.515 0 00-.549.345H52.907c-.824 0-1.498.675-1.498 1.498 0 .84.674 1.499 1.498 1.499h152.885c.078.22.267.353.471.353.031 0 .063 0 .094-.016.204-.023.471-.118.736-.274.088.18.253.29.455.29.022 0 .063 0 .088-.016.203-.023.471-.118.729-.274.094.18.268.29.455.29.031 0 .063 0 .094-.016.157-.023.369-.086.58-.188l.049.016 8.314 2.934.58.204.58-.204 8.314-2.934 4.715-1.663-4.713-1.656zm-18.167 2.33c.078-.212.133-.432.133-.683s-.055-.471-.133-.682c.188.125.385.321.385.682-.001.353-.197.549-.385.683zm-1.279 0c.077-.212.133-.432.133-.683s-.056-.471-.133-.682c.196.125.384.321.384.682 0 .353-.188.549-.384.683zm3.538.384h-1.209c.22-.274.361-.62.361-1.067 0-.439-.144-.776-.33-1.043h1.178c.58 0 1.051.471 1.051 1.051 0 .589-.471 1.059-1.051 1.059zm-159.577-1.059c0-.58.486-1.051 1.059-1.051h152.971c.07.118.195.196.346.22.023.008.775.133.775.823 0 .683-.736.832-.814.848a.467.467 0 00-.33.219H52.907c-.573 0-1.059-.47-1.059-1.059zm166.59 2.926v.008l-5.806-2.04a1.502 1.502 0 000-1.773l5.806-2.047 8.315 2.926-8.315 2.926z"/><g><path d="M249.181 143.396H34.276a1.676 1.676 0 01-1.663-1.671c0-.91.745-1.671 1.663-1.671H249.18c.918 0 1.663.761 1.663 1.671s-.744 1.671-1.662 1.671z" fill="#FFD900"/><path d="M249.181 140.054c.918 0 1.662.761 1.662 1.671s-.744 1.671-1.662 1.671H34.276a1.676 1.676 0 01-1.663-1.671c0-.91.745-1.671 1.663-1.671h214.905m0-.627H34.276a2.303 2.303 0 00-2.307 2.298 2.303 2.303 0 002.307 2.298H249.18a2.301 2.301 0 002.299-2.298 2.301 2.301 0 00-2.298-2.298z"/></g><g><path d="M206.466 141.474c-.077-.11-7.805-11.83-26.459-25.911-17.274-13.03-34.416-13.689-37.688-13.689H141.653c-3.264 0-20.412.659-37.686 13.689-18.655 14.082-26.382 25.801-26.46 25.911l-.165.251.165.251c.078.11 7.805 11.83 26.46 25.911 17.273 13.03 34.422 13.688 37.686 13.688h.675c3.264 0 20.403-.658 37.68-13.688 18.654-14.081 26.382-25.801 26.459-25.911l.164-.251-.165-.251zm-27.002 25.699c-8.816 6.645-17.578 10.018-24.428 11.734-1.858-6.926-15.675-8.361-15.675-10.599 0-2.385 11.22-2.274 11.22-4.447 0-2.165-9.586-3.633-9.586-5.993 0-2.369 5.334-3.546 5.334-6.763 0-3.208 1.099-4.628 2.086-5.836s4.049-2.393 4.049-3.601-.502-1.099-1.938-1.491c-1.437-.4-3.099-1.671-3.099-6.558 0-4.911.988-6.691-1.498-7.303-2.473-.62-.667-3.562-4.354-4.126-3.679-.557-.596-1.538-4.542-6.111-3.13-3.648 2.346-10.59 4.746-13.297h.22c.008 0 .118-.016.321-.016 3.209 0 20.1.659 37.145 13.508 17.023 12.865 24.877 23.699 26.084 25.448-1.208 1.752-9.046 12.586-26.085 25.451z"/><path d="M139.363 168.31c0 2.235 13.814 3.672 15.674 10.598 6.851-1.717 15.61-5.09 24.428-11.733 17.039-12.865 24.877-23.698 26.084-25.448-1.207-1.75-9.061-12.583-26.084-25.448-17.045-12.85-33.936-13.508-37.145-13.508-.203 0-.313.016-.321.016h-.22c-2.4 2.707-7.876 9.649-4.746 13.297 3.946 4.573.863 5.554 4.542 6.111 3.688.565 1.883 3.507 4.354 4.126 2.486.612 1.498 2.393 1.498 7.303 0 4.887 1.662 6.158 3.099 6.558 1.437.392 1.938.283 1.938 1.491s-3.062 2.393-4.049 3.601c-.988 1.208-2.086 2.629-2.086 5.837 0 3.216-5.334 4.393-5.334 6.762 0 2.361 9.586 3.828 9.586 5.993.001 2.169-11.218 2.06-11.218 4.444z" fill="#FFF"/><g fill="#FFF"><path d="M101.536 127.973h3.075v10.315h-3.075zM101.536 145.162h3.075v10.315h-3.075zM107.797 127.973h3.074v10.315h-3.074zM107.797 145.162h3.074v10.315h-3.074zM114.057 127.973h3.075v10.315h-3.075zM114.057 145.162h3.075v10.315h-3.075zM120.316 127.973h3.075v10.315h-3.075zM120.316 145.162h3.075v10.315h-3.075zM126.576 127.973h3.075v10.315h-3.075zM126.576 145.162h3.075v10.315h-3.075zM132.837 127.973h3.075v10.315h-3.075zM132.837 145.162h3.075v10.315h-3.075z"/></g><path d="M148.855 127.973h3.075v10.315h-3.075zM148.855 145.162h3.075v10.315h-3.075zM155.115 127.973h3.075v10.315h-3.075zM155.115 145.162h3.075v10.315h-3.075zM161.375 127.973h3.076v10.315h-3.076zM161.375 145.162h3.076v10.315h-3.076zM167.636 127.973h3.074v10.315h-3.074zM167.636 145.162h3.074v10.315h-3.074zM173.896 127.973h3.075v10.315h-3.075zM173.896 145.162h3.075v10.315h-3.075zM180.155 127.973h3.075v10.315h-3.075zM180.155 145.162h3.075v10.315h-3.075z"/></g><g><path d="M44.647 140.956s4.205 1.349 5.334 1.396c1.129.032 5.295-2.079 7.099 1.343 1.796 3.42.447 5.476.447 5.476s-.941-.438-1.129-1.122c0 0 .533 4.738-.032 8.27l-.674-.832s-1.185 2.94-1.695 5.271l-.455-1.482s-.534 1.436-2.056 2.274c-1.521.855-2.416 1.106-1.969 2.793 0 0-1.012-.557-1.75-.839-.722-.283-1.459-1.153-1.459-1.153s-.627.785-.902 1.381c0 0-1.499.11-2.534-2.815-1.043-2.935-2.056-3.867-2.056-3.867l-.674 2.283-1.192-4.785-1.341 1.741s-1.043-3.491-.792-4.503l-1.271 1.012s2.197-11.265 7.578-9.343l-.314-1.757c.001-.004 2.629 2.005 1.837-.742z" fill="#3E5CA3"/><path d="M49.519 164.6a.265.265 0 01-.126-.03s-1.004-.558-1.702-.832c-.549-.212-1.075-.698-1.365-1.004-.204.282-.518.737-.69 1.105a.225.225 0 01-.204.133h-.008c-.337 0-1.781-.148-2.785-2.98-.675-1.892-1.35-2.935-1.71-3.42l-.549 1.828a.236.236 0 01-.235.181h-.008a.245.245 0 01-.243-.188l-1.051-4.274-1.036 1.326a.249.249 0 01-.251.094.26.26 0 01-.196-.172c-.086-.314-.777-2.667-.832-4.018l-.823.645c-.079.078-.196.078-.291.022a.281.281 0 01-.118-.274c.079-.393 1.961-9.774 6.621-9.774.298 0 .581.047.878.11l-.235-1.327a.276.276 0 01.125-.274c.086-.047.204-.047.283.023.337.251.996.644 1.357.644.11 0 .141-.032.149-.055.047-.039.157-.274-.07-1.051a.276.276 0 01.07-.267.267.267 0 01.251-.063c.047.023 4.188 1.349 5.271 1.38.235 0 .612-.086 1.059-.196.746-.188 1.687-.408 2.644-.408 1.663 0 2.871.714 3.608 2.087 1.851 3.514.494 5.655.439 5.758-.079.094-.212.141-.33.086-.023-.024-.361-.173-.675-.463.118 1.584.283 4.824-.125 7.413a.251.251 0 01-.188.195c-.094.023-.204-.008-.259-.086l-.4-.479c-.337.878-1.129 3.052-1.521 4.824a.253.253 0 01-.244.204.259.259 0 01-.251-.188l-.267-.878c-.322.526-.902 1.287-1.875 1.82a9.325 9.325 0 01-.463.259c-1.231.659-1.733.925-1.388 2.244a.236.236 0 01-.086.267.295.295 0 01-.155.053zm-3.209-2.51c.078 0 .141.031.196.094 0 0 .698.824 1.357 1.075.432.165.941.416 1.302.604-.149-1.271.627-1.68 1.741-2.275.141-.086.298-.173.463-.259 1.412-.792 1.938-2.134 1.938-2.149a.264.264 0 01.235-.165h.016a.274.274 0 01.235.182l.18.596c.565-2.118 1.467-4.37 1.475-4.401a.295.295 0 01.204-.156c.086-.009.181.022.228.094l.314.377c.416-3.381-.039-7.578-.047-7.633-.016-.118.079-.243.204-.274.125-.022.267.055.298.188.102.36.494.667.776.847.274-.596.832-2.354-.573-5.021-.643-1.231-1.679-1.82-3.153-1.82-.902 0-1.804.22-2.526.393-.486.118-.879.22-1.161.22-.973-.031-3.899-.926-5.013-1.271.094.502.055.839-.11 1.076-.094.118-.259.251-.565.251-.369 0-.808-.212-1.153-.416l.204 1.161a.256.256 0 01-.078.234.258.258 0 01-.259.039 3.387 3.387 0 00-1.122-.195c-3.546 0-5.429 6.479-5.962 8.66l.706-.557c.078-.079.204-.079.29-.023.102.07.133.181.118.274-.172.675.322 2.73.643 3.891l1.043-1.342a.272.272 0 01.259-.094c.094.016.165.094.188.196l.957 3.868.416-1.382a.245.245 0 01.165-.172.262.262 0 01.251.063c.039.04 1.067 1.004 2.118 3.954.784 2.196 1.781 2.572 2.149 2.636.306-.58.832-1.239.847-1.271.049-.058.127-.112.206-.097z"/><path d="M42.246 146.887s.439-1.161 1.012-.901c.667.32.259 1.827-.149 2.854-.416 1.035-2.118 3.585-3.797 4.636 0 0 1.161-2.251 1.789-3.813a108.36 108.36 0 011.145-2.776zM43.698 152.496s.149-1.004.651-.895c.596.125.534 1.404.385 2.299s-1.06 3.231-2.205 4.361c0 0 .534-1.993.753-3.35.219-1.348.416-2.415.416-2.415zM46.687 156.089s.047-1.028.549-.965c.604.063.675 1.349.62 2.251-.055.91-.729 3.326-1.75 4.565 0 0 .322-2.04.408-3.413.078-1.363.173-2.438.173-2.438zM49.377 151.579s-.479-.902-.917-.627c-.51.32-.016 1.506.423 2.298.439.784 2.087 2.675 3.554 3.357 0 0-1.177-1.702-1.843-2.902-.66-1.193-1.217-2.126-1.217-2.126zM48.396 145.735s-.886-.902-1.31-.439c-.494.557.479 1.804 1.271 2.612.792.792 3.404 2.495 5.381 2.815 0 0-1.977-1.64-3.177-2.848-1.192-1.208-2.165-2.14-2.165-2.14z" fill="#A6121C"/></g><g><path d="M120.725 110.229s-.793 1.302 3.906 1.326c4.707.031 10.85 4.479 10.653 10.261 0 0-2.62-.432-4.314-1.781 0 0 3.499 3.977 3.169 7.021 0 0-1.224.22-2.181-1.302 0 0 1.192 2.816.988 3.946 0 0-1.459-1.02-2.369-1.514 0 0 .675 1.255-.023 3.24-.706 1.961-.62 3.82-.62 3.82s-3.521-.361-6.448-4.087c0 0-.737.432-.737 1.553 0 0-3.49-2.283-3.969-4.197 0 0-.447.502-.62 1.804 0 0-3.099-1.977-3.632-4.903l-1.326 1.545s-1.325-2.471.307-5.632l-1.97 1.365c-.001 0 .901-7.5 9.186-12.465z" fill="#3E5CA3"/><path d="M129.934 135.496h-.031c-.141-.008-3.529-.393-6.464-3.978-.173.181-.432.565-.432 1.192a.272.272 0 01-.133.228c-.087.047-.188.031-.267-.008-.126-.094-2.997-1.977-3.876-3.82a4.368 4.368 0 00-.313 1.239.252.252 0 01-.156.196.232.232 0 01-.236-.016c-.125-.07-2.863-1.852-3.64-4.565l-.988 1.169a.273.273 0 01-.22.086.286.286 0 01-.204-.133c-.047-.102-1.146-2.196-.063-5.028l-1.224.839c-.078.055-.188.055-.282.016a.316.316 0 01-.118-.267c.008-.063 1.012-7.664 9.304-12.638a.262.262 0 01.306.047c.095.086.11.212.048.314 0 .008-.048.086.023.188.133.22.745.722 3.671.746 2.738.016 5.915 1.49 8.096 3.765 1.891 1.969 2.887 4.37 2.801 6.747a.236.236 0 01-.094.196c-.048.047-.126.063-.196.055-.087-.023-1.655-.274-3.161-1.036 1.035 1.443 2.533 3.922 2.298 6.056a.25.25 0 01-.204.22s-.683.157-1.521-.432c.321.934.667 2.173.541 2.872-.016.086-.078.149-.148.196a.324.324 0 01-.244-.031 52.564 52.564 0 00-1.772-1.169c.134.596.188 1.561-.243 2.761-.675 1.898-.604 3.71-.604 3.734a.214.214 0 01-.079.196.28.28 0 01-.175.063zm-6.449-4.589a.25.25 0 01.204.102c2.338 2.973 5.1 3.75 5.985 3.938.008-.627.087-2.086.636-3.624.659-1.82.047-3.021.047-3.028a.24.24 0 01.047-.298.242.242 0 01.299-.047c.627.353 1.506.934 2.008 1.271-.078-1.004-.714-2.707-.988-3.365-.047-.133 0-.267.125-.33.11-.063.252-.023.33.086.627 1.012 1.365 1.177 1.71 1.192.142-2.863-3.075-6.558-3.106-6.598a.263.263 0 01.008-.345.255.255 0 01.346-.023c1.294 1.036 3.177 1.514 3.898 1.655-.008-2.722-1.443-4.793-2.667-6.072-2.087-2.181-5.131-3.593-7.735-3.608-2.4-.016-3.742-.345-4.118-1.012-.023-.039-.039-.078-.055-.109-6.417 4.024-8.144 9.617-8.551 11.43l1.459-.997a.237.237 0 01.313.016c.087.079.11.204.063.314-1.208 2.314-.745 4.252-.463 5.028l1.044-1.231a.268.268 0 01.267-.086c.094.031.173.11.188.204.407 2.236 2.4 3.915 3.2 4.502.204-1.059.589-1.514.612-1.529.063-.071.157-.102.251-.071a.257.257 0 01.188.181c.36 1.443 2.62 3.169 3.506 3.796.165-.925.785-1.286.824-1.31a.21.21 0 01.125-.032z"/><path d="M126.31 128.844s-.494-1.012-1.035-.651c-.651.439-.188 1.805.259 2.707.447.91 2.235 2.997 3.922 3.656 0 0-1.231-1.922-1.906-3.287a118.201 118.201 0 00-1.24-2.425zM127.204 121.549s-.902-.698-1.224-.125c-.393.69.635 1.71 1.443 2.306.8.612 3.326 1.679 5.131 1.514 0 0-1.962-1.169-3.17-2.079-1.207-.926-2.18-1.616-2.18-1.616zM124.49 115.547s-1.256-.706-1.562.016c-.36.863 1.122 1.922 2.251 2.526 1.13.62 4.52 1.537 6.778 1.114 0 0-2.698-1.114-4.394-2.032-1.709-.926-3.073-1.624-3.073-1.624zM117.916 118.622s.157-1.436.918-1.271c.91.204.926 2.024.776 3.295-.157 1.279-1.357 4.582-3.013 6.174 0 0 .644-2.832.871-4.762.228-1.921.448-3.436.448-3.436zM121.336 124.177s-.133-1.153.502-1.153c.754 0 1.083 1.428 1.193 2.456.094 1.035-.268 3.852-1.287 5.397 0 0 .008-2.354-.157-3.899a136.2 136.2 0 01-.251-2.801z" fill="#A6121C"/></g><g><path d="M237.107 140.211s-1.662 1.569.895 1.459c2.574-.11 11.273 1.6 12.004 8.786l-1.16-1.153s-.196 1.569.769 4.589c0 0-.597.455-1.554-1.489 0 0-.479 3.263.118 4.698 0 0-.685 0-1.357-.979 0 0-.337 1.185-.173 3.969l-1.631-1.208-1.146 3.208-.715-1.122s-2.84 3.373-3.099 4.589c0 0-4.81-3.64-6.763-7.021 0 0-1.373 1.64-2.698 2.109 0 0-2.729-6.417-1.694-9.257l-2.252 1.373c-.001 0 1.695-8.448 10.456-12.551z" fill="#3E5CA3"/><path d="M240.058 165.808a.248.248 0 01-.157-.047c-.188-.148-4.597-3.499-6.637-6.793-.464.494-1.521 1.545-2.58 1.922a.24.24 0 01-.322-.133c-.103-.251-2.407-5.719-1.858-8.816l-1.719 1.043a.244.244 0 01-.281-.009.232.232 0 01-.094-.259c.016-.086 1.813-8.621 10.59-12.748a.268.268 0 01.313.086.244.244 0 01-.03.33c-.234.22-.511.627-.439.8.057.133.386.267 1.154.235.078 0 .164-.016.258-.016 2.338 0 11.242 1.539 12.004 9.029a.235.235 0 01-.143.251.273.273 0 01-.289-.039l-.729-.736c.016.689.157 2.016.761 3.907a.277.277 0 01-.094.289.593.593 0 01-.322.087c-.393 0-.8-.33-1.216-.966-.103 1.027-.196 2.84.181 3.789a.263.263 0 01-.016.229c-.047.079-.126.109-.212.109-.022 0-.589 0-1.2-.643-.086.588-.173 1.679-.07 3.365a.243.243 0 01-.134.243.256.256 0 01-.267-.023l-1.365-1.004-1.035 2.887c-.031.086-.117.165-.212.172a.255.255 0 01-.243-.117l-.518-.84c-.896 1.091-2.646 3.351-2.824 4.213a.265.265 0 01-.157.196c-.035.007-.067.007-.098.007zm-6.764-7.522h.033a.24.24 0 01.188.125c1.632 2.832 5.365 5.884 6.417 6.715.604-1.437 2.918-4.197 3.028-4.323a.295.295 0 01.22-.094.252.252 0 01.196.117l.422.675.98-2.707a.27.27 0 01.164-.165.29.29 0 01.229.039l1.201.895c-.104-2.416.188-3.467.203-3.515.022-.102.104-.165.203-.18a.23.23 0 01.251.109c.274.4.541.62.755.729-.369-1.601.008-4.221.021-4.346a.252.252 0 01.212-.211.261.261 0 01.272.141c.439.886.771 1.216.967 1.326-.84-2.801-.668-4.283-.668-4.347a.256.256 0 01.174-.211.272.272 0 01.267.056l.612.62c-1.225-6.465-9.232-7.822-11.393-7.822-.086 0-.164 0-.233.008-.988.055-1.49-.133-1.655-.549a.785.785 0 01-.008-.502c-6.525 3.459-8.736 9.446-9.296 11.343l1.719-1.043c.095-.055.203-.055.29.024.086.069.117.18.078.281-.889 2.425 1.122 7.681 1.593 8.842 1.179-.533 2.354-1.922 2.369-1.945a.272.272 0 01.189-.085z"/><path d="M240.873 153.124s-.313-.714-.713-.439c-.464.33-.182 1.264.117 1.898.282.627 1.49 2.047 2.667 2.456 0 0-.815-1.311-1.255-2.251-.439-.951-.816-1.664-.816-1.664zM238.653 157.29s-.22-1.012.313-1.09c.636-.086 1.027 1.145 1.216 2.032.173.901.126 3.428-.597 4.91 0 0-.195-2.079-.471-3.428a113.928 113.928 0 01-.461-2.424zM240.144 148.722s-.619-.463-.831-.03c-.251.524.463 1.191 1.013 1.6.563.408 2.307 1.067 3.529.854 0 0-1.35-.753-2.195-1.356-.842-.62-1.516-1.068-1.516-1.068zM235.257 156.473s-.11-.706.445-.596c.668.133.94 1.036 1.027 1.688.078.619-.273 2.235-1.186 2.973 0 0 .031-1.404-.094-2.354a56.64 56.64 0 01-.192-1.711zM233.091 151.437s.479-.948 1.021-.502c.644.534.188 1.805-.251 2.645-.439.832-2.188 2.65-3.844 3.066 0 0 1.208-1.732 1.865-2.98.66-1.256 1.209-2.229 1.209-2.229z" fill="#A6121C"/></g></svg>