<svg xmlns="http://www.w3.org/2000/svg" viewBox="2.84 48.38 277.8 186.71"><path fill="#D6D4D1" d="M2.835 48.378H280.63v186.708H2.835z"/><path fill="#00882F" d="M5.172 50.645h273.23v182.151H5.172z"/><path fill="#EE7D0B" d="M245.394 116.67h33.009v116.125h-33.009z"/><path d="M212.371 116.67h33.022v116.125h-33.022z"/><path fill="#DC221A" d="M179.361 116.67h33.01v116.125h-33.01z"/><path d="M271.169 71.15c.66-1.098.031-.737-.393-.502-.299.165-3.654 1.882-5.758 2.949 1.302-.745 3.025-1.961 3.938-3.499 1.553-2.651-.533-1.538-1.317-1.067-.597.376-5.005 2.659-6.793 3.593 2.087-1.185 4.03-3.083 4.69-3.922.752-.941-.33-.361-.33-.361-2.822 1.475-11.482 4.816-11.482 4.816 2.148-2.133 1.396-2.274 1.064-2.274-.328 0-1.961.863-4.078 1.49-2.116.627-6.668 1.475-6.668 1.475s-.078 0-1.631.533c-1.554.534-4.438 1.177-4.438 1.177s-1.993-.157-4.863-.157c-2.871 0-4.425.698-4.425.698s-.533-1.349-.533-1.844c0-.494.393-1.718 1.633-1.647 1.254.07 1.191-.33 1.191-.33.861.235.596 1.036.596 1.036.957-.33.973-1.192.973-1.192 0-1.255-2.965-1.389-2.965-1.389-1.207-1.208-3.326-1.153-3.326-1.153-5.099 0-5.896 5.679-5.896 5.679s-3.23-.895-6.65-1.365c-3.42-.47-7.453-2.274-9.822-3.436-2.367-1.161-2.463-1.051-2.87-.894-.407.157 2.854 3.451 2.854 3.451s-1.429-1.051-5.646-2.651c-4.236-1.6-7.877-5.146-7.422-2.839.455 2.307 4.802 5.255 4.802 5.255-5.351-1.898-7.326-4.361-7.845-4.549s-.094 1.224.675 2.651c.771 1.427 3.044 2.588 3.044 2.588-1.35-.486-2.855-1.6-2.855-1.6-3.623-2.824-1.428.345-.471 1.302s3.373 1.789 3.373 1.789c-1.537-.282-3.779-1.49-4.455-1.992-.675-.502-.832-.455-.689 0 .142.455.58 1.506 3.105 3.043 2.525 1.538 6.465 2.337 6.465 2.337-.66-.016-1.963.267-1.963.267 1.508 2.463 8.143.627 8.143.627-1.146.518-5.771 1.538-5.771 1.538 1.896 2.212 8.205.674 8.205.674-1.13.581-3.971 1.114-3.971 1.114 1.945 2.173 8.63.204 8.63.204-.377.376-3.673 1.459-3.673 1.459 1.76 1.655 4.205 1.043 5.478.541-.813.424-1.788 1.051-.675 1.287 1.71.361 4.658-.91 4.658-.91s-3.797 1.6-1.489 1.694c1.489.055 3.091-.644 4.048-1.146-1.663 1.02-2.117 1.718-1.113 1.867 1.16.172 5.178-1.287 5.178-1.287-1.113.408-2.117 1.6-2.117 1.6 1.693 2.071 5.052.769 5.052.769l-.108 1.035.974-1.145s-.659 1.6-.879 2.902c-.222 1.302-.832 2.149.047 1.757s1.334-2.667 1.334-2.667c-.031.518-.126 1.051-.126 1.051-.299 1.82-.753 3.02.156 2.306-.047.416-.174.902-.455 1.271-.629.815-1.693.737-1.693.737s-1.788-.235-2.259 1.789c0 0-.3.329-.063 1.004l.611-.769s1.271.392 2.667-.69c0 0-1.286 1.02-.455 1.851 0 0-.298 1.083.737 1.239 0 0-.221-.643-.047-.784 0 0 1.428-.298 1.459-1.804 0 0 .016 1.443.957 1.898 0 0-.031.894.939.925 0 0-.455-.894-.33-1.098 0 0 1.383-.91.254-2.4l.452-.313v-.008.196s-.233 1.475.755 1.914c0 0-.203-.941-.096-.973 0 0 .957.314 1.757-.847 0 0-.657 1.098-.03 1.82 0 0-.268 1.208.91 1.302 0 0-.346-.785-.156-1.036 0 0 1.316-.094.895-2.322 0 0 .408-.549.628.094s.235.957 1.286.91c0 0 .408.471-.094.957 0 0 1.066.063 1.238-1.318.172-1.38-1.066-1.569-1.066-1.569s.031-.502.549-.439c.52.063 1.083.439 1.193.753 0 0 .203-1.036-1.006-1.318-1.113-.259-1.316.345-1.396-1.365 1.286.973 2.667 1.083 1.788.125-1.334-1.443-1.304-2.683-1.304-2.683s.658.737 1.602 1.02c.941.283.563-.298-.107-.596-.676-.298-1.179-1.694-1.179-1.694s1.71 1.6 2.949 1.616c.94.008-.126-.933-.706-1.396.645.479 2.118 1.498 3.326 1.726 1.602.298 2.068-.549.783-1.145-1.285-.596-2.619-2.087-2.619-2.087.831.769 5.005 2.558 6.464 2.165 1.459-.392-2.212-2.604-2.212-2.604 1.788 1.02 2.811.659 4.079.235 1.271-.424-1.772-.847-1.772-.847s3.061.22 3.953-.235-1.646-.926-1.646-.926c3.578.11 5.853-1.067 6.889-1.687 1.035-.612-.676-.423-.676-.423 3.264-.314 6.841-1.412 6.841-1.412 5.632-1.757 7.577-4.832 7.468-5.193s-2.996 1.302-2.996 1.302c3.436-2.008 5.586-4.534 5.381-4.864-.203-.329-4.017 1.459-4.017 1.459 2.136-1.187 4.112-3.101 4.77-4.199zm-39.455 24.168s-1.459-.228-2.338.306c-.486-.172-1.192-.447-1.287-.604-.078-.141-.063-1.482-.016-2.479.532.612 1.02.941 1.02.941.236-.345-.234-1.726-.234-1.726l.221-4.777c3.277 4.73 2.069 6.926 2.069 6.926.267-.055.485-.274.675-.557l.188 1.545-.298.425z" fill="#ED7D01"/><path d="M271.28 71.22c.313-.533.345-.729.267-.847a.204.204 0 00-.188-.11c-.156 0-.361.11-.658.267-.205.118-1.992 1.035-3.75 1.929.815-.643 1.6-1.412 2.117-2.29.518-.887.676-1.428.518-1.71-.047-.086-.172-.196-.405-.196-.455 0-1.192.408-1.603.659-.424.259-2.744 1.475-4.705 2.495 1.271-.98 2.289-2.024 2.775-2.628.268-.33.346-.51.282-.643-.031-.04-.078-.118-.22-.118-.188 0-.502.165-.549.196-2.369 1.231-8.929 3.812-10.904 4.589 1.1-1.177 1.131-1.593 1.035-1.813-.047-.109-.172-.251-.502-.251-.156 0-.472.125-1.112.393-.753.313-1.789.745-2.997 1.106-2.086.62-6.62 1.459-6.637 1.467-.063 0-.627.18-1.678.541-1.459.502-4.144 1.114-4.408 1.169a69.097 69.097 0 00-4.85-.157c-2.433 0-3.923.494-4.346.659-.174-.439-.473-1.326-.473-1.671 0-.313.25-1.584 1.49-1.514.109 0 .203.008.282.008.485 0 .815-.086.957-.259l.047-.047a.591.591 0 01.329.283c.143.251.048.541.048.541-.017.047-.017.102.031.141.03.032.078.047.142.032 1.021-.361 1.051-1.271 1.066-1.318 0-1.287-2.637-1.491-3.044-1.522-1.146-1.098-2.979-1.153-3.343-1.153h-.047c-4.689 0-5.836 4.738-6.008 5.647a.199.199 0 00-.078-.023c-.018-.008-.031-.008-.047-.008-.832-.22-3.563-.91-6.402-1.302-2.541-.345-5.93-1.529-9.788-3.42-1.71-.847-2.212-1.004-2.542-1.004-.157 0-.268.039-.393.086l-.031.016a.19.19 0 00-.125.141c-.078.33 1.207 1.741 2.195 2.785-.849-.471-2.354-1.2-4.771-2.126-1.694-.635-3.296-1.592-4.563-2.361-1.226-.722-2.088-1.248-2.59-1.248-.156 0-.281.055-.359.157-.125.149-.158.392-.078.761.345 1.741 2.761 3.781 4.063 4.761-3.467-1.365-5.334-2.926-6.259-3.702-.33-.283-.534-.447-.675-.502-.143-.055-.282-.016-.346.102-.252.424.455 1.977.861 2.738.268.494.689.949 1.146 1.341-.455-.29-.752-.518-.752-.518-1.352-1.051-1.773-1.177-1.961-1.177a.268.268 0 00-.252.157c-.188.471 1.129 2.095 1.553 2.518.158.157.361.314.58.463-.674-.345-1.223-.674-1.489-.863-.455-.345-.612-.392-.722-.392-.063 0-.143.031-.174.086-.063.094-.063.228 0 .447.109.369.455 1.475 3.17 3.122 1.805 1.098 4.36 1.835 5.664 2.157-.551.079-1.082.196-1.115.204a.125.125 0 00-.094.079.143.143 0 000 .118c.549.895 1.771 1.349 3.641 1.349.675 0 1.365-.055 2.008-.141-1.553.392-3.186.753-3.2.761-.047.008-.094.04-.108.086-.017.047 0 .094.031.133.705.816 2.055 1.239 4.016 1.239.941 0 1.867-.102 2.637-.211-1.129.313-2.32.533-2.337.541-.05.008-.097.04-.097.086-.016.047-.016.094.018.133.645.706 1.807 1.059 3.468 1.059 1.443 0 3.013-.274 4.063-.51-.77.306-1.758.651-2.51.894a.162.162 0 00-.096.102.18.18 0 00.049.125c.782.737 1.787 1.114 2.965 1.114.563 0 1.129-.094 1.615-.212-.299.251-.33.416-.313.534.03.298.452.392.596.416.204.047.455.071.724.071.705 0 1.506-.165 2.211-.361-.393.251-.645.51-.61.722.047.29.485.345.862.361.957.039 1.943-.22 2.809-.557-.598.518-.533.761-.518.863.047.22.25.353.643.408.754.118 2.684-.439 3.984-.863-.58.455-.987.933-1.021.965a.162.162 0 000 .165c.677.816 1.646 1.224 2.901 1.224.926 0 1.74-.22 2.103-.337l-.094.824c0 .055.03.11.094.133.05.023.11.008.144-.031l.486-.557c-.222.588-.486 1.443-.611 2.205-.08.408-.188.776-.27 1.066-.141.432-.219.69-.094.847.047.079.22.149.58-.016.395-.172.706-.667.926-1.184a5.754 5.754 0 01-.107.541c-.174.886-.235 1.287-.097 1.467.097.11.222.125.425.023-.078.377-.203.683-.393.91-.484.643-1.287.69-1.507.69h-.063s-.076-.008-.188-.008c-.407 0-1.787.133-2.211 1.867-.078.11-.282.479-.063 1.106.017.047.048.086.095.094a.172.172 0 00.143-.047l.549-.706c.251.055 1.021.165 1.943-.275-.094.181-.188.385-.188.604a.915.915 0 00.268.722c-.03.165-.078.581.125.91.158.228.395.369.738.423h.016c.078.016.143-.063.143-.133 0-.031-.018-.055-.031-.078-.078-.243-.109-.51-.078-.588.205-.055 1.021-.33 1.364-1.161.109.439.36.949.849 1.224 0 .142.063.424.267.651.188.204.455.313.801.321.048 0 .095-.023.108-.063.031-.039.031-.086.017-.133-.202-.4-.36-.832-.345-.949.143-.102.596-.479.689-1.09.017-.008 0-.016.017-.023.125.22.313.416.596.533.017.016.031.016.048.016.078.016.141-.063.141-.133 0-.023-.016-.047-.016-.071a6.947 6.947 0 01-.125-.745c.063.008.125.016.203.016.251 0 .659-.063 1.066-.4-.078.376-.094.847.221 1.239-.031.165-.063.628.204.981.172.243.454.384.831.416h.016c.078 0 .143-.063.143-.133a.169.169 0 00-.031-.086c-.125-.306-.221-.674-.173-.832.142-.023.438-.125.676-.439.329-.424.423-1.09.269-1.961.063-.063.141-.125.188-.125.063 0 .126.079.173.22l.047.141c.173.549.283.902 1.304.863.063.117.203.408-.127.729-.031.039-.031.094-.016.141.016.055.078.086.126.086.125 0 1.177-.039 1.349-1.435.158-1.208-.688-1.585-1.035-1.687.031-.102.144-.235.377-.204.472.055.988.408 1.082.659.018.063.063.094.144.094.047-.008.108-.047.108-.11.017-.008.221-1.161-1.098-1.475a3.276 3.276 0 00-.754-.079c-.393 0-.472-.008-.533-.886.658.439 1.287.659 1.631.659.269 0 .361-.109.408-.196.078-.173-.017-.4-.299-.698-.861-.934-1.129-1.781-1.225-2.236.283.251.785.612 1.396.792.174.055.313.079.424.079.234 0 .299-.125.299-.181.063-.243-.346-.564-.754-.745-.36-.157-.674-.683-.879-1.09.611.479 1.711 1.255 2.621 1.271.266 0 .424-.079.471-.228.016-.055.063-.165-.078-.393.675.416 1.475.808 2.195.949.896.165 1.567-.023 1.664-.447.076-.337-.222-.683-.803-.957-.596-.275-1.224-.753-1.693-1.185 1.396.729 3.656 1.577 4.988 1.577.204 0 .377-.023.52-.063.33-.086.424-.259.438-.392.063-.455-.689-1.129-1.412-1.663.299.079.598.118.881.118.674 0 1.285-.204 1.93-.416l.047-.016c.109-.039.424-.141.393-.369-.016-.165-.267-.306-.627-.424h.016c1.207 0 2.022-.102 2.416-.298.188-.102.281-.22.268-.361-.031-.228-.438-.416-.878-.557 2.147-.094 4.108-.659 5.867-1.694.22-.133.438-.29.394-.479-.019-.016-.019-.039-.031-.055 2.9-.416 5.74-1.279 5.771-1.287 5.585-1.741 7.702-4.84 7.546-5.365-.017-.04-.063-.142-.233-.142-.156 0-.424.086-.738.228 2.01-1.498 3.232-2.957 3.357-3.451.016-.094.016-.165-.017-.228-.047-.071-.125-.102-.235-.102-.375 0-1.41.4-2.32.792 1.507-1.104 2.777-2.414 3.311-3.293zm-33.322 4.47h.047c.031-.008 2.918-.651 4.455-1.184 1.412-.479 1.584-.526 1.615-.526.047-.008 4.582-.855 6.684-1.482 1.225-.361 2.26-.792 3.027-1.106.485-.204.896-.376 1.004-.376.096 0 .234.016.268.086.031.094.031.494-1.333 1.875-.769.345-5.616 2.439-10.998 2.918-.063.008-.125.071-.108.141 0 .071.063.125.125.125.377-.008.957.071 1.051.259.047.086-.029.204-.094.298-.502.604-3.248.369-4.268.228-.063-.008-.126.039-.143.102s.017.134.078.157c.645.274 1.334.698 1.334.894 0 .032-.063.079-.156.11-.737.291-3.482-.321-4.486-.581-.063-.023-.143.024-.157.094a.135.135 0 00.095.165c.596.172 1.477.541 1.553.808.018.016.018.047-.016.086-.267.314-2.307.039-3.654-.259-.08-.016-.143.023-.156.094a.133.133 0 00.094.165c.534.149.957.376.975.471 0 0-.018.055-.203.118-.896.345-2.621-.337-2.637-.345h-.017c-.424-.878-1.036-1.64-1.946-2.157a8.177 8.177 0 01-1.064-.714c.486-.172 1.93-.62 4.188-.62 2.834 0 4.827.156 4.843.156zm8.424-.069c.031.016 3.104 1.168 7.641.878-.471.533-2.039 1.804-5.758.973a19.493 19.493 0 00-1.178-.313c-.063-.024-.142.023-.155.094a.134.134 0 00.094.165c.394.118.784.219 1.146.306 1.1.322 1.914.667 1.945.824 0 0 0 .023-.063.047-.689.369-4.361-.392-5.727-.713-.063-.016-.144.023-.158.094-.017.071.031.149.096.165 2.07.51 4.346 1.255 4.439 1.529-.3.361-4.941-.023-7.483-1.059-.063-.032-.126 0-.157.063s-.016.133.048.173c.109.07 2.604 1.568 3.718 1.984-.58.313-2.463.918-6.762-1.036a.35.35 0 00-.078-.055c-.031-.023-.063-.031-.095-.023-.017 0-.017-.008-.017-.008-.078-.032-.156 0-.188.063a.14.14 0 00.063.181c.063.023.125.047.188.078 3.516 2.636 7.028 3.452 9.13 3.938.896.212 1.728.408 1.728.612 0 .596-1.506.745-2.039.745-3.702.125-11.813-5.044-11.893-5.099-.063-.04-.143-.023-.174.031-.047.055-.047.133.018.181 1.943 1.772 7.813 4.8 9.256 5.522-1.914.479-3.529-.149-3.529-.149-4.534-2.157-7.625-5.703-8.205-6.401.424.133 1.113.322 1.741.322.251 0 .502-.032.706-.11.094-.031.377-.141.377-.376 0-.094-.063-.173-.143-.251 1.065.18 2.494.337 2.823-.04a.368.368 0 00.078-.337c-.047-.142-.188-.275-.358-.4 1.129.235 2.604.463 3.185.243.267-.102.329-.251.329-.361 0-.274-.393-.573-.801-.8 1.178.11 3.23.211 3.732-.416.174-.211.221-.408.126-.581-.048-.109-.155-.188-.28-.243a37.987 37.987 0 002.619-.447l.015.007zM222.3 88.917c-1.129 0-2.008-.345-2.619-1.036.251-.274 1.098-1.153 1.992-1.475a.152.152 0 00.078-.172c-.031-.071-.109-.11-.172-.079-.08.023-3.985 1.443-5.115 1.279-.25-.04-.394-.11-.407-.196-.017-.071-.017-.447 1.537-1.404.55-.282.879-.502.896-.51.047-.039.063-.118.03-.18-.03-.063-.108-.086-.173-.047-.329.173-.611.345-.862.502-.973.51-2.416 1.114-3.797 1.114h-.173c-.564-.024-.611-.142-.611-.142-.031-.172.815-.729 2.149-1.302a.13.13 0 00.063-.173c-.031-.063-.111-.094-.188-.063-.235.102-2.306.957-3.892.957-.25 0-.472-.024-.676-.063-.267-.063-.376-.141-.376-.188-.017-.031-.017-.282 1.082-.839.55-.204.879-.4.896-.408.063-.031.078-.11.047-.172-.03-.063-.094-.094-.156-.063a9.093 9.093 0 00-.878.4c-.612.235-1.554.525-2.558.525-1.035 0-1.898-.298-2.621-.895.785-.259 3.17-1.074 3.516-1.419.031-.04.047-.11.016-.157a.136.136 0 00-.156-.063c-.017.008-2.775.808-5.225.808-1.443 0-2.479-.267-3.091-.8.722-.141 2.761-.581 3.718-1.059l1.979-.667c.077-.024.108-.102.094-.173-.03-.07-.108-.11-.173-.086l-1.945.659c-.029.008-2.148.518-4.27.518-1.739 0-2.965-.329-3.653-.988.957-.212 4.563-1.035 5.567-1.49 0 0 0-.008.018-.008l1.005-.298c.063-.023.109-.102.095-.165-.031-.079-.095-.118-.172-.094l-1.24.369c-.627.157-2.558.596-4.36.596-1.647 0-2.761-.353-3.295-1.059.346-.07 1.083-.204 1.585-.22h.016c.031 0 .063-.008.094-.008h.049c.55-.023 1.584-.196 3.246-.627a.153.153 0 00.097-.165.139.139 0 00-.175-.094c-.879.235-1.553.376-2.055.471l-.611.102a3.544 3.544 0 01-.502.047c-.252-.047-4.002-.855-6.4-2.314-1.74-1.059-2.761-2.063-3.044-2.973a.645.645 0 01-.047-.18c.063.023.203.094.519.33.705.518 2.854 1.671 4.395 1.992.549.204 2.259.839 5.71 2.149.017.008.03.008.047.008.063 0 .11-.031.126-.086.031-.063 0-.141-.063-.172-3.232-1.216-4.929-1.859-5.603-2.103 0-.008-.017-.023-.032-.031-.016-.008-2.398-.832-3.324-1.757-.689-.698-1.568-2.008-1.49-2.22.142 0 .55.149 1.789 1.122.063.047 1.537 1.129 2.9 1.616h.018l8.957 3.404a.1.1 0 00.047.008.115.115 0 00.111-.086.134.134 0 00-.063-.173l-9.021-3.42c-.313-.173-2.261-1.239-2.936-2.51-.753-1.404-.975-2.361-.879-2.471 0 0 .016 0 .029.008.111.039.33.219.599.455 1.021.855 3.138 2.636 7.265 4.095 0 .008.016 0 .016 0 .91.416 2.888 1.294 5.24 2.228.017.008.047.008.063.008a.11.11 0 00.107-.086c.033-.063 0-.141-.063-.172a115.95 115.95 0 01-5.318-2.251c-.518-.369-4.268-3.051-4.675-5.13-.079-.369-.016-.502.017-.549.017-.023.063-.055.156-.055.424 0 1.364.565 2.447 1.216 1.286.769 2.902 1.726 4.612 2.377 4.142 1.569 5.601 2.628 5.616 2.636 0 .008.016.008.031.008.219.118.814.416 1.631.761-.313.22-1.129.698-2.399.698h-.031c-.03 0-.079.008-.095.039a.113.113 0 00-.047.094c0 .016.016.337.361.588.502.369 1.428.393 2.76.063-.393.384-1.129 1.02-2.086 1.412a.14.14 0 00-.078.126c0 .055.031.102.095.125.017.008 1.897.651 3.608.04-.754.714-1.522 1.443-1.742 1.592a.13.13 0 00-.063.118c0 .047.03.094.077.118.048.023 1.052.502 2.871-.055l-1.349.839c-.049.032-.063.086-.063.149a.146.146 0 00.126.102c.016 0 2.148.251 4.91-.792-1.098.698-2.463 1.522-2.934 1.647-.047.016-.094.055-.094.109-.018.047.016.102.047.134.063.031.658.408 1.992.408 1.112 0 2.729-.267 4.957-1.247a26.53 26.53 0 01-3.279 2.086.136.136 0 00-.078.118c0 .047.031.086.063.118.063.031.689.432 1.789.432 1.271 0 3.152-.534 5.477-2.777.156.322.377.644.658.965-.408.447-1.884 2.149-2.039 2.612-.018.063.016.125.063.157s1.225.738 3.373-.957c.518.564 3.169 3.655 2.165 5.585-.227.073-1.138.372-2.173.372zm-10.495-12.019l-1.757 1.098c-2.071 1.059-3.42.879-3.906.737.471-.392 1.459-1.341 2.195-2.063.313-.212.61-.487.863-.84.299.118 1.74.667 3.186.518-.174.167-.377.371-.581.55zm-2.62-1.34c-.047-.016-.078-.008-.125.023 0 .008-.393.393-.895.879-1.351.894-3.092.604-3.813.423a7.069 7.069 0 002.165-1.671c.048-.047.048-.11.016-.165a.144.144 0 00-.156-.055c-1.836.533-2.635.353-2.979.109a.671.671 0 01-.203-.243c1.507-.039 2.368-.698 2.541-.839 1.226.51 2.824 1.066 4.252 1.208-.16.111-.41.229-.803.331zm8.268 4.087c.047-.016.063-.047.078-.079 1.1-.902 1.93-1.694 2.338-2.118-.125.683-.142 1.569.252 2.471-3.531 3.452-6.041 2.793-6.776 2.487 1.536-.839 2.918-1.828 4.03-2.722.03-.017.062-.024.078-.039zm8.268 13.076c.063-.329.141-.706.204-1.114.016-.023.094-.549.125-1.067.016-.07-.047-.133-.109-.141-.079-.008-.143.04-.143.102-.125.62-.596 2.275-1.271 2.573-.156.071-.22.086-.268.102-.016-.07.064-.369.142-.612.097-.298.204-.674.269-1.098.22-1.279.863-2.863.879-2.879.016-.063 0-.133-.063-.165-.047-.032-.126-.023-.173.031l-.689.816.063-.588c.502-.91.251-2.032-.222-3.059v-.04c-.077-.627.096-1.286.203-1.631.439.502 1.334.832 2.197 1.153.424.157.815.306 1.129.463.957.471.941 1.428.941 1.467 0 0 0 .024.016.04l-.234 4.675c0 .016.017.032.017.047.157.462.33 1.145.298 1.467a6.05 6.05 0 01-.894-.863c-.031-.047-.079-.086-.11-.133-.047-.055-.076-.11-.125-.157-.029-.047-.063-.086-.076-.133-.05-.063-.097-.133-.144-.196-.017-.04-.047-.079-.063-.11-.063-.11-.127-.22-.174-.337-.031-.047-.078-.079-.142-.071s-.109.047-.109.102c0 .008-.03.086-.063.212-.125.471-.519 1.631-1.254 2.204v.008c-.205.165-.299.181-.313.188-.064-.103.045-.714.156-1.256zm5.318 1.263a.142.142 0 00.144.047.996.996 0 00.549-.345l.142 1.169-.221.322c-.313-.04-1.488-.141-2.29.298-1.021-.369-1.146-.51-1.159-.525-.018-.047-.063-.33.016-2.055.424.439.783.683.8.698a.139.139 0 00.188-.04c.25-.369-.109-1.529-.205-1.82l.205-4.354c2.887 4.369 1.836 6.44 1.836 6.464a.11.11 0 00-.005.141zm-2.463 4.425c-.109.588-.611.933-.627.941-.017.008-.031.024-.031.04-.127.188.047.651.203 1.004-.563-.133-.58-.69-.58-.761.017-.047-.017-.102-.063-.118-.863-.416-.896-1.773-.896-1.773 0-.086-.047-.141-.125-.141s-.142.055-.142.133c-.017 1.373-1.286 1.663-1.349 1.671l-.063.031c-.157.133-.11.455-.048.698-.156-.055-.268-.133-.329-.251-.22-.314-.094-.761-.094-.761a.131.131 0 00-.032-.133c-.172-.172-.251-.361-.234-.572.03-.557.674-1.075.674-1.083.063-.047.063-.125.031-.188-.047-.055-.141-.063-.188-.023-1.334 1.027-2.542.674-2.559.674-.047-.023-.108 0-.143.04l-.438.564c-.078-.416.095-.62.095-.627.016-.016.03-.031.03-.055.36-1.53 1.49-1.694 1.961-1.694.096 0 .158.008.158.008h.094c.25 0 1.16-.055 1.726-.792.235-.322.408-.745.472-1.278.063-.04.109-.094.156-.141.031-.032.063-.055.094-.086.049-.055.096-.118.157-.181.017-.031.048-.063.078-.094.047-.063.079-.133.126-.204.016-.032.047-.063.063-.094.047-.071.08-.141.127-.22.017-.023.031-.055.048-.086a1.47 1.47 0 00.108-.228.152.152 0 00.03-.079c.032-.079.063-.149.095-.22.018-.023.018-.047.031-.071.031-.07.047-.133.063-.196.018-.023.018-.047.031-.079 0-.016.018-.039.018-.055.017-.063.048-.118.063-.173.172.322.375.604.579.839.017.008.017.008.017.016-.125 2.259-.03 2.408.017 2.479.031.055.126.204 1.112.573 0 0 0 .008-.016.008-.031.031-.063.063-.095.102-.03.016-.03.039-.063.063-.016.023-.029.047-.047.071a.999.999 0 00-.107.188c-.018.008-.018.016-.018.016a1.708 1.708 0 00-.142.565l-.408.274a.113.113 0 00-.047.086c-.017.039 0 .071.017.102.332.439.473.87.41 1.271zm0-1.13a1.215 1.215 0 00-.109-.188l.125-.086c-.016.062-.016.156-.016.274zm6.196-2.362c.173 0 .408.008.69.071.611.149.814.502.895.777a2.1 2.1 0 00-1.035-.471c-.533-.063-.689.353-.689.564-.016.071.031.125.109.142.047.008 1.098.188.957 1.419-.109.792-.519 1.059-.816 1.153a.775.775 0 00-.108-.863c-.017-.032-.063-.055-.094-.047-.863.04-.94-.141-1.114-.674l-.047-.149c-.107-.329-.282-.4-.424-.4-.221 0-.424.243-.438.274-.017.032-.031.063-.017.102.142.816.078 1.436-.204 1.812a.845.845 0 01-.581.353c-.03 0-.063.023-.094.055-.157.219-.048.667.063.949a.847.847 0 01-.438-.274c-.235-.329-.142-.832-.142-.832.017-.047 0-.086-.031-.118-.549-.643.047-1.655.047-1.663.048-.063.017-.141-.03-.181a.145.145 0 00-.079-.023c-.047 0-.078.016-.109.055-.471.683-.986.832-1.35.832-.156 0-.251-.031-.251-.031-.03-.008-.063-.008-.077 0-.095.023-.205.055-.064.824-.596-.518-.438-1.608-.438-1.647 0-.055.018-.11.018-.165v-.016c.016-.337.125-.612.328-.824.063-.063.143-.118.221-.172.816-.51 2.26-.298 2.275-.298.047.008.094-.016.125-.055l.297-.423c.017-.031.031-.063.017-.094l-.173-1.498c0-.008 0-.016.017-.023.282-.479.472-1.099.58-1.514.079.188.188.369.298.542 0 0 0 .008.016.016.097.165.222.313.348.455 0 .008 0 .016.018.023.219.259.471.494.735.69.037 1.222.179 1.339.789 1.347zm1.256-3.436c.313.141.519.322.563.416-.047.008-.156 0-.377-.071-.877-.267-1.521-.973-1.536-.98a.12.12 0 00-.142-.031c-.049.016-.078.063-.078.118-.018.055-.031 1.31 1.332 2.776.235.259.252.385.235.408 0 .016-.048.039-.155.039-.361 0-1.132-.306-1.854-.886-.016-.015-.016-.022-.03-.03a6.81 6.81 0 01-.234-.204l-.047-.047c-.063-.055-.108-.118-.174-.181-.016-.023-.047-.047-.063-.079a1.397 1.397 0 01-.156-.165c-.016-.031-.047-.063-.063-.094-.047-.063-.096-.118-.143-.18-.018-.04-.048-.079-.063-.11a1.065 1.065 0 01-.108-.188c-.031-.047-.063-.094-.079-.149-.031-.055-.063-.11-.078-.165a1.954 1.954 0 01-.125-.298c0-.016-.016-.031-.016-.047-.018-.055-.063-.086-.127-.086h-.016a.106.106 0 00-.109.11.447.447 0 00-.031.141 6.583 6.583 0 01-.221.816c-.016.047-.03.094-.047.141-.017.055-.03.102-.047.149a5.901 5.901 0 01-.095.243c-.016.024-.03.047-.048.071a1.099 1.099 0 01-.107.235c-.018.023-.031.047-.047.07-.111.173-.222.33-.361.424.22-.769.424-2.957-2.182-6.738-.031-.313-.188-1.137-1.082-1.584-.33-.165-.736-.314-1.16-.471-.91-.33-1.932-.706-2.213-1.247-.031-.047-.078-.079-.125-.071-.063 0-.096.031-.125.079a4.702 4.702 0 00-.314 1.467 13.124 13.124 0 00-1.771-2.4c-.048-.047-.125-.055-.174-.008-1.693 1.373-2.744 1.169-3.059 1.059.25-.471 1.302-1.718 2.008-2.502.047-.055.047-.133 0-.18-2.055-2.165-.723-4.636-.659-4.738.032-.07.017-.149-.047-.188-.063-.031-.157-.008-.188.055 0 .008-.156.306-.297.769l-.017.008c-.017.016-1.065 1.145-2.745 2.502-4.425 2.212-6.746 1.75-7.482 1.483 1.191-.542 4.156-2.495 4.297-2.589.063-.031.08-.118.05-.172-.05-.063-.128-.086-.188-.055-2.714 1.49-5.146 1.6-6.07 1.576l2.307-1.451c.55-.274 1.13-.635 1.758-1.098.313.094 1.662.424 3.059-.102l-.484.69c-.031.04-.048.094-.018.142.018.039.063.07.11.07l1.271.086h.018a.128.128 0 00.125-.125c0-.079-.047-.142-.125-.142l-1.035-.07.658-.895c.029-.055.029-.117-.018-.165-.03-.047-.107-.063-.155-.031-1.271.651-2.619.447-3.152.33.359-.33.706-.683.706-.683a.124.124 0 00.018-.157c-.018-.055-.08-.086-.144-.071-1.161.243-2.479-.118-3.104-.33.597-.211.785-.486.801-.502.031-.039.031-.086.016-.133-.031-.039-.078-.07-.126-.07-2.51-.142-5.915-1.859-6.401-2.11-1.315-1.333-2.666-2.848-2.808-3.216.108-.039.173-.063.282-.063.313 0 .973.267 2.432.973 3.875 1.906 7.295 3.099 9.868 3.452 2.996.416 5.884 1.161 6.511 1.325.282.102.676.235.771.291.03.008.047.016.063.016a.149.149 0 00.127-.071.142.142 0 00-.064-.18c-.094-.055-.359-.149-.596-.228.142-.745 1.19-5.467 5.771-5.467h.03c.347 0 2.118.055 3.187 1.114.016.023.049.039.096.039.783.032 2.822.33 2.822 1.255 0 0-.017.635-.658.973 0-.141-.017-.322-.109-.494-.109-.22-.329-.369-.627-.455-.737-.141-1.568-.337-1.68-.416-.047-.047-.143-.047-.188.008-.047.055-.047.141 0 .188.156.133 1.065.33 1.615.439-.125.07-.407.141-.957.11-.03-.008-.078-.008-.108-.008-1.256 0-1.664 1.224-1.664 1.788 0 .322.205.973.361 1.428-.675-.682-.8-1.176-.8-1.176v-.008c-.019-.071-.08-.118-.157-.102-.063.008-.109.078-.095.157 0 .047.268 1.263 2.511 2.549 2.243 1.271 2.637 4.095 2.823 6.644 0 .071.063.125.142.125a.138.138 0 00.126-.141c-.096-1.287-.251-2.644-.646-3.844.816.941 3.014 3.255 6.119 5.13 0 .039.018.07.047.094 1.209 1.012 2.512 2.244 2.637 2.589-.753-.016-3.294-.722-4.473-1.789-.016-.016-.03-.016-.063-.023-.816-.887-1.867-1.718-2.057-1.867-.047-.047-.141-.031-.188.023-.048.055-.031.142.031.188.861.675 3.09 2.62 2.979 3.444 0 .063-.03.094-.078.118-.519.243-2.649-.879-3.905-1.655-.485-.737-1.052-1.373-1.646-1.632a.146.146 0 00-.174.071.134.134 0 00.078.18c.533.228 1.053.824 1.521 1.53 0 .016 0 .023.017.031.94 1.467 1.615 3.365 1.631 3.389.009.06.526 1.456 1.248 1.77zm18.292-7.106c-1.865 1.106-4.016 1.663-6.354 1.663h-.471-.018c-.329-.031-1.663-.196-2.385-.463-.063-.031-.143.008-.174.079a.153.153 0 00.078.172c.862.314 2.463.486 2.525.494h.016s0-.008.018-.008c.848.165 1.615.432 1.646.573 0 0-.017.039-.125.094-.347.172-1.146.267-2.291.267-.66 0-1.256-.031-1.49-.047-.016 0-1.442-.235-2.182-.542-.063-.031-.142 0-.173.071-.017.07.017.149.078.172.628.267 1.728.471 2.087.542a.183.183 0 00.063.016c.85.118 1.789.345 1.963.494a.9.9 0 01-.203.094l-.063.023c-.644.212-1.191.4-1.834.4-.646 0-1.318-.204-2.089-.643a.12.12 0 00-.172.047c-.048.063-.019.141.047.181 1.065.643 2.541 1.749 2.479 2.188 0 .078-.077.133-.234.172a1.54 1.54 0 01-.455.055c-1.727 0-5.16-1.522-5.883-2.188-.048-.047-.143-.047-.188 0a.143.143 0 000 .188c.047.063 1.363 1.522 2.666 2.118.532.251.689.51.66.659-.049.141-.301.298-.785.298-.172 0-.377-.024-.58-.063-1.209-.22-2.685-1.263-3.266-1.694-.201-.157-.345-.259-.345-.259-.063-.039-.144-.031-.188.023-.031.063-.031.141.03.188 0 0 .126.102.33.259.91.722 1.035 1.043 1.021 1.106 0 .008-.047.047-.234.047-1.1-.016-2.637-1.373-2.842-1.561a17.816 17.816 0 00-1.348-2.949c.846.502 2.571 1.451 3.42 1.451a.627.627 0 00.281-.055.373.373 0 00.235-.33c.03-.291-.125-.667-.408-1.059 1.351.816 3.278 1.318 3.923 1.318.172 0 .221-.086.251-.141.109-.33-.926-1.349-1.913-2.212.281.149.579.298.877.439.049.016.91.353 2.149.353.565 0 1.208-.07 1.883-.282a.118.118 0 00.095-.118c.016-.047-.017-.102-.063-.125-.063-.023-3.641-1.828-6.526-3.577 2.729 1.506 6.573 3.35 8.896 3.287.234 0 2.308-.039 2.308-1.012 0-.047 0-.086-.017-.125l4.611-.267c.018.008.047.016.063.008h.063c.078-.008.252-.023.424-.023.205 0 .299.016.346.031a1.092 1.092 0 01-.233.173zm12.222-9.256c-.031-.008-.047 0-.078.016-.031.023-4.236 2.479-8.44 3.53a.136.136 0 00-.095.157.14.14 0 00.126.102h.03c3.688-.926 7.373-2.918 8.299-3.436.017 0 .049 0 .064-.008.877-.416 3.276-1.491 3.825-1.491-.094.471-2.103 2.746-5.208 4.597h-.018c-.094.055-8.676 5.521-19.799 2.934a.129.129 0 00-.156.102.133.133 0 00.096.157c2.146.502 4.204.706 6.118.706 7.499 0 12.927-3.091 13.772-3.601l.018-.008c.896-.518 2.32-1.279 2.775-1.333-.108.549-2.148 3.357-7.356 4.981-.031.016-3.53 1.075-6.716 1.396-.016 0-.03-.008-.047 0l-4.959.274c-.297-.173-.86-.298-1.662-.486-1.883-.432-4.896-1.138-8.031-3.185 1.807.698 3.122.926 4.063.926 1.1 0 1.678-.298 1.93-.463.156.016.378.023.645.023.862 0 2.117-.078 2.307-.094.063 0 .127-.063.127-.142-.018-.07-.078-.133-.144-.125-.627.047-2.147.125-2.774.086-.018-.039-.047-.071-.096-.079-.519-.117-1.836-.839-2.791-1.388 2.416.674 5.818 1.012 6.445.643a.275.275 0 00.156-.188c.031-.291-.658-.635-1.584-.965 1.191.188 2.367.298 2.793.07.188-.094.22-.219.203-.306-.016-.181-.299-.369-.689-.549 3.594.345 4.678-1.467 4.738-1.561.016-.047.016-.102-.018-.141-.016-.039-.063-.063-.108-.063-3.702.29-6.466-.408-7.438-.706a40.147 40.147 0 006.825-2.22c.017.016.047.016.078 0 .094-.031 8.707-3.365 11.5-4.824.108-.055.267-.125.376-.149-.016.055-.078.149-.204.306-.597.745-2.493 2.659-4.612 3.867l-.502.259h-.016c0 .008-.031.016-.063.039l-.235.118c0 .008-.017.016-.017.023a32.021 32.021 0 01-6.559 2.573c-.063.016-.109.094-.096.165a.143.143 0 00.127.094h.029c3.373-.895 6.088-2.306 6.777-2.683.221-.11.455-.228.676-.353 1.834-.949 6.148-3.201 6.762-3.569.644-.392 1.178-.62 1.459-.62.142 0 .174.047.174.063.047.086.094.393-.52 1.443-.879 1.506-2.588 2.707-3.859 3.444l-1.489.753c-.017 0-.031.008-.047.016-.078.032-6.979 3.295-11.642 4.26-.08.016-.127.078-.109.157.017.063.063.102.126.102h.03c4.283-.878 10.434-3.679 11.531-4.197.016 0 .03.008.047 0 0 0 .736-.314 1.662-.855a725.359 725.359 0 005.773-2.958 2.4 2.4 0 01.455-.219c-.016.063-.063.219-.268.541-.617 1.069-2.499 2.873-4.492 4.042z"/><path d="M229.234 84.132l-.063-.055c-.564-.518-1.035-1.742-1.051-1.75-.018-.07-.097-.102-.175-.078-.063.023-.094.102-.077.172.03.055.502 1.294 1.129 1.851l.063.055c.58.533 1.191 1.083 1.428 1.961.018.063.063.102.125.102.018 0 .018 0 .031-.008.079-.016.109-.086.095-.157-.249-.956-.907-1.56-1.505-2.093zM227.666 70.82c0-.031 0-.055-.016-.079-.204-.384-.533-.588-.973-.588-.784 0-1.68.659-1.711.682-.03.031-.063.086-.047.133 0 .047.031.086.095.102.644.212 1.192.322 1.616.322.957.001 1.036-.548 1.036-.572zm-1.036.305c-.346 0-.771-.079-1.271-.228.301-.181.832-.471 1.318-.471.328 0 .549.125.705.392-.029.089-.172.307-.752.307z"/></svg>