<svg xmlns="http://www.w3.org/2000/svg" xmlns:xlink="http://www.w3.org/1999/xlink" enable-background="new 0 0 283.46 283.46" id="Warstwa_1" version="1.1" xml:space="preserve" viewBox="2.84 48.37 277.79 186.72"><g><rect fill="#D6D4D1" height="186.718" width="277.792" x="2.836" y="48.374"/><g><polygon fill="#FFFFFF" points="5.103,50.665 5.103,141.748 5.103,232.825 118.951,141.748   "/><polygon fill="#35932D" points="39.846,206.842 7.394,232.8 278.347,232.8 278.347,206.842   "/><polygon fill="#FFD201" points="72.292,180.884 39.846,206.842 278.347,206.842 278.347,180.884   "/><polygon fill="#DC221A" points="104.737,154.926 72.292,180.884 278.347,180.884 278.347,154.926   "/><polygon points="104.674,128.513 121.211,141.748 104.737,154.926 278.347,154.926 278.347,128.513   "/><polygon fill="#DC221A" points="72.229,102.555 104.674,128.513 278.347,128.513 278.347,102.555   "/><polygon fill="#FFD201" points="39.784,76.598 72.229,102.555 278.347,102.555 278.347,76.598   "/><polygon fill="#35932D" points="7.331,50.641 39.784,76.598 278.347,76.598 278.347,50.641   "/><polygon points="5.103,50.665 118.951,141.748 5.126,232.8 12.422,232.8 121.799,145.301 126.247,141.748 121.799,138.193     12.359,50.641 5.103,50.641   "/><g><path d="M92.672,128.452c-0.008-0.04-0.047-0.071-0.094-0.079l-28.617-4.166L51.159,98.28     c-0.032-0.078-0.157-0.078-0.188,0l-12.803,25.927l-28.617,4.166c-0.047,0.008-0.079,0.039-0.094,0.079     c-0.008,0.039,0.008,0.094,0.047,0.118l24.851,17.604l-5.444,26.107c0,0.039,0.016,0.078,0.047,0.109     c0.031,0.021,0.086,0.021,0.125,0.008l21.981-12.584l21.988,12.584c0.016,0.008,0.04,0.008,0.055,0.008l0,0     c0.063,0,0.11-0.055,0.11-0.094c0-0.018,0-0.047-0.008-0.063l-5.436-26.075l24.852-17.604     C92.664,128.545,92.68,128.49,92.672,128.452z" fill="#DC221A"/><g><path d="M29.915,110.667c0,0,1.043-5.405,6.331-5.405c5.279,0,9.194,7.876,12.544,14.285l32.806,24.984      l-2.895-0.345l-6.095,23.573H34.143l-3.004-14.897c0,0-1.341,0.048-1.341-1.733s0.29-3.177,2.008-6.739      c1.718-3.569,3.946-7.17,3.946-13.202c0-6.041-0.361-11.352-2.408-14.717c-2.063-3.357-6.676-2.079-6.676-2.079      S26.322,112.582,29.915,110.667z" fill="#FFD201"/><g><path d="M81.69,144.407l-32.783-24.953l-0.368-0.714c-3.342-6.385-7.123-13.634-12.293-13.634       c-5.013,0-6.315,4.824-6.464,5.476c-3.585,1.922-3.271,3.757-3.256,3.836c0.016,0.055,0.032,0.086,0.063,0.102       c0.04,0.031,0.079,0.031,0.125,0.023c0.008,0,0.855-0.228,1.961-0.228c1.443,0,3.404,0.376,4.534,2.236       c2.102,3.444,2.4,9.068,2.4,14.638c0,5.248-1.663,8.559-3.271,11.774c-0.228,0.463-0.447,0.91-0.667,1.356       c-1.734,3.616-2.024,5.014-2.024,6.81c0,0.94,0.369,1.403,0.674,1.624c0.267,0.172,0.534,0.243,0.698,0.243l2.973,14.795       c0.016,0.069,0.079,0.116,0.149,0.116h38.463c0.063,0,0.125-0.038,0.141-0.116l6.072-23.44l2.761,0.322       c0.079,0.016,0.133-0.031,0.157-0.086C81.76,144.532,81.737,144.455,81.69,144.407z M28.676,114.008       c-0.855,0-1.553,0.133-1.867,0.204c0.031-0.479,0.345-1.914,3.169-3.405c0.047-0.016,0.07-0.063,0.078-0.102       c0.008-0.055,1.083-5.303,6.189-5.303c4.989,0,8.731,7.162,12.026,13.485l0.314,0.596l-12.85,5.986       c-0.259-3.546-0.863-6.786-2.275-9.077C32.253,114.417,30.198,114.008,28.676,114.008z M31.312,152.998       c0.714-0.079,4.346-0.361,9.892-0.447l0.784,7.083l0,0l0.008,0.008l0.879,7.979h-8.613L31.312,152.998z M44.883,146.878       c1.176,0.008,17.643,0.228,32.21,2.926l-1.31,5.06c-4.189-0.736-8.292-1.277-12.214-1.679       c-0.032-0.022-0.094-0.022-0.134-0.016c-2.479-0.235-4.879-0.423-7.178-0.564c-0.016-0.008-0.023-0.008-0.031-0.008       c-5.711-0.346-10.778-0.408-14.842-0.346c-0.031-0.023-0.078-0.031-0.11,0h-0.008c-0.761,0.008-1.482,0.032-2.173,0.047       C39.078,151.79,39.219,149.184,44.883,146.878z M56.854,140.735c-0.196,0.51-1.075,2.337-3.954,3.796       c-1.287-0.008-2.495-0.07-3.106-0.109c2.793-1.766,4.032-3.459,4.173-4.44C54.853,140.266,55.81,140.5,56.854,140.735z        M57.152,140.807c0.949,0.188,1.883,0.377,2.777,0.573c-0.29,0.479-1.404,2.212-2.761,2.761       c-0.675,0.283-2.149,0.369-3.64,0.393C56.179,143.035,56.979,141.3,57.152,140.807z M49.354,144.706       c0.134,0.008,1.757,0.102,3.546,0.117c0.016,0,0.016,0.009,0.031,0.009c0,0,0.008-0.009,0.016-0.009c0.079,0,0.142,0,0.212,0       c1.64,0,3.35-0.086,4.119-0.407c1.569-0.645,2.761-2.628,2.965-2.981c10.269,2.046,17.133,2.769,18.27,2.878l-1.341,5.193       c-13.289-2.448-28.154-2.849-31.606-2.918C47.048,145.976,48.303,145.333,49.354,144.706z M74.943,158.127l-4.079-3.75       c1.6,0.228,3.216,0.485,4.848,0.769L74.943,158.127z M41.964,156.731l3.083,2.762c-1.467-0.017-2.439-0.017-2.785-0.017       L41.964,156.731z M74.104,161.366c-2.432-0.321-4.918-0.596-7.397-0.808l3.522-2.643l3.883,3.412L74.104,161.366z        M74.198,160.999l-3.868-3.38c-0.055-0.056-0.125-0.056-0.188-0.024l-3.734,2.816l-3.044-3.554       c-0.047-0.055-0.149-0.055-0.204-0.016l-3.75,3.075l-3.334-3.443c-0.063-0.055-0.149-0.063-0.212-0.008l-3.593,3.122       l-3.295-3.428c-0.023-0.031-0.055-0.039-0.094-0.039c-0.039-0.009-0.078,0.008-0.109,0.039l-3.358,3.271l-3.499-3.138       l-0.393-3.53l3.444,3.24c0.055,0.055,0.141,0.055,0.196,0l3.828-3.342l3.279,3.506c0.055,0.063,0.141,0.07,0.204,0.016       l3.734-3.24l3.326,3.742c0.047,0.063,0.141,0.07,0.204,0.023l3.734-3.193l2.997,3.459c0.047,0.047,0.133,0.055,0.188,0.023       l3.75-2.628l4.456,4.078L74.198,160.999z M66.087,160.488c-2.157-0.181-4.291-0.345-6.338-0.471l3.491-2.847L66.087,160.488z        M59.066,159.978c-2.291-0.125-4.456-0.227-6.448-0.298l3.342-2.91L59.066,159.978z M51.943,159.656       c-2.432-0.078-4.55-0.125-6.182-0.148l3.106-3.028L51.943,159.656z M41.721,152.542c2.071-0.031,4.401-0.017,6.927,0.039       l-3.577,3.123L41.721,152.542z M49.338,152.588c2.056,0.055,4.229,0.148,6.511,0.283l-3.467,2.988L49.338,152.588z        M56.587,152.911c2.094,0.141,4.275,0.306,6.511,0.532l-3.436,2.95L56.587,152.911z M63.882,153.522       c2.008,0.212,4.063,0.463,6.166,0.746l-3.444,2.4L63.882,153.522z M72.488,167.62H43.172l-0.863-7.838       c1.742,0,17.745,0,31.716,1.875L72.488,167.62z M78.709,144.046L78.709,144.046L78.709,144.046       c-0.079-0.008-8.606-0.792-21.62-3.569c-12.896-2.738-13.195-9.21-13.195-9.265c-0.008-0.086-0.063-0.149-0.149-0.149h-0.008       c-0.079,0-0.141,0.07-0.141,0.149c0.008,0.251,0.235,5.601,10.08,8.692c-0.125,1.129-2.314,4.063-8.731,6.627       c-0.039,0.009-0.079,0.032-0.125,0.04l0,0l0,0c-0.039,0-0.07,0.023-0.102,0.048c-5.758,2.368-5.954,5.036-5.907,5.68       c-1.93,0.055-3.546,0.125-4.785,0.204c-0.079-0.11-0.345-0.588-0.345-1.789c0-1.153,0.659-2.017,1.318-2.855       c0.157-0.204,0.313-0.399,0.447-0.596l0.172-0.235c3.004-4.134,4.526-8.009,4.526-11.523c0-0.094-0.071-0.149-0.149-0.149       c-0.086,0-0.149,0.055-0.149,0.149c0,3.452-1.506,7.271-4.463,11.351l-0.172,0.229c-0.142,0.204-0.291,0.392-0.447,0.604       c-0.651,0.824-1.389,1.781-1.389,3.028c0,1.012,0.181,1.545,0.322,1.812c-1.601,0.095-2.495,0.172-2.526,0.181       c-0.016,0-0.016,0-0.032,0.008l-0.008-0.008c-0.055,0-0.353,0-0.635-0.204c-0.369-0.251-0.549-0.714-0.549-1.373       c0-1.742,0.283-3.13,2-6.676c0.212-0.455,0.432-0.895,0.667-1.357c1.537-3.091,3.287-6.598,3.287-11.908       c0-1.82-0.031-3.656-0.149-5.421l13.022-6.048l32.304,24.601L78.709,144.046z" fill="#101211"/><path d="M52.351,151.529c0.965,0,1.741-0.792,1.741-1.749c0-0.965-0.776-1.733-1.741-1.733       c-0.957,0-1.726,0.769-1.726,1.733C50.625,150.737,51.394,151.529,52.351,151.529z M52.351,148.486       c0.722,0,1.302,0.581,1.302,1.294c0,0.714-0.58,1.294-1.302,1.294c-0.706,0-1.287-0.58-1.287-1.294       C51.064,149.067,51.645,148.486,52.351,148.486z" fill="#101211"/><path d="M58.642,151.938c0.949,0,1.734-0.792,1.734-1.75s-0.785-1.732-1.734-1.732       c-0.965,0-1.741,0.775-1.741,1.732S57.677,151.938,58.642,151.938z M58.642,148.901c0.714,0,1.287,0.581,1.287,1.287       c0,0.714-0.573,1.287-1.287,1.287c-0.722,0-1.302-0.573-1.302-1.287C57.34,149.482,57.92,148.901,58.642,148.901z" fill="#101211"/><path d="M36.614,109.875c0-0.777-0.643-1.404-1.42-1.404c-0.776,0-1.404,0.627-1.404,1.404       c0,0.776,0.627,1.396,1.404,1.396C35.971,111.271,36.614,110.651,36.614,109.875z M34.229,109.875       c0-0.534,0.439-0.965,0.965-0.965c0.542,0,0.965,0.431,0.965,0.965c0,0.533-0.424,0.965-0.965,0.965       C34.669,110.839,34.229,110.409,34.229,109.875z" fill="#101211"/></g></g></g></g></g></svg>