<svg width="159" height="34" fill="none" xmlns="http://www.w3.org/2000/svg"><path d="M122.891 24.915c-4.295 0-7.782-3.585-7.782-7.924 0-4.34 3.549-7.86 7.844-7.86 3.175 0 5.977 1.949 7.222 4.842h5.229c-.124-.44-.187-.818-.373-1.258l2.988-2.767-1.494-2.641-4.047 1.132c-.373-.378-.685-.755-1.12-1.132l1.245-3.837-2.615-1.572-3.05 2.83c-.498-.188-1.059-.314-1.557-.44l-.934-3.899-2.988-.063-1.058 4.025c-.56.126-1.121.251-1.681.44l-2.801-2.956-2.615 1.447 1.121 4.087c-.374.378-.748.692-1.059 1.07l-4.046-1.132-1.557 2.578 3.051 3.018a6.463 6.463 0 00-.374 1.573l-3.922 1.132-.062 3.018 4.047 1.07c.124.565.249 1.068.435 1.634l-3.112 2.704 1.431 2.642 4.172-1.132c.311.377.684.691 1.058 1.069l-.996 4.213 2.552 1.447 3.051-3.019c.435.189.933.252 1.431.377l.997 4.15h2.988l.996-4.15c.56-.125 1.058-.251 1.618-.44l2.802 3.019 2.677-1.51-1.121-4.024c.436-.378.81-.755 1.183-1.195l3.86 1.195 1.556-2.642-2.428-2.39h-6.225c-1.681 2.139-4.047 3.334-6.537 3.27z" fill="#7ABF42"/><path d="M0 1.96h5.727l7.16 22.766L20.17 1.898h4.67l7.283 22.828 7.16-22.765h5.54l-9.774 30.877h-5.478l-7.16-22.01-6.785 22.01H9.96L0 1.961zM47.44 1.961h5.166v12.766h13.198V1.961h5.23V32.65h-5.23V19.695H52.606V32.65H47.44V1.961zM74.58 1.961h5.977l8.84 12.83 8.84-12.83h6.226V32.65h-5.665V9.948l-9.339 13.71-9.587-13.647V32.65h-5.291V1.961zM138.015 24.789v5.722c2.988 1.572 6.35 2.453 9.712 2.516 5.167 0 11.019-2.579 11.019-8.616 0-6.037-3.673-8.552-9.152-10.062-5.478-1.509-6.412-2.515-6.412-4.15 0-1.447 1.121-3.71 6.226-3.71 2.677 0 5.291.88 7.346 2.64V3.597s-4.234-2.075-8.093-2.075c-3.86 0-10.646.88-10.646 9.181 0 10.88 15.128 6.54 15.128 13.52 0 2.83-2.615 3.71-6.412 3.71-4.234-.062-8.716-3.143-8.716-3.143z" fill="#043855"/></svg>