<svg xmlns="http://www.w3.org/2000/svg" viewBox="0 0 356.18 358.04"><defs><style>.cls-1{fill:#f8c145}.cls-2{fill:#fcca4c}.cls-3{fill:#e8ae38}</style></defs><g id="Layer_2" data-name="Layer 2"><g id="Layer_1-2" data-name="Layer 1"><path d="M47.14 335.23a2.4 2.4 0 0 0-2-1c-1.29 0-1.69.8-1.69 1.43a1 1 0 0 0 .38.82 4.07 4.07 0 0 0 1.47.7 7.11 7.11 0 0 1 2.48 1.23 3.34 3.34 0 0 1 1 2.57 3.93 3.93 0 0 1-4.25 4 5 5 0 0 1-4.22-2.31l1.56-1.48a2.88 2.88 0 0 0 2.57 1.63 1.72 1.72 0 0 0 1.89-1.69 1.42 1.42 0 0 0-.48-1.1 5.53 5.53 0 0 0-1.89-.9A6 6 0 0 1 42 338a2.86 2.86 0 0 1-1-2.27 3.56 3.56 0 0 1 3.93-3.6 4.7 4.7 0 0 1 3.46 1.43zm9.86 2.39 4.5-5.17h3l-5.17 5.65 5.45 6.58h-3.19l-4.35-5.48-.28.27v5.21h-2.38v-12.23H57zm15.68 1.47-4.2-6.64h2.82l2.63 4.25 2.62-4.25h2.82l-4.31 6.64v5.59h-2.38zm22.68-6.64a4.82 4.82 0 0 1 3 .77 3.16 3.16 0 0 1 1.14 2.53 2.6 2.6 0 0 1-1.38 2.4 2.91 2.91 0 0 1 1.6.77 3.14 3.14 0 0 1 .88 2.29 3.25 3.25 0 0 1-1 2.48 4.46 4.46 0 0 1-3.1 1h-4.17v-12.24zm-.64 5.08h.68a1.62 1.62 0 0 0 1.85-1.6c0-1.12-.86-1.54-1.83-1.54h-.7zm0 5.21h1a3.26 3.26 0 0 0 1.63-.33 1.6 1.6 0 0 0 .75-1.42 1.47 1.47 0 0 0-.9-1.39 3.85 3.85 0 0 0-1.63-.24h-.88zm14.12-10.29v10.18h3.78v2.05h-6.17v-12.23zm11.09 0v7.68a2.66 2.66 0 0 0 .59 1.82 2.67 2.67 0 0 0 3.89 0 2.71 2.71 0 0 0 .58-1.82v-7.68h2.39v7.48a5.1 5.1 0 0 1-.92 3.26 5.43 5.43 0 0 1-8 0 5.15 5.15 0 0 1-.91-3.26v-7.48zm20.69 2.05h-4.41v2.73h4.22v2.06h-4.22v3.34h4.41v2.05h-6.79v-12.23h6.79z"/><path class="cls-1" d="M55.73 143h37.05v145.32H55.73z"/><path class="cls-2" d="M46.86 124.49h54.78v23.08H46.86z"/><path class="cls-1" d="M125 143h37v145.32h-37z"/><path class="cls-2" d="M116.09 124.49h54.78v23.08h-54.78z"/><path class="cls-1" d="M194.18 143h37v145.32h-37z"/><path class="cls-2" d="M185.31 124.49h54.78v23.08h-54.78z"/><path class="cls-1" d="M263.4 143h37.05v145.32H263.4z"/><path class="cls-2" d="M254.54 124.49h54.78v23.08h-54.78zM46.86 287.2h54.78v23.09H46.86zm69.23 0h54.78v23.09h-54.78zm69.22 0h54.78v23.09h-54.78zm69.23 0h54.78v23.09h-54.78z"/><path class="cls-3" d="M26.65 107.52h302.88v20.72H26.65z"/><path class="cls-3" d="M178.09 107.52h151.44v20.72H178.09z"/><path class="cls-2" d="M178.09 0 0 110.61h356.18z"/><path class="cls-2" d="M356.18 110.61H178.09V0z"/><path class="cls-3" d="M26.65 305.49h302.88v27H26.65z"/><path class="cls-3" d="M178.09 305.49h151.44v27H178.09z"/><path class="cls-1" d="M2.83 330.75h350.52V358H2.83z"/><path class="cls-1" d="M178.09 330.75h175.26V358H178.09z"/></g></g></svg>