<svg xmlns="http://www.w3.org/2000/svg" viewBox="0 0 242.32 175.47"><g data-name="Layer 2"><g data-name="Layer 1"><path d="M228.88 175.47H13.44A13.44 13.44 0 0 1 0 162V13.44A13.44 13.44 0 0 1 13.44 0h215.44a13.44 13.44 0 0 1 13.44 13.44V162a13.44 13.44 0 0 1-13.44 13.44" style="fill:#2b00bc"/><path d="M0 23.89h242.32v33.42H0zM62.67 78.2h-37.6a4.18 4.18 0 0 0 0 8.36h37.6a4.18 4.18 0 0 0 0-8.36m58.49 4.18A4.18 4.18 0 0 0 117 78.2H79.38a4.18 4.18 0 1 0 0 8.36H117a4.18 4.18 0 0 0 4.18-4.18M29.24 99.09h-4.17a4.18 4.18 0 0 0 0 8.36h4.17a4.18 4.18 0 1 0 0-8.36m25.07 0H46a4.18 4.18 0 0 0 0 8.36h8.35a4.18 4.18 0 0 0 0-8.36m20.85 0H71a4.18 4.18 0 0 0 0 8.36h4.2a4.18 4.18 0 0 0 0-8.36m25.07 0h-8.36a4.18 4.18 0 1 0 0 8.36h8.36a4.18 4.18 0 1 0 0-8.36M114 100.3a4.24 4.24 0 0 0 0 5.93 4.27 4.27 0 0 0 3 1.22 4.19 4.19 0 1 0-3-7.15m36.4 8.32h66.85v41.78H150.4z" style="fill:#e9f6ff"/></g></g></svg>