<svg xmlns="http://www.w3.org/2000/svg" viewBox="0 0 32 32"><g data-name="Layer 2"><g data-name="Layer 1"><circle cx="16" cy="16" r="16" fill="#f7931a"/><path d="M23.19 14c.31-2.1-1.28-3.22-3.47-4l.71-2.85-1.73-.37-.7 2.76-1.38-.33.69-2.78L15.6 6l-.71 2.84-1.11-.26L11.4 8l-.46 1.85s1.28.29 1.26.31a.92.92 0 0 1 .8 1l-.8 3.23.18.06h-.19l-1.13 4.53a.63.63 0 0 1-.79.41L9 19l-.86 2 2.25.56 1.23.32-.72 2.87 1.73.43.71-2.84 1.38.36-.72 2.82 1.73.43.71-2.87c3 .56 5.17.34 6.1-2.33.75-2.15 0-3.38-1.59-4.19A2.76 2.76 0 0 0 23.19 14zm-4 5.54c-.53 2.14-4.15 1-5.32.69l.95-3.8c1.18.31 4.98.89 4.42 3.13zm.58-5.54c-.48 1.95-3.49 1-4.47.72l.86-3.45c.98.23 4.12.73 3.61 2.73z" fill="#fff"/></g></g></svg>