<svg width="201" height="18" viewBox="0 0 201 18" fill="none" xmlns="http://www.w3.org/2000/svg">
<path d="M15.4554 16.892C15.2574 16.946 14.9424 17 14.5104 17.054C14.0964 17.108 13.6824 17.135 13.2684 17.135C12.8544 17.135 12.4854 17.099 12.1614 17.027C11.8554 16.973 11.5944 16.865 11.3784 16.703C11.1624 16.541 11.0004 16.316 10.8924 16.028C10.7844 15.74 10.7304 15.362 10.7304 14.894V10.682H5.54641V16.892C5.34841 16.946 5.03341 17 4.60141 17.054C4.18741 17.108 3.77341 17.135 3.35941 17.135C2.94541 17.135 2.57641 17.099 2.25241 17.027C1.94641 16.973 1.68541 16.865 1.46941 16.703C1.25341 16.541 1.09141 16.316 0.983406 16.028C0.875406 15.74 0.821406 15.362 0.821406 14.894V0.638C1.01941 0.601999 1.33441 0.556999 1.76641 0.503C2.19841 0.431 2.61241 0.395 3.00841 0.395C3.42241 0.395 3.78241 0.431 4.08841 0.503C4.41241 0.556999 4.68241 0.664999 4.89841 0.826999C5.11441 0.988999 5.27641 1.214 5.38441 1.502C5.49241 1.79 5.54641 2.168 5.54641 2.636V6.956H10.7304V0.638C10.9284 0.601999 11.2434 0.556999 11.6754 0.503C12.1074 0.431 12.5214 0.395 12.9174 0.395C13.3314 0.395 13.6914 0.431 13.9974 0.503C14.3214 0.556999 14.5914 0.664999 14.8074 0.826999C15.0234 0.988999 15.1854 1.214 15.2934 1.502C15.4014 1.79 15.4554 2.168 15.4554 2.636V16.892ZM18.152 8.792C18.152 7.388 18.368 6.146 18.8 5.066C19.25 3.986 19.853 3.086 20.609 2.366C21.383 1.628 22.283 1.07 23.309 0.691999C24.353 0.314 25.478 0.125 26.684 0.125C27.89 0.125 29.006 0.314 30.032 0.691999C31.076 1.07 31.985 1.628 32.759 2.366C33.533 3.086 34.136 3.986 34.568 5.066C35.018 6.146 35.243 7.388 35.243 8.792C35.243 10.196 35.027 11.447 34.595 12.545C34.163 13.625 33.56 14.534 32.786 15.272C32.03 15.992 31.13 16.541 30.086 16.919C29.042 17.297 27.908 17.486 26.684 17.486C25.46 17.486 24.326 17.297 23.282 16.919C22.238 16.523 21.338 15.956 20.582 15.218C19.826 14.48 19.232 13.571 18.8 12.491C18.368 11.411 18.152 10.178 18.152 8.792ZM23.012 8.792C23.012 10.43 23.345 11.654 24.011 12.464C24.677 13.274 25.568 13.679 26.684 13.679C27.818 13.679 28.718 13.274 29.384 12.464C30.05 11.654 30.383 10.43 30.383 8.792C30.383 7.172 30.05 5.957 29.384 5.147C28.736 4.337 27.845 3.932 26.711 3.932C25.595 3.932 24.695 4.337 24.011 5.147C23.345 5.939 23.012 7.154 23.012 8.792ZM42.5904 10.493C41.7984 10.223 41.0784 9.953 40.4304 9.683C39.7824 9.395 39.2244 9.053 38.7564 8.657C38.2884 8.261 37.9194 7.793 37.6494 7.253C37.3974 6.695 37.2714 6.02 37.2714 5.228C37.2714 3.698 37.8564 2.474 39.0264 1.556C40.2144 0.637999 41.8704 0.178999 43.9944 0.178999C44.7684 0.178999 45.4884 0.232999 46.1544 0.340999C46.8204 0.449 47.3874 0.62 47.8554 0.853999C48.3414 1.07 48.7194 1.358 48.9894 1.718C49.2594 2.06 49.3944 2.465 49.3944 2.933C49.3944 3.401 49.2864 3.806 49.0704 4.148C48.8544 4.472 48.5934 4.751 48.2874 4.985C47.8914 4.733 47.3604 4.517 46.6944 4.337C46.0284 4.139 45.2994 4.04 44.5074 4.04C43.6974 4.04 43.1034 4.157 42.7254 4.391C42.3474 4.607 42.1584 4.886 42.1584 5.228C42.1584 5.498 42.2754 5.723 42.5094 5.903C42.7434 6.065 43.0944 6.218 43.5624 6.362L44.9934 6.821C46.6854 7.361 47.9814 8.054 48.8814 8.9C49.7994 9.728 50.2584 10.862 50.2584 12.302C50.2584 13.832 49.6554 15.074 48.4494 16.028C47.2434 16.964 45.4704 17.432 43.1304 17.432C42.3024 17.432 41.5284 17.36 40.8084 17.216C40.1064 17.09 39.4854 16.901 38.9454 16.649C38.4234 16.379 38.0094 16.055 37.7034 15.677C37.4154 15.281 37.2714 14.831 37.2714 14.327C37.2714 13.805 37.4244 13.364 37.7304 13.004C38.0364 12.626 38.3694 12.338 38.7294 12.14C39.2334 12.536 39.8454 12.878 40.5654 13.166C41.3034 13.454 42.1044 13.598 42.9684 13.598C43.8504 13.598 44.4714 13.463 44.8314 13.193C45.1914 12.923 45.3714 12.608 45.3714 12.248C45.3714 11.888 45.2274 11.618 44.9394 11.438C44.6514 11.24 44.2464 11.051 43.7244 10.871L42.5904 10.493ZM51.7187 4.418C51.5927 4.22 51.4757 3.95 51.3677 3.608C51.2597 3.266 51.2057 2.906 51.2057 2.528C51.2057 1.826 51.3587 1.322 51.6647 1.016C51.9887 0.709999 52.4027 0.556999 52.9067 0.556999H64.6787C64.8047 0.754999 64.9217 1.025 65.0297 1.367C65.1377 1.709 65.1917 2.069 65.1917 2.447C65.1917 3.149 65.0297 3.653 64.7057 3.959C64.3997 4.265 63.9947 4.418 63.4907 4.418H60.4937V16.892C60.2957 16.946 59.9807 17 59.5487 17.054C59.1347 17.108 58.7207 17.135 58.3067 17.135C57.8927 17.135 57.5237 17.099 57.1997 17.027C56.8937 16.973 56.6327 16.865 56.4167 16.703C56.2007 16.541 56.0387 16.316 55.9307 16.028C55.8227 15.74 55.7687 15.362 55.7687 14.894V4.418H51.7187ZM81.9767 10.952C81.9767 11.924 81.8057 12.815 81.4637 13.625C81.1397 14.417 80.6627 15.101 80.0327 15.677C79.4027 16.235 78.6377 16.667 77.7377 16.973C76.8377 17.279 75.8207 17.432 74.6867 17.432C73.5527 17.432 72.5357 17.279 71.6357 16.973C70.7357 16.667 69.9707 16.235 69.3407 15.677C68.7107 15.101 68.2247 14.417 67.8827 13.625C67.5587 12.815 67.3967 11.924 67.3967 10.952V0.638C67.5947 0.601999 67.9097 0.556999 68.3417 0.503C68.7737 0.431 69.1877 0.395 69.5837 0.395C69.9977 0.395 70.3577 0.431 70.6637 0.503C70.9877 0.556999 71.2577 0.664999 71.4737 0.826999C71.6897 0.988999 71.8517 1.214 71.9597 1.502C72.0677 1.79 72.1217 2.168 72.1217 2.636V10.871C72.1217 11.735 72.3557 12.41 72.8237 12.896C73.3097 13.382 73.9307 13.625 74.6867 13.625C75.4607 13.625 76.0817 13.382 76.5497 12.896C77.0177 12.41 77.2517 11.735 77.2517 10.871V0.638C77.4497 0.601999 77.7647 0.556999 78.1967 0.503C78.6287 0.431 79.0427 0.395 79.4387 0.395C79.8527 0.395 80.2127 0.431 80.5187 0.503C80.8427 0.556999 81.1127 0.664999 81.3287 0.826999C81.5447 0.988999 81.7067 1.214 81.8147 1.502C81.9227 1.79 81.9767 2.168 81.9767 2.636V10.952ZM90.0513 10.493C89.2593 10.223 88.5393 9.953 87.8913 9.683C87.2433 9.395 86.6853 9.053 86.2173 8.657C85.7493 8.261 85.3803 7.793 85.1103 7.253C84.8583 6.695 84.7323 6.02 84.7323 5.228C84.7323 3.698 85.3173 2.474 86.4873 1.556C87.6753 0.637999 89.3313 0.178999 91.4553 0.178999C92.2293 0.178999 92.9493 0.232999 93.6153 0.340999C94.2813 0.449 94.8483 0.62 95.3163 0.853999C95.8023 1.07 96.1803 1.358 96.4503 1.718C96.7203 2.06 96.8553 2.465 96.8553 2.933C96.8553 3.401 96.7473 3.806 96.5313 4.148C96.3153 4.472 96.0543 4.751 95.7483 4.985C95.3523 4.733 94.8213 4.517 94.1553 4.337C93.4893 4.139 92.7603 4.04 91.9683 4.04C91.1583 4.04 90.5643 4.157 90.1863 4.391C89.8083 4.607 89.6193 4.886 89.6193 5.228C89.6193 5.498 89.7363 5.723 89.9703 5.903C90.2043 6.065 90.5553 6.218 91.0233 6.362L92.4543 6.821C94.1463 7.361 95.4423 8.054 96.3423 8.9C97.2603 9.728 97.7193 10.862 97.7193 12.302C97.7193 13.832 97.1163 15.074 95.9103 16.028C94.7043 16.964 92.9313 17.432 90.5913 17.432C89.7633 17.432 88.9893 17.36 88.2693 17.216C87.5673 17.09 86.9463 16.901 86.4063 16.649C85.8843 16.379 85.4703 16.055 85.1643 15.677C84.8763 15.281 84.7323 14.831 84.7323 14.327C84.7323 13.805 84.8853 13.364 85.1913 13.004C85.4973 12.626 85.8303 12.338 86.1903 12.14C86.6943 12.536 87.3063 12.878 88.0263 13.166C88.7643 13.454 89.5653 13.598 90.4293 13.598C91.3113 13.598 91.9323 13.463 92.2923 13.193C92.6523 12.923 92.8323 12.608 92.8323 12.248C92.8323 11.888 92.6883 11.618 92.4003 11.438C92.1123 11.24 91.7073 11.051 91.1853 10.871L90.0513 10.493ZM111.813 8.225C112.569 8.225 113.145 8.054 113.541 7.712C113.955 7.352 114.162 6.812 114.162 6.092C114.162 5.408 113.946 4.886 113.514 4.526C113.1 4.148 112.488 3.959 111.678 3.959C111.39 3.959 111.147 3.968 110.949 3.986C110.769 3.986 110.58 4.004 110.382 4.04V8.225H111.813ZM110.409 16.892C110.211 16.946 109.896 17 109.464 17.054C109.05 17.108 108.636 17.135 108.222 17.135C107.808 17.135 107.439 17.099 107.115 17.027C106.809 16.973 106.548 16.865 106.332 16.703C106.116 16.541 105.954 16.316 105.846 16.028C105.738 15.74 105.684 15.362 105.684 14.894V2.177C105.684 1.799 105.783 1.511 105.981 1.313C106.197 1.097 106.485 0.925999 106.845 0.799999C107.457 0.583999 108.15 0.430999 108.924 0.340999C109.716 0.232999 110.508 0.178999 111.3 0.178999C113.784 0.178999 115.683 0.709999 116.997 1.772C118.311 2.834 118.968 4.274 118.968 6.092C118.968 6.974 118.824 7.775 118.536 8.495C118.266 9.197 117.852 9.809 117.294 10.331C116.754 10.835 116.061 11.231 115.215 11.519C114.387 11.789 113.424 11.924 112.326 11.924H110.409V16.892ZM120.562 8.792C120.562 7.388 120.778 6.146 121.21 5.066C121.66 3.986 122.263 3.086 123.019 2.366C123.793 1.628 124.693 1.07 125.719 0.691999C126.763 0.314 127.888 0.125 129.094 0.125C130.3 0.125 131.416 0.314 132.442 0.691999C133.486 1.07 134.395 1.628 135.169 2.366C135.943 3.086 136.546 3.986 136.978 5.066C137.428 6.146 137.653 7.388 137.653 8.792C137.653 10.196 137.437 11.447 137.005 12.545C136.573 13.625 135.97 14.534 135.196 15.272C134.44 15.992 133.54 16.541 132.496 16.919C131.452 17.297 130.318 17.486 129.094 17.486C127.87 17.486 126.736 17.297 125.692 16.919C124.648 16.523 123.748 15.956 122.992 15.218C122.236 14.48 121.642 13.571 121.21 12.491C120.778 11.411 120.562 10.178 120.562 8.792ZM125.422 8.792C125.422 10.43 125.755 11.654 126.421 12.464C127.087 13.274 127.978 13.679 129.094 13.679C130.228 13.679 131.128 13.274 131.794 12.464C132.46 11.654 132.793 10.43 132.793 8.792C132.793 7.172 132.46 5.957 131.794 5.147C131.146 4.337 130.255 3.932 129.121 3.932C128.005 3.932 127.105 4.337 126.421 5.147C125.755 5.939 125.422 7.154 125.422 8.792ZM145.001 10.493C144.209 10.223 143.489 9.953 142.841 9.683C142.193 9.395 141.635 9.053 141.167 8.657C140.699 8.261 140.33 7.793 140.06 7.253C139.808 6.695 139.682 6.02 139.682 5.228C139.682 3.698 140.267 2.474 141.437 1.556C142.625 0.637999 144.281 0.178999 146.405 0.178999C147.179 0.178999 147.899 0.232999 148.565 0.340999C149.231 0.449 149.798 0.62 150.266 0.853999C150.752 1.07 151.13 1.358 151.4 1.718C151.67 2.06 151.805 2.465 151.805 2.933C151.805 3.401 151.697 3.806 151.481 4.148C151.265 4.472 151.004 4.751 150.698 4.985C150.302 4.733 149.771 4.517 149.105 4.337C148.439 4.139 147.71 4.04 146.918 4.04C146.108 4.04 145.514 4.157 145.136 4.391C144.758 4.607 144.569 4.886 144.569 5.228C144.569 5.498 144.686 5.723 144.92 5.903C145.154 6.065 145.505 6.218 145.973 6.362L147.404 6.821C149.096 7.361 150.392 8.054 151.292 8.9C152.21 9.728 152.669 10.862 152.669 12.302C152.669 13.832 152.066 15.074 150.86 16.028C149.654 16.964 147.881 17.432 145.541 17.432C144.713 17.432 143.939 17.36 143.219 17.216C142.517 17.09 141.896 16.901 141.356 16.649C140.834 16.379 140.42 16.055 140.114 15.677C139.826 15.281 139.682 14.831 139.682 14.327C139.682 13.805 139.835 13.364 140.141 13.004C140.447 12.626 140.78 12.338 141.14 12.14C141.644 12.536 142.256 12.878 142.976 13.166C143.714 13.454 144.515 13.598 145.379 13.598C146.261 13.598 146.882 13.463 147.242 13.193C147.602 12.923 147.782 12.608 147.782 12.248C147.782 11.888 147.638 11.618 147.35 11.438C147.062 11.24 146.657 11.051 146.135 10.871L145.001 10.493ZM154.129 4.418C154.003 4.22 153.886 3.95 153.778 3.608C153.67 3.266 153.616 2.906 153.616 2.528C153.616 1.826 153.769 1.322 154.075 1.016C154.399 0.709999 154.813 0.556999 155.317 0.556999H167.089C167.215 0.754999 167.332 1.025 167.44 1.367C167.548 1.709 167.602 2.069 167.602 2.447C167.602 3.149 167.44 3.653 167.116 3.959C166.81 4.265 166.405 4.418 165.901 4.418H162.904V16.892C162.706 16.946 162.391 17 161.959 17.054C161.545 17.108 161.131 17.135 160.717 17.135C160.303 17.135 159.934 17.099 159.61 17.027C159.304 16.973 159.043 16.865 158.827 16.703C158.611 16.541 158.449 16.316 158.341 16.028C158.233 15.74 158.179 15.362 158.179 14.894V4.418H154.129ZM184.387 10.952C184.387 11.924 184.216 12.815 183.874 13.625C183.55 14.417 183.073 15.101 182.443 15.677C181.813 16.235 181.048 16.667 180.148 16.973C179.248 17.279 178.231 17.432 177.097 17.432C175.963 17.432 174.946 17.279 174.046 16.973C173.146 16.667 172.381 16.235 171.751 15.677C171.121 15.101 170.635 14.417 170.293 13.625C169.969 12.815 169.807 11.924 169.807 10.952V0.638C170.005 0.601999 170.32 0.556999 170.752 0.503C171.184 0.431 171.598 0.395 171.994 0.395C172.408 0.395 172.768 0.431 173.074 0.503C173.398 0.556999 173.668 0.664999 173.884 0.826999C174.1 0.988999 174.262 1.214 174.37 1.502C174.478 1.79 174.532 2.168 174.532 2.636V10.871C174.532 11.735 174.766 12.41 175.234 12.896C175.72 13.382 176.341 13.625 177.097 13.625C177.871 13.625 178.492 13.382 178.96 12.896C179.428 12.41 179.662 11.735 179.662 10.871V0.638C179.86 0.601999 180.175 0.556999 180.607 0.503C181.039 0.431 181.453 0.395 181.849 0.395C182.263 0.395 182.623 0.431 182.929 0.503C183.253 0.556999 183.523 0.664999 183.739 0.826999C183.955 0.988999 184.117 1.214 184.225 1.502C184.333 1.79 184.387 2.168 184.387 2.636V10.952ZM192.462 10.493C191.67 10.223 190.95 9.953 190.302 9.683C189.654 9.395 189.096 9.053 188.628 8.657C188.16 8.261 187.791 7.793 187.521 7.253C187.269 6.695 187.143 6.02 187.143 5.228C187.143 3.698 187.728 2.474 188.898 1.556C190.086 0.637999 191.742 0.178999 193.866 0.178999C194.64 0.178999 195.36 0.232999 196.026 0.340999C196.692 0.449 197.259 0.62 197.727 0.853999C198.213 1.07 198.591 1.358 198.861 1.718C199.131 2.06 199.266 2.465 199.266 2.933C199.266 3.401 199.158 3.806 198.942 4.148C198.726 4.472 198.465 4.751 198.159 4.985C197.763 4.733 197.232 4.517 196.566 4.337C195.9 4.139 195.171 4.04 194.379 4.04C193.569 4.04 192.975 4.157 192.597 4.391C192.219 4.607 192.03 4.886 192.03 5.228C192.03 5.498 192.147 5.723 192.381 5.903C192.615 6.065 192.966 6.218 193.434 6.362L194.865 6.821C196.557 7.361 197.853 8.054 198.753 8.9C199.671 9.728 200.13 10.862 200.13 12.302C200.13 13.832 199.527 15.074 198.321 16.028C197.115 16.964 195.342 17.432 193.001 17.432C192.174 17.432 191.4 17.36 190.68 17.216C189.978 17.09 189.357 16.901 188.817 16.649C188.295 16.379 187.881 16.055 187.575 15.677C187.287 15.281 187.143 14.831 187.143 14.327C187.143 13.805 187.296 13.364 187.602 13.004C187.908 12.626 188.241 12.338 188.601 12.14C189.105 12.536 189.717 12.878 190.437 13.166C191.175 13.454 191.976 13.598 192.84 13.598C193.722 13.598 194.343 13.463 194.703 13.193C195.063 12.923 195.243 12.608 195.243 12.248C195.243 11.888 195.099 11.618 194.811 11.438C194.523 11.24 194.118 11.051 193.596 10.871L192.462 10.493Z" fill="#2F1C6A"/>
</svg>
