<svg width="131" height="26" fill="none" xmlns="http://www.w3.org/2000/svg"><path d="M129.338 22.462a1.5 1.5 0 0 0 1.124-1.8L127.423 7.51a1.5 1.5 0 1 0-2.923.675l2.701 11.692-11.692 2.7a1.5 1.5 0 1 0 .675 2.924l13.154-3.038ZM3.513 21.067a1.5 1.5 0 0 0-1.685-2.481l1.685 2.482Zm4.544-6.297a1.5 1.5 0 1 0 1.456 2.623L8.057 14.77Zm5.043.733a1.5 1.5 0 0 0-1.343-2.683l1.343 2.683Zm5.27-5.715a1.5 1.5 0 1 0 1.16 2.768l-1.16-2.768Zm4.918 1.273a1.5 1.5 0 0 0-1.059-2.807l1.059 2.807Zm5.822-5.163a1.5 1.5 0 1 0 .885 2.866l-.885-2.866Zm4.776 1.738A1.5 1.5 0 1 0 33.1 4.74l.786 2.896Zm6.287-4.591a1.5 1.5 0 0 0 .612 2.937l-.612-2.937Zm4.592 2.177a1.5 1.5 0 1 0-.511-2.956l.511 2.956Zm6.694-3.981a1.5 1.5 0 0 0 .333 2.981l-.333-2.981Zm4.365 2.601a1.5 1.5 0 0 0-.23-2.99l.23 2.99ZM62.85.515a1.5 1.5 0 1 0 .047 3l-.047-3Zm4.098 3.006a1.5 1.5 0 1 0 .058-2.999l-.058 3ZM74.28.888a1.5 1.5 0 0 0-.243 2.99l.243-2.99Zm3.782 3.39a1.5 1.5 0 1 0 .349-2.98l-.349 2.98ZM85.6 2.365a1.5 1.5 0 0 0-.533 2.952l.533-2.952Zm3.444 3.743a1.5 1.5 0 0 0 .637-2.932l-.637 2.932Zm7.686-1.173a1.5 1.5 0 0 0-.814 2.887l.814-2.887Zm3.065 4.054a1.5 1.5 0 0 0 .914-2.857l-.914 2.857Zm7.769-.437a1.5 1.5 0 0 0-1.082 2.798l1.082-2.798Zm2.671 4.321a1.5 1.5 0 1 0 1.174-2.76l-1.174 2.76Zm7.778.274a1.5 1.5 0 1 0-1.328 2.69l1.328-2.69Zm2.275 4.541a1.5 1.5 0 0 0 1.413-2.646l-1.413 2.646Zm7.724.943a1.5 1.5 0 0 0-1.551 2.568l1.551-2.568ZM1.882 22.213c.52-.377 1.063-.76 1.631-1.146l-1.685-2.481c-.594.403-1.164.804-1.71 1.2l1.764 2.427Zm7.631-4.82a94.845 94.845 0 0 1 3.587-1.89l-1.343-2.683a97.78 97.78 0 0 0-3.7 1.95l1.456 2.623Zm10.017-4.838c1.217-.51 2.47-1.009 3.758-1.494l-1.059-2.807a115.07 115.07 0 0 0-3.858 1.534l1.159 2.768Zm10.465-3.79c1.271-.393 2.569-.77 3.891-1.13L33.1 4.74c-1.356.369-2.686.755-3.99 1.158l.885 2.866Zm10.79-2.783c1.307-.273 2.634-.527 3.98-.76l-.511-2.956c-1.38.24-2.741.5-4.081.779l.612 2.937Zm11.007-1.76c1.329-.148 2.673-.275 4.032-.38l-.23-2.99c-1.394.106-2.772.237-4.135.389l.333 2.981Zm11.105-.708a115.36 115.36 0 0 1 4.05.007l.059-2.999A118.344 118.344 0 0 0 62.85.515l.047 3Zm11.14.364c1.333.108 2.675.241 4.025.4l.349-2.98a117.318 117.318 0 0 0-4.13-.41l-.244 2.99Zm11.03 1.44c1.318.238 2.644.502 3.976.79l.637-2.93a117.842 117.842 0 0 0-4.08-.812l-.534 2.952Zm10.848 2.505c1.288.364 2.581.752 3.88 1.167l.913-2.857a120.347 120.347 0 0 0-3.979-1.197l-.814 2.887Zm10.566 3.528c1.248.483 2.499.99 3.753 1.523l1.174-2.76a124.863 124.863 0 0 0-3.845-1.56l-1.082 2.797Zm10.203 4.487c1.199.592 2.4 1.21 3.603 1.851l1.413-2.646a131.316 131.316 0 0 0-3.688-1.895l-1.328 2.69Zm9.776 5.362c.581.351 1.163.709 1.745 1.072l1.59-2.544c-.595-.372-1.19-.737-1.784-1.096L126.46 21.2Z" fill="#BCDBF0"/></svg>