<svg width="49" height="65" fill="none" xmlns="http://www.w3.org/2000/svg"><g filter="url(#a)"><path d="M9.54 41.824c-.323.646-.97 1.614-2.585 1.291l-4.201-.968-2.586 6.455 7.11 1.937 3.878.968-2.262 9.36 5.493 1.29 2.262-9.037c1.616.323 2.909.646 4.524 1.291l-2.262 9.037 5.494 1.291 2.262-9.36c9.371 1.937 16.804.969 19.712-7.422 2.585-6.778 0-10.974-5.17-13.556 3.554-.968 6.462-3.227 7.109-8.068.97-6.778-4.201-10.328-11.31-12.91l2.262-9.037-5.494-1.291-1.616 8.391c-1.615-.322-3.231-.645-4.524-.968l2.262-9.037-5.816-1.29-2.262 9.036c-.97 0-2.262-.323-3.555-.645l-7.756-1.937-1.292 5.81 4.2.968c2.263.645 2.586 1.936 2.586 3.227L9.54 41.824Zm26.498 2.26c-1.616 6.777-13.249 3.227-17.127 2.259l3.232-12.265c3.554.646 15.51 2.582 13.895 10.006Zm1.616-18.074c-1.616 6.455-11.31 3.227-14.542 2.26l2.909-10.974c3.231.645 13.249 2.259 11.633 8.714Z" fill="#E2E6F0"/></g><defs><filter id="a" x="-.697" y=".19" width="49.132" height="64.549" filterUnits="userSpaceOnUse" color-interpolation-filters="sRGB"><feFlood flood-opacity="0" result="BackgroundImageFix"/><feBlend in="SourceGraphic" in2="BackgroundImageFix" result="shape"/><feColorMatrix in="SourceAlpha" values="0 0 0 0 0 0 0 0 0 0 0 0 0 0 0 0 0 0 127 0" result="hardAlpha"/><feOffset dx="-.865"/><feGaussianBlur stdDeviation="1.298"/><feComposite in2="hardAlpha" operator="arithmetic" k2="-1" k3="1"/><feColorMatrix values="0 0 0 0 0.627451 0 0 0 0 0.658824 0 0 0 0 0.745098 0 0 0 0.4 0"/><feBlend in2="shape" result="effect1_innerShadow_619_7781"/></filter></defs></svg>