<svg width="34" height="66" fill="none" xmlns="http://www.w3.org/2000/svg"><g filter="url(#a)"><path d="M25.057 45.234c0-1.937-.616-3.532-1.848-4.785-1.232-1.276-3.285-2.415-6.16-3.418-2.875-1.025-5.11-1.97-6.708-2.837-5.316-2.848-7.974-7.063-7.974-12.646 0-3.782 1.152-6.893 3.457-9.33 2.304-2.439 5.43-3.886 9.377-4.342V.426h5.476v7.519c3.97.57 7.038 2.255 9.206 5.058 2.167 2.78 3.25 6.403 3.25 10.87h-8.281c0-2.872-.65-5.128-1.95-6.768-1.279-1.664-3.024-2.495-5.237-2.495-2.19 0-3.902.592-5.134 1.777-1.232 1.185-1.848 2.882-1.848 5.093 0 1.982.605 3.577 1.814 4.785 1.232 1.185 3.308 2.313 6.229 3.383 2.92 1.071 5.213 2.063 6.879 2.974 1.665.911 3.069 1.96 4.21 3.145a12.234 12.234 0 0 1 2.634 4.033c.617 1.526.925 3.315.925 5.366 0 3.85-1.187 6.972-3.56 9.365-2.35 2.392-5.635 3.805-9.856 4.238v6.665h-5.442v-6.63C10 58.301 6.52 56.683 4.078 53.95 1.66 51.215.45 47.593.45 43.08h8.317c0 2.872.718 5.094 2.156 6.666 1.46 1.572 3.514 2.358 6.16 2.358 2.601 0 4.575-.626 5.92-1.88 1.37-1.253 2.054-2.916 2.054-4.99Z" fill="#E2E6F0"/></g><defs><filter id="a" x="-.415" y=".425" width="33.788" height="65.009" filterUnits="userSpaceOnUse" color-interpolation-filters="sRGB"><feFlood flood-opacity="0" result="BackgroundImageFix"/><feBlend in="SourceGraphic" in2="BackgroundImageFix" result="shape"/><feColorMatrix in="SourceAlpha" values="0 0 0 0 0 0 0 0 0 0 0 0 0 0 0 0 0 0 127 0" result="hardAlpha"/><feOffset dx="-.865"/><feGaussianBlur stdDeviation="1.298"/><feComposite in2="hardAlpha" operator="arithmetic" k2="-1" k3="1"/><feColorMatrix values="0 0 0 0 0.627451 0 0 0 0 0.658824 0 0 0 0 0.745098 0 0 0 0.4 0"/><feBlend in2="shape" result="effect1_innerShadow_619_7778"/></filter></defs></svg>