<svg width="245" height="117" viewBox="0 0 245 117" fill="none" xmlns="http://www.w3.org/2000/svg">
<g filter="url(#filter0_dii_619_9696)">
<circle cx="186.5" cy="54.5" r="53.5" fill="#FBFBFB"/>
</g>
<g filter="url(#filter1_i_619_9696)">
<path d="M194.057 65.5646C194.057 63.6379 193.441 62.0512 192.209 60.8045C190.977 59.5351 188.924 58.4017 186.049 57.4043C183.174 56.3843 180.938 55.4436 179.341 54.5822C174.025 51.7488 171.367 47.5553 171.367 42.0018C171.367 38.239 172.519 35.1449 174.824 32.7194C177.128 30.294 180.254 28.8546 184.201 28.4013V20.989H189.677V28.4693C193.647 29.036 196.715 30.7134 198.883 33.5015C201.05 36.2669 202.134 39.871 202.134 44.3139H193.852C193.852 41.4578 193.202 39.2137 191.901 37.5816C190.623 35.9269 188.878 35.0995 186.665 35.0995C184.475 35.0995 182.763 35.6889 181.531 36.8676C180.299 38.0463 179.683 39.735 179.683 41.9338C179.683 43.9058 180.288 45.4926 181.497 46.6939C182.729 47.8727 184.805 48.9947 187.726 50.0601C190.646 51.1254 192.939 52.1115 194.605 53.0182C196.27 53.9249 197.673 54.9676 198.814 56.1463C199.955 57.3023 200.833 58.6397 201.449 60.1584C202.066 61.6772 202.374 63.4565 202.374 65.4966C202.374 69.3274 201.187 72.4329 198.814 74.813C196.464 77.193 193.179 78.5984 188.958 79.0291V85.6593H183.516V79.0631C178.999 78.5644 175.519 76.955 173.078 74.2349C170.66 71.5148 169.45 67.9107 169.45 63.4225H177.767C177.767 66.2786 178.485 68.4887 179.923 70.0528C181.383 71.6168 183.436 72.3989 186.083 72.3989C188.684 72.3989 190.658 71.7755 192.004 70.5288C193.373 69.2821 194.057 67.6274 194.057 65.5646Z" fill="#E2E6F0"/>
</g>
<g filter="url(#filter2_dii_619_9696)">
<circle cx="58.5" cy="54.5" r="53.5" fill="#FBFBFB"/>
</g>
<g filter="url(#filter3_i_619_9696)">
<path d="M40.5398 61.8245C40.2167 62.47 39.5704 63.4382 37.9546 63.1155L33.7537 62.1472L31.1685 68.6021L38.2778 70.5386C39.5704 70.8613 40.863 71.1841 42.1556 71.5068L39.8935 80.8664L45.3871 82.1574L47.6491 73.1205C49.2649 73.4433 50.5575 73.766 52.1732 74.4115L49.9112 83.4484L55.4047 84.7393L57.6668 75.3798C67.0381 77.3162 74.4706 76.348 77.3789 67.9566C79.9641 61.179 77.3789 56.9833 72.2085 54.4014C75.7632 53.4331 78.6715 51.1739 79.3178 46.3327C80.2873 39.5551 75.1169 36.0049 68.0076 33.423L70.2696 24.3861L64.7761 23.0951L63.1603 31.4865C61.5446 31.1637 59.9288 30.841 58.6362 30.5183L60.8983 21.4814L55.0816 20.1904L52.8195 29.2273C51.8501 29.2273 50.5575 28.9045 49.2649 28.5818L41.5093 26.6453L40.2167 32.4547L44.4176 33.423C46.6797 34.0684 47.0028 35.3594 47.0028 36.6504L40.5398 61.8245ZM67.0381 64.0837C65.4224 70.8613 53.789 67.3111 49.9112 66.3429L53.1427 54.0786C56.6973 54.7241 68.6539 56.6606 67.0381 64.0837ZM68.6539 46.01C67.0381 52.4649 57.3436 49.2374 54.1121 48.2692L57.0205 37.2959C60.252 37.9414 70.2696 39.5551 68.6539 46.01Z" fill="#E2E6F0"/>
</g>
<path d="M187.338 55.4615C188.145 55.2751 188.648 54.4696 188.462 53.6624L185.423 40.5087C185.237 39.7016 184.431 39.1984 183.624 39.3848C182.817 39.5712 182.314 40.3767 182.5 41.1839L185.201 52.8761L173.509 55.5767C172.702 55.7631 172.198 56.5686 172.385 57.3758C172.571 58.183 173.377 58.6862 174.184 58.4997L187.338 55.4615ZM61.5134 54.0675C62.1987 53.602 62.3769 52.6692 61.9115 51.9838C61.446 51.2985 60.5131 51.1203 59.8278 51.5857L61.5134 54.0675ZM66.0572 47.7704C65.3329 48.1725 65.0717 49.0857 65.4739 49.8099C65.876 50.5342 66.7891 50.7954 67.5134 50.3932L66.0572 47.7704ZM71.0997 48.5029C71.8405 48.1321 72.1405 47.231 71.7697 46.4902C71.3989 45.7493 70.4978 45.4494 69.757 45.8201L71.0997 48.5029ZM76.3706 42.7884C75.6065 43.1085 75.2466 43.9874 75.5667 44.7515C75.8868 45.5156 76.7657 45.8755 77.5298 45.5555L76.3706 42.7884ZM81.2878 44.0607C82.0629 43.7684 82.4543 42.9031 82.162 42.1279C81.8697 41.3528 81.0044 40.9614 80.2292 41.2537L81.2878 44.0607ZM87.1103 38.8977C86.3187 39.1421 85.8752 39.9819 86.1196 40.7734C86.364 41.565 87.2038 42.0085 87.9953 41.7641L87.1103 38.8977ZM91.8864 40.6356C92.6859 40.4184 93.1579 39.5943 92.9408 38.7949C92.7237 37.9954 91.8996 37.5233 91.1001 37.7404L91.8864 40.6356ZM98.1728 36.0447C97.3618 36.2137 96.8414 37.0082 97.0104 37.8192C97.1795 38.6302 97.9739 39.1506 98.7849 38.9816L98.1728 36.0447ZM102.765 38.2225C103.582 38.0812 104.129 37.305 103.988 36.4887C103.846 35.6724 103.07 35.1252 102.254 35.2664L102.765 38.2225ZM109.459 34.241C108.636 34.333 108.043 35.075 108.135 35.8983C108.227 36.7216 108.969 37.3145 109.792 37.2225L109.459 34.241ZM113.824 36.8423C114.65 36.7788 115.268 36.0577 115.204 35.2317C115.141 34.4057 114.42 33.7876 113.594 33.8511L113.824 36.8423ZM120.85 33.5148C120.022 33.5279 119.361 34.21 119.374 35.0383C119.387 35.8666 120.069 36.5275 120.897 36.5144L120.85 33.5148ZM124.948 36.5215C125.776 36.5375 126.461 35.879 126.477 35.0507C126.493 34.2225 125.834 33.538 125.006 33.522L124.948 36.5215ZM132.28 33.8878C131.454 33.8206 130.731 34.4354 130.663 35.2611C130.596 36.0868 131.211 36.8107 132.037 36.8779L132.28 33.8878ZM136.062 37.2773C136.885 37.3736 137.63 36.7847 137.726 35.9619C137.823 35.1391 137.234 34.394 136.411 34.2976L136.062 37.2773ZM143.599 35.3662C142.784 35.219 142.004 35.7607 141.857 36.576C141.71 37.3912 142.251 38.1714 143.066 38.3185L143.599 35.3662ZM147.043 39.1088C147.853 39.2846 148.651 38.7708 148.827 37.9613C149.003 37.1517 148.489 36.3529 147.68 36.1771L147.043 39.1088ZM154.729 37.9357C153.932 37.7108 153.103 38.1748 152.878 38.9721C152.653 39.7694 153.117 40.5981 153.914 40.823L154.729 37.9357ZM157.794 41.9904C158.583 42.2428 159.427 41.8077 159.68 41.0187C159.932 40.2296 159.497 39.3854 158.708 39.133L157.794 41.9904ZM165.563 41.5531C164.791 41.2544 163.922 41.6385 163.623 42.4112C163.324 43.1839 163.709 44.0525 164.481 44.3512L165.563 41.5531ZM168.234 45.8745C168.996 46.1987 169.877 45.8436 170.201 45.0812C170.525 44.3189 170.17 43.4381 169.408 43.1138L168.234 45.8745ZM176.012 46.1481C175.27 45.7812 174.37 46.0858 174.003 46.8286C173.636 47.5713 173.941 48.4709 174.684 48.8378L176.012 46.1481ZM178.287 50.6892C179.018 51.0793 179.926 50.803 180.317 50.0722C180.707 49.3413 180.43 48.4326 179.7 48.0426L178.287 50.6892ZM186.011 51.6318C185.302 51.2034 184.38 51.4309 183.951 52.14C183.523 52.849 183.751 53.7711 184.46 54.1996L186.011 51.6318ZM59.8822 55.2131C60.4014 54.8356 60.9453 54.4533 61.5134 54.0675L59.8278 51.5857C59.2341 51.989 58.6639 52.3897 58.1178 52.7869L59.8822 55.2131ZM67.5134 50.3932C68.6535 49.7602 69.8498 49.1285 71.0997 48.5029L69.757 45.8201C68.4693 46.4646 67.2352 47.1163 66.0572 47.7704L67.5134 50.3932ZM77.5298 45.5555C78.7466 45.0457 79.9998 44.5464 81.2878 44.0607L80.2292 41.2537C78.9073 41.7522 77.6206 42.2648 76.3706 42.7884L77.5298 45.5555ZM87.9953 41.7641C89.2664 41.3717 90.5638 40.9947 91.8864 40.6356L91.1001 37.7404C89.7441 38.1087 88.4138 38.4952 87.1103 38.8977L87.9953 41.7641ZM98.7849 38.9816C100.092 38.7091 101.419 38.4555 102.765 38.2225L102.254 35.2664C100.874 35.5053 99.513 35.7653 98.1728 36.0447L98.7849 38.9816ZM109.792 37.2225C111.121 37.074 112.465 36.9467 113.824 36.8423L113.594 33.8511C112.2 33.9583 110.822 34.0888 109.459 34.241L109.792 37.2225ZM120.897 36.5144C122.236 36.4933 123.586 36.4952 124.948 36.5215L125.006 33.522C123.609 33.4951 122.223 33.4931 120.85 33.5148L120.897 36.5144ZM132.037 36.8779C133.37 36.9863 134.712 37.1191 136.062 37.2773L136.411 34.2976C135.025 34.1353 133.648 33.9991 132.28 33.8878L132.037 36.8779ZM143.066 38.3185C144.385 38.5564 145.711 38.8195 147.043 39.1088L147.68 36.1771C146.313 35.8803 144.952 35.6104 143.599 35.3662L143.066 38.3185ZM153.914 40.823C155.203 41.1865 156.496 41.5754 157.794 41.9904L158.708 39.133C157.377 38.7074 156.051 38.3086 154.729 37.9357L153.914 40.823ZM164.481 44.3512C165.729 44.8336 166.98 45.3411 168.234 45.8745L169.408 43.1138C168.123 42.5674 166.842 42.0475 165.563 41.5531L164.481 44.3512ZM174.684 48.8378C175.883 49.4302 177.084 50.0471 178.287 50.6892L179.7 48.0426C178.469 47.3857 177.24 46.7544 176.012 46.1481L174.684 48.8378ZM184.46 54.1996C185.041 54.551 185.623 54.9085 186.205 55.2722L187.795 52.7278C187.2 52.3563 186.605 51.991 186.011 51.6318L184.46 54.1996Z" fill="#BCDBF0"/>
<defs>
<filter id="filter0_dii_619_9696" x="128.674" y="-1.71869" width="115.652" height="117.935" filterUnits="userSpaceOnUse" color-interpolation-filters="sRGB">
<feFlood flood-opacity="0" result="BackgroundImageFix"/>
<feColorMatrix in="SourceAlpha" type="matrix" values="0 0 0 0 0 0 0 0 0 0 0 0 0 0 0 0 0 0 127 0" result="hardAlpha"/>
<feOffset dy="3.89007"/>
<feGaussianBlur stdDeviation="2.16312"/>
<feComposite in2="hardAlpha" operator="out"/>
<feColorMatrix type="matrix" values="0 0 0 0 0.141958 0 0 0 0 0.104444 0 0 0 0 0.266667 0 0 0 0.1 0"/>
<feBlend mode="normal" in2="BackgroundImageFix" result="effect1_dropShadow_619_9696"/>
<feBlend mode="normal" in="SourceGraphic" in2="effect1_dropShadow_619_9696" result="shape"/>
<feColorMatrix in="SourceAlpha" type="matrix" values="0 0 0 0 0 0 0 0 0 0 0 0 0 0 0 0 0 0 127 0" result="hardAlpha"/>
<feOffset dx="6.21415" dy="-2.33031"/>
<feGaussianBlur stdDeviation="1.55354"/>
<feComposite in2="hardAlpha" operator="arithmetic" k2="-1" k3="1"/>
<feColorMatrix type="matrix" values="0 0 0 0 1 0 0 0 0 1 0 0 0 0 1 0 0 0 1 0"/>
<feBlend mode="normal" in2="shape" result="effect2_innerShadow_619_9696"/>
<feColorMatrix in="SourceAlpha" type="matrix" values="0 0 0 0 0 0 0 0 0 0 0 0 0 0 0 0 0 0 127 0" result="hardAlpha"/>
<feOffset dx="-1.16515" dy="-2.71869"/>
<feGaussianBlur stdDeviation="2.71869"/>
<feComposite in2="hardAlpha" operator="arithmetic" k2="-1" k3="1"/>
<feColorMatrix type="matrix" values="0 0 0 0 0.627451 0 0 0 0 0.658824 0 0 0 0 0.745098 0 0 0 1 0"/>
<feBlend mode="normal" in2="effect2_innerShadow_619_9696" result="effect3_innerShadow_619_9696"/>
</filter>
<filter id="filter1_i_619_9696" x="168.585" y="20.989" width="33.7883" height="64.6704" filterUnits="userSpaceOnUse" color-interpolation-filters="sRGB">
<feFlood flood-opacity="0" result="BackgroundImageFix"/>
<feBlend mode="normal" in="SourceGraphic" in2="BackgroundImageFix" result="shape"/>
<feColorMatrix in="SourceAlpha" type="matrix" values="0 0 0 0 0 0 0 0 0 0 0 0 0 0 0 0 0 0 127 0" result="hardAlpha"/>
<feOffset dx="-0.865247"/>
<feGaussianBlur stdDeviation="1.29787"/>
<feComposite in2="hardAlpha" operator="arithmetic" k2="-1" k3="1"/>
<feColorMatrix type="matrix" values="0 0 0 0 0.627451 0 0 0 0 0.658824 0 0 0 0 0.745098 0 0 0 0.4 0"/>
<feBlend mode="normal" in2="shape" result="effect1_innerShadow_619_9696"/>
</filter>
<filter id="filter2_dii_619_9696" x="0.673765" y="-1.71869" width="115.652" height="117.935" filterUnits="userSpaceOnUse" color-interpolation-filters="sRGB">
<feFlood flood-opacity="0" result="BackgroundImageFix"/>
<feColorMatrix in="SourceAlpha" type="matrix" values="0 0 0 0 0 0 0 0 0 0 0 0 0 0 0 0 0 0 127 0" result="hardAlpha"/>
<feOffset dy="3.89007"/>
<feGaussianBlur stdDeviation="2.16312"/>
<feComposite in2="hardAlpha" operator="out"/>
<feColorMatrix type="matrix" values="0 0 0 0 0.141958 0 0 0 0 0.104444 0 0 0 0 0.266667 0 0 0 0.1 0"/>
<feBlend mode="normal" in2="BackgroundImageFix" result="effect1_dropShadow_619_9696"/>
<feBlend mode="normal" in="SourceGraphic" in2="effect1_dropShadow_619_9696" result="shape"/>
<feColorMatrix in="SourceAlpha" type="matrix" values="0 0 0 0 0 0 0 0 0 0 0 0 0 0 0 0 0 0 127 0" result="hardAlpha"/>
<feOffset dx="6.21415" dy="-2.33031"/>
<feGaussianBlur stdDeviation="1.55354"/>
<feComposite in2="hardAlpha" operator="arithmetic" k2="-1" k3="1"/>
<feColorMatrix type="matrix" values="0 0 0 0 1 0 0 0 0 1 0 0 0 0 1 0 0 0 1 0"/>
<feBlend mode="normal" in2="shape" result="effect2_innerShadow_619_9696"/>
<feColorMatrix in="SourceAlpha" type="matrix" values="0 0 0 0 0 0 0 0 0 0 0 0 0 0 0 0 0 0 127 0" result="hardAlpha"/>
<feOffset dx="-1.16515" dy="-2.71869"/>
<feGaussianBlur stdDeviation="2.71869"/>
<feComposite in2="hardAlpha" operator="arithmetic" k2="-1" k3="1"/>
<feColorMatrix type="matrix" values="0 0 0 0 0.627451 0 0 0 0 0.658824 0 0 0 0 0.745098 0 0 0 1 0"/>
<feBlend mode="normal" in2="effect2_innerShadow_619_9696" result="effect3_innerShadow_619_9696"/>
</filter>
<filter id="filter3_i_619_9696" x="30.3032" y="20.1904" width="49.1315" height="64.5488" filterUnits="userSpaceOnUse" color-interpolation-filters="sRGB">
<feFlood flood-opacity="0" result="BackgroundImageFix"/>
<feBlend mode="normal" in="SourceGraphic" in2="BackgroundImageFix" result="shape"/>
<feColorMatrix in="SourceAlpha" type="matrix" values="0 0 0 0 0 0 0 0 0 0 0 0 0 0 0 0 0 0 127 0" result="hardAlpha"/>
<feOffset dx="-0.865247"/>
<feGaussianBlur stdDeviation="1.29787"/>
<feComposite in2="hardAlpha" operator="arithmetic" k2="-1" k3="1"/>
<feColorMatrix type="matrix" values="0 0 0 0 0.627451 0 0 0 0 0.658824 0 0 0 0 0.745098 0 0 0 0.4 0"/>
<feBlend mode="normal" in2="shape" result="effect1_innerShadow_619_9696"/>
</filter>
</defs>
</svg>
