<svg width="57" height="49" fill="none" xmlns="http://www.w3.org/2000/svg"><g filter="url(#a)" fill="#E2E6F0"><path d="M48.419.447h8.203l-17.068 17.35a15.695 15.695 0 0 1-5.123 3.485 15.63 15.63 0 0 1-12.13 0 15.696 15.696 0 0 1-5.123-3.485L.106.447H8.31L21.28 13.63a9.94 9.94 0 0 0 3.245 2.208 9.896 9.896 0 0 0 7.682 0 9.94 9.94 0 0 0 3.245-2.208L48.419.447ZM8.204 48.699H0L17.176 31.24a15.696 15.696 0 0 1 5.123-3.485 15.63 15.63 0 0 1 12.13 0 15.698 15.698 0 0 1 5.123 3.485L56.727 48.7h-8.203L35.45 35.41a9.939 9.939 0 0 0-3.245-2.208 9.898 9.898 0 0 0-10.927 2.208L8.204 48.699Z"/></g><defs><filter id="a" x="-1.337" y=".447" width="58.065" height="48.251" filterUnits="userSpaceOnUse" color-interpolation-filters="sRGB"><feFlood flood-opacity="0" result="BackgroundImageFix"/><feBlend in="SourceGraphic" in2="BackgroundImageFix" result="shape"/><feColorMatrix in="SourceAlpha" values="0 0 0 0 0 0 0 0 0 0 0 0 0 0 0 0 0 0 127 0" result="hardAlpha"/><feOffset dx="-1.337"/><feGaussianBlur stdDeviation="1.337"/><feComposite in2="hardAlpha" operator="arithmetic" k2="-1" k3="1"/><feColorMatrix values="0 0 0 0 0.3525 0 0 0 0 0.3785 0 0 0 0 0.45 0 0 0 0.4 0"/><feBlend in2="shape" result="effect1_innerShadow_619_7803"/></filter></defs></svg>