<svg width="201" height="40" fill="none" xmlns="http://www.w3.org/2000/svg"><path d="M19.898 20.593c0 3.033-.908 5.572-2.654 7.687-1.884 2.187-4.328 3.245-7.26 3.245-3.002 0-5.376-1.058-7.261-3.245C.908 26.235 0 23.626 0 20.593c0-3.032.908-5.571 2.723-7.687 1.885-2.116 4.328-3.244 7.26-3.244 3.003 0 5.377 1.058 7.261 3.244 1.746 2.116 2.654 4.655 2.654 7.687zm-5.935 0c0-1.34-.349-2.539-.977-3.456-.698-1.057-1.746-1.622-3.072-1.622-1.327 0-2.304.565-3.072 1.622-.628.917-.977 2.116-.977 3.456 0 1.34.349 2.54.977 3.526.698 1.058 1.745 1.622 3.072 1.622 1.326 0 2.304-.564 3.072-1.622.698-.987.977-2.186.977-3.526zm27.368 0c0 2.821-.838 5.29-2.444 7.405-1.745 2.328-3.979 3.456-6.702 3.456-1.955 0-3.56-.564-4.887-1.692 0 .282 0 .846.07 1.904.07.987.07 1.833.07 2.468 0 3.526-1.048 5.36-3.142 5.36-.838 0-1.536-.282-2.095-.917-.558-.635-.837-1.34-.837-2.257V13.188c0-.846.279-1.551.837-2.186.559-.635 1.257-.917 2.095-.917 1.257 0 2.164.635 2.793 1.904 1.256-1.551 2.932-2.327 5.096-2.327 2.723 0 4.957 1.128 6.703 3.456 1.605 2.186 2.443 4.654 2.443 7.475zm-5.934 0c0-1.34-.35-2.539-.978-3.456-.698-1.057-1.745-1.622-3.072-1.622-1.326 0-2.303.565-3.072 1.622-.628.917-.977 2.116-.977 3.456 0 1.34.35 2.54.978 3.526.698 1.058 1.745 1.622 3.071 1.622 1.327 0 2.304-.564 3.072-1.622.629-.987.978-2.186.978-3.526zm27.437-.634c0 .987-.21 1.692-.698 2.045-.489.352-1.187.564-2.164.564H49.29c0 1.128.559 2.045 1.606 2.61.838.493 1.885.705 3.142.705.977 0 2.094-.353 3.49-.988 1.327-.634 2.234-.987 2.584-.987.698 0 1.256.282 1.745.776.489.493.698 1.128.698 1.833 0 1.622-1.187 2.892-3.63 3.809a15.48 15.48 0 01-5.655 1.058c-3.072 0-5.586-1.058-7.47-3.104-1.886-2.045-2.863-4.654-2.863-7.828 0-2.962.977-5.571 3.002-7.687 1.955-2.116 4.468-3.174 7.4-3.174 2.723 0 5.027.988 6.842 3.033 1.746 2.116 2.653 4.513 2.653 7.335zm-5.864-1.552c0-.917-.42-1.763-1.257-2.468-.838-.776-1.675-1.129-2.583-1.129-.908 0-1.815.353-2.583 1.129-.838.775-1.187 1.551-1.187 2.468h7.61zm25.762 9.591c0 .847-.28 1.622-.838 2.257-.558.635-1.257.917-2.094.917-2.095 0-3.072-1.693-3.072-5.007 0-.635.07-1.622.14-3.033.07-1.34.139-2.398.139-3.032 0-3.527-1.117-5.29-3.351-5.29s-3.351 1.763-3.351 5.29c0 .634.07 1.622.07 3.032.07 1.41.14 2.398.14 3.033 0 3.314-1.048 5.007-3.073 5.007-.838 0-1.536-.282-2.094-.917-.559-.635-.838-1.34-.838-2.257v-14.74c0-.846.28-1.621.838-2.186.558-.634 1.256-.916 2.094-.916 1.397 0 2.374.634 2.933 1.904.977-1.552 2.653-2.328 5.096-2.328 2.234 0 4.05.635 5.376 1.764 1.326 1.269 2.025 3.032 2.025 5.289v11.213h-.14zm18.641-.705c0 1.34-.838 2.398-2.583 3.244-1.397.635-2.863.988-4.399.988-3.002 0-5.376-1.058-7.26-3.245-1.816-2.045-2.724-4.654-2.724-7.687 0-3.032.908-5.642 2.723-7.687 1.816-2.116 4.26-3.174 7.191-3.174 1.746 0 3.212.283 4.469.776 1.745.705 2.583 1.763 2.583 3.244 0 .706-.21 1.41-.698 1.975-.419.564-1.048.846-1.746.846-.489 0-1.187-.14-2.094-.493-.908-.353-1.606-.494-2.165-.494-1.396 0-2.513.494-3.281 1.551-.698.917-1.117 2.116-1.117 3.527 0 1.34.35 2.539.977 3.455.699 1.129 1.746 1.622 3.072 1.622.559 0 1.397-.14 2.374-.493 1.047-.353 1.746-.494 2.164-.494.629 0 1.257.282 1.676.846.558.424.838 1.058.838 1.693zm21.503.705c0 .847-.279 1.622-.838 2.257-.558.635-1.256.917-2.094.917-1.257 0-2.234-.635-2.793-1.904-1.257 1.551-2.932 2.327-5.096 2.327-2.723 0-5.027-1.199-6.773-3.456-1.605-2.115-2.373-4.584-2.373-7.405 0-2.82.768-5.29 2.373-7.405 1.746-2.327 4.05-3.456 6.773-3.456 2.164 0 3.839.776 5.096 2.328.559-1.27 1.466-1.904 2.793-1.904.838 0 1.536.282 2.094.916.559.635.838 1.34.838 2.187v14.598zm-5.934-7.405c0-1.34-.349-2.539-.978-3.456-.768-1.057-1.745-1.622-3.072-1.622-1.326 0-2.304.565-3.072 1.622-.628.917-.977 2.116-.977 3.456 0 1.34.349 2.54.977 3.526.768 1.058 1.816 1.622 3.072 1.622 1.327 0 2.304-.564 3.072-1.622.629-.987.978-2.186.978-3.526zm21.014-7.758c0 1.27-.628 2.187-1.815 2.61a65.94 65.94 0 00-3.421 1.199c-1.257.705-1.885 2.045-1.885 3.95v7.334c0 .846-.279 1.622-.838 2.257-.558.634-1.256.916-2.094.916-.838 0-1.606-.282-2.095-.916-.558-.635-.837-1.34-.837-2.257v-14.74c0-.846.279-1.622.837-2.186.559-.635 1.257-.917 2.095-.917 1.396 0 2.374.635 2.932 1.904 1.257-1.551 2.653-2.327 4.119-2.327.838 0 1.536.282 2.164.917.559.634.838 1.41.838 2.256zm15.499.212c0 1.34-.488 2.186-1.536 2.539-.488.211-1.535.282-3.141.282v12.06c0 .846-.28 1.622-.838 2.257-.559.634-1.257.916-2.095.916-.837 0-1.535-.282-2.094-.916-.559-.635-.838-1.34-.838-2.257v-12.06c-1.187 0-2.094-.141-2.653-.494-.768-.423-1.117-1.199-1.117-2.327s.419-1.904 1.187-2.327c.559-.282 1.396-.423 2.653-.423v-2.54c0-3.032.977-4.513 2.932-4.513s2.933 1.481 2.933 4.514v2.539c1.605 0 2.653.07 3.141.282.908.352 1.466 1.199 1.466 2.468zM201 9.45c0-1.833-3.351-2.68-12.078-2.68-20.386 0-25.553-.846-31.138-6.77 2.304 3.526 3.63 10.156 25.204 9.873 22.48-.352 8.796 5.854 4.747 12.906C194.996 16.221 201 11.92 201 9.45zm-28.694 18.83c0 1.693-1.397 3.104-3.072 3.104-1.676 0-3.072-1.411-3.072-3.104 0-1.692 1.396-3.103 3.072-3.103 1.745 0 3.072 1.41 3.072 3.103zm14.103 0c0 1.693-1.397 3.104-3.072 3.104-1.676 0-3.072-1.411-3.072-3.104 0-1.692 1.396-3.103 3.072-3.103 1.675 0 3.072 1.41 3.072 3.103z" fill="url(#paint0_linear_498_2984)"/><defs><linearGradient id="paint0_linear_498_2984" x1="100.422" y1="31.239" x2="100.422" y2=".008" gradientUnits="userSpaceOnUse"><stop stop-color="#04B6F0"/><stop offset="1" stop-color="#3ECAF0"/></linearGradient></defs></svg>