<svg height="283.46" width="283.46" xml:space="preserve" xmlns="http://www.w3.org/2000/svg"><path fill="#D6D4D1" d="M2.835 48.375h277.794v186.714H2.835z"/><path fill="#6AC0E7" d="M5.118 50.646h273.237v182.156H5.118z"/><path fill="#162B74" d="M5.118 50.646h136.619v91.082H5.118z"/><path fill="#FFF" d="M141.737 50.655h-16.419L73.427 85.249 21.536 50.655H5.118v10.95l51.891 34.586-51.891 34.595v10.951h16.418l51.891-34.594 51.891 34.594h16.419v-10.951L89.846 96.191l51.891-34.586z"/><path fill="#E00021" d="M5.118 50.655v5.476l68.309 45.536v-5.476zm136.619 85.607-68.31-45.537v5.466l68.31 45.546z"/><path fill="#E00021" d="M5.118 141.737h8.205l60.104-40.07v-5.476zm128.413-91.082L73.427 90.731V96.2l68.303-45.545z"/><path fill="#DE0023" d="M141.737 88.222H79.123V50.655H67.732v37.567H5.118v15.94h62.614v37.575h11.391v-37.575h62.614z"/><path fill="#FFF" d="M63.175 50.655v33.018H5.118v4.549h62.614V50.655zM5.118 108.72h58.057v33.017h4.557v-37.575H5.118zm136.619-4.558H79.123v37.575h4.557V108.72h58.057zm0-20.489H83.68V50.655h-4.557v37.567h62.614z"/><path d="M210.038 187.274a.53.53 0 0 1-.156-.024c-35.473-13.469-35.361-29.501-35.34-30.176V96.655c0-.251.205-.455.455-.455h70.09a.457.457 0 0 1 .455.455v60.426c.023.667.135 16.7-35.338 30.169a.606.606 0 0 1-.166.024zm-34.586-90.165v59.971c0 .172-.031 16.065 34.586 29.253 34.713-13.229 34.596-29.072 34.596-29.236V97.109h-69.182z"/><path d="M175.452 97.109v59.971c0 .172-.031 16.065 34.586 29.253 34.713-13.229 34.596-29.072 34.596-29.236V97.109h-69.182z" fill="#FFF"/><path d="M244.633 143.8h-29.574v-24.499h29.574V97.109h-69.182v22.192h29.564V143.8h-29.564v10.041h29.564V184.3c1.593.683 3.264 1.357 5.021 2.031a131.093 131.093 0 0 0 5.021-2.031v-30.459h29.573V143.8h.003z" fill="#D11234"/><path d="M195.801 114.768s-.268-.125-.299-1.192c0 0-.143.824-1.265 1.404-1.112.589-4.077 1.538-4.077 1.538s-.902.628-1.053.918c0 0-.947-.463-1.161-.8-.22-.337-1.341-.094-1.679-.557-.346-.463-1.727.313-2.988-.125-1.271-.432-1.805-1.333-1.805-1.333s-.65-.902.268-1.389l.368-1.09.511 1.043.268-1.365.557.683.369-.957.408.792.479-.949.98.557.195 1.389s.926.07 1.099.141c.165.079 1.702.902 1.702.902s.188.219.604-.126c.416-.337 2.385-1.404 2.793-1.459 0 0 .368-1.726.832-2.33 0 0-1.287 0-2.049-.267 0 0-.047-1.506.612-1.898 0 0-1.239-.094-2.118-.581l.268-.267s-1.481-.416-2.135-1.773c0 0-.775.604-1.341.29 0 0 .103.683-.651 1.02l-.588.486-.22-.902-.165.024-.173.706-.636-.439-.164.855-.707-.729-.438-.439.022 1.067-.729-1.114s-.8-.636-.485-1.216c.313-.581.775-.729.775-.729s.416-.729 1.217-.879c.81-.141 1.805-.165 1.805-.165s.048-.588.627-.729c.59-.149 1.728.094 1.728.094s1.923.8 2.8 1.239c.871.439 2.041 1.169 2.889.29.854-.871 1.342-2.188 1.342-2.188s.706-.871.896-.996c0 0 .297-.408.125-1.577-.174-1.169-.338-1.31-.338-1.31s1.719.753 1.844 2.259c0 0 1.437-1.898 3.043-1.875 0 0 .604 1.898.559 3.02 0 0 1.922-.541 2.861.534 0 0-1.459.313-2.887 1.404l-.125.612s.588.997.069 1.796c0 0 .272 1.146 2.188 1.099l.416.36s3.209.659 6.66-.219c3.45-.871 6.174-2.11 6.66-1.647 0 0 2.069-1.004 4.504-1.412 0 0 2.523-.635 4.635-.149 0 0 2.629.926 3.555.533.926-.384 1.355-1.357 1.355-1.357s-.94-.635-.848-1.365c0 0-.729-.997-3.719-.314-2.988.683-7.365 1.632-7.365 1.632s-.684.118-.611.462c.078.337-.047-.486-1.602.142-1.555.635-2.068.753-2.988-.118-.926-.879-1.75-1.341-1.75-1.341s-.076 1.043.291 1.341c0 0-.926.118-2.095-.51-1.161-.635-1.992.243-1.992.243s.222 1.554.753 1.797c0 0-1.679.023-2.26-2.409 0 0-.878.659-1.48-.557-.604-1.216-.902-2.291-.117-3.506 0 0 .021 1.757.648 1.922.637.172 1.703.51 1.703.51s1.654-.188 2.479-.51c0 0 1.311-.486 2.65.172 1.333.659 2.526 1.333 3.624 1.365 1.091.024 4.565-.706 7.101-1.875 2.524-1.169 4.666-.369 4.666-.369s1.694.659 2.158.588c.463-.071.926.118 1.563-1.02.627-1.146.822-1.216.822-1.216s1.459 2.11.824 3.765c0 0 1.678-1.122 2.407.729.729 1.852-.948 2.259-.948 2.259s-.386.047-.072-1.137c0 0-.241-1.122-2.604.941-2.354 2.071-3.277 1.655-3.277 1.655s1.34 1.099 1.701 1.852c.368.753 2.965.337 2.965.337s1.342-.149 1.506-.534c.175-.392 2.535-.149 3.021 1.02.486 1.168.753 2.337.753 2.337s.675.729 1.334.996l.558 1.506s-.896 1.459-1.944 1.412c0 0-.022.894-3.083.8-3.066-.102-3.161-.416-3.044-.926.126-.51.394-1.216 2.581-1.192 2.188.024 1.654-.824 1.654-.824s-1.506-.996-1.191-2.385c0 0-2.018 1.898-3.984 1.412-1.97-.486-1.507-1.922-1.507-1.922s-.782 1.631-1.944-.071c-1.168-1.702-1.004-1.436-1.004-1.436s.658 1.969-.234 2.722c0 0-1.217-.172-1.727-1.945 0 0 0 2.847-2.023 1.773 0 0-.117.776.973 1.192 1.1.416 1.1 1.388.268 1.796-.824.416-1.623 1.483-1.623 1.483s-3.578 1.828-5.594 1.726c-2.017-.094-2.604-.847-2.604-.847s-1.335-.996-1.404-1.82c0 0-.811-1.294 0-2.024.801-.729 1.944-.996 2.354-.894.414.094 1.021.533 1.216.949.194.408.948 1.506 1.585 1.647 0 0 1.355.565 1.865-.431.512-1.004-.289-1.757-.289-1.757s-.729-.894-1.481-.776c0 0-1.146-1.506.172-2.816 1.312-1.318 3.326-.729 3.326-.729s1.238.047 1.459-.102c.222-.141-1.481-.894-3.14-.455-1.645.432-2.965 2.456-2.965 2.456s-.939.824-1.601.627c0 0-.394.926-1.169.777 0 0-1.922 1.726-3.568 1.679 0 0-.346.659-.974.557 0 0-.103.463-1.146.267 0 0-1.944 1.318-4.52.486l-.104.275s-.948.047-1.285-.463l-.049.533s-.484-.267-.563-.659l-.405-.047s-.879-.267-1.123-.51l.51.973-.385-.023s-.125 1.138-.268 1.169c-.146.023-1.459-.322-2.188-2.22 0 0-.51.753-2.143 1.216" fill="#FFD103"/><path fill="#FFF" d="m182.019 107.073-.849.367-.517.362-.258.298-.126.258-.047.276.047.156-.142.228-.188.533-.064.595.072.472.165.486.219.346-.039.306.023.328.182.284.328.266.338.22.314.141.305.102.353-.887.432.84.071.039.298-1.223.509.634.377-.862.408.612.479-.8.894.446.133.142.063.761.338-.157.399-.392.118-.519-.087-.32.33-.558.109-.525.009-.526-.149-.556-.164-.338-.151-.158-.015-.344-.039-.329-.321-.425-.502-.313-.361-.213-.408.347-.219-.903-.165.024-.173.706-.637-.44-.164.856-.705-.731-.424.064-.031.477z"/><path d="M239.73 112.548a.07.07 0 0 0-.047-.047c-.58-.235-1.192-.855-1.295-.965a16.759 16.759 0 0 0-.753-2.322c-.368-.894-1.711-1.239-2.471-1.247-.213 0-.604.031-.69.228-.108.251-.94.432-1.451.486-.706.11-2.597.274-2.871-.298-.29-.581-1.121-1.35-1.514-1.695.446-.008 1.411-.251 3.075-1.71 1.396-1.224 2-1.279 2.242-1.2a.316.316 0 0 1 .213.196c-.158.588-.158.973-.018 1.137.078.094.174.086.196.079.03 0 .714-.181 1.034-.8.221-.423.211-.957-.03-1.569-.222-.565-.558-.917-.988-1.051-.532-.165-1.073.04-1.35.173.454-1.632-.849-3.554-.902-3.632a.087.087 0 0 0-.103-.032c-.047.016-.268.165-.862 1.255-.511.91-.888.934-1.255.957-.086 0-.165.008-.243.016-.369.063-1.653-.392-2.126-.573-.018-.008-2.195-.808-4.729.361-2.549 1.177-5.938 1.867-7.015 1.867h-.047c-.926-.023-1.953-.534-3.044-1.083-.182-.086-.359-.181-.541-.267-1.355-.667-2.667-.196-2.714-.18-.771.298-2.269.486-2.447.51a45.455 45.455 0 0 0-1.688-.51c-.471-.125-.588-1.373-.596-1.843 0-.032-.023-.063-.063-.079a.083.083 0 0 0-.088.039c-.783 1.216-.518 2.314.117 3.577.213.432.479.683.801.761.299.071.564-.031.697-.102.612 2.33 2.27 2.354 2.314 2.354.039 0 .078-.023.086-.063s-.016-.079-.047-.094c-.393-.181-.637-1.248-.706-1.694.157-.141.879-.738 1.867-.196 1.177.635 2.103.526 2.142.518a.073.073 0 0 0 .07-.063.078.078 0 0 0-.031-.086c-.234-.188-.268-.784-.268-1.129.26.165.918.588 1.617 1.255.979.926 1.561.761 3.082.141.494-.204 1.151-.376 1.506-.086.022.016.07.047.125.016.057-.031.039-.086.031-.141l-.009-.032a.17.17 0 0 1 .022-.118c.096-.141.408-.219.521-.243a816 816 0 0 0 7.364-1.631c2.636-.596 3.482.125 3.615.267-.055.651.619 1.2.832 1.357-.109.22-.532.941-1.285 1.263-.889.369-3.469-.534-3.499-.542-2.109-.486-4.659.141-4.677.141-2.213.377-4.148 1.248-4.471 1.396-.386-.251-1.459.086-3.191.644a60.67 60.67 0 0 1-3.5 1.027c-3.247.824-6.322.274-6.604.22l-.397-.345c-.008-.016-.031-.023-.057-.023-1.662.039-2.039-.816-2.095-.997.455-.761.017-1.655-.078-1.828l.109-.549c1.396-1.051 2.823-1.373 2.84-1.373a.104.104 0 0 0 .056-.055c.016-.032.008-.063-.017-.079-.849-.965-2.416-.69-2.841-.588.009-1.129-.541-2.855-.563-2.934-.017-.047-.069-.055-.108-.055-1.365 0-2.573 1.294-2.957 1.75-.243-1.404-1.797-2.103-1.867-2.134-.039-.016-.086-.008-.109.031-.016.032-.016.079.016.102.01.008.156.188.322 1.263.143 1.012-.063 1.443-.103 1.514-.22.157-.832.918-.901 1.004-.009.008-.017.016-.017.023-.009.008-.486 1.302-1.317 2.157-.73.753-1.703.251-2.558-.188-.079-.039-.165-.078-.243-.118-.863-.439-2.777-1.239-2.816-1.247-.047-.008-1.16-.243-1.758-.102-.51.133-.643.557-.682.729-.243.016-1.066.047-1.75.173-.745.133-1.168.753-1.256.886-.108.047-.51.235-.791.761-.33.604.393 1.224.494 1.31l.297.455c-.281.094-1.553.557-1.756 1.341a.805.805 0 0 0 .008.384c-.031.047-.91 1.342.063 2.722a.025.025 0 0 0 .016.008 1.009 1.009 0 0 0-.047.455c.078.486.572.902 1.477 1.231l-.008.024c-.268.149-.434.345-.486.588-.107.447.204.887.212.895.022.039.563.934 1.845 1.373.684.235 1.396.133 1.961.047.479-.071.861-.133.987.047.204.274.638.33 1.021.369.283.032.582.063.66.188.228.353 1.16.808 1.199.832.039.016.086 0 .108-.04.108-.219.753-.706 1.005-.886.211-.063 3.014-.973 4.087-1.53.675-.353 1.005-.792 1.17-1.098.069.729.267.855.313.878.039.016.078.008.102-.023.016.008.039.008.057.008 1.277-.369 1.873-.902 2.086-1.137.736 1.781 1.983 2.134 2.211 2.134h.018c.057-.008.204-.032.33-1.161l.313.016c.022 0 .056-.008.069-.031a.107.107 0 0 0 .009-.086l-.359-.69c.345.188.847.337.887.345l.354.047c.109.385.563.644.588.651.023.016.049.016.08 0 .021-.016.039-.039.039-.063l.029-.346c.426.385 1.192.346 1.231.346.03 0 .063-.024.069-.055l.07-.188c2.377.722 4.236-.345 4.487-.502.839.141 1.104-.133 1.176-.267h.079c.502 0 .8-.423.895-.565h.018c1.563 0 3.277-1.451 3.527-1.679.685.11 1.084-.557 1.192-.769.675.133 1.569-.627 1.608-.667 0 0 .016-.008.016-.016.016-.016 1.318-1.992 2.918-2.416 1.404-.376 2.809.133 3.028.33-.22.079-.935.079-1.351.07-.017-.008-2.078-.588-3.412.746-1.351 1.349-.188 2.918-.172 2.934.016.023.047.031.077.031.698-.118 1.396.737 1.412.753.031.031.753.722.272 1.655-.471.918-1.717.416-1.779.393-.598-.134-1.341-1.216-1.521-1.608-.213-.447-.849-.894-1.271-.996-.463-.102-1.642.196-2.433.926-.746.667-.221 1.749-.063 2.047 0 .023.018.039.031.055.095.824 1.313 1.765 1.438 1.859.077.094.721.776 2.657.871.05 0 .104.008.165.008 2.032-.008 5.316-1.671 5.46-1.741.017-.008.022-.016.031-.024.008-.016.8-1.059 1.603-1.459.413-.212.648-.565.635-.941-.023-.431-.354-.8-.91-1.012-.771-.291-.901-.761-.918-.98.494.235.91.251 1.248.055.51-.314.683-1.067.736-1.545.571 1.443 1.615 1.608 1.662 1.608.021.008.049 0 .063-.016.676-.565.533-1.726.394-2.369.147.22.376.549.729 1.067.394.564.785.847 1.178.808.313-.023.549-.235.706-.431 0 .196.039.455.18.714.252.447.729.761 1.437.934 1.681.416 3.351-.824 3.893-1.279-.126 1.239 1.074 2.11 1.247 2.228.017.039.069.172 0 .298-.086.149-.394.392-1.506.392h-.089c-2.068-.023-2.492.588-2.657 1.255-.039.157-.063.337.055.494.165.212.581.376 1.914.471l.022.008h.023c.313.016.682.039 1.105.047 1.914.063 2.675-.267 2.98-.549a.66.66 0 0 0 .172-.251c1.053-.008 1.914-1.389 1.944-1.452a.072.072 0 0 0 .009-.07l-.551-1.509zm-44.478-14.034c.453.259 1.49.957 1.584 2.087 0 .031.021.063.056.07.03.008.069 0 .086-.031.017-.016 1.396-1.812 2.918-1.835.094.321.58 1.945.533 2.926a.13.13 0 0 0 .03.071c.022.016.049.016.08.016.016-.008 1.748-.479 2.683.408a8.648 8.648 0 0 0-2.724 1.341c-1.818-2.345-4.598-2.439-5.074-2.439.078-.204.188-.667.063-1.499a6.356 6.356 0 0 0-.235-1.115zm.079 2.777h.025c.03 0 3.112-.118 5.044 2.408l-.086.455-.291.047c-1.732-1.954-4.563-2.322-5.191-2.385.208-.242.42-.47.499-.525zm2.109 4.086c-.039-.031-.087-.023-.118.016-.022.031-.016.086.017.118 0 0 .455.337.479.847.017.353-.164.698-.541 1.035-1.198 1.083-2.36.627-2.407.612-.009-.008-.871-.392-1.005-1.78.07.133.165.219.261.282 0 .063.029.941.774 1.294.165.078.308.11.438.11.494 0 .744-.439.752-.447v-.008c.018 0 .039.008.057.008.377 0 .697-.141.723-.149.041-.016.057-.071.041-.11-.018-.04-.072-.055-.111-.04 0 0-.65.275-1.105.032-.234-.134-.393-.385-.454-.745a.09.09 0 0 0 .017-.094.089.089 0 0 0-.118-.032c-.25.149-.644.22-.919.04-.272-.173-.391-.557-.344-1.098.039-.408.182-.698.416-.863.359-.243.838-.109.838-.109.047.016.096-.016.11-.063.009-.039-.017-.086-.063-.102 0 0-.397-.11-.782.039-.063-1.09 1.442-1.969 1.459-1.977.017-.008.022-.023.03-.039 1.139.251 2.849.831 4.023 2.165-.031.243-.281 1.631-1.93 2.149 0-.04.008-.079.008-.118-.028-.587-.523-.956-.546-.973zm-3.012 1.241.031.447c.008.04.031.063.063.071a.025.025 0 0 0 .016.008c.039 0 .063-.016.078-.039l.307-.486v-.023c.063-.016.109-.04.164-.063.031.141.07.267.135.384-.018.016-.031.032-.031.055l-.008.572c0 .032.016.063.048.079l.031.008a.078.078 0 0 0 .055-.023l.298-.267c.096.055.196.079.29.102-.103.133-.405.463-.933.212-.542-.259-.651-.855-.676-1.075.046.014.085.029.132.038zm.164.023h.009c.039 0 .078-.016.116-.016l-.108.172-.017-.156zm.762.479a.876.876 0 0 0 .126.125l-.134.11.008-.235zm-.895-4.856c.069-.086.147-.188.233-.29.039 0 .416.031.974.141-.359.228-1.562 1.075-1.437 2.134-.017.008-.022.016-.031.023-.28.188-.446.518-.493.98-.009.086-.009.165-.009.244-.008.008-.016.016-.016.023-.134 2.079 1.065 2.612 1.12 2.636 0 0 .3.118.738.118.494 0 1.168-.141 1.844-.753.313-.282.502-.58.572-.878h.022a2.896 2.896 0 0 0 2.087-2.283l.212-.031c-.017.188-.11.988-.354 1.882-.107.376-.086.69.057.949a.955.955 0 0 0 .299.314c-.188.016-.438-.016-.564-.306-.268-.596-.948-.486-.957-.479-.03 0-.055.024-.063.055s0 .063.022.078c.313.322.313.337.299.447-.01.094-.021.267.078.636.147.564.494.729.744.776-.188.063-.438.11-.644.047a.451.451 0 0 1-.274-.251c-.328-.682-1.224-.776-1.254-.784-.031 0-.063.008-.08.039-.016.023-.016.055-.008.086.243.455.127.714-.156.996-.25.251-.219.855-.194 1.122-1.101-.321-1.027-1.498-1.021-1.545 0-.047-.033-.086-.072-.086a.682.682 0 0 0-.51.141c-.164.133-.259.345-.281.627-.039.526-.723 1.067-1.092 1.326.088-.267.144-.674-.188-.996-.455-.439-.447-1.749-.447-1.757 0-.047-.031-.086-.078-.086-.048-.008-.078.023-.086.07a.502.502 0 0 1-.221.353c-.376.267-1.098.165-1.303.133-.156-1.122.887-2.102.895-2.118a.086.086 0 0 0 .018-.094.092.092 0 0 0-.08-.047c-.813.094-1.41-.016-1.725-.329a.776.776 0 0 1-.236-.486c.599.267 1.14.306 1.609.118.76-.306 1.059-1.09 1.065-1.122v-.008c.594-.778.94-1.647.986-1.765zm-13.171 3.059c.291-.541.723-.69.723-.69a.093.093 0 0 0 .049-.039c.008-.008.406-.698 1.158-.832.785-.141 1.781-.172 1.781-.172.047 0 .086-.032.086-.071 0-.008.057-.525.574-.659.557-.142 1.662.094 1.662.094.031.008 1.938.808 2.801 1.24.078.039.156.078.242.118.77.4 1.702.871 2.479.369a1.6 1.6 0 0 1-.493.321c-.454.188-.996.125-1.601-.172a.073.073 0 0 0-.069.008c-.023.008-.04.031-.05.063 0 .016-.039.416.291.746.096.094.213.165.347.228l.008.581a2.19 2.19 0 0 1-.871-.22c-.03-.016-.077-.016-.103.016-.022.023-.03.063-.008.102.133.219.336.62.307.761-.021.086-.479.204-.979.251-.188-.063-1.42-.494-2.023-1.663.234-.172.736-.588.722-.925-.008-.047-.039-.079-.087-.079h-.008c-.039 0-.078.039-.078.086.016.227-.393.604-.689.823h-.022c-.009.008-.737.573-1.247.283a.114.114 0 0 0-.087.008.077.077 0 0 0-.031.079c0 .023.063.588-.557.902a.919.919 0 0 0-.729-.392c-.463-.753.36-1.318.4-1.342.029-.023.047-.07.021-.109-.021-.04-.078-.047-.117-.024-.008.008-.926.628-.502 1.467-.597-.032-.801.204-.861.306-.018-.008-.023-.008-.023-.008h-.009c-.008-.008-.502-.753-.313-1.326.086-.251.297-.439.637-.557a.089.089 0 0 0 .047-.109c-.018-.04-.063-.063-.104-.047-.385.133-.636.353-.737.659-.163.518.118 1.106.261 1.349-.252.008-.511.102-.62.141l-.394-.392h-.008c-.008-.023-.017-.031-.03-.047 0-.016.008-.023 0-.031 0 0-.261-.667-.022-1.083.096-.172.26-.274.493-.322a.082.082 0 0 0 .063-.094c-.008-.047-.047-.079-.094-.063-.281.047-.486.181-.611.4-.195.353-.104.824-.031 1.067-.221-.039-.471.094-.486.094v.008c-.097-.074-.724-.616-.458-1.102zm9.492 4.872c0 .039.023.063.055.078.612.212 1.547.259 1.914.267-.384.627-.674 1.898-.735 2.181-.533.133-2.386 1.145-2.784 1.467-.338.282-.484.141-.494.133 0-.008-.008-.016-.008-.016-.071-.039-1.546-.832-1.721-.902-.154-.07-.83-.133-1.051-.149l-.063-.392c.195-.094.745-.416.822-.934a.884.884 0 0 0-.063-.486c.974-1.38.009-2.738 0-2.753 0 0-.008 0-.008-.008a1.175 1.175 0 0 0-.022-.479c-.195-.604-.896-.965-1.168-1.075l.076-.071c.58-.267.684-.729.698-.965.472.165 1.021-.157 1.226-.298.57 1.09 1.639 1.553 2.016 1.687l-.172.173a.109.109 0 0 0-.023.07c0 .031.016.047.039.063.684.377 1.561.526 1.945.573-.51.533-.479 1.781-.479 1.836zm-8.653 2.164.386.784c-.142.063-.464.173-.667.055l.281-.839zm1.193.125a3.355 3.355 0 0 0-.565.447l.183-.918.382.471zm-2.909-2.509c0-.816 1.363-1.475 3.051-1.475s3.053.659 3.053 1.475c0 .596-.737 1.106-1.788 1.333-.017 0-.031-.008-.047 0-.019 0-.024.016-.032.023-.368.079-.77.118-1.186.118-1.688.001-3.051-.658-3.051-1.474zm6.179-1.076c.188.33.652 1.333-.03 2.369a1.662 1.662 0 0 0-.353-.432c.297-.251.471-.541.471-.863 0-.243-.104-.479-.29-.69.093-.124.155-.258.202-.384zm-2.054 2.621-.313.627-.29-.549a6.22 6.22 0 0 0 .603-.078zm-.455.713a1.86 1.86 0 0 0-.484.125l.229-.612.255.487zm.651-.736.597.345c-.361.04-.689.173-.902.283l.305-.628zm.22-.063c.447-.118.84-.291 1.129-.494.361.337.526.659.479.965-.07.4-.485.674-.688.785l-.104-.753c-.008-.031-.023-.055-.039-.063l-.777-.44zm-2.612-4.103-.51-.777c.078-.039.267-.11.392-.07a.176.176 0 0 1 .103.094l.008.455s-.008.023-.008.04c0 0 .008.008.008.016l.007.242zm.149-.581.18.18-.172.032-.008-.212zm1.129.181-.125.612-.51-.525c.172-.063.432-.126.635-.087zm1.757.04-.416.353-.164-.667c.142 0 .4.063.58.314zm-.949-.33-.133.525-.434-.306c.034-.047.16-.203.567-.219zm-4.088 1.75c.188-.737 1.563-1.2 1.688-1.24l.329.51c.022.031.063.047.095.031a.077.077 0 0 0 .063-.079l-.018-.486.307-.055.684.698a.087.087 0 0 0 .086.024c.031-.008.049-.032.057-.063l.142-.729.532.369c.023.016.048.016.078.008.022-.008.049-.031.049-.055l.156-.651.039-.008.203.824c.008.031.022.055.055.063.023.008.057 0 .08-.016l.353-.29c.118.047.957.392 1.153 1.012.086.283.016.588-.196.91-.541-.502-1.584-.832-2.808-.832-1.248 0-2.309.345-2.84.855-.253-.275-.356-.543-.287-.8zm-.086.547c.056.125.143.251.252.376-.166.204-.26.424-.26.659 0 .322.174.612.471.863-.086.071-.25.235-.377.463-.705-1.066-.266-2.038-.086-2.361zm.127 2.958c-.071-.486.392-.895.471-.957.58.408 1.521.674 2.611.674.078 0 .156 0 .233-.008l-.272.738-.471-.573c-.018-.023-.057-.039-.078-.031-.031.008-.063.031-.063.063l-.22 1.122-.408-.824a.08.08 0 0 0-.07-.047h-.008c-.031.008-.063.023-.07.063l-.299.878c-.831-.306-1.285-.682-1.356-1.098zm13.821 3.013c-1.098.573-4.039 1.514-4.07 1.53l-.017.008c-.094.063-.808.573-1.026.886-.299-.157-.918-.502-1.076-.745-.115-.188-.422-.22-.774-.259-.345-.039-.735-.079-.899-.298-.188-.259-.612-.196-1.146-.118-.55.086-1.238.188-1.883-.039-1.217-.416-1.749-1.287-1.758-1.302-.008-.008-.282-.392-.195-.769.047-.196.182-.353.398-.479a.57.57 0 0 0 .313.094c.211 0 .424-.086.524-.134.156.22.689 1.067.502 1.562a.075.075 0 0 0 .048.102c.008.008.016.008.03.008a.074.074 0 0 0 .07-.055c.229-.581-.354-1.482-.511-1.71.087-.102.321-.33.573-.502 0 .486.07 1.882.839 1.961h.008a.093.093 0 0 0 .087-.071.093.093 0 0 0-.078-.094c-.604-.063-.705-1.341-.688-1.898l.016-.008c.354-.18.675-.188.697-.188l.019.008c.021.392.154 1.781.752 1.993a.025.025 0 0 0 .016.008c.048 0 .078-.023.087-.055.017-.047 0-.094-.048-.11-.463-.165-.619-1.373-.645-1.882.188-.118.676-.361 1.178-.361h.056l.016.008.11.784a.108.108 0 0 0 0 .071s.008 0 .008.008l.07.479c.008.039.039.071.07.071.354.031.957.094 1.073.141a63.97 63.97 0 0 1 1.681.894c.055.047.297.212.713-.125.425-.353 2.33-1.38 2.738-1.443.063.023.338.102.848.102.596 0 1.498-.11 2.729-.542-.125.322-.195.855-.22 1.114 0 0-.009 0-.009.008s-.158.79-1.226 1.347zm9.539-.227h-.008c-.204 0-.895-.031-1.152-.424a.09.09 0 0 0-.095-.039c-.03.008-.055.039-.063.079l-.029.4c-.143-.102-.36-.298-.407-.533-.008-.031-.039-.063-.069-.063l-.399-.047c-.235-.071-.896-.306-1.083-.494 0 0-.016-.008-.031-.008-.792-.895-.98-2.181-.98-2.189-.008-.047-.047-.078-.094-.07-.047 0-.078.047-.07.094.009.055.195 1.396 1.074 2.33l.408.784-.244-.016c-.047.008-.078.032-.086.079-.047.455-.141.996-.212 1.09-.196-.008-1.403-.4-2.086-2.157-.009-.031-.032-.047-.063-.055-.029 0-.063.008-.077.039 0 0-.519.729-2.095 1.177a.081.081 0 0 0-.039.031c-.039-.031-.221-.235-.244-1.083.057-.557.188-1.177.3-1.239a.562.562 0 0 0 .407-.228c.117-.173.117-.416.009-.737a.086.086 0 0 0-.108-.047.09.09 0 0 0-.049.11c.096.259.096.455.018.581-.104.149-.308.157-.308.157s-.017 0-.022.008c-2.188.8-3.373.596-3.654.525.078-.337.4-1.71.792-2.228.022-.023.022-.055.008-.086-.017-.023-.039-.047-.069-.047-.017 0-1.225 0-1.961-.243 0-.267.03-1.443.563-1.765a.078.078 0 0 0 .038-.086c-.008-.04-.038-.063-.069-.063-.017 0-1.146-.094-1.983-.525l.172-.173c.369-.031 1.043-.125 1.1-.369.03-.172-.095-.463-.204-.667.416.149.784.133.802.133.047 0 .086-.04.078-.086l-.009-.596c.298.102.667.141 1.121.11-.308.345-.938 1.192-.774 2.157.008.031.029.063.063.071.039.008.988.196 1.49-.149.056-.039.095-.086.133-.125.031.439.143 1.185.486 1.53.433.416.07 1.02.057 1.051-.023.031-.018.07.008.102.016.016.039.023.055.023s.031-.008.047-.016c.056-.032 1.342-.792 1.404-1.608.016-.227.086-.4.213-.502a.598.598 0 0 1 .313-.118c0 .322.094 1.404 1.263 1.671.03 0 .063-.008.079-.023.023-.016.031-.047.023-.071-.031-.235-.08-.894.133-1.114.242-.235.455-.549.259-1.043.251.063.761.228.974.675a.611.611 0 0 0 .368.33c.455.149 1.06-.173 1.082-.188.04-.016.056-.07.032-.11-.016-.023-.04-.031-.063-.039-.018-.016-.049-.031-.078-.023-.023 0-.651.125-.863-.659-.086-.345-.078-.486-.063-.588.008-.149-.009-.212-.221-.431a.67.67 0 0 1 .598.392c.211.494.744.432.987.337a.1.1 0 0 0 .056-.086c-.009-.031-.031-.063-.063-.07 0 0-.267-.079-.425-.345-.116-.212-.133-.487-.039-.816.189-.69.291-1.31.33-1.663.134.337.281.934-.039 1.443-.016.023-.016.047-.016.07.016.047.297 1.153 2.148 1.153h.086l.393.345c.017.008.023.016.039.016.016.008.494.102 1.278.173l.173.188-.188.094c-.023.016-.047.047-.039.086 0 .031.021.055.055.07 2.307.706 3.021 1.467 3.162 1.647-.762 1.192-3.405.533-3.43.525-.023-.008-.047 0-.063.008-.762-.784-1.788-1.545-3.122-1.938-.047-.016-.094.008-.104.055-.016.039.01.086.057.102 3.025.894 4.463 3.734 4.736 4.33h-.32c-3.027 0-3.365-1.734-3.373-1.812-.009-.047-.057-.079-.095-.071a.087.087 0 0 0-.069.102c0 .008.146.792 1.064 1.357 0 .023.009.047.018.063.29.376 1.035 1.436 1.043 1.882l-.086.196zm34.578.729h-.047c-.055 0-.086.031-.086.079 0 .008-.087.729-2.559.729-.143 0-.289 0-.446-.008-.399-.008-.753-.032-1.066-.047-.022-.125-.063-.423.095-.674.125-.204.36-.337.689-.392.047 0 .078-.047.07-.094-.008-.04-.055-.071-.094-.063-.387.055-.66.212-.811.463-.172.274-.146.581-.125.745a9.215 9.215 0 0 1-.879-.094c0-.165.063-.997.926-1.177.049-.008.078-.047.07-.094-.01-.047-.057-.071-.104-.063-.926.188-1.043 1.051-1.059 1.302-.354-.07-.564-.165-.65-.274-.07-.094-.063-.204-.022-.361.094-.392.267-1.122 2.385-1.122h.108c.966.008 1.555-.149 1.732-.479.135-.235-.008-.471-.008-.479a.51.51 0 0 1-.023-.024c-.016-.008-1.459-.98-1.16-2.298.01-.031-.008-.07-.039-.086-.03-.016-.069-.016-.094.008-.022.023-2.01 1.867-3.914 1.396-.66-.165-1.105-.455-1.334-.855-.268-.479-.119-.957-.108-.965a.089.089 0 0 0-.058-.102c-.039-.016-.086 0-.102.039 0 0-.298.62-.775.659h-.049c-.313 0-.643-.251-.979-.737-.604-.887-.862-1.255-.979-1.404 0-.008 0-.008-.01-.016 0 0-.008-.016-.008-.023l-.018.008c-.055-.071-.078-.055-.102-.039-.031.023-.039.078-.031.109.008.024.619 1.883-.188 2.612-.196-.047-1.178-.329-1.616-1.882-.017-.04-.056-.063-.095-.055-.038 0-.07.039-.07.079 0 .016-.008 1.404-.689 1.82-.307.181-.713.141-1.207-.118-.023-.016-.057-.016-.07 0a.062.062 0 0 0-.049.063c0 .008-.116.847 1.027 1.278.486.188.785.502.801.863.018.314-.188.604-.541.785-.793.392-1.545 1.349-1.646 1.49-.26.134-3.452 1.71-5.382 1.71h-.157c-1.938-.094-2.532-.816-2.532-.824l-.017-.008s-.063-.055-.147-.118c0-.008.008-.008 0-.016-.01-.039-.291-.91.479-1.388.039-.023.055-.071.031-.11-.024-.039-.078-.055-.117-.031-.645.4-.645 1.043-.59 1.373-.393-.345-.987-.949-1.034-1.475 0-.016-.009-.031-.009-.039l-.017-.016c.147-.471.58-1.545 1.027-1.647.047-.008.069-.055.063-.094-.009-.047-.056-.079-.095-.063-.524.109-.94 1.137-1.099 1.592-.182-.384-.446-1.185.103-1.687.698-.636 1.646-.895 2.11-.895.068 0 .125.008.173.016.384.086.974.502 1.16.902.202.439.965 1.545 1.624 1.694.008.008 1.438.573 1.979-.479.532-1.036-.308-1.835-.308-1.835-.031-.04-.729-.895-1.507-.816-.164-.243-.94-1.538.189-2.675 1.264-1.263 3.231-.714 3.271-.706.212.008 1.278.047 1.506-.11.058-.031.069-.094.048-.157-.134-.282-1.758-.847-3.248-.455-1.624.431-2.896 2.306-3.013 2.479-.095.086-.938.777-1.515.612-.039-.016-.086.008-.103.047 0 .008-.377.863-1.075.729a.073.073 0 0 0-.07.016c-.016.023-1.857 1.663-3.451 1.663h-.063a.097.097 0 0 0-.078.039c0 .008-.313.604-.887.518-.039-.008-.078.023-.094.063 0 0-.102.376-1.043.204-.023 0-.049 0-.063.016-.017.008-1.913 1.263-4.399.486-.055-.479-.637-1.333-.918-1.726.518.251 1.224.423 2.188.423.143 0 .283 0 .432-.008.031 0 .057-.016.063-.039a.087.087 0 0 0 .017-.071c-.017-.023-.502-1.216-1.601-2.408.274.055.839.165 1.451.165.784 0 1.647-.172 2.038-.847a.103.103 0 0 0-.008-.086c-.017-.032-.549-.895-3.082-1.702l.103-.055a.06.06 0 0 0 .039-.055.071.071 0 0 0-.017-.07l-.133-.141c1.271.094 3.191.102 5.186-.408 1.302-.329 2.471-.698 3.515-1.027 1.562-.502 2.8-.895 3.066-.644a.083.083 0 0 0 .095.016c.016-.008 2.087-.997 4.479-1.404.023-.008 2.533-.62 4.599-.149.108.039 2.667.933 3.606.533.941-.4 1.391-1.365 1.404-1.404.016-.039.008-.078-.031-.102-.008-.008-.9-.612-.814-1.278a.075.075 0 0 0-.01-.063c-.029-.039-.799-1.035-3.805-.345-2.957.667-7.326 1.616-7.365 1.624-.047.008-.471.094-.627.322a.38.38 0 0 0-.056.149c-.346-.181-.862-.133-1.546.141-1.607.659-2.039.722-2.902-.102-.918-.871-1.756-1.341-1.765-1.349a.071.071 0 0 0-.079 0c-.031.016-.047.039-.047.063 0 .039-.055.863.204 1.271h-.022c-.322 0-1.026-.063-1.858-.51-1.208-.651-2.079.251-2.079.251-.031.031-.039.055-.031.079.01.055.174 1.176.564 1.67-.479-.102-1.482-.525-1.913-2.306-.009-.031-.023-.055-.05-.063-.029-.008-.055-.008-.076.016 0 0-.313.22-.666.141-.27-.07-.504-.29-.699-.675-.58-1.168-.822-2.118-.258-3.177.029.525.172 1.569.695 1.71.629.173 1.694.51 1.694.51.017.008.032.008.032.008.078-.008 1.688-.204 2.51-.518 0 0 1.295-.463 2.581.165.188.094.368.188.55.274 1.105.557 2.148 1.075 3.113 1.098h.055c1.231 0 4.676-.769 7.076-1.875 2.463-1.137 4.581-.376 4.604-.369.07.032 1.728.667 2.205.588.078-.008.148-.016.229-.016.395-.031.84-.055 1.391-1.043.424-.769.644-1.043.735-1.137.243.384 1.312 2.196.771 3.616-.018.039-.008.071.021.094.021.023.063.023.096.008.008-.008.729-.479 1.403-.267.386.118.675.439.878.957.229.564.243 1.043.049 1.428-.291.557-.927.722-.927.722s-.022 0-.048-.032c-.039-.063-.125-.282.063-1.012.008-.008.008-.023 0-.039a.478.478 0 0 0-.322-.33c-.479-.157-1.295.251-2.407 1.239-2.272 1.985-3.187 1.64-3.2 1.64-.029-.023-.076-.008-.104.031a.07.07 0 0 0 .023.102c.008.016 1.325 1.09 1.68 1.82.375.792 2.775.432 3.043.392.143-.016 1.39-.165 1.576-.588.023-.047.182-.117.52-.117h.021c.771 0 2 .36 2.322 1.137a15.34 15.34 0 0 1 .745 2.322c.008.016.017.023.022.04.031.031.676.722 1.334 1.004l.533 1.428c-.133.214-.917 1.343-1.796 1.343z"/><path d="M195.715 105.394a1.86 1.86 0 0 0-.59-.125c-.313 0-.346.188-.346.267 0 .423.473.674.494.69.018 0 .359.165.627.165.291 0 .354-.181.369-.283.058-.504-.531-.707-.554-.714zm.187.831c-.228 0-.558-.149-.558-.149s-.399-.212-.399-.541c0-.031 0-.102.181-.102.229 0 .533.11.533.118 0 0 .486.172.447.541-.007.063-.039.133-.204.133zm.911-1.766c-.039.008-.07.055-.063.102.047.228.125.902-.136 1.02-.047.023-.063.071-.047.11a.088.088 0 0 0 .078.047h.022c.438-.196.261-1.106.244-1.216a.09.09 0 0 0-.098-.063zm-.855-.155c-.031.031-.031.078 0 .117a.089.089 0 0 0 .057.024.094.094 0 0 0 .063-.024c.775-.769-.063-1.71-.07-1.718a.079.079 0 0 0-.117-.008.089.089 0 0 0-.01.118c.03.031.743.831.077 1.491zm1.938-.386c.117-.023.235.016.353.125.604.573.941.432.975.416.047-.023.063-.071.037-.11-.016-.039-.063-.063-.102-.039 0 0-.273.102-.8-.393-.157-.141-.321-.196-.494-.165-.424.079-.723.69-.729.714-.022.039 0 .094.039.11a.04.04 0 0 0 .023.008c.039 0 .07-.016.086-.047.07-.155.328-.571.612-.619z"/><path d="M198.545 104.813c.057.016.063.039.063.039.018.023.039.031.057.023.021-.008.029-.031.021-.055 0-.008-.021-.055-.104-.086-.133-.047-.313 0-.558.125-.017.008-.022.008-.039.008l-.463-.329s.11.29.455.337c-.133.055-.251.071-.345.031-.174-.063-.243-.235-.243-.235-.009-.024-.031-.032-.056-.024a.045.045 0 0 0-.023.055c.008.008.087.204.29.282a.365.365 0 0 0 .157.032.712.712 0 0 0 .306-.086c.271-.14.42-.14.482-.117z"/><path d="M198.476 104.357a1.342 1.342 0 0 0-.243-.173c-.367-.227-.861.291-.887.314a.047.047 0 0 0 0 .063c.017.016.039.016.056-.008 0 0 .479-.486.792-.298.094.055.165.118.235.165.141.118.251.212.463.212.063 0 .125-.008.204-.023.023-.008.039-.031.031-.055 0-.016-.023-.032-.047-.032-.307.072-.424-.023-.604-.165zm-2.502-.918c.017.023.017.055.022.079a.224.224 0 0 0-.135-.055.198.198 0 0 0-.165.094c.024-.118.079-.219.079-.219.018-.016.01-.047-.018-.055-.016-.016-.037-.008-.055.016-.009.008-.172.291-.095.542.048.118.142.204.29.267h.018c.017 0 .031-.008.039-.031.008-.016-.008-.04-.031-.047a.39.39 0 0 1-.235-.22v-.047a.19.19 0 0 0 .173.102.201.201 0 0 0 .182-.118 1.422 1.422 0 0 1-.056.306c-.008.024 0 .047.023.055h.016c.017 0 .031-.016.039-.031.086-.251.078-.479-.017-.667-.174-.33-.549-.447-.549-.447-.03-.008-.056 0-.063.023-.009.024.008.047.021.055.006-.001.368.108.517.398z"/><path d="M195.855 104.304h.017c.017 0 .03-.008.039-.024.008-.016 0-.039-.022-.055-.188-.086-.313-.22-.36-.376-.086-.291.086-.588.086-.588.018-.023.01-.047-.016-.063-.018-.008-.039 0-.057.016-.008.016-.194.337-.094.659.054.179.187.329.407.431zm1.899.235c0 .109.095.204.203.204s.195-.094.195-.204-.087-.204-.195-.204-.203.094-.203.204zm-.847 1.592c0-.055-.039-.094-.095-.094s-.103.039-.103.094.047.102.103.102.095-.047.095-.102zm-.048.212c-.055 0-.094.047-.094.102 0 .055.039.102.094.102a.1.1 0 0 0 .103-.102.1.1 0 0 0-.103-.102zm-.258.266a.104.104 0 0 0-.103.102c0 .055.047.094.103.094.055 0 .103-.039.103-.094a.106.106 0 0 0-.103-.102zm0-.305c0-.055-.047-.094-.103-.094s-.103.04-.103.094c0 .063.047.102.103.102s.103-.039.103-.102zm-1.772-1.522c0-.055-.039-.094-.096-.094-.063 0-.102.039-.102.094s.039.102.102.102c.057 0 .096-.048.096-.102z"/><circle cx="194.777" cy="105.057" r=".098"/><path d="M194.475 104.938a.104.104 0 0 0-.102-.102c-.057 0-.096.047-.096.102 0 .055.039.102.096.102a.102.102 0 0 0 .102-.102z"/><circle cx="194.522" cy="105.339" r=".102"/><path d="M183.586 136.678s1.451-.926 1.312-1.53c-7.625-1.993-5.271 3.342-5.271 3.342.619-2.911 3.246-2.008 4-1.687a.524.524 0 0 1-.041-.125z" fill="#1EA451"/><path d="M202.956 124.699c-.416-.267-.988-.173-1.719.29-.291-.063-1.93-.314-2.966 1.953a10.38 10.38 0 0 0-.181.408c-.094-.636-.438-2.165-1.592-3.036a2.891 2.891 0 0 0-1.106-.518c2.464-.792 3.138-1.153 3.169-1.169s.048-.055.048-.094a.102.102 0 0 0-.079-.079c-.023 0-1.826-.251-3.177-.141-1.341.102-2.235.855-3.255 2.04-.504.588-1.021 1.867-1.412 2.997-.299-1.679-1.82-2.926-2.221-3.224.589-.173 1.004-.235 1.004-.235.039-.008.07-.031.078-.063.017-.031.009-.063-.017-.094-.022-.024-.618-.659-2.233-.4l-.008-.008c-.041-.023-.998-.518-2.063-.596a2.226 2.226 0 0 1-1.554-.847c-.023-.039-.07-.047-.109-.039a.103.103 0 0 0-.063.094c.008.023.211 1.945 2.016 2.165-1.264.988-2.307 2.706-2.645 3.294a4.297 4.297 0 0 0-.697-1.702c-1.42-1.985-3.586-1.287-3.664-1.263-.446 0-1.381.149-1.631 1.42-.33 1.64 1.185 3.216 1.246 3.279a.098.098 0 0 0 .07.031s.021-.008.039-.008a.096.096 0 0 0 .049-.102c0-.016-.348-2.196.471-2.707.377-.235.957-.078 1.726.463l.022.008c.291.769.551 1.804.715 3.208a.572.572 0 0 0-.125-.039c-1.412-.283-2.439-.125-3.014.455-.463.462-.463 1.02-.455 1.035-.017.086-.297 2.259.887 2.942.017.016.031.016.048.016.055 0 .095-.04.095-.094 0-.016 0-.031-.009-.039-.039-.196-.267-1.467.354-2.338.336-.471.86-.753 1.561-.832.234-.023.439-.008.636.032.056.125.888 2.079 1.608 2.785.023.298.023.549.023.714-1.664-.165-2.785.141-3.305.941-.753 1.153-.018 2.848.018 2.926a.097.097 0 0 0 .086.055h.008a.1.1 0 0 0 .078-.078c.283-1.326 1.021-2 2.197-2 .666 0 1.293.22 1.631.369.155.471.644.745.809.832.023.549.385.887.525 1.004-.143.557.155.895.267 1.004-.086.917.252 1.49.26 1.522a.1.1 0 0 0 .078.039h.086c.91 0 1.506-.314 1.53-.33.023-.016.039-.031.047-.055.32-.941-.235-1.632-.361-1.773-.031-.753-.359-1.177-.463-1.287-.016-.98-.494-1.333-.666-1.428-.018-.769-.455-1.153-.628-1.279-.173-.815-.563-2.251-1.403-3.404v-.016c0-.008-.252-1.012.219-2.298.479-1.326.541-2.244.551-2.283.126-.196.267-.408.424-.636.52-.769 1.277-1.325 2.04-1.718.219.228 2.832 2.965 2.761 4.307a7.973 7.973 0 0 0-1.718-.432c-.063 0-1.71.126-2.118 1.389-.273.863-.104 1.161.251 1.765.165.29.377.651.612 1.2.706 1.647.65 3.506.65 3.53 0 .031.017.071.047.086a.07.07 0 0 1 .031.008c.03 0 .055-.008.069-.023 1.64-1.255 1.192-5.342 1.065-6.284.386.267.901.879 1.356 1.491-.155.149-.549.565-.563 1.059 0 .267.108.51.338.722-.039.055-.627.973-.109 1.882-.109.228-.564 1.192-.346 1.875-.039.212-.268 1.718.486 2.354.008.008.017.016.03.016.07.031.533.196.909.196.148 0 .29-.023.387-.102.008-.008.016-.016.021-.024.029-.063.839-1.506.328-2.408.078-.235.433-1.38.031-2.141.008-.173.023-1.059-.463-1.718.023-.039.039-.071.055-.102.018.023.039.04.07.04.023 0 .055-.008.07-.032.182-.211.273-.965.204-1.765l.008-.008c.228-.926.69-1.396 1.161-1.632v.008c.023.016 2.156 2.032 1.797 3.671a.092.092 0 0 0 .063.102c.01.008.018.008.031.008.031 0 .063-.024.078-.055.04-.086.918-2.055.377-3.294a1.472 1.472 0 0 0-.854-.824c-.479-.706-1.027-1.098-1.646-1.146a1.912 1.912 0 0 0-.564.055c.127-.549.849-3.397 2.057-4.142.102.04.229.079.368.118 1.067.267 1.647 1.789 1.655 1.804.039.102.91 2.495 1.568 2.997-.369 1.302-.455 2.22-.464 2.236 0 .008.009.008.009.016-.07.055-.143.11-.203.172-1.438 1.342-1.271 3.044-1.256 3.154a21.906 21.906 0 0 0-1.074 1.772c-.832 1.043-.754 1.906-.715 2.126-.689.635-.705 1.875-.705 1.93 0 .008 0 .024.008.032.307.722 1.459.753 1.507.753.03 0 .055-.008.069-.031 1.074-1.13.974-2.236.926-2.502.888-.706.447-1.82.439-1.828 0-.008-.017-.008-.023-.016.195-.573.754-1.882 1.373-1.992.752-.141 1.021.369 1.027.392.008.008.016.023.03.031.009.008 1.364 1.067.94 2.079-.017.039 0 .094.048.109l.03.016c.039 0 .069-.016.086-.047.056-.078 1.225-2 .65-3.138-.229-.455-.705-.722-1.412-.784a1.362 1.362 0 0 0-.604-.604.845.845 0 0 0-.307-.07c.143-.181.424-.557.84-1.231l.009-.008c.125-.016.251-.024.368-.024 2.142 0 3.035 2.22 3.043 2.244.017.039.048.063.086.063h.009a.101.101 0 0 0 .087-.079c.148-1.318-.023-2.306-.533-2.95-.447-.564-.988-.627-1.013-.627h-.009c-.016-.016-.03-.023-.047-.023-.047 0-.541-.023-1.199.078.055-.549.455-3.828 1.701-4.134.613-.157 1.373.455 2.244 1.804.017.031.056.047.094.04.039-.008.064-.04.07-.079.023-.112.446-2.826-.58-3.5zm-19.211-2.464c.266.259.752.62 1.467.675.752.055 1.459.337 1.795.486-.094.016-.164.023-.258.047a3.304 3.304 0 0 0-1.013.502c-1.403-.062-1.851-1.153-1.991-1.71zm-5.084 3.953c-.729.455-.658 1.945-.597 2.597-.394-.486-1.247-1.694-1.004-2.895.243-1.232 1.161-1.294 1.521-1.279.183.016 1.067.188 1.805 1.922-.737-.477-1.318-.595-1.725-.345zm.298-1.67c.666-.102 2.063-.118 3.065 1.287 1.226 1.71.674 4.291.541 4.84a3.95 3.95 0 0 0-1.151-.573c-.494-4.213-1.781-5.28-2.455-5.554zm2.456 6.707c.219.079.424.204.588.376.502.518.697 1.349.776 2.047-.566-.666-1.176-2.006-1.364-2.423zm.494 5.099c-.824 0-1.867.33-2.299 1.859-.165-.479-.408-1.482-.04-2.275.017-.008 1.067-1.208 3.562.62a4.072 4.072 0 0 0-1.223-.204zm1.631.275-.008.008c-1.169-.926-2.203-1.357-3.074-1.279a1.945 1.945 0 0 0-.59.165c.432-.455 1.131-.698 2.118-.698.313 0 .659.031 1.021.07.229.032.463.071.705.118.063.008.127.016.188.032.29.055.589.125.901.204.009.024 0 .047 0 .071-.008.031-.008.055-.016.086-.017.031-.031.07-.048.102l-.047.086v.008a.78.78 0 0 0-.079.102c-.029.04-.055.071-.076.102-.031.031-.07.071-.104.102-.032.031-.063.07-.096.102a1.156 1.156 0 0 0-.108.094c-.04.032-.069.063-.108.094-.039.032-.07.063-.109.094-.039.023-.07.055-.104.079-.039.031-.078.055-.117.086a.34.34 0 0 1-.086.063c-.061.046-.117.077-.163.109zm3.436 4.196c-.134.07-.659.298-1.412.298h-.022c-.069-.141-.26-.612-.213-1.278.104.039.252.086.432.086.097 0 .197-.016.3-.047.259-.079.471-.267.646-.549.151.204.504.754.269 1.49zm-.386-1.662c-.147.29-.344.479-.588.549-.359.11-.697-.07-.713-.078-.031-.031-.36-.306-.244-.824.039 0 .07.008.119.008.258 0 .696-.118 1.072-.769.12.165.339.533.354 1.114zm-.453-1.296c-.479.895-1.053.769-1.114.745a1.197 1.197 0 0 1-.494-.878c.228-.094.935-.432 1.091-1.114.172.118.509.448.517 1.247zm-1.31-2.149.022-.023v-.008c.017-.031.03-.055.048-.079 0-.008.008-.016.008-.023h.008c.008-.016.018-.031.023-.07.008-.008.008-.016.008-.032 0-.008.008-.008.008-.016.008-.008.016-.016.016-.023.01-.016.01-.023.01-.039 0-.008.008-.016.008-.032 0 0 .01-.008.01-.016.18.157.479.51.479 1.122-.078.69-.879 1.035-1.027 1.098-.134-.063-.604-.322-.73-.769l-.016-.039c0-.008 0-.016-.008-.023.023-.008.063-.039.096-.055.008-.008.022-.016.03-.031a.709.709 0 0 0 .095-.063l.094-.071.104-.079.118-.094c.03-.023.063-.055.103-.086.039-.039.078-.071.117-.11.039-.031.07-.063.104-.094.039-.047.078-.086.117-.125.022-.031.055-.071.078-.102.03-.039.055-.07.078-.11-.01.001-.001.001-.001-.008zm-.009-.658c-.204-.047-.399-.086-.596-.133-.11-.024-.235-.055-.347-.079a25.335 25.335 0 0 0-.869-.141c.016-.62-.023-2.322-.871-3.201-.408-.423-.941-.596-1.594-.525-.762.086-1.324.392-1.693.902-.557.785-.486 1.836-.416 2.291-.878-.745-.635-2.628-.627-2.659 0-.008 0-.51.4-.918.531-.533 1.506-.674 2.848-.4 2.511.51 3.451 3.451 3.765 4.863zm-1.153-5.687a4.528 4.528 0 0 0-.272 2.079 5.392 5.392 0 0 0-.667-.659c.04-.157.195-.784.252-1.6.068-.094.393-.542 1.186-1.718a10.02 10.02 0 0 1-.499 1.898zm.996-2.957a121.213 121.213 0 0 1-1.67 2.439 7.238 7.238 0 0 0-.063-1.146c.023-.039 1.914-3.545 3.867-4.055 1.428-.369 2.164-.063 2.455.118-.736.149-3.341.792-4.589 2.644zm2.361-1.702a10.92 10.92 0 0 1 1.232-.495.025.025 0 0 1 .008.016c.023.016 2.102 1.49 2.281 3.436.008.023.017.031.022.047-.251.761-.433 1.396-.494 1.608l-.28-.141c.149-1.366-2.33-4.017-2.769-4.471zm.447 11.648c-.008-.542-.077-2.04-.666-3.405a9.995 9.995 0 0 0-.619-1.224c-.354-.604-.486-.832-.234-1.616.281-.878 1.27-1.153 1.717-1.231.008.008.525.69.629 1.302.005.064.72 4.684-.827 6.174zm2.017-3.467c.009-.4.337-.769.486-.91.384.525.714 1.028.878 1.279v.008s-.148.408-.447.479c-.18.047-.393-.04-.627-.251-.195-.182-.297-.386-.29-.605zm1.38 6.809c-.195.134-.761 0-1.09-.125-.564-.487-.494-1.585-.439-2.016.395.251.738.345 1.014.345.432 0 .722-.204.861-.33.352.768-.267 1.976-.346 2.126zm.299-2.33c-.078.094-.683.753-1.805-.008v-.031c-.212-.588.204-1.491.322-1.734.25.063.479.094.674.094.502 0 .809-.157.91-.212.283.746-.077 1.819-.101 1.891zm.031-2.094c-.008.008 0 .016 0 .031-.031.016-.572.361-1.498.11-.447-.777.008-1.577.078-1.687.188.141.359.211.525.211a.828.828 0 0 0 .148-.016.696.696 0 0 0 .354-.228c.447.661.393 1.571.393 1.579zm-.156-2.064c-.359-.564-1.758-2.675-2.574-3.106-.102-.525-.455-1.059-.596-1.255h.023c.023 0 2.229.29 2.801 1.247.549.903.534 2.589.346 3.114zm2.894-3.373c.338.141.589.376.729.714.338.785.055 1.922-.164 2.589-.117-1.443-1.562-2.902-1.844-3.185.619-.243 1.217-.118 1.256-.11l.023-.008zm-1.742-1.146c.039 0 .078 0 .117.008.525.039 1.013.353 1.436.941-.523-.047-1.896 0-2.479 1.608-.078-.463-.212-.91-.416-1.247a1.624 1.624 0 0 0-.398-.439c.062-.062.822-.871 1.74-.871zm-.635-.077c-.715.243-1.225.808-1.256.839v.008c-.022-.016-.038-.031-.063-.047.07-.243 1.082-3.852 2-4.918 1.013-1.177 1.845-1.875 3.132-1.977.994-.078 2.241.04 2.814.102-.408.181-1.334.549-3.13 1.114-.017 0-.017.016-.017.016a4.573 4.573 0 0 0-1.481.078s-.017 0-.022.008c-.064.031-.174.118-.156.243.016.094.094.181.242.259-1.31.941-2.008 4.055-2.063 4.275zm4.456-2.33c-.023-.063-.62-1.632-1.781-1.922-.644-.157-.674-.298-.674-.298 0-.016.03-.047.055-.063 1.121-.228 2.056-.071 2.776.479 1.389 1.051 1.554 3.177 1.554 3.2 0 .008.009.016.017.023-.205.51-.369.997-.494 1.443-.614-.548-1.445-2.838-1.453-2.862zm-1.53 15.061c-.195-.008-1.061-.086-1.303-.62.008-.149.063-1.177.611-1.726.103.086.398.313.848.313.203 0 .447-.055.697-.204.041.331.049 1.271-.853 2.237zm.878-2.455c-.823.549-1.411.016-1.476-.047 0-.008.009-.008.009-.008-.009-.008-.212-.871.612-1.953.156.141.541.432 1.121.432.063 0 .117 0 .172-.008.08.235.268 1.05-.438 1.584zm3.436-4.841c0-.008-.008-.016-.008-.023.58.071.979.291 1.168.659.36.722-.078 1.851-.393 2.486-.048-.761-.736-1.419-.997-1.647.286-.501.372-1.027.23-1.475zm-.776-.667c.29.141.502.392.604.714.117.392.047.847-.188 1.286-.134-.172-.479-.525-1.169-.4-.814.149-1.42 1.835-1.521 2.142-.039 0-.078.008-.117.008-.549 0-.901-.298-1.021-.408.173-.306 1.026-1.82 1.49-2.275l.118-.11c.502-.485 1.255-1.222 1.804-.957zm2.612-2.691c.008.008.016.024.031.024 0 0 .494.063.895.564.432.549.611 1.381.518 2.487-.353-.659-1.373-2.181-3.287-2.055.634-.768 1.78-1.003 1.843-1.02zm-.707.024c-.479.188-1.09.525-1.45 1.106-.61.988-.935 1.341-.935 1.341s-.008.008-.008.016c-.511.125-1.027.627-1.443 1.028l-.116.118a2.667 2.667 0 0 0-.308.361c0-.502.119-1.765 1.209-2.785.918-.862 2.245-1.113 3.051-1.185zm-.681-.093c-.649.11-1.429.353-2.095.824.07-.526.36-2.385 1.286-4.409.902-1.961 2.212-1.938 2.645-1.867-.166.235-.801 1.161-.91 1.883 0 .016.009.031.009.039-.693 1.192-.904 3.24-.935 3.53zm4.15-2.667c-.863-1.278-1.641-1.843-2.307-1.679-.244.063-.455.228-.646.447.243-.706.824-1.498.824-1.506.008-.008.008-.016.008-.031 0 0 .017.008.022 0 .676-.432 1.199-.542 1.554-.306.764.501.623 2.4.545 3.075z"/><g fill="#964B35"><path d="M185.022 138.583c.063.024.637.149 1.113-.745-.008-.8-.346-1.129-.518-1.247-.156.682-.863 1.02-1.092 1.114.035.533.442.847.497.878z"/><path d="M184.442 137.548c.148-.063.949-.408 1.027-1.098 0-.612-.299-.965-.479-1.122 0 .008-.008.016-.008.016 0 .016-.008.024-.008.032 0 .016 0 .023-.009.039 0 .008-.008.016-.017.023 0 .008-.008.008-.008.016 0 .016 0 .024-.008.032-.009.039-.017.055-.022.07h-.009c0 .008-.008.016-.008.023a.394.394 0 0 0-.048.079v.008l-.021.023c0 .008-.01.008-.01.008-.021.04-.047.071-.078.11-.021.031-.055.071-.078.102a2.043 2.043 0 0 0-.117.125c-.031.031-.063.063-.103.094-.04.039-.079.071-.118.11-.037.031-.068.063-.102.086l-.118.094c-.039.032-.07.055-.103.079l-.096.071c-.031.023-.063.047-.094.063-.008.016-.023.023-.031.031-.031.016-.07.047-.095.055.008.008.008.016.008.023l.017.039c.132.447.603.705.736.769zm1.122 3.546c.753 0 1.278-.228 1.412-.298.235-.737-.117-1.287-.274-1.491-.173.283-.385.471-.644.549a1.037 1.037 0 0 1-.298.047c-.182 0-.329-.047-.432-.086-.049.667.141 1.137.211 1.278l.025.001z"/><path d="M185.29 139.603c.017.008.354.188.713.078.244-.07.439-.259.588-.549-.016-.581-.232-.949-.353-1.114-.376.651-.815.769-1.073.769-.049 0-.08-.008-.119-.008-.117.517.212.793.244.824z"/></g><g fill="#964B35"><path d="M195.338 139.085a1.374 1.374 0 0 1-.698.204c-.447 0-.745-.228-.847-.313-.551.549-.604 1.577-.612 1.726.243.534 1.106.612 1.303.62.901-.967.893-1.907.854-2.237z"/><path d="M195.627 137.289c-.58 0-.965-.291-1.121-.432-.823 1.083-.619 1.945-.611 1.953 0 0-.008 0-.008.008.063.063.65.596 1.475.047.706-.534.518-1.35.439-1.585-.054.009-.111.009-.174.009z"/></g><g fill="#964B35"><path d="M189.486 132.865c-.008.22.095.423.29.604.234.211.447.298.627.251.299-.071.447-.479.447-.479v-.008a30.275 30.275 0 0 0-.878-1.279c-.149.142-.477.511-.486.911z"/><path d="M190.804 133.673a.702.702 0 0 1-.353.228c-.05.008-.097.016-.15.016-.164 0-.336-.07-.524-.211-.069.11-.524.91-.077 1.687.924.251 1.467-.094 1.497-.11 0-.016-.008-.023 0-.031-.001-.01.053-.92-.393-1.579zm-1.444 3.662c1.122.761 1.727.102 1.805.008.023-.071.385-1.145.104-1.891a1.872 1.872 0 0 1-.91.212c-.195 0-.424-.031-.674-.094-.118.243-.534 1.146-.322 1.734-.003.009-.003.025-.003.031z"/><path d="M190.866 139.674c.079-.149.698-1.357.346-2.125-.142.125-.432.33-.861.33-.273 0-.619-.094-1.014-.345-.055.431-.125 1.529.439 2.016.329.124.894.258 1.09.124z"/></g><g fill="#1EA451"><path d="M193.612 123.977c-.023.016-.055.047-.055.063 0 0 .031.141.674.298 1.161.29 1.758 1.859 1.781 1.922.008.023.839 2.314 1.451 2.863.125-.447.289-.933.494-1.443-.008-.008-.018-.016-.018-.023 0-.023-.165-2.149-1.555-3.2-.717-.55-1.651-.707-2.772-.48z"/><path d="M190.301 129.437v-.008c.031-.031.541-.596 1.256-.839.056-.22.753-3.334 2.063-4.275-.147-.078-.228-.165-.242-.259-.017-.125.095-.212.156-.243.008-.008.016-.008.016-.008a4.6 4.6 0 0 1 1.482-.078s.008-.016.023-.016c1.796-.564 2.722-.933 3.13-1.114-.573-.063-1.82-.18-2.815-.102-1.287.102-2.119.8-3.131 1.977-.918 1.067-1.93 4.675-2 4.918.024.016.039.03.062.047zm6.849 1.984c.666-.471 1.442-.714 2.095-.824.031-.291.242-2.338.935-3.53 0-.008-.009-.023-.009-.039.109-.722.744-1.647.91-1.883-.433-.07-1.742-.094-2.645 1.867a16.311 16.311 0 0 0-1.286 4.409z"/><path d="M199.926 130.691c-.807.07-2.133.321-3.051 1.185-1.09 1.02-1.209 2.282-1.209 2.785.109-.149.213-.275.308-.361l.116-.118c.416-.4.935-.902 1.443-1.028v-.008s.329-.361.94-1.349c.363-.579.975-.918 1.453-1.106zm-16.935-1.866c.234-.33.737-1.051 1.67-2.439 1.248-1.852 3.854-2.495 4.59-2.644-.291-.181-1.026-.486-2.455-.118-1.953.51-3.844 4.016-3.866 4.055.053.401.069.785.061 1.146zm-2.448 2.126c.649-.071 1.185.102 1.592.525.849.879.888 2.581.871 3.201.273.039.563.086.871.141.108.023.233.055.346.079.195.047.392.086.596.133-.313-1.412-1.255-4.354-3.765-4.864-1.343-.274-2.314-.133-2.849.4-.399.408-.399.91-.399.918-.009.031-.251 1.914.627 2.659-.07-.455-.142-1.506.416-2.291.368-.509.933-.815 1.694-.901zm-2.479-2.165c-.063-.651-.134-2.142.597-2.597.407-.251.988-.133 1.728.345-.737-1.734-1.624-1.906-1.806-1.922-.359-.016-1.277.047-1.521 1.279-.245 1.201.61 2.409 1.002 2.895z"/><path d="M178.959 124.518c.674.274 1.961 1.341 2.455 5.554.432.134.808.322 1.151.573.133-.549.685-3.13-.541-4.84-1.002-1.405-2.399-1.389-3.065-1.287zm9.312-.313-.017-.016c-.369.125-.793.283-1.231.495.438.455 2.918 3.106 2.771 4.471l.281.141c.063-.212.243-.847.494-1.608-.008-.016-.016-.023-.023-.047-.182-1.946-2.26-3.42-2.275-3.436zm-4.526-1.97c.141.557.588 1.647 1.991 1.71a3.27 3.27 0 0 1 1.013-.502c.094-.023.164-.031.258-.047-.336-.149-1.043-.432-1.795-.486a2.348 2.348 0 0 1-1.467-.675zm10 7.383c-.423-.588-.908-.902-1.436-.941-.039-.008-.078-.008-.117-.008-.918 0-1.679.808-1.74.871.163.133.305.274.398.439.203.337.338.784.416 1.247.581-1.608 1.953-1.656 2.479-1.608zm8.332 4.126c.094-1.106-.087-1.938-.519-2.487-.399-.502-.888-.564-.888-.564-.022 0-.03-.016-.039-.024-.063.016-1.207.251-1.844 1.02 1.917-.126 2.937 1.395 3.29 2.055zm-2.511 3.403c.313-.635.753-1.765.392-2.486-.188-.369-.588-.588-1.168-.659 0 .008.008.016.008.023.143.447.057.973-.229 1.475.26.228.95.887.997 1.647zm3.829-9.216c.078-.674.22-2.573-.542-3.075-.353-.235-.878-.125-1.554.306-.008.008-.016 0-.016 0-.009.016-.009.023-.017.031 0 .008-.581.8-.824 1.506.188-.22.399-.384.646-.447.666-.166 1.443.399 2.307 1.679z"/><path d="M197.268 134.958c.689-.125 1.035.228 1.169.4.235-.439.306-.894.188-1.286a1.174 1.174 0 0 0-.604-.714c-.549-.267-1.302.471-1.804.957l-.118.11c-.464.455-1.317 1.969-1.49 2.275.117.11.472.408 1.021.408.039 0 .078-.008.117-.008.101-.306.705-1.993 1.521-2.142zm-15.853-3.733c.188.416.799 1.757 1.364 2.424-.079-.698-.274-1.529-.776-2.047a1.541 1.541 0 0 0-.588-.377zm6.878-1.066c-.104-.612-.619-1.294-.627-1.302-.447.079-1.438.353-1.72 1.231-.251.785-.116 1.012.235 1.616.173.298.384.667.617 1.224.591 1.365.66 2.863.668 3.405 1.55-1.491.835-6.111.827-6.174zm-4.902 1.262a4.547 4.547 0 0 1 .273-2.079 9.576 9.576 0 0 0 .494-1.898c-.791 1.177-1.113 1.624-1.185 1.718a9.392 9.392 0 0 1-.252 1.6c.246.196.466.424.67.659zm11.272-.895a1.304 1.304 0 0 0-.729-.714l-.023.008c-.039-.008-.636-.133-1.255.11.282.283 1.726 1.742 1.845 3.185.216-.666.499-1.803.162-2.589zm-3.623 2.66c.188-.525.203-2.212-.346-3.114-.572-.957-2.777-1.247-2.801-1.247h-.023c.142.196.494.729.596 1.255.816.432 2.213 2.542 2.574 3.106z"/></g><path d="m239.235 125.303.377.784.502-.337a.084.084 0 0 1 .086-.008c.023.008.047.032.047.063l.104.549.596-.722a.104.104 0 0 1 .097-.031c.029.008.055.04.063.079l.156.988.33-.322c.021-.023.047-.039.078-.023.031 0 .055.023.068.055l.354.965.408-.337a.073.073 0 0 1 .086-.016c.031.008.056.039.063.07l.104.902c.51-.714.447-1.538.431-1.679-1.923-2.644-4.017-3.977-6.22-3.977-3.758 0-6.582 3.93-6.613 3.969-.016.023-.055.039-.086.039-.032-.008-.063-.031-.071-.063-.878-2.274 1.507-3.961 2.126-4.354a1.077 1.077 0 0 0-.406-.086c-1.006 0-1.681 1.584-1.688 1.6-.018.047-.063.063-.107.047-.049-.008-.07-.055-.057-.102l.438-1.71-.619 1.161c-.022.031-.055.055-.094.047-.041-.008-.063-.031-.08-.07l-.392-1.632.039 4.589c.008.04-.017.071-.056.086a.075.075 0 0 1-.094-.023c-2.149-2.165-4.252-3.255-6.27-3.255-3.846 0-6.174 4.016-6.426 4.471l.221.423.675-1.302c.017-.032.039-.047.07-.047.03-.008.058 0 .079.024l.479.494.25-.698c.008-.031.031-.047.055-.055.031-.016.057-.008.078.008l.439.322.313-.494c.01-.023.039-.039.063-.039.031-.008.056.008.078.023l.321.345.242-.518a.116.116 0 0 1 .057-.047c.031-.008.055-.008.078.008l.525.322.241-.557c.009-.031.031-.055.063-.055.033-.008.063.008.088.031l.392.455.354-.698a.087.087 0 0 1 .078-.047c.039-.008.063.016.086.039l.26.463.273-.479c.022-.032.047-.047.077-.047.023.008.063.016.078.04l.308.486.438-.604c.022-.04.069-.047.103-.04.039.016.063.047.063.086v.565l.659-.479a.084.084 0 0 1 .086-.008c.03.015.048.039.057.07l.095.596.533-.471a.072.072 0 0 1 .086-.016c.03.008.055.031.063.063l.133.667.684-.447a.098.098 0 0 1 .094 0c.023.016.049.039.049.07l.047.627.229-.172a.091.091 0 0 1 .078-.016.109.109 0 0 1 .063.055l.27.612.609-.07a.09.09 0 0 1 .094.047l.573 1.161c.017.031.017.07-.008.094-.023.031-.056.039-.097.031-3.355-.855-5.896-.447-7.459 1.216-1.537 1.64-1.711 4.063-1.719 4.918l.573-.949c.017-.023.039-.039.063-.039a.14.14 0 0 1 .078.023l.266.251v-.941c0-.039.017-.07.048-.079.032-.016.071-.016.095 0l.385.283.252-1.224a.107.107 0 0 1 .069-.071c.039 0 .078.016.095.047l.268.416.212-.792a.084.084 0 0 1 .063-.063.11.11 0 0 1 .096.023l.298.369.306-.683a.097.097 0 0 1 .063-.055c.031 0 .057.008.078.023l.354.306.095-.651a.118.118 0 0 1 .055-.07c.031-.008.07-.008.095.016l.571.486.222-.816c.008-.039.03-.063.069-.07.031-.008.063.008.086.031l.354.447.433-.863a.11.11 0 0 1 .063-.055c.031 0 .057.008.078.023l.463.384.047-.682c0-.032.021-.063.049-.079.03-.008.069-.008.094.016l.814.581.118-.439c.017-.023.039-.047.063-.055.031-.016.063-.008.088.016l.345.313.149-.4a.103.103 0 0 1 .068-.055c.031-.008.063.008.086.031l.268.337.729-.479c.018-.008.031-.008.049-.008.022 0 .047.008.063.023l.433.432a.137.137 0 0 1 .022.078.098.098 0 0 1-.055.071c-2.871 1.326-4.668 3.051-5.357 5.13-.588 1.78-.18 3.381.109 4.165l-.109-1.192c0-.031.016-.063.039-.078.021-.023.056-.023.087-.016l.399.141.016-1.114c0-.039.031-.078.078-.086a.081.081 0 0 1 .095.063l.165.494.152-.879c0-.031.033-.063.071-.071.031-.008.07.008.095.04l.182.282.148-1.083c.008-.031.03-.063.063-.071.039-.008.078 0 .094.032l.204.259.018-.863c0-.032.016-.063.047-.079s.063-.016.095 0l.433.251-.033-.785c0-.039.018-.07.041-.086a.098.098 0 0 1 .094 0l.519.306.063-.815c.01-.04.033-.071.072-.079.037-.008.076.008.102.047l.4.683.125-1.145c.008-.047.039-.079.078-.086.039 0 .077.016.094.055l.174.392.447-.815c.016-.04.063-.055.102-.047.039.016.07.055.063.094l-.021.471.995-1.153-.163-.604c-.01-.039.008-.086.038-.102a.091.091 0 0 1 .108.008l.612.542.392-.604a.105.105 0 0 1 .08-.039.08.08 0 0 1 .069.039l.502.737.408-.353c.017-.023.047-.031.077-.023a.083.083 0 0 1 .063.063l.407 1.224.589.094c.039.008.07.047.07.086l.047.926.398-.274a.074.074 0 0 1 .078-.016c.031.008.047.032.056.063l.252.926.313-.353c.022-.023.055-.031.086-.023.03 0 .055.023.069.055l.347.996.485-.07a.075.075 0 0 1 .078.031c.022.023.03.063.017.094l-.4.965.628.384c.03.016.048.055.038.094l-.201.934.431-.157c.022-.008.058-.008.079.008.021.008.039.039.047.063l.143 1.161c2.33-5.578-3.647-9.092-3.711-9.123a.135.135 0 0 1-.039-.055l-.234-.69a.075.075 0 0 1 .023-.094.081.081 0 0 1 .094-.016l.895.408.408-.243a.098.098 0 0 1 .094 0l.737.439.056-.354a.109.109 0 0 1 .063-.07c.039-.008.07 0 .094.031l.533.573v-.384c0-.031.023-.063.055-.079a.085.085 0 0 1 .096.016l.502.455.313-.565c.022-.039.063-.055.095-.047a.1.1 0 0 1 .078.079l.157 1.012.472-.376a.062.062 0 0 1 .069-.023c.03.008.056.023.063.055l.307.659.203-.353c.017-.032.056-.047.096-.04.039.008.063.04.07.079l.094.753.416-.063c.023 0 .055.008.078.023a.132.132 0 0 1 .023.079l-.117.722h.61c.023 0 .048.008.063.023.017.023.031.047.031.07l-.031 1.357.361.267c.022.016.039.039.039.063l.063.62 1.052-.455c-.433-5.036-2.927-6.095-4.94-6.095-.965 0-1.703.251-1.711.259-.031.016-.069 0-.095-.023l-.745-.769c-.022-.032-.031-.071-.016-.102a.092.092 0 0 1 .086-.055l.965.071v-.486c0-.031.023-.063.057-.079.031-.016.069-.008.095.008l.61.494.321-.549c.017-.032.056-.047.095-.04l.549.102-.147-.659c-.008-.031 0-.071.031-.086a.073.073 0 0 1 .086-.016l1.216.51.07-.729a.128.128 0 0 1 .064-.079.09.09 0 0 1 .094.032l.551.62.345-.635c.008-.024.03-.04.063-.047.029 0 .063.008.078.031l.744.761.36-.612c.017-.031.048-.04.078-.047.03 0 .063.024.077.047l.313.588.526-.502c.021-.023.055-.031.078-.023.016.001.039.016.055.04z" fill="#20A451"/><path d="M231.861 142.341c.017.008.3.102.486.102.087 0 .103-.016.103-.016.016-.205-.361-.911-.705-1.076-.039-.016-.08-.031-.127-.055-.392-.172-.934-.408-1.043-1.349-.117-.997.268-3.734.282-3.852.008-.032.519-2.055-.337-3.099-.196-.235-.377-.353-.559-.353-.438 0-.736.722-.783.832 0 .235-.031 3.028.039 4.166.078 1.192-.36 3.075-.377 3.153a.1.1 0 0 1-.039.055l-.896.612c0 .173-.087.447-.416.495-.233.039-.438.267-.541.4.157.039.433.094.619.094.108 0 .136-.016.136-.016.039-.055.102-.079.194-.079.222 0 .58.165.659.204.055.008.251.031.438.031.258 0 .346-.048.354-.063.039-.086.125-.125.269-.125.211 0 .518.11.588.133.029 0 .094.008.18.008.464 0 .629-.063.652-.086.047-.142.25-.156.393-.156.203.001.416.04.431.04z" fill="#964B35"/><path d="M243.361 126.235a.055.055 0 0 0-.017-.039c-1.969-2.706-4.117-4.071-6.385-4.071-3.443 0-6.11 3.201-6.66 3.907-.752-2.369 2.221-4.048 2.252-4.063.023-.016.047-.047.047-.079s-.023-.063-.047-.078a1.335 1.335 0 0 0-.643-.181c-.66 0-1.179.573-1.492 1.051l.446-1.726a.083.083 0 0 0-.055-.109.087.087 0 0 0-.108.039l-.871 1.631-.533-2.165c-.008-.047-.055-.078-.094-.07a.091.091 0 0 0-.078.094l.047 5.146c-2.127-2.094-4.221-3.161-6.236-3.161-4.165 0-6.581 4.573-6.605 4.613-.016.031-.016.063 0 .086l.322.62c.016.032.047.047.078.047s.063-.016.078-.047l.707-1.341.486.501c.023.023.057.039.086.031a.083.083 0 0 0 .063-.063l.259-.722.424.306a.077.077 0 0 0 .07.016c.023-.007.049-.016.057-.039l.297-.479.339.353a.086.086 0 0 0 .086.024c.022 0 .048-.024.063-.047l.256-.549.533.329a.074.074 0 0 0 .07.008c.023-.008.048-.023.057-.055l.229-.518.376.447a.111.111 0 0 0 .077.031c.031-.008.064-.023.07-.047l.346-.674.26.455a.09.09 0 0 0 .079.047c.03 0 .063-.016.077-.047l.281-.486.299.47c.017.024.047.04.07.04h.008c.031 0 .057-.008.07-.031l.354-.495v.455c0 .04.023.071.057.086.021.016.063.008.094-.008l.676-.494.094.612c.009.031.031.063.063.07.031.016.063.008.088-.016l.541-.479.133.644c0 .031.022.055.047.07.031.008.063.008.086-.008l.676-.439.047.651c0 .031.023.063.055.071.024.016.063.008.088-.008l.268-.211.259.572c.017.04.056.063.086.055l.62-.071.463.926c-3.342-.816-5.865-.369-7.443 1.31-1.945 2.071-1.771 5.334-1.771 5.366.008.039.031.07.07.086a.095.095 0 0 0 .102-.047l.676-1.114.336.321c.031.024.071.032.104.016a.1.1 0 0 0 .055-.086v-.98l.354.259a.085.085 0 0 0 .086.008c.031-.008.048-.031.056-.063l.235-1.137.259.408a.083.083 0 0 0 .087.04c.039 0 .07-.032.078-.063l.212-.832.29.345c.016.023.055.039.078.031.031 0 .063-.023.07-.047l.313-.706.385.337c.022.023.057.023.086.016.031-.016.057-.039.063-.071l.094-.659.56.471c.016.023.055.031.078.023.029-.016.055-.039.063-.063l.211-.784.33.416c.016.024.047.04.078.032.031 0 .055-.024.07-.047l.445-.894.512.423c.029.024.063.024.094.016.031-.016.056-.047.056-.078l.047-.698.792.565c.016.016.049.023.079.016.03-.016.047-.031.056-.063l.117-.416.338.298c.021.023.047.031.077.023.031-.008.056-.031.063-.055l.146-.376.221.274c.022.04.078.047.117.023l.737-.479.281.291c-2.854 1.341-4.646 3.091-5.343 5.185-.848 2.581.33 4.793.347 4.816a.086.086 0 0 0 .078.047h.022a.098.098 0 0 0 .07-.094l-.148-1.616.385.133c.022.008.063 0 .078-.016a.086.086 0 0 0 .039-.07l.017-.706.108.337c.017.031.047.063.086.063l.009-.008c.038 0 .069-.031.077-.071l.183-1.012.194.29a.093.093 0 0 0 .096.04c.038-.007.063-.04.07-.079l.147-1.106.228.29a.088.088 0 0 0 .104.032c.031-.008.063-.047.063-.086l.017-.957.446.259a.06.06 0 0 0 .039.016h.008c.048 0 .095-.047.095-.094l-.008-.023-.03-.769.493.29a.086.086 0 0 0 .087.008c.023-.016.047-.047.047-.078l.055-.667.395.667c.021.031.063.047.104.047.039-.008.063-.039.068-.079l.118-1.083.108.251c.009.032.039.047.078.055.031-.008.063-.023.078-.047l.354-.635-.022.345c0 .039.022.071.057.086a.092.092 0 0 0 .107-.023l.637-.746c.016.04.031.071.055.102a.983.983 0 0 0-.109.455c0 .455.299.832.689.886-.008.887-.016 2.832.041 3.734.068 1.083-.309 2.808-.369 3.067l-.902.62a.08.08 0 0 0-.039.086c0 .008.023.314-.268.361-.416.063-.729.558-.736.581a.074.074 0 0 0-.008.079.096.096 0 0 0 .055.055c.023.009.502.134.801.134.142 0 .229-.023.274-.087 0 0 .017-.008.056-.008.164 0 .485.143.597.196 0 0 .017 0 .022.008 0 0 .242.031.479.031.291 0 .455-.047.511-.165.009-.008.03-.023.108-.023.205 0 .533.125.533.125.008.009.022.009.022.009s.095.008.212.008c.754 0 .801-.149.823-.204 0 0 .03-.039.222-.039.18 0 .375.031.375.031.022.008.321.109.541.109.243 0 .274-.133.282-.188.022-.284-.407-1.051-.81-1.249-.039-.016-.086-.031-.133-.055-.369-.165-.832-.369-.934-1.208-.118-.973.273-3.773.273-3.789.022-.071.328-1.31.047-2.385.369-.071.65-.439.66-.878l.102.016.047 1.02c0 .032.023.063.049.079.029.016.068.008.094-.008l.424-.298.259.965c.017.032.039.055.069.063.031.008.063 0 .088-.023l.32-.369.321.918c.017.039.056.07.103.063l.399-.055-.368.886a.09.09 0 0 0 .039.11l.637.392-.229 1.028c0 .031.008.063.031.086.021.024.055.032.094.016l.479-.172.174 1.381c0 .039.031.07.07.078.039 0 .077-.016.094-.055 2.646-5.695-3.146-9.358-3.614-9.641l-.166-.463.737.337c.031.016.063.016.086 0l.408-.243.799.479a.115.115 0 0 0 .088.008.103.103 0 0 0 .056-.07l.047-.298.563.612c.022.032.063.04.104.024.03-.016.057-.047.057-.086v-.408l.432.4a.096.096 0 0 0 .078.016c.021 0 .047-.016.063-.039l.243-.439.149.91c.008.032.021.063.055.071.031.016.063.008.096-.016l.484-.4.33.714c.016.031.039.055.078.055a.086.086 0 0 0 .078-.047l.156-.267.078.58c0 .023.018.047.03.063.022.016.048.016.069.016l.386-.063-.117.706c-.008.023.009.047.022.071.017.016.039.031.063.031h.627l-.022 1.318c0 .031.017.055.039.071l.369.274.069.698c.009.031.022.055.047.071s.058.016.079.008l1.225-.534c.039-.016.055-.055.055-.094-.446-5.499-3.412-6.322-5.129-6.322-.855 0-1.522.188-1.711.251l-.541-.565.822.063c.031.008.057 0 .07-.024a.086.086 0 0 0 .03-.063v-.4l.541.439c.022.023.047.031.071.023a.099.099 0 0 0 .063-.047l.345-.581.629.118c0 .008.008.008.008.008.063-.008.103-.039.103-.094 0-.016-.009-.031-.017-.047l-.141-.596 1.168.486c.022.016.057.008.078 0a.161.161 0 0 0 .047-.071l.057-.643.502.557c.021.023.047.039.078.031.031 0 .055-.023.07-.047l.336-.636.738.761a.11.11 0 0 0 .077.031c.03-.008.056-.023.069-.047l.338-.58.3.549c.017.031.039.047.069.047.022.008.056 0 .07-.024l.525-.494.367.761c.017.023.031.039.063.047.024.008.049 0 .071-.008l.471-.322.109.604c.008.04.03.063.063.071.039.008.07 0 .096-.031l.588-.714.156.965c0 .039.031.063.063.07.029.016.063.008.086-.016l.354-.353.354.957a.093.093 0 0 0 .063.055c.022.008.055 0 .078-.016l.377-.322.117.949c0 .039.022.07.063.079.031.008.072 0 .096-.032.746-.869.597-1.959.588-2.008zm-12.504 9.862c-.017.118-.399 2.855-.282 3.852.109.941.651 1.177 1.043 1.349.047.023.088.039.127.055.344.165.721.871.705 1.076 0 0-.016.016-.103.016-.188 0-.472-.094-.486-.102-.016 0-.228-.04-.431-.04-.143 0-.346.016-.393.156-.023.023-.188.086-.652.086-.086 0-.148-.008-.18-.008-.07-.022-.377-.133-.588-.133-.144 0-.229.04-.269.125-.009.016-.097.063-.354.063-.188 0-.385-.023-.438-.031-.079-.04-.438-.204-.659-.204-.095 0-.155.022-.194.079 0 0-.023.016-.136.016-.188 0-.462-.055-.618-.094.102-.133.307-.361.541-.4.328-.047.415-.322.415-.495l.896-.612a.093.093 0 0 0 .039-.055c.017-.079.455-1.961.377-3.153-.055-.902-.047-2.832-.039-3.719l.126-.023c.133.283.399.479.706.479.353 0 .65-.267.753-.627.038.008.086.008.125.016.291 1.041-.023 2.304-.031 2.328zm11.893-8.136-.104-.902c-.008-.031-.031-.063-.063-.07-.031-.016-.063-.008-.086.016l-.408.337-.354-.965c-.017-.032-.039-.055-.069-.055-.031-.016-.056 0-.078.023l-.33.322-.155-.988c-.009-.039-.031-.071-.063-.079a.104.104 0 0 0-.096.031l-.596.722-.104-.549a.067.067 0 0 0-.048-.063.083.083 0 0 0-.086.008l-.502.337-.377-.784a.113.113 0 0 0-.069-.047c-.022-.008-.056 0-.078.023l-.525.502-.313-.588c-.018-.023-.049-.047-.078-.047-.031.008-.063.016-.08.047l-.359.612-.745-.761c-.017-.023-.048-.031-.079-.031-.031.008-.055.023-.063.047l-.346.635-.551-.62c-.021-.032-.063-.04-.094-.032a.12.12 0 0 0-.063.079l-.07.729-1.217-.51c-.03-.016-.063-.008-.086.016-.031.016-.039.055-.031.086l.148.659-.55-.102c-.039-.008-.078.008-.094.04l-.322.549-.61-.494a.101.101 0 0 0-.095-.008c-.03.016-.056.047-.056.079v.486l-.967-.071a.096.096 0 0 0-.086.055c-.016.031-.008.07.018.102l.745.769c.022.023.063.039.094.023.009-.008.746-.259 1.711-.259 2.017 0 4.511 1.059 4.941 6.095l-1.052.455-.063-.62c0-.023-.018-.047-.04-.063l-.358-.267.029-1.357c0-.023-.016-.047-.029-.07a.09.09 0 0 0-.063-.023h-.612l.118-.722a.172.172 0 0 0-.022-.079.153.153 0 0 0-.08-.023l-.416.063-.094-.753c-.008-.039-.031-.071-.07-.079a.086.086 0 0 0-.094.04l-.203.353-.308-.659c-.008-.031-.03-.047-.063-.055-.021-.008-.055 0-.068.023l-.473.376-.155-1.012a.1.1 0 0 0-.078-.079c-.03-.008-.069.008-.095.047l-.313.565-.503-.455a.086.086 0 0 0-.095-.016c-.031.016-.057.047-.057.079v.384l-.531-.573c-.021-.031-.057-.039-.096-.031-.029.016-.055.039-.063.07l-.055.354-.737-.439a.098.098 0 0 0-.094 0l-.408.243-.896-.408a.083.083 0 0 0-.094.016.075.075 0 0 0-.023.094l.236.69a.12.12 0 0 0 .039.055c.063.031 6.038 3.545 3.709 9.123l-.142-1.161c-.009-.023-.022-.055-.047-.063-.022-.016-.058-.016-.079-.008l-.432.157.203-.934c.008-.039-.008-.079-.039-.094l-.627-.384.398-.965a.082.082 0 0 0-.016-.094c-.017-.023-.047-.039-.078-.031l-.486.07-.346-.996c-.016-.031-.039-.055-.07-.055a.089.089 0 0 0-.086.023l-.314.353-.25-.926c-.008-.031-.022-.055-.056-.063-.022-.008-.055-.008-.077.016l-.4.274-.047-.926a.09.09 0 0 0-.069-.086l-.222-.039a.956.956 0 0 0-.18-.4c.039-.11.063-.228.063-.345 0-.502-.36-.91-.802-.91a.666.666 0 0 0-.385.126.756.756 0 0 0-.596-.306.734.734 0 0 0-.416.133.635.635 0 0 0-.439-.188c-.422 0-.769.471-.769 1.051 0 .157.031.314.078.447l-.519.604.022-.471c.009-.039-.022-.079-.063-.094-.039-.008-.086.008-.103.047l-.446.815-.174-.392c-.016-.039-.055-.055-.094-.055-.04.008-.07.039-.079.086l-.125 1.145-.399-.683a.094.094 0 0 0-.103-.047c-.039.008-.063.039-.071.079l-.063.815-.518-.306c-.023-.016-.063-.016-.096 0a.103.103 0 0 0-.04.086l.032.785-.434-.251a.098.098 0 0 0-.094 0 .085.085 0 0 0-.048.079l-.017.863-.203-.259c-.016-.032-.055-.04-.094-.032-.031.008-.055.04-.063.071l-.149 1.083-.181-.282a.095.095 0 0 0-.094-.04c-.039.008-.071.04-.071.071l-.164.886-.164-.494c-.009-.047-.056-.07-.095-.063-.047.008-.079.047-.079.086l-.016 1.114-.398-.141c-.031-.008-.064-.008-.088.016a.098.098 0 0 0-.039.078l.11 1.192c-.29-.784-.698-2.385-.11-4.165.689-2.079 2.487-3.805 5.357-5.13a.105.105 0 0 0 .056-.071.165.165 0 0 0-.022-.078l-.433-.432a.088.088 0 0 0-.063-.023c-.016 0-.03 0-.047.008l-.729.479-.268-.337c-.022-.023-.055-.039-.086-.031-.03.008-.055.023-.069.055l-.147.4-.347-.313a.075.075 0 0 0-.087-.016.154.154 0 0 0-.063.055l-.117.439-.815-.581c-.022-.023-.063-.023-.095-.016-.023.016-.047.047-.047.079l-.047.682-.463-.384a.13.13 0 0 0-.078-.023.106.106 0 0 0-.063.055l-.433.863-.354-.447c-.022-.023-.055-.04-.086-.031-.039.008-.063.031-.069.07l-.221.816-.572-.486c-.022-.023-.063-.023-.095-.016a.14.14 0 0 0-.056.07l-.094.651-.354-.306a.124.124 0 0 0-.078-.023.095.095 0 0 0-.063.055l-.305.683-.3-.369c-.022-.023-.063-.031-.095-.023a.083.083 0 0 0-.063.063l-.211.792-.269-.416c-.017-.031-.056-.047-.095-.047-.03.008-.063.039-.069.071l-.252 1.224-.386-.283c-.021-.016-.063-.016-.094 0-.031.008-.048.04-.048.079v.941l-.267-.251a.128.128 0 0 0-.078-.023c-.023 0-.047.016-.063.039l-.574.949c.009-.855.182-3.279 1.719-4.918 1.563-1.663 4.104-2.071 7.46-1.216.04.008.071 0 .095-.031.023-.024.023-.063.008-.094l-.572-1.161a.09.09 0 0 0-.094-.047l-.611.07-.268-.612a.11.11 0 0 0-.063-.055.087.087 0 0 0-.078.016l-.229.172-.047-.627c0-.031-.022-.055-.049-.07a.098.098 0 0 0-.094 0l-.684.447-.133-.667a.086.086 0 0 0-.063-.063c-.031-.016-.063-.008-.087.016l-.532.471-.095-.596a.095.095 0 0 0-.057-.07.084.084 0 0 0-.086.008l-.658.479v-.565c0-.039-.022-.071-.063-.086a.098.098 0 0 0-.104.04l-.438.604-.309-.486c-.016-.024-.055-.032-.076-.04-.031 0-.057.016-.078.047l-.274.479-.259-.463c-.023-.023-.048-.047-.087-.039a.086.086 0 0 0-.078.047l-.354.698-.393-.455c-.023-.023-.055-.039-.087-.031-.03 0-.056.023-.063.055l-.242.557-.524-.322c-.022-.016-.047-.016-.078-.008a.122.122 0 0 0-.056.047l-.243.518-.319-.345c-.023-.016-.048-.031-.078-.023-.024 0-.058.016-.063.039l-.313.494-.438-.322a.07.07 0 0 0-.078-.008c-.021.008-.047.024-.055.055l-.252.698-.479-.494a.076.076 0 0 0-.08-.024c-.031 0-.055.016-.07.047l-.674 1.302-.221-.423c.252-.455 2.581-4.471 6.426-4.471 2.016 0 4.117 1.09 6.269 3.255a.075.075 0 0 0 .095.023c.039-.016.063-.047.057-.086l-.039-4.589.392 1.632c.017.039.039.063.079.07.039.008.07-.016.094-.047l.62-1.161-.438 1.71c-.017.047.008.094.055.102.048.016.095 0 .109-.047.008-.016.682-1.6 1.688-1.6.133 0 .272.031.405.086-.617.393-3.004 2.079-2.125 4.354.009.032.039.055.07.063.031 0 .07-.016.086-.039.031-.04 2.855-3.969 6.613-3.969 2.204 0 4.298 1.333 6.221 3.977.048.141.111.964-.399 1.677z"/><path d="M229.909 163.639c-.174.313-1.797 3.287-2.494 4.056.116-.016.25 0 .367.079.157.11.235.306.243.588.032 0 .071.008.118.008.313-1.671 2.385-4.087 2.636-4.37-.008-.188-.055-.329-.157-.392-.196-.134-.564-.032-.713.031zm-1.162-.738c-.195.228-2.055 2.416-1.992 4.338a.513.513 0 0 1 .269.04.533.533 0 0 1 .229.321c.658-.674 2.393-3.859 2.502-4.063.031-.212-.018-.377-.125-.485-.255-.237-.756-.166-.883-.151z" fill="#20A34F"/><path d="M227.555 162.164c-1.938 2.157-1.813 4.283-1.758 4.73.108-.017.291-.024.433.086.108.071.172.188.196.345a.765.765 0 0 1 .148-.055c-.088-2.032 1.826-4.252 2.03-4.487.039-.196.008-.345-.097-.447-.215-.235-.74-.211-.952-.172zm1.945 7.193c1.287-.808 3.287-3.671 3.342-3.75.104-.181.125-.33.057-.439-.173-.267-.793-.313-1.083-.306-.194.408-1.498 3.052-2.792 4.268.139.038.335.11.476.227zm-4.126-7.93c-1.709 2.109-1.804 4.393-1.804 4.902.204-.079.486-.141.745-.055.148.047.26.149.354.283-.039-.455-.069-2.307 1.945-4.652 0-.212-.056-.369-.188-.463-.315-.235-.933-.054-1.052-.015zm-.424 10.872c1.608-.761 2.143-4.314 2.166-4.472-.016-.195-.078-.33-.181-.384-.157-.079-.399.023-.511.086-.104.557-.752 3.954-1.701 4.589a.39.39 0 0 1 .18.108.33.33 0 0 1 .047.073z" fill="#20A34F"/><path d="M226.763 162.007c-2.009 2.337-1.938 4.204-1.906 4.558.149-.071.347-.125.541-.071a.748.748 0 0 1 .196.125c-.023-.792.125-2.675 1.82-4.573 0-.109-.023-.188-.08-.22-.132-.071-.43.087-.571.181zm-2.315 10.049c.016-.008.023-.023.04-.023.808-.203 1.546-3.355 1.765-4.563 0-.165-.047-.282-.125-.337-.108-.079-.268-.063-.338-.048-.142.439-1.224 3.852-1.514 4.77a.495.495 0 0 1 .094.204c.024-.003.047-.003.078-.003zm6.472-7.939c-.221.243-2.291 2.675-2.596 4.283a.87.87 0 0 1 .397.204.677.677 0 0 1 .181.384c1.352-1.294 2.745-4.205 2.77-4.251.096-.22.104-.385.023-.486-.155-.196-.594-.166-.775-.134zm-7.216 7.483a.986.986 0 0 1 .424.118c.32-1.028 1.381-4.362 1.498-4.707-.069-.181-.156-.299-.283-.337-.211-.071-.484.086-.578.156-.104.149-1.422 2.26-1.067 4.661a.118.118 0 0 1-.016.055c.006.015.022.032.022.054zm-.996 1.954c.017-.354.03-1.396.039-2.118-.039-.172-.103-.282-.197-.306-.172-.047-.405.134-.518.234.118.532.408 1.805.565 2.096.04.032.071.062.111.094zm2.658-1.114c1.53-.909 2.424-3.836 2.471-3.993.019-.267-.039-.438-.154-.525-.126-.086-.307-.047-.395-.022-.07.463-.611 3.749-2.228 4.55.078 0 .181.008.282.023.009-.009.016-.024.024-.033zm-3.067.738c-.195-.628-.432-1.71-.455-1.82-.164-.424-.471-.471-.564-.471-.063.095-.242.471.221 1.231.21.354.468.722.798 1.06zm-.07-6.856c-.188 0-.479.149-.839.863-.659 1.317-.188 3.169-.087 3.521.134.008.424.078.628.424-.533-2.149.416-4.307.588-4.668-.047-.046-.157-.14-.29-.14z" fill="#20A34F"/><path d="M224.926 160.783c.119.063.394.212.464.447a2.16 2.16 0 0 1 .628-.078c.376-2.848 2.645-3.734 2.98-3.844.039-.103.133-.408.008-.604-.104-.148-.321-.211-.684-.172-1.418.156-3.152 1.02-3.396 4.251zm9.022 5.366c0 .032 0 .063-.008.102l.447.174c.367-.361 3.113-3.1 2.51-4.936-.211-.651-.471-.988-.745-.988s-.541.337-.635.494c.047.377.416 4.291-1.569 5.154z" fill="#FFD107"/><path d="M226.198 161.167a.742.742 0 0 1 .338.125c.148.11.234.268.258.479.166-.086.447-.204.638-.103.094.056.155.157.165.299.133-.009.367-.017.604.023-.416-2.047 1.654-4.079 1.977-4.377-.022-.094-.108-.353-.446-.353-.164 0-.376.07-.619.195h-.01l-.009.009c-.025.009-2.496.77-2.896 3.703zm9.021-.871c-.109-.125-.307-.102-.564.04 0 .393-.109 2.91-1.585 4.785a.56.56 0 0 1 0 .439h.022c.236 0 .613.032.785.259.031.04.039.086.056.134 1.853-.895 1.403-4.926 1.403-4.966v-.016c.017-.141.024-.51-.117-.675z" fill="#FFD107"/><path d="M223.202 166.322c-.103-.055-.354.078-.502.188-.109.22-1.131 2.407-.589 4.565.142-.086.321-.175.494-.119.086.023.147.088.204.174-.118-.588-.314-2.196.463-4.62 0-.071-.016-.165-.07-.188zm1.623 6.196c0-.069-.016-.126-.055-.165-.096-.102-.307-.117-.424-.117-.094.243-.525 1.278-1.153 1.633 0 .008.009.008.017.017 1.027-.308 1.561-1.273 1.615-1.368z" fill="#20A34F"/><path d="M225.563 172.871c.008-.047 0-.086-.031-.117-.109-.116-.416-.133-.564-.125-.094.182-.51.854-1.271 1.248 1.175-.206 1.78-.887 1.866-1.006zm-2.55.895c.667-.282 1.138-1.537 1.177-1.632a.283.283 0 0 0-.07-.195c-.102-.109-.306-.148-.424-.156-.315 1.095-.542 1.763-.683 1.983zm.384-2.331c-.141-.078-.354-.008-.463.048-.008.353-.023 1.827-.047 2.165.109-.188.4-1.105.644-1.97-.016-.124-.064-.203-.134-.243zm3.609 2.652c.016 0 .021 0 .031-.016.016-.023.047-.096.008-.283v-.008a.263.263 0 0 0-.109-.188c-.165-.125-.494-.117-.645-.103-.117.156-.627.744-1.875.744-.108 0-.234-.008-.359-.016.273.07.596.117.98.117.981.005 1.962-.247 1.969-.247zm2.769-1.905c.847-.879.862-1.192.823-1.295-.031-.07-.117-.078-.117-.078l-.016-.008h-.008l-.244-.087c-.229.268-2.063 2.408-3.162 2.746.08.055.119.133.143.22.283-.039 1.389-.251 2.581-1.498zm4.416-4.136c.399-.564.62-.878.572-1.074-.022-.11-.134-.212-.399-.361l-.494-.196c-.242.393-1.623 2.542-3.781 3.845.01.07.023.133.018.229l.377.133c.321-.166 2.975-1.521 3.663-2.502l.044-.074z" fill="#20A34F"/><path d="M226.151 173.375c.023-.096.008-.166-.031-.221-.095-.117-.307-.148-.416-.156-.134.156-.688.774-1.75 1.02 1.577.164 2.15-.574 2.197-.643zm-2.668-2.104.008.008c-.234-2.251.895-4.197 1.092-4.519a.541.541 0 0 0-.322-.313c-.313-.11-.713.078-.814.141-.847 2.645-.502 4.322-.416 4.668.139-.039.311-.064.452.015zm2.245 1.491c.657-.425 2.36-2.69 3.021-3.608 0-.172-.047-.321-.147-.416-.183-.173-.472-.196-.599-.196-.141.455-.996 3.052-2.455 4.001a.4.4 0 0 1 .119.086c.037.038.044.086.061.133zm.98.556s.008-.008.018 0h.076c.785 0 2.521-1.835 3.227-2.667l-.055-.016a.095.095 0 0 1-.057-.103c.03-.25.008-.416-.086-.479-.088-.071-.244-.022-.307.008-.173.243-1.883 2.638-3.232 3.035a.447.447 0 0 1 .057.204c.092-.006.226-.006.359.018zm7.037-7.051c.055-.149.047-.259-.017-.337-.142-.188-.563-.196-.753-.182-.235.33-2.087 2.949-3.357 3.75.008.023.023.032.031.047a.374.374 0 0 1 0 .29.445.445 0 0 1 .29.072c.048.039.079.103.11.164 2.252-1.381 3.633-3.702 3.696-3.804z" fill="#20A34F"/><path d="M229.391 169.93c.094-.125.126-.229.086-.314-.07-.188-.423-.298-.604-.337-.213.298-2.088 2.903-2.959 3.569a.66.66 0 0 1 .244.103c1.335-.307 3.21-2.991 3.233-3.021z" fill="#20A34F"/><path d="M233.987 159.708a.533.533 0 0 0-.273.078c-.127.149-1.771 2.087-1.866 4.362v.008c.095.133.108.306.038.525.268 0 .81.03 1.074.281 1.498-1.944 1.516-4.572 1.516-4.675-.011-.045-.136-.579-.489-.579zm-3.145-2.07c-.149 0-.329.031-.525.094-.156.148-2.4 2.275-1.93 4.299 0 .008-.008.008-.008.008a.787.787 0 0 1 .267.165.604.604 0 0 1 .157.51c.148-.016.398-.023.627.039-.213-2.203 1.852-4.22 2.142-4.494-.016-.143-.133-.621-.73-.621z" fill="#FFD107"/><path d="M223.17 162.54c-.52 1.333-.486 3.193-.463 3.742.155-.094.398-.211.58-.125a.268.268 0 0 1 .103.103c.008-.644.165-2.871 1.827-4.927-.016-.195-.282-.345-.407-.399-.119.014-1.083.14-1.64 1.606z" fill="#20A34F"/><path d="M233.062 159.206a.719.719 0 0 0-.267.056c-.188.251-2.039 2.784-1.875 4.456 0 .008-.008.016-.008.022.022.055.039.11.047.181.164-.016.485-.023.713.095.148-2.197 1.656-4.063 1.884-4.331-.024-.118-.125-.479-.494-.479z" fill="#FFD107"/><path d="M231.713 158.375c-.205.196-2.361 2.268-2.104 4.433v.023c.047.023.103.047.142.086.135.125.195.299.195.511.188-.056.542-.134.777.022 0 .008.008.008.008.017.021-1.758 1.741-4.088 1.922-4.322.01-.056.021-.384-.173-.604-.155-.174-.415-.229-.767-.166z" fill="#FFD107"/><path d="M239.023 156.916c-.455 0-.815.534-.815 1.186 0 .65.36 1.185.815 1.185.447 0 .815-.533.815-1.185.002-.652-.367-1.186-.815-1.186z" fill="#964B35"/><path d="m235.877 155.684-.103-.008c-.896-.056-1.546-.056-2.887 1.255-.378.36-.771.706-1.208 1.043.029.079.055.157.063.212.391-.063.689.016.877.228.174.204.213.479.221.636a.959.959 0 0 1 .221-.023c.156 0 .299.047.408.149.549-.737 1.514-1.859 2.338-1.859.068 0 .133.008.195.023.762.18 1.623.886 2.117 1.341a1.761 1.761 0 0 1-.095-.581c0-.659.337-1.208.784-1.341-.811-.376-2.309-1.035-2.931-1.075z" fill="#964B35"/><path d="m239.274 156.783-.008-.008c-.762-.361-2.628-1.224-3.381-1.271l-.094-.008c-.936-.063-1.642-.055-3.037 1.303-.359.353-.744.683-1.168 1.012-.125-.188-.354-.354-.746-.354-.148 0-.32.023-.502.079-.063-.195-.234-.455-.611-.455a1.25 1.25 0 0 0-.51.125c.039-.173.063-.408-.063-.596-.108-.181-.329-.274-.644-.274-.063 0-.133.009-.204.017-1.49.157-3.31 1.059-3.568 4.408-.274.047-1.2.298-1.741 1.71-.511 1.341-.494 3.138-.472 3.765a.516.516 0 0 0-.298-.094c-.346 0-.684.321-.996.965-.706 1.412-.195 3.341-.102 3.671-.096.133-.309.588.211 1.436.25.416.558.849.957 1.232-.235.297-.338.485-.377.604a1.535 1.535 0 0 0-.689-.164c-.541 0-1.311.306-1.898 1.778-1.012 2.543-2.031 4.097-2.039 4.11a.089.089 0 0 0 0 .103c.018.023.047.039.07.039h.023c.031-.008 2.785-.791 4.472-2.541 1.576-1.641 1.302-2.762 1.239-2.965l.086-.33c.22.109.447.211.697.291.313.103.707.147 1.154.147 1.004 0 2-.251 2-.251s.077 0 .141-.078c.056-.07.078-.181.064-.337.338-.04 1.449-.282 2.666-1.546.689-.714.973-1.2.862-1.482a.264.264 0 0 0-.079-.108c.65-.329 2.941-1.554 3.604-2.494l.047-.07c.455-.651.666-.941.604-1.216-.039-.165-.172-.291-.393-.424.533-.511 3.146-3.178 2.519-5.083-.243-.737-.557-1.114-.918-1.114-.259 0-.485.196-.627.369-.017-.165-.056-.377-.173-.51-.157-.173-.408-.188-.729-.031-.063-.204-.244-.612-.638-.612a.686.686 0 0 0-.267.055.874.874 0 0 0-.127-.259c.425-.588 1.429-1.828 2.214-1.828.055 0 .108.008.155.017 1.066.259 2.416 1.671 2.434 1.687.008.017.031.017.057.024a.814.814 0 0 0 .57.243c.551 0 .996-.612.996-1.365.003-.64-.319-1.173-.743-1.322zm-11.13 11.586c-.047 0-.086-.008-.118-.008-.008-.283-.086-.479-.242-.588a.533.533 0 0 0-.369-.079c.698-.769 2.321-3.742 2.494-4.056.149-.063.518-.165.715-.031.104.063.148.204.156.392-.252.283-2.322 2.699-2.636 4.37zm2.776-4.252c.181-.031.619-.063.775.134.078.103.07.268-.023.486-.022.047-1.418 2.957-2.77 4.251a.644.644 0 0 0-.181-.384.894.894 0 0 0-.397-.204c.305-1.608 2.376-4.04 2.596-4.283zm-3.671 3.483c-.047-.149-.117-.259-.228-.321-.086-.04-.173-.047-.267-.04-.063-1.922 1.797-4.11 1.992-4.338.125-.016.627-.086.879.149.107.108.155.273.125.485-.108.206-1.841 3.391-2.501 4.065zm1.357-4.816c-.204.235-2.118 2.456-2.031 4.487-.056.016-.109.031-.148.055a.475.475 0 0 0-.195-.345c-.143-.11-.32-.103-.434-.086-.055-.447-.18-2.573 1.759-4.73.212-.039.735-.063.957.173.1.1.132.249.092.446zm-3.843 4.047c.094-.07.368-.228.579-.156.127.038.213.156.283.337a549.03 549.03 0 0 0-1.498 4.707.993.993 0 0 0-.424-.118c0-.022-.018-.039-.023-.056.008-.016.016-.03.016-.055-.354-2.399.965-4.51 1.067-4.659zm1.027.251c.07-.016.229-.03.338.047.078.056.125.173.125.338-.219 1.208-.957 4.361-1.765 4.564-.017 0-.024.016-.04.022h-.078a.478.478 0 0 0-.094-.204c.29-.915 1.372-4.327 1.514-4.767zm-.196-.462a.738.738 0 0 0-.196-.125c-.194-.055-.392 0-.541.071-.03-.354-.103-2.22 1.906-4.558.142-.095.438-.251.571-.182.057.032.08.11.08.22-1.695 1.899-1.844 3.782-1.82 4.574zm-.926-.063a.698.698 0 0 0-.354-.283c-.259-.086-.541-.023-.745.055 0-.51.096-2.792 1.805-4.902.119-.039.736-.221 1.053.016.133.094.188.251.188.463-2.017 2.344-1.986 4.196-1.947 4.651zm-.408-.11a.547.547 0 0 1 .322.313c-.197.321-1.326 2.267-1.092 4.519l-.009-.008c-.142-.079-.313-.055-.455-.016-.086-.346-.431-2.024.416-4.668.105-.062.504-.251.818-.14zm-.729 5.232c-.243.863-.534 1.781-.644 1.97.023-.338.039-1.813.047-2.165.109-.056.322-.126.463-.048.07.039.118.118.134.243zm-.823 1.875c-.031-.031-.063-.055-.095-.086l-.016-.008c-.157-.291-.447-1.563-.565-2.096.11-.103.346-.281.518-.234.097.023.158.134.197.306-.009.722-.024 1.757-.039 2.118zm.305.212c.142-.228.368-.888.683-1.983.118.008.322.047.424.156.047.055.07.117.07.195-.04.094-.51 1.349-1.177 1.632zm.18.103c.628-.354 1.06-1.39 1.153-1.633.117 0 .328.016.424.117.039.039.055.096.055.165-.055.095-.588 1.06-1.615 1.365-.008-.007-.017-.007-.017-.014zm1.531-1.75c.948-.636 1.601-4.032 1.702-4.588.109-.063.353-.165.51-.086.102.055.165.188.182.384-.025.157-.559 3.71-2.166 4.472-.017-.031-.031-.057-.048-.07a.382.382 0 0 0-.18-.112zm2.564-4.221c.088-.023.269-.063.395.022.115.087.173.26.154.525-.047.157-.938 3.083-2.471 3.993-.008.008-.016.023-.023.031a1.876 1.876 0 0 0-.28-.023c1.613-.799 2.154-4.085 2.225-4.548zm.714.643c.125 0 .416.023.597.196.103.094.147.243.147.416-.658.919-2.361 3.185-3.021 3.608-.017-.047-.022-.094-.063-.135-.033-.039-.08-.063-.119-.086 1.463-.947 2.318-3.544 2.459-3.999zm.872.738c.182.04.532.149.604.337.04.086.008.188-.086.314-.022.03-1.897 2.714-3.229 3.021a.656.656 0 0 0-.244-.104c.867-.665 2.742-3.27 2.955-3.568zm.65.784c.063-.03.219-.079.307-.008.094.063.116.228.086.479a.09.09 0 0 0 .057.102l.055.016c-.706.832-2.438 2.668-3.227 2.668h-.076c-.01-.009-.018 0-.018 0a1.712 1.712 0 0 0-.359-.017.41.41 0 0 0-.057-.204c1.35-.4 3.06-2.792 3.232-3.036zm.415-.155a.444.444 0 0 0-.29-.072.374.374 0 0 0 0-.29c-.008-.016-.023-.023-.031-.047 1.271-.8 3.122-3.42 3.357-3.75.188-.016.611-.008.753.182.063.078.069.188.017.337-.063.102-1.443 2.424-3.695 3.805a.474.474 0 0 0-.111-.165zm2.903-4.3c-.055.078-2.055 2.941-3.342 3.75a1.38 1.38 0 0 0-.479-.229c1.294-1.216 2.597-3.858 2.792-4.268.29-.008.91.04 1.083.306.071.111.048.26-.054.441zm-1.17-1.592c-.228-.118-.549-.11-.713-.095a.587.587 0 0 0-.047-.181c0-.008.008-.016.008-.022-.164-1.672 1.687-4.205 1.875-4.456a.698.698 0 0 1 .233-.047h.056c.07 0 .135.016.182.047.023.008.039.022.063.03a.742.742 0 0 1 .229.393c-.229.267-1.736 2.134-1.886 4.331zm.982-4.872c-.181.234-1.897 2.564-1.922 4.322 0-.009-.008-.009-.008-.017-.235-.157-.589-.079-.777-.022 0-.212-.063-.386-.196-.511-.039-.039-.094-.063-.141-.086v-.023c-.259-2.165 1.898-4.236 2.104-4.433.182-.03.328-.03.455-.008.017.008.022.008.039.017a.504.504 0 0 1 .142.047c.048.03.095.063.134.109.057.056.086.125.117.196 0 .008 0 .023.008.031.018.055.031.118.04.165v.039c.008.04.008.086.008.117-.003.017-.003.04-.003.057zm-1.812-1.506c.369 0 .549.173.644.345v.008c.056.11.078.212.086.268-.298.273-2.354 2.291-2.142 4.494a1.778 1.778 0 0 0-.627-.039.607.607 0 0 0-.157-.51.789.789 0 0 0-.267-.165s.008 0 .008-.008c-.471-2.023 1.771-4.149 1.93-4.299.196-.064.375-.094.525-.094zm-1.741-.181h.008c.243-.125.455-.195.619-.195.338 0 .424.259.446.353-.32.298-2.394 2.33-1.978 4.377a2.662 2.662 0 0 0-.604-.023c-.008-.142-.07-.243-.164-.299-.188-.102-.473.017-.637.103a.638.638 0 0 0-.26-.479.712.712 0 0 0-.337-.125c.399-2.934 2.871-3.694 2.896-3.703l.011-.009zm-.776-.925c.359-.039.579.023.682.172.125.196.031.502-.008.604-.338.108-2.604.996-2.979 3.844a2.16 2.16 0 0 0-.628.078c-.07-.235-.346-.384-.465-.447.243-3.231 1.977-4.095 3.398-4.251zm-5.155 6.008c.557-1.467 1.521-1.592 1.64-1.607.125.055.394.204.407.399-1.662 2.056-1.819 4.283-1.827 4.927a.25.25 0 0 0-.103-.103c-.182-.086-.425.032-.58.125-.023-.548-.055-2.407.463-3.741zm-.47 3.97c.148-.11.399-.243.502-.188.055.023.07.118.07.188-.777 2.424-.581 4.032-.463 4.62-.057-.086-.118-.148-.204-.174-.173-.056-.354.033-.494.119-.542-2.158.479-4.346.589-4.565zm-1.31.674c.36-.714.649-.863.839-.863.134 0 .243.094.29.141-.172.361-1.121 2.519-.588 4.667-.204-.344-.494-.416-.628-.424-.101-.352-.573-2.204.087-3.521zm.109 4.935c-.463-.762-.281-1.138-.22-1.23.095 0 .4.047.565.471.023.11.259 1.192.455 1.82a5.78 5.78 0 0 1-.8-1.061zm1.522 1.875-.108.394c0 .022 0 .039.008.063 0 .008.433 1.123-1.191 2.801-1.365 1.412-3.459 2.188-4.148 2.416.313-.51 1.121-1.914 1.93-3.932.433-1.09 1.027-1.671 1.727-1.671.408 0 .706.196.715.204.03.018.063.018.094 0s.047-.047.047-.086.018-.195.347-.611c.017.008.039.016.056.03.156.144.329.269.524.386-.009-.003-.001-.003-.001.006zm.674-.118a3.196 3.196 0 0 0 1.271-1.248c.148-.008.455.008.564.125.031.031.039.07.031.117-.084.12-.689.801-1.866 1.006zm2.009-.878c.109.008.321.039.416.156.039.055.055.125.031.221-.048.07-.62.808-2.197.643 1.06-.245 1.616-.864 1.75-1.02zm1.334 1.074c-.009.016-.017.016-.031.016 0 0-.987.253-1.969.253-.386 0-.707-.05-.979-.118.125.008.251.018.358.018 1.248 0 1.758-.59 1.875-.746.149-.017.479-.022.646.103.063.048.103.11.108.188v.008c.038.183.007.254-.008.278zm2.737-1.89c-1.192 1.247-2.299 1.459-2.581 1.498a.364.364 0 0 0-.143-.22c1.1-.338 2.936-2.479 3.162-2.746l.244.087h.008l.008.008s.094.008.125.078c.04.103.024.416-.823 1.295zm4.989-5.209c.048.195-.172.51-.572 1.075l-.047.07c-.689.98-3.342 2.338-3.663 2.502l-.377-.133c.008-.096-.008-.156-.017-.229 2.158-1.303 3.539-3.452 3.781-3.845l.493.196c.269.152.378.254.402.364zm1.388-6.473c.274 0 .534.337.745.988.604 1.836-2.143 4.574-2.51 4.936l-.447-.174c.008-.039.008-.069.008-.102 1.984-.863 1.616-4.777 1.569-5.154.094-.157.36-.494.635-.494zm-1.498-.165c.259-.141.455-.165.563-.04.143.165.135.534.119.667v.025c0 .04.447 4.071-1.404 4.966-.016-.047-.023-.094-.055-.134-.174-.227-.549-.259-.777-.259h-.031a.556.556 0 0 0 0-.439c1.474-1.875 1.585-4.393 1.585-4.786zm-.941-.548a.54.54 0 0 1 .272-.078c.354 0 .479.533.486.58 0 .103-.017 2.73-1.515 4.675-.268-.251-.81-.281-1.076-.281.072-.221.058-.393-.039-.525v-.008c.099-2.276 1.745-4.214 1.872-4.363zm4.416-2.275c-.018.031-.023.055-.031.086a1.197 1.197 0 0 0-.039.165c-.008.023-.008.047-.016.079-.008.086-.018.173-.018.259 0 .102.01.195.021.291 0 .022.01.039.018.063a.75.75 0 0 0 .047.204c0 .008 0 .017.01.023-.494-.455-1.356-1.161-2.117-1.341a.741.741 0 0 0-.196-.023c-.824 0-1.789 1.122-2.339 1.859-.016-.023-.047-.031-.069-.048-.03-.016-.063-.039-.095-.055a.565.565 0 0 0-.229-.047l-.009-.008c-.078 0-.155.016-.229.031-.008-.157-.047-.433-.219-.636-.181-.195-.455-.274-.809-.234-.023.008-.047 0-.07.008a1.001 1.001 0 0 0-.063-.212c.438-.345.83-.684 1.207-1.043 1.342-1.311 1.992-1.311 2.888-1.255l.103.008c.619.039 2.117.698 2.935 1.075a.963.963 0 0 0-.172.079c-.017.008-.023.016-.04.03a.433.433 0 0 0-.117.086c-.021.017-.039.031-.057.056-.029.03-.063.063-.086.094-.017.022-.039.047-.055.07-.023.04-.048.078-.063.117l-.049.086a1.63 1.63 0 0 1-.042.133zm.894 1.773c-.181 0-.345-.086-.485-.234-.047-.063-.095-.125-.142-.196-.04-.063-.063-.133-.095-.204 0-.016-.008-.024-.016-.04-.018-.063-.031-.125-.049-.196 0-.016-.008-.04-.008-.055a1.252 1.252 0 0 1-.021-.259c0-.651.358-1.186.813-1.186.056 0 .108.009.183.031.359.118.635.589.635 1.153.002.652-.367 1.186-.815 1.186z"/><path d="M222.433 173.569c-.329.416-.345.573-.345.612s-.019.07-.049.086a.1.1 0 0 1-.095 0 1.36 1.36 0 0 0-.714-.204c-.697 0-1.294.581-1.727 1.671-.81 2.018-1.615 3.422-1.93 3.932.689-.229 2.783-1.004 4.148-2.416 1.624-1.68 1.191-2.793 1.191-2.801-.009-.022-.009-.039-.009-.063l.109-.395a4.767 4.767 0 0 1-.579-.422z" fill="#964B35"/><path d="m202.022 175.734-5.122-3.969c-.024-.33-.212-1.42-1.593-4.134.549-.017.895-.157 1.043-.425.134-.242.063-.518-.016-.706 1.012-.148 1.969-.973 2.078-1.074.055-.048.069-.142.039-.211a.184.184 0 0 0-.164-.103h-.023a3.574 3.574 0 0 1-.494.039c-.447 0-.809-.102-1.051-.204 1.199-.423 2.628-1.631 2.689-1.687a.184.184 0 0 0 .03-.251c-.063-.079-.183-.095-.251-.039-.268.195-.65.313-1.021.384 1.443-.847 2.479-2.432 2.604-2.636a.172.172 0 0 0-.039-.235.19.19 0 0 0-.244.016c-.321.337-.8.581-1.255.753 1.641-1.31 2.314-3.45 2.322-3.475a.176.176 0 0 0-.104-.22.19.19 0 0 0-.234.086c-.596 1.191-3.694 2.181-4.676 2.463.196-.534.424-1.318.424-1.326a.178.178 0 0 0-.077-.204.179.179 0 0 0-.22.023c-.158.157-.4.322-.646.463.81-1.146 1.728-3.051 1.741-3.067a.181.181 0 0 0-.057-.228.19.19 0 0 0-.228.008c-.022.023-2.407 2.071-4.676 2.62-1.16.273-1.687 1.161-1.923 1.858-.344 1.005-.258 2.056-.008 2.77-.273-.306-.627-.863-.996-1.898-.229-.635-.359-1.191-.479-1.693-.306-1.311-.51-2.182-2.142-2.212h-.078c-1.819 0-2.313 1.263-2.416 1.624l-2.057.887a.183.183 0 0 0-.103.196.177.177 0 0 0 .165.156l2.298.196c.017 0 1.442.408 1.278 1.232-.03.172-.102.416-.164.65-.354 1.302-1.004 3.71-.104 5.781 1.061 2.447 2.109 4.009 7.768 4.997l2.338 4.871a.176.176 0 0 0 .141.102h.023a.19.19 0 0 0 .148-.078l.676-.926.713.309c.07.029.164.008.221-.063l.635-.848.91.424c.086.039.195.01.234-.079l.313-.588h1.701a.179.179 0 0 0 .174-.126c.04-.068.017-.154-.045-.203zm-5.657-3.459a.19.19 0 0 0 0 .26l3.507 3.381-.211.408-.854-.394-3.76-4.573a.184.184 0 0 0-.258-.023.168.168 0 0 0-.063.119.17.17 0 0 0 .04.142l3.692 4.493-.557.738-.65-.283c-1.201-2.108-2.494-4.432-2.551-4.58a.183.183 0 0 0-.362.034c0 .063 0 .147 2.564 4.684l-.52.706-2.242-4.683a.187.187 0 0 0-.135-.097c-5.555-.965-6.572-2.455-7.594-4.808-.84-1.945-.211-4.283.125-5.538l.008-.023c.072-.251.127-.479.166-.644.211-1.067-1.191-1.554-1.514-1.655l.155-.526a.18.18 0 0 0-.022-.156l-.221-.314c.088-.298.479-1.349 2.063-1.349h.078c1.352.022 1.492.619 1.797 1.93.117.502.252 1.067.486 1.733.862 2.424 1.728 2.494 1.819 2.494a.194.194 0 0 0 .173-.102.217.217 0 0 0-.023-.196c-.445-.557-.666-1.922-.272-3.075.204-.611.659-1.38 1.663-1.624 1.615-.393 3.277-1.514 4.165-2.173-.502.957-1.381 2.542-1.906 2.935a.193.193 0 0 0-.047.243c.047.069.147.109.233.069.023-.016.613-.273 1.115-.596-.119.376-.283.847-.386 1.066-.36.282-1.161.926-1.302 1.356-.096.29-.793.581-1.396.581-.086 0-.164-.008-.228-.016-.031-.009-.056-.009-.078-.009-.69 0-1.364 1.641-1.491 1.97a.166.166 0 0 0 0 .141.155.155 0 0 0 .104.094c.086.039.194-.008.233-.102.33-.839.871-1.733 1.17-1.733.078.008.172.017.273.017.619 0 1.576-.283 1.757-.824.11-.314.849-.935 1.239-1.232.572-.148 3.1-.862 4.447-1.905-.493.996-1.42 2.407-2.901 2.988a.168.168 0 0 0-.11.22.18.18 0 0 0 .174.133h.022c.048-.008.974-.157 1.82-.564-.651.784-1.72 1.82-2.888 2.056-.086.016-.148.102-.148.195.016.095.086.165.182.165h.094c.203 0 .65-.008 1.146-.102-.589.399-1.391.886-1.982.987a.164.164 0 0 0-.149.134c-.022.07.008.142.063.188.021.023.596.463 1.567.486-.424.29-1.062.635-1.653.635-.07 0-.136.04-.166.103a.198.198 0 0 0 .016.195c.072.094.244.393.143.573-.047.094-.22.235-.809.235-.125 0-.268 0-.416-.017-.038-.008-.895-.094-1.561-.604-.236-.188-.479-.251-.724-.204-.455.102-.735.563-.792.659a.206.206 0 0 0-.018.141.217.217 0 0 0 .086.11c.088.047.197.008.252-.078 0 0 .229-.408.541-.471.143-.032.283.016.433.125.735.58 1.646.674 1.742.683.047.008.086.008.125.016 1.661 3.231 1.646 4.212 1.646 4.221a.161.161 0 0 0 .07.155l4.77 3.694h-1.207l-3.547-3.428c-.061-.06-.178-.06-.25.01zm-11.382-12.888-.148.51-1.311-.118 1.333-.573.126.181z"/><path d="M186.286 158.711c-.313 0-.55.229-.558.235a.1.1 0 0 0-.031.071c0 .039.022.234.503.33.047.008.094.016.141.016a.5.5 0 0 0 .486-.322.091.091 0 0 0-.022-.086c-.158-.164-.331-.244-.519-.244zm-.134.213a.162.162 0 0 0-.048.117c0 .039.018.079.04.103a.582.582 0 0 1-.243-.103.745.745 0 0 1 .251-.117zm.227.251a.175.175 0 0 0 .07-.134.179.179 0 0 0-.048-.125.593.593 0 0 1 .222.118.32.32 0 0 1-.244.141z"/></svg>