<svg width="123" height="37" fill="none" xmlns="http://www.w3.org/2000/svg"><g clip-path="url(#clip0_104_1370)"><path d="M78.094 25.977h-.014c-1.603-.7-3.129-1.344-3.129-2.884 0-1.54 1.232-2.33 2.917-2.33.978.02 1.927.333 2.726.898.14.102.314.149.487.13a.628.628 0 00.345-.297l.196-.32a.545.545 0 00-.149-.786 5.897 5.897 0 00-3.552-1.136c-2.707 0-4.592 1.607-4.592 3.93 0 2.322 1.99 3.263 3.911 4.125 1.674.725 3.25 1.418 3.25 3.069 0 1.418-1.127 2.38-2.828 2.38a5.44 5.44 0 01-3.275-1.231.553.553 0 00-.838.07l-.245.307a.601.601 0 00.07.843 6.95 6.95 0 004.278 1.528 4.072 4.072 0 003.119-1.033 4.087 4.087 0 001.347-3c0-2.54-2.14-3.448-4.024-4.263zM93.987.053H83.164a.544.544 0 00-.588.501v.348a.535.535 0 00.511.577h4.641v12.503a.557.557 0 00.508.589h.506a.526.526 0 00.577-.59V1.48h4.578a.535.535 0 00.602-.589V.644a.554.554 0 00-.512-.59zM111.72.086l-.059-.07h-.467a.616.616 0 00-.641.467l-3.88 10.564a24.607 24.607 0 00-.494 1.632 23.139 23.139 0 00-.492-1.632L101.86.554a.633.633 0 00-.651-.468h-.469a.556.556 0 00-.467.185.542.542 0 000 .523l4.913 13.35a.617.617 0 00.642.456h.712a.61.61 0 00.614-.455l4.995-13.36a.604.604 0 000-.534.544.544 0 00-.429-.165zM122.392 13.133l.014-.051h-6.473V7.974h4.86a.563.563 0 00.616-.59v-.266c0-.372-.231-.56-.616-.56h-4.848V1.479h6.08a.539.539 0 00.604-.487V.644a.556.556 0 00-.305-.533.55.55 0 00-.209-.056h-7.176a.533.533 0 00-.552.356.527.527 0 00-.025.233v13.324a.538.538 0 00.345.558.533.533 0 00.232.031h7.453a.546.546 0 00.604-.493v-.338a.54.54 0 00-.365-.568.543.543 0 00-.239-.025zM40.229 33.17a.556.556 0 00-.495-.604h-.133l-.027.043h-6.057V20.09a.543.543 0 00-.579-.59h-.402a.52.52 0 00-.577.59v13.324a.537.537 0 00.577.603h7.085a.547.547 0 00.613-.603l-.005-.244zM43.71 20.076a.537.537 0 00-.577-.59h-.43a.52.52 0 00-.576.59v13.321a.525.525 0 00.343.563.52.52 0 00.234.026h.43a.52.52 0 00.576-.589V20.076zM67.714 14.207a.736.736 0 00.679.358h.494a.517.517 0 00.577-.59V.646a.53.53 0 00-.577-.59h-.41a.548.548 0 00-.602.495v9.862c0 .515.065 1.232.102 1.636-.32-.581-.67-1.145-1.053-1.687l-7.1-9.986A.764.764 0 0059.122 0h-.494a.535.535 0 00-.571.59v13.378a.536.536 0 00.577.59h.431a.535.535 0 00.589-.59V4.106c0-.501-.065-1.234-.104-1.625.335.566.68 1.136 1.05 1.676l7.113 10.05zM53.706 14.18a.686.686 0 00.666.393h.532a.478.478 0 00.463-.197.517.517 0 000-.506l-2.8-5.2a4.302 4.302 0 00-.334-.52 4.06 4.06 0 002.66-3.981A3.873 3.873 0 0052.71.472a6.185 6.185 0 00-2.66-.419h-3.89a.527.527 0 00-.578.59v13.39a.517.517 0 00.577.58h.436a.532.532 0 00.576-.58V8.58h3.494l3.04 5.599zm-6.52-7.05v-5.6h2.77a4.113 4.113 0 011.845.258v-.045a2.551 2.551 0 011.461 2.465 2.664 2.664 0 01-1.644 2.728c-.352.144-.731.21-1.111.193h-3.321zM58.385 19.496h-.417a.538.538 0 00-.589.499v9.864c-.02.546.014 1.093.104 1.632-.251-.392-.706-1.233-1.045-1.677l-7.116-10.02a.772.772 0 00-.693-.359h-.496a.514.514 0 00-.569.59v13.372a.532.532 0 00.569.59h.404a.523.523 0 00.579-.59v-9.862a9.96 9.96 0 00-.085-1.636c.232.392.687 1.233 1.032 1.69l7.143 9.985a.722.722 0 00.634.373h.545a.544.544 0 00.577-.605V20.089a.526.526 0 00-.577-.593zM6.93 19.968a.59.59 0 00-.642-.472H5.63a.61.61 0 00-.643.472L.063 33.305a.59.59 0 000 .532.552.552 0 00.467.179h.31a.644.644 0 00.667-.47l1.486-4.102h5.7l1.526 4.092a.638.638 0 00.653.48h.489a.513.513 0 00.447-.179.59.59 0 000-.532L6.93 19.968zm-3.411 8.07l1.871-5.092c.175-.482.392-1.246.494-1.637.11.393.308 1.142.481 1.637l1.86 5.092H3.518zM70.952 32.578h-6.559v-5.155h4.923a.566.566 0 00.616-.495v-.367a.55.55 0 00-.616-.59h-4.923v-5.06h6.155a.548.548 0 00.602-.488v-.347a.554.554 0 00-.506-.59h-7.257a.526.526 0 00-.577.59v13.337a.54.54 0 00.577.603h7.477a.548.548 0 00.602-.487v-.36a.557.557 0 00-.514-.591zM6.93.523a.611.611 0 00-.628-.47H5.63a.611.611 0 00-.644.47L.063 13.88a.66.66 0 000 .519.6.6 0 00.467.173h.322a.588.588 0 00.655-.456L2.994 10h5.711l1.514 4.11a.607.607 0 00.654.456h.514a.522.522 0 00.435-.16.59.59 0 000-.545L6.93.523zM3.531 8.58l1.887-5.045a25.3 25.3 0 00.492-1.65c.096.416.308 1.155.469 1.65L8.25 8.59 3.531 8.58zM34.85 14.565h7.532a.545.545 0 00.589-.507v-.332a.554.554 0 00-.52-.59h-6.594V7.979h4.866a.548.548 0 00.602-.495v-.38a.514.514 0 00-.588-.551h-4.923V1.479h6.08a.538.538 0 00.604-.59V.645a.559.559 0 00-.508-.589h-7.14a.521.521 0 00-.576.59v13.323a.53.53 0 00.577.597zM26.381 28.116a5.213 5.213 0 00-.321-.534 4.012 4.012 0 002.687-3.994 3.88 3.88 0 00-2.18-3.7 6.269 6.269 0 00-2.65-.392h-3.863a.523.523 0 00-.579.59v13.337a.527.527 0 00.579.589h.416a.527.527 0 00.588-.59v-5.455h3.53l3.039 5.644a.69.69 0 00.655.36h.526a.443.443 0 00.415-.731l-2.842-5.124zm-2.006-1.62H21.04V20.89h2.784a3.986 3.986 0 011.845.269v.04a2.45 2.45 0 011.462 2.388 2.665 2.665 0 01-1.648 2.715c-.352.143-.73.208-1.108.193zM32.324.888V.554a.55.55 0 00-.602-.501h-10.81a.563.563 0 00-.513.59v.34a.55.55 0 00.588.5h4.553v12.573a.556.556 0 00.602.495h.41a.534.534 0 00.576-.59V1.48h4.578a.56.56 0 00.618-.591zM16.04 20.076a.54.54 0 00-.588-.59h-.42a.53.53 0 00-.588.59v13.321a.532.532 0 00.589.59h.43a.521.521 0 00.588-.59l-.01-13.321zM21.701 14.565a.542.542 0 00.589-.507.104.104 0 000-.09v-.242a.538.538 0 00-.589-.59h-6.066V.645a.544.544 0 00-.589-.589h-.423a.527.527 0 00-.577.59v13.323a.536.536 0 00.577.59l7.078.007z" fill="#005AA9"/><path d="M96.455 17.671l-.255.043.255.034v-.077zM102.7 21.109a2.469 2.469 0 00-.557-1.07l-2.52-2.372a1.425 1.425 0 00-1.072-.34l-.506.083v.552l.865.116a1.525 1.525 0 011.007.701l1.881 3.204c.191.38.276.807.245 1.232l-1.414 11.445 3.471-.554c.577-.102.75-.603.653-1.233L102.7 21.109z" fill="#6ECFF6"/><path d="M122.392 13.133l.014-.051h-6.473V7.974h4.86a.563.563 0 00.616-.59v-.266c0-.372-.231-.56-.616-.56h-4.848V1.479h6.08a.539.539 0 00.604-.487V.644a.556.556 0 00-.305-.533.55.55 0 00-.209-.056h-7.176a.533.533 0 00-.552.356.527.527 0 00-.025.233v13.324a.538.538 0 00.345.558.533.533 0 00.232.031h7.453a.546.546 0 00.604-.493v-.338a.54.54 0 00-.365-.568.543.543 0 00-.239-.025zM111.72.086l-.059-.07h-.467a.616.616 0 00-.641.467l-3.88 10.564a24.607 24.607 0 00-.494 1.632 23.139 23.139 0 00-.492-1.632L101.86.554a.633.633 0 00-.651-.468h-.469a.556.556 0 00-.467.185.542.542 0 000 .523l4.913 13.35a.617.617 0 00.642.456h.712a.61.61 0 00.614-.455l4.995-13.36a.604.604 0 000-.534.544.544 0 00-.429-.165zM78.094 25.977h-.014c-1.603-.7-3.129-1.344-3.129-2.884 0-1.54 1.232-2.33 2.917-2.33.978.02 1.927.333 2.726.898.14.102.314.149.487.13a.628.628 0 00.345-.297l.196-.32a.545.545 0 00-.149-.786 5.897 5.897 0 00-3.552-1.136c-2.707 0-4.592 1.607-4.592 3.93 0 2.322 1.99 3.263 3.911 4.125 1.674.725 3.25 1.418 3.25 3.069 0 1.418-1.127 2.38-2.828 2.38a5.44 5.44 0 01-3.275-1.231.553.553 0 00-.838.07l-.245.307a.601.601 0 00.07.843 6.95 6.95 0 004.278 1.528 4.072 4.072 0 003.119-1.033 4.087 4.087 0 001.347-3c0-2.54-2.14-3.448-4.024-4.263zM94.499.888V.644a.554.554 0 00-.512-.589H83.164a.544.544 0 00-.588.501v.346a.535.535 0 00.511.577h4.641v12.503a.557.557 0 00.508.589h.506a.525.525 0 00.577-.59V1.48h4.578a.534.534 0 00.602-.591zM78.608.523a.61.61 0 00-.636-.47h-.68a.607.607 0 00-.642.47L71.727 13.88a.615.615 0 000 .52.59.59 0 00.467.172h.431a.605.605 0 00.653-.456l1.49-4.11h5.65l1.569 4.06a.589.589 0 00.661.455h.455a.514.514 0 00.43-.173.57.57 0 000-.532L78.608.523zm-3.36 8.054l1.87-5.04c.173-.541.346-1.099.495-1.651.096.416.308 1.155.467 1.65l1.885 5.053-4.717-.012zM97.469.053h-.43a.527.527 0 00-.588.59v18.413a.554.554 0 00.588.609h.43a.553.553 0 00.557-.413.576.576 0 00.02-.196V.644a.543.543 0 00-.577-.59z" fill="#005AA9"/><path d="M96.039 20.466a1.648 1.648 0 01.267-1.247 1.737 1.737 0 00-.924 1.287 1.795 1.795 0 00.884 1.799c.205.117.432.193.667.222l.014.028a1.808 1.808 0 001.905-1.132 1.688 1.688 0 01-2.813-.957z" fill="#6ECFF6"/><path d="M101.798 21.983l-1.885-3.204a1.527 1.527 0 00-1.003-.705l-.865-.116v1.098a.578.578 0 01-.02.196 1.718 1.718 0 01.817 2.181 1.812 1.812 0 01-1.905 1.132l-.014-.028a1.785 1.785 0 01-1.508-1.318 1.794 1.794 0 01-.043-.703 1.74 1.74 0 01.934-1.297l.159-.07a.43.43 0 010-.1v-1.301l-.258-.034-.443-.06a1.505 1.505 0 00-1.147.412l-2.462 2.652a2.47 2.47 0 00-.537 1.155l-1.528 12.76a1.156 1.156 0 00.98 1.231l8.358 1.126c.616.083.963-.379 1.046-1.008l.164-1.322 1.415-11.445a2.369 2.369 0 00-.255-1.232z" fill="#BE1F2E"/></g><defs><clipPath id="clip0_104_1370"><path fill="#fff" d="M0 0h123v37H0z"/></clipPath></defs></svg>