<svg width="180" height="34" fill="none" xmlns="http://www.w3.org/2000/svg"><g clip-path="url(#clip0_104_1401)"><path d="M52.558 21.942c-.828.486-2.003.694-3.453.694-.9 0-1.52-.069-1.935-.208-.968-.346-1.658-.973-2.004-1.807a5.318 5.318 0 01-.344-1.875 16.17 16.17 0 01-.07-1.735V15.69c.07-.486.139-.903.207-1.32.066-.393.206-.771.414-1.112.197-.365.454-.693.76-.97.761-.558 1.797-.836 3.109-.836a8.829 8.829 0 012.763.418c.167.056.328.126.483.209l-.483 1.388a7.25 7.25 0 00-2.832-.694c-.69 0-1.243.069-1.589.277a1.768 1.768 0 00-.829.764c-.346.557-.483 1.667-.483 3.265-.012.58.01 1.16.069 1.738.068.485.139.97.346 1.319.346.764 1.036 1.181 2.14 1.181a10.26 10.26 0 003.254-.556l.477 1.181zm8.364-9.1a6.868 6.868 0 00-3.518 1.041v8.545h-1.521V7.008l1.45-.14v5.905c.622-.557 1.45-.902 2.418-1.182a8.658 8.658 0 011.45-.14c.466-.002.929.069 1.373.21.414.139.76.278.967.555.483.488.69 1.39.69 2.71v7.502h-1.52v-7.224c0-.904-.07-1.458-.278-1.667a1.21 1.21 0 00-.622-.556 2.7 2.7 0 00-.897-.14h.008zm15.68 9.031a11.307 11.307 0 01-4.144.765 9.521 9.521 0 01-2.217-.273 2.71 2.71 0 01-1.187-.622 2.732 2.732 0 01-.748-1.116c-.275-.833-.414-2.013-.414-3.61v-.494c0-1.875.346-3.265 1.175-4.027.69-.696 1.864-1.044 3.592-1.044 1.59 0 2.694.417 3.315 1.252.306.404.497.883.553 1.388.11.525.157 1.061.137 1.598a14.23 14.23 0 01-.068 1.875c-.829 0-1.59.07-2.281.07h-1.45a21.839 21.839 0 01-3.454-.208c0 1.39.137 2.36.483 2.917.414.625 1.313.973 2.556.973a8.25 8.25 0 003.661-.765l.49 1.321zm-1.45-5.558v-.832c0-.973-.14-1.667-.554-2.014-.414-.486-1.104-.694-2.072-.694-1.243 0-2.072.277-2.486.764-.415.488-.622 1.459-.622 2.778l5.733-.002zm9.186-3.334c-.76 0-1.59.348-2.348 1.11v8.337h-1.52V11.66h1.313l.137 1.39a3.24 3.24 0 01.954-.971c.212-.22.472-.388.76-.488a4.8 4.8 0 01.897-.14c.335.016.664.087.976.21l-.14 1.389a4.587 4.587 0 00-1.035-.069h.006zm7.667 0c-.76 0-1.52.348-2.349 1.11v8.337h-1.46V11.66h1.314l.136 1.39c.226-.386.533-.717.9-.971.245-.21.525-.376.828-.488.27-.08.548-.126.829-.14.355.016.706.086 1.04.21l-.139 1.389A5.594 5.594 0 0092 12.98h.005zm3.661 12.086c.333.124.682.194 1.036.209h.553a.35.35 0 00.276-.14.79.79 0 00.485-.554c.281-.652.512-1.326.69-2.015l-4.15-10.907h1.658l2.761 7.92.415 1.39.414-1.39 2.488-7.92h1.521L99.323 25c-.346 1.042-1.104 1.529-2.28 1.529-.76 0-1.383-.069-1.797-.277l.42-1.184zm15.611-4.792a7.597 7.597 0 003.72 1.042c1.036 0 1.658-.348 1.796-1.112.091-.292.138-.597.139-.903a2.624 2.624 0 00-.139-.833.93.93 0 00-.414-.487 7.483 7.483 0 00-.825-.205c-.41-.092-.825-.161-1.243-.208-.485-.07-.968-.209-1.382-.277a3.606 3.606 0 01-1.036-.486c-.621-.417-.967-1.181-.897-2.223v-.212c0-1.113.344-1.946 1.036-2.363.69-.485 1.865-.625 3.454-.485.9.032 1.788.22 2.625.556l-.415 1.388c-.692-.346-1.589-.555-2.625-.694-.277 0-.553-.07-.828-.07-.276 0-.554.07-.761.07-.202.05-.391.144-.553.277-.276.208-.483.625-.483 1.32 0 .697.207 1.182.622 1.39.481.22.995.361 1.52.417.553.069 1.036.138 1.451.208.346.07.692.138.967.209.278.12.535.284.761.485.482.417.69 1.182.69 2.223-.069 1.876-.829 2.917-2.348 3.196-.434.08-.873.126-1.313.138-.483 0-.897-.069-1.312-.069a6.515 6.515 0 01-1.106-.277 8.199 8.199 0 01-1.796-.764l.695-1.25zm19.134 1.598c-1.3.507-2.682.766-4.076.765a10.19 10.19 0 01-2.281-.277 2.711 2.711 0 01-1.187-.622 2.734 2.734 0 01-.748-1.116c-.275-.833-.414-2.013-.414-3.61v-.49c0-1.875.414-3.265 1.175-4.027.76-.696 1.935-1.044 3.592-1.044 1.658 0 2.762.418 3.384 1.252.277.346.414.833.553 1.388.166 1.15.189 2.317.068 3.473-.829 0-1.587.07-2.281.07h-1.452a22.84 22.84 0 01-3.522-.208c0 1.39.207 2.36.551 2.917.414.625 1.245.973 2.557.973a8.455 8.455 0 003.661-.765l.42 1.321zm-1.382-5.558v-.832c0-.973-.207-1.667-.552-2.014-.414-.486-1.106-.694-2.142-.694-1.174 0-2.003.277-2.486.764-.414.486-.621 1.459-.621 2.778l5.801-.002zm9.123-3.334c-.76 0-1.52.348-2.347 1.11v8.337h-1.452V11.66h1.313l.139 1.39c.225-.386.531-.717.897-.971a2.71 2.71 0 01.829-.488c.27-.08.548-.126.829-.14.35.017.695.088 1.024.21l-.137 1.389a5.616 5.616 0 00-1.106-.069h.011zm2.614-1.32h1.589l2.832 8.823.276.833.207-.833 2.695-8.824h1.658l-3.593 10.768h-2.003l-3.661-10.768zm20.447 10.212a11.317 11.317 0 01-4.146.765 9.532 9.532 0 01-2.209-.273 2.71 2.71 0 01-1.187-.622 2.734 2.734 0 01-.748-1.116c-.275-.833-.414-2.013-.414-3.61v-.494c0-1.875.346-3.265 1.175-4.027.69-.696 1.864-1.044 3.59-1.044 1.589 0 2.695.417 3.317 1.252.306.403.497.883.551 1.388.112.524.159 1.061.139 1.598.019.626-.004 1.252-.068 1.875-.829 0-1.589.07-2.281.07h-1.452a21.876 21.876 0 01-3.454-.208c0 1.39.139 2.36.485 2.917.414.625 1.311.973 2.554.973a8.237 8.237 0 003.661-.765l.487 1.321zm-1.451-5.558v-.832c0-.973-.138-1.667-.553-2.014-.414-.486-1.104-.694-2.072-.694-1.243 0-2.071.277-2.488.764-.416.488-.621 1.459-.621 2.778l5.734-.002zm9.187-3.334c-.76 0-1.589.348-2.349 1.11v8.337h-1.521V11.66h1.311l.139 1.39c.249-.39.579-.721.968-.971.211-.221.472-.388.76-.488.294-.075.594-.121.897-.14.331.018.657.088.966.21l-.139 1.389a4.589 4.589 0 00-1.036-.069h.004zm3.868 7.294a7.592 7.592 0 003.729 1.042c1.036 0 1.658-.348 1.797-1.112.091-.291.139-.594.14-.899 0-.283-.047-.565-.139-.833a.93.93 0 00-.414-.488 7.512 7.512 0 00-.831-.208c-.41-.092-.825-.161-1.243-.208-.482-.07-.967-.209-1.382-.277a3.6 3.6 0 01-1.035-.486c-.622-.417-.968-1.181-.898-2.223v-.212c0-1.113.344-1.946 1.036-2.363.69-.485 1.865-.625 3.454-.485.9.032 1.788.22 2.625.556l-.412 1.388c-.692-.346-1.59-.555-2.625-.694-.278 0-.554-.07-.829-.07-.276 0-.553.07-.761.07-.202.05-.391.144-.553.277-.275.208-.482.625-.482 1.32 0 .697.207 1.182.621 1.39.485.212.997.352 1.521.417.552.069 1.036.138 1.45.208.346.07.692.138.968.209.277.12.534.283.76.485.479.417.69 1.182.69 2.227-.069 1.875-.829 2.917-2.348 3.196-.433.08-.872.126-1.313.138-.483 0-.897-.069-1.312-.069a8.633 8.633 0 01-1.106-.277 8.17 8.17 0 01-1.794-.765l.686-1.254z" fill="#202020"/><path d="M7.175 3.047c7.392-5.14 17.476-3.61 22.933 3.336a15.703 15.703 0 01-3.246 3.194 15.458 15.458 0 01-2.762 1.529c-.07 0-.07 0-.139.069-.483.208-1.243.208-1.589-.348-2.418-3.959-6.7-3.823-10.154-.625-3.385 3.127-4.628 7.78-2.072 11.532 2.625 3.75 7.39 4.098 11.466 2.015 4.075-2.084 5.457-5.905 3.04-9.449-.275-.417 0-.765.415-.971h.07a22.638 22.638 0 003.108-1.738 27.299 27.299 0 003.315-3.058c4.353 7.503 2.281 17.297-4.972 22.365a16.839 16.839 0 01-12.48 2.513 16.909 16.909 0 01-10.69-6.948A17.088 17.088 0 01.57 13.988 17.028 17.028 0 017.175 3.047z" fill="#E10909"/></g><defs><clipPath id="clip0_104_1401"><path fill="#fff" d="M0 0h180v34H0z"/></clipPath></defs></svg>