<svg width="124" height="75" fill="none" xmlns="http://www.w3.org/2000/svg"><g filter="url(#filter0_i_77_1393)"><path d="M11.95.56h99.867c6.332 0 11.457 5.177 11.457 11.573v38.525c0 6.396-5.125 11.573-11.457 11.573H76.016l4.899 12.182L59.283 62.23H12.025C5.693 62.23.568 57.054.568 50.658V12.133C.493 5.813 5.618.56 11.949.56z" fill="#7F54B3"/><path d="M7.56 11.066c.678-.99 1.733-1.446 3.166-1.599 2.562-.228 3.994.99 4.371 3.655 1.583 10.507 3.241 19.415 5.05 26.724l10.929-21.014c.98-1.903 2.261-2.893 3.769-3.045 2.186-.152 3.542 1.294 4.07 4.263 1.281 6.7 2.864 12.411 4.748 17.208 1.282-12.792 3.467-22.004 6.558-27.714.753-1.447 1.809-2.132 3.316-2.208 1.13-.077 2.186.228 3.166.99.98.76 1.432 1.674 1.582 2.893.076.913-.075 1.675-.527 2.436-1.96 3.655-3.543 9.746-4.824 18.197-1.281 8.223-1.658 14.618-1.432 19.187.075 1.294-.075 2.36-.603 3.35-.603 1.142-1.508 1.675-2.638 1.827-1.281.076-2.638-.533-3.92-1.827-4.672-4.797-8.29-11.954-11.004-21.471-3.392 6.471-5.803 11.268-7.31 14.466-2.94 5.71-5.428 8.603-7.538 8.756-1.357.076-2.487-1.066-3.467-3.503-2.563-6.623-5.276-19.339-8.216-38.22a4.317 4.317 0 01.754-3.35zm107.104 7.919c-1.809-3.198-4.447-5.102-7.99-5.863a11.391 11.391 0 00-2.713-.304c-4.824 0-8.668 2.512-11.683 7.537-2.562 4.264-3.919 8.984-3.919 14.238 0 3.883.83 7.233 2.412 9.974 1.809 3.198 4.447 5.101 7.99 5.862a11.4 11.4 0 002.713.305c4.824 0 8.743-2.513 11.682-7.538 2.563-4.34 3.92-9.06 3.92-14.237.075-3.96-.754-7.233-2.412-9.974zm-6.256 14.009c-.678 3.35-1.96 5.786-3.769 7.461-1.432 1.295-2.788 1.828-4.07 1.6-1.206-.23-2.186-1.295-2.94-3.275-.602-1.599-.904-3.121-.904-4.568 0-1.294.076-2.512.377-3.655.452-2.055 1.281-4.11 2.638-6.014 1.658-2.437 3.392-3.503 5.201-3.122 1.206.228 2.186 1.294 2.939 3.274.603 1.599.905 3.122.905 4.568 0 1.294-.151 2.513-.377 3.73zM83.46 18.984c-1.81-3.197-4.522-5.1-7.99-5.862a11.402 11.402 0 00-2.713-.304c-4.824 0-8.668 2.512-11.683 7.537-2.562 4.264-3.92 8.984-3.92 14.238 0 3.883.83 7.233 2.413 9.974 1.809 3.198 4.447 5.101 7.99 5.862.98.229 1.808.305 2.713.305 4.824 0 8.743-2.513 11.682-7.538 2.563-4.34 3.92-9.06 3.92-14.237 0-3.96-.754-7.233-2.412-9.974zm-6.331 14.01c-.679 3.35-1.96 5.786-3.77 7.461-1.431 1.295-2.788 1.828-4.07 1.6-1.205-.23-2.185-1.295-2.939-3.275-.603-1.599-.904-3.121-.904-4.568 0-1.294.075-2.512.377-3.655.452-2.055 1.281-4.11 2.638-6.014 1.658-2.437 3.392-3.503 5.2-3.122 1.206.228 2.186 1.294 2.94 3.274.603 1.599.904 3.122.904 4.568.076 1.294-.075 2.513-.376 3.73z" fill="#fff"/></g><defs><filter id="filter0_i_77_1393" x=".567" y="-2.552" width="122.707" height="76.965" filterUnits="userSpaceOnUse" color-interpolation-filters="sRGB"><feFlood flood-opacity="0" result="BackgroundImageFix"/><feBlend in="SourceGraphic" in2="BackgroundImageFix" result="shape"/><feColorMatrix in="SourceAlpha" values="0 0 0 0 0 0 0 0 0 0 0 0 0 0 0 0 0 0 127 0" result="hardAlpha"/><feOffset dy="-3.112"/><feGaussianBlur stdDeviation="3.112"/><feComposite in2="hardAlpha" operator="arithmetic" k2="-1" k3="1"/><feColorMatrix values="0 0 0 0 0.627451 0 0 0 0 0.658824 0 0 0 0 0.745098 0 0 0 0.5 0"/><feBlend in2="shape" result="effect1_innerShadow_77_1393"/></filter></defs></svg>