<?xml version="1.0" encoding="UTF-8"?>
<svg width="600px" height="160px" viewBox="0 0 600 160" version="1.1" xmlns="http://www.w3.org/2000/svg" xmlns:xlink="http://www.w3.org/1999/xlink">
    <!-- Generator: Sketch 52.3 (67297) - http://www.bohemiancoding.com/sketch -->
    <title>Group</title>
    <desc>Created with Sketch.</desc>
    <defs>
        <polygon id="path-1" points="0.6957 0.6522 63.3043 0.6522 63.3043 41 0.6957 41"></polygon>
        <polygon id="path-3" points="0.3043 0 62.913 0 62.913 40.3478 0.3043 40.3478"></polygon>
        <path d="M66.7946,1.0243 L122.4944,33.3302 C125.8178,35.2578 126.9494,39.5146 125.0218,42.838 C124.4138,43.8862 123.5426,44.7575 122.4944,45.3654 L66.7946,77.6713 C64.6361,78.9232 61.9726,78.9232 59.8141,77.6713 L4.1143,45.3654 C0.7909,43.4378 -0.3407,39.181 1.5869,35.8576 C2.1949,34.8094 3.0661,33.9382 4.1143,33.3302 L59.8141,1.0243 C61.9726,-0.2276 64.6361,-0.2276 66.7946,1.0243 Z" id="path-5"></path>
        <path d="M66.7946,1.6765 L122.4944,33.9824 C125.8178,35.91 126.9494,40.1668 125.0218,43.4902 C124.4138,44.5384 123.5426,45.4096 122.4944,46.0176 L66.7946,78.3235 C64.6361,79.5754 61.9726,79.5754 59.8141,78.3235 L4.1143,46.0176 C0.7909,44.09 -0.3407,39.8332 1.5869,36.5098 C2.1949,35.4616 3.0661,34.5904 4.1143,33.9824 L59.8141,1.6765 C61.9726,0.4246 64.6361,0.4246 66.7946,1.6765 Z" id="path-7"></path>
        <path d="M66.7946,1.3287 L122.4944,33.6346 C125.8178,35.5622 126.9494,39.819 125.0218,43.1424 C124.4138,44.1906 123.5426,45.0618 122.4944,45.6698 L66.7946,77.9757 C64.6361,79.2276 61.9726,79.2276 59.8141,77.9757 L4.1143,45.6698 C0.7909,43.7422 -0.3407,39.4854 1.5869,36.162 C2.1949,35.1138 3.0661,34.2425 4.1143,33.6346 L59.8141,1.3287 C61.9726,0.0768 64.6361,0.0768 66.7946,1.3287 Z" id="path-9"></path>
        <path d="M43.6314,57.8978 C38.4011,62.8407 32.2656,65.3122 25.2248,65.3122 C18.184,65.3122 12.3647,63.1425 7.7666,58.803 C3.1686,54.4636 0.8696,48.6443 0.8696,41.3449 C0.8696,34.0454 3.2117,28.2405 7.8959,23.9298 C12.5802,19.6191 18.1122,17.4638 24.492,17.4638 C30.8718,17.4638 36.2888,19.3892 40.7432,23.2401 C45.1976,27.0909 47.4247,32.3786 47.4247,39.1033 L47.4247,46.0004 L13.6291,46.0004 C14.0315,48.5293 15.3534,50.5984 17.5949,52.2077 C19.8365,53.8171 22.3654,54.6217 25.1817,54.6217 C29.7223,54.6217 33.4582,53.0986 36.3894,50.0524 L43.6314,57.8978 Z M34.3203,36.7755 C34.0329,34.0167 32.9984,31.8901 31.2166,30.3958 C29.4349,28.9014 27.2652,28.1542 24.7075,28.1542 C22.1499,28.1542 19.8078,28.9301 17.6812,30.482 C15.5546,32.0338 14.3188,34.1317 13.974,36.7755 L34.3203,36.7755 Z M89.8561,50.2248 C89.8561,54.7654 88.1749,58.4151 84.8126,61.1739 C81.4502,63.9328 77.1827,65.3122 72.0099,65.3122 C68.5614,65.3122 64.9692,64.6943 61.2332,63.4586 C57.4973,62.2228 54.135,60.398 51.1463,57.984 L56.8364,49.88 C61.6643,53.6159 66.8083,55.4838 72.2685,55.4838 C73.9353,55.4838 75.2573,55.1534 76.2344,54.4924 C77.2115,53.8314 77.7,52.9549 77.7,51.8629 C77.7,50.7708 77.0247,49.765 75.674,48.8454 C74.3233,47.9258 72.3691,47.0637 69.8115,46.259 C67.2538,45.4543 65.2996,44.7647 63.949,44.1899 C62.5983,43.6151 61.0608,42.7817 59.3366,41.6897 C55.8305,39.5056 54.0775,36.2727 54.0775,31.9907 C54.0775,27.7088 55.8018,24.2172 59.2503,21.5158 C62.6989,18.8144 67.1532,17.4638 72.6134,17.4638 C78.0736,17.4638 83.5337,19.303 88.9939,22.9814 L84.166,31.6027 C80.1427,28.8439 76.1338,27.4645 72.1392,27.4645 C68.1447,27.4645 66.1474,28.5565 66.1474,30.7406 C66.1474,31.9476 66.7796,32.8959 68.0441,33.5857 C69.3086,34.2754 71.4064,35.08 74.3377,35.9996 C77.2689,36.9192 79.3524,37.6233 80.5881,38.1119 C81.8239,38.6004 83.3038,39.3619 85.0281,40.3965 C88.2468,42.3507 89.8561,45.6268 89.8561,50.2248 Z M110.9065,39.6206 L110.9065,64.6224 L97.9745,64.6224 L97.9745,0.6522 L110.9065,0.6522 L110.9065,23.4125 C114.8148,19.4467 119.1973,17.4638 124.054,17.4638 C128.9107,17.4638 133.0058,19.188 136.3394,22.6366 C139.673,26.0851 141.3398,30.6831 141.3398,36.4307 L141.3398,64.6224 L128.4078,64.6224 L128.4078,39.2757 C128.4078,32.1487 125.7927,28.5853 120.5624,28.5853 C117.976,28.5853 115.7201,29.5193 113.7946,31.3872 C111.8692,33.2552 110.9065,35.9996 110.9065,39.6206 Z M161.6143,41.4311 C161.6143,45.2245 162.6919,48.3137 164.8473,50.699 C167.0026,53.0842 169.7614,54.2768 173.1237,54.2768 C176.4861,54.2768 179.2449,53.0842 181.4002,50.699 C183.5556,48.3137 184.6332,45.2245 184.6332,41.4311 C184.6332,37.6377 183.5556,34.534 181.4002,32.12 C179.2449,29.706 176.4861,28.4991 173.1237,28.4991 C169.7614,28.4991 167.0026,29.706 164.8473,32.12 C162.6919,34.534 161.6143,37.6377 161.6143,41.4311 Z M197.6514,41.4311 C197.6514,48.1557 195.3237,53.817 190.6682,58.4151 C186.0126,63.0132 180.1645,65.3122 173.1237,65.3122 C166.083,65.3122 160.2349,63.0132 155.5793,58.4151 C150.9238,53.817 148.5961,48.1557 148.5961,41.4311 C148.5961,34.7064 150.9238,29.0307 155.5793,24.4039 C160.2349,19.7771 166.083,17.4638 173.1237,17.4638 C180.1645,17.4638 186.0126,19.7771 190.6682,24.4039 C195.3237,29.0307 197.6514,34.7064 197.6514,41.4311 Z M232.4098,17.4638 C237.8125,17.4638 242.626,19.7197 246.8505,24.2315 C251.075,28.7434 253.1872,34.419 253.1872,41.2586 C253.1872,48.0983 251.075,53.817 246.8505,58.4151 C242.626,63.0132 237.6832,65.3122 232.0218,65.3122 C226.3604,65.3122 221.8055,63.0419 218.357,58.5013 L218.357,81.3478 L205.425,81.3478 L205.425,18.2397 L218.357,18.2397 L218.357,23.4125 C222.3228,19.4467 227.007,17.4638 232.4098,17.4638 Z M218.1846,41.5173 C218.1846,45.2532 219.2335,48.3137 221.3313,50.699 C223.4292,53.0842 225.9725,54.2768 228.9612,54.2768 C231.95,54.2768 234.5651,53.0842 236.8066,50.699 C239.0482,48.3137 240.169,45.2532 240.169,41.5173 C240.169,37.7814 239.0769,34.649 236.8929,32.12 C234.7088,29.5911 232.0937,28.3266 229.0474,28.3266 C226.0012,28.3266 223.4292,29.5767 221.3313,32.0769 C219.2335,34.5771 218.1846,37.7239 218.1846,41.5173 Z M269.151,29.9647 C270.6454,26.5161 272.7863,23.8867 275.5739,22.0762 C278.3615,20.2657 281.7094,19.3317 285.6177,19.2742 L285.6177,24.7057 C280.8472,24.6482 277.0108,26.042 274.1083,28.887 C271.2057,31.7321 269.5533,35.5973 269.151,40.4827 L269.151,64.6224 L263.3747,64.6224 L263.3747,19.4467 L269.151,19.4467 L269.151,29.9647 Z M310.7202,19.2742 C317.7322,19.2742 323.0774,21.5014 326.7559,25.9558 C330.4343,30.4102 332.1298,36.4019 331.8424,43.9313 L294.1672,43.9313 C294.5696,48.7592 296.3513,52.6532 299.5124,55.6132 C302.6736,58.5732 306.5819,60.0531 311.2375,60.0531 C314.1112,60.0531 316.7838,59.5359 319.2553,58.5013 C321.7268,57.4667 323.8533,56.0011 325.6351,54.1044 L328.9112,57.3805 C326.7271,59.737 324.0976,61.5619 321.0227,62.8551 C317.9477,64.1483 314.5711,64.7949 310.8926,64.7949 C306.5244,64.7949 302.6449,63.8322 299.2538,61.9067 C295.8627,59.9813 293.2045,57.2943 291.2791,53.8458 C289.3536,50.3972 288.3909,46.4602 288.3909,42.0346 C288.3909,37.6664 289.3536,33.7437 291.2791,30.2664 C293.2045,26.7892 295.8627,24.0878 299.2538,22.1624 C302.6449,20.237 306.467,19.2742 310.7202,19.2742 Z M326.6696,39.4482 C326.3823,34.7351 324.8161,30.9849 321.971,28.1973 C319.126,25.4097 315.4045,24.016 310.8064,24.016 C306.2658,24.016 302.4725,25.4241 299.4262,28.2404 C296.38,31.0567 294.627,34.7926 294.1672,39.4482 L326.6696,39.4482 Z M365.7386,19.2742 C371.1414,19.2742 375.3801,20.8404 378.4551,23.9729 C381.5301,27.1053 383.0675,31.4016 383.0675,36.8618 L383.0675,64.6224 L377.205,64.6224 L377.205,38.2412 C377.205,33.988 376.0268,30.6544 373.6703,28.2404 C371.3137,25.8264 368.0377,24.6195 363.8419,24.6195 C359.1864,24.6769 355.4649,26.1138 352.6773,28.9301 C349.8897,31.7465 348.2948,35.5398 347.8925,40.3103 L347.8925,64.6224 L342.1162,64.6224 L342.1162,19.4467 L347.8925,19.4467 L347.8925,29.9647 C349.4443,26.4587 351.729,23.8148 354.7464,22.0331 C357.7639,20.2513 361.4279,19.3317 365.7386,19.2742 Z M419.464,61.5188 C416.36,63.6454 413.027,64.7661 409.463,64.8811 C406.015,64.8811 403.285,63.8178 401.273,61.6912 C399.2612,59.5646 398.2554,56.3747 398.2554,52.1215 L398.2554,25.223 L391.7894,25.223 L391.7032,20.7399 L398.2554,20.7399 L398.2554,9.1011 L404.032,9.1011 L404.032,20.7399 L418.688,20.6537 L418.688,25.223 L404.032,25.223 L404.032,51.1732 C404.032,56.7483 406.101,59.5359 410.239,59.5359 C412.538,59.5359 415.038,58.7312 417.74,57.1219 L419.464,61.5188 Z" id="path-11"></path>
    </defs>
    <g id="Page-1" stroke="none" stroke-width="1" fill="none" fill-rule="evenodd">
        <g id="Artboard-7" transform="translate(-420.000000, -370.000000)">
            <g id="Group" transform="translate(420.000000, 370.000000)">
                <g id="Group-299" transform="translate(0.000000, 39.000000)">
                    <mask id="mask-2" fill="white">
                        <use xlink:href="#path-1"></use>
                    </mask>
                    <g id="Clip-298"></g>
                    <polygon id="Fill-297" fill="#C63255" mask="url(#mask-2)" points="-4.3043 46 68.3044 46 68.3044 -4.34783 -4.3043 -4.34783"></polygon>
                </g>
                <g id="Group-302" transform="translate(63.000000, 80.000000)">
                    <mask id="mask-4" fill="white">
                        <use xlink:href="#path-3"></use>
                    </mask>
                    <g id="Clip-301"></g>
                    <polygon id="Fill-300" fill="#C63255" mask="url(#mask-4)" points="-4.6957 45.3478 67.913 45.3478 67.913 -5.00003 -4.6957 -5.00003"></polygon>
                </g>
                <g id="Group-305" transform="translate(0.000000, 81.000000)">
                    <mask id="mask-6" fill="white">
                        <use xlink:href="#path-5"></use>
                    </mask>
                    <g id="Clip-304"></g>
                    <polygon id="Fill-303" fill="#0031B1" mask="url(#mask-6)" points="-4.3531 83.6102 130.9619 83.6102 130.9619 -4.91463 -4.3531 -4.91463"></polygon>
                </g>
                <g id="Group-308" transform="translate(0.000000, 40.000000)">
                    <mask id="mask-8" fill="white">
                        <use xlink:href="#path-7"></use>
                    </mask>
                    <g id="Clip-307"></g>
                    <polygon id="Fill-306" fill="#EF476F" mask="url(#mask-8)" points="-4.3531 84.2624 130.9619 84.2624 130.9619 -4.26243 -4.3531 -4.26243"></polygon>
                </g>
                <g id="Group-311">
                    <mask id="mask-10" fill="white">
                        <use xlink:href="#path-9"></use>
                    </mask>
                    <g id="Clip-310"></g>
                    <polygon id="Fill-309" fill="#FFD166" mask="url(#mask-10)" points="-4.3531 83.9146 130.9619 83.9146 130.9619 -4.61023 -4.3531 -4.61023"></polygon>
                </g>
                <g id="Group-314" transform="translate(180.000000, 39.000000)">
                    <mask id="mask-12" fill="white">
                        <use xlink:href="#path-11"></use>
                    </mask>
                    <g id="Clip-313"></g>
                    <polygon id="Fill-312" fill="#323232" mask="url(#mask-12)" points="-4.1304 86.3478 424.4639 86.3478 424.4639 -4.34785 -4.1304 -4.34785"></polygon>
                </g>
            </g>
        </g>
    </g>
</svg>